<?xml version="1.0" encoding="UTF-8" standalone="no"?>
<!DOCTYPE svg PUBLIC "-//W3C//DTD SVG 1.1//EN"
 "http://www.w3.org/Graphics/SVG/1.1/DTD/svg11.dtd">
<!-- Generated by graphviz version 2.38.0 (20140413.2041)
 -->
<!-- Title: HydroCouple::Spatial::ITINComponentDataItem Pages: 1 -->
<svg width="270pt" height="885pt"
 viewBox="0.00 0.00 270.03 884.73" xmlns="http://www.w3.org/2000/svg" xmlns:xlink="http://www.w3.org/1999/xlink">
<g id="graph0" class="graph" transform="scale(1 1) rotate(0) translate(4 880.733)">
<title>HydroCouple::Spatial::ITINComponentDataItem</title>
<!-- Node1 -->
<g id="node1" class="node"><title>Node1</title>
<polygon fill="#bfbfbf" stroke="black" points="15.0024,-0.5 15.0024,-91.1748 187.028,-91.1748 187.028,-0.5 15.0024,-0.5"/>
<text text-anchor="start" x="23.0024" y="-79.1748" font-family="Monaco" font-size="10.00">HydroCouple::Spatial</text>
<text text-anchor="middle" x="101.015" y="-65.8398" font-family="Monaco" font-size="10.00">::ITINComponentDataItem</text>
<polyline fill="none" stroke="black" points="15.0024,-56.5049 187.028,-56.5049 "/>
<text text-anchor="middle" x="101.015" y="-44.5049" font-family="Monaco" font-size="10.00"> </text>
<polyline fill="none" stroke="black" points="15.0024,-35.1699 187.028,-35.1699 "/>
<text text-anchor="start" x="23.0024" y="-23.1699" font-family="Monaco" font-size="10.00">+ ~ITINComponentDataItem()</text>
<text text-anchor="start" x="23.0024" y="-9.83496" font-family="Monaco" font-size="10.00">+ TIN()</text>
</g>
<!-- Node2 -->
<g id="node2" class="node"><title>Node2</title>
<g id="a_node2"><a xlink:href="../../d8/d52/class_hydro_couple_1_1_i_component_data_item.html" target="_top" xlink:title="IComponentItem is a fundamental unit of data for a component. ">
<polygon fill="none" stroke="black" points="0,-362.529 0,-506.544 202.03,-506.544 202.03,-362.529 0,-362.529"/>
<text text-anchor="middle" x="101.015" y="-494.544" font-family="Monaco" font-size="10.00">HydroCouple::IComponentDataItem</text>
<polyline fill="none" stroke="black" points="0,-485.209 202.03,-485.209 "/>
<text text-anchor="middle" x="101.015" y="-473.209" font-family="Monaco" font-size="10.00"> </text>
<polyline fill="none" stroke="black" points="0,-463.874 202.03,-463.874 "/>
<text text-anchor="start" x="8" y="-451.874" font-family="Monaco" font-size="10.00">+ ~IComponentDataItem()</text>
<text text-anchor="start" x="8" y="-438.539" font-family="Monaco" font-size="10.00">+ modelComponent()</text>
<text text-anchor="start" x="8" y="-425.204" font-family="Monaco" font-size="10.00">+ dimensions()</text>
<text text-anchor="start" x="8" y="-411.869" font-family="Monaco" font-size="10.00">+ dimensionLength()</text>
<text text-anchor="start" x="8" y="-398.534" font-family="Monaco" font-size="10.00">+ valueDefinition()</text>
<text text-anchor="start" x="8" y="-385.199" font-family="Monaco" font-size="10.00">+ getValue()</text>
<text text-anchor="start" x="8" y="-371.864" font-family="Monaco" font-size="10.00">+ setValue()</text>
</a>
</g>
</g>
<!-- Node2&#45;&gt;Node1 -->
<g id="edge1" class="edge"><title>Node2&#45;&gt;Node1</title>
<path fill="none" stroke="midnightblue" d="M64.1462,-352.854C61.2397,-343.948 58.7589,-334.894 57.0151,-326.029 39.9991,-239.53 35.2705,-213.109 57.0151,-127.675 60.1681,-115.287 65.6474,-102.747 71.691,-91.3603"/>
<polygon fill="none" stroke="midnightblue" points="60.8841,-354.13 67.4525,-362.443 67.5018,-351.848 60.8841,-354.13"/>
</g>
<!-- Node6 -->
<g id="node6" class="node"><title>Node6</title>
<g id="a_node6"><a xlink:href="../../d0/da8/class_hydro_couple_1_1_spatial_1_1_i_polyhedral_surface_component_data_item.html" target="_top" xlink:title="IPolyhedralSurfaceComponentItem represents IPolyhedralSurface IComponentItem. ">
<polygon fill="none" stroke="black" points="66.0005,-128.175 66.0005,-325.529 262.03,-325.529 262.03,-128.175 66.0005,-128.175"/>
<text text-anchor="start" x="74.0005" y="-313.529" font-family="Monaco" font-size="10.00">HydroCouple::Spatial</text>
<text text-anchor="start" x="74.0005" y="-300.194" font-family="Monaco" font-size="10.00">::IPolyhedralSurfaceComponent</text>
<text text-anchor="middle" x="164.015" y="-286.859" font-family="Monaco" font-size="10.00">DataItem</text>
<polyline fill="none" stroke="black" points="66.0005,-277.524 262.03,-277.524 "/>
<text text-anchor="middle" x="164.015" y="-265.524" font-family="Monaco" font-size="10.00"> </text>
<polyline fill="none" stroke="black" points="66.0005,-256.189 262.03,-256.189 "/>
<text text-anchor="start" x="74.0005" y="-244.189" font-family="Monaco" font-size="10.00">+ ~IPolyhedralSurfaceComponent</text>
<text text-anchor="start" x="74.0005" y="-230.854" font-family="Monaco" font-size="10.00">DataItem()</text>
<text text-anchor="start" x="74.0005" y="-217.52" font-family="Monaco" font-size="10.00">+ meshDataType()</text>
<text text-anchor="start" x="74.0005" y="-204.185" font-family="Monaco" font-size="10.00">+ polyhedralSurface()</text>
<text text-anchor="start" x="74.0005" y="-190.85" font-family="Monaco" font-size="10.00">+ cellDimension()</text>
<text text-anchor="start" x="74.0005" y="-177.515" font-family="Monaco" font-size="10.00">+ edgeDimension()</text>
<text text-anchor="start" x="74.0005" y="-164.18" font-family="Monaco" font-size="10.00">+ nodeDimension()</text>
<text text-anchor="start" x="74.0005" y="-150.845" font-family="Monaco" font-size="10.00">+ getValue()</text>
<text text-anchor="start" x="74.0005" y="-137.51" font-family="Monaco" font-size="10.00">+ setValue()</text>
</a>
</g>
</g>
<!-- Node2&#45;&gt;Node6 -->
<g id="edge6" class="edge"><title>Node2&#45;&gt;Node6</title>
<path fill="none" stroke="midnightblue" d="M125.799,-352.623C128.498,-343.809 131.267,-334.769 134.02,-325.78"/>
<polygon fill="none" stroke="midnightblue" points="122.367,-351.877 122.784,-362.464 129.06,-353.927 122.367,-351.877"/>
</g>
<!-- Node3 -->
<g id="node3" class="node"><title>Node3</title>
<g id="a_node3"><a xlink:href="../../d2/d2a/class_hydro_couple_1_1_i_identity.html" target="_top" xlink:title="IIdentity interface class defines a method to get the Id of an HydroCouple entity. ">
<polygon fill="none" stroke="black" points="27.0044,-543.544 27.0044,-620.884 175.026,-620.884 175.026,-543.544 27.0044,-543.544"/>
<text text-anchor="middle" x="101.015" y="-608.884" font-family="Monaco" font-size="10.00">HydroCouple::IIdentity</text>
<polyline fill="none" stroke="black" points="27.0044,-599.549 175.026,-599.549 "/>
<text text-anchor="middle" x="101.015" y="-587.549" font-family="Monaco" font-size="10.00"> </text>
<polyline fill="none" stroke="black" points="27.0044,-578.214 175.026,-578.214 "/>
<text text-anchor="start" x="35.0044" y="-566.214" font-family="Monaco" font-size="10.00">+ ~IIdentity()</text>
<text text-anchor="start" x="35.0044" y="-552.879" font-family="Monaco" font-size="10.00">+ id()</text>
</a>
</g>
</g>
<!-- Node3&#45;&gt;Node2 -->
<g id="edge2" class="edge"><title>Node3&#45;&gt;Node2</title>
<path fill="none" stroke="midnightblue" d="M101.015,-533.192C101.015,-524.648 101.015,-515.587 101.015,-506.563"/>
<polygon fill="none" stroke="midnightblue" points="97.5152,-533.319 101.015,-543.319 104.515,-533.319 97.5152,-533.319"/>
</g>
<!-- Node4 -->
<g id="node4" class="node"><title>Node4</title>
<g id="a_node4"><a xlink:href="../../db/d64/class_hydro_couple_1_1_i_description.html" target="_top" xlink:title="IDescription interface class provides descriptive information on a HydroCouple object. ">
<polygon fill="none" stroke="black" points="18.0029,-657.884 18.0029,-775.229 184.027,-775.229 184.027,-657.884 18.0029,-657.884"/>
<text text-anchor="middle" x="101.015" y="-763.229" font-family="Monaco" font-size="10.00">HydroCouple::IDescription</text>
<polyline fill="none" stroke="black" points="18.0029,-753.894 184.027,-753.894 "/>
<text text-anchor="middle" x="101.015" y="-741.894" font-family="Monaco" font-size="10.00"> </text>
<polyline fill="none" stroke="black" points="18.0029,-732.559 184.027,-732.559 "/>
<text text-anchor="start" x="26.0029" y="-720.559" font-family="Monaco" font-size="10.00">+ ~IDescription()</text>
<text text-anchor="start" x="26.0029" y="-707.224" font-family="Monaco" font-size="10.00">+ caption()</text>
<text text-anchor="start" x="26.0029" y="-693.889" font-family="Monaco" font-size="10.00">+ setCaption()</text>
<text text-anchor="start" x="26.0029" y="-680.554" font-family="Monaco" font-size="10.00">+ description()</text>
<text text-anchor="start" x="26.0029" y="-667.219" font-family="Monaco" font-size="10.00">+ setDescription()</text>
</a>
</g>
</g>
<!-- Node4&#45;&gt;Node3 -->
<g id="edge3" class="edge"><title>Node4&#45;&gt;Node3</title>
<path fill="none" stroke="midnightblue" d="M101.015,-647.318C101.015,-638.279 101.015,-629.292 101.015,-621.031"/>
<polygon fill="none" stroke="midnightblue" points="97.5152,-647.509 101.015,-657.509 104.515,-647.509 97.5152,-647.509"/>
</g>
<!-- Node5 -->
<g id="node5" class="node"><title>Node5</title>
<g id="a_node5"><a xlink:href="../../dd/dbf/class_hydro_couple_1_1_i_property_changed.html" target="_top" xlink:title="IPropertyChanged interface is used to emit signal/event when a property of an object changes...">
<polygon fill="none" stroke="black" points="6.00098,-812.229 6.00098,-876.233 196.029,-876.233 196.029,-812.229 6.00098,-812.229"/>
<text text-anchor="middle" x="101.015" y="-864.233" font-family="Monaco" font-size="10.00">HydroCouple::IPropertyChanged</text>
<polyline fill="none" stroke="black" points="6.00098,-854.898 196.029,-854.898 "/>
<text text-anchor="middle" x="101.015" y="-842.898" font-family="Monaco" font-size="10.00"> </text>
<polyline fill="none" stroke="black" points="6.00098,-833.563 196.029,-833.563 "/>
<text text-anchor="start" x="14.001" y="-821.563" font-family="Monaco" font-size="10.00">+ ~IPropertyChanged()</text>
</a>
</g>
</g>
<!-- Node5&#45;&gt;Node4 -->
<g id="edge4" class="edge"><title>Node5&#45;&gt;Node4</title>
<path fill="none" stroke="midnightblue" d="M101.015,-801.908C101.015,-793.523 101.015,-784.557 101.015,-775.715"/>
<polygon fill="none" stroke="midnightblue" points="97.5152,-802.165 101.015,-812.165 104.515,-802.165 97.5152,-802.165"/>
</g>
<!-- Node6&#45;&gt;Node1 -->
<g id="edge5" class="edge"><title>Node6&#45;&gt;Node1</title>
<path fill="none" stroke="midnightblue" d="M126.226,-118.473C122.912,-109.057 119.695,-99.9166 116.73,-91.491"/>
<polygon fill="none" stroke="midnightblue" points="122.945,-119.693 129.566,-127.964 129.548,-117.37 122.945,-119.693"/>
</g>
</g>
</svg>
