<?xml version="1.0" encoding="UTF-8" standalone="no"?>
<!DOCTYPE svg PUBLIC "-//W3C//DTD SVG 1.1//EN"
 "http://www.w3.org/Graphics/SVG/1.1/DTD/svg11.dtd">
<!-- Generated by graphviz version 2.38.0 (20140413.2041)
 -->
<!-- Title: WKBMultiPolygon Pages: 1 -->
<svg width="121pt" height="483pt"
 viewBox="0.00 0.00 121.02 482.70" xmlns="http://www.w3.org/2000/svg" xmlns:xlink="http://www.w3.org/1999/xlink">
<g id="graph0" class="graph" transform="scale(1 1) rotate(0) translate(4 478.699)">
<title>WKBMultiPolygon</title>
<!-- Node1 -->
<g id="node1" class="node"><title>Node1</title>
<polygon fill="#bfbfbf" stroke="black" points="0,-0.5 0,-91.1748 106.015,-91.1748 106.015,-0.5 0,-0.5"/>
<text text-anchor="middle" x="53.0073" y="-79.1748" font-family="Monaco" font-size="10.00">WKBMultiPolygon</text>
<polyline fill="none" stroke="black" points="0,-69.8398 106.015,-69.8398 "/>
<text text-anchor="start" x="8" y="-57.8398" font-family="Monaco" font-size="10.00">+ byteOrder</text>
<text text-anchor="start" x="8" y="-44.5049" font-family="Monaco" font-size="10.00">+ numPolygons</text>
<text text-anchor="start" x="8" y="-31.1699" font-family="Monaco" font-size="10.00">+ wkbType</text>
<polyline fill="none" stroke="black" points="0,-21.835 106.015,-21.835 "/>
<text text-anchor="middle" x="53.0073" y="-9.83496" font-family="Monaco" font-size="10.00"> </text>
</g>
<!-- Node2 -->
<g id="node2" class="node"><title>Node2</title>
<g id="a_node2"><a xlink:href="../../df/df9/struct_w_k_b_polygon.html" target="_top" xlink:title="The WKBPolygon struct. ">
<polygon fill="none" stroke="black" points="12.002,-141.51 12.002,-232.185 94.0127,-232.185 94.0127,-141.51 12.002,-141.51"/>
<text text-anchor="middle" x="53.0073" y="-220.185" font-family="Monaco" font-size="10.00">WKBPolygon</text>
<polyline fill="none" stroke="black" points="12.002,-210.85 94.0127,-210.85 "/>
<text text-anchor="start" x="20.002" y="-198.85" font-family="Monaco" font-size="10.00">+ byteOrder</text>
<text text-anchor="start" x="20.002" y="-185.515" font-family="Monaco" font-size="10.00">+ numRings</text>
<text text-anchor="start" x="20.002" y="-172.18" font-family="Monaco" font-size="10.00">+ wkbType</text>
<polyline fill="none" stroke="black" points="12.002,-162.845 94.0127,-162.845 "/>
<text text-anchor="middle" x="53.0073" y="-150.845" font-family="Monaco" font-size="10.00"> </text>
</a>
</g>
</g>
<!-- Node2&#45;&gt;Node1 -->
<g id="edge1" class="edge"><title>Node2&#45;&gt;Node1</title>
<path fill="none" stroke="#404040" d="M53.0073,-141.481C53.0073,-129.444 53.0073,-116.243 53.0073,-103.622"/>
<polygon fill="none" stroke="#404040" points="53.0074,-103.258 49.0074,-97.2585 53.0073,-91.2585 57.0074,-97.2584 53.0074,-103.258"/>
<text text-anchor="middle" x="83.0122" y="-115.01" font-family="Monaco" font-size="10.00"> +polygons</text>
</g>
<!-- Node3 -->
<g id="node3" class="node"><title>Node3</title>
<g id="a_node3"><a xlink:href="../../d6/db5/struct_linear_ring.html" target="_top" xlink:title="The LinearRing struct. ">
<polygon fill="none" stroke="black" points="12.002,-282.52 12.002,-346.524 94.0127,-346.524 94.0127,-282.52 12.002,-282.52"/>
<text text-anchor="middle" x="53.0073" y="-334.524" font-family="Monaco" font-size="10.00">LinearRing</text>
<polyline fill="none" stroke="black" points="12.002,-325.189 94.0127,-325.189 "/>
<text text-anchor="start" x="20.002" y="-313.189" font-family="Monaco" font-size="10.00">+ numPoints</text>
<polyline fill="none" stroke="black" points="12.002,-303.854 94.0127,-303.854 "/>
<text text-anchor="middle" x="53.0073" y="-291.854" font-family="Monaco" font-size="10.00"> </text>
</a>
</g>
</g>
<!-- Node3&#45;&gt;Node2 -->
<g id="edge2" class="edge"><title>Node3&#45;&gt;Node2</title>
<path fill="none" stroke="#404040" d="M53.0073,-282.456C53.0073,-270.999 53.0073,-257.629 53.0073,-244.611"/>
<polygon fill="none" stroke="#404040" points="53.0074,-244.31 49.0074,-238.31 53.0073,-232.31 57.0074,-238.31 53.0074,-244.31"/>
<text text-anchor="middle" x="74.0107" y="-256.02" font-family="Monaco" font-size="10.00"> +rings</text>
</g>
<!-- Node4 -->
<g id="node4" class="node"><title>Node4</title>
<g id="a_node4"><a xlink:href="../../d8/dc8/struct_point.html" target="_top" xlink:title="The Point struct. ">
<polygon fill="none" stroke="black" points="30.0049,-396.859 30.0049,-474.199 76.0098,-474.199 76.0098,-396.859 30.0049,-396.859"/>
<text text-anchor="middle" x="53.0073" y="-462.199" font-family="Monaco" font-size="10.00">Point</text>
<polyline fill="none" stroke="black" points="30.0049,-452.864 76.0098,-452.864 "/>
<text text-anchor="start" x="38.0049" y="-440.864" font-family="Monaco" font-size="10.00">+ x</text>
<text text-anchor="start" x="38.0049" y="-427.529" font-family="Monaco" font-size="10.00">+ y</text>
<polyline fill="none" stroke="black" points="30.0049,-418.194 76.0098,-418.194 "/>
<text text-anchor="middle" x="53.0073" y="-406.194" font-family="Monaco" font-size="10.00"> </text>
</a>
</g>
</g>
<!-- Node4&#45;&gt;Node3 -->
<g id="edge3" class="edge"><title>Node4&#45;&gt;Node3</title>
<path fill="none" stroke="#404040" d="M53.0073,-396.547C53.0073,-384.633 53.0073,-371.387 53.0073,-359.116"/>
<polygon fill="none" stroke="#404040" points="53.0074,-358.778 49.0074,-352.778 53.0073,-346.778 57.0074,-352.778 53.0074,-358.778"/>
<text text-anchor="middle" x="77.0112" y="-370.359" font-family="Monaco" font-size="10.00"> +points</text>
</g>
</g>
</svg>
