<?xml version="1.0" encoding="UTF-8" standalone="no"?>
<!DOCTYPE svg PUBLIC "-//W3C//DTD SVG 1.1//EN"
 "http://www.w3.org/Graphics/SVG/1.1/DTD/svg11.dtd">
<!-- Generated by graphviz version 2.38.0 (20140413.2041)
 -->
<!-- Title: HydroCouple::Spatial::IRegularGrid2DComponentDataItem Pages: 1 -->
<svg width="222pt" height="757pt"
 viewBox="0.00 0.00 222.03 757.06" xmlns="http://www.w3.org/2000/svg" xmlns:xlink="http://www.w3.org/1999/xlink">
<g id="graph0" class="graph" transform="scale(1 1) rotate(0) translate(4 753.059)">
<title>HydroCouple::Spatial::IRegularGrid2DComponentDataItem</title>
<!-- Node1 -->
<g id="node1" class="node"><title>Node1</title>
<polygon fill="#bfbfbf" stroke="black" points="0,-0.5 0,-197.854 214.032,-197.854 214.032,-0.5 0,-0.5"/>
<text text-anchor="start" x="8" y="-185.854" font-family="Monaco" font-size="10.00">HydroCouple::Spatial</text>
<text text-anchor="middle" x="107.016" y="-172.52" font-family="Monaco" font-size="10.00">::IRegularGrid2DComponentDataItem</text>
<polyline fill="none" stroke="black" points="0,-163.185 214.032,-163.185 "/>
<text text-anchor="middle" x="107.016" y="-151.185" font-family="Monaco" font-size="10.00"> </text>
<polyline fill="none" stroke="black" points="0,-141.85 214.032,-141.85 "/>
<text text-anchor="start" x="8" y="-129.85" font-family="Monaco" font-size="10.00">+ ~IRegularGrid2DComponent</text>
<text text-anchor="start" x="8" y="-116.515" font-family="Monaco" font-size="10.00">DataItem()</text>
<text text-anchor="start" x="8" y="-103.18" font-family="Monaco" font-size="10.00">+ grid()</text>
<text text-anchor="start" x="8" y="-89.8447" font-family="Monaco" font-size="10.00">+ meshDataType()</text>
<text text-anchor="start" x="8" y="-76.5098" font-family="Monaco" font-size="10.00">+ xCellDimension()</text>
<text text-anchor="start" x="8" y="-63.1748" font-family="Monaco" font-size="10.00">+ yCellDimension()</text>
<text text-anchor="start" x="8" y="-49.8398" font-family="Monaco" font-size="10.00">+ cellEdgeDimension()</text>
<text text-anchor="start" x="8" y="-36.5049" font-family="Monaco" font-size="10.00">+ cellNodeDimension()</text>
<text text-anchor="start" x="8" y="-23.1699" font-family="Monaco" font-size="10.00">+ getValue()</text>
<text text-anchor="start" x="8" y="-9.83496" font-family="Monaco" font-size="10.00">+ setValue()</text>
</g>
<!-- Node2 -->
<g id="node2" class="node"><title>Node2</title>
<g id="a_node2"><a xlink:href="../../d8/d52/class_hydro_couple_1_1_i_component_data_item.html" target="_top" xlink:title="IComponentItem is a fundamental unit of data for a component. ">
<polygon fill="none" stroke="black" points="6.00098,-234.854 6.00098,-378.869 208.031,-378.869 208.031,-234.854 6.00098,-234.854"/>
<text text-anchor="middle" x="107.016" y="-366.869" font-family="Monaco" font-size="10.00">HydroCouple::IComponentDataItem</text>
<polyline fill="none" stroke="black" points="6.00098,-357.534 208.031,-357.534 "/>
<text text-anchor="middle" x="107.016" y="-345.534" font-family="Monaco" font-size="10.00"> </text>
<polyline fill="none" stroke="black" points="6.00098,-336.199 208.031,-336.199 "/>
<text text-anchor="start" x="14.001" y="-324.199" font-family="Monaco" font-size="10.00">+ ~IComponentDataItem()</text>
<text text-anchor="start" x="14.001" y="-310.864" font-family="Monaco" font-size="10.00">+ modelComponent()</text>
<text text-anchor="start" x="14.001" y="-297.529" font-family="Monaco" font-size="10.00">+ dimensions()</text>
<text text-anchor="start" x="14.001" y="-284.194" font-family="Monaco" font-size="10.00">+ dimensionLength()</text>
<text text-anchor="start" x="14.001" y="-270.859" font-family="Monaco" font-size="10.00">+ valueDefinition()</text>
<text text-anchor="start" x="14.001" y="-257.524" font-family="Monaco" font-size="10.00">+ getValue()</text>
<text text-anchor="start" x="14.001" y="-244.189" font-family="Monaco" font-size="10.00">+ setValue()</text>
</a>
</g>
</g>
<!-- Node2&#45;&gt;Node1 -->
<g id="edge1" class="edge"><title>Node2&#45;&gt;Node1</title>
<path fill="none" stroke="midnightblue" d="M107.016,-224.664C107.016,-215.939 107.016,-206.998 107.016,-198.105"/>
<polygon fill="none" stroke="midnightblue" points="103.516,-224.789 107.016,-234.789 110.516,-224.789 103.516,-224.789"/>
</g>
<!-- Node3 -->
<g id="node3" class="node"><title>Node3</title>
<g id="a_node3"><a xlink:href="../../d2/d2a/class_hydro_couple_1_1_i_identity.html" target="_top" xlink:title="IIdentity interface class defines a method to get the Id of an HydroCouple entity. ">
<polygon fill="none" stroke="black" points="33.0054,-415.869 33.0054,-493.209 181.027,-493.209 181.027,-415.869 33.0054,-415.869"/>
<text text-anchor="middle" x="107.016" y="-481.209" font-family="Monaco" font-size="10.00">HydroCouple::IIdentity</text>
<polyline fill="none" stroke="black" points="33.0054,-471.874 181.027,-471.874 "/>
<text text-anchor="middle" x="107.016" y="-459.874" font-family="Monaco" font-size="10.00"> </text>
<polyline fill="none" stroke="black" points="33.0054,-450.539 181.027,-450.539 "/>
<text text-anchor="start" x="41.0054" y="-438.539" font-family="Monaco" font-size="10.00">+ ~IIdentity()</text>
<text text-anchor="start" x="41.0054" y="-425.204" font-family="Monaco" font-size="10.00">+ id()</text>
</a>
</g>
</g>
<!-- Node3&#45;&gt;Node2 -->
<g id="edge2" class="edge"><title>Node3&#45;&gt;Node2</title>
<path fill="none" stroke="midnightblue" d="M107.016,-405.517C107.016,-396.973 107.016,-387.912 107.016,-378.888"/>
<polygon fill="none" stroke="midnightblue" points="103.516,-405.644 107.016,-415.644 110.516,-405.644 103.516,-405.644"/>
</g>
<!-- Node4 -->
<g id="node4" class="node"><title>Node4</title>
<g id="a_node4"><a xlink:href="../../db/d64/class_hydro_couple_1_1_i_description.html" target="_top" xlink:title="IDescription interface class provides descriptive information on a HydroCouple object. ">
<polygon fill="none" stroke="black" points="24.0039,-530.209 24.0039,-647.554 190.028,-647.554 190.028,-530.209 24.0039,-530.209"/>
<text text-anchor="middle" x="107.016" y="-635.554" font-family="Monaco" font-size="10.00">HydroCouple::IDescription</text>
<polyline fill="none" stroke="black" points="24.0039,-626.219 190.028,-626.219 "/>
<text text-anchor="middle" x="107.016" y="-614.219" font-family="Monaco" font-size="10.00"> </text>
<polyline fill="none" stroke="black" points="24.0039,-604.884 190.028,-604.884 "/>
<text text-anchor="start" x="32.0039" y="-592.884" font-family="Monaco" font-size="10.00">+ ~IDescription()</text>
<text text-anchor="start" x="32.0039" y="-579.549" font-family="Monaco" font-size="10.00">+ caption()</text>
<text text-anchor="start" x="32.0039" y="-566.214" font-family="Monaco" font-size="10.00">+ setCaption()</text>
<text text-anchor="start" x="32.0039" y="-552.879" font-family="Monaco" font-size="10.00">+ description()</text>
<text text-anchor="start" x="32.0039" y="-539.544" font-family="Monaco" font-size="10.00">+ setDescription()</text>
</a>
</g>
</g>
<!-- Node4&#45;&gt;Node3 -->
<g id="edge3" class="edge"><title>Node4&#45;&gt;Node3</title>
<path fill="none" stroke="midnightblue" d="M107.016,-519.643C107.016,-510.604 107.016,-501.617 107.016,-493.356"/>
<polygon fill="none" stroke="midnightblue" points="103.516,-519.834 107.016,-529.834 110.516,-519.834 103.516,-519.834"/>
</g>
<!-- Node5 -->
<g id="node5" class="node"><title>Node5</title>
<g id="a_node5"><a xlink:href="../../dd/dbf/class_hydro_couple_1_1_i_property_changed.html" target="_top" xlink:title="IPropertyChanged interface is used to emit signal/event when a property of an object changes...">
<polygon fill="none" stroke="black" points="12.002,-684.554 12.002,-748.559 202.03,-748.559 202.03,-684.554 12.002,-684.554"/>
<text text-anchor="middle" x="107.016" y="-736.559" font-family="Monaco" font-size="10.00">HydroCouple::IPropertyChanged</text>
<polyline fill="none" stroke="black" points="12.002,-727.224 202.03,-727.224 "/>
<text text-anchor="middle" x="107.016" y="-715.224" font-family="Monaco" font-size="10.00"> </text>
<polyline fill="none" stroke="black" points="12.002,-705.889 202.03,-705.889 "/>
<text text-anchor="start" x="20.002" y="-693.889" font-family="Monaco" font-size="10.00">+ ~IPropertyChanged()</text>
</a>
</g>
</g>
<!-- Node5&#45;&gt;Node4 -->
<g id="edge4" class="edge"><title>Node5&#45;&gt;Node4</title>
<path fill="none" stroke="midnightblue" d="M107.016,-674.233C107.016,-665.848 107.016,-656.882 107.016,-648.04"/>
<polygon fill="none" stroke="midnightblue" points="103.516,-674.49 107.016,-684.49 110.516,-674.49 103.516,-674.49"/>
</g>
</g>
</svg>
