<?xml version="1.0" encoding="UTF-8" standalone="no"?>
<!DOCTYPE svg PUBLIC "-//W3C//DTD SVG 1.1//EN"
 "http://www.w3.org/Graphics/SVG/1.1/DTD/svg11.dtd">
<!-- Generated by graphviz version 2.38.0 (20140413.2041)
 -->
<!-- Title: WKBPolyhedralSurfaceZM Pages: 1 -->
<!--zoomable 509 -->
<svg id="main" version="1.1" xmlns="http://www.w3.org/2000/svg" xmlns:xlink="http://www.w3.org/1999/xlink" xml:space="preserve" onload="init(evt)">
<style type="text/css"><![CDATA[
.edge:hover path { stroke: red; }
.edge:hover polygon { stroke: red; fill: red; }
]]></style>
<script type="text/javascript"><![CDATA[
var edges = document.getElementsByTagName('g');
if (edges && edges.length) {
  for (var i=0;i<edges.length;i++) {
    if (edges[i].id.substr(0,4)=='edge') {
      edges[i].setAttribute('class','edge');
    }
  }
}
]]></script>
        <defs>
                <circle id="rim" cx="0" cy="0" r="7"/>
                <circle id="rim2" cx="0" cy="0" r="3.5"/>
                <g id="zoomPlus">
                        <use xlink:href="#rim" fill="#404040">
                                <set attributeName="fill" to="#808080" begin="zoomplus.mouseover" end="zoomplus.mouseout"/>
                        </use>
                        <path d="M-4,0h8M0,-4v8" fill="none" stroke="white" stroke-width="1.5" pointer-events="none"/>
                </g>
                <g id="zoomMin">
                        <use xlink:href="#rim" fill="#404040">
                                <set attributeName="fill" to="#808080" begin="zoomminus.mouseover" end="zoomminus.mouseout"/>
                        </use>
                        <path d="M-4,0h8" fill="none" stroke="white" stroke-width="1.5" pointer-events="none"/>
                </g>
                <g id="dirArrow">
                        <path fill="none" stroke="white" stroke-width="1.5" d="M0,-3.0v7 M-2.5,-0.5L0,-3.0L2.5,-0.5"/>
                </g>
               <g id="resetDef">
                       <use xlink:href="#rim2" fill="#404040">
                               <set attributeName="fill" to="#808080" begin="reset.mouseover" end="reset.mouseout"/>
                       </use>
               </g>
        </defs>

<script type="text/javascript">
var viewWidth = 156;
var viewHeight = 509;
var sectionId = 'dynsection-0';
</script>
<script xlink:href="../../svgpan.js"/>
<svg id="graph" class="graph">
<g id="viewport">
<title>WKBPolyhedralSurfaceZM</title>
<!-- Node1 -->
<g id="node1" class="node"><title>Node1</title>
<polygon fill="#bfbfbf" stroke="black" points="0,-0.5 0,-91.1748 148.021,-91.1748 148.021,-0.5 0,-0.5"/>
<text text-anchor="middle" x="74.0107" y="-79.1748" font-family="Monaco" font-size="10.00">WKBPolyhedralSurfaceZM</text>
<polyline fill="none" stroke="black" points="0,-69.8398 148.021,-69.8398 "/>
<text text-anchor="start" x="8" y="-57.8398" font-family="Monaco" font-size="10.00">+ byteOrder</text>
<text text-anchor="start" x="8" y="-44.5049" font-family="Monaco" font-size="10.00">+ numPolygons</text>
<text text-anchor="start" x="8" y="-31.1699" font-family="Monaco" font-size="10.00">+ wkbType</text>
<polyline fill="none" stroke="black" points="0,-21.835 148.021,-21.835 "/>
<text text-anchor="middle" x="74.0107" y="-9.83496" font-family="Monaco" font-size="10.00"> </text>
</g>
<!-- Node2 -->
<g id="node2" class="node"><title>Node2</title>
<g id="a_node2"><a xlink:href="../../d0/dac/struct_w_k_b_polygon_z_m.html" target="_top" xlink:title="The WKBPolygonZM struct. ">
<polygon fill="none" stroke="black" points="30.0049,-141.51 30.0049,-232.185 118.017,-232.185 118.017,-141.51 30.0049,-141.51"/>
<text text-anchor="middle" x="74.0107" y="-220.185" font-family="Monaco" font-size="10.00">WKBPolygonZM</text>
<polyline fill="none" stroke="black" points="30.0049,-210.85 118.017,-210.85 "/>
<text text-anchor="start" x="38.0049" y="-198.85" font-family="Monaco" font-size="10.00">+ byteOrder</text>
<text text-anchor="start" x="38.0049" y="-185.515" font-family="Monaco" font-size="10.00">+ numRings</text>
<text text-anchor="start" x="38.0049" y="-172.18" font-family="Monaco" font-size="10.00">+ wkbType</text>
<polyline fill="none" stroke="black" points="30.0049,-162.845 118.017,-162.845 "/>
<text text-anchor="middle" x="74.0107" y="-150.845" font-family="Monaco" font-size="10.00"> </text>
</a>
</g>
</g>
<!-- Node2&#45;&gt;Node1 -->
<g id="edge1" class="edge"><title>Node2&#45;&gt;Node1</title>
<path fill="none" stroke="#404040" d="M74.0107,-141.481C74.0107,-129.444 74.0107,-116.243 74.0107,-103.622"/>
<polygon fill="none" stroke="#404040" points="74.0108,-103.258 70.0108,-97.2585 74.0107,-91.2585 78.0108,-97.2584 74.0108,-103.258"/>
<text text-anchor="middle" x="104.016" y="-115.01" font-family="Monaco" font-size="10.00"> +polygons</text>
</g>
<!-- Node3 -->
<g id="node3" class="node"><title>Node3</title>
<g id="a_node3"><a xlink:href="../../dc/dd2/struct_linear_ring_z_m.html" target="_top" xlink:title="The LinearRingZM struct. ">
<polygon fill="none" stroke="black" points="30.0049,-282.52 30.0049,-346.524 118.017,-346.524 118.017,-282.52 30.0049,-282.52"/>
<text text-anchor="middle" x="74.0107" y="-334.524" font-family="Monaco" font-size="10.00">LinearRingZM</text>
<polyline fill="none" stroke="black" points="30.0049,-325.189 118.017,-325.189 "/>
<text text-anchor="start" x="38.0049" y="-313.189" font-family="Monaco" font-size="10.00">+ numPoints</text>
<polyline fill="none" stroke="black" points="30.0049,-303.854 118.017,-303.854 "/>
<text text-anchor="middle" x="74.0107" y="-291.854" font-family="Monaco" font-size="10.00"> </text>
</a>
</g>
</g>
<!-- Node3&#45;&gt;Node2 -->
<g id="edge2" class="edge"><title>Node3&#45;&gt;Node2</title>
<path fill="none" stroke="#404040" d="M74.0107,-282.456C74.0107,-270.999 74.0107,-257.629 74.0107,-244.611"/>
<polygon fill="none" stroke="#404040" points="74.0108,-244.31 70.0108,-238.31 74.0107,-232.31 78.0108,-238.31 74.0108,-244.31"/>
<text text-anchor="middle" x="95.0142" y="-256.02" font-family="Monaco" font-size="10.00"> +rings</text>
</g>
<!-- Node4 -->
<g id="node4" class="node"><title>Node4</title>
<g id="a_node4"><a xlink:href="../../d7/ded/struct_point_z_m.html" target="_top" xlink:title="The PointZM struct. ">
<polygon fill="none" stroke="black" points="45.0073,-396.859 45.0073,-500.869 103.014,-500.869 103.014,-396.859 45.0073,-396.859"/>
<text text-anchor="middle" x="74.0107" y="-488.869" font-family="Monaco" font-size="10.00">PointZM</text>
<polyline fill="none" stroke="black" points="45.0073,-479.534 103.014,-479.534 "/>
<text text-anchor="start" x="53.0073" y="-467.534" font-family="Monaco" font-size="10.00">+ x</text>
<text text-anchor="start" x="53.0073" y="-454.199" font-family="Monaco" font-size="10.00">+ y</text>
<text text-anchor="start" x="53.0073" y="-440.864" font-family="Monaco" font-size="10.00">+ z</text>
<text text-anchor="start" x="53.0073" y="-427.529" font-family="Monaco" font-size="10.00">+ m</text>
<polyline fill="none" stroke="black" points="45.0073,-418.194 103.014,-418.194 "/>
<text text-anchor="middle" x="74.0107" y="-406.194" font-family="Monaco" font-size="10.00"> </text>
</a>
</g>
</g>
<!-- Node4&#45;&gt;Node3 -->
<g id="edge3" class="edge"><title>Node4&#45;&gt;Node3</title>
<path fill="none" stroke="#404040" d="M74.0107,-396.697C74.0107,-384.173 74.0107,-370.892 74.0107,-358.779"/>
<polygon fill="none" stroke="#404040" points="74.0108,-358.66 70.0108,-352.66 74.0107,-346.66 78.0108,-352.66 74.0108,-358.66"/>
<text text-anchor="middle" x="98.0146" y="-370.359" font-family="Monaco" font-size="10.00"> +points</text>
</g>
</g>
</svg>
        <g id="navigator" transform="translate(0 0)" fill="#404254">
                <rect fill="#f2f5e9" fill-opacity="0.5" stroke="#606060" stroke-width=".5" x="0" y="0" width="60" height="60"/>
                <use id="zoomplus" xlink:href="#zoomPlus" x="17" y="9" onmousedown="handleZoom(evt,'in')"/>
                <use id="zoomminus" xlink:href="#zoomMin" x="42" y="9" onmousedown="handleZoom(evt,'out')"/>
                <use id="reset" xlink:href="#resetDef" x="30" y="36" onmousedown="handleReset()"/>
                <g id="arrowUp" xlink:href="#dirArrow" transform="translate(30 24)" onmousedown="handlePan(0,-1)">
                  <use xlink:href="#rim" fill="#404040">
                        <set attributeName="fill" to="#808080" begin="arrowUp.mouseover" end="arrowUp.mouseout"/>
                  </use>
                  <path fill="none" stroke="white" stroke-width="1.5" d="M0,-3.0v7 M-2.5,-0.5L0,-3.0L2.5,-0.5"/>
                </g>
                <g id="arrowRight" xlink:href="#dirArrow" transform="rotate(90) translate(36 -43)" onmousedown="handlePan(1,0)">
                  <use xlink:href="#rim" fill="#404040">
                        <set attributeName="fill" to="#808080" begin="arrowRight.mouseover" end="arrowRight.mouseout"/>
                  </use>
                  <path fill="none" stroke="white" stroke-width="1.5" d="M0,-3.0v7 M-2.5,-0.5L0,-3.0L2.5,-0.5"/>
                </g>
                <g id="arrowDown" xlink:href="#dirArrow" transform="rotate(180) translate(-30 -48)" onmousedown="handlePan(0,1)">
                  <use xlink:href="#rim" fill="#404040">
                        <set attributeName="fill" to="#808080" begin="arrowDown.mouseover" end="arrowDown.mouseout"/>
                  </use>
                  <path fill="none" stroke="white" stroke-width="1.5" d="M0,-3.0v7 M-2.5,-0.5L0,-3.0L2.5,-0.5"/>
                </g>
                <g id="arrowLeft" xlink:href="#dirArrow" transform="rotate(270) translate(-36 17)" onmousedown="handlePan(-1,0)">
                  <use xlink:href="#rim" fill="#404040">
                        <set attributeName="fill" to="#808080" begin="arrowLeft.mouseover" end="arrowLeft.mouseout"/>
                  </use>
                  <path fill="none" stroke="white" stroke-width="1.5" d="M0,-3.0v7 M-2.5,-0.5L0,-3.0L2.5,-0.5"/>
                </g>
        </g>
        <svg viewBox="0 0 15 15" width="100%" height="30px" preserveAspectRatio="xMaxYMin meet">
         <g id="arrow_out" transform="scale(0.3 0.3)">
          <a xlink:href="struct_w_k_b_polyhedral_surface_z_m__coll__graph_org.svg" target="_base">
           <rect id="button" ry="5" rx="5" y="6" x="6" height="38" width="38"
                fill="#f2f5e9" fill-opacity="0.5" stroke="#606060" stroke-width="1.0"/>
           <path id="arrow"
             d="M 11.500037,31.436501 C 11.940474,20.09759 22.043105,11.32322 32.158766,21.979434 L 37.068811,17.246167 C 37.068811,17.246167 37.088388,32 37.088388,32 L 22.160133,31.978069 C 22.160133,31.978069 26.997745,27.140456 26.997745,27.140456 C 18.528582,18.264221 13.291696,25.230495 11.500037,31.436501 z"
             style="fill:#404040;"/>
          </a>
         </g>
        </svg>
</svg>
