<?xml version="1.0" encoding="UTF-8" standalone="no"?>
<!DOCTYPE svg PUBLIC "-//W3C//DTD SVG 1.1//EN"
 "http://www.w3.org/Graphics/SVG/1.1/DTD/svg11.dtd">
<!-- Generated by graphviz version 2.38.0 (20140413.2041)
 -->
<!-- Title: HydroCouple::SpatioTemporal::ITimeRegularGrid3DComponentDataItem Pages: 1 -->
<svg width="246pt" height="951pt"
 viewBox="0.00 0.00 246.04 951.41" xmlns="http://www.w3.org/2000/svg" xmlns:xlink="http://www.w3.org/1999/xlink">
<g id="graph0" class="graph" transform="scale(1 1) rotate(0) translate(4 947.408)">
<title>HydroCouple::SpatioTemporal::ITimeRegularGrid3DComponentDataItem</title>
<!-- Node1 -->
<g id="node1" class="node"><title>Node1</title>
<polygon fill="#bfbfbf" stroke="black" points="0,-0.5 0,-211.189 238.036,-211.189 238.036,-0.5 0,-0.5"/>
<text text-anchor="start" x="8" y="-199.189" font-family="Monaco" font-size="10.00">HydroCouple::SpatioTemporal</text>
<text text-anchor="middle" x="119.018" y="-185.854" font-family="Monaco" font-size="10.00">::ITimeRegularGrid3DComponentDataItem</text>
<polyline fill="none" stroke="black" points="0,-176.52 238.036,-176.52 "/>
<text text-anchor="middle" x="119.018" y="-164.52" font-family="Monaco" font-size="10.00"> </text>
<polyline fill="none" stroke="black" points="0,-155.185 238.036,-155.185 "/>
<text text-anchor="start" x="8" y="-143.185" font-family="Monaco" font-size="10.00">+ ~ITimeRegularGrid3DComponent</text>
<text text-anchor="start" x="8" y="-129.85" font-family="Monaco" font-size="10.00">DataItem()</text>
<text text-anchor="start" x="8" y="-116.515" font-family="Monaco" font-size="10.00">+ grid()</text>
<text text-anchor="start" x="8" y="-103.18" font-family="Monaco" font-size="10.00">+ meshDataType()</text>
<text text-anchor="start" x="8" y="-89.8447" font-family="Monaco" font-size="10.00">+ xCellDimension()</text>
<text text-anchor="start" x="8" y="-76.5098" font-family="Monaco" font-size="10.00">+ yCellDimension()</text>
<text text-anchor="start" x="8" y="-63.1748" font-family="Monaco" font-size="10.00">+ zCellDimension()</text>
<text text-anchor="start" x="8" y="-49.8398" font-family="Monaco" font-size="10.00">+ cellFaceDimension()</text>
<text text-anchor="start" x="8" y="-36.5049" font-family="Monaco" font-size="10.00">+ cellNodeDimension()</text>
<text text-anchor="start" x="8" y="-23.1699" font-family="Monaco" font-size="10.00">+ getValue()</text>
<text text-anchor="start" x="8" y="-9.83496" font-family="Monaco" font-size="10.00">+ setValue()</text>
</g>
<!-- Node2 -->
<g id="node2" class="node"><title>Node2</title>
<g id="a_node2"><a xlink:href="../../d9/d05/class_hydro_couple_1_1_temporal_1_1_i_time_component_data_item.html" target="_top" xlink:title="ITimeComponentItem is an IComponentItem with a temporal attribute. This class cannot be directly inst...">
<polygon fill="none" stroke="black" points="30.0049,-248.189 30.0049,-392.204 208.031,-392.204 208.031,-248.189 30.0049,-248.189"/>
<text text-anchor="start" x="38.0049" y="-380.204" font-family="Monaco" font-size="10.00">HydroCouple::Temporal</text>
<text text-anchor="middle" x="119.018" y="-366.869" font-family="Monaco" font-size="10.00">::ITimeComponentDataItem</text>
<polyline fill="none" stroke="black" points="30.0049,-357.534 208.031,-357.534 "/>
<text text-anchor="middle" x="119.018" y="-345.534" font-family="Monaco" font-size="10.00"> </text>
<polyline fill="none" stroke="black" points="30.0049,-336.199 208.031,-336.199 "/>
<text text-anchor="start" x="38.0049" y="-324.199" font-family="Monaco" font-size="10.00">+ ~ITimeComponentDataItem()</text>
<text text-anchor="start" x="38.0049" y="-310.864" font-family="Monaco" font-size="10.00">+ times()</text>
<text text-anchor="start" x="38.0049" y="-297.529" font-family="Monaco" font-size="10.00">+ time()</text>
<text text-anchor="start" x="38.0049" y="-284.194" font-family="Monaco" font-size="10.00">+ timeCount()</text>
<text text-anchor="start" x="38.0049" y="-270.859" font-family="Monaco" font-size="10.00">+ timeSpan()</text>
<text text-anchor="start" x="38.0049" y="-257.524" font-family="Monaco" font-size="10.00">+ timeDimension()</text>
</a>
</g>
</g>
<!-- Node2&#45;&gt;Node1 -->
<g id="edge1" class="edge"><title>Node2&#45;&gt;Node1</title>
<path fill="none" stroke="midnightblue" d="M119.018,-237.794C119.018,-229.084 119.018,-220.139 119.018,-211.21"/>
<polygon fill="none" stroke="midnightblue" points="115.518,-237.896 119.018,-247.896 122.518,-237.896 115.518,-237.896"/>
</g>
<!-- Node3 -->
<g id="node3" class="node"><title>Node3</title>
<g id="a_node3"><a xlink:href="../../d8/d52/class_hydro_couple_1_1_i_component_data_item.html" target="_top" xlink:title="IComponentItem is a fundamental unit of data for a component. ">
<polygon fill="none" stroke="black" points="18.0029,-429.204 18.0029,-573.219 220.033,-573.219 220.033,-429.204 18.0029,-429.204"/>
<text text-anchor="middle" x="119.018" y="-561.219" font-family="Monaco" font-size="10.00">HydroCouple::IComponentDataItem</text>
<polyline fill="none" stroke="black" points="18.0029,-551.884 220.033,-551.884 "/>
<text text-anchor="middle" x="119.018" y="-539.884" font-family="Monaco" font-size="10.00"> </text>
<polyline fill="none" stroke="black" points="18.0029,-530.549 220.033,-530.549 "/>
<text text-anchor="start" x="26.0029" y="-518.549" font-family="Monaco" font-size="10.00">+ ~IComponentDataItem()</text>
<text text-anchor="start" x="26.0029" y="-505.214" font-family="Monaco" font-size="10.00">+ modelComponent()</text>
<text text-anchor="start" x="26.0029" y="-491.879" font-family="Monaco" font-size="10.00">+ dimensions()</text>
<text text-anchor="start" x="26.0029" y="-478.544" font-family="Monaco" font-size="10.00">+ dimensionLength()</text>
<text text-anchor="start" x="26.0029" y="-465.209" font-family="Monaco" font-size="10.00">+ valueDefinition()</text>
<text text-anchor="start" x="26.0029" y="-451.874" font-family="Monaco" font-size="10.00">+ getValue()</text>
<text text-anchor="start" x="26.0029" y="-438.539" font-family="Monaco" font-size="10.00">+ setValue()</text>
</a>
</g>
</g>
<!-- Node3&#45;&gt;Node2 -->
<g id="edge2" class="edge"><title>Node3&#45;&gt;Node2</title>
<path fill="none" stroke="midnightblue" d="M119.018,-419.187C119.018,-410.256 119.018,-401.211 119.018,-392.412"/>
<polygon fill="none" stroke="midnightblue" points="115.518,-419.203 119.018,-429.203 122.518,-419.203 115.518,-419.203"/>
</g>
<!-- Node4 -->
<g id="node4" class="node"><title>Node4</title>
<g id="a_node4"><a xlink:href="../../d2/d2a/class_hydro_couple_1_1_i_identity.html" target="_top" xlink:title="IIdentity interface class defines a method to get the Id of an HydroCouple entity. ">
<polygon fill="none" stroke="black" points="45.0073,-610.219 45.0073,-687.559 193.029,-687.559 193.029,-610.219 45.0073,-610.219"/>
<text text-anchor="middle" x="119.018" y="-675.559" font-family="Monaco" font-size="10.00">HydroCouple::IIdentity</text>
<polyline fill="none" stroke="black" points="45.0073,-666.224 193.029,-666.224 "/>
<text text-anchor="middle" x="119.018" y="-654.224" font-family="Monaco" font-size="10.00"> </text>
<polyline fill="none" stroke="black" points="45.0073,-644.889 193.029,-644.889 "/>
<text text-anchor="start" x="53.0073" y="-632.889" font-family="Monaco" font-size="10.00">+ ~IIdentity()</text>
<text text-anchor="start" x="53.0073" y="-619.554" font-family="Monaco" font-size="10.00">+ id()</text>
</a>
</g>
</g>
<!-- Node4&#45;&gt;Node3 -->
<g id="edge3" class="edge"><title>Node4&#45;&gt;Node3</title>
<path fill="none" stroke="midnightblue" d="M119.018,-599.866C119.018,-591.323 119.018,-582.262 119.018,-573.238"/>
<polygon fill="none" stroke="midnightblue" points="115.518,-599.994 119.018,-609.994 122.518,-599.994 115.518,-599.994"/>
</g>
<!-- Node5 -->
<g id="node5" class="node"><title>Node5</title>
<g id="a_node5"><a xlink:href="../../db/d64/class_hydro_couple_1_1_i_description.html" target="_top" xlink:title="IDescription interface class provides descriptive information on a HydroCouple object. ">
<polygon fill="none" stroke="black" points="36.0059,-724.559 36.0059,-841.903 202.03,-841.903 202.03,-724.559 36.0059,-724.559"/>
<text text-anchor="middle" x="119.018" y="-829.903" font-family="Monaco" font-size="10.00">HydroCouple::IDescription</text>
<polyline fill="none" stroke="black" points="36.0059,-820.568 202.03,-820.568 "/>
<text text-anchor="middle" x="119.018" y="-808.568" font-family="Monaco" font-size="10.00"> </text>
<polyline fill="none" stroke="black" points="36.0059,-799.233 202.03,-799.233 "/>
<text text-anchor="start" x="44.0059" y="-787.233" font-family="Monaco" font-size="10.00">+ ~IDescription()</text>
<text text-anchor="start" x="44.0059" y="-773.898" font-family="Monaco" font-size="10.00">+ caption()</text>
<text text-anchor="start" x="44.0059" y="-760.563" font-family="Monaco" font-size="10.00">+ setCaption()</text>
<text text-anchor="start" x="44.0059" y="-747.229" font-family="Monaco" font-size="10.00">+ description()</text>
<text text-anchor="start" x="44.0059" y="-733.894" font-family="Monaco" font-size="10.00">+ setDescription()</text>
</a>
</g>
</g>
<!-- Node5&#45;&gt;Node4 -->
<g id="edge4" class="edge"><title>Node5&#45;&gt;Node4</title>
<path fill="none" stroke="midnightblue" d="M119.018,-713.993C119.018,-704.954 119.018,-695.966 119.018,-687.706"/>
<polygon fill="none" stroke="midnightblue" points="115.518,-714.184 119.018,-724.184 122.518,-714.184 115.518,-714.184"/>
</g>
<!-- Node6 -->
<g id="node6" class="node"><title>Node6</title>
<g id="a_node6"><a xlink:href="../../dd/dbf/class_hydro_couple_1_1_i_property_changed.html" target="_top" xlink:title="IPropertyChanged interface is used to emit signal/event when a property of an object changes...">
<polygon fill="none" stroke="black" points="24.0039,-878.903 24.0039,-942.908 214.032,-942.908 214.032,-878.903 24.0039,-878.903"/>
<text text-anchor="middle" x="119.018" y="-930.908" font-family="Monaco" font-size="10.00">HydroCouple::IPropertyChanged</text>
<polyline fill="none" stroke="black" points="24.0039,-921.573 214.032,-921.573 "/>
<text text-anchor="middle" x="119.018" y="-909.573" font-family="Monaco" font-size="10.00"> </text>
<polyline fill="none" stroke="black" points="24.0039,-900.238 214.032,-900.238 "/>
<text text-anchor="start" x="32.0039" y="-888.238" font-family="Monaco" font-size="10.00">+ ~IPropertyChanged()</text>
</a>
</g>
</g>
<!-- Node6&#45;&gt;Node5 -->
<g id="edge5" class="edge"><title>Node6&#45;&gt;Node5</title>
<path fill="none" stroke="midnightblue" d="M119.018,-868.583C119.018,-860.198 119.018,-851.231 119.018,-842.389"/>
<polygon fill="none" stroke="midnightblue" points="115.518,-868.84 119.018,-878.84 122.518,-868.84 115.518,-868.84"/>
</g>
</g>
</svg>
