<?xml version="1.0" encoding="UTF-8" standalone="no"?>
<!DOCTYPE svg PUBLIC "-//W3C//DTD SVG 1.1//EN"
 "http://www.w3.org/Graphics/SVG/1.1/DTD/svg11.dtd">
<!-- Generated by graphviz version 2.38.0 (20140413.2041)
 -->
<!-- Title: HydroCouple::IUnit Pages: 1 -->
<svg width="198pt" height="368pt"
 viewBox="0.00 0.00 198.03 368.36" xmlns="http://www.w3.org/2000/svg" xmlns:xlink="http://www.w3.org/1999/xlink">
<g id="graph0" class="graph" transform="scale(1 1) rotate(0) translate(4 364.359)">
<title>HydroCouple::IUnit</title>
<!-- Node1 -->
<g id="node1" class="node"><title>Node1</title>
<polygon fill="#bfbfbf" stroke="black" points="15.0024,-0.5 15.0024,-104.51 175.026,-104.51 175.026,-0.5 15.0024,-0.5"/>
<text text-anchor="middle" x="95.0142" y="-92.5098" font-family="Monaco" font-size="10.00">HydroCouple::IUnit</text>
<polyline fill="none" stroke="black" points="15.0024,-83.1748 175.026,-83.1748 "/>
<text text-anchor="middle" x="95.0142" y="-71.1748" font-family="Monaco" font-size="10.00"> </text>
<polyline fill="none" stroke="black" points="15.0024,-61.8398 175.026,-61.8398 "/>
<text text-anchor="start" x="23.0024" y="-49.8398" font-family="Monaco" font-size="10.00">+ ~IUnit()</text>
<text text-anchor="start" x="23.0024" y="-36.5049" font-family="Monaco" font-size="10.00">+ dimensions()</text>
<text text-anchor="start" x="23.0024" y="-23.1699" font-family="Monaco" font-size="10.00">+ conversionFactorToSI()</text>
<text text-anchor="start" x="23.0024" y="-9.83496" font-family="Monaco" font-size="10.00">+ offsetToSI()</text>
</g>
<!-- Node2 -->
<g id="node2" class="node"><title>Node2</title>
<g id="a_node2"><a xlink:href="../../db/d64/class_hydro_couple_1_1_i_description.html" target="_top" xlink:title="IDescription interface class provides descriptive information on a HydroCouple object. ">
<polygon fill="none" stroke="black" points="12.002,-141.51 12.002,-258.854 178.026,-258.854 178.026,-141.51 12.002,-141.51"/>
<text text-anchor="middle" x="95.0142" y="-246.854" font-family="Monaco" font-size="10.00">HydroCouple::IDescription</text>
<polyline fill="none" stroke="black" points="12.002,-237.52 178.026,-237.52 "/>
<text text-anchor="middle" x="95.0142" y="-225.52" font-family="Monaco" font-size="10.00"> </text>
<polyline fill="none" stroke="black" points="12.002,-216.185 178.026,-216.185 "/>
<text text-anchor="start" x="20.002" y="-204.185" font-family="Monaco" font-size="10.00">+ ~IDescription()</text>
<text text-anchor="start" x="20.002" y="-190.85" font-family="Monaco" font-size="10.00">+ caption()</text>
<text text-anchor="start" x="20.002" y="-177.515" font-family="Monaco" font-size="10.00">+ setCaption()</text>
<text text-anchor="start" x="20.002" y="-164.18" font-family="Monaco" font-size="10.00">+ description()</text>
<text text-anchor="start" x="20.002" y="-150.845" font-family="Monaco" font-size="10.00">+ setDescription()</text>
</a>
</g>
</g>
<!-- Node2&#45;&gt;Node1 -->
<g id="edge1" class="edge"><title>Node2&#45;&gt;Node1</title>
<path fill="none" stroke="midnightblue" d="M95.0142,-130.909C95.0142,-122.09 95.0142,-113.183 95.0142,-104.705"/>
<polygon fill="none" stroke="midnightblue" points="91.5143,-131.188 95.0142,-141.188 98.5143,-131.188 91.5143,-131.188"/>
</g>
<!-- Node3 -->
<g id="node3" class="node"><title>Node3</title>
<g id="a_node3"><a xlink:href="../../dd/dbf/class_hydro_couple_1_1_i_property_changed.html" target="_top" xlink:title="IPropertyChanged interface is used to emit signal/event when a property of an object changes...">
<polygon fill="none" stroke="black" points="0,-295.854 0,-359.859 190.028,-359.859 190.028,-295.854 0,-295.854"/>
<text text-anchor="middle" x="95.0142" y="-347.859" font-family="Monaco" font-size="10.00">HydroCouple::IPropertyChanged</text>
<polyline fill="none" stroke="black" points="0,-338.524 190.028,-338.524 "/>
<text text-anchor="middle" x="95.0142" y="-326.524" font-family="Monaco" font-size="10.00"> </text>
<polyline fill="none" stroke="black" points="0,-317.189 190.028,-317.189 "/>
<text text-anchor="start" x="8" y="-305.189" font-family="Monaco" font-size="10.00">+ ~IPropertyChanged()</text>
</a>
</g>
</g>
<!-- Node3&#45;&gt;Node2 -->
<g id="edge2" class="edge"><title>Node3&#45;&gt;Node2</title>
<path fill="none" stroke="midnightblue" d="M95.0142,-285.534C95.0142,-277.149 95.0142,-268.183 95.0142,-259.34"/>
<polygon fill="none" stroke="midnightblue" points="91.5143,-285.791 95.0142,-295.791 98.5143,-285.791 91.5143,-285.791"/>
</g>
</g>
</svg>
