<?xml version="1.0" encoding="UTF-8" standalone="no"?>
<!DOCTYPE svg PUBLIC "-//W3C//DTD SVG 1.1//EN"
 "http://www.w3.org/Graphics/SVG/1.1/DTD/svg11.dtd">
<!-- Generated by graphviz version 2.38.0 (20140413.2041)
 -->
<!-- Title: WKBGeometry Pages: 1 -->
<!--zoomable 816 -->
<svg id="main" version="1.1" xmlns="http://www.w3.org/2000/svg" xmlns:xlink="http://www.w3.org/1999/xlink" xml:space="preserve" onload="init(evt)">
<style type="text/css"><![CDATA[
.edge:hover path { stroke: red; }
.edge:hover polygon { stroke: red; fill: red; }
]]></style>
<script type="text/javascript"><![CDATA[
var edges = document.getElementsByTagName('g');
if (edges && edges.length) {
  for (var i=0;i<edges.length;i++) {
    if (edges[i].id.substr(0,4)=='edge') {
      edges[i].setAttribute('class','edge');
    }
  }
}
]]></script>
        <defs>
                <circle id="rim" cx="0" cy="0" r="7"/>
                <circle id="rim2" cx="0" cy="0" r="3.5"/>
                <g id="zoomPlus">
                        <use xlink:href="#rim" fill="#404040">
                                <set attributeName="fill" to="#808080" begin="zoomplus.mouseover" end="zoomplus.mouseout"/>
                        </use>
                        <path d="M-4,0h8M0,-4v8" fill="none" stroke="white" stroke-width="1.5" pointer-events="none"/>
                </g>
                <g id="zoomMin">
                        <use xlink:href="#rim" fill="#404040">
                                <set attributeName="fill" to="#808080" begin="zoomminus.mouseover" end="zoomminus.mouseout"/>
                        </use>
                        <path d="M-4,0h8" fill="none" stroke="white" stroke-width="1.5" pointer-events="none"/>
                </g>
                <g id="dirArrow">
                        <path fill="none" stroke="white" stroke-width="1.5" d="M0,-3.0v7 M-2.5,-0.5L0,-3.0L2.5,-0.5"/>
                </g>
               <g id="resetDef">
                       <use xlink:href="#rim2" fill="#404040">
                               <set attributeName="fill" to="#808080" begin="reset.mouseover" end="reset.mouseout"/>
                       </use>
               </g>
        </defs>

<script type="text/javascript">
var viewWidth = 998;
var viewHeight = 816;
var sectionId = 'dynsection-0';
</script>
<script xlink:href="../../svgpan.js"/>
<svg id="graph" class="graph">
<g id="viewport">
<title>WKBGeometry</title>
<!-- Node1 -->
<g id="node1" class="node"><title>Node1</title>
<polygon fill="#bfbfbf" stroke="black" points="449.371,-141.51 449.371,-205.515 531.382,-205.515 531.382,-141.51 449.371,-141.51"/>
<text text-anchor="middle" x="490.376" y="-193.515" font-family="Monaco" font-size="10.00">WKBGeometry</text>
<polyline fill="none" stroke="black" points="449.371,-184.18 531.382,-184.18 "/>
<text text-anchor="middle" x="490.376" y="-172.18" font-family="Monaco" font-size="10.00"> </text>
<polyline fill="none" stroke="black" points="449.371,-162.845 531.382,-162.845 "/>
<text text-anchor="middle" x="490.376" y="-150.845" font-family="Monaco" font-size="10.00"> </text>
</g>
<!-- Node2 -->
<g id="node2" class="node"><title>Node2</title>
<g id="a_node2"><a xlink:href="../../d4/d04/struct_w_k_b_geometry_collection.html" target="_top" xlink:title="The WKBGeometryCollection struct. ">
<polygon fill="none" stroke="black" points="419.366,-0.5 419.366,-91.1748 561.387,-91.1748 561.387,-0.5 419.366,-0.5"/>
<text text-anchor="middle" x="490.376" y="-79.1748" font-family="Monaco" font-size="10.00">WKBGeometryCollection</text>
<polyline fill="none" stroke="black" points="419.366,-69.8398 561.387,-69.8398 "/>
<text text-anchor="start" x="427.366" y="-57.8398" font-family="Monaco" font-size="10.00">+ byte_order</text>
<text text-anchor="start" x="427.366" y="-44.5049" font-family="Monaco" font-size="10.00">+ numGeometries</text>
<text text-anchor="start" x="427.366" y="-31.1699" font-family="Monaco" font-size="10.00">+ wkbType</text>
<polyline fill="none" stroke="black" points="419.366,-21.835 561.387,-21.835 "/>
<text text-anchor="middle" x="490.376" y="-9.83496" font-family="Monaco" font-size="10.00"> </text>
</a>
</g>
</g>
<!-- Node1&#45;&gt;Node2 -->
<g id="edge2" class="edge"><title>Node1&#45;&gt;Node2</title>
<path fill="none" stroke="#404040" d="M449.342,-142.456C441.179,-132.804 436.226,-121.521 440.365,-109.675 441.261,-107.108 442.312,-104.568 443.487,-102.065"/>
<polygon fill="none" stroke="#404040" points="443.585,-101.887 442.96,-94.7026 449.352,-91.3632 449.976,-98.5473 443.585,-101.887"/>
<text text-anchor="middle" x="476.382" y="-115.01" font-family="Monaco" font-size="10.00"> +geometries</text>
</g>
<!-- Node2&#45;&gt;Node1 -->
<g id="edge1" class="edge"><title>Node2&#45;&gt;Node1</title>
<path fill="none" stroke="#404040" d="M514.634,-91.5629C517.661,-101.797 518.92,-112.699 516.376,-123.01 515.777,-125.44 515.035,-127.882 514.184,-130.31"/>
<polygon fill="none" stroke="#404040" points="514.154,-130.383 515.545,-137.459 509.548,-141.464 508.157,-134.388 514.154,-130.383"/>
<text text-anchor="middle" x="553.382" y="-115.01" font-family="Monaco" font-size="10.00"> +collection</text>
</g>
<!-- Node3 -->
<g id="node3" class="node"><title>Node3</title>
<g id="a_node3"><a xlink:href="../../df/df9/struct_w_k_b_polygon.html" target="_top" xlink:title="The WKBPolygon struct. ">
<polygon fill="none" stroke="black" points="221.371,-475.199 221.371,-565.874 303.382,-565.874 303.382,-475.199 221.371,-475.199"/>
<text text-anchor="middle" x="262.376" y="-553.874" font-family="Monaco" font-size="10.00">WKBPolygon</text>
<polyline fill="none" stroke="black" points="221.371,-544.539 303.382,-544.539 "/>
<text text-anchor="start" x="229.371" y="-532.539" font-family="Monaco" font-size="10.00">+ byteOrder</text>
<text text-anchor="start" x="229.371" y="-519.204" font-family="Monaco" font-size="10.00">+ numRings</text>
<text text-anchor="start" x="229.371" y="-505.869" font-family="Monaco" font-size="10.00">+ wkbType</text>
<polyline fill="none" stroke="black" points="221.371,-496.534 303.382,-496.534 "/>
<text text-anchor="middle" x="262.376" y="-484.534" font-family="Monaco" font-size="10.00"> </text>
</a>
</g>
</g>
<!-- Node3&#45;&gt;Node1 -->
<g id="edge3" class="edge"><title>Node3&#45;&gt;Node1</title>
<path fill="none" stroke="#404040" d="M221.047,-500.822C132.543,-458.288 -60.965,-350.644 19.3677,-255.35 72.2749,-192.589 324.795,-178.553 436.739,-175.415"/>
<polygon fill="none" stroke="#404040" points="437.04,-175.408 442.935,-171.255 449.036,-175.099 443.141,-179.252 437.04,-175.408"/>
<text text-anchor="middle" x="46.3809" y="-299.854" font-family="Monaco" font-size="10.00"> +polygon</text>
</g>
<!-- Node9 -->
<g id="node9" class="node"><title>Node9</title>
<g id="a_node9"><a xlink:href="../../d6/d0e/struct_w_k_b_t_i_n.html" target="_top" xlink:title="The WKBTIN struct. ">
<polygon fill="none" stroke="black" points="82.3701,-255.85 82.3701,-346.524 176.383,-346.524 176.383,-255.85 82.3701,-255.85"/>
<text text-anchor="middle" x="129.376" y="-334.524" font-family="Monaco" font-size="10.00">WKBTIN</text>
<polyline fill="none" stroke="black" points="82.3701,-325.189 176.383,-325.189 "/>
<text text-anchor="start" x="90.3701" y="-313.189" font-family="Monaco" font-size="10.00">+ byteOrder</text>
<text text-anchor="start" x="90.3701" y="-299.854" font-family="Monaco" font-size="10.00">+ numPolygons</text>
<text text-anchor="start" x="90.3701" y="-286.52" font-family="Monaco" font-size="10.00">+ wkbType</text>
<polyline fill="none" stroke="black" points="82.3701,-277.185 176.383,-277.185 "/>
<text text-anchor="middle" x="129.376" y="-265.185" font-family="Monaco" font-size="10.00"> </text>
</a>
</g>
</g>
<!-- Node3&#45;&gt;Node9 -->
<g id="edge12" class="edge"><title>Node3&#45;&gt;Node9</title>
<path fill="none" stroke="#404040" d="M221.291,-483.764C213.065,-475.405 204.943,-466.162 198.367,-456.699 177.333,-426.43 160.344,-388.715 148.489,-358.125"/>
<polygon fill="none" stroke="#404040" points="148.443,-358.004 142.579,-353.807 144.198,-346.78 150.062,-350.977 148.443,-358.004"/>
<text text-anchor="middle" x="228.381" y="-409.529" font-family="Monaco" font-size="10.00"> +polygons</text>
</g>
<!-- Node10 -->
<g id="node10" class="node"><title>Node10</title>
<g id="a_node10"><a xlink:href="../../d5/d31/struct_w_k_b_polyhedral_surface.html" target="_top" xlink:title="The WKBPolyhedralSurface struct. ">
<polygon fill="none" stroke="black" points="194.367,-255.85 194.367,-346.524 330.386,-346.524 330.386,-255.85 194.367,-255.85"/>
<text text-anchor="middle" x="262.376" y="-334.524" font-family="Monaco" font-size="10.00">WKBPolyhedralSurface</text>
<polyline fill="none" stroke="black" points="194.367,-325.189 330.386,-325.189 "/>
<text text-anchor="start" x="202.367" y="-313.189" font-family="Monaco" font-size="10.00">+ byteOrder</text>
<text text-anchor="start" x="202.367" y="-299.854" font-family="Monaco" font-size="10.00">+ numPolygons</text>
<text text-anchor="start" x="202.367" y="-286.52" font-family="Monaco" font-size="10.00">+ wkbType</text>
<polyline fill="none" stroke="black" points="194.367,-277.185 330.386,-277.185 "/>
<text text-anchor="middle" x="262.376" y="-265.185" font-family="Monaco" font-size="10.00"> </text>
</a>
</g>
</g>
<!-- Node3&#45;&gt;Node10 -->
<g id="edge14" class="edge"><title>Node3&#45;&gt;Node10</title>
<path fill="none" stroke="#404040" d="M262.376,-475.028C262.376,-441.477 262.376,-395.213 262.376,-358.992"/>
<polygon fill="none" stroke="#404040" points="262.377,-358.636 258.377,-352.636 262.376,-346.636 266.377,-352.636 262.377,-358.636"/>
<text text-anchor="middle" x="292.381" y="-409.529" font-family="Monaco" font-size="10.00"> +polygons</text>
</g>
<!-- Node11 -->
<g id="node11" class="node"><title>Node11</title>
<g id="a_node11"><a xlink:href="../../da/dc4/struct_w_k_b_multi_polygon.html" target="_top" xlink:title="The WKBMultiPolygon struct. ">
<polygon fill="none" stroke="black" points="348.369,-255.85 348.369,-346.524 454.384,-346.524 454.384,-255.85 348.369,-255.85"/>
<text text-anchor="middle" x="401.376" y="-334.524" font-family="Monaco" font-size="10.00">WKBMultiPolygon</text>
<polyline fill="none" stroke="black" points="348.369,-325.189 454.384,-325.189 "/>
<text text-anchor="start" x="356.369" y="-313.189" font-family="Monaco" font-size="10.00">+ byteOrder</text>
<text text-anchor="start" x="356.369" y="-299.854" font-family="Monaco" font-size="10.00">+ numPolygons</text>
<text text-anchor="start" x="356.369" y="-286.52" font-family="Monaco" font-size="10.00">+ wkbType</text>
<polyline fill="none" stroke="black" points="348.369,-277.185 454.384,-277.185 "/>
<text text-anchor="middle" x="401.376" y="-265.185" font-family="Monaco" font-size="10.00"> </text>
</a>
</g>
</g>
<!-- Node3&#45;&gt;Node11 -->
<g id="edge17" class="edge"><title>Node3&#45;&gt;Node11</title>
<path fill="none" stroke="#404040" d="M303.561,-483.264C311.687,-475.005 319.742,-465.929 326.376,-456.699 348.213,-426.32 366.661,-388.603 379.796,-358.039"/>
<polygon fill="none" stroke="#404040" points="379.911,-357.766 378.552,-350.684 384.566,-346.705 385.925,-353.787 379.911,-357.766"/>
<text text-anchor="middle" x="406.381" y="-409.529" font-family="Monaco" font-size="10.00"> +polygons</text>
</g>
<!-- Node4 -->
<g id="node4" class="node"><title>Node4</title>
<g id="a_node4"><a xlink:href="../../d6/db5/struct_linear_ring.html" target="_top" xlink:title="The LinearRing struct. ">
<polygon fill="none" stroke="black" points="449.371,-616.209 449.371,-680.214 531.382,-680.214 531.382,-616.209 449.371,-616.209"/>
<text text-anchor="middle" x="490.376" y="-668.214" font-family="Monaco" font-size="10.00">LinearRing</text>
<polyline fill="none" stroke="black" points="449.371,-658.879 531.382,-658.879 "/>
<text text-anchor="start" x="457.371" y="-646.879" font-family="Monaco" font-size="10.00">+ numPoints</text>
<polyline fill="none" stroke="black" points="449.371,-637.544 531.382,-637.544 "/>
<text text-anchor="middle" x="490.376" y="-625.544" font-family="Monaco" font-size="10.00"> </text>
</a>
</g>
</g>
<!-- Node4&#45;&gt;Node3 -->
<g id="edge4" class="edge"><title>Node4&#45;&gt;Node3</title>
<path fill="none" stroke="#404040" d="M449.351,-624.598C411.455,-603.709 354.997,-572.59 314.04,-550.014"/>
<polygon fill="none" stroke="#404040" points="313.965,-549.973 306.78,-550.579 303.456,-544.18 310.642,-543.573 313.965,-549.973"/>
<text text-anchor="middle" x="418.38" y="-589.709" font-family="Monaco" font-size="10.00"> +rings</text>
</g>
<!-- Node8 -->
<g id="node8" class="node"><title>Node8</title>
<g id="a_node8"><a xlink:href="../../db/de1/struct_w_k_b_triangle.html" target="_top" xlink:title="The WKBTriangle struct. ">
<polygon fill="none" stroke="black" points="449.371,-365.524 449.371,-456.199 531.382,-456.199 531.382,-365.524 449.371,-365.524"/>
<text text-anchor="middle" x="490.376" y="-444.199" font-family="Monaco" font-size="10.00">WKBTriangle</text>
<polyline fill="none" stroke="black" points="449.371,-434.864 531.382,-434.864 "/>
<text text-anchor="start" x="457.371" y="-422.864" font-family="Monaco" font-size="10.00">+ byteOrder</text>
<text text-anchor="start" x="457.371" y="-409.529" font-family="Monaco" font-size="10.00">+ numRings</text>
<text text-anchor="start" x="457.371" y="-396.194" font-family="Monaco" font-size="10.00">+ wkbType</text>
<polyline fill="none" stroke="black" points="449.371,-386.859 531.382,-386.859 "/>
<text text-anchor="middle" x="490.376" y="-374.859" font-family="Monaco" font-size="10.00"> </text>
</a>
</g>
</g>
<!-- Node4&#45;&gt;Node8 -->
<g id="edge10" class="edge"><title>Node4&#45;&gt;Node8</title>
<path fill="none" stroke="#404040" d="M490.376,-615.959C490.376,-578.505 490.376,-515.02 490.376,-468.78"/>
<polygon fill="none" stroke="#404040" points="490.377,-468.53 486.377,-462.53 490.376,-456.53 494.377,-462.53 490.377,-468.53"/>
<text text-anchor="middle" x="511.38" y="-589.709" font-family="Monaco" font-size="10.00"> +rings</text>
</g>
<!-- Node5 -->
<g id="node5" class="node"><title>Node5</title>
<g id="a_node5"><a xlink:href="../../d8/dc8/struct_point.html" target="_top" xlink:title="The Point struct. ">
<polygon fill="none" stroke="black" points="598.374,-730.549 598.374,-807.889 644.379,-807.889 644.379,-730.549 598.374,-730.549"/>
<text text-anchor="middle" x="621.376" y="-795.889" font-family="Monaco" font-size="10.00">Point</text>
<polyline fill="none" stroke="black" points="598.374,-786.554 644.379,-786.554 "/>
<text text-anchor="start" x="606.374" y="-774.554" font-family="Monaco" font-size="10.00">+ x</text>
<text text-anchor="start" x="606.374" y="-761.219" font-family="Monaco" font-size="10.00">+ y</text>
<polyline fill="none" stroke="black" points="598.374,-751.884 644.379,-751.884 "/>
<text text-anchor="middle" x="621.376" y="-739.884" font-family="Monaco" font-size="10.00"> </text>
</a>
</g>
</g>
<!-- Node5&#45;&gt;Node4 -->
<g id="edge5" class="edge"><title>Node5&#45;&gt;Node4</title>
<path fill="none" stroke="#404040" d="M598.101,-747.162C586.462,-736.625 572.164,-723.671 559.369,-712.049 551.002,-704.449 542.072,-696.325 533.506,-688.526"/>
<polygon fill="none" stroke="#404040" points="533.271,-688.312 526.141,-687.229 524.399,-680.232 531.528,-681.315 533.271,-688.312"/>
<text text-anchor="middle" x="582.38" y="-704.049" font-family="Monaco" font-size="10.00"> +points</text>
</g>
<!-- Node7 -->
<g id="node7" class="node"><title>Node7</title>
<g id="a_node7"><a xlink:href="../../d9/db2/struct_w_k_b_point.html" target="_top" xlink:title="The WKBPoint struct. ">
<polygon fill="none" stroke="black" points="580.371,-481.867 580.371,-559.207 662.382,-559.207 662.382,-481.867 580.371,-481.867"/>
<text text-anchor="middle" x="621.376" y="-547.207" font-family="Monaco" font-size="10.00">WKBPoint</text>
<polyline fill="none" stroke="black" points="580.371,-537.872 662.382,-537.872 "/>
<text text-anchor="start" x="588.371" y="-525.872" font-family="Monaco" font-size="10.00">+ byteOrder</text>
<text text-anchor="start" x="588.371" y="-512.537" font-family="Monaco" font-size="10.00">+ wkbType</text>
<polyline fill="none" stroke="black" points="580.371,-503.202 662.382,-503.202 "/>
<text text-anchor="middle" x="621.376" y="-491.202" font-family="Monaco" font-size="10.00"> </text>
</a>
</g>
</g>
<!-- Node5&#45;&gt;Node7 -->
<g id="edge8" class="edge"><title>Node5&#45;&gt;Node7</title>
<path fill="none" stroke="#404040" d="M621.376,-730.485C621.376,-687.865 621.376,-618.335 621.376,-571.301"/>
<polygon fill="none" stroke="#404040" points="621.377,-571.267 617.377,-565.267 621.376,-559.267 625.377,-565.267 621.377,-571.267"/>
<text text-anchor="middle" x="642.38" y="-646.879" font-family="Monaco" font-size="10.00"> +point</text>
</g>
<!-- Node13 -->
<g id="node13" class="node"><title>Node13</title>
<g id="a_node13"><a xlink:href="../../dd/d46/struct_w_k_b_line_string.html" target="_top" xlink:title="The WKBLineString struct. ">
<polygon fill="none" stroke="black" points="729.37,-475.199 729.37,-565.874 823.383,-565.874 823.383,-475.199 729.37,-475.199"/>
<text text-anchor="middle" x="776.376" y="-553.874" font-family="Monaco" font-size="10.00">WKBLineString</text>
<polyline fill="none" stroke="black" points="729.37,-544.539 823.383,-544.539 "/>
<text text-anchor="start" x="737.37" y="-532.539" font-family="Monaco" font-size="10.00">+ byteOrder</text>
<text text-anchor="start" x="737.37" y="-519.204" font-family="Monaco" font-size="10.00">+ numPoints</text>
<text text-anchor="start" x="737.37" y="-505.869" font-family="Monaco" font-size="10.00">+ wkbType</text>
<polyline fill="none" stroke="black" points="729.37,-496.534 823.383,-496.534 "/>
<text text-anchor="middle" x="776.376" y="-484.534" font-family="Monaco" font-size="10.00"> </text>
</a>
</g>
</g>
<!-- Node5&#45;&gt;Node13 -->
<g id="edge20" class="edge"><title>Node5&#45;&gt;Node13</title>
<path fill="none" stroke="#404040" d="M644.414,-731.554C670.209,-690.502 712.279,-623.547 741.974,-576.289"/>
<polygon fill="none" stroke="#404040" points="742.102,-576.085 741.907,-568.876 748.486,-565.924 748.681,-573.132 742.102,-576.085"/>
<text text-anchor="middle" x="740.38" y="-646.879" font-family="Monaco" font-size="10.00"> +points</text>
</g>
<!-- Node6 -->
<g id="node6" class="node"><title>Node6</title>
<g id="a_node6"><a xlink:href="../../df/dc9/struct_w_k_b_multi_point.html" target="_top" xlink:title="The WKBMultiPoint struct. ">
<polygon fill="none" stroke="black" points="646.37,-255.85 646.37,-346.524 740.383,-346.524 740.383,-255.85 646.37,-255.85"/>
<text text-anchor="middle" x="693.376" y="-334.524" font-family="Monaco" font-size="10.00">WKBMultiPoint</text>
<polyline fill="none" stroke="black" points="646.37,-325.189 740.383,-325.189 "/>
<text text-anchor="start" x="654.37" y="-313.189" font-family="Monaco" font-size="10.00">+ byteOrder</text>
<text text-anchor="start" x="654.37" y="-299.854" font-family="Monaco" font-size="10.00">+ numPoints</text>
<text text-anchor="start" x="654.37" y="-286.52" font-family="Monaco" font-size="10.00">+ wkbType</text>
<polyline fill="none" stroke="black" points="646.37,-277.185 740.383,-277.185 "/>
<text text-anchor="middle" x="693.376" y="-265.185" font-family="Monaco" font-size="10.00"> </text>
</a>
</g>
</g>
<!-- Node6&#45;&gt;Node1 -->
<g id="edge6" class="edge"><title>Node6&#45;&gt;Node1</title>
<path fill="none" stroke="#404040" d="M645.962,-257.324C631.858,-245.709 615.99,-233.686 600.376,-224.015 582.305,-212.821 561.27,-202.721 542.463,-194.608"/>
<polygon fill="none" stroke="#404040" points="542.447,-194.601 535.365,-195.959 531.388,-189.944 538.47,-188.586 542.447,-194.601"/>
<text text-anchor="middle" x="643.38" y="-229.35" font-family="Monaco" font-size="10.00"> +mpoint</text>
</g>
<!-- Node7&#45;&gt;Node1 -->
<g id="edge15" class="edge"><title>Node7&#45;&gt;Node1</title>
<path fill="none" stroke="#404040" d="M616.838,-481.488C609.409,-428.534 591.589,-330.645 554.376,-255.35 547.43,-241.294 537.745,-227.394 528.009,-215.188"/>
<polygon fill="none" stroke="#404040" points="527.887,-215.041 520.981,-212.965 520.241,-205.792 527.147,-207.868 527.887,-215.041"/>
<text text-anchor="middle" x="608.38" y="-299.854" font-family="Monaco" font-size="10.00"> +point</text>
</g>
<!-- Node7&#45;&gt;Node6 -->
<g id="edge7" class="edge"><title>Node7&#45;&gt;Node6</title>
<path fill="none" stroke="#404040" d="M633.918,-481.677C645.2,-447.618 661.928,-397.123 674.769,-358.359"/>
<polygon fill="none" stroke="#404040" points="674.845,-358.128 672.935,-351.174 678.619,-346.736 680.529,-353.69 674.845,-358.128"/>
<text text-anchor="middle" x="695.38" y="-409.529" font-family="Monaco" font-size="10.00"> +points</text>
</g>
<!-- Node8&#45;&gt;Node1 -->
<g id="edge9" class="edge"><title>Node8&#45;&gt;Node1</title>
<path fill="none" stroke="#404040" d="M490.376,-365.318C490.376,-322.957 490.376,-259.65 490.376,-217.733"/>
<polygon fill="none" stroke="#404040" points="490.377,-217.722 486.377,-211.722 490.376,-205.722 494.377,-211.722 490.377,-217.722"/>
<text text-anchor="middle" x="520.381" y="-299.854" font-family="Monaco" font-size="10.00"> +triangle</text>
</g>
<!-- Node9&#45;&gt;Node1 -->
<g id="edge11" class="edge"><title>Node9&#45;&gt;Node1</title>
<path fill="none" stroke="#404040" d="M176.519,-261.308C179.471,-259.229 182.437,-257.227 185.376,-255.35 263.933,-205.178 372.807,-185.989 436.99,-178.761"/>
<polygon fill="none" stroke="#404040" points="437.275,-178.731 442.821,-174.122 449.209,-177.469 443.662,-182.078 437.275,-178.731"/>
<text text-anchor="middle" x="261.379" y="-229.35" font-family="Monaco" font-size="10.00"> +tin</text>
</g>
<!-- Node10&#45;&gt;Node1 -->
<g id="edge13" class="edge"><title>Node10&#45;&gt;Node1</title>
<path fill="none" stroke="#404040" d="M272.022,-255.488C276.479,-243.844 282.959,-232.265 292.358,-224.015 332.317,-188.94 393.458,-177.975 437.225,-174.907"/>
<polygon fill="none" stroke="#404040" points="437.378,-174.899 443.144,-170.568 449.359,-174.226 443.593,-178.556 437.378,-174.899"/>
<text text-anchor="middle" x="349.386" y="-229.35" font-family="Monaco" font-size="10.00"> +polyhedralsurface</text>
</g>
<!-- Node11&#45;&gt;Node1 -->
<g id="edge16" class="edge"><title>Node11&#45;&gt;Node1</title>
<path fill="none" stroke="#404040" d="M404.162,-255.598C406.407,-244.604 410.163,-233.324 416.367,-224.015 422.283,-215.136 430.39,-207.446 439.075,-200.95"/>
<polygon fill="none" stroke="#404040" points="439.141,-200.904 441.83,-194.214 449.041,-194.123 446.352,-200.813 439.141,-200.904"/>
<text text-anchor="middle" x="446.381" y="-229.35" font-family="Monaco" font-size="10.00"> +mpolygon</text>
</g>
<!-- Node12 -->
<g id="node12" class="node"><title>Node12</title>
<g id="a_node12"><a xlink:href="../../dc/dda/struct_w_k_b_multi_line_string.html" target="_top" xlink:title="The WKBMultiLineString struct. ">
<polygon fill="none" stroke="black" points="866.368,-255.85 866.368,-346.524 990.385,-346.524 990.385,-255.85 866.368,-255.85"/>
<text text-anchor="middle" x="928.376" y="-334.524" font-family="Monaco" font-size="10.00">WKBMultiLineString</text>
<polyline fill="none" stroke="black" points="866.368,-325.189 990.385,-325.189 "/>
<text text-anchor="start" x="874.368" y="-313.189" font-family="Monaco" font-size="10.00">+ byteOrder</text>
<text text-anchor="start" x="874.368" y="-299.854" font-family="Monaco" font-size="10.00">+ numLineStrings</text>
<text text-anchor="start" x="874.368" y="-286.52" font-family="Monaco" font-size="10.00">+ wkbType</text>
<polyline fill="none" stroke="black" points="866.368,-277.185 990.385,-277.185 "/>
<text text-anchor="middle" x="928.376" y="-265.185" font-family="Monaco" font-size="10.00"> </text>
</a>
</g>
</g>
<!-- Node12&#45;&gt;Node1 -->
<g id="edge18" class="edge"><title>Node12&#45;&gt;Node1</title>
<path fill="none" stroke="#404040" d="M866.352,-263.151C861.643,-260.475 856.946,-257.849 852.376,-255.35 825.288,-240.534 819.725,-233.602 790.376,-224.015 706.582,-196.641 604.451,-183.916 543.564,-178.376"/>
<polygon fill="none" stroke="#404040" points="543.541,-178.374 537.216,-181.837 531.587,-177.331 537.912,-173.868 543.541,-178.374"/>
<text text-anchor="middle" x="859.383" y="-229.35" font-family="Monaco" font-size="10.00"> +mlinestring</text>
</g>
<!-- Node13&#45;&gt;Node1 -->
<g id="edge21" class="edge"><title>Node13&#45;&gt;Node1</title>
<path fill="none" stroke="#404040" d="M777.235,-475.021C777.628,-408.913 774.68,-288.96 749.376,-255.35 701.667,-191.978 604.653,-177 543.844,-174.169"/>
<polygon fill="none" stroke="#404040" points="543.813,-174.168 537.675,-177.955 531.82,-173.746 537.957,-169.959 543.813,-174.168"/>
<text text-anchor="middle" x="807.382" y="-299.854" font-family="Monaco" font-size="10.00"> +linestring</text>
</g>
<!-- Node13&#45;&gt;Node12 -->
<g id="edge19" class="edge"><title>Node13&#45;&gt;Node12</title>
<path fill="none" stroke="#404040" d="M807.503,-475.028C831.479,-440.744 864.738,-393.186 890.3,-356.634"/>
<polygon fill="none" stroke="#404040" points="890.415,-356.47 890.575,-349.26 897.292,-346.636 897.131,-353.845 890.415,-356.47"/>
<text text-anchor="middle" x="922.383" y="-409.529" font-family="Monaco" font-size="10.00"> +lineStrings</text>
</g>
</g>
</svg>
        <g id="navigator" transform="translate(0 0)" fill="#404254">
                <rect fill="#f2f5e9" fill-opacity="0.5" stroke="#606060" stroke-width=".5" x="0" y="0" width="60" height="60"/>
                <use id="zoomplus" xlink:href="#zoomPlus" x="17" y="9" onmousedown="handleZoom(evt,'in')"/>
                <use id="zoomminus" xlink:href="#zoomMin" x="42" y="9" onmousedown="handleZoom(evt,'out')"/>
                <use id="reset" xlink:href="#resetDef" x="30" y="36" onmousedown="handleReset()"/>
                <g id="arrowUp" xlink:href="#dirArrow" transform="translate(30 24)" onmousedown="handlePan(0,-1)">
                  <use xlink:href="#rim" fill="#404040">
                        <set attributeName="fill" to="#808080" begin="arrowUp.mouseover" end="arrowUp.mouseout"/>
                  </use>
                  <path fill="none" stroke="white" stroke-width="1.5" d="M0,-3.0v7 M-2.5,-0.5L0,-3.0L2.5,-0.5"/>
                </g>
                <g id="arrowRight" xlink:href="#dirArrow" transform="rotate(90) translate(36 -43)" onmousedown="handlePan(1,0)">
                  <use xlink:href="#rim" fill="#404040">
                        <set attributeName="fill" to="#808080" begin="arrowRight.mouseover" end="arrowRight.mouseout"/>
                  </use>
                  <path fill="none" stroke="white" stroke-width="1.5" d="M0,-3.0v7 M-2.5,-0.5L0,-3.0L2.5,-0.5"/>
                </g>
                <g id="arrowDown" xlink:href="#dirArrow" transform="rotate(180) translate(-30 -48)" onmousedown="handlePan(0,1)">
                  <use xlink:href="#rim" fill="#404040">
                        <set attributeName="fill" to="#808080" begin="arrowDown.mouseover" end="arrowDown.mouseout"/>
                  </use>
                  <path fill="none" stroke="white" stroke-width="1.5" d="M0,-3.0v7 M-2.5,-0.5L0,-3.0L2.5,-0.5"/>
                </g>
                <g id="arrowLeft" xlink:href="#dirArrow" transform="rotate(270) translate(-36 17)" onmousedown="handlePan(-1,0)">
                  <use xlink:href="#rim" fill="#404040">
                        <set attributeName="fill" to="#808080" begin="arrowLeft.mouseover" end="arrowLeft.mouseout"/>
                  </use>
                  <path fill="none" stroke="white" stroke-width="1.5" d="M0,-3.0v7 M-2.5,-0.5L0,-3.0L2.5,-0.5"/>
                </g>
        </g>
        <svg viewBox="0 0 15 15" width="100%" height="30px" preserveAspectRatio="xMaxYMin meet">
         <g id="arrow_out" transform="scale(0.3 0.3)">
          <a xlink:href="union_w_k_b_geometry__coll__graph_org.svg" target="_base">
           <rect id="button" ry="5" rx="5" y="6" x="6" height="38" width="38"
                fill="#f2f5e9" fill-opacity="0.5" stroke="#606060" stroke-width="1.0"/>
           <path id="arrow"
             d="M 11.500037,31.436501 C 11.940474,20.09759 22.043105,11.32322 32.158766,21.979434 L 37.068811,17.246167 C 37.068811,17.246167 37.088388,32 37.088388,32 L 22.160133,31.978069 C 22.160133,31.978069 26.997745,27.140456 26.997745,27.140456 C 18.528582,18.264221 13.291696,25.230495 11.500037,31.436501 z"
             style="fill:#404040;"/>
          </a>
         </g>
        </svg>
</svg>
