<?xml version="1.0" encoding="UTF-8" standalone="no"?>
<!DOCTYPE svg PUBLIC "-//W3C//DTD SVG 1.1//EN"
 "http://www.w3.org/Graphics/SVG/1.1/DTD/svg11.dtd">
<!-- Generated by graphviz version 2.38.0 (20140413.2041)
 -->
<!-- Title: WKBTINZM Pages: 1 -->
<svg width="115pt" height="509pt"
 viewBox="0.00 0.00 115.02 509.37" xmlns="http://www.w3.org/2000/svg" xmlns:xlink="http://www.w3.org/1999/xlink">
<g id="graph0" class="graph" transform="scale(1 1) rotate(0) translate(4 505.369)">
<title>WKBTINZM</title>
<!-- Node1 -->
<g id="node1" class="node"><title>Node1</title>
<polygon fill="#bfbfbf" stroke="black" points="0,-0.5 0,-91.1748 94.0127,-91.1748 94.0127,-0.5 0,-0.5"/>
<text text-anchor="middle" x="47.0063" y="-79.1748" font-family="Monaco" font-size="10.00">WKBTINZM</text>
<polyline fill="none" stroke="black" points="0,-69.8398 94.0127,-69.8398 "/>
<text text-anchor="start" x="8" y="-57.8398" font-family="Monaco" font-size="10.00">+ byteOrder</text>
<text text-anchor="start" x="8" y="-44.5049" font-family="Monaco" font-size="10.00">+ numPolygons</text>
<text text-anchor="start" x="8" y="-31.1699" font-family="Monaco" font-size="10.00">+ wkbType</text>
<polyline fill="none" stroke="black" points="0,-21.835 94.0127,-21.835 "/>
<text text-anchor="middle" x="47.0063" y="-9.83496" font-family="Monaco" font-size="10.00"> </text>
</g>
<!-- Node2 -->
<g id="node2" class="node"><title>Node2</title>
<g id="a_node2"><a xlink:href="../../d0/dac/struct_w_k_b_polygon_z_m.html" target="_top" xlink:title="The WKBPolygonZM struct. ">
<polygon fill="none" stroke="black" points="3.00049,-141.51 3.00049,-232.185 91.0122,-232.185 91.0122,-141.51 3.00049,-141.51"/>
<text text-anchor="middle" x="47.0063" y="-220.185" font-family="Monaco" font-size="10.00">WKBPolygonZM</text>
<polyline fill="none" stroke="black" points="3.00049,-210.85 91.0122,-210.85 "/>
<text text-anchor="start" x="11.0005" y="-198.85" font-family="Monaco" font-size="10.00">+ byteOrder</text>
<text text-anchor="start" x="11.0005" y="-185.515" font-family="Monaco" font-size="10.00">+ numRings</text>
<text text-anchor="start" x="11.0005" y="-172.18" font-family="Monaco" font-size="10.00">+ wkbType</text>
<polyline fill="none" stroke="black" points="3.00049,-162.845 91.0122,-162.845 "/>
<text text-anchor="middle" x="47.0063" y="-150.845" font-family="Monaco" font-size="10.00"> </text>
</a>
</g>
</g>
<!-- Node2&#45;&gt;Node1 -->
<g id="edge1" class="edge"><title>Node2&#45;&gt;Node1</title>
<path fill="none" stroke="#404040" d="M47.0063,-141.481C47.0063,-129.444 47.0063,-116.243 47.0063,-103.622"/>
<polygon fill="none" stroke="#404040" points="47.0064,-103.258 43.0064,-97.2585 47.0063,-91.2585 51.0064,-97.2584 47.0064,-103.258"/>
<text text-anchor="middle" x="77.0112" y="-115.01" font-family="Monaco" font-size="10.00"> +polygons</text>
</g>
<!-- Node3 -->
<g id="node3" class="node"><title>Node3</title>
<g id="a_node3"><a xlink:href="../../dc/dd2/struct_linear_ring_z_m.html" target="_top" xlink:title="The LinearRingZM struct. ">
<polygon fill="none" stroke="black" points="3.00049,-282.52 3.00049,-346.524 91.0122,-346.524 91.0122,-282.52 3.00049,-282.52"/>
<text text-anchor="middle" x="47.0063" y="-334.524" font-family="Monaco" font-size="10.00">LinearRingZM</text>
<polyline fill="none" stroke="black" points="3.00049,-325.189 91.0122,-325.189 "/>
<text text-anchor="start" x="11.0005" y="-313.189" font-family="Monaco" font-size="10.00">+ numPoints</text>
<polyline fill="none" stroke="black" points="3.00049,-303.854 91.0122,-303.854 "/>
<text text-anchor="middle" x="47.0063" y="-291.854" font-family="Monaco" font-size="10.00"> </text>
</a>
</g>
</g>
<!-- Node3&#45;&gt;Node2 -->
<g id="edge2" class="edge"><title>Node3&#45;&gt;Node2</title>
<path fill="none" stroke="#404040" d="M47.0063,-282.456C47.0063,-270.999 47.0063,-257.629 47.0063,-244.611"/>
<polygon fill="none" stroke="#404040" points="47.0064,-244.31 43.0064,-238.31 47.0063,-232.31 51.0064,-238.31 47.0064,-244.31"/>
<text text-anchor="middle" x="68.0098" y="-256.02" font-family="Monaco" font-size="10.00"> +rings</text>
</g>
<!-- Node4 -->
<g id="node4" class="node"><title>Node4</title>
<g id="a_node4"><a xlink:href="../../d7/ded/struct_point_z_m.html" target="_top" xlink:title="The PointZM struct. ">
<polygon fill="none" stroke="black" points="18.0029,-396.859 18.0029,-500.869 76.0098,-500.869 76.0098,-396.859 18.0029,-396.859"/>
<text text-anchor="middle" x="47.0063" y="-488.869" font-family="Monaco" font-size="10.00">PointZM</text>
<polyline fill="none" stroke="black" points="18.0029,-479.534 76.0098,-479.534 "/>
<text text-anchor="start" x="26.0029" y="-467.534" font-family="Monaco" font-size="10.00">+ x</text>
<text text-anchor="start" x="26.0029" y="-454.199" font-family="Monaco" font-size="10.00">+ y</text>
<text text-anchor="start" x="26.0029" y="-440.864" font-family="Monaco" font-size="10.00">+ z</text>
<text text-anchor="start" x="26.0029" y="-427.529" font-family="Monaco" font-size="10.00">+ m</text>
<polyline fill="none" stroke="black" points="18.0029,-418.194 76.0098,-418.194 "/>
<text text-anchor="middle" x="47.0063" y="-406.194" font-family="Monaco" font-size="10.00"> </text>
</a>
</g>
</g>
<!-- Node4&#45;&gt;Node3 -->
<g id="edge3" class="edge"><title>Node4&#45;&gt;Node3</title>
<path fill="none" stroke="#404040" d="M47.0063,-396.697C47.0063,-384.173 47.0063,-370.892 47.0063,-358.779"/>
<polygon fill="none" stroke="#404040" points="47.0064,-358.66 43.0064,-352.66 47.0063,-346.66 51.0064,-352.66 47.0064,-358.66"/>
<text text-anchor="middle" x="71.0103" y="-370.359" font-family="Monaco" font-size="10.00"> +points</text>
</g>
</g>
</svg>
