<?xml version="1.0" encoding="UTF-8" standalone="no"?>
<!DOCTYPE svg PUBLIC "-//W3C//DTD SVG 1.1//EN"
 "http://www.w3.org/Graphics/SVG/1.1/DTD/svg11.dtd">
<!-- Generated by graphviz version 2.38.0 (20140413.2041)
 -->
<!-- Title: WKBMultiPoint Pages: 1 -->
<svg width="103pt" height="355pt"
 viewBox="0.00 0.00 103.01 355.02" xmlns="http://www.w3.org/2000/svg" xmlns:xlink="http://www.w3.org/1999/xlink">
<g id="graph0" class="graph" transform="scale(1 1) rotate(0) translate(4 351.024)">
<title>WKBMultiPoint</title>
<!-- Node1 -->
<g id="node1" class="node"><title>Node1</title>
<polygon fill="#bfbfbf" stroke="black" points="0,-0.5 0,-91.1748 94.0127,-91.1748 94.0127,-0.5 0,-0.5"/>
<text text-anchor="middle" x="47.0063" y="-79.1748" font-family="Monaco" font-size="10.00">WKBMultiPoint</text>
<polyline fill="none" stroke="black" points="0,-69.8398 94.0127,-69.8398 "/>
<text text-anchor="start" x="8" y="-57.8398" font-family="Monaco" font-size="10.00">+ byteOrder</text>
<text text-anchor="start" x="8" y="-44.5049" font-family="Monaco" font-size="10.00">+ numPoints</text>
<text text-anchor="start" x="8" y="-31.1699" font-family="Monaco" font-size="10.00">+ wkbType</text>
<polyline fill="none" stroke="black" points="0,-21.835 94.0127,-21.835 "/>
<text text-anchor="middle" x="47.0063" y="-9.83496" font-family="Monaco" font-size="10.00"> </text>
</g>
<!-- Node2 -->
<g id="node2" class="node"><title>Node2</title>
<g id="a_node2"><a xlink:href="../../d9/db2/struct_w_k_b_point.html" target="_top" xlink:title="The WKBPoint struct. ">
<polygon fill="none" stroke="black" points="6.00098,-141.51 6.00098,-218.85 88.0117,-218.85 88.0117,-141.51 6.00098,-141.51"/>
<text text-anchor="middle" x="47.0063" y="-206.85" font-family="Monaco" font-size="10.00">WKBPoint</text>
<polyline fill="none" stroke="black" points="6.00098,-197.515 88.0117,-197.515 "/>
<text text-anchor="start" x="14.001" y="-185.515" font-family="Monaco" font-size="10.00">+ byteOrder</text>
<text text-anchor="start" x="14.001" y="-172.18" font-family="Monaco" font-size="10.00">+ wkbType</text>
<polyline fill="none" stroke="black" points="6.00098,-162.845 88.0117,-162.845 "/>
<text text-anchor="middle" x="47.0063" y="-150.845" font-family="Monaco" font-size="10.00"> </text>
</a>
</g>
</g>
<!-- Node2&#45;&gt;Node1 -->
<g id="edge1" class="edge"><title>Node2&#45;&gt;Node1</title>
<path fill="none" stroke="#404040" d="M47.0063,-141.256C47.0063,-129.448 47.0063,-116.162 47.0063,-103.368"/>
<polygon fill="none" stroke="#404040" points="47.0064,-103.317 43.0064,-97.3168 47.0063,-91.3168 51.0064,-97.3168 47.0064,-103.317"/>
<text text-anchor="middle" x="71.0103" y="-115.01" font-family="Monaco" font-size="10.00"> +points</text>
</g>
<!-- Node3 -->
<g id="node3" class="node"><title>Node3</title>
<g id="a_node3"><a xlink:href="../../d8/dc8/struct_point.html" target="_top" xlink:title="The Point struct. ">
<polygon fill="none" stroke="black" points="24.0039,-269.185 24.0039,-346.524 70.0088,-346.524 70.0088,-269.185 24.0039,-269.185"/>
<text text-anchor="middle" x="47.0063" y="-334.524" font-family="Monaco" font-size="10.00">Point</text>
<polyline fill="none" stroke="black" points="24.0039,-325.189 70.0088,-325.189 "/>
<text text-anchor="start" x="32.0039" y="-313.189" font-family="Monaco" font-size="10.00">+ x</text>
<text text-anchor="start" x="32.0039" y="-299.854" font-family="Monaco" font-size="10.00">+ y</text>
<polyline fill="none" stroke="black" points="24.0039,-290.52 70.0088,-290.52 "/>
<text text-anchor="middle" x="47.0063" y="-278.52" font-family="Monaco" font-size="10.00"> </text>
</a>
</g>
</g>
<!-- Node3&#45;&gt;Node2 -->
<g id="edge2" class="edge"><title>Node3&#45;&gt;Node2</title>
<path fill="none" stroke="#404040" d="M47.0063,-269.148C47.0063,-257.218 47.0063,-243.842 47.0063,-231.19"/>
<polygon fill="none" stroke="#404040" points="47.0064,-230.86 43.0064,-224.86 47.0063,-218.86 51.0064,-224.86 47.0064,-230.86"/>
<text text-anchor="middle" x="68.0098" y="-242.685" font-family="Monaco" font-size="10.00"> +point</text>
</g>
</g>
</svg>
