<?xml version="1.0" encoding="UTF-8" standalone="no"?>
<!DOCTYPE svg PUBLIC "-//W3C//DTD SVG 1.1//EN"
 "http://www.w3.org/Graphics/SVG/1.1/DTD/svg11.dtd">
<!-- Generated by graphviz version 2.38.0 (20140413.2041)
 -->
<!-- Title: WKBMultiLineStringZM Pages: 1 -->
<svg width="154pt" height="395pt"
 viewBox="0.00 0.00 154.02 395.03" xmlns="http://www.w3.org/2000/svg" xmlns:xlink="http://www.w3.org/1999/xlink">
<g id="graph0" class="graph" transform="scale(1 1) rotate(0) translate(4 391.029)">
<title>WKBMultiLineStringZM</title>
<!-- Node1 -->
<g id="node1" class="node"><title>Node1</title>
<polygon fill="#bfbfbf" stroke="black" points="0,-0.5 0,-91.1748 136.02,-91.1748 136.02,-0.5 0,-0.5"/>
<text text-anchor="middle" x="68.0098" y="-79.1748" font-family="Monaco" font-size="10.00">WKBMultiLineStringZM</text>
<polyline fill="none" stroke="black" points="0,-69.8398 136.02,-69.8398 "/>
<text text-anchor="start" x="8" y="-57.8398" font-family="Monaco" font-size="10.00">+ byteOrder</text>
<text text-anchor="start" x="8" y="-44.5049" font-family="Monaco" font-size="10.00">+ numLineStrings</text>
<text text-anchor="start" x="8" y="-31.1699" font-family="Monaco" font-size="10.00">+ wkbType</text>
<polyline fill="none" stroke="black" points="0,-21.835 136.02,-21.835 "/>
<text text-anchor="middle" x="68.0098" y="-9.83496" font-family="Monaco" font-size="10.00"> </text>
</g>
<!-- Node2 -->
<g id="node2" class="node"><title>Node2</title>
<g id="a_node2"><a xlink:href="../../df/d44/struct_w_k_b_line_string_z_m.html" target="_top" xlink:title="The WKBLineStringZM struct. ">
<polygon fill="none" stroke="black" points="15.0024,-141.51 15.0024,-232.185 121.017,-232.185 121.017,-141.51 15.0024,-141.51"/>
<text text-anchor="middle" x="68.0098" y="-220.185" font-family="Monaco" font-size="10.00">WKBLineStringZM</text>
<polyline fill="none" stroke="black" points="15.0024,-210.85 121.017,-210.85 "/>
<text text-anchor="start" x="23.0024" y="-198.85" font-family="Monaco" font-size="10.00">+ byteOrder</text>
<text text-anchor="start" x="23.0024" y="-185.515" font-family="Monaco" font-size="10.00">+ numPoints</text>
<text text-anchor="start" x="23.0024" y="-172.18" font-family="Monaco" font-size="10.00">+ wkbType</text>
<polyline fill="none" stroke="black" points="15.0024,-162.845 121.017,-162.845 "/>
<text text-anchor="middle" x="68.0098" y="-150.845" font-family="Monaco" font-size="10.00"> </text>
</a>
</g>
</g>
<!-- Node2&#45;&gt;Node1 -->
<g id="edge1" class="edge"><title>Node2&#45;&gt;Node1</title>
<path fill="none" stroke="#404040" d="M68.0098,-141.481C68.0098,-129.444 68.0098,-116.243 68.0098,-103.622"/>
<polygon fill="none" stroke="#404040" points="68.0099,-103.258 64.0098,-97.2585 68.0098,-91.2585 72.0098,-97.2584 68.0099,-103.258"/>
<text text-anchor="middle" x="107.016" y="-115.01" font-family="Monaco" font-size="10.00"> +lineStrings</text>
</g>
<!-- Node3 -->
<g id="node3" class="node"><title>Node3</title>
<g id="a_node3"><a xlink:href="../../d7/ded/struct_point_z_m.html" target="_top" xlink:title="The PointZM struct. ">
<polygon fill="none" stroke="black" points="39.0063,-282.52 39.0063,-386.529 97.0132,-386.529 97.0132,-282.52 39.0063,-282.52"/>
<text text-anchor="middle" x="68.0098" y="-374.529" font-family="Monaco" font-size="10.00">PointZM</text>
<polyline fill="none" stroke="black" points="39.0063,-365.194 97.0132,-365.194 "/>
<text text-anchor="start" x="47.0063" y="-353.194" font-family="Monaco" font-size="10.00">+ x</text>
<text text-anchor="start" x="47.0063" y="-339.859" font-family="Monaco" font-size="10.00">+ y</text>
<text text-anchor="start" x="47.0063" y="-326.524" font-family="Monaco" font-size="10.00">+ z</text>
<text text-anchor="start" x="47.0063" y="-313.189" font-family="Monaco" font-size="10.00">+ m</text>
<polyline fill="none" stroke="black" points="39.0063,-303.854 97.0132,-303.854 "/>
<text text-anchor="middle" x="68.0098" y="-291.854" font-family="Monaco" font-size="10.00"> </text>
</a>
</g>
</g>
<!-- Node3&#45;&gt;Node2 -->
<g id="edge2" class="edge"><title>Node3&#45;&gt;Node2</title>
<path fill="none" stroke="#404040" d="M68.0098,-282.164C68.0098,-269.999 68.0098,-256.957 68.0098,-244.569"/>
<polygon fill="none" stroke="#404040" points="68.0099,-244.457 64.0098,-238.457 68.0098,-232.457 72.0098,-238.457 68.0099,-244.457"/>
<text text-anchor="middle" x="92.0137" y="-256.02" font-family="Monaco" font-size="10.00"> +points</text>
</g>
</g>
</svg>
