<?xml version="1.0" encoding="UTF-8" standalone="no"?>
<!DOCTYPE svg PUBLIC "-//W3C//DTD SVG 1.1//EN"
 "http://www.w3.org/Graphics/SVG/1.1/DTD/svg11.dtd">
<!-- Generated by graphviz version 2.38.0 (20140413.2041)
 -->
<!-- Title: HydroCouple::Temporal::ITimeModelComponent Pages: 1 -->
<!--zoomable 717 -->
<svg id="main" version="1.1" xmlns="http://www.w3.org/2000/svg" xmlns:xlink="http://www.w3.org/1999/xlink" xml:space="preserve" onload="init(evt)">
<style type="text/css"><![CDATA[
.edge:hover path { stroke: red; }
.edge:hover polygon { stroke: red; fill: red; }
]]></style>
<script type="text/javascript"><![CDATA[
var edges = document.getElementsByTagName('g');
if (edges && edges.length) {
  for (var i=0;i<edges.length;i++) {
    if (edges[i].id.substr(0,4)=='edge') {
      edges[i].setAttribute('class','edge');
    }
  }
}
]]></script>
        <defs>
                <circle id="rim" cx="0" cy="0" r="7"/>
                <circle id="rim2" cx="0" cy="0" r="3.5"/>
                <g id="zoomPlus">
                        <use xlink:href="#rim" fill="#404040">
                                <set attributeName="fill" to="#808080" begin="zoomplus.mouseover" end="zoomplus.mouseout"/>
                        </use>
                        <path d="M-4,0h8M0,-4v8" fill="none" stroke="white" stroke-width="1.5" pointer-events="none"/>
                </g>
                <g id="zoomMin">
                        <use xlink:href="#rim" fill="#404040">
                                <set attributeName="fill" to="#808080" begin="zoomminus.mouseover" end="zoomminus.mouseout"/>
                        </use>
                        <path d="M-4,0h8" fill="none" stroke="white" stroke-width="1.5" pointer-events="none"/>
                </g>
                <g id="dirArrow">
                        <path fill="none" stroke="white" stroke-width="1.5" d="M0,-3.0v7 M-2.5,-0.5L0,-3.0L2.5,-0.5"/>
                </g>
               <g id="resetDef">
                       <use xlink:href="#rim2" fill="#404040">
                               <set attributeName="fill" to="#808080" begin="reset.mouseover" end="reset.mouseout"/>
                       </use>
               </g>
        </defs>

<script type="text/javascript">
var viewWidth = 198;
var viewHeight = 717;
var sectionId = 'dynsection-1';
</script>
<script xlink:href="../../svgpan.js"/>
<svg id="graph" class="graph">
<g id="viewport">
<title>HydroCouple::Temporal::ITimeModelComponent</title>
<!-- Node1 -->
<g id="node1" class="node"><title>Node1</title>
<polygon fill="#bfbfbf" stroke="black" points="15.0024,-0.5 15.0024,-104.51 175.026,-104.51 175.026,-0.5 15.0024,-0.5"/>
<text text-anchor="start" x="23.0024" y="-92.5098" font-family="Monaco" font-size="10.00">HydroCouple::Temporal</text>
<text text-anchor="middle" x="95.0142" y="-79.1748" font-family="Monaco" font-size="10.00">::ITimeModelComponent</text>
<polyline fill="none" stroke="black" points="15.0024,-69.8398 175.026,-69.8398 "/>
<text text-anchor="middle" x="95.0142" y="-57.8398" font-family="Monaco" font-size="10.00"> </text>
<polyline fill="none" stroke="black" points="15.0024,-48.5049 175.026,-48.5049 "/>
<text text-anchor="start" x="23.0024" y="-36.5049" font-family="Monaco" font-size="10.00">+ ~ITimeModelComponent()</text>
<text text-anchor="start" x="23.0024" y="-23.1699" font-family="Monaco" font-size="10.00">+ currentDateTime()</text>
<text text-anchor="start" x="23.0024" y="-9.83496" font-family="Monaco" font-size="10.00">+ timeHorizon()</text>
</g>
<!-- Node2 -->
<g id="node2" class="node"><title>Node2</title>
<g id="a_node2"><a xlink:href="../../d3/dae/class_hydro_couple_1_1_i_model_component.html" target="_top" xlink:title="IModelComponent interface is the core interface in the HydroCouple standard defining a model componen...">
<polygon fill="none" stroke="black" points="3.00049,-141.51 3.00049,-338.864 187.028,-338.864 187.028,-141.51 3.00049,-141.51"/>
<text text-anchor="middle" x="95.0142" y="-326.864" font-family="Monaco" font-size="10.00">HydroCouple::IModelComponent</text>
<polyline fill="none" stroke="black" points="3.00049,-317.529 187.028,-317.529 "/>
<text text-anchor="middle" x="95.0142" y="-305.529" font-family="Monaco" font-size="10.00"> </text>
<polyline fill="none" stroke="black" points="3.00049,-296.194 187.028,-296.194 "/>
<text text-anchor="start" x="11.0005" y="-284.194" font-family="Monaco" font-size="10.00">+ ~IModelComponent()</text>
<text text-anchor="start" x="11.0005" y="-270.859" font-family="Monaco" font-size="10.00">+ index()</text>
<text text-anchor="start" x="11.0005" y="-257.524" font-family="Monaco" font-size="10.00">+ setIndex()</text>
<text text-anchor="start" x="11.0005" y="-244.189" font-family="Monaco" font-size="10.00">+ componentInfo()</text>
<text text-anchor="start" x="11.0005" y="-230.854" font-family="Monaco" font-size="10.00">+ arguments()</text>
<text text-anchor="start" x="11.0005" y="-217.52" font-family="Monaco" font-size="10.00">+ status()</text>
<text text-anchor="start" x="11.0005" y="-204.185" font-family="Monaco" font-size="10.00">+ inputs()</text>
<text text-anchor="start" x="11.0005" y="-190.85" font-family="Monaco" font-size="10.00">+ outputs()</text>
<text text-anchor="start" x="11.0005" y="-177.515" font-family="Monaco" font-size="10.00">+ initialize()</text>
<text text-anchor="start" x="11.0005" y="-164.18" font-family="Monaco" font-size="10.00">+ validate()</text>
<text text-anchor="start" x="11.0005" y="-150.845" font-family="Monaco" font-size="10.00">and 18 more...</text>
</a>
</g>
</g>
<!-- Node2&#45;&gt;Node1 -->
<g id="edge1" class="edge"><title>Node2&#45;&gt;Node1</title>
<path fill="none" stroke="midnightblue" d="M95.0142,-131.331C95.0142,-122.062 95.0142,-112.998 95.0142,-104.522"/>
<polygon fill="none" stroke="midnightblue" points="91.5143,-131.452 95.0142,-141.452 98.5143,-131.452 91.5143,-131.452"/>
</g>
<!-- Node3 -->
<g id="node3" class="node"><title>Node3</title>
<g id="a_node3"><a xlink:href="../../d2/d2a/class_hydro_couple_1_1_i_identity.html" target="_top" xlink:title="IIdentity interface class defines a method to get the Id of an HydroCouple entity. ">
<polygon fill="none" stroke="black" points="21.0034,-375.864 21.0034,-453.204 169.025,-453.204 169.025,-375.864 21.0034,-375.864"/>
<text text-anchor="middle" x="95.0142" y="-441.204" font-family="Monaco" font-size="10.00">HydroCouple::IIdentity</text>
<polyline fill="none" stroke="black" points="21.0034,-431.869 169.025,-431.869 "/>
<text text-anchor="middle" x="95.0142" y="-419.869" font-family="Monaco" font-size="10.00"> </text>
<polyline fill="none" stroke="black" points="21.0034,-410.534 169.025,-410.534 "/>
<text text-anchor="start" x="29.0034" y="-398.534" font-family="Monaco" font-size="10.00">+ ~IIdentity()</text>
<text text-anchor="start" x="29.0034" y="-385.199" font-family="Monaco" font-size="10.00">+ id()</text>
</a>
</g>
</g>
<!-- Node3&#45;&gt;Node2 -->
<g id="edge2" class="edge"><title>Node3&#45;&gt;Node2</title>
<path fill="none" stroke="midnightblue" d="M95.0142,-365.442C95.0142,-357.054 95.0142,-348.063 95.0142,-338.896"/>
<polygon fill="none" stroke="midnightblue" points="91.5143,-365.712 95.0142,-375.712 98.5143,-365.712 91.5143,-365.712"/>
</g>
<!-- Node4 -->
<g id="node4" class="node"><title>Node4</title>
<g id="a_node4"><a xlink:href="../../db/d64/class_hydro_couple_1_1_i_description.html" target="_top" xlink:title="IDescription interface class provides descriptive information on a HydroCouple object. ">
<polygon fill="none" stroke="black" points="12.002,-490.204 12.002,-607.549 178.026,-607.549 178.026,-490.204 12.002,-490.204"/>
<text text-anchor="middle" x="95.0142" y="-595.549" font-family="Monaco" font-size="10.00">HydroCouple::IDescription</text>
<polyline fill="none" stroke="black" points="12.002,-586.214 178.026,-586.214 "/>
<text text-anchor="middle" x="95.0142" y="-574.214" font-family="Monaco" font-size="10.00"> </text>
<polyline fill="none" stroke="black" points="12.002,-564.879 178.026,-564.879 "/>
<text text-anchor="start" x="20.002" y="-552.879" font-family="Monaco" font-size="10.00">+ ~IDescription()</text>
<text text-anchor="start" x="20.002" y="-539.544" font-family="Monaco" font-size="10.00">+ caption()</text>
<text text-anchor="start" x="20.002" y="-526.209" font-family="Monaco" font-size="10.00">+ setCaption()</text>
<text text-anchor="start" x="20.002" y="-512.874" font-family="Monaco" font-size="10.00">+ description()</text>
<text text-anchor="start" x="20.002" y="-499.539" font-family="Monaco" font-size="10.00">+ setDescription()</text>
</a>
</g>
</g>
<!-- Node4&#45;&gt;Node3 -->
<g id="edge3" class="edge"><title>Node4&#45;&gt;Node3</title>
<path fill="none" stroke="midnightblue" d="M95.0142,-479.638C95.0142,-470.599 95.0142,-461.612 95.0142,-453.352"/>
<polygon fill="none" stroke="midnightblue" points="91.5143,-479.829 95.0142,-489.829 98.5143,-479.829 91.5143,-479.829"/>
</g>
<!-- Node5 -->
<g id="node5" class="node"><title>Node5</title>
<g id="a_node5"><a xlink:href="../../dd/dbf/class_hydro_couple_1_1_i_property_changed.html" target="_top" xlink:title="IPropertyChanged interface is used to emit signal/event when a property of an object changes...">
<polygon fill="none" stroke="black" points="0,-644.549 0,-708.554 190.028,-708.554 190.028,-644.549 0,-644.549"/>
<text text-anchor="middle" x="95.0142" y="-696.554" font-family="Monaco" font-size="10.00">HydroCouple::IPropertyChanged</text>
<polyline fill="none" stroke="black" points="0,-687.219 190.028,-687.219 "/>
<text text-anchor="middle" x="95.0142" y="-675.219" font-family="Monaco" font-size="10.00"> </text>
<polyline fill="none" stroke="black" points="0,-665.884 190.028,-665.884 "/>
<text text-anchor="start" x="8" y="-653.884" font-family="Monaco" font-size="10.00">+ ~IPropertyChanged()</text>
</a>
</g>
</g>
<!-- Node5&#45;&gt;Node4 -->
<g id="edge4" class="edge"><title>Node5&#45;&gt;Node4</title>
<path fill="none" stroke="midnightblue" d="M95.0142,-634.228C95.0142,-625.843 95.0142,-616.877 95.0142,-608.035"/>
<polygon fill="none" stroke="midnightblue" points="91.5143,-634.486 95.0142,-644.486 98.5143,-634.486 91.5143,-634.486"/>
</g>
</g>
</svg>
        <g id="navigator" transform="translate(0 0)" fill="#404254">
                <rect fill="#f2f5e9" fill-opacity="0.5" stroke="#606060" stroke-width=".5" x="0" y="0" width="60" height="60"/>
                <use id="zoomplus" xlink:href="#zoomPlus" x="17" y="9" onmousedown="handleZoom(evt,'in')"/>
                <use id="zoomminus" xlink:href="#zoomMin" x="42" y="9" onmousedown="handleZoom(evt,'out')"/>
                <use id="reset" xlink:href="#resetDef" x="30" y="36" onmousedown="handleReset()"/>
                <g id="arrowUp" xlink:href="#dirArrow" transform="translate(30 24)" onmousedown="handlePan(0,-1)">
                  <use xlink:href="#rim" fill="#404040">
                        <set attributeName="fill" to="#808080" begin="arrowUp.mouseover" end="arrowUp.mouseout"/>
                  </use>
                  <path fill="none" stroke="white" stroke-width="1.5" d="M0,-3.0v7 M-2.5,-0.5L0,-3.0L2.5,-0.5"/>
                </g>
                <g id="arrowRight" xlink:href="#dirArrow" transform="rotate(90) translate(36 -43)" onmousedown="handlePan(1,0)">
                  <use xlink:href="#rim" fill="#404040">
                        <set attributeName="fill" to="#808080" begin="arrowRight.mouseover" end="arrowRight.mouseout"/>
                  </use>
                  <path fill="none" stroke="white" stroke-width="1.5" d="M0,-3.0v7 M-2.5,-0.5L0,-3.0L2.5,-0.5"/>
                </g>
                <g id="arrowDown" xlink:href="#dirArrow" transform="rotate(180) translate(-30 -48)" onmousedown="handlePan(0,1)">
                  <use xlink:href="#rim" fill="#404040">
                        <set attributeName="fill" to="#808080" begin="arrowDown.mouseover" end="arrowDown.mouseout"/>
                  </use>
                  <path fill="none" stroke="white" stroke-width="1.5" d="M0,-3.0v7 M-2.5,-0.5L0,-3.0L2.5,-0.5"/>
                </g>
                <g id="arrowLeft" xlink:href="#dirArrow" transform="rotate(270) translate(-36 17)" onmousedown="handlePan(-1,0)">
                  <use xlink:href="#rim" fill="#404040">
                        <set attributeName="fill" to="#808080" begin="arrowLeft.mouseover" end="arrowLeft.mouseout"/>
                  </use>
                  <path fill="none" stroke="white" stroke-width="1.5" d="M0,-3.0v7 M-2.5,-0.5L0,-3.0L2.5,-0.5"/>
                </g>
        </g>
        <svg viewBox="0 0 15 15" width="100%" height="30px" preserveAspectRatio="xMaxYMin meet">
         <g id="arrow_out" transform="scale(0.3 0.3)">
          <a xlink:href="class_hydro_couple_1_1_temporal_1_1_i_time_model_component__coll__graph_org.svg" target="_base">
           <rect id="button" ry="5" rx="5" y="6" x="6" height="38" width="38"
                fill="#f2f5e9" fill-opacity="0.5" stroke="#606060" stroke-width="1.0"/>
           <path id="arrow"
             d="M 11.500037,31.436501 C 11.940474,20.09759 22.043105,11.32322 32.158766,21.979434 L 37.068811,17.246167 C 37.068811,17.246167 37.088388,32 37.088388,32 L 22.160133,31.978069 C 22.160133,31.978069 26.997745,27.140456 26.997745,27.140456 C 18.528582,18.264221 13.291696,25.230495 11.500037,31.436501 z"
             style="fill:#404040;"/>
          </a>
         </g>
        </svg>
</svg>
