<?xml version="1.0" encoding="UTF-8" standalone="no"?>
<!DOCTYPE svg PUBLIC "-//W3C//DTD SVG 1.1//EN"
 "http://www.w3.org/Graphics/SVG/1.1/DTD/svg11.dtd">
<!-- Generated by graphviz version 2.38.0 (20140413.2041)
 -->
<!-- Title: HydroCouple::IIdBasedComponentDataItem Pages: 1 -->
<!--zoomable 717 -->
<svg id="main" version="1.1" xmlns="http://www.w3.org/2000/svg" xmlns:xlink="http://www.w3.org/1999/xlink" xml:space="preserve" onload="init(evt)">
<style type="text/css"><![CDATA[
.edge:hover path { stroke: red; }
.edge:hover polygon { stroke: red; fill: red; }
]]></style>
<script type="text/javascript"><![CDATA[
var edges = document.getElementsByTagName('g');
if (edges && edges.length) {
  for (var i=0;i<edges.length;i++) {
    if (edges[i].id.substr(0,4)=='edge') {
      edges[i].setAttribute('class','edge');
    }
  }
}
]]></script>
        <defs>
                <circle id="rim" cx="0" cy="0" r="7"/>
                <circle id="rim2" cx="0" cy="0" r="3.5"/>
                <g id="zoomPlus">
                        <use xlink:href="#rim" fill="#404040">
                                <set attributeName="fill" to="#808080" begin="zoomplus.mouseover" end="zoomplus.mouseout"/>
                        </use>
                        <path d="M-4,0h8M0,-4v8" fill="none" stroke="white" stroke-width="1.5" pointer-events="none"/>
                </g>
                <g id="zoomMin">
                        <use xlink:href="#rim" fill="#404040">
                                <set attributeName="fill" to="#808080" begin="zoomminus.mouseover" end="zoomminus.mouseout"/>
                        </use>
                        <path d="M-4,0h8" fill="none" stroke="white" stroke-width="1.5" pointer-events="none"/>
                </g>
                <g id="dirArrow">
                        <path fill="none" stroke="white" stroke-width="1.5" d="M0,-3.0v7 M-2.5,-0.5L0,-3.0L2.5,-0.5"/>
                </g>
               <g id="resetDef">
                       <use xlink:href="#rim2" fill="#404040">
                               <set attributeName="fill" to="#808080" begin="reset.mouseover" end="reset.mouseout"/>
                       </use>
               </g>
        </defs>

<script type="text/javascript">
var viewWidth = 210;
var viewHeight = 717;
var sectionId = 'dynsection-0';
</script>
<script xlink:href="../../svgpan.js"/>
<svg id="graph" class="graph">
<g id="viewport">
<title>HydroCouple::IIdBasedComponentDataItem</title>
<!-- Node1 -->
<g id="node1" class="node"><title>Node1</title>
<polygon fill="#bfbfbf" stroke="black" points="3.00049,-0.5 3.00049,-157.85 199.03,-157.85 199.03,-0.5 3.00049,-0.5"/>
<text text-anchor="start" x="11.0005" y="-145.85" font-family="Monaco" font-size="10.00">HydroCouple::IIdBasedComponent</text>
<text text-anchor="middle" x="101.015" y="-132.515" font-family="Monaco" font-size="10.00">DataItem</text>
<polyline fill="none" stroke="black" points="3.00049,-123.18 199.03,-123.18 "/>
<text text-anchor="middle" x="101.015" y="-111.18" font-family="Monaco" font-size="10.00"> </text>
<polyline fill="none" stroke="black" points="3.00049,-101.845 199.03,-101.845 "/>
<text text-anchor="start" x="11.0005" y="-89.8447" font-family="Monaco" font-size="10.00">+ ~IIdBasedComponentDataItem()</text>
<text text-anchor="start" x="11.0005" y="-76.5098" font-family="Monaco" font-size="10.00">+ identifiers()</text>
<text text-anchor="start" x="11.0005" y="-63.1748" font-family="Monaco" font-size="10.00">+ identifierDimension()</text>
<text text-anchor="start" x="11.0005" y="-49.8398" font-family="Monaco" font-size="10.00">+ getValue()</text>
<text text-anchor="start" x="11.0005" y="-36.5049" font-family="Monaco" font-size="10.00">+ getValues()</text>
<text text-anchor="start" x="11.0005" y="-23.1699" font-family="Monaco" font-size="10.00">+ setValue()</text>
<text text-anchor="start" x="11.0005" y="-9.83496" font-family="Monaco" font-size="10.00">+ setValues()</text>
</g>
<!-- Node2 -->
<g id="node2" class="node"><title>Node2</title>
<g id="a_node2"><a xlink:href="../../d8/d52/class_hydro_couple_1_1_i_component_data_item.html" target="_top" xlink:title="IComponentItem is a fundamental unit of data for a component. ">
<polygon fill="none" stroke="black" points="0,-194.85 0,-338.864 202.03,-338.864 202.03,-194.85 0,-194.85"/>
<text text-anchor="middle" x="101.015" y="-326.864" font-family="Monaco" font-size="10.00">HydroCouple::IComponentDataItem</text>
<polyline fill="none" stroke="black" points="0,-317.529 202.03,-317.529 "/>
<text text-anchor="middle" x="101.015" y="-305.529" font-family="Monaco" font-size="10.00"> </text>
<polyline fill="none" stroke="black" points="0,-296.194 202.03,-296.194 "/>
<text text-anchor="start" x="8" y="-284.194" font-family="Monaco" font-size="10.00">+ ~IComponentDataItem()</text>
<text text-anchor="start" x="8" y="-270.859" font-family="Monaco" font-size="10.00">+ modelComponent()</text>
<text text-anchor="start" x="8" y="-257.524" font-family="Monaco" font-size="10.00">+ dimensions()</text>
<text text-anchor="start" x="8" y="-244.189" font-family="Monaco" font-size="10.00">+ dimensionLength()</text>
<text text-anchor="start" x="8" y="-230.854" font-family="Monaco" font-size="10.00">+ valueDefinition()</text>
<text text-anchor="start" x="8" y="-217.52" font-family="Monaco" font-size="10.00">+ getValue()</text>
<text text-anchor="start" x="8" y="-204.185" font-family="Monaco" font-size="10.00">+ setValue()</text>
</a>
</g>
</g>
<!-- Node2&#45;&gt;Node1 -->
<g id="edge1" class="edge"><title>Node2&#45;&gt;Node1</title>
<path fill="none" stroke="midnightblue" d="M101.015,-184.401C101.015,-175.645 101.015,-166.751 101.015,-158.038"/>
<polygon fill="none" stroke="midnightblue" points="97.5152,-184.598 101.015,-194.598 104.515,-184.598 97.5152,-184.598"/>
</g>
<!-- Node3 -->
<g id="node3" class="node"><title>Node3</title>
<g id="a_node3"><a xlink:href="../../d2/d2a/class_hydro_couple_1_1_i_identity.html" target="_top" xlink:title="IIdentity interface class defines a method to get the Id of an HydroCouple entity. ">
<polygon fill="none" stroke="black" points="27.0044,-375.864 27.0044,-453.204 175.026,-453.204 175.026,-375.864 27.0044,-375.864"/>
<text text-anchor="middle" x="101.015" y="-441.204" font-family="Monaco" font-size="10.00">HydroCouple::IIdentity</text>
<polyline fill="none" stroke="black" points="27.0044,-431.869 175.026,-431.869 "/>
<text text-anchor="middle" x="101.015" y="-419.869" font-family="Monaco" font-size="10.00"> </text>
<polyline fill="none" stroke="black" points="27.0044,-410.534 175.026,-410.534 "/>
<text text-anchor="start" x="35.0044" y="-398.534" font-family="Monaco" font-size="10.00">+ ~IIdentity()</text>
<text text-anchor="start" x="35.0044" y="-385.199" font-family="Monaco" font-size="10.00">+ id()</text>
</a>
</g>
</g>
<!-- Node3&#45;&gt;Node2 -->
<g id="edge2" class="edge"><title>Node3&#45;&gt;Node2</title>
<path fill="none" stroke="midnightblue" d="M101.015,-365.512C101.015,-356.968 101.015,-347.907 101.015,-338.884"/>
<polygon fill="none" stroke="midnightblue" points="97.5152,-365.639 101.015,-375.639 104.515,-365.64 97.5152,-365.639"/>
</g>
<!-- Node4 -->
<g id="node4" class="node"><title>Node4</title>
<g id="a_node4"><a xlink:href="../../db/d64/class_hydro_couple_1_1_i_description.html" target="_top" xlink:title="IDescription interface class provides descriptive information on a HydroCouple object. ">
<polygon fill="none" stroke="black" points="18.0029,-490.204 18.0029,-607.549 184.027,-607.549 184.027,-490.204 18.0029,-490.204"/>
<text text-anchor="middle" x="101.015" y="-595.549" font-family="Monaco" font-size="10.00">HydroCouple::IDescription</text>
<polyline fill="none" stroke="black" points="18.0029,-586.214 184.027,-586.214 "/>
<text text-anchor="middle" x="101.015" y="-574.214" font-family="Monaco" font-size="10.00"> </text>
<polyline fill="none" stroke="black" points="18.0029,-564.879 184.027,-564.879 "/>
<text text-anchor="start" x="26.0029" y="-552.879" font-family="Monaco" font-size="10.00">+ ~IDescription()</text>
<text text-anchor="start" x="26.0029" y="-539.544" font-family="Monaco" font-size="10.00">+ caption()</text>
<text text-anchor="start" x="26.0029" y="-526.209" font-family="Monaco" font-size="10.00">+ setCaption()</text>
<text text-anchor="start" x="26.0029" y="-512.874" font-family="Monaco" font-size="10.00">+ description()</text>
<text text-anchor="start" x="26.0029" y="-499.539" font-family="Monaco" font-size="10.00">+ setDescription()</text>
</a>
</g>
</g>
<!-- Node4&#45;&gt;Node3 -->
<g id="edge3" class="edge"><title>Node4&#45;&gt;Node3</title>
<path fill="none" stroke="midnightblue" d="M101.015,-479.638C101.015,-470.599 101.015,-461.612 101.015,-453.352"/>
<polygon fill="none" stroke="midnightblue" points="97.5152,-479.829 101.015,-489.829 104.515,-479.829 97.5152,-479.829"/>
</g>
<!-- Node5 -->
<g id="node5" class="node"><title>Node5</title>
<g id="a_node5"><a xlink:href="../../dd/dbf/class_hydro_couple_1_1_i_property_changed.html" target="_top" xlink:title="IPropertyChanged interface is used to emit signal/event when a property of an object changes...">
<polygon fill="none" stroke="black" points="6.00098,-644.549 6.00098,-708.554 196.029,-708.554 196.029,-644.549 6.00098,-644.549"/>
<text text-anchor="middle" x="101.015" y="-696.554" font-family="Monaco" font-size="10.00">HydroCouple::IPropertyChanged</text>
<polyline fill="none" stroke="black" points="6.00098,-687.219 196.029,-687.219 "/>
<text text-anchor="middle" x="101.015" y="-675.219" font-family="Monaco" font-size="10.00"> </text>
<polyline fill="none" stroke="black" points="6.00098,-665.884 196.029,-665.884 "/>
<text text-anchor="start" x="14.001" y="-653.884" font-family="Monaco" font-size="10.00">+ ~IPropertyChanged()</text>
</a>
</g>
</g>
<!-- Node5&#45;&gt;Node4 -->
<g id="edge4" class="edge"><title>Node5&#45;&gt;Node4</title>
<path fill="none" stroke="midnightblue" d="M101.015,-634.228C101.015,-625.843 101.015,-616.877 101.015,-608.035"/>
<polygon fill="none" stroke="midnightblue" points="97.5152,-634.486 101.015,-644.486 104.515,-634.486 97.5152,-634.486"/>
</g>
</g>
</svg>
        <g id="navigator" transform="translate(0 0)" fill="#404254">
                <rect fill="#f2f5e9" fill-opacity="0.5" stroke="#606060" stroke-width=".5" x="0" y="0" width="60" height="60"/>
                <use id="zoomplus" xlink:href="#zoomPlus" x="17" y="9" onmousedown="handleZoom(evt,'in')"/>
                <use id="zoomminus" xlink:href="#zoomMin" x="42" y="9" onmousedown="handleZoom(evt,'out')"/>
                <use id="reset" xlink:href="#resetDef" x="30" y="36" onmousedown="handleReset()"/>
                <g id="arrowUp" xlink:href="#dirArrow" transform="translate(30 24)" onmousedown="handlePan(0,-1)">
                  <use xlink:href="#rim" fill="#404040">
                        <set attributeName="fill" to="#808080" begin="arrowUp.mouseover" end="arrowUp.mouseout"/>
                  </use>
                  <path fill="none" stroke="white" stroke-width="1.5" d="M0,-3.0v7 M-2.5,-0.5L0,-3.0L2.5,-0.5"/>
                </g>
                <g id="arrowRight" xlink:href="#dirArrow" transform="rotate(90) translate(36 -43)" onmousedown="handlePan(1,0)">
                  <use xlink:href="#rim" fill="#404040">
                        <set attributeName="fill" to="#808080" begin="arrowRight.mouseover" end="arrowRight.mouseout"/>
                  </use>
                  <path fill="none" stroke="white" stroke-width="1.5" d="M0,-3.0v7 M-2.5,-0.5L0,-3.0L2.5,-0.5"/>
                </g>
                <g id="arrowDown" xlink:href="#dirArrow" transform="rotate(180) translate(-30 -48)" onmousedown="handlePan(0,1)">
                  <use xlink:href="#rim" fill="#404040">
                        <set attributeName="fill" to="#808080" begin="arrowDown.mouseover" end="arrowDown.mouseout"/>
                  </use>
                  <path fill="none" stroke="white" stroke-width="1.5" d="M0,-3.0v7 M-2.5,-0.5L0,-3.0L2.5,-0.5"/>
                </g>
                <g id="arrowLeft" xlink:href="#dirArrow" transform="rotate(270) translate(-36 17)" onmousedown="handlePan(-1,0)">
                  <use xlink:href="#rim" fill="#404040">
                        <set attributeName="fill" to="#808080" begin="arrowLeft.mouseover" end="arrowLeft.mouseout"/>
                  </use>
                  <path fill="none" stroke="white" stroke-width="1.5" d="M0,-3.0v7 M-2.5,-0.5L0,-3.0L2.5,-0.5"/>
                </g>
        </g>
        <svg viewBox="0 0 15 15" width="100%" height="30px" preserveAspectRatio="xMaxYMin meet">
         <g id="arrow_out" transform="scale(0.3 0.3)">
          <a xlink:href="class_hydro_couple_1_1_i_id_based_component_data_item__inherit__graph_org.svg" target="_base">
           <rect id="button" ry="5" rx="5" y="6" x="6" height="38" width="38"
                fill="#f2f5e9" fill-opacity="0.5" stroke="#606060" stroke-width="1.0"/>
           <path id="arrow"
             d="M 11.500037,31.436501 C 11.940474,20.09759 22.043105,11.32322 32.158766,21.979434 L 37.068811,17.246167 C 37.068811,17.246167 37.088388,32 37.088388,32 L 22.160133,31.978069 C 22.160133,31.978069 26.997745,27.140456 26.997745,27.140456 C 18.528582,18.264221 13.291696,25.230495 11.500037,31.436501 z"
             style="fill:#404040;"/>
          </a>
         </g>
        </svg>
</svg>
