<?xml version="1.0" encoding="UTF-8" standalone="no"?>
<!DOCTYPE svg PUBLIC "-//W3C//DTD SVG 1.1//EN"
 "http://www.w3.org/Graphics/SVG/1.1/DTD/svg11.dtd">
<!-- Generated by graphviz version 2.38.0 (20140413.2041)
 -->
<!-- Title: HydroCouple::ICloneableModelComponent Pages: 1 -->
<svg width="198pt" height="757pt"
 viewBox="0.00 0.00 198.03 757.06" xmlns="http://www.w3.org/2000/svg" xmlns:xlink="http://www.w3.org/1999/xlink">
<g id="graph0" class="graph" transform="scale(1 1) rotate(0) translate(4 753.059)">
<title>HydroCouple::ICloneableModelComponent</title>
<!-- Node1 -->
<g id="node1" class="node"><title>Node1</title>
<polygon fill="#bfbfbf" stroke="black" points="0,-0.5 0,-117.845 190.028,-117.845 190.028,-0.5 0,-0.5"/>
<text text-anchor="start" x="8" y="-105.845" font-family="Monaco" font-size="10.00">HydroCouple::ICloneableModel</text>
<text text-anchor="middle" x="95.0142" y="-92.5098" font-family="Monaco" font-size="10.00">Component</text>
<polyline fill="none" stroke="black" points="0,-83.1748 190.028,-83.1748 "/>
<text text-anchor="middle" x="95.0142" y="-71.1748" font-family="Monaco" font-size="10.00"> </text>
<polyline fill="none" stroke="black" points="0,-61.8398 190.028,-61.8398 "/>
<text text-anchor="start" x="8" y="-49.8398" font-family="Monaco" font-size="10.00">+ ~ICloneableModelComponent()</text>
<text text-anchor="start" x="8" y="-36.5049" font-family="Monaco" font-size="10.00">+ parent()</text>
<text text-anchor="start" x="8" y="-23.1699" font-family="Monaco" font-size="10.00">+ clone()</text>
<text text-anchor="start" x="8" y="-9.83496" font-family="Monaco" font-size="10.00">+ clones()</text>
</g>
<!-- Node2 -->
<g id="node2" class="node"><title>Node2</title>
<g id="a_node2"><a xlink:href="../../d3/dae/class_hydro_couple_1_1_i_model_component.html" target="_top" xlink:title="IModelComponent interface is the core interface in the HydroCouple standard defining a model componen...">
<polygon fill="none" stroke="black" points="3.00049,-154.845 3.00049,-378.869 187.028,-378.869 187.028,-154.845 3.00049,-154.845"/>
<text text-anchor="middle" x="95.0142" y="-366.869" font-family="Monaco" font-size="10.00">HydroCouple::IModelComponent</text>
<polyline fill="none" stroke="black" points="3.00049,-357.534 187.028,-357.534 "/>
<text text-anchor="middle" x="95.0142" y="-345.534" font-family="Monaco" font-size="10.00"> </text>
<polyline fill="none" stroke="black" points="3.00049,-336.199 187.028,-336.199 "/>
<text text-anchor="start" x="11.0005" y="-324.199" font-family="Monaco" font-size="10.00">+ ~IModelComponent()</text>
<text text-anchor="start" x="11.0005" y="-310.864" font-family="Monaco" font-size="10.00">+ componentInfo()</text>
<text text-anchor="start" x="11.0005" y="-297.529" font-family="Monaco" font-size="10.00">+ arguments()</text>
<text text-anchor="start" x="11.0005" y="-284.194" font-family="Monaco" font-size="10.00">+ status()</text>
<text text-anchor="start" x="11.0005" y="-270.859" font-family="Monaco" font-size="10.00">+ inputs()</text>
<text text-anchor="start" x="11.0005" y="-257.524" font-family="Monaco" font-size="10.00">+ outputs()</text>
<text text-anchor="start" x="11.0005" y="-244.189" font-family="Monaco" font-size="10.00">+ adaptedOutputFactories()</text>
<text text-anchor="start" x="11.0005" y="-230.854" font-family="Monaco" font-size="10.00">+ initialize()</text>
<text text-anchor="start" x="11.0005" y="-217.52" font-family="Monaco" font-size="10.00">+ validate()</text>
<text text-anchor="start" x="11.0005" y="-204.185" font-family="Monaco" font-size="10.00">+ prepare()</text>
<text text-anchor="start" x="11.0005" y="-190.85" font-family="Monaco" font-size="10.00">+ update()</text>
<text text-anchor="start" x="11.0005" y="-177.515" font-family="Monaco" font-size="10.00">+ finish()</text>
<text text-anchor="start" x="11.0005" y="-164.18" font-family="Monaco" font-size="10.00">+ recieveMPIMessage()</text>
</a>
</g>
</g>
<!-- Node2&#45;&gt;Node1 -->
<g id="edge1" class="edge"><title>Node2&#45;&gt;Node1</title>
<path fill="none" stroke="midnightblue" d="M95.0142,-144.313C95.0142,-135.275 95.0142,-126.437 95.0142,-118.089"/>
<polygon fill="none" stroke="midnightblue" points="91.5143,-144.587 95.0142,-154.587 98.5143,-144.587 91.5143,-144.587"/>
</g>
<!-- Node3 -->
<g id="node3" class="node"><title>Node3</title>
<g id="a_node3"><a xlink:href="../../d2/d2a/class_hydro_couple_1_1_i_identity.html" target="_top" xlink:title="IIdentity interface class defines a method to get the Id of an HydroCouple entity. ">
<polygon fill="none" stroke="black" points="21.0034,-415.869 21.0034,-493.209 169.025,-493.209 169.025,-415.869 21.0034,-415.869"/>
<text text-anchor="middle" x="95.0142" y="-481.209" font-family="Monaco" font-size="10.00">HydroCouple::IIdentity</text>
<polyline fill="none" stroke="black" points="21.0034,-471.874 169.025,-471.874 "/>
<text text-anchor="middle" x="95.0142" y="-459.874" font-family="Monaco" font-size="10.00"> </text>
<polyline fill="none" stroke="black" points="21.0034,-450.539 169.025,-450.539 "/>
<text text-anchor="start" x="29.0034" y="-438.539" font-family="Monaco" font-size="10.00">+ ~IIdentity()</text>
<text text-anchor="start" x="29.0034" y="-425.204" font-family="Monaco" font-size="10.00">+ id()</text>
</a>
</g>
</g>
<!-- Node3&#45;&gt;Node2 -->
<g id="edge2" class="edge"><title>Node3&#45;&gt;Node2</title>
<path fill="none" stroke="midnightblue" d="M95.0142,-405.393C95.0142,-397.117 95.0142,-388.218 95.0142,-379.071"/>
<polygon fill="none" stroke="midnightblue" points="91.5143,-405.515 95.0142,-415.515 98.5143,-405.515 91.5143,-405.515"/>
</g>
<!-- Node4 -->
<g id="node4" class="node"><title>Node4</title>
<g id="a_node4"><a xlink:href="../../db/d64/class_hydro_couple_1_1_i_description.html" target="_top" xlink:title="IDescription interface class provides descriptive information on a HydroCouple object. ">
<polygon fill="none" stroke="black" points="12.002,-530.209 12.002,-647.554 178.026,-647.554 178.026,-530.209 12.002,-530.209"/>
<text text-anchor="middle" x="95.0142" y="-635.554" font-family="Monaco" font-size="10.00">HydroCouple::IDescription</text>
<polyline fill="none" stroke="black" points="12.002,-626.219 178.026,-626.219 "/>
<text text-anchor="middle" x="95.0142" y="-614.219" font-family="Monaco" font-size="10.00"> </text>
<polyline fill="none" stroke="black" points="12.002,-604.884 178.026,-604.884 "/>
<text text-anchor="start" x="20.002" y="-592.884" font-family="Monaco" font-size="10.00">+ ~IDescription()</text>
<text text-anchor="start" x="20.002" y="-579.549" font-family="Monaco" font-size="10.00">+ caption()</text>
<text text-anchor="start" x="20.002" y="-566.214" font-family="Monaco" font-size="10.00">+ setCaption()</text>
<text text-anchor="start" x="20.002" y="-552.879" font-family="Monaco" font-size="10.00">+ description()</text>
<text text-anchor="start" x="20.002" y="-539.544" font-family="Monaco" font-size="10.00">+ setDescription()</text>
</a>
</g>
</g>
<!-- Node4&#45;&gt;Node3 -->
<g id="edge3" class="edge"><title>Node4&#45;&gt;Node3</title>
<path fill="none" stroke="midnightblue" d="M95.0142,-519.643C95.0142,-510.604 95.0142,-501.617 95.0142,-493.356"/>
<polygon fill="none" stroke="midnightblue" points="91.5143,-519.834 95.0142,-529.834 98.5143,-519.834 91.5143,-519.834"/>
</g>
<!-- Node5 -->
<g id="node5" class="node"><title>Node5</title>
<g id="a_node5"><a xlink:href="../../dd/dbf/class_hydro_couple_1_1_i_property_changed.html" target="_top" xlink:title="IPropertyChanged interface is used to emit signal/event when a property of an object changes...">
<polygon fill="none" stroke="black" points="0,-684.554 0,-748.559 190.028,-748.559 190.028,-684.554 0,-684.554"/>
<text text-anchor="middle" x="95.0142" y="-736.559" font-family="Monaco" font-size="10.00">HydroCouple::IPropertyChanged</text>
<polyline fill="none" stroke="black" points="0,-727.224 190.028,-727.224 "/>
<text text-anchor="middle" x="95.0142" y="-715.224" font-family="Monaco" font-size="10.00"> </text>
<polyline fill="none" stroke="black" points="0,-705.889 190.028,-705.889 "/>
<text text-anchor="start" x="8" y="-693.889" font-family="Monaco" font-size="10.00">+ ~IPropertyChanged()</text>
</a>
</g>
</g>
<!-- Node5&#45;&gt;Node4 -->
<g id="edge4" class="edge"><title>Node5&#45;&gt;Node4</title>
<path fill="none" stroke="midnightblue" d="M95.0142,-674.233C95.0142,-665.848 95.0142,-656.882 95.0142,-648.04"/>
<polygon fill="none" stroke="midnightblue" points="91.5143,-674.49 95.0142,-684.49 98.5143,-674.49 91.5143,-674.49"/>
</g>
</g>
</svg>
