<?xml version="1.0" encoding="UTF-8" standalone="no"?>
<!DOCTYPE svg PUBLIC "-//W3C//DTD SVG 1.1//EN"
 "http://www.w3.org/Graphics/SVG/1.1/DTD/svg11.dtd">
<!-- Generated by graphviz version 2.38.0 (20140413.2041)
 -->
<!-- Title: HydroCouple::Temporal::ITimeComponentDataItem Pages: 1 -->
<svg width="1686pt" height="1106pt"
 viewBox="0.00 0.00 1686.03 1105.75" xmlns="http://www.w3.org/2000/svg" xmlns:xlink="http://www.w3.org/1999/xlink">
<g id="graph0" class="graph" transform="scale(1 1) rotate(0) translate(4 1101.75)">
<title>HydroCouple::Temporal::ITimeComponentDataItem</title>
<!-- Node1 -->
<g id="node1" class="node"><title>Node1</title>
<polygon fill="#bfbfbf" stroke="black" points="744.004,-429.204 744.004,-546.549 922.03,-546.549 922.03,-429.204 744.004,-429.204"/>
<text text-anchor="start" x="752.004" y="-534.549" font-family="Monaco" font-size="10.00">HydroCouple::Temporal</text>
<text text-anchor="middle" x="833.017" y="-521.214" font-family="Monaco" font-size="10.00">::ITimeComponentDataItem</text>
<polyline fill="none" stroke="black" points="744.004,-511.879 922.03,-511.879 "/>
<text text-anchor="middle" x="833.017" y="-499.879" font-family="Monaco" font-size="10.00"> </text>
<polyline fill="none" stroke="black" points="744.004,-490.544 922.03,-490.544 "/>
<text text-anchor="start" x="752.004" y="-478.544" font-family="Monaco" font-size="10.00">+ ~ITimeComponentDataItem()</text>
<text text-anchor="start" x="752.004" y="-465.209" font-family="Monaco" font-size="10.00">+ times()</text>
<text text-anchor="start" x="752.004" y="-451.874" font-family="Monaco" font-size="10.00">+ timeSpan()</text>
<text text-anchor="start" x="752.004" y="-438.539" font-family="Monaco" font-size="10.00">+ timeDimension()</text>
</g>
<!-- Node6 -->
<g id="node6" class="node"><title>Node6</title>
<g id="a_node6"><a xlink:href="../../db/dac/class_hydro_couple_1_1_spatio_temporal_1_1_i_time_geometry_component_data_item.html" target="_top" xlink:title="ITimeGeometryComponentItem represents an IComponentItem with both temporal and geometric components...">
<polygon fill="none" stroke="black" points="0,-174.847 0,-372.202 226.034,-372.202 226.034,-174.847 0,-174.847"/>
<text text-anchor="start" x="8" y="-360.202" font-family="Monaco" font-size="10.00">HydroCouple::SpatioTemporal</text>
<text text-anchor="middle" x="113.017" y="-346.867" font-family="Monaco" font-size="10.00">::ITimeGeometryComponentDataItem</text>
<polyline fill="none" stroke="black" points="0,-337.532 226.034,-337.532 "/>
<text text-anchor="middle" x="113.017" y="-325.532" font-family="Monaco" font-size="10.00"> </text>
<polyline fill="none" stroke="black" points="0,-316.197 226.034,-316.197 "/>
<text text-anchor="start" x="8" y="-304.197" font-family="Monaco" font-size="10.00">+ ~ITimeGeometryComponentDataItem()</text>
<text text-anchor="start" x="8" y="-290.862" font-family="Monaco" font-size="10.00">+ geometryType()</text>
<text text-anchor="start" x="8" y="-277.527" font-family="Monaco" font-size="10.00">+ geometryCount()</text>
<text text-anchor="start" x="8" y="-264.192" font-family="Monaco" font-size="10.00">+ geometry()</text>
<text text-anchor="start" x="8" y="-250.857" font-family="Monaco" font-size="10.00">+ geometryDimension()</text>
<text text-anchor="start" x="8" y="-237.522" font-family="Monaco" font-size="10.00">+ envelope()</text>
<text text-anchor="start" x="8" y="-224.187" font-family="Monaco" font-size="10.00">+ getValue()</text>
<text text-anchor="start" x="8" y="-210.852" font-family="Monaco" font-size="10.00">+ getValues()</text>
<text text-anchor="start" x="8" y="-197.517" font-family="Monaco" font-size="10.00">+ setValue()</text>
<text text-anchor="start" x="8" y="-184.182" font-family="Monaco" font-size="10.00">+ setValues()</text>
</a>
</g>
</g>
<!-- Node1&#45;&gt;Node6 -->
<g id="edge5" class="edge"><title>Node1&#45;&gt;Node6</title>
<path fill="none" stroke="midnightblue" d="M733.471,-478.525C586.76,-464.992 320.598,-435.409 235.017,-392.704 223.803,-387.108 212.95,-380.113 202.647,-372.338"/>
<polygon fill="none" stroke="midnightblue" points="733.547,-482.047 743.824,-479.472 734.184,-475.076 733.547,-482.047"/>
</g>
<!-- Node7 -->
<g id="node7" class="node"><title>Node7</title>
<g id="a_node7"><a xlink:href="../../d2/d80/class_hydro_couple_1_1_spatio_temporal_1_1_i_time_polyhedral_surface_component_data_item.html" target="_top" xlink:title="The ITimePolyhedralSurfaceComponentItem class. ">
<polygon fill="none" stroke="black" points="244,-174.847 244,-372.202 464.034,-372.202 464.034,-174.847 244,-174.847"/>
<text text-anchor="start" x="252" y="-360.202" font-family="Monaco" font-size="10.00">HydroCouple::SpatioTemporal</text>
<text text-anchor="start" x="252" y="-346.867" font-family="Monaco" font-size="10.00">::ITimePolyhedralSurfaceComponent</text>
<text text-anchor="middle" x="354.017" y="-333.532" font-family="Monaco" font-size="10.00">DataItem</text>
<polyline fill="none" stroke="black" points="244,-324.197 464.034,-324.197 "/>
<text text-anchor="middle" x="354.017" y="-312.197" font-family="Monaco" font-size="10.00"> </text>
<polyline fill="none" stroke="black" points="244,-302.862 464.034,-302.862 "/>
<text text-anchor="start" x="252" y="-290.862" font-family="Monaco" font-size="10.00">+ ~ITimePolyhedralSurfaceComponent</text>
<text text-anchor="start" x="252" y="-277.527" font-family="Monaco" font-size="10.00">DataItem()</text>
<text text-anchor="start" x="252" y="-264.192" font-family="Monaco" font-size="10.00">+ meshDataType()</text>
<text text-anchor="start" x="252" y="-250.857" font-family="Monaco" font-size="10.00">+ polyhedralSurface()</text>
<text text-anchor="start" x="252" y="-237.522" font-family="Monaco" font-size="10.00">+ cellDimension()</text>
<text text-anchor="start" x="252" y="-224.187" font-family="Monaco" font-size="10.00">+ edgeDimension()</text>
<text text-anchor="start" x="252" y="-210.852" font-family="Monaco" font-size="10.00">+ nodeDimension()</text>
<text text-anchor="start" x="252" y="-197.517" font-family="Monaco" font-size="10.00">+ getValue()</text>
<text text-anchor="start" x="252" y="-184.182" font-family="Monaco" font-size="10.00">+ setValue()</text>
</a>
</g>
</g>
<!-- Node1&#45;&gt;Node7 -->
<g id="edge6" class="edge"><title>Node1&#45;&gt;Node7</title>
<path fill="none" stroke="midnightblue" d="M733.781,-475.194C658.346,-463.039 554.087,-439.003 473.017,-392.704 462.777,-386.856 452.799,-379.901 443.255,-372.334"/>
<polygon fill="none" stroke="midnightblue" points="733.34,-478.668 743.762,-476.76 734.426,-471.752 733.34,-478.668"/>
</g>
<!-- Node9 -->
<g id="node9" class="node"><title>Node9</title>
<g id="a_node9"><a xlink:href="../../d6/d72/class_hydro_couple_1_1_spatio_temporal_1_1_i_time_raster_component_data_item.html" target="_top" xlink:title="The ITimeRasterComponentDataItem class. ">
<polygon fill="none" stroke="black" points="482.001,-181.515 482.001,-365.534 696.033,-365.534 696.033,-181.515 482.001,-181.515"/>
<text text-anchor="start" x="490.001" y="-353.534" font-family="Monaco" font-size="10.00">HydroCouple::SpatioTemporal</text>
<text text-anchor="middle" x="589.017" y="-340.199" font-family="Monaco" font-size="10.00">::ITimeRasterComponentDataItem</text>
<polyline fill="none" stroke="black" points="482.001,-330.864 696.033,-330.864 "/>
<text text-anchor="middle" x="589.017" y="-318.864" font-family="Monaco" font-size="10.00"> </text>
<polyline fill="none" stroke="black" points="482.001,-309.529 696.033,-309.529 "/>
<text text-anchor="start" x="490.001" y="-297.529" font-family="Monaco" font-size="10.00">+ ~ITimeRasterComponentDataItem()</text>
<text text-anchor="start" x="490.001" y="-284.194" font-family="Monaco" font-size="10.00">+ raster()</text>
<text text-anchor="start" x="490.001" y="-270.859" font-family="Monaco" font-size="10.00">+ xDimension()</text>
<text text-anchor="start" x="490.001" y="-257.524" font-family="Monaco" font-size="10.00">+ yDimension()</text>
<text text-anchor="start" x="490.001" y="-244.189" font-family="Monaco" font-size="10.00">+ bandDimension()</text>
<text text-anchor="start" x="490.001" y="-230.854" font-family="Monaco" font-size="10.00">+ getValue()</text>
<text text-anchor="start" x="490.001" y="-217.52" font-family="Monaco" font-size="10.00">+ getValues()</text>
<text text-anchor="start" x="490.001" y="-204.185" font-family="Monaco" font-size="10.00">+ setValue()</text>
<text text-anchor="start" x="490.001" y="-190.85" font-family="Monaco" font-size="10.00">+ setValues()</text>
</a>
</g>
</g>
<!-- Node1&#45;&gt;Node9 -->
<g id="edge8" class="edge"><title>Node1&#45;&gt;Node9</title>
<path fill="none" stroke="midnightblue" d="M741.934,-422.673C729.279,-412.948 716.642,-402.788 705.017,-392.704 695.244,-384.227 685.323,-375.079 675.607,-365.757"/>
<polygon fill="none" stroke="midnightblue" points="740.165,-425.725 750.242,-428.996 744.404,-420.155 740.165,-425.725"/>
</g>
<!-- Node10 -->
<g id="node10" class="node"><title>Node10</title>
<g id="a_node10"><a xlink:href="../../d6/da3/class_hydro_couple_1_1_spatio_temporal_1_1_i_time_regular_grid2_d_component_data_item.html" target="_top" xlink:title="The ITimeRegularGrid2DComponentItem class. ">
<polygon fill="none" stroke="black" points="713.999,-161.512 713.999,-385.537 952.035,-385.537 952.035,-161.512 713.999,-161.512"/>
<text text-anchor="start" x="721.999" y="-373.537" font-family="Monaco" font-size="10.00">HydroCouple::SpatioTemporal</text>
<text text-anchor="middle" x="833.017" y="-360.202" font-family="Monaco" font-size="10.00">::ITimeRegularGrid2DComponentDataItem</text>
<polyline fill="none" stroke="black" points="713.999,-350.867 952.035,-350.867 "/>
<text text-anchor="middle" x="833.017" y="-338.867" font-family="Monaco" font-size="10.00"> </text>
<polyline fill="none" stroke="black" points="713.999,-329.532 952.035,-329.532 "/>
<text text-anchor="start" x="721.999" y="-317.532" font-family="Monaco" font-size="10.00">+ ~ITimeRegularGrid2DComponent</text>
<text text-anchor="start" x="721.999" y="-304.197" font-family="Monaco" font-size="10.00">DataItem()</text>
<text text-anchor="start" x="721.999" y="-290.862" font-family="Monaco" font-size="10.00">+ grid()</text>
<text text-anchor="start" x="721.999" y="-277.527" font-family="Monaco" font-size="10.00">+ meshDataType()</text>
<text text-anchor="start" x="721.999" y="-264.192" font-family="Monaco" font-size="10.00">+ xCellDimension()</text>
<text text-anchor="start" x="721.999" y="-250.857" font-family="Monaco" font-size="10.00">+ yCellDimension()</text>
<text text-anchor="start" x="721.999" y="-237.522" font-family="Monaco" font-size="10.00">+ cellEdgeDimension()</text>
<text text-anchor="start" x="721.999" y="-224.187" font-family="Monaco" font-size="10.00">+ cellNodeDimension()</text>
<text text-anchor="start" x="721.999" y="-210.852" font-family="Monaco" font-size="10.00">+ getValue()</text>
<text text-anchor="start" x="721.999" y="-197.517" font-family="Monaco" font-size="10.00">+ getValues()</text>
<text text-anchor="start" x="721.999" y="-184.182" font-family="Monaco" font-size="10.00">+ setValue()</text>
<text text-anchor="start" x="721.999" y="-170.847" font-family="Monaco" font-size="10.00">+ setValues()</text>
</a>
</g>
</g>
<!-- Node1&#45;&gt;Node10 -->
<g id="edge9" class="edge"><title>Node1&#45;&gt;Node10</title>
<path fill="none" stroke="midnightblue" d="M833.017,-419.098C833.017,-408.425 833.017,-397.153 833.017,-385.803"/>
<polygon fill="none" stroke="midnightblue" points="829.517,-419.131 833.017,-429.131 836.517,-419.131 829.517,-419.131"/>
</g>
<!-- Node11 -->
<g id="node11" class="node"><title>Node11</title>
<g id="a_node11"><a xlink:href="../../db/d99/class_hydro_couple_1_1_spatio_temporal_1_1_i_time_regular_grid3_d_component_data_item.html" target="_top" xlink:title="The ITimeRegularGrid3DComponentItem class. ">
<polygon fill="none" stroke="black" points="969.999,-154.845 969.999,-392.204 1208.04,-392.204 1208.04,-154.845 969.999,-154.845"/>
<text text-anchor="start" x="977.999" y="-380.204" font-family="Monaco" font-size="10.00">HydroCouple::SpatioTemporal</text>
<text text-anchor="middle" x="1089.02" y="-366.869" font-family="Monaco" font-size="10.00">::ITimeRegularGrid3DComponentDataItem</text>
<polyline fill="none" stroke="black" points="969.999,-357.534 1208.04,-357.534 "/>
<text text-anchor="middle" x="1089.02" y="-345.534" font-family="Monaco" font-size="10.00"> </text>
<polyline fill="none" stroke="black" points="969.999,-336.199 1208.04,-336.199 "/>
<text text-anchor="start" x="977.999" y="-324.199" font-family="Monaco" font-size="10.00">+ ~ITimeRegularGrid3DComponent</text>
<text text-anchor="start" x="977.999" y="-310.864" font-family="Monaco" font-size="10.00">DataItem()</text>
<text text-anchor="start" x="977.999" y="-297.529" font-family="Monaco" font-size="10.00">+ grid()</text>
<text text-anchor="start" x="977.999" y="-284.194" font-family="Monaco" font-size="10.00">+ meshDataType()</text>
<text text-anchor="start" x="977.999" y="-270.859" font-family="Monaco" font-size="10.00">+ xCellDimension()</text>
<text text-anchor="start" x="977.999" y="-257.524" font-family="Monaco" font-size="10.00">+ yCellDimension()</text>
<text text-anchor="start" x="977.999" y="-244.189" font-family="Monaco" font-size="10.00">+ zCellDimension()</text>
<text text-anchor="start" x="977.999" y="-230.854" font-family="Monaco" font-size="10.00">+ cellFaceDimension()</text>
<text text-anchor="start" x="977.999" y="-217.52" font-family="Monaco" font-size="10.00">+ cellNodeDimension()</text>
<text text-anchor="start" x="977.999" y="-204.185" font-family="Monaco" font-size="10.00">+ getValue()</text>
<text text-anchor="start" x="977.999" y="-190.85" font-family="Monaco" font-size="10.00">+ getValues()</text>
<text text-anchor="start" x="977.999" y="-177.515" font-family="Monaco" font-size="10.00">+ setValue()</text>
<text text-anchor="start" x="977.999" y="-164.18" font-family="Monaco" font-size="10.00">+ setValues()</text>
</a>
</g>
</g>
<!-- Node1&#45;&gt;Node11 -->
<g id="edge10" class="edge"><title>Node1&#45;&gt;Node11</title>
<path fill="none" stroke="midnightblue" d="M922.439,-423.062C935.56,-413.132 948.77,-402.81 961.017,-392.704 963.933,-390.298 966.87,-387.845 969.817,-385.355"/>
<polygon fill="none" stroke="midnightblue" points="920.18,-420.382 914.29,-429.189 924.386,-425.977 920.18,-420.382"/>
</g>
<!-- Node12 -->
<g id="node12" class="node"><title>Node12</title>
<g id="a_node12"><a xlink:href="../../d0/dd4/class_hydro_couple_1_1_temporal_1_1_i_time_id_based_component_data_item.html" target="_top" xlink:title="The ITimeIdBasedComponentDataItem class. ">
<polygon fill="none" stroke="black" points="1226,-194.85 1226,-352.199 1446.03,-352.199 1446.03,-194.85 1226,-194.85"/>
<text text-anchor="start" x="1234" y="-340.199" font-family="Monaco" font-size="10.00">HydroCouple::Temporal</text>
<text text-anchor="middle" x="1336.02" y="-326.864" font-family="Monaco" font-size="10.00">::ITimeIdBasedComponentDataItem</text>
<polyline fill="none" stroke="black" points="1226,-317.529 1446.03,-317.529 "/>
<text text-anchor="middle" x="1336.02" y="-305.529" font-family="Monaco" font-size="10.00"> </text>
<polyline fill="none" stroke="black" points="1226,-296.194 1446.03,-296.194 "/>
<text text-anchor="start" x="1234" y="-284.194" font-family="Monaco" font-size="10.00">+ ~ITimeIdBasedComponentDataItem()</text>
<text text-anchor="start" x="1234" y="-270.859" font-family="Monaco" font-size="10.00">+ identifiers()</text>
<text text-anchor="start" x="1234" y="-257.524" font-family="Monaco" font-size="10.00">+ identifierDimension()</text>
<text text-anchor="start" x="1234" y="-244.189" font-family="Monaco" font-size="10.00">+ getValue()</text>
<text text-anchor="start" x="1234" y="-230.854" font-family="Monaco" font-size="10.00">+ getValues()</text>
<text text-anchor="start" x="1234" y="-217.52" font-family="Monaco" font-size="10.00">+ setValue()</text>
<text text-anchor="start" x="1234" y="-204.185" font-family="Monaco" font-size="10.00">+ setValues()</text>
</a>
</g>
</g>
<!-- Node1&#45;&gt;Node12 -->
<g id="edge11" class="edge"><title>Node1&#45;&gt;Node12</title>
<path fill="none" stroke="midnightblue" d="M932.416,-477.365C1013.29,-466.244 1128.17,-442.541 1217.02,-392.704 1235.94,-382.092 1253.92,-367.647 1269.91,-352.5"/>
<polygon fill="none" stroke="midnightblue" points="931.68,-473.932 922.23,-478.724 932.605,-480.87 931.68,-473.932"/>
</g>
<!-- Node13 -->
<g id="node13" class="node"><title>Node13</title>
<g id="a_node13"><a xlink:href="../../de/d0b/class_hydro_couple_1_1_temporal_1_1_i_time_series_component_data_item.html" target="_top" xlink:title="The ITimeSeriesComponentDataItem class. ">
<polygon fill="none" stroke="black" points="1464,-208.185 1464,-338.864 1678.03,-338.864 1678.03,-208.185 1464,-208.185"/>
<text text-anchor="start" x="1472" y="-326.864" font-family="Monaco" font-size="10.00">HydroCouple::Temporal</text>
<text text-anchor="middle" x="1571.02" y="-313.529" font-family="Monaco" font-size="10.00">::ITimeSeriesComponentDataItem</text>
<polyline fill="none" stroke="black" points="1464,-304.194 1678.03,-304.194 "/>
<text text-anchor="middle" x="1571.02" y="-292.194" font-family="Monaco" font-size="10.00"> </text>
<polyline fill="none" stroke="black" points="1464,-282.859 1678.03,-282.859 "/>
<text text-anchor="start" x="1472" y="-270.859" font-family="Monaco" font-size="10.00">+ ~ITimeSeriesComponentDataItem()</text>
<text text-anchor="start" x="1472" y="-257.524" font-family="Monaco" font-size="10.00">+ getValue()</text>
<text text-anchor="start" x="1472" y="-244.189" font-family="Monaco" font-size="10.00">+ getValues()</text>
<text text-anchor="start" x="1472" y="-230.854" font-family="Monaco" font-size="10.00">+ setValue()</text>
<text text-anchor="start" x="1472" y="-217.52" font-family="Monaco" font-size="10.00">+ setValues()</text>
</a>
</g>
</g>
<!-- Node1&#45;&gt;Node13 -->
<g id="edge12" class="edge"><title>Node1&#45;&gt;Node13</title>
<path fill="none" stroke="midnightblue" d="M932.567,-479.5C1084.42,-466.968 1365.71,-438.346 1455.02,-392.704 1480.23,-379.816 1503.22,-359.35 1521.95,-339.046"/>
<polygon fill="none" stroke="midnightblue" points="931.99,-476.036 922.309,-480.339 932.56,-483.012 931.99,-476.036"/>
</g>
<!-- Node2 -->
<g id="node2" class="node"><title>Node2</title>
<g id="a_node2"><a xlink:href="../../d8/d52/class_hydro_couple_1_1_i_component_data_item.html" target="_top" xlink:title="IComponentItem is a fundamental unit of data for a component. ">
<polygon fill="none" stroke="black" points="732.002,-583.549 732.002,-727.563 934.032,-727.563 934.032,-583.549 732.002,-583.549"/>
<text text-anchor="middle" x="833.017" y="-715.563" font-family="Monaco" font-size="10.00">HydroCouple::IComponentDataItem</text>
<polyline fill="none" stroke="black" points="732.002,-706.229 934.032,-706.229 "/>
<text text-anchor="middle" x="833.017" y="-694.229" font-family="Monaco" font-size="10.00"> </text>
<polyline fill="none" stroke="black" points="732.002,-684.894 934.032,-684.894 "/>
<text text-anchor="start" x="740.002" y="-672.894" font-family="Monaco" font-size="10.00">+ ~IComponentDataItem()</text>
<text text-anchor="start" x="740.002" y="-659.559" font-family="Monaco" font-size="10.00">+ modelComponent()</text>
<text text-anchor="start" x="740.002" y="-646.224" font-family="Monaco" font-size="10.00">+ dimensions()</text>
<text text-anchor="start" x="740.002" y="-632.889" font-family="Monaco" font-size="10.00">+ dimensionLength()</text>
<text text-anchor="start" x="740.002" y="-619.554" font-family="Monaco" font-size="10.00">+ valueDefinition()</text>
<text text-anchor="start" x="740.002" y="-606.219" font-family="Monaco" font-size="10.00">+ getValue()</text>
<text text-anchor="start" x="740.002" y="-592.884" font-family="Monaco" font-size="10.00">+ setValue()</text>
</a>
</g>
</g>
<!-- Node2&#45;&gt;Node1 -->
<g id="edge1" class="edge"><title>Node2&#45;&gt;Node1</title>
<path fill="none" stroke="midnightblue" d="M833.017,-573.204C833.017,-564.205 833.017,-555.182 833.017,-546.562"/>
<polygon fill="none" stroke="midnightblue" points="829.517,-573.331 833.017,-583.332 836.517,-573.332 829.517,-573.331"/>
</g>
<!-- Node3 -->
<g id="node3" class="node"><title>Node3</title>
<g id="a_node3"><a xlink:href="../../d2/d2a/class_hydro_couple_1_1_i_identity.html" target="_top" xlink:title="IIdentity interface class defines a method to get the Id of an HydroCouple entity. ">
<polygon fill="none" stroke="black" points="759.006,-764.563 759.006,-841.903 907.028,-841.903 907.028,-764.563 759.006,-764.563"/>
<text text-anchor="middle" x="833.017" y="-829.903" font-family="Monaco" font-size="10.00">HydroCouple::IIdentity</text>
<polyline fill="none" stroke="black" points="759.006,-820.568 907.028,-820.568 "/>
<text text-anchor="middle" x="833.017" y="-808.568" font-family="Monaco" font-size="10.00"> </text>
<polyline fill="none" stroke="black" points="759.006,-799.233 907.028,-799.233 "/>
<text text-anchor="start" x="767.006" y="-787.233" font-family="Monaco" font-size="10.00">+ ~IIdentity()</text>
<text text-anchor="start" x="767.006" y="-773.898" font-family="Monaco" font-size="10.00">+ id()</text>
</a>
</g>
</g>
<!-- Node3&#45;&gt;Node2 -->
<g id="edge2" class="edge"><title>Node3&#45;&gt;Node2</title>
<path fill="none" stroke="midnightblue" d="M833.017,-754.211C833.017,-745.668 833.017,-736.607 833.017,-727.583"/>
<polygon fill="none" stroke="midnightblue" points="829.517,-754.339 833.017,-764.339 836.517,-754.339 829.517,-754.339"/>
</g>
<!-- Node4 -->
<g id="node4" class="node"><title>Node4</title>
<g id="a_node4"><a xlink:href="../../db/d64/class_hydro_couple_1_1_i_description.html" target="_top" xlink:title="IDescription interface class provides descriptive information on a HydroCouple object. ">
<polygon fill="none" stroke="black" points="750.005,-878.903 750.005,-996.248 916.029,-996.248 916.029,-878.903 750.005,-878.903"/>
<text text-anchor="middle" x="833.017" y="-984.248" font-family="Monaco" font-size="10.00">HydroCouple::IDescription</text>
<polyline fill="none" stroke="black" points="750.005,-974.913 916.029,-974.913 "/>
<text text-anchor="middle" x="833.017" y="-962.913" font-family="Monaco" font-size="10.00"> </text>
<polyline fill="none" stroke="black" points="750.005,-953.578 916.029,-953.578 "/>
<text text-anchor="start" x="758.005" y="-941.578" font-family="Monaco" font-size="10.00">+ ~IDescription()</text>
<text text-anchor="start" x="758.005" y="-928.243" font-family="Monaco" font-size="10.00">+ caption()</text>
<text text-anchor="start" x="758.005" y="-914.908" font-family="Monaco" font-size="10.00">+ setCaption()</text>
<text text-anchor="start" x="758.005" y="-901.573" font-family="Monaco" font-size="10.00">+ description()</text>
<text text-anchor="start" x="758.005" y="-888.238" font-family="Monaco" font-size="10.00">+ setDescription()</text>
</a>
</g>
</g>
<!-- Node4&#45;&gt;Node3 -->
<g id="edge3" class="edge"><title>Node4&#45;&gt;Node3</title>
<path fill="none" stroke="midnightblue" d="M833.017,-868.337C833.017,-859.299 833.017,-850.311 833.017,-842.051"/>
<polygon fill="none" stroke="midnightblue" points="829.517,-868.528 833.017,-878.528 836.517,-868.528 829.517,-868.528"/>
</g>
<!-- Node5 -->
<g id="node5" class="node"><title>Node5</title>
<g id="a_node5"><a xlink:href="../../dd/dbf/class_hydro_couple_1_1_i_property_changed.html" target="_top" xlink:title="IPropertyChanged interface is used to emit signal/event when a property of an object changes...">
<polygon fill="none" stroke="black" points="738.003,-1033.25 738.003,-1097.25 928.031,-1097.25 928.031,-1033.25 738.003,-1033.25"/>
<text text-anchor="middle" x="833.017" y="-1085.25" font-family="Monaco" font-size="10.00">HydroCouple::IPropertyChanged</text>
<polyline fill="none" stroke="black" points="738.003,-1075.92 928.031,-1075.92 "/>
<text text-anchor="middle" x="833.017" y="-1063.92" font-family="Monaco" font-size="10.00"> </text>
<polyline fill="none" stroke="black" points="738.003,-1054.58 928.031,-1054.58 "/>
<text text-anchor="start" x="746.003" y="-1042.58" font-family="Monaco" font-size="10.00">+ ~IPropertyChanged()</text>
</a>
</g>
</g>
<!-- Node5&#45;&gt;Node4 -->
<g id="edge4" class="edge"><title>Node5&#45;&gt;Node4</title>
<path fill="none" stroke="midnightblue" d="M833.017,-1022.93C833.017,-1014.54 833.017,-1005.58 833.017,-996.734"/>
<polygon fill="none" stroke="midnightblue" points="829.517,-1023.18 833.017,-1033.18 836.517,-1023.18 829.517,-1023.18"/>
</g>
<!-- Node8 -->
<g id="node8" class="node"><title>Node8</title>
<g id="a_node8"><a xlink:href="../../d6/db3/class_hydro_couple_1_1_spatio_temporal_1_1_i_time_t_i_n_component_data_item.html" target="_top" xlink:title="The ITINComponentItem class. ">
<polygon fill="none" stroke="black" points="256.002,-0.5 256.002,-117.845 452.032,-117.845 452.032,-0.5 256.002,-0.5"/>
<text text-anchor="start" x="264.002" y="-105.845" font-family="Monaco" font-size="10.00">HydroCouple::SpatioTemporal</text>
<text text-anchor="middle" x="354.017" y="-92.5098" font-family="Monaco" font-size="10.00">::ITimeTINComponentDataItem</text>
<polyline fill="none" stroke="black" points="256.002,-83.1748 452.032,-83.1748 "/>
<text text-anchor="middle" x="354.017" y="-71.1748" font-family="Monaco" font-size="10.00"> </text>
<polyline fill="none" stroke="black" points="256.002,-61.8398 452.032,-61.8398 "/>
<text text-anchor="start" x="264.002" y="-49.8398" font-family="Monaco" font-size="10.00">+ ~ITimeTINComponentDataItem()</text>
<text text-anchor="start" x="264.002" y="-36.5049" font-family="Monaco" font-size="10.00">+ TIN()</text>
<text text-anchor="start" x="264.002" y="-23.1699" font-family="Monaco" font-size="10.00">+ getValues()</text>
<text text-anchor="start" x="264.002" y="-9.83496" font-family="Monaco" font-size="10.00">+ setValues()</text>
</a>
</g>
</g>
<!-- Node7&#45;&gt;Node8 -->
<g id="edge7" class="edge"><title>Node7&#45;&gt;Node8</title>
<path fill="none" stroke="midnightblue" d="M354.017,-164.729C354.017,-148.64 354.017,-132.601 354.017,-118.09"/>
<polygon fill="none" stroke="midnightblue" points="350.517,-164.739 354.017,-174.739 357.517,-164.739 350.517,-164.739"/>
</g>
</g>
</svg>
