<?xml version="1.0" encoding="UTF-8" standalone="no"?>
<!DOCTYPE svg PUBLIC "-//W3C//DTD SVG 1.1//EN"
 "http://www.w3.org/Graphics/SVG/1.1/DTD/svg11.dtd">
<!-- Generated by graphviz version 2.38.0 (20140413.2041)
 -->
<!-- Title: HydroCouple::IComponentInfo Pages: 1 -->
<svg width="198pt" height="629pt"
 viewBox="0.00 0.00 198.03 629.38" xmlns="http://www.w3.org/2000/svg" xmlns:xlink="http://www.w3.org/1999/xlink">
<g id="graph0" class="graph" transform="scale(1 1) rotate(0) translate(4 625.384)">
<title>HydroCouple::IComponentInfo</title>
<!-- Node1 -->
<g id="node1" class="node"><title>Node1</title>
<polygon fill="#bfbfbf" stroke="black" points="6.00098,-0.5 6.00098,-251.194 184.027,-251.194 184.027,-0.5 6.00098,-0.5"/>
<text text-anchor="middle" x="95.0142" y="-239.194" font-family="Monaco" font-size="10.00">HydroCouple::IComponentInfo</text>
<polyline fill="none" stroke="black" points="6.00098,-229.859 184.027,-229.859 "/>
<text text-anchor="middle" x="95.0142" y="-217.859" font-family="Monaco" font-size="10.00"> </text>
<polyline fill="none" stroke="black" points="6.00098,-208.524 184.027,-208.524 "/>
<text text-anchor="start" x="14.001" y="-196.524" font-family="Monaco" font-size="10.00">+ ~IComponentInfo()</text>
<text text-anchor="start" x="14.001" y="-183.189" font-family="Monaco" font-size="10.00">+ libraryFilePath()</text>
<text text-anchor="start" x="14.001" y="-169.854" font-family="Monaco" font-size="10.00">+ setLibraryFilePath()</text>
<text text-anchor="start" x="14.001" y="-156.52" font-family="Monaco" font-size="10.00">+ iconFilePath()</text>
<text text-anchor="start" x="14.001" y="-143.185" font-family="Monaco" font-size="10.00">+ vendor()</text>
<text text-anchor="start" x="14.001" y="-129.85" font-family="Monaco" font-size="10.00">+ documentation()</text>
<text text-anchor="start" x="14.001" y="-116.515" font-family="Monaco" font-size="10.00">+ license()</text>
<text text-anchor="start" x="14.001" y="-103.18" font-family="Monaco" font-size="10.00">+ copyright()</text>
<text text-anchor="start" x="14.001" y="-89.8447" font-family="Monaco" font-size="10.00">+ url()</text>
<text text-anchor="start" x="14.001" y="-76.5098" font-family="Monaco" font-size="10.00">+ email()</text>
<text text-anchor="start" x="14.001" y="-63.1748" font-family="Monaco" font-size="10.00">+ version()</text>
<text text-anchor="start" x="14.001" y="-49.8398" font-family="Monaco" font-size="10.00">+ category()</text>
<text text-anchor="start" x="14.001" y="-36.5049" font-family="Monaco" font-size="10.00">+ hasValidLicense()</text>
<text text-anchor="start" x="14.001" y="-23.1699" font-family="Monaco" font-size="10.00">+ validateLicense()</text>
<text text-anchor="start" x="14.001" y="-9.83496" font-family="Monaco" font-size="10.00">+ validateLicense()</text>
</g>
<!-- Node2 -->
<g id="node2" class="node"><title>Node2</title>
<g id="a_node2"><a xlink:href="../../d2/d2a/class_hydro_couple_1_1_i_identity.html" target="_top" xlink:title="IIdentity interface class defines a method to get the Id of an HydroCouple entity. ">
<polygon fill="none" stroke="black" points="21.0034,-288.194 21.0034,-365.534 169.025,-365.534 169.025,-288.194 21.0034,-288.194"/>
<text text-anchor="middle" x="95.0142" y="-353.534" font-family="Monaco" font-size="10.00">HydroCouple::IIdentity</text>
<polyline fill="none" stroke="black" points="21.0034,-344.199 169.025,-344.199 "/>
<text text-anchor="middle" x="95.0142" y="-332.199" font-family="Monaco" font-size="10.00"> </text>
<polyline fill="none" stroke="black" points="21.0034,-322.864 169.025,-322.864 "/>
<text text-anchor="start" x="29.0034" y="-310.864" font-family="Monaco" font-size="10.00">+ ~IIdentity()</text>
<text text-anchor="start" x="29.0034" y="-297.529" font-family="Monaco" font-size="10.00">+ id()</text>
</a>
</g>
</g>
<!-- Node2&#45;&gt;Node1 -->
<g id="edge1" class="edge"><title>Node2&#45;&gt;Node1</title>
<path fill="none" stroke="midnightblue" d="M95.0142,-277.813C95.0142,-269.5 95.0142,-260.526 95.0142,-251.243"/>
<polygon fill="none" stroke="midnightblue" points="91.5143,-277.962 95.0142,-287.962 98.5143,-277.962 91.5143,-277.962"/>
</g>
<!-- Node3 -->
<g id="node3" class="node"><title>Node3</title>
<g id="a_node3"><a xlink:href="../../db/d64/class_hydro_couple_1_1_i_description.html" target="_top" xlink:title="IDescription interface class provides descriptive information on a HydroCouple object. ">
<polygon fill="none" stroke="black" points="12.002,-402.534 12.002,-519.879 178.026,-519.879 178.026,-402.534 12.002,-402.534"/>
<text text-anchor="middle" x="95.0142" y="-507.879" font-family="Monaco" font-size="10.00">HydroCouple::IDescription</text>
<polyline fill="none" stroke="black" points="12.002,-498.544 178.026,-498.544 "/>
<text text-anchor="middle" x="95.0142" y="-486.544" font-family="Monaco" font-size="10.00"> </text>
<polyline fill="none" stroke="black" points="12.002,-477.209 178.026,-477.209 "/>
<text text-anchor="start" x="20.002" y="-465.209" font-family="Monaco" font-size="10.00">+ ~IDescription()</text>
<text text-anchor="start" x="20.002" y="-451.874" font-family="Monaco" font-size="10.00">+ caption()</text>
<text text-anchor="start" x="20.002" y="-438.539" font-family="Monaco" font-size="10.00">+ setCaption()</text>
<text text-anchor="start" x="20.002" y="-425.204" font-family="Monaco" font-size="10.00">+ description()</text>
<text text-anchor="start" x="20.002" y="-411.869" font-family="Monaco" font-size="10.00">+ setDescription()</text>
</a>
</g>
</g>
<!-- Node3&#45;&gt;Node2 -->
<g id="edge2" class="edge"><title>Node3&#45;&gt;Node2</title>
<path fill="none" stroke="midnightblue" d="M95.0142,-391.968C95.0142,-382.929 95.0142,-373.942 95.0142,-365.682"/>
<polygon fill="none" stroke="midnightblue" points="91.5143,-392.159 95.0142,-402.159 98.5143,-392.159 91.5143,-392.159"/>
</g>
<!-- Node4 -->
<g id="node4" class="node"><title>Node4</title>
<g id="a_node4"><a xlink:href="../../dd/dbf/class_hydro_couple_1_1_i_property_changed.html" target="_top" xlink:title="IPropertyChanged interface is used to emit signal/event when a property of an object changes...">
<polygon fill="none" stroke="black" points="0,-556.879 0,-620.884 190.028,-620.884 190.028,-556.879 0,-556.879"/>
<text text-anchor="middle" x="95.0142" y="-608.884" font-family="Monaco" font-size="10.00">HydroCouple::IPropertyChanged</text>
<polyline fill="none" stroke="black" points="0,-599.549 190.028,-599.549 "/>
<text text-anchor="middle" x="95.0142" y="-587.549" font-family="Monaco" font-size="10.00"> </text>
<polyline fill="none" stroke="black" points="0,-578.214 190.028,-578.214 "/>
<text text-anchor="start" x="8" y="-566.214" font-family="Monaco" font-size="10.00">+ ~IPropertyChanged()</text>
</a>
</g>
</g>
<!-- Node4&#45;&gt;Node3 -->
<g id="edge3" class="edge"><title>Node4&#45;&gt;Node3</title>
<path fill="none" stroke="midnightblue" d="M95.0142,-546.559C95.0142,-538.173 95.0142,-529.207 95.0142,-520.365"/>
<polygon fill="none" stroke="midnightblue" points="91.5143,-546.816 95.0142,-556.816 98.5143,-546.816 91.5143,-546.816"/>
</g>
</g>
</svg>
