<?xml version="1.0" encoding="UTF-8" standalone="no"?>
<!DOCTYPE svg PUBLIC "-//W3C//DTD SVG 1.1//EN"
 "http://www.w3.org/Graphics/SVG/1.1/DTD/svg11.dtd">
<!-- Generated by graphviz version 2.38.0 (20140413.2041)
 -->
<!-- Title: HydroCouple::IComponentInfo Pages: 1 -->
<svg width="198pt" height="616pt"
 viewBox="0.00 0.00 198.03 616.05" xmlns="http://www.w3.org/2000/svg" xmlns:xlink="http://www.w3.org/1999/xlink">
<g id="graph0" class="graph" transform="scale(1 1) rotate(0) translate(4 612.049)">
<title>HydroCouple::IComponentInfo</title>
<!-- Node1 -->
<g id="node1" class="node"><title>Node1</title>
<polygon fill="#bfbfbf" stroke="black" points="6.00098,-0.5 6.00098,-237.859 184.027,-237.859 184.027,-0.5 6.00098,-0.5"/>
<text text-anchor="middle" x="95.0142" y="-225.859" font-family="Monaco" font-size="10.00">HydroCouple::IComponentInfo</text>
<polyline fill="none" stroke="black" points="6.00098,-216.524 184.027,-216.524 "/>
<text text-anchor="middle" x="95.0142" y="-204.524" font-family="Monaco" font-size="10.00"> </text>
<polyline fill="none" stroke="black" points="6.00098,-195.189 184.027,-195.189 "/>
<text text-anchor="start" x="14.001" y="-183.189" font-family="Monaco" font-size="10.00">+ ~IComponentInfo()</text>
<text text-anchor="start" x="14.001" y="-169.854" font-family="Monaco" font-size="10.00">+ libraryFilePath()</text>
<text text-anchor="start" x="14.001" y="-156.52" font-family="Monaco" font-size="10.00">+ setLibraryFilePath()</text>
<text text-anchor="start" x="14.001" y="-143.185" font-family="Monaco" font-size="10.00">+ iconFilePath()</text>
<text text-anchor="start" x="14.001" y="-129.85" font-family="Monaco" font-size="10.00">+ vendor()</text>
<text text-anchor="start" x="14.001" y="-116.515" font-family="Monaco" font-size="10.00">+ publications()</text>
<text text-anchor="start" x="14.001" y="-103.18" font-family="Monaco" font-size="10.00">+ license()</text>
<text text-anchor="start" x="14.001" y="-89.8447" font-family="Monaco" font-size="10.00">+ copyright()</text>
<text text-anchor="start" x="14.001" y="-76.5098" font-family="Monaco" font-size="10.00">+ url()</text>
<text text-anchor="start" x="14.001" y="-63.1748" font-family="Monaco" font-size="10.00">+ email()</text>
<text text-anchor="start" x="14.001" y="-49.8398" font-family="Monaco" font-size="10.00">+ version()</text>
<text text-anchor="start" x="14.001" y="-36.5049" font-family="Monaco" font-size="10.00">+ category()</text>
<text text-anchor="start" x="14.001" y="-23.1699" font-family="Monaco" font-size="10.00">+ hasValidLicense()</text>
<text text-anchor="start" x="14.001" y="-9.83496" font-family="Monaco" font-size="10.00">+ validateLicense()</text>
</g>
<!-- Node2 -->
<g id="node2" class="node"><title>Node2</title>
<g id="a_node2"><a xlink:href="../../d2/d2a/class_hydro_couple_1_1_i_identity.html" target="_top" xlink:title="IIdentity interface class defines a method to get the Id of an HydroCouple entity. ">
<polygon fill="none" stroke="black" points="21.0034,-274.859 21.0034,-352.199 169.025,-352.199 169.025,-274.859 21.0034,-274.859"/>
<text text-anchor="middle" x="95.0142" y="-340.199" font-family="Monaco" font-size="10.00">HydroCouple::IIdentity</text>
<polyline fill="none" stroke="black" points="21.0034,-330.864 169.025,-330.864 "/>
<text text-anchor="middle" x="95.0142" y="-318.864" font-family="Monaco" font-size="10.00"> </text>
<polyline fill="none" stroke="black" points="21.0034,-309.529 169.025,-309.529 "/>
<text text-anchor="start" x="29.0034" y="-297.529" font-family="Monaco" font-size="10.00">+ ~IIdentity()</text>
<text text-anchor="start" x="29.0034" y="-284.194" font-family="Monaco" font-size="10.00">+ id()</text>
</a>
</g>
</g>
<!-- Node2&#45;&gt;Node1 -->
<g id="edge1" class="edge"><title>Node2&#45;&gt;Node1</title>
<path fill="none" stroke="midnightblue" d="M95.0142,-264.378C95.0142,-256.072 95.0142,-247.123 95.0142,-237.895"/>
<polygon fill="none" stroke="midnightblue" points="91.5143,-264.527 95.0142,-274.527 98.5143,-264.527 91.5143,-264.527"/>
</g>
<!-- Node3 -->
<g id="node3" class="node"><title>Node3</title>
<g id="a_node3"><a xlink:href="../../db/d64/class_hydro_couple_1_1_i_description.html" target="_top" xlink:title="IDescription interface class provides descriptive information on a HydroCouple object. ">
<polygon fill="none" stroke="black" points="12.002,-389.199 12.002,-506.544 178.026,-506.544 178.026,-389.199 12.002,-389.199"/>
<text text-anchor="middle" x="95.0142" y="-494.544" font-family="Monaco" font-size="10.00">HydroCouple::IDescription</text>
<polyline fill="none" stroke="black" points="12.002,-485.209 178.026,-485.209 "/>
<text text-anchor="middle" x="95.0142" y="-473.209" font-family="Monaco" font-size="10.00"> </text>
<polyline fill="none" stroke="black" points="12.002,-463.874 178.026,-463.874 "/>
<text text-anchor="start" x="20.002" y="-451.874" font-family="Monaco" font-size="10.00">+ ~IDescription()</text>
<text text-anchor="start" x="20.002" y="-438.539" font-family="Monaco" font-size="10.00">+ caption()</text>
<text text-anchor="start" x="20.002" y="-425.204" font-family="Monaco" font-size="10.00">+ setCaption()</text>
<text text-anchor="start" x="20.002" y="-411.869" font-family="Monaco" font-size="10.00">+ description()</text>
<text text-anchor="start" x="20.002" y="-398.534" font-family="Monaco" font-size="10.00">+ setDescription()</text>
</a>
</g>
</g>
<!-- Node3&#45;&gt;Node2 -->
<g id="edge2" class="edge"><title>Node3&#45;&gt;Node2</title>
<path fill="none" stroke="midnightblue" d="M95.0142,-378.633C95.0142,-369.594 95.0142,-360.607 95.0142,-352.347"/>
<polygon fill="none" stroke="midnightblue" points="91.5143,-378.824 95.0142,-388.824 98.5143,-378.824 91.5143,-378.824"/>
</g>
<!-- Node4 -->
<g id="node4" class="node"><title>Node4</title>
<g id="a_node4"><a xlink:href="../../dd/dbf/class_hydro_couple_1_1_i_property_changed.html" target="_top" xlink:title="IPropertyChanged interface is used to emit signal/event when a property of an object changes...">
<polygon fill="none" stroke="black" points="0,-543.544 0,-607.549 190.028,-607.549 190.028,-543.544 0,-543.544"/>
<text text-anchor="middle" x="95.0142" y="-595.549" font-family="Monaco" font-size="10.00">HydroCouple::IPropertyChanged</text>
<polyline fill="none" stroke="black" points="0,-586.214 190.028,-586.214 "/>
<text text-anchor="middle" x="95.0142" y="-574.214" font-family="Monaco" font-size="10.00"> </text>
<polyline fill="none" stroke="black" points="0,-564.879 190.028,-564.879 "/>
<text text-anchor="start" x="8" y="-552.879" font-family="Monaco" font-size="10.00">+ ~IPropertyChanged()</text>
</a>
</g>
</g>
<!-- Node4&#45;&gt;Node3 -->
<g id="edge3" class="edge"><title>Node4&#45;&gt;Node3</title>
<path fill="none" stroke="midnightblue" d="M95.0142,-533.224C95.0142,-524.838 95.0142,-515.872 95.0142,-507.03"/>
<polygon fill="none" stroke="midnightblue" points="91.5143,-533.481 95.0142,-543.481 98.5143,-533.481 91.5143,-533.481"/>
</g>
</g>
</svg>
