<?xml version="1.0" encoding="UTF-8" standalone="no"?>
<!DOCTYPE svg PUBLIC "-//W3C//DTD SVG 1.1//EN"
 "http://www.w3.org/Graphics/SVG/1.1/DTD/svg11.dtd">
<!-- Generated by graphviz version 2.38.0 (20140413.2041)
 -->
<!-- Title: HydroCouple::Temporal::ITimeSeriesComponentDataItem Pages: 1 -->
<svg width="222pt" height="871pt"
 viewBox="0.00 0.00 222.03 871.40" xmlns="http://www.w3.org/2000/svg" xmlns:xlink="http://www.w3.org/1999/xlink">
<g id="graph0" class="graph" transform="scale(1 1) rotate(0) translate(4 867.398)">
<title>HydroCouple::Temporal::ITimeSeriesComponentDataItem</title>
<!-- Node1 -->
<g id="node1" class="node"><title>Node1</title>
<polygon fill="#bfbfbf" stroke="black" points="0,-0.5 0,-131.18 214.032,-131.18 214.032,-0.5 0,-0.5"/>
<text text-anchor="start" x="8" y="-119.18" font-family="Monaco" font-size="10.00">HydroCouple::Temporal</text>
<text text-anchor="middle" x="107.016" y="-105.845" font-family="Monaco" font-size="10.00">::ITimeSeriesComponentDataItem</text>
<polyline fill="none" stroke="black" points="0,-96.5098 214.032,-96.5098 "/>
<text text-anchor="middle" x="107.016" y="-84.5098" font-family="Monaco" font-size="10.00"> </text>
<polyline fill="none" stroke="black" points="0,-75.1748 214.032,-75.1748 "/>
<text text-anchor="start" x="8" y="-63.1748" font-family="Monaco" font-size="10.00">+ ~ITimeSeriesComponentDataItem()</text>
<text text-anchor="start" x="8" y="-49.8398" font-family="Monaco" font-size="10.00">+ getValue()</text>
<text text-anchor="start" x="8" y="-36.5049" font-family="Monaco" font-size="10.00">+ getValues()</text>
<text text-anchor="start" x="8" y="-23.1699" font-family="Monaco" font-size="10.00">+ setValue()</text>
<text text-anchor="start" x="8" y="-9.83496" font-family="Monaco" font-size="10.00">+ setValues()</text>
</g>
<!-- Node2 -->
<g id="node2" class="node"><title>Node2</title>
<g id="a_node2"><a xlink:href="../../d9/d05/class_hydro_couple_1_1_temporal_1_1_i_time_component_data_item.html" target="_top" xlink:title="ITimeComponentItem is an IComponentItem with a temporal attribute. This class cannot be directly inst...">
<polygon fill="none" stroke="black" points="18.0029,-168.18 18.0029,-312.194 196.029,-312.194 196.029,-168.18 18.0029,-168.18"/>
<text text-anchor="start" x="26.0029" y="-300.194" font-family="Monaco" font-size="10.00">HydroCouple::Temporal</text>
<text text-anchor="middle" x="107.016" y="-286.859" font-family="Monaco" font-size="10.00">::ITimeComponentDataItem</text>
<polyline fill="none" stroke="black" points="18.0029,-277.524 196.029,-277.524 "/>
<text text-anchor="middle" x="107.016" y="-265.524" font-family="Monaco" font-size="10.00"> </text>
<polyline fill="none" stroke="black" points="18.0029,-256.189 196.029,-256.189 "/>
<text text-anchor="start" x="26.0029" y="-244.189" font-family="Monaco" font-size="10.00">+ ~ITimeComponentDataItem()</text>
<text text-anchor="start" x="26.0029" y="-230.854" font-family="Monaco" font-size="10.00">+ times()</text>
<text text-anchor="start" x="26.0029" y="-217.52" font-family="Monaco" font-size="10.00">+ time()</text>
<text text-anchor="start" x="26.0029" y="-204.185" font-family="Monaco" font-size="10.00">+ timeCount()</text>
<text text-anchor="start" x="26.0029" y="-190.85" font-family="Monaco" font-size="10.00">+ timeSpan()</text>
<text text-anchor="start" x="26.0029" y="-177.515" font-family="Monaco" font-size="10.00">+ timeDimension()</text>
</a>
</g>
</g>
<!-- Node2&#45;&gt;Node1 -->
<g id="edge1" class="edge"><title>Node2&#45;&gt;Node1</title>
<path fill="none" stroke="midnightblue" d="M107.016,-158.056C107.016,-149.121 107.016,-140.114 107.016,-131.42"/>
<polygon fill="none" stroke="midnightblue" points="103.516,-158.092 107.016,-168.092 110.516,-158.092 103.516,-158.092"/>
</g>
<!-- Node3 -->
<g id="node3" class="node"><title>Node3</title>
<g id="a_node3"><a xlink:href="../../d8/d52/class_hydro_couple_1_1_i_component_data_item.html" target="_top" xlink:title="IComponentItem is a fundamental unit of data for a component. ">
<polygon fill="none" stroke="black" points="6.00098,-349.194 6.00098,-493.209 208.031,-493.209 208.031,-349.194 6.00098,-349.194"/>
<text text-anchor="middle" x="107.016" y="-481.209" font-family="Monaco" font-size="10.00">HydroCouple::IComponentDataItem</text>
<polyline fill="none" stroke="black" points="6.00098,-471.874 208.031,-471.874 "/>
<text text-anchor="middle" x="107.016" y="-459.874" font-family="Monaco" font-size="10.00"> </text>
<polyline fill="none" stroke="black" points="6.00098,-450.539 208.031,-450.539 "/>
<text text-anchor="start" x="14.001" y="-438.539" font-family="Monaco" font-size="10.00">+ ~IComponentDataItem()</text>
<text text-anchor="start" x="14.001" y="-425.204" font-family="Monaco" font-size="10.00">+ modelComponent()</text>
<text text-anchor="start" x="14.001" y="-411.869" font-family="Monaco" font-size="10.00">+ dimensions()</text>
<text text-anchor="start" x="14.001" y="-398.534" font-family="Monaco" font-size="10.00">+ dimensionLength()</text>
<text text-anchor="start" x="14.001" y="-385.199" font-family="Monaco" font-size="10.00">+ valueDefinition()</text>
<text text-anchor="start" x="14.001" y="-371.864" font-family="Monaco" font-size="10.00">+ getValue()</text>
<text text-anchor="start" x="14.001" y="-358.529" font-family="Monaco" font-size="10.00">+ setValue()</text>
</a>
</g>
</g>
<!-- Node3&#45;&gt;Node2 -->
<g id="edge2" class="edge"><title>Node3&#45;&gt;Node2</title>
<path fill="none" stroke="midnightblue" d="M107.016,-339.177C107.016,-330.246 107.016,-321.201 107.016,-312.402"/>
<polygon fill="none" stroke="midnightblue" points="103.516,-339.193 107.016,-349.193 110.516,-339.193 103.516,-339.193"/>
</g>
<!-- Node4 -->
<g id="node4" class="node"><title>Node4</title>
<g id="a_node4"><a xlink:href="../../d2/d2a/class_hydro_couple_1_1_i_identity.html" target="_top" xlink:title="IIdentity interface class defines a method to get the Id of an HydroCouple entity. ">
<polygon fill="none" stroke="black" points="33.0054,-530.209 33.0054,-607.549 181.027,-607.549 181.027,-530.209 33.0054,-530.209"/>
<text text-anchor="middle" x="107.016" y="-595.549" font-family="Monaco" font-size="10.00">HydroCouple::IIdentity</text>
<polyline fill="none" stroke="black" points="33.0054,-586.214 181.027,-586.214 "/>
<text text-anchor="middle" x="107.016" y="-574.214" font-family="Monaco" font-size="10.00"> </text>
<polyline fill="none" stroke="black" points="33.0054,-564.879 181.027,-564.879 "/>
<text text-anchor="start" x="41.0054" y="-552.879" font-family="Monaco" font-size="10.00">+ ~IIdentity()</text>
<text text-anchor="start" x="41.0054" y="-539.544" font-family="Monaco" font-size="10.00">+ id()</text>
</a>
</g>
</g>
<!-- Node4&#45;&gt;Node3 -->
<g id="edge3" class="edge"><title>Node4&#45;&gt;Node3</title>
<path fill="none" stroke="midnightblue" d="M107.016,-519.857C107.016,-511.313 107.016,-502.252 107.016,-493.228"/>
<polygon fill="none" stroke="midnightblue" points="103.516,-519.984 107.016,-529.984 110.516,-519.984 103.516,-519.984"/>
</g>
<!-- Node5 -->
<g id="node5" class="node"><title>Node5</title>
<g id="a_node5"><a xlink:href="../../db/d64/class_hydro_couple_1_1_i_description.html" target="_top" xlink:title="IDescription interface class provides descriptive information on a HydroCouple object. ">
<polygon fill="none" stroke="black" points="24.0039,-644.549 24.0039,-761.894 190.028,-761.894 190.028,-644.549 24.0039,-644.549"/>
<text text-anchor="middle" x="107.016" y="-749.894" font-family="Monaco" font-size="10.00">HydroCouple::IDescription</text>
<polyline fill="none" stroke="black" points="24.0039,-740.559 190.028,-740.559 "/>
<text text-anchor="middle" x="107.016" y="-728.559" font-family="Monaco" font-size="10.00"> </text>
<polyline fill="none" stroke="black" points="24.0039,-719.224 190.028,-719.224 "/>
<text text-anchor="start" x="32.0039" y="-707.224" font-family="Monaco" font-size="10.00">+ ~IDescription()</text>
<text text-anchor="start" x="32.0039" y="-693.889" font-family="Monaco" font-size="10.00">+ caption()</text>
<text text-anchor="start" x="32.0039" y="-680.554" font-family="Monaco" font-size="10.00">+ setCaption()</text>
<text text-anchor="start" x="32.0039" y="-667.219" font-family="Monaco" font-size="10.00">+ description()</text>
<text text-anchor="start" x="32.0039" y="-653.884" font-family="Monaco" font-size="10.00">+ setDescription()</text>
</a>
</g>
</g>
<!-- Node5&#45;&gt;Node4 -->
<g id="edge4" class="edge"><title>Node5&#45;&gt;Node4</title>
<path fill="none" stroke="midnightblue" d="M107.016,-633.983C107.016,-624.944 107.016,-615.957 107.016,-607.696"/>
<polygon fill="none" stroke="midnightblue" points="103.516,-634.174 107.016,-644.174 110.516,-634.174 103.516,-634.174"/>
</g>
<!-- Node6 -->
<g id="node6" class="node"><title>Node6</title>
<g id="a_node6"><a xlink:href="../../dd/dbf/class_hydro_couple_1_1_i_property_changed.html" target="_top" xlink:title="IPropertyChanged interface is used to emit signal/event when a property of an object changes...">
<polygon fill="none" stroke="black" points="12.002,-798.894 12.002,-862.898 202.03,-862.898 202.03,-798.894 12.002,-798.894"/>
<text text-anchor="middle" x="107.016" y="-850.898" font-family="Monaco" font-size="10.00">HydroCouple::IPropertyChanged</text>
<polyline fill="none" stroke="black" points="12.002,-841.563 202.03,-841.563 "/>
<text text-anchor="middle" x="107.016" y="-829.563" font-family="Monaco" font-size="10.00"> </text>
<polyline fill="none" stroke="black" points="12.002,-820.229 202.03,-820.229 "/>
<text text-anchor="start" x="20.002" y="-808.229" font-family="Monaco" font-size="10.00">+ ~IPropertyChanged()</text>
</a>
</g>
</g>
<!-- Node6&#45;&gt;Node5 -->
<g id="edge5" class="edge"><title>Node6&#45;&gt;Node5</title>
<path fill="none" stroke="midnightblue" d="M107.016,-788.573C107.016,-780.188 107.016,-771.222 107.016,-762.38"/>
<polygon fill="none" stroke="midnightblue" points="103.516,-788.83 107.016,-798.83 110.516,-788.83 103.516,-788.83"/>
</g>
</g>
</svg>
