<?xml version="1.0" encoding="UTF-8" standalone="no"?>
<!DOCTYPE svg PUBLIC "-//W3C//DTD SVG 1.1//EN"
 "http://www.w3.org/Graphics/SVG/1.1/DTD/svg11.dtd">
<!-- Generated by graphviz version 2.38.0 (20140413.2041)
 -->
<!-- Title: WKBTriangleZ Pages: 1 -->
<svg width="100pt" height="355pt"
 viewBox="0.00 0.00 100.01 355.02" xmlns="http://www.w3.org/2000/svg" xmlns:xlink="http://www.w3.org/1999/xlink">
<g id="graph0" class="graph" transform="scale(1 1) rotate(0) translate(4 351.024)">
<title>WKBTriangleZ</title>
<!-- Node1 -->
<g id="node1" class="node"><title>Node1</title>
<polygon fill="#bfbfbf" stroke="black" points="0,-0.5 0,-91.1748 88.0117,-91.1748 88.0117,-0.5 0,-0.5"/>
<text text-anchor="middle" x="44.0059" y="-79.1748" font-family="Monaco" font-size="10.00">WKBTriangleZ</text>
<polyline fill="none" stroke="black" points="0,-69.8398 88.0117,-69.8398 "/>
<text text-anchor="start" x="8" y="-57.8398" font-family="Monaco" font-size="10.00">+ byteOrder</text>
<text text-anchor="start" x="8" y="-44.5049" font-family="Monaco" font-size="10.00">+ numRings</text>
<text text-anchor="start" x="8" y="-31.1699" font-family="Monaco" font-size="10.00">+ wkbType</text>
<polyline fill="none" stroke="black" points="0,-21.835 88.0117,-21.835 "/>
<text text-anchor="middle" x="44.0059" y="-9.83496" font-family="Monaco" font-size="10.00"> </text>
</g>
<!-- Node2 -->
<g id="node2" class="node"><title>Node2</title>
<g id="a_node2"><a xlink:href="../../d2/d2c/struct_linear_ring_z.html" target="_top" xlink:title="The LinearRingZ struct. ">
<polygon fill="none" stroke="black" points="3.00049,-141.51 3.00049,-205.515 85.0112,-205.515 85.0112,-141.51 3.00049,-141.51"/>
<text text-anchor="middle" x="44.0059" y="-193.515" font-family="Monaco" font-size="10.00">LinearRingZ</text>
<polyline fill="none" stroke="black" points="3.00049,-184.18 85.0112,-184.18 "/>
<text text-anchor="start" x="11.0005" y="-172.18" font-family="Monaco" font-size="10.00">+ numPoints</text>
<polyline fill="none" stroke="black" points="3.00049,-162.845 85.0112,-162.845 "/>
<text text-anchor="middle" x="44.0059" y="-150.845" font-family="Monaco" font-size="10.00"> </text>
</a>
</g>
</g>
<!-- Node2&#45;&gt;Node1 -->
<g id="edge1" class="edge"><title>Node2&#45;&gt;Node1</title>
<path fill="none" stroke="#404040" d="M44.0059,-141.447C44.0059,-129.989 44.0059,-116.619 44.0059,-103.601"/>
<polygon fill="none" stroke="#404040" points="44.006,-103.3 40.0059,-97.3004 44.0059,-91.3004 48.0059,-97.3003 44.006,-103.3"/>
<text text-anchor="middle" x="65.0093" y="-115.01" font-family="Monaco" font-size="10.00"> +rings</text>
</g>
<!-- Node3 -->
<g id="node3" class="node"><title>Node3</title>
<g id="a_node3"><a xlink:href="../../d6/d0c/struct_point_z.html" target="_top" xlink:title="The PointZ struct. ">
<polygon fill="none" stroke="black" points="18.0029,-255.85 18.0029,-346.524 70.0088,-346.524 70.0088,-255.85 18.0029,-255.85"/>
<text text-anchor="middle" x="44.0059" y="-334.524" font-family="Monaco" font-size="10.00">PointZ</text>
<polyline fill="none" stroke="black" points="18.0029,-325.189 70.0088,-325.189 "/>
<text text-anchor="start" x="26.0029" y="-313.189" font-family="Monaco" font-size="10.00">+ x</text>
<text text-anchor="start" x="26.0029" y="-299.854" font-family="Monaco" font-size="10.00">+ y</text>
<text text-anchor="start" x="26.0029" y="-286.52" font-family="Monaco" font-size="10.00">+ z</text>
<polyline fill="none" stroke="black" points="18.0029,-277.185 70.0088,-277.185 "/>
<text text-anchor="middle" x="44.0059" y="-265.185" font-family="Monaco" font-size="10.00"> </text>
</a>
</g>
</g>
<!-- Node3&#45;&gt;Node2 -->
<g id="edge2" class="edge"><title>Node3&#45;&gt;Node2</title>
<path fill="none" stroke="#404040" d="M44.0059,-255.525C44.0059,-243.272 44.0059,-230.01 44.0059,-217.834"/>
<polygon fill="none" stroke="#404040" points="44.006,-217.626 40.0059,-211.626 44.0059,-205.626 48.0059,-211.626 44.006,-217.626"/>
<text text-anchor="middle" x="68.0098" y="-229.35" font-family="Monaco" font-size="10.00"> +points</text>
</g>
</g>
</svg>
