<?xml version="1.0" encoding="UTF-8" standalone="no"?>
<!DOCTYPE svg PUBLIC "-//W3C//DTD SVG 1.1//EN"
 "http://www.w3.org/Graphics/SVG/1.1/DTD/svg11.dtd">
<!-- Generated by graphviz version 2.38.0 (20140413.2041)
 -->
<!-- Title: HydroCouple::Spatial::IRegularGrid3D Pages: 1 -->
<svg width="198pt" height="563pt"
 viewBox="0.00 0.00 198.03 562.71" xmlns="http://www.w3.org/2000/svg" xmlns:xlink="http://www.w3.org/1999/xlink">
<g id="graph0" class="graph" transform="scale(1 1) rotate(0) translate(4 558.709)">
<title>HydroCouple::Spatial::IRegularGrid3D</title>
<!-- Node1 -->
<g id="node1" class="node"><title>Node1</title>
<polygon fill="#bfbfbf" stroke="black" points="27.0044,-0.5 27.0044,-184.52 163.024,-184.52 163.024,-0.5 27.0044,-0.5"/>
<text text-anchor="start" x="35.0044" y="-172.52" font-family="Monaco" font-size="10.00">HydroCouple::Spatial</text>
<text text-anchor="middle" x="95.0142" y="-159.185" font-family="Monaco" font-size="10.00">::IRegularGrid3D</text>
<polyline fill="none" stroke="black" points="27.0044,-149.85 163.024,-149.85 "/>
<text text-anchor="middle" x="95.0142" y="-137.85" font-family="Monaco" font-size="10.00"> </text>
<polyline fill="none" stroke="black" points="27.0044,-128.515 163.024,-128.515 "/>
<text text-anchor="start" x="35.0044" y="-116.515" font-family="Monaco" font-size="10.00">+ ~IRegularGrid3D()</text>
<text text-anchor="start" x="35.0044" y="-103.18" font-family="Monaco" font-size="10.00">+ gridType()</text>
<text text-anchor="start" x="35.0044" y="-89.8447" font-family="Monaco" font-size="10.00">+ numXNodes()</text>
<text text-anchor="start" x="35.0044" y="-76.5098" font-family="Monaco" font-size="10.00">+ numYNodes()</text>
<text text-anchor="start" x="35.0044" y="-63.1748" font-family="Monaco" font-size="10.00">+ numZNodes()</text>
<text text-anchor="start" x="35.0044" y="-49.8398" font-family="Monaco" font-size="10.00">+ xNodeLocation()</text>
<text text-anchor="start" x="35.0044" y="-36.5049" font-family="Monaco" font-size="10.00">+ yNodeLocation()</text>
<text text-anchor="start" x="35.0044" y="-23.1699" font-family="Monaco" font-size="10.00">+ zNodeLocation()</text>
<text text-anchor="start" x="35.0044" y="-9.83496" font-family="Monaco" font-size="10.00">+ isActive()</text>
</g>
<!-- Node2 -->
<g id="node2" class="node"><title>Node2</title>
<g id="a_node2"><a xlink:href="../../d2/d2a/class_hydro_couple_1_1_i_identity.html" target="_top" xlink:title="IIdentity interface class defines a method to get the Id of an HydroCouple entity. ">
<polygon fill="none" stroke="black" points="21.0034,-221.52 21.0034,-298.859 169.025,-298.859 169.025,-221.52 21.0034,-221.52"/>
<text text-anchor="middle" x="95.0142" y="-286.859" font-family="Monaco" font-size="10.00">HydroCouple::IIdentity</text>
<polyline fill="none" stroke="black" points="21.0034,-277.524 169.025,-277.524 "/>
<text text-anchor="middle" x="95.0142" y="-265.524" font-family="Monaco" font-size="10.00"> </text>
<polyline fill="none" stroke="black" points="21.0034,-256.189 169.025,-256.189 "/>
<text text-anchor="start" x="29.0034" y="-244.189" font-family="Monaco" font-size="10.00">+ ~IIdentity()</text>
<text text-anchor="start" x="29.0034" y="-230.854" font-family="Monaco" font-size="10.00">+ id()</text>
</a>
</g>
</g>
<!-- Node2&#45;&gt;Node1 -->
<g id="edge1" class="edge"><title>Node2&#45;&gt;Node1</title>
<path fill="none" stroke="midnightblue" d="M95.0142,-210.937C95.0142,-202.584 95.0142,-193.659 95.0142,-184.6"/>
<polygon fill="none" stroke="midnightblue" points="91.5143,-211.179 95.0142,-221.179 98.5143,-211.179 91.5143,-211.179"/>
</g>
<!-- Node3 -->
<g id="node3" class="node"><title>Node3</title>
<g id="a_node3"><a xlink:href="../../db/d64/class_hydro_couple_1_1_i_description.html" target="_top" xlink:title="IDescription interface class provides descriptive information on a HydroCouple object. ">
<polygon fill="none" stroke="black" points="12.002,-335.859 12.002,-453.204 178.026,-453.204 178.026,-335.859 12.002,-335.859"/>
<text text-anchor="middle" x="95.0142" y="-441.204" font-family="Monaco" font-size="10.00">HydroCouple::IDescription</text>
<polyline fill="none" stroke="black" points="12.002,-431.869 178.026,-431.869 "/>
<text text-anchor="middle" x="95.0142" y="-419.869" font-family="Monaco" font-size="10.00"> </text>
<polyline fill="none" stroke="black" points="12.002,-410.534 178.026,-410.534 "/>
<text text-anchor="start" x="20.002" y="-398.534" font-family="Monaco" font-size="10.00">+ ~IDescription()</text>
<text text-anchor="start" x="20.002" y="-385.199" font-family="Monaco" font-size="10.00">+ caption()</text>
<text text-anchor="start" x="20.002" y="-371.864" font-family="Monaco" font-size="10.00">+ setCaption()</text>
<text text-anchor="start" x="20.002" y="-358.529" font-family="Monaco" font-size="10.00">+ description()</text>
<text text-anchor="start" x="20.002" y="-345.194" font-family="Monaco" font-size="10.00">+ setDescription()</text>
</a>
</g>
</g>
<!-- Node3&#45;&gt;Node2 -->
<g id="edge2" class="edge"><title>Node3&#45;&gt;Node2</title>
<path fill="none" stroke="midnightblue" d="M95.0142,-325.293C95.0142,-316.255 95.0142,-307.267 95.0142,-299.007"/>
<polygon fill="none" stroke="midnightblue" points="91.5143,-325.484 95.0142,-335.484 98.5143,-325.485 91.5143,-325.484"/>
</g>
<!-- Node4 -->
<g id="node4" class="node"><title>Node4</title>
<g id="a_node4"><a xlink:href="../../dd/dbf/class_hydro_couple_1_1_i_property_changed.html" target="_top" xlink:title="IPropertyChanged interface is used to emit signal/event when a property of an object changes...">
<polygon fill="none" stroke="black" points="0,-490.204 0,-554.209 190.028,-554.209 190.028,-490.204 0,-490.204"/>
<text text-anchor="middle" x="95.0142" y="-542.209" font-family="Monaco" font-size="10.00">HydroCouple::IPropertyChanged</text>
<polyline fill="none" stroke="black" points="0,-532.874 190.028,-532.874 "/>
<text text-anchor="middle" x="95.0142" y="-520.874" font-family="Monaco" font-size="10.00"> </text>
<polyline fill="none" stroke="black" points="0,-511.539 190.028,-511.539 "/>
<text text-anchor="start" x="8" y="-499.539" font-family="Monaco" font-size="10.00">+ ~IPropertyChanged()</text>
</a>
</g>
</g>
<!-- Node4&#45;&gt;Node3 -->
<g id="edge3" class="edge"><title>Node4&#45;&gt;Node3</title>
<path fill="none" stroke="midnightblue" d="M95.0142,-479.884C95.0142,-471.499 95.0142,-462.532 95.0142,-453.69"/>
<polygon fill="none" stroke="midnightblue" points="91.5143,-480.141 95.0142,-490.141 98.5143,-480.141 91.5143,-480.141"/>
</g>
</g>
</svg>
