<?xml version="1.0" encoding="UTF-8" standalone="no"?>
<!DOCTYPE svg PUBLIC "-//W3C//DTD SVG 1.1//EN"
 "http://www.w3.org/Graphics/SVG/1.1/DTD/svg11.dtd">
<!-- Generated by graphviz version 2.38.0 (20140413.2041)
 -->
<!-- Title: HydroCouple::IAdaptedOutputFactoryComponentInfo Pages: 1 -->
<!--zoomable 757 -->
<svg id="main" version="1.1" xmlns="http://www.w3.org/2000/svg" xmlns:xlink="http://www.w3.org/1999/xlink" xml:space="preserve" onload="init(evt)">
<style type="text/css"><![CDATA[
.edge:hover path { stroke: red; }
.edge:hover polygon { stroke: red; fill: red; }
]]></style>
<script type="text/javascript"><![CDATA[
var edges = document.getElementsByTagName('g');
if (edges && edges.length) {
  for (var i=0;i<edges.length;i++) {
    if (edges[i].id.substr(0,4)=='edge') {
      edges[i].setAttribute('class','edge');
    }
  }
}
]]></script>
        <defs>
                <circle id="rim" cx="0" cy="0" r="7"/>
                <circle id="rim2" cx="0" cy="0" r="3.5"/>
                <g id="zoomPlus">
                        <use xlink:href="#rim" fill="#404040">
                                <set attributeName="fill" to="#808080" begin="zoomplus.mouseover" end="zoomplus.mouseout"/>
                        </use>
                        <path d="M-4,0h8M0,-4v8" fill="none" stroke="white" stroke-width="1.5" pointer-events="none"/>
                </g>
                <g id="zoomMin">
                        <use xlink:href="#rim" fill="#404040">
                                <set attributeName="fill" to="#808080" begin="zoomminus.mouseover" end="zoomminus.mouseout"/>
                        </use>
                        <path d="M-4,0h8" fill="none" stroke="white" stroke-width="1.5" pointer-events="none"/>
                </g>
                <g id="dirArrow">
                        <path fill="none" stroke="white" stroke-width="1.5" d="M0,-3.0v7 M-2.5,-0.5L0,-3.0L2.5,-0.5"/>
                </g>
               <g id="resetDef">
                       <use xlink:href="#rim2" fill="#404040">
                               <set attributeName="fill" to="#808080" begin="reset.mouseover" end="reset.mouseout"/>
                       </use>
               </g>
        </defs>

<script type="text/javascript">
var viewWidth = 258;
var viewHeight = 757;
var sectionId = 'dynsection-1';
</script>
<script xlink:href="../../svgpan.js"/>
<svg id="graph" class="graph">
<g id="viewport">
<title>HydroCouple::IAdaptedOutputFactoryComponentInfo</title>
<!-- Node1 -->
<g id="node1" class="node"><title>Node1</title>
<polygon fill="#bfbfbf" stroke="black" points="0,-0.5 0,-91.1748 250.038,-91.1748 250.038,-0.5 0,-0.5"/>
<text text-anchor="start" x="8" y="-79.1748" font-family="Monaco" font-size="10.00">HydroCouple::IAdaptedOutput</text>
<text text-anchor="middle" x="125.019" y="-65.8398" font-family="Monaco" font-size="10.00">FactoryComponentInfo</text>
<polyline fill="none" stroke="black" points="0,-56.5049 250.038,-56.5049 "/>
<text text-anchor="middle" x="125.019" y="-44.5049" font-family="Monaco" font-size="10.00"> </text>
<polyline fill="none" stroke="black" points="0,-35.1699 250.038,-35.1699 "/>
<text text-anchor="start" x="8" y="-23.1699" font-family="Monaco" font-size="10.00">+ ~IAdaptedOutputFactoryComponentInfo()</text>
<text text-anchor="start" x="8" y="-9.83496" font-family="Monaco" font-size="10.00">+ createComponentInstance()</text>
</g>
<!-- Node2 -->
<g id="node2" class="node"><title>Node2</title>
<g id="a_node2"><a xlink:href="../../d3/dd7/class_hydro_couple_1_1_i_component_info.html" target="_top" xlink:title="IComponentInfo interface class provides detailed metadata about a component. ">
<polygon fill="none" stroke="black" points="36.0059,-128.175 36.0059,-378.869 214.032,-378.869 214.032,-128.175 36.0059,-128.175"/>
<text text-anchor="middle" x="125.019" y="-366.869" font-family="Monaco" font-size="10.00">HydroCouple::IComponentInfo</text>
<polyline fill="none" stroke="black" points="36.0059,-357.534 214.032,-357.534 "/>
<text text-anchor="middle" x="125.019" y="-345.534" font-family="Monaco" font-size="10.00"> </text>
<polyline fill="none" stroke="black" points="36.0059,-336.199 214.032,-336.199 "/>
<text text-anchor="start" x="44.0059" y="-324.199" font-family="Monaco" font-size="10.00">+ ~IComponentInfo()</text>
<text text-anchor="start" x="44.0059" y="-310.864" font-family="Monaco" font-size="10.00">+ libraryFilePath()</text>
<text text-anchor="start" x="44.0059" y="-297.529" font-family="Monaco" font-size="10.00">+ setLibraryFilePath()</text>
<text text-anchor="start" x="44.0059" y="-284.194" font-family="Monaco" font-size="10.00">+ iconFilePath()</text>
<text text-anchor="start" x="44.0059" y="-270.859" font-family="Monaco" font-size="10.00">+ vendor()</text>
<text text-anchor="start" x="44.0059" y="-257.524" font-family="Monaco" font-size="10.00">+ documentation()</text>
<text text-anchor="start" x="44.0059" y="-244.189" font-family="Monaco" font-size="10.00">+ license()</text>
<text text-anchor="start" x="44.0059" y="-230.854" font-family="Monaco" font-size="10.00">+ copyright()</text>
<text text-anchor="start" x="44.0059" y="-217.52" font-family="Monaco" font-size="10.00">+ url()</text>
<text text-anchor="start" x="44.0059" y="-204.185" font-family="Monaco" font-size="10.00">+ email()</text>
<text text-anchor="start" x="44.0059" y="-190.85" font-family="Monaco" font-size="10.00">+ version()</text>
<text text-anchor="start" x="44.0059" y="-177.515" font-family="Monaco" font-size="10.00">+ category()</text>
<text text-anchor="start" x="44.0059" y="-164.18" font-family="Monaco" font-size="10.00">+ hasValidLicense()</text>
<text text-anchor="start" x="44.0059" y="-150.845" font-family="Monaco" font-size="10.00">+ validateLicense()</text>
<text text-anchor="start" x="44.0059" y="-137.51" font-family="Monaco" font-size="10.00">+ validateLicense()</text>
</a>
</g>
</g>
<!-- Node2&#45;&gt;Node1 -->
<g id="edge1" class="edge"><title>Node2&#45;&gt;Node1</title>
<path fill="none" stroke="midnightblue" d="M125.019,-117.866C125.019,-108.533 125.019,-99.587 125.019,-91.3808"/>
<polygon fill="none" stroke="midnightblue" points="121.519,-118.129 125.019,-128.129 128.519,-118.129 121.519,-118.129"/>
</g>
<!-- Node3 -->
<g id="node3" class="node"><title>Node3</title>
<g id="a_node3"><a xlink:href="../../d2/d2a/class_hydro_couple_1_1_i_identity.html" target="_top" xlink:title="IIdentity interface class defines a method to get the Id of an HydroCouple entity. ">
<polygon fill="none" stroke="black" points="51.0083,-415.869 51.0083,-493.209 199.03,-493.209 199.03,-415.869 51.0083,-415.869"/>
<text text-anchor="middle" x="125.019" y="-481.209" font-family="Monaco" font-size="10.00">HydroCouple::IIdentity</text>
<polyline fill="none" stroke="black" points="51.0083,-471.874 199.03,-471.874 "/>
<text text-anchor="middle" x="125.019" y="-459.874" font-family="Monaco" font-size="10.00"> </text>
<polyline fill="none" stroke="black" points="51.0083,-450.539 199.03,-450.539 "/>
<text text-anchor="start" x="59.0083" y="-438.539" font-family="Monaco" font-size="10.00">+ ~IIdentity()</text>
<text text-anchor="start" x="59.0083" y="-425.204" font-family="Monaco" font-size="10.00">+ id()</text>
</a>
</g>
</g>
<!-- Node3&#45;&gt;Node2 -->
<g id="edge2" class="edge"><title>Node3&#45;&gt;Node2</title>
<path fill="none" stroke="midnightblue" d="M125.019,-405.487C125.019,-397.175 125.019,-388.201 125.019,-378.918"/>
<polygon fill="none" stroke="midnightblue" points="121.519,-405.637 125.019,-415.637 128.519,-405.637 121.519,-405.637"/>
</g>
<!-- Node4 -->
<g id="node4" class="node"><title>Node4</title>
<g id="a_node4"><a xlink:href="../../db/d64/class_hydro_couple_1_1_i_description.html" target="_top" xlink:title="IDescription interface class provides descriptive information on a HydroCouple object. ">
<polygon fill="none" stroke="black" points="42.0068,-530.209 42.0068,-647.554 208.031,-647.554 208.031,-530.209 42.0068,-530.209"/>
<text text-anchor="middle" x="125.019" y="-635.554" font-family="Monaco" font-size="10.00">HydroCouple::IDescription</text>
<polyline fill="none" stroke="black" points="42.0068,-626.219 208.031,-626.219 "/>
<text text-anchor="middle" x="125.019" y="-614.219" font-family="Monaco" font-size="10.00"> </text>
<polyline fill="none" stroke="black" points="42.0068,-604.884 208.031,-604.884 "/>
<text text-anchor="start" x="50.0068" y="-592.884" font-family="Monaco" font-size="10.00">+ ~IDescription()</text>
<text text-anchor="start" x="50.0068" y="-579.549" font-family="Monaco" font-size="10.00">+ caption()</text>
<text text-anchor="start" x="50.0068" y="-566.214" font-family="Monaco" font-size="10.00">+ setCaption()</text>
<text text-anchor="start" x="50.0068" y="-552.879" font-family="Monaco" font-size="10.00">+ description()</text>
<text text-anchor="start" x="50.0068" y="-539.544" font-family="Monaco" font-size="10.00">+ setDescription()</text>
</a>
</g>
</g>
<!-- Node4&#45;&gt;Node3 -->
<g id="edge3" class="edge"><title>Node4&#45;&gt;Node3</title>
<path fill="none" stroke="midnightblue" d="M125.019,-519.643C125.019,-510.604 125.019,-501.617 125.019,-493.356"/>
<polygon fill="none" stroke="midnightblue" points="121.519,-519.834 125.019,-529.834 128.519,-519.834 121.519,-519.834"/>
</g>
<!-- Node5 -->
<g id="node5" class="node"><title>Node5</title>
<g id="a_node5"><a xlink:href="../../dd/dbf/class_hydro_couple_1_1_i_property_changed.html" target="_top" xlink:title="IPropertyChanged interface is used to emit signal/event when a property of an object changes...">
<polygon fill="none" stroke="black" points="30.0049,-684.554 30.0049,-748.559 220.033,-748.559 220.033,-684.554 30.0049,-684.554"/>
<text text-anchor="middle" x="125.019" y="-736.559" font-family="Monaco" font-size="10.00">HydroCouple::IPropertyChanged</text>
<polyline fill="none" stroke="black" points="30.0049,-727.224 220.033,-727.224 "/>
<text text-anchor="middle" x="125.019" y="-715.224" font-family="Monaco" font-size="10.00"> </text>
<polyline fill="none" stroke="black" points="30.0049,-705.889 220.033,-705.889 "/>
<text text-anchor="start" x="38.0049" y="-693.889" font-family="Monaco" font-size="10.00">+ ~IPropertyChanged()</text>
</a>
</g>
</g>
<!-- Node5&#45;&gt;Node4 -->
<g id="edge4" class="edge"><title>Node5&#45;&gt;Node4</title>
<path fill="none" stroke="midnightblue" d="M125.019,-674.233C125.019,-665.848 125.019,-656.882 125.019,-648.04"/>
<polygon fill="none" stroke="midnightblue" points="121.519,-674.49 125.019,-684.49 128.519,-674.49 121.519,-674.49"/>
</g>
</g>
</svg>
        <g id="navigator" transform="translate(0 0)" fill="#404254">
                <rect fill="#f2f5e9" fill-opacity="0.5" stroke="#606060" stroke-width=".5" x="0" y="0" width="60" height="60"/>
                <use id="zoomplus" xlink:href="#zoomPlus" x="17" y="9" onmousedown="handleZoom(evt,'in')"/>
                <use id="zoomminus" xlink:href="#zoomMin" x="42" y="9" onmousedown="handleZoom(evt,'out')"/>
                <use id="reset" xlink:href="#resetDef" x="30" y="36" onmousedown="handleReset()"/>
                <g id="arrowUp" xlink:href="#dirArrow" transform="translate(30 24)" onmousedown="handlePan(0,-1)">
                  <use xlink:href="#rim" fill="#404040">
                        <set attributeName="fill" to="#808080" begin="arrowUp.mouseover" end="arrowUp.mouseout"/>
                  </use>
                  <path fill="none" stroke="white" stroke-width="1.5" d="M0,-3.0v7 M-2.5,-0.5L0,-3.0L2.5,-0.5"/>
                </g>
                <g id="arrowRight" xlink:href="#dirArrow" transform="rotate(90) translate(36 -43)" onmousedown="handlePan(1,0)">
                  <use xlink:href="#rim" fill="#404040">
                        <set attributeName="fill" to="#808080" begin="arrowRight.mouseover" end="arrowRight.mouseout"/>
                  </use>
                  <path fill="none" stroke="white" stroke-width="1.5" d="M0,-3.0v7 M-2.5,-0.5L0,-3.0L2.5,-0.5"/>
                </g>
                <g id="arrowDown" xlink:href="#dirArrow" transform="rotate(180) translate(-30 -48)" onmousedown="handlePan(0,1)">
                  <use xlink:href="#rim" fill="#404040">
                        <set attributeName="fill" to="#808080" begin="arrowDown.mouseover" end="arrowDown.mouseout"/>
                  </use>
                  <path fill="none" stroke="white" stroke-width="1.5" d="M0,-3.0v7 M-2.5,-0.5L0,-3.0L2.5,-0.5"/>
                </g>
                <g id="arrowLeft" xlink:href="#dirArrow" transform="rotate(270) translate(-36 17)" onmousedown="handlePan(-1,0)">
                  <use xlink:href="#rim" fill="#404040">
                        <set attributeName="fill" to="#808080" begin="arrowLeft.mouseover" end="arrowLeft.mouseout"/>
                  </use>
                  <path fill="none" stroke="white" stroke-width="1.5" d="M0,-3.0v7 M-2.5,-0.5L0,-3.0L2.5,-0.5"/>
                </g>
        </g>
        <svg viewBox="0 0 15 15" width="100%" height="30px" preserveAspectRatio="xMaxYMin meet">
         <g id="arrow_out" transform="scale(0.3 0.3)">
          <a xlink:href="class_hydro_couple_1_1_i_adapted_output_factory_component_info__coll__graph_org.svg" target="_base">
           <rect id="button" ry="5" rx="5" y="6" x="6" height="38" width="38"
                fill="#f2f5e9" fill-opacity="0.5" stroke="#606060" stroke-width="1.0"/>
           <path id="arrow"
             d="M 11.500037,31.436501 C 11.940474,20.09759 22.043105,11.32322 32.158766,21.979434 L 37.068811,17.246167 C 37.068811,17.246167 37.088388,32 37.088388,32 L 22.160133,31.978069 C 22.160133,31.978069 26.997745,27.140456 26.997745,27.140456 C 18.528582,18.264221 13.291696,25.230495 11.500037,31.436501 z"
             style="fill:#404040;"/>
          </a>
         </g>
        </svg>
</svg>
