<?xml version="1.0" encoding="UTF-8" standalone="no"?>
<!DOCTYPE svg PUBLIC "-//W3C//DTD SVG 1.1//EN"
 "http://www.w3.org/Graphics/SVG/1.1/DTD/svg11.dtd">
<!-- Generated by graphviz version 2.38.0 (20140413.2041)
 -->
<!-- Title: HydroCouple::IValueDefinition Pages: 1 -->
<!--zoomable 509 -->
<svg id="main" version="1.1" xmlns="http://www.w3.org/2000/svg" xmlns:xlink="http://www.w3.org/1999/xlink" xml:space="preserve" onload="init(evt)">
<style type="text/css"><![CDATA[
.edge:hover path { stroke: red; }
.edge:hover polygon { stroke: red; fill: red; }
]]></style>
<script type="text/javascript"><![CDATA[
var edges = document.getElementsByTagName('g');
if (edges && edges.length) {
  for (var i=0;i<edges.length;i++) {
    if (edges[i].id.substr(0,4)=='edge') {
      edges[i].setAttribute('class','edge');
    }
  }
}
]]></script>
        <defs>
                <circle id="rim" cx="0" cy="0" r="7"/>
                <circle id="rim2" cx="0" cy="0" r="3.5"/>
                <g id="zoomPlus">
                        <use xlink:href="#rim" fill="#404040">
                                <set attributeName="fill" to="#808080" begin="zoomplus.mouseover" end="zoomplus.mouseout"/>
                        </use>
                        <path d="M-4,0h8M0,-4v8" fill="none" stroke="white" stroke-width="1.5" pointer-events="none"/>
                </g>
                <g id="zoomMin">
                        <use xlink:href="#rim" fill="#404040">
                                <set attributeName="fill" to="#808080" begin="zoomminus.mouseover" end="zoomminus.mouseout"/>
                        </use>
                        <path d="M-4,0h8" fill="none" stroke="white" stroke-width="1.5" pointer-events="none"/>
                </g>
                <g id="dirArrow">
                        <path fill="none" stroke="white" stroke-width="1.5" d="M0,-3.0v7 M-2.5,-0.5L0,-3.0L2.5,-0.5"/>
                </g>
               <g id="resetDef">
                       <use xlink:href="#rim2" fill="#404040">
                               <set attributeName="fill" to="#808080" begin="reset.mouseover" end="reset.mouseout"/>
                       </use>
               </g>
        </defs>

<script type="text/javascript">
var viewWidth = 316;
var viewHeight = 509;
var sectionId = 'dynsection-0';
</script>
<script xlink:href="../../svgpan.js"/>
<svg id="graph" class="graph">
<g id="viewport">
<title>HydroCouple::IValueDefinition</title>
<!-- Node1 -->
<g id="node1" class="node"><title>Node1</title>
<polygon fill="#bfbfbf" stroke="black" points="56.9961,-141.51 56.9961,-245.52 247.024,-245.52 247.024,-141.51 56.9961,-141.51"/>
<text text-anchor="middle" x="152.01" y="-233.52" font-family="Monaco" font-size="10.00">HydroCouple::IValueDefinition</text>
<polyline fill="none" stroke="black" points="56.9961,-224.185 247.024,-224.185 "/>
<text text-anchor="middle" x="152.01" y="-212.185" font-family="Monaco" font-size="10.00"> </text>
<polyline fill="none" stroke="black" points="56.9961,-202.85 247.024,-202.85 "/>
<text text-anchor="start" x="64.9961" y="-190.85" font-family="Monaco" font-size="10.00">+ ~IValueDefinition()</text>
<text text-anchor="start" x="64.9961" y="-177.515" font-family="Monaco" font-size="10.00">+ type()</text>
<text text-anchor="start" x="64.9961" y="-164.18" font-family="Monaco" font-size="10.00">+ missingValue()</text>
<text text-anchor="start" x="64.9961" y="-150.845" font-family="Monaco" font-size="10.00">+ defaultValue()</text>
</g>
<!-- Node4 -->
<g id="node4" class="node"><title>Node4</title>
<g id="a_node4"><a xlink:href="../../d1/ddd/class_hydro_couple_1_1_i_quality.html" target="_top" xlink:title="Qualitative data described items in terms of some quality or categorization that may be &#39;informal&#39; or...">
<polygon fill="none" stroke="black" points="0,-7.16748 0,-97.8423 142.021,-97.8423 142.021,-7.16748 0,-7.16748"/>
<text text-anchor="middle" x="71.0103" y="-85.8423" font-family="Monaco" font-size="10.00">HydroCouple::IQuality</text>
<polyline fill="none" stroke="black" points="0,-76.5073 142.021,-76.5073 "/>
<text text-anchor="middle" x="71.0103" y="-64.5073" font-family="Monaco" font-size="10.00"> </text>
<polyline fill="none" stroke="black" points="0,-55.1724 142.021,-55.1724 "/>
<text text-anchor="start" x="8" y="-43.1724" font-family="Monaco" font-size="10.00">+ ~IQuality()</text>
<text text-anchor="start" x="8" y="-29.8374" font-family="Monaco" font-size="10.00">+ categories()</text>
<text text-anchor="start" x="8" y="-16.5024" font-family="Monaco" font-size="10.00">+ isOrdered()</text>
</a>
</g>
</g>
<!-- Node1&#45;&gt;Node4 -->
<g id="edge3" class="edge"><title>Node1&#45;&gt;Node4</title>
<path fill="none" stroke="midnightblue" d="M117.016,-132.459C110.328,-120.98 103.435,-109.151 97.0859,-98.2551"/>
<polygon fill="none" stroke="midnightblue" points="114.02,-134.269 122.079,-141.147 120.068,-130.745 114.02,-134.269"/>
</g>
<!-- Node5 -->
<g id="node5" class="node"><title>Node5</title>
<g id="a_node5"><a xlink:href="../../dc/d3b/class_hydro_couple_1_1_i_quantity.html" target="_top" xlink:title="IQuantity specifies values as an amount of some unit, usually as a floating point number...">
<polygon fill="none" stroke="black" points="160,-0.5 160,-104.51 308.021,-104.51 308.021,-0.5 160,-0.5"/>
<text text-anchor="middle" x="234.01" y="-92.5098" font-family="Monaco" font-size="10.00">HydroCouple::IQuantity</text>
<polyline fill="none" stroke="black" points="160,-83.1748 308.021,-83.1748 "/>
<text text-anchor="middle" x="234.01" y="-71.1748" font-family="Monaco" font-size="10.00"> </text>
<polyline fill="none" stroke="black" points="160,-61.8398 308.021,-61.8398 "/>
<text text-anchor="start" x="168" y="-49.8398" font-family="Monaco" font-size="10.00">+ ~IQuantity()</text>
<text text-anchor="start" x="168" y="-36.5049" font-family="Monaco" font-size="10.00">+ unit()</text>
<text text-anchor="start" x="168" y="-23.1699" font-family="Monaco" font-size="10.00">+ minValue()</text>
<text text-anchor="start" x="168" y="-9.83496" font-family="Monaco" font-size="10.00">+ maxValue()</text>
</a>
</g>
</g>
<!-- Node1&#45;&gt;Node5 -->
<g id="edge4" class="edge"><title>Node1&#45;&gt;Node5</title>
<path fill="none" stroke="midnightblue" d="M187.482,-132.381C192.932,-123.143 198.514,-113.68 203.834,-104.661"/>
<polygon fill="none" stroke="midnightblue" points="184.377,-130.756 182.311,-141.147 190.406,-134.313 184.377,-130.756"/>
</g>
<!-- Node2 -->
<g id="node2" class="node"><title>Node2</title>
<g id="a_node2"><a xlink:href="../../db/d64/class_hydro_couple_1_1_i_description.html" target="_top" xlink:title="IDescription interface class provides descriptive information on a HydroCouple object. ">
<polygon fill="none" stroke="black" points="68.998,-282.52 68.998,-399.864 235.022,-399.864 235.022,-282.52 68.998,-282.52"/>
<text text-anchor="middle" x="152.01" y="-387.864" font-family="Monaco" font-size="10.00">HydroCouple::IDescription</text>
<polyline fill="none" stroke="black" points="68.998,-378.529 235.022,-378.529 "/>
<text text-anchor="middle" x="152.01" y="-366.529" font-family="Monaco" font-size="10.00"> </text>
<polyline fill="none" stroke="black" points="68.998,-357.194 235.022,-357.194 "/>
<text text-anchor="start" x="76.998" y="-345.194" font-family="Monaco" font-size="10.00">+ ~IDescription()</text>
<text text-anchor="start" x="76.998" y="-331.859" font-family="Monaco" font-size="10.00">+ caption()</text>
<text text-anchor="start" x="76.998" y="-318.524" font-family="Monaco" font-size="10.00">+ setCaption()</text>
<text text-anchor="start" x="76.998" y="-305.189" font-family="Monaco" font-size="10.00">+ description()</text>
<text text-anchor="start" x="76.998" y="-291.854" font-family="Monaco" font-size="10.00">+ setDescription()</text>
</a>
</g>
</g>
<!-- Node2&#45;&gt;Node1 -->
<g id="edge1" class="edge"><title>Node2&#45;&gt;Node1</title>
<path fill="none" stroke="midnightblue" d="M152.01,-271.918C152.01,-263.1 152.01,-254.193 152.01,-245.715"/>
<polygon fill="none" stroke="midnightblue" points="148.51,-272.198 152.01,-282.198 155.51,-272.198 148.51,-272.198"/>
</g>
<!-- Node3 -->
<g id="node3" class="node"><title>Node3</title>
<g id="a_node3"><a xlink:href="../../dd/dbf/class_hydro_couple_1_1_i_property_changed.html" target="_top" xlink:title="IPropertyChanged interface is used to emit signal/event when a property of an object changes...">
<polygon fill="none" stroke="black" points="56.9961,-436.864 56.9961,-500.869 247.024,-500.869 247.024,-436.864 56.9961,-436.864"/>
<text text-anchor="middle" x="152.01" y="-488.869" font-family="Monaco" font-size="10.00">HydroCouple::IPropertyChanged</text>
<polyline fill="none" stroke="black" points="56.9961,-479.534 247.024,-479.534 "/>
<text text-anchor="middle" x="152.01" y="-467.534" font-family="Monaco" font-size="10.00"> </text>
<polyline fill="none" stroke="black" points="56.9961,-458.199 247.024,-458.199 "/>
<text text-anchor="start" x="64.9961" y="-446.199" font-family="Monaco" font-size="10.00">+ ~IPropertyChanged()</text>
</a>
</g>
</g>
<!-- Node3&#45;&gt;Node2 -->
<g id="edge2" class="edge"><title>Node3&#45;&gt;Node2</title>
<path fill="none" stroke="midnightblue" d="M152.01,-426.544C152.01,-418.159 152.01,-409.192 152.01,-400.35"/>
<polygon fill="none" stroke="midnightblue" points="148.51,-426.801 152.01,-436.801 155.51,-426.801 148.51,-426.801"/>
</g>
</g>
</svg>
        <g id="navigator" transform="translate(0 0)" fill="#404254">
                <rect fill="#f2f5e9" fill-opacity="0.5" stroke="#606060" stroke-width=".5" x="0" y="0" width="60" height="60"/>
                <use id="zoomplus" xlink:href="#zoomPlus" x="17" y="9" onmousedown="handleZoom(evt,'in')"/>
                <use id="zoomminus" xlink:href="#zoomMin" x="42" y="9" onmousedown="handleZoom(evt,'out')"/>
                <use id="reset" xlink:href="#resetDef" x="30" y="36" onmousedown="handleReset()"/>
                <g id="arrowUp" xlink:href="#dirArrow" transform="translate(30 24)" onmousedown="handlePan(0,-1)">
                  <use xlink:href="#rim" fill="#404040">
                        <set attributeName="fill" to="#808080" begin="arrowUp.mouseover" end="arrowUp.mouseout"/>
                  </use>
                  <path fill="none" stroke="white" stroke-width="1.5" d="M0,-3.0v7 M-2.5,-0.5L0,-3.0L2.5,-0.5"/>
                </g>
                <g id="arrowRight" xlink:href="#dirArrow" transform="rotate(90) translate(36 -43)" onmousedown="handlePan(1,0)">
                  <use xlink:href="#rim" fill="#404040">
                        <set attributeName="fill" to="#808080" begin="arrowRight.mouseover" end="arrowRight.mouseout"/>
                  </use>
                  <path fill="none" stroke="white" stroke-width="1.5" d="M0,-3.0v7 M-2.5,-0.5L0,-3.0L2.5,-0.5"/>
                </g>
                <g id="arrowDown" xlink:href="#dirArrow" transform="rotate(180) translate(-30 -48)" onmousedown="handlePan(0,1)">
                  <use xlink:href="#rim" fill="#404040">
                        <set attributeName="fill" to="#808080" begin="arrowDown.mouseover" end="arrowDown.mouseout"/>
                  </use>
                  <path fill="none" stroke="white" stroke-width="1.5" d="M0,-3.0v7 M-2.5,-0.5L0,-3.0L2.5,-0.5"/>
                </g>
                <g id="arrowLeft" xlink:href="#dirArrow" transform="rotate(270) translate(-36 17)" onmousedown="handlePan(-1,0)">
                  <use xlink:href="#rim" fill="#404040">
                        <set attributeName="fill" to="#808080" begin="arrowLeft.mouseover" end="arrowLeft.mouseout"/>
                  </use>
                  <path fill="none" stroke="white" stroke-width="1.5" d="M0,-3.0v7 M-2.5,-0.5L0,-3.0L2.5,-0.5"/>
                </g>
        </g>
        <svg viewBox="0 0 15 15" width="100%" height="30px" preserveAspectRatio="xMaxYMin meet">
         <g id="arrow_out" transform="scale(0.3 0.3)">
          <a xlink:href="class_hydro_couple_1_1_i_value_definition__inherit__graph_org.svg" target="_base">
           <rect id="button" ry="5" rx="5" y="6" x="6" height="38" width="38"
                fill="#f2f5e9" fill-opacity="0.5" stroke="#606060" stroke-width="1.0"/>
           <path id="arrow"
             d="M 11.500037,31.436501 C 11.940474,20.09759 22.043105,11.32322 32.158766,21.979434 L 37.068811,17.246167 C 37.068811,17.246167 37.088388,32 37.088388,32 L 22.160133,31.978069 C 22.160133,31.978069 26.997745,27.140456 26.997745,27.140456 C 18.528582,18.264221 13.291696,25.230495 11.500037,31.436501 z"
             style="fill:#404040;"/>
          </a>
         </g>
        </svg>
</svg>
