<?xml version="1.0" encoding="UTF-8" standalone="no"?>
<!DOCTYPE svg PUBLIC "-//W3C//DTD SVG 1.1//EN"
 "http://www.w3.org/Graphics/SVG/1.1/DTD/svg11.dtd">
<!-- Generated by graphviz version 2.38.0 (20140413.2041)
 -->
<!-- Title: /Users/calebbuahin/Documents/Projects/HydroCouple/HydroCoupleSDK/include/stdafx.h Pages: 1 -->
<svg width="1636pt" height="169pt"
 viewBox="0.00 0.00 1636.02 168.68" xmlns="http://www.w3.org/2000/svg" xmlns:xlink="http://www.w3.org/1999/xlink">
<g id="graph0" class="graph" transform="scale(1 1) rotate(0) translate(4 164.68)">
<title>/Users/calebbuahin/Documents/Projects/HydroCouple/HydroCoupleSDK/include/stdafx.h</title>
<polygon fill="white" stroke="none" points="-4,4 -4,-164.68 1632.02,-164.68 1632.02,4 -4,4"/>
<!-- Node1 -->
<g id="node1" class="node"><title>Node1</title>
<polygon fill="#bfbfbf" stroke="black" points="745.999,-98.8398 745.999,-160.18 924.025,-160.18 924.025,-98.8398 745.999,-98.8398"/>
<text text-anchor="start" x="753.999" y="-148.18" font-family="Monaco" font-size="10.00">/Users/calebbuahin</text>
<text text-anchor="start" x="753.999" y="-134.845" font-family="Monaco" font-size="10.00">/Documents/Projects</text>
<text text-anchor="start" x="753.999" y="-121.51" font-family="Monaco" font-size="10.00">/HydroCouple/HydroCoupleSDK</text>
<text text-anchor="middle" x="835.012" y="-108.175" font-family="Monaco" font-size="10.00">/include/stdafx.h</text>
</g>
<!-- Node2 -->
<g id="node2" class="node"><title>Node2</title>
<g id="a_node2"><a xlink:href="src_2stdafx_8cpp.html" target="_top" xlink:title="/Users/calebbuahin\l/Documents/Projects\l/HydroCouple/HydroCouple\l/src/stdafx.cpp">
<polygon fill="white" stroke="black" points="0,-0.5 0,-61.8398 160.023,-61.8398 160.023,-0.5 0,-0.5"/>
<text text-anchor="start" x="8" y="-49.8398" font-family="Monaco" font-size="10.00">/Users/calebbuahin</text>
<text text-anchor="start" x="8" y="-36.5049" font-family="Monaco" font-size="10.00">/Documents/Projects</text>
<text text-anchor="start" x="8" y="-23.1699" font-family="Monaco" font-size="10.00">/HydroCouple/HydroCouple</text>
<text text-anchor="middle" x="80.0117" y="-9.83496" font-family="Monaco" font-size="10.00">/src/stdafx.cpp</text>
</a>
</g>
</g>
<!-- Node1&#45;&gt;Node2 -->
<g id="edge1" class="edge"><title>Node1&#45;&gt;Node2</title>
<path fill="none" stroke="midnightblue" d="M735.92,-125.696C604.852,-120.38 367.279,-105.207 169.012,-62.3398 166.141,-61.7192 163.235,-61.0368 160.311,-60.3042"/>
<polygon fill="midnightblue" stroke="midnightblue" points="735.814,-129.194 745.944,-126.091 736.09,-122.2 735.814,-129.194"/>
</g>
<!-- Node3 -->
<g id="node3" class="node"><title>Node3</title>
<g id="a_node3"><a xlink:href="abstractmodelcomponent_8cpp.html" target="_top" xlink:title="/Users/calebbuahin\l/Documents/Projects\l/HydroCouple/HydroCoupleSDK\l/src/abstractmodelcomponent.cpp">
<polygon fill="white" stroke="black" points="177.997,-0.5 177.997,-61.8398 380.027,-61.8398 380.027,-0.5 177.997,-0.5"/>
<text text-anchor="start" x="185.997" y="-49.8398" font-family="Monaco" font-size="10.00">/Users/calebbuahin</text>
<text text-anchor="start" x="185.997" y="-36.5049" font-family="Monaco" font-size="10.00">/Documents/Projects</text>
<text text-anchor="start" x="185.997" y="-23.1699" font-family="Monaco" font-size="10.00">/HydroCouple/HydroCoupleSDK</text>
<text text-anchor="middle" x="279.012" y="-9.83496" font-family="Monaco" font-size="10.00">/src/abstractmodelcomponent.cpp</text>
</a>
</g>
</g>
<!-- Node1&#45;&gt;Node3 -->
<g id="edge2" class="edge"><title>Node1&#45;&gt;Node3</title>
<path fill="none" stroke="midnightblue" d="M735.59,-117.241C644.801,-106.128 507.142,-87.2085 389.012,-62.3398 386.105,-61.7279 383.161,-61.0842 380.195,-60.4143"/>
<polygon fill="midnightblue" stroke="midnightblue" points="735.25,-120.725 745.599,-118.458 736.094,-113.777 735.25,-120.725"/>
</g>
<!-- Node4 -->
<g id="node4" class="node"><title>Node4</title>
<g id="a_node4"><a xlink:href="componentinfo_8cpp.html" target="_top" xlink:title="/Users/calebbuahin\l/Documents/Projects\l/HydroCouple/HydroCoupleSDK\l/src/componentinfo.cpp">
<polygon fill="white" stroke="black" points="397.999,-0.5 397.999,-61.8398 576.025,-61.8398 576.025,-0.5 397.999,-0.5"/>
<text text-anchor="start" x="405.999" y="-49.8398" font-family="Monaco" font-size="10.00">/Users/calebbuahin</text>
<text text-anchor="start" x="405.999" y="-36.5049" font-family="Monaco" font-size="10.00">/Documents/Projects</text>
<text text-anchor="start" x="405.999" y="-23.1699" font-family="Monaco" font-size="10.00">/HydroCouple/HydroCoupleSDK</text>
<text text-anchor="middle" x="487.012" y="-9.83496" font-family="Monaco" font-size="10.00">/src/componentinfo.cpp</text>
</a>
</g>
</g>
<!-- Node1&#45;&gt;Node4 -->
<g id="edge3" class="edge"><title>Node1&#45;&gt;Node4</title>
<path fill="none" stroke="midnightblue" d="M736.289,-103.349C690.205,-91.3564 634.68,-76.5521 585.012,-62.3398 582.102,-61.5073 579.147,-60.6523 576.165,-59.7814"/>
<polygon fill="midnightblue" stroke="midnightblue" points="735.415,-106.738 745.974,-105.864 737.175,-99.9631 735.415,-106.738"/>
</g>
<!-- Node5 -->
<g id="node5" class="node"><title>Node5</title>
<g id="a_node5"><a xlink:href="componentstatuschangeeventargs_8cpp.html" target="_top" xlink:title="/Users/calebbuahin\l/Documents/Projects\l/HydroCouple/HydroCoupleSDK\l/src/componentstatuschangeeventargs.cpp">
<polygon fill="white" stroke="black" points="593.993,-0.5 593.993,-61.8398 844.031,-61.8398 844.031,-0.5 593.993,-0.5"/>
<text text-anchor="start" x="601.993" y="-49.8398" font-family="Monaco" font-size="10.00">/Users/calebbuahin</text>
<text text-anchor="start" x="601.993" y="-36.5049" font-family="Monaco" font-size="10.00">/Documents/Projects</text>
<text text-anchor="start" x="601.993" y="-23.1699" font-family="Monaco" font-size="10.00">/HydroCouple/HydroCoupleSDK</text>
<text text-anchor="middle" x="719.012" y="-9.83496" font-family="Monaco" font-size="10.00">/src/componentstatuschangeeventargs.cpp</text>
</a>
</g>
</g>
<!-- Node1&#45;&gt;Node5 -->
<g id="edge4" class="edge"><title>Node1&#45;&gt;Node5</title>
<path fill="none" stroke="midnightblue" d="M791.477,-92.3535C779.399,-82.3226 766.427,-71.5491 754.844,-61.929"/>
<polygon fill="midnightblue" stroke="midnightblue" points="789.332,-95.122 799.261,-98.8185 793.805,-89.7369 789.332,-95.122"/>
</g>
<!-- Node6 -->
<g id="node6" class="node"><title>Node6</title>
<g id="a_node6"><a xlink:href="description_8cpp.html" target="_top" xlink:title="/Users/calebbuahin\l/Documents/Projects\l/HydroCouple/HydroCoupleSDK\l/src/description.cpp">
<polygon fill="white" stroke="black" points="861.999,-0.5 861.999,-61.8398 1040.02,-61.8398 1040.02,-0.5 861.999,-0.5"/>
<text text-anchor="start" x="869.999" y="-49.8398" font-family="Monaco" font-size="10.00">/Users/calebbuahin</text>
<text text-anchor="start" x="869.999" y="-36.5049" font-family="Monaco" font-size="10.00">/Documents/Projects</text>
<text text-anchor="start" x="869.999" y="-23.1699" font-family="Monaco" font-size="10.00">/HydroCouple/HydroCoupleSDK</text>
<text text-anchor="middle" x="951.012" y="-9.83496" font-family="Monaco" font-size="10.00">/src/description.cpp</text>
</a>
</g>
</g>
<!-- Node1&#45;&gt;Node6 -->
<g id="edge5" class="edge"><title>Node1&#45;&gt;Node6</title>
<path fill="none" stroke="midnightblue" d="M878.546,-92.3535C890.624,-82.3226 903.596,-71.5491 915.18,-61.929"/>
<polygon fill="midnightblue" stroke="midnightblue" points="876.219,-89.7369 870.762,-98.8185 880.691,-95.122 876.219,-89.7369"/>
</g>
<!-- Node7 -->
<g id="node7" class="node"><title>Node7</title>
<g id="a_node7"><a xlink:href="identity_8cpp.html" target="_top" xlink:title="/Users/calebbuahin\l/Documents/Projects\l/HydroCouple/HydroCoupleSDK\l/src/identity.cpp">
<polygon fill="white" stroke="black" points="1058,-0.5 1058,-61.8398 1236.02,-61.8398 1236.02,-0.5 1058,-0.5"/>
<text text-anchor="start" x="1066" y="-49.8398" font-family="Monaco" font-size="10.00">/Users/calebbuahin</text>
<text text-anchor="start" x="1066" y="-36.5049" font-family="Monaco" font-size="10.00">/Documents/Projects</text>
<text text-anchor="start" x="1066" y="-23.1699" font-family="Monaco" font-size="10.00">/HydroCouple/HydroCoupleSDK</text>
<text text-anchor="middle" x="1147.01" y="-9.83496" font-family="Monaco" font-size="10.00">/src/identity.cpp</text>
</a>
</g>
</g>
<!-- Node1&#45;&gt;Node7 -->
<g id="edge6" class="edge"><title>Node1&#45;&gt;Node7</title>
<path fill="none" stroke="midnightblue" d="M934.116,-97.9083C973.817,-85.6493 1019.21,-71.6313 1057.86,-59.6977"/>
<polygon fill="midnightblue" stroke="midnightblue" points="932.941,-94.608 924.418,-100.903 935.006,-101.296 932.941,-94.608"/>
</g>
<!-- Node8 -->
<g id="node8" class="node"><title>Node8</title>
<g id="a_node8"><a xlink:href="modelcomponentinfo_8cpp.html" target="_top" xlink:title="/Users/calebbuahin\l/Documents/Projects\l/HydroCouple/HydroCoupleSDK\l/src/modelcomponentinfo.cpp">
<polygon fill="white" stroke="black" points="1254,-0.5 1254,-61.8398 1432.02,-61.8398 1432.02,-0.5 1254,-0.5"/>
<text text-anchor="start" x="1262" y="-49.8398" font-family="Monaco" font-size="10.00">/Users/calebbuahin</text>
<text text-anchor="start" x="1262" y="-36.5049" font-family="Monaco" font-size="10.00">/Documents/Projects</text>
<text text-anchor="start" x="1262" y="-23.1699" font-family="Monaco" font-size="10.00">/HydroCouple/HydroCoupleSDK</text>
<text text-anchor="middle" x="1343.01" y="-9.83496" font-family="Monaco" font-size="10.00">/src/modelcomponentinfo.cpp</text>
</a>
</g>
</g>
<!-- Node1&#45;&gt;Node8 -->
<g id="edge7" class="edge"><title>Node1&#45;&gt;Node8</title>
<path fill="none" stroke="midnightblue" d="M934.068,-116.442C1017.58,-105.335 1139.93,-86.8708 1245.01,-62.3398 1247.96,-61.6519 1250.95,-60.9223 1253.96,-60.1595"/>
<polygon fill="midnightblue" stroke="midnightblue" points="933.536,-112.981 924.08,-117.76 934.452,-119.921 933.536,-112.981"/>
</g>
<!-- Node9 -->
<g id="node9" class="node"><title>Node9</title>
<g id="a_node9"><a xlink:href="_d_k_2src_2stdafx_8cpp.html" target="_top" xlink:title="/Users/calebbuahin\l/Documents/Projects\l/HydroCouple/HydroCoupleSDK\l/src/stdafx.cpp">
<polygon fill="white" stroke="black" points="1450,-0.5 1450,-61.8398 1628.02,-61.8398 1628.02,-0.5 1450,-0.5"/>
<text text-anchor="start" x="1458" y="-49.8398" font-family="Monaco" font-size="10.00">/Users/calebbuahin</text>
<text text-anchor="start" x="1458" y="-36.5049" font-family="Monaco" font-size="10.00">/Documents/Projects</text>
<text text-anchor="start" x="1458" y="-23.1699" font-family="Monaco" font-size="10.00">/HydroCouple/HydroCoupleSDK</text>
<text text-anchor="middle" x="1539.01" y="-9.83496" font-family="Monaco" font-size="10.00">/src/stdafx.cpp</text>
</a>
</g>
</g>
<!-- Node1&#45;&gt;Node9 -->
<g id="edge8" class="edge"><title>Node1&#45;&gt;Node9</title>
<path fill="none" stroke="midnightblue" d="M934.484,-123.453C1055.29,-115.983 1264.77,-98.7463 1441.01,-62.3398 1443.89,-61.7456 1446.8,-61.1027 1449.73,-60.4197"/>
<polygon fill="midnightblue" stroke="midnightblue" points="933.919,-119.981 924.15,-124.081 934.344,-126.968 933.919,-119.981"/>
</g>
</g>
</svg>
