<?xml version="1.0" encoding="UTF-8" standalone="no"?>
<!DOCTYPE svg PUBLIC "-//W3C//DTD SVG 1.1//EN"
 "http://www.w3.org/Graphics/SVG/1.1/DTD/svg11.dtd">
<!-- Generated by graphviz version 2.38.0 (20140413.2041)
 -->
<!-- Title: /Users/calebbuahin/Documents/Projects/HydroCouple/HydroCoupleSDK/include/abstractmodelcomponent.h Pages: 1 -->
<!--zoomable 267 -->
<svg id="main" version="1.1" xmlns="http://www.w3.org/2000/svg" xmlns:xlink="http://www.w3.org/1999/xlink" xml:space="preserve" onload="init(evt)">
<style type="text/css"><![CDATA[
.edge:hover path { stroke: red; }
.edge:hover polygon { stroke: red; fill: red; }
]]></style>
<script type="text/javascript"><![CDATA[
var edges = document.getElementsByTagName('g');
if (edges && edges.length) {
  for (var i=0;i<edges.length;i++) {
    if (edges[i].id.substr(0,4)=='edge') {
      edges[i].setAttribute('class','edge');
    }
  }
}
]]></script>
        <defs>
                <circle id="rim" cx="0" cy="0" r="7"/>
                <circle id="rim2" cx="0" cy="0" r="3.5"/>
                <g id="zoomPlus">
                        <use xlink:href="#rim" fill="#404040">
                                <set attributeName="fill" to="#808080" begin="zoomplus.mouseover" end="zoomplus.mouseout"/>
                        </use>
                        <path d="M-4,0h8M0,-4v8" fill="none" stroke="white" stroke-width="1.5" pointer-events="none"/>
                </g>
                <g id="zoomMin">
                        <use xlink:href="#rim" fill="#404040">
                                <set attributeName="fill" to="#808080" begin="zoomminus.mouseover" end="zoomminus.mouseout"/>
                        </use>
                        <path d="M-4,0h8" fill="none" stroke="white" stroke-width="1.5" pointer-events="none"/>
                </g>
                <g id="dirArrow">
                        <path fill="none" stroke="white" stroke-width="1.5" d="M0,-3.0v7 M-2.5,-0.5L0,-3.0L2.5,-0.5"/>
                </g>
               <g id="resetDef">
                       <use xlink:href="#rim2" fill="#404040">
                               <set attributeName="fill" to="#808080" begin="reset.mouseover" end="reset.mouseout"/>
                       </use>
               </g>
        </defs>

<script type="text/javascript">
var viewWidth = 686;
var viewHeight = 267;
var sectionId = 'dynsection-1';
</script>
<script xlink:href="svgpan.js"/>
<svg id="graph" class="graph">
<g id="viewport">
<title>/Users/calebbuahin/Documents/Projects/HydroCouple/HydroCoupleSDK/include/abstractmodelcomponent.h</title>
<polygon fill="white" stroke="none" points="-4,4 -4,-263.02 682.033,-263.02 682.033,4 -4,4"/>
<!-- Node1 -->
<g id="node1" class="node"><title>Node1</title>
<polygon fill="#bfbfbf" stroke="black" points="274.004,-197.18 274.004,-258.52 488.036,-258.52 488.036,-197.18 274.004,-197.18"/>
<text text-anchor="start" x="282.004" y="-246.52" font-family="Monaco" font-size="10.00">/Users/calebbuahin</text>
<text text-anchor="start" x="282.004" y="-233.185" font-family="Monaco" font-size="10.00">/Documents/Projects</text>
<text text-anchor="start" x="282.004" y="-219.85" font-family="Monaco" font-size="10.00">/HydroCouple/HydroCoupleSDK</text>
<text text-anchor="middle" x="381.02" y="-206.515" font-family="Monaco" font-size="10.00">/include/abstractmodelcomponent.h</text>
</g>
<!-- Node2 -->
<g id="node2" class="node"><title>Node2</title>
<g id="a_node2"><a xlink:href="componentstatuschangeeventargs_8h.html" target="_top" xlink:title="/Users/calebbuahin\l/Documents/Projects\l/HydroCouple/HydroCoupleSDK\l/include/componentstatuschangeeventargs.h">
<polygon fill="white" stroke="black" points="0,-98.8398 0,-160.18 262.04,-160.18 262.04,-98.8398 0,-98.8398"/>
<text text-anchor="start" x="8" y="-148.18" font-family="Monaco" font-size="10.00">/Users/calebbuahin</text>
<text text-anchor="start" x="8" y="-134.845" font-family="Monaco" font-size="10.00">/Documents/Projects</text>
<text text-anchor="start" x="8" y="-121.51" font-family="Monaco" font-size="10.00">/HydroCouple/HydroCoupleSDK</text>
<text text-anchor="middle" x="131.02" y="-108.175" font-family="Monaco" font-size="10.00">/include/componentstatuschangeeventargs.h</text>
</a>
</g>
</g>
<!-- Node1&#45;&gt;Node2 -->
<g id="edge1" class="edge"><title>Node1&#45;&gt;Node2</title>
<path fill="none" stroke="midnightblue" d="M294.576,-193.538C266.517,-182.725 235.586,-170.805 208.244,-160.269"/>
<polygon fill="midnightblue" stroke="midnightblue" points="293.382,-196.828 303.972,-197.158 295.899,-190.297 293.382,-196.828"/>
</g>
<!-- Node4 -->
<g id="node4" class="node"><title>Node4</title>
<g id="a_node4"><a xlink:href="abstractmodelcomponent_8cpp.html" target="_top" xlink:title="/Users/calebbuahin\l/Documents/Projects\l/HydroCouple/HydroCoupleSDK\l/src/abstractmodelcomponent.cpp">
<polygon fill="white" stroke="black" points="280.005,-98.8398 280.005,-160.18 482.035,-160.18 482.035,-98.8398 280.005,-98.8398"/>
<text text-anchor="start" x="288.005" y="-148.18" font-family="Monaco" font-size="10.00">/Users/calebbuahin</text>
<text text-anchor="start" x="288.005" y="-134.845" font-family="Monaco" font-size="10.00">/Documents/Projects</text>
<text text-anchor="start" x="288.005" y="-121.51" font-family="Monaco" font-size="10.00">/HydroCouple/HydroCoupleSDK</text>
<text text-anchor="middle" x="381.02" y="-108.175" font-family="Monaco" font-size="10.00">/src/abstractmodelcomponent.cpp</text>
</a>
</g>
</g>
<!-- Node1&#45;&gt;Node4 -->
<g id="edge3" class="edge"><title>Node1&#45;&gt;Node4</title>
<path fill="none" stroke="midnightblue" d="M381.02,-186.937C381.02,-178.012 381.02,-168.698 381.02,-160.269"/>
<polygon fill="midnightblue" stroke="midnightblue" points="377.52,-187.158 381.02,-197.158 384.52,-187.158 377.52,-187.158"/>
</g>
<!-- Node5 -->
<g id="node5" class="node"><title>Node5</title>
<g id="a_node5"><a xlink:href="modelcomponentinfo_8cpp.html" target="_top" xlink:title="/Users/calebbuahin\l/Documents/Projects\l/HydroCouple/HydroCoupleSDK\l/src/modelcomponentinfo.cpp">
<polygon fill="white" stroke="black" points="500.007,-98.8398 500.007,-160.18 678.033,-160.18 678.033,-98.8398 500.007,-98.8398"/>
<text text-anchor="start" x="508.007" y="-148.18" font-family="Monaco" font-size="10.00">/Users/calebbuahin</text>
<text text-anchor="start" x="508.007" y="-134.845" font-family="Monaco" font-size="10.00">/Documents/Projects</text>
<text text-anchor="start" x="508.007" y="-121.51" font-family="Monaco" font-size="10.00">/HydroCouple/HydroCoupleSDK</text>
<text text-anchor="middle" x="589.02" y="-108.175" font-family="Monaco" font-size="10.00">/src/modelcomponentinfo.cpp</text>
</a>
</g>
</g>
<!-- Node1&#45;&gt;Node5 -->
<g id="edge4" class="edge"><title>Node1&#45;&gt;Node5</title>
<path fill="none" stroke="midnightblue" d="M454.467,-192.831C477.404,-182.207 502.516,-170.576 524.77,-160.269"/>
<polygon fill="midnightblue" stroke="midnightblue" points="452.727,-189.78 445.124,-197.158 455.669,-196.131 452.727,-189.78"/>
</g>
<!-- Node3 -->
<g id="node3" class="node"><title>Node3</title>
<g id="a_node3"><a xlink:href="componentstatuschangeeventargs_8cpp.html" target="_top" xlink:title="/Users/calebbuahin\l/Documents/Projects\l/HydroCouple/HydroCoupleSDK\l/src/componentstatuschangeeventargs.cpp">
<polygon fill="white" stroke="black" points="6.00098,-0.5 6.00098,-61.8398 256.039,-61.8398 256.039,-0.5 6.00098,-0.5"/>
<text text-anchor="start" x="14.001" y="-49.8398" font-family="Monaco" font-size="10.00">/Users/calebbuahin</text>
<text text-anchor="start" x="14.001" y="-36.5049" font-family="Monaco" font-size="10.00">/Documents/Projects</text>
<text text-anchor="start" x="14.001" y="-23.1699" font-family="Monaco" font-size="10.00">/HydroCouple/HydroCoupleSDK</text>
<text text-anchor="middle" x="131.02" y="-9.83496" font-family="Monaco" font-size="10.00">/src/componentstatuschangeeventargs.cpp</text>
</a>
</g>
</g>
<!-- Node2&#45;&gt;Node3 -->
<g id="edge2" class="edge"><title>Node2&#45;&gt;Node3</title>
<path fill="none" stroke="midnightblue" d="M131.02,-88.5972C131.02,-79.6725 131.02,-70.3581 131.02,-61.929"/>
<polygon fill="midnightblue" stroke="midnightblue" points="127.52,-88.8185 131.02,-98.8185 134.52,-88.8186 127.52,-88.8185"/>
</g>
</g>
</svg>
        <g id="navigator" transform="translate(0 0)" fill="#404254">
                <rect fill="#f2f5e9" fill-opacity="0.5" stroke="#606060" stroke-width=".5" x="0" y="0" width="60" height="60"/>
                <use id="zoomplus" xlink:href="#zoomPlus" x="17" y="9" onmousedown="handleZoom(evt,'in')"/>
                <use id="zoomminus" xlink:href="#zoomMin" x="42" y="9" onmousedown="handleZoom(evt,'out')"/>
                <use id="reset" xlink:href="#resetDef" x="30" y="36" onmousedown="handleReset()"/>
                <g id="arrowUp" xlink:href="#dirArrow" transform="translate(30 24)" onmousedown="handlePan(0,-1)">
                  <use xlink:href="#rim" fill="#404040">
                        <set attributeName="fill" to="#808080" begin="arrowUp.mouseover" end="arrowUp.mouseout"/>
                  </use>
                  <path fill="none" stroke="white" stroke-width="1.5" d="M0,-3.0v7 M-2.5,-0.5L0,-3.0L2.5,-0.5"/>
                </g>
                <g id="arrowRight" xlink:href="#dirArrow" transform="rotate(90) translate(36 -43)" onmousedown="handlePan(1,0)">
                  <use xlink:href="#rim" fill="#404040">
                        <set attributeName="fill" to="#808080" begin="arrowRight.mouseover" end="arrowRight.mouseout"/>
                  </use>
                  <path fill="none" stroke="white" stroke-width="1.5" d="M0,-3.0v7 M-2.5,-0.5L0,-3.0L2.5,-0.5"/>
                </g>
                <g id="arrowDown" xlink:href="#dirArrow" transform="rotate(180) translate(-30 -48)" onmousedown="handlePan(0,1)">
                  <use xlink:href="#rim" fill="#404040">
                        <set attributeName="fill" to="#808080" begin="arrowDown.mouseover" end="arrowDown.mouseout"/>
                  </use>
                  <path fill="none" stroke="white" stroke-width="1.5" d="M0,-3.0v7 M-2.5,-0.5L0,-3.0L2.5,-0.5"/>
                </g>
                <g id="arrowLeft" xlink:href="#dirArrow" transform="rotate(270) translate(-36 17)" onmousedown="handlePan(-1,0)">
                  <use xlink:href="#rim" fill="#404040">
                        <set attributeName="fill" to="#808080" begin="arrowLeft.mouseover" end="arrowLeft.mouseout"/>
                  </use>
                  <path fill="none" stroke="white" stroke-width="1.5" d="M0,-3.0v7 M-2.5,-0.5L0,-3.0L2.5,-0.5"/>
                </g>
        </g>
        <svg viewBox="0 0 15 15" width="100%" height="30px" preserveAspectRatio="xMaxYMin meet">
         <g id="arrow_out" transform="scale(0.3 0.3)">
          <a xlink:href="abstractmodelcomponent_8h__dep__incl_org.svg" target="_base">
           <rect id="button" ry="5" rx="5" y="6" x="6" height="38" width="38"
                fill="#f2f5e9" fill-opacity="0.5" stroke="#606060" stroke-width="1.0"/>
           <path id="arrow"
             d="M 11.500037,31.436501 C 11.940474,20.09759 22.043105,11.32322 32.158766,21.979434 L 37.068811,17.246167 C 37.068811,17.246167 37.088388,32 37.088388,32 L 22.160133,31.978069 C 22.160133,31.978069 26.997745,27.140456 26.997745,27.140456 C 18.528582,18.264221 13.291696,25.230495 11.500037,31.436501 z"
             style="fill:#404040;"/>
          </a>
         </g>
        </svg>
</svg>
