<?xml version="1.0" encoding="UTF-8" standalone="no"?>
<!DOCTYPE svg PUBLIC "-//W3C//DTD SVG 1.1//EN"
 "http://www.w3.org/Graphics/SVG/1.1/DTD/svg11.dtd">
<!-- Generated by graphviz version 2.38.0 (20140413.2041)
 -->
<!-- Title: /Users/calebbuahin/Documents/Projects/HydroCouple/HydroCoupleSDK/src/abstractmodelcomponent.cpp Pages: 1 -->
<svg width="371pt" height="362pt"
 viewBox="0.00 0.00 371.01 362.01" xmlns="http://www.w3.org/2000/svg" xmlns:xlink="http://www.w3.org/1999/xlink">
<g id="graph0" class="graph" transform="scale(1 1) rotate(0) translate(4 358.015)">
<title>/Users/calebbuahin/Documents/Projects/HydroCouple/HydroCoupleSDK/src/abstractmodelcomponent.cpp</title>
<polygon fill="white" stroke="none" points="-4,4 -4,-358.015 367.008,-358.015 367.008,4 -4,4"/>
<!-- Node1 -->
<g id="node1" class="node"><title>Node1</title>
<polygon fill="#bfbfbf" stroke="black" points="60.9888,-292.175 60.9888,-353.515 263.019,-353.515 263.019,-292.175 60.9888,-292.175"/>
<text text-anchor="start" x="68.9888" y="-341.515" font-family="Monaco" font-size="10.00">/Users/calebbuahin</text>
<text text-anchor="start" x="68.9888" y="-328.18" font-family="Monaco" font-size="10.00">/Documents/Projects</text>
<text text-anchor="start" x="68.9888" y="-314.845" font-family="Monaco" font-size="10.00">/HydroCouple/HydroCoupleSDK</text>
<text text-anchor="middle" x="162.004" y="-301.51" font-family="Monaco" font-size="10.00">/src/abstractmodelcomponent.cpp</text>
</g>
<!-- Node2 -->
<g id="node2" class="node"><title>Node2</title>
<polygon fill="white" stroke="#bfbfbf" points="0,-233.84 0,-255.175 64.0078,-255.175 64.0078,-233.84 0,-233.84"/>
<text text-anchor="middle" x="32.0039" y="-243.175" font-family="Monaco" font-size="10.00">stdafx.h</text>
</g>
<!-- Node1&#45;&gt;Node2 -->
<g id="edge1" class="edge"><title>Node1&#45;&gt;Node2</title>
<path fill="none" stroke="midnightblue" d="M111.37,-292.112C92.95,-281.296 72.9095,-269.528 57.5748,-260.523"/>
<polygon fill="midnightblue" stroke="midnightblue" points="59.0871,-257.352 48.6916,-255.306 55.5425,-263.388 59.0871,-257.352"/>
</g>
<!-- Node3 -->
<g id="node3" class="node"><title>Node3</title>
<g id="a_node3"><a xlink:href="abstractmodelcomponent_8h.html" target="_top" xlink:title="abstractmodelcomponent.h">
<polygon fill="white" stroke="black" points="81.9922,-233.84 81.9922,-255.175 242.016,-255.175 242.016,-233.84 81.9922,-233.84"/>
<text text-anchor="middle" x="162.004" y="-243.175" font-family="Monaco" font-size="10.00">abstractmodelcomponent.h</text>
</a>
</g>
</g>
<!-- Node1&#45;&gt;Node3 -->
<g id="edge2" class="edge"><title>Node1&#45;&gt;Node3</title>
<path fill="none" stroke="midnightblue" d="M162.004,-292.112C162.004,-283.132 162.004,-273.497 162.004,-265.331"/>
<polygon fill="midnightblue" stroke="midnightblue" points="165.504,-265.306 162.004,-255.306 158.504,-265.307 165.504,-265.306"/>
</g>
<!-- Node11 -->
<g id="node11" class="node"><title>Node11</title>
<polygon fill="white" stroke="#bfbfbf" points="260.001,-233.84 260.001,-255.175 306.006,-255.175 306.006,-233.84 260.001,-233.84"/>
<text text-anchor="middle" x="283.004" y="-243.175" font-family="Monaco" font-size="10.00">QUuid</text>
</g>
<!-- Node1&#45;&gt;Node11 -->
<g id="edge13" class="edge"><title>Node1&#45;&gt;Node11</title>
<path fill="none" stroke="midnightblue" d="M209.132,-292.112C226.115,-281.398 244.578,-269.749 258.798,-260.778"/>
<polygon fill="midnightblue" stroke="midnightblue" points="260.882,-263.602 267.472,-255.306 257.146,-257.682 260.882,-263.602"/>
</g>
<!-- Node4 -->
<g id="node4" class="node"><title>Node4</title>
<g id="a_node4"><a xlink:href="identity_8h.html" target="_top" xlink:title="identity.h">
<polygon fill="white" stroke="black" points="123.999,-175.505 123.999,-196.84 200.009,-196.84 200.009,-175.505 123.999,-175.505"/>
<text text-anchor="middle" x="162.004" y="-184.84" font-family="Monaco" font-size="10.00">identity.h</text>
</a>
</g>
</g>
<!-- Node3&#45;&gt;Node4 -->
<g id="edge3" class="edge"><title>Node3&#45;&gt;Node4</title>
<path fill="none" stroke="midnightblue" d="M162.004,-233.695C162.004,-226.343 162.004,-216.038 162.004,-206.995"/>
<polygon fill="midnightblue" stroke="midnightblue" points="165.504,-206.873 162.004,-196.873 158.504,-206.873 165.504,-206.873"/>
</g>
<!-- Node5 -->
<g id="node5" class="node"><title>Node5</title>
<g id="a_node5"><a xlink:href="hydrocouplesdk_8h.html" target="_top" xlink:title="hydrocouplesdk.h">
<polygon fill="white" stroke="black" points="40.9961,-58.835 40.9961,-80.1699 153.012,-80.1699 153.012,-58.835 40.9961,-58.835"/>
<text text-anchor="middle" x="97.0039" y="-68.1699" font-family="Monaco" font-size="10.00">hydrocouplesdk.h</text>
</a>
</g>
</g>
<!-- Node4&#45;&gt;Node5 -->
<g id="edge4" class="edge"><title>Node4&#45;&gt;Node5</title>
<path fill="none" stroke="midnightblue" d="M156.462,-175.396C145.621,-156.27 121.451,-113.63 107.495,-89.0095"/>
<polygon fill="midnightblue" stroke="midnightblue" points="110.508,-87.228 102.532,-80.2544 104.418,-90.6799 110.508,-87.228"/>
</g>
<!-- Node7 -->
<g id="node7" class="node"><title>Node7</title>
<g id="a_node7"><a xlink:href="description_8h.html" target="_top" xlink:title="description.h">
<polygon fill="white" stroke="black" points="152.998,-117.17 152.998,-138.505 247.01,-138.505 247.01,-117.17 152.998,-117.17"/>
<text text-anchor="middle" x="200.004" y="-126.505" font-family="Monaco" font-size="10.00">description.h</text>
</a>
</g>
</g>
<!-- Node4&#45;&gt;Node7 -->
<g id="edge6" class="edge"><title>Node4&#45;&gt;Node7</title>
<path fill="none" stroke="midnightblue" d="M168.623,-175.36C173.908,-167.524 181.458,-156.332 187.828,-146.889"/>
<polygon fill="midnightblue" stroke="midnightblue" points="190.77,-148.785 193.461,-138.538 184.967,-144.871 190.77,-148.785"/>
</g>
<!-- Node6 -->
<g id="node6" class="node"><title>Node6</title>
<polygon fill="white" stroke="#bfbfbf" points="123.996,-0.5 123.996,-21.835 236.012,-21.835 236.012,-0.5 123.996,-0.5"/>
<text text-anchor="middle" x="180.004" y="-9.83496" font-family="Monaco" font-size="10.00">QtCore/qglobal.h</text>
</g>
<!-- Node5&#45;&gt;Node6 -->
<g id="edge5" class="edge"><title>Node5&#45;&gt;Node6</title>
<path fill="none" stroke="midnightblue" d="M111.461,-58.6896C124.077,-50.1269 142.598,-37.5559 157.208,-27.6396"/>
<polygon fill="midnightblue" stroke="midnightblue" points="159.404,-30.3798 165.712,-21.8678 155.472,-24.5879 159.404,-30.3798"/>
</g>
<!-- Node7&#45;&gt;Node5 -->
<g id="edge9" class="edge"><title>Node7&#45;&gt;Node5</title>
<path fill="none" stroke="midnightblue" d="M182.063,-117.025C165.964,-108.22 142.116,-95.1761 123.765,-85.1391"/>
<polygon fill="midnightblue" stroke="midnightblue" points="125.193,-81.9307 114.74,-80.2028 121.833,-88.0721 125.193,-81.9307"/>
</g>
<!-- Node8 -->
<g id="node8" class="node"><title>Node8</title>
<polygon fill="white" stroke="#bfbfbf" points="171,-58.835 171,-80.1699 229.007,-80.1699 229.007,-58.835 171,-58.835"/>
<text text-anchor="middle" x="200.004" y="-68.1699" font-family="Monaco" font-size="10.00">QObject</text>
</g>
<!-- Node7&#45;&gt;Node8 -->
<g id="edge7" class="edge"><title>Node7&#45;&gt;Node8</title>
<path fill="none" stroke="midnightblue" d="M200.004,-117.025C200.004,-109.674 200.004,-99.3684 200.004,-90.3249"/>
<polygon fill="midnightblue" stroke="midnightblue" points="203.504,-90.2028 200.004,-80.2028 196.504,-90.2028 203.504,-90.2028"/>
</g>
<!-- Node9 -->
<g id="node9" class="node"><title>Node9</title>
<polygon fill="white" stroke="#bfbfbf" points="299,-0.5 299,-21.835 363.008,-21.835 363.008,-0.5 299,-0.5"/>
<text text-anchor="middle" x="331.004" y="-9.83496" font-family="Monaco" font-size="10.00">QVariant</text>
</g>
<!-- Node7&#45;&gt;Node9 -->
<g id="edge8" class="edge"><title>Node7&#45;&gt;Node9</title>
<path fill="none" stroke="midnightblue" d="M247.271,-126.217C281.838,-122.968 326.614,-112.342 350.004,-80.6699 360.83,-66.0108 352.846,-45.4727 344.15,-30.7141"/>
<polygon fill="midnightblue" stroke="midnightblue" points="346.878,-28.4851 338.523,-21.9701 340.991,-32.2734 346.878,-28.4851"/>
</g>
<!-- Node10 -->
<g id="node10" class="node"><title>Node10</title>
<g id="a_node10"><a xlink:href="hydrocouple_8h.html" target="_top" xlink:title="hydrocouple.h">
<polygon fill="white" stroke="black" points="246.998,-58.835 246.998,-80.1699 341.01,-80.1699 341.01,-58.835 246.998,-58.835"/>
<text text-anchor="middle" x="294.004" y="-68.1699" font-family="Monaco" font-size="10.00">hydrocouple.h</text>
</a>
</g>
</g>
<!-- Node7&#45;&gt;Node10 -->
<g id="edge10" class="edge"><title>Node7&#45;&gt;Node10</title>
<path fill="none" stroke="midnightblue" d="M216.377,-117.025C230.935,-108.3 252.435,-95.4151 269.119,-85.4161"/>
<polygon fill="midnightblue" stroke="midnightblue" points="271.04,-88.3456 277.818,-80.2028 267.441,-82.3413 271.04,-88.3456"/>
</g>
<!-- Node10&#45;&gt;Node6 -->
<g id="edge11" class="edge"><title>Node10&#45;&gt;Node6</title>
<path fill="none" stroke="midnightblue" d="M274.407,-58.8181C256.381,-49.9103 229.42,-36.587 208.919,-26.4566"/>
<polygon fill="midnightblue" stroke="midnightblue" points="210.243,-23.2065 199.727,-21.914 207.141,-29.482 210.243,-23.2065"/>
</g>
<!-- Node10&#45;&gt;Node9 -->
<g id="edge12" class="edge"><title>Node10&#45;&gt;Node9</title>
<path fill="none" stroke="midnightblue" d="M300.449,-58.6896C305.542,-50.9347 312.795,-39.8921 318.956,-30.5114"/>
<polygon fill="midnightblue" stroke="midnightblue" points="322.069,-32.1477 324.633,-21.8678 316.218,-28.3049 322.069,-32.1477"/>
</g>
</g>
</svg>
