<?xml version="1.0" encoding="UTF-8" standalone="no"?>
<!DOCTYPE svg PUBLIC "-//W3C//DTD SVG 1.1//EN"
 "http://www.w3.org/Graphics/SVG/1.1/DTD/svg11.dtd">
<!-- Generated by graphviz version 2.38.0 (20140413.2041)
 -->
<!-- Title: HydroCoupleCore::Data::IAdaptedOutputFactoryComponentInfo Pages: 1 -->
<svg width="217pt" height="637pt"
 viewBox="0.00 0.00 216.89 637.00" xmlns="http://www.w3.org/2000/svg" xmlns:xlink="http://www.w3.org/1999/xlink">
<g id="graph0" class="graph" transform="scale(1 1) rotate(0) translate(4 633)">
<title>HydroCoupleCore::Data::IAdaptedOutputFactoryComponentInfo</title>
<polygon fill="white" stroke="none" points="-4,4 -4,-633 212.891,-633 212.891,4 -4,4"/>
<!-- Node1 -->
<g id="node1" class="node"><title>Node1</title>
<polygon fill="#bfbfbf" stroke="black" points="0,-0.5 0,-74.5 208.891,-74.5 208.891,-0.5 0,-0.5"/>
<text text-anchor="start" x="8" y="-62.5" font-family="Helvetica,sans-Serif" font-size="10.00">HydroCoupleCore::Data</text>
<text text-anchor="middle" x="104.445" y="-52.5" font-family="Helvetica,sans-Serif" font-size="10.00">::IAdaptedOutputFactoryComponentInfo</text>
<polyline fill="none" stroke="black" points="0,-46.5 208.891,-46.5 "/>
<text text-anchor="middle" x="104.445" y="-34.5" font-family="Helvetica,sans-Serif" font-size="10.00"> </text>
<polyline fill="none" stroke="black" points="0,-28.5 208.891,-28.5 "/>
<text text-anchor="start" x="8" y="-16.5" font-family="Helvetica,sans-Serif" font-size="10.00">+ ~IAdaptedOutputFactoryComponentInfo()</text>
<text text-anchor="start" x="8" y="-6.5" font-family="Helvetica,sans-Serif" font-size="10.00">+ createComponentInstance()</text>
</g>
<!-- Node2 -->
<g id="node2" class="node"><title>Node2</title>
<g id="a_node2"><a xlink:href="class_hydro_couple_core_1_1_i_component_info.html" target="_top" xlink:title="IComponentInfo interface class provides detailed metadata about a component. ">
<polygon fill="white" stroke="black" points="18.0688,-111.5 18.0688,-295.5 190.822,-295.5 190.822,-111.5 18.0688,-111.5"/>
<text text-anchor="middle" x="104.445" y="-283.5" font-family="Helvetica,sans-Serif" font-size="10.00">HydroCoupleCore::IComponentInfo</text>
<polyline fill="none" stroke="black" points="18.0688,-277.5 190.822,-277.5 "/>
<text text-anchor="middle" x="104.445" y="-265.5" font-family="Helvetica,sans-Serif" font-size="10.00"> </text>
<polyline fill="none" stroke="black" points="18.0688,-259.5 190.822,-259.5 "/>
<text text-anchor="start" x="26.0688" y="-247.5" font-family="Helvetica,sans-Serif" font-size="10.00">+ ~IComponentInfo()</text>
<text text-anchor="start" x="26.0688" y="-237.5" font-family="Helvetica,sans-Serif" font-size="10.00">+ name()</text>
<text text-anchor="start" x="26.0688" y="-227.5" font-family="Helvetica,sans-Serif" font-size="10.00">+ libraryFilePath()</text>
<text text-anchor="start" x="26.0688" y="-217.5" font-family="Helvetica,sans-Serif" font-size="10.00">+ setLibraryFilePath()</text>
<text text-anchor="start" x="26.0688" y="-207.5" font-family="Helvetica,sans-Serif" font-size="10.00">+ iconFilePath()</text>
<text text-anchor="start" x="26.0688" y="-197.5" font-family="Helvetica,sans-Serif" font-size="10.00">+ vendor()</text>
<text text-anchor="start" x="26.0688" y="-187.5" font-family="Helvetica,sans-Serif" font-size="10.00">+ publications()</text>
<text text-anchor="start" x="26.0688" y="-177.5" font-family="Helvetica,sans-Serif" font-size="10.00">+ license()</text>
<text text-anchor="start" x="26.0688" y="-167.5" font-family="Helvetica,sans-Serif" font-size="10.00">+ copyright()</text>
<text text-anchor="start" x="26.0688" y="-157.5" font-family="Helvetica,sans-Serif" font-size="10.00">+ url()</text>
<text text-anchor="start" x="26.0688" y="-147.5" font-family="Helvetica,sans-Serif" font-size="10.00">+ email()</text>
<text text-anchor="start" x="26.0688" y="-137.5" font-family="Helvetica,sans-Serif" font-size="10.00">+ version()</text>
<text text-anchor="start" x="26.0688" y="-127.5" font-family="Helvetica,sans-Serif" font-size="10.00">+ category()</text>
<text text-anchor="start" x="26.0688" y="-117.5" font-family="Helvetica,sans-Serif" font-size="10.00">+ hasValidLicense()</text>
</a>
</g>
</g>
<!-- Node2&#45;&gt;Node1 -->
<g id="edge1" class="edge"><title>Node2&#45;&gt;Node1</title>
<path fill="none" stroke="midnightblue" d="M104.445,-101.138C104.445,-91.7973 104.445,-82.8123 104.445,-74.7062"/>
<polygon fill="none" stroke="midnightblue" points="100.945,-101.388 104.445,-111.388 107.945,-101.388 100.945,-101.388"/>
</g>
<!-- Node3 -->
<g id="node3" class="node"><title>Node3</title>
<g id="a_node3"><a xlink:href="class_hydro_couple_core_1_1_i_identity.html" target="_top" xlink:title="IIdentity interface class defines a method to get the Id of an HydroCouple entity. &#160;IIdentity extends the IDescription interface class, and therefore has, next to the id, a caption and a description. ">
<polygon fill="white" stroke="black" points="36.1377,-332.5 36.1377,-396.5 172.753,-396.5 172.753,-332.5 36.1377,-332.5"/>
<text text-anchor="middle" x="104.445" y="-384.5" font-family="Helvetica,sans-Serif" font-size="10.00">HydroCoupleCore::IIdentity</text>
<polyline fill="none" stroke="black" points="36.1377,-378.5 172.753,-378.5 "/>
<text text-anchor="middle" x="104.445" y="-366.5" font-family="Helvetica,sans-Serif" font-size="10.00"> </text>
<polyline fill="none" stroke="black" points="36.1377,-360.5 172.753,-360.5 "/>
<text text-anchor="start" x="44.1377" y="-348.5" font-family="Helvetica,sans-Serif" font-size="10.00">+ ~IIdentity()</text>
<text text-anchor="start" x="44.1377" y="-338.5" font-family="Helvetica,sans-Serif" font-size="10.00">+ id()</text>
</a>
</g>
</g>
<!-- Node3&#45;&gt;Node2 -->
<g id="edge2" class="edge"><title>Node3&#45;&gt;Node2</title>
<path fill="none" stroke="midnightblue" d="M104.445,-322.332C104.445,-313.988 104.445,-304.903 104.445,-295.601"/>
<polygon fill="none" stroke="midnightblue" points="100.945,-322.466 104.445,-332.466 107.945,-322.466 100.945,-322.466"/>
</g>
<!-- Node4 -->
<g id="node4" class="node"><title>Node4</title>
<g id="a_node4"><a xlink:href="class_hydro_couple_core_1_1_i_description.html" target="_top" xlink:title="IDescription interface class provides descriptive information on a HydroCouple object. ">
<polygon fill="white" stroke="black" points="27.2485,-433.5 27.2485,-527.5 181.642,-527.5 181.642,-433.5 27.2485,-433.5"/>
<text text-anchor="middle" x="104.445" y="-515.5" font-family="Helvetica,sans-Serif" font-size="10.00">HydroCoupleCore::IDescription</text>
<polyline fill="none" stroke="black" points="27.2485,-509.5 181.642,-509.5 "/>
<text text-anchor="middle" x="104.445" y="-497.5" font-family="Helvetica,sans-Serif" font-size="10.00"> </text>
<polyline fill="none" stroke="black" points="27.2485,-491.5 181.642,-491.5 "/>
<text text-anchor="start" x="35.2485" y="-479.5" font-family="Helvetica,sans-Serif" font-size="10.00">+ ~IDescription()</text>
<text text-anchor="start" x="35.2485" y="-469.5" font-family="Helvetica,sans-Serif" font-size="10.00">+ getCaption()</text>
<text text-anchor="start" x="35.2485" y="-459.5" font-family="Helvetica,sans-Serif" font-size="10.00">+ setCaption()</text>
<text text-anchor="start" x="35.2485" y="-449.5" font-family="Helvetica,sans-Serif" font-size="10.00">+ getDescription()</text>
<text text-anchor="start" x="35.2485" y="-439.5" font-family="Helvetica,sans-Serif" font-size="10.00">+ setDescription()</text>
</a>
</g>
</g>
<!-- Node4&#45;&gt;Node3 -->
<g id="edge3" class="edge"><title>Node4&#45;&gt;Node3</title>
<path fill="none" stroke="midnightblue" d="M104.445,-423.212C104.445,-414.081 104.445,-404.926 104.445,-396.684"/>
<polygon fill="none" stroke="midnightblue" points="100.945,-423.46 104.445,-433.46 107.945,-423.46 100.945,-423.46"/>
</g>
<!-- Node5 -->
<g id="node5" class="node"><title>Node5</title>
<g id="a_node5"><a xlink:href="class_hydro_couple_core_1_1_i_property_changed.html" target="_top" xlink:title="IPropertyChanged interface is used to emit signal/event when a property of an object changes...">
<polygon fill="white" stroke="black" points="33.3618,-564.5 33.3618,-628.5 175.529,-628.5 175.529,-564.5 33.3618,-564.5"/>
<text text-anchor="start" x="41.3618" y="-616.5" font-family="Helvetica,sans-Serif" font-size="10.00">HydroCoupleCore::IProperty</text>
<text text-anchor="middle" x="104.445" y="-606.5" font-family="Helvetica,sans-Serif" font-size="10.00">Changed</text>
<polyline fill="none" stroke="black" points="33.3618,-600.5 175.529,-600.5 "/>
<text text-anchor="middle" x="104.445" y="-588.5" font-family="Helvetica,sans-Serif" font-size="10.00"> </text>
<polyline fill="none" stroke="black" points="33.3618,-582.5 175.529,-582.5 "/>
<text text-anchor="start" x="41.3618" y="-570.5" font-family="Helvetica,sans-Serif" font-size="10.00">+ ~IPropertyChanged()</text>
</a>
</g>
</g>
<!-- Node5&#45;&gt;Node4 -->
<g id="edge4" class="edge"><title>Node5&#45;&gt;Node4</title>
<path fill="none" stroke="midnightblue" d="M104.445,-554.141C104.445,-545.513 104.445,-536.367 104.445,-527.581"/>
<polygon fill="none" stroke="midnightblue" points="100.945,-554.349 104.445,-564.349 107.945,-554.349 100.945,-554.349"/>
</g>
</g>
</svg>
