<?xml version="1.0" encoding="UTF-8" standalone="no"?>
<!DOCTYPE svg PUBLIC "-//W3C//DTD SVG 1.1//EN"
 "http://www.w3.org/Graphics/SVG/1.1/DTD/svg11.dtd">
<!-- Generated by graphviz version 2.38.0 (20140413.2041)
 -->
<!-- Title: HydroCouple::SpatioTemporal::ITimeTINArgument::~ITimeTINArgument Pages: 1 -->
<svg width="424pt" height="57pt"
 viewBox="0.00 0.00 424.06 57.00" xmlns="http://www.w3.org/2000/svg" xmlns:xlink="http://www.w3.org/1999/xlink">
<g id="graph0" class="graph" transform="scale(1 1) rotate(0) translate(4 53.0049)">
<title>HydroCouple::SpatioTemporal::ITimeTINArgument::~ITimeTINArgument</title>
<polygon fill="white" stroke="none" points="-4,4 -4,-53.0049 420.057,-53.0049 420.057,4 -4,4"/>
<!-- Node1 -->
<g id="node1" class="node"><title>Node1</title>
<polygon fill="#bfbfbf" stroke="black" points="0,-7.16748 0,-41.8374 238.036,-41.8374 238.036,-7.16748 0,-7.16748"/>
<text text-anchor="start" x="8" y="-29.8374" font-family="Monaco" font-size="10.00">HydroCouple::SpatioTemporal</text>
<text text-anchor="middle" x="119.018" y="-16.5024" font-family="Monaco" font-size="10.00">::ITimeTINArgument::~ITimeTINArgument</text>
</g>
<!-- Node2 -->
<g id="node2" class="node"><title>Node2</title>
<g id="a_node2"><a xlink:href="class_hydro_couple_1_1_temporal_1_1_i_time_component_item.html#ae64e3f2a6b5e107624d7aeaf29017373" target="_top" xlink:title="ITimes associated with this dimension. ">
<polygon fill="white" stroke="black" points="274.036,-0.5 274.036,-48.5049 416.057,-48.5049 416.057,-0.5 274.036,-0.5"/>
<text text-anchor="start" x="282.036" y="-36.5049" font-family="Monaco" font-size="10.00">HydroCouple::Temporal</text>
<text text-anchor="start" x="282.036" y="-23.1699" font-family="Monaco" font-size="10.00">::ITimeComponentItem</text>
<text text-anchor="middle" x="345.046" y="-9.83496" font-family="Monaco" font-size="10.00">::times</text>
</a>
</g>
</g>
<!-- Node1&#45;&gt;Node2 -->
<g id="edge1" class="edge"><title>Node1&#45;&gt;Node2</title>
<path fill="none" stroke="midnightblue" d="M238.265,-24.5024C246.939,-24.5024 255.563,-24.5024 263.929,-24.5024"/>
<polygon fill="midnightblue" stroke="midnightblue" points="263.991,-28.0025 273.99,-24.5024 263.99,-21.0025 263.991,-28.0025"/>
</g>
</g>
</svg>
