<?xml version="1.0" encoding="UTF-8" standalone="no"?>
<!DOCTYPE svg PUBLIC "-//W3C//DTD SVG 1.1//EN"
 "http://www.w3.org/Graphics/SVG/1.1/DTD/svg11.dtd">
<!-- Generated by graphviz version 2.38.0 (20140413.2041)
 -->
<!-- Title: HydroCouple::Temporal::IDateTime::~IDateTime Pages: 1 -->
<svg width="412pt" height="98pt"
 viewBox="0.00 0.00 412.05 97.67" xmlns="http://www.w3.org/2000/svg" xmlns:xlink="http://www.w3.org/1999/xlink">
<g id="graph0" class="graph" transform="scale(1 1) rotate(0) translate(4 93.6699)">
<title>HydroCouple::Temporal::IDateTime::~IDateTime</title>
<!-- Node1 -->
<g id="node1" class="node"><title>Node1</title>
<polygon fill="#bfbfbf" stroke="black" points="0,-27.5 0,-62.1699 154.022,-62.1699 154.022,-27.5 0,-27.5"/>
<text text-anchor="start" x="8" y="-50.1699" font-family="Monaco" font-size="10.00">HydroCouple::Temporal</text>
<text text-anchor="middle" x="77.0112" y="-36.835" font-family="Monaco" font-size="10.00">::IDateTime::~IDateTime</text>
</g>
<!-- Node2 -->
<g id="node2" class="node"><title>Node2</title>
<g id="a_node2"><a xlink:href="class_hydro_couple_1_1_temporal_1_1_i_date_time.html#a401f1fd3c8a3305dbeb025df3e1f484e" target="_top" xlink:title="Date and time as a modified julian day value. MJD = JD &#45; 2400000.5. ">
<polygon fill="none" stroke="black" points="199.024,-54.5 199.024,-89.1699 395.053,-89.1699 395.053,-54.5 199.024,-54.5"/>
<text text-anchor="start" x="207.024" y="-77.1699" font-family="Monaco" font-size="10.00">HydroCouple::Temporal</text>
<text text-anchor="middle" x="297.039" y="-63.835" font-family="Monaco" font-size="10.00">::IDateTime::modifiedJulianDay</text>
</a>
</g>
</g>
<!-- Node1&#45;&gt;Node2 -->
<g id="edge1" class="edge"><title>Node1&#45;&gt;Node2</title>
<path fill="none" stroke="midnightblue" d="M154.267,-54.2783C165.379,-55.6544 176.992,-57.0925 188.581,-58.5277"/>
<polygon fill="midnightblue" stroke="midnightblue" points="188.392,-62.031 198.747,-59.7866 189.253,-55.084 188.392,-62.031"/>
</g>
<!-- Node3 -->
<g id="node3" class="node"><title>Node3</title>
<g id="a_node3"><a xlink:href="class_hydro_couple_1_1_temporal_1_1_i_date_time.html#a0563741ff314c413143028080d78c95e" target="_top" xlink:title="setDateTime ">
<polygon fill="none" stroke="black" points="190.022,-0.5 190.022,-35.1699 404.055,-35.1699 404.055,-0.5 190.022,-0.5"/>
<text text-anchor="start" x="198.022" y="-23.1699" font-family="Monaco" font-size="10.00">HydroCouple::Temporal</text>
<text text-anchor="middle" x="297.039" y="-9.83496" font-family="Monaco" font-size="10.00">::IDateTime::setModifiedJulianDay</text>
</a>
</g>
</g>
<!-- Node1&#45;&gt;Node3 -->
<g id="edge2" class="edge"><title>Node1&#45;&gt;Node3</title>
<path fill="none" stroke="midnightblue" d="M154.267,-35.3917C162.563,-34.3642 171.139,-33.3023 179.775,-32.2327"/>
<polygon fill="midnightblue" stroke="midnightblue" points="180.435,-35.6779 189.929,-30.9753 179.575,-28.7309 180.435,-35.6779"/>
</g>
</g>
</svg>
