<?xml version="1.0" encoding="UTF-8" standalone="no"?>
<!DOCTYPE svg PUBLIC "-//W3C//DTD SVG 1.1//EN"
 "http://www.w3.org/Graphics/SVG/1.1/DTD/svg11.dtd">
<!-- Generated by graphviz version 2.38.0 (20140413.2041)
 -->
<!-- Title: HydroCouple::Data::IValueSet Pages: 1 -->
<svg width="169pt" height="355pt"
 viewBox="0.00 0.00 169.08 355.00" xmlns="http://www.w3.org/2000/svg" xmlns:xlink="http://www.w3.org/1999/xlink">
<g id="graph0" class="graph" transform="scale(1 1) rotate(0) translate(4 351)">
<title>HydroCouple::Data::IValueSet</title>
<polygon fill="white" stroke="none" points="-4,4 -4,-351 165.083,-351 165.083,4 -4,4"/>
<!-- Node1 -->
<g id="node1" class="node"><title>Node1</title>
<polygon fill="#bfbfbf" stroke="black" points="19.0381,-0.5 19.0381,-124.5 142.045,-124.5 142.045,-0.5 19.0381,-0.5"/>
<text text-anchor="start" x="27.0381" y="-112.5" font-family="Helvetica,sans-Serif" font-size="10.00">HydroCouple::Data::</text>
<text text-anchor="middle" x="80.5415" y="-102.5" font-family="Helvetica,sans-Serif" font-size="10.00">IValueSet</text>
<polyline fill="none" stroke="black" points="19.0381,-96.5 142.045,-96.5 "/>
<text text-anchor="middle" x="80.5415" y="-84.5" font-family="Helvetica,sans-Serif" font-size="10.00"> </text>
<polyline fill="none" stroke="black" points="19.0381,-78.5 142.045,-78.5 "/>
<text text-anchor="start" x="27.0381" y="-66.5" font-family="Helvetica,sans-Serif" font-size="10.00">+ ~IValueSet()</text>
<text text-anchor="start" x="27.0381" y="-56.5" font-family="Helvetica,sans-Serif" font-size="10.00">+ componentItem()</text>
<text text-anchor="start" x="27.0381" y="-46.5" font-family="Helvetica,sans-Serif" font-size="10.00">+ dimensions()</text>
<text text-anchor="start" x="27.0381" y="-36.5" font-family="Helvetica,sans-Serif" font-size="10.00">+ getDimensionLength()</text>
<text text-anchor="start" x="27.0381" y="-26.5" font-family="Helvetica,sans-Serif" font-size="10.00">+ getValue()</text>
<text text-anchor="start" x="27.0381" y="-16.5" font-family="Helvetica,sans-Serif" font-size="10.00">+ setValue()</text>
<text text-anchor="start" x="27.0381" y="-6.5" font-family="Helvetica,sans-Serif" font-size="10.00">+ valueDefinition()</text>
</g>
<!-- Node2 -->
<g id="node2" class="node"><title>Node2</title>
<g id="a_node2"><a xlink:href="class_hydro_couple_1_1_i_description.html" target="_top" xlink:title="IDescription interface class provides descriptive information on a HydroCouple object. ">
<polygon fill="white" stroke="black" points="14.1821,-161.5 14.1821,-255.5 146.901,-255.5 146.901,-161.5 14.1821,-161.5"/>
<text text-anchor="middle" x="80.5415" y="-243.5" font-family="Helvetica,sans-Serif" font-size="10.00">HydroCouple::IDescription</text>
<polyline fill="none" stroke="black" points="14.1821,-237.5 146.901,-237.5 "/>
<text text-anchor="middle" x="80.5415" y="-225.5" font-family="Helvetica,sans-Serif" font-size="10.00"> </text>
<polyline fill="none" stroke="black" points="14.1821,-219.5 146.901,-219.5 "/>
<text text-anchor="start" x="22.1821" y="-207.5" font-family="Helvetica,sans-Serif" font-size="10.00">+ ~IDescription()</text>
<text text-anchor="start" x="22.1821" y="-197.5" font-family="Helvetica,sans-Serif" font-size="10.00">+ getCaption()</text>
<text text-anchor="start" x="22.1821" y="-187.5" font-family="Helvetica,sans-Serif" font-size="10.00">+ setCaption()</text>
<text text-anchor="start" x="22.1821" y="-177.5" font-family="Helvetica,sans-Serif" font-size="10.00">+ getDescription()</text>
<text text-anchor="start" x="22.1821" y="-167.5" font-family="Helvetica,sans-Serif" font-size="10.00">+ setDescription()</text>
</a>
</g>
</g>
<!-- Node2&#45;&gt;Node1 -->
<g id="edge1" class="edge"><title>Node2&#45;&gt;Node1</title>
<path fill="none" stroke="midnightblue" d="M80.5415,-150.871C80.5415,-142.295 80.5415,-133.415 80.5415,-124.747"/>
<polygon fill="none" stroke="midnightblue" points="77.0416,-151.145 80.5415,-161.145 84.0416,-151.145 77.0416,-151.145"/>
</g>
<!-- Node3 -->
<g id="node3" class="node"><title>Node3</title>
<g id="a_node3"><a xlink:href="class_hydro_couple_1_1_i_property_changed.html" target="_top" xlink:title="IPropertyChanged interface is used to emit signal/event when a property of an object changes...">
<polygon fill="white" stroke="black" points="0,-292.5 0,-346.5 161.083,-346.5 161.083,-292.5 0,-292.5"/>
<text text-anchor="middle" x="80.5415" y="-334.5" font-family="Helvetica,sans-Serif" font-size="10.00">HydroCouple::IPropertyChanged</text>
<polyline fill="none" stroke="black" points="0,-328.5 161.083,-328.5 "/>
<text text-anchor="middle" x="80.5415" y="-316.5" font-family="Helvetica,sans-Serif" font-size="10.00"> </text>
<polyline fill="none" stroke="black" points="0,-310.5 161.083,-310.5 "/>
<text text-anchor="start" x="8" y="-298.5" font-family="Helvetica,sans-Serif" font-size="10.00">+ ~IPropertyChanged()</text>
</a>
</g>
</g>
<!-- Node3&#45;&gt;Node2 -->
<g id="edge2" class="edge"><title>Node3&#45;&gt;Node2</title>
<path fill="none" stroke="midnightblue" d="M80.5415,-282.141C80.5415,-273.716 80.5415,-264.639 80.5415,-255.851"/>
<polygon fill="none" stroke="midnightblue" points="77.0416,-282.392 80.5415,-292.392 84.0416,-282.392 77.0416,-282.392"/>
</g>
</g>
</svg>
