<?xml version="1.0" encoding="UTF-8" standalone="no"?>
<!DOCTYPE svg PUBLIC "-//W3C//DTD SVG 1.1//EN"
 "http://www.w3.org/Graphics/SVG/1.1/DTD/svg11.dtd">
<!-- Generated by graphviz version 2.38.0 (20140413.2041)
 -->
<!-- Title: HydroCouple::Spatial::ITINOnlyComponentDataItem Pages: 1 -->
<svg width="334pt" height="1026pt"
 viewBox="0.00 0.00 334.02 1025.74" xmlns="http://www.w3.org/2000/svg" xmlns:xlink="http://www.w3.org/1999/xlink">
<g id="graph0" class="graph" transform="scale(1 1) rotate(0) translate(4 1021.74)">
<title>HydroCouple::Spatial::ITINOnlyComponentDataItem</title>
<!-- Node1 -->
<g id="node1" class="node"><title>Node1</title>
<polygon fill="#bfbfbf" stroke="black" points="58.9956,-114.84 58.9956,-272.189 255.025,-272.189 255.025,-114.84 58.9956,-114.84"/>
<text text-anchor="start" x="66.9956" y="-260.189" font-family="Monaco" font-size="10.00">HydroCouple::Spatial</text>
<text text-anchor="middle" x="157.01" y="-246.854" font-family="Monaco" font-size="10.00">::ITINOnlyComponentDataItem</text>
<polyline fill="none" stroke="black" points="58.9956,-237.52 255.025,-237.52 "/>
<text text-anchor="middle" x="157.01" y="-225.52" font-family="Monaco" font-size="10.00"> </text>
<polyline fill="none" stroke="black" points="58.9956,-216.185 255.025,-216.185 "/>
<text text-anchor="start" x="66.9956" y="-204.185" font-family="Monaco" font-size="10.00">+ ~ITINOnlyComponentDataItem()</text>
<text text-anchor="start" x="66.9956" y="-190.85" font-family="Monaco" font-size="10.00">+ getValue()</text>
<text text-anchor="start" x="66.9956" y="-177.515" font-family="Monaco" font-size="10.00">+ getValues()</text>
<text text-anchor="start" x="66.9956" y="-164.18" font-family="Monaco" font-size="10.00">+ getValues()</text>
<text text-anchor="start" x="66.9956" y="-150.845" font-family="Monaco" font-size="10.00">+ setValue()</text>
<text text-anchor="start" x="66.9956" y="-137.51" font-family="Monaco" font-size="10.00">+ setValues()</text>
<text text-anchor="start" x="66.9956" y="-124.175" font-family="Monaco" font-size="10.00">+ setValues()</text>
</g>
<!-- Node7 -->
<g id="node7" class="node"><title>Node7</title>
<g id="a_node7"><a xlink:href="class_hydro_couple_1_1_spatial_1_1_i_t_i_n_only_argument.html" target="_top" xlink:title="The ITINArgument class. ">
<polygon fill="none" stroke="black" points="0,-0.5 0,-77.8398 142.021,-77.8398 142.021,-0.5 0,-0.5"/>
<text text-anchor="start" x="8" y="-65.8398" font-family="Monaco" font-size="10.00">HydroCouple::Spatial</text>
<text text-anchor="middle" x="71.0103" y="-52.5049" font-family="Monaco" font-size="10.00">::ITINOnlyArgument</text>
<polyline fill="none" stroke="black" points="0,-43.1699 142.021,-43.1699 "/>
<text text-anchor="middle" x="71.0103" y="-31.1699" font-family="Monaco" font-size="10.00"> </text>
<polyline fill="none" stroke="black" points="0,-21.835 142.021,-21.835 "/>
<text text-anchor="start" x="8" y="-9.83496" font-family="Monaco" font-size="10.00">+ ~ITINOnlyArgument()</text>
</a>
</g>
</g>
<!-- Node1&#45;&gt;Node7 -->
<g id="edge6" class="edge"><title>Node1&#45;&gt;Node7</title>
<path fill="none" stroke="midnightblue" d="M107.963,-105.63C102.505,-95.9614 97.1796,-86.5277 92.3481,-77.9688"/>
<polygon fill="none" stroke="midnightblue" points="105.039,-107.569 113.003,-114.557 111.134,-104.128 105.039,-107.569"/>
</g>
<!-- Node8 -->
<g id="node8" class="node"><title>Node8</title>
<g id="a_node8"><a xlink:href="class_hydro_couple_1_1_spatial_1_1_i_t_i_n_only_exchange_item.html" target="_top" xlink:title="An ITINOnlyExchangeItem class with an TIN component. ">
<polygon fill="none" stroke="black" points="159.998,-0.5 159.998,-77.8398 326.022,-77.8398 326.022,-0.5 159.998,-0.5"/>
<text text-anchor="start" x="167.998" y="-65.8398" font-family="Monaco" font-size="10.00">HydroCouple::Spatial</text>
<text text-anchor="middle" x="243.01" y="-52.5049" font-family="Monaco" font-size="10.00">::ITINOnlyExchangeItem</text>
<polyline fill="none" stroke="black" points="159.998,-43.1699 326.022,-43.1699 "/>
<text text-anchor="middle" x="243.01" y="-31.1699" font-family="Monaco" font-size="10.00"> </text>
<polyline fill="none" stroke="black" points="159.998,-21.835 326.022,-21.835 "/>
<text text-anchor="start" x="167.998" y="-9.83496" font-family="Monaco" font-size="10.00">+ ~ITINOnlyExchangeItem()</text>
</a>
</g>
</g>
<!-- Node1&#45;&gt;Node8 -->
<g id="edge7" class="edge"><title>Node1&#45;&gt;Node8</title>
<path fill="none" stroke="midnightblue" d="M206.057,-105.63C211.515,-95.9614 216.841,-86.5277 221.672,-77.9688"/>
<polygon fill="none" stroke="midnightblue" points="202.886,-104.128 201.018,-114.557 208.982,-107.569 202.886,-104.128"/>
</g>
<!-- Node2 -->
<g id="node2" class="node"><title>Node2</title>
<g id="a_node2"><a xlink:href="class_hydro_couple_1_1_spatial_1_1_i_t_i_n_component_data_item.html" target="_top" xlink:title="ITINComponentDataItem represents ITIN IComponentDataItem. ">
<polygon fill="none" stroke="black" points="70.9976,-309.189 70.9976,-426.534 243.023,-426.534 243.023,-309.189 70.9976,-309.189"/>
<text text-anchor="start" x="78.9976" y="-414.534" font-family="Monaco" font-size="10.00">HydroCouple::Spatial</text>
<text text-anchor="middle" x="157.01" y="-401.199" font-family="Monaco" font-size="10.00">::ITINComponentDataItem</text>
<polyline fill="none" stroke="black" points="70.9976,-391.864 243.023,-391.864 "/>
<text text-anchor="middle" x="157.01" y="-379.864" font-family="Monaco" font-size="10.00"> </text>
<polyline fill="none" stroke="black" points="70.9976,-370.529 243.023,-370.529 "/>
<text text-anchor="start" x="78.9976" y="-358.529" font-family="Monaco" font-size="10.00">+ ~ITINComponentDataItem()</text>
<text text-anchor="start" x="78.9976" y="-345.194" font-family="Monaco" font-size="10.00">+ TIN()</text>
<text text-anchor="start" x="78.9976" y="-331.859" font-family="Monaco" font-size="10.00">+ triangle()</text>
<text text-anchor="start" x="78.9976" y="-318.524" font-family="Monaco" font-size="10.00">+ TINPatchDimension()</text>
</a>
</g>
</g>
<!-- Node2&#45;&gt;Node1 -->
<g id="edge1" class="edge"><title>Node2&#45;&gt;Node1</title>
<path fill="none" stroke="midnightblue" d="M157.01,-298.928C157.01,-290.232 157.01,-281.277 157.01,-272.439"/>
<polygon fill="none" stroke="midnightblue" points="153.51,-298.993 157.01,-308.993 160.51,-298.993 153.51,-298.993"/>
</g>
<!-- Node3 -->
<g id="node3" class="node"><title>Node3</title>
<g id="a_node3"><a xlink:href="class_hydro_couple_1_1_i_component_data_item.html" target="_top" xlink:title="IComponentItem is a fundamental unit of data for a component. ">
<polygon fill="none" stroke="black" points="55.9951,-463.534 55.9951,-647.554 258.025,-647.554 258.025,-463.534 55.9951,-463.534"/>
<text text-anchor="middle" x="157.01" y="-635.554" font-family="Monaco" font-size="10.00">HydroCouple::IComponentDataItem</text>
<polyline fill="none" stroke="black" points="55.9951,-626.219 258.025,-626.219 "/>
<text text-anchor="middle" x="157.01" y="-614.219" font-family="Monaco" font-size="10.00"> </text>
<polyline fill="none" stroke="black" points="55.9951,-604.884 258.025,-604.884 "/>
<text text-anchor="start" x="63.9951" y="-592.884" font-family="Monaco" font-size="10.00">+ ~IComponentDataItem()</text>
<text text-anchor="start" x="63.9951" y="-579.549" font-family="Monaco" font-size="10.00">+ modelComponent()</text>
<text text-anchor="start" x="63.9951" y="-566.214" font-family="Monaco" font-size="10.00">+ dimensions()</text>
<text text-anchor="start" x="63.9951" y="-552.879" font-family="Monaco" font-size="10.00">+ valueDefinition()</text>
<text text-anchor="start" x="63.9951" y="-539.544" font-family="Monaco" font-size="10.00">+ getValue()</text>
<text text-anchor="start" x="63.9951" y="-526.209" font-family="Monaco" font-size="10.00">+ getValues()</text>
<text text-anchor="start" x="63.9951" y="-512.874" font-family="Monaco" font-size="10.00">+ getValues()</text>
<text text-anchor="start" x="63.9951" y="-499.539" font-family="Monaco" font-size="10.00">+ setValue()</text>
<text text-anchor="start" x="63.9951" y="-486.204" font-family="Monaco" font-size="10.00">+ setValues()</text>
<text text-anchor="start" x="63.9951" y="-472.869" font-family="Monaco" font-size="10.00">+ setValues()</text>
</a>
</g>
</g>
<!-- Node3&#45;&gt;Node2 -->
<g id="edge2" class="edge"><title>Node3&#45;&gt;Node2</title>
<path fill="none" stroke="midnightblue" d="M157.01,-453.112C157.01,-444.083 157.01,-435.163 157.01,-426.698"/>
<polygon fill="none" stroke="midnightblue" points="153.51,-453.335 157.01,-463.335 160.51,-453.335 153.51,-453.335"/>
</g>
<!-- Node4 -->
<g id="node4" class="node"><title>Node4</title>
<g id="a_node4"><a xlink:href="class_hydro_couple_1_1_i_identity.html" target="_top" xlink:title="IIdentity interface class defines a method to get the Id of an HydroCouple entity. ">
<polygon fill="none" stroke="black" points="82.9995,-684.554 82.9995,-761.894 231.021,-761.894 231.021,-684.554 82.9995,-684.554"/>
<text text-anchor="middle" x="157.01" y="-749.894" font-family="Monaco" font-size="10.00">HydroCouple::IIdentity</text>
<polyline fill="none" stroke="black" points="82.9995,-740.559 231.021,-740.559 "/>
<text text-anchor="middle" x="157.01" y="-728.559" font-family="Monaco" font-size="10.00"> </text>
<polyline fill="none" stroke="black" points="82.9995,-719.224 231.021,-719.224 "/>
<text text-anchor="start" x="90.9995" y="-707.224" font-family="Monaco" font-size="10.00">+ ~IIdentity()</text>
<text text-anchor="start" x="90.9995" y="-693.889" font-family="Monaco" font-size="10.00">+ id()</text>
</a>
</g>
</g>
<!-- Node4&#45;&gt;Node3 -->
<g id="edge3" class="edge"><title>Node4&#45;&gt;Node3</title>
<path fill="none" stroke="midnightblue" d="M157.01,-673.971C157.01,-665.618 157.01,-656.693 157.01,-647.635"/>
<polygon fill="none" stroke="midnightblue" points="153.51,-674.213 157.01,-684.213 160.51,-674.213 153.51,-674.213"/>
</g>
<!-- Node5 -->
<g id="node5" class="node"><title>Node5</title>
<g id="a_node5"><a xlink:href="class_hydro_couple_1_1_i_description.html" target="_top" xlink:title="IDescription interface class provides descriptive information on a HydroCouple object. ">
<polygon fill="none" stroke="black" points="73.998,-798.894 73.998,-916.238 240.022,-916.238 240.022,-798.894 73.998,-798.894"/>
<text text-anchor="middle" x="157.01" y="-904.238" font-family="Monaco" font-size="10.00">HydroCouple::IDescription</text>
<polyline fill="none" stroke="black" points="73.998,-894.903 240.022,-894.903 "/>
<text text-anchor="middle" x="157.01" y="-882.903" font-family="Monaco" font-size="10.00"> </text>
<polyline fill="none" stroke="black" points="73.998,-873.568 240.022,-873.568 "/>
<text text-anchor="start" x="81.998" y="-861.568" font-family="Monaco" font-size="10.00">+ ~IDescription()</text>
<text text-anchor="start" x="81.998" y="-848.233" font-family="Monaco" font-size="10.00">+ caption()</text>
<text text-anchor="start" x="81.998" y="-834.898" font-family="Monaco" font-size="10.00">+ setCaption()</text>
<text text-anchor="start" x="81.998" y="-821.563" font-family="Monaco" font-size="10.00">+ description()</text>
<text text-anchor="start" x="81.998" y="-808.229" font-family="Monaco" font-size="10.00">+ setDescription()</text>
</a>
</g>
</g>
<!-- Node5&#45;&gt;Node4 -->
<g id="edge4" class="edge"><title>Node5&#45;&gt;Node4</title>
<path fill="none" stroke="midnightblue" d="M157.01,-788.328C157.01,-779.289 157.01,-770.301 157.01,-762.041"/>
<polygon fill="none" stroke="midnightblue" points="153.51,-788.519 157.01,-798.519 160.51,-788.519 153.51,-788.519"/>
</g>
<!-- Node6 -->
<g id="node6" class="node"><title>Node6</title>
<g id="a_node6"><a xlink:href="class_hydro_couple_1_1_i_property_changed.html" target="_top" xlink:title="IPropertyChanged interface is used to emit signal/event when a property of an object changes...">
<polygon fill="none" stroke="black" points="61.9961,-953.238 61.9961,-1017.24 252.024,-1017.24 252.024,-953.238 61.9961,-953.238"/>
<text text-anchor="middle" x="157.01" y="-1005.24" font-family="Monaco" font-size="10.00">HydroCouple::IPropertyChanged</text>
<polyline fill="none" stroke="black" points="61.9961,-995.908 252.024,-995.908 "/>
<text text-anchor="middle" x="157.01" y="-983.908" font-family="Monaco" font-size="10.00"> </text>
<polyline fill="none" stroke="black" points="61.9961,-974.573 252.024,-974.573 "/>
<text text-anchor="start" x="69.9961" y="-962.573" font-family="Monaco" font-size="10.00">+ ~IPropertyChanged()</text>
</a>
</g>
</g>
<!-- Node6&#45;&gt;Node5 -->
<g id="edge5" class="edge"><title>Node6&#45;&gt;Node5</title>
<path fill="none" stroke="midnightblue" d="M157.01,-942.918C157.01,-934.533 157.01,-925.566 157.01,-916.724"/>
<polygon fill="none" stroke="midnightblue" points="153.51,-943.175 157.01,-953.175 160.51,-943.175 153.51,-943.175"/>
</g>
</g>
</svg>
