<?xml version="1.0" encoding="UTF-8" standalone="no"?>
<!DOCTYPE svg PUBLIC "-//W3C//DTD SVG 1.1//EN"
 "http://www.w3.org/Graphics/SVG/1.1/DTD/svg11.dtd">
<!-- Generated by graphviz version 2.38.0 (20140413.2041)
 -->
<!-- Title: HydroCouple::Data::IComponentItem Pages: 1 -->
<svg width="439pt" height="959pt"
 viewBox="0.00 0.00 438.78 959.00" xmlns="http://www.w3.org/2000/svg" xmlns:xlink="http://www.w3.org/1999/xlink">
<g id="graph0" class="graph" transform="scale(1 1) rotate(0) translate(4 955)">
<title>HydroCouple::Data::IComponentItem</title>
<polygon fill="white" stroke="none" points="-4,4 -4,-955 434.783,-955 434.783,4 -4,4"/>
<!-- Node1 -->
<g id="node1" class="node"><title>Node1</title>
<polygon fill="#bfbfbf" stroke="black" points="145.028,-543.5 145.028,-627.5 256.072,-627.5 256.072,-543.5 145.028,-543.5"/>
<text text-anchor="start" x="153.028" y="-615.5" font-family="Helvetica,sans-Serif" font-size="10.00">HydroCouple::Data::</text>
<text text-anchor="middle" x="200.55" y="-605.5" font-family="Helvetica,sans-Serif" font-size="10.00">IComponentItem</text>
<polyline fill="none" stroke="black" points="145.028,-599.5 256.072,-599.5 "/>
<text text-anchor="middle" x="200.55" y="-587.5" font-family="Helvetica,sans-Serif" font-size="10.00"> </text>
<polyline fill="none" stroke="black" points="145.028,-581.5 256.072,-581.5 "/>
<text text-anchor="start" x="153.028" y="-569.5" font-family="Helvetica,sans-Serif" font-size="10.00">+ ~IComponentItem()</text>
<text text-anchor="start" x="153.028" y="-559.5" font-family="Helvetica,sans-Serif" font-size="10.00">+ modelComponent()</text>
<text text-anchor="start" x="153.028" y="-549.5" font-family="Helvetica,sans-Serif" font-size="10.00">+ dimensions()</text>
</g>
<!-- Node5 -->
<g id="node5" class="node"><title>Node5</title>
<g id="a_node5"><a xlink:href="class_hydro_couple_1_1_data_1_1_i_argument.html" target="_top" xlink:title="IArgument interface class used to set the arguments for components. They can be complex or simple mul...">
<polygon fill="white" stroke="black" points="0,-332.5 0,-506.5 129.101,-506.5 129.101,-332.5 0,-332.5"/>
<text text-anchor="start" x="8" y="-494.5" font-family="Helvetica,sans-Serif" font-size="10.00">HydroCouple::Data::</text>
<text text-anchor="middle" x="64.5503" y="-484.5" font-family="Helvetica,sans-Serif" font-size="10.00">IArgument</text>
<polyline fill="none" stroke="black" points="0,-478.5 129.101,-478.5 "/>
<text text-anchor="middle" x="64.5503" y="-466.5" font-family="Helvetica,sans-Serif" font-size="10.00"> </text>
<polyline fill="none" stroke="black" points="0,-460.5 129.101,-460.5 "/>
<text text-anchor="start" x="8" y="-448.5" font-family="Helvetica,sans-Serif" font-size="10.00">+ ~IArgument()</text>
<text text-anchor="start" x="8" y="-438.5" font-family="Helvetica,sans-Serif" font-size="10.00">+ isOptional()</text>
<text text-anchor="start" x="8" y="-428.5" font-family="Helvetica,sans-Serif" font-size="10.00">+ isReadOnly()</text>
<text text-anchor="start" x="8" y="-418.5" font-family="Helvetica,sans-Serif" font-size="10.00">+ clone()</text>
<text text-anchor="start" x="8" y="-408.5" font-family="Helvetica,sans-Serif" font-size="10.00">+ valueSets()</text>
<text text-anchor="start" x="8" y="-398.5" font-family="Helvetica,sans-Serif" font-size="10.00">+ toString()</text>
<text text-anchor="start" x="8" y="-388.5" font-family="Helvetica,sans-Serif" font-size="10.00">+ fileExtensions()</text>
<text text-anchor="start" x="8" y="-378.5" font-family="Helvetica,sans-Serif" font-size="10.00">+ canReadFromFile()</text>
<text text-anchor="start" x="8" y="-368.5" font-family="Helvetica,sans-Serif" font-size="10.00">+ canCopyFromAnother()</text>
<text text-anchor="start" x="8" y="-358.5" font-family="Helvetica,sans-Serif" font-size="10.00">+ canReadFromString()</text>
<text text-anchor="start" x="8" y="-348.5" font-family="Helvetica,sans-Serif" font-size="10.00">+ readFromString()</text>
<text text-anchor="start" x="8" y="-338.5" font-family="Helvetica,sans-Serif" font-size="10.00">+ readFromFile()</text>
</a>
</g>
</g>
<!-- Node1&#45;&gt;Node5 -->
<g id="edge4" class="edge"><title>Node1&#45;&gt;Node5</title>
<path fill="none" stroke="midnightblue" d="M159.74,-535.288C150.147,-523.72 139.69,-511.11 129.333,-498.62"/>
<polygon fill="none" stroke="midnightblue" points="157.154,-537.652 166.232,-543.116 162.543,-533.184 157.154,-537.652"/>
</g>
<!-- Node6 -->
<g id="node6" class="node"><title>Node6</title>
<g id="a_node6"><a xlink:href="class_hydro_couple_1_1_data_1_1_i_exchange_item.html" target="_top" xlink:title="IExchangeItem the base data item the can be exchanged between components at runtime. ">
<polygon fill="white" stroke="black" points="147.25,-382.5 147.25,-456.5 253.851,-456.5 253.851,-382.5 147.25,-382.5"/>
<text text-anchor="start" x="155.25" y="-444.5" font-family="Helvetica,sans-Serif" font-size="10.00">HydroCouple::Data::</text>
<text text-anchor="middle" x="200.55" y="-434.5" font-family="Helvetica,sans-Serif" font-size="10.00">IExchangeItem</text>
<polyline fill="none" stroke="black" points="147.25,-428.5 253.851,-428.5 "/>
<text text-anchor="middle" x="200.55" y="-416.5" font-family="Helvetica,sans-Serif" font-size="10.00"> </text>
<polyline fill="none" stroke="black" points="147.25,-410.5 253.851,-410.5 "/>
<text text-anchor="start" x="155.25" y="-398.5" font-family="Helvetica,sans-Serif" font-size="10.00">+ ~IExchangeItem()</text>
<text text-anchor="start" x="155.25" y="-388.5" font-family="Helvetica,sans-Serif" font-size="10.00">+ itemChanged()</text>
</a>
</g>
</g>
<!-- Node1&#45;&gt;Node6 -->
<g id="edge5" class="edge"><title>Node1&#45;&gt;Node6</title>
<path fill="none" stroke="midnightblue" d="M200.55,-532.79C200.55,-508.007 200.55,-478.929 200.55,-456.573"/>
<polygon fill="none" stroke="midnightblue" points="197.05,-533.116 200.55,-543.116 204.05,-533.116 197.05,-533.116"/>
</g>
<!-- Node10 -->
<g id="node10" class="node"><title>Node10</title>
<g id="a_node10"><a xlink:href="class_hydro_couple_1_1_data_1_1_temporal_1_1_i_time_component_item.html" target="_top" xlink:title="ITimeComponentItem is an IComponentItem with a temporal attribute. ">
<polygon fill="white" stroke="black" points="272.317,-367.5 272.317,-471.5 430.783,-471.5 430.783,-367.5 272.317,-367.5"/>
<text text-anchor="start" x="280.317" y="-459.5" font-family="Helvetica,sans-Serif" font-size="10.00">HydroCouple::Data::</text>
<text text-anchor="middle" x="351.55" y="-449.5" font-family="Helvetica,sans-Serif" font-size="10.00">Temporal::ITimeComponentItem</text>
<polyline fill="none" stroke="black" points="272.317,-443.5 430.783,-443.5 "/>
<text text-anchor="middle" x="351.55" y="-431.5" font-family="Helvetica,sans-Serif" font-size="10.00"> </text>
<polyline fill="none" stroke="black" points="272.317,-425.5 430.783,-425.5 "/>
<text text-anchor="start" x="280.317" y="-413.5" font-family="Helvetica,sans-Serif" font-size="10.00">+ ~ITimeComponentItem()</text>
<text text-anchor="start" x="280.317" y="-403.5" font-family="Helvetica,sans-Serif" font-size="10.00">+ timeDimension()</text>
<text text-anchor="start" x="280.317" y="-393.5" font-family="Helvetica,sans-Serif" font-size="10.00">+ times()</text>
<text text-anchor="start" x="280.317" y="-383.5" font-family="Helvetica,sans-Serif" font-size="10.00">+ timeSpan()</text>
<text text-anchor="start" x="280.317" y="-373.5" font-family="Helvetica,sans-Serif" font-size="10.00">+ time()</text>
</a>
</g>
</g>
<!-- Node1&#45;&gt;Node10 -->
<g id="edge9" class="edge"><title>Node1&#45;&gt;Node10</title>
<path fill="none" stroke="midnightblue" d="M245.622,-535.548C264.211,-515.358 285.756,-491.959 304.543,-471.555"/>
<polygon fill="none" stroke="midnightblue" points="242.853,-533.388 238.654,-543.116 248.002,-538.13 242.853,-533.388"/>
</g>
<!-- Node2 -->
<g id="node2" class="node"><title>Node2</title>
<g id="a_node2"><a xlink:href="class_hydro_couple_1_1_i_identity.html" target="_top" xlink:title="IIdentity interface class defines a method to get the Id of an HydroCouple entity. &#160;IIdentity extends the IDescription interface class, and therefore has, next to the id, a caption and a description. ">
<polygon fill="white" stroke="black" points="143.08,-664.5 143.08,-728.5 258.021,-728.5 258.021,-664.5 143.08,-664.5"/>
<text text-anchor="middle" x="200.55" y="-716.5" font-family="Helvetica,sans-Serif" font-size="10.00">HydroCouple::IIdentity</text>
<polyline fill="none" stroke="black" points="143.08,-710.5 258.021,-710.5 "/>
<text text-anchor="middle" x="200.55" y="-698.5" font-family="Helvetica,sans-Serif" font-size="10.00"> </text>
<polyline fill="none" stroke="black" points="143.08,-692.5 258.021,-692.5 "/>
<text text-anchor="start" x="151.08" y="-680.5" font-family="Helvetica,sans-Serif" font-size="10.00">+ ~IIdentity()</text>
<text text-anchor="start" x="151.08" y="-670.5" font-family="Helvetica,sans-Serif" font-size="10.00">+ id()</text>
</a>
</g>
</g>
<!-- Node2&#45;&gt;Node1 -->
<g id="edge1" class="edge"><title>Node2&#45;&gt;Node1</title>
<path fill="none" stroke="midnightblue" d="M200.55,-654.263C200.55,-645.503 200.55,-636.255 200.55,-627.503"/>
<polygon fill="none" stroke="midnightblue" points="197.05,-654.265 200.55,-664.265 204.05,-654.265 197.05,-654.265"/>
</g>
<!-- Node3 -->
<g id="node3" class="node"><title>Node3</title>
<g id="a_node3"><a xlink:href="class_hydro_couple_1_1_i_description.html" target="_top" xlink:title="IDescription interface class provides descriptive information on a HydroCouple object. ">
<polygon fill="white" stroke="black" points="134.191,-765.5 134.191,-859.5 266.91,-859.5 266.91,-765.5 134.191,-765.5"/>
<text text-anchor="middle" x="200.55" y="-847.5" font-family="Helvetica,sans-Serif" font-size="10.00">HydroCouple::IDescription</text>
<polyline fill="none" stroke="black" points="134.191,-841.5 266.91,-841.5 "/>
<text text-anchor="middle" x="200.55" y="-829.5" font-family="Helvetica,sans-Serif" font-size="10.00"> </text>
<polyline fill="none" stroke="black" points="134.191,-823.5 266.91,-823.5 "/>
<text text-anchor="start" x="142.191" y="-811.5" font-family="Helvetica,sans-Serif" font-size="10.00">+ ~IDescription()</text>
<text text-anchor="start" x="142.191" y="-801.5" font-family="Helvetica,sans-Serif" font-size="10.00">+ getCaption()</text>
<text text-anchor="start" x="142.191" y="-791.5" font-family="Helvetica,sans-Serif" font-size="10.00">+ setCaption()</text>
<text text-anchor="start" x="142.191" y="-781.5" font-family="Helvetica,sans-Serif" font-size="10.00">+ getDescription()</text>
<text text-anchor="start" x="142.191" y="-771.5" font-family="Helvetica,sans-Serif" font-size="10.00">+ setDescription()</text>
</a>
</g>
</g>
<!-- Node3&#45;&gt;Node2 -->
<g id="edge2" class="edge"><title>Node3&#45;&gt;Node2</title>
<path fill="none" stroke="midnightblue" d="M200.55,-755.212C200.55,-746.081 200.55,-736.926 200.55,-728.684"/>
<polygon fill="none" stroke="midnightblue" points="197.05,-755.46 200.55,-765.46 204.05,-755.46 197.05,-755.46"/>
</g>
<!-- Node4 -->
<g id="node4" class="node"><title>Node4</title>
<g id="a_node4"><a xlink:href="class_hydro_couple_1_1_i_property_changed.html" target="_top" xlink:title="IPropertyChanged interface is used to emit signal/event when a property of an object changes...">
<polygon fill="white" stroke="black" points="120.009,-896.5 120.009,-950.5 281.092,-950.5 281.092,-896.5 120.009,-896.5"/>
<text text-anchor="middle" x="200.55" y="-938.5" font-family="Helvetica,sans-Serif" font-size="10.00">HydroCouple::IPropertyChanged</text>
<polyline fill="none" stroke="black" points="120.009,-932.5 281.092,-932.5 "/>
<text text-anchor="middle" x="200.55" y="-920.5" font-family="Helvetica,sans-Serif" font-size="10.00"> </text>
<polyline fill="none" stroke="black" points="120.009,-914.5 281.092,-914.5 "/>
<text text-anchor="start" x="128.009" y="-902.5" font-family="Helvetica,sans-Serif" font-size="10.00">+ ~IPropertyChanged()</text>
</a>
</g>
</g>
<!-- Node4&#45;&gt;Node3 -->
<g id="edge3" class="edge"><title>Node4&#45;&gt;Node3</title>
<path fill="none" stroke="midnightblue" d="M200.55,-886.141C200.55,-877.716 200.55,-868.639 200.55,-859.851"/>
<polygon fill="none" stroke="midnightblue" points="197.05,-886.392 200.55,-896.392 204.05,-886.392 197.05,-886.392"/>
</g>
<!-- Node7 -->
<g id="node7" class="node"><title>Node7</title>
<g id="a_node7"><a xlink:href="class_hydro_couple_1_1_data_1_1_i_input.html" target="_top" xlink:title="An IInput item that can accept values for an IModelComponent. ">
<polygon fill="white" stroke="black" points="79.25,-181.5 79.25,-275.5 185.851,-275.5 185.851,-181.5 79.25,-181.5"/>
<text text-anchor="start" x="87.25" y="-263.5" font-family="Helvetica,sans-Serif" font-size="10.00">HydroCouple::Data::</text>
<text text-anchor="middle" x="132.55" y="-253.5" font-family="Helvetica,sans-Serif" font-size="10.00">IInput</text>
<polyline fill="none" stroke="black" points="79.25,-247.5 185.851,-247.5 "/>
<text text-anchor="middle" x="132.55" y="-235.5" font-family="Helvetica,sans-Serif" font-size="10.00"> </text>
<polyline fill="none" stroke="black" points="79.25,-229.5 185.851,-229.5 "/>
<text text-anchor="start" x="87.25" y="-217.5" font-family="Helvetica,sans-Serif" font-size="10.00">+ ~IInput()</text>
<text text-anchor="start" x="87.25" y="-207.5" font-family="Helvetica,sans-Serif" font-size="10.00">+ getProvider()</text>
<text text-anchor="start" x="87.25" y="-197.5" font-family="Helvetica,sans-Serif" font-size="10.00">+ setProvider()</text>
<text text-anchor="start" x="87.25" y="-187.5" font-family="Helvetica,sans-Serif" font-size="10.00">+ canConsume()</text>
</a>
</g>
</g>
<!-- Node6&#45;&gt;Node7 -->
<g id="edge6" class="edge"><title>Node6&#45;&gt;Node7</title>
<path fill="none" stroke="midnightblue" d="M183.975,-372.431C173.384,-342.995 159.703,-304.968 149.114,-275.538"/>
<polygon fill="none" stroke="midnightblue" points="180.76,-373.834 187.439,-382.059 187.347,-371.464 180.76,-373.834"/>
</g>
<!-- Node8 -->
<g id="node8" class="node"><title>Node8</title>
<g id="a_node8"><a xlink:href="class_hydro_couple_1_1_data_1_1_i_output.html" target="_top" xlink:title="An output exchange item that can deliver values from an IModelComponent. ">
<polygon fill="white" stroke="black" points="203.601,-161.5 203.601,-295.5 335.5,-295.5 335.5,-161.5 203.601,-161.5"/>
<text text-anchor="start" x="211.601" y="-283.5" font-family="Helvetica,sans-Serif" font-size="10.00">HydroCouple::Data::</text>
<text text-anchor="middle" x="269.55" y="-273.5" font-family="Helvetica,sans-Serif" font-size="10.00">IOutput</text>
<polyline fill="none" stroke="black" points="203.601,-267.5 335.5,-267.5 "/>
<text text-anchor="middle" x="269.55" y="-255.5" font-family="Helvetica,sans-Serif" font-size="10.00"> </text>
<polyline fill="none" stroke="black" points="203.601,-249.5 335.5,-249.5 "/>
<text text-anchor="start" x="211.601" y="-237.5" font-family="Helvetica,sans-Serif" font-size="10.00">+ ~IOutput()</text>
<text text-anchor="start" x="211.601" y="-227.5" font-family="Helvetica,sans-Serif" font-size="10.00">+ consumers()</text>
<text text-anchor="start" x="211.601" y="-217.5" font-family="Helvetica,sans-Serif" font-size="10.00">+ addConsumer()</text>
<text text-anchor="start" x="211.601" y="-207.5" font-family="Helvetica,sans-Serif" font-size="10.00">+ removeConsumer()</text>
<text text-anchor="start" x="211.601" y="-197.5" font-family="Helvetica,sans-Serif" font-size="10.00">+ adaptedOutputs()</text>
<text text-anchor="start" x="211.601" y="-187.5" font-family="Helvetica,sans-Serif" font-size="10.00">+ addAdaptedOutput()</text>
<text text-anchor="start" x="211.601" y="-177.5" font-family="Helvetica,sans-Serif" font-size="10.00">+ removeAdaptedOutput()</text>
<text text-anchor="start" x="211.601" y="-167.5" font-family="Helvetica,sans-Serif" font-size="10.00">+ updateValues()</text>
</a>
</g>
</g>
<!-- Node6&#45;&gt;Node8 -->
<g id="edge7" class="edge"><title>Node6&#45;&gt;Node8</title>
<path fill="none" stroke="midnightblue" d="M217.339,-372.515C225.766,-349.431 236.128,-321.048 245.393,-295.669"/>
<polygon fill="none" stroke="midnightblue" points="213.996,-371.465 213.854,-382.059 220.571,-373.866 213.996,-371.465"/>
</g>
<!-- Node9 -->
<g id="node9" class="node"><title>Node9</title>
<g id="a_node9"><a xlink:href="class_hydro_couple_1_1_data_1_1_i_adapted_output.html" target="_top" xlink:title="An IAdaptedOutput adds one or more data operations on top of an IOutput. ">
<polygon fill="white" stroke="black" points="204.158,-0.5 204.158,-124.5 334.943,-124.5 334.943,-0.5 204.158,-0.5"/>
<text text-anchor="start" x="212.158" y="-112.5" font-family="Helvetica,sans-Serif" font-size="10.00">HydroCouple::Data::</text>
<text text-anchor="middle" x="269.55" y="-102.5" font-family="Helvetica,sans-Serif" font-size="10.00">IAdaptedOutput</text>
<polyline fill="none" stroke="black" points="204.158,-96.5 334.943,-96.5 "/>
<text text-anchor="middle" x="269.55" y="-84.5" font-family="Helvetica,sans-Serif" font-size="10.00"> </text>
<polyline fill="none" stroke="black" points="204.158,-78.5 334.943,-78.5 "/>
<text text-anchor="start" x="212.158" y="-66.5" font-family="Helvetica,sans-Serif" font-size="10.00">+ ~IAdaptedOutput()</text>
<text text-anchor="start" x="212.158" y="-56.5" font-family="Helvetica,sans-Serif" font-size="10.00">+ adaptedOutputFactory()</text>
<text text-anchor="start" x="212.158" y="-46.5" font-family="Helvetica,sans-Serif" font-size="10.00">+ arguments()</text>
<text text-anchor="start" x="212.158" y="-36.5" font-family="Helvetica,sans-Serif" font-size="10.00">+ setArgument()</text>
<text text-anchor="start" x="212.158" y="-26.5" font-family="Helvetica,sans-Serif" font-size="10.00">+ initialize()</text>
<text text-anchor="start" x="212.158" y="-16.5" font-family="Helvetica,sans-Serif" font-size="10.00">+ adaptee()</text>
<text text-anchor="start" x="212.158" y="-6.5" font-family="Helvetica,sans-Serif" font-size="10.00">+ refresh()</text>
</a>
</g>
</g>
<!-- Node8&#45;&gt;Node9 -->
<g id="edge8" class="edge"><title>Node8&#45;&gt;Node9</title>
<path fill="none" stroke="midnightblue" d="M269.55,-151.266C269.55,-142.353 269.55,-133.348 269.55,-124.677"/>
<polygon fill="none" stroke="midnightblue" points="266.05,-151.268 269.55,-161.268 273.05,-151.268 266.05,-151.268"/>
</g>
</g>
</svg>
