<?xml version="1.0" encoding="UTF-8" standalone="no"?>
<!DOCTYPE svg PUBLIC "-//W3C//DTD SVG 1.1//EN"
 "http://www.w3.org/Graphics/SVG/1.1/DTD/svg11.dtd">
<!-- Generated by graphviz version 2.38.0 (20140413.2041)
 -->
<!-- Title: HydroCouple::IMultiInput Pages: 1 -->
<svg width="210pt" height="946pt"
 viewBox="0.00 0.00 210.03 945.73" xmlns="http://www.w3.org/2000/svg" xmlns:xlink="http://www.w3.org/1999/xlink">
<g id="graph0" class="graph" transform="scale(1 1) rotate(0) translate(4 941.733)">
<title>HydroCouple::IMultiInput</title>
<!-- Node1 -->
<g id="node1" class="node"><title>Node1</title>
<polygon fill="#bfbfbf" stroke="black" points="21.0034,-0.5 21.0034,-104.51 181.027,-104.51 181.027,-0.5 21.0034,-0.5"/>
<text text-anchor="middle" x="101.015" y="-92.5098" font-family="Monaco" font-size="10.00">HydroCouple::IMultiInput</text>
<polyline fill="none" stroke="black" points="21.0034,-83.1748 181.027,-83.1748 "/>
<text text-anchor="middle" x="101.015" y="-71.1748" font-family="Monaco" font-size="10.00"> </text>
<polyline fill="none" stroke="black" points="21.0034,-61.8398 181.027,-61.8398 "/>
<text text-anchor="start" x="29.0034" y="-49.8398" font-family="Monaco" font-size="10.00">+ ~IMultiInput()</text>
<text text-anchor="start" x="29.0034" y="-36.5049" font-family="Monaco" font-size="10.00">+ providers()</text>
<text text-anchor="start" x="29.0034" y="-23.1699" font-family="Monaco" font-size="10.00">+ addProvider()</text>
<text text-anchor="start" x="29.0034" y="-9.83496" font-family="Monaco" font-size="10.00">+ removeProvider()</text>
</g>
<!-- Node2 -->
<g id="node2" class="node"><title>Node2</title>
<g id="a_node2"><a xlink:href="class_hydro_couple_1_1_i_input.html" target="_top" xlink:title="An IInput item that can accept values for an IModelComponent. ">
<polygon fill="none" stroke="black" points="36.0059,-141.51 36.0059,-245.52 166.024,-245.52 166.024,-141.51 36.0059,-141.51"/>
<text text-anchor="middle" x="101.015" y="-233.52" font-family="Monaco" font-size="10.00">HydroCouple::IInput</text>
<polyline fill="none" stroke="black" points="36.0059,-224.185 166.024,-224.185 "/>
<text text-anchor="middle" x="101.015" y="-212.185" font-family="Monaco" font-size="10.00"> </text>
<polyline fill="none" stroke="black" points="36.0059,-202.85 166.024,-202.85 "/>
<text text-anchor="start" x="44.0059" y="-190.85" font-family="Monaco" font-size="10.00">+ ~IInput()</text>
<text text-anchor="start" x="44.0059" y="-177.515" font-family="Monaco" font-size="10.00">+ provider()</text>
<text text-anchor="start" x="44.0059" y="-164.18" font-family="Monaco" font-size="10.00">+ setProvider()</text>
<text text-anchor="start" x="44.0059" y="-150.845" font-family="Monaco" font-size="10.00">+ canConsume()</text>
</a>
</g>
</g>
<!-- Node2&#45;&gt;Node1 -->
<g id="edge1" class="edge"><title>Node2&#45;&gt;Node1</title>
<path fill="none" stroke="midnightblue" d="M101.015,-130.951C101.015,-122.169 101.015,-113.215 101.015,-104.661"/>
<polygon fill="none" stroke="midnightblue" points="97.5152,-131.147 101.015,-141.147 104.515,-131.148 97.5152,-131.147"/>
</g>
<!-- Node3 -->
<g id="node3" class="node"><title>Node3</title>
<g id="a_node3"><a xlink:href="class_hydro_couple_1_1_i_exchange_item.html" target="_top" xlink:title="IExchangeItem the base data item the can be exchanged between components at runtime. ">
<polygon fill="none" stroke="black" points="15.0024,-282.52 15.0024,-346.524 187.028,-346.524 187.028,-282.52 15.0024,-282.52"/>
<text text-anchor="middle" x="101.015" y="-334.524" font-family="Monaco" font-size="10.00">HydroCouple::IExchangeItem</text>
<polyline fill="none" stroke="black" points="15.0024,-325.189 187.028,-325.189 "/>
<text text-anchor="middle" x="101.015" y="-313.189" font-family="Monaco" font-size="10.00"> </text>
<polyline fill="none" stroke="black" points="15.0024,-303.854 187.028,-303.854 "/>
<text text-anchor="start" x="23.0024" y="-291.854" font-family="Monaco" font-size="10.00">+ ~IExchangeItem()</text>
</a>
</g>
</g>
<!-- Node3&#45;&gt;Node2 -->
<g id="edge2" class="edge"><title>Node3&#45;&gt;Node2</title>
<path fill="none" stroke="midnightblue" d="M101.015,-272.201C101.015,-263.692 101.015,-254.634 101.015,-245.821"/>
<polygon fill="none" stroke="midnightblue" points="97.5152,-272.254 101.015,-282.254 104.515,-272.254 97.5152,-272.254"/>
</g>
<!-- Node4 -->
<g id="node4" class="node"><title>Node4</title>
<g id="a_node4"><a xlink:href="class_hydro_couple_1_1_i_component_data_item.html" target="_top" xlink:title="IComponentItem is a fundamental unit of data for a component. ">
<polygon fill="none" stroke="black" points="0,-383.524 0,-567.544 202.03,-567.544 202.03,-383.524 0,-383.524"/>
<text text-anchor="middle" x="101.015" y="-555.544" font-family="Monaco" font-size="10.00">HydroCouple::IComponentDataItem</text>
<polyline fill="none" stroke="black" points="0,-546.209 202.03,-546.209 "/>
<text text-anchor="middle" x="101.015" y="-534.209" font-family="Monaco" font-size="10.00"> </text>
<polyline fill="none" stroke="black" points="0,-524.874 202.03,-524.874 "/>
<text text-anchor="start" x="8" y="-512.874" font-family="Monaco" font-size="10.00">+ ~IComponentDataItem()</text>
<text text-anchor="start" x="8" y="-499.539" font-family="Monaco" font-size="10.00">+ modelComponent()</text>
<text text-anchor="start" x="8" y="-486.204" font-family="Monaco" font-size="10.00">+ dimensions()</text>
<text text-anchor="start" x="8" y="-472.869" font-family="Monaco" font-size="10.00">+ valueDefinition()</text>
<text text-anchor="start" x="8" y="-459.534" font-family="Monaco" font-size="10.00">+ getValue()</text>
<text text-anchor="start" x="8" y="-446.199" font-family="Monaco" font-size="10.00">+ getValues()</text>
<text text-anchor="start" x="8" y="-432.864" font-family="Monaco" font-size="10.00">+ getValues()</text>
<text text-anchor="start" x="8" y="-419.529" font-family="Monaco" font-size="10.00">+ setValue()</text>
<text text-anchor="start" x="8" y="-406.194" font-family="Monaco" font-size="10.00">+ setValues()</text>
<text text-anchor="start" x="8" y="-392.859" font-family="Monaco" font-size="10.00">+ setValues()</text>
</a>
</g>
</g>
<!-- Node4&#45;&gt;Node3 -->
<g id="edge3" class="edge"><title>Node4&#45;&gt;Node3</title>
<path fill="none" stroke="midnightblue" d="M101.015,-373.334C101.015,-363.788 101.015,-354.695 101.015,-346.664"/>
<polygon fill="none" stroke="midnightblue" points="97.5152,-373.419 101.015,-383.419 104.515,-373.419 97.5152,-373.419"/>
</g>
<!-- Node5 -->
<g id="node5" class="node"><title>Node5</title>
<g id="a_node5"><a xlink:href="class_hydro_couple_1_1_i_identity.html" target="_top" xlink:title="IIdentity interface class defines a method to get the Id of an HydroCouple entity. ">
<polygon fill="none" stroke="black" points="27.0044,-604.544 27.0044,-681.884 175.026,-681.884 175.026,-604.544 27.0044,-604.544"/>
<text text-anchor="middle" x="101.015" y="-669.884" font-family="Monaco" font-size="10.00">HydroCouple::IIdentity</text>
<polyline fill="none" stroke="black" points="27.0044,-660.549 175.026,-660.549 "/>
<text text-anchor="middle" x="101.015" y="-648.549" font-family="Monaco" font-size="10.00"> </text>
<polyline fill="none" stroke="black" points="27.0044,-639.214 175.026,-639.214 "/>
<text text-anchor="start" x="35.0044" y="-627.214" font-family="Monaco" font-size="10.00">+ ~IIdentity()</text>
<text text-anchor="start" x="35.0044" y="-613.879" font-family="Monaco" font-size="10.00">+ id()</text>
</a>
</g>
</g>
<!-- Node5&#45;&gt;Node4 -->
<g id="edge4" class="edge"><title>Node5&#45;&gt;Node4</title>
<path fill="none" stroke="midnightblue" d="M101.015,-593.962C101.015,-585.608 101.015,-576.683 101.015,-567.625"/>
<polygon fill="none" stroke="midnightblue" points="97.5152,-594.204 101.015,-604.204 104.515,-594.204 97.5152,-594.204"/>
</g>
<!-- Node6 -->
<g id="node6" class="node"><title>Node6</title>
<g id="a_node6"><a xlink:href="class_hydro_couple_1_1_i_description.html" target="_top" xlink:title="IDescription interface class provides descriptive information on a HydroCouple object. ">
<polygon fill="none" stroke="black" points="18.0029,-718.884 18.0029,-836.229 184.027,-836.229 184.027,-718.884 18.0029,-718.884"/>
<text text-anchor="middle" x="101.015" y="-824.229" font-family="Monaco" font-size="10.00">HydroCouple::IDescription</text>
<polyline fill="none" stroke="black" points="18.0029,-814.894 184.027,-814.894 "/>
<text text-anchor="middle" x="101.015" y="-802.894" font-family="Monaco" font-size="10.00"> </text>
<polyline fill="none" stroke="black" points="18.0029,-793.559 184.027,-793.559 "/>
<text text-anchor="start" x="26.0029" y="-781.559" font-family="Monaco" font-size="10.00">+ ~IDescription()</text>
<text text-anchor="start" x="26.0029" y="-768.224" font-family="Monaco" font-size="10.00">+ caption()</text>
<text text-anchor="start" x="26.0029" y="-754.889" font-family="Monaco" font-size="10.00">+ setCaption()</text>
<text text-anchor="start" x="26.0029" y="-741.554" font-family="Monaco" font-size="10.00">+ description()</text>
<text text-anchor="start" x="26.0029" y="-728.219" font-family="Monaco" font-size="10.00">+ setDescription()</text>
</a>
</g>
</g>
<!-- Node6&#45;&gt;Node5 -->
<g id="edge5" class="edge"><title>Node6&#45;&gt;Node5</title>
<path fill="none" stroke="midnightblue" d="M101.015,-708.318C101.015,-699.279 101.015,-690.292 101.015,-682.031"/>
<polygon fill="none" stroke="midnightblue" points="97.5152,-708.509 101.015,-718.509 104.515,-708.509 97.5152,-708.509"/>
</g>
<!-- Node7 -->
<g id="node7" class="node"><title>Node7</title>
<g id="a_node7"><a xlink:href="class_hydro_couple_1_1_i_property_changed.html" target="_top" xlink:title="IPropertyChanged interface is used to emit signal/event when a property of an object changes...">
<polygon fill="none" stroke="black" points="6.00098,-873.229 6.00098,-937.233 196.029,-937.233 196.029,-873.229 6.00098,-873.229"/>
<text text-anchor="middle" x="101.015" y="-925.233" font-family="Monaco" font-size="10.00">HydroCouple::IPropertyChanged</text>
<polyline fill="none" stroke="black" points="6.00098,-915.898 196.029,-915.898 "/>
<text text-anchor="middle" x="101.015" y="-903.898" font-family="Monaco" font-size="10.00"> </text>
<polyline fill="none" stroke="black" points="6.00098,-894.563 196.029,-894.563 "/>
<text text-anchor="start" x="14.001" y="-882.563" font-family="Monaco" font-size="10.00">+ ~IPropertyChanged()</text>
</a>
</g>
</g>
<!-- Node7&#45;&gt;Node6 -->
<g id="edge6" class="edge"><title>Node7&#45;&gt;Node6</title>
<path fill="none" stroke="midnightblue" d="M101.015,-862.908C101.015,-854.523 101.015,-845.557 101.015,-836.715"/>
<polygon fill="none" stroke="midnightblue" points="97.5152,-863.165 101.015,-873.165 104.515,-863.165 97.5152,-863.165"/>
</g>
</g>
</svg>
