<?xml version="1.0" encoding="UTF-8" standalone="no"?>
<!DOCTYPE svg PUBLIC "-//W3C//DTD SVG 1.1//EN"
 "http://www.w3.org/Graphics/SVG/1.1/DTD/svg11.dtd">
<!-- Generated by graphviz version 2.38.0 (20140413.2041)
 -->
<!-- Title: HydroCouple::IIdBasedExchangeItem Pages: 1 -->
<svg width="394pt" height="885pt"
 viewBox="0.00 0.00 394.03 884.73" xmlns="http://www.w3.org/2000/svg" xmlns:xlink="http://www.w3.org/1999/xlink">
<g id="graph0" class="graph" transform="scale(1 1) rotate(0) translate(4 880.733)">
<title>HydroCouple::IIdBasedExchangeItem</title>
<!-- Node1 -->
<g id="node1" class="node"><title>Node1</title>
<polygon fill="#bfbfbf" stroke="black" points="79.9966,-0.5 79.9966,-64.5049 294.029,-64.5049 294.029,-0.5 79.9966,-0.5"/>
<text text-anchor="middle" x="187.013" y="-52.5049" font-family="Monaco" font-size="10.00">HydroCouple::IIdBasedExchangeItem</text>
<polyline fill="none" stroke="black" points="79.9966,-43.1699 294.029,-43.1699 "/>
<text text-anchor="middle" x="187.013" y="-31.1699" font-family="Monaco" font-size="10.00"> </text>
<polyline fill="none" stroke="black" points="79.9966,-21.835 294.029,-21.835 "/>
<text text-anchor="start" x="87.9966" y="-9.83496" font-family="Monaco" font-size="10.00">+ ~IIdBasedExchangeItem()</text>
</g>
<!-- Node2 -->
<g id="node2" class="node"><title>Node2</title>
<g id="a_node2"><a xlink:href="class_hydro_couple_1_1_i_exchange_item.html" target="_top" xlink:title="IExchangeItem the base data item the can be exchanged between components at runtime. ">
<polygon fill="none" stroke="black" points="0,-161.512 0,-225.517 172.025,-225.517 172.025,-161.512 0,-161.512"/>
<text text-anchor="middle" x="86.0127" y="-213.517" font-family="Monaco" font-size="10.00">HydroCouple::IExchangeItem</text>
<polyline fill="none" stroke="black" points="0,-204.182 172.025,-204.182 "/>
<text text-anchor="middle" x="86.0127" y="-192.182" font-family="Monaco" font-size="10.00"> </text>
<polyline fill="none" stroke="black" points="0,-182.847 172.025,-182.847 "/>
<text text-anchor="start" x="8" y="-170.847" font-family="Monaco" font-size="10.00">+ ~IExchangeItem()</text>
</a>
</g>
</g>
<!-- Node2&#45;&gt;Node1 -->
<g id="edge1" class="edge"><title>Node2&#45;&gt;Node1</title>
<path fill="none" stroke="midnightblue" d="M111.143,-152.951C128.453,-125.698 151.136,-89.9862 167.177,-64.7321"/>
<polygon fill="none" stroke="midnightblue" points="108.133,-151.16 105.726,-161.478 114.042,-154.913 108.133,-151.16"/>
</g>
<!-- Node3 -->
<g id="node3" class="node"><title>Node3</title>
<g id="a_node3"><a xlink:href="class_hydro_couple_1_1_i_component_data_item.html" target="_top" xlink:title="IComponentItem is a fundamental unit of data for a component. ">
<polygon fill="none" stroke="black" points="85.9976,-322.524 85.9976,-506.544 288.028,-506.544 288.028,-322.524 85.9976,-322.524"/>
<text text-anchor="middle" x="187.013" y="-494.544" font-family="Monaco" font-size="10.00">HydroCouple::IComponentDataItem</text>
<polyline fill="none" stroke="black" points="85.9976,-485.209 288.028,-485.209 "/>
<text text-anchor="middle" x="187.013" y="-473.209" font-family="Monaco" font-size="10.00"> </text>
<polyline fill="none" stroke="black" points="85.9976,-463.874 288.028,-463.874 "/>
<text text-anchor="start" x="93.9976" y="-451.874" font-family="Monaco" font-size="10.00">+ ~IComponentDataItem()</text>
<text text-anchor="start" x="93.9976" y="-438.539" font-family="Monaco" font-size="10.00">+ modelComponent()</text>
<text text-anchor="start" x="93.9976" y="-425.204" font-family="Monaco" font-size="10.00">+ dimensions()</text>
<text text-anchor="start" x="93.9976" y="-411.869" font-family="Monaco" font-size="10.00">+ valueDefinition()</text>
<text text-anchor="start" x="93.9976" y="-398.534" font-family="Monaco" font-size="10.00">+ getValue()</text>
<text text-anchor="start" x="93.9976" y="-385.199" font-family="Monaco" font-size="10.00">+ getValues()</text>
<text text-anchor="start" x="93.9976" y="-371.864" font-family="Monaco" font-size="10.00">+ getValues()</text>
<text text-anchor="start" x="93.9976" y="-358.529" font-family="Monaco" font-size="10.00">+ setValue()</text>
<text text-anchor="start" x="93.9976" y="-345.194" font-family="Monaco" font-size="10.00">+ setValues()</text>
<text text-anchor="start" x="93.9976" y="-331.859" font-family="Monaco" font-size="10.00">+ setValues()</text>
</a>
</g>
</g>
<!-- Node3&#45;&gt;Node2 -->
<g id="edge2" class="edge"><title>Node3&#45;&gt;Node2</title>
<path fill="none" stroke="midnightblue" d="M140.614,-312.917C126.041,-281.316 111.01,-248.721 100.417,-225.751"/>
<polygon fill="none" stroke="midnightblue" points="137.545,-314.621 144.911,-322.236 143.902,-311.689 137.545,-314.621"/>
</g>
<!-- Node7 -->
<g id="node7" class="node"><title>Node7</title>
<g id="a_node7"><a xlink:href="class_hydro_couple_1_1_i_id_based_component_data_item.html" target="_top" xlink:title="The IIdBasedComponentItem class is an idbased IComponentItem. ">
<polygon fill="none" stroke="black" points="189.998,-101.505 189.998,-285.524 386.027,-285.524 386.027,-101.505 189.998,-101.505"/>
<text text-anchor="start" x="197.998" y="-273.524" font-family="Monaco" font-size="10.00">HydroCouple::IIdBasedComponent</text>
<text text-anchor="middle" x="288.013" y="-260.189" font-family="Monaco" font-size="10.00">DataItem</text>
<polyline fill="none" stroke="black" points="189.998,-250.854 386.027,-250.854 "/>
<text text-anchor="middle" x="288.013" y="-238.854" font-family="Monaco" font-size="10.00"> </text>
<polyline fill="none" stroke="black" points="189.998,-229.52 386.027,-229.52 "/>
<text text-anchor="start" x="197.998" y="-217.52" font-family="Monaco" font-size="10.00">+ ~IIdBasedComponentDataItem()</text>
<text text-anchor="start" x="197.998" y="-204.185" font-family="Monaco" font-size="10.00">+ identifiers()</text>
<text text-anchor="start" x="197.998" y="-190.85" font-family="Monaco" font-size="10.00">+ identifierDimension()</text>
<text text-anchor="start" x="197.998" y="-177.515" font-family="Monaco" font-size="10.00">+ getValue()</text>
<text text-anchor="start" x="197.998" y="-164.18" font-family="Monaco" font-size="10.00">+ getValues()</text>
<text text-anchor="start" x="197.998" y="-150.845" font-family="Monaco" font-size="10.00">+ getValues()</text>
<text text-anchor="start" x="197.998" y="-137.51" font-family="Monaco" font-size="10.00">+ setValue()</text>
<text text-anchor="start" x="197.998" y="-124.175" font-family="Monaco" font-size="10.00">+ setValues()</text>
<text text-anchor="start" x="197.998" y="-110.84" font-family="Monaco" font-size="10.00">+ setValues()</text>
</a>
</g>
</g>
<!-- Node3&#45;&gt;Node7 -->
<g id="edge7" class="edge"><title>Node3&#45;&gt;Node7</title>
<path fill="none" stroke="midnightblue" d="M233.318,-313.121C237.539,-303.968 241.799,-294.73 245.979,-285.665"/>
<polygon fill="none" stroke="midnightblue" points="230.124,-311.689 229.114,-322.236 236.48,-314.621 230.124,-311.689"/>
</g>
<!-- Node4 -->
<g id="node4" class="node"><title>Node4</title>
<g id="a_node4"><a xlink:href="class_hydro_couple_1_1_i_identity.html" target="_top" xlink:title="IIdentity interface class defines a method to get the Id of an HydroCouple entity. ">
<polygon fill="none" stroke="black" points="113.002,-543.544 113.002,-620.884 261.023,-620.884 261.023,-543.544 113.002,-543.544"/>
<text text-anchor="middle" x="187.013" y="-608.884" font-family="Monaco" font-size="10.00">HydroCouple::IIdentity</text>
<polyline fill="none" stroke="black" points="113.002,-599.549 261.023,-599.549 "/>
<text text-anchor="middle" x="187.013" y="-587.549" font-family="Monaco" font-size="10.00"> </text>
<polyline fill="none" stroke="black" points="113.002,-578.214 261.023,-578.214 "/>
<text text-anchor="start" x="121.002" y="-566.214" font-family="Monaco" font-size="10.00">+ ~IIdentity()</text>
<text text-anchor="start" x="121.002" y="-552.879" font-family="Monaco" font-size="10.00">+ id()</text>
</a>
</g>
</g>
<!-- Node4&#45;&gt;Node3 -->
<g id="edge3" class="edge"><title>Node4&#45;&gt;Node3</title>
<path fill="none" stroke="midnightblue" d="M187.013,-532.962C187.013,-524.608 187.013,-515.683 187.013,-506.625"/>
<polygon fill="none" stroke="midnightblue" points="183.513,-533.204 187.013,-543.204 190.513,-533.204 183.513,-533.204"/>
</g>
<!-- Node5 -->
<g id="node5" class="node"><title>Node5</title>
<g id="a_node5"><a xlink:href="class_hydro_couple_1_1_i_description.html" target="_top" xlink:title="IDescription interface class provides descriptive information on a HydroCouple object. ">
<polygon fill="none" stroke="black" points="104,-657.884 104,-775.229 270.025,-775.229 270.025,-657.884 104,-657.884"/>
<text text-anchor="middle" x="187.013" y="-763.229" font-family="Monaco" font-size="10.00">HydroCouple::IDescription</text>
<polyline fill="none" stroke="black" points="104,-753.894 270.025,-753.894 "/>
<text text-anchor="middle" x="187.013" y="-741.894" font-family="Monaco" font-size="10.00"> </text>
<polyline fill="none" stroke="black" points="104,-732.559 270.025,-732.559 "/>
<text text-anchor="start" x="112" y="-720.559" font-family="Monaco" font-size="10.00">+ ~IDescription()</text>
<text text-anchor="start" x="112" y="-707.224" font-family="Monaco" font-size="10.00">+ caption()</text>
<text text-anchor="start" x="112" y="-693.889" font-family="Monaco" font-size="10.00">+ setCaption()</text>
<text text-anchor="start" x="112" y="-680.554" font-family="Monaco" font-size="10.00">+ description()</text>
<text text-anchor="start" x="112" y="-667.219" font-family="Monaco" font-size="10.00">+ setDescription()</text>
</a>
</g>
</g>
<!-- Node5&#45;&gt;Node4 -->
<g id="edge4" class="edge"><title>Node5&#45;&gt;Node4</title>
<path fill="none" stroke="midnightblue" d="M187.013,-647.318C187.013,-638.279 187.013,-629.292 187.013,-621.031"/>
<polygon fill="none" stroke="midnightblue" points="183.513,-647.509 187.013,-657.509 190.513,-647.509 183.513,-647.509"/>
</g>
<!-- Node6 -->
<g id="node6" class="node"><title>Node6</title>
<g id="a_node6"><a xlink:href="class_hydro_couple_1_1_i_property_changed.html" target="_top" xlink:title="IPropertyChanged interface is used to emit signal/event when a property of an object changes...">
<polygon fill="none" stroke="black" points="91.9985,-812.229 91.9985,-876.233 282.027,-876.233 282.027,-812.229 91.9985,-812.229"/>
<text text-anchor="middle" x="187.013" y="-864.233" font-family="Monaco" font-size="10.00">HydroCouple::IPropertyChanged</text>
<polyline fill="none" stroke="black" points="91.9985,-854.898 282.027,-854.898 "/>
<text text-anchor="middle" x="187.013" y="-842.898" font-family="Monaco" font-size="10.00"> </text>
<polyline fill="none" stroke="black" points="91.9985,-833.563 282.027,-833.563 "/>
<text text-anchor="start" x="99.9985" y="-821.563" font-family="Monaco" font-size="10.00">+ ~IPropertyChanged()</text>
</a>
</g>
</g>
<!-- Node6&#45;&gt;Node5 -->
<g id="edge5" class="edge"><title>Node6&#45;&gt;Node5</title>
<path fill="none" stroke="midnightblue" d="M187.013,-801.908C187.013,-793.523 187.013,-784.557 187.013,-775.715"/>
<polygon fill="none" stroke="midnightblue" points="183.513,-802.165 187.013,-812.165 190.513,-802.165 183.513,-802.165"/>
</g>
<!-- Node7&#45;&gt;Node1 -->
<g id="edge6" class="edge"><title>Node7&#45;&gt;Node1</title>
<path fill="none" stroke="midnightblue" d="M224.693,-92.8249C218.28,-82.7291 212.163,-73.0982 206.793,-64.644"/>
<polygon fill="none" stroke="midnightblue" points="221.823,-94.8346 230.139,-101.399 227.732,-91.0814 221.823,-94.8346"/>
</g>
</g>
</svg>
