<?xml version="1.0" encoding="UTF-8" standalone="no"?>
<!DOCTYPE svg PUBLIC "-//W3C//DTD SVG 1.1//EN"
 "http://www.w3.org/Graphics/SVG/1.1/DTD/svg11.dtd">
<!-- Generated by graphviz version 2.38.0 (20140413.2041)
 -->
<!-- Title: HydroCoupleCore::Data::IExchangeItem Pages: 1 -->
<!--zoomable 869 -->
<svg id="main" version="1.1" xmlns="http://www.w3.org/2000/svg" xmlns:xlink="http://www.w3.org/1999/xlink" xml:space="preserve" onload="init(evt)">
<style type="text/css"><![CDATA[
.edge:hover path { stroke: red; }
.edge:hover polygon { stroke: red; fill: red; }
]]></style>
<script type="text/javascript"><![CDATA[
var edges = document.getElementsByTagName('g');
if (edges && edges.length) {
  for (var i=0;i<edges.length;i++) {
    if (edges[i].id.substr(0,4)=='edge') {
      edges[i].setAttribute('class','edge');
    }
  }
}
]]></script>
        <defs>
                <circle id="rim" cx="0" cy="0" r="7"/>
                <circle id="rim2" cx="0" cy="0" r="3.5"/>
                <g id="zoomPlus">
                        <use xlink:href="#rim" fill="#404040">
                                <set attributeName="fill" to="#808080" begin="zoomplus.mouseover" end="zoomplus.mouseout"/>
                        </use>
                        <path d="M-4,0h8M0,-4v8" fill="none" stroke="white" stroke-width="1.5" pointer-events="none"/>
                </g>
                <g id="zoomMin">
                        <use xlink:href="#rim" fill="#404040">
                                <set attributeName="fill" to="#808080" begin="zoomminus.mouseover" end="zoomminus.mouseout"/>
                        </use>
                        <path d="M-4,0h8" fill="none" stroke="white" stroke-width="1.5" pointer-events="none"/>
                </g>
                <g id="dirArrow">
                        <path fill="none" stroke="white" stroke-width="1.5" d="M0,-3.0v7 M-2.5,-0.5L0,-3.0L2.5,-0.5"/>
                </g>
               <g id="resetDef">
                       <use xlink:href="#rim2" fill="#404040">
                               <set attributeName="fill" to="#808080" begin="reset.mouseover" end="reset.mouseout"/>
                       </use>
               </g>
        </defs>

<script type="text/javascript">
var viewWidth = 280;
var viewHeight = 869;
var sectionId = 'dynsection-0';
</script>
<script xlink:href="svgpan.js"/>
<svg id="graph" class="graph">
<g id="viewport">
<title>HydroCoupleCore::Data::IExchangeItem</title>
<polygon fill="white" stroke="none" points="-4,4 -4,-865 276.309,-865 276.309,4 -4,4"/>
<!-- Node1 -->
<g id="node1" class="node"><title>Node1</title>
<polygon fill="#bfbfbf" stroke="black" points="72,-332.5 72,-406.5 194.719,-406.5 194.719,-332.5 72,-332.5"/>
<text text-anchor="start" x="80" y="-394.5" font-family="Helvetica,sans-Serif" font-size="10.00">HydroCoupleCore::Data</text>
<text text-anchor="middle" x="133.359" y="-384.5" font-family="Helvetica,sans-Serif" font-size="10.00">::IExchangeItem</text>
<polyline fill="none" stroke="black" points="72,-378.5 194.719,-378.5 "/>
<text text-anchor="middle" x="133.359" y="-366.5" font-family="Helvetica,sans-Serif" font-size="10.00"> </text>
<polyline fill="none" stroke="black" points="72,-360.5 194.719,-360.5 "/>
<text text-anchor="start" x="80" y="-348.5" font-family="Helvetica,sans-Serif" font-size="10.00">+ ~IExchangeItem()</text>
<text text-anchor="start" x="80" y="-338.5" font-family="Helvetica,sans-Serif" font-size="10.00">+ itemChanged()</text>
</g>
<!-- Node6 -->
<g id="node6" class="node"><title>Node6</title>
<g id="a_node6"><a xlink:href="class_hydro_couple_core_1_1_data_1_1_i_input.html" target="_top" xlink:title="An IInput item that can accept values for an IModelComponent. ">
<polygon fill="white" stroke="black" points="0,-181.5 0,-275.5 122.719,-275.5 122.719,-181.5 0,-181.5"/>
<text text-anchor="start" x="8" y="-263.5" font-family="Helvetica,sans-Serif" font-size="10.00">HydroCoupleCore::Data</text>
<text text-anchor="middle" x="61.3594" y="-253.5" font-family="Helvetica,sans-Serif" font-size="10.00">::IInput</text>
<polyline fill="none" stroke="black" points="0,-247.5 122.719,-247.5 "/>
<text text-anchor="middle" x="61.3594" y="-235.5" font-family="Helvetica,sans-Serif" font-size="10.00"> </text>
<polyline fill="none" stroke="black" points="0,-229.5 122.719,-229.5 "/>
<text text-anchor="start" x="8" y="-217.5" font-family="Helvetica,sans-Serif" font-size="10.00">+ ~IInput()</text>
<text text-anchor="start" x="8" y="-207.5" font-family="Helvetica,sans-Serif" font-size="10.00">+ getProvider()</text>
<text text-anchor="start" x="8" y="-197.5" font-family="Helvetica,sans-Serif" font-size="10.00">+ setProvider()</text>
<text text-anchor="start" x="8" y="-187.5" font-family="Helvetica,sans-Serif" font-size="10.00">+ canConsume()</text>
</a>
</g>
</g>
<!-- Node1&#45;&gt;Node6 -->
<g id="edge5" class="edge"><title>Node1&#45;&gt;Node6</title>
<path fill="none" stroke="midnightblue" d="M109.861,-323.136C101.987,-307.935 93.2026,-290.975 85.2956,-275.71"/>
<polygon fill="none" stroke="midnightblue" points="106.923,-325.073 114.63,-332.342 113.139,-321.853 106.923,-325.073"/>
</g>
<!-- Node7 -->
<g id="node7" class="node"><title>Node7</title>
<g id="a_node7"><a xlink:href="class_hydro_couple_core_1_1_data_1_1_i_output.html" target="_top" xlink:title="An output exchange item that can deliver values from an IModelComponent. ">
<polygon fill="white" stroke="black" points="140.41,-161.5 140.41,-295.5 272.309,-295.5 272.309,-161.5 140.41,-161.5"/>
<text text-anchor="start" x="148.41" y="-283.5" font-family="Helvetica,sans-Serif" font-size="10.00">HydroCoupleCore::Data</text>
<text text-anchor="middle" x="206.359" y="-273.5" font-family="Helvetica,sans-Serif" font-size="10.00">::IOutput</text>
<polyline fill="none" stroke="black" points="140.41,-267.5 272.309,-267.5 "/>
<text text-anchor="middle" x="206.359" y="-255.5" font-family="Helvetica,sans-Serif" font-size="10.00"> </text>
<polyline fill="none" stroke="black" points="140.41,-249.5 272.309,-249.5 "/>
<text text-anchor="start" x="148.41" y="-237.5" font-family="Helvetica,sans-Serif" font-size="10.00">+ ~IOutput()</text>
<text text-anchor="start" x="148.41" y="-227.5" font-family="Helvetica,sans-Serif" font-size="10.00">+ consumers()</text>
<text text-anchor="start" x="148.41" y="-217.5" font-family="Helvetica,sans-Serif" font-size="10.00">+ addConsumer()</text>
<text text-anchor="start" x="148.41" y="-207.5" font-family="Helvetica,sans-Serif" font-size="10.00">+ removeConsumer()</text>
<text text-anchor="start" x="148.41" y="-197.5" font-family="Helvetica,sans-Serif" font-size="10.00">+ adaptedOutputs()</text>
<text text-anchor="start" x="148.41" y="-187.5" font-family="Helvetica,sans-Serif" font-size="10.00">+ addAdaptedOutput()</text>
<text text-anchor="start" x="148.41" y="-177.5" font-family="Helvetica,sans-Serif" font-size="10.00">+ removeAdaptedOutput()</text>
<text text-anchor="start" x="148.41" y="-167.5" font-family="Helvetica,sans-Serif" font-size="10.00">+ updateValues()</text>
</a>
</g>
</g>
<!-- Node1&#45;&gt;Node7 -->
<g id="edge6" class="edge"><title>Node1&#45;&gt;Node7</title>
<path fill="none" stroke="midnightblue" d="M157.068,-323.356C161.722,-314.495 166.693,-305.029 171.621,-295.645"/>
<polygon fill="none" stroke="midnightblue" points="153.9,-321.862 152.349,-332.342 160.097,-325.116 153.9,-321.862"/>
</g>
<!-- Node2 -->
<g id="node2" class="node"><title>Node2</title>
<g id="a_node2"><a xlink:href="class_hydro_couple_core_1_1_data_1_1_i_component_item.html" target="_top" xlink:title="IComponentItem is a fundamental unit of data for a component. ">
<polygon fill="white" stroke="black" points="72,-443.5 72,-527.5 194.719,-527.5 194.719,-443.5 72,-443.5"/>
<text text-anchor="start" x="80" y="-515.5" font-family="Helvetica,sans-Serif" font-size="10.00">HydroCoupleCore::Data</text>
<text text-anchor="middle" x="133.359" y="-505.5" font-family="Helvetica,sans-Serif" font-size="10.00">::IComponentItem</text>
<polyline fill="none" stroke="black" points="72,-499.5 194.719,-499.5 "/>
<text text-anchor="middle" x="133.359" y="-487.5" font-family="Helvetica,sans-Serif" font-size="10.00"> </text>
<polyline fill="none" stroke="black" points="72,-481.5 194.719,-481.5 "/>
<text text-anchor="start" x="80" y="-469.5" font-family="Helvetica,sans-Serif" font-size="10.00">+ ~IComponentItem()</text>
<text text-anchor="start" x="80" y="-459.5" font-family="Helvetica,sans-Serif" font-size="10.00">+ modelComponent()</text>
<text text-anchor="start" x="80" y="-449.5" font-family="Helvetica,sans-Serif" font-size="10.00">+ dimensions()</text>
</a>
</g>
</g>
<!-- Node2&#45;&gt;Node1 -->
<g id="edge1" class="edge"><title>Node2&#45;&gt;Node1</title>
<path fill="none" stroke="midnightblue" d="M133.359,-433.328C133.359,-424.341 133.359,-415.159 133.359,-406.688"/>
<polygon fill="none" stroke="midnightblue" points="129.859,-433.343 133.359,-443.343 136.859,-433.343 129.859,-433.343"/>
</g>
<!-- Node3 -->
<g id="node3" class="node"><title>Node3</title>
<g id="a_node3"><a xlink:href="class_hydro_couple_core_1_1_i_identity.html" target="_top" xlink:title="IIdentity interface class defines a method to get the Id of an HydroCouple entity. &#160;IIdentity extends the IDescription interface class, and therefore has, next to the id, a caption and a description. ">
<polygon fill="white" stroke="black" points="65.0518,-564.5 65.0518,-628.5 201.667,-628.5 201.667,-564.5 65.0518,-564.5"/>
<text text-anchor="middle" x="133.359" y="-616.5" font-family="Helvetica,sans-Serif" font-size="10.00">HydroCoupleCore::IIdentity</text>
<polyline fill="none" stroke="black" points="65.0518,-610.5 201.667,-610.5 "/>
<text text-anchor="middle" x="133.359" y="-598.5" font-family="Helvetica,sans-Serif" font-size="10.00"> </text>
<polyline fill="none" stroke="black" points="65.0518,-592.5 201.667,-592.5 "/>
<text text-anchor="start" x="73.0518" y="-580.5" font-family="Helvetica,sans-Serif" font-size="10.00">+ ~IIdentity()</text>
<text text-anchor="start" x="73.0518" y="-570.5" font-family="Helvetica,sans-Serif" font-size="10.00">+ id()</text>
</a>
</g>
</g>
<!-- Node3&#45;&gt;Node2 -->
<g id="edge2" class="edge"><title>Node3&#45;&gt;Node2</title>
<path fill="none" stroke="midnightblue" d="M133.359,-554.263C133.359,-545.503 133.359,-536.255 133.359,-527.503"/>
<polygon fill="none" stroke="midnightblue" points="129.859,-554.265 133.359,-564.265 136.859,-554.265 129.859,-554.265"/>
</g>
<!-- Node4 -->
<g id="node4" class="node"><title>Node4</title>
<g id="a_node4"><a xlink:href="class_hydro_couple_core_1_1_i_description.html" target="_top" xlink:title="IDescription interface class provides descriptive information on a HydroCouple object. ">
<polygon fill="white" stroke="black" points="56.1626,-665.5 56.1626,-759.5 210.556,-759.5 210.556,-665.5 56.1626,-665.5"/>
<text text-anchor="middle" x="133.359" y="-747.5" font-family="Helvetica,sans-Serif" font-size="10.00">HydroCoupleCore::IDescription</text>
<polyline fill="none" stroke="black" points="56.1626,-741.5 210.556,-741.5 "/>
<text text-anchor="middle" x="133.359" y="-729.5" font-family="Helvetica,sans-Serif" font-size="10.00"> </text>
<polyline fill="none" stroke="black" points="56.1626,-723.5 210.556,-723.5 "/>
<text text-anchor="start" x="64.1626" y="-711.5" font-family="Helvetica,sans-Serif" font-size="10.00">+ ~IDescription()</text>
<text text-anchor="start" x="64.1626" y="-701.5" font-family="Helvetica,sans-Serif" font-size="10.00">+ getCaption()</text>
<text text-anchor="start" x="64.1626" y="-691.5" font-family="Helvetica,sans-Serif" font-size="10.00">+ setCaption()</text>
<text text-anchor="start" x="64.1626" y="-681.5" font-family="Helvetica,sans-Serif" font-size="10.00">+ getDescription()</text>
<text text-anchor="start" x="64.1626" y="-671.5" font-family="Helvetica,sans-Serif" font-size="10.00">+ setDescription()</text>
</a>
</g>
</g>
<!-- Node4&#45;&gt;Node3 -->
<g id="edge3" class="edge"><title>Node4&#45;&gt;Node3</title>
<path fill="none" stroke="midnightblue" d="M133.359,-655.212C133.359,-646.081 133.359,-636.926 133.359,-628.684"/>
<polygon fill="none" stroke="midnightblue" points="129.859,-655.46 133.359,-665.46 136.859,-655.46 129.859,-655.46"/>
</g>
<!-- Node5 -->
<g id="node5" class="node"><title>Node5</title>
<g id="a_node5"><a xlink:href="class_hydro_couple_core_1_1_i_property_changed.html" target="_top" xlink:title="IPropertyChanged interface is used to emit signal/event when a property of an object changes...">
<polygon fill="white" stroke="black" points="62.2759,-796.5 62.2759,-860.5 204.443,-860.5 204.443,-796.5 62.2759,-796.5"/>
<text text-anchor="start" x="70.2759" y="-848.5" font-family="Helvetica,sans-Serif" font-size="10.00">HydroCoupleCore::IProperty</text>
<text text-anchor="middle" x="133.359" y="-838.5" font-family="Helvetica,sans-Serif" font-size="10.00">Changed</text>
<polyline fill="none" stroke="black" points="62.2759,-832.5 204.443,-832.5 "/>
<text text-anchor="middle" x="133.359" y="-820.5" font-family="Helvetica,sans-Serif" font-size="10.00"> </text>
<polyline fill="none" stroke="black" points="62.2759,-814.5 204.443,-814.5 "/>
<text text-anchor="start" x="70.2759" y="-802.5" font-family="Helvetica,sans-Serif" font-size="10.00">+ ~IPropertyChanged()</text>
</a>
</g>
</g>
<!-- Node5&#45;&gt;Node4 -->
<g id="edge4" class="edge"><title>Node5&#45;&gt;Node4</title>
<path fill="none" stroke="midnightblue" d="M133.359,-786.141C133.359,-777.513 133.359,-768.367 133.359,-759.581"/>
<polygon fill="none" stroke="midnightblue" points="129.859,-786.349 133.359,-796.349 136.859,-786.349 129.859,-786.349"/>
</g>
<!-- Node8 -->
<g id="node8" class="node"><title>Node8</title>
<g id="a_node8"><a xlink:href="class_hydro_couple_core_1_1_data_1_1_i_adapted_output.html" target="_top" xlink:title="An IAdaptedOutput adds one or more data operations on top of an IOutput. ">
<polygon fill="white" stroke="black" points="140.967,-0.5 140.967,-124.5 271.752,-124.5 271.752,-0.5 140.967,-0.5"/>
<text text-anchor="start" x="148.967" y="-112.5" font-family="Helvetica,sans-Serif" font-size="10.00">HydroCoupleCore::Data</text>
<text text-anchor="middle" x="206.359" y="-102.5" font-family="Helvetica,sans-Serif" font-size="10.00">::IAdaptedOutput</text>
<polyline fill="none" stroke="black" points="140.967,-96.5 271.752,-96.5 "/>
<text text-anchor="middle" x="206.359" y="-84.5" font-family="Helvetica,sans-Serif" font-size="10.00"> </text>
<polyline fill="none" stroke="black" points="140.967,-78.5 271.752,-78.5 "/>
<text text-anchor="start" x="148.967" y="-66.5" font-family="Helvetica,sans-Serif" font-size="10.00">+ ~IAdaptedOutput()</text>
<text text-anchor="start" x="148.967" y="-56.5" font-family="Helvetica,sans-Serif" font-size="10.00">+ adaptedOutputFactory()</text>
<text text-anchor="start" x="148.967" y="-46.5" font-family="Helvetica,sans-Serif" font-size="10.00">+ arguments()</text>
<text text-anchor="start" x="148.967" y="-36.5" font-family="Helvetica,sans-Serif" font-size="10.00">+ setArgument()</text>
<text text-anchor="start" x="148.967" y="-26.5" font-family="Helvetica,sans-Serif" font-size="10.00">+ initialize()</text>
<text text-anchor="start" x="148.967" y="-16.5" font-family="Helvetica,sans-Serif" font-size="10.00">+ adaptee()</text>
<text text-anchor="start" x="148.967" y="-6.5" font-family="Helvetica,sans-Serif" font-size="10.00">+ refresh()</text>
</a>
</g>
</g>
<!-- Node7&#45;&gt;Node8 -->
<g id="edge7" class="edge"><title>Node7&#45;&gt;Node8</title>
<path fill="none" stroke="midnightblue" d="M206.359,-151.266C206.359,-142.353 206.359,-133.348 206.359,-124.677"/>
<polygon fill="none" stroke="midnightblue" points="202.859,-151.268 206.359,-161.268 209.859,-151.268 202.859,-151.268"/>
</g>
</g>
</svg>
        <g id="navigator" transform="translate(0 0)" fill="#404254">
                <rect fill="#f2f5e9" fill-opacity="0.5" stroke="#606060" stroke-width=".5" x="0" y="0" width="60" height="60"/>
                <use id="zoomplus" xlink:href="#zoomPlus" x="17" y="9" onmousedown="handleZoom(evt,'in')"/>
                <use id="zoomminus" xlink:href="#zoomMin" x="42" y="9" onmousedown="handleZoom(evt,'out')"/>
                <use id="reset" xlink:href="#resetDef" x="30" y="36" onmousedown="handleReset()"/>
                <g id="arrowUp" xlink:href="#dirArrow" transform="translate(30 24)" onmousedown="handlePan(0,-1)">
                  <use xlink:href="#rim" fill="#404040">
                        <set attributeName="fill" to="#808080" begin="arrowUp.mouseover" end="arrowUp.mouseout"/>
                  </use>
                  <path fill="none" stroke="white" stroke-width="1.5" d="M0,-3.0v7 M-2.5,-0.5L0,-3.0L2.5,-0.5"/>
                </g>
                <g id="arrowRight" xlink:href="#dirArrow" transform="rotate(90) translate(36 -43)" onmousedown="handlePan(1,0)">
                  <use xlink:href="#rim" fill="#404040">
                        <set attributeName="fill" to="#808080" begin="arrowRight.mouseover" end="arrowRight.mouseout"/>
                  </use>
                  <path fill="none" stroke="white" stroke-width="1.5" d="M0,-3.0v7 M-2.5,-0.5L0,-3.0L2.5,-0.5"/>
                </g>
                <g id="arrowDown" xlink:href="#dirArrow" transform="rotate(180) translate(-30 -48)" onmousedown="handlePan(0,1)">
                  <use xlink:href="#rim" fill="#404040">
                        <set attributeName="fill" to="#808080" begin="arrowDown.mouseover" end="arrowDown.mouseout"/>
                  </use>
                  <path fill="none" stroke="white" stroke-width="1.5" d="M0,-3.0v7 M-2.5,-0.5L0,-3.0L2.5,-0.5"/>
                </g>
                <g id="arrowLeft" xlink:href="#dirArrow" transform="rotate(270) translate(-36 17)" onmousedown="handlePan(-1,0)">
                  <use xlink:href="#rim" fill="#404040">
                        <set attributeName="fill" to="#808080" begin="arrowLeft.mouseover" end="arrowLeft.mouseout"/>
                  </use>
                  <path fill="none" stroke="white" stroke-width="1.5" d="M0,-3.0v7 M-2.5,-0.5L0,-3.0L2.5,-0.5"/>
                </g>
        </g>
        <svg viewBox="0 0 15 15" width="100%" height="30px" preserveAspectRatio="xMaxYMin meet">
         <g id="arrow_out" transform="scale(0.3 0.3)">
          <a xlink:href="class_hydro_couple_core_1_1_data_1_1_i_exchange_item__inherit__graph_org.svg" target="_base">
           <rect id="button" ry="5" rx="5" y="6" x="6" height="38" width="38"
                fill="#f2f5e9" fill-opacity="0.5" stroke="#606060" stroke-width="1.0"/>
           <path id="arrow"
             d="M 11.500037,31.436501 C 11.940474,20.09759 22.043105,11.32322 32.158766,21.979434 L 37.068811,17.246167 C 37.068811,17.246167 37.088388,32 37.088388,32 L 22.160133,31.978069 C 22.160133,31.978069 26.997745,27.140456 26.997745,27.140456 C 18.528582,18.264221 13.291696,25.230495 11.500037,31.436501 z"
             style="fill:#404040;"/>
          </a>
         </g>
        </svg>
</svg>
