<?xml version="1.0" encoding="UTF-8" standalone="no"?>
<!DOCTYPE svg PUBLIC "-//W3C//DTD SVG 1.1//EN"
 "http://www.w3.org/Graphics/SVG/1.1/DTD/svg11.dtd">
<!-- Generated by graphviz version 2.38.0 (20140413.2041)
 -->
<!-- Title: HydroCouple::Spatial::IPolyhedralSurfaceComponentItem Pages: 1 -->
<svg width="240pt" height="664pt"
 viewBox="0.00 0.00 240.04 663.71" xmlns="http://www.w3.org/2000/svg" xmlns:xlink="http://www.w3.org/1999/xlink">
<g id="graph0" class="graph" transform="scale(1 1) rotate(0) translate(4 659.714)">
<title>HydroCouple::Spatial::IPolyhedralSurfaceComponentItem</title>
<polygon fill="white" stroke="none" points="-4,4 -4,-659.714 236.035,-659.714 236.035,4 -4,4"/>
<!-- Node1 -->
<g id="node1" class="node"><title>Node1</title>
<polygon fill="#bfbfbf" stroke="black" points="0,-0.5 0,-117.845 232.035,-117.845 232.035,-0.5 0,-0.5"/>
<text text-anchor="start" x="8" y="-105.845" font-family="Monaco" font-size="10.00">HydroCouple::Spatial</text>
<text text-anchor="middle" x="116.018" y="-92.5098" font-family="Monaco" font-size="10.00">::IPolyhedralSurfaceComponentItem</text>
<polyline fill="none" stroke="black" points="0,-83.1748 232.035,-83.1748 "/>
<text text-anchor="middle" x="116.018" y="-71.1748" font-family="Monaco" font-size="10.00"> </text>
<polyline fill="none" stroke="black" points="0,-61.8398 232.035,-61.8398 "/>
<text text-anchor="start" x="8" y="-49.8398" font-family="Monaco" font-size="10.00">+ ~IPolyhedralSurfaceComponentItem()</text>
<text text-anchor="start" x="8" y="-36.5049" font-family="Monaco" font-size="10.00">+ patchDimension()</text>
<text text-anchor="start" x="8" y="-23.1699" font-family="Monaco" font-size="10.00">+ polyhedralSurface()</text>
<text text-anchor="start" x="8" y="-9.83496" font-family="Monaco" font-size="10.00">+ geometry()</text>
</g>
<!-- Node2 -->
<g id="node2" class="node"><title>Node2</title>
<g id="a_node2"><a xlink:href="class_hydro_couple_1_1_i_component_item.html" target="_top" xlink:title="IComponentItem is a fundamental unit of data for a component. ">
<polygon fill="white" stroke="black" points="27.0044,-154.845 27.0044,-258.854 205.031,-258.854 205.031,-154.845 27.0044,-154.845"/>
<text text-anchor="middle" x="116.018" y="-246.854" font-family="Monaco" font-size="10.00">HydroCouple::IComponentItem</text>
<polyline fill="none" stroke="black" points="27.0044,-237.52 205.031,-237.52 "/>
<text text-anchor="middle" x="116.018" y="-225.52" font-family="Monaco" font-size="10.00"> </text>
<polyline fill="none" stroke="black" points="27.0044,-216.185 205.031,-216.185 "/>
<text text-anchor="start" x="35.0044" y="-204.185" font-family="Monaco" font-size="10.00">+ ~IComponentItem()</text>
<text text-anchor="start" x="35.0044" y="-190.85" font-family="Monaco" font-size="10.00">+ modelComponent()</text>
<text text-anchor="start" x="35.0044" y="-177.515" font-family="Monaco" font-size="10.00">+ modelComponentId()</text>
<text text-anchor="start" x="35.0044" y="-164.18" font-family="Monaco" font-size="10.00">+ dimensions()</text>
</a>
</g>
</g>
<!-- Node2&#45;&gt;Node1 -->
<g id="edge1" class="edge"><title>Node2&#45;&gt;Node1</title>
<path fill="none" stroke="midnightblue" d="M116.018,-144.372C116.018,-135.639 116.018,-126.683 116.018,-118.023"/>
<polygon fill="none" stroke="midnightblue" points="112.518,-144.489 116.018,-154.489 119.518,-144.489 112.518,-144.489"/>
</g>
<!-- Node3 -->
<g id="node3" class="node"><title>Node3</title>
<g id="a_node3"><a xlink:href="class_hydro_couple_1_1_i_identity.html" target="_top" xlink:title="IIdentity interface class defines a method to get the Id of an HydroCouple entity. ">
<polygon fill="white" stroke="black" points="42.0068,-295.854 42.0068,-399.864 190.028,-399.864 190.028,-295.854 42.0068,-295.854"/>
<text text-anchor="middle" x="116.018" y="-387.864" font-family="Monaco" font-size="10.00">HydroCouple::IIdentity</text>
<polyline fill="none" stroke="black" points="42.0068,-378.529 190.028,-378.529 "/>
<text text-anchor="middle" x="116.018" y="-366.529" font-family="Monaco" font-size="10.00"> </text>
<polyline fill="none" stroke="black" points="42.0068,-357.194 190.028,-357.194 "/>
<text text-anchor="start" x="50.0068" y="-345.194" font-family="Monaco" font-size="10.00">+ ~IIdentity()</text>
<text text-anchor="start" x="50.0068" y="-331.859" font-family="Monaco" font-size="10.00">+ MPI_Comm()</text>
<text text-anchor="start" x="50.0068" y="-318.524" font-family="Monaco" font-size="10.00">+ MPI_Rank()</text>
<text text-anchor="start" x="50.0068" y="-305.189" font-family="Monaco" font-size="10.00">+ id()</text>
</a>
</g>
</g>
<!-- Node3&#45;&gt;Node2 -->
<g id="edge2" class="edge"><title>Node3&#45;&gt;Node2</title>
<path fill="none" stroke="midnightblue" d="M116.018,-285.296C116.018,-276.513 116.018,-267.56 116.018,-259.006"/>
<polygon fill="none" stroke="midnightblue" points="112.518,-285.492 116.018,-295.492 119.518,-285.492 112.518,-285.492"/>
</g>
<!-- Node4 -->
<g id="node4" class="node"><title>Node4</title>
<g id="a_node4"><a xlink:href="class_hydro_couple_1_1_i_description.html" target="_top" xlink:title="IDescription interface class provides descriptive information on a HydroCouple object. ">
<polygon fill="white" stroke="black" points="33.0054,-436.864 33.0054,-554.209 199.03,-554.209 199.03,-436.864 33.0054,-436.864"/>
<text text-anchor="middle" x="116.018" y="-542.209" font-family="Monaco" font-size="10.00">HydroCouple::IDescription</text>
<polyline fill="none" stroke="black" points="33.0054,-532.874 199.03,-532.874 "/>
<text text-anchor="middle" x="116.018" y="-520.874" font-family="Monaco" font-size="10.00"> </text>
<polyline fill="none" stroke="black" points="33.0054,-511.539 199.03,-511.539 "/>
<text text-anchor="start" x="41.0054" y="-499.539" font-family="Monaco" font-size="10.00">+ ~IDescription()</text>
<text text-anchor="start" x="41.0054" y="-486.204" font-family="Monaco" font-size="10.00">+ getCaption()</text>
<text text-anchor="start" x="41.0054" y="-472.869" font-family="Monaco" font-size="10.00">+ setCaption()</text>
<text text-anchor="start" x="41.0054" y="-459.534" font-family="Monaco" font-size="10.00">+ getDescription()</text>
<text text-anchor="start" x="41.0054" y="-446.199" font-family="Monaco" font-size="10.00">+ setDescription()</text>
</a>
</g>
</g>
<!-- Node4&#45;&gt;Node3 -->
<g id="edge3" class="edge"><title>Node4&#45;&gt;Node3</title>
<path fill="none" stroke="midnightblue" d="M116.018,-426.263C116.018,-417.445 116.018,-408.537 116.018,-400.06"/>
<polygon fill="none" stroke="midnightblue" points="112.518,-426.543 116.018,-436.543 119.518,-426.543 112.518,-426.543"/>
</g>
<!-- Node5 -->
<g id="node5" class="node"><title>Node5</title>
<g id="a_node5"><a xlink:href="class_hydro_couple_1_1_i_property_changed.html" target="_top" xlink:title="IPropertyChanged interface is used to emit signal/event when a property of an object changes...">
<polygon fill="white" stroke="black" points="21.0034,-591.209 21.0034,-655.214 211.032,-655.214 211.032,-591.209 21.0034,-591.209"/>
<text text-anchor="middle" x="116.018" y="-643.214" font-family="Monaco" font-size="10.00">HydroCouple::IPropertyChanged</text>
<polyline fill="none" stroke="black" points="21.0034,-633.879 211.032,-633.879 "/>
<text text-anchor="middle" x="116.018" y="-621.879" font-family="Monaco" font-size="10.00"> </text>
<polyline fill="none" stroke="black" points="21.0034,-612.544 211.032,-612.544 "/>
<text text-anchor="start" x="29.0034" y="-600.544" font-family="Monaco" font-size="10.00">+ ~IPropertyChanged()</text>
</a>
</g>
</g>
<!-- Node5&#45;&gt;Node4 -->
<g id="edge4" class="edge"><title>Node5&#45;&gt;Node4</title>
<path fill="none" stroke="midnightblue" d="M116.018,-580.889C116.018,-572.504 116.018,-563.537 116.018,-554.695"/>
<polygon fill="none" stroke="midnightblue" points="112.518,-581.146 116.018,-591.146 119.518,-581.146 112.518,-581.146"/>
</g>
</g>
</svg>
