<?xml version="1.0" encoding="UTF-8" standalone="no"?>
<!DOCTYPE svg PUBLIC "-//W3C//DTD SVG 1.1//EN"
 "http://www.w3.org/Graphics/SVG/1.1/DTD/svg11.dtd">
<!-- Generated by graphviz version 2.38.0 (20140413.2041)
 -->
<!-- Title: HydroCoupleCore::IModelComponentInfo Pages: 1 -->
<!--zoomable 627 -->
<svg id="main" version="1.1" xmlns="http://www.w3.org/2000/svg" xmlns:xlink="http://www.w3.org/1999/xlink" xml:space="preserve" onload="init(evt)">
<style type="text/css"><![CDATA[
.edge:hover path { stroke: red; }
.edge:hover polygon { stroke: red; fill: red; }
]]></style>
<script type="text/javascript"><![CDATA[
var edges = document.getElementsByTagName('g');
if (edges && edges.length) {
  for (var i=0;i<edges.length;i++) {
    if (edges[i].id.substr(0,4)=='edge') {
      edges[i].setAttribute('class','edge');
    }
  }
}
]]></script>
        <defs>
                <circle id="rim" cx="0" cy="0" r="7"/>
                <circle id="rim2" cx="0" cy="0" r="3.5"/>
                <g id="zoomPlus">
                        <use xlink:href="#rim" fill="#404040">
                                <set attributeName="fill" to="#808080" begin="zoomplus.mouseover" end="zoomplus.mouseout"/>
                        </use>
                        <path d="M-4,0h8M0,-4v8" fill="none" stroke="white" stroke-width="1.5" pointer-events="none"/>
                </g>
                <g id="zoomMin">
                        <use xlink:href="#rim" fill="#404040">
                                <set attributeName="fill" to="#808080" begin="zoomminus.mouseover" end="zoomminus.mouseout"/>
                        </use>
                        <path d="M-4,0h8" fill="none" stroke="white" stroke-width="1.5" pointer-events="none"/>
                </g>
                <g id="dirArrow">
                        <path fill="none" stroke="white" stroke-width="1.5" d="M0,-3.0v7 M-2.5,-0.5L0,-3.0L2.5,-0.5"/>
                </g>
               <g id="resetDef">
                       <use xlink:href="#rim2" fill="#404040">
                               <set attributeName="fill" to="#808080" begin="reset.mouseover" end="reset.mouseout"/>
                       </use>
               </g>
        </defs>

<script type="text/javascript">
var viewWidth = 208;
var viewHeight = 627;
var sectionId = 'dynsection-0';
</script>
<script xlink:href="svgpan.js"/>
<svg id="graph" class="graph">
<g id="viewport">
<title>HydroCoupleCore::IModelComponentInfo</title>
<polygon fill="white" stroke="none" points="-4,4 -4,-623 203.989,-623 203.989,4 -4,4"/>
<!-- Node1 -->
<g id="node1" class="node"><title>Node1</title>
<polygon fill="#bfbfbf" stroke="black" points="0,-0.5 0,-64.5 199.989,-64.5 199.989,-0.5 0,-0.5"/>
<text text-anchor="middle" x="99.9946" y="-52.5" font-family="Helvetica,sans-Serif" font-size="10.00">HydroCoupleCore::IModelComponentInfo</text>
<polyline fill="none" stroke="black" points="0,-46.5 199.989,-46.5 "/>
<text text-anchor="middle" x="99.9946" y="-34.5" font-family="Helvetica,sans-Serif" font-size="10.00"> </text>
<polyline fill="none" stroke="black" points="0,-28.5 199.989,-28.5 "/>
<text text-anchor="start" x="8" y="-16.5" font-family="Helvetica,sans-Serif" font-size="10.00">+ ~IModelComponentInfo()</text>
<text text-anchor="start" x="8" y="-6.5" font-family="Helvetica,sans-Serif" font-size="10.00">+ createComponentInstance()</text>
</g>
<!-- Node2 -->
<g id="node2" class="node"><title>Node2</title>
<g id="a_node2"><a xlink:href="class_hydro_couple_core_1_1_i_component_info.html" target="_top" xlink:title="IComponentInfo interface class provides detailed metadata about a component. ">
<polygon fill="white" stroke="black" points="13.6182,-101.5 13.6182,-285.5 186.371,-285.5 186.371,-101.5 13.6182,-101.5"/>
<text text-anchor="middle" x="99.9946" y="-273.5" font-family="Helvetica,sans-Serif" font-size="10.00">HydroCoupleCore::IComponentInfo</text>
<polyline fill="none" stroke="black" points="13.6182,-267.5 186.371,-267.5 "/>
<text text-anchor="middle" x="99.9946" y="-255.5" font-family="Helvetica,sans-Serif" font-size="10.00"> </text>
<polyline fill="none" stroke="black" points="13.6182,-249.5 186.371,-249.5 "/>
<text text-anchor="start" x="21.6182" y="-237.5" font-family="Helvetica,sans-Serif" font-size="10.00">+ ~IComponentInfo()</text>
<text text-anchor="start" x="21.6182" y="-227.5" font-family="Helvetica,sans-Serif" font-size="10.00">+ name()</text>
<text text-anchor="start" x="21.6182" y="-217.5" font-family="Helvetica,sans-Serif" font-size="10.00">+ libraryFilePath()</text>
<text text-anchor="start" x="21.6182" y="-207.5" font-family="Helvetica,sans-Serif" font-size="10.00">+ setLibraryFilePath()</text>
<text text-anchor="start" x="21.6182" y="-197.5" font-family="Helvetica,sans-Serif" font-size="10.00">+ iconFilePath()</text>
<text text-anchor="start" x="21.6182" y="-187.5" font-family="Helvetica,sans-Serif" font-size="10.00">+ vendor()</text>
<text text-anchor="start" x="21.6182" y="-177.5" font-family="Helvetica,sans-Serif" font-size="10.00">+ publications()</text>
<text text-anchor="start" x="21.6182" y="-167.5" font-family="Helvetica,sans-Serif" font-size="10.00">+ license()</text>
<text text-anchor="start" x="21.6182" y="-157.5" font-family="Helvetica,sans-Serif" font-size="10.00">+ copyright()</text>
<text text-anchor="start" x="21.6182" y="-147.5" font-family="Helvetica,sans-Serif" font-size="10.00">+ url()</text>
<text text-anchor="start" x="21.6182" y="-137.5" font-family="Helvetica,sans-Serif" font-size="10.00">+ email()</text>
<text text-anchor="start" x="21.6182" y="-127.5" font-family="Helvetica,sans-Serif" font-size="10.00">+ version()</text>
<text text-anchor="start" x="21.6182" y="-117.5" font-family="Helvetica,sans-Serif" font-size="10.00">+ category()</text>
<text text-anchor="start" x="21.6182" y="-107.5" font-family="Helvetica,sans-Serif" font-size="10.00">+ hasValidLicense()</text>
</a>
</g>
</g>
<!-- Node2&#45;&gt;Node1 -->
<g id="edge1" class="edge"><title>Node2&#45;&gt;Node1</title>
<path fill="none" stroke="midnightblue" d="M99.9946,-91.3073C99.9946,-81.7628 99.9946,-72.6701 99.9946,-64.6392"/>
<polygon fill="none" stroke="midnightblue" points="96.4947,-91.3915 99.9946,-101.392 103.495,-91.3915 96.4947,-91.3915"/>
</g>
<!-- Node3 -->
<g id="node3" class="node"><title>Node3</title>
<g id="a_node3"><a xlink:href="class_hydro_couple_core_1_1_i_identity.html" target="_top" xlink:title="IIdentity interface class defines a method to get the Id of an HydroCouple entity. &#160;IIdentity extends the IDescription interface class, and therefore has, next to the id, a caption and a description. ">
<polygon fill="white" stroke="black" points="31.687,-322.5 31.687,-386.5 168.302,-386.5 168.302,-322.5 31.687,-322.5"/>
<text text-anchor="middle" x="99.9946" y="-374.5" font-family="Helvetica,sans-Serif" font-size="10.00">HydroCoupleCore::IIdentity</text>
<polyline fill="none" stroke="black" points="31.687,-368.5 168.302,-368.5 "/>
<text text-anchor="middle" x="99.9946" y="-356.5" font-family="Helvetica,sans-Serif" font-size="10.00"> </text>
<polyline fill="none" stroke="black" points="31.687,-350.5 168.302,-350.5 "/>
<text text-anchor="start" x="39.687" y="-338.5" font-family="Helvetica,sans-Serif" font-size="10.00">+ ~IIdentity()</text>
<text text-anchor="start" x="39.687" y="-328.5" font-family="Helvetica,sans-Serif" font-size="10.00">+ id()</text>
</a>
</g>
</g>
<!-- Node3&#45;&gt;Node2 -->
<g id="edge2" class="edge"><title>Node3&#45;&gt;Node2</title>
<path fill="none" stroke="midnightblue" d="M99.9946,-312.332C99.9946,-303.988 99.9946,-294.903 99.9946,-285.601"/>
<polygon fill="none" stroke="midnightblue" points="96.4947,-312.466 99.9946,-322.466 103.495,-312.466 96.4947,-312.466"/>
</g>
<!-- Node4 -->
<g id="node4" class="node"><title>Node4</title>
<g id="a_node4"><a xlink:href="class_hydro_couple_core_1_1_i_description.html" target="_top" xlink:title="IDescription interface class provides descriptive information on a HydroCouple object. ">
<polygon fill="white" stroke="black" points="22.7979,-423.5 22.7979,-517.5 177.191,-517.5 177.191,-423.5 22.7979,-423.5"/>
<text text-anchor="middle" x="99.9946" y="-505.5" font-family="Helvetica,sans-Serif" font-size="10.00">HydroCoupleCore::IDescription</text>
<polyline fill="none" stroke="black" points="22.7979,-499.5 177.191,-499.5 "/>
<text text-anchor="middle" x="99.9946" y="-487.5" font-family="Helvetica,sans-Serif" font-size="10.00"> </text>
<polyline fill="none" stroke="black" points="22.7979,-481.5 177.191,-481.5 "/>
<text text-anchor="start" x="30.7979" y="-469.5" font-family="Helvetica,sans-Serif" font-size="10.00">+ ~IDescription()</text>
<text text-anchor="start" x="30.7979" y="-459.5" font-family="Helvetica,sans-Serif" font-size="10.00">+ getCaption()</text>
<text text-anchor="start" x="30.7979" y="-449.5" font-family="Helvetica,sans-Serif" font-size="10.00">+ setCaption()</text>
<text text-anchor="start" x="30.7979" y="-439.5" font-family="Helvetica,sans-Serif" font-size="10.00">+ getDescription()</text>
<text text-anchor="start" x="30.7979" y="-429.5" font-family="Helvetica,sans-Serif" font-size="10.00">+ setDescription()</text>
</a>
</g>
</g>
<!-- Node4&#45;&gt;Node3 -->
<g id="edge3" class="edge"><title>Node4&#45;&gt;Node3</title>
<path fill="none" stroke="midnightblue" d="M99.9946,-413.212C99.9946,-404.081 99.9946,-394.926 99.9946,-386.684"/>
<polygon fill="none" stroke="midnightblue" points="96.4947,-413.46 99.9946,-423.46 103.495,-413.46 96.4947,-413.46"/>
</g>
<!-- Node5 -->
<g id="node5" class="node"><title>Node5</title>
<g id="a_node5"><a xlink:href="class_hydro_couple_core_1_1_i_property_changed.html" target="_top" xlink:title="IPropertyChanged interface is used to emit signal/event when a property of an object changes...">
<polygon fill="white" stroke="black" points="28.9111,-554.5 28.9111,-618.5 171.078,-618.5 171.078,-554.5 28.9111,-554.5"/>
<text text-anchor="start" x="36.9111" y="-606.5" font-family="Helvetica,sans-Serif" font-size="10.00">HydroCoupleCore::IProperty</text>
<text text-anchor="middle" x="99.9946" y="-596.5" font-family="Helvetica,sans-Serif" font-size="10.00">Changed</text>
<polyline fill="none" stroke="black" points="28.9111,-590.5 171.078,-590.5 "/>
<text text-anchor="middle" x="99.9946" y="-578.5" font-family="Helvetica,sans-Serif" font-size="10.00"> </text>
<polyline fill="none" stroke="black" points="28.9111,-572.5 171.078,-572.5 "/>
<text text-anchor="start" x="36.9111" y="-560.5" font-family="Helvetica,sans-Serif" font-size="10.00">+ ~IPropertyChanged()</text>
</a>
</g>
</g>
<!-- Node5&#45;&gt;Node4 -->
<g id="edge4" class="edge"><title>Node5&#45;&gt;Node4</title>
<path fill="none" stroke="midnightblue" d="M99.9946,-544.141C99.9946,-535.513 99.9946,-526.367 99.9946,-517.581"/>
<polygon fill="none" stroke="midnightblue" points="96.4947,-544.349 99.9946,-554.349 103.495,-544.349 96.4947,-544.349"/>
</g>
</g>
</svg>
        <g id="navigator" transform="translate(0 0)" fill="#404254">
                <rect fill="#f2f5e9" fill-opacity="0.5" stroke="#606060" stroke-width=".5" x="0" y="0" width="60" height="60"/>
                <use id="zoomplus" xlink:href="#zoomPlus" x="17" y="9" onmousedown="handleZoom(evt,'in')"/>
                <use id="zoomminus" xlink:href="#zoomMin" x="42" y="9" onmousedown="handleZoom(evt,'out')"/>
                <use id="reset" xlink:href="#resetDef" x="30" y="36" onmousedown="handleReset()"/>
                <g id="arrowUp" xlink:href="#dirArrow" transform="translate(30 24)" onmousedown="handlePan(0,-1)">
                  <use xlink:href="#rim" fill="#404040">
                        <set attributeName="fill" to="#808080" begin="arrowUp.mouseover" end="arrowUp.mouseout"/>
                  </use>
                  <path fill="none" stroke="white" stroke-width="1.5" d="M0,-3.0v7 M-2.5,-0.5L0,-3.0L2.5,-0.5"/>
                </g>
                <g id="arrowRight" xlink:href="#dirArrow" transform="rotate(90) translate(36 -43)" onmousedown="handlePan(1,0)">
                  <use xlink:href="#rim" fill="#404040">
                        <set attributeName="fill" to="#808080" begin="arrowRight.mouseover" end="arrowRight.mouseout"/>
                  </use>
                  <path fill="none" stroke="white" stroke-width="1.5" d="M0,-3.0v7 M-2.5,-0.5L0,-3.0L2.5,-0.5"/>
                </g>
                <g id="arrowDown" xlink:href="#dirArrow" transform="rotate(180) translate(-30 -48)" onmousedown="handlePan(0,1)">
                  <use xlink:href="#rim" fill="#404040">
                        <set attributeName="fill" to="#808080" begin="arrowDown.mouseover" end="arrowDown.mouseout"/>
                  </use>
                  <path fill="none" stroke="white" stroke-width="1.5" d="M0,-3.0v7 M-2.5,-0.5L0,-3.0L2.5,-0.5"/>
                </g>
                <g id="arrowLeft" xlink:href="#dirArrow" transform="rotate(270) translate(-36 17)" onmousedown="handlePan(-1,0)">
                  <use xlink:href="#rim" fill="#404040">
                        <set attributeName="fill" to="#808080" begin="arrowLeft.mouseover" end="arrowLeft.mouseout"/>
                  </use>
                  <path fill="none" stroke="white" stroke-width="1.5" d="M0,-3.0v7 M-2.5,-0.5L0,-3.0L2.5,-0.5"/>
                </g>
        </g>
        <svg viewBox="0 0 15 15" width="100%" height="30px" preserveAspectRatio="xMaxYMin meet">
         <g id="arrow_out" transform="scale(0.3 0.3)">
          <a xlink:href="class_hydro_couple_core_1_1_i_model_component_info__inherit__graph_org.svg" target="_base">
           <rect id="button" ry="5" rx="5" y="6" x="6" height="38" width="38"
                fill="#f2f5e9" fill-opacity="0.5" stroke="#606060" stroke-width="1.0"/>
           <path id="arrow"
             d="M 11.500037,31.436501 C 11.940474,20.09759 22.043105,11.32322 32.158766,21.979434 L 37.068811,17.246167 C 37.068811,17.246167 37.088388,32 37.088388,32 L 22.160133,31.978069 C 22.160133,31.978069 26.997745,27.140456 26.997745,27.140456 C 18.528582,18.264221 13.291696,25.230495 11.500037,31.436501 z"
             style="fill:#404040;"/>
          </a>
         </g>
        </svg>
</svg>
