<?xml version="1.0" encoding="UTF-8" standalone="no"?>
<!DOCTYPE svg PUBLIC "-//W3C//DTD SVG 1.1//EN"
 "http://www.w3.org/Graphics/SVG/1.1/DTD/svg11.dtd">
<!-- Generated by graphviz version 2.38.0 (20140413.2041)
 -->
<!-- Title: HydroCouple::Spatial::ITINExchangeItem Pages: 1 -->
<!--zoomable 938 -->
<svg id="main" version="1.1" xmlns="http://www.w3.org/2000/svg" xmlns:xlink="http://www.w3.org/1999/xlink" xml:space="preserve" onload="init(evt)">
<style type="text/css"><![CDATA[
.edge:hover path { stroke: red; }
.edge:hover polygon { stroke: red; fill: red; }
]]></style>
<script type="text/javascript"><![CDATA[
var edges = document.getElementsByTagName('g');
if (edges && edges.length) {
  for (var i=0;i<edges.length;i++) {
    if (edges[i].id.substr(0,4)=='edge') {
      edges[i].setAttribute('class','edge');
    }
  }
}
]]></script>
        <defs>
                <circle id="rim" cx="0" cy="0" r="7"/>
                <circle id="rim2" cx="0" cy="0" r="3.5"/>
                <g id="zoomPlus">
                        <use xlink:href="#rim" fill="#404040">
                                <set attributeName="fill" to="#808080" begin="zoomplus.mouseover" end="zoomplus.mouseout"/>
                        </use>
                        <path d="M-4,0h8M0,-4v8" fill="none" stroke="white" stroke-width="1.5" pointer-events="none"/>
                </g>
                <g id="zoomMin">
                        <use xlink:href="#rim" fill="#404040">
                                <set attributeName="fill" to="#808080" begin="zoomminus.mouseover" end="zoomminus.mouseout"/>
                        </use>
                        <path d="M-4,0h8" fill="none" stroke="white" stroke-width="1.5" pointer-events="none"/>
                </g>
                <g id="dirArrow">
                        <path fill="none" stroke="white" stroke-width="1.5" d="M0,-3.0v7 M-2.5,-0.5L0,-3.0L2.5,-0.5"/>
                </g>
               <g id="resetDef">
                       <use xlink:href="#rim2" fill="#404040">
                               <set attributeName="fill" to="#808080" begin="reset.mouseover" end="reset.mouseout"/>
                       </use>
               </g>
        </defs>

<script type="text/javascript">
var viewWidth = 370;
var viewHeight = 938;
var sectionId = 'dynsection-0';
</script>
<script xlink:href="svgpan.js"/>
<svg id="graph" class="graph">
<g id="viewport">
<title>HydroCouple::Spatial::ITINExchangeItem</title>
<!-- Node1 -->
<g id="node1" class="node"><title>Node1</title>
<polygon fill="#bfbfbf" stroke="black" points="110.002,-0.5 110.002,-77.8398 252.023,-77.8398 252.023,-0.5 110.002,-0.5"/>
<text text-anchor="start" x="118.002" y="-65.8398" font-family="Monaco" font-size="10.00">HydroCouple::Spatial</text>
<text text-anchor="middle" x="181.013" y="-52.5049" font-family="Monaco" font-size="10.00">::ITINExchangeItem</text>
<polyline fill="none" stroke="black" points="110.002,-43.1699 252.023,-43.1699 "/>
<text text-anchor="middle" x="181.013" y="-31.1699" font-family="Monaco" font-size="10.00"> </text>
<polyline fill="none" stroke="black" points="110.002,-21.835 252.023,-21.835 "/>
<text text-anchor="start" x="118.002" y="-9.83496" font-family="Monaco" font-size="10.00">+ ~ITINExchangeItem()</text>
</g>
<!-- Node2 -->
<g id="node2" class="node"><title>Node2</title>
<g id="a_node2"><a xlink:href="class_hydro_couple_1_1_i_exchange_item.html" target="_top" xlink:title="IExchangeItem the base data item the can be exchanged between components at runtime. ">
<polygon fill="none" stroke="black" points="0,-194.85 0,-258.854 172.025,-258.854 172.025,-194.85 0,-194.85"/>
<text text-anchor="middle" x="86.0127" y="-246.854" font-family="Monaco" font-size="10.00">HydroCouple::IExchangeItem</text>
<polyline fill="none" stroke="black" points="0,-237.52 172.025,-237.52 "/>
<text text-anchor="middle" x="86.0127" y="-225.52" font-family="Monaco" font-size="10.00"> </text>
<polyline fill="none" stroke="black" points="0,-216.185 172.025,-216.185 "/>
<text text-anchor="start" x="8" y="-204.185" font-family="Monaco" font-size="10.00">+ ~IExchangeItem()</text>
</a>
</g>
</g>
<!-- Node2&#45;&gt;Node1 -->
<g id="edge1" class="edge"><title>Node2&#45;&gt;Node1</title>
<path fill="none" stroke="midnightblue" d="M106.552,-185.707C122.886,-153.782 145.578,-109.428 161.608,-78.098"/>
<polygon fill="none" stroke="midnightblue" points="103.352,-184.276 101.914,-194.773 109.584,-187.465 103.352,-184.276"/>
</g>
<!-- Node3 -->
<g id="node3" class="node"><title>Node3</title>
<g id="a_node3"><a xlink:href="class_hydro_couple_1_1_i_component_data_item.html" target="_top" xlink:title="IComponentItem is a fundamental unit of data for a component. ">
<polygon fill="none" stroke="black" points="79.9976,-375.864 79.9976,-559.884 282.028,-559.884 282.028,-375.864 79.9976,-375.864"/>
<text text-anchor="middle" x="181.013" y="-547.884" font-family="Monaco" font-size="10.00">HydroCouple::IComponentDataItem</text>
<polyline fill="none" stroke="black" points="79.9976,-538.549 282.028,-538.549 "/>
<text text-anchor="middle" x="181.013" y="-526.549" font-family="Monaco" font-size="10.00"> </text>
<polyline fill="none" stroke="black" points="79.9976,-517.214 282.028,-517.214 "/>
<text text-anchor="start" x="87.9976" y="-505.214" font-family="Monaco" font-size="10.00">+ ~IComponentDataItem()</text>
<text text-anchor="start" x="87.9976" y="-491.879" font-family="Monaco" font-size="10.00">+ modelComponent()</text>
<text text-anchor="start" x="87.9976" y="-478.544" font-family="Monaco" font-size="10.00">+ dimensions()</text>
<text text-anchor="start" x="87.9976" y="-465.209" font-family="Monaco" font-size="10.00">+ valueDefinition()</text>
<text text-anchor="start" x="87.9976" y="-451.874" font-family="Monaco" font-size="10.00">+ getValue()</text>
<text text-anchor="start" x="87.9976" y="-438.539" font-family="Monaco" font-size="10.00">+ getValues()</text>
<text text-anchor="start" x="87.9976" y="-425.204" font-family="Monaco" font-size="10.00">+ getValues()</text>
<text text-anchor="start" x="87.9976" y="-411.869" font-family="Monaco" font-size="10.00">+ setValue()</text>
<text text-anchor="start" x="87.9976" y="-398.534" font-family="Monaco" font-size="10.00">+ setValues()</text>
<text text-anchor="start" x="87.9976" y="-385.199" font-family="Monaco" font-size="10.00">+ setValues()</text>
</a>
</g>
</g>
<!-- Node3&#45;&gt;Node2 -->
<g id="edge2" class="edge"><title>Node3&#45;&gt;Node2</title>
<path fill="none" stroke="midnightblue" d="M140.961,-366.103C125.653,-327.587 109.286,-286.408 98.4353,-259.108"/>
<polygon fill="none" stroke="midnightblue" points="137.88,-367.828 144.826,-375.828 144.385,-365.243 137.88,-367.828"/>
</g>
<!-- Node7 -->
<g id="node7" class="node"><title>Node7</title>
<g id="a_node7"><a xlink:href="class_hydro_couple_1_1_spatial_1_1_i_t_i_n_component_data_item.html" target="_top" xlink:title="ITINComponentDataItem represents ITIN IComponentDataItem. ">
<polygon fill="none" stroke="black" points="190,-114.84 190,-338.864 362.025,-338.864 362.025,-114.84 190,-114.84"/>
<text text-anchor="start" x="198" y="-326.864" font-family="Monaco" font-size="10.00">HydroCouple::Spatial</text>
<text text-anchor="middle" x="276.013" y="-313.529" font-family="Monaco" font-size="10.00">::ITINComponentDataItem</text>
<polyline fill="none" stroke="black" points="190,-304.194 362.025,-304.194 "/>
<text text-anchor="middle" x="276.013" y="-292.194" font-family="Monaco" font-size="10.00"> </text>
<polyline fill="none" stroke="black" points="190,-282.859 362.025,-282.859 "/>
<text text-anchor="start" x="198" y="-270.859" font-family="Monaco" font-size="10.00">+ ~ITINComponentDataItem()</text>
<text text-anchor="start" x="198" y="-257.524" font-family="Monaco" font-size="10.00">+ TIN()</text>
<text text-anchor="start" x="198" y="-244.189" font-family="Monaco" font-size="10.00">+ triangle()</text>
<text text-anchor="start" x="198" y="-230.854" font-family="Monaco" font-size="10.00">+ TINPatchDimension()</text>
<text text-anchor="start" x="198" y="-217.52" font-family="Monaco" font-size="10.00">+ TINEdgeDimension()</text>
<text text-anchor="start" x="198" y="-204.185" font-family="Monaco" font-size="10.00">+ TINNodeDimension()</text>
<text text-anchor="start" x="198" y="-190.85" font-family="Monaco" font-size="10.00">+ getValue()</text>
<text text-anchor="start" x="198" y="-177.515" font-family="Monaco" font-size="10.00">+ getValues()</text>
<text text-anchor="start" x="198" y="-164.18" font-family="Monaco" font-size="10.00">+ getValues()</text>
<text text-anchor="start" x="198" y="-150.845" font-family="Monaco" font-size="10.00">+ setValue()</text>
<text text-anchor="start" x="198" y="-137.51" font-family="Monaco" font-size="10.00">+ setValues()</text>
<text text-anchor="start" x="198" y="-124.175" font-family="Monaco" font-size="10.00">+ setValues()</text>
</a>
</g>
</g>
<!-- Node3&#45;&gt;Node7 -->
<g id="edge7" class="edge"><title>Node3&#45;&gt;Node7</title>
<path fill="none" stroke="midnightblue" d="M220.918,-366.471C224.511,-357.43 228.164,-348.24 231.791,-339.115"/>
<polygon fill="none" stroke="midnightblue" points="217.64,-365.243 217.199,-375.828 224.145,-367.828 217.64,-365.243"/>
</g>
<!-- Node4 -->
<g id="node4" class="node"><title>Node4</title>
<g id="a_node4"><a xlink:href="class_hydro_couple_1_1_i_identity.html" target="_top" xlink:title="IIdentity interface class defines a method to get the Id of an HydroCouple entity. ">
<polygon fill="none" stroke="black" points="107.002,-596.884 107.002,-674.224 255.023,-674.224 255.023,-596.884 107.002,-596.884"/>
<text text-anchor="middle" x="181.013" y="-662.224" font-family="Monaco" font-size="10.00">HydroCouple::IIdentity</text>
<polyline fill="none" stroke="black" points="107.002,-652.889 255.023,-652.889 "/>
<text text-anchor="middle" x="181.013" y="-640.889" font-family="Monaco" font-size="10.00"> </text>
<polyline fill="none" stroke="black" points="107.002,-631.554 255.023,-631.554 "/>
<text text-anchor="start" x="115.002" y="-619.554" font-family="Monaco" font-size="10.00">+ ~IIdentity()</text>
<text text-anchor="start" x="115.002" y="-606.219" font-family="Monaco" font-size="10.00">+ id()</text>
</a>
</g>
</g>
<!-- Node4&#45;&gt;Node3 -->
<g id="edge3" class="edge"><title>Node4&#45;&gt;Node3</title>
<path fill="none" stroke="midnightblue" d="M181.013,-586.301C181.013,-577.948 181.013,-569.023 181.013,-559.965"/>
<polygon fill="none" stroke="midnightblue" points="177.513,-586.543 181.013,-596.543 184.513,-586.543 177.513,-586.543"/>
</g>
<!-- Node5 -->
<g id="node5" class="node"><title>Node5</title>
<g id="a_node5"><a xlink:href="class_hydro_couple_1_1_i_description.html" target="_top" xlink:title="IDescription interface class provides descriptive information on a HydroCouple object. ">
<polygon fill="none" stroke="black" points="98.0005,-711.224 98.0005,-828.568 264.025,-828.568 264.025,-711.224 98.0005,-711.224"/>
<text text-anchor="middle" x="181.013" y="-816.568" font-family="Monaco" font-size="10.00">HydroCouple::IDescription</text>
<polyline fill="none" stroke="black" points="98.0005,-807.233 264.025,-807.233 "/>
<text text-anchor="middle" x="181.013" y="-795.233" font-family="Monaco" font-size="10.00"> </text>
<polyline fill="none" stroke="black" points="98.0005,-785.898 264.025,-785.898 "/>
<text text-anchor="start" x="106" y="-773.898" font-family="Monaco" font-size="10.00">+ ~IDescription()</text>
<text text-anchor="start" x="106" y="-760.563" font-family="Monaco" font-size="10.00">+ caption()</text>
<text text-anchor="start" x="106" y="-747.229" font-family="Monaco" font-size="10.00">+ setCaption()</text>
<text text-anchor="start" x="106" y="-733.894" font-family="Monaco" font-size="10.00">+ description()</text>
<text text-anchor="start" x="106" y="-720.559" font-family="Monaco" font-size="10.00">+ setDescription()</text>
</a>
</g>
</g>
<!-- Node5&#45;&gt;Node4 -->
<g id="edge4" class="edge"><title>Node5&#45;&gt;Node4</title>
<path fill="none" stroke="midnightblue" d="M181.013,-700.658C181.013,-691.619 181.013,-682.632 181.013,-674.371"/>
<polygon fill="none" stroke="midnightblue" points="177.513,-700.849 181.013,-710.849 184.513,-700.849 177.513,-700.849"/>
</g>
<!-- Node6 -->
<g id="node6" class="node"><title>Node6</title>
<g id="a_node6"><a xlink:href="class_hydro_couple_1_1_i_property_changed.html" target="_top" xlink:title="IPropertyChanged interface is used to emit signal/event when a property of an object changes...">
<polygon fill="none" stroke="black" points="85.9985,-865.568 85.9985,-929.573 276.027,-929.573 276.027,-865.568 85.9985,-865.568"/>
<text text-anchor="middle" x="181.013" y="-917.573" font-family="Monaco" font-size="10.00">HydroCouple::IPropertyChanged</text>
<polyline fill="none" stroke="black" points="85.9985,-908.238 276.027,-908.238 "/>
<text text-anchor="middle" x="181.013" y="-896.238" font-family="Monaco" font-size="10.00"> </text>
<polyline fill="none" stroke="black" points="85.9985,-886.903 276.027,-886.903 "/>
<text text-anchor="start" x="93.9985" y="-874.903" font-family="Monaco" font-size="10.00">+ ~IPropertyChanged()</text>
</a>
</g>
</g>
<!-- Node6&#45;&gt;Node5 -->
<g id="edge5" class="edge"><title>Node6&#45;&gt;Node5</title>
<path fill="none" stroke="midnightblue" d="M181.013,-855.248C181.013,-846.863 181.013,-837.896 181.013,-829.054"/>
<polygon fill="none" stroke="midnightblue" points="177.513,-855.505 181.013,-865.505 184.513,-855.505 177.513,-855.505"/>
</g>
<!-- Node7&#45;&gt;Node1 -->
<g id="edge6" class="edge"><title>Node7&#45;&gt;Node1</title>
<path fill="none" stroke="midnightblue" d="M214.432,-105.49C209.407,-95.6675 204.612,-86.2966 200.304,-77.8748"/>
<polygon fill="none" stroke="midnightblue" points="211.435,-107.316 219.105,-114.624 217.667,-104.127 211.435,-107.316"/>
</g>
</g>
</svg>
        <g id="navigator" transform="translate(0 0)" fill="#404254">
                <rect fill="#f2f5e9" fill-opacity="0.5" stroke="#606060" stroke-width=".5" x="0" y="0" width="60" height="60"/>
                <use id="zoomplus" xlink:href="#zoomPlus" x="17" y="9" onmousedown="handleZoom(evt,'in')"/>
                <use id="zoomminus" xlink:href="#zoomMin" x="42" y="9" onmousedown="handleZoom(evt,'out')"/>
                <use id="reset" xlink:href="#resetDef" x="30" y="36" onmousedown="handleReset()"/>
                <g id="arrowUp" xlink:href="#dirArrow" transform="translate(30 24)" onmousedown="handlePan(0,-1)">
                  <use xlink:href="#rim" fill="#404040">
                        <set attributeName="fill" to="#808080" begin="arrowUp.mouseover" end="arrowUp.mouseout"/>
                  </use>
                  <path fill="none" stroke="white" stroke-width="1.5" d="M0,-3.0v7 M-2.5,-0.5L0,-3.0L2.5,-0.5"/>
                </g>
                <g id="arrowRight" xlink:href="#dirArrow" transform="rotate(90) translate(36 -43)" onmousedown="handlePan(1,0)">
                  <use xlink:href="#rim" fill="#404040">
                        <set attributeName="fill" to="#808080" begin="arrowRight.mouseover" end="arrowRight.mouseout"/>
                  </use>
                  <path fill="none" stroke="white" stroke-width="1.5" d="M0,-3.0v7 M-2.5,-0.5L0,-3.0L2.5,-0.5"/>
                </g>
                <g id="arrowDown" xlink:href="#dirArrow" transform="rotate(180) translate(-30 -48)" onmousedown="handlePan(0,1)">
                  <use xlink:href="#rim" fill="#404040">
                        <set attributeName="fill" to="#808080" begin="arrowDown.mouseover" end="arrowDown.mouseout"/>
                  </use>
                  <path fill="none" stroke="white" stroke-width="1.5" d="M0,-3.0v7 M-2.5,-0.5L0,-3.0L2.5,-0.5"/>
                </g>
                <g id="arrowLeft" xlink:href="#dirArrow" transform="rotate(270) translate(-36 17)" onmousedown="handlePan(-1,0)">
                  <use xlink:href="#rim" fill="#404040">
                        <set attributeName="fill" to="#808080" begin="arrowLeft.mouseover" end="arrowLeft.mouseout"/>
                  </use>
                  <path fill="none" stroke="white" stroke-width="1.5" d="M0,-3.0v7 M-2.5,-0.5L0,-3.0L2.5,-0.5"/>
                </g>
        </g>
        <svg viewBox="0 0 15 15" width="100%" height="30px" preserveAspectRatio="xMaxYMin meet">
         <g id="arrow_out" transform="scale(0.3 0.3)">
          <a xlink:href="class_hydro_couple_1_1_spatial_1_1_i_t_i_n_exchange_item__inherit__graph_org.svg" target="_base">
           <rect id="button" ry="5" rx="5" y="6" x="6" height="38" width="38"
                fill="#f2f5e9" fill-opacity="0.5" stroke="#606060" stroke-width="1.0"/>
           <path id="arrow"
             d="M 11.500037,31.436501 C 11.940474,20.09759 22.043105,11.32322 32.158766,21.979434 L 37.068811,17.246167 C 37.068811,17.246167 37.088388,32 37.088388,32 L 22.160133,31.978069 C 22.160133,31.978069 26.997745,27.140456 26.997745,27.140456 C 18.528582,18.264221 13.291696,25.230495 11.500037,31.436501 z"
             style="fill:#404040;"/>
          </a>
         </g>
        </svg>
</svg>
