<?xml version="1.0" encoding="UTF-8" standalone="no"?>
<!DOCTYPE svg PUBLIC "-//W3C//DTD SVG 1.1//EN"
 "http://www.w3.org/Graphics/SVG/1.1/DTD/svg11.dtd">
<!-- Generated by graphviz version 2.38.0 (20140413.2041)
 -->
<!-- Title: HydroCouple::IIdBasedArgument Pages: 1 -->
<!--zoomable 885 -->
<svg id="main" version="1.1" xmlns="http://www.w3.org/2000/svg" xmlns:xlink="http://www.w3.org/1999/xlink" xml:space="preserve" onload="init(evt)">
<style type="text/css"><![CDATA[
.edge:hover path { stroke: red; }
.edge:hover polygon { stroke: red; fill: red; }
]]></style>
<script type="text/javascript"><![CDATA[
var edges = document.getElementsByTagName('g');
if (edges && edges.length) {
  for (var i=0;i<edges.length;i++) {
    if (edges[i].id.substr(0,4)=='edge') {
      edges[i].setAttribute('class','edge');
    }
  }
}
]]></script>
        <defs>
                <circle id="rim" cx="0" cy="0" r="7"/>
                <circle id="rim2" cx="0" cy="0" r="3.5"/>
                <g id="zoomPlus">
                        <use xlink:href="#rim" fill="#404040">
                                <set attributeName="fill" to="#808080" begin="zoomplus.mouseover" end="zoomplus.mouseout"/>
                        </use>
                        <path d="M-4,0h8M0,-4v8" fill="none" stroke="white" stroke-width="1.5" pointer-events="none"/>
                </g>
                <g id="zoomMin">
                        <use xlink:href="#rim" fill="#404040">
                                <set attributeName="fill" to="#808080" begin="zoomminus.mouseover" end="zoomminus.mouseout"/>
                        </use>
                        <path d="M-4,0h8" fill="none" stroke="white" stroke-width="1.5" pointer-events="none"/>
                </g>
                <g id="dirArrow">
                        <path fill="none" stroke="white" stroke-width="1.5" d="M0,-3.0v7 M-2.5,-0.5L0,-3.0L2.5,-0.5"/>
                </g>
               <g id="resetDef">
                       <use xlink:href="#rim2" fill="#404040">
                               <set attributeName="fill" to="#808080" begin="reset.mouseover" end="reset.mouseout"/>
                       </use>
               </g>
        </defs>

<script type="text/javascript">
var viewWidth = 388;
var viewHeight = 885;
var sectionId = 'dynsection-1';
</script>
<script xlink:href="svgpan.js"/>
<svg id="graph" class="graph">
<g id="viewport">
<title>HydroCouple::IIdBasedArgument</title>
<!-- Node1 -->
<g id="node1" class="node"><title>Node1</title>
<polygon fill="#bfbfbf" stroke="black" points="86.998,-0.5 86.998,-64.5049 277.026,-64.5049 277.026,-0.5 86.998,-0.5"/>
<text text-anchor="middle" x="182.012" y="-52.5049" font-family="Monaco" font-size="10.00">HydroCouple::IIdBasedArgument</text>
<polyline fill="none" stroke="black" points="86.998,-43.1699 277.026,-43.1699 "/>
<text text-anchor="middle" x="182.012" y="-31.1699" font-family="Monaco" font-size="10.00"> </text>
<polyline fill="none" stroke="black" points="86.998,-21.835 277.026,-21.835 "/>
<text text-anchor="start" x="94.998" y="-9.83496" font-family="Monaco" font-size="10.00">+ ~IIdBasedArgument()</text>
</g>
<!-- Node2 -->
<g id="node2" class="node"><title>Node2</title>
<g id="a_node2"><a xlink:href="class_hydro_couple_1_1_i_argument.html" target="_top" xlink:title="IArgument interface class used to set the arguments for components. They can be complex or simple mul...">
<polygon fill="none" stroke="black" points="0,-101.505 0,-285.524 166.024,-285.524 166.024,-101.505 0,-101.505"/>
<text text-anchor="middle" x="83.0122" y="-273.524" font-family="Monaco" font-size="10.00">HydroCouple::IArgument</text>
<polyline fill="none" stroke="black" points="0,-264.189 166.024,-264.189 "/>
<text text-anchor="middle" x="83.0122" y="-252.189" font-family="Monaco" font-size="10.00"> </text>
<polyline fill="none" stroke="black" points="0,-242.854 166.024,-242.854 "/>
<text text-anchor="start" x="8" y="-230.854" font-family="Monaco" font-size="10.00">+ ~IArgument()</text>
<text text-anchor="start" x="8" y="-217.52" font-family="Monaco" font-size="10.00">+ isOptional()</text>
<text text-anchor="start" x="8" y="-204.185" font-family="Monaco" font-size="10.00">+ isReadOnly()</text>
<text text-anchor="start" x="8" y="-190.85" font-family="Monaco" font-size="10.00">+ toString()</text>
<text text-anchor="start" x="8" y="-177.515" font-family="Monaco" font-size="10.00">+ inputFileTypeFilters()</text>
<text text-anchor="start" x="8" y="-164.18" font-family="Monaco" font-size="10.00">+ canReadFromFile()</text>
<text text-anchor="start" x="8" y="-150.845" font-family="Monaco" font-size="10.00">+ canReadFromString()</text>
<text text-anchor="start" x="8" y="-137.51" font-family="Monaco" font-size="10.00">+ currentArgumentIOType()</text>
<text text-anchor="start" x="8" y="-124.175" font-family="Monaco" font-size="10.00">+ readValues()</text>
<text text-anchor="start" x="8" y="-110.84" font-family="Monaco" font-size="10.00">+ readValues()</text>
</a>
</g>
</g>
<!-- Node2&#45;&gt;Node1 -->
<g id="edge1" class="edge"><title>Node2&#45;&gt;Node1</title>
<path fill="none" stroke="midnightblue" d="M145.078,-92.8249C151.364,-82.7291 157.36,-73.0982 162.624,-64.644"/>
<polygon fill="none" stroke="midnightblue" points="142.054,-91.0601 139.74,-101.399 147.997,-94.7599 142.054,-91.0601"/>
</g>
<!-- Node3 -->
<g id="node3" class="node"><title>Node3</title>
<g id="a_node3"><a xlink:href="class_hydro_couple_1_1_i_component_data_item.html" target="_top" xlink:title="IComponentItem is a fundamental unit of data for a component. ">
<polygon fill="none" stroke="black" points="80.9971,-322.524 80.9971,-506.544 283.027,-506.544 283.027,-322.524 80.9971,-322.524"/>
<text text-anchor="middle" x="182.012" y="-494.544" font-family="Monaco" font-size="10.00">HydroCouple::IComponentDataItem</text>
<polyline fill="none" stroke="black" points="80.9971,-485.209 283.027,-485.209 "/>
<text text-anchor="middle" x="182.012" y="-473.209" font-family="Monaco" font-size="10.00"> </text>
<polyline fill="none" stroke="black" points="80.9971,-463.874 283.027,-463.874 "/>
<text text-anchor="start" x="88.9971" y="-451.874" font-family="Monaco" font-size="10.00">+ ~IComponentDataItem()</text>
<text text-anchor="start" x="88.9971" y="-438.539" font-family="Monaco" font-size="10.00">+ modelComponent()</text>
<text text-anchor="start" x="88.9971" y="-425.204" font-family="Monaco" font-size="10.00">+ dimensions()</text>
<text text-anchor="start" x="88.9971" y="-411.869" font-family="Monaco" font-size="10.00">+ valueDefinition()</text>
<text text-anchor="start" x="88.9971" y="-398.534" font-family="Monaco" font-size="10.00">+ getValue()</text>
<text text-anchor="start" x="88.9971" y="-385.199" font-family="Monaco" font-size="10.00">+ getValues()</text>
<text text-anchor="start" x="88.9971" y="-371.864" font-family="Monaco" font-size="10.00">+ getValues()</text>
<text text-anchor="start" x="88.9971" y="-358.529" font-family="Monaco" font-size="10.00">+ setValue()</text>
<text text-anchor="start" x="88.9971" y="-345.194" font-family="Monaco" font-size="10.00">+ setValues()</text>
<text text-anchor="start" x="88.9971" y="-331.859" font-family="Monaco" font-size="10.00">+ setValues()</text>
</a>
</g>
</g>
<!-- Node3&#45;&gt;Node2 -->
<g id="edge2" class="edge"><title>Node3&#45;&gt;Node2</title>
<path fill="none" stroke="midnightblue" d="M136.624,-313.121C132.487,-303.968 128.311,-294.73 124.213,-285.665"/>
<polygon fill="none" stroke="midnightblue" points="133.436,-314.565 140.744,-322.236 139.815,-311.682 133.436,-314.565"/>
</g>
<!-- Node7 -->
<g id="node7" class="node"><title>Node7</title>
<g id="a_node7"><a xlink:href="class_hydro_couple_1_1_i_id_based_component_data_item.html" target="_top" xlink:title="The IIdBasedComponentItem class is an idbased IComponentItem. ">
<polygon fill="none" stroke="black" points="183.998,-101.505 183.998,-285.524 380.027,-285.524 380.027,-101.505 183.998,-101.505"/>
<text text-anchor="start" x="191.998" y="-273.524" font-family="Monaco" font-size="10.00">HydroCouple::IIdBasedComponent</text>
<text text-anchor="middle" x="282.012" y="-260.189" font-family="Monaco" font-size="10.00">DataItem</text>
<polyline fill="none" stroke="black" points="183.998,-250.854 380.027,-250.854 "/>
<text text-anchor="middle" x="282.012" y="-238.854" font-family="Monaco" font-size="10.00"> </text>
<polyline fill="none" stroke="black" points="183.998,-229.52 380.027,-229.52 "/>
<text text-anchor="start" x="191.998" y="-217.52" font-family="Monaco" font-size="10.00">+ ~IIdBasedComponentDataItem()</text>
<text text-anchor="start" x="191.998" y="-204.185" font-family="Monaco" font-size="10.00">+ identifiers()</text>
<text text-anchor="start" x="191.998" y="-190.85" font-family="Monaco" font-size="10.00">+ identifierDimension()</text>
<text text-anchor="start" x="191.998" y="-177.515" font-family="Monaco" font-size="10.00">+ getValue()</text>
<text text-anchor="start" x="191.998" y="-164.18" font-family="Monaco" font-size="10.00">+ getValues()</text>
<text text-anchor="start" x="191.998" y="-150.845" font-family="Monaco" font-size="10.00">+ getValues()</text>
<text text-anchor="start" x="191.998" y="-137.51" font-family="Monaco" font-size="10.00">+ setValue()</text>
<text text-anchor="start" x="191.998" y="-124.175" font-family="Monaco" font-size="10.00">+ setValues()</text>
<text text-anchor="start" x="191.998" y="-110.84" font-family="Monaco" font-size="10.00">+ setValues()</text>
</a>
</g>
</g>
<!-- Node3&#45;&gt;Node7 -->
<g id="edge7" class="edge"><title>Node3&#45;&gt;Node7</title>
<path fill="none" stroke="midnightblue" d="M227.859,-313.121C232.038,-303.968 236.256,-294.73 240.395,-285.665"/>
<polygon fill="none" stroke="midnightblue" points="224.667,-311.686 223.697,-322.236 231.034,-314.593 224.667,-311.686"/>
</g>
<!-- Node4 -->
<g id="node4" class="node"><title>Node4</title>
<g id="a_node4"><a xlink:href="class_hydro_couple_1_1_i_identity.html" target="_top" xlink:title="IIdentity interface class defines a method to get the Id of an HydroCouple entity. ">
<polygon fill="none" stroke="black" points="108.001,-543.544 108.001,-620.884 256.023,-620.884 256.023,-543.544 108.001,-543.544"/>
<text text-anchor="middle" x="182.012" y="-608.884" font-family="Monaco" font-size="10.00">HydroCouple::IIdentity</text>
<polyline fill="none" stroke="black" points="108.001,-599.549 256.023,-599.549 "/>
<text text-anchor="middle" x="182.012" y="-587.549" font-family="Monaco" font-size="10.00"> </text>
<polyline fill="none" stroke="black" points="108.001,-578.214 256.023,-578.214 "/>
<text text-anchor="start" x="116.001" y="-566.214" font-family="Monaco" font-size="10.00">+ ~IIdentity()</text>
<text text-anchor="start" x="116.001" y="-552.879" font-family="Monaco" font-size="10.00">+ id()</text>
</a>
</g>
</g>
<!-- Node4&#45;&gt;Node3 -->
<g id="edge3" class="edge"><title>Node4&#45;&gt;Node3</title>
<path fill="none" stroke="midnightblue" d="M182.012,-532.962C182.012,-524.608 182.012,-515.683 182.012,-506.625"/>
<polygon fill="none" stroke="midnightblue" points="178.512,-533.204 182.012,-543.204 185.512,-533.204 178.512,-533.204"/>
</g>
<!-- Node5 -->
<g id="node5" class="node"><title>Node5</title>
<g id="a_node5"><a xlink:href="class_hydro_couple_1_1_i_description.html" target="_top" xlink:title="IDescription interface class provides descriptive information on a HydroCouple object. ">
<polygon fill="none" stroke="black" points="99,-657.884 99,-775.229 265.024,-775.229 265.024,-657.884 99,-657.884"/>
<text text-anchor="middle" x="182.012" y="-763.229" font-family="Monaco" font-size="10.00">HydroCouple::IDescription</text>
<polyline fill="none" stroke="black" points="99,-753.894 265.024,-753.894 "/>
<text text-anchor="middle" x="182.012" y="-741.894" font-family="Monaco" font-size="10.00"> </text>
<polyline fill="none" stroke="black" points="99,-732.559 265.024,-732.559 "/>
<text text-anchor="start" x="107" y="-720.559" font-family="Monaco" font-size="10.00">+ ~IDescription()</text>
<text text-anchor="start" x="107" y="-707.224" font-family="Monaco" font-size="10.00">+ caption()</text>
<text text-anchor="start" x="107" y="-693.889" font-family="Monaco" font-size="10.00">+ setCaption()</text>
<text text-anchor="start" x="107" y="-680.554" font-family="Monaco" font-size="10.00">+ description()</text>
<text text-anchor="start" x="107" y="-667.219" font-family="Monaco" font-size="10.00">+ setDescription()</text>
</a>
</g>
</g>
<!-- Node5&#45;&gt;Node4 -->
<g id="edge4" class="edge"><title>Node5&#45;&gt;Node4</title>
<path fill="none" stroke="midnightblue" d="M182.012,-647.318C182.012,-638.279 182.012,-629.292 182.012,-621.031"/>
<polygon fill="none" stroke="midnightblue" points="178.512,-647.509 182.012,-657.509 185.512,-647.509 178.512,-647.509"/>
</g>
<!-- Node6 -->
<g id="node6" class="node"><title>Node6</title>
<g id="a_node6"><a xlink:href="class_hydro_couple_1_1_i_property_changed.html" target="_top" xlink:title="IPropertyChanged interface is used to emit signal/event when a property of an object changes...">
<polygon fill="none" stroke="black" points="86.998,-812.229 86.998,-876.233 277.026,-876.233 277.026,-812.229 86.998,-812.229"/>
<text text-anchor="middle" x="182.012" y="-864.233" font-family="Monaco" font-size="10.00">HydroCouple::IPropertyChanged</text>
<polyline fill="none" stroke="black" points="86.998,-854.898 277.026,-854.898 "/>
<text text-anchor="middle" x="182.012" y="-842.898" font-family="Monaco" font-size="10.00"> </text>
<polyline fill="none" stroke="black" points="86.998,-833.563 277.026,-833.563 "/>
<text text-anchor="start" x="94.998" y="-821.563" font-family="Monaco" font-size="10.00">+ ~IPropertyChanged()</text>
</a>
</g>
</g>
<!-- Node6&#45;&gt;Node5 -->
<g id="edge5" class="edge"><title>Node6&#45;&gt;Node5</title>
<path fill="none" stroke="midnightblue" d="M182.012,-801.908C182.012,-793.523 182.012,-784.557 182.012,-775.715"/>
<polygon fill="none" stroke="midnightblue" points="178.512,-802.165 182.012,-812.165 185.512,-802.165 178.512,-802.165"/>
</g>
<!-- Node7&#45;&gt;Node1 -->
<g id="edge6" class="edge"><title>Node7&#45;&gt;Node1</title>
<path fill="none" stroke="midnightblue" d="M219.319,-92.8249C212.97,-82.7291 206.913,-73.0982 201.597,-64.644"/>
<polygon fill="none" stroke="midnightblue" points="216.425,-94.7972 224.711,-101.399 222.35,-91.0707 216.425,-94.7972"/>
</g>
</g>
</svg>
        <g id="navigator" transform="translate(0 0)" fill="#404254">
                <rect fill="#f2f5e9" fill-opacity="0.5" stroke="#606060" stroke-width=".5" x="0" y="0" width="60" height="60"/>
                <use id="zoomplus" xlink:href="#zoomPlus" x="17" y="9" onmousedown="handleZoom(evt,'in')"/>
                <use id="zoomminus" xlink:href="#zoomMin" x="42" y="9" onmousedown="handleZoom(evt,'out')"/>
                <use id="reset" xlink:href="#resetDef" x="30" y="36" onmousedown="handleReset()"/>
                <g id="arrowUp" xlink:href="#dirArrow" transform="translate(30 24)" onmousedown="handlePan(0,-1)">
                  <use xlink:href="#rim" fill="#404040">
                        <set attributeName="fill" to="#808080" begin="arrowUp.mouseover" end="arrowUp.mouseout"/>
                  </use>
                  <path fill="none" stroke="white" stroke-width="1.5" d="M0,-3.0v7 M-2.5,-0.5L0,-3.0L2.5,-0.5"/>
                </g>
                <g id="arrowRight" xlink:href="#dirArrow" transform="rotate(90) translate(36 -43)" onmousedown="handlePan(1,0)">
                  <use xlink:href="#rim" fill="#404040">
                        <set attributeName="fill" to="#808080" begin="arrowRight.mouseover" end="arrowRight.mouseout"/>
                  </use>
                  <path fill="none" stroke="white" stroke-width="1.5" d="M0,-3.0v7 M-2.5,-0.5L0,-3.0L2.5,-0.5"/>
                </g>
                <g id="arrowDown" xlink:href="#dirArrow" transform="rotate(180) translate(-30 -48)" onmousedown="handlePan(0,1)">
                  <use xlink:href="#rim" fill="#404040">
                        <set attributeName="fill" to="#808080" begin="arrowDown.mouseover" end="arrowDown.mouseout"/>
                  </use>
                  <path fill="none" stroke="white" stroke-width="1.5" d="M0,-3.0v7 M-2.5,-0.5L0,-3.0L2.5,-0.5"/>
                </g>
                <g id="arrowLeft" xlink:href="#dirArrow" transform="rotate(270) translate(-36 17)" onmousedown="handlePan(-1,0)">
                  <use xlink:href="#rim" fill="#404040">
                        <set attributeName="fill" to="#808080" begin="arrowLeft.mouseover" end="arrowLeft.mouseout"/>
                  </use>
                  <path fill="none" stroke="white" stroke-width="1.5" d="M0,-3.0v7 M-2.5,-0.5L0,-3.0L2.5,-0.5"/>
                </g>
        </g>
        <svg viewBox="0 0 15 15" width="100%" height="30px" preserveAspectRatio="xMaxYMin meet">
         <g id="arrow_out" transform="scale(0.3 0.3)">
          <a xlink:href="class_hydro_couple_1_1_i_id_based_argument__coll__graph_org.svg" target="_base">
           <rect id="button" ry="5" rx="5" y="6" x="6" height="38" width="38"
                fill="#f2f5e9" fill-opacity="0.5" stroke="#606060" stroke-width="1.0"/>
           <path id="arrow"
             d="M 11.500037,31.436501 C 11.940474,20.09759 22.043105,11.32322 32.158766,21.979434 L 37.068811,17.246167 C 37.068811,17.246167 37.088388,32 37.088388,32 L 22.160133,31.978069 C 22.160133,31.978069 26.997745,27.140456 26.997745,27.140456 C 18.528582,18.264221 13.291696,25.230495 11.500037,31.436501 z"
             style="fill:#404040;"/>
          </a>
         </g>
        </svg>
</svg>
