<?xml version="1.0" encoding="UTF-8" standalone="no"?>
<!DOCTYPE svg PUBLIC "-//W3C//DTD SVG 1.1//EN"
 "http://www.w3.org/Graphics/SVG/1.1/DTD/svg11.dtd">
<!-- Generated by graphviz version 2.38.0 (20140413.2041)
 -->
<!-- Title: HydroCouple::Spatial::IRasterComponentDataItem Pages: 1 -->
<svg width="316pt" height="925pt"
 viewBox="0.00 0.00 316.02 924.74" xmlns="http://www.w3.org/2000/svg" xmlns:xlink="http://www.w3.org/1999/xlink">
<g id="graph0" class="graph" transform="scale(1 1) rotate(0) translate(4 920.738)">
<title>HydroCouple::Spatial::IRasterComponentDataItem</title>
<!-- Node1 -->
<g id="node1" class="node"><title>Node1</title>
<polygon fill="#bfbfbf" stroke="black" points="53.9956,-114.84 53.9956,-325.529 244.024,-325.529 244.024,-114.84 53.9956,-114.84"/>
<text text-anchor="start" x="61.9956" y="-313.529" font-family="Monaco" font-size="10.00">HydroCouple::Spatial</text>
<text text-anchor="middle" x="149.01" y="-300.194" font-family="Monaco" font-size="10.00">::IRasterComponentDataItem</text>
<polyline fill="none" stroke="black" points="53.9956,-290.859 244.024,-290.859 "/>
<text text-anchor="middle" x="149.01" y="-278.859" font-family="Monaco" font-size="10.00"> </text>
<polyline fill="none" stroke="black" points="53.9956,-269.524 244.024,-269.524 "/>
<text text-anchor="start" x="61.9956" y="-257.524" font-family="Monaco" font-size="10.00">+ ~IRasterComponentDataItem()</text>
<text text-anchor="start" x="61.9956" y="-244.189" font-family="Monaco" font-size="10.00">+ xDimension()</text>
<text text-anchor="start" x="61.9956" y="-230.854" font-family="Monaco" font-size="10.00">+ yDimension()</text>
<text text-anchor="start" x="61.9956" y="-217.52" font-family="Monaco" font-size="10.00">+ bandDimension()</text>
<text text-anchor="start" x="61.9956" y="-204.185" font-family="Monaco" font-size="10.00">+ raster()</text>
<text text-anchor="start" x="61.9956" y="-190.85" font-family="Monaco" font-size="10.00">+ getValue()</text>
<text text-anchor="start" x="61.9956" y="-177.515" font-family="Monaco" font-size="10.00">+ getValues()</text>
<text text-anchor="start" x="61.9956" y="-164.18" font-family="Monaco" font-size="10.00">+ getValues()</text>
<text text-anchor="start" x="61.9956" y="-150.845" font-family="Monaco" font-size="10.00">+ setValue()</text>
<text text-anchor="start" x="61.9956" y="-137.51" font-family="Monaco" font-size="10.00">+ setValues()</text>
<text text-anchor="start" x="61.9956" y="-124.175" font-family="Monaco" font-size="10.00">+ setValues()</text>
</g>
<!-- Node6 -->
<g id="node6" class="node"><title>Node6</title>
<g id="a_node6"><a xlink:href="class_hydro_couple_1_1_spatial_1_1_i_raster_argument.html" target="_top" xlink:title="An IRasterArgument is an IExchangeItem with an IRaster. ">
<polygon fill="none" stroke="black" points="0,-0.5 0,-77.8398 136.02,-77.8398 136.02,-0.5 0,-0.5"/>
<text text-anchor="start" x="8" y="-65.8398" font-family="Monaco" font-size="10.00">HydroCouple::Spatial</text>
<text text-anchor="middle" x="68.0098" y="-52.5049" font-family="Monaco" font-size="10.00">::IRasterArgument</text>
<polyline fill="none" stroke="black" points="0,-43.1699 136.02,-43.1699 "/>
<text text-anchor="middle" x="68.0098" y="-31.1699" font-family="Monaco" font-size="10.00"> </text>
<polyline fill="none" stroke="black" points="0,-21.835 136.02,-21.835 "/>
<text text-anchor="start" x="8" y="-9.83496" font-family="Monaco" font-size="10.00">+ ~IRasterArgument()</text>
</a>
</g>
</g>
<!-- Node1&#45;&gt;Node6 -->
<g id="edge5" class="edge"><title>Node1&#45;&gt;Node6</title>
<path fill="none" stroke="midnightblue" d="M97.529,-105.409C93.1523,-95.7363 88.9606,-86.4725 85.1804,-78.1181"/>
<polygon fill="none" stroke="midnightblue" points="94.4633,-107.124 101.775,-114.792 100.841,-104.238 94.4633,-107.124"/>
</g>
<!-- Node7 -->
<g id="node7" class="node"><title>Node7</title>
<g id="a_node7"><a xlink:href="class_hydro_couple_1_1_spatial_1_1_i_raster_exhange_item.html" target="_top" xlink:title="An IRasterExhangeItem is an IExchangeItem with an IRaster. ">
<polygon fill="none" stroke="black" points="153.999,-0.5 153.999,-77.8398 308.021,-77.8398 308.021,-0.5 153.999,-0.5"/>
<text text-anchor="start" x="161.999" y="-65.8398" font-family="Monaco" font-size="10.00">HydroCouple::Spatial</text>
<text text-anchor="middle" x="231.01" y="-52.5049" font-family="Monaco" font-size="10.00">::IRasterExhangeItem</text>
<polyline fill="none" stroke="black" points="153.999,-43.1699 308.021,-43.1699 "/>
<text text-anchor="middle" x="231.01" y="-31.1699" font-family="Monaco" font-size="10.00"> </text>
<polyline fill="none" stroke="black" points="153.999,-21.835 308.021,-21.835 "/>
<text text-anchor="start" x="161.999" y="-9.83496" font-family="Monaco" font-size="10.00">+ ~IRasterExhangeItem()</text>
</a>
</g>
</g>
<!-- Node1&#45;&gt;Node7 -->
<g id="edge6" class="edge"><title>Node1&#45;&gt;Node7</title>
<path fill="none" stroke="midnightblue" d="M201.126,-105.409C205.557,-95.7363 209.8,-86.4725 213.627,-78.1181"/>
<polygon fill="none" stroke="midnightblue" points="197.811,-104.243 196.828,-114.792 204.175,-107.158 197.811,-104.243"/>
</g>
<!-- Node2 -->
<g id="node2" class="node"><title>Node2</title>
<g id="a_node2"><a xlink:href="class_hydro_couple_1_1_i_component_data_item.html" target="_top" xlink:title="IComponentItem is a fundamental unit of data for a component. ">
<polygon fill="none" stroke="black" points="47.9946,-362.529 47.9946,-546.549 250.025,-546.549 250.025,-362.529 47.9946,-362.529"/>
<text text-anchor="middle" x="149.01" y="-534.549" font-family="Monaco" font-size="10.00">HydroCouple::IComponentDataItem</text>
<polyline fill="none" stroke="black" points="47.9946,-525.214 250.025,-525.214 "/>
<text text-anchor="middle" x="149.01" y="-513.214" font-family="Monaco" font-size="10.00"> </text>
<polyline fill="none" stroke="black" points="47.9946,-503.879 250.025,-503.879 "/>
<text text-anchor="start" x="55.9946" y="-491.879" font-family="Monaco" font-size="10.00">+ ~IComponentDataItem()</text>
<text text-anchor="start" x="55.9946" y="-478.544" font-family="Monaco" font-size="10.00">+ modelComponent()</text>
<text text-anchor="start" x="55.9946" y="-465.209" font-family="Monaco" font-size="10.00">+ dimensions()</text>
<text text-anchor="start" x="55.9946" y="-451.874" font-family="Monaco" font-size="10.00">+ valueDefinition()</text>
<text text-anchor="start" x="55.9946" y="-438.539" font-family="Monaco" font-size="10.00">+ getValue()</text>
<text text-anchor="start" x="55.9946" y="-425.204" font-family="Monaco" font-size="10.00">+ getValues()</text>
<text text-anchor="start" x="55.9946" y="-411.869" font-family="Monaco" font-size="10.00">+ getValues()</text>
<text text-anchor="start" x="55.9946" y="-398.534" font-family="Monaco" font-size="10.00">+ setValue()</text>
<text text-anchor="start" x="55.9946" y="-385.199" font-family="Monaco" font-size="10.00">+ setValues()</text>
<text text-anchor="start" x="55.9946" y="-371.864" font-family="Monaco" font-size="10.00">+ setValues()</text>
</a>
</g>
</g>
<!-- Node2&#45;&gt;Node1 -->
<g id="edge1" class="edge"><title>Node2&#45;&gt;Node1</title>
<path fill="none" stroke="midnightblue" d="M149.01,-352.105C149.01,-343.302 149.01,-334.385 149.01,-325.559"/>
<polygon fill="none" stroke="midnightblue" points="145.51,-352.373 149.01,-362.373 152.51,-352.373 145.51,-352.373"/>
</g>
<!-- Node3 -->
<g id="node3" class="node"><title>Node3</title>
<g id="a_node3"><a xlink:href="class_hydro_couple_1_1_i_identity.html" target="_top" xlink:title="IIdentity interface class defines a method to get the Id of an HydroCouple entity. ">
<polygon fill="none" stroke="black" points="74.999,-583.549 74.999,-660.889 223.021,-660.889 223.021,-583.549 74.999,-583.549"/>
<text text-anchor="middle" x="149.01" y="-648.889" font-family="Monaco" font-size="10.00">HydroCouple::IIdentity</text>
<polyline fill="none" stroke="black" points="74.999,-639.554 223.021,-639.554 "/>
<text text-anchor="middle" x="149.01" y="-627.554" font-family="Monaco" font-size="10.00"> </text>
<polyline fill="none" stroke="black" points="74.999,-618.219 223.021,-618.219 "/>
<text text-anchor="start" x="82.999" y="-606.219" font-family="Monaco" font-size="10.00">+ ~IIdentity()</text>
<text text-anchor="start" x="82.999" y="-592.884" font-family="Monaco" font-size="10.00">+ id()</text>
</a>
</g>
</g>
<!-- Node3&#45;&gt;Node2 -->
<g id="edge2" class="edge"><title>Node3&#45;&gt;Node2</title>
<path fill="none" stroke="midnightblue" d="M149.01,-572.966C149.01,-564.613 149.01,-555.688 149.01,-546.63"/>
<polygon fill="none" stroke="midnightblue" points="145.51,-573.208 149.01,-583.208 152.51,-573.209 145.51,-573.208"/>
</g>
<!-- Node4 -->
<g id="node4" class="node"><title>Node4</title>
<g id="a_node4"><a xlink:href="class_hydro_couple_1_1_i_description.html" target="_top" xlink:title="IDescription interface class provides descriptive information on a HydroCouple object. ">
<polygon fill="none" stroke="black" points="65.9976,-697.889 65.9976,-815.233 232.022,-815.233 232.022,-697.889 65.9976,-697.889"/>
<text text-anchor="middle" x="149.01" y="-803.233" font-family="Monaco" font-size="10.00">HydroCouple::IDescription</text>
<polyline fill="none" stroke="black" points="65.9976,-793.898 232.022,-793.898 "/>
<text text-anchor="middle" x="149.01" y="-781.898" font-family="Monaco" font-size="10.00"> </text>
<polyline fill="none" stroke="black" points="65.9976,-772.563 232.022,-772.563 "/>
<text text-anchor="start" x="73.9976" y="-760.563" font-family="Monaco" font-size="10.00">+ ~IDescription()</text>
<text text-anchor="start" x="73.9976" y="-747.229" font-family="Monaco" font-size="10.00">+ caption()</text>
<text text-anchor="start" x="73.9976" y="-733.894" font-family="Monaco" font-size="10.00">+ setCaption()</text>
<text text-anchor="start" x="73.9976" y="-720.559" font-family="Monaco" font-size="10.00">+ description()</text>
<text text-anchor="start" x="73.9976" y="-707.224" font-family="Monaco" font-size="10.00">+ setDescription()</text>
</a>
</g>
</g>
<!-- Node4&#45;&gt;Node3 -->
<g id="edge3" class="edge"><title>Node4&#45;&gt;Node3</title>
<path fill="none" stroke="midnightblue" d="M149.01,-687.323C149.01,-678.284 149.01,-669.297 149.01,-661.036"/>
<polygon fill="none" stroke="midnightblue" points="145.51,-687.514 149.01,-697.514 152.51,-687.514 145.51,-687.514"/>
</g>
<!-- Node5 -->
<g id="node5" class="node"><title>Node5</title>
<g id="a_node5"><a xlink:href="class_hydro_couple_1_1_i_property_changed.html" target="_top" xlink:title="IPropertyChanged interface is used to emit signal/event when a property of an object changes...">
<polygon fill="none" stroke="black" points="53.9956,-852.233 53.9956,-916.238 244.024,-916.238 244.024,-852.233 53.9956,-852.233"/>
<text text-anchor="middle" x="149.01" y="-904.238" font-family="Monaco" font-size="10.00">HydroCouple::IPropertyChanged</text>
<polyline fill="none" stroke="black" points="53.9956,-894.903 244.024,-894.903 "/>
<text text-anchor="middle" x="149.01" y="-882.903" font-family="Monaco" font-size="10.00"> </text>
<polyline fill="none" stroke="black" points="53.9956,-873.568 244.024,-873.568 "/>
<text text-anchor="start" x="61.9956" y="-861.568" font-family="Monaco" font-size="10.00">+ ~IPropertyChanged()</text>
</a>
</g>
</g>
<!-- Node5&#45;&gt;Node4 -->
<g id="edge4" class="edge"><title>Node5&#45;&gt;Node4</title>
<path fill="none" stroke="midnightblue" d="M149.01,-841.913C149.01,-833.528 149.01,-824.562 149.01,-815.719"/>
<polygon fill="none" stroke="midnightblue" points="145.51,-842.17 149.01,-852.17 152.51,-842.17 145.51,-842.17"/>
</g>
</g>
</svg>
