<?xml version="1.0" encoding="UTF-8" standalone="no"?>
<!DOCTYPE svg PUBLIC "-//W3C//DTD SVG 1.1//EN"
 "http://www.w3.org/Graphics/SVG/1.1/DTD/svg11.dtd">
<!-- Generated by graphviz version 2.38.0 (20140413.2041)
 -->
<!-- Title: HydroCouple::IIdBasedComponentDataItem Pages: 1 -->
<!--zoomable 885 -->
<svg id="main" version="1.1" xmlns="http://www.w3.org/2000/svg" xmlns:xlink="http://www.w3.org/1999/xlink" xml:space="preserve" onload="init(evt)">
<style type="text/css"><![CDATA[
.edge:hover path { stroke: red; }
.edge:hover polygon { stroke: red; fill: red; }
]]></style>
<script type="text/javascript"><![CDATA[
var edges = document.getElementsByTagName('g');
if (edges && edges.length) {
  for (var i=0;i<edges.length;i++) {
    if (edges[i].id.substr(0,4)=='edge') {
      edges[i].setAttribute('class','edge');
    }
  }
}
]]></script>
        <defs>
                <circle id="rim" cx="0" cy="0" r="7"/>
                <circle id="rim2" cx="0" cy="0" r="3.5"/>
                <g id="zoomPlus">
                        <use xlink:href="#rim" fill="#404040">
                                <set attributeName="fill" to="#808080" begin="zoomplus.mouseover" end="zoomplus.mouseout"/>
                        </use>
                        <path d="M-4,0h8M0,-4v8" fill="none" stroke="white" stroke-width="1.5" pointer-events="none"/>
                </g>
                <g id="zoomMin">
                        <use xlink:href="#rim" fill="#404040">
                                <set attributeName="fill" to="#808080" begin="zoomminus.mouseover" end="zoomminus.mouseout"/>
                        </use>
                        <path d="M-4,0h8" fill="none" stroke="white" stroke-width="1.5" pointer-events="none"/>
                </g>
                <g id="dirArrow">
                        <path fill="none" stroke="white" stroke-width="1.5" d="M0,-3.0v7 M-2.5,-0.5L0,-3.0L2.5,-0.5"/>
                </g>
               <g id="resetDef">
                       <use xlink:href="#rim2" fill="#404040">
                               <set attributeName="fill" to="#808080" begin="reset.mouseover" end="reset.mouseout"/>
                       </use>
               </g>
        </defs>

<script type="text/javascript">
var viewWidth = 430;
var viewHeight = 885;
var sectionId = 'dynsection-0';
</script>
<script xlink:href="svgpan.js"/>
<svg id="graph" class="graph">
<g id="viewport">
<title>HydroCouple::IIdBasedComponentDataItem</title>
<!-- Node1 -->
<g id="node1" class="node"><title>Node1</title>
<polygon fill="#bfbfbf" stroke="black" points="107,-101.505 107,-285.524 303.029,-285.524 303.029,-101.505 107,-101.505"/>
<text text-anchor="start" x="115" y="-273.524" font-family="Monaco" font-size="10.00">HydroCouple::IIdBasedComponent</text>
<text text-anchor="middle" x="205.014" y="-260.189" font-family="Monaco" font-size="10.00">DataItem</text>
<polyline fill="none" stroke="black" points="107,-250.854 303.029,-250.854 "/>
<text text-anchor="middle" x="205.014" y="-238.854" font-family="Monaco" font-size="10.00"> </text>
<polyline fill="none" stroke="black" points="107,-229.52 303.029,-229.52 "/>
<text text-anchor="start" x="115" y="-217.52" font-family="Monaco" font-size="10.00">+ ~IIdBasedComponentDataItem()</text>
<text text-anchor="start" x="115" y="-204.185" font-family="Monaco" font-size="10.00">+ identifiers()</text>
<text text-anchor="start" x="115" y="-190.85" font-family="Monaco" font-size="10.00">+ identifierDimension()</text>
<text text-anchor="start" x="115" y="-177.515" font-family="Monaco" font-size="10.00">+ getValue()</text>
<text text-anchor="start" x="115" y="-164.18" font-family="Monaco" font-size="10.00">+ getValues()</text>
<text text-anchor="start" x="115" y="-150.845" font-family="Monaco" font-size="10.00">+ getValues()</text>
<text text-anchor="start" x="115" y="-137.51" font-family="Monaco" font-size="10.00">+ setValue()</text>
<text text-anchor="start" x="115" y="-124.175" font-family="Monaco" font-size="10.00">+ setValues()</text>
<text text-anchor="start" x="115" y="-110.84" font-family="Monaco" font-size="10.00">+ setValues()</text>
</g>
<!-- Node6 -->
<g id="node6" class="node"><title>Node6</title>
<g id="a_node6"><a xlink:href="class_hydro_couple_1_1_i_id_based_argument.html" target="_top" xlink:title="The IIdBasedArgument class. ">
<polygon fill="none" stroke="black" points="0,-0.5 0,-64.5049 190.028,-64.5049 190.028,-0.5 0,-0.5"/>
<text text-anchor="middle" x="95.0142" y="-52.5049" font-family="Monaco" font-size="10.00">HydroCouple::IIdBasedArgument</text>
<polyline fill="none" stroke="black" points="0,-43.1699 190.028,-43.1699 "/>
<text text-anchor="middle" x="95.0142" y="-31.1699" font-family="Monaco" font-size="10.00"> </text>
<polyline fill="none" stroke="black" points="0,-21.835 190.028,-21.835 "/>
<text text-anchor="start" x="8" y="-9.83496" font-family="Monaco" font-size="10.00">+ ~IIdBasedArgument()</text>
</a>
</g>
</g>
<!-- Node1&#45;&gt;Node6 -->
<g id="edge5" class="edge"><title>Node1&#45;&gt;Node6</title>
<path fill="none" stroke="midnightblue" d="M136.261,-93.1279C129.201,-82.9218 122.464,-73.1828 116.557,-64.644"/>
<polygon fill="none" stroke="midnightblue" points="133.416,-95.1664 141.983,-101.399 139.172,-91.184 133.416,-95.1664"/>
</g>
<!-- Node7 -->
<g id="node7" class="node"><title>Node7</title>
<g id="a_node7"><a xlink:href="class_hydro_couple_1_1_i_id_based_exchange_item.html" target="_top" xlink:title="The IIdBasedExchangeItem class. ">
<polygon fill="none" stroke="black" points="207.998,-0.5 207.998,-64.5049 422.03,-64.5049 422.03,-0.5 207.998,-0.5"/>
<text text-anchor="middle" x="315.014" y="-52.5049" font-family="Monaco" font-size="10.00">HydroCouple::IIdBasedExchangeItem</text>
<polyline fill="none" stroke="black" points="207.998,-43.1699 422.03,-43.1699 "/>
<text text-anchor="middle" x="315.014" y="-31.1699" font-family="Monaco" font-size="10.00"> </text>
<polyline fill="none" stroke="black" points="207.998,-21.835 422.03,-21.835 "/>
<text text-anchor="start" x="215.998" y="-9.83496" font-family="Monaco" font-size="10.00">+ ~IIdBasedExchangeItem()</text>
</a>
</g>
</g>
<!-- Node1&#45;&gt;Node7 -->
<g id="edge6" class="edge"><title>Node1&#45;&gt;Node7</title>
<path fill="none" stroke="midnightblue" d="M273.767,-93.1279C280.827,-82.9218 287.564,-73.1828 293.471,-64.644"/>
<polygon fill="none" stroke="midnightblue" points="270.856,-91.184 268.045,-101.399 276.613,-95.1664 270.856,-91.184"/>
</g>
<!-- Node2 -->
<g id="node2" class="node"><title>Node2</title>
<g id="a_node2"><a xlink:href="class_hydro_couple_1_1_i_component_data_item.html" target="_top" xlink:title="IComponentItem is a fundamental unit of data for a component. ">
<polygon fill="none" stroke="black" points="103.999,-322.524 103.999,-506.544 306.029,-506.544 306.029,-322.524 103.999,-322.524"/>
<text text-anchor="middle" x="205.014" y="-494.544" font-family="Monaco" font-size="10.00">HydroCouple::IComponentDataItem</text>
<polyline fill="none" stroke="black" points="103.999,-485.209 306.029,-485.209 "/>
<text text-anchor="middle" x="205.014" y="-473.209" font-family="Monaco" font-size="10.00"> </text>
<polyline fill="none" stroke="black" points="103.999,-463.874 306.029,-463.874 "/>
<text text-anchor="start" x="111.999" y="-451.874" font-family="Monaco" font-size="10.00">+ ~IComponentDataItem()</text>
<text text-anchor="start" x="111.999" y="-438.539" font-family="Monaco" font-size="10.00">+ modelComponent()</text>
<text text-anchor="start" x="111.999" y="-425.204" font-family="Monaco" font-size="10.00">+ dimensions()</text>
<text text-anchor="start" x="111.999" y="-411.869" font-family="Monaco" font-size="10.00">+ valueDefinition()</text>
<text text-anchor="start" x="111.999" y="-398.534" font-family="Monaco" font-size="10.00">+ getValue()</text>
<text text-anchor="start" x="111.999" y="-385.199" font-family="Monaco" font-size="10.00">+ getValues()</text>
<text text-anchor="start" x="111.999" y="-371.864" font-family="Monaco" font-size="10.00">+ getValues()</text>
<text text-anchor="start" x="111.999" y="-358.529" font-family="Monaco" font-size="10.00">+ setValue()</text>
<text text-anchor="start" x="111.999" y="-345.194" font-family="Monaco" font-size="10.00">+ setValues()</text>
<text text-anchor="start" x="111.999" y="-331.859" font-family="Monaco" font-size="10.00">+ setValues()</text>
</a>
</g>
</g>
<!-- Node2&#45;&gt;Node1 -->
<g id="edge1" class="edge"><title>Node2&#45;&gt;Node1</title>
<path fill="none" stroke="midnightblue" d="M205.014,-311.977C205.014,-303.199 205.014,-294.352 205.014,-285.665"/>
<polygon fill="none" stroke="midnightblue" points="201.514,-312.236 205.014,-322.236 208.514,-312.236 201.514,-312.236"/>
</g>
<!-- Node3 -->
<g id="node3" class="node"><title>Node3</title>
<g id="a_node3"><a xlink:href="class_hydro_couple_1_1_i_identity.html" target="_top" xlink:title="IIdentity interface class defines a method to get the Id of an HydroCouple entity. ">
<polygon fill="none" stroke="black" points="131.003,-543.544 131.003,-620.884 279.025,-620.884 279.025,-543.544 131.003,-543.544"/>
<text text-anchor="middle" x="205.014" y="-608.884" font-family="Monaco" font-size="10.00">HydroCouple::IIdentity</text>
<polyline fill="none" stroke="black" points="131.003,-599.549 279.025,-599.549 "/>
<text text-anchor="middle" x="205.014" y="-587.549" font-family="Monaco" font-size="10.00"> </text>
<polyline fill="none" stroke="black" points="131.003,-578.214 279.025,-578.214 "/>
<text text-anchor="start" x="139.003" y="-566.214" font-family="Monaco" font-size="10.00">+ ~IIdentity()</text>
<text text-anchor="start" x="139.003" y="-552.879" font-family="Monaco" font-size="10.00">+ id()</text>
</a>
</g>
</g>
<!-- Node3&#45;&gt;Node2 -->
<g id="edge2" class="edge"><title>Node3&#45;&gt;Node2</title>
<path fill="none" stroke="midnightblue" d="M205.014,-532.962C205.014,-524.608 205.014,-515.683 205.014,-506.625"/>
<polygon fill="none" stroke="midnightblue" points="201.514,-533.204 205.014,-543.204 208.514,-533.204 201.514,-533.204"/>
</g>
<!-- Node4 -->
<g id="node4" class="node"><title>Node4</title>
<g id="a_node4"><a xlink:href="class_hydro_couple_1_1_i_description.html" target="_top" xlink:title="IDescription interface class provides descriptive information on a HydroCouple object. ">
<polygon fill="none" stroke="black" points="122.002,-657.884 122.002,-775.229 288.026,-775.229 288.026,-657.884 122.002,-657.884"/>
<text text-anchor="middle" x="205.014" y="-763.229" font-family="Monaco" font-size="10.00">HydroCouple::IDescription</text>
<polyline fill="none" stroke="black" points="122.002,-753.894 288.026,-753.894 "/>
<text text-anchor="middle" x="205.014" y="-741.894" font-family="Monaco" font-size="10.00"> </text>
<polyline fill="none" stroke="black" points="122.002,-732.559 288.026,-732.559 "/>
<text text-anchor="start" x="130.002" y="-720.559" font-family="Monaco" font-size="10.00">+ ~IDescription()</text>
<text text-anchor="start" x="130.002" y="-707.224" font-family="Monaco" font-size="10.00">+ caption()</text>
<text text-anchor="start" x="130.002" y="-693.889" font-family="Monaco" font-size="10.00">+ setCaption()</text>
<text text-anchor="start" x="130.002" y="-680.554" font-family="Monaco" font-size="10.00">+ description()</text>
<text text-anchor="start" x="130.002" y="-667.219" font-family="Monaco" font-size="10.00">+ setDescription()</text>
</a>
</g>
</g>
<!-- Node4&#45;&gt;Node3 -->
<g id="edge3" class="edge"><title>Node4&#45;&gt;Node3</title>
<path fill="none" stroke="midnightblue" d="M205.014,-647.318C205.014,-638.279 205.014,-629.292 205.014,-621.031"/>
<polygon fill="none" stroke="midnightblue" points="201.514,-647.509 205.014,-657.509 208.514,-647.509 201.514,-647.509"/>
</g>
<!-- Node5 -->
<g id="node5" class="node"><title>Node5</title>
<g id="a_node5"><a xlink:href="class_hydro_couple_1_1_i_property_changed.html" target="_top" xlink:title="IPropertyChanged interface is used to emit signal/event when a property of an object changes...">
<polygon fill="none" stroke="black" points="110,-812.229 110,-876.233 300.028,-876.233 300.028,-812.229 110,-812.229"/>
<text text-anchor="middle" x="205.014" y="-864.233" font-family="Monaco" font-size="10.00">HydroCouple::IPropertyChanged</text>
<polyline fill="none" stroke="black" points="110,-854.898 300.028,-854.898 "/>
<text text-anchor="middle" x="205.014" y="-842.898" font-family="Monaco" font-size="10.00"> </text>
<polyline fill="none" stroke="black" points="110,-833.563 300.028,-833.563 "/>
<text text-anchor="start" x="118" y="-821.563" font-family="Monaco" font-size="10.00">+ ~IPropertyChanged()</text>
</a>
</g>
</g>
<!-- Node5&#45;&gt;Node4 -->
<g id="edge4" class="edge"><title>Node5&#45;&gt;Node4</title>
<path fill="none" stroke="midnightblue" d="M205.014,-801.908C205.014,-793.523 205.014,-784.557 205.014,-775.715"/>
<polygon fill="none" stroke="midnightblue" points="201.514,-802.165 205.014,-812.165 208.514,-802.165 201.514,-802.165"/>
</g>
</g>
</svg>
        <g id="navigator" transform="translate(0 0)" fill="#404254">
                <rect fill="#f2f5e9" fill-opacity="0.5" stroke="#606060" stroke-width=".5" x="0" y="0" width="60" height="60"/>
                <use id="zoomplus" xlink:href="#zoomPlus" x="17" y="9" onmousedown="handleZoom(evt,'in')"/>
                <use id="zoomminus" xlink:href="#zoomMin" x="42" y="9" onmousedown="handleZoom(evt,'out')"/>
                <use id="reset" xlink:href="#resetDef" x="30" y="36" onmousedown="handleReset()"/>
                <g id="arrowUp" xlink:href="#dirArrow" transform="translate(30 24)" onmousedown="handlePan(0,-1)">
                  <use xlink:href="#rim" fill="#404040">
                        <set attributeName="fill" to="#808080" begin="arrowUp.mouseover" end="arrowUp.mouseout"/>
                  </use>
                  <path fill="none" stroke="white" stroke-width="1.5" d="M0,-3.0v7 M-2.5,-0.5L0,-3.0L2.5,-0.5"/>
                </g>
                <g id="arrowRight" xlink:href="#dirArrow" transform="rotate(90) translate(36 -43)" onmousedown="handlePan(1,0)">
                  <use xlink:href="#rim" fill="#404040">
                        <set attributeName="fill" to="#808080" begin="arrowRight.mouseover" end="arrowRight.mouseout"/>
                  </use>
                  <path fill="none" stroke="white" stroke-width="1.5" d="M0,-3.0v7 M-2.5,-0.5L0,-3.0L2.5,-0.5"/>
                </g>
                <g id="arrowDown" xlink:href="#dirArrow" transform="rotate(180) translate(-30 -48)" onmousedown="handlePan(0,1)">
                  <use xlink:href="#rim" fill="#404040">
                        <set attributeName="fill" to="#808080" begin="arrowDown.mouseover" end="arrowDown.mouseout"/>
                  </use>
                  <path fill="none" stroke="white" stroke-width="1.5" d="M0,-3.0v7 M-2.5,-0.5L0,-3.0L2.5,-0.5"/>
                </g>
                <g id="arrowLeft" xlink:href="#dirArrow" transform="rotate(270) translate(-36 17)" onmousedown="handlePan(-1,0)">
                  <use xlink:href="#rim" fill="#404040">
                        <set attributeName="fill" to="#808080" begin="arrowLeft.mouseover" end="arrowLeft.mouseout"/>
                  </use>
                  <path fill="none" stroke="white" stroke-width="1.5" d="M0,-3.0v7 M-2.5,-0.5L0,-3.0L2.5,-0.5"/>
                </g>
        </g>
        <svg viewBox="0 0 15 15" width="100%" height="30px" preserveAspectRatio="xMaxYMin meet">
         <g id="arrow_out" transform="scale(0.3 0.3)">
          <a xlink:href="class_hydro_couple_1_1_i_id_based_component_data_item__inherit__graph_org.svg" target="_base">
           <rect id="button" ry="5" rx="5" y="6" x="6" height="38" width="38"
                fill="#f2f5e9" fill-opacity="0.5" stroke="#606060" stroke-width="1.0"/>
           <path id="arrow"
             d="M 11.500037,31.436501 C 11.940474,20.09759 22.043105,11.32322 32.158766,21.979434 L 37.068811,17.246167 C 37.068811,17.246167 37.088388,32 37.088388,32 L 22.160133,31.978069 C 22.160133,31.978069 26.997745,27.140456 26.997745,27.140456 C 18.528582,18.264221 13.291696,25.230495 11.500037,31.436501 z"
             style="fill:#404040;"/>
          </a>
         </g>
        </svg>
</svg>
