<?xml version="1.0" encoding="UTF-8" standalone="no"?>
<!DOCTYPE svg PUBLIC "-//W3C//DTD SVG 1.1//EN"
 "http://www.w3.org/Graphics/SVG/1.1/DTD/svg11.dtd">
<!-- Generated by graphviz version 2.38.0 (20140413.2041)
 -->
<!-- Title: HydroCouple::Spatial::IPolyhedralSurfaceOnlyComponentDataItem::~IPolyhedralSurfaceOnlyComponentDataItem Pages: 1 -->
<svg width="490pt" height="206pt"
 viewBox="0.00 0.00 490.07 205.67" xmlns="http://www.w3.org/2000/svg" xmlns:xlink="http://www.w3.org/1999/xlink">
<g id="graph0" class="graph" transform="scale(1 1) rotate(0) translate(4 201.67)">
<title>HydroCouple::Spatial::IPolyhedralSurfaceOnlyComponentDataItem::~IPolyhedralSurfaceOnlyComponentDataItem</title>
<!-- Node1 -->
<g id="node1" class="node"><title>Node1</title>
<polygon fill="#bfbfbf" stroke="black" points="0,-68.165 0,-129.505 268.041,-129.505 268.041,-68.165 0,-68.165"/>
<text text-anchor="start" x="8" y="-117.505" font-family="Monaco" font-size="10.00">HydroCouple::Spatial</text>
<text text-anchor="start" x="8" y="-104.17" font-family="Monaco" font-size="10.00">::IPolyhedralSurfaceOnlyComponent</text>
<text text-anchor="start" x="8" y="-90.835" font-family="Monaco" font-size="10.00">DataItem::~IPolyhedralSurfaceOnlyComponent</text>
<text text-anchor="middle" x="134.021" y="-77.5" font-family="Monaco" font-size="10.00">DataItem</text>
</g>
<!-- Node2 -->
<g id="node2" class="node"><title>Node2</title>
<g id="a_node2"><a xlink:href="class_hydro_couple_1_1_i_component_data_item.html#a652b695e108f9e3a04f96f1207014b5f" target="_top" xlink:title="Gets a single value for given dimension indexes specified. ">
<polygon fill="none" stroke="black" points="304.041,-162.5 304.041,-197.17 482.067,-197.17 482.067,-162.5 304.041,-162.5"/>
<text text-anchor="start" x="312.041" y="-185.17" font-family="Monaco" font-size="10.00">HydroCouple::IComponentData</text>
<text text-anchor="middle" x="393.054" y="-171.835" font-family="Monaco" font-size="10.00">Item::getValue</text>
</a>
</g>
</g>
<!-- Node1&#45;&gt;Node2 -->
<g id="edge1" class="edge"><title>Node1&#45;&gt;Node2</title>
<path fill="none" stroke="midnightblue" d="M230.603,-129.585C254.564,-137.235 280.229,-145.379 304.041,-152.835 310.857,-154.969 317.975,-157.181 325.083,-159.378"/>
<polygon fill="midnightblue" stroke="midnightblue" points="324.151,-162.754 334.738,-162.357 326.214,-156.065 324.151,-162.754"/>
</g>
<!-- Node3 -->
<g id="node3" class="node"><title>Node3</title>
<g id="a_node3"><a xlink:href="class_hydro_couple_1_1_i_component_data_item.html#aed149c453986ae14c8365ee7fa7bed3d" target="_top" xlink:title="Gets a multi&#45;dimensional array of values for given dimension indexes and size for a hyperslab...">
<polygon fill="none" stroke="black" points="304.041,-108.5 304.041,-143.17 482.067,-143.17 482.067,-108.5 304.041,-108.5"/>
<text text-anchor="start" x="312.041" y="-131.17" font-family="Monaco" font-size="10.00">HydroCouple::IComponentData</text>
<text text-anchor="middle" x="393.054" y="-117.835" font-family="Monaco" font-size="10.00">Item::getValues</text>
</a>
</g>
</g>
<!-- Node1&#45;&gt;Node3 -->
<g id="edge2" class="edge"><title>Node1&#45;&gt;Node3</title>
<path fill="none" stroke="midnightblue" d="M268.055,-112.809C276.676,-113.715 285.271,-114.618 293.683,-115.502"/>
<polygon fill="midnightblue" stroke="midnightblue" points="293.531,-119.005 303.842,-116.569 294.263,-112.043 293.531,-119.005"/>
</g>
<!-- Node4 -->
<g id="node4" class="node"><title>Node4</title>
<g id="a_node4"><a xlink:href="class_hydro_couple_1_1_i_component_data_item.html#a0d2d2c003357ae04bd78c4fc7312c47c" target="_top" xlink:title="Sets a single value for given dimension indexes specified. ">
<polygon fill="none" stroke="black" points="304.041,-54.5 304.041,-89.1699 482.067,-89.1699 482.067,-54.5 304.041,-54.5"/>
<text text-anchor="start" x="312.041" y="-77.1699" font-family="Monaco" font-size="10.00">HydroCouple::IComponentData</text>
<text text-anchor="middle" x="393.054" y="-63.835" font-family="Monaco" font-size="10.00">Item::setValue</text>
</a>
</g>
</g>
<!-- Node1&#45;&gt;Node4 -->
<g id="edge3" class="edge"><title>Node1&#45;&gt;Node4</title>
<path fill="none" stroke="midnightblue" d="M268.055,-84.8604C276.676,-83.9548 285.271,-83.052 293.683,-82.1684"/>
<polygon fill="midnightblue" stroke="midnightblue" points="294.263,-85.6268 303.842,-81.1012 293.531,-78.6651 294.263,-85.6268"/>
</g>
<!-- Node5 -->
<g id="node5" class="node"><title>Node5</title>
<g id="a_node5"><a xlink:href="class_hydro_couple_1_1_i_component_data_item.html#ab51166edc999587d0427d366389eb5ad" target="_top" xlink:title="Sets a multi&#45;dimensional array of values for given dimension indexes and size for a hyperslab...">
<polygon fill="none" stroke="black" points="304.041,-0.5 304.041,-35.1699 482.067,-35.1699 482.067,-0.5 304.041,-0.5"/>
<text text-anchor="start" x="312.041" y="-23.1699" font-family="Monaco" font-size="10.00">HydroCouple::IComponentData</text>
<text text-anchor="middle" x="393.054" y="-9.83496" font-family="Monaco" font-size="10.00">Item::setValues</text>
</a>
</g>
</g>
<!-- Node1&#45;&gt;Node5 -->
<g id="edge4" class="edge"><title>Node1&#45;&gt;Node5</title>
<path fill="none" stroke="midnightblue" d="M230.603,-68.0848C254.564,-60.4348 280.229,-52.291 304.041,-44.835 310.857,-42.7007 317.975,-40.4889 325.083,-38.2915"/>
<polygon fill="midnightblue" stroke="midnightblue" points="326.214,-41.6052 334.738,-35.3128 324.151,-34.9163 326.214,-41.6052"/>
</g>
</g>
</svg>
