<?xml version="1.0" encoding="UTF-8" standalone="no"?>
<!DOCTYPE svg PUBLIC "-//W3C//DTD SVG 1.1//EN"
 "http://www.w3.org/Graphics/SVG/1.1/DTD/svg11.dtd">
<!-- Generated by graphviz version 2.38.0 (20140413.2041)
 -->
<!-- Title: HydroCouple::Data::IAdaptedOutputFactoryComponent Pages: 1 -->
<svg width="200pt" height="527pt"
 viewBox="0.00 0.00 200.21 527.00" xmlns="http://www.w3.org/2000/svg" xmlns:xlink="http://www.w3.org/1999/xlink">
<g id="graph0" class="graph" transform="scale(1 1) rotate(0) translate(4 523)">
<title>HydroCouple::Data::IAdaptedOutputFactoryComponent</title>
<polygon fill="white" stroke="none" points="-4,4 -4,-523 196.211,-523 196.211,4 -4,4"/>
<!-- Node1 -->
<g id="node1" class="node"><title>Node1</title>
<polygon fill="#bfbfbf" stroke="black" points="0,-0.5 0,-74.5 192.211,-74.5 192.211,-0.5 0,-0.5"/>
<text text-anchor="start" x="8" y="-62.5" font-family="Helvetica,sans-Serif" font-size="10.00">HydroCouple::Data::</text>
<text text-anchor="middle" x="96.1055" y="-52.5" font-family="Helvetica,sans-Serif" font-size="10.00">IAdaptedOutputFactoryComponent</text>
<polyline fill="none" stroke="black" points="0,-46.5 192.211,-46.5 "/>
<text text-anchor="middle" x="96.1055" y="-34.5" font-family="Helvetica,sans-Serif" font-size="10.00"> </text>
<polyline fill="none" stroke="black" points="0,-28.5 192.211,-28.5 "/>
<text text-anchor="start" x="8" y="-16.5" font-family="Helvetica,sans-Serif" font-size="10.00">+ ~IAdaptedOutputFactoryComponent()</text>
<text text-anchor="start" x="8" y="-6.5" font-family="Helvetica,sans-Serif" font-size="10.00">+ componentInfo()</text>
</g>
<!-- Node2 -->
<g id="node2" class="node"><title>Node2</title>
<g id="a_node2"><a xlink:href="class_hydro_couple_1_1_data_1_1_i_adapted_output_factory.html" target="_top" xlink:title="IAdaptedOutputFactory is used to create instances of IAdaptedProducerExchangeItems ...">
<polygon fill="white" stroke="black" points="13.0054,-111.5 13.0054,-195.5 179.206,-195.5 179.206,-111.5 13.0054,-111.5"/>
<text text-anchor="start" x="21.0054" y="-183.5" font-family="Helvetica,sans-Serif" font-size="10.00">HydroCouple::Data::</text>
<text text-anchor="middle" x="96.1055" y="-173.5" font-family="Helvetica,sans-Serif" font-size="10.00">IAdaptedOutputFactory</text>
<polyline fill="none" stroke="black" points="13.0054,-167.5 179.206,-167.5 "/>
<text text-anchor="middle" x="96.1055" y="-155.5" font-family="Helvetica,sans-Serif" font-size="10.00"> </text>
<polyline fill="none" stroke="black" points="13.0054,-149.5 179.206,-149.5 "/>
<text text-anchor="start" x="21.0054" y="-137.5" font-family="Helvetica,sans-Serif" font-size="10.00">+ ~IAdaptedOutputFactory()</text>
<text text-anchor="start" x="21.0054" y="-127.5" font-family="Helvetica,sans-Serif" font-size="10.00">+ getAvailableAdaptedOutputIds()</text>
<text text-anchor="start" x="21.0054" y="-117.5" font-family="Helvetica,sans-Serif" font-size="10.00">+ createAdaptedOutput()</text>
</a>
</g>
</g>
<!-- Node2&#45;&gt;Node1 -->
<g id="edge1" class="edge"><title>Node2&#45;&gt;Node1</title>
<path fill="none" stroke="midnightblue" d="M96.1055,-101.328C96.1055,-92.3412 96.1055,-83.159 96.1055,-74.6878"/>
<polygon fill="none" stroke="midnightblue" points="92.6056,-101.343 96.1055,-111.343 99.6056,-101.343 92.6056,-101.343"/>
</g>
<!-- Node3 -->
<g id="node3" class="node"><title>Node3</title>
<g id="a_node3"><a xlink:href="class_hydro_couple_1_1_i_identity.html" target="_top" xlink:title="IIdentity interface class defines a method to get the Id of an HydroCouple entity. &#160;IIdentity extends the IDescription interface class, and therefore has, next to the id, a caption and a description. ">
<polygon fill="white" stroke="black" points="38.6353,-232.5 38.6353,-296.5 153.576,-296.5 153.576,-232.5 38.6353,-232.5"/>
<text text-anchor="middle" x="96.1055" y="-284.5" font-family="Helvetica,sans-Serif" font-size="10.00">HydroCouple::IIdentity</text>
<polyline fill="none" stroke="black" points="38.6353,-278.5 153.576,-278.5 "/>
<text text-anchor="middle" x="96.1055" y="-266.5" font-family="Helvetica,sans-Serif" font-size="10.00"> </text>
<polyline fill="none" stroke="black" points="38.6353,-260.5 153.576,-260.5 "/>
<text text-anchor="start" x="46.6353" y="-248.5" font-family="Helvetica,sans-Serif" font-size="10.00">+ ~IIdentity()</text>
<text text-anchor="start" x="46.6353" y="-238.5" font-family="Helvetica,sans-Serif" font-size="10.00">+ id()</text>
</a>
</g>
</g>
<!-- Node3&#45;&gt;Node2 -->
<g id="edge2" class="edge"><title>Node3&#45;&gt;Node2</title>
<path fill="none" stroke="midnightblue" d="M96.1055,-222.263C96.1055,-213.503 96.1055,-204.255 96.1055,-195.503"/>
<polygon fill="none" stroke="midnightblue" points="92.6056,-222.265 96.1055,-232.265 99.6056,-222.265 92.6056,-222.265"/>
</g>
<!-- Node4 -->
<g id="node4" class="node"><title>Node4</title>
<g id="a_node4"><a xlink:href="class_hydro_couple_1_1_i_description.html" target="_top" xlink:title="IDescription interface class provides descriptive information on a HydroCouple object. ">
<polygon fill="white" stroke="black" points="29.7461,-333.5 29.7461,-427.5 162.465,-427.5 162.465,-333.5 29.7461,-333.5"/>
<text text-anchor="middle" x="96.1055" y="-415.5" font-family="Helvetica,sans-Serif" font-size="10.00">HydroCouple::IDescription</text>
<polyline fill="none" stroke="black" points="29.7461,-409.5 162.465,-409.5 "/>
<text text-anchor="middle" x="96.1055" y="-397.5" font-family="Helvetica,sans-Serif" font-size="10.00"> </text>
<polyline fill="none" stroke="black" points="29.7461,-391.5 162.465,-391.5 "/>
<text text-anchor="start" x="37.7461" y="-379.5" font-family="Helvetica,sans-Serif" font-size="10.00">+ ~IDescription()</text>
<text text-anchor="start" x="37.7461" y="-369.5" font-family="Helvetica,sans-Serif" font-size="10.00">+ getCaption()</text>
<text text-anchor="start" x="37.7461" y="-359.5" font-family="Helvetica,sans-Serif" font-size="10.00">+ setCaption()</text>
<text text-anchor="start" x="37.7461" y="-349.5" font-family="Helvetica,sans-Serif" font-size="10.00">+ getDescription()</text>
<text text-anchor="start" x="37.7461" y="-339.5" font-family="Helvetica,sans-Serif" font-size="10.00">+ setDescription()</text>
</a>
</g>
</g>
<!-- Node4&#45;&gt;Node3 -->
<g id="edge3" class="edge"><title>Node4&#45;&gt;Node3</title>
<path fill="none" stroke="midnightblue" d="M96.1055,-323.212C96.1055,-314.081 96.1055,-304.926 96.1055,-296.684"/>
<polygon fill="none" stroke="midnightblue" points="92.6056,-323.46 96.1055,-333.46 99.6056,-323.46 92.6056,-323.46"/>
</g>
<!-- Node5 -->
<g id="node5" class="node"><title>Node5</title>
<g id="a_node5"><a xlink:href="class_hydro_couple_1_1_i_property_changed.html" target="_top" xlink:title="IPropertyChanged interface is used to emit signal/event when a property of an object changes...">
<polygon fill="white" stroke="black" points="15.564,-464.5 15.564,-518.5 176.647,-518.5 176.647,-464.5 15.564,-464.5"/>
<text text-anchor="middle" x="96.1055" y="-506.5" font-family="Helvetica,sans-Serif" font-size="10.00">HydroCouple::IPropertyChanged</text>
<polyline fill="none" stroke="black" points="15.564,-500.5 176.647,-500.5 "/>
<text text-anchor="middle" x="96.1055" y="-488.5" font-family="Helvetica,sans-Serif" font-size="10.00"> </text>
<polyline fill="none" stroke="black" points="15.564,-482.5 176.647,-482.5 "/>
<text text-anchor="start" x="23.564" y="-470.5" font-family="Helvetica,sans-Serif" font-size="10.00">+ ~IPropertyChanged()</text>
</a>
</g>
</g>
<!-- Node5&#45;&gt;Node4 -->
<g id="edge4" class="edge"><title>Node5&#45;&gt;Node4</title>
<path fill="none" stroke="midnightblue" d="M96.1055,-454.141C96.1055,-445.716 96.1055,-436.639 96.1055,-427.851"/>
<polygon fill="none" stroke="midnightblue" points="92.6056,-454.392 96.1055,-464.392 99.6056,-454.392 92.6056,-454.392"/>
</g>
</g>
</svg>
