<?xml version="1.0" encoding="UTF-8" standalone="no"?>
<!DOCTYPE svg PUBLIC "-//W3C//DTD SVG 1.1//EN"
 "http://www.w3.org/Graphics/SVG/1.1/DTD/svg11.dtd">
<!-- Generated by graphviz version 2.38.0 (20140413.2041)
 -->
<!-- Title: HydroCouple::IDescription Pages: 1 -->
<svg width="198pt" height="227pt"
 viewBox="0.00 0.00 198.03 227.35" xmlns="http://www.w3.org/2000/svg" xmlns:xlink="http://www.w3.org/1999/xlink">
<g id="graph0" class="graph" transform="scale(1 1) rotate(0) translate(4 223.35)">
<title>HydroCouple::IDescription</title>
<!-- Node1 -->
<g id="node1" class="node"><title>Node1</title>
<polygon fill="#bfbfbf" stroke="black" points="12.002,-0.5 12.002,-117.845 178.026,-117.845 178.026,-0.5 12.002,-0.5"/>
<text text-anchor="middle" x="95.0142" y="-105.845" font-family="Monaco" font-size="10.00">HydroCouple::IDescription</text>
<polyline fill="none" stroke="black" points="12.002,-96.5098 178.026,-96.5098 "/>
<text text-anchor="middle" x="95.0142" y="-84.5098" font-family="Monaco" font-size="10.00"> </text>
<polyline fill="none" stroke="black" points="12.002,-75.1748 178.026,-75.1748 "/>
<text text-anchor="start" x="20.002" y="-63.1748" font-family="Monaco" font-size="10.00">+ ~IDescription()</text>
<text text-anchor="start" x="20.002" y="-49.8398" font-family="Monaco" font-size="10.00">+ caption()</text>
<text text-anchor="start" x="20.002" y="-36.5049" font-family="Monaco" font-size="10.00">+ setCaption()</text>
<text text-anchor="start" x="20.002" y="-23.1699" font-family="Monaco" font-size="10.00">+ description()</text>
<text text-anchor="start" x="20.002" y="-9.83496" font-family="Monaco" font-size="10.00">+ setDescription()</text>
</g>
<!-- Node2 -->
<g id="node2" class="node"><title>Node2</title>
<g id="a_node2"><a xlink:href="class_hydro_couple_1_1_i_property_changed.html" target="_top" xlink:title="IPropertyChanged interface is used to emit signal/event when a property of an object changes...">
<polygon fill="none" stroke="black" points="0,-154.845 0,-218.85 190.028,-218.85 190.028,-154.845 0,-154.845"/>
<text text-anchor="middle" x="95.0142" y="-206.85" font-family="Monaco" font-size="10.00">HydroCouple::IPropertyChanged</text>
<polyline fill="none" stroke="black" points="0,-197.515 190.028,-197.515 "/>
<text text-anchor="middle" x="95.0142" y="-185.515" font-family="Monaco" font-size="10.00"> </text>
<polyline fill="none" stroke="black" points="0,-176.18 190.028,-176.18 "/>
<text text-anchor="start" x="8" y="-164.18" font-family="Monaco" font-size="10.00">+ ~IPropertyChanged()</text>
</a>
</g>
</g>
<!-- Node2&#45;&gt;Node1 -->
<g id="edge1" class="edge"><title>Node2&#45;&gt;Node1</title>
<path fill="none" stroke="midnightblue" d="M95.0142,-144.524C95.0142,-136.139 95.0142,-127.173 95.0142,-118.331"/>
<polygon fill="none" stroke="midnightblue" points="91.5143,-144.781 95.0142,-154.781 98.5143,-144.782 91.5143,-144.781"/>
</g>
</g>
</svg>
