<?xml version="1.0" encoding="UTF-8" standalone="no"?>
<!DOCTYPE svg PUBLIC "-//W3C//DTD SVG 1.1//EN"
 "http://www.w3.org/Graphics/SVG/1.1/DTD/svg11.dtd">
<!-- Generated by graphviz version 2.38.0 (20140413.2041)
 -->
<!-- Title: HydroCouple::IComponentDataItem Pages: 1 -->
<svg width="210pt" height="523pt"
 viewBox="0.00 0.00 210.03 522.70" xmlns="http://www.w3.org/2000/svg" xmlns:xlink="http://www.w3.org/1999/xlink">
<g id="graph0" class="graph" transform="scale(1 1) rotate(0) translate(4 518.704)">
<title>HydroCouple::IComponentDataItem</title>
<!-- Node1 -->
<g id="node1" class="node"><title>Node1</title>
<polygon fill="#bfbfbf" stroke="black" points="0,-0.5 0,-144.515 202.03,-144.515 202.03,-0.5 0,-0.5"/>
<text text-anchor="middle" x="101.015" y="-132.515" font-family="Monaco" font-size="10.00">HydroCouple::IComponentDataItem</text>
<polyline fill="none" stroke="black" points="0,-123.18 202.03,-123.18 "/>
<text text-anchor="middle" x="101.015" y="-111.18" font-family="Monaco" font-size="10.00"> </text>
<polyline fill="none" stroke="black" points="0,-101.845 202.03,-101.845 "/>
<text text-anchor="start" x="8" y="-89.8447" font-family="Monaco" font-size="10.00">+ ~IComponentDataItem()</text>
<text text-anchor="start" x="8" y="-76.5098" font-family="Monaco" font-size="10.00">+ modelComponent()</text>
<text text-anchor="start" x="8" y="-63.1748" font-family="Monaco" font-size="10.00">+ dimensions()</text>
<text text-anchor="start" x="8" y="-49.8398" font-family="Monaco" font-size="10.00">+ dimensionLength()</text>
<text text-anchor="start" x="8" y="-36.5049" font-family="Monaco" font-size="10.00">+ valueDefinition()</text>
<text text-anchor="start" x="8" y="-23.1699" font-family="Monaco" font-size="10.00">+ getValue()</text>
<text text-anchor="start" x="8" y="-9.83496" font-family="Monaco" font-size="10.00">+ setValue()</text>
</g>
<!-- Node2 -->
<g id="node2" class="node"><title>Node2</title>
<g id="a_node2"><a xlink:href="class_hydro_couple_1_1_i_identity.html" target="_top" xlink:title="IIdentity interface class defines a method to get the Id of an HydroCouple entity. ">
<polygon fill="none" stroke="black" points="27.0044,-181.515 27.0044,-258.854 175.026,-258.854 175.026,-181.515 27.0044,-181.515"/>
<text text-anchor="middle" x="101.015" y="-246.854" font-family="Monaco" font-size="10.00">HydroCouple::IIdentity</text>
<polyline fill="none" stroke="black" points="27.0044,-237.52 175.026,-237.52 "/>
<text text-anchor="middle" x="101.015" y="-225.52" font-family="Monaco" font-size="10.00"> </text>
<polyline fill="none" stroke="black" points="27.0044,-216.185 175.026,-216.185 "/>
<text text-anchor="start" x="35.0044" y="-204.185" font-family="Monaco" font-size="10.00">+ ~IIdentity()</text>
<text text-anchor="start" x="35.0044" y="-190.85" font-family="Monaco" font-size="10.00">+ id()</text>
</a>
</g>
</g>
<!-- Node2&#45;&gt;Node1 -->
<g id="edge1" class="edge"><title>Node2&#45;&gt;Node1</title>
<path fill="none" stroke="midnightblue" d="M101.015,-171.162C101.015,-162.619 101.015,-153.558 101.015,-144.534"/>
<polygon fill="none" stroke="midnightblue" points="97.5152,-171.29 101.015,-181.29 104.515,-171.29 97.5152,-171.29"/>
</g>
<!-- Node3 -->
<g id="node3" class="node"><title>Node3</title>
<g id="a_node3"><a xlink:href="class_hydro_couple_1_1_i_description.html" target="_top" xlink:title="IDescription interface class provides descriptive information on a HydroCouple object. ">
<polygon fill="none" stroke="black" points="18.0029,-295.854 18.0029,-413.199 184.027,-413.199 184.027,-295.854 18.0029,-295.854"/>
<text text-anchor="middle" x="101.015" y="-401.199" font-family="Monaco" font-size="10.00">HydroCouple::IDescription</text>
<polyline fill="none" stroke="black" points="18.0029,-391.864 184.027,-391.864 "/>
<text text-anchor="middle" x="101.015" y="-379.864" font-family="Monaco" font-size="10.00"> </text>
<polyline fill="none" stroke="black" points="18.0029,-370.529 184.027,-370.529 "/>
<text text-anchor="start" x="26.0029" y="-358.529" font-family="Monaco" font-size="10.00">+ ~IDescription()</text>
<text text-anchor="start" x="26.0029" y="-345.194" font-family="Monaco" font-size="10.00">+ caption()</text>
<text text-anchor="start" x="26.0029" y="-331.859" font-family="Monaco" font-size="10.00">+ setCaption()</text>
<text text-anchor="start" x="26.0029" y="-318.524" font-family="Monaco" font-size="10.00">+ description()</text>
<text text-anchor="start" x="26.0029" y="-305.189" font-family="Monaco" font-size="10.00">+ setDescription()</text>
</a>
</g>
</g>
<!-- Node3&#45;&gt;Node2 -->
<g id="edge2" class="edge"><title>Node3&#45;&gt;Node2</title>
<path fill="none" stroke="midnightblue" d="M101.015,-285.289C101.015,-276.25 101.015,-267.262 101.015,-259.002"/>
<polygon fill="none" stroke="midnightblue" points="97.5152,-285.48 101.015,-295.48 104.515,-285.48 97.5152,-285.48"/>
</g>
<!-- Node4 -->
<g id="node4" class="node"><title>Node4</title>
<g id="a_node4"><a xlink:href="class_hydro_couple_1_1_i_property_changed.html" target="_top" xlink:title="IPropertyChanged interface is used to emit signal/event when a property of an object changes...">
<polygon fill="none" stroke="black" points="6.00098,-450.199 6.00098,-514.204 196.029,-514.204 196.029,-450.199 6.00098,-450.199"/>
<text text-anchor="middle" x="101.015" y="-502.204" font-family="Monaco" font-size="10.00">HydroCouple::IPropertyChanged</text>
<polyline fill="none" stroke="black" points="6.00098,-492.869 196.029,-492.869 "/>
<text text-anchor="middle" x="101.015" y="-480.869" font-family="Monaco" font-size="10.00"> </text>
<polyline fill="none" stroke="black" points="6.00098,-471.534 196.029,-471.534 "/>
<text text-anchor="start" x="14.001" y="-459.534" font-family="Monaco" font-size="10.00">+ ~IPropertyChanged()</text>
</a>
</g>
</g>
<!-- Node4&#45;&gt;Node3 -->
<g id="edge3" class="edge"><title>Node4&#45;&gt;Node3</title>
<path fill="none" stroke="midnightblue" d="M101.015,-439.879C101.015,-431.494 101.015,-422.527 101.015,-413.685"/>
<polygon fill="none" stroke="midnightblue" points="97.5152,-440.136 101.015,-450.136 104.515,-440.136 97.5152,-440.136"/>
</g>
</g>
</svg>
