<?xml version="1.0" encoding="UTF-8" standalone="no"?>
<!DOCTYPE svg PUBLIC "-//W3C//DTD SVG 1.1//EN"
 "http://www.w3.org/Graphics/SVG/1.1/DTD/svg11.dtd">
<!-- Generated by graphviz version 2.38.0 (20140413.2041)
 -->
<!-- Title: HydroCouple::Spatial::IRegularGrid3DOnlyExhangeItem Pages: 1 -->
<!--zoomable 1079 -->
<svg id="main" version="1.1" xmlns="http://www.w3.org/2000/svg" xmlns:xlink="http://www.w3.org/1999/xlink" xml:space="preserve" onload="init(evt)">
<style type="text/css"><![CDATA[
.edge:hover path { stroke: red; }
.edge:hover polygon { stroke: red; fill: red; }
]]></style>
<script type="text/javascript"><![CDATA[
var edges = document.getElementsByTagName('g');
if (edges && edges.length) {
  for (var i=0;i<edges.length;i++) {
    if (edges[i].id.substr(0,4)=='edge') {
      edges[i].setAttribute('class','edge');
    }
  }
}
]]></script>
        <defs>
                <circle id="rim" cx="0" cy="0" r="7"/>
                <circle id="rim2" cx="0" cy="0" r="3.5"/>
                <g id="zoomPlus">
                        <use xlink:href="#rim" fill="#404040">
                                <set attributeName="fill" to="#808080" begin="zoomplus.mouseover" end="zoomplus.mouseout"/>
                        </use>
                        <path d="M-4,0h8M0,-4v8" fill="none" stroke="white" stroke-width="1.5" pointer-events="none"/>
                </g>
                <g id="zoomMin">
                        <use xlink:href="#rim" fill="#404040">
                                <set attributeName="fill" to="#808080" begin="zoomminus.mouseover" end="zoomminus.mouseout"/>
                        </use>
                        <path d="M-4,0h8" fill="none" stroke="white" stroke-width="1.5" pointer-events="none"/>
                </g>
                <g id="dirArrow">
                        <path fill="none" stroke="white" stroke-width="1.5" d="M0,-3.0v7 M-2.5,-0.5L0,-3.0L2.5,-0.5"/>
                </g>
               <g id="resetDef">
                       <use xlink:href="#rim2" fill="#404040">
                               <set attributeName="fill" to="#808080" begin="reset.mouseover" end="reset.mouseout"/>
                       </use>
               </g>
        </defs>

<script type="text/javascript">
var viewWidth = 424;
var viewHeight = 1079;
var sectionId = 'dynsection-1';
</script>
<script xlink:href="svgpan.js"/>
<svg id="graph" class="graph">
<g id="viewport">
<title>HydroCouple::Spatial::IRegularGrid3DOnlyExhangeItem</title>
<!-- Node1 -->
<g id="node1" class="node"><title>Node1</title>
<polygon fill="#bfbfbf" stroke="black" points="94.998,-0.5 94.998,-77.8398 315.031,-77.8398 315.031,-0.5 94.998,-0.5"/>
<text text-anchor="start" x="102.998" y="-65.8398" font-family="Monaco" font-size="10.00">HydroCouple::Spatial</text>
<text text-anchor="middle" x="205.015" y="-52.5049" font-family="Monaco" font-size="10.00">::IRegularGrid3DOnlyExhangeItem</text>
<polyline fill="none" stroke="black" points="94.998,-43.1699 315.031,-43.1699 "/>
<text text-anchor="middle" x="205.015" y="-31.1699" font-family="Monaco" font-size="10.00"> </text>
<polyline fill="none" stroke="black" points="94.998,-21.835 315.031,-21.835 "/>
<text text-anchor="start" x="102.998" y="-9.83496" font-family="Monaco" font-size="10.00">+ ~IRegularGrid3DOnlyExhangeItem()</text>
</g>
<!-- Node2 -->
<g id="node2" class="node"><title>Node2</title>
<g id="a_node2"><a xlink:href="class_hydro_couple_1_1_spatial_1_1_i_regular_grid3_d_exhange_item.html" target="_top" xlink:title="An IRegularGrid3DExhangeItem is an IExchangeItem with an IRegularGrid3DComponentItem. ">
<polygon fill="none" stroke="black" points="0,-168.18 0,-245.52 196.029,-245.52 196.029,-168.18 0,-168.18"/>
<text text-anchor="start" x="8" y="-233.52" font-family="Monaco" font-size="10.00">HydroCouple::Spatial</text>
<text text-anchor="middle" x="98.0146" y="-220.185" font-family="Monaco" font-size="10.00">::IRegularGrid3DExhangeItem</text>
<polyline fill="none" stroke="black" points="0,-210.85 196.029,-210.85 "/>
<text text-anchor="middle" x="98.0146" y="-198.85" font-family="Monaco" font-size="10.00"> </text>
<polyline fill="none" stroke="black" points="0,-189.515 196.029,-189.515 "/>
<text text-anchor="start" x="8" y="-177.515" font-family="Monaco" font-size="10.00">+ ~IRegularGrid3DExhangeItem()</text>
</a>
</g>
</g>
<!-- Node2&#45;&gt;Node1 -->
<g id="edge1" class="edge"><title>Node2&#45;&gt;Node1</title>
<path fill="none" stroke="midnightblue" d="M128.033,-159.37C144.623,-133.681 164.972,-102.173 180.581,-78.0033"/>
<polygon fill="none" stroke="midnightblue" points="125.048,-157.54 122.563,-167.839 130.928,-161.338 125.048,-157.54"/>
</g>
<!-- Node3 -->
<g id="node3" class="node"><title>Node3</title>
<g id="a_node3"><a xlink:href="class_hydro_couple_1_1_i_exchange_item.html" target="_top" xlink:title="IExchangeItem the base data item the can be exchanged between components at runtime. ">
<polygon fill="none" stroke="black" points="12.002,-375.864 12.002,-439.869 184.027,-439.869 184.027,-375.864 12.002,-375.864"/>
<text text-anchor="middle" x="98.0146" y="-427.869" font-family="Monaco" font-size="10.00">HydroCouple::IExchangeItem</text>
<polyline fill="none" stroke="black" points="12.002,-418.534 184.027,-418.534 "/>
<text text-anchor="middle" x="98.0146" y="-406.534" font-family="Monaco" font-size="10.00"> </text>
<polyline fill="none" stroke="black" points="12.002,-397.199 184.027,-397.199 "/>
<text text-anchor="start" x="20.002" y="-385.199" font-family="Monaco" font-size="10.00">+ ~IExchangeItem()</text>
</a>
</g>
</g>
<!-- Node3&#45;&gt;Node2 -->
<g id="edge2" class="edge"><title>Node3&#45;&gt;Node2</title>
<path fill="none" stroke="midnightblue" d="M98.0146,-365.354C98.0146,-330.143 98.0146,-280.047 98.0146,-245.869"/>
<polygon fill="none" stroke="midnightblue" points="94.5147,-365.77 98.0146,-375.77 101.515,-365.77 94.5147,-365.77"/>
</g>
<!-- Node4 -->
<g id="node4" class="node"><title>Node4</title>
<g id="a_node4"><a xlink:href="class_hydro_couple_1_1_i_component_data_item.html" target="_top" xlink:title="IComponentItem is a fundamental unit of data for a component. ">
<polygon fill="none" stroke="black" points="102,-516.874 102,-700.894 304.03,-700.894 304.03,-516.874 102,-516.874"/>
<text text-anchor="middle" x="203.015" y="-688.894" font-family="Monaco" font-size="10.00">HydroCouple::IComponentDataItem</text>
<polyline fill="none" stroke="black" points="102,-679.559 304.03,-679.559 "/>
<text text-anchor="middle" x="203.015" y="-667.559" font-family="Monaco" font-size="10.00"> </text>
<polyline fill="none" stroke="black" points="102,-658.224 304.03,-658.224 "/>
<text text-anchor="start" x="110" y="-646.224" font-family="Monaco" font-size="10.00">+ ~IComponentDataItem()</text>
<text text-anchor="start" x="110" y="-632.889" font-family="Monaco" font-size="10.00">+ modelComponent()</text>
<text text-anchor="start" x="110" y="-619.554" font-family="Monaco" font-size="10.00">+ dimensions()</text>
<text text-anchor="start" x="110" y="-606.219" font-family="Monaco" font-size="10.00">+ valueDefinition()</text>
<text text-anchor="start" x="110" y="-592.884" font-family="Monaco" font-size="10.00">+ getValue()</text>
<text text-anchor="start" x="110" y="-579.549" font-family="Monaco" font-size="10.00">+ getValues()</text>
<text text-anchor="start" x="110" y="-566.214" font-family="Monaco" font-size="10.00">+ getValues()</text>
<text text-anchor="start" x="110" y="-552.879" font-family="Monaco" font-size="10.00">+ setValue()</text>
<text text-anchor="start" x="110" y="-539.544" font-family="Monaco" font-size="10.00">+ setValues()</text>
<text text-anchor="start" x="110" y="-526.209" font-family="Monaco" font-size="10.00">+ setValues()</text>
</a>
</g>
</g>
<!-- Node4&#45;&gt;Node3 -->
<g id="edge3" class="edge"><title>Node4&#45;&gt;Node3</title>
<path fill="none" stroke="midnightblue" d="M150.176,-507.733C137.149,-483.042 124.15,-458.404 114.387,-439.899"/>
<polygon fill="none" stroke="midnightblue" points="147.208,-509.609 154.97,-516.821 153.4,-506.343 147.208,-509.609"/>
</g>
<!-- Node8 -->
<g id="node8" class="node"><title>Node8</title>
<g id="a_node8"><a xlink:href="class_hydro_couple_1_1_spatial_1_1_i_regular_grid3_d_component_data_item.html" target="_top" xlink:title="An IRegularGrid3DComponentItem represents an IRegularGrid3D IComponentItem. ">
<polygon fill="none" stroke="black" points="201.999,-335.859 201.999,-479.874 416.031,-479.874 416.031,-335.859 201.999,-335.859"/>
<text text-anchor="start" x="209.999" y="-467.874" font-family="Monaco" font-size="10.00">HydroCouple::Spatial</text>
<text text-anchor="middle" x="309.015" y="-454.539" font-family="Monaco" font-size="10.00">::IRegularGrid3DComponentDataItem</text>
<polyline fill="none" stroke="black" points="201.999,-445.204 416.031,-445.204 "/>
<text text-anchor="middle" x="309.015" y="-433.204" font-family="Monaco" font-size="10.00"> </text>
<polyline fill="none" stroke="black" points="201.999,-423.869 416.031,-423.869 "/>
<text text-anchor="start" x="209.999" y="-411.869" font-family="Monaco" font-size="10.00">+ ~IRegularGrid3DComponent</text>
<text text-anchor="start" x="209.999" y="-398.534" font-family="Monaco" font-size="10.00">DataItem()</text>
<text text-anchor="start" x="209.999" y="-385.199" font-family="Monaco" font-size="10.00">+ numXCellsDimension()</text>
<text text-anchor="start" x="209.999" y="-371.864" font-family="Monaco" font-size="10.00">+ numYCellsDimension()</text>
<text text-anchor="start" x="209.999" y="-358.529" font-family="Monaco" font-size="10.00">+ numZCellsDimension()</text>
<text text-anchor="start" x="209.999" y="-345.194" font-family="Monaco" font-size="10.00">+ grid()</text>
</a>
</g>
</g>
<!-- Node4&#45;&gt;Node8 -->
<g id="edge8" class="edge"><title>Node4&#45;&gt;Node8</title>
<path fill="none" stroke="midnightblue" d="M256.32,-507.803C261.334,-498.387 266.345,-488.979 271.173,-479.915"/>
<polygon fill="none" stroke="midnightblue" points="253.128,-506.349 251.517,-516.821 259.307,-509.64 253.128,-506.349"/>
</g>
<!-- Node5 -->
<g id="node5" class="node"><title>Node5</title>
<g id="a_node5"><a xlink:href="class_hydro_couple_1_1_i_identity.html" target="_top" xlink:title="IIdentity interface class defines a method to get the Id of an HydroCouple entity. ">
<polygon fill="none" stroke="black" points="129.004,-737.894 129.004,-815.233 277.025,-815.233 277.025,-737.894 129.004,-737.894"/>
<text text-anchor="middle" x="203.015" y="-803.233" font-family="Monaco" font-size="10.00">HydroCouple::IIdentity</text>
<polyline fill="none" stroke="black" points="129.004,-793.898 277.025,-793.898 "/>
<text text-anchor="middle" x="203.015" y="-781.898" font-family="Monaco" font-size="10.00"> </text>
<polyline fill="none" stroke="black" points="129.004,-772.563 277.025,-772.563 "/>
<text text-anchor="start" x="137.004" y="-760.563" font-family="Monaco" font-size="10.00">+ ~IIdentity()</text>
<text text-anchor="start" x="137.004" y="-747.229" font-family="Monaco" font-size="10.00">+ id()</text>
</a>
</g>
</g>
<!-- Node5&#45;&gt;Node4 -->
<g id="edge4" class="edge"><title>Node5&#45;&gt;Node4</title>
<path fill="none" stroke="midnightblue" d="M203.015,-727.311C203.015,-718.958 203.015,-710.033 203.015,-700.974"/>
<polygon fill="none" stroke="midnightblue" points="199.515,-727.553 203.015,-737.553 206.515,-727.553 199.515,-727.553"/>
</g>
<!-- Node6 -->
<g id="node6" class="node"><title>Node6</title>
<g id="a_node6"><a xlink:href="class_hydro_couple_1_1_i_description.html" target="_top" xlink:title="IDescription interface class provides descriptive information on a HydroCouple object. ">
<polygon fill="none" stroke="black" points="120.002,-852.233 120.002,-969.578 286.027,-969.578 286.027,-852.233 120.002,-852.233"/>
<text text-anchor="middle" x="203.015" y="-957.578" font-family="Monaco" font-size="10.00">HydroCouple::IDescription</text>
<polyline fill="none" stroke="black" points="120.002,-948.243 286.027,-948.243 "/>
<text text-anchor="middle" x="203.015" y="-936.243" font-family="Monaco" font-size="10.00"> </text>
<polyline fill="none" stroke="black" points="120.002,-926.908 286.027,-926.908 "/>
<text text-anchor="start" x="128.002" y="-914.908" font-family="Monaco" font-size="10.00">+ ~IDescription()</text>
<text text-anchor="start" x="128.002" y="-901.573" font-family="Monaco" font-size="10.00">+ caption()</text>
<text text-anchor="start" x="128.002" y="-888.238" font-family="Monaco" font-size="10.00">+ setCaption()</text>
<text text-anchor="start" x="128.002" y="-874.903" font-family="Monaco" font-size="10.00">+ description()</text>
<text text-anchor="start" x="128.002" y="-861.568" font-family="Monaco" font-size="10.00">+ setDescription()</text>
</a>
</g>
</g>
<!-- Node6&#45;&gt;Node5 -->
<g id="edge5" class="edge"><title>Node6&#45;&gt;Node5</title>
<path fill="none" stroke="midnightblue" d="M203.015,-841.667C203.015,-832.629 203.015,-823.641 203.015,-815.381"/>
<polygon fill="none" stroke="midnightblue" points="199.515,-841.858 203.015,-851.859 206.515,-841.859 199.515,-841.858"/>
</g>
<!-- Node7 -->
<g id="node7" class="node"><title>Node7</title>
<g id="a_node7"><a xlink:href="class_hydro_couple_1_1_i_property_changed.html" target="_top" xlink:title="IPropertyChanged interface is used to emit signal/event when a property of an object changes...">
<polygon fill="none" stroke="black" points="108,-1006.58 108,-1070.58 298.029,-1070.58 298.029,-1006.58 108,-1006.58"/>
<text text-anchor="middle" x="203.015" y="-1058.58" font-family="Monaco" font-size="10.00">HydroCouple::IPropertyChanged</text>
<polyline fill="none" stroke="black" points="108,-1049.25 298.029,-1049.25 "/>
<text text-anchor="middle" x="203.015" y="-1037.25" font-family="Monaco" font-size="10.00"> </text>
<polyline fill="none" stroke="black" points="108,-1027.91 298.029,-1027.91 "/>
<text text-anchor="start" x="116" y="-1015.91" font-family="Monaco" font-size="10.00">+ ~IPropertyChanged()</text>
</a>
</g>
</g>
<!-- Node7&#45;&gt;Node6 -->
<g id="edge6" class="edge"><title>Node7&#45;&gt;Node6</title>
<path fill="none" stroke="midnightblue" d="M203.015,-996.258C203.015,-987.873 203.015,-978.906 203.015,-970.064"/>
<polygon fill="none" stroke="midnightblue" points="199.515,-996.515 203.015,-1006.51 206.515,-996.515 199.515,-996.515"/>
</g>
<!-- Node8&#45;&gt;Node2 -->
<g id="edge7" class="edge"><title>Node8&#45;&gt;Node2</title>
<path fill="none" stroke="midnightblue" d="M225.829,-328.405C195.67,-299.959 162.962,-269.108 138.183,-245.737"/>
<polygon fill="none" stroke="midnightblue" points="223.759,-331.264 233.435,-335.579 228.562,-326.171 223.759,-331.264"/>
</g>
<!-- Node9 -->
<g id="node9" class="node"><title>Node9</title>
<g id="a_node9"><a xlink:href="class_hydro_couple_1_1_spatial_1_1_i_regular_grid3_d_only_component_data_item.html" target="_top" xlink:title="An IRegularGrid3DOnlyComponentDataItem represents an IRegularGrid3D IComponentItem. ">
<polygon fill="none" stroke="black" points="214,-114.84 214,-298.859 410.029,-298.859 410.029,-114.84 214,-114.84"/>
<text text-anchor="start" x="222" y="-286.859" font-family="Monaco" font-size="10.00">HydroCouple::Spatial</text>
<text text-anchor="start" x="222" y="-273.524" font-family="Monaco" font-size="10.00">::IRegularGrid3DOnlyComponent</text>
<text text-anchor="middle" x="312.015" y="-260.189" font-family="Monaco" font-size="10.00">DataItem</text>
<polyline fill="none" stroke="black" points="214,-250.854 410.029,-250.854 "/>
<text text-anchor="middle" x="312.015" y="-238.854" font-family="Monaco" font-size="10.00"> </text>
<polyline fill="none" stroke="black" points="214,-229.52 410.029,-229.52 "/>
<text text-anchor="start" x="222" y="-217.52" font-family="Monaco" font-size="10.00">+ ~IRegularGrid3DOnlyComponent</text>
<text text-anchor="start" x="222" y="-204.185" font-family="Monaco" font-size="10.00">DataItem()</text>
<text text-anchor="start" x="222" y="-190.85" font-family="Monaco" font-size="10.00">+ getValue()</text>
<text text-anchor="start" x="222" y="-177.515" font-family="Monaco" font-size="10.00">+ getValues()</text>
<text text-anchor="start" x="222" y="-164.18" font-family="Monaco" font-size="10.00">+ getValues()</text>
<text text-anchor="start" x="222" y="-150.845" font-family="Monaco" font-size="10.00">+ setValue()</text>
<text text-anchor="start" x="222" y="-137.51" font-family="Monaco" font-size="10.00">+ setValues()</text>
<text text-anchor="start" x="222" y="-124.175" font-family="Monaco" font-size="10.00">+ setValues()</text>
</a>
</g>
</g>
<!-- Node8&#45;&gt;Node9 -->
<g id="edge10" class="edge"><title>Node8&#45;&gt;Node9</title>
<path fill="none" stroke="midnightblue" d="M310.241,-325.483C310.372,-316.793 310.506,-307.913 310.639,-299.119"/>
<polygon fill="none" stroke="midnightblue" points="306.74,-325.527 310.089,-335.579 313.74,-325.633 306.74,-325.527"/>
</g>
<!-- Node9&#45;&gt;Node1 -->
<g id="edge9" class="edge"><title>Node9&#45;&gt;Node1</title>
<path fill="none" stroke="midnightblue" d="M247.746,-106.335C241.311,-96.3712 235.093,-86.7431 229.485,-78.0601"/>
<polygon fill="none" stroke="midnightblue" points="244.828,-108.269 253.193,-114.77 250.708,-104.471 244.828,-108.269"/>
</g>
</g>
</svg>
        <g id="navigator" transform="translate(0 0)" fill="#404254">
                <rect fill="#f2f5e9" fill-opacity="0.5" stroke="#606060" stroke-width=".5" x="0" y="0" width="60" height="60"/>
                <use id="zoomplus" xlink:href="#zoomPlus" x="17" y="9" onmousedown="handleZoom(evt,'in')"/>
                <use id="zoomminus" xlink:href="#zoomMin" x="42" y="9" onmousedown="handleZoom(evt,'out')"/>
                <use id="reset" xlink:href="#resetDef" x="30" y="36" onmousedown="handleReset()"/>
                <g id="arrowUp" xlink:href="#dirArrow" transform="translate(30 24)" onmousedown="handlePan(0,-1)">
                  <use xlink:href="#rim" fill="#404040">
                        <set attributeName="fill" to="#808080" begin="arrowUp.mouseover" end="arrowUp.mouseout"/>
                  </use>
                  <path fill="none" stroke="white" stroke-width="1.5" d="M0,-3.0v7 M-2.5,-0.5L0,-3.0L2.5,-0.5"/>
                </g>
                <g id="arrowRight" xlink:href="#dirArrow" transform="rotate(90) translate(36 -43)" onmousedown="handlePan(1,0)">
                  <use xlink:href="#rim" fill="#404040">
                        <set attributeName="fill" to="#808080" begin="arrowRight.mouseover" end="arrowRight.mouseout"/>
                  </use>
                  <path fill="none" stroke="white" stroke-width="1.5" d="M0,-3.0v7 M-2.5,-0.5L0,-3.0L2.5,-0.5"/>
                </g>
                <g id="arrowDown" xlink:href="#dirArrow" transform="rotate(180) translate(-30 -48)" onmousedown="handlePan(0,1)">
                  <use xlink:href="#rim" fill="#404040">
                        <set attributeName="fill" to="#808080" begin="arrowDown.mouseover" end="arrowDown.mouseout"/>
                  </use>
                  <path fill="none" stroke="white" stroke-width="1.5" d="M0,-3.0v7 M-2.5,-0.5L0,-3.0L2.5,-0.5"/>
                </g>
                <g id="arrowLeft" xlink:href="#dirArrow" transform="rotate(270) translate(-36 17)" onmousedown="handlePan(-1,0)">
                  <use xlink:href="#rim" fill="#404040">
                        <set attributeName="fill" to="#808080" begin="arrowLeft.mouseover" end="arrowLeft.mouseout"/>
                  </use>
                  <path fill="none" stroke="white" stroke-width="1.5" d="M0,-3.0v7 M-2.5,-0.5L0,-3.0L2.5,-0.5"/>
                </g>
        </g>
        <svg viewBox="0 0 15 15" width="100%" height="30px" preserveAspectRatio="xMaxYMin meet">
         <g id="arrow_out" transform="scale(0.3 0.3)">
          <a xlink:href="class_hydro_couple_1_1_spatial_1_1_i_regular_grid3_d_only_exhange_item__coll__graph_org.svg" target="_base">
           <rect id="button" ry="5" rx="5" y="6" x="6" height="38" width="38"
                fill="#f2f5e9" fill-opacity="0.5" stroke="#606060" stroke-width="1.0"/>
           <path id="arrow"
             d="M 11.500037,31.436501 C 11.940474,20.09759 22.043105,11.32322 32.158766,21.979434 L 37.068811,17.246167 C 37.068811,17.246167 37.088388,32 37.088388,32 L 22.160133,31.978069 C 22.160133,31.978069 26.997745,27.140456 26.997745,27.140456 C 18.528582,18.264221 13.291696,25.230495 11.500037,31.436501 z"
             style="fill:#404040;"/>
          </a>
         </g>
        </svg>
</svg>
