<?xml version="1.0" encoding="UTF-8" standalone="no"?>
<!DOCTYPE svg PUBLIC "-//W3C//DTD SVG 1.1//EN"
 "http://www.w3.org/Graphics/SVG/1.1/DTD/svg11.dtd">
<!-- Generated by graphviz version 2.38.0 (20140413.2041)
 -->
<!-- Title: HydroCouple::Spatial::ISpatialReferenceSystem Pages: 1 -->
<svg width="198pt" height="382pt"
 viewBox="0.00 0.00 198.03 381.69" xmlns="http://www.w3.org/2000/svg" xmlns:xlink="http://www.w3.org/1999/xlink">
<g id="graph0" class="graph" transform="scale(1 1) rotate(0) translate(4 377.694)">
<title>HydroCouple::Spatial::ISpatialReferenceSystem</title>
<!-- Node1 -->
<g id="node1" class="node"><title>Node1</title>
<polygon fill="#bfbfbf" stroke="black" points="3.00049,-0.5 3.00049,-117.845 187.028,-117.845 187.028,-0.5 3.00049,-0.5"/>
<text text-anchor="start" x="11.0005" y="-105.845" font-family="Monaco" font-size="10.00">HydroCouple::Spatial</text>
<text text-anchor="middle" x="95.0142" y="-92.5098" font-family="Monaco" font-size="10.00">::ISpatialReferenceSystem</text>
<polyline fill="none" stroke="black" points="3.00049,-83.1748 187.028,-83.1748 "/>
<text text-anchor="middle" x="95.0142" y="-71.1748" font-family="Monaco" font-size="10.00"> </text>
<polyline fill="none" stroke="black" points="3.00049,-61.8398 187.028,-61.8398 "/>
<text text-anchor="start" x="11.0005" y="-49.8398" font-family="Monaco" font-size="10.00">+ ~ISpatialReferenceSystem()</text>
<text text-anchor="start" x="11.0005" y="-36.5049" font-family="Monaco" font-size="10.00">+ authSRID()</text>
<text text-anchor="start" x="11.0005" y="-23.1699" font-family="Monaco" font-size="10.00">+ authName()</text>
<text text-anchor="start" x="11.0005" y="-9.83496" font-family="Monaco" font-size="10.00">+ srText()</text>
</g>
<!-- Node2 -->
<g id="node2" class="node"><title>Node2</title>
<g id="a_node2"><a xlink:href="class_hydro_couple_1_1_i_description.html" target="_top" xlink:title="IDescription interface class provides descriptive information on a HydroCouple object. ">
<polygon fill="none" stroke="black" points="12.002,-154.845 12.002,-272.189 178.026,-272.189 178.026,-154.845 12.002,-154.845"/>
<text text-anchor="middle" x="95.0142" y="-260.189" font-family="Monaco" font-size="10.00">HydroCouple::IDescription</text>
<polyline fill="none" stroke="black" points="12.002,-250.854 178.026,-250.854 "/>
<text text-anchor="middle" x="95.0142" y="-238.854" font-family="Monaco" font-size="10.00"> </text>
<polyline fill="none" stroke="black" points="12.002,-229.52 178.026,-229.52 "/>
<text text-anchor="start" x="20.002" y="-217.52" font-family="Monaco" font-size="10.00">+ ~IDescription()</text>
<text text-anchor="start" x="20.002" y="-204.185" font-family="Monaco" font-size="10.00">+ caption()</text>
<text text-anchor="start" x="20.002" y="-190.85" font-family="Monaco" font-size="10.00">+ setCaption()</text>
<text text-anchor="start" x="20.002" y="-177.515" font-family="Monaco" font-size="10.00">+ description()</text>
<text text-anchor="start" x="20.002" y="-164.18" font-family="Monaco" font-size="10.00">+ setDescription()</text>
</a>
</g>
</g>
<!-- Node2&#45;&gt;Node1 -->
<g id="edge1" class="edge"><title>Node2&#45;&gt;Node1</title>
<path fill="none" stroke="midnightblue" d="M95.0142,-144.291C95.0142,-135.526 95.0142,-126.619 95.0142,-118.041"/>
<polygon fill="none" stroke="midnightblue" points="91.5143,-144.487 95.0142,-154.487 98.5143,-144.488 91.5143,-144.487"/>
</g>
<!-- Node3 -->
<g id="node3" class="node"><title>Node3</title>
<g id="a_node3"><a xlink:href="class_hydro_couple_1_1_i_property_changed.html" target="_top" xlink:title="IPropertyChanged interface is used to emit signal/event when a property of an object changes...">
<polygon fill="none" stroke="black" points="0,-309.189 0,-373.194 190.028,-373.194 190.028,-309.189 0,-309.189"/>
<text text-anchor="middle" x="95.0142" y="-361.194" font-family="Monaco" font-size="10.00">HydroCouple::IPropertyChanged</text>
<polyline fill="none" stroke="black" points="0,-351.859 190.028,-351.859 "/>
<text text-anchor="middle" x="95.0142" y="-339.859" font-family="Monaco" font-size="10.00"> </text>
<polyline fill="none" stroke="black" points="0,-330.524 190.028,-330.524 "/>
<text text-anchor="start" x="8" y="-318.524" font-family="Monaco" font-size="10.00">+ ~IPropertyChanged()</text>
</a>
</g>
</g>
<!-- Node3&#45;&gt;Node2 -->
<g id="edge2" class="edge"><title>Node3&#45;&gt;Node2</title>
<path fill="none" stroke="midnightblue" d="M95.0142,-298.869C95.0142,-290.484 95.0142,-281.518 95.0142,-272.675"/>
<polygon fill="none" stroke="midnightblue" points="91.5143,-299.126 95.0142,-309.126 98.5143,-299.126 91.5143,-299.126"/>
</g>
</g>
</svg>
