<?xml version="1.0" encoding="UTF-8" standalone="no"?>
<!DOCTYPE svg PUBLIC "-//W3C//DTD SVG 1.1//EN"
 "http://www.w3.org/Graphics/SVG/1.1/DTD/svg11.dtd">
<!-- Generated by graphviz version 2.38.0 (20140413.2041)
 -->
<!-- Title: HydroCouple::SpatioTemporal::ITimeGeometryArgument::~ITimeGeometryArgument Pages: 1 -->
<svg width="364pt" height="57pt"
 viewBox="0.00 0.00 364.05 57.00" xmlns="http://www.w3.org/2000/svg" xmlns:xlink="http://www.w3.org/1999/xlink">
<g id="graph0" class="graph" transform="scale(1 1) rotate(0) translate(4 53.0049)">
<title>HydroCouple::SpatioTemporal::ITimeGeometryArgument::~ITimeGeometryArgument</title>
<polygon fill="white" stroke="none" points="-4,4 -4,-53.0049 360.047,-53.0049 360.047,4 -4,4"/>
<!-- Node1 -->
<g id="node1" class="node"><title>Node1</title>
<polygon fill="#bfbfbf" stroke="black" points="0,-0.5 0,-48.5049 178.026,-48.5049 178.026,-0.5 0,-0.5"/>
<text text-anchor="start" x="8" y="-36.5049" font-family="Monaco" font-size="10.00">HydroCouple::SpatioTemporal</text>
<text text-anchor="start" x="8" y="-23.1699" font-family="Monaco" font-size="10.00">::ITimeGeometryArgument</text>
<text text-anchor="middle" x="89.0132" y="-9.83496" font-family="Monaco" font-size="10.00">::~ITimeGeometryArgument</text>
</g>
<!-- Node2 -->
<g id="node2" class="node"><title>Node2</title>
<g id="a_node2"><a xlink:href="class_hydro_couple_1_1_temporal_1_1_i_time_component_item.html#ae64e3f2a6b5e107624d7aeaf29017373" target="_top" xlink:title="ITimes associated with this dimension. ">
<polygon fill="white" stroke="black" points="214.026,-0.5 214.026,-48.5049 356.047,-48.5049 356.047,-0.5 214.026,-0.5"/>
<text text-anchor="start" x="222.026" y="-36.5049" font-family="Monaco" font-size="10.00">HydroCouple::Temporal</text>
<text text-anchor="start" x="222.026" y="-23.1699" font-family="Monaco" font-size="10.00">::ITimeComponentItem</text>
<text text-anchor="middle" x="285.037" y="-9.83496" font-family="Monaco" font-size="10.00">::times</text>
</a>
</g>
</g>
<!-- Node1&#45;&gt;Node2 -->
<g id="edge1" class="edge"><title>Node1&#45;&gt;Node2</title>
<path fill="none" stroke="midnightblue" d="M178.225,-24.5024C186.694,-24.5024 195.253,-24.5024 203.642,-24.5024"/>
<polygon fill="midnightblue" stroke="midnightblue" points="203.772,-28.0025 213.772,-24.5024 203.772,-21.0025 203.772,-28.0025"/>
</g>
</g>
</svg>
