<?xml version="1.0" encoding="UTF-8" standalone="no"?>
<!DOCTYPE svg PUBLIC "-//W3C//DTD SVG 1.1//EN"
 "http://www.w3.org/Graphics/SVG/1.1/DTD/svg11.dtd">
<!-- Generated by graphviz version 2.38.0 (20140413.2041)
 -->
<!-- Title: HydroCouple::IModelComponent Pages: 1 -->
<svg width="198pt" height="576pt"
 viewBox="0.00 0.00 198.03 576.04" xmlns="http://www.w3.org/2000/svg" xmlns:xlink="http://www.w3.org/1999/xlink">
<g id="graph0" class="graph" transform="scale(1 1) rotate(0) translate(4 572.044)">
<title>HydroCouple::IModelComponent</title>
<!-- Node1 -->
<g id="node1" class="node"><title>Node1</title>
<polygon fill="#bfbfbf" stroke="black" points="3.00049,-0.5 3.00049,-197.854 187.028,-197.854 187.028,-0.5 3.00049,-0.5"/>
<text text-anchor="middle" x="95.0142" y="-185.854" font-family="Monaco" font-size="10.00">HydroCouple::IModelComponent</text>
<polyline fill="none" stroke="black" points="3.00049,-176.52 187.028,-176.52 "/>
<text text-anchor="middle" x="95.0142" y="-164.52" font-family="Monaco" font-size="10.00"> </text>
<polyline fill="none" stroke="black" points="3.00049,-155.185 187.028,-155.185 "/>
<text text-anchor="start" x="11.0005" y="-143.185" font-family="Monaco" font-size="10.00">+ ~IModelComponent()</text>
<text text-anchor="start" x="11.0005" y="-129.85" font-family="Monaco" font-size="10.00">+ componentInfo()</text>
<text text-anchor="start" x="11.0005" y="-116.515" font-family="Monaco" font-size="10.00">+ parent()</text>
<text text-anchor="start" x="11.0005" y="-103.18" font-family="Monaco" font-size="10.00">+ clone()</text>
<text text-anchor="start" x="11.0005" y="-89.8447" font-family="Monaco" font-size="10.00">+ clones()</text>
<text text-anchor="start" x="11.0005" y="-76.5098" font-family="Monaco" font-size="10.00">+ arguments()</text>
<text text-anchor="start" x="11.0005" y="-63.1748" font-family="Monaco" font-size="10.00">+ status()</text>
<text text-anchor="start" x="11.0005" y="-49.8398" font-family="Monaco" font-size="10.00">+ inputs()</text>
<text text-anchor="start" x="11.0005" y="-36.5049" font-family="Monaco" font-size="10.00">+ outputs()</text>
<text text-anchor="start" x="11.0005" y="-23.1699" font-family="Monaco" font-size="10.00">+ adaptedOutputFactories()</text>
<text text-anchor="start" x="11.0005" y="-9.83496" font-family="Monaco" font-size="10.00">and 6 more...</text>
</g>
<!-- Node2 -->
<g id="node2" class="node"><title>Node2</title>
<g id="a_node2"><a xlink:href="class_hydro_couple_1_1_i_identity.html" target="_top" xlink:title="IIdentity interface class defines a method to get the Id of an HydroCouple entity. ">
<polygon fill="none" stroke="black" points="21.0034,-234.854 21.0034,-312.194 169.025,-312.194 169.025,-234.854 21.0034,-234.854"/>
<text text-anchor="middle" x="95.0142" y="-300.194" font-family="Monaco" font-size="10.00">HydroCouple::IIdentity</text>
<polyline fill="none" stroke="black" points="21.0034,-290.859 169.025,-290.859 "/>
<text text-anchor="middle" x="95.0142" y="-278.859" font-family="Monaco" font-size="10.00"> </text>
<polyline fill="none" stroke="black" points="21.0034,-269.524 169.025,-269.524 "/>
<text text-anchor="start" x="29.0034" y="-257.524" font-family="Monaco" font-size="10.00">+ ~IIdentity()</text>
<text text-anchor="start" x="29.0034" y="-244.189" font-family="Monaco" font-size="10.00">+ id()</text>
</a>
</g>
</g>
<!-- Node2&#45;&gt;Node1 -->
<g id="edge1" class="edge"><title>Node2&#45;&gt;Node1</title>
<path fill="none" stroke="midnightblue" d="M95.0142,-224.432C95.0142,-216.044 95.0142,-207.054 95.0142,-197.886"/>
<polygon fill="none" stroke="midnightblue" points="91.5143,-224.702 95.0142,-234.702 98.5143,-224.702 91.5143,-224.702"/>
</g>
<!-- Node3 -->
<g id="node3" class="node"><title>Node3</title>
<g id="a_node3"><a xlink:href="class_hydro_couple_1_1_i_description.html" target="_top" xlink:title="IDescription interface class provides descriptive information on a HydroCouple object. ">
<polygon fill="none" stroke="black" points="12.002,-349.194 12.002,-466.539 178.026,-466.539 178.026,-349.194 12.002,-349.194"/>
<text text-anchor="middle" x="95.0142" y="-454.539" font-family="Monaco" font-size="10.00">HydroCouple::IDescription</text>
<polyline fill="none" stroke="black" points="12.002,-445.204 178.026,-445.204 "/>
<text text-anchor="middle" x="95.0142" y="-433.204" font-family="Monaco" font-size="10.00"> </text>
<polyline fill="none" stroke="black" points="12.002,-423.869 178.026,-423.869 "/>
<text text-anchor="start" x="20.002" y="-411.869" font-family="Monaco" font-size="10.00">+ ~IDescription()</text>
<text text-anchor="start" x="20.002" y="-398.534" font-family="Monaco" font-size="10.00">+ caption()</text>
<text text-anchor="start" x="20.002" y="-385.199" font-family="Monaco" font-size="10.00">+ setCaption()</text>
<text text-anchor="start" x="20.002" y="-371.864" font-family="Monaco" font-size="10.00">+ description()</text>
<text text-anchor="start" x="20.002" y="-358.529" font-family="Monaco" font-size="10.00">+ setDescription()</text>
</a>
</g>
</g>
<!-- Node3&#45;&gt;Node2 -->
<g id="edge2" class="edge"><title>Node3&#45;&gt;Node2</title>
<path fill="none" stroke="midnightblue" d="M95.0142,-338.628C95.0142,-329.59 95.0142,-320.602 95.0142,-312.342"/>
<polygon fill="none" stroke="midnightblue" points="91.5143,-338.819 95.0142,-348.819 98.5143,-338.819 91.5143,-338.819"/>
</g>
<!-- Node4 -->
<g id="node4" class="node"><title>Node4</title>
<g id="a_node4"><a xlink:href="class_hydro_couple_1_1_i_property_changed.html" target="_top" xlink:title="IPropertyChanged interface is used to emit signal/event when a property of an object changes...">
<polygon fill="none" stroke="black" points="0,-503.539 0,-567.544 190.028,-567.544 190.028,-503.539 0,-503.539"/>
<text text-anchor="middle" x="95.0142" y="-555.544" font-family="Monaco" font-size="10.00">HydroCouple::IPropertyChanged</text>
<polyline fill="none" stroke="black" points="0,-546.209 190.028,-546.209 "/>
<text text-anchor="middle" x="95.0142" y="-534.209" font-family="Monaco" font-size="10.00"> </text>
<polyline fill="none" stroke="black" points="0,-524.874 190.028,-524.874 "/>
<text text-anchor="start" x="8" y="-512.874" font-family="Monaco" font-size="10.00">+ ~IPropertyChanged()</text>
</a>
</g>
</g>
<!-- Node4&#45;&gt;Node3 -->
<g id="edge3" class="edge"><title>Node4&#45;&gt;Node3</title>
<path fill="none" stroke="midnightblue" d="M95.0142,-493.219C95.0142,-484.834 95.0142,-475.867 95.0142,-467.025"/>
<polygon fill="none" stroke="midnightblue" points="91.5143,-493.476 95.0142,-503.476 98.5143,-493.476 91.5143,-493.476"/>
</g>
</g>
</svg>
