<?xml version="1.0" encoding="UTF-8" standalone="no"?>
<!DOCTYPE svg PUBLIC "-//W3C//DTD SVG 1.1//EN"
 "http://www.w3.org/Graphics/SVG/1.1/DTD/svg11.dtd">
<!-- Generated by graphviz version 2.38.0 (20140413.2041)
 -->
<!-- Title: HydroCouple::Spatial::ILinearRing Pages: 1 -->
<svg width="198pt" height="1546pt"
 viewBox="0.00 0.00 198.03 1545.81" xmlns="http://www.w3.org/2000/svg" xmlns:xlink="http://www.w3.org/1999/xlink">
<g id="graph0" class="graph" transform="scale(1 1) rotate(0) translate(4 1541.81)">
<title>HydroCouple::Spatial::ILinearRing</title>
<!-- Node1 -->
<g id="node1" class="node"><title>Node1</title>
<polygon fill="#bfbfbf" stroke="black" points="27.0044,-0.5 27.0044,-77.8398 163.024,-77.8398 163.024,-0.5 27.0044,-0.5"/>
<text text-anchor="start" x="35.0044" y="-65.8398" font-family="Monaco" font-size="10.00">HydroCouple::Spatial</text>
<text text-anchor="middle" x="95.0142" y="-52.5049" font-family="Monaco" font-size="10.00">::ILinearRing</text>
<polyline fill="none" stroke="black" points="27.0044,-43.1699 163.024,-43.1699 "/>
<text text-anchor="middle" x="95.0142" y="-31.1699" font-family="Monaco" font-size="10.00"> </text>
<polyline fill="none" stroke="black" points="27.0044,-21.835 163.024,-21.835 "/>
<text text-anchor="start" x="35.0044" y="-9.83496" font-family="Monaco" font-size="10.00">+ ~ILinearRing()</text>
</g>
<!-- Node2 -->
<g id="node2" class="node"><title>Node2</title>
<g id="a_node2"><a xlink:href="class_hydro_couple_1_1_spatial_1_1_i_line_string.html" target="_top" xlink:title="An ILineString is a Curve with linear interpolation between Points. Each consecutive pair of Points d...">
<polygon fill="none" stroke="black" points="27.0044,-114.84 27.0044,-218.85 163.024,-218.85 163.024,-114.84 27.0044,-114.84"/>
<text text-anchor="start" x="35.0044" y="-206.85" font-family="Monaco" font-size="10.00">HydroCouple::Spatial</text>
<text text-anchor="middle" x="95.0142" y="-193.515" font-family="Monaco" font-size="10.00">::ILineString</text>
<polyline fill="none" stroke="black" points="27.0044,-184.18 163.024,-184.18 "/>
<text text-anchor="middle" x="95.0142" y="-172.18" font-family="Monaco" font-size="10.00"> </text>
<polyline fill="none" stroke="black" points="27.0044,-162.845 163.024,-162.845 "/>
<text text-anchor="start" x="35.0044" y="-150.845" font-family="Monaco" font-size="10.00">+ ~ILineString()</text>
<text text-anchor="start" x="35.0044" y="-137.51" font-family="Monaco" font-size="10.00">+ pointCount()</text>
<text text-anchor="start" x="35.0044" y="-124.175" font-family="Monaco" font-size="10.00">+ point()</text>
</a>
</g>
</g>
<!-- Node2&#45;&gt;Node1 -->
<g id="edge1" class="edge"><title>Node2&#45;&gt;Node1</title>
<path fill="none" stroke="midnightblue" d="M95.0142,-104.596C95.0142,-95.5698 95.0142,-86.5001 95.0142,-78.1322"/>
<polygon fill="none" stroke="midnightblue" points="91.5143,-104.728 95.0142,-114.728 98.5143,-104.728 91.5143,-104.728"/>
</g>
<!-- Node3 -->
<g id="node3" class="node"><title>Node3</title>
<g id="a_node3"><a xlink:href="class_hydro_couple_1_1_spatial_1_1_i_curve.html" target="_top" xlink:title="A Curve is a 1&#45;dimensional geometric object usually stored as a sequence of IPoints, with the subtype of ICurve specifying the form of the interpolation between IPoints. ">
<polygon fill="none" stroke="black" points="27.0044,-255.85 27.0044,-399.864 163.024,-399.864 163.024,-255.85 27.0044,-255.85"/>
<text text-anchor="start" x="35.0044" y="-387.864" font-family="Monaco" font-size="10.00">HydroCouple::Spatial</text>
<text text-anchor="middle" x="95.0142" y="-374.529" font-family="Monaco" font-size="10.00">::ICurve</text>
<polyline fill="none" stroke="black" points="27.0044,-365.194 163.024,-365.194 "/>
<text text-anchor="middle" x="95.0142" y="-353.194" font-family="Monaco" font-size="10.00"> </text>
<polyline fill="none" stroke="black" points="27.0044,-343.859 163.024,-343.859 "/>
<text text-anchor="start" x="35.0044" y="-331.859" font-family="Monaco" font-size="10.00">+ ~ICurve()</text>
<text text-anchor="start" x="35.0044" y="-318.524" font-family="Monaco" font-size="10.00">+ length()</text>
<text text-anchor="start" x="35.0044" y="-305.189" font-family="Monaco" font-size="10.00">+ startPoint()</text>
<text text-anchor="start" x="35.0044" y="-291.854" font-family="Monaco" font-size="10.00">+ endPoint()</text>
<text text-anchor="start" x="35.0044" y="-278.52" font-family="Monaco" font-size="10.00">+ isClosed()</text>
<text text-anchor="start" x="35.0044" y="-265.185" font-family="Monaco" font-size="10.00">+ isRing()</text>
</a>
</g>
</g>
<!-- Node3&#45;&gt;Node2 -->
<g id="edge2" class="edge"><title>Node3&#45;&gt;Node2</title>
<path fill="none" stroke="midnightblue" d="M95.0142,-245.511C95.0142,-236.456 95.0142,-227.433 95.0142,-218.913"/>
<polygon fill="none" stroke="midnightblue" points="91.5143,-245.722 95.0142,-255.722 98.5143,-245.722 91.5143,-245.722"/>
</g>
<!-- Node4 -->
<g id="node4" class="node"><title>Node4</title>
<g id="a_node4"><a xlink:href="class_hydro_couple_1_1_spatial_1_1_i_geometry.html" target="_top" xlink:title="IGeometry is the root class of the hierarchy. ">
<polygon fill="none" stroke="black" points="9.00146,-436.864 9.00146,-1167.62 181.027,-1167.62 181.027,-436.864 9.00146,-436.864"/>
<text text-anchor="start" x="17.0015" y="-1155.62" font-family="Monaco" font-size="10.00">HydroCouple::Spatial</text>
<text text-anchor="middle" x="95.0142" y="-1142.28" font-family="Monaco" font-size="10.00">::IGeometry</text>
<polyline fill="none" stroke="black" points="9.00146,-1132.95 181.027,-1132.95 "/>
<text text-anchor="middle" x="95.0142" y="-1120.95" font-family="Monaco" font-size="10.00"> </text>
<polyline fill="none" stroke="black" points="9.00146,-1111.61 181.027,-1111.61 "/>
<text text-anchor="start" x="17.0015" y="-1099.61" font-family="Monaco" font-size="10.00">+ ~IGeometry()</text>
<text text-anchor="start" x="17.0015" y="-1086.28" font-family="Monaco" font-size="10.00">+ index()</text>
<text text-anchor="start" x="17.0015" y="-1072.94" font-family="Monaco" font-size="10.00">+ dimension()</text>
<text text-anchor="start" x="17.0015" y="-1059.61" font-family="Monaco" font-size="10.00">+ coordinateDimension()</text>
<text text-anchor="start" x="17.0015" y="-1046.27" font-family="Monaco" font-size="10.00">+ geometryType()</text>
<text text-anchor="start" x="17.0015" y="-1032.94" font-family="Monaco" font-size="10.00">+ spatialReferenceSystem()</text>
<text text-anchor="start" x="17.0015" y="-1019.6" font-family="Monaco" font-size="10.00">+ envelope()</text>
<text text-anchor="start" x="17.0015" y="-1006.27" font-family="Monaco" font-size="10.00">+ wkt()</text>
<text text-anchor="start" x="17.0015" y="-992.933" font-family="Monaco" font-size="10.00">+ wkb()</text>
<text text-anchor="start" x="17.0015" y="-979.598" font-family="Monaco" font-size="10.00">+ isEmpty()</text>
<text text-anchor="start" x="17.0015" y="-966.263" font-family="Monaco" font-size="10.00">+ isSimple()</text>
<text text-anchor="start" x="17.0015" y="-952.928" font-family="Monaco" font-size="10.00">+ is3D()</text>
<text text-anchor="start" x="17.0015" y="-939.593" font-family="Monaco" font-size="10.00">+ isMeasured()</text>
<text text-anchor="start" x="17.0015" y="-926.258" font-family="Monaco" font-size="10.00">+ boundary()</text>
<text text-anchor="start" x="17.0015" y="-912.923" font-family="Monaco" font-size="10.00">+ equals()</text>
<text text-anchor="start" x="17.0015" y="-899.588" font-family="Monaco" font-size="10.00">+ disjoint()</text>
<text text-anchor="start" x="17.0015" y="-886.253" font-family="Monaco" font-size="10.00">+ intersects()</text>
<text text-anchor="start" x="17.0015" y="-872.918" font-family="Monaco" font-size="10.00">+ touches()</text>
<text text-anchor="start" x="17.0015" y="-859.583" font-family="Monaco" font-size="10.00">+ crosses()</text>
<text text-anchor="start" x="17.0015" y="-846.248" font-family="Monaco" font-size="10.00">+ within()</text>
<text text-anchor="start" x="17.0015" y="-832.913" font-family="Monaco" font-size="10.00">+ contains()</text>
<text text-anchor="start" x="17.0015" y="-819.578" font-family="Monaco" font-size="10.00">+ overlaps()</text>
<text text-anchor="start" x="17.0015" y="-806.243" font-family="Monaco" font-size="10.00">+ relate()</text>
<text text-anchor="start" x="17.0015" y="-792.908" font-family="Monaco" font-size="10.00">+ locateAlong()</text>
<text text-anchor="start" x="17.0015" y="-779.573" font-family="Monaco" font-size="10.00">+ locateBetween()</text>
<text text-anchor="start" x="17.0015" y="-766.238" font-family="Monaco" font-size="10.00">+ distance()</text>
<text text-anchor="start" x="17.0015" y="-752.903" font-family="Monaco" font-size="10.00">+ buffer()</text>
<text text-anchor="start" x="17.0015" y="-739.568" font-family="Monaco" font-size="10.00">+ convexHull()</text>
<text text-anchor="start" x="17.0015" y="-726.233" font-family="Monaco" font-size="10.00">+ intersection()</text>
<text text-anchor="start" x="17.0015" y="-712.898" font-family="Monaco" font-size="10.00">+ unionG()</text>
<text text-anchor="start" x="17.0015" y="-699.563" font-family="Monaco" font-size="10.00">+ difference()</text>
<text text-anchor="start" x="17.0015" y="-686.229" font-family="Monaco" font-size="10.00">+ symmetricDifference()</text>
<text text-anchor="start" x="17.0015" y="-672.894" font-family="Monaco" font-size="10.00">* equals()</text>
<text text-anchor="start" x="17.0015" y="-659.559" font-family="Monaco" font-size="10.00">* disjoint()</text>
<text text-anchor="start" x="17.0015" y="-646.224" font-family="Monaco" font-size="10.00">* intersects()</text>
<text text-anchor="start" x="17.0015" y="-632.889" font-family="Monaco" font-size="10.00">* touches()</text>
<text text-anchor="start" x="17.0015" y="-619.554" font-family="Monaco" font-size="10.00">* crosses()</text>
<text text-anchor="start" x="17.0015" y="-606.219" font-family="Monaco" font-size="10.00">* within()</text>
<text text-anchor="start" x="17.0015" y="-592.884" font-family="Monaco" font-size="10.00">* contains()</text>
<text text-anchor="start" x="17.0015" y="-579.549" font-family="Monaco" font-size="10.00">* overlaps()</text>
<text text-anchor="start" x="17.0015" y="-566.214" font-family="Monaco" font-size="10.00">* relate()</text>
<text text-anchor="start" x="17.0015" y="-552.879" font-family="Monaco" font-size="10.00">* locateAlong()</text>
<text text-anchor="start" x="17.0015" y="-539.544" font-family="Monaco" font-size="10.00">* locateBetween()</text>
<text text-anchor="start" x="17.0015" y="-526.209" font-family="Monaco" font-size="10.00">* distance()</text>
<text text-anchor="start" x="17.0015" y="-512.874" font-family="Monaco" font-size="10.00">* buffer()</text>
<text text-anchor="start" x="17.0015" y="-499.539" font-family="Monaco" font-size="10.00">* convexHull()</text>
<text text-anchor="start" x="17.0015" y="-486.204" font-family="Monaco" font-size="10.00">* intersection()</text>
<text text-anchor="start" x="17.0015" y="-472.869" font-family="Monaco" font-size="10.00">* unionG()</text>
<text text-anchor="start" x="17.0015" y="-459.534" font-family="Monaco" font-size="10.00">* difference()</text>
<text text-anchor="start" x="17.0015" y="-446.199" font-family="Monaco" font-size="10.00">* symmetricDifference()</text>
</a>
</g>
</g>
<!-- Node4&#45;&gt;Node3 -->
<g id="edge3" class="edge"><title>Node4&#45;&gt;Node3</title>
<path fill="none" stroke="midnightblue" d="M95.0142,-426.393C95.0142,-417.106 95.0142,-408.262 95.0142,-399.962"/>
<polygon fill="none" stroke="midnightblue" points="91.5143,-426.639 95.0142,-436.639 98.5143,-426.639 91.5143,-426.639"/>
</g>
<!-- Node5 -->
<g id="node5" class="node"><title>Node5</title>
<g id="a_node5"><a xlink:href="class_hydro_couple_1_1_i_identity.html" target="_top" xlink:title="IIdentity interface class defines a method to get the Id of an HydroCouple entity. ">
<polygon fill="none" stroke="black" points="21.0034,-1204.62 21.0034,-1281.96 169.025,-1281.96 169.025,-1204.62 21.0034,-1204.62"/>
<text text-anchor="middle" x="95.0142" y="-1269.96" font-family="Monaco" font-size="10.00">HydroCouple::IIdentity</text>
<polyline fill="none" stroke="black" points="21.0034,-1260.62 169.025,-1260.62 "/>
<text text-anchor="middle" x="95.0142" y="-1248.62" font-family="Monaco" font-size="10.00"> </text>
<polyline fill="none" stroke="black" points="21.0034,-1239.29 169.025,-1239.29 "/>
<text text-anchor="start" x="29.0034" y="-1227.29" font-family="Monaco" font-size="10.00">+ ~IIdentity()</text>
<text text-anchor="start" x="29.0034" y="-1213.95" font-family="Monaco" font-size="10.00">+ id()</text>
</a>
</g>
</g>
<!-- Node5&#45;&gt;Node4 -->
<g id="edge4" class="edge"><title>Node5&#45;&gt;Node4</title>
<path fill="none" stroke="midnightblue" d="M95.0142,-1194.38C95.0142,-1186.33 95.0142,-1177.46 95.0142,-1167.93"/>
<polygon fill="none" stroke="midnightblue" points="91.5143,-1194.47 95.0142,-1204.47 98.5143,-1194.47 91.5143,-1194.47"/>
</g>
<!-- Node6 -->
<g id="node6" class="node"><title>Node6</title>
<g id="a_node6"><a xlink:href="class_hydro_couple_1_1_i_description.html" target="_top" xlink:title="IDescription interface class provides descriptive information on a HydroCouple object. ">
<polygon fill="none" stroke="black" points="12.002,-1318.96 12.002,-1436.3 178.026,-1436.3 178.026,-1318.96 12.002,-1318.96"/>
<text text-anchor="middle" x="95.0142" y="-1424.3" font-family="Monaco" font-size="10.00">HydroCouple::IDescription</text>
<polyline fill="none" stroke="black" points="12.002,-1414.97 178.026,-1414.97 "/>
<text text-anchor="middle" x="95.0142" y="-1402.97" font-family="Monaco" font-size="10.00"> </text>
<polyline fill="none" stroke="black" points="12.002,-1393.63 178.026,-1393.63 "/>
<text text-anchor="start" x="20.002" y="-1381.63" font-family="Monaco" font-size="10.00">+ ~IDescription()</text>
<text text-anchor="start" x="20.002" y="-1368.3" font-family="Monaco" font-size="10.00">+ caption()</text>
<text text-anchor="start" x="20.002" y="-1354.96" font-family="Monaco" font-size="10.00">+ setCaption()</text>
<text text-anchor="start" x="20.002" y="-1341.63" font-family="Monaco" font-size="10.00">+ description()</text>
<text text-anchor="start" x="20.002" y="-1328.29" font-family="Monaco" font-size="10.00">+ setDescription()</text>
</a>
</g>
</g>
<!-- Node6&#45;&gt;Node5 -->
<g id="edge5" class="edge"><title>Node6&#45;&gt;Node5</title>
<path fill="none" stroke="midnightblue" d="M95.0142,-1308.39C95.0142,-1299.35 95.0142,-1290.36 95.0142,-1282.1"/>
<polygon fill="none" stroke="midnightblue" points="91.5143,-1308.58 95.0142,-1318.58 98.5143,-1308.58 91.5143,-1308.58"/>
</g>
<!-- Node7 -->
<g id="node7" class="node"><title>Node7</title>
<g id="a_node7"><a xlink:href="class_hydro_couple_1_1_i_property_changed.html" target="_top" xlink:title="IPropertyChanged interface is used to emit signal/event when a property of an object changes...">
<polygon fill="none" stroke="black" points="0,-1473.3 0,-1537.31 190.028,-1537.31 190.028,-1473.3 0,-1473.3"/>
<text text-anchor="middle" x="95.0142" y="-1525.31" font-family="Monaco" font-size="10.00">HydroCouple::IPropertyChanged</text>
<polyline fill="none" stroke="black" points="0,-1515.97 190.028,-1515.97 "/>
<text text-anchor="middle" x="95.0142" y="-1503.97" font-family="Monaco" font-size="10.00"> </text>
<polyline fill="none" stroke="black" points="0,-1494.64 190.028,-1494.64 "/>
<text text-anchor="start" x="8" y="-1482.64" font-family="Monaco" font-size="10.00">+ ~IPropertyChanged()</text>
</a>
</g>
</g>
<!-- Node7&#45;&gt;Node6 -->
<g id="edge6" class="edge"><title>Node7&#45;&gt;Node6</title>
<path fill="none" stroke="midnightblue" d="M95.0142,-1462.98C95.0142,-1454.6 95.0142,-1445.63 95.0142,-1436.79"/>
<polygon fill="none" stroke="midnightblue" points="91.5143,-1463.24 95.0142,-1473.24 98.5143,-1463.24 91.5143,-1463.24"/>
</g>
</g>
</svg>
