<?xml version="1.0" encoding="UTF-8" standalone="no"?>
<!DOCTYPE svg PUBLIC "-//W3C//DTD SVG 1.1//EN"
 "http://www.w3.org/Graphics/SVG/1.1/DTD/svg11.dtd">
<!-- Generated by graphviz version 2.38.0 (20140413.2041)
 -->
<!-- Title: HydroCouple::Temporal::ITimeComponentDataItem Pages: 1 -->
<svg width="210pt" height="677pt"
 viewBox="0.00 0.00 210.03 677.05" xmlns="http://www.w3.org/2000/svg" xmlns:xlink="http://www.w3.org/1999/xlink">
<g id="graph0" class="graph" transform="scale(1 1) rotate(0) translate(4 673.049)">
<title>HydroCouple::Temporal::ITimeComponentDataItem</title>
<!-- Node1 -->
<g id="node1" class="node"><title>Node1</title>
<polygon fill="#bfbfbf" stroke="black" points="12.002,-0.5 12.002,-117.845 190.028,-117.845 190.028,-0.5 12.002,-0.5"/>
<text text-anchor="start" x="20.002" y="-105.845" font-family="Monaco" font-size="10.00">HydroCouple::Temporal</text>
<text text-anchor="middle" x="101.015" y="-92.5098" font-family="Monaco" font-size="10.00">::ITimeComponentDataItem</text>
<polyline fill="none" stroke="black" points="12.002,-83.1748 190.028,-83.1748 "/>
<text text-anchor="middle" x="101.015" y="-71.1748" font-family="Monaco" font-size="10.00"> </text>
<polyline fill="none" stroke="black" points="12.002,-61.8398 190.028,-61.8398 "/>
<text text-anchor="start" x="20.002" y="-49.8398" font-family="Monaco" font-size="10.00">+ ~ITimeComponentDataItem()</text>
<text text-anchor="start" x="20.002" y="-36.5049" font-family="Monaco" font-size="10.00">+ times()</text>
<text text-anchor="start" x="20.002" y="-23.1699" font-family="Monaco" font-size="10.00">+ timeSpan()</text>
<text text-anchor="start" x="20.002" y="-9.83496" font-family="Monaco" font-size="10.00">+ timeDimension()</text>
</g>
<!-- Node2 -->
<g id="node2" class="node"><title>Node2</title>
<g id="a_node2"><a xlink:href="class_hydro_couple_1_1_i_component_data_item.html" target="_top" xlink:title="IComponentItem is a fundamental unit of data for a component. ">
<polygon fill="none" stroke="black" points="0,-154.845 0,-298.859 202.03,-298.859 202.03,-154.845 0,-154.845"/>
<text text-anchor="middle" x="101.015" y="-286.859" font-family="Monaco" font-size="10.00">HydroCouple::IComponentDataItem</text>
<polyline fill="none" stroke="black" points="0,-277.524 202.03,-277.524 "/>
<text text-anchor="middle" x="101.015" y="-265.524" font-family="Monaco" font-size="10.00"> </text>
<polyline fill="none" stroke="black" points="0,-256.189 202.03,-256.189 "/>
<text text-anchor="start" x="8" y="-244.189" font-family="Monaco" font-size="10.00">+ ~IComponentDataItem()</text>
<text text-anchor="start" x="8" y="-230.854" font-family="Monaco" font-size="10.00">+ modelComponent()</text>
<text text-anchor="start" x="8" y="-217.52" font-family="Monaco" font-size="10.00">+ dimensions()</text>
<text text-anchor="start" x="8" y="-204.185" font-family="Monaco" font-size="10.00">+ dimensionLength()</text>
<text text-anchor="start" x="8" y="-190.85" font-family="Monaco" font-size="10.00">+ valueDefinition()</text>
<text text-anchor="start" x="8" y="-177.515" font-family="Monaco" font-size="10.00">+ getValue()</text>
<text text-anchor="start" x="8" y="-164.18" font-family="Monaco" font-size="10.00">+ setValue()</text>
</a>
</g>
</g>
<!-- Node2&#45;&gt;Node1 -->
<g id="edge1" class="edge"><title>Node2&#45;&gt;Node1</title>
<path fill="none" stroke="midnightblue" d="M101.015,-144.5C101.015,-135.501 101.015,-126.478 101.015,-117.857"/>
<polygon fill="none" stroke="midnightblue" points="97.5152,-144.627 101.015,-154.627 104.515,-144.627 97.5152,-144.627"/>
</g>
<!-- Node3 -->
<g id="node3" class="node"><title>Node3</title>
<g id="a_node3"><a xlink:href="class_hydro_couple_1_1_i_identity.html" target="_top" xlink:title="IIdentity interface class defines a method to get the Id of an HydroCouple entity. ">
<polygon fill="none" stroke="black" points="27.0044,-335.859 27.0044,-413.199 175.026,-413.199 175.026,-335.859 27.0044,-335.859"/>
<text text-anchor="middle" x="101.015" y="-401.199" font-family="Monaco" font-size="10.00">HydroCouple::IIdentity</text>
<polyline fill="none" stroke="black" points="27.0044,-391.864 175.026,-391.864 "/>
<text text-anchor="middle" x="101.015" y="-379.864" font-family="Monaco" font-size="10.00"> </text>
<polyline fill="none" stroke="black" points="27.0044,-370.529 175.026,-370.529 "/>
<text text-anchor="start" x="35.0044" y="-358.529" font-family="Monaco" font-size="10.00">+ ~IIdentity()</text>
<text text-anchor="start" x="35.0044" y="-345.194" font-family="Monaco" font-size="10.00">+ id()</text>
</a>
</g>
</g>
<!-- Node3&#45;&gt;Node2 -->
<g id="edge2" class="edge"><title>Node3&#45;&gt;Node2</title>
<path fill="none" stroke="midnightblue" d="M101.015,-325.507C101.015,-316.964 101.015,-307.903 101.015,-298.879"/>
<polygon fill="none" stroke="midnightblue" points="97.5152,-325.635 101.015,-335.635 104.515,-325.635 97.5152,-325.635"/>
</g>
<!-- Node4 -->
<g id="node4" class="node"><title>Node4</title>
<g id="a_node4"><a xlink:href="class_hydro_couple_1_1_i_description.html" target="_top" xlink:title="IDescription interface class provides descriptive information on a HydroCouple object. ">
<polygon fill="none" stroke="black" points="18.0029,-450.199 18.0029,-567.544 184.027,-567.544 184.027,-450.199 18.0029,-450.199"/>
<text text-anchor="middle" x="101.015" y="-555.544" font-family="Monaco" font-size="10.00">HydroCouple::IDescription</text>
<polyline fill="none" stroke="black" points="18.0029,-546.209 184.027,-546.209 "/>
<text text-anchor="middle" x="101.015" y="-534.209" font-family="Monaco" font-size="10.00"> </text>
<polyline fill="none" stroke="black" points="18.0029,-524.874 184.027,-524.874 "/>
<text text-anchor="start" x="26.0029" y="-512.874" font-family="Monaco" font-size="10.00">+ ~IDescription()</text>
<text text-anchor="start" x="26.0029" y="-499.539" font-family="Monaco" font-size="10.00">+ caption()</text>
<text text-anchor="start" x="26.0029" y="-486.204" font-family="Monaco" font-size="10.00">+ setCaption()</text>
<text text-anchor="start" x="26.0029" y="-472.869" font-family="Monaco" font-size="10.00">+ description()</text>
<text text-anchor="start" x="26.0029" y="-459.534" font-family="Monaco" font-size="10.00">+ setDescription()</text>
</a>
</g>
</g>
<!-- Node4&#45;&gt;Node3 -->
<g id="edge3" class="edge"><title>Node4&#45;&gt;Node3</title>
<path fill="none" stroke="midnightblue" d="M101.015,-439.633C101.015,-430.594 101.015,-421.607 101.015,-413.347"/>
<polygon fill="none" stroke="midnightblue" points="97.5152,-439.824 101.015,-449.824 104.515,-439.824 97.5152,-439.824"/>
</g>
<!-- Node5 -->
<g id="node5" class="node"><title>Node5</title>
<g id="a_node5"><a xlink:href="class_hydro_couple_1_1_i_property_changed.html" target="_top" xlink:title="IPropertyChanged interface is used to emit signal/event when a property of an object changes...">
<polygon fill="none" stroke="black" points="6.00098,-604.544 6.00098,-668.549 196.029,-668.549 196.029,-604.544 6.00098,-604.544"/>
<text text-anchor="middle" x="101.015" y="-656.549" font-family="Monaco" font-size="10.00">HydroCouple::IPropertyChanged</text>
<polyline fill="none" stroke="black" points="6.00098,-647.214 196.029,-647.214 "/>
<text text-anchor="middle" x="101.015" y="-635.214" font-family="Monaco" font-size="10.00"> </text>
<polyline fill="none" stroke="black" points="6.00098,-625.879 196.029,-625.879 "/>
<text text-anchor="start" x="14.001" y="-613.879" font-family="Monaco" font-size="10.00">+ ~IPropertyChanged()</text>
</a>
</g>
</g>
<!-- Node5&#45;&gt;Node4 -->
<g id="edge4" class="edge"><title>Node5&#45;&gt;Node4</title>
<path fill="none" stroke="midnightblue" d="M101.015,-594.224C101.015,-585.838 101.015,-576.872 101.015,-568.03"/>
<polygon fill="none" stroke="midnightblue" points="97.5152,-594.481 101.015,-604.481 104.515,-594.481 97.5152,-594.481"/>
</g>
</g>
</svg>
