<?xml version="1.0" encoding="UTF-8" standalone="no"?>
<!DOCTYPE svg PUBLIC "-//W3C//DTD SVG 1.1//EN"
 "http://www.w3.org/Graphics/SVG/1.1/DTD/svg11.dtd">
<!-- Generated by graphviz version 2.38.0 (20140413.2041)
 -->
<!-- Title: HydroCouple::Spatial::ITINArgument Pages: 1 -->
<svg width="364pt" height="938pt"
 viewBox="0.00 0.00 364.02 938.07" xmlns="http://www.w3.org/2000/svg" xmlns:xlink="http://www.w3.org/1999/xlink">
<g id="graph0" class="graph" transform="scale(1 1) rotate(0) translate(4 934.073)">
<title>HydroCouple::Spatial::ITINArgument</title>
<!-- Node1 -->
<g id="node1" class="node"><title>Node1</title>
<polygon fill="#bfbfbf" stroke="black" points="108.002,-0.5 108.002,-77.8398 244.022,-77.8398 244.022,-0.5 108.002,-0.5"/>
<text text-anchor="start" x="116.002" y="-65.8398" font-family="Monaco" font-size="10.00">HydroCouple::Spatial</text>
<text text-anchor="middle" x="176.012" y="-52.5049" font-family="Monaco" font-size="10.00">::ITINArgument</text>
<polyline fill="none" stroke="black" points="108.002,-43.1699 244.022,-43.1699 "/>
<text text-anchor="middle" x="176.012" y="-31.1699" font-family="Monaco" font-size="10.00"> </text>
<polyline fill="none" stroke="black" points="108.002,-21.835 244.022,-21.835 "/>
<text text-anchor="start" x="116.002" y="-9.83496" font-family="Monaco" font-size="10.00">+ ~ITINArgument()</text>
</g>
<!-- Node2 -->
<g id="node2" class="node"><title>Node2</title>
<g id="a_node2"><a xlink:href="class_hydro_couple_1_1_i_argument.html" target="_top" xlink:title="IArgument interface class used to set the arguments for components. They can be complex or simple mul...">
<polygon fill="none" stroke="black" points="0,-134.842 0,-318.862 166.024,-318.862 166.024,-134.842 0,-134.842"/>
<text text-anchor="middle" x="83.0122" y="-306.862" font-family="Monaco" font-size="10.00">HydroCouple::IArgument</text>
<polyline fill="none" stroke="black" points="0,-297.527 166.024,-297.527 "/>
<text text-anchor="middle" x="83.0122" y="-285.527" font-family="Monaco" font-size="10.00"> </text>
<polyline fill="none" stroke="black" points="0,-276.192 166.024,-276.192 "/>
<text text-anchor="start" x="8" y="-264.192" font-family="Monaco" font-size="10.00">+ ~IArgument()</text>
<text text-anchor="start" x="8" y="-250.857" font-family="Monaco" font-size="10.00">+ isOptional()</text>
<text text-anchor="start" x="8" y="-237.522" font-family="Monaco" font-size="10.00">+ isReadOnly()</text>
<text text-anchor="start" x="8" y="-224.187" font-family="Monaco" font-size="10.00">+ toString()</text>
<text text-anchor="start" x="8" y="-210.852" font-family="Monaco" font-size="10.00">+ inputFileTypeFilters()</text>
<text text-anchor="start" x="8" y="-197.517" font-family="Monaco" font-size="10.00">+ canReadFromFile()</text>
<text text-anchor="start" x="8" y="-184.182" font-family="Monaco" font-size="10.00">+ canReadFromString()</text>
<text text-anchor="start" x="8" y="-170.847" font-family="Monaco" font-size="10.00">+ currentArgumentIOType()</text>
<text text-anchor="start" x="8" y="-157.512" font-family="Monaco" font-size="10.00">+ readValues()</text>
<text text-anchor="start" x="8" y="-144.177" font-family="Monaco" font-size="10.00">+ readValues()</text>
</a>
</g>
</g>
<!-- Node2&#45;&gt;Node1 -->
<g id="edge1" class="edge"><title>Node2&#45;&gt;Node1</title>
<path fill="none" stroke="midnightblue" d="M133.386,-125.278C141.81,-108.458 150.064,-91.9784 157.03,-78.0691"/>
<polygon fill="none" stroke="midnightblue" points="130.044,-124.134 128.695,-134.643 136.303,-127.269 130.044,-124.134"/>
</g>
<!-- Node3 -->
<g id="node3" class="node"><title>Node3</title>
<g id="a_node3"><a xlink:href="class_hydro_couple_1_1_i_component_data_item.html" target="_top" xlink:title="IComponentItem is a fundamental unit of data for a component. ">
<polygon fill="none" stroke="black" points="74.9971,-375.864 74.9971,-559.884 277.027,-559.884 277.027,-375.864 74.9971,-375.864"/>
<text text-anchor="middle" x="176.012" y="-547.884" font-family="Monaco" font-size="10.00">HydroCouple::IComponentDataItem</text>
<polyline fill="none" stroke="black" points="74.9971,-538.549 277.027,-538.549 "/>
<text text-anchor="middle" x="176.012" y="-526.549" font-family="Monaco" font-size="10.00"> </text>
<polyline fill="none" stroke="black" points="74.9971,-517.214 277.027,-517.214 "/>
<text text-anchor="start" x="82.9971" y="-505.214" font-family="Monaco" font-size="10.00">+ ~IComponentDataItem()</text>
<text text-anchor="start" x="82.9971" y="-491.879" font-family="Monaco" font-size="10.00">+ modelComponent()</text>
<text text-anchor="start" x="82.9971" y="-478.544" font-family="Monaco" font-size="10.00">+ dimensions()</text>
<text text-anchor="start" x="82.9971" y="-465.209" font-family="Monaco" font-size="10.00">+ valueDefinition()</text>
<text text-anchor="start" x="82.9971" y="-451.874" font-family="Monaco" font-size="10.00">+ getValue()</text>
<text text-anchor="start" x="82.9971" y="-438.539" font-family="Monaco" font-size="10.00">+ getValues()</text>
<text text-anchor="start" x="82.9971" y="-425.204" font-family="Monaco" font-size="10.00">+ getValues()</text>
<text text-anchor="start" x="82.9971" y="-411.869" font-family="Monaco" font-size="10.00">+ setValue()</text>
<text text-anchor="start" x="82.9971" y="-398.534" font-family="Monaco" font-size="10.00">+ setValues()</text>
<text text-anchor="start" x="82.9971" y="-385.199" font-family="Monaco" font-size="10.00">+ setValues()</text>
</a>
</g>
</g>
<!-- Node3&#45;&gt;Node2 -->
<g id="edge2" class="edge"><title>Node3&#45;&gt;Node2</title>
<path fill="none" stroke="midnightblue" d="M136.826,-366.16C130.742,-350.525 124.488,-334.449 118.492,-319.04"/>
<polygon fill="none" stroke="midnightblue" points="133.7,-367.778 140.588,-375.828 140.223,-365.24 133.7,-367.778"/>
</g>
<!-- Node7 -->
<g id="node7" class="node"><title>Node7</title>
<g id="a_node7"><a xlink:href="class_hydro_couple_1_1_spatial_1_1_i_t_i_n_component_data_item.html" target="_top" xlink:title="ITINComponentDataItem represents ITIN IComponentDataItem. ">
<polygon fill="none" stroke="black" points="184,-114.84 184,-338.864 356.025,-338.864 356.025,-114.84 184,-114.84"/>
<text text-anchor="start" x="192" y="-326.864" font-family="Monaco" font-size="10.00">HydroCouple::Spatial</text>
<text text-anchor="middle" x="270.012" y="-313.529" font-family="Monaco" font-size="10.00">::ITINComponentDataItem</text>
<polyline fill="none" stroke="black" points="184,-304.194 356.025,-304.194 "/>
<text text-anchor="middle" x="270.012" y="-292.194" font-family="Monaco" font-size="10.00"> </text>
<polyline fill="none" stroke="black" points="184,-282.859 356.025,-282.859 "/>
<text text-anchor="start" x="192" y="-270.859" font-family="Monaco" font-size="10.00">+ ~ITINComponentDataItem()</text>
<text text-anchor="start" x="192" y="-257.524" font-family="Monaco" font-size="10.00">+ TIN()</text>
<text text-anchor="start" x="192" y="-244.189" font-family="Monaco" font-size="10.00">+ triangle()</text>
<text text-anchor="start" x="192" y="-230.854" font-family="Monaco" font-size="10.00">+ TINPatchDimension()</text>
<text text-anchor="start" x="192" y="-217.52" font-family="Monaco" font-size="10.00">+ TINEdgeDimension()</text>
<text text-anchor="start" x="192" y="-204.185" font-family="Monaco" font-size="10.00">+ TINNodeDimension()</text>
<text text-anchor="start" x="192" y="-190.85" font-family="Monaco" font-size="10.00">+ getValue()</text>
<text text-anchor="start" x="192" y="-177.515" font-family="Monaco" font-size="10.00">+ getValues()</text>
<text text-anchor="start" x="192" y="-164.18" font-family="Monaco" font-size="10.00">+ getValues()</text>
<text text-anchor="start" x="192" y="-150.845" font-family="Monaco" font-size="10.00">+ setValue()</text>
<text text-anchor="start" x="192" y="-137.51" font-family="Monaco" font-size="10.00">+ setValues()</text>
<text text-anchor="start" x="192" y="-124.175" font-family="Monaco" font-size="10.00">+ setValues()</text>
</a>
</g>
</g>
<!-- Node3&#45;&gt;Node7 -->
<g id="edge7" class="edge"><title>Node3&#45;&gt;Node7</title>
<path fill="none" stroke="midnightblue" d="M215.498,-366.471C219.053,-357.43 222.667,-348.24 226.256,-339.115"/>
<polygon fill="none" stroke="midnightblue" points="212.22,-365.241 211.818,-375.828 218.735,-367.803 212.22,-365.241"/>
</g>
<!-- Node4 -->
<g id="node4" class="node"><title>Node4</title>
<g id="a_node4"><a xlink:href="class_hydro_couple_1_1_i_identity.html" target="_top" xlink:title="IIdentity interface class defines a method to get the Id of an HydroCouple entity. ">
<polygon fill="none" stroke="black" points="102.001,-596.884 102.001,-674.224 250.023,-674.224 250.023,-596.884 102.001,-596.884"/>
<text text-anchor="middle" x="176.012" y="-662.224" font-family="Monaco" font-size="10.00">HydroCouple::IIdentity</text>
<polyline fill="none" stroke="black" points="102.001,-652.889 250.023,-652.889 "/>
<text text-anchor="middle" x="176.012" y="-640.889" font-family="Monaco" font-size="10.00"> </text>
<polyline fill="none" stroke="black" points="102.001,-631.554 250.023,-631.554 "/>
<text text-anchor="start" x="110.001" y="-619.554" font-family="Monaco" font-size="10.00">+ ~IIdentity()</text>
<text text-anchor="start" x="110.001" y="-606.219" font-family="Monaco" font-size="10.00">+ id()</text>
</a>
</g>
</g>
<!-- Node4&#45;&gt;Node3 -->
<g id="edge3" class="edge"><title>Node4&#45;&gt;Node3</title>
<path fill="none" stroke="midnightblue" d="M176.012,-586.301C176.012,-577.948 176.012,-569.023 176.012,-559.965"/>
<polygon fill="none" stroke="midnightblue" points="172.512,-586.543 176.012,-596.543 179.512,-586.543 172.512,-586.543"/>
</g>
<!-- Node5 -->
<g id="node5" class="node"><title>Node5</title>
<g id="a_node5"><a xlink:href="class_hydro_couple_1_1_i_description.html" target="_top" xlink:title="IDescription interface class provides descriptive information on a HydroCouple object. ">
<polygon fill="none" stroke="black" points="93,-711.224 93,-828.568 259.024,-828.568 259.024,-711.224 93,-711.224"/>
<text text-anchor="middle" x="176.012" y="-816.568" font-family="Monaco" font-size="10.00">HydroCouple::IDescription</text>
<polyline fill="none" stroke="black" points="93,-807.233 259.024,-807.233 "/>
<text text-anchor="middle" x="176.012" y="-795.233" font-family="Monaco" font-size="10.00"> </text>
<polyline fill="none" stroke="black" points="93,-785.898 259.024,-785.898 "/>
<text text-anchor="start" x="101" y="-773.898" font-family="Monaco" font-size="10.00">+ ~IDescription()</text>
<text text-anchor="start" x="101" y="-760.563" font-family="Monaco" font-size="10.00">+ caption()</text>
<text text-anchor="start" x="101" y="-747.229" font-family="Monaco" font-size="10.00">+ setCaption()</text>
<text text-anchor="start" x="101" y="-733.894" font-family="Monaco" font-size="10.00">+ description()</text>
<text text-anchor="start" x="101" y="-720.559" font-family="Monaco" font-size="10.00">+ setDescription()</text>
</a>
</g>
</g>
<!-- Node5&#45;&gt;Node4 -->
<g id="edge4" class="edge"><title>Node5&#45;&gt;Node4</title>
<path fill="none" stroke="midnightblue" d="M176.012,-700.658C176.012,-691.619 176.012,-682.632 176.012,-674.371"/>
<polygon fill="none" stroke="midnightblue" points="172.512,-700.849 176.012,-710.849 179.512,-700.849 172.512,-700.849"/>
</g>
<!-- Node6 -->
<g id="node6" class="node"><title>Node6</title>
<g id="a_node6"><a xlink:href="class_hydro_couple_1_1_i_property_changed.html" target="_top" xlink:title="IPropertyChanged interface is used to emit signal/event when a property of an object changes...">
<polygon fill="none" stroke="black" points="80.998,-865.568 80.998,-929.573 271.026,-929.573 271.026,-865.568 80.998,-865.568"/>
<text text-anchor="middle" x="176.012" y="-917.573" font-family="Monaco" font-size="10.00">HydroCouple::IPropertyChanged</text>
<polyline fill="none" stroke="black" points="80.998,-908.238 271.026,-908.238 "/>
<text text-anchor="middle" x="176.012" y="-896.238" font-family="Monaco" font-size="10.00"> </text>
<polyline fill="none" stroke="black" points="80.998,-886.903 271.026,-886.903 "/>
<text text-anchor="start" x="88.998" y="-874.903" font-family="Monaco" font-size="10.00">+ ~IPropertyChanged()</text>
</a>
</g>
</g>
<!-- Node6&#45;&gt;Node5 -->
<g id="edge5" class="edge"><title>Node6&#45;&gt;Node5</title>
<path fill="none" stroke="midnightblue" d="M176.012,-855.248C176.012,-846.863 176.012,-837.896 176.012,-829.054"/>
<polygon fill="none" stroke="midnightblue" points="172.512,-855.505 176.012,-865.505 179.512,-855.505 172.512,-855.505"/>
</g>
<!-- Node7&#45;&gt;Node1 -->
<g id="edge6" class="edge"><title>Node7&#45;&gt;Node1</title>
<path fill="none" stroke="midnightblue" d="M209.08,-105.49C204.107,-95.6675 199.363,-86.2966 195.1,-77.8748"/>
<polygon fill="none" stroke="midnightblue" points="206.065,-107.283 213.704,-114.624 212.31,-104.121 206.065,-107.283"/>
</g>
</g>
</svg>
