<?xml version="1.0" encoding="UTF-8" standalone="no"?>
<!DOCTYPE svg PUBLIC "-//W3C//DTD SVG 1.1//EN"
 "http://www.w3.org/Graphics/SVG/1.1/DTD/svg11.dtd">
<!-- Generated by graphviz version 2.38.0 (20140413.2041)
 -->
<!-- Title: HydroCouple::Data::Temporal::ITimeComponentItem Pages: 1 -->
<svg width="169pt" height="547pt"
 viewBox="0.00 0.00 169.08 547.00" xmlns="http://www.w3.org/2000/svg" xmlns:xlink="http://www.w3.org/1999/xlink">
<g id="graph0" class="graph" transform="scale(1 1) rotate(0) translate(4 543)">
<title>HydroCouple::Data::Temporal::ITimeComponentItem</title>
<polygon fill="white" stroke="none" points="-4,4 -4,-543 165.083,-543 165.083,4 -4,4"/>
<!-- Node1 -->
<g id="node1" class="node"><title>Node1</title>
<polygon fill="#bfbfbf" stroke="black" points="1.30859,-0.5 1.30859,-104.5 159.774,-104.5 159.774,-0.5 1.30859,-0.5"/>
<text text-anchor="start" x="9.30859" y="-92.5" font-family="Helvetica,sans-Serif" font-size="10.00">HydroCouple::Data::</text>
<text text-anchor="middle" x="80.5415" y="-82.5" font-family="Helvetica,sans-Serif" font-size="10.00">Temporal::ITimeComponentItem</text>
<polyline fill="none" stroke="black" points="1.30859,-76.5 159.774,-76.5 "/>
<text text-anchor="middle" x="80.5415" y="-64.5" font-family="Helvetica,sans-Serif" font-size="10.00"> </text>
<polyline fill="none" stroke="black" points="1.30859,-58.5 159.774,-58.5 "/>
<text text-anchor="start" x="9.30859" y="-46.5" font-family="Helvetica,sans-Serif" font-size="10.00">+ ~ITimeComponentItem()</text>
<text text-anchor="start" x="9.30859" y="-36.5" font-family="Helvetica,sans-Serif" font-size="10.00">+ timeDimension()</text>
<text text-anchor="start" x="9.30859" y="-26.5" font-family="Helvetica,sans-Serif" font-size="10.00">+ times()</text>
<text text-anchor="start" x="9.30859" y="-16.5" font-family="Helvetica,sans-Serif" font-size="10.00">+ timeSpan()</text>
<text text-anchor="start" x="9.30859" y="-6.5" font-family="Helvetica,sans-Serif" font-size="10.00">+ time()</text>
</g>
<!-- Node2 -->
<g id="node2" class="node"><title>Node2</title>
<g id="a_node2"><a xlink:href="class_hydro_couple_1_1_i_component_item.html" target="_top" xlink:title="IComponentItem is a fundamental unit of data for a component. ">
<polygon fill="white" stroke="black" points="3.61816,-141.5 3.61816,-215.5 157.465,-215.5 157.465,-141.5 3.61816,-141.5"/>
<text text-anchor="middle" x="80.5415" y="-203.5" font-family="Helvetica,sans-Serif" font-size="10.00">HydroCouple::IComponentItem</text>
<polyline fill="none" stroke="black" points="3.61816,-197.5 157.465,-197.5 "/>
<text text-anchor="middle" x="80.5415" y="-185.5" font-family="Helvetica,sans-Serif" font-size="10.00"> </text>
<polyline fill="none" stroke="black" points="3.61816,-179.5 157.465,-179.5 "/>
<text text-anchor="start" x="11.6182" y="-167.5" font-family="Helvetica,sans-Serif" font-size="10.00">+ ~IComponentItem()</text>
<text text-anchor="start" x="11.6182" y="-157.5" font-family="Helvetica,sans-Serif" font-size="10.00">+ modelComponent()</text>
<text text-anchor="start" x="11.6182" y="-147.5" font-family="Helvetica,sans-Serif" font-size="10.00">+ dimensions()</text>
</a>
</g>
</g>
<!-- Node2&#45;&gt;Node1 -->
<g id="edge1" class="edge"><title>Node2&#45;&gt;Node1</title>
<path fill="none" stroke="midnightblue" d="M80.5415,-131.073C80.5415,-122.475 80.5415,-113.45 80.5415,-104.719"/>
<polygon fill="none" stroke="midnightblue" points="77.0416,-131.301 80.5415,-141.301 84.0416,-131.301 77.0416,-131.301"/>
</g>
<!-- Node3 -->
<g id="node3" class="node"><title>Node3</title>
<g id="a_node3"><a xlink:href="class_hydro_couple_1_1_i_identity.html" target="_top" xlink:title="IIdentity interface class defines a method to get the Id of an HydroCouple entity. &#160;IIdentity extends the IDescription interface class, and therefore has, next to the id, a caption and a description. ">
<polygon fill="white" stroke="black" points="23.0713,-252.5 23.0713,-316.5 138.012,-316.5 138.012,-252.5 23.0713,-252.5"/>
<text text-anchor="middle" x="80.5415" y="-304.5" font-family="Helvetica,sans-Serif" font-size="10.00">HydroCouple::IIdentity</text>
<polyline fill="none" stroke="black" points="23.0713,-298.5 138.012,-298.5 "/>
<text text-anchor="middle" x="80.5415" y="-286.5" font-family="Helvetica,sans-Serif" font-size="10.00"> </text>
<polyline fill="none" stroke="black" points="23.0713,-280.5 138.012,-280.5 "/>
<text text-anchor="start" x="31.0713" y="-268.5" font-family="Helvetica,sans-Serif" font-size="10.00">+ ~IIdentity()</text>
<text text-anchor="start" x="31.0713" y="-258.5" font-family="Helvetica,sans-Serif" font-size="10.00">+ id()</text>
</a>
</g>
</g>
<!-- Node3&#45;&gt;Node2 -->
<g id="edge2" class="edge"><title>Node3&#45;&gt;Node2</title>
<path fill="none" stroke="midnightblue" d="M80.5415,-242.282C80.5415,-233.531 80.5415,-224.353 80.5415,-215.801"/>
<polygon fill="none" stroke="midnightblue" points="77.0416,-242.297 80.5415,-252.297 84.0416,-242.297 77.0416,-242.297"/>
</g>
<!-- Node4 -->
<g id="node4" class="node"><title>Node4</title>
<g id="a_node4"><a xlink:href="class_hydro_couple_1_1_i_description.html" target="_top" xlink:title="IDescription interface class provides descriptive information on a HydroCouple object. ">
<polygon fill="white" stroke="black" points="14.1821,-353.5 14.1821,-447.5 146.901,-447.5 146.901,-353.5 14.1821,-353.5"/>
<text text-anchor="middle" x="80.5415" y="-435.5" font-family="Helvetica,sans-Serif" font-size="10.00">HydroCouple::IDescription</text>
<polyline fill="none" stroke="black" points="14.1821,-429.5 146.901,-429.5 "/>
<text text-anchor="middle" x="80.5415" y="-417.5" font-family="Helvetica,sans-Serif" font-size="10.00"> </text>
<polyline fill="none" stroke="black" points="14.1821,-411.5 146.901,-411.5 "/>
<text text-anchor="start" x="22.1821" y="-399.5" font-family="Helvetica,sans-Serif" font-size="10.00">+ ~IDescription()</text>
<text text-anchor="start" x="22.1821" y="-389.5" font-family="Helvetica,sans-Serif" font-size="10.00">+ getCaption()</text>
<text text-anchor="start" x="22.1821" y="-379.5" font-family="Helvetica,sans-Serif" font-size="10.00">+ setCaption()</text>
<text text-anchor="start" x="22.1821" y="-369.5" font-family="Helvetica,sans-Serif" font-size="10.00">+ getDescription()</text>
<text text-anchor="start" x="22.1821" y="-359.5" font-family="Helvetica,sans-Serif" font-size="10.00">+ setDescription()</text>
</a>
</g>
</g>
<!-- Node4&#45;&gt;Node3 -->
<g id="edge3" class="edge"><title>Node4&#45;&gt;Node3</title>
<path fill="none" stroke="midnightblue" d="M80.5415,-343.212C80.5415,-334.081 80.5415,-324.926 80.5415,-316.684"/>
<polygon fill="none" stroke="midnightblue" points="77.0416,-343.46 80.5415,-353.46 84.0416,-343.46 77.0416,-343.46"/>
</g>
<!-- Node5 -->
<g id="node5" class="node"><title>Node5</title>
<g id="a_node5"><a xlink:href="class_hydro_couple_1_1_i_property_changed.html" target="_top" xlink:title="IPropertyChanged interface is used to emit signal/event when a property of an object changes...">
<polygon fill="white" stroke="black" points="0,-484.5 0,-538.5 161.083,-538.5 161.083,-484.5 0,-484.5"/>
<text text-anchor="middle" x="80.5415" y="-526.5" font-family="Helvetica,sans-Serif" font-size="10.00">HydroCouple::IPropertyChanged</text>
<polyline fill="none" stroke="black" points="0,-520.5 161.083,-520.5 "/>
<text text-anchor="middle" x="80.5415" y="-508.5" font-family="Helvetica,sans-Serif" font-size="10.00"> </text>
<polyline fill="none" stroke="black" points="0,-502.5 161.083,-502.5 "/>
<text text-anchor="start" x="8" y="-490.5" font-family="Helvetica,sans-Serif" font-size="10.00">+ ~IPropertyChanged()</text>
</a>
</g>
</g>
<!-- Node5&#45;&gt;Node4 -->
<g id="edge4" class="edge"><title>Node5&#45;&gt;Node4</title>
<path fill="none" stroke="midnightblue" d="M80.5415,-474.141C80.5415,-465.716 80.5415,-456.639 80.5415,-447.851"/>
<polygon fill="none" stroke="midnightblue" points="77.0416,-474.392 80.5415,-484.392 84.0416,-474.392 77.0416,-474.392"/>
</g>
</g>
</svg>
