<?xml version="1.0" encoding="UTF-8" standalone="no"?>
<!DOCTYPE svg PUBLIC "-//W3C//DTD SVG 1.1//EN"
 "http://www.w3.org/Graphics/SVG/1.1/DTD/svg11.dtd">
<!-- Generated by graphviz version 2.38.0 (20140413.2041)
 -->
<!-- Title: HydroCouple::Data::IExchangeItem Pages: 1 -->
<svg width="169pt" height="527pt"
 viewBox="0.00 0.00 169.08 527.00" xmlns="http://www.w3.org/2000/svg" xmlns:xlink="http://www.w3.org/1999/xlink">
<g id="graph0" class="graph" transform="scale(1 1) rotate(0) translate(4 523)">
<title>HydroCouple::Data::IExchangeItem</title>
<polygon fill="white" stroke="none" points="-4,4 -4,-523 165.083,-523 165.083,4 -4,4"/>
<!-- Node1 -->
<g id="node1" class="node"><title>Node1</title>
<polygon fill="#bfbfbf" stroke="black" points="27.2412,-0.5 27.2412,-74.5 133.842,-74.5 133.842,-0.5 27.2412,-0.5"/>
<text text-anchor="start" x="35.2412" y="-62.5" font-family="Helvetica,sans-Serif" font-size="10.00">HydroCouple::Data::</text>
<text text-anchor="middle" x="80.5415" y="-52.5" font-family="Helvetica,sans-Serif" font-size="10.00">IExchangeItem</text>
<polyline fill="none" stroke="black" points="27.2412,-46.5 133.842,-46.5 "/>
<text text-anchor="middle" x="80.5415" y="-34.5" font-family="Helvetica,sans-Serif" font-size="10.00"> </text>
<polyline fill="none" stroke="black" points="27.2412,-28.5 133.842,-28.5 "/>
<text text-anchor="start" x="35.2412" y="-16.5" font-family="Helvetica,sans-Serif" font-size="10.00">+ ~IExchangeItem()</text>
<text text-anchor="start" x="35.2412" y="-6.5" font-family="Helvetica,sans-Serif" font-size="10.00">+ itemChanged()</text>
</g>
<!-- Node2 -->
<g id="node2" class="node"><title>Node2</title>
<g id="a_node2"><a xlink:href="class_hydro_couple_1_1_data_1_1_i_component_item.html" target="_top" xlink:title="IComponentItem is a fundamental unit of data for a component. ">
<polygon fill="white" stroke="black" points="25.0195,-111.5 25.0195,-195.5 136.063,-195.5 136.063,-111.5 25.0195,-111.5"/>
<text text-anchor="start" x="33.0195" y="-183.5" font-family="Helvetica,sans-Serif" font-size="10.00">HydroCouple::Data::</text>
<text text-anchor="middle" x="80.5415" y="-173.5" font-family="Helvetica,sans-Serif" font-size="10.00">IComponentItem</text>
<polyline fill="none" stroke="black" points="25.0195,-167.5 136.063,-167.5 "/>
<text text-anchor="middle" x="80.5415" y="-155.5" font-family="Helvetica,sans-Serif" font-size="10.00"> </text>
<polyline fill="none" stroke="black" points="25.0195,-149.5 136.063,-149.5 "/>
<text text-anchor="start" x="33.0195" y="-137.5" font-family="Helvetica,sans-Serif" font-size="10.00">+ ~IComponentItem()</text>
<text text-anchor="start" x="33.0195" y="-127.5" font-family="Helvetica,sans-Serif" font-size="10.00">+ modelComponent()</text>
<text text-anchor="start" x="33.0195" y="-117.5" font-family="Helvetica,sans-Serif" font-size="10.00">+ dimensions()</text>
</a>
</g>
</g>
<!-- Node2&#45;&gt;Node1 -->
<g id="edge1" class="edge"><title>Node2&#45;&gt;Node1</title>
<path fill="none" stroke="midnightblue" d="M80.5415,-101.328C80.5415,-92.3412 80.5415,-83.159 80.5415,-74.6878"/>
<polygon fill="none" stroke="midnightblue" points="77.0416,-101.343 80.5415,-111.343 84.0416,-101.343 77.0416,-101.343"/>
</g>
<!-- Node3 -->
<g id="node3" class="node"><title>Node3</title>
<g id="a_node3"><a xlink:href="class_hydro_couple_1_1_i_identity.html" target="_top" xlink:title="IIdentity interface class defines a method to get the Id of an HydroCouple entity. &#160;IIdentity extends the IDescription interface class, and therefore has, next to the id, a caption and a description. ">
<polygon fill="white" stroke="black" points="23.0713,-232.5 23.0713,-296.5 138.012,-296.5 138.012,-232.5 23.0713,-232.5"/>
<text text-anchor="middle" x="80.5415" y="-284.5" font-family="Helvetica,sans-Serif" font-size="10.00">HydroCouple::IIdentity</text>
<polyline fill="none" stroke="black" points="23.0713,-278.5 138.012,-278.5 "/>
<text text-anchor="middle" x="80.5415" y="-266.5" font-family="Helvetica,sans-Serif" font-size="10.00"> </text>
<polyline fill="none" stroke="black" points="23.0713,-260.5 138.012,-260.5 "/>
<text text-anchor="start" x="31.0713" y="-248.5" font-family="Helvetica,sans-Serif" font-size="10.00">+ ~IIdentity()</text>
<text text-anchor="start" x="31.0713" y="-238.5" font-family="Helvetica,sans-Serif" font-size="10.00">+ id()</text>
</a>
</g>
</g>
<!-- Node3&#45;&gt;Node2 -->
<g id="edge2" class="edge"><title>Node3&#45;&gt;Node2</title>
<path fill="none" stroke="midnightblue" d="M80.5415,-222.263C80.5415,-213.503 80.5415,-204.255 80.5415,-195.503"/>
<polygon fill="none" stroke="midnightblue" points="77.0416,-222.265 80.5415,-232.265 84.0416,-222.265 77.0416,-222.265"/>
</g>
<!-- Node4 -->
<g id="node4" class="node"><title>Node4</title>
<g id="a_node4"><a xlink:href="class_hydro_couple_1_1_i_description.html" target="_top" xlink:title="IDescription interface class provides descriptive information on a HydroCouple object. ">
<polygon fill="white" stroke="black" points="14.1821,-333.5 14.1821,-427.5 146.901,-427.5 146.901,-333.5 14.1821,-333.5"/>
<text text-anchor="middle" x="80.5415" y="-415.5" font-family="Helvetica,sans-Serif" font-size="10.00">HydroCouple::IDescription</text>
<polyline fill="none" stroke="black" points="14.1821,-409.5 146.901,-409.5 "/>
<text text-anchor="middle" x="80.5415" y="-397.5" font-family="Helvetica,sans-Serif" font-size="10.00"> </text>
<polyline fill="none" stroke="black" points="14.1821,-391.5 146.901,-391.5 "/>
<text text-anchor="start" x="22.1821" y="-379.5" font-family="Helvetica,sans-Serif" font-size="10.00">+ ~IDescription()</text>
<text text-anchor="start" x="22.1821" y="-369.5" font-family="Helvetica,sans-Serif" font-size="10.00">+ getCaption()</text>
<text text-anchor="start" x="22.1821" y="-359.5" font-family="Helvetica,sans-Serif" font-size="10.00">+ setCaption()</text>
<text text-anchor="start" x="22.1821" y="-349.5" font-family="Helvetica,sans-Serif" font-size="10.00">+ getDescription()</text>
<text text-anchor="start" x="22.1821" y="-339.5" font-family="Helvetica,sans-Serif" font-size="10.00">+ setDescription()</text>
</a>
</g>
</g>
<!-- Node4&#45;&gt;Node3 -->
<g id="edge3" class="edge"><title>Node4&#45;&gt;Node3</title>
<path fill="none" stroke="midnightblue" d="M80.5415,-323.212C80.5415,-314.081 80.5415,-304.926 80.5415,-296.684"/>
<polygon fill="none" stroke="midnightblue" points="77.0416,-323.46 80.5415,-333.46 84.0416,-323.46 77.0416,-323.46"/>
</g>
<!-- Node5 -->
<g id="node5" class="node"><title>Node5</title>
<g id="a_node5"><a xlink:href="class_hydro_couple_1_1_i_property_changed.html" target="_top" xlink:title="IPropertyChanged interface is used to emit signal/event when a property of an object changes...">
<polygon fill="white" stroke="black" points="0,-464.5 0,-518.5 161.083,-518.5 161.083,-464.5 0,-464.5"/>
<text text-anchor="middle" x="80.5415" y="-506.5" font-family="Helvetica,sans-Serif" font-size="10.00">HydroCouple::IPropertyChanged</text>
<polyline fill="none" stroke="black" points="0,-500.5 161.083,-500.5 "/>
<text text-anchor="middle" x="80.5415" y="-488.5" font-family="Helvetica,sans-Serif" font-size="10.00"> </text>
<polyline fill="none" stroke="black" points="0,-482.5 161.083,-482.5 "/>
<text text-anchor="start" x="8" y="-470.5" font-family="Helvetica,sans-Serif" font-size="10.00">+ ~IPropertyChanged()</text>
</a>
</g>
</g>
<!-- Node5&#45;&gt;Node4 -->
<g id="edge4" class="edge"><title>Node5&#45;&gt;Node4</title>
<path fill="none" stroke="midnightblue" d="M80.5415,-454.141C80.5415,-445.716 80.5415,-436.639 80.5415,-427.851"/>
<polygon fill="none" stroke="midnightblue" points="77.0416,-454.392 80.5415,-464.392 84.0416,-454.392 77.0416,-454.392"/>
</g>
</g>
</svg>
