<?xml version="1.0" encoding="UTF-8" standalone="no"?>
<!DOCTYPE svg PUBLIC "-//W3C//DTD SVG 1.1//EN"
 "http://www.w3.org/Graphics/SVG/1.1/DTD/svg11.dtd">
<!-- Generated by graphviz version 2.38.0 (20140413.2041)
 -->
<!-- Title: HydroCouple::Spatial::IRegularGrid3DArgument Pages: 1 -->
<svg width="406pt" height="978pt"
 viewBox="0.00 0.00 406.03 978.08" xmlns="http://www.w3.org/2000/svg" xmlns:xlink="http://www.w3.org/1999/xlink">
<g id="graph0" class="graph" transform="scale(1 1) rotate(0) translate(4 974.078)">
<title>HydroCouple::Spatial::IRegularGrid3DArgument</title>
<!-- Node1 -->
<g id="node1" class="node"><title>Node1</title>
<polygon fill="#bfbfbf" stroke="black" points="97.999,-0.5 97.999,-77.8398 276.025,-77.8398 276.025,-0.5 97.999,-0.5"/>
<text text-anchor="start" x="105.999" y="-65.8398" font-family="Monaco" font-size="10.00">HydroCouple::Spatial</text>
<text text-anchor="middle" x="187.012" y="-52.5049" font-family="Monaco" font-size="10.00">::IRegularGrid3DArgument</text>
<polyline fill="none" stroke="black" points="97.999,-43.1699 276.025,-43.1699 "/>
<text text-anchor="middle" x="187.012" y="-31.1699" font-family="Monaco" font-size="10.00"> </text>
<polyline fill="none" stroke="black" points="97.999,-21.835 276.025,-21.835 "/>
<text text-anchor="start" x="105.999" y="-9.83496" font-family="Monaco" font-size="10.00">+ ~IRegularGrid3DArgument()</text>
</g>
<!-- Node2 -->
<g id="node2" class="node"><title>Node2</title>
<g id="a_node2"><a xlink:href="class_hydro_couple_1_1_i_argument.html" target="_top" xlink:title="IArgument interface class used to set the arguments for components. They can be complex or simple mul...">
<polygon fill="none" stroke="black" points="0,-154.845 0,-338.864 166.024,-338.864 166.024,-154.845 0,-154.845"/>
<text text-anchor="middle" x="83.0122" y="-326.864" font-family="Monaco" font-size="10.00">HydroCouple::IArgument</text>
<polyline fill="none" stroke="black" points="0,-317.529 166.024,-317.529 "/>
<text text-anchor="middle" x="83.0122" y="-305.529" font-family="Monaco" font-size="10.00"> </text>
<polyline fill="none" stroke="black" points="0,-296.194 166.024,-296.194 "/>
<text text-anchor="start" x="8" y="-284.194" font-family="Monaco" font-size="10.00">+ ~IArgument()</text>
<text text-anchor="start" x="8" y="-270.859" font-family="Monaco" font-size="10.00">+ isOptional()</text>
<text text-anchor="start" x="8" y="-257.524" font-family="Monaco" font-size="10.00">+ isReadOnly()</text>
<text text-anchor="start" x="8" y="-244.189" font-family="Monaco" font-size="10.00">+ toString()</text>
<text text-anchor="start" x="8" y="-230.854" font-family="Monaco" font-size="10.00">+ inputFileTypeFilters()</text>
<text text-anchor="start" x="8" y="-217.52" font-family="Monaco" font-size="10.00">+ canReadFromFile()</text>
<text text-anchor="start" x="8" y="-204.185" font-family="Monaco" font-size="10.00">+ canReadFromString()</text>
<text text-anchor="start" x="8" y="-190.85" font-family="Monaco" font-size="10.00">+ currentArgumentIOType()</text>
<text text-anchor="start" x="8" y="-177.515" font-family="Monaco" font-size="10.00">+ readValues()</text>
<text text-anchor="start" x="8" y="-164.18" font-family="Monaco" font-size="10.00">+ readValues()</text>
</a>
</g>
</g>
<!-- Node2&#45;&gt;Node1 -->
<g id="edge1" class="edge"><title>Node2&#45;&gt;Node1</title>
<path fill="none" stroke="midnightblue" d="M133.751,-145.506C145.959,-121.361 158.261,-97.033 167.961,-77.8489"/>
<polygon fill="none" stroke="midnightblue" points="130.471,-144.237 129.082,-154.74 136.718,-147.395 130.471,-144.237"/>
</g>
<!-- Node3 -->
<g id="node3" class="node"><title>Node3</title>
<g id="a_node3"><a xlink:href="class_hydro_couple_1_1_i_component_data_item.html" target="_top" xlink:title="IComponentItem is a fundamental unit of data for a component. ">
<polygon fill="none" stroke="black" points="85.9971,-415.869 85.9971,-599.889 288.027,-599.889 288.027,-415.869 85.9971,-415.869"/>
<text text-anchor="middle" x="187.012" y="-587.889" font-family="Monaco" font-size="10.00">HydroCouple::IComponentDataItem</text>
<polyline fill="none" stroke="black" points="85.9971,-578.554 288.027,-578.554 "/>
<text text-anchor="middle" x="187.012" y="-566.554" font-family="Monaco" font-size="10.00"> </text>
<polyline fill="none" stroke="black" points="85.9971,-557.219 288.027,-557.219 "/>
<text text-anchor="start" x="93.9971" y="-545.219" font-family="Monaco" font-size="10.00">+ ~IComponentDataItem()</text>
<text text-anchor="start" x="93.9971" y="-531.884" font-family="Monaco" font-size="10.00">+ modelComponent()</text>
<text text-anchor="start" x="93.9971" y="-518.549" font-family="Monaco" font-size="10.00">+ dimensions()</text>
<text text-anchor="start" x="93.9971" y="-505.214" font-family="Monaco" font-size="10.00">+ valueDefinition()</text>
<text text-anchor="start" x="93.9971" y="-491.879" font-family="Monaco" font-size="10.00">+ getValue()</text>
<text text-anchor="start" x="93.9971" y="-478.544" font-family="Monaco" font-size="10.00">+ getValues()</text>
<text text-anchor="start" x="93.9971" y="-465.209" font-family="Monaco" font-size="10.00">+ getValues()</text>
<text text-anchor="start" x="93.9971" y="-451.874" font-family="Monaco" font-size="10.00">+ setValue()</text>
<text text-anchor="start" x="93.9971" y="-438.539" font-family="Monaco" font-size="10.00">+ setValues()</text>
<text text-anchor="start" x="93.9971" y="-425.204" font-family="Monaco" font-size="10.00">+ setValues()</text>
</a>
</g>
</g>
<!-- Node3&#45;&gt;Node2 -->
<g id="edge2" class="edge"><title>Node3&#45;&gt;Node2</title>
<path fill="none" stroke="midnightblue" d="M146.582,-406.183C137.726,-384.126 128.398,-360.894 119.698,-339.225"/>
<polygon fill="none" stroke="midnightblue" points="143.372,-407.581 150.346,-415.557 149.868,-404.973 143.372,-407.581"/>
</g>
<!-- Node7 -->
<g id="node7" class="node"><title>Node7</title>
<g id="a_node7"><a xlink:href="class_hydro_couple_1_1_spatial_1_1_i_regular_grid3_d_component_data_item.html" target="_top" xlink:title="An IRegularGrid3DComponentItem represents an IRegularGrid3D IComponentItem. ">
<polygon fill="none" stroke="black" points="183.996,-114.84 183.996,-378.869 398.028,-378.869 398.028,-114.84 183.996,-114.84"/>
<text text-anchor="start" x="191.996" y="-366.869" font-family="Monaco" font-size="10.00">HydroCouple::Spatial</text>
<text text-anchor="middle" x="291.012" y="-353.534" font-family="Monaco" font-size="10.00">::IRegularGrid3DComponentDataItem</text>
<polyline fill="none" stroke="black" points="183.996,-344.199 398.028,-344.199 "/>
<text text-anchor="middle" x="291.012" y="-332.199" font-family="Monaco" font-size="10.00"> </text>
<polyline fill="none" stroke="black" points="183.996,-322.864 398.028,-322.864 "/>
<text text-anchor="start" x="191.996" y="-310.864" font-family="Monaco" font-size="10.00">+ ~IRegularGrid3DComponent</text>
<text text-anchor="start" x="191.996" y="-297.529" font-family="Monaco" font-size="10.00">DataItem()</text>
<text text-anchor="start" x="191.996" y="-284.194" font-family="Monaco" font-size="10.00">+ numXCellsDimension()</text>
<text text-anchor="start" x="191.996" y="-270.859" font-family="Monaco" font-size="10.00">+ numYCellsDimension()</text>
<text text-anchor="start" x="191.996" y="-257.524" font-family="Monaco" font-size="10.00">+ numZCellsDimension()</text>
<text text-anchor="start" x="191.996" y="-244.189" font-family="Monaco" font-size="10.00">+ cellFaceDimension()</text>
<text text-anchor="start" x="191.996" y="-230.854" font-family="Monaco" font-size="10.00">+ cellEdgeDimension()</text>
<text text-anchor="start" x="191.996" y="-217.52" font-family="Monaco" font-size="10.00">+ cellNodeDimension()</text>
<text text-anchor="start" x="191.996" y="-204.185" font-family="Monaco" font-size="10.00">+ grid()</text>
<text text-anchor="start" x="191.996" y="-190.85" font-family="Monaco" font-size="10.00">+ getValue()</text>
<text text-anchor="start" x="191.996" y="-177.515" font-family="Monaco" font-size="10.00">+ getValues()</text>
<text text-anchor="start" x="191.996" y="-164.18" font-family="Monaco" font-size="10.00">+ getValues()</text>
<text text-anchor="start" x="191.996" y="-150.845" font-family="Monaco" font-size="10.00">+ setValue()</text>
<text text-anchor="start" x="191.996" y="-137.51" font-family="Monaco" font-size="10.00">+ setValues()</text>
<text text-anchor="start" x="191.996" y="-124.175" font-family="Monaco" font-size="10.00">+ setValues()</text>
</a>
</g>
</g>
<!-- Node3&#45;&gt;Node7 -->
<g id="edge7" class="edge"><title>Node3&#45;&gt;Node7</title>
<path fill="none" stroke="midnightblue" d="M227.49,-406.065C231.032,-397.243 234.649,-388.233 238.271,-379.212"/>
<polygon fill="none" stroke="midnightblue" points="224.157,-404.973 223.679,-415.557 230.653,-407.581 224.157,-404.973"/>
</g>
<!-- Node4 -->
<g id="node4" class="node"><title>Node4</title>
<g id="a_node4"><a xlink:href="class_hydro_couple_1_1_i_identity.html" target="_top" xlink:title="IIdentity interface class defines a method to get the Id of an HydroCouple entity. ">
<polygon fill="none" stroke="black" points="113.001,-636.889 113.001,-714.229 261.023,-714.229 261.023,-636.889 113.001,-636.889"/>
<text text-anchor="middle" x="187.012" y="-702.229" font-family="Monaco" font-size="10.00">HydroCouple::IIdentity</text>
<polyline fill="none" stroke="black" points="113.001,-692.894 261.023,-692.894 "/>
<text text-anchor="middle" x="187.012" y="-680.894" font-family="Monaco" font-size="10.00"> </text>
<polyline fill="none" stroke="black" points="113.001,-671.559 261.023,-671.559 "/>
<text text-anchor="start" x="121.001" y="-659.559" font-family="Monaco" font-size="10.00">+ ~IIdentity()</text>
<text text-anchor="start" x="121.001" y="-646.224" font-family="Monaco" font-size="10.00">+ id()</text>
</a>
</g>
</g>
<!-- Node4&#45;&gt;Node3 -->
<g id="edge3" class="edge"><title>Node4&#45;&gt;Node3</title>
<path fill="none" stroke="midnightblue" d="M187.012,-626.306C187.012,-617.953 187.012,-609.028 187.012,-599.97"/>
<polygon fill="none" stroke="midnightblue" points="183.512,-626.548 187.012,-636.548 190.512,-626.548 183.512,-626.548"/>
</g>
<!-- Node5 -->
<g id="node5" class="node"><title>Node5</title>
<g id="a_node5"><a xlink:href="class_hydro_couple_1_1_i_description.html" target="_top" xlink:title="IDescription interface class provides descriptive information on a HydroCouple object. ">
<polygon fill="none" stroke="black" points="104,-751.229 104,-868.573 270.024,-868.573 270.024,-751.229 104,-751.229"/>
<text text-anchor="middle" x="187.012" y="-856.573" font-family="Monaco" font-size="10.00">HydroCouple::IDescription</text>
<polyline fill="none" stroke="black" points="104,-847.238 270.024,-847.238 "/>
<text text-anchor="middle" x="187.012" y="-835.238" font-family="Monaco" font-size="10.00"> </text>
<polyline fill="none" stroke="black" points="104,-825.903 270.024,-825.903 "/>
<text text-anchor="start" x="112" y="-813.903" font-family="Monaco" font-size="10.00">+ ~IDescription()</text>
<text text-anchor="start" x="112" y="-800.568" font-family="Monaco" font-size="10.00">+ caption()</text>
<text text-anchor="start" x="112" y="-787.233" font-family="Monaco" font-size="10.00">+ setCaption()</text>
<text text-anchor="start" x="112" y="-773.898" font-family="Monaco" font-size="10.00">+ description()</text>
<text text-anchor="start" x="112" y="-760.563" font-family="Monaco" font-size="10.00">+ setDescription()</text>
</a>
</g>
</g>
<!-- Node5&#45;&gt;Node4 -->
<g id="edge4" class="edge"><title>Node5&#45;&gt;Node4</title>
<path fill="none" stroke="midnightblue" d="M187.012,-740.663C187.012,-731.624 187.012,-722.636 187.012,-714.376"/>
<polygon fill="none" stroke="midnightblue" points="183.512,-740.854 187.012,-750.854 190.512,-740.854 183.512,-740.854"/>
</g>
<!-- Node6 -->
<g id="node6" class="node"><title>Node6</title>
<g id="a_node6"><a xlink:href="class_hydro_couple_1_1_i_property_changed.html" target="_top" xlink:title="IPropertyChanged interface is used to emit signal/event when a property of an object changes...">
<polygon fill="none" stroke="black" points="91.998,-905.573 91.998,-969.578 282.026,-969.578 282.026,-905.573 91.998,-905.573"/>
<text text-anchor="middle" x="187.012" y="-957.578" font-family="Monaco" font-size="10.00">HydroCouple::IPropertyChanged</text>
<polyline fill="none" stroke="black" points="91.998,-948.243 282.026,-948.243 "/>
<text text-anchor="middle" x="187.012" y="-936.243" font-family="Monaco" font-size="10.00"> </text>
<polyline fill="none" stroke="black" points="91.998,-926.908 282.026,-926.908 "/>
<text text-anchor="start" x="99.998" y="-914.908" font-family="Monaco" font-size="10.00">+ ~IPropertyChanged()</text>
</a>
</g>
</g>
<!-- Node6&#45;&gt;Node5 -->
<g id="edge5" class="edge"><title>Node6&#45;&gt;Node5</title>
<path fill="none" stroke="midnightblue" d="M187.012,-895.253C187.012,-886.868 187.012,-877.901 187.012,-869.059"/>
<polygon fill="none" stroke="midnightblue" points="183.512,-895.51 187.012,-905.51 190.512,-895.51 183.512,-895.51"/>
</g>
<!-- Node7&#45;&gt;Node1 -->
<g id="edge6" class="edge"><title>Node7&#45;&gt;Node1</title>
<path fill="none" stroke="midnightblue" d="M220.051,-105.513C215.059,-95.6398 210.337,-86.3009 206.108,-77.9368"/>
<polygon fill="none" stroke="midnightblue" points="217.07,-107.373 224.706,-114.718 223.317,-104.214 217.07,-107.373"/>
</g>
</g>
</svg>
