<?xml version="1.0" encoding="UTF-8" standalone="no"?>
<!DOCTYPE svg PUBLIC "-//W3C//DTD SVG 1.1//EN"
 "http://www.w3.org/Graphics/SVG/1.1/DTD/svg11.dtd">
<!-- Generated by graphviz version 2.38.0 (20140413.2041)
 -->
<!-- Title: HydroCouple::Spatial::I2DRegularGridExhangeItem Pages: 1 -->
<svg width="406pt" height="765pt"
 viewBox="0.00 0.00 406.03 764.72" xmlns="http://www.w3.org/2000/svg" xmlns:xlink="http://www.w3.org/1999/xlink">
<g id="graph0" class="graph" transform="scale(1 1) rotate(0) translate(4 760.719)">
<title>HydroCouple::Spatial::I2DRegularGridExhangeItem</title>
<polygon fill="white" stroke="none" points="-4,4 -4,-760.719 402.028,-760.719 402.028,4 -4,4"/>
<!-- Node1 -->
<g id="node1" class="node"><title>Node1</title>
<polygon fill="#bfbfbf" stroke="black" points="91.998,-0.5 91.998,-77.8398 288.027,-77.8398 288.027,-0.5 91.998,-0.5"/>
<text text-anchor="start" x="99.998" y="-65.8398" font-family="Monaco" font-size="10.00">HydroCouple::Spatial</text>
<text text-anchor="middle" x="190.013" y="-52.5049" font-family="Monaco" font-size="10.00">::I2DRegularGridExhangeItem</text>
<polyline fill="none" stroke="black" points="91.998,-43.1699 288.027,-43.1699 "/>
<text text-anchor="middle" x="190.013" y="-31.1699" font-family="Monaco" font-size="10.00"> </text>
<polyline fill="none" stroke="black" points="91.998,-21.835 288.027,-21.835 "/>
<text text-anchor="start" x="99.998" y="-9.83496" font-family="Monaco" font-size="10.00">+ ~I2DRegularGridExhangeItem()</text>
</g>
<!-- Node2 -->
<g id="node2" class="node"><title>Node2</title>
<g id="a_node2"><a xlink:href="class_hydro_couple_1_1_i_exchange_item.html" target="_top" xlink:title="IExchangeItem the base data item the can be exchanged between components at runtime. ">
<polygon fill="white" stroke="black" points="0,-148.177 0,-225.517 172.025,-225.517 172.025,-148.177 0,-148.177"/>
<text text-anchor="middle" x="86.0127" y="-213.517" font-family="Monaco" font-size="10.00">HydroCouple::IExchangeItem</text>
<polyline fill="none" stroke="black" points="0,-204.182 172.025,-204.182 "/>
<text text-anchor="middle" x="86.0127" y="-192.182" font-family="Monaco" font-size="10.00"> </text>
<polyline fill="none" stroke="black" points="0,-182.847 172.025,-182.847 "/>
<text text-anchor="start" x="8" y="-170.847" font-family="Monaco" font-size="10.00">+ ~IExchangeItem()</text>
<text text-anchor="start" x="8" y="-157.512" font-family="Monaco" font-size="10.00">+ itemChanged()</text>
</a>
</g>
</g>
<!-- Node2&#45;&gt;Node1 -->
<g id="edge1" class="edge"><title>Node2&#45;&gt;Node1</title>
<path fill="none" stroke="midnightblue" d="M119.008,-139.629C133.222,-119.719 149.633,-96.7313 163.095,-77.8749"/>
<polygon fill="none" stroke="midnightblue" points="116.028,-137.78 113.066,-147.952 121.725,-141.847 116.028,-137.78"/>
</g>
<!-- Node3 -->
<g id="node3" class="node"><title>Node3</title>
<g id="a_node3"><a xlink:href="class_hydro_couple_1_1_i_component_item.html" target="_top" xlink:title="IComponentItem is a fundamental unit of data for a component. ">
<polygon fill="white" stroke="black" points="101,-295.854 101,-386.529 279.026,-386.529 279.026,-295.854 101,-295.854"/>
<text text-anchor="middle" x="190.013" y="-374.529" font-family="Monaco" font-size="10.00">HydroCouple::IComponentItem</text>
<polyline fill="none" stroke="black" points="101,-365.194 279.026,-365.194 "/>
<text text-anchor="middle" x="190.013" y="-353.194" font-family="Monaco" font-size="10.00"> </text>
<polyline fill="none" stroke="black" points="101,-343.859 279.026,-343.859 "/>
<text text-anchor="start" x="109" y="-331.859" font-family="Monaco" font-size="10.00">+ ~IComponentItem()</text>
<text text-anchor="start" x="109" y="-318.524" font-family="Monaco" font-size="10.00">+ modelComponent()</text>
<text text-anchor="start" x="109" y="-305.189" font-family="Monaco" font-size="10.00">+ dimensions()</text>
</a>
</g>
</g>
<!-- Node3&#45;&gt;Node2 -->
<g id="edge2" class="edge"><title>Node3&#45;&gt;Node2</title>
<path fill="none" stroke="midnightblue" d="M153.837,-287.199C140.001,-266.932 124.513,-244.245 111.835,-225.673"/>
<polygon fill="none" stroke="midnightblue" points="151.123,-289.432 159.652,-295.718 156.905,-285.486 151.123,-289.432"/>
</g>
<!-- Node7 -->
<g id="node7" class="node"><title>Node7</title>
<g id="a_node7"><a xlink:href="class_hydro_couple_1_1_spatial_1_1_i2_d_regular_grid_component_item.html" target="_top" xlink:title="An I2DRegularGridComponentItem represents an I2DRegularGrid IComponentItem. ">
<polygon fill="white" stroke="black" points="189.997,-114.84 189.997,-258.854 398.028,-258.854 398.028,-114.84 189.997,-114.84"/>
<text text-anchor="start" x="197.997" y="-246.854" font-family="Monaco" font-size="10.00">HydroCouple::Spatial</text>
<text text-anchor="middle" x="294.013" y="-233.52" font-family="Monaco" font-size="10.00">::I2DRegularGridComponentItem</text>
<polyline fill="none" stroke="black" points="189.997,-224.185 398.028,-224.185 "/>
<text text-anchor="middle" x="294.013" y="-212.185" font-family="Monaco" font-size="10.00"> </text>
<polyline fill="none" stroke="black" points="189.997,-202.85 398.028,-202.85 "/>
<text text-anchor="start" x="197.997" y="-190.85" font-family="Monaco" font-size="10.00">+ ~I2DRegularGridComponentItem()</text>
<text text-anchor="start" x="197.997" y="-177.515" font-family="Monaco" font-size="10.00">+ numXNodesDimension()</text>
<text text-anchor="start" x="197.997" y="-164.18" font-family="Monaco" font-size="10.00">+ numYNodesDimension()</text>
<text text-anchor="start" x="197.997" y="-150.845" font-family="Monaco" font-size="10.00">+ numXCellsDimension()</text>
<text text-anchor="start" x="197.997" y="-137.51" font-family="Monaco" font-size="10.00">+ numYCellsDimension()</text>
<text text-anchor="start" x="197.997" y="-124.175" font-family="Monaco" font-size="10.00">+ grid()</text>
</a>
</g>
</g>
<!-- Node3&#45;&gt;Node7 -->
<g id="edge7" class="edge"><title>Node3&#45;&gt;Node7</title>
<path fill="none" stroke="midnightblue" d="M226.016,-287.452C232.278,-278.279 238.883,-268.604 245.416,-259.034"/>
<polygon fill="none" stroke="midnightblue" points="223.121,-285.486 220.373,-295.718 228.902,-289.432 223.121,-285.486"/>
</g>
<!-- Node4 -->
<g id="node4" class="node"><title>Node4</title>
<g id="a_node4"><a xlink:href="class_hydro_couple_1_1_i_identity.html" target="_top" xlink:title="IIdentity interface class defines a method to get the Id of an HydroCouple entity. ">
<polygon fill="white" stroke="black" points="116.002,-423.529 116.002,-500.869 264.023,-500.869 264.023,-423.529 116.002,-423.529"/>
<text text-anchor="middle" x="190.013" y="-488.869" font-family="Monaco" font-size="10.00">HydroCouple::IIdentity</text>
<polyline fill="none" stroke="black" points="116.002,-479.534 264.023,-479.534 "/>
<text text-anchor="middle" x="190.013" y="-467.534" font-family="Monaco" font-size="10.00"> </text>
<polyline fill="none" stroke="black" points="116.002,-458.199 264.023,-458.199 "/>
<text text-anchor="start" x="124.002" y="-446.199" font-family="Monaco" font-size="10.00">+ ~IIdentity()</text>
<text text-anchor="start" x="124.002" y="-432.864" font-family="Monaco" font-size="10.00">+ id()</text>
</a>
</g>
</g>
<!-- Node4&#45;&gt;Node3 -->
<g id="edge3" class="edge"><title>Node4&#45;&gt;Node3</title>
<path fill="none" stroke="midnightblue" d="M190.013,-413.21C190.013,-404.511 190.013,-395.471 190.013,-386.872"/>
<polygon fill="none" stroke="midnightblue" points="186.513,-413.217 190.013,-423.217 193.513,-413.217 186.513,-413.217"/>
</g>
<!-- Node5 -->
<g id="node5" class="node"><title>Node5</title>
<g id="a_node5"><a xlink:href="class_hydro_couple_1_1_i_description.html" target="_top" xlink:title="IDescription interface class provides descriptive information on a HydroCouple object. ">
<polygon fill="white" stroke="black" points="107,-537.869 107,-655.214 273.025,-655.214 273.025,-537.869 107,-537.869"/>
<text text-anchor="middle" x="190.013" y="-643.214" font-family="Monaco" font-size="10.00">HydroCouple::IDescription</text>
<polyline fill="none" stroke="black" points="107,-633.879 273.025,-633.879 "/>
<text text-anchor="middle" x="190.013" y="-621.879" font-family="Monaco" font-size="10.00"> </text>
<polyline fill="none" stroke="black" points="107,-612.544 273.025,-612.544 "/>
<text text-anchor="start" x="115" y="-600.544" font-family="Monaco" font-size="10.00">+ ~IDescription()</text>
<text text-anchor="start" x="115" y="-587.209" font-family="Monaco" font-size="10.00">+ getCaption()</text>
<text text-anchor="start" x="115" y="-573.874" font-family="Monaco" font-size="10.00">+ setCaption()</text>
<text text-anchor="start" x="115" y="-560.539" font-family="Monaco" font-size="10.00">+ getDescription()</text>
<text text-anchor="start" x="115" y="-547.204" font-family="Monaco" font-size="10.00">+ setDescription()</text>
</a>
</g>
</g>
<!-- Node5&#45;&gt;Node4 -->
<g id="edge4" class="edge"><title>Node5&#45;&gt;Node4</title>
<path fill="none" stroke="midnightblue" d="M190.013,-527.303C190.013,-518.264 190.013,-509.277 190.013,-501.017"/>
<polygon fill="none" stroke="midnightblue" points="186.513,-527.494 190.013,-537.494 193.513,-527.494 186.513,-527.494"/>
</g>
<!-- Node6 -->
<g id="node6" class="node"><title>Node6</title>
<g id="a_node6"><a xlink:href="class_hydro_couple_1_1_i_property_changed.html" target="_top" xlink:title="IPropertyChanged interface is used to emit signal/event when a property of an object changes...">
<polygon fill="white" stroke="black" points="94.9985,-692.214 94.9985,-756.219 285.027,-756.219 285.027,-692.214 94.9985,-692.214"/>
<text text-anchor="middle" x="190.013" y="-744.219" font-family="Monaco" font-size="10.00">HydroCouple::IPropertyChanged</text>
<polyline fill="none" stroke="black" points="94.9985,-734.884 285.027,-734.884 "/>
<text text-anchor="middle" x="190.013" y="-722.884" font-family="Monaco" font-size="10.00"> </text>
<polyline fill="none" stroke="black" points="94.9985,-713.549 285.027,-713.549 "/>
<text text-anchor="start" x="102.999" y="-701.549" font-family="Monaco" font-size="10.00">+ ~IPropertyChanged()</text>
</a>
</g>
</g>
<!-- Node6&#45;&gt;Node5 -->
<g id="edge5" class="edge"><title>Node6&#45;&gt;Node5</title>
<path fill="none" stroke="midnightblue" d="M190.013,-681.893C190.013,-673.508 190.013,-664.542 190.013,-655.7"/>
<polygon fill="none" stroke="midnightblue" points="186.513,-682.151 190.013,-692.151 193.513,-682.151 186.513,-682.151"/>
</g>
<!-- Node7&#45;&gt;Node1 -->
<g id="edge6" class="edge"><title>Node7&#45;&gt;Node1</title>
<path fill="none" stroke="midnightblue" d="M237.28,-106.38C230.215,-96.4831 223.267,-86.7509 216.964,-77.9223"/>
<polygon fill="none" stroke="midnightblue" points="234.572,-108.61 243.231,-114.716 240.27,-104.543 234.572,-108.61"/>
</g>
</g>
</svg>
