<?xml version="1.0" encoding="UTF-8" standalone="no"?>
<!DOCTYPE svg PUBLIC "-//W3C//DTD SVG 1.1//EN"
 "http://www.w3.org/Graphics/SVG/1.1/DTD/svg11.dtd">
<!-- Generated by graphviz version 2.38.0 (20140413.2041)
 -->
<!-- Title: Identity Pages: 1 -->
<!--zoomable 1125 -->
<svg id="main" version="1.1" xmlns="http://www.w3.org/2000/svg" xmlns:xlink="http://www.w3.org/1999/xlink" xml:space="preserve" onload="init(evt)">
<style type="text/css"><![CDATA[
.edge:hover path { stroke: red; }
.edge:hover polygon { stroke: red; fill: red; }
]]></style>
<script type="text/javascript"><![CDATA[
var edges = document.getElementsByTagName('g');
if (edges && edges.length) {
  for (var i=0;i<edges.length;i++) {
    if (edges[i].id.substr(0,4)=='edge') {
      edges[i].setAttribute('class','edge');
    }
  }
}
]]></script>
        <defs>
                <circle id="rim" cx="0" cy="0" r="7"/>
                <circle id="rim2" cx="0" cy="0" r="3.5"/>
                <g id="zoomPlus">
                        <use xlink:href="#rim" fill="#404040">
                                <set attributeName="fill" to="#808080" begin="zoomplus.mouseover" end="zoomplus.mouseout"/>
                        </use>
                        <path d="M-4,0h8M0,-4v8" fill="none" stroke="white" stroke-width="1.5" pointer-events="none"/>
                </g>
                <g id="zoomMin">
                        <use xlink:href="#rim" fill="#404040">
                                <set attributeName="fill" to="#808080" begin="zoomminus.mouseover" end="zoomminus.mouseout"/>
                        </use>
                        <path d="M-4,0h8" fill="none" stroke="white" stroke-width="1.5" pointer-events="none"/>
                </g>
                <g id="dirArrow">
                        <path fill="none" stroke="white" stroke-width="1.5" d="M0,-3.0v7 M-2.5,-0.5L0,-3.0L2.5,-0.5"/>
                </g>
               <g id="resetDef">
                       <use xlink:href="#rim2" fill="#404040">
                               <set attributeName="fill" to="#808080" begin="reset.mouseover" end="reset.mouseout"/>
                       </use>
               </g>
        </defs>

<script type="text/javascript">
var viewWidth = 352;
var viewHeight = 1125;
var sectionId = 'dynsection-0';
</script>
<script xlink:href="svgpan.js"/>
<svg id="graph" class="graph">
<g id="viewport">
<title>Identity</title>
<polygon fill="white" stroke="none" points="-4,4 -4,-1120.76 348.024,-1120.76 348.024,4 -4,4"/>
<!-- Node1 -->
<g id="node1" class="node"><title>Node1</title>
<polygon fill="#bfbfbf" stroke="black" points="132.007,-522.549 132.007,-639.894 226.02,-639.894 226.02,-522.549 132.007,-522.549"/>
<text text-anchor="middle" x="179.013" y="-627.894" font-family="Monaco" font-size="10.00">Identity</text>
<polyline fill="none" stroke="black" points="132.007,-618.559 226.02,-618.559 "/>
<text text-anchor="start" x="140.007" y="-606.559" font-family="Monaco" font-size="10.00">+ Id</text>
<polyline fill="none" stroke="black" points="132.007,-597.224 226.02,-597.224 "/>
<text text-anchor="start" x="140.007" y="-585.224" font-family="Monaco" font-size="10.00">+ Identity()</text>
<text text-anchor="start" x="140.007" y="-571.889" font-family="Monaco" font-size="10.00">+ Identity()</text>
<text text-anchor="start" x="140.007" y="-558.554" font-family="Monaco" font-size="10.00">+ ~Identity()</text>
<text text-anchor="start" x="140.007" y="-545.219" font-family="Monaco" font-size="10.00">+ id()</text>
<text text-anchor="start" x="140.007" y="-531.884" font-family="Monaco" font-size="10.00"># setId()</text>
</g>
<!-- Node7 -->
<g id="node7" class="node"><title>Node7</title>
<g id="a_node7"><a xlink:href="class_abstract_model_component.html" target="_top" xlink:title="AbstractModelComponent class. ">
<polygon fill="white" stroke="black" points="0,-114.84 0,-472.214 178.026,-472.214 178.026,-114.84 0,-114.84"/>
<text text-anchor="middle" x="89.0132" y="-460.214" font-family="Monaco" font-size="10.00">AbstractModelComponent</text>
<polyline fill="none" stroke="black" points="0,-450.879 178.026,-450.879 "/>
<text text-anchor="start" x="8" y="-438.879" font-family="Monaco" font-size="10.00">+ ComponentInfo</text>
<text text-anchor="start" x="8" y="-425.544" font-family="Monaco" font-size="10.00">+ Parent</text>
<text text-anchor="start" x="8" y="-412.209" font-family="Monaco" font-size="10.00">+ Arguments</text>
<text text-anchor="start" x="8" y="-398.874" font-family="Monaco" font-size="10.00">+ Status</text>
<text text-anchor="start" x="8" y="-385.539" font-family="Monaco" font-size="10.00">+ Inputs</text>
<text text-anchor="start" x="8" y="-372.204" font-family="Monaco" font-size="10.00">+ Outputs</text>
<text text-anchor="start" x="8" y="-358.869" font-family="Monaco" font-size="10.00">+ AdaptedOutputFactories</text>
<text text-anchor="start" x="8" y="-345.534" font-family="Monaco" font-size="10.00"># m_children</text>
<text text-anchor="start" x="8" y="-332.199" font-family="Monaco" font-size="10.00"># m_status</text>
<text text-anchor="start" x="8" y="-318.864" font-family="Monaco" font-size="10.00"># m_inputs</text>
<text text-anchor="start" x="8" y="-305.529" font-family="Monaco" font-size="10.00"># m_outputs</text>
<text text-anchor="start" x="8" y="-292.194" font-family="Monaco" font-size="10.00"># m_adaptedOutputFactories</text>
<text text-anchor="start" x="8" y="-278.859" font-family="Monaco" font-size="10.00"># m_arguments</text>
<polyline fill="none" stroke="black" points="0,-269.524 178.026,-269.524 "/>
<text text-anchor="start" x="8" y="-257.524" font-family="Monaco" font-size="10.00">+ AbstractModelComponent()</text>
<text text-anchor="start" x="8" y="-244.189" font-family="Monaco" font-size="10.00">+ AbstractModelComponent()</text>
<text text-anchor="start" x="8" y="-230.854" font-family="Monaco" font-size="10.00">+ ~AbstractModelComponent()</text>
<text text-anchor="start" x="8" y="-217.52" font-family="Monaco" font-size="10.00">+ componentInfo()</text>
<text text-anchor="start" x="8" y="-204.185" font-family="Monaco" font-size="10.00">+ parent()</text>
<text text-anchor="start" x="8" y="-190.85" font-family="Monaco" font-size="10.00">+ clone()</text>
<text text-anchor="start" x="8" y="-177.515" font-family="Monaco" font-size="10.00">+ children()</text>
<text text-anchor="start" x="8" y="-164.18" font-family="Monaco" font-size="10.00">+ arguments()</text>
<text text-anchor="start" x="8" y="-150.845" font-family="Monaco" font-size="10.00">+ status()</text>
<text text-anchor="start" x="8" y="-137.51" font-family="Monaco" font-size="10.00">+ inputs()</text>
<text text-anchor="start" x="8" y="-124.175" font-family="Monaco" font-size="10.00">and 7 more...</text>
</a>
</g>
</g>
<!-- Node1&#45;&gt;Node7 -->
<g id="edge7" class="edge"><title>Node1&#45;&gt;Node7</title>
<path fill="none" stroke="midnightblue" d="M157.714,-512.609C153.77,-500.089 149.486,-486.49 145.049,-472.406"/>
<polygon fill="none" stroke="midnightblue" points="154.457,-513.92 160.8,-522.407 161.134,-511.817 154.457,-513.92"/>
</g>
<!-- Node8 -->
<g id="node8" class="node"><title>Node8</title>
<g id="a_node8"><a xlink:href="class_component_info.html" target="_top" xlink:title="Implementation of the IComponentInfo. This is the core interface specifying meta data about a compone...">
<polygon fill="white" stroke="black" points="196.002,-101.505 196.002,-485.549 344.024,-485.549 344.024,-101.505 196.002,-101.505"/>
<text text-anchor="middle" x="270.013" y="-473.549" font-family="Monaco" font-size="10.00">ComponentInfo</text>
<polyline fill="none" stroke="black" points="196.002,-464.214 344.024,-464.214 "/>
<text text-anchor="start" x="204.002" y="-452.214" font-family="Monaco" font-size="10.00"># m_name</text>
<text text-anchor="start" x="204.002" y="-438.879" font-family="Monaco" font-size="10.00"># m_iconFilePath</text>
<text text-anchor="start" x="204.002" y="-425.544" font-family="Monaco" font-size="10.00"># m_vendor</text>
<text text-anchor="start" x="204.002" y="-412.209" font-family="Monaco" font-size="10.00"># m_license</text>
<text text-anchor="start" x="204.002" y="-398.874" font-family="Monaco" font-size="10.00"># m_copyright</text>
<text text-anchor="start" x="204.002" y="-385.539" font-family="Monaco" font-size="10.00"># m_url</text>
<text text-anchor="start" x="204.002" y="-372.204" font-family="Monaco" font-size="10.00"># m_email</text>
<text text-anchor="start" x="204.002" y="-358.869" font-family="Monaco" font-size="10.00"># m_version</text>
<text text-anchor="start" x="204.002" y="-345.534" font-family="Monaco" font-size="10.00"># m_category</text>
<text text-anchor="start" x="204.002" y="-332.199" font-family="Monaco" font-size="10.00"># m_filePath</text>
<text text-anchor="start" x="204.002" y="-318.864" font-family="Monaco" font-size="10.00"># m_publications</text>
<polyline fill="none" stroke="black" points="196.002,-309.529 344.024,-309.529 "/>
<text text-anchor="start" x="204.002" y="-297.529" font-family="Monaco" font-size="10.00">+ ComponentInfo()</text>
<text text-anchor="start" x="204.002" y="-284.194" font-family="Monaco" font-size="10.00">+ ~ComponentInfo()</text>
<text text-anchor="start" x="204.002" y="-270.859" font-family="Monaco" font-size="10.00">+ name()</text>
<text text-anchor="start" x="204.002" y="-257.524" font-family="Monaco" font-size="10.00">+ libraryFilePath()</text>
<text text-anchor="start" x="204.002" y="-244.189" font-family="Monaco" font-size="10.00">+ setLibraryFilePath()</text>
<text text-anchor="start" x="204.002" y="-230.854" font-family="Monaco" font-size="10.00">+ iconFilePath()</text>
<text text-anchor="start" x="204.002" y="-217.52" font-family="Monaco" font-size="10.00">+ vendor()</text>
<text text-anchor="start" x="204.002" y="-204.185" font-family="Monaco" font-size="10.00">+ publications()</text>
<text text-anchor="start" x="204.002" y="-190.85" font-family="Monaco" font-size="10.00">+ license()</text>
<text text-anchor="start" x="204.002" y="-177.515" font-family="Monaco" font-size="10.00">+ copyright()</text>
<text text-anchor="start" x="204.002" y="-164.18" font-family="Monaco" font-size="10.00">+ url()</text>
<text text-anchor="start" x="204.002" y="-150.845" font-family="Monaco" font-size="10.00">+ email()</text>
<text text-anchor="start" x="204.002" y="-137.51" font-family="Monaco" font-size="10.00">+ version()</text>
<text text-anchor="start" x="204.002" y="-124.175" font-family="Monaco" font-size="10.00">+ category()</text>
<text text-anchor="start" x="204.002" y="-110.84" font-family="Monaco" font-size="10.00">+ hasValidLicense()</text>
</a>
</g>
</g>
<!-- Node1&#45;&gt;Node8 -->
<g id="edge8" class="edge"><title>Node1&#45;&gt;Node8</title>
<path fill="none" stroke="midnightblue" d="M200.466,-512.87C203.222,-504.218 206.143,-495.048 209.166,-485.557"/>
<polygon fill="none" stroke="midnightblue" points="197.129,-511.816 197.428,-522.407 203.798,-513.941 197.129,-511.816"/>
</g>
<!-- Node2 -->
<g id="node2" class="node"><title>Node2</title>
<g id="a_node2"><a xlink:href="class_description.html" target="_top" xlink:title="The Description class. ">
<polygon fill="white" stroke="black" points="40.0044,-676.894 40.0044,-860.913 164.022,-860.913 164.022,-676.894 40.0044,-676.894"/>
<text text-anchor="middle" x="102.013" y="-848.913" font-family="Monaco" font-size="10.00">Description</text>
<polyline fill="none" stroke="black" points="40.0044,-839.578 164.022,-839.578 "/>
<text text-anchor="start" x="48.0044" y="-827.578" font-family="Monaco" font-size="10.00">+ Caption</text>
<text text-anchor="start" x="48.0044" y="-814.243" font-family="Monaco" font-size="10.00">+ Description</text>
<text text-anchor="start" x="48.0044" y="-800.908" font-family="Monaco" font-size="10.00"># m_caption</text>
<text text-anchor="start" x="48.0044" y="-787.573" font-family="Monaco" font-size="10.00"># m_description</text>
<polyline fill="none" stroke="black" points="40.0044,-778.238 164.022,-778.238 "/>
<text text-anchor="start" x="48.0044" y="-766.238" font-family="Monaco" font-size="10.00">+ Description()</text>
<text text-anchor="start" x="48.0044" y="-752.903" font-family="Monaco" font-size="10.00">+ Description()</text>
<text text-anchor="start" x="48.0044" y="-739.568" font-family="Monaco" font-size="10.00">+ ~Description()</text>
<text text-anchor="start" x="48.0044" y="-726.233" font-family="Monaco" font-size="10.00">+ getCaption()</text>
<text text-anchor="start" x="48.0044" y="-712.898" font-family="Monaco" font-size="10.00">+ setCaption()</text>
<text text-anchor="start" x="48.0044" y="-699.563" font-family="Monaco" font-size="10.00">+ getDescription()</text>
<text text-anchor="start" x="48.0044" y="-686.229" font-family="Monaco" font-size="10.00">+ setDescription()</text>
</a>
</g>
</g>
<!-- Node2&#45;&gt;Node1 -->
<g id="edge1" class="edge"><title>Node2&#45;&gt;Node1</title>
<path fill="none" stroke="midnightblue" d="M143.713,-667.346C147.581,-658.019 151.406,-648.796 155.029,-640.058"/>
<polygon fill="none" stroke="midnightblue" points="140.434,-666.116 139.836,-676.694 146.9,-668.798 140.434,-666.116"/>
</g>
<!-- Node3 -->
<g id="node3" class="node"><title>Node3</title>
<polygon fill="white" stroke="#bfbfbf" points="73.0098,-924.583 73.0098,-988.588 131.017,-988.588 131.017,-924.583 73.0098,-924.583"/>
<text text-anchor="middle" x="102.013" y="-976.588" font-family="Monaco" font-size="10.00">QObject</text>
<polyline fill="none" stroke="#bfbfbf" points="73.0098,-967.253 131.017,-967.253 "/>
<text text-anchor="middle" x="102.013" y="-955.253" font-family="Monaco" font-size="10.00"> </text>
<polyline fill="none" stroke="#bfbfbf" points="73.0098,-945.918 131.017,-945.918 "/>
<text text-anchor="middle" x="102.013" y="-933.918" font-family="Monaco" font-size="10.00"> </text>
</g>
<!-- Node3&#45;&gt;Node2 -->
<g id="edge2" class="edge"><title>Node3&#45;&gt;Node2</title>
<path fill="none" stroke="midnightblue" d="M102.013,-914.102C102.013,-898.357 102.013,-879.737 102.013,-861.2"/>
<polygon fill="none" stroke="midnightblue" points="98.5133,-914.506 102.013,-924.506 105.513,-914.506 98.5133,-914.506"/>
</g>
<!-- Node4 -->
<g id="node4" class="node"><title>Node4</title>
<g id="a_node4"><a xlink:href="class_hydro_couple_1_1_i_description.html" target="_top" xlink:title="IDescription interface class provides descriptive information on a HydroCouple object. ">
<polygon fill="white" stroke="black" points="161.001,-897.913 161.001,-1015.26 327.025,-1015.26 327.025,-897.913 161.001,-897.913"/>
<text text-anchor="middle" x="244.013" y="-1003.26" font-family="Monaco" font-size="10.00">HydroCouple::IDescription</text>
<polyline fill="none" stroke="black" points="161.001,-993.923 327.025,-993.923 "/>
<text text-anchor="middle" x="244.013" y="-981.923" font-family="Monaco" font-size="10.00"> </text>
<polyline fill="none" stroke="black" points="161.001,-972.588 327.025,-972.588 "/>
<text text-anchor="start" x="169.001" y="-960.588" font-family="Monaco" font-size="10.00">+ ~IDescription()</text>
<text text-anchor="start" x="169.001" y="-947.253" font-family="Monaco" font-size="10.00">+ getCaption()</text>
<text text-anchor="start" x="169.001" y="-933.918" font-family="Monaco" font-size="10.00">+ setCaption()</text>
<text text-anchor="start" x="169.001" y="-920.583" font-family="Monaco" font-size="10.00">+ getDescription()</text>
<text text-anchor="start" x="169.001" y="-907.248" font-family="Monaco" font-size="10.00">+ setDescription()</text>
</a>
</g>
</g>
<!-- Node4&#45;&gt;Node2 -->
<g id="edge3" class="edge"><title>Node4&#45;&gt;Node2</title>
<path fill="none" stroke="midnightblue" d="M193.666,-889.751C184.106,-877.249 173.998,-864.033 164.124,-851.12"/>
<polygon fill="none" stroke="midnightblue" points="191.007,-892.035 199.862,-897.852 196.567,-887.783 191.007,-892.035"/>
</g>
<!-- Node6 -->
<g id="node6" class="node"><title>Node6</title>
<g id="a_node6"><a xlink:href="class_hydro_couple_1_1_i_identity.html" target="_top" xlink:title="IIdentity interface class defines a method to get the Id of an HydroCouple entity. ">
<polygon fill="white" stroke="black" points="182.002,-730.233 182.002,-807.573 330.024,-807.573 330.024,-730.233 182.002,-730.233"/>
<text text-anchor="middle" x="256.013" y="-795.573" font-family="Monaco" font-size="10.00">HydroCouple::IIdentity</text>
<polyline fill="none" stroke="black" points="182.002,-786.238 330.024,-786.238 "/>
<text text-anchor="middle" x="256.013" y="-774.238" font-family="Monaco" font-size="10.00"> </text>
<polyline fill="none" stroke="black" points="182.002,-764.903 330.024,-764.903 "/>
<text text-anchor="start" x="190.002" y="-752.903" font-family="Monaco" font-size="10.00">+ ~IIdentity()</text>
<text text-anchor="start" x="190.002" y="-739.568" font-family="Monaco" font-size="10.00">+ id()</text>
</a>
</g>
</g>
<!-- Node4&#45;&gt;Node6 -->
<g id="edge6" class="edge"><title>Node4&#45;&gt;Node6</title>
<path fill="none" stroke="midnightblue" d="M248.402,-887.676C250.147,-860.681 252.087,-830.649 253.573,-807.668"/>
<polygon fill="none" stroke="midnightblue" points="244.897,-887.647 247.744,-897.852 251.882,-888.099 244.897,-887.647"/>
</g>
<!-- Node5 -->
<g id="node5" class="node"><title>Node5</title>
<g id="a_node5"><a xlink:href="class_hydro_couple_1_1_i_property_changed.html" target="_top" xlink:title="IPropertyChanged interface is used to emit signal/event when a property of an object changes...">
<polygon fill="white" stroke="black" points="148.999,-1052.26 148.999,-1116.26 339.027,-1116.26 339.027,-1052.26 148.999,-1052.26"/>
<text text-anchor="middle" x="244.013" y="-1104.26" font-family="Monaco" font-size="10.00">HydroCouple::IPropertyChanged</text>
<polyline fill="none" stroke="black" points="148.999,-1094.93 339.027,-1094.93 "/>
<text text-anchor="middle" x="244.013" y="-1082.93" font-family="Monaco" font-size="10.00"> </text>
<polyline fill="none" stroke="black" points="148.999,-1073.59 339.027,-1073.59 "/>
<text text-anchor="start" x="156.999" y="-1061.59" font-family="Monaco" font-size="10.00">+ ~IPropertyChanged()</text>
</a>
</g>
</g>
<!-- Node5&#45;&gt;Node4 -->
<g id="edge4" class="edge"><title>Node5&#45;&gt;Node4</title>
<path fill="none" stroke="midnightblue" d="M244.013,-1041.94C244.013,-1033.55 244.013,-1024.59 244.013,-1015.74"/>
<polygon fill="none" stroke="midnightblue" points="240.513,-1042.19 244.013,-1052.19 247.513,-1042.19 240.513,-1042.19"/>
</g>
<!-- Node6&#45;&gt;Node1 -->
<g id="edge5" class="edge"><title>Node6&#45;&gt;Node1</title>
<path fill="none" stroke="midnightblue" d="M236.329,-720.436C226.163,-695.922 213.677,-665.811 202.956,-639.958"/>
<polygon fill="none" stroke="midnightblue" points="233.182,-721.983 240.245,-729.88 239.648,-719.302 233.182,-721.983"/>
</g>
<!-- Node9 -->
<g id="node9" class="node"><title>Node9</title>
<g id="a_node9"><a xlink:href="class_model_component_info.html" target="_top" xlink:title="The ModelComponentInfo class. ">
<polygon fill="white" stroke="black" points="208.004,-0.5 208.004,-64.5049 332.022,-64.5049 332.022,-0.5 208.004,-0.5"/>
<text text-anchor="middle" x="270.013" y="-52.5049" font-family="Monaco" font-size="10.00">ModelComponentInfo</text>
<polyline fill="none" stroke="black" points="208.004,-43.1699 332.022,-43.1699 "/>
<text text-anchor="middle" x="270.013" y="-31.1699" font-family="Monaco" font-size="10.00"> </text>
<polyline fill="none" stroke="black" points="208.004,-21.835 332.022,-21.835 "/>
<text text-anchor="middle" x="270.013" y="-9.83496" font-family="Monaco" font-size="10.00"> </text>
</a>
</g>
</g>
<!-- Node8&#45;&gt;Node9 -->
<g id="edge9" class="edge"><title>Node8&#45;&gt;Node9</title>
<path fill="none" stroke="midnightblue" d="M270.013,-91.1552C270.013,-81.3452 270.013,-72.3401 270.013,-64.5086"/>
<polygon fill="none" stroke="midnightblue" points="266.513,-91.2197 270.013,-101.22 273.513,-91.2198 266.513,-91.2197"/>
</g>
</g>
</svg>
        <g id="navigator" transform="translate(0 0)" fill="#404254">
                <rect fill="#f2f5e9" fill-opacity="0.5" stroke="#606060" stroke-width=".5" x="0" y="0" width="60" height="60"/>
                <use id="zoomplus" xlink:href="#zoomPlus" x="17" y="9" onmousedown="handleZoom(evt,'in')"/>
                <use id="zoomminus" xlink:href="#zoomMin" x="42" y="9" onmousedown="handleZoom(evt,'out')"/>
                <use id="reset" xlink:href="#resetDef" x="30" y="36" onmousedown="handleReset()"/>
                <g id="arrowUp" xlink:href="#dirArrow" transform="translate(30 24)" onmousedown="handlePan(0,-1)">
                  <use xlink:href="#rim" fill="#404040">
                        <set attributeName="fill" to="#808080" begin="arrowUp.mouseover" end="arrowUp.mouseout"/>
                  </use>
                  <path fill="none" stroke="white" stroke-width="1.5" d="M0,-3.0v7 M-2.5,-0.5L0,-3.0L2.5,-0.5"/>
                </g>
                <g id="arrowRight" xlink:href="#dirArrow" transform="rotate(90) translate(36 -43)" onmousedown="handlePan(1,0)">
                  <use xlink:href="#rim" fill="#404040">
                        <set attributeName="fill" to="#808080" begin="arrowRight.mouseover" end="arrowRight.mouseout"/>
                  </use>
                  <path fill="none" stroke="white" stroke-width="1.5" d="M0,-3.0v7 M-2.5,-0.5L0,-3.0L2.5,-0.5"/>
                </g>
                <g id="arrowDown" xlink:href="#dirArrow" transform="rotate(180) translate(-30 -48)" onmousedown="handlePan(0,1)">
                  <use xlink:href="#rim" fill="#404040">
                        <set attributeName="fill" to="#808080" begin="arrowDown.mouseover" end="arrowDown.mouseout"/>
                  </use>
                  <path fill="none" stroke="white" stroke-width="1.5" d="M0,-3.0v7 M-2.5,-0.5L0,-3.0L2.5,-0.5"/>
                </g>
                <g id="arrowLeft" xlink:href="#dirArrow" transform="rotate(270) translate(-36 17)" onmousedown="handlePan(-1,0)">
                  <use xlink:href="#rim" fill="#404040">
                        <set attributeName="fill" to="#808080" begin="arrowLeft.mouseover" end="arrowLeft.mouseout"/>
                  </use>
                  <path fill="none" stroke="white" stroke-width="1.5" d="M0,-3.0v7 M-2.5,-0.5L0,-3.0L2.5,-0.5"/>
                </g>
        </g>
        <svg viewBox="0 0 15 15" width="100%" height="30px" preserveAspectRatio="xMaxYMin meet">
         <g id="arrow_out" transform="scale(0.3 0.3)">
          <a xlink:href="class_identity__inherit__graph_org.svg" target="_base">
           <rect id="button" ry="5" rx="5" y="6" x="6" height="38" width="38"
                fill="#f2f5e9" fill-opacity="0.5" stroke="#606060" stroke-width="1.0"/>
           <path id="arrow"
             d="M 11.500037,31.436501 C 11.940474,20.09759 22.043105,11.32322 32.158766,21.979434 L 37.068811,17.246167 C 37.068811,17.246167 37.088388,32 37.088388,32 L 22.160133,31.978069 C 22.160133,31.978069 26.997745,27.140456 26.997745,27.140456 C 18.528582,18.264221 13.291696,25.230495 11.500037,31.436501 z"
             style="fill:#404040;"/>
          </a>
         </g>
        </svg>
</svg>
