<?xml version="1.0" encoding="UTF-8" standalone="no"?>
<!DOCTYPE svg PUBLIC "-//W3C//DTD SVG 1.1//EN"
 "http://www.w3.org/Graphics/SVG/1.1/DTD/svg11.dtd">
<!-- Generated by graphviz version 2.38.0 (20140413.2041)
 -->
<!-- Title: HydroCouple::SpatioTemporal::ITimePolyhedralSurfaceComponentItem Pages: 1 -->
<svg width="502pt" height="946pt"
 viewBox="0.00 0.00 502.04 945.73" xmlns="http://www.w3.org/2000/svg" xmlns:xlink="http://www.w3.org/1999/xlink">
<g id="graph0" class="graph" transform="scale(1 1) rotate(0) translate(4 941.733)">
<title>HydroCouple::SpatioTemporal::ITimePolyhedralSurfaceComponentItem</title>
<polygon fill="white" stroke="none" points="-4,4 -4,-941.733 498.036,-941.733 498.036,4 -4,4"/>
<!-- Node1 -->
<g id="node1" class="node"><title>Node1</title>
<polygon fill="#bfbfbf" stroke="black" points="112.998,-154.845 112.998,-232.185 369.037,-232.185 369.037,-154.845 112.998,-154.845"/>
<text text-anchor="start" x="120.998" y="-220.185" font-family="Monaco" font-size="10.00">HydroCouple::SpatioTemporal</text>
<text text-anchor="middle" x="241.017" y="-206.85" font-family="Monaco" font-size="10.00">::ITimePolyhedralSurfaceComponentItem</text>
<polyline fill="none" stroke="black" points="112.998,-197.515 369.037,-197.515 "/>
<text text-anchor="middle" x="241.017" y="-185.515" font-family="Monaco" font-size="10.00"> </text>
<polyline fill="none" stroke="black" points="112.998,-176.18 369.037,-176.18 "/>
<text text-anchor="start" x="120.998" y="-164.18" font-family="Monaco" font-size="10.00">+ ~ITimePolyhedralSurfaceComponentItem()</text>
</g>
<!-- Node8 -->
<g id="node8" class="node"><title>Node8</title>
<g id="a_node8"><a xlink:href="class_hydro_couple_1_1_spatio_temporal_1_1_i_time_polyhedral_surface_argument.html" target="_top" xlink:title="The ITimePolyhedralSurfaceArgument class. ">
<polygon fill="white" stroke="black" points="0,-0.5 0,-117.845 226.034,-117.845 226.034,-0.5 0,-0.5"/>
<text text-anchor="start" x="8" y="-105.845" font-family="Monaco" font-size="10.00">HydroCouple::SpatioTemporal</text>
<text text-anchor="middle" x="113.017" y="-92.5098" font-family="Monaco" font-size="10.00">::ITimePolyhedralSurfaceArgument</text>
<polyline fill="none" stroke="black" points="0,-83.1748 226.034,-83.1748 "/>
<text text-anchor="middle" x="113.017" y="-71.1748" font-family="Monaco" font-size="10.00"> </text>
<polyline fill="none" stroke="black" points="0,-61.8398 226.034,-61.8398 "/>
<text text-anchor="start" x="8" y="-49.8398" font-family="Monaco" font-size="10.00">+ ~ITimePolyhedralSurfaceArgument()</text>
<text text-anchor="start" x="8" y="-36.5049" font-family="Monaco" font-size="10.00">+ setTimes()</text>
<text text-anchor="start" x="8" y="-23.1699" font-family="Monaco" font-size="10.00">+ setPolyhedralSurface()</text>
<text text-anchor="start" x="8" y="-9.83496" font-family="Monaco" font-size="10.00">+ timePatchValueSets()</text>
</a>
</g>
</g>
<!-- Node1&#45;&gt;Node8 -->
<g id="edge8" class="edge"><title>Node1&#45;&gt;Node8</title>
<path fill="none" stroke="midnightblue" d="M197.162,-147.172C188.031,-137.731 178.292,-127.661 168.798,-117.845"/>
<polygon fill="none" stroke="midnightblue" points="194.869,-149.836 204.337,-154.591 199.901,-144.969 194.869,-149.836"/>
</g>
<!-- Node9 -->
<g id="node9" class="node"><title>Node9</title>
<g id="a_node9"><a xlink:href="class_hydro_couple_1_1_spatio_temporal_1_1_i_time_polyhedral_surface_exchange_item.html" target="_top" xlink:title="The ITimePolyhedralSurfaceExchangeItem class. ">
<polygon fill="white" stroke="black" points="243.998,-13.835 243.998,-104.51 494.036,-104.51 494.036,-13.835 243.998,-13.835"/>
<text text-anchor="start" x="251.998" y="-92.5098" font-family="Monaco" font-size="10.00">HydroCouple::SpatioTemporal</text>
<text text-anchor="middle" x="369.017" y="-79.1748" font-family="Monaco" font-size="10.00">::ITimePolyhedralSurfaceExchangeItem</text>
<polyline fill="none" stroke="black" points="243.998,-69.8398 494.036,-69.8398 "/>
<text text-anchor="middle" x="369.017" y="-57.8398" font-family="Monaco" font-size="10.00"> </text>
<polyline fill="none" stroke="black" points="243.998,-48.5049 494.036,-48.5049 "/>
<text text-anchor="start" x="251.998" y="-36.5049" font-family="Monaco" font-size="10.00">+ ~ITimePolyhedralSurfaceExchangeItem()</text>
<text text-anchor="start" x="251.998" y="-23.1699" font-family="Monaco" font-size="10.00">+ timePolyhedralSurfaceValues()</text>
</a>
</g>
</g>
<!-- Node1&#45;&gt;Node9 -->
<g id="edge9" class="edge"><title>Node1&#45;&gt;Node9</title>
<path fill="none" stroke="midnightblue" d="M284.927,-147.116C298.208,-133.383 312.774,-118.323 325.997,-104.652"/>
<polygon fill="none" stroke="midnightblue" points="282.133,-144.969 277.697,-154.591 287.165,-149.836 282.133,-144.969"/>
</g>
<!-- Node2 -->
<g id="node2" class="node"><title>Node2</title>
<g id="a_node2"><a xlink:href="class_hydro_couple_1_1_temporal_1_1_i_time_component_item.html" target="_top" xlink:title="ITimeComponentItem is an IComponentItem with a temporal attribute. ">
<polygon fill="white" stroke="black" points="59.0059,-269.185 59.0059,-399.864 213.028,-399.864 213.028,-269.185 59.0059,-269.185"/>
<text text-anchor="start" x="67.0059" y="-387.864" font-family="Monaco" font-size="10.00">HydroCouple::Temporal</text>
<text text-anchor="middle" x="136.017" y="-374.529" font-family="Monaco" font-size="10.00">::ITimeComponentItem</text>
<polyline fill="none" stroke="black" points="59.0059,-365.194 213.028,-365.194 "/>
<text text-anchor="middle" x="136.017" y="-353.194" font-family="Monaco" font-size="10.00"> </text>
<polyline fill="none" stroke="black" points="59.0059,-343.859 213.028,-343.859 "/>
<text text-anchor="start" x="67.0059" y="-331.859" font-family="Monaco" font-size="10.00">+ ~ITimeComponentItem()</text>
<text text-anchor="start" x="67.0059" y="-318.524" font-family="Monaco" font-size="10.00">+ timeDimension()</text>
<text text-anchor="start" x="67.0059" y="-305.189" font-family="Monaco" font-size="10.00">+ times()</text>
<text text-anchor="start" x="67.0059" y="-291.854" font-family="Monaco" font-size="10.00">+ timeSpan()</text>
<text text-anchor="start" x="67.0059" y="-278.52" font-family="Monaco" font-size="10.00">+ time()</text>
</a>
</g>
</g>
<!-- Node2&#45;&gt;Node1 -->
<g id="edge1" class="edge"><title>Node2&#45;&gt;Node1</title>
<path fill="none" stroke="midnightblue" d="M191.024,-260.701C198.397,-250.94 205.703,-241.267 212.36,-232.454"/>
<polygon fill="none" stroke="midnightblue" points="188.063,-258.814 184.828,-268.903 193.649,-263.033 188.063,-258.814"/>
</g>
<!-- Node3 -->
<g id="node3" class="node"><title>Node3</title>
<g id="a_node3"><a xlink:href="class_hydro_couple_1_1_i_component_item.html" target="_top" xlink:title="IComponentItem is a fundamental unit of data for a component. ">
<polygon fill="white" stroke="black" points="152.004,-436.864 152.004,-540.874 330.03,-540.874 330.03,-436.864 152.004,-436.864"/>
<text text-anchor="middle" x="241.017" y="-528.874" font-family="Monaco" font-size="10.00">HydroCouple::IComponentItem</text>
<polyline fill="none" stroke="black" points="152.004,-519.539 330.03,-519.539 "/>
<text text-anchor="middle" x="241.017" y="-507.539" font-family="Monaco" font-size="10.00"> </text>
<polyline fill="none" stroke="black" points="152.004,-498.204 330.03,-498.204 "/>
<text text-anchor="start" x="160.004" y="-486.204" font-family="Monaco" font-size="10.00">+ ~IComponentItem()</text>
<text text-anchor="start" x="160.004" y="-472.869" font-family="Monaco" font-size="10.00">+ modelComponent()</text>
<text text-anchor="start" x="160.004" y="-459.534" font-family="Monaco" font-size="10.00">+ modelComponentId()</text>
<text text-anchor="start" x="160.004" y="-446.199" font-family="Monaco" font-size="10.00">+ dimensions()</text>
</a>
</g>
</g>
<!-- Node3&#45;&gt;Node2 -->
<g id="edge2" class="edge"><title>Node3&#45;&gt;Node2</title>
<path fill="none" stroke="midnightblue" d="M199.974,-428.32C193.587,-419.053 186.963,-409.442 180.504,-400.07"/>
<polygon fill="none" stroke="midnightblue" points="197.205,-430.469 205.762,-436.717 202.968,-426.497 197.205,-430.469"/>
</g>
<!-- Node7 -->
<g id="node7" class="node"><title>Node7</title>
<g id="a_node7"><a xlink:href="class_hydro_couple_1_1_spatial_1_1_i_polyhedral_surface_component_item.html" target="_top" xlink:title="IPolyhedralSurfaceComponentItem represents IPolyhedralSurface IComponentItem. ">
<polygon fill="white" stroke="black" points="231,-275.852 231,-393.197 463.035,-393.197 463.035,-275.852 231,-275.852"/>
<text text-anchor="start" x="239" y="-381.197" font-family="Monaco" font-size="10.00">HydroCouple::Spatial</text>
<text text-anchor="middle" x="347.017" y="-367.862" font-family="Monaco" font-size="10.00">::IPolyhedralSurfaceComponentItem</text>
<polyline fill="none" stroke="black" points="231,-358.527 463.035,-358.527 "/>
<text text-anchor="middle" x="347.017" y="-346.527" font-family="Monaco" font-size="10.00"> </text>
<polyline fill="none" stroke="black" points="231,-337.192 463.035,-337.192 "/>
<text text-anchor="start" x="239" y="-325.192" font-family="Monaco" font-size="10.00">+ ~IPolyhedralSurfaceComponentItem()</text>
<text text-anchor="start" x="239" y="-311.857" font-family="Monaco" font-size="10.00">+ patchDimension()</text>
<text text-anchor="start" x="239" y="-298.522" font-family="Monaco" font-size="10.00">+ polyhedralSurface()</text>
<text text-anchor="start" x="239" y="-285.187" font-family="Monaco" font-size="10.00">+ geometry()</text>
</a>
</g>
</g>
<!-- Node3&#45;&gt;Node7 -->
<g id="edge7" class="edge"><title>Node3&#45;&gt;Node7</title>
<path fill="none" stroke="midnightblue" d="M282.371,-428.435C290.391,-416.909 298.785,-404.844 306.769,-393.37"/>
<polygon fill="none" stroke="midnightblue" points="279.447,-426.509 276.608,-436.717 285.193,-430.507 279.447,-426.509"/>
</g>
<!-- Node4 -->
<g id="node4" class="node"><title>Node4</title>
<g id="a_node4"><a xlink:href="class_hydro_couple_1_1_i_identity.html" target="_top" xlink:title="IIdentity interface class defines a method to get the Id of an HydroCouple entity. ">
<polygon fill="white" stroke="black" points="167.006,-577.874 167.006,-681.884 315.028,-681.884 315.028,-577.874 167.006,-577.874"/>
<text text-anchor="middle" x="241.017" y="-669.884" font-family="Monaco" font-size="10.00">HydroCouple::IIdentity</text>
<polyline fill="none" stroke="black" points="167.006,-660.549 315.028,-660.549 "/>
<text text-anchor="middle" x="241.017" y="-648.549" font-family="Monaco" font-size="10.00"> </text>
<polyline fill="none" stroke="black" points="167.006,-639.214 315.028,-639.214 "/>
<text text-anchor="start" x="175.006" y="-627.214" font-family="Monaco" font-size="10.00">+ ~IIdentity()</text>
<text text-anchor="start" x="175.006" y="-613.879" font-family="Monaco" font-size="10.00">+ MPI_Comm()</text>
<text text-anchor="start" x="175.006" y="-600.544" font-family="Monaco" font-size="10.00">+ MPI_Rank()</text>
<text text-anchor="start" x="175.006" y="-587.209" font-family="Monaco" font-size="10.00">+ id()</text>
</a>
</g>
</g>
<!-- Node4&#45;&gt;Node3 -->
<g id="edge3" class="edge"><title>Node4&#45;&gt;Node3</title>
<path fill="none" stroke="midnightblue" d="M241.017,-567.315C241.017,-558.533 241.017,-549.579 241.017,-541.025"/>
<polygon fill="none" stroke="midnightblue" points="237.517,-567.512 241.017,-577.512 244.517,-567.512 237.517,-567.512"/>
</g>
<!-- Node5 -->
<g id="node5" class="node"><title>Node5</title>
<g id="a_node5"><a xlink:href="class_hydro_couple_1_1_i_description.html" target="_top" xlink:title="IDescription interface class provides descriptive information on a HydroCouple object. ">
<polygon fill="white" stroke="black" points="158.005,-718.884 158.005,-836.229 324.029,-836.229 324.029,-718.884 158.005,-718.884"/>
<text text-anchor="middle" x="241.017" y="-824.229" font-family="Monaco" font-size="10.00">HydroCouple::IDescription</text>
<polyline fill="none" stroke="black" points="158.005,-814.894 324.029,-814.894 "/>
<text text-anchor="middle" x="241.017" y="-802.894" font-family="Monaco" font-size="10.00"> </text>
<polyline fill="none" stroke="black" points="158.005,-793.559 324.029,-793.559 "/>
<text text-anchor="start" x="166.005" y="-781.559" font-family="Monaco" font-size="10.00">+ ~IDescription()</text>
<text text-anchor="start" x="166.005" y="-768.224" font-family="Monaco" font-size="10.00">+ getCaption()</text>
<text text-anchor="start" x="166.005" y="-754.889" font-family="Monaco" font-size="10.00">+ setCaption()</text>
<text text-anchor="start" x="166.005" y="-741.554" font-family="Monaco" font-size="10.00">+ getDescription()</text>
<text text-anchor="start" x="166.005" y="-728.219" font-family="Monaco" font-size="10.00">+ setDescription()</text>
</a>
</g>
</g>
<!-- Node5&#45;&gt;Node4 -->
<g id="edge4" class="edge"><title>Node5&#45;&gt;Node4</title>
<path fill="none" stroke="midnightblue" d="M241.017,-708.283C241.017,-699.465 241.017,-690.557 241.017,-682.079"/>
<polygon fill="none" stroke="midnightblue" points="237.517,-708.562 241.017,-718.562 244.517,-708.562 237.517,-708.562"/>
</g>
<!-- Node6 -->
<g id="node6" class="node"><title>Node6</title>
<g id="a_node6"><a xlink:href="class_hydro_couple_1_1_i_property_changed.html" target="_top" xlink:title="IPropertyChanged interface is used to emit signal/event when a property of an object changes...">
<polygon fill="white" stroke="black" points="146.003,-873.229 146.003,-937.233 336.031,-937.233 336.031,-873.229 146.003,-873.229"/>
<text text-anchor="middle" x="241.017" y="-925.233" font-family="Monaco" font-size="10.00">HydroCouple::IPropertyChanged</text>
<polyline fill="none" stroke="black" points="146.003,-915.898 336.031,-915.898 "/>
<text text-anchor="middle" x="241.017" y="-903.898" font-family="Monaco" font-size="10.00"> </text>
<polyline fill="none" stroke="black" points="146.003,-894.563 336.031,-894.563 "/>
<text text-anchor="start" x="154.003" y="-882.563" font-family="Monaco" font-size="10.00">+ ~IPropertyChanged()</text>
</a>
</g>
</g>
<!-- Node6&#45;&gt;Node5 -->
<g id="edge5" class="edge"><title>Node6&#45;&gt;Node5</title>
<path fill="none" stroke="midnightblue" d="M241.017,-862.908C241.017,-854.523 241.017,-845.557 241.017,-836.715"/>
<polygon fill="none" stroke="midnightblue" points="237.517,-863.165 241.017,-873.165 244.517,-863.165 237.517,-863.165"/>
</g>
<!-- Node7&#45;&gt;Node1 -->
<g id="edge6" class="edge"><title>Node7&#45;&gt;Node1</title>
<path fill="none" stroke="midnightblue" d="M296.669,-267.498C287.503,-255.477 278.231,-243.318 269.954,-232.462"/>
<polygon fill="none" stroke="midnightblue" points="294.138,-269.95 302.984,-275.779 299.704,-265.705 294.138,-269.95"/>
</g>
</g>
</svg>
