<?xml version="1.0" encoding="UTF-8" standalone="no"?>
<!DOCTYPE svg PUBLIC "-//W3C//DTD SVG 1.1//EN"
 "http://www.w3.org/Graphics/SVG/1.1/DTD/svg11.dtd">
<!-- Generated by graphviz version 2.38.0 (20140413.2041)
 -->
<!-- Title: HydroCouple::Temporal::ITimeArgument Pages: 1 -->
<!--zoomable 1026 -->
<svg id="main" version="1.1" xmlns="http://www.w3.org/2000/svg" xmlns:xlink="http://www.w3.org/1999/xlink" xml:space="preserve" onload="init(evt)">
<style type="text/css"><![CDATA[
.edge:hover path { stroke: red; }
.edge:hover polygon { stroke: red; fill: red; }
]]></style>
<script type="text/javascript"><![CDATA[
var edges = document.getElementsByTagName('g');
if (edges && edges.length) {
  for (var i=0;i<edges.length;i++) {
    if (edges[i].id.substr(0,4)=='edge') {
      edges[i].setAttribute('class','edge');
    }
  }
}
]]></script>
        <defs>
                <circle id="rim" cx="0" cy="0" r="7"/>
                <circle id="rim2" cx="0" cy="0" r="3.5"/>
                <g id="zoomPlus">
                        <use xlink:href="#rim" fill="#404040">
                                <set attributeName="fill" to="#808080" begin="zoomplus.mouseover" end="zoomplus.mouseout"/>
                        </use>
                        <path d="M-4,0h8M0,-4v8" fill="none" stroke="white" stroke-width="1.5" pointer-events="none"/>
                </g>
                <g id="zoomMin">
                        <use xlink:href="#rim" fill="#404040">
                                <set attributeName="fill" to="#808080" begin="zoomminus.mouseover" end="zoomminus.mouseout"/>
                        </use>
                        <path d="M-4,0h8" fill="none" stroke="white" stroke-width="1.5" pointer-events="none"/>
                </g>
                <g id="dirArrow">
                        <path fill="none" stroke="white" stroke-width="1.5" d="M0,-3.0v7 M-2.5,-0.5L0,-3.0L2.5,-0.5"/>
                </g>
               <g id="resetDef">
                       <use xlink:href="#rim2" fill="#404040">
                               <set attributeName="fill" to="#808080" begin="reset.mouseover" end="reset.mouseout"/>
                       </use>
               </g>
        </defs>

<script type="text/javascript">
var viewWidth = 370;
var viewHeight = 1026;
var sectionId = 'dynsection-0';
</script>
<script xlink:href="svgpan.js"/>
<svg id="graph" class="graph">
<g id="viewport">
<title>HydroCouple::Temporal::ITimeArgument</title>
<!-- Node1 -->
<g id="node1" class="node"><title>Node1</title>
<polygon fill="#bfbfbf" stroke="black" points="107.002,-114.84 107.002,-192.18 249.022,-192.18 249.022,-114.84 107.002,-114.84"/>
<text text-anchor="start" x="115.002" y="-180.18" font-family="Monaco" font-size="10.00">HydroCouple::Temporal</text>
<text text-anchor="middle" x="178.012" y="-166.845" font-family="Monaco" font-size="10.00">::ITimeArgument</text>
<polyline fill="none" stroke="black" points="107.002,-157.51 249.022,-157.51 "/>
<text text-anchor="middle" x="178.012" y="-145.51" font-family="Monaco" font-size="10.00"> </text>
<polyline fill="none" stroke="black" points="107.002,-136.175 249.022,-136.175 "/>
<text text-anchor="start" x="115.002" y="-124.175" font-family="Monaco" font-size="10.00">+ ~ITimeArgument()</text>
</g>
<!-- Node8 -->
<g id="node8" class="node"><title>Node8</title>
<g id="a_node8"><a xlink:href="class_hydro_couple_1_1_temporal_1_1_i_time_id_based_argument.html" target="_top" xlink:title="The ITimeSeriesIdBasedArgument class. ">
<polygon fill="none" stroke="black" points="95,-0.5 95,-77.8398 261.024,-77.8398 261.024,-0.5 95,-0.5"/>
<text text-anchor="start" x="103" y="-65.8398" font-family="Monaco" font-size="10.00">HydroCouple::Temporal</text>
<text text-anchor="middle" x="178.012" y="-52.5049" font-family="Monaco" font-size="10.00">::ITimeIdBasedArgument</text>
<polyline fill="none" stroke="black" points="95,-43.1699 261.024,-43.1699 "/>
<text text-anchor="middle" x="178.012" y="-31.1699" font-family="Monaco" font-size="10.00"> </text>
<polyline fill="none" stroke="black" points="95,-21.835 261.024,-21.835 "/>
<text text-anchor="start" x="103" y="-9.83496" font-family="Monaco" font-size="10.00">+ ~ITimeIdBasedArgument()</text>
</a>
</g>
</g>
<!-- Node1&#45;&gt;Node8 -->
<g id="edge8" class="edge"><title>Node1&#45;&gt;Node8</title>
<path fill="none" stroke="midnightblue" d="M178.012,-104.548C178.012,-95.6678 178.012,-86.5077 178.012,-77.9816"/>
<polygon fill="none" stroke="midnightblue" points="174.512,-104.79 178.012,-114.79 181.512,-104.79 174.512,-104.79"/>
</g>
<!-- Node2 -->
<g id="node2" class="node"><title>Node2</title>
<g id="a_node2"><a xlink:href="class_hydro_couple_1_1_i_argument.html" target="_top" xlink:title="IArgument interface class used to set the arguments for components. They can be complex or simple mul...">
<polygon fill="none" stroke="black" points="0,-235.847 0,-419.867 166.024,-419.867 166.024,-235.847 0,-235.847"/>
<text text-anchor="middle" x="83.0122" y="-407.867" font-family="Monaco" font-size="10.00">HydroCouple::IArgument</text>
<polyline fill="none" stroke="black" points="0,-398.532 166.024,-398.532 "/>
<text text-anchor="middle" x="83.0122" y="-386.532" font-family="Monaco" font-size="10.00"> </text>
<polyline fill="none" stroke="black" points="0,-377.197 166.024,-377.197 "/>
<text text-anchor="start" x="8" y="-365.197" font-family="Monaco" font-size="10.00">+ ~IArgument()</text>
<text text-anchor="start" x="8" y="-351.862" font-family="Monaco" font-size="10.00">+ isOptional()</text>
<text text-anchor="start" x="8" y="-338.527" font-family="Monaco" font-size="10.00">+ isReadOnly()</text>
<text text-anchor="start" x="8" y="-325.192" font-family="Monaco" font-size="10.00">+ toString()</text>
<text text-anchor="start" x="8" y="-311.857" font-family="Monaco" font-size="10.00">+ inputFileTypeFilters()</text>
<text text-anchor="start" x="8" y="-298.522" font-family="Monaco" font-size="10.00">+ canReadFromFile()</text>
<text text-anchor="start" x="8" y="-285.187" font-family="Monaco" font-size="10.00">+ canReadFromString()</text>
<text text-anchor="start" x="8" y="-271.852" font-family="Monaco" font-size="10.00">+ currentArgumentIOType()</text>
<text text-anchor="start" x="8" y="-258.517" font-family="Monaco" font-size="10.00">+ readValues()</text>
<text text-anchor="start" x="8" y="-245.182" font-family="Monaco" font-size="10.00">+ readValues()</text>
</a>
</g>
</g>
<!-- Node2&#45;&gt;Node1 -->
<g id="edge1" class="edge"><title>Node2&#45;&gt;Node1</title>
<path fill="none" stroke="midnightblue" d="M138.227,-226.687C144.962,-214.469 151.484,-202.637 157.232,-192.209"/>
<polygon fill="none" stroke="midnightblue" points="135.056,-225.189 133.294,-235.637 141.187,-228.569 135.056,-225.189"/>
</g>
<!-- Node3 -->
<g id="node3" class="node"><title>Node3</title>
<g id="a_node3"><a xlink:href="class_hydro_couple_1_1_i_component_data_item.html" target="_top" xlink:title="IComponentItem is a fundamental unit of data for a component. ">
<polygon fill="none" stroke="black" points="76.9971,-463.534 76.9971,-647.554 279.027,-647.554 279.027,-463.534 76.9971,-463.534"/>
<text text-anchor="middle" x="178.012" y="-635.554" font-family="Monaco" font-size="10.00">HydroCouple::IComponentDataItem</text>
<polyline fill="none" stroke="black" points="76.9971,-626.219 279.027,-626.219 "/>
<text text-anchor="middle" x="178.012" y="-614.219" font-family="Monaco" font-size="10.00"> </text>
<polyline fill="none" stroke="black" points="76.9971,-604.884 279.027,-604.884 "/>
<text text-anchor="start" x="84.9971" y="-592.884" font-family="Monaco" font-size="10.00">+ ~IComponentDataItem()</text>
<text text-anchor="start" x="84.9971" y="-579.549" font-family="Monaco" font-size="10.00">+ modelComponent()</text>
<text text-anchor="start" x="84.9971" y="-566.214" font-family="Monaco" font-size="10.00">+ dimensions()</text>
<text text-anchor="start" x="84.9971" y="-552.879" font-family="Monaco" font-size="10.00">+ valueDefinition()</text>
<text text-anchor="start" x="84.9971" y="-539.544" font-family="Monaco" font-size="10.00">+ getValue()</text>
<text text-anchor="start" x="84.9971" y="-526.209" font-family="Monaco" font-size="10.00">+ getValues()</text>
<text text-anchor="start" x="84.9971" y="-512.874" font-family="Monaco" font-size="10.00">+ getValues()</text>
<text text-anchor="start" x="84.9971" y="-499.539" font-family="Monaco" font-size="10.00">+ setValue()</text>
<text text-anchor="start" x="84.9971" y="-486.204" font-family="Monaco" font-size="10.00">+ setValues()</text>
<text text-anchor="start" x="84.9971" y="-472.869" font-family="Monaco" font-size="10.00">+ setValues()</text>
</a>
</g>
</g>
<!-- Node3&#45;&gt;Node2 -->
<g id="edge2" class="edge"><title>Node3&#45;&gt;Node2</title>
<path fill="none" stroke="midnightblue" d="M135.667,-453.946C130.906,-442.635 126.074,-431.157 121.367,-419.975"/>
<polygon fill="none" stroke="midnightblue" points="132.54,-455.54 139.646,-463.399 138.992,-452.824 132.54,-455.54"/>
</g>
<!-- Node7 -->
<g id="node7" class="node"><title>Node7</title>
<g id="a_node7"><a xlink:href="class_hydro_couple_1_1_temporal_1_1_i_time_component_data_item.html" target="_top" xlink:title="ITimeComponentItem is an IComponentItem with a temporal attribute. This class cannot be directly inst...">
<polygon fill="none" stroke="black" points="183.999,-229.18 183.999,-426.534 362.025,-426.534 362.025,-229.18 183.999,-229.18"/>
<text text-anchor="start" x="191.999" y="-414.534" font-family="Monaco" font-size="10.00">HydroCouple::Temporal</text>
<text text-anchor="middle" x="273.012" y="-401.199" font-family="Monaco" font-size="10.00">::ITimeComponentDataItem</text>
<polyline fill="none" stroke="black" points="183.999,-391.864 362.025,-391.864 "/>
<text text-anchor="middle" x="273.012" y="-379.864" font-family="Monaco" font-size="10.00"> </text>
<polyline fill="none" stroke="black" points="183.999,-370.529 362.025,-370.529 "/>
<text text-anchor="start" x="191.999" y="-358.529" font-family="Monaco" font-size="10.00">+ ~ITimeComponentDataItem()</text>
<text text-anchor="start" x="191.999" y="-345.194" font-family="Monaco" font-size="10.00">+ times()</text>
<text text-anchor="start" x="191.999" y="-331.859" font-family="Monaco" font-size="10.00">+ timeSpan()</text>
<text text-anchor="start" x="191.999" y="-318.524" font-family="Monaco" font-size="10.00">+ timeDimension()</text>
<text text-anchor="start" x="191.999" y="-305.189" font-family="Monaco" font-size="10.00">+ getValue()</text>
<text text-anchor="start" x="191.999" y="-291.854" font-family="Monaco" font-size="10.00">+ getValues()</text>
<text text-anchor="start" x="191.999" y="-278.52" font-family="Monaco" font-size="10.00">+ getValues()</text>
<text text-anchor="start" x="191.999" y="-265.185" font-family="Monaco" font-size="10.00">+ setValue()</text>
<text text-anchor="start" x="191.999" y="-251.85" font-family="Monaco" font-size="10.00">+ setValues()</text>
<text text-anchor="start" x="191.999" y="-238.515" font-family="Monaco" font-size="10.00">+ setValues()</text>
</a>
</g>
</g>
<!-- Node3&#45;&gt;Node7 -->
<g id="edge7" class="edge"><title>Node3&#45;&gt;Node7</title>
<path fill="none" stroke="midnightblue" d="M220.346,-453.973C224.174,-444.88 228.047,-435.68 231.863,-426.612"/>
<polygon fill="none" stroke="midnightblue" points="217.032,-452.824 216.379,-463.399 223.484,-455.54 217.032,-452.824"/>
</g>
<!-- Node4 -->
<g id="node4" class="node"><title>Node4</title>
<g id="a_node4"><a xlink:href="class_hydro_couple_1_1_i_identity.html" target="_top" xlink:title="IIdentity interface class defines a method to get the Id of an HydroCouple entity. ">
<polygon fill="none" stroke="black" points="104.001,-684.554 104.001,-761.894 252.023,-761.894 252.023,-684.554 104.001,-684.554"/>
<text text-anchor="middle" x="178.012" y="-749.894" font-family="Monaco" font-size="10.00">HydroCouple::IIdentity</text>
<polyline fill="none" stroke="black" points="104.001,-740.559 252.023,-740.559 "/>
<text text-anchor="middle" x="178.012" y="-728.559" font-family="Monaco" font-size="10.00"> </text>
<polyline fill="none" stroke="black" points="104.001,-719.224 252.023,-719.224 "/>
<text text-anchor="start" x="112.001" y="-707.224" font-family="Monaco" font-size="10.00">+ ~IIdentity()</text>
<text text-anchor="start" x="112.001" y="-693.889" font-family="Monaco" font-size="10.00">+ id()</text>
</a>
</g>
</g>
<!-- Node4&#45;&gt;Node3 -->
<g id="edge3" class="edge"><title>Node4&#45;&gt;Node3</title>
<path fill="none" stroke="midnightblue" d="M178.012,-673.971C178.012,-665.618 178.012,-656.693 178.012,-647.635"/>
<polygon fill="none" stroke="midnightblue" points="174.512,-674.213 178.012,-684.213 181.512,-674.213 174.512,-674.213"/>
</g>
<!-- Node5 -->
<g id="node5" class="node"><title>Node5</title>
<g id="a_node5"><a xlink:href="class_hydro_couple_1_1_i_description.html" target="_top" xlink:title="IDescription interface class provides descriptive information on a HydroCouple object. ">
<polygon fill="none" stroke="black" points="95,-798.894 95,-916.238 261.024,-916.238 261.024,-798.894 95,-798.894"/>
<text text-anchor="middle" x="178.012" y="-904.238" font-family="Monaco" font-size="10.00">HydroCouple::IDescription</text>
<polyline fill="none" stroke="black" points="95,-894.903 261.024,-894.903 "/>
<text text-anchor="middle" x="178.012" y="-882.903" font-family="Monaco" font-size="10.00"> </text>
<polyline fill="none" stroke="black" points="95,-873.568 261.024,-873.568 "/>
<text text-anchor="start" x="103" y="-861.568" font-family="Monaco" font-size="10.00">+ ~IDescription()</text>
<text text-anchor="start" x="103" y="-848.233" font-family="Monaco" font-size="10.00">+ caption()</text>
<text text-anchor="start" x="103" y="-834.898" font-family="Monaco" font-size="10.00">+ setCaption()</text>
<text text-anchor="start" x="103" y="-821.563" font-family="Monaco" font-size="10.00">+ description()</text>
<text text-anchor="start" x="103" y="-808.229" font-family="Monaco" font-size="10.00">+ setDescription()</text>
</a>
</g>
</g>
<!-- Node5&#45;&gt;Node4 -->
<g id="edge4" class="edge"><title>Node5&#45;&gt;Node4</title>
<path fill="none" stroke="midnightblue" d="M178.012,-788.328C178.012,-779.289 178.012,-770.301 178.012,-762.041"/>
<polygon fill="none" stroke="midnightblue" points="174.512,-788.519 178.012,-798.519 181.512,-788.519 174.512,-788.519"/>
</g>
<!-- Node6 -->
<g id="node6" class="node"><title>Node6</title>
<g id="a_node6"><a xlink:href="class_hydro_couple_1_1_i_property_changed.html" target="_top" xlink:title="IPropertyChanged interface is used to emit signal/event when a property of an object changes...">
<polygon fill="none" stroke="black" points="82.998,-953.238 82.998,-1017.24 273.026,-1017.24 273.026,-953.238 82.998,-953.238"/>
<text text-anchor="middle" x="178.012" y="-1005.24" font-family="Monaco" font-size="10.00">HydroCouple::IPropertyChanged</text>
<polyline fill="none" stroke="black" points="82.998,-995.908 273.026,-995.908 "/>
<text text-anchor="middle" x="178.012" y="-983.908" font-family="Monaco" font-size="10.00"> </text>
<polyline fill="none" stroke="black" points="82.998,-974.573 273.026,-974.573 "/>
<text text-anchor="start" x="90.998" y="-962.573" font-family="Monaco" font-size="10.00">+ ~IPropertyChanged()</text>
</a>
</g>
</g>
<!-- Node6&#45;&gt;Node5 -->
<g id="edge5" class="edge"><title>Node6&#45;&gt;Node5</title>
<path fill="none" stroke="midnightblue" d="M178.012,-942.918C178.012,-934.533 178.012,-925.566 178.012,-916.724"/>
<polygon fill="none" stroke="midnightblue" points="174.512,-943.175 178.012,-953.175 181.512,-943.175 174.512,-943.175"/>
</g>
<!-- Node7&#45;&gt;Node1 -->
<g id="edge6" class="edge"><title>Node7&#45;&gt;Node1</title>
<path fill="none" stroke="midnightblue" d="M214.271,-220.289C208.797,-210.358 203.534,-200.81 198.796,-192.216"/>
<polygon fill="none" stroke="midnightblue" points="211.235,-222.033 219.128,-229.101 217.366,-218.654 211.235,-222.033"/>
</g>
</g>
</svg>
        <g id="navigator" transform="translate(0 0)" fill="#404254">
                <rect fill="#f2f5e9" fill-opacity="0.5" stroke="#606060" stroke-width=".5" x="0" y="0" width="60" height="60"/>
                <use id="zoomplus" xlink:href="#zoomPlus" x="17" y="9" onmousedown="handleZoom(evt,'in')"/>
                <use id="zoomminus" xlink:href="#zoomMin" x="42" y="9" onmousedown="handleZoom(evt,'out')"/>
                <use id="reset" xlink:href="#resetDef" x="30" y="36" onmousedown="handleReset()"/>
                <g id="arrowUp" xlink:href="#dirArrow" transform="translate(30 24)" onmousedown="handlePan(0,-1)">
                  <use xlink:href="#rim" fill="#404040">
                        <set attributeName="fill" to="#808080" begin="arrowUp.mouseover" end="arrowUp.mouseout"/>
                  </use>
                  <path fill="none" stroke="white" stroke-width="1.5" d="M0,-3.0v7 M-2.5,-0.5L0,-3.0L2.5,-0.5"/>
                </g>
                <g id="arrowRight" xlink:href="#dirArrow" transform="rotate(90) translate(36 -43)" onmousedown="handlePan(1,0)">
                  <use xlink:href="#rim" fill="#404040">
                        <set attributeName="fill" to="#808080" begin="arrowRight.mouseover" end="arrowRight.mouseout"/>
                  </use>
                  <path fill="none" stroke="white" stroke-width="1.5" d="M0,-3.0v7 M-2.5,-0.5L0,-3.0L2.5,-0.5"/>
                </g>
                <g id="arrowDown" xlink:href="#dirArrow" transform="rotate(180) translate(-30 -48)" onmousedown="handlePan(0,1)">
                  <use xlink:href="#rim" fill="#404040">
                        <set attributeName="fill" to="#808080" begin="arrowDown.mouseover" end="arrowDown.mouseout"/>
                  </use>
                  <path fill="none" stroke="white" stroke-width="1.5" d="M0,-3.0v7 M-2.5,-0.5L0,-3.0L2.5,-0.5"/>
                </g>
                <g id="arrowLeft" xlink:href="#dirArrow" transform="rotate(270) translate(-36 17)" onmousedown="handlePan(-1,0)">
                  <use xlink:href="#rim" fill="#404040">
                        <set attributeName="fill" to="#808080" begin="arrowLeft.mouseover" end="arrowLeft.mouseout"/>
                  </use>
                  <path fill="none" stroke="white" stroke-width="1.5" d="M0,-3.0v7 M-2.5,-0.5L0,-3.0L2.5,-0.5"/>
                </g>
        </g>
        <svg viewBox="0 0 15 15" width="100%" height="30px" preserveAspectRatio="xMaxYMin meet">
         <g id="arrow_out" transform="scale(0.3 0.3)">
          <a xlink:href="class_hydro_couple_1_1_temporal_1_1_i_time_argument__inherit__graph_org.svg" target="_base">
           <rect id="button" ry="5" rx="5" y="6" x="6" height="38" width="38"
                fill="#f2f5e9" fill-opacity="0.5" stroke="#606060" stroke-width="1.0"/>
           <path id="arrow"
             d="M 11.500037,31.436501 C 11.940474,20.09759 22.043105,11.32322 32.158766,21.979434 L 37.068811,17.246167 C 37.068811,17.246167 37.088388,32 37.088388,32 L 22.160133,31.978069 C 22.160133,31.978069 26.997745,27.140456 26.997745,27.140456 C 18.528582,18.264221 13.291696,25.230495 11.500037,31.436501 z"
             style="fill:#404040;"/>
          </a>
         </g>
        </svg>
</svg>
