<?xml version="1.0" encoding="UTF-8" standalone="no"?>
<!DOCTYPE svg PUBLIC "-//W3C//DTD SVG 1.1//EN"
 "http://www.w3.org/Graphics/SVG/1.1/DTD/svg11.dtd">
<!-- Generated by graphviz version 2.38.0 (20140413.2041)
 -->
<!-- Title: HydroCouple::SpatioTemporal::ITimeGeometryExchangeItem Pages: 1 -->
<svg width="605pt" height="1026pt"
 viewBox="0.00 0.00 605.03 1025.74" xmlns="http://www.w3.org/2000/svg" xmlns:xlink="http://www.w3.org/1999/xlink">
<g id="graph0" class="graph" transform="scale(1 1) rotate(0) translate(4 1021.74)">
<title>HydroCouple::SpatioTemporal::ITimeGeometryExchangeItem</title>
<!-- Node1 -->
<g id="node1" class="node"><title>Node1</title>
<polygon fill="#bfbfbf" stroke="black" points="220.002,-0.5 220.002,-77.8398 416.032,-77.8398 416.032,-0.5 220.002,-0.5"/>
<text text-anchor="start" x="228.002" y="-65.8398" font-family="Monaco" font-size="10.00">HydroCouple::SpatioTemporal</text>
<text text-anchor="middle" x="318.017" y="-52.5049" font-family="Monaco" font-size="10.00">::ITimeGeometryExchangeItem</text>
<polyline fill="none" stroke="black" points="220.002,-43.1699 416.032,-43.1699 "/>
<text text-anchor="middle" x="318.017" y="-31.1699" font-family="Monaco" font-size="10.00"> </text>
<polyline fill="none" stroke="black" points="220.002,-21.835 416.032,-21.835 "/>
<text text-anchor="start" x="228.002" y="-9.83496" font-family="Monaco" font-size="10.00">+ ~ITimeGeometryExchangeItem()</text>
</g>
<!-- Node2 -->
<g id="node2" class="node"><title>Node2</title>
<g id="a_node2"><a xlink:href="class_hydro_couple_1_1_spatio_temporal_1_1_i_time_geometry_component_data_item.html" target="_top" xlink:title="ITimeGeometryComponentItem represents an IComponentItem with both temporal and geometric components...">
<polygon fill="none" stroke="black" points="0,-114.84 0,-272.189 226.034,-272.189 226.034,-114.84 0,-114.84"/>
<text text-anchor="start" x="8" y="-260.189" font-family="Monaco" font-size="10.00">HydroCouple::SpatioTemporal</text>
<text text-anchor="middle" x="113.017" y="-246.854" font-family="Monaco" font-size="10.00">::ITimeGeometryComponentDataItem</text>
<polyline fill="none" stroke="black" points="0,-237.52 226.034,-237.52 "/>
<text text-anchor="middle" x="113.017" y="-225.52" font-family="Monaco" font-size="10.00"> </text>
<polyline fill="none" stroke="black" points="0,-216.185 226.034,-216.185 "/>
<text text-anchor="start" x="8" y="-204.185" font-family="Monaco" font-size="10.00">+ ~ITimeGeometryComponentDataItem()</text>
<text text-anchor="start" x="8" y="-190.85" font-family="Monaco" font-size="10.00">+ getValue()</text>
<text text-anchor="start" x="8" y="-177.515" font-family="Monaco" font-size="10.00">+ getValues()</text>
<text text-anchor="start" x="8" y="-164.18" font-family="Monaco" font-size="10.00">+ getValues()</text>
<text text-anchor="start" x="8" y="-150.845" font-family="Monaco" font-size="10.00">+ setValue()</text>
<text text-anchor="start" x="8" y="-137.51" font-family="Monaco" font-size="10.00">+ setValues()</text>
<text text-anchor="start" x="8" y="-124.175" font-family="Monaco" font-size="10.00">+ setValues()</text>
</a>
</g>
</g>
<!-- Node2&#45;&gt;Node1 -->
<g id="edge1" class="edge"><title>Node2&#45;&gt;Node1</title>
<path fill="none" stroke="midnightblue" d="M225.703,-108.773C240.217,-97.9868 254.456,-87.4054 267.24,-77.905"/>
<polygon fill="none" stroke="midnightblue" points="223.558,-106.006 217.619,-114.78 227.733,-111.625 223.558,-106.006"/>
</g>
<!-- Node3 -->
<g id="node3" class="node"><title>Node3</title>
<g id="a_node3"><a xlink:href="class_hydro_couple_1_1_temporal_1_1_i_time_component_data_item.html" target="_top" xlink:title="ITimeComponentItem is an IComponentItem with a temporal attribute. This class cannot be directly inst...">
<polygon fill="none" stroke="black" points="9.00391,-309.189 9.00391,-426.534 187.03,-426.534 187.03,-309.189 9.00391,-309.189"/>
<text text-anchor="start" x="17.0039" y="-414.534" font-family="Monaco" font-size="10.00">HydroCouple::Temporal</text>
<text text-anchor="middle" x="98.0171" y="-401.199" font-family="Monaco" font-size="10.00">::ITimeComponentDataItem</text>
<polyline fill="none" stroke="black" points="9.00391,-391.864 187.03,-391.864 "/>
<text text-anchor="middle" x="98.0171" y="-379.864" font-family="Monaco" font-size="10.00"> </text>
<polyline fill="none" stroke="black" points="9.00391,-370.529 187.03,-370.529 "/>
<text text-anchor="start" x="17.0039" y="-358.529" font-family="Monaco" font-size="10.00">+ ~ITimeComponentDataItem()</text>
<text text-anchor="start" x="17.0039" y="-345.194" font-family="Monaco" font-size="10.00">+ times()</text>
<text text-anchor="start" x="17.0039" y="-331.859" font-family="Monaco" font-size="10.00">+ timeSpan()</text>
<text text-anchor="start" x="17.0039" y="-318.524" font-family="Monaco" font-size="10.00">+ timeDimension()</text>
</a>
</g>
</g>
<!-- Node3&#45;&gt;Node2 -->
<g id="edge2" class="edge"><title>Node3&#45;&gt;Node2</title>
<path fill="none" stroke="midnightblue" d="M103.93,-298.928C104.686,-290.232 105.466,-281.277 106.235,-272.439"/>
<polygon fill="none" stroke="midnightblue" points="100.434,-298.727 103.054,-308.993 107.408,-299.334 100.434,-298.727"/>
</g>
<!-- Node9 -->
<g id="node9" class="node"><title>Node9</title>
<g id="a_node9"><a xlink:href="class_hydro_couple_1_1_temporal_1_1_i_time_exchange_item.html" target="_top" xlink:title="The ITimeExchangeItem class.This class cannot be directly instantiated and must be implemented as as ...">
<polygon fill="none" stroke="black" points="244.006,-154.845 244.006,-232.185 392.028,-232.185 392.028,-154.845 244.006,-154.845"/>
<text text-anchor="start" x="252.006" y="-220.185" font-family="Monaco" font-size="10.00">HydroCouple::Temporal</text>
<text text-anchor="middle" x="318.017" y="-206.85" font-family="Monaco" font-size="10.00">::ITimeExchangeItem</text>
<polyline fill="none" stroke="black" points="244.006,-197.515 392.028,-197.515 "/>
<text text-anchor="middle" x="318.017" y="-185.515" font-family="Monaco" font-size="10.00"> </text>
<polyline fill="none" stroke="black" points="244.006,-176.18 392.028,-176.18 "/>
<text text-anchor="start" x="252.006" y="-164.18" font-family="Monaco" font-size="10.00">+ ~ITimeExchangeItem()</text>
</a>
</g>
</g>
<!-- Node3&#45;&gt;Node9 -->
<g id="edge12" class="edge"><title>Node3&#45;&gt;Node9</title>
<path fill="none" stroke="midnightblue" d="M194.956,-302.983C208.654,-293.167 222.367,-282.895 235.017,-272.689 250.424,-260.26 266.458,-245.613 280.28,-232.377"/>
<polygon fill="none" stroke="midnightblue" points="192.566,-300.387 186.44,-309.031 196.619,-306.094 192.566,-300.387"/>
</g>
<!-- Node4 -->
<g id="node4" class="node"><title>Node4</title>
<g id="a_node4"><a xlink:href="class_hydro_couple_1_1_i_component_data_item.html" target="_top" xlink:title="IComponentItem is a fundamental unit of data for a component. ">
<polygon fill="none" stroke="black" points="205.002,-463.534 205.002,-647.554 407.032,-647.554 407.032,-463.534 205.002,-463.534"/>
<text text-anchor="middle" x="306.017" y="-635.554" font-family="Monaco" font-size="10.00">HydroCouple::IComponentDataItem</text>
<polyline fill="none" stroke="black" points="205.002,-626.219 407.032,-626.219 "/>
<text text-anchor="middle" x="306.017" y="-614.219" font-family="Monaco" font-size="10.00"> </text>
<polyline fill="none" stroke="black" points="205.002,-604.884 407.032,-604.884 "/>
<text text-anchor="start" x="213.002" y="-592.884" font-family="Monaco" font-size="10.00">+ ~IComponentDataItem()</text>
<text text-anchor="start" x="213.002" y="-579.549" font-family="Monaco" font-size="10.00">+ modelComponent()</text>
<text text-anchor="start" x="213.002" y="-566.214" font-family="Monaco" font-size="10.00">+ dimensions()</text>
<text text-anchor="start" x="213.002" y="-552.879" font-family="Monaco" font-size="10.00">+ valueDefinition()</text>
<text text-anchor="start" x="213.002" y="-539.544" font-family="Monaco" font-size="10.00">+ getValue()</text>
<text text-anchor="start" x="213.002" y="-526.209" font-family="Monaco" font-size="10.00">+ getValues()</text>
<text text-anchor="start" x="213.002" y="-512.874" font-family="Monaco" font-size="10.00">+ getValues()</text>
<text text-anchor="start" x="213.002" y="-499.539" font-family="Monaco" font-size="10.00">+ setValue()</text>
<text text-anchor="start" x="213.002" y="-486.204" font-family="Monaco" font-size="10.00">+ setValues()</text>
<text text-anchor="start" x="213.002" y="-472.869" font-family="Monaco" font-size="10.00">+ setValues()</text>
</a>
</g>
</g>
<!-- Node4&#45;&gt;Node3 -->
<g id="edge3" class="edge"><title>Node4&#45;&gt;Node3</title>
<path fill="none" stroke="midnightblue" d="M197.073,-457.289C185.385,-446.856 173.781,-436.497 162.853,-426.741"/>
<polygon fill="none" stroke="midnightblue" points="194.968,-460.102 204.759,-464.151 199.63,-454.88 194.968,-460.102"/>
</g>
<!-- Node8 -->
<g id="node8" class="node"><title>Node8</title>
<g id="a_node8"><a xlink:href="class_hydro_couple_1_1_spatial_1_1_i_geometry_component_data_item.html" target="_top" xlink:title="IGeometryComponentItem represents IGeometryCollection IComponentItem. This class must be implemented ...">
<polygon fill="none" stroke="black" points="205.002,-309.189 205.002,-426.534 407.032,-426.534 407.032,-309.189 205.002,-309.189"/>
<text text-anchor="start" x="213.002" y="-414.534" font-family="Monaco" font-size="10.00">HydroCouple::Spatial</text>
<text text-anchor="middle" x="306.017" y="-401.199" font-family="Monaco" font-size="10.00">::IGeometryComponentDataItem</text>
<polyline fill="none" stroke="black" points="205.002,-391.864 407.032,-391.864 "/>
<text text-anchor="middle" x="306.017" y="-379.864" font-family="Monaco" font-size="10.00"> </text>
<polyline fill="none" stroke="black" points="205.002,-370.529 407.032,-370.529 "/>
<text text-anchor="start" x="213.002" y="-358.529" font-family="Monaco" font-size="10.00">+ ~IGeometryComponentDataItem()</text>
<text text-anchor="start" x="213.002" y="-345.194" font-family="Monaco" font-size="10.00">+ geometryCollection()</text>
<text text-anchor="start" x="213.002" y="-331.859" font-family="Monaco" font-size="10.00">+ geometry()</text>
<text text-anchor="start" x="213.002" y="-318.524" font-family="Monaco" font-size="10.00">+ geometryDimension()</text>
</a>
</g>
</g>
<!-- Node4&#45;&gt;Node8 -->
<g id="edge8" class="edge"><title>Node4&#45;&gt;Node8</title>
<path fill="none" stroke="midnightblue" d="M306.017,-453.112C306.017,-444.083 306.017,-435.163 306.017,-426.698"/>
<polygon fill="none" stroke="midnightblue" points="302.517,-453.335 306.017,-463.335 309.517,-453.335 302.517,-453.335"/>
</g>
<!-- Node10 -->
<g id="node10" class="node"><title>Node10</title>
<g id="a_node10"><a xlink:href="class_hydro_couple_1_1_i_exchange_item.html" target="_top" xlink:title="IExchangeItem the base data item the can be exchanged between components at runtime. ">
<polygon fill="none" stroke="black" points="425.004,-335.859 425.004,-399.864 597.03,-399.864 597.03,-335.859 425.004,-335.859"/>
<text text-anchor="middle" x="511.017" y="-387.864" font-family="Monaco" font-size="10.00">HydroCouple::IExchangeItem</text>
<polyline fill="none" stroke="black" points="425.004,-378.529 597.03,-378.529 "/>
<text text-anchor="middle" x="511.017" y="-366.529" font-family="Monaco" font-size="10.00"> </text>
<polyline fill="none" stroke="black" points="425.004,-357.194 597.03,-357.194 "/>
<text text-anchor="start" x="433.004" y="-345.194" font-family="Monaco" font-size="10.00">+ ~IExchangeItem()</text>
</a>
</g>
</g>
<!-- Node4&#45;&gt;Node10 -->
<g id="edge11" class="edge"><title>Node4&#45;&gt;Node10</title>
<path fill="none" stroke="midnightblue" d="M414.365,-456.406C436.896,-435.998 459.05,-415.932 476.452,-400.17"/>
<polygon fill="none" stroke="midnightblue" points="411.777,-454.027 406.715,-463.335 416.477,-459.216 411.777,-454.027"/>
</g>
<!-- Node5 -->
<g id="node5" class="node"><title>Node5</title>
<g id="a_node5"><a xlink:href="class_hydro_couple_1_1_i_identity.html" target="_top" xlink:title="IIdentity interface class defines a method to get the Id of an HydroCouple entity. ">
<polygon fill="none" stroke="black" points="232.006,-684.554 232.006,-761.894 380.028,-761.894 380.028,-684.554 232.006,-684.554"/>
<text text-anchor="middle" x="306.017" y="-749.894" font-family="Monaco" font-size="10.00">HydroCouple::IIdentity</text>
<polyline fill="none" stroke="black" points="232.006,-740.559 380.028,-740.559 "/>
<text text-anchor="middle" x="306.017" y="-728.559" font-family="Monaco" font-size="10.00"> </text>
<polyline fill="none" stroke="black" points="232.006,-719.224 380.028,-719.224 "/>
<text text-anchor="start" x="240.006" y="-707.224" font-family="Monaco" font-size="10.00">+ ~IIdentity()</text>
<text text-anchor="start" x="240.006" y="-693.889" font-family="Monaco" font-size="10.00">+ id()</text>
</a>
</g>
</g>
<!-- Node5&#45;&gt;Node4 -->
<g id="edge4" class="edge"><title>Node5&#45;&gt;Node4</title>
<path fill="none" stroke="midnightblue" d="M306.017,-673.971C306.017,-665.618 306.017,-656.693 306.017,-647.635"/>
<polygon fill="none" stroke="midnightblue" points="302.517,-674.213 306.017,-684.213 309.517,-674.213 302.517,-674.213"/>
</g>
<!-- Node6 -->
<g id="node6" class="node"><title>Node6</title>
<g id="a_node6"><a xlink:href="class_hydro_couple_1_1_i_description.html" target="_top" xlink:title="IDescription interface class provides descriptive information on a HydroCouple object. ">
<polygon fill="none" stroke="black" points="223.005,-798.894 223.005,-916.238 389.029,-916.238 389.029,-798.894 223.005,-798.894"/>
<text text-anchor="middle" x="306.017" y="-904.238" font-family="Monaco" font-size="10.00">HydroCouple::IDescription</text>
<polyline fill="none" stroke="black" points="223.005,-894.903 389.029,-894.903 "/>
<text text-anchor="middle" x="306.017" y="-882.903" font-family="Monaco" font-size="10.00"> </text>
<polyline fill="none" stroke="black" points="223.005,-873.568 389.029,-873.568 "/>
<text text-anchor="start" x="231.005" y="-861.568" font-family="Monaco" font-size="10.00">+ ~IDescription()</text>
<text text-anchor="start" x="231.005" y="-848.233" font-family="Monaco" font-size="10.00">+ caption()</text>
<text text-anchor="start" x="231.005" y="-834.898" font-family="Monaco" font-size="10.00">+ setCaption()</text>
<text text-anchor="start" x="231.005" y="-821.563" font-family="Monaco" font-size="10.00">+ description()</text>
<text text-anchor="start" x="231.005" y="-808.229" font-family="Monaco" font-size="10.00">+ setDescription()</text>
</a>
</g>
</g>
<!-- Node6&#45;&gt;Node5 -->
<g id="edge5" class="edge"><title>Node6&#45;&gt;Node5</title>
<path fill="none" stroke="midnightblue" d="M306.017,-788.328C306.017,-779.289 306.017,-770.301 306.017,-762.041"/>
<polygon fill="none" stroke="midnightblue" points="302.517,-788.519 306.017,-798.519 309.517,-788.519 302.517,-788.519"/>
</g>
<!-- Node7 -->
<g id="node7" class="node"><title>Node7</title>
<g id="a_node7"><a xlink:href="class_hydro_couple_1_1_i_property_changed.html" target="_top" xlink:title="IPropertyChanged interface is used to emit signal/event when a property of an object changes...">
<polygon fill="none" stroke="black" points="211.003,-953.238 211.003,-1017.24 401.031,-1017.24 401.031,-953.238 211.003,-953.238"/>
<text text-anchor="middle" x="306.017" y="-1005.24" font-family="Monaco" font-size="10.00">HydroCouple::IPropertyChanged</text>
<polyline fill="none" stroke="black" points="211.003,-995.908 401.031,-995.908 "/>
<text text-anchor="middle" x="306.017" y="-983.908" font-family="Monaco" font-size="10.00"> </text>
<polyline fill="none" stroke="black" points="211.003,-974.573 401.031,-974.573 "/>
<text text-anchor="start" x="219.003" y="-962.573" font-family="Monaco" font-size="10.00">+ ~IPropertyChanged()</text>
</a>
</g>
</g>
<!-- Node7&#45;&gt;Node6 -->
<g id="edge6" class="edge"><title>Node7&#45;&gt;Node6</title>
<path fill="none" stroke="midnightblue" d="M306.017,-942.918C306.017,-934.533 306.017,-925.566 306.017,-916.724"/>
<polygon fill="none" stroke="midnightblue" points="302.517,-943.175 306.017,-953.175 309.517,-943.175 302.517,-943.175"/>
</g>
<!-- Node8&#45;&gt;Node2 -->
<g id="edge7" class="edge"><title>Node8&#45;&gt;Node2</title>
<path fill="none" stroke="midnightblue" d="M233.737,-302.316C222.823,-292.57 211.468,-282.43 200.28,-272.439"/>
<polygon fill="none" stroke="midnightblue" points="231.424,-304.943 241.214,-308.993 236.086,-299.722 231.424,-304.943"/>
</g>
<!-- Node11 -->
<g id="node11" class="node"><title>Node11</title>
<g id="a_node11"><a xlink:href="class_hydro_couple_1_1_spatial_1_1_i_geometry_exchange_item.html" target="_top" xlink:title="An IExchangeItem class with a geometry component. ">
<polygon fill="none" stroke="black" points="410.004,-154.845 410.004,-232.185 582.03,-232.185 582.03,-154.845 410.004,-154.845"/>
<text text-anchor="start" x="418.004" y="-220.185" font-family="Monaco" font-size="10.00">HydroCouple::Spatial</text>
<text text-anchor="middle" x="496.017" y="-206.85" font-family="Monaco" font-size="10.00">::IGeometryExchangeItem</text>
<polyline fill="none" stroke="black" points="410.004,-197.515 582.03,-197.515 "/>
<text text-anchor="middle" x="496.017" y="-185.515" font-family="Monaco" font-size="10.00"> </text>
<polyline fill="none" stroke="black" points="410.004,-176.18 582.03,-176.18 "/>
<text text-anchor="start" x="418.004" y="-164.18" font-family="Monaco" font-size="10.00">+ ~IGeometryExchangeItem()</text>
</a>
</g>
</g>
<!-- Node8&#45;&gt;Node11 -->
<g id="edge15" class="edge"><title>Node8&#45;&gt;Node11</title>
<path fill="none" stroke="midnightblue" d="M377.429,-302.085C403.421,-278.508 431.928,-252.649 454.478,-232.195"/>
<polygon fill="none" stroke="midnightblue" points="374.868,-299.682 369.813,-308.993 379.571,-304.867 374.868,-299.682"/>
</g>
<!-- Node9&#45;&gt;Node1 -->
<g id="edge9" class="edge"><title>Node9&#45;&gt;Node1</title>
<path fill="none" stroke="midnightblue" d="M318.017,-144.266C318.017,-122.858 318.017,-98.0342 318.017,-77.9987"/>
<polygon fill="none" stroke="midnightblue" points="314.517,-144.465 318.017,-154.465 321.517,-144.465 314.517,-144.465"/>
</g>
<!-- Node10&#45;&gt;Node9 -->
<g id="edge10" class="edge"><title>Node10&#45;&gt;Node9</title>
<path fill="none" stroke="midnightblue" d="M465.942,-329.105C445.875,-312.083 422.07,-291.597 401.017,-272.689 386.584,-259.728 371.038,-245.233 357.346,-232.28"/>
<polygon fill="none" stroke="midnightblue" points="463.826,-331.899 473.721,-335.688 468.349,-326.556 463.826,-331.899"/>
</g>
<!-- Node10&#45;&gt;Node11 -->
<g id="edge14" class="edge"><title>Node10&#45;&gt;Node11</title>
<path fill="none" stroke="midnightblue" d="M507.431,-325.657C504.966,-297.331 501.716,-259.998 499.315,-232.411"/>
<polygon fill="none" stroke="midnightblue" points="503.947,-325.992 508.301,-335.651 510.92,-325.385 503.947,-325.992"/>
</g>
<!-- Node11&#45;&gt;Node1 -->
<g id="edge13" class="edge"><title>Node11&#45;&gt;Node1</title>
<path fill="none" stroke="midnightblue" d="M443.699,-147.737C417.81,-125.58 386.903,-99.127 362.216,-77.9987"/>
<polygon fill="none" stroke="midnightblue" points="441.686,-150.621 451.559,-154.465 446.238,-145.303 441.686,-150.621"/>
</g>
</g>
</svg>
