<?xml version="1.0" encoding="UTF-8" standalone="no"?>
<!DOCTYPE svg PUBLIC "-//W3C//DTD SVG 1.1//EN"
 "http://www.w3.org/Graphics/SVG/1.1/DTD/svg11.dtd">
<!-- Generated by graphviz version 2.38.0 (20140413.2041)
 -->
<!-- Title: HydroCouple::Data::IOutput Pages: 1 -->
<svg width="169pt" height="698pt"
 viewBox="0.00 0.00 169.08 698.00" xmlns="http://www.w3.org/2000/svg" xmlns:xlink="http://www.w3.org/1999/xlink">
<g id="graph0" class="graph" transform="scale(1 1) rotate(0) translate(4 694)">
<title>HydroCouple::Data::IOutput</title>
<polygon fill="white" stroke="none" points="-4,4 -4,-694 165.083,-694 165.083,4 -4,4"/>
<!-- Node1 -->
<g id="node1" class="node"><title>Node1</title>
<polygon fill="#bfbfbf" stroke="black" points="14.5923,-0.5 14.5923,-134.5 146.491,-134.5 146.491,-0.5 14.5923,-0.5"/>
<text text-anchor="start" x="22.5923" y="-122.5" font-family="Helvetica,sans-Serif" font-size="10.00">HydroCouple::Data::</text>
<text text-anchor="middle" x="80.5415" y="-112.5" font-family="Helvetica,sans-Serif" font-size="10.00">IOutput</text>
<polyline fill="none" stroke="black" points="14.5923,-106.5 146.491,-106.5 "/>
<text text-anchor="middle" x="80.5415" y="-94.5" font-family="Helvetica,sans-Serif" font-size="10.00"> </text>
<polyline fill="none" stroke="black" points="14.5923,-88.5 146.491,-88.5 "/>
<text text-anchor="start" x="22.5923" y="-76.5" font-family="Helvetica,sans-Serif" font-size="10.00">+ ~IOutput()</text>
<text text-anchor="start" x="22.5923" y="-66.5" font-family="Helvetica,sans-Serif" font-size="10.00">+ consumers()</text>
<text text-anchor="start" x="22.5923" y="-56.5" font-family="Helvetica,sans-Serif" font-size="10.00">+ addConsumer()</text>
<text text-anchor="start" x="22.5923" y="-46.5" font-family="Helvetica,sans-Serif" font-size="10.00">+ removeConsumer()</text>
<text text-anchor="start" x="22.5923" y="-36.5" font-family="Helvetica,sans-Serif" font-size="10.00">+ adaptedOutputs()</text>
<text text-anchor="start" x="22.5923" y="-26.5" font-family="Helvetica,sans-Serif" font-size="10.00">+ addAdaptedOutput()</text>
<text text-anchor="start" x="22.5923" y="-16.5" font-family="Helvetica,sans-Serif" font-size="10.00">+ removeAdaptedOutput()</text>
<text text-anchor="start" x="22.5923" y="-6.5" font-family="Helvetica,sans-Serif" font-size="10.00">+ updateValues()</text>
</g>
<!-- Node2 -->
<g id="node2" class="node"><title>Node2</title>
<g id="a_node2"><a xlink:href="class_hydro_couple_1_1_data_1_1_i_exchange_item.html" target="_top" xlink:title="IExchangeItem the base data item the can be exchanged between components at runtime. ">
<polygon fill="white" stroke="black" points="27.2412,-171.5 27.2412,-245.5 133.842,-245.5 133.842,-171.5 27.2412,-171.5"/>
<text text-anchor="start" x="35.2412" y="-233.5" font-family="Helvetica,sans-Serif" font-size="10.00">HydroCouple::Data::</text>
<text text-anchor="middle" x="80.5415" y="-223.5" font-family="Helvetica,sans-Serif" font-size="10.00">IExchangeItem</text>
<polyline fill="none" stroke="black" points="27.2412,-217.5 133.842,-217.5 "/>
<text text-anchor="middle" x="80.5415" y="-205.5" font-family="Helvetica,sans-Serif" font-size="10.00"> </text>
<polyline fill="none" stroke="black" points="27.2412,-199.5 133.842,-199.5 "/>
<text text-anchor="start" x="35.2412" y="-187.5" font-family="Helvetica,sans-Serif" font-size="10.00">+ ~IExchangeItem()</text>
<text text-anchor="start" x="35.2412" y="-177.5" font-family="Helvetica,sans-Serif" font-size="10.00">+ itemChanged()</text>
</a>
</g>
</g>
<!-- Node2&#45;&gt;Node1 -->
<g id="edge1" class="edge"><title>Node2&#45;&gt;Node1</title>
<path fill="none" stroke="midnightblue" d="M80.5415,-161.233C80.5415,-152.698 80.5415,-143.634 80.5415,-134.645"/>
<polygon fill="none" stroke="midnightblue" points="77.0416,-161.342 80.5415,-171.342 84.0416,-161.342 77.0416,-161.342"/>
</g>
<!-- Node3 -->
<g id="node3" class="node"><title>Node3</title>
<g id="a_node3"><a xlink:href="class_hydro_couple_1_1_data_1_1_i_component_item.html" target="_top" xlink:title="IComponentItem is a fundamental unit of data for a component. ">
<polygon fill="white" stroke="black" points="25.0195,-282.5 25.0195,-366.5 136.063,-366.5 136.063,-282.5 25.0195,-282.5"/>
<text text-anchor="start" x="33.0195" y="-354.5" font-family="Helvetica,sans-Serif" font-size="10.00">HydroCouple::Data::</text>
<text text-anchor="middle" x="80.5415" y="-344.5" font-family="Helvetica,sans-Serif" font-size="10.00">IComponentItem</text>
<polyline fill="none" stroke="black" points="25.0195,-338.5 136.063,-338.5 "/>
<text text-anchor="middle" x="80.5415" y="-326.5" font-family="Helvetica,sans-Serif" font-size="10.00"> </text>
<polyline fill="none" stroke="black" points="25.0195,-320.5 136.063,-320.5 "/>
<text text-anchor="start" x="33.0195" y="-308.5" font-family="Helvetica,sans-Serif" font-size="10.00">+ ~IComponentItem()</text>
<text text-anchor="start" x="33.0195" y="-298.5" font-family="Helvetica,sans-Serif" font-size="10.00">+ modelComponent()</text>
<text text-anchor="start" x="33.0195" y="-288.5" font-family="Helvetica,sans-Serif" font-size="10.00">+ dimensions()</text>
</a>
</g>
</g>
<!-- Node3&#45;&gt;Node2 -->
<g id="edge2" class="edge"><title>Node3&#45;&gt;Node2</title>
<path fill="none" stroke="midnightblue" d="M80.5415,-272.328C80.5415,-263.341 80.5415,-254.159 80.5415,-245.688"/>
<polygon fill="none" stroke="midnightblue" points="77.0416,-272.343 80.5415,-282.343 84.0416,-272.343 77.0416,-272.343"/>
</g>
<!-- Node4 -->
<g id="node4" class="node"><title>Node4</title>
<g id="a_node4"><a xlink:href="class_hydro_couple_1_1_i_identity.html" target="_top" xlink:title="IIdentity interface class defines a method to get the Id of an HydroCouple entity. &#160;IIdentity extends the IDescription interface class, and therefore has, next to the id, a caption and a description. ">
<polygon fill="white" stroke="black" points="23.0713,-403.5 23.0713,-467.5 138.012,-467.5 138.012,-403.5 23.0713,-403.5"/>
<text text-anchor="middle" x="80.5415" y="-455.5" font-family="Helvetica,sans-Serif" font-size="10.00">HydroCouple::IIdentity</text>
<polyline fill="none" stroke="black" points="23.0713,-449.5 138.012,-449.5 "/>
<text text-anchor="middle" x="80.5415" y="-437.5" font-family="Helvetica,sans-Serif" font-size="10.00"> </text>
<polyline fill="none" stroke="black" points="23.0713,-431.5 138.012,-431.5 "/>
<text text-anchor="start" x="31.0713" y="-419.5" font-family="Helvetica,sans-Serif" font-size="10.00">+ ~IIdentity()</text>
<text text-anchor="start" x="31.0713" y="-409.5" font-family="Helvetica,sans-Serif" font-size="10.00">+ id()</text>
</a>
</g>
</g>
<!-- Node4&#45;&gt;Node3 -->
<g id="edge3" class="edge"><title>Node4&#45;&gt;Node3</title>
<path fill="none" stroke="midnightblue" d="M80.5415,-393.263C80.5415,-384.503 80.5415,-375.255 80.5415,-366.503"/>
<polygon fill="none" stroke="midnightblue" points="77.0416,-393.265 80.5415,-403.265 84.0416,-393.265 77.0416,-393.265"/>
</g>
<!-- Node5 -->
<g id="node5" class="node"><title>Node5</title>
<g id="a_node5"><a xlink:href="class_hydro_couple_1_1_i_description.html" target="_top" xlink:title="IDescription interface class provides descriptive information on a HydroCouple object. ">
<polygon fill="white" stroke="black" points="14.1821,-504.5 14.1821,-598.5 146.901,-598.5 146.901,-504.5 14.1821,-504.5"/>
<text text-anchor="middle" x="80.5415" y="-586.5" font-family="Helvetica,sans-Serif" font-size="10.00">HydroCouple::IDescription</text>
<polyline fill="none" stroke="black" points="14.1821,-580.5 146.901,-580.5 "/>
<text text-anchor="middle" x="80.5415" y="-568.5" font-family="Helvetica,sans-Serif" font-size="10.00"> </text>
<polyline fill="none" stroke="black" points="14.1821,-562.5 146.901,-562.5 "/>
<text text-anchor="start" x="22.1821" y="-550.5" font-family="Helvetica,sans-Serif" font-size="10.00">+ ~IDescription()</text>
<text text-anchor="start" x="22.1821" y="-540.5" font-family="Helvetica,sans-Serif" font-size="10.00">+ getCaption()</text>
<text text-anchor="start" x="22.1821" y="-530.5" font-family="Helvetica,sans-Serif" font-size="10.00">+ setCaption()</text>
<text text-anchor="start" x="22.1821" y="-520.5" font-family="Helvetica,sans-Serif" font-size="10.00">+ getDescription()</text>
<text text-anchor="start" x="22.1821" y="-510.5" font-family="Helvetica,sans-Serif" font-size="10.00">+ setDescription()</text>
</a>
</g>
</g>
<!-- Node5&#45;&gt;Node4 -->
<g id="edge4" class="edge"><title>Node5&#45;&gt;Node4</title>
<path fill="none" stroke="midnightblue" d="M80.5415,-494.212C80.5415,-485.081 80.5415,-475.926 80.5415,-467.684"/>
<polygon fill="none" stroke="midnightblue" points="77.0416,-494.46 80.5415,-504.46 84.0416,-494.46 77.0416,-494.46"/>
</g>
<!-- Node6 -->
<g id="node6" class="node"><title>Node6</title>
<g id="a_node6"><a xlink:href="class_hydro_couple_1_1_i_property_changed.html" target="_top" xlink:title="IPropertyChanged interface is used to emit signal/event when a property of an object changes...">
<polygon fill="white" stroke="black" points="0,-635.5 0,-689.5 161.083,-689.5 161.083,-635.5 0,-635.5"/>
<text text-anchor="middle" x="80.5415" y="-677.5" font-family="Helvetica,sans-Serif" font-size="10.00">HydroCouple::IPropertyChanged</text>
<polyline fill="none" stroke="black" points="0,-671.5 161.083,-671.5 "/>
<text text-anchor="middle" x="80.5415" y="-659.5" font-family="Helvetica,sans-Serif" font-size="10.00"> </text>
<polyline fill="none" stroke="black" points="0,-653.5 161.083,-653.5 "/>
<text text-anchor="start" x="8" y="-641.5" font-family="Helvetica,sans-Serif" font-size="10.00">+ ~IPropertyChanged()</text>
</a>
</g>
</g>
<!-- Node6&#45;&gt;Node5 -->
<g id="edge5" class="edge"><title>Node6&#45;&gt;Node5</title>
<path fill="none" stroke="midnightblue" d="M80.5415,-625.141C80.5415,-616.716 80.5415,-607.639 80.5415,-598.851"/>
<polygon fill="none" stroke="midnightblue" points="77.0416,-625.392 80.5415,-635.392 84.0416,-625.392 77.0416,-625.392"/>
</g>
</g>
</svg>
