<?xml version="1.0" encoding="UTF-8" standalone="no"?>
<!DOCTYPE svg PUBLIC "-//W3C//DTD SVG 1.1//EN"
 "http://www.w3.org/Graphics/SVG/1.1/DTD/svg11.dtd">
<!-- Generated by graphviz version 2.38.0 (20140413.2041)
 -->
<!-- Title: HydroCouple::IIdBasedComponentItem Pages: 1 -->
<svg width="228pt" height="637pt"
 viewBox="0.00 0.00 228.03 637.04" xmlns="http://www.w3.org/2000/svg" xmlns:xlink="http://www.w3.org/1999/xlink">
<g id="graph0" class="graph" transform="scale(1 1) rotate(0) translate(4 633.044)">
<title>HydroCouple::IIdBasedComponentItem</title>
<polygon fill="white" stroke="none" points="-4,4 -4,-633.044 224.033,-633.044 224.033,4 -4,4"/>
<!-- Node1 -->
<g id="node1" class="node"><title>Node1</title>
<polygon fill="#bfbfbf" stroke="black" points="0,-0.5 0,-91.1748 220.033,-91.1748 220.033,-0.5 0,-0.5"/>
<text text-anchor="middle" x="110.017" y="-79.1748" font-family="Monaco" font-size="10.00">HydroCouple::IIdBasedComponentItem</text>
<polyline fill="none" stroke="black" points="0,-69.8398 220.033,-69.8398 "/>
<text text-anchor="middle" x="110.017" y="-57.8398" font-family="Monaco" font-size="10.00"> </text>
<polyline fill="none" stroke="black" points="0,-48.5049 220.033,-48.5049 "/>
<text text-anchor="start" x="8" y="-36.5049" font-family="Monaco" font-size="10.00">+ ~IIdBasedComponentItem()</text>
<text text-anchor="start" x="8" y="-23.1699" font-family="Monaco" font-size="10.00">+ idDimensions()</text>
<text text-anchor="start" x="8" y="-9.83496" font-family="Monaco" font-size="10.00">+ ids()</text>
</g>
<!-- Node2 -->
<g id="node2" class="node"><title>Node2</title>
<g id="a_node2"><a xlink:href="class_hydro_couple_1_1_i_component_item.html" target="_top" xlink:title="IComponentItem is a fundamental unit of data for a component. ">
<polygon fill="white" stroke="black" points="21.0034,-128.175 21.0034,-232.185 199.03,-232.185 199.03,-128.175 21.0034,-128.175"/>
<text text-anchor="middle" x="110.017" y="-220.185" font-family="Monaco" font-size="10.00">HydroCouple::IComponentItem</text>
<polyline fill="none" stroke="black" points="21.0034,-210.85 199.03,-210.85 "/>
<text text-anchor="middle" x="110.017" y="-198.85" font-family="Monaco" font-size="10.00"> </text>
<polyline fill="none" stroke="black" points="21.0034,-189.515 199.03,-189.515 "/>
<text text-anchor="start" x="29.0034" y="-177.515" font-family="Monaco" font-size="10.00">+ ~IComponentItem()</text>
<text text-anchor="start" x="29.0034" y="-164.18" font-family="Monaco" font-size="10.00">+ modelComponent()</text>
<text text-anchor="start" x="29.0034" y="-150.845" font-family="Monaco" font-size="10.00">+ modelComponentId()</text>
<text text-anchor="start" x="29.0034" y="-137.51" font-family="Monaco" font-size="10.00">+ dimensions()</text>
</a>
</g>
</g>
<!-- Node2&#45;&gt;Node1 -->
<g id="edge1" class="edge"><title>Node2&#45;&gt;Node1</title>
<path fill="none" stroke="midnightblue" d="M110.017,-117.985C110.017,-109.027 110.017,-99.9461 110.017,-91.4047"/>
<polygon fill="none" stroke="midnightblue" points="106.517,-118.013 110.017,-128.013 113.517,-118.013 106.517,-118.013"/>
</g>
<!-- Node3 -->
<g id="node3" class="node"><title>Node3</title>
<g id="a_node3"><a xlink:href="class_hydro_couple_1_1_i_identity.html" target="_top" xlink:title="IIdentity interface class defines a method to get the Id of an HydroCouple entity. ">
<polygon fill="white" stroke="black" points="36.0059,-269.185 36.0059,-373.194 184.027,-373.194 184.027,-269.185 36.0059,-269.185"/>
<text text-anchor="middle" x="110.017" y="-361.194" font-family="Monaco" font-size="10.00">HydroCouple::IIdentity</text>
<polyline fill="none" stroke="black" points="36.0059,-351.859 184.027,-351.859 "/>
<text text-anchor="middle" x="110.017" y="-339.859" font-family="Monaco" font-size="10.00"> </text>
<polyline fill="none" stroke="black" points="36.0059,-330.524 184.027,-330.524 "/>
<text text-anchor="start" x="44.0059" y="-318.524" font-family="Monaco" font-size="10.00">+ ~IIdentity()</text>
<text text-anchor="start" x="44.0059" y="-305.189" font-family="Monaco" font-size="10.00">+ MPI_Comm()</text>
<text text-anchor="start" x="44.0059" y="-291.854" font-family="Monaco" font-size="10.00">+ MPI_Rank()</text>
<text text-anchor="start" x="44.0059" y="-278.52" font-family="Monaco" font-size="10.00">+ id()</text>
</a>
</g>
</g>
<!-- Node3&#45;&gt;Node2 -->
<g id="edge2" class="edge"><title>Node3&#45;&gt;Node2</title>
<path fill="none" stroke="midnightblue" d="M110.017,-258.626C110.017,-249.843 110.017,-240.89 110.017,-232.336"/>
<polygon fill="none" stroke="midnightblue" points="106.517,-258.822 110.017,-268.822 113.517,-258.822 106.517,-258.822"/>
</g>
<!-- Node4 -->
<g id="node4" class="node"><title>Node4</title>
<g id="a_node4"><a xlink:href="class_hydro_couple_1_1_i_description.html" target="_top" xlink:title="IDescription interface class provides descriptive information on a HydroCouple object. ">
<polygon fill="white" stroke="black" points="27.0044,-410.194 27.0044,-527.539 193.029,-527.539 193.029,-410.194 27.0044,-410.194"/>
<text text-anchor="middle" x="110.017" y="-515.539" font-family="Monaco" font-size="10.00">HydroCouple::IDescription</text>
<polyline fill="none" stroke="black" points="27.0044,-506.204 193.029,-506.204 "/>
<text text-anchor="middle" x="110.017" y="-494.204" font-family="Monaco" font-size="10.00"> </text>
<polyline fill="none" stroke="black" points="27.0044,-484.869 193.029,-484.869 "/>
<text text-anchor="start" x="35.0044" y="-472.869" font-family="Monaco" font-size="10.00">+ ~IDescription()</text>
<text text-anchor="start" x="35.0044" y="-459.534" font-family="Monaco" font-size="10.00">+ getCaption()</text>
<text text-anchor="start" x="35.0044" y="-446.199" font-family="Monaco" font-size="10.00">+ setCaption()</text>
<text text-anchor="start" x="35.0044" y="-432.864" font-family="Monaco" font-size="10.00">+ getDescription()</text>
<text text-anchor="start" x="35.0044" y="-419.529" font-family="Monaco" font-size="10.00">+ setDescription()</text>
</a>
</g>
</g>
<!-- Node4&#45;&gt;Node3 -->
<g id="edge3" class="edge"><title>Node4&#45;&gt;Node3</title>
<path fill="none" stroke="midnightblue" d="M110.017,-399.593C110.017,-390.775 110.017,-381.867 110.017,-373.39"/>
<polygon fill="none" stroke="midnightblue" points="106.517,-399.873 110.017,-409.873 113.517,-399.873 106.517,-399.873"/>
</g>
<!-- Node5 -->
<g id="node5" class="node"><title>Node5</title>
<g id="a_node5"><a xlink:href="class_hydro_couple_1_1_i_property_changed.html" target="_top" xlink:title="IPropertyChanged interface is used to emit signal/event when a property of an object changes...">
<polygon fill="white" stroke="black" points="15.0024,-564.539 15.0024,-628.544 205.031,-628.544 205.031,-564.539 15.0024,-564.539"/>
<text text-anchor="middle" x="110.017" y="-616.544" font-family="Monaco" font-size="10.00">HydroCouple::IPropertyChanged</text>
<polyline fill="none" stroke="black" points="15.0024,-607.209 205.031,-607.209 "/>
<text text-anchor="middle" x="110.017" y="-595.209" font-family="Monaco" font-size="10.00"> </text>
<polyline fill="none" stroke="black" points="15.0024,-585.874 205.031,-585.874 "/>
<text text-anchor="start" x="23.0024" y="-573.874" font-family="Monaco" font-size="10.00">+ ~IPropertyChanged()</text>
</a>
</g>
</g>
<!-- Node5&#45;&gt;Node4 -->
<g id="edge4" class="edge"><title>Node5&#45;&gt;Node4</title>
<path fill="none" stroke="midnightblue" d="M110.017,-554.219C110.017,-545.834 110.017,-536.867 110.017,-528.025"/>
<polygon fill="none" stroke="midnightblue" points="106.517,-554.476 110.017,-564.476 113.517,-554.476 106.517,-554.476"/>
</g>
</g>
</svg>
