<?xml version="1.0" encoding="UTF-8" standalone="no"?>
<!DOCTYPE svg PUBLIC "-//W3C//DTD SVG 1.1//EN"
 "http://www.w3.org/Graphics/SVG/1.1/DTD/svg11.dtd">
<!-- Generated by graphviz version 2.38.0 (20140413.2041)
 -->
<!-- Title: HydroCouple::Temporal::IIdBasedTimeComponentDataItem Pages: 1 -->
<!--zoomable 1052 -->
<svg id="main" version="1.1" xmlns="http://www.w3.org/2000/svg" xmlns:xlink="http://www.w3.org/1999/xlink" xml:space="preserve" onload="init(evt)">
<style type="text/css"><![CDATA[
.edge:hover path { stroke: red; }
.edge:hover polygon { stroke: red; fill: red; }
]]></style>
<script type="text/javascript"><![CDATA[
var edges = document.getElementsByTagName('g');
if (edges && edges.length) {
  for (var i=0;i<edges.length;i++) {
    if (edges[i].id.substr(0,4)=='edge') {
      edges[i].setAttribute('class','edge');
    }
  }
}
]]></script>
        <defs>
                <circle id="rim" cx="0" cy="0" r="7"/>
                <circle id="rim2" cx="0" cy="0" r="3.5"/>
                <g id="zoomPlus">
                        <use xlink:href="#rim" fill="#404040">
                                <set attributeName="fill" to="#808080" begin="zoomplus.mouseover" end="zoomplus.mouseout"/>
                        </use>
                        <path d="M-4,0h8M0,-4v8" fill="none" stroke="white" stroke-width="1.5" pointer-events="none"/>
                </g>
                <g id="zoomMin">
                        <use xlink:href="#rim" fill="#404040">
                                <set attributeName="fill" to="#808080" begin="zoomminus.mouseover" end="zoomminus.mouseout"/>
                        </use>
                        <path d="M-4,0h8" fill="none" stroke="white" stroke-width="1.5" pointer-events="none"/>
                </g>
                <g id="dirArrow">
                        <path fill="none" stroke="white" stroke-width="1.5" d="M0,-3.0v7 M-2.5,-0.5L0,-3.0L2.5,-0.5"/>
                </g>
               <g id="resetDef">
                       <use xlink:href="#rim2" fill="#404040">
                               <set attributeName="fill" to="#808080" begin="reset.mouseover" end="reset.mouseout"/>
                       </use>
               </g>
        </defs>

<script type="text/javascript">
var viewWidth = 228;
var viewHeight = 1052;
var sectionId = 'dynsection-0';
</script>
<script xlink:href="svgpan.js"/>
<svg id="graph" class="graph">
<g id="viewport">
<title>HydroCouple::Temporal::IIdBasedTimeComponentDataItem</title>
<!-- Node1 -->
<g id="node1" class="node"><title>Node1</title>
<polygon fill="#bfbfbf" stroke="black" points="0,-114.84 0,-298.859 220.033,-298.859 220.033,-114.84 0,-114.84"/>
<text text-anchor="start" x="8" y="-286.859" font-family="Monaco" font-size="10.00">HydroCouple::Temporal</text>
<text text-anchor="middle" x="110.017" y="-273.524" font-family="Monaco" font-size="10.00">::IIdBasedTimeComponentDataItem</text>
<polyline fill="none" stroke="black" points="0,-264.189 220.033,-264.189 "/>
<text text-anchor="middle" x="110.017" y="-252.189" font-family="Monaco" font-size="10.00"> </text>
<polyline fill="none" stroke="black" points="0,-242.854 220.033,-242.854 "/>
<text text-anchor="start" x="8" y="-230.854" font-family="Monaco" font-size="10.00">+ ~IIdBasedTimeComponentDataItem()</text>
<text text-anchor="start" x="8" y="-217.52" font-family="Monaco" font-size="10.00">+ identifiers()</text>
<text text-anchor="start" x="8" y="-204.185" font-family="Monaco" font-size="10.00">+ identifierDimension()</text>
<text text-anchor="start" x="8" y="-190.85" font-family="Monaco" font-size="10.00">+ getValue()</text>
<text text-anchor="start" x="8" y="-177.515" font-family="Monaco" font-size="10.00">+ getValues()</text>
<text text-anchor="start" x="8" y="-164.18" font-family="Monaco" font-size="10.00">+ getValues()</text>
<text text-anchor="start" x="8" y="-150.845" font-family="Monaco" font-size="10.00">+ setValue()</text>
<text text-anchor="start" x="8" y="-137.51" font-family="Monaco" font-size="10.00">+ setValues()</text>
<text text-anchor="start" x="8" y="-124.175" font-family="Monaco" font-size="10.00">+ setValues()</text>
</g>
<!-- Node7 -->
<g id="node7" class="node"><title>Node7</title>
<g id="a_node7"><a xlink:href="class_hydro_couple_1_1_temporal_1_1_i_id_based_time_exchange_item.html" target="_top" xlink:title="The IIdBasedTimeExchangeItem class. ">
<polygon fill="none" stroke="black" points="15.0024,-0.5 15.0024,-77.8398 205.031,-77.8398 205.031,-0.5 15.0024,-0.5"/>
<text text-anchor="start" x="23.0024" y="-65.8398" font-family="Monaco" font-size="10.00">HydroCouple::Temporal</text>
<text text-anchor="middle" x="110.017" y="-52.5049" font-family="Monaco" font-size="10.00">::IIdBasedTimeExchangeItem</text>
<polyline fill="none" stroke="black" points="15.0024,-43.1699 205.031,-43.1699 "/>
<text text-anchor="middle" x="110.017" y="-31.1699" font-family="Monaco" font-size="10.00"> </text>
<polyline fill="none" stroke="black" points="15.0024,-21.835 205.031,-21.835 "/>
<text text-anchor="start" x="23.0024" y="-9.83496" font-family="Monaco" font-size="10.00">+ ~IIdBasedTimeExchangeItem()</text>
</a>
</g>
</g>
<!-- Node1&#45;&gt;Node7 -->
<g id="edge6" class="edge"><title>Node1&#45;&gt;Node7</title>
<path fill="none" stroke="midnightblue" d="M110.017,-104.545C110.017,-95.2193 110.017,-86.2222 110.017,-78.0601"/>
<polygon fill="none" stroke="midnightblue" points="106.517,-104.77 110.017,-114.77 113.517,-104.77 106.517,-104.77"/>
</g>
<!-- Node2 -->
<g id="node2" class="node"><title>Node2</title>
<g id="a_node2"><a xlink:href="class_hydro_couple_1_1_temporal_1_1_i_time_component_data_item.html" target="_top" xlink:title="ITimeComponentItem is an IComponentItem with a temporal attribute. ">
<polygon fill="none" stroke="black" points="21.0034,-335.859 21.0034,-453.204 199.03,-453.204 199.03,-335.859 21.0034,-335.859"/>
<text text-anchor="start" x="29.0034" y="-441.204" font-family="Monaco" font-size="10.00">HydroCouple::Temporal</text>
<text text-anchor="middle" x="110.017" y="-427.869" font-family="Monaco" font-size="10.00">::ITimeComponentDataItem</text>
<polyline fill="none" stroke="black" points="21.0034,-418.534 199.03,-418.534 "/>
<text text-anchor="middle" x="110.017" y="-406.534" font-family="Monaco" font-size="10.00"> </text>
<polyline fill="none" stroke="black" points="21.0034,-397.199 199.03,-397.199 "/>
<text text-anchor="start" x="29.0034" y="-385.199" font-family="Monaco" font-size="10.00">+ ~ITimeComponentDataItem()</text>
<text text-anchor="start" x="29.0034" y="-371.864" font-family="Monaco" font-size="10.00">+ times()</text>
<text text-anchor="start" x="29.0034" y="-358.529" font-family="Monaco" font-size="10.00">+ timeSpan()</text>
<text text-anchor="start" x="29.0034" y="-345.194" font-family="Monaco" font-size="10.00">+ timeDimension()</text>
</a>
</g>
</g>
<!-- Node2&#45;&gt;Node1 -->
<g id="edge1" class="edge"><title>Node2&#45;&gt;Node1</title>
<path fill="none" stroke="midnightblue" d="M110.017,-325.731C110.017,-317.013 110.017,-307.976 110.017,-298.961"/>
<polygon fill="none" stroke="midnightblue" points="106.517,-325.799 110.017,-335.799 113.517,-325.799 106.517,-325.799"/>
</g>
<!-- Node3 -->
<g id="node3" class="node"><title>Node3</title>
<g id="a_node3"><a xlink:href="class_hydro_couple_1_1_i_component_data_item.html" target="_top" xlink:title="IComponentItem is a fundamental unit of data for a component. ">
<polygon fill="none" stroke="black" points="9.00146,-490.204 9.00146,-674.224 211.032,-674.224 211.032,-490.204 9.00146,-490.204"/>
<text text-anchor="middle" x="110.017" y="-662.224" font-family="Monaco" font-size="10.00">HydroCouple::IComponentDataItem</text>
<polyline fill="none" stroke="black" points="9.00146,-652.889 211.032,-652.889 "/>
<text text-anchor="middle" x="110.017" y="-640.889" font-family="Monaco" font-size="10.00"> </text>
<polyline fill="none" stroke="black" points="9.00146,-631.554 211.032,-631.554 "/>
<text text-anchor="start" x="17.0015" y="-619.554" font-family="Monaco" font-size="10.00">+ ~IComponentDataItem()</text>
<text text-anchor="start" x="17.0015" y="-606.219" font-family="Monaco" font-size="10.00">+ modelComponent()</text>
<text text-anchor="start" x="17.0015" y="-592.884" font-family="Monaco" font-size="10.00">+ dimensions()</text>
<text text-anchor="start" x="17.0015" y="-579.549" font-family="Monaco" font-size="10.00">+ valueDefinition()</text>
<text text-anchor="start" x="17.0015" y="-566.214" font-family="Monaco" font-size="10.00">+ getValue()</text>
<text text-anchor="start" x="17.0015" y="-552.879" font-family="Monaco" font-size="10.00">+ getValues()</text>
<text text-anchor="start" x="17.0015" y="-539.544" font-family="Monaco" font-size="10.00">+ getValues()</text>
<text text-anchor="start" x="17.0015" y="-526.209" font-family="Monaco" font-size="10.00">+ setValue()</text>
<text text-anchor="start" x="17.0015" y="-512.874" font-family="Monaco" font-size="10.00">+ setValues()</text>
<text text-anchor="start" x="17.0015" y="-499.539" font-family="Monaco" font-size="10.00">+ setValues()</text>
</a>
</g>
</g>
<!-- Node3&#45;&gt;Node2 -->
<g id="edge2" class="edge"><title>Node3&#45;&gt;Node2</title>
<path fill="none" stroke="midnightblue" d="M110.017,-479.782C110.017,-470.753 110.017,-461.833 110.017,-453.368"/>
<polygon fill="none" stroke="midnightblue" points="106.517,-480.005 110.017,-490.005 113.517,-480.005 106.517,-480.005"/>
</g>
<!-- Node4 -->
<g id="node4" class="node"><title>Node4</title>
<g id="a_node4"><a xlink:href="class_hydro_couple_1_1_i_identity.html" target="_top" xlink:title="IIdentity interface class defines a method to get the Id of an HydroCouple entity. ">
<polygon fill="none" stroke="black" points="36.0059,-711.224 36.0059,-788.563 184.027,-788.563 184.027,-711.224 36.0059,-711.224"/>
<text text-anchor="middle" x="110.017" y="-776.563" font-family="Monaco" font-size="10.00">HydroCouple::IIdentity</text>
<polyline fill="none" stroke="black" points="36.0059,-767.229 184.027,-767.229 "/>
<text text-anchor="middle" x="110.017" y="-755.229" font-family="Monaco" font-size="10.00"> </text>
<polyline fill="none" stroke="black" points="36.0059,-745.894 184.027,-745.894 "/>
<text text-anchor="start" x="44.0059" y="-733.894" font-family="Monaco" font-size="10.00">+ ~IIdentity()</text>
<text text-anchor="start" x="44.0059" y="-720.559" font-family="Monaco" font-size="10.00">+ id()</text>
</a>
</g>
</g>
<!-- Node4&#45;&gt;Node3 -->
<g id="edge3" class="edge"><title>Node4&#45;&gt;Node3</title>
<path fill="none" stroke="midnightblue" d="M110.017,-700.641C110.017,-692.288 110.017,-683.363 110.017,-674.305"/>
<polygon fill="none" stroke="midnightblue" points="106.517,-700.883 110.017,-710.883 113.517,-700.883 106.517,-700.883"/>
</g>
<!-- Node5 -->
<g id="node5" class="node"><title>Node5</title>
<g id="a_node5"><a xlink:href="class_hydro_couple_1_1_i_description.html" target="_top" xlink:title="IDescription interface class provides descriptive information on a HydroCouple object. ">
<polygon fill="none" stroke="black" points="27.0044,-825.563 27.0044,-942.908 193.029,-942.908 193.029,-825.563 27.0044,-825.563"/>
<text text-anchor="middle" x="110.017" y="-930.908" font-family="Monaco" font-size="10.00">HydroCouple::IDescription</text>
<polyline fill="none" stroke="black" points="27.0044,-921.573 193.029,-921.573 "/>
<text text-anchor="middle" x="110.017" y="-909.573" font-family="Monaco" font-size="10.00"> </text>
<polyline fill="none" stroke="black" points="27.0044,-900.238 193.029,-900.238 "/>
<text text-anchor="start" x="35.0044" y="-888.238" font-family="Monaco" font-size="10.00">+ ~IDescription()</text>
<text text-anchor="start" x="35.0044" y="-874.903" font-family="Monaco" font-size="10.00">+ caption()</text>
<text text-anchor="start" x="35.0044" y="-861.568" font-family="Monaco" font-size="10.00">+ setCaption()</text>
<text text-anchor="start" x="35.0044" y="-848.233" font-family="Monaco" font-size="10.00">+ description()</text>
<text text-anchor="start" x="35.0044" y="-834.898" font-family="Monaco" font-size="10.00">+ setDescription()</text>
</a>
</g>
</g>
<!-- Node5&#45;&gt;Node4 -->
<g id="edge4" class="edge"><title>Node5&#45;&gt;Node4</title>
<path fill="none" stroke="midnightblue" d="M110.017,-814.998C110.017,-805.959 110.017,-796.971 110.017,-788.711"/>
<polygon fill="none" stroke="midnightblue" points="106.517,-815.189 110.017,-825.189 113.517,-815.189 106.517,-815.189"/>
</g>
<!-- Node6 -->
<g id="node6" class="node"><title>Node6</title>
<g id="a_node6"><a xlink:href="class_hydro_couple_1_1_i_property_changed.html" target="_top" xlink:title="IPropertyChanged interface is used to emit signal/event when a property of an object changes...">
<polygon fill="none" stroke="black" points="15.0024,-979.908 15.0024,-1043.91 205.031,-1043.91 205.031,-979.908 15.0024,-979.908"/>
<text text-anchor="middle" x="110.017" y="-1031.91" font-family="Monaco" font-size="10.00">HydroCouple::IPropertyChanged</text>
<polyline fill="none" stroke="black" points="15.0024,-1022.58 205.031,-1022.58 "/>
<text text-anchor="middle" x="110.017" y="-1010.58" font-family="Monaco" font-size="10.00"> </text>
<polyline fill="none" stroke="black" points="15.0024,-1001.24 205.031,-1001.24 "/>
<text text-anchor="start" x="23.0024" y="-989.243" font-family="Monaco" font-size="10.00">+ ~IPropertyChanged()</text>
</a>
</g>
</g>
<!-- Node6&#45;&gt;Node5 -->
<g id="edge5" class="edge"><title>Node6&#45;&gt;Node5</title>
<path fill="none" stroke="midnightblue" d="M110.017,-969.588C110.017,-961.203 110.017,-952.236 110.017,-943.394"/>
<polygon fill="none" stroke="midnightblue" points="106.517,-969.845 110.017,-979.845 113.517,-969.845 106.517,-969.845"/>
</g>
</g>
</svg>
        <g id="navigator" transform="translate(0 0)" fill="#404254">
                <rect fill="#f2f5e9" fill-opacity="0.5" stroke="#606060" stroke-width=".5" x="0" y="0" width="60" height="60"/>
                <use id="zoomplus" xlink:href="#zoomPlus" x="17" y="9" onmousedown="handleZoom(evt,'in')"/>
                <use id="zoomminus" xlink:href="#zoomMin" x="42" y="9" onmousedown="handleZoom(evt,'out')"/>
                <use id="reset" xlink:href="#resetDef" x="30" y="36" onmousedown="handleReset()"/>
                <g id="arrowUp" xlink:href="#dirArrow" transform="translate(30 24)" onmousedown="handlePan(0,-1)">
                  <use xlink:href="#rim" fill="#404040">
                        <set attributeName="fill" to="#808080" begin="arrowUp.mouseover" end="arrowUp.mouseout"/>
                  </use>
                  <path fill="none" stroke="white" stroke-width="1.5" d="M0,-3.0v7 M-2.5,-0.5L0,-3.0L2.5,-0.5"/>
                </g>
                <g id="arrowRight" xlink:href="#dirArrow" transform="rotate(90) translate(36 -43)" onmousedown="handlePan(1,0)">
                  <use xlink:href="#rim" fill="#404040">
                        <set attributeName="fill" to="#808080" begin="arrowRight.mouseover" end="arrowRight.mouseout"/>
                  </use>
                  <path fill="none" stroke="white" stroke-width="1.5" d="M0,-3.0v7 M-2.5,-0.5L0,-3.0L2.5,-0.5"/>
                </g>
                <g id="arrowDown" xlink:href="#dirArrow" transform="rotate(180) translate(-30 -48)" onmousedown="handlePan(0,1)">
                  <use xlink:href="#rim" fill="#404040">
                        <set attributeName="fill" to="#808080" begin="arrowDown.mouseover" end="arrowDown.mouseout"/>
                  </use>
                  <path fill="none" stroke="white" stroke-width="1.5" d="M0,-3.0v7 M-2.5,-0.5L0,-3.0L2.5,-0.5"/>
                </g>
                <g id="arrowLeft" xlink:href="#dirArrow" transform="rotate(270) translate(-36 17)" onmousedown="handlePan(-1,0)">
                  <use xlink:href="#rim" fill="#404040">
                        <set attributeName="fill" to="#808080" begin="arrowLeft.mouseover" end="arrowLeft.mouseout"/>
                  </use>
                  <path fill="none" stroke="white" stroke-width="1.5" d="M0,-3.0v7 M-2.5,-0.5L0,-3.0L2.5,-0.5"/>
                </g>
        </g>
        <svg viewBox="0 0 15 15" width="100%" height="30px" preserveAspectRatio="xMaxYMin meet">
         <g id="arrow_out" transform="scale(0.3 0.3)">
          <a xlink:href="class_hydro_couple_1_1_temporal_1_1_i_id_based_time_component_data_item__inherit__graph_org.svg" target="_base">
           <rect id="button" ry="5" rx="5" y="6" x="6" height="38" width="38"
                fill="#f2f5e9" fill-opacity="0.5" stroke="#606060" stroke-width="1.0"/>
           <path id="arrow"
             d="M 11.500037,31.436501 C 11.940474,20.09759 22.043105,11.32322 32.158766,21.979434 L 37.068811,17.246167 C 37.068811,17.246167 37.088388,32 37.088388,32 L 22.160133,31.978069 C 22.160133,31.978069 26.997745,27.140456 26.997745,27.140456 C 18.528582,18.264221 13.291696,25.230495 11.500037,31.436501 z"
             style="fill:#404040;"/>
          </a>
         </g>
        </svg>
</svg>
