<?xml version="1.0" encoding="UTF-8" standalone="no"?>
<!DOCTYPE svg PUBLIC "-//W3C//DTD SVG 1.1//EN"
 "http://www.w3.org/Graphics/SVG/1.1/DTD/svg11.dtd">
<!-- Generated by graphviz version 2.38.0 (20140413.2041)
 -->
<!-- Title: ComponentInfo Pages: 1 -->
<!--zoomable 1245 -->
<svg id="main" version="1.1" xmlns="http://www.w3.org/2000/svg" xmlns:xlink="http://www.w3.org/1999/xlink" xml:space="preserve" onload="init(evt)">
<style type="text/css"><![CDATA[
.edge:hover path { stroke: red; }
.edge:hover polygon { stroke: red; fill: red; }
]]></style>
<script type="text/javascript"><![CDATA[
var edges = document.getElementsByTagName('g');
if (edges && edges.length) {
  for (var i=0;i<edges.length;i++) {
    if (edges[i].id.substr(0,4)=='edge') {
      edges[i].setAttribute('class','edge');
    }
  }
}
]]></script>
        <defs>
                <circle id="rim" cx="0" cy="0" r="7"/>
                <circle id="rim2" cx="0" cy="0" r="3.5"/>
                <g id="zoomPlus">
                        <use xlink:href="#rim" fill="#404040">
                                <set attributeName="fill" to="#808080" begin="zoomplus.mouseover" end="zoomplus.mouseout"/>
                        </use>
                        <path d="M-4,0h8M0,-4v8" fill="none" stroke="white" stroke-width="1.5" pointer-events="none"/>
                </g>
                <g id="zoomMin">
                        <use xlink:href="#rim" fill="#404040">
                                <set attributeName="fill" to="#808080" begin="zoomminus.mouseover" end="zoomminus.mouseout"/>
                        </use>
                        <path d="M-4,0h8" fill="none" stroke="white" stroke-width="1.5" pointer-events="none"/>
                </g>
                <g id="dirArrow">
                        <path fill="none" stroke="white" stroke-width="1.5" d="M0,-3.0v7 M-2.5,-0.5L0,-3.0L2.5,-0.5"/>
                </g>
               <g id="resetDef">
                       <use xlink:href="#rim2" fill="#404040">
                               <set attributeName="fill" to="#808080" begin="reset.mouseover" end="reset.mouseout"/>
                       </use>
               </g>
        </defs>

<script type="text/javascript">
var viewWidth = 313;
var viewHeight = 1245;
var sectionId = 'dynsection-0';
</script>
<script xlink:href="svgpan.js"/>
<svg id="graph" class="graph">
<g id="viewport">
<title>ComponentInfo</title>
<polygon fill="white" stroke="none" points="-4,4 -4,-1240.78 309.022,-1240.78 309.022,4 -4,4"/>
<!-- Node1 -->
<g id="node1" class="node"><title>Node1</title>
<polygon fill="#bfbfbf" stroke="black" points="64.998,-101.505 64.998,-485.549 213.02,-485.549 213.02,-101.505 64.998,-101.505"/>
<text text-anchor="middle" x="139.009" y="-473.549" font-family="Monaco" font-size="10.00">ComponentInfo</text>
<polyline fill="none" stroke="black" points="64.998,-464.214 213.02,-464.214 "/>
<text text-anchor="start" x="72.998" y="-452.214" font-family="Monaco" font-size="10.00"># m_name</text>
<text text-anchor="start" x="72.998" y="-438.879" font-family="Monaco" font-size="10.00"># m_iconFilePath</text>
<text text-anchor="start" x="72.998" y="-425.544" font-family="Monaco" font-size="10.00"># m_vendor</text>
<text text-anchor="start" x="72.998" y="-412.209" font-family="Monaco" font-size="10.00"># m_license</text>
<text text-anchor="start" x="72.998" y="-398.874" font-family="Monaco" font-size="10.00"># m_copyright</text>
<text text-anchor="start" x="72.998" y="-385.539" font-family="Monaco" font-size="10.00"># m_url</text>
<text text-anchor="start" x="72.998" y="-372.204" font-family="Monaco" font-size="10.00"># m_email</text>
<text text-anchor="start" x="72.998" y="-358.869" font-family="Monaco" font-size="10.00"># m_version</text>
<text text-anchor="start" x="72.998" y="-345.534" font-family="Monaco" font-size="10.00"># m_category</text>
<text text-anchor="start" x="72.998" y="-332.199" font-family="Monaco" font-size="10.00"># m_filePath</text>
<text text-anchor="start" x="72.998" y="-318.864" font-family="Monaco" font-size="10.00"># m_publications</text>
<polyline fill="none" stroke="black" points="64.998,-309.529 213.02,-309.529 "/>
<text text-anchor="start" x="72.998" y="-297.529" font-family="Monaco" font-size="10.00">+ ComponentInfo()</text>
<text text-anchor="start" x="72.998" y="-284.194" font-family="Monaco" font-size="10.00">+ ~ComponentInfo()</text>
<text text-anchor="start" x="72.998" y="-270.859" font-family="Monaco" font-size="10.00">+ name()</text>
<text text-anchor="start" x="72.998" y="-257.524" font-family="Monaco" font-size="10.00">+ libraryFilePath()</text>
<text text-anchor="start" x="72.998" y="-244.189" font-family="Monaco" font-size="10.00">+ setLibraryFilePath()</text>
<text text-anchor="start" x="72.998" y="-230.854" font-family="Monaco" font-size="10.00">+ iconFilePath()</text>
<text text-anchor="start" x="72.998" y="-217.52" font-family="Monaco" font-size="10.00">+ vendor()</text>
<text text-anchor="start" x="72.998" y="-204.185" font-family="Monaco" font-size="10.00">+ publications()</text>
<text text-anchor="start" x="72.998" y="-190.85" font-family="Monaco" font-size="10.00">+ license()</text>
<text text-anchor="start" x="72.998" y="-177.515" font-family="Monaco" font-size="10.00">+ copyright()</text>
<text text-anchor="start" x="72.998" y="-164.18" font-family="Monaco" font-size="10.00">+ url()</text>
<text text-anchor="start" x="72.998" y="-150.845" font-family="Monaco" font-size="10.00">+ email()</text>
<text text-anchor="start" x="72.998" y="-137.51" font-family="Monaco" font-size="10.00">+ version()</text>
<text text-anchor="start" x="72.998" y="-124.175" font-family="Monaco" font-size="10.00">+ category()</text>
<text text-anchor="start" x="72.998" y="-110.84" font-family="Monaco" font-size="10.00">+ hasValidLicense()</text>
</g>
<!-- Node9 -->
<g id="node9" class="node"><title>Node9</title>
<g id="a_node9"><a xlink:href="class_model_component_info.html" target="_top" xlink:title="The ModelComponentInfo class. ">
<polygon fill="white" stroke="black" points="77,-0.5 77,-64.5049 201.018,-64.5049 201.018,-0.5 77,-0.5"/>
<text text-anchor="middle" x="139.009" y="-52.5049" font-family="Monaco" font-size="10.00">ModelComponentInfo</text>
<polyline fill="none" stroke="black" points="77,-43.1699 201.018,-43.1699 "/>
<text text-anchor="middle" x="139.009" y="-31.1699" font-family="Monaco" font-size="10.00"> </text>
<polyline fill="none" stroke="black" points="77,-21.835 201.018,-21.835 "/>
<text text-anchor="middle" x="139.009" y="-9.83496" font-family="Monaco" font-size="10.00"> </text>
</a>
</g>
</g>
<!-- Node1&#45;&gt;Node9 -->
<g id="edge10" class="edge"><title>Node1&#45;&gt;Node9</title>
<path fill="none" stroke="midnightblue" d="M139.009,-91.1552C139.009,-81.3452 139.009,-72.3401 139.009,-64.5086"/>
<polygon fill="none" stroke="midnightblue" points="135.509,-91.2197 139.009,-101.22 142.509,-91.2198 135.509,-91.2197"/>
</g>
<!-- Node2 -->
<g id="node2" class="node"><title>Node2</title>
<g id="a_node2"><a xlink:href="class_identity.html" target="_top" xlink:title="The Identity class is an implementation of the HydroCouple::IIdentity of the HydroCouple interface de...">
<polygon fill="white" stroke="black" points="15.0024,-582.556 15.0024,-699.901 109.015,-699.901 109.015,-582.556 15.0024,-582.556"/>
<text text-anchor="middle" x="62.0088" y="-687.901" font-family="Monaco" font-size="10.00">Identity</text>
<polyline fill="none" stroke="black" points="15.0024,-678.566 109.015,-678.566 "/>
<text text-anchor="start" x="23.0024" y="-666.566" font-family="Monaco" font-size="10.00">+ Id</text>
<polyline fill="none" stroke="black" points="15.0024,-657.231 109.015,-657.231 "/>
<text text-anchor="start" x="23.0024" y="-645.231" font-family="Monaco" font-size="10.00">+ Identity()</text>
<text text-anchor="start" x="23.0024" y="-631.896" font-family="Monaco" font-size="10.00">+ Identity()</text>
<text text-anchor="start" x="23.0024" y="-618.561" font-family="Monaco" font-size="10.00">+ ~Identity()</text>
<text text-anchor="start" x="23.0024" y="-605.226" font-family="Monaco" font-size="10.00">+ id()</text>
<text text-anchor="start" x="23.0024" y="-591.891" font-family="Monaco" font-size="10.00"># setId()</text>
</a>
</g>
</g>
<!-- Node2&#45;&gt;Node1 -->
<g id="edge1" class="edge"><title>Node2&#45;&gt;Node1</title>
<path fill="none" stroke="midnightblue" d="M77.0883,-572.527C82.7407,-547.15 89.4794,-516.895 96.3973,-485.837"/>
<polygon fill="none" stroke="midnightblue" points="73.6547,-571.844 74.8969,-582.366 80.4873,-573.366 73.6547,-571.844"/>
</g>
<!-- Node3 -->
<g id="node3" class="node"><title>Node3</title>
<g id="a_node3"><a xlink:href="class_description.html" target="_top" xlink:title="The Description class. ">
<polygon fill="white" stroke="black" points="0,-796.908 0,-980.928 124.018,-980.928 124.018,-796.908 0,-796.908"/>
<text text-anchor="middle" x="62.0088" y="-968.928" font-family="Monaco" font-size="10.00">Description</text>
<polyline fill="none" stroke="black" points="0,-959.593 124.018,-959.593 "/>
<text text-anchor="start" x="8" y="-947.593" font-family="Monaco" font-size="10.00">+ Caption</text>
<text text-anchor="start" x="8" y="-934.258" font-family="Monaco" font-size="10.00">+ Description</text>
<text text-anchor="start" x="8" y="-920.923" font-family="Monaco" font-size="10.00"># m_caption</text>
<text text-anchor="start" x="8" y="-907.588" font-family="Monaco" font-size="10.00"># m_description</text>
<polyline fill="none" stroke="black" points="0,-898.253 124.018,-898.253 "/>
<text text-anchor="start" x="8" y="-886.253" font-family="Monaco" font-size="10.00">+ Description()</text>
<text text-anchor="start" x="8" y="-872.918" font-family="Monaco" font-size="10.00">+ Description()</text>
<text text-anchor="start" x="8" y="-859.583" font-family="Monaco" font-size="10.00">+ ~Description()</text>
<text text-anchor="start" x="8" y="-846.248" font-family="Monaco" font-size="10.00">+ getCaption()</text>
<text text-anchor="start" x="8" y="-832.913" font-family="Monaco" font-size="10.00">+ setCaption()</text>
<text text-anchor="start" x="8" y="-819.578" font-family="Monaco" font-size="10.00">+ getDescription()</text>
<text text-anchor="start" x="8" y="-806.243" font-family="Monaco" font-size="10.00">+ setDescription()</text>
</a>
</g>
</g>
<!-- Node3&#45;&gt;Node2 -->
<g id="edge2" class="edge"><title>Node3&#45;&gt;Node2</title>
<path fill="none" stroke="midnightblue" d="M62.0088,-786.447C62.0088,-756.998 62.0088,-725.859 62.0088,-700.081"/>
<polygon fill="none" stroke="midnightblue" points="58.5089,-786.781 62.0088,-796.781 65.5089,-786.781 58.5089,-786.781"/>
</g>
<!-- Node4 -->
<g id="node4" class="node"><title>Node4</title>
<polygon fill="white" stroke="#bfbfbf" points="33.0054,-1044.6 33.0054,-1108.6 91.0122,-1108.6 91.0122,-1044.6 33.0054,-1044.6"/>
<text text-anchor="middle" x="62.0088" y="-1096.6" font-family="Monaco" font-size="10.00">QObject</text>
<polyline fill="none" stroke="#bfbfbf" points="33.0054,-1087.27 91.0122,-1087.27 "/>
<text text-anchor="middle" x="62.0088" y="-1075.27" font-family="Monaco" font-size="10.00"> </text>
<polyline fill="none" stroke="#bfbfbf" points="33.0054,-1065.93 91.0122,-1065.93 "/>
<text text-anchor="middle" x="62.0088" y="-1053.93" font-family="Monaco" font-size="10.00"> </text>
</g>
<!-- Node4&#45;&gt;Node3 -->
<g id="edge3" class="edge"><title>Node4&#45;&gt;Node3</title>
<path fill="none" stroke="midnightblue" d="M62.0088,-1034.12C62.0088,-1018.37 62.0088,-999.752 62.0088,-981.214"/>
<polygon fill="none" stroke="midnightblue" points="58.5089,-1034.52 62.0088,-1044.52 65.5089,-1034.52 58.5089,-1034.52"/>
</g>
<!-- Node5 -->
<g id="node5" class="node"><title>Node5</title>
<g id="a_node5"><a xlink:href="class_hydro_couple_1_1_i_description.html" target="_top" xlink:title="IDescription interface class provides descriptive information on a HydroCouple object. ">
<polygon fill="white" stroke="black" points="120.997,-1017.93 120.997,-1135.27 287.021,-1135.27 287.021,-1017.93 120.997,-1017.93"/>
<text text-anchor="middle" x="204.009" y="-1123.27" font-family="Monaco" font-size="10.00">HydroCouple::IDescription</text>
<polyline fill="none" stroke="black" points="120.997,-1113.94 287.021,-1113.94 "/>
<text text-anchor="middle" x="204.009" y="-1101.94" font-family="Monaco" font-size="10.00"> </text>
<polyline fill="none" stroke="black" points="120.997,-1092.6 287.021,-1092.6 "/>
<text text-anchor="start" x="128.997" y="-1080.6" font-family="Monaco" font-size="10.00">+ ~IDescription()</text>
<text text-anchor="start" x="128.997" y="-1067.27" font-family="Monaco" font-size="10.00">+ getCaption()</text>
<text text-anchor="start" x="128.997" y="-1053.93" font-family="Monaco" font-size="10.00">+ setCaption()</text>
<text text-anchor="start" x="128.997" y="-1040.6" font-family="Monaco" font-size="10.00">+ getDescription()</text>
<text text-anchor="start" x="128.997" y="-1027.26" font-family="Monaco" font-size="10.00">+ setDescription()</text>
</a>
</g>
</g>
<!-- Node5&#45;&gt;Node3 -->
<g id="edge4" class="edge"><title>Node5&#45;&gt;Node3</title>
<path fill="none" stroke="midnightblue" d="M153.662,-1009.77C144.102,-997.264 133.994,-984.047 124.119,-971.135"/>
<polygon fill="none" stroke="midnightblue" points="151.003,-1012.05 159.857,-1017.87 156.563,-1007.8 151.003,-1012.05"/>
</g>
<!-- Node7 -->
<g id="node7" class="node"><title>Node7</title>
<g id="a_node7"><a xlink:href="class_hydro_couple_1_1_i_identity.html" target="_top" xlink:title="IIdentity interface class defines a method to get the Id of an HydroCouple entity. ">
<polygon fill="white" stroke="black" points="141.998,-850.248 141.998,-927.588 290.02,-927.588 290.02,-850.248 141.998,-850.248"/>
<text text-anchor="middle" x="216.009" y="-915.588" font-family="Monaco" font-size="10.00">HydroCouple::IIdentity</text>
<polyline fill="none" stroke="black" points="141.998,-906.253 290.02,-906.253 "/>
<text text-anchor="middle" x="216.009" y="-894.253" font-family="Monaco" font-size="10.00"> </text>
<polyline fill="none" stroke="black" points="141.998,-884.918 290.02,-884.918 "/>
<text text-anchor="start" x="149.998" y="-872.918" font-family="Monaco" font-size="10.00">+ ~IIdentity()</text>
<text text-anchor="start" x="149.998" y="-859.583" font-family="Monaco" font-size="10.00">+ id()</text>
</a>
</g>
</g>
<!-- Node5&#45;&gt;Node7 -->
<g id="edge7" class="edge"><title>Node5&#45;&gt;Node7</title>
<path fill="none" stroke="midnightblue" d="M208.398,-1007.69C210.142,-980.696 212.083,-950.663 213.568,-927.682"/>
<polygon fill="none" stroke="midnightblue" points="204.892,-1007.66 207.74,-1017.87 211.878,-1008.11 204.892,-1007.66"/>
</g>
<!-- Node6 -->
<g id="node6" class="node"><title>Node6</title>
<g id="a_node6"><a xlink:href="class_hydro_couple_1_1_i_property_changed.html" target="_top" xlink:title="IPropertyChanged interface is used to emit signal/event when a property of an object changes...">
<polygon fill="white" stroke="black" points="108.995,-1172.27 108.995,-1236.28 299.023,-1236.28 299.023,-1172.27 108.995,-1172.27"/>
<text text-anchor="middle" x="204.009" y="-1224.28" font-family="Monaco" font-size="10.00">HydroCouple::IPropertyChanged</text>
<polyline fill="none" stroke="black" points="108.995,-1214.94 299.023,-1214.94 "/>
<text text-anchor="middle" x="204.009" y="-1202.94" font-family="Monaco" font-size="10.00"> </text>
<polyline fill="none" stroke="black" points="108.995,-1193.61 299.023,-1193.61 "/>
<text text-anchor="start" x="116.995" y="-1181.61" font-family="Monaco" font-size="10.00">+ ~IPropertyChanged()</text>
</a>
</g>
</g>
<!-- Node6&#45;&gt;Node5 -->
<g id="edge5" class="edge"><title>Node6&#45;&gt;Node5</title>
<path fill="none" stroke="midnightblue" d="M204.009,-1161.95C204.009,-1153.57 204.009,-1144.6 204.009,-1135.76"/>
<polygon fill="none" stroke="midnightblue" points="200.509,-1162.21 204.009,-1172.21 207.509,-1162.21 200.509,-1162.21"/>
</g>
<!-- Node7&#45;&gt;Node2 -->
<g id="edge6" class="edge"><title>Node7&#45;&gt;Node2</title>
<path fill="none" stroke="midnightblue" d="M177.193,-842.359C158.093,-818.765 135.481,-788.976 118.009,-760.408 106.4,-741.427 95.4725,-719.659 86.4061,-700.02"/>
<polygon fill="none" stroke="midnightblue" points="174.488,-844.58 183.524,-850.113 179.911,-840.153 174.488,-844.58"/>
</g>
<!-- Node8 -->
<g id="node8" class="node"><title>Node8</title>
<g id="a_node8"><a xlink:href="class_hydro_couple_1_1_i_component_info.html" target="_top" xlink:title="IComponentInfo interface class provides detailed metadata about a component. ">
<polygon fill="white" stroke="black" points="126.996,-522.549 126.996,-759.908 305.022,-759.908 305.022,-522.549 126.996,-522.549"/>
<text text-anchor="middle" x="216.009" y="-747.908" font-family="Monaco" font-size="10.00">HydroCouple::IComponentInfo</text>
<polyline fill="none" stroke="black" points="126.996,-738.573 305.022,-738.573 "/>
<text text-anchor="middle" x="216.009" y="-726.573" font-family="Monaco" font-size="10.00"> </text>
<polyline fill="none" stroke="black" points="126.996,-717.238 305.022,-717.238 "/>
<text text-anchor="start" x="134.996" y="-705.238" font-family="Monaco" font-size="10.00">+ ~IComponentInfo()</text>
<text text-anchor="start" x="134.996" y="-691.903" font-family="Monaco" font-size="10.00">+ name()</text>
<text text-anchor="start" x="134.996" y="-678.568" font-family="Monaco" font-size="10.00">+ libraryFilePath()</text>
<text text-anchor="start" x="134.996" y="-665.233" font-family="Monaco" font-size="10.00">+ setLibraryFilePath()</text>
<text text-anchor="start" x="134.996" y="-651.898" font-family="Monaco" font-size="10.00">+ iconFilePath()</text>
<text text-anchor="start" x="134.996" y="-638.563" font-family="Monaco" font-size="10.00">+ vendor()</text>
<text text-anchor="start" x="134.996" y="-625.229" font-family="Monaco" font-size="10.00">+ publications()</text>
<text text-anchor="start" x="134.996" y="-611.894" font-family="Monaco" font-size="10.00">+ license()</text>
<text text-anchor="start" x="134.996" y="-598.559" font-family="Monaco" font-size="10.00">+ copyright()</text>
<text text-anchor="start" x="134.996" y="-585.224" font-family="Monaco" font-size="10.00">+ url()</text>
<text text-anchor="start" x="134.996" y="-571.889" font-family="Monaco" font-size="10.00">+ email()</text>
<text text-anchor="start" x="134.996" y="-558.554" font-family="Monaco" font-size="10.00">+ version()</text>
<text text-anchor="start" x="134.996" y="-545.219" font-family="Monaco" font-size="10.00">+ category()</text>
<text text-anchor="start" x="134.996" y="-531.884" font-family="Monaco" font-size="10.00">+ validateLicense()</text>
</a>
</g>
</g>
<!-- Node7&#45;&gt;Node8 -->
<g id="edge9" class="edge"><title>Node7&#45;&gt;Node8</title>
<path fill="none" stroke="midnightblue" d="M216.009,-839.919C216.009,-816.917 216.009,-788.258 216.009,-759.961"/>
<polygon fill="none" stroke="midnightblue" points="212.509,-840.067 216.009,-850.067 219.509,-840.067 212.509,-840.067"/>
</g>
<!-- Node8&#45;&gt;Node1 -->
<g id="edge8" class="edge"><title>Node8&#45;&gt;Node1</title>
<path fill="none" stroke="midnightblue" d="M187.545,-512.437C185.599,-503.7 183.617,-494.799 181.619,-485.831"/>
<polygon fill="none" stroke="midnightblue" points="184.135,-513.225 189.725,-522.225 190.967,-511.703 184.135,-513.225"/>
</g>
</g>
</svg>
        <g id="navigator" transform="translate(0 0)" fill="#404254">
                <rect fill="#f2f5e9" fill-opacity="0.5" stroke="#606060" stroke-width=".5" x="0" y="0" width="60" height="60"/>
                <use id="zoomplus" xlink:href="#zoomPlus" x="17" y="9" onmousedown="handleZoom(evt,'in')"/>
                <use id="zoomminus" xlink:href="#zoomMin" x="42" y="9" onmousedown="handleZoom(evt,'out')"/>
                <use id="reset" xlink:href="#resetDef" x="30" y="36" onmousedown="handleReset()"/>
                <g id="arrowUp" xlink:href="#dirArrow" transform="translate(30 24)" onmousedown="handlePan(0,-1)">
                  <use xlink:href="#rim" fill="#404040">
                        <set attributeName="fill" to="#808080" begin="arrowUp.mouseover" end="arrowUp.mouseout"/>
                  </use>
                  <path fill="none" stroke="white" stroke-width="1.5" d="M0,-3.0v7 M-2.5,-0.5L0,-3.0L2.5,-0.5"/>
                </g>
                <g id="arrowRight" xlink:href="#dirArrow" transform="rotate(90) translate(36 -43)" onmousedown="handlePan(1,0)">
                  <use xlink:href="#rim" fill="#404040">
                        <set attributeName="fill" to="#808080" begin="arrowRight.mouseover" end="arrowRight.mouseout"/>
                  </use>
                  <path fill="none" stroke="white" stroke-width="1.5" d="M0,-3.0v7 M-2.5,-0.5L0,-3.0L2.5,-0.5"/>
                </g>
                <g id="arrowDown" xlink:href="#dirArrow" transform="rotate(180) translate(-30 -48)" onmousedown="handlePan(0,1)">
                  <use xlink:href="#rim" fill="#404040">
                        <set attributeName="fill" to="#808080" begin="arrowDown.mouseover" end="arrowDown.mouseout"/>
                  </use>
                  <path fill="none" stroke="white" stroke-width="1.5" d="M0,-3.0v7 M-2.5,-0.5L0,-3.0L2.5,-0.5"/>
                </g>
                <g id="arrowLeft" xlink:href="#dirArrow" transform="rotate(270) translate(-36 17)" onmousedown="handlePan(-1,0)">
                  <use xlink:href="#rim" fill="#404040">
                        <set attributeName="fill" to="#808080" begin="arrowLeft.mouseover" end="arrowLeft.mouseout"/>
                  </use>
                  <path fill="none" stroke="white" stroke-width="1.5" d="M0,-3.0v7 M-2.5,-0.5L0,-3.0L2.5,-0.5"/>
                </g>
        </g>
        <svg viewBox="0 0 15 15" width="100%" height="30px" preserveAspectRatio="xMaxYMin meet">
         <g id="arrow_out" transform="scale(0.3 0.3)">
          <a xlink:href="class_component_info__inherit__graph_org.svg" target="_base">
           <rect id="button" ry="5" rx="5" y="6" x="6" height="38" width="38"
                fill="#f2f5e9" fill-opacity="0.5" stroke="#606060" stroke-width="1.0"/>
           <path id="arrow"
             d="M 11.500037,31.436501 C 11.940474,20.09759 22.043105,11.32322 32.158766,21.979434 L 37.068811,17.246167 C 37.068811,17.246167 37.088388,32 37.088388,32 L 22.160133,31.978069 C 22.160133,31.978069 26.997745,27.140456 26.997745,27.140456 C 18.528582,18.264221 13.291696,25.230495 11.500037,31.436501 z"
             style="fill:#404040;"/>
          </a>
         </g>
        </svg>
</svg>
