<?xml version="1.0" encoding="UTF-8" standalone="no"?>
<!DOCTYPE svg PUBLIC "-//W3C//DTD SVG 1.1//EN"
 "http://www.w3.org/Graphics/SVG/1.1/DTD/svg11.dtd">
<!-- Generated by graphviz version 2.38.0 (20140413.2041)
 -->
<!-- Title: HydroCouple::Temporal::ITime::~ITime Pages: 1 -->
<svg width="328pt" height="98pt"
 viewBox="0.00 0.00 328.04 97.67" xmlns="http://www.w3.org/2000/svg" xmlns:xlink="http://www.w3.org/1999/xlink">
<g id="graph0" class="graph" transform="scale(1 1) rotate(0) translate(4 93.6699)">
<title>HydroCouple::Temporal::ITime::~ITime</title>
<!-- Node1 -->
<g id="node1" class="node"><title>Node1</title>
<polygon fill="#bfbfbf" stroke="black" points="0,-27.5 0,-62.1699 142.021,-62.1699 142.021,-27.5 0,-27.5"/>
<text text-anchor="start" x="8" y="-50.1699" font-family="Monaco" font-size="10.00">HydroCouple::Temporal</text>
<text text-anchor="middle" x="71.0103" y="-36.835" font-family="Monaco" font-size="10.00">::ITime::~ITime</text>
</g>
<!-- Node2 -->
<g id="node2" class="node"><title>Node2</title>
<g id="a_node2"><a xlink:href="class_hydro_couple_1_1_temporal_1_1_i_time.html#a06e2a68aafa8a82017d3b7f5ac928f33" target="_top" xlink:title="Date and time as a modified julian day value. ">
<polygon fill="none" stroke="black" points="178.021,-54.5 178.021,-89.1699 320.041,-89.1699 320.041,-54.5 178.021,-54.5"/>
<text text-anchor="start" x="186.021" y="-77.1699" font-family="Monaco" font-size="10.00">HydroCouple::Temporal</text>
<text text-anchor="middle" x="249.031" y="-63.835" font-family="Monaco" font-size="10.00">::ITime::dateTime</text>
</a>
</g>
</g>
<!-- Node1&#45;&gt;Node2 -->
<g id="edge1" class="edge"><title>Node1&#45;&gt;Node2</title>
<path fill="none" stroke="midnightblue" d="M142.084,-55.5837C150.56,-56.8838 159.267,-58.2194 167.874,-59.5396"/>
<polygon fill="midnightblue" stroke="midnightblue" points="167.495,-63.0224 177.911,-61.0791 168.557,-56.1033 167.495,-63.0224"/>
</g>
<!-- Node3 -->
<g id="node3" class="node"><title>Node3</title>
<g id="a_node3"><a xlink:href="class_hydro_couple_1_1_temporal_1_1_i_time.html#a069f1a9418aa3cc8c7973710ef0f9d04" target="_top" xlink:title="setDateTime ">
<polygon fill="none" stroke="black" points="178.021,-0.5 178.021,-35.1699 320.041,-35.1699 320.041,-0.5 178.021,-0.5"/>
<text text-anchor="start" x="186.021" y="-23.1699" font-family="Monaco" font-size="10.00">HydroCouple::Temporal</text>
<text text-anchor="middle" x="249.031" y="-9.83496" font-family="Monaco" font-size="10.00">::ITime::setDateTime</text>
</a>
</g>
</g>
<!-- Node1&#45;&gt;Node3 -->
<g id="edge2" class="edge"><title>Node1&#45;&gt;Node3</title>
<path fill="none" stroke="midnightblue" d="M142.084,-34.0863C150.56,-32.7862 159.267,-31.4505 167.874,-30.1304"/>
<polygon fill="midnightblue" stroke="midnightblue" points="168.557,-33.5666 177.911,-28.5908 167.495,-26.6475 168.557,-33.5666"/>
</g>
</g>
</svg>
