<?xml version="1.0" encoding="UTF-8" standalone="no"?>
<!DOCTYPE svg PUBLIC "-//W3C//DTD SVG 1.1//EN"
 "http://www.w3.org/Graphics/SVG/1.1/DTD/svg11.dtd">
<!-- Generated by graphviz version 2.38.0 (20140413.2041)
 -->
<!-- Title: HydroCouple::Data::IValueDefinition Pages: 1 -->
<svg width="240pt" height="456pt"
 viewBox="0.00 0.00 239.60 456.00" xmlns="http://www.w3.org/2000/svg" xmlns:xlink="http://www.w3.org/1999/xlink">
<g id="graph0" class="graph" transform="scale(1 1) rotate(0) translate(4 452)">
<title>HydroCouple::Data::IValueDefinition</title>
<polygon fill="white" stroke="none" points="-4,4 -4,-452 235.601,-452 235.601,4 -4,4"/>
<!-- Node1 -->
<g id="node1" class="node"><title>Node1</title>
<polygon fill="#bfbfbf" stroke="black" points="62,-121.5 62,-225.5 168.601,-225.5 168.601,-121.5 62,-121.5"/>
<text text-anchor="start" x="70" y="-213.5" font-family="Helvetica,sans-Serif" font-size="10.00">HydroCouple::Data::</text>
<text text-anchor="middle" x="115.3" y="-203.5" font-family="Helvetica,sans-Serif" font-size="10.00">IValueDefinition</text>
<polyline fill="none" stroke="black" points="62,-197.5 168.601,-197.5 "/>
<text text-anchor="middle" x="115.3" y="-185.5" font-family="Helvetica,sans-Serif" font-size="10.00"> </text>
<polyline fill="none" stroke="black" points="62,-179.5 168.601,-179.5 "/>
<text text-anchor="start" x="70" y="-167.5" font-family="Helvetica,sans-Serif" font-size="10.00">+ ~IValueDefinition()</text>
<text text-anchor="start" x="70" y="-157.5" font-family="Helvetica,sans-Serif" font-size="10.00">+ type()</text>
<text text-anchor="start" x="70" y="-147.5" font-family="Helvetica,sans-Serif" font-size="10.00">+ missingValue()</text>
<text text-anchor="start" x="70" y="-137.5" font-family="Helvetica,sans-Serif" font-size="10.00">+ defaultValue()</text>
<text text-anchor="start" x="70" y="-127.5" font-family="Helvetica,sans-Serif" font-size="10.00">+ possibleValues()</text>
</g>
<!-- Node4 -->
<g id="node4" class="node"><title>Node4</title>
<g id="a_node4"><a xlink:href="class_hydro_couple_1_1_data_1_1_i_quality.html" target="_top" xlink:title="Qualitative data described items in terms of some quality or categorization that may be &#39;informal&#39; or...">
<polygon fill="white" stroke="black" points="0,-0.5 0,-84.5 106.601,-84.5 106.601,-0.5 0,-0.5"/>
<text text-anchor="start" x="8" y="-72.5" font-family="Helvetica,sans-Serif" font-size="10.00">HydroCouple::Data::</text>
<text text-anchor="middle" x="53.3003" y="-62.5" font-family="Helvetica,sans-Serif" font-size="10.00">IQuality</text>
<polyline fill="none" stroke="black" points="0,-56.5 106.601,-56.5 "/>
<text text-anchor="middle" x="53.3003" y="-44.5" font-family="Helvetica,sans-Serif" font-size="10.00"> </text>
<polyline fill="none" stroke="black" points="0,-38.5 106.601,-38.5 "/>
<text text-anchor="start" x="8" y="-26.5" font-family="Helvetica,sans-Serif" font-size="10.00">+ ~IQuality()</text>
<text text-anchor="start" x="8" y="-16.5" font-family="Helvetica,sans-Serif" font-size="10.00">+ categories()</text>
<text text-anchor="start" x="8" y="-6.5" font-family="Helvetica,sans-Serif" font-size="10.00">+ isOrdered()</text>
</a>
</g>
</g>
<!-- Node1&#45;&gt;Node4 -->
<g id="edge3" class="edge"><title>Node1&#45;&gt;Node4</title>
<path fill="none" stroke="midnightblue" d="M86.2174,-111.989C81.7858,-102.768 77.3017,-93.4384 73.1293,-84.7571"/>
<polygon fill="none" stroke="midnightblue" points="83.1316,-113.648 90.6181,-121.145 89.4408,-110.616 83.1316,-113.648"/>
</g>
<!-- Node5 -->
<g id="node5" class="node"><title>Node5</title>
<g id="a_node5"><a xlink:href="class_hydro_couple_1_1_data_1_1_i_quantity.html" target="_top" xlink:title="IQuantity specifies values as an amount of some unit, usually as a floating point number...">
<polygon fill="white" stroke="black" points="125,-5.5 125,-79.5 231.601,-79.5 231.601,-5.5 125,-5.5"/>
<text text-anchor="start" x="133" y="-67.5" font-family="Helvetica,sans-Serif" font-size="10.00">HydroCouple::Data::</text>
<text text-anchor="middle" x="178.3" y="-57.5" font-family="Helvetica,sans-Serif" font-size="10.00">IQuantity</text>
<polyline fill="none" stroke="black" points="125,-51.5 231.601,-51.5 "/>
<text text-anchor="middle" x="178.3" y="-39.5" font-family="Helvetica,sans-Serif" font-size="10.00"> </text>
<polyline fill="none" stroke="black" points="125,-33.5 231.601,-33.5 "/>
<text text-anchor="start" x="133" y="-21.5" font-family="Helvetica,sans-Serif" font-size="10.00">+ ~IQuantity()</text>
<text text-anchor="start" x="133" y="-11.5" font-family="Helvetica,sans-Serif" font-size="10.00">+ unit()</text>
</a>
</g>
</g>
<!-- Node1&#45;&gt;Node5 -->
<g id="edge4" class="edge"><title>Node1&#45;&gt;Node5</title>
<path fill="none" stroke="midnightblue" d="M144.885,-111.922C150.285,-100.864 155.761,-89.6528 160.673,-79.5932"/>
<polygon fill="none" stroke="midnightblue" points="141.624,-110.623 140.381,-121.145 147.914,-113.695 141.624,-110.623"/>
</g>
<!-- Node2 -->
<g id="node2" class="node"><title>Node2</title>
<g id="a_node2"><a xlink:href="class_hydro_couple_1_1_i_description.html" target="_top" xlink:title="IDescription interface class provides descriptive information on a HydroCouple object. ">
<polygon fill="white" stroke="black" points="48.9409,-262.5 48.9409,-356.5 181.66,-356.5 181.66,-262.5 48.9409,-262.5"/>
<text text-anchor="middle" x="115.3" y="-344.5" font-family="Helvetica,sans-Serif" font-size="10.00">HydroCouple::IDescription</text>
<polyline fill="none" stroke="black" points="48.9409,-338.5 181.66,-338.5 "/>
<text text-anchor="middle" x="115.3" y="-326.5" font-family="Helvetica,sans-Serif" font-size="10.00"> </text>
<polyline fill="none" stroke="black" points="48.9409,-320.5 181.66,-320.5 "/>
<text text-anchor="start" x="56.9409" y="-308.5" font-family="Helvetica,sans-Serif" font-size="10.00">+ ~IDescription()</text>
<text text-anchor="start" x="56.9409" y="-298.5" font-family="Helvetica,sans-Serif" font-size="10.00">+ getCaption()</text>
<text text-anchor="start" x="56.9409" y="-288.5" font-family="Helvetica,sans-Serif" font-size="10.00">+ setCaption()</text>
<text text-anchor="start" x="56.9409" y="-278.5" font-family="Helvetica,sans-Serif" font-size="10.00">+ getDescription()</text>
<text text-anchor="start" x="56.9409" y="-268.5" font-family="Helvetica,sans-Serif" font-size="10.00">+ setDescription()</text>
</a>
</g>
</g>
<!-- Node2&#45;&gt;Node1 -->
<g id="edge1" class="edge"><title>Node2&#45;&gt;Node1</title>
<path fill="none" stroke="midnightblue" d="M115.3,-252.229C115.3,-243.447 115.3,-234.413 115.3,-225.751"/>
<polygon fill="none" stroke="midnightblue" points="111.8,-252.385 115.3,-262.385 118.8,-252.385 111.8,-252.385"/>
</g>
<!-- Node3 -->
<g id="node3" class="node"><title>Node3</title>
<g id="a_node3"><a xlink:href="class_hydro_couple_1_1_i_property_changed.html" target="_top" xlink:title="IPropertyChanged interface is used to emit signal/event when a property of an object changes...">
<polygon fill="white" stroke="black" points="34.7588,-393.5 34.7588,-447.5 195.842,-447.5 195.842,-393.5 34.7588,-393.5"/>
<text text-anchor="middle" x="115.3" y="-435.5" font-family="Helvetica,sans-Serif" font-size="10.00">HydroCouple::IPropertyChanged</text>
<polyline fill="none" stroke="black" points="34.7588,-429.5 195.842,-429.5 "/>
<text text-anchor="middle" x="115.3" y="-417.5" font-family="Helvetica,sans-Serif" font-size="10.00"> </text>
<polyline fill="none" stroke="black" points="34.7588,-411.5 195.842,-411.5 "/>
<text text-anchor="start" x="42.7588" y="-399.5" font-family="Helvetica,sans-Serif" font-size="10.00">+ ~IPropertyChanged()</text>
</a>
</g>
</g>
<!-- Node3&#45;&gt;Node2 -->
<g id="edge2" class="edge"><title>Node3&#45;&gt;Node2</title>
<path fill="none" stroke="midnightblue" d="M115.3,-383.141C115.3,-374.716 115.3,-365.639 115.3,-356.851"/>
<polygon fill="none" stroke="midnightblue" points="111.8,-383.392 115.3,-393.392 118.8,-383.392 111.8,-383.392"/>
</g>
</g>
</svg>
