<?xml version="1.0" encoding="UTF-8" standalone="no"?>
<!DOCTYPE svg PUBLIC "-//W3C//DTD SVG 1.1//EN"
 "http://www.w3.org/Graphics/SVG/1.1/DTD/svg11.dtd">
<!-- Generated by graphviz version 2.38.0 (20140413.2041)
 -->
<!-- Title: HydroCouple::Temporal::ITimeSeriesComponentDataItem::~ITimeSeriesComponentDataItem Pages: 1 -->
<svg width="424pt" height="206pt"
 viewBox="0.00 0.00 424.06 205.67" xmlns="http://www.w3.org/2000/svg" xmlns:xlink="http://www.w3.org/1999/xlink">
<g id="graph0" class="graph" transform="scale(1 1) rotate(0) translate(4 201.67)">
<title>HydroCouple::Temporal::ITimeSeriesComponentDataItem::~ITimeSeriesComponentDataItem</title>
<!-- Node1 -->
<g id="node1" class="node"><title>Node1</title>
<polygon fill="#bfbfbf" stroke="black" points="0,-74.8325 0,-122.837 202.03,-122.837 202.03,-74.8325 0,-74.8325"/>
<text text-anchor="start" x="8" y="-110.837" font-family="Monaco" font-size="10.00">HydroCouple::Temporal</text>
<text text-anchor="start" x="8" y="-97.5024" font-family="Monaco" font-size="10.00">::ITimeSeriesComponentDataItem</text>
<text text-anchor="middle" x="101.015" y="-84.1675" font-family="Monaco" font-size="10.00">::~ITimeSeriesComponentDataItem</text>
</g>
<!-- Node2 -->
<g id="node2" class="node"><title>Node2</title>
<g id="a_node2"><a xlink:href="class_hydro_couple_1_1_i_component_data_item.html#a652b695e108f9e3a04f96f1207014b5f" target="_top" xlink:title="Gets a single value for given dimension indexes specified. ">
<polygon fill="none" stroke="black" points="238.03,-162.5 238.03,-197.17 416.057,-197.17 416.057,-162.5 238.03,-162.5"/>
<text text-anchor="start" x="246.03" y="-185.17" font-family="Monaco" font-size="10.00">HydroCouple::IComponentData</text>
<text text-anchor="middle" x="327.043" y="-171.835" font-family="Monaco" font-size="10.00">Item::getValue</text>
</a>
</g>
</g>
<!-- Node1&#45;&gt;Node2 -->
<g id="edge1" class="edge"><title>Node1&#45;&gt;Node2</title>
<path fill="none" stroke="midnightblue" d="M159.541,-122.859C183.627,-132.608 212.022,-143.699 238.03,-152.835 244.312,-155.041 250.88,-157.245 257.474,-159.387"/>
<polygon fill="midnightblue" stroke="midnightblue" points="256.533,-162.761 267.124,-162.477 258.668,-156.095 256.533,-162.761"/>
</g>
<!-- Node3 -->
<g id="node3" class="node"><title>Node3</title>
<g id="a_node3"><a xlink:href="class_hydro_couple_1_1_i_component_data_item.html#aed149c453986ae14c8365ee7fa7bed3d" target="_top" xlink:title="Gets a multi&#45;dimensional array of values for given dimension indexes and size for a hyperslab...">
<polygon fill="none" stroke="black" points="238.03,-108.5 238.03,-143.17 416.057,-143.17 416.057,-108.5 238.03,-108.5"/>
<text text-anchor="start" x="246.03" y="-131.17" font-family="Monaco" font-size="10.00">HydroCouple::IComponentData</text>
<text text-anchor="middle" x="327.043" y="-117.835" font-family="Monaco" font-size="10.00">Item::getValues</text>
</a>
</g>
</g>
<!-- Node1&#45;&gt;Node3 -->
<g id="edge2" class="edge"><title>Node1&#45;&gt;Node3</title>
<path fill="none" stroke="midnightblue" d="M202.235,-110.913C210.776,-111.943 219.409,-112.983 227.934,-114.011"/>
<polygon fill="midnightblue" stroke="midnightblue" points="227.531,-117.487 237.878,-115.209 228.369,-110.538 227.531,-117.487"/>
</g>
<!-- Node4 -->
<g id="node4" class="node"><title>Node4</title>
<g id="a_node4"><a xlink:href="class_hydro_couple_1_1_i_component_data_item.html#a0d2d2c003357ae04bd78c4fc7312c47c" target="_top" xlink:title="Sets a single value for given dimension indexes specified. ">
<polygon fill="none" stroke="black" points="238.03,-54.5 238.03,-89.1699 416.057,-89.1699 416.057,-54.5 238.03,-54.5"/>
<text text-anchor="start" x="246.03" y="-77.1699" font-family="Monaco" font-size="10.00">HydroCouple::IComponentData</text>
<text text-anchor="middle" x="327.043" y="-63.835" font-family="Monaco" font-size="10.00">Item::setValue</text>
</a>
</g>
</g>
<!-- Node1&#45;&gt;Node4 -->
<g id="edge3" class="edge"><title>Node1&#45;&gt;Node4</title>
<path fill="none" stroke="midnightblue" d="M202.235,-86.7564C210.776,-85.7271 219.409,-84.6866 227.934,-83.6592"/>
<polygon fill="midnightblue" stroke="midnightblue" points="228.369,-87.1321 237.878,-82.4607 227.531,-80.1824 228.369,-87.1321"/>
</g>
<!-- Node5 -->
<g id="node5" class="node"><title>Node5</title>
<g id="a_node5"><a xlink:href="class_hydro_couple_1_1_i_component_data_item.html#ab51166edc999587d0427d366389eb5ad" target="_top" xlink:title="Sets a multi&#45;dimensional array of values for given dimension indexes and size for a hyperslab...">
<polygon fill="none" stroke="black" points="238.03,-0.5 238.03,-35.1699 416.057,-35.1699 416.057,-0.5 238.03,-0.5"/>
<text text-anchor="start" x="246.03" y="-23.1699" font-family="Monaco" font-size="10.00">HydroCouple::IComponentData</text>
<text text-anchor="middle" x="327.043" y="-9.83496" font-family="Monaco" font-size="10.00">Item::setValues</text>
</a>
</g>
</g>
<!-- Node1&#45;&gt;Node5 -->
<g id="edge4" class="edge"><title>Node1&#45;&gt;Node5</title>
<path fill="none" stroke="midnightblue" d="M159.541,-74.8112C183.627,-65.0624 212.022,-53.9706 238.03,-44.835 244.312,-42.6285 250.88,-40.4252 257.474,-38.2825"/>
<polygon fill="midnightblue" stroke="midnightblue" points="258.668,-41.5754 267.124,-35.1931 256.533,-34.9087 258.668,-41.5754"/>
</g>
</g>
</svg>
