<?xml version="1.0" encoding="UTF-8" standalone="no"?>
<!DOCTYPE svg PUBLIC "-//W3C//DTD SVG 1.1//EN"
 "http://www.w3.org/Graphics/SVG/1.1/DTD/svg11.dtd">
<!-- Generated by graphviz version 2.38.0 (20140413.2041)
 -->
<!-- Title: HydroCouple::IIdArgument Pages: 1 -->
<!--zoomable 871 -->
<svg id="main" version="1.1" xmlns="http://www.w3.org/2000/svg" xmlns:xlink="http://www.w3.org/1999/xlink" xml:space="preserve" onload="init(evt)">
<style type="text/css"><![CDATA[
.edge:hover path { stroke: red; }
.edge:hover polygon { stroke: red; fill: red; }
]]></style>
<script type="text/javascript"><![CDATA[
var edges = document.getElementsByTagName('g');
if (edges && edges.length) {
  for (var i=0;i<edges.length;i++) {
    if (edges[i].id.substr(0,4)=='edge') {
      edges[i].setAttribute('class','edge');
    }
  }
}
]]></script>
        <defs>
                <circle id="rim" cx="0" cy="0" r="7"/>
                <circle id="rim2" cx="0" cy="0" r="3.5"/>
                <g id="zoomPlus">
                        <use xlink:href="#rim" fill="#404040">
                                <set attributeName="fill" to="#808080" begin="zoomplus.mouseover" end="zoomplus.mouseout"/>
                        </use>
                        <path d="M-4,0h8M0,-4v8" fill="none" stroke="white" stroke-width="1.5" pointer-events="none"/>
                </g>
                <g id="zoomMin">
                        <use xlink:href="#rim" fill="#404040">
                                <set attributeName="fill" to="#808080" begin="zoomminus.mouseover" end="zoomminus.mouseout"/>
                        </use>
                        <path d="M-4,0h8" fill="none" stroke="white" stroke-width="1.5" pointer-events="none"/>
                </g>
                <g id="dirArrow">
                        <path fill="none" stroke="white" stroke-width="1.5" d="M0,-3.0v7 M-2.5,-0.5L0,-3.0L2.5,-0.5"/>
                </g>
               <g id="resetDef">
                       <use xlink:href="#rim2" fill="#404040">
                               <set attributeName="fill" to="#808080" begin="reset.mouseover" end="reset.mouseout"/>
                       </use>
               </g>
        </defs>

<script type="text/javascript">
var viewWidth = 394;
var viewHeight = 871;
var sectionId = 'dynsection-1';
</script>
<script xlink:href="svgpan.js"/>
<svg id="graph" class="graph">
<g id="viewport">
<title>HydroCouple::IIdArgument</title>
<polygon fill="white" stroke="none" points="-4,4 -4,-867.398 390.027,-867.398 390.027,4 -4,4"/>
<!-- Node1 -->
<g id="node1" class="node"><title>Node1</title>
<polygon fill="#bfbfbf" stroke="black" points="94.999,-0.5 94.999,-91.1748 255.022,-91.1748 255.022,-0.5 94.999,-0.5"/>
<text text-anchor="middle" x="175.011" y="-79.1748" font-family="Monaco" font-size="10.00">HydroCouple::IIdArgument</text>
<polyline fill="none" stroke="black" points="94.999,-69.8398 255.022,-69.8398 "/>
<text text-anchor="middle" x="175.011" y="-57.8398" font-family="Monaco" font-size="10.00"> </text>
<polyline fill="none" stroke="black" points="94.999,-48.5049 255.022,-48.5049 "/>
<text text-anchor="start" x="102.999" y="-36.5049" font-family="Monaco" font-size="10.00">+ ~IIdArgument()</text>
<text text-anchor="start" x="102.999" y="-23.1699" font-family="Monaco" font-size="10.00">+ setIds()</text>
<text text-anchor="start" x="102.999" y="-9.83496" font-family="Monaco" font-size="10.00">+ timeValueSets()</text>
</g>
<!-- Node2 -->
<g id="node2" class="node"><title>Node2</title>
<g id="a_node2"><a xlink:href="class_hydro_couple_1_1_i_argument.html" target="_top" xlink:title="IArgument interface class used to set the arguments for components. They can be complex or simple mul...">
<polygon fill="white" stroke="black" points="0,-128.175 0,-325.529 148.021,-325.529 148.021,-128.175 0,-128.175"/>
<text text-anchor="middle" x="74.0107" y="-313.529" font-family="Monaco" font-size="10.00">HydroCouple::IArgument</text>
<polyline fill="none" stroke="black" points="0,-304.194 148.021,-304.194 "/>
<text text-anchor="middle" x="74.0107" y="-292.194" font-family="Monaco" font-size="10.00"> </text>
<polyline fill="none" stroke="black" points="0,-282.859 148.021,-282.859 "/>
<text text-anchor="start" x="8" y="-270.859" font-family="Monaco" font-size="10.00">+ ~IArgument()</text>
<text text-anchor="start" x="8" y="-257.524" font-family="Monaco" font-size="10.00">+ isOptional()</text>
<text text-anchor="start" x="8" y="-244.189" font-family="Monaco" font-size="10.00">+ isReadOnly()</text>
<text text-anchor="start" x="8" y="-230.854" font-family="Monaco" font-size="10.00">+ clone()</text>
<text text-anchor="start" x="8" y="-217.52" font-family="Monaco" font-size="10.00">+ valueSets()</text>
<text text-anchor="start" x="8" y="-204.185" font-family="Monaco" font-size="10.00">+ toString()</text>
<text text-anchor="start" x="8" y="-190.85" font-family="Monaco" font-size="10.00">+ fileExtensions()</text>
<text text-anchor="start" x="8" y="-177.515" font-family="Monaco" font-size="10.00">+ canReadFromFile()</text>
<text text-anchor="start" x="8" y="-164.18" font-family="Monaco" font-size="10.00">+ canReadFromString()</text>
<text text-anchor="start" x="8" y="-150.845" font-family="Monaco" font-size="10.00">+ readValues()</text>
<text text-anchor="start" x="8" y="-137.51" font-family="Monaco" font-size="10.00">+ readValues()</text>
</a>
</g>
</g>
<!-- Node2&#45;&gt;Node1 -->
<g id="edge1" class="edge"><title>Node2&#45;&gt;Node1</title>
<path fill="none" stroke="midnightblue" d="M134.262,-119.062C139.691,-109.439 144.964,-100.092 149.817,-91.491"/>
<polygon fill="none" stroke="midnightblue" points="131.105,-117.535 129.239,-127.964 137.201,-120.975 131.105,-117.535"/>
</g>
<!-- Node3 -->
<g id="node3" class="node"><title>Node3</title>
<g id="a_node3"><a xlink:href="class_hydro_couple_1_1_i_component_item.html" target="_top" xlink:title="IComponentItem is a fundamental unit of data for a component. ">
<polygon fill="white" stroke="black" points="85.9976,-362.529 85.9976,-466.539 264.024,-466.539 264.024,-362.529 85.9976,-362.529"/>
<text text-anchor="middle" x="175.011" y="-454.539" font-family="Monaco" font-size="10.00">HydroCouple::IComponentItem</text>
<polyline fill="none" stroke="black" points="85.9976,-445.204 264.024,-445.204 "/>
<text text-anchor="middle" x="175.011" y="-433.204" font-family="Monaco" font-size="10.00"> </text>
<polyline fill="none" stroke="black" points="85.9976,-423.869 264.024,-423.869 "/>
<text text-anchor="start" x="93.9976" y="-411.869" font-family="Monaco" font-size="10.00">+ ~IComponentItem()</text>
<text text-anchor="start" x="93.9976" y="-398.534" font-family="Monaco" font-size="10.00">+ modelComponent()</text>
<text text-anchor="start" x="93.9976" y="-385.199" font-family="Monaco" font-size="10.00">+ modelComponentId()</text>
<text text-anchor="start" x="93.9976" y="-371.864" font-family="Monaco" font-size="10.00">+ dimensions()</text>
</a>
</g>
</g>
<!-- Node3&#45;&gt;Node2 -->
<g id="edge2" class="edge"><title>Node3&#45;&gt;Node2</title>
<path fill="none" stroke="midnightblue" d="M142.358,-353.504C137.478,-344.532 132.342,-335.091 127.17,-325.582"/>
<polygon fill="none" stroke="midnightblue" points="139.292,-355.192 147.145,-362.304 145.441,-351.847 139.292,-355.192"/>
</g>
<!-- Node7 -->
<g id="node7" class="node"><title>Node7</title>
<g id="a_node7"><a xlink:href="class_hydro_couple_1_1_i_id_based_component_item.html" target="_top" xlink:title="The IIdBasedComponentItem class is an idbased IComponentItem. ">
<polygon fill="white" stroke="black" points="165.994,-181.515 165.994,-272.189 386.027,-272.189 386.027,-181.515 165.994,-181.515"/>
<text text-anchor="middle" x="276.011" y="-260.189" font-family="Monaco" font-size="10.00">HydroCouple::IIdBasedComponentItem</text>
<polyline fill="none" stroke="black" points="165.994,-250.854 386.027,-250.854 "/>
<text text-anchor="middle" x="276.011" y="-238.854" font-family="Monaco" font-size="10.00"> </text>
<polyline fill="none" stroke="black" points="165.994,-229.52 386.027,-229.52 "/>
<text text-anchor="start" x="173.994" y="-217.52" font-family="Monaco" font-size="10.00">+ ~IIdBasedComponentItem()</text>
<text text-anchor="start" x="173.994" y="-204.185" font-family="Monaco" font-size="10.00">+ idDimensions()</text>
<text text-anchor="start" x="173.994" y="-190.85" font-family="Monaco" font-size="10.00">+ ids()</text>
</a>
</g>
</g>
<!-- Node3&#45;&gt;Node7 -->
<g id="edge7" class="edge"><title>Node3&#45;&gt;Node7</title>
<path fill="none" stroke="midnightblue" d="M207.657,-353.517C222.025,-327.102 238.606,-296.618 251.839,-272.29"/>
<polygon fill="none" stroke="midnightblue" points="204.581,-351.847 202.877,-362.304 210.73,-355.192 204.581,-351.847"/>
</g>
<!-- Node4 -->
<g id="node4" class="node"><title>Node4</title>
<g id="a_node4"><a xlink:href="class_hydro_couple_1_1_i_identity.html" target="_top" xlink:title="IIdentity interface class defines a method to get the Id of an HydroCouple entity. ">
<polygon fill="white" stroke="black" points="101,-503.539 101,-607.549 249.021,-607.549 249.021,-503.539 101,-503.539"/>
<text text-anchor="middle" x="175.011" y="-595.549" font-family="Monaco" font-size="10.00">HydroCouple::IIdentity</text>
<polyline fill="none" stroke="black" points="101,-586.214 249.021,-586.214 "/>
<text text-anchor="middle" x="175.011" y="-574.214" font-family="Monaco" font-size="10.00"> </text>
<polyline fill="none" stroke="black" points="101,-564.879 249.021,-564.879 "/>
<text text-anchor="start" x="109" y="-552.879" font-family="Monaco" font-size="10.00">+ ~IIdentity()</text>
<text text-anchor="start" x="109" y="-539.544" font-family="Monaco" font-size="10.00">+ MPI_Comm()</text>
<text text-anchor="start" x="109" y="-526.209" font-family="Monaco" font-size="10.00">+ MPI_Rank()</text>
<text text-anchor="start" x="109" y="-512.874" font-family="Monaco" font-size="10.00">+ id()</text>
</a>
</g>
</g>
<!-- Node4&#45;&gt;Node3 -->
<g id="edge3" class="edge"><title>Node4&#45;&gt;Node3</title>
<path fill="none" stroke="midnightblue" d="M175.011,-492.98C175.011,-484.198 175.011,-475.244 175.011,-466.69"/>
<polygon fill="none" stroke="midnightblue" points="171.511,-493.177 175.011,-503.177 178.511,-493.177 171.511,-493.177"/>
</g>
<!-- Node5 -->
<g id="node5" class="node"><title>Node5</title>
<g id="a_node5"><a xlink:href="class_hydro_couple_1_1_i_description.html" target="_top" xlink:title="IDescription interface class provides descriptive information on a HydroCouple object. ">
<polygon fill="white" stroke="black" points="91.9985,-644.549 91.9985,-761.894 258.023,-761.894 258.023,-644.549 91.9985,-644.549"/>
<text text-anchor="middle" x="175.011" y="-749.894" font-family="Monaco" font-size="10.00">HydroCouple::IDescription</text>
<polyline fill="none" stroke="black" points="91.9985,-740.559 258.023,-740.559 "/>
<text text-anchor="middle" x="175.011" y="-728.559" font-family="Monaco" font-size="10.00"> </text>
<polyline fill="none" stroke="black" points="91.9985,-719.224 258.023,-719.224 "/>
<text text-anchor="start" x="99.9985" y="-707.224" font-family="Monaco" font-size="10.00">+ ~IDescription()</text>
<text text-anchor="start" x="99.9985" y="-693.889" font-family="Monaco" font-size="10.00">+ getCaption()</text>
<text text-anchor="start" x="99.9985" y="-680.554" font-family="Monaco" font-size="10.00">+ setCaption()</text>
<text text-anchor="start" x="99.9985" y="-667.219" font-family="Monaco" font-size="10.00">+ getDescription()</text>
<text text-anchor="start" x="99.9985" y="-653.884" font-family="Monaco" font-size="10.00">+ setDescription()</text>
</a>
</g>
</g>
<!-- Node5&#45;&gt;Node4 -->
<g id="edge4" class="edge"><title>Node5&#45;&gt;Node4</title>
<path fill="none" stroke="midnightblue" d="M175.011,-633.948C175.011,-625.13 175.011,-616.222 175.011,-607.744"/>
<polygon fill="none" stroke="midnightblue" points="171.511,-634.227 175.011,-644.227 178.511,-634.227 171.511,-634.227"/>
</g>
<!-- Node6 -->
<g id="node6" class="node"><title>Node6</title>
<g id="a_node6"><a xlink:href="class_hydro_couple_1_1_i_property_changed.html" target="_top" xlink:title="IPropertyChanged interface is used to emit signal/event when a property of an object changes...">
<polygon fill="white" stroke="black" points="79.9966,-798.894 79.9966,-862.898 270.025,-862.898 270.025,-798.894 79.9966,-798.894"/>
<text text-anchor="middle" x="175.011" y="-850.898" font-family="Monaco" font-size="10.00">HydroCouple::IPropertyChanged</text>
<polyline fill="none" stroke="black" points="79.9966,-841.563 270.025,-841.563 "/>
<text text-anchor="middle" x="175.011" y="-829.563" font-family="Monaco" font-size="10.00"> </text>
<polyline fill="none" stroke="black" points="79.9966,-820.229 270.025,-820.229 "/>
<text text-anchor="start" x="87.9966" y="-808.229" font-family="Monaco" font-size="10.00">+ ~IPropertyChanged()</text>
</a>
</g>
</g>
<!-- Node6&#45;&gt;Node5 -->
<g id="edge5" class="edge"><title>Node6&#45;&gt;Node5</title>
<path fill="none" stroke="midnightblue" d="M175.011,-788.573C175.011,-780.188 175.011,-771.222 175.011,-762.38"/>
<polygon fill="none" stroke="midnightblue" points="171.511,-788.83 175.011,-798.83 178.511,-788.83 171.511,-788.83"/>
</g>
<!-- Node7&#45;&gt;Node1 -->
<g id="edge6" class="edge"><title>Node7&#45;&gt;Node1</title>
<path fill="none" stroke="midnightblue" d="M245.753,-172.223C231.182,-146.396 213.916,-115.795 200.09,-91.2886"/>
<polygon fill="none" stroke="midnightblue" points="242.823,-174.151 250.785,-181.141 248.919,-170.712 242.823,-174.151"/>
</g>
</g>
</svg>
        <g id="navigator" transform="translate(0 0)" fill="#404254">
                <rect fill="#f2f5e9" fill-opacity="0.5" stroke="#606060" stroke-width=".5" x="0" y="0" width="60" height="60"/>
                <use id="zoomplus" xlink:href="#zoomPlus" x="17" y="9" onmousedown="handleZoom(evt,'in')"/>
                <use id="zoomminus" xlink:href="#zoomMin" x="42" y="9" onmousedown="handleZoom(evt,'out')"/>
                <use id="reset" xlink:href="#resetDef" x="30" y="36" onmousedown="handleReset()"/>
                <g id="arrowUp" xlink:href="#dirArrow" transform="translate(30 24)" onmousedown="handlePan(0,-1)">
                  <use xlink:href="#rim" fill="#404040">
                        <set attributeName="fill" to="#808080" begin="arrowUp.mouseover" end="arrowUp.mouseout"/>
                  </use>
                  <path fill="none" stroke="white" stroke-width="1.5" d="M0,-3.0v7 M-2.5,-0.5L0,-3.0L2.5,-0.5"/>
                </g>
                <g id="arrowRight" xlink:href="#dirArrow" transform="rotate(90) translate(36 -43)" onmousedown="handlePan(1,0)">
                  <use xlink:href="#rim" fill="#404040">
                        <set attributeName="fill" to="#808080" begin="arrowRight.mouseover" end="arrowRight.mouseout"/>
                  </use>
                  <path fill="none" stroke="white" stroke-width="1.5" d="M0,-3.0v7 M-2.5,-0.5L0,-3.0L2.5,-0.5"/>
                </g>
                <g id="arrowDown" xlink:href="#dirArrow" transform="rotate(180) translate(-30 -48)" onmousedown="handlePan(0,1)">
                  <use xlink:href="#rim" fill="#404040">
                        <set attributeName="fill" to="#808080" begin="arrowDown.mouseover" end="arrowDown.mouseout"/>
                  </use>
                  <path fill="none" stroke="white" stroke-width="1.5" d="M0,-3.0v7 M-2.5,-0.5L0,-3.0L2.5,-0.5"/>
                </g>
                <g id="arrowLeft" xlink:href="#dirArrow" transform="rotate(270) translate(-36 17)" onmousedown="handlePan(-1,0)">
                  <use xlink:href="#rim" fill="#404040">
                        <set attributeName="fill" to="#808080" begin="arrowLeft.mouseover" end="arrowLeft.mouseout"/>
                  </use>
                  <path fill="none" stroke="white" stroke-width="1.5" d="M0,-3.0v7 M-2.5,-0.5L0,-3.0L2.5,-0.5"/>
                </g>
        </g>
        <svg viewBox="0 0 15 15" width="100%" height="30px" preserveAspectRatio="xMaxYMin meet">
         <g id="arrow_out" transform="scale(0.3 0.3)">
          <a xlink:href="class_hydro_couple_1_1_i_id_argument__coll__graph_org.svg" target="_base">
           <rect id="button" ry="5" rx="5" y="6" x="6" height="38" width="38"
                fill="#f2f5e9" fill-opacity="0.5" stroke="#606060" stroke-width="1.0"/>
           <path id="arrow"
             d="M 11.500037,31.436501 C 11.940474,20.09759 22.043105,11.32322 32.158766,21.979434 L 37.068811,17.246167 C 37.068811,17.246167 37.088388,32 37.088388,32 L 22.160133,31.978069 C 22.160133,31.978069 26.997745,27.140456 26.997745,27.140456 C 18.528582,18.264221 13.291696,25.230495 11.500037,31.436501 z"
             style="fill:#404040;"/>
          </a>
         </g>
        </svg>
</svg>
