<?xml version="1.0" encoding="UTF-8" standalone="no"?>
<!DOCTYPE svg PUBLIC "-//W3C//DTD SVG 1.1//EN"
 "http://www.w3.org/Graphics/SVG/1.1/DTD/svg11.dtd">
<!-- Generated by graphviz version 2.38.0 (20140413.2041)
 -->
<!-- Title: HydroCouple::IUnitDimensions Pages: 1 -->
<svg width="198pt" height="342pt"
 viewBox="0.00 0.00 198.03 341.69" xmlns="http://www.w3.org/2000/svg" xmlns:xlink="http://www.w3.org/1999/xlink">
<g id="graph0" class="graph" transform="scale(1 1) rotate(0) translate(4 337.689)">
<title>HydroCouple::IUnitDimensions</title>
<!-- Node1 -->
<g id="node1" class="node"><title>Node1</title>
<polygon fill="#bfbfbf" stroke="black" points="3.00049,-0.5 3.00049,-77.8398 187.028,-77.8398 187.028,-0.5 3.00049,-0.5"/>
<text text-anchor="middle" x="95.0142" y="-65.8398" font-family="Monaco" font-size="10.00">HydroCouple::IUnitDimensions</text>
<polyline fill="none" stroke="black" points="3.00049,-56.5049 187.028,-56.5049 "/>
<text text-anchor="middle" x="95.0142" y="-44.5049" font-family="Monaco" font-size="10.00"> </text>
<polyline fill="none" stroke="black" points="3.00049,-35.1699 187.028,-35.1699 "/>
<text text-anchor="start" x="11.0005" y="-23.1699" font-family="Monaco" font-size="10.00">+ ~IUnitDimensions()</text>
<text text-anchor="start" x="11.0005" y="-9.83496" font-family="Monaco" font-size="10.00">+ getPower()</text>
</g>
<!-- Node2 -->
<g id="node2" class="node"><title>Node2</title>
<g id="a_node2"><a xlink:href="class_hydro_couple_1_1_i_description.html" target="_top" xlink:title="IDescription interface class provides descriptive information on a HydroCouple object. ">
<polygon fill="none" stroke="black" points="12.002,-114.84 12.002,-232.185 178.026,-232.185 178.026,-114.84 12.002,-114.84"/>
<text text-anchor="middle" x="95.0142" y="-220.185" font-family="Monaco" font-size="10.00">HydroCouple::IDescription</text>
<polyline fill="none" stroke="black" points="12.002,-210.85 178.026,-210.85 "/>
<text text-anchor="middle" x="95.0142" y="-198.85" font-family="Monaco" font-size="10.00"> </text>
<polyline fill="none" stroke="black" points="12.002,-189.515 178.026,-189.515 "/>
<text text-anchor="start" x="20.002" y="-177.515" font-family="Monaco" font-size="10.00">+ ~IDescription()</text>
<text text-anchor="start" x="20.002" y="-164.18" font-family="Monaco" font-size="10.00">+ caption()</text>
<text text-anchor="start" x="20.002" y="-150.845" font-family="Monaco" font-size="10.00">+ setCaption()</text>
<text text-anchor="start" x="20.002" y="-137.51" font-family="Monaco" font-size="10.00">+ description()</text>
<text text-anchor="start" x="20.002" y="-124.175" font-family="Monaco" font-size="10.00">+ setDescription()</text>
</a>
</g>
</g>
<!-- Node2&#45;&gt;Node1 -->
<g id="edge1" class="edge"><title>Node2&#45;&gt;Node1</title>
<path fill="none" stroke="midnightblue" d="M95.0142,-104.274C95.0142,-95.2351 95.0142,-86.2477 95.0142,-77.9873"/>
<polygon fill="none" stroke="midnightblue" points="91.5143,-104.465 95.0142,-114.465 98.5143,-104.465 91.5143,-104.465"/>
</g>
<!-- Node3 -->
<g id="node3" class="node"><title>Node3</title>
<g id="a_node3"><a xlink:href="class_hydro_couple_1_1_i_property_changed.html" target="_top" xlink:title="IPropertyChanged interface is used to emit signal/event when a property of an object changes...">
<polygon fill="none" stroke="black" points="0,-269.185 0,-333.189 190.028,-333.189 190.028,-269.185 0,-269.185"/>
<text text-anchor="middle" x="95.0142" y="-321.189" font-family="Monaco" font-size="10.00">HydroCouple::IPropertyChanged</text>
<polyline fill="none" stroke="black" points="0,-311.854 190.028,-311.854 "/>
<text text-anchor="middle" x="95.0142" y="-299.854" font-family="Monaco" font-size="10.00"> </text>
<polyline fill="none" stroke="black" points="0,-290.52 190.028,-290.52 "/>
<text text-anchor="start" x="8" y="-278.52" font-family="Monaco" font-size="10.00">+ ~IPropertyChanged()</text>
</a>
</g>
</g>
<!-- Node3&#45;&gt;Node2 -->
<g id="edge2" class="edge"><title>Node3&#45;&gt;Node2</title>
<path fill="none" stroke="midnightblue" d="M95.0142,-258.864C95.0142,-250.479 95.0142,-241.513 95.0142,-232.671"/>
<polygon fill="none" stroke="midnightblue" points="91.5143,-259.121 95.0142,-269.121 98.5143,-259.121 91.5143,-259.121"/>
</g>
</g>
</svg>
