<?xml version="1.0" encoding="UTF-8" standalone="no"?>
<!DOCTYPE svg PUBLIC "-//W3C//DTD SVG 1.1//EN"
 "http://www.w3.org/Graphics/SVG/1.1/DTD/svg11.dtd">
<!-- Generated by graphviz version 2.38.0 (20140413.2041)
 -->
<!-- Title: HydroCouple::Spatial::IRegularGrid2DOnlyArgument Pages: 1 -->
<!--zoomable 1119 -->
<svg id="main" version="1.1" xmlns="http://www.w3.org/2000/svg" xmlns:xlink="http://www.w3.org/1999/xlink" xml:space="preserve" onload="init(evt)">
<style type="text/css"><![CDATA[
.edge:hover path { stroke: red; }
.edge:hover polygon { stroke: red; fill: red; }
]]></style>
<script type="text/javascript"><![CDATA[
var edges = document.getElementsByTagName('g');
if (edges && edges.length) {
  for (var i=0;i<edges.length;i++) {
    if (edges[i].id.substr(0,4)=='edge') {
      edges[i].setAttribute('class','edge');
    }
  }
}
]]></script>
        <defs>
                <circle id="rim" cx="0" cy="0" r="7"/>
                <circle id="rim2" cx="0" cy="0" r="3.5"/>
                <g id="zoomPlus">
                        <use xlink:href="#rim" fill="#404040">
                                <set attributeName="fill" to="#808080" begin="zoomplus.mouseover" end="zoomplus.mouseout"/>
                        </use>
                        <path d="M-4,0h8M0,-4v8" fill="none" stroke="white" stroke-width="1.5" pointer-events="none"/>
                </g>
                <g id="zoomMin">
                        <use xlink:href="#rim" fill="#404040">
                                <set attributeName="fill" to="#808080" begin="zoomminus.mouseover" end="zoomminus.mouseout"/>
                        </use>
                        <path d="M-4,0h8" fill="none" stroke="white" stroke-width="1.5" pointer-events="none"/>
                </g>
                <g id="dirArrow">
                        <path fill="none" stroke="white" stroke-width="1.5" d="M0,-3.0v7 M-2.5,-0.5L0,-3.0L2.5,-0.5"/>
                </g>
               <g id="resetDef">
                       <use xlink:href="#rim2" fill="#404040">
                               <set attributeName="fill" to="#808080" begin="reset.mouseover" end="reset.mouseout"/>
                       </use>
               </g>
        </defs>

<script type="text/javascript">
var viewWidth = 409;
var viewHeight = 1119;
var sectionId = 'dynsection-0';
</script>
<script xlink:href="svgpan.js"/>
<svg id="graph" class="graph">
<g id="viewport">
<title>HydroCouple::Spatial::IRegularGrid2DOnlyArgument</title>
<!-- Node1 -->
<g id="node1" class="node"><title>Node1</title>
<polygon fill="#bfbfbf" stroke="black" points="89.998,-0.5 89.998,-77.8398 292.028,-77.8398 292.028,-0.5 89.998,-0.5"/>
<text text-anchor="start" x="97.998" y="-65.8398" font-family="Monaco" font-size="10.00">HydroCouple::Spatial</text>
<text text-anchor="middle" x="191.013" y="-52.5049" font-family="Monaco" font-size="10.00">::IRegularGrid2DOnlyArgument</text>
<polyline fill="none" stroke="black" points="89.998,-43.1699 292.028,-43.1699 "/>
<text text-anchor="middle" x="191.013" y="-31.1699" font-family="Monaco" font-size="10.00"> </text>
<polyline fill="none" stroke="black" points="89.998,-21.835 292.028,-21.835 "/>
<text text-anchor="start" x="97.998" y="-9.83496" font-family="Monaco" font-size="10.00">+ ~IRegularGrid2DOnlyArgument()</text>
</g>
<!-- Node2 -->
<g id="node2" class="node"><title>Node2</title>
<g id="a_node2"><a xlink:href="class_hydro_couple_1_1_spatial_1_1_i_regular_grid2_d_argument.html" target="_top" xlink:title="An IRegularGrid2DArgument is an IExchangeItem with an IRegularGrid2DComponentItem. ">
<polygon fill="none" stroke="black" points="0,-168.18 0,-245.52 178.026,-245.52 178.026,-168.18 0,-168.18"/>
<text text-anchor="start" x="8" y="-233.52" font-family="Monaco" font-size="10.00">HydroCouple::Spatial</text>
<text text-anchor="middle" x="89.0132" y="-220.185" font-family="Monaco" font-size="10.00">::IRegularGrid2DArgument</text>
<polyline fill="none" stroke="black" points="0,-210.85 178.026,-210.85 "/>
<text text-anchor="middle" x="89.0132" y="-198.85" font-family="Monaco" font-size="10.00"> </text>
<polyline fill="none" stroke="black" points="0,-189.515 178.026,-189.515 "/>
<text text-anchor="start" x="8" y="-177.515" font-family="Monaco" font-size="10.00">+ ~IRegularGrid2DArgument()</text>
</a>
</g>
</g>
<!-- Node2&#45;&gt;Node1 -->
<g id="edge1" class="edge"><title>Node2&#45;&gt;Node1</title>
<path fill="none" stroke="midnightblue" d="M117.835,-159.034C133.612,-133.407 152.906,-102.067 167.721,-78.0033"/>
<polygon fill="none" stroke="midnightblue" points="114.676,-157.489 112.414,-167.839 120.637,-161.159 114.676,-157.489"/>
</g>
<!-- Node3 -->
<g id="node3" class="node"><title>Node3</title>
<g id="a_node3"><a xlink:href="class_hydro_couple_1_1_i_argument.html" target="_top" xlink:title="IArgument interface class used to set the arguments for components. They can be complex or simple mul...">
<polygon fill="none" stroke="black" points="3.00098,-335.859 3.00098,-519.879 169.025,-519.879 169.025,-335.859 3.00098,-335.859"/>
<text text-anchor="middle" x="86.0132" y="-507.879" font-family="Monaco" font-size="10.00">HydroCouple::IArgument</text>
<polyline fill="none" stroke="black" points="3.00098,-498.544 169.025,-498.544 "/>
<text text-anchor="middle" x="86.0132" y="-486.544" font-family="Monaco" font-size="10.00"> </text>
<polyline fill="none" stroke="black" points="3.00098,-477.209 169.025,-477.209 "/>
<text text-anchor="start" x="11.001" y="-465.209" font-family="Monaco" font-size="10.00">+ ~IArgument()</text>
<text text-anchor="start" x="11.001" y="-451.874" font-family="Monaco" font-size="10.00">+ isOptional()</text>
<text text-anchor="start" x="11.001" y="-438.539" font-family="Monaco" font-size="10.00">+ isReadOnly()</text>
<text text-anchor="start" x="11.001" y="-425.204" font-family="Monaco" font-size="10.00">+ toString()</text>
<text text-anchor="start" x="11.001" y="-411.869" font-family="Monaco" font-size="10.00">+ inputFileTypeFilters()</text>
<text text-anchor="start" x="11.001" y="-398.534" font-family="Monaco" font-size="10.00">+ canReadFromFile()</text>
<text text-anchor="start" x="11.001" y="-385.199" font-family="Monaco" font-size="10.00">+ canReadFromString()</text>
<text text-anchor="start" x="11.001" y="-371.864" font-family="Monaco" font-size="10.00">+ currentArgumentIOType()</text>
<text text-anchor="start" x="11.001" y="-358.529" font-family="Monaco" font-size="10.00">+ readValues()</text>
<text text-anchor="start" x="11.001" y="-345.194" font-family="Monaco" font-size="10.00">+ readValues()</text>
</a>
</g>
</g>
<!-- Node3&#45;&gt;Node2 -->
<g id="edge2" class="edge"><title>Node3&#45;&gt;Node2</title>
<path fill="none" stroke="midnightblue" d="M87.4008,-325.562C87.7901,-297.141 88.1896,-267.979 88.4935,-245.791"/>
<polygon fill="none" stroke="midnightblue" points="83.9011,-325.524 87.2637,-335.571 90.9005,-325.62 83.9011,-325.524"/>
</g>
<!-- Node4 -->
<g id="node4" class="node"><title>Node4</title>
<g id="a_node4"><a xlink:href="class_hydro_couple_1_1_i_component_data_item.html" target="_top" xlink:title="IComponentItem is a fundamental unit of data for a component. ">
<polygon fill="none" stroke="black" points="88.998,-556.879 88.998,-740.898 291.028,-740.898 291.028,-556.879 88.998,-556.879"/>
<text text-anchor="middle" x="190.013" y="-728.898" font-family="Monaco" font-size="10.00">HydroCouple::IComponentDataItem</text>
<polyline fill="none" stroke="black" points="88.998,-719.563 291.028,-719.563 "/>
<text text-anchor="middle" x="190.013" y="-707.563" font-family="Monaco" font-size="10.00"> </text>
<polyline fill="none" stroke="black" points="88.998,-698.229 291.028,-698.229 "/>
<text text-anchor="start" x="96.998" y="-686.229" font-family="Monaco" font-size="10.00">+ ~IComponentDataItem()</text>
<text text-anchor="start" x="96.998" y="-672.894" font-family="Monaco" font-size="10.00">+ modelComponent()</text>
<text text-anchor="start" x="96.998" y="-659.559" font-family="Monaco" font-size="10.00">+ dimensions()</text>
<text text-anchor="start" x="96.998" y="-646.224" font-family="Monaco" font-size="10.00">+ valueDefinition()</text>
<text text-anchor="start" x="96.998" y="-632.889" font-family="Monaco" font-size="10.00">+ getValue()</text>
<text text-anchor="start" x="96.998" y="-619.554" font-family="Monaco" font-size="10.00">+ getValues()</text>
<text text-anchor="start" x="96.998" y="-606.219" font-family="Monaco" font-size="10.00">+ getValues()</text>
<text text-anchor="start" x="96.998" y="-592.884" font-family="Monaco" font-size="10.00">+ setValue()</text>
<text text-anchor="start" x="96.998" y="-579.549" font-family="Monaco" font-size="10.00">+ setValues()</text>
<text text-anchor="start" x="96.998" y="-566.214" font-family="Monaco" font-size="10.00">+ setValues()</text>
</a>
</g>
</g>
<!-- Node4&#45;&gt;Node3 -->
<g id="edge3" class="edge"><title>Node4&#45;&gt;Node3</title>
<path fill="none" stroke="midnightblue" d="M142.333,-547.476C137.987,-538.323 133.6,-529.085 129.295,-520.019"/>
<polygon fill="none" stroke="midnightblue" points="139.21,-549.059 146.661,-556.591 145.533,-546.056 139.21,-549.059"/>
</g>
<!-- Node8 -->
<g id="node8" class="node"><title>Node8</title>
<g id="a_node8"><a xlink:href="class_hydro_couple_1_1_spatial_1_1_i_regular_grid2_d_component_data_item.html" target="_top" xlink:title="An IRegularGrid2DComponentDataItem represents an IRegularGrid2D IComponentItem. ">
<polygon fill="none" stroke="black" points="186.997,-362.529 186.997,-493.209 401.029,-493.209 401.029,-362.529 186.997,-362.529"/>
<text text-anchor="start" x="194.997" y="-481.209" font-family="Monaco" font-size="10.00">HydroCouple::Spatial</text>
<text text-anchor="middle" x="294.013" y="-467.874" font-family="Monaco" font-size="10.00">::IRegularGrid2DComponentDataItem</text>
<polyline fill="none" stroke="black" points="186.997,-458.539 401.029,-458.539 "/>
<text text-anchor="middle" x="294.013" y="-446.539" font-family="Monaco" font-size="10.00"> </text>
<polyline fill="none" stroke="black" points="186.997,-437.204 401.029,-437.204 "/>
<text text-anchor="start" x="194.997" y="-425.204" font-family="Monaco" font-size="10.00">+ ~IRegularGrid2DComponent</text>
<text text-anchor="start" x="194.997" y="-411.869" font-family="Monaco" font-size="10.00">DataItem()</text>
<text text-anchor="start" x="194.997" y="-398.534" font-family="Monaco" font-size="10.00">+ numXCellsDimension()</text>
<text text-anchor="start" x="194.997" y="-385.199" font-family="Monaco" font-size="10.00">+ numYCellsDimension()</text>
<text text-anchor="start" x="194.997" y="-371.864" font-family="Monaco" font-size="10.00">+ grid()</text>
</a>
</g>
</g>
<!-- Node4&#45;&gt;Node8 -->
<g id="edge8" class="edge"><title>Node4&#45;&gt;Node8</title>
<path fill="none" stroke="midnightblue" d="M237.763,-547.33C246.475,-528.982 255.348,-510.297 263.393,-493.353"/>
<polygon fill="none" stroke="midnightblue" points="234.493,-546.056 233.365,-556.591 240.817,-549.059 234.493,-546.056"/>
</g>
<!-- Node5 -->
<g id="node5" class="node"><title>Node5</title>
<g id="a_node5"><a xlink:href="class_hydro_couple_1_1_i_identity.html" target="_top" xlink:title="IIdentity interface class defines a method to get the Id of an HydroCouple entity. ">
<polygon fill="none" stroke="black" points="116.002,-777.898 116.002,-855.238 264.024,-855.238 264.024,-777.898 116.002,-777.898"/>
<text text-anchor="middle" x="190.013" y="-843.238" font-family="Monaco" font-size="10.00">HydroCouple::IIdentity</text>
<polyline fill="none" stroke="black" points="116.002,-833.903 264.024,-833.903 "/>
<text text-anchor="middle" x="190.013" y="-821.903" font-family="Monaco" font-size="10.00"> </text>
<polyline fill="none" stroke="black" points="116.002,-812.568 264.024,-812.568 "/>
<text text-anchor="start" x="124.002" y="-800.568" font-family="Monaco" font-size="10.00">+ ~IIdentity()</text>
<text text-anchor="start" x="124.002" y="-787.233" font-family="Monaco" font-size="10.00">+ id()</text>
</a>
</g>
</g>
<!-- Node5&#45;&gt;Node4 -->
<g id="edge4" class="edge"><title>Node5&#45;&gt;Node4</title>
<path fill="none" stroke="midnightblue" d="M190.013,-767.316C190.013,-758.963 190.013,-750.037 190.013,-740.979"/>
<polygon fill="none" stroke="midnightblue" points="186.513,-767.558 190.013,-777.558 193.513,-767.558 186.513,-767.558"/>
</g>
<!-- Node6 -->
<g id="node6" class="node"><title>Node6</title>
<g id="a_node6"><a xlink:href="class_hydro_couple_1_1_i_description.html" target="_top" xlink:title="IDescription interface class provides descriptive information on a HydroCouple object. ">
<polygon fill="none" stroke="black" points="107.001,-892.238 107.001,-1009.58 273.025,-1009.58 273.025,-892.238 107.001,-892.238"/>
<text text-anchor="middle" x="190.013" y="-997.583" font-family="Monaco" font-size="10.00">HydroCouple::IDescription</text>
<polyline fill="none" stroke="black" points="107.001,-988.248 273.025,-988.248 "/>
<text text-anchor="middle" x="190.013" y="-976.248" font-family="Monaco" font-size="10.00"> </text>
<polyline fill="none" stroke="black" points="107.001,-966.913 273.025,-966.913 "/>
<text text-anchor="start" x="115.001" y="-954.913" font-family="Monaco" font-size="10.00">+ ~IDescription()</text>
<text text-anchor="start" x="115.001" y="-941.578" font-family="Monaco" font-size="10.00">+ caption()</text>
<text text-anchor="start" x="115.001" y="-928.243" font-family="Monaco" font-size="10.00">+ setCaption()</text>
<text text-anchor="start" x="115.001" y="-914.908" font-family="Monaco" font-size="10.00">+ description()</text>
<text text-anchor="start" x="115.001" y="-901.573" font-family="Monaco" font-size="10.00">+ setDescription()</text>
</a>
</g>
</g>
<!-- Node6&#45;&gt;Node5 -->
<g id="edge5" class="edge"><title>Node6&#45;&gt;Node5</title>
<path fill="none" stroke="midnightblue" d="M190.013,-881.672C190.013,-872.634 190.013,-863.646 190.013,-855.386"/>
<polygon fill="none" stroke="midnightblue" points="186.513,-881.863 190.013,-891.863 193.513,-881.863 186.513,-881.863"/>
</g>
<!-- Node7 -->
<g id="node7" class="node"><title>Node7</title>
<g id="a_node7"><a xlink:href="class_hydro_couple_1_1_i_property_changed.html" target="_top" xlink:title="IPropertyChanged interface is used to emit signal/event when a property of an object changes...">
<polygon fill="none" stroke="black" points="94.999,-1046.58 94.999,-1110.59 285.027,-1110.59 285.027,-1046.58 94.999,-1046.58"/>
<text text-anchor="middle" x="190.013" y="-1098.59" font-family="Monaco" font-size="10.00">HydroCouple::IPropertyChanged</text>
<polyline fill="none" stroke="black" points="94.999,-1089.25 285.027,-1089.25 "/>
<text text-anchor="middle" x="190.013" y="-1077.25" font-family="Monaco" font-size="10.00"> </text>
<polyline fill="none" stroke="black" points="94.999,-1067.92 285.027,-1067.92 "/>
<text text-anchor="start" x="102.999" y="-1055.92" font-family="Monaco" font-size="10.00">+ ~IPropertyChanged()</text>
</a>
</g>
</g>
<!-- Node7&#45;&gt;Node6 -->
<g id="edge6" class="edge"><title>Node7&#45;&gt;Node6</title>
<path fill="none" stroke="midnightblue" d="M190.013,-1036.26C190.013,-1027.88 190.013,-1018.91 190.013,-1010.07"/>
<polygon fill="none" stroke="midnightblue" points="186.513,-1036.52 190.013,-1046.52 193.513,-1036.52 186.513,-1036.52"/>
</g>
<!-- Node8&#45;&gt;Node2 -->
<g id="edge7" class="edge"><title>Node8&#45;&gt;Node2</title>
<path fill="none" stroke="midnightblue" d="M226.431,-354.665C192.318,-318.22 152.345,-275.513 124.334,-245.586"/>
<polygon fill="none" stroke="midnightblue" points="224.226,-357.432 233.615,-362.341 229.337,-352.648 224.226,-357.432"/>
</g>
<!-- Node9 -->
<g id="node9" class="node"><title>Node9</title>
<g id="a_node9"><a xlink:href="class_hydro_couple_1_1_spatial_1_1_i_regular_grid2_d_only_component_data_item.html" target="_top" xlink:title="An IRegularGrid2DComponentDataItem represents an IRegularGrid2D IComponentItem. ">
<polygon fill="none" stroke="black" points="195.999,-114.84 195.999,-298.859 392.028,-298.859 392.028,-114.84 195.999,-114.84"/>
<text text-anchor="start" x="203.999" y="-286.859" font-family="Monaco" font-size="10.00">HydroCouple::Spatial</text>
<text text-anchor="start" x="203.999" y="-273.524" font-family="Monaco" font-size="10.00">::IRegularGrid2DOnlyComponent</text>
<text text-anchor="middle" x="294.013" y="-260.189" font-family="Monaco" font-size="10.00">DataItem</text>
<polyline fill="none" stroke="black" points="195.999,-250.854 392.028,-250.854 "/>
<text text-anchor="middle" x="294.013" y="-238.854" font-family="Monaco" font-size="10.00"> </text>
<polyline fill="none" stroke="black" points="195.999,-229.52 392.028,-229.52 "/>
<text text-anchor="start" x="203.999" y="-217.52" font-family="Monaco" font-size="10.00">+ ~IRegularGrid2DOnlyComponent</text>
<text text-anchor="start" x="203.999" y="-204.185" font-family="Monaco" font-size="10.00">DataItem()</text>
<text text-anchor="start" x="203.999" y="-190.85" font-family="Monaco" font-size="10.00">+ getValue()</text>
<text text-anchor="start" x="203.999" y="-177.515" font-family="Monaco" font-size="10.00">+ getValues()</text>
<text text-anchor="start" x="203.999" y="-164.18" font-family="Monaco" font-size="10.00">+ getValues()</text>
<text text-anchor="start" x="203.999" y="-150.845" font-family="Monaco" font-size="10.00">+ setValue()</text>
<text text-anchor="start" x="203.999" y="-137.51" font-family="Monaco" font-size="10.00">+ setValues()</text>
<text text-anchor="start" x="203.999" y="-124.175" font-family="Monaco" font-size="10.00">+ setValues()</text>
</a>
</g>
</g>
<!-- Node8&#45;&gt;Node9 -->
<g id="edge10" class="edge"><title>Node8&#45;&gt;Node9</title>
<path fill="none" stroke="midnightblue" d="M294.013,-351.932C294.013,-334.931 294.013,-316.691 294.013,-299.098"/>
<polygon fill="none" stroke="midnightblue" points="290.513,-352.341 294.013,-362.341 297.513,-352.341 290.513,-352.341"/>
</g>
<!-- Node9&#45;&gt;Node1 -->
<g id="edge9" class="edge"><title>Node9&#45;&gt;Node1</title>
<path fill="none" stroke="midnightblue" d="M231.961,-106.036C225.833,-96.1788 219.913,-86.6563 214.569,-78.0601"/>
<polygon fill="none" stroke="midnightblue" points="229.139,-108.126 237.391,-114.77 235.084,-104.43 229.139,-108.126"/>
</g>
</g>
</svg>
        <g id="navigator" transform="translate(0 0)" fill="#404254">
                <rect fill="#f2f5e9" fill-opacity="0.5" stroke="#606060" stroke-width=".5" x="0" y="0" width="60" height="60"/>
                <use id="zoomplus" xlink:href="#zoomPlus" x="17" y="9" onmousedown="handleZoom(evt,'in')"/>
                <use id="zoomminus" xlink:href="#zoomMin" x="42" y="9" onmousedown="handleZoom(evt,'out')"/>
                <use id="reset" xlink:href="#resetDef" x="30" y="36" onmousedown="handleReset()"/>
                <g id="arrowUp" xlink:href="#dirArrow" transform="translate(30 24)" onmousedown="handlePan(0,-1)">
                  <use xlink:href="#rim" fill="#404040">
                        <set attributeName="fill" to="#808080" begin="arrowUp.mouseover" end="arrowUp.mouseout"/>
                  </use>
                  <path fill="none" stroke="white" stroke-width="1.5" d="M0,-3.0v7 M-2.5,-0.5L0,-3.0L2.5,-0.5"/>
                </g>
                <g id="arrowRight" xlink:href="#dirArrow" transform="rotate(90) translate(36 -43)" onmousedown="handlePan(1,0)">
                  <use xlink:href="#rim" fill="#404040">
                        <set attributeName="fill" to="#808080" begin="arrowRight.mouseover" end="arrowRight.mouseout"/>
                  </use>
                  <path fill="none" stroke="white" stroke-width="1.5" d="M0,-3.0v7 M-2.5,-0.5L0,-3.0L2.5,-0.5"/>
                </g>
                <g id="arrowDown" xlink:href="#dirArrow" transform="rotate(180) translate(-30 -48)" onmousedown="handlePan(0,1)">
                  <use xlink:href="#rim" fill="#404040">
                        <set attributeName="fill" to="#808080" begin="arrowDown.mouseover" end="arrowDown.mouseout"/>
                  </use>
                  <path fill="none" stroke="white" stroke-width="1.5" d="M0,-3.0v7 M-2.5,-0.5L0,-3.0L2.5,-0.5"/>
                </g>
                <g id="arrowLeft" xlink:href="#dirArrow" transform="rotate(270) translate(-36 17)" onmousedown="handlePan(-1,0)">
                  <use xlink:href="#rim" fill="#404040">
                        <set attributeName="fill" to="#808080" begin="arrowLeft.mouseover" end="arrowLeft.mouseout"/>
                  </use>
                  <path fill="none" stroke="white" stroke-width="1.5" d="M0,-3.0v7 M-2.5,-0.5L0,-3.0L2.5,-0.5"/>
                </g>
        </g>
        <svg viewBox="0 0 15 15" width="100%" height="30px" preserveAspectRatio="xMaxYMin meet">
         <g id="arrow_out" transform="scale(0.3 0.3)">
          <a xlink:href="class_hydro_couple_1_1_spatial_1_1_i_regular_grid2_d_only_argument__inherit__graph_org.svg" target="_base">
           <rect id="button" ry="5" rx="5" y="6" x="6" height="38" width="38"
                fill="#f2f5e9" fill-opacity="0.5" stroke="#606060" stroke-width="1.0"/>
           <path id="arrow"
             d="M 11.500037,31.436501 C 11.940474,20.09759 22.043105,11.32322 32.158766,21.979434 L 37.068811,17.246167 C 37.068811,17.246167 37.088388,32 37.088388,32 L 22.160133,31.978069 C 22.160133,31.978069 26.997745,27.140456 26.997745,27.140456 C 18.528582,18.264221 13.291696,25.230495 11.500037,31.436501 z"
             style="fill:#404040;"/>
          </a>
         </g>
        </svg>
</svg>
