<?xml version="1.0" encoding="UTF-8" standalone="no"?>
<!DOCTYPE svg PUBLIC "-//W3C//DTD SVG 1.1//EN"
 "http://www.w3.org/Graphics/SVG/1.1/DTD/svg11.dtd">
<!-- Generated by graphviz version 2.38.0 (20140413.2041)
 -->
<!-- Title: HydroCouple::SpatioTemporal::ITime3DRegularGridArgument Pages: 1 -->
<svg width="596pt" height="1127pt"
 viewBox="0.00 0.00 596.03 1126.75" xmlns="http://www.w3.org/2000/svg" xmlns:xlink="http://www.w3.org/1999/xlink">
<g id="graph0" class="graph" transform="scale(1 1) rotate(0) translate(4 1122.75)">
<title>HydroCouple::SpatioTemporal::ITime3DRegularGridArgument</title>
<polygon fill="white" stroke="none" points="-4,4 -4,-1122.75 592.028,-1122.75 592.028,4 -4,4"/>
<!-- Node1 -->
<g id="node1" class="node"><title>Node1</title>
<polygon fill="#bfbfbf" stroke="black" points="147.995,-0.5 147.995,-77.8398 350.025,-77.8398 350.025,-0.5 147.995,-0.5"/>
<text text-anchor="start" x="155.995" y="-65.8398" font-family="Monaco" font-size="10.00">HydroCouple::SpatioTemporal</text>
<text text-anchor="middle" x="249.01" y="-52.5049" font-family="Monaco" font-size="10.00">::ITime3DRegularGridArgument</text>
<polyline fill="none" stroke="black" points="147.995,-43.1699 350.025,-43.1699 "/>
<text text-anchor="middle" x="249.01" y="-31.1699" font-family="Monaco" font-size="10.00"> </text>
<polyline fill="none" stroke="black" points="147.995,-21.835 350.025,-21.835 "/>
<text text-anchor="start" x="155.995" y="-9.83496" font-family="Monaco" font-size="10.00">+ ~ITime3DRegularGridArgument()</text>
</g>
<!-- Node2 -->
<g id="node2" class="node"><title>Node2</title>
<g id="a_node2"><a xlink:href="class_hydro_couple_1_1_temporal_1_1_i_time_argument.html" target="_top" xlink:title="The ITimeArgument class. ">
<polygon fill="white" stroke="black" points="0,-114.84 0,-205.515 142.021,-205.515 142.021,-114.84 0,-114.84"/>
<text text-anchor="start" x="8" y="-193.515" font-family="Monaco" font-size="10.00">HydroCouple::Temporal</text>
<text text-anchor="middle" x="71.0103" y="-180.18" font-family="Monaco" font-size="10.00">::ITimeArgument</text>
<polyline fill="none" stroke="black" points="0,-170.845 142.021,-170.845 "/>
<text text-anchor="middle" x="71.0103" y="-158.845" font-family="Monaco" font-size="10.00"> </text>
<polyline fill="none" stroke="black" points="0,-149.51 142.021,-149.51 "/>
<text text-anchor="start" x="8" y="-137.51" font-family="Monaco" font-size="10.00">+ ~ITimeArgument()</text>
<text text-anchor="start" x="8" y="-124.175" font-family="Monaco" font-size="10.00">+ setTimes()</text>
</a>
</g>
</g>
<!-- Node2&#45;&gt;Node1 -->
<g id="edge1" class="edge"><title>Node2&#45;&gt;Node1</title>
<path fill="none" stroke="midnightblue" d="M146.099,-108.974C161.628,-98.5921 177.736,-87.8226 192.469,-77.9724"/>
<polygon fill="none" stroke="midnightblue" points="143.912,-106.226 137.544,-114.694 147.802,-112.046 143.912,-106.226"/>
</g>
<!-- Node3 -->
<g id="node3" class="node"><title>Node3</title>
<g id="a_node3"><a xlink:href="class_hydro_couple_1_1_i_argument.html" target="_top" xlink:title="IArgument interface class used to set the arguments for components. They can be complex or simple mul...">
<polygon fill="white" stroke="black" points="12.9995,-242.515 12.9995,-439.869 161.021,-439.869 161.021,-242.515 12.9995,-242.515"/>
<text text-anchor="middle" x="87.0103" y="-427.869" font-family="Monaco" font-size="10.00">HydroCouple::IArgument</text>
<polyline fill="none" stroke="black" points="12.9995,-418.534 161.021,-418.534 "/>
<text text-anchor="middle" x="87.0103" y="-406.534" font-family="Monaco" font-size="10.00"> </text>
<polyline fill="none" stroke="black" points="12.9995,-397.199 161.021,-397.199 "/>
<text text-anchor="start" x="20.9995" y="-385.199" font-family="Monaco" font-size="10.00">+ ~IArgument()</text>
<text text-anchor="start" x="20.9995" y="-371.864" font-family="Monaco" font-size="10.00">+ isOptional()</text>
<text text-anchor="start" x="20.9995" y="-358.529" font-family="Monaco" font-size="10.00">+ isReadOnly()</text>
<text text-anchor="start" x="20.9995" y="-345.194" font-family="Monaco" font-size="10.00">+ clone()</text>
<text text-anchor="start" x="20.9995" y="-331.859" font-family="Monaco" font-size="10.00">+ valueSets()</text>
<text text-anchor="start" x="20.9995" y="-318.524" font-family="Monaco" font-size="10.00">+ toString()</text>
<text text-anchor="start" x="20.9995" y="-305.189" font-family="Monaco" font-size="10.00">+ fileExtensions()</text>
<text text-anchor="start" x="20.9995" y="-291.854" font-family="Monaco" font-size="10.00">+ canReadFromFile()</text>
<text text-anchor="start" x="20.9995" y="-278.52" font-family="Monaco" font-size="10.00">+ canReadFromString()</text>
<text text-anchor="start" x="20.9995" y="-265.185" font-family="Monaco" font-size="10.00">+ readValues()</text>
<text text-anchor="start" x="20.9995" y="-251.85" font-family="Monaco" font-size="10.00">+ readValues()</text>
</a>
</g>
</g>
<!-- Node3&#45;&gt;Node2 -->
<g id="edge2" class="edge"><title>Node3&#45;&gt;Node2</title>
<path fill="none" stroke="midnightblue" d="M77.3604,-232.225C76.5373,-223.017 75.7387,-214.081 75.0013,-205.831"/>
<polygon fill="none" stroke="midnightblue" points="73.8848,-232.656 78.2612,-242.304 80.857,-232.032 73.8848,-232.656"/>
</g>
<!-- Node9 -->
<g id="node9" class="node"><title>Node9</title>
<g id="a_node9"><a xlink:href="class_hydro_couple_1_1_spatial_1_1_i3_d_regular_grid_argument.html" target="_top" xlink:title="An I3DRegularGridArgument is an IArgument with an I3DRegularGridComponentItem. ">
<polygon fill="white" stroke="black" points="159.997,-114.84 159.997,-205.515 338.023,-205.515 338.023,-114.84 159.997,-114.84"/>
<text text-anchor="start" x="167.997" y="-193.515" font-family="Monaco" font-size="10.00">HydroCouple::Spatial</text>
<text text-anchor="middle" x="249.01" y="-180.18" font-family="Monaco" font-size="10.00">::I3DRegularGridArgument</text>
<polyline fill="none" stroke="black" points="159.997,-170.845 338.023,-170.845 "/>
<text text-anchor="middle" x="249.01" y="-158.845" font-family="Monaco" font-size="10.00"> </text>
<polyline fill="none" stroke="black" points="159.997,-149.51 338.023,-149.51 "/>
<text text-anchor="start" x="167.997" y="-137.51" font-family="Monaco" font-size="10.00">+ ~I3DRegularGridArgument()</text>
<text text-anchor="start" x="167.997" y="-124.175" font-family="Monaco" font-size="10.00">+ setGrid()</text>
</a>
</g>
</g>
<!-- Node3&#45;&gt;Node9 -->
<g id="edge10" class="edge"><title>Node3&#45;&gt;Node9</title>
<path fill="none" stroke="midnightblue" d="M168.084,-244.139C168.728,-243.427 169.37,-242.719 170.01,-242.015 180.967,-229.964 193.123,-217.229 204.549,-205.522"/>
<polygon fill="none" stroke="midnightblue" points="165.212,-242.1 161.143,-251.882 170.424,-246.772 165.212,-242.1"/>
</g>
<!-- Node4 -->
<g id="node4" class="node"><title>Node4</title>
<g id="a_node4"><a xlink:href="class_hydro_couple_1_1_i_component_item.html" target="_top" xlink:title="IComponentItem is a fundamental unit of data for a component. ">
<polygon fill="white" stroke="black" points="166.997,-657.884 166.997,-748.559 345.023,-748.559 345.023,-657.884 166.997,-657.884"/>
<text text-anchor="middle" x="256.01" y="-736.559" font-family="Monaco" font-size="10.00">HydroCouple::IComponentItem</text>
<polyline fill="none" stroke="black" points="166.997,-727.224 345.023,-727.224 "/>
<text text-anchor="middle" x="256.01" y="-715.224" font-family="Monaco" font-size="10.00"> </text>
<polyline fill="none" stroke="black" points="166.997,-705.889 345.023,-705.889 "/>
<text text-anchor="start" x="174.997" y="-693.889" font-family="Monaco" font-size="10.00">+ ~IComponentItem()</text>
<text text-anchor="start" x="174.997" y="-680.554" font-family="Monaco" font-size="10.00">+ modelComponent()</text>
<text text-anchor="start" x="174.997" y="-667.219" font-family="Monaco" font-size="10.00">+ dimensions()</text>
</a>
</g>
</g>
<!-- Node4&#45;&gt;Node3 -->
<g id="edge3" class="edge"><title>Node4&#45;&gt;Node3</title>
<path fill="none" stroke="midnightblue" d="M230.802,-648.518C205.048,-593.654 164.483,-507.235 132.994,-440.154"/>
<polygon fill="none" stroke="midnightblue" points="227.7,-650.148 235.118,-657.713 234.037,-647.174 227.7,-650.148"/>
</g>
<!-- Node8 -->
<g id="node8" class="node"><title>Node8</title>
<g id="a_node8"><a xlink:href="class_hydro_couple_1_1_temporal_1_1_i_time_component_item.html" target="_top" xlink:title="ITimeComponentItem is an IComponentItem with a temporal attribute. ">
<polygon fill="white" stroke="black" points="178.999,-275.852 178.999,-406.532 333.021,-406.532 333.021,-275.852 178.999,-275.852"/>
<text text-anchor="start" x="186.999" y="-394.532" font-family="Monaco" font-size="10.00">HydroCouple::Temporal</text>
<text text-anchor="middle" x="256.01" y="-381.197" font-family="Monaco" font-size="10.00">::ITimeComponentItem</text>
<polyline fill="none" stroke="black" points="178.999,-371.862 333.021,-371.862 "/>
<text text-anchor="middle" x="256.01" y="-359.862" font-family="Monaco" font-size="10.00"> </text>
<polyline fill="none" stroke="black" points="178.999,-350.527 333.021,-350.527 "/>
<text text-anchor="start" x="186.999" y="-338.527" font-family="Monaco" font-size="10.00">+ ~ITimeComponentItem()</text>
<text text-anchor="start" x="186.999" y="-325.192" font-family="Monaco" font-size="10.00">+ timeDimension()</text>
<text text-anchor="start" x="186.999" y="-311.857" font-family="Monaco" font-size="10.00">+ times()</text>
<text text-anchor="start" x="186.999" y="-298.522" font-family="Monaco" font-size="10.00">+ timeSpan()</text>
<text text-anchor="start" x="186.999" y="-285.187" font-family="Monaco" font-size="10.00">+ time()</text>
</a>
</g>
</g>
<!-- Node4&#45;&gt;Node8 -->
<g id="edge8" class="edge"><title>Node4&#45;&gt;Node8</title>
<path fill="none" stroke="midnightblue" d="M256.01,-647.318C256.01,-582.613 256.01,-475.242 256.01,-406.648"/>
<polygon fill="none" stroke="midnightblue" points="252.51,-647.713 256.01,-657.713 259.51,-647.713 252.51,-647.713"/>
</g>
<!-- Node11 -->
<g id="node11" class="node"><title>Node11</title>
<g id="a_node11"><a xlink:href="class_hydro_couple_1_1_spatial_1_1_i2_d_regular_grid_component_item.html" target="_top" xlink:title="An I2DRegularGridComponentItem represents an I2DRegularGrid IComponentItem. ">
<polygon fill="white" stroke="black" points="316.995,-476.869 316.995,-620.884 525.026,-620.884 525.026,-476.869 316.995,-476.869"/>
<text text-anchor="start" x="324.995" y="-608.884" font-family="Monaco" font-size="10.00">HydroCouple::Spatial</text>
<text text-anchor="middle" x="421.01" y="-595.549" font-family="Monaco" font-size="10.00">::I2DRegularGridComponentItem</text>
<polyline fill="none" stroke="black" points="316.995,-586.214 525.026,-586.214 "/>
<text text-anchor="middle" x="421.01" y="-574.214" font-family="Monaco" font-size="10.00"> </text>
<polyline fill="none" stroke="black" points="316.995,-564.879 525.026,-564.879 "/>
<text text-anchor="start" x="324.995" y="-552.879" font-family="Monaco" font-size="10.00">+ ~I2DRegularGridComponentItem()</text>
<text text-anchor="start" x="324.995" y="-539.544" font-family="Monaco" font-size="10.00">+ numXNodesDimension()</text>
<text text-anchor="start" x="324.995" y="-526.209" font-family="Monaco" font-size="10.00">+ numYNodesDimension()</text>
<text text-anchor="start" x="324.995" y="-512.874" font-family="Monaco" font-size="10.00">+ numXCellsDimension()</text>
<text text-anchor="start" x="324.995" y="-499.539" font-family="Monaco" font-size="10.00">+ numYCellsDimension()</text>
<text text-anchor="start" x="324.995" y="-486.204" font-family="Monaco" font-size="10.00">+ grid()</text>
</a>
</g>
</g>
<!-- Node4&#45;&gt;Node11 -->
<g id="edge13" class="edge"><title>Node4&#45;&gt;Node11</title>
<path fill="none" stroke="midnightblue" d="M311.615,-650.882C321.996,-641.296 333.016,-631.121 343.91,-621.063"/>
<polygon fill="none" stroke="midnightblue" points="309.152,-648.392 304.179,-657.747 313.9,-653.535 309.152,-648.392"/>
</g>
<!-- Node5 -->
<g id="node5" class="node"><title>Node5</title>
<g id="a_node5"><a xlink:href="class_hydro_couple_1_1_i_identity.html" target="_top" xlink:title="IIdentity interface class defines a method to get the Id of an HydroCouple entity. ">
<polygon fill="white" stroke="black" points="182,-785.559 182,-862.898 330.021,-862.898 330.021,-785.559 182,-785.559"/>
<text text-anchor="middle" x="256.01" y="-850.898" font-family="Monaco" font-size="10.00">HydroCouple::IIdentity</text>
<polyline fill="none" stroke="black" points="182,-841.563 330.021,-841.563 "/>
<text text-anchor="middle" x="256.01" y="-829.563" font-family="Monaco" font-size="10.00"> </text>
<polyline fill="none" stroke="black" points="182,-820.229 330.021,-820.229 "/>
<text text-anchor="start" x="190" y="-808.229" font-family="Monaco" font-size="10.00">+ ~IIdentity()</text>
<text text-anchor="start" x="190" y="-794.894" font-family="Monaco" font-size="10.00">+ id()</text>
</a>
</g>
</g>
<!-- Node5&#45;&gt;Node4 -->
<g id="edge4" class="edge"><title>Node5&#45;&gt;Node4</title>
<path fill="none" stroke="midnightblue" d="M256.01,-775.239C256.01,-766.54 256.01,-757.5 256.01,-748.902"/>
<polygon fill="none" stroke="midnightblue" points="252.51,-775.247 256.01,-785.247 259.51,-775.247 252.51,-775.247"/>
</g>
<!-- Node6 -->
<g id="node6" class="node"><title>Node6</title>
<g id="a_node6"><a xlink:href="class_hydro_couple_1_1_i_description.html" target="_top" xlink:title="IDescription interface class provides descriptive information on a HydroCouple object. ">
<polygon fill="white" stroke="black" points="172.998,-899.898 172.998,-1017.24 339.022,-1017.24 339.022,-899.898 172.998,-899.898"/>
<text text-anchor="middle" x="256.01" y="-1005.24" font-family="Monaco" font-size="10.00">HydroCouple::IDescription</text>
<polyline fill="none" stroke="black" points="172.998,-995.908 339.022,-995.908 "/>
<text text-anchor="middle" x="256.01" y="-983.908" font-family="Monaco" font-size="10.00"> </text>
<polyline fill="none" stroke="black" points="172.998,-974.573 339.022,-974.573 "/>
<text text-anchor="start" x="180.998" y="-962.573" font-family="Monaco" font-size="10.00">+ ~IDescription()</text>
<text text-anchor="start" x="180.998" y="-949.238" font-family="Monaco" font-size="10.00">+ getCaption()</text>
<text text-anchor="start" x="180.998" y="-935.903" font-family="Monaco" font-size="10.00">+ setCaption()</text>
<text text-anchor="start" x="180.998" y="-922.568" font-family="Monaco" font-size="10.00">+ getDescription()</text>
<text text-anchor="start" x="180.998" y="-909.233" font-family="Monaco" font-size="10.00">+ setDescription()</text>
</a>
</g>
</g>
<!-- Node6&#45;&gt;Node5 -->
<g id="edge5" class="edge"><title>Node6&#45;&gt;Node5</title>
<path fill="none" stroke="midnightblue" d="M256.01,-889.333C256.01,-880.294 256.01,-871.306 256.01,-863.046"/>
<polygon fill="none" stroke="midnightblue" points="252.51,-889.524 256.01,-899.524 259.51,-889.524 252.51,-889.524"/>
</g>
<!-- Node7 -->
<g id="node7" class="node"><title>Node7</title>
<g id="a_node7"><a xlink:href="class_hydro_couple_1_1_i_property_changed.html" target="_top" xlink:title="IPropertyChanged interface is used to emit signal/event when a property of an object changes...">
<polygon fill="white" stroke="black" points="160.996,-1054.24 160.996,-1118.25 351.024,-1118.25 351.024,-1054.24 160.996,-1054.24"/>
<text text-anchor="middle" x="256.01" y="-1106.25" font-family="Monaco" font-size="10.00">HydroCouple::IPropertyChanged</text>
<polyline fill="none" stroke="black" points="160.996,-1096.91 351.024,-1096.91 "/>
<text text-anchor="middle" x="256.01" y="-1084.91" font-family="Monaco" font-size="10.00"> </text>
<polyline fill="none" stroke="black" points="160.996,-1075.58 351.024,-1075.58 "/>
<text text-anchor="start" x="168.996" y="-1063.58" font-family="Monaco" font-size="10.00">+ ~IPropertyChanged()</text>
</a>
</g>
</g>
<!-- Node7&#45;&gt;Node6 -->
<g id="edge6" class="edge"><title>Node7&#45;&gt;Node6</title>
<path fill="none" stroke="midnightblue" d="M256.01,-1043.92C256.01,-1035.54 256.01,-1026.57 256.01,-1017.73"/>
<polygon fill="none" stroke="midnightblue" points="252.51,-1044.18 256.01,-1054.18 259.51,-1044.18 252.51,-1044.18"/>
</g>
<!-- Node8&#45;&gt;Node2 -->
<g id="edge7" class="edge"><title>Node8&#45;&gt;Node2</title>
<path fill="none" stroke="midnightblue" d="M195.336,-268.092C187.05,-259.096 178.477,-250.193 170.01,-242.015 157.163,-229.605 142.606,-217.006 128.685,-205.565"/>
<polygon fill="none" stroke="midnightblue" points="192.901,-270.617 202.22,-275.656 198.078,-265.905 192.901,-270.617"/>
</g>
<!-- Node12 -->
<g id="node12" class="node"><title>Node12</title>
<g id="a_node12"><a xlink:href="class_hydro_couple_1_1_spatio_temporal_1_1_i_time3_d_regular_grid_component_item.html" target="_top" xlink:title="The ITime3DRegularGridComponentItem class. ">
<polygon fill="white" stroke="black" points="355.993,-121.507 355.993,-198.847 588.028,-198.847 588.028,-121.507 355.993,-121.507"/>
<text text-anchor="start" x="363.993" y="-186.847" font-family="Monaco" font-size="10.00">HydroCouple::SpatioTemporal</text>
<text text-anchor="middle" x="472.01" y="-173.512" font-family="Monaco" font-size="10.00">::ITime3DRegularGridComponentItem</text>
<polyline fill="none" stroke="black" points="355.993,-164.177 588.028,-164.177 "/>
<text text-anchor="middle" x="472.01" y="-152.177" font-family="Monaco" font-size="10.00"> </text>
<polyline fill="none" stroke="black" points="355.993,-142.842 588.028,-142.842 "/>
<text text-anchor="start" x="363.993" y="-130.842" font-family="Monaco" font-size="10.00">+ ~ITime3DRegularGridComponentItem()</text>
</a>
</g>
</g>
<!-- Node8&#45;&gt;Node12 -->
<g id="edge15" class="edge"><title>Node8&#45;&gt;Node12</title>
<path fill="none" stroke="midnightblue" d="M314.505,-268.295C323.311,-259.027 332.605,-249.999 342.01,-242.015 360.549,-226.277 382.443,-211.462 402.925,-198.921"/>
<polygon fill="none" stroke="midnightblue" points="311.806,-266.059 307.555,-275.764 316.93,-270.827 311.806,-266.059"/>
</g>
<!-- Node9&#45;&gt;Node1 -->
<g id="edge9" class="edge"><title>Node9&#45;&gt;Node1</title>
<path fill="none" stroke="midnightblue" d="M249.01,-104.24C249.01,-95.3846 249.01,-86.394 249.01,-78.0584"/>
<polygon fill="none" stroke="midnightblue" points="245.51,-104.525 249.01,-114.525 252.51,-104.525 245.51,-104.525"/>
</g>
<!-- Node10 -->
<g id="node10" class="node"><title>Node10</title>
<g id="a_node10"><a xlink:href="class_hydro_couple_1_1_spatial_1_1_i3_d_regular_grid_component_item.html" target="_top" xlink:title="An I3DRegularGridComponentItem represents an I3DRegularGrid IComponentItem. ">
<polygon fill="white" stroke="black" points="350.995,-282.52 350.995,-399.864 559.026,-399.864 559.026,-282.52 350.995,-282.52"/>
<text text-anchor="start" x="358.995" y="-387.864" font-family="Monaco" font-size="10.00">HydroCouple::Spatial</text>
<text text-anchor="middle" x="455.01" y="-374.529" font-family="Monaco" font-size="10.00">::I3DRegularGridComponentItem</text>
<polyline fill="none" stroke="black" points="350.995,-365.194 559.026,-365.194 "/>
<text text-anchor="middle" x="455.01" y="-353.194" font-family="Monaco" font-size="10.00"> </text>
<polyline fill="none" stroke="black" points="350.995,-343.859 559.026,-343.859 "/>
<text text-anchor="start" x="358.995" y="-331.859" font-family="Monaco" font-size="10.00">+ ~I2DRegularGridComponentItem()</text>
<text text-anchor="start" x="358.995" y="-318.524" font-family="Monaco" font-size="10.00">+ numZNodesDimension()</text>
<text text-anchor="start" x="358.995" y="-305.189" font-family="Monaco" font-size="10.00">+ numZCellsDimension()</text>
<text text-anchor="start" x="358.995" y="-291.854" font-family="Monaco" font-size="10.00">+ grid()</text>
</a>
</g>
</g>
<!-- Node10&#45;&gt;Node9 -->
<g id="edge11" class="edge"><title>Node10&#45;&gt;Node9</title>
<path fill="none" stroke="midnightblue" d="M380.585,-275.516C353.851,-252.284 324.328,-226.628 300.033,-205.516"/>
<polygon fill="none" stroke="midnightblue" points="378.568,-278.401 388.412,-282.318 383.16,-273.117 378.568,-278.401"/>
</g>
<!-- Node10&#45;&gt;Node12 -->
<g id="edge16" class="edge"><title>Node10&#45;&gt;Node12</title>
<path fill="none" stroke="midnightblue" d="M461.487,-271.994C463.837,-247.245 466.406,-220.189 468.418,-199.006"/>
<polygon fill="none" stroke="midnightblue" points="457.991,-271.785 460.53,-282.071 464.959,-272.447 457.991,-271.785"/>
</g>
<!-- Node11&#45;&gt;Node10 -->
<g id="edge12" class="edge"><title>Node11&#45;&gt;Node10</title>
<path fill="none" stroke="midnightblue" d="M434.432,-466.678C438.117,-444.388 442.036,-420.678 445.455,-399.995"/>
<polygon fill="none" stroke="midnightblue" points="430.937,-466.367 432.759,-476.803 437.843,-467.508 430.937,-466.367"/>
</g>
<!-- Node12&#45;&gt;Node1 -->
<g id="edge14" class="edge"><title>Node12&#45;&gt;Node1</title>
<path fill="none" stroke="midnightblue" d="M392.182,-116.576C368.503,-103.939 342.746,-90.1936 319.691,-77.8897"/>
<polygon fill="none" stroke="midnightblue" points="390.675,-119.739 401.145,-121.359 393.971,-113.563 390.675,-119.739"/>
</g>
</g>
</svg>
