<?xml version="1.0" encoding="UTF-8" standalone="no"?>
<!DOCTYPE svg PUBLIC "-//W3C//DTD SVG 1.1//EN"
 "http://www.w3.org/Graphics/SVG/1.1/DTD/svg11.dtd">
<!-- Generated by graphviz version 2.38.0 (20140413.2041)
 -->
<!-- Title: HydroCouple::SpatioTemporal::ITime2DRegularGridComponentItem Pages: 1 -->
<svg width="388pt" height="879pt"
 viewBox="0.00 0.00 388.03 879.06" xmlns="http://www.w3.org/2000/svg" xmlns:xlink="http://www.w3.org/1999/xlink">
<g id="graph0" class="graph" transform="scale(1 1) rotate(0) translate(4 875.059)">
<title>HydroCouple::SpatioTemporal::ITime2DRegularGridComponentItem</title>
<polygon fill="white" stroke="none" points="-4,4 -4,-875.059 384.027,-875.059 384.027,4 -4,4"/>
<!-- Node1 -->
<g id="node1" class="node"><title>Node1</title>
<polygon fill="#bfbfbf" stroke="black" points="59.9937,-114.84 59.9937,-192.18 292.029,-192.18 292.029,-114.84 59.9937,-114.84"/>
<text text-anchor="start" x="67.9937" y="-180.18" font-family="Monaco" font-size="10.00">HydroCouple::SpatioTemporal</text>
<text text-anchor="middle" x="176.011" y="-166.845" font-family="Monaco" font-size="10.00">::ITime2DRegularGridComponentItem</text>
<polyline fill="none" stroke="black" points="59.9937,-157.51 292.029,-157.51 "/>
<text text-anchor="middle" x="176.011" y="-145.51" font-family="Monaco" font-size="10.00"> </text>
<polyline fill="none" stroke="black" points="59.9937,-136.175 292.029,-136.175 "/>
<text text-anchor="start" x="67.9937" y="-124.175" font-family="Monaco" font-size="10.00">+ ~ITime2DRegularGridComponentItem()</text>
</g>
<!-- Node8 -->
<g id="node8" class="node"><title>Node8</title>
<g id="a_node8"><a xlink:href="class_hydro_couple_1_1_spatio_temporal_1_1_i_time2_d_regular_grid_argument.html" target="_top" xlink:title="The ITime2DRegularGridArgument class. ">
<polygon fill="white" stroke="black" points="74.9961,-0.5 74.9961,-77.8398 277.026,-77.8398 277.026,-0.5 74.9961,-0.5"/>
<text text-anchor="start" x="82.9961" y="-65.8398" font-family="Monaco" font-size="10.00">HydroCouple::SpatioTemporal</text>
<text text-anchor="middle" x="176.011" y="-52.5049" font-family="Monaco" font-size="10.00">::ITime2DRegularGridArgument</text>
<polyline fill="none" stroke="black" points="74.9961,-43.1699 277.026,-43.1699 "/>
<text text-anchor="middle" x="176.011" y="-31.1699" font-family="Monaco" font-size="10.00"> </text>
<polyline fill="none" stroke="black" points="74.9961,-21.835 277.026,-21.835 "/>
<text text-anchor="start" x="82.9961" y="-9.83496" font-family="Monaco" font-size="10.00">+ ~ITime2DRegularGridArgument()</text>
</a>
</g>
</g>
<!-- Node1&#45;&gt;Node8 -->
<g id="edge8" class="edge"><title>Node1&#45;&gt;Node8</title>
<path fill="none" stroke="midnightblue" d="M176.011,-104.548C176.011,-95.6678 176.011,-86.5077 176.011,-77.9816"/>
<polygon fill="none" stroke="midnightblue" points="172.511,-104.79 176.011,-114.79 179.511,-104.79 172.511,-104.79"/>
</g>
<!-- Node2 -->
<g id="node2" class="node"><title>Node2</title>
<g id="a_node2"><a xlink:href="class_hydro_couple_1_1_temporal_1_1_i_time_component_item.html" target="_top" xlink:title="ITimeComponentItem is an IComponentItem with a temporal attribute. ">
<polygon fill="white" stroke="black" points="0,-235.847 0,-366.527 154.022,-366.527 154.022,-235.847 0,-235.847"/>
<text text-anchor="start" x="8" y="-354.527" font-family="Monaco" font-size="10.00">HydroCouple::Temporal</text>
<text text-anchor="middle" x="77.0112" y="-341.192" font-family="Monaco" font-size="10.00">::ITimeComponentItem</text>
<polyline fill="none" stroke="black" points="0,-331.857 154.022,-331.857 "/>
<text text-anchor="middle" x="77.0112" y="-319.857" font-family="Monaco" font-size="10.00"> </text>
<polyline fill="none" stroke="black" points="0,-310.522 154.022,-310.522 "/>
<text text-anchor="start" x="8" y="-298.522" font-family="Monaco" font-size="10.00">+ ~ITimeComponentItem()</text>
<text text-anchor="start" x="8" y="-285.187" font-family="Monaco" font-size="10.00">+ timeDimension()</text>
<text text-anchor="start" x="8" y="-271.852" font-family="Monaco" font-size="10.00">+ times()</text>
<text text-anchor="start" x="8" y="-258.517" font-family="Monaco" font-size="10.00">+ timeSpan()</text>
<text text-anchor="start" x="8" y="-245.182" font-family="Monaco" font-size="10.00">+ time()</text>
</a>
</g>
</g>
<!-- Node2&#45;&gt;Node1 -->
<g id="edge1" class="edge"><title>Node2&#45;&gt;Node1</title>
<path fill="none" stroke="midnightblue" d="M126.667,-227.119C134.852,-215.075 143.031,-203.039 150.31,-192.329"/>
<polygon fill="none" stroke="midnightblue" points="123.737,-225.204 121.011,-235.442 129.526,-229.139 123.737,-225.204"/>
</g>
<!-- Node3 -->
<g id="node3" class="node"><title>Node3</title>
<g id="a_node3"><a xlink:href="class_hydro_couple_1_1_i_component_item.html" target="_top" xlink:title="IComponentItem is a fundamental unit of data for a component. ">
<polygon fill="white" stroke="black" points="86.998,-410.194 86.998,-500.869 265.024,-500.869 265.024,-410.194 86.998,-410.194"/>
<text text-anchor="middle" x="176.011" y="-488.869" font-family="Monaco" font-size="10.00">HydroCouple::IComponentItem</text>
<polyline fill="none" stroke="black" points="86.998,-479.534 265.024,-479.534 "/>
<text text-anchor="middle" x="176.011" y="-467.534" font-family="Monaco" font-size="10.00"> </text>
<polyline fill="none" stroke="black" points="86.998,-458.199 265.024,-458.199 "/>
<text text-anchor="start" x="94.998" y="-446.199" font-family="Monaco" font-size="10.00">+ ~IComponentItem()</text>
<text text-anchor="start" x="94.998" y="-432.864" font-family="Monaco" font-size="10.00">+ modelComponent()</text>
<text text-anchor="start" x="94.998" y="-419.529" font-family="Monaco" font-size="10.00">+ dimensions()</text>
</a>
</g>
</g>
<!-- Node3&#45;&gt;Node2 -->
<g id="edge2" class="edge"><title>Node3&#45;&gt;Node2</title>
<path fill="none" stroke="midnightblue" d="M141.599,-401.578C134.252,-390.271 126.415,-378.211 118.824,-366.53"/>
<polygon fill="none" stroke="midnightblue" points="138.726,-403.58 147.11,-410.058 144.596,-399.766 138.726,-403.58"/>
</g>
<!-- Node7 -->
<g id="node7" class="node"><title>Node7</title>
<g id="a_node7"><a xlink:href="class_hydro_couple_1_1_spatial_1_1_i2_d_regular_grid_component_item.html" target="_top" xlink:title="An I2DRegularGridComponentItem represents an I2DRegularGrid IComponentItem. ">
<polygon fill="white" stroke="black" points="171.996,-229.18 171.996,-373.194 380.027,-373.194 380.027,-229.18 171.996,-229.18"/>
<text text-anchor="start" x="179.996" y="-361.194" font-family="Monaco" font-size="10.00">HydroCouple::Spatial</text>
<text text-anchor="middle" x="276.011" y="-347.859" font-family="Monaco" font-size="10.00">::I2DRegularGridComponentItem</text>
<polyline fill="none" stroke="black" points="171.996,-338.524 380.027,-338.524 "/>
<text text-anchor="middle" x="276.011" y="-326.524" font-family="Monaco" font-size="10.00"> </text>
<polyline fill="none" stroke="black" points="171.996,-317.189 380.027,-317.189 "/>
<text text-anchor="start" x="179.996" y="-305.189" font-family="Monaco" font-size="10.00">+ ~I2DRegularGridComponentItem()</text>
<text text-anchor="start" x="179.996" y="-291.854" font-family="Monaco" font-size="10.00">+ numXNodesDimension()</text>
<text text-anchor="start" x="179.996" y="-278.52" font-family="Monaco" font-size="10.00">+ numYNodesDimension()</text>
<text text-anchor="start" x="179.996" y="-265.185" font-family="Monaco" font-size="10.00">+ numXCellsDimension()</text>
<text text-anchor="start" x="179.996" y="-251.85" font-family="Monaco" font-size="10.00">+ numYCellsDimension()</text>
<text text-anchor="start" x="179.996" y="-238.515" font-family="Monaco" font-size="10.00">+ grid()</text>
</a>
</g>
</g>
<!-- Node3&#45;&gt;Node7 -->
<g id="edge7" class="edge"><title>Node3&#45;&gt;Node7</title>
<path fill="none" stroke="midnightblue" d="M210.814,-401.511C216.781,-392.422 223.066,-382.846 229.284,-373.374"/>
<polygon fill="none" stroke="midnightblue" points="207.766,-399.777 205.204,-410.058 213.618,-403.619 207.766,-399.777"/>
</g>
<!-- Node4 -->
<g id="node4" class="node"><title>Node4</title>
<g id="a_node4"><a xlink:href="class_hydro_couple_1_1_i_identity.html" target="_top" xlink:title="IIdentity interface class defines a method to get the Id of an HydroCouple entity. ">
<polygon fill="white" stroke="black" points="102,-537.869 102,-615.209 250.022,-615.209 250.022,-537.869 102,-537.869"/>
<text text-anchor="middle" x="176.011" y="-603.209" font-family="Monaco" font-size="10.00">HydroCouple::IIdentity</text>
<polyline fill="none" stroke="black" points="102,-593.874 250.022,-593.874 "/>
<text text-anchor="middle" x="176.011" y="-581.874" font-family="Monaco" font-size="10.00"> </text>
<polyline fill="none" stroke="black" points="102,-572.539 250.022,-572.539 "/>
<text text-anchor="start" x="110" y="-560.539" font-family="Monaco" font-size="10.00">+ ~IIdentity()</text>
<text text-anchor="start" x="110" y="-547.204" font-family="Monaco" font-size="10.00">+ id()</text>
</a>
</g>
</g>
<!-- Node4&#45;&gt;Node3 -->
<g id="edge3" class="edge"><title>Node4&#45;&gt;Node3</title>
<path fill="none" stroke="midnightblue" d="M176.011,-527.549C176.011,-518.851 176.011,-509.811 176.011,-501.212"/>
<polygon fill="none" stroke="midnightblue" points="172.511,-527.557 176.011,-537.557 179.511,-527.557 172.511,-527.557"/>
</g>
<!-- Node5 -->
<g id="node5" class="node"><title>Node5</title>
<g id="a_node5"><a xlink:href="class_hydro_couple_1_1_i_description.html" target="_top" xlink:title="IDescription interface class provides descriptive information on a HydroCouple object. ">
<polygon fill="white" stroke="black" points="92.999,-652.209 92.999,-769.554 259.023,-769.554 259.023,-652.209 92.999,-652.209"/>
<text text-anchor="middle" x="176.011" y="-757.554" font-family="Monaco" font-size="10.00">HydroCouple::IDescription</text>
<polyline fill="none" stroke="black" points="92.999,-748.219 259.023,-748.219 "/>
<text text-anchor="middle" x="176.011" y="-736.219" font-family="Monaco" font-size="10.00"> </text>
<polyline fill="none" stroke="black" points="92.999,-726.884 259.023,-726.884 "/>
<text text-anchor="start" x="100.999" y="-714.884" font-family="Monaco" font-size="10.00">+ ~IDescription()</text>
<text text-anchor="start" x="100.999" y="-701.549" font-family="Monaco" font-size="10.00">+ getCaption()</text>
<text text-anchor="start" x="100.999" y="-688.214" font-family="Monaco" font-size="10.00">+ setCaption()</text>
<text text-anchor="start" x="100.999" y="-674.879" font-family="Monaco" font-size="10.00">+ getDescription()</text>
<text text-anchor="start" x="100.999" y="-661.544" font-family="Monaco" font-size="10.00">+ setDescription()</text>
</a>
</g>
</g>
<!-- Node5&#45;&gt;Node4 -->
<g id="edge4" class="edge"><title>Node5&#45;&gt;Node4</title>
<path fill="none" stroke="midnightblue" d="M176.011,-641.643C176.011,-632.604 176.011,-623.617 176.011,-615.356"/>
<polygon fill="none" stroke="midnightblue" points="172.511,-641.834 176.011,-651.834 179.511,-641.834 172.511,-641.834"/>
</g>
<!-- Node6 -->
<g id="node6" class="node"><title>Node6</title>
<g id="a_node6"><a xlink:href="class_hydro_couple_1_1_i_property_changed.html" target="_top" xlink:title="IPropertyChanged interface is used to emit signal/event when a property of an object changes...">
<polygon fill="white" stroke="black" points="80.9971,-806.554 80.9971,-870.559 271.025,-870.559 271.025,-806.554 80.9971,-806.554"/>
<text text-anchor="middle" x="176.011" y="-858.559" font-family="Monaco" font-size="10.00">HydroCouple::IPropertyChanged</text>
<polyline fill="none" stroke="black" points="80.9971,-849.224 271.025,-849.224 "/>
<text text-anchor="middle" x="176.011" y="-837.224" font-family="Monaco" font-size="10.00"> </text>
<polyline fill="none" stroke="black" points="80.9971,-827.889 271.025,-827.889 "/>
<text text-anchor="start" x="88.9971" y="-815.889" font-family="Monaco" font-size="10.00">+ ~IPropertyChanged()</text>
</a>
</g>
</g>
<!-- Node6&#45;&gt;Node5 -->
<g id="edge5" class="edge"><title>Node6&#45;&gt;Node5</title>
<path fill="none" stroke="midnightblue" d="M176.011,-796.233C176.011,-787.848 176.011,-778.882 176.011,-770.04"/>
<polygon fill="none" stroke="midnightblue" points="172.511,-796.49 176.011,-806.49 179.511,-796.49 172.511,-796.49"/>
</g>
<!-- Node7&#45;&gt;Node1 -->
<g id="edge6" class="edge"><title>Node7&#45;&gt;Node1</title>
<path fill="none" stroke="midnightblue" d="M221.461,-220.72C214.667,-210.823 207.987,-201.091 201.926,-192.262"/>
<polygon fill="none" stroke="midnightblue" points="218.638,-222.792 227.183,-229.055 224.409,-218.83 218.638,-222.792"/>
</g>
</g>
</svg>
