<?xml version="1.0" encoding="UTF-8" standalone="no"?>
<!DOCTYPE svg PUBLIC "-//W3C//DTD SVG 1.1//EN"
 "http://www.w3.org/Graphics/SVG/1.1/DTD/svg11.dtd">
<!-- Generated by graphviz version 2.38.0 (20140413.2041)
 -->
<!-- Title: HydroCouple::SpatioTemporal::ITimeRegularGrid2DComponentDataItem::~ITimeRegularGrid2DComponentDataItem Pages: 1 -->
<svg width="520pt" height="258pt"
 viewBox="0.00 0.00 520.07 258.00" xmlns="http://www.w3.org/2000/svg" xmlns:xlink="http://www.w3.org/1999/xlink">
<g id="graph0" class="graph" transform="scale(1 1) rotate(0) translate(4 254.005)">
<title>HydroCouple::SpatioTemporal::ITimeRegularGrid2DComponentDataItem::~ITimeRegularGrid2DComponentDataItem</title>
<!-- Node1 -->
<g id="node1" class="node"><title>Node1</title>
<polygon fill="#bfbfbf" stroke="black" points="0,-100.5 0,-148.505 268.041,-148.505 268.041,-100.5 0,-100.5"/>
<text text-anchor="start" x="8" y="-136.505" font-family="Monaco" font-size="10.00">HydroCouple::SpatioTemporal</text>
<text text-anchor="start" x="8" y="-123.17" font-family="Monaco" font-size="10.00">::ITimeRegularGrid2DComponentData</text>
<text text-anchor="middle" x="134.021" y="-109.835" font-family="Monaco" font-size="10.00">Item::~ITimeRegularGrid2DComponentDataItem</text>
</g>
<!-- Node2 -->
<g id="node2" class="node"><title>Node2</title>
<g id="a_node2"><a xlink:href="class_hydro_couple_1_1_spatio_temporal_1_1_i_time_geometry_component_data_item.html#a1fdfb452c3d3caf2aedae174f333a066" target="_top" xlink:title="Gets a single value for given time dimension index. ">
<polygon fill="none" stroke="black" points="304.041,-201.5 304.041,-249.505 512.072,-249.505 512.072,-201.5 304.041,-201.5"/>
<text text-anchor="start" x="312.041" y="-237.505" font-family="Monaco" font-size="10.00">HydroCouple::SpatioTemporal</text>
<text text-anchor="start" x="312.041" y="-224.17" font-family="Monaco" font-size="10.00">::ITimeGeometryComponentDataItem</text>
<text text-anchor="middle" x="408.057" y="-210.835" font-family="Monaco" font-size="10.00">::getValue</text>
</a>
</g>
</g>
<!-- Node1&#45;&gt;Node2 -->
<g id="edge1" class="edge"><title>Node1&#45;&gt;Node2</title>
<path fill="none" stroke="midnightblue" d="M191.737,-148.516C224.363,-162.028 266.255,-178.87 304.041,-192.502 309.23,-194.375 314.585,-196.252 319.999,-198.108"/>
<polygon fill="midnightblue" stroke="midnightblue" points="319.19,-201.529 329.785,-201.421 321.435,-194.899 319.19,-201.529"/>
</g>
<!-- Node3 -->
<g id="node3" class="node"><title>Node3</title>
<g id="a_node3"><a xlink:href="class_hydro_couple_1_1_spatio_temporal_1_1_i_time_geometry_component_data_item.html#af32f2312af03540b6266d3efe3c078aa" target="_top" xlink:title="Gets a multi&#45;dimensional array of values for given dimension time dimension index and size for a hype...">
<polygon fill="none" stroke="black" points="304.041,-134.5 304.041,-182.505 512.072,-182.505 512.072,-134.5 304.041,-134.5"/>
<text text-anchor="start" x="312.041" y="-170.505" font-family="Monaco" font-size="10.00">HydroCouple::SpatioTemporal</text>
<text text-anchor="start" x="312.041" y="-157.17" font-family="Monaco" font-size="10.00">::ITimeGeometryComponentDataItem</text>
<text text-anchor="middle" x="408.057" y="-143.835" font-family="Monaco" font-size="10.00">::getValues</text>
</a>
</g>
</g>
<!-- Node1&#45;&gt;Node3 -->
<g id="edge2" class="edge"><title>Node1&#45;&gt;Node3</title>
<path fill="none" stroke="midnightblue" d="M268.249,-141.154C276.767,-142.218 285.3,-143.285 293.713,-144.336"/>
<polygon fill="midnightblue" stroke="midnightblue" points="293.551,-147.843 303.908,-145.611 294.419,-140.897 293.551,-147.843"/>
</g>
<!-- Node4 -->
<g id="node4" class="node"><title>Node4</title>
<g id="a_node4"><a xlink:href="class_hydro_couple_1_1_spatio_temporal_1_1_i_time_geometry_component_data_item.html#a91293b8701a718ae3114e2456acd5216" target="_top" xlink:title="Sets a single value for given time dimension index. ">
<polygon fill="none" stroke="black" points="304.041,-67.5 304.041,-115.505 512.072,-115.505 512.072,-67.5 304.041,-67.5"/>
<text text-anchor="start" x="312.041" y="-103.505" font-family="Monaco" font-size="10.00">HydroCouple::SpatioTemporal</text>
<text text-anchor="start" x="312.041" y="-90.1699" font-family="Monaco" font-size="10.00">::ITimeGeometryComponentDataItem</text>
<text text-anchor="middle" x="408.057" y="-76.835" font-family="Monaco" font-size="10.00">::setValue</text>
</a>
</g>
</g>
<!-- Node1&#45;&gt;Node4 -->
<g id="edge3" class="edge"><title>Node1&#45;&gt;Node4</title>
<path fill="none" stroke="midnightblue" d="M268.249,-108.341C276.767,-107.308 285.3,-106.272 293.713,-105.252"/>
<polygon fill="midnightblue" stroke="midnightblue" points="294.402,-108.694 303.908,-104.015 293.559,-101.745 294.402,-108.694"/>
</g>
<!-- Node5 -->
<g id="node5" class="node"><title>Node5</title>
<g id="a_node5"><a xlink:href="class_hydro_couple_1_1_spatio_temporal_1_1_i_time_geometry_component_data_item.html#a79af6a7de3140685dc91d616853c2e0e" target="_top" xlink:title="Sets a multi&#45;dimensional array of values for given time dimension index and size for a hyperslab...">
<polygon fill="none" stroke="black" points="304.041,-0.5 304.041,-48.5049 512.072,-48.5049 512.072,-0.5 304.041,-0.5"/>
<text text-anchor="start" x="312.041" y="-36.5049" font-family="Monaco" font-size="10.00">HydroCouple::SpatioTemporal</text>
<text text-anchor="start" x="312.041" y="-23.1699" font-family="Monaco" font-size="10.00">::ITimeGeometryComponentDataItem</text>
<text text-anchor="middle" x="408.057" y="-9.83496" font-family="Monaco" font-size="10.00">::setValues</text>
</a>
</g>
</g>
<!-- Node1&#45;&gt;Node5 -->
<g id="edge4" class="edge"><title>Node1&#45;&gt;Node5</title>
<path fill="none" stroke="midnightblue" d="M192.93,-100.428C225.394,-87.2144 266.744,-70.8516 304.041,-57.5024 309.421,-55.5767 314.978,-53.6425 320.594,-51.7291"/>
<polygon fill="midnightblue" stroke="midnightblue" points="321.719,-55.0434 330.078,-48.5338 319.484,-48.4097 321.719,-55.0434"/>
</g>
</g>
</svg>
