<?xml version="1.0" encoding="UTF-8" standalone="no"?>
<!DOCTYPE svg PUBLIC "-//W3C//DTD SVG 1.1//EN"
 "http://www.w3.org/Graphics/SVG/1.1/DTD/svg11.dtd">
<!-- Generated by graphviz version 2.38.0 (20140413.2041)
 -->
<!-- Title: HydroCouple::SpatioTemporal::ITimeRasterExchangeItem Pages: 1 -->
<!--zoomable 1092 -->
<svg id="main" version="1.1" xmlns="http://www.w3.org/2000/svg" xmlns:xlink="http://www.w3.org/1999/xlink" xml:space="preserve" onload="init(evt)">
<style type="text/css"><![CDATA[
.edge:hover path { stroke: red; }
.edge:hover polygon { stroke: red; fill: red; }
]]></style>
<script type="text/javascript"><![CDATA[
var edges = document.getElementsByTagName('g');
if (edges && edges.length) {
  for (var i=0;i<edges.length;i++) {
    if (edges[i].id.substr(0,4)=='edge') {
      edges[i].setAttribute('class','edge');
    }
  }
}
]]></script>
        <defs>
                <circle id="rim" cx="0" cy="0" r="7"/>
                <circle id="rim2" cx="0" cy="0" r="3.5"/>
                <g id="zoomPlus">
                        <use xlink:href="#rim" fill="#404040">
                                <set attributeName="fill" to="#808080" begin="zoomplus.mouseover" end="zoomplus.mouseout"/>
                        </use>
                        <path d="M-4,0h8M0,-4v8" fill="none" stroke="white" stroke-width="1.5" pointer-events="none"/>
                </g>
                <g id="zoomMin">
                        <use xlink:href="#rim" fill="#404040">
                                <set attributeName="fill" to="#808080" begin="zoomminus.mouseover" end="zoomminus.mouseout"/>
                        </use>
                        <path d="M-4,0h8" fill="none" stroke="white" stroke-width="1.5" pointer-events="none"/>
                </g>
                <g id="dirArrow">
                        <path fill="none" stroke="white" stroke-width="1.5" d="M0,-3.0v7 M-2.5,-0.5L0,-3.0L2.5,-0.5"/>
                </g>
               <g id="resetDef">
                       <use xlink:href="#rim2" fill="#404040">
                               <set attributeName="fill" to="#808080" begin="reset.mouseover" end="reset.mouseout"/>
                       </use>
               </g>
        </defs>

<script type="text/javascript">
var viewWidth = 768;
var viewHeight = 1092;
var sectionId = 'dynsection-1';
</script>
<script xlink:href="svgpan.js"/>
<svg id="graph" class="graph">
<g id="viewport">
<title>HydroCouple::SpatioTemporal::ITimeRasterExchangeItem</title>
<!-- Node1 -->
<g id="node1" class="node"><title>Node1</title>
<polygon fill="#bfbfbf" stroke="black" points="281.999,-0.5 281.999,-77.8398 466.026,-77.8398 466.026,-0.5 281.999,-0.5"/>
<text text-anchor="start" x="289.999" y="-65.8398" font-family="Monaco" font-size="10.00">HydroCouple::SpatioTemporal</text>
<text text-anchor="middle" x="374.012" y="-52.5049" font-family="Monaco" font-size="10.00">::ITimeRasterExchangeItem</text>
<polyline fill="none" stroke="black" points="281.999,-43.1699 466.026,-43.1699 "/>
<text text-anchor="middle" x="374.012" y="-31.1699" font-family="Monaco" font-size="10.00"> </text>
<polyline fill="none" stroke="black" points="281.999,-21.835 466.026,-21.835 "/>
<text text-anchor="start" x="289.999" y="-9.83496" font-family="Monaco" font-size="10.00">+ ~ITimeRasterExchangeItem()</text>
</g>
<!-- Node2 -->
<g id="node2" class="node"><title>Node2</title>
<g id="a_node2"><a xlink:href="class_hydro_couple_1_1_spatio_temporal_1_1_i_time_raster_component_data_item.html" target="_top" xlink:title="The ITimeRasterComponentDataItem class. ">
<polygon fill="none" stroke="black" points="266.996,-114.84 266.996,-272.189 481.028,-272.189 481.028,-114.84 266.996,-114.84"/>
<text text-anchor="start" x="274.996" y="-260.189" font-family="Monaco" font-size="10.00">HydroCouple::SpatioTemporal</text>
<text text-anchor="middle" x="374.012" y="-246.854" font-family="Monaco" font-size="10.00">::ITimeRasterComponentDataItem</text>
<polyline fill="none" stroke="black" points="266.996,-237.52 481.028,-237.52 "/>
<text text-anchor="middle" x="374.012" y="-225.52" font-family="Monaco" font-size="10.00"> </text>
<polyline fill="none" stroke="black" points="266.996,-216.185 481.028,-216.185 "/>
<text text-anchor="start" x="274.996" y="-204.185" font-family="Monaco" font-size="10.00">+ ~ITimeRasterComponentDataItem()</text>
<text text-anchor="start" x="274.996" y="-190.85" font-family="Monaco" font-size="10.00">+ getValue()</text>
<text text-anchor="start" x="274.996" y="-177.515" font-family="Monaco" font-size="10.00">+ getValues()</text>
<text text-anchor="start" x="274.996" y="-164.18" font-family="Monaco" font-size="10.00">+ getValues()</text>
<text text-anchor="start" x="274.996" y="-150.845" font-family="Monaco" font-size="10.00">+ setValue()</text>
<text text-anchor="start" x="274.996" y="-137.51" font-family="Monaco" font-size="10.00">+ setValues()</text>
<text text-anchor="start" x="274.996" y="-124.175" font-family="Monaco" font-size="10.00">+ setValues()</text>
</a>
</g>
</g>
<!-- Node2&#45;&gt;Node1 -->
<g id="edge1" class="edge"><title>Node2&#45;&gt;Node1</title>
<path fill="none" stroke="midnightblue" d="M374.012,-104.447C374.012,-95.1928 374.012,-86.1783 374.012,-77.9688"/>
<polygon fill="none" stroke="midnightblue" points="370.512,-104.557 374.012,-114.557 377.512,-104.557 370.512,-104.557"/>
</g>
<!-- Node3 -->
<g id="node3" class="node"><title>Node3</title>
<g id="a_node3"><a xlink:href="class_hydro_couple_1_1_temporal_1_1_i_time_component_data_item.html" target="_top" xlink:title="ITimeComponentItem is an IComponentItem with a temporal attribute. This class cannot be directly inst...">
<polygon fill="none" stroke="black" points="183.999,-342.527 183.999,-459.872 362.025,-459.872 362.025,-342.527 183.999,-342.527"/>
<text text-anchor="start" x="191.999" y="-447.872" font-family="Monaco" font-size="10.00">HydroCouple::Temporal</text>
<text text-anchor="middle" x="273.012" y="-434.537" font-family="Monaco" font-size="10.00">::ITimeComponentDataItem</text>
<polyline fill="none" stroke="black" points="183.999,-425.202 362.025,-425.202 "/>
<text text-anchor="middle" x="273.012" y="-413.202" font-family="Monaco" font-size="10.00"> </text>
<polyline fill="none" stroke="black" points="183.999,-403.867 362.025,-403.867 "/>
<text text-anchor="start" x="191.999" y="-391.867" font-family="Monaco" font-size="10.00">+ ~ITimeComponentDataItem()</text>
<text text-anchor="start" x="191.999" y="-378.532" font-family="Monaco" font-size="10.00">+ times()</text>
<text text-anchor="start" x="191.999" y="-365.197" font-family="Monaco" font-size="10.00">+ timeSpan()</text>
<text text-anchor="start" x="191.999" y="-351.862" font-family="Monaco" font-size="10.00">+ timeDimension()</text>
</a>
</g>
</g>
<!-- Node3&#45;&gt;Node2 -->
<g id="edge2" class="edge"><title>Node3&#45;&gt;Node2</title>
<path fill="none" stroke="midnightblue" d="M305.88,-333.264C315.444,-313.787 325.973,-292.345 335.835,-272.263"/>
<polygon fill="none" stroke="midnightblue" points="302.681,-331.838 301.415,-342.357 308.965,-334.924 302.681,-331.838"/>
</g>
<!-- Node9 -->
<g id="node9" class="node"><title>Node9</title>
<g id="a_node9"><a xlink:href="class_hydro_couple_1_1_temporal_1_1_i_time_argument.html" target="_top" xlink:title="The ITimeArgument class. his class cannot be directly instantiated and must be implemented as as an a...">
<polygon fill="none" stroke="black" points="107.002,-154.845 107.002,-232.185 249.022,-232.185 249.022,-154.845 107.002,-154.845"/>
<text text-anchor="start" x="115.002" y="-220.185" font-family="Monaco" font-size="10.00">HydroCouple::Temporal</text>
<text text-anchor="middle" x="178.012" y="-206.85" font-family="Monaco" font-size="10.00">::ITimeArgument</text>
<polyline fill="none" stroke="black" points="107.002,-197.515 249.022,-197.515 "/>
<text text-anchor="middle" x="178.012" y="-185.515" font-family="Monaco" font-size="10.00"> </text>
<polyline fill="none" stroke="black" points="107.002,-176.18 249.022,-176.18 "/>
<text text-anchor="start" x="115.002" y="-164.18" font-family="Monaco" font-size="10.00">+ ~ITimeArgument()</text>
</a>
</g>
</g>
<!-- Node3&#45;&gt;Node9 -->
<g id="edge12" class="edge"><title>Node3&#45;&gt;Node9</title>
<path fill="none" stroke="midnightblue" d="M242.025,-333.11C226.61,-299.735 208.545,-260.622 195.544,-232.473"/>
<polygon fill="none" stroke="midnightblue" points="238.926,-334.746 246.297,-342.357 245.281,-331.811 238.926,-334.746"/>
</g>
<!-- Node4 -->
<g id="node4" class="node"><title>Node4</title>
<g id="a_node4"><a xlink:href="class_hydro_couple_1_1_i_component_data_item.html" target="_top" xlink:title="IComponentItem is a fundamental unit of data for a component. ">
<polygon fill="none" stroke="black" points="272.997,-530.209 272.997,-714.229 475.027,-714.229 475.027,-530.209 272.997,-530.209"/>
<text text-anchor="middle" x="374.012" y="-702.229" font-family="Monaco" font-size="10.00">HydroCouple::IComponentDataItem</text>
<polyline fill="none" stroke="black" points="272.997,-692.894 475.027,-692.894 "/>
<text text-anchor="middle" x="374.012" y="-680.894" font-family="Monaco" font-size="10.00"> </text>
<polyline fill="none" stroke="black" points="272.997,-671.559 475.027,-671.559 "/>
<text text-anchor="start" x="280.997" y="-659.559" font-family="Monaco" font-size="10.00">+ ~IComponentDataItem()</text>
<text text-anchor="start" x="280.997" y="-646.224" font-family="Monaco" font-size="10.00">+ modelComponent()</text>
<text text-anchor="start" x="280.997" y="-632.889" font-family="Monaco" font-size="10.00">+ dimensions()</text>
<text text-anchor="start" x="280.997" y="-619.554" font-family="Monaco" font-size="10.00">+ valueDefinition()</text>
<text text-anchor="start" x="280.997" y="-606.219" font-family="Monaco" font-size="10.00">+ getValue()</text>
<text text-anchor="start" x="280.997" y="-592.884" font-family="Monaco" font-size="10.00">+ getValues()</text>
<text text-anchor="start" x="280.997" y="-579.549" font-family="Monaco" font-size="10.00">+ getValues()</text>
<text text-anchor="start" x="280.997" y="-566.214" font-family="Monaco" font-size="10.00">+ setValue()</text>
<text text-anchor="start" x="280.997" y="-552.879" font-family="Monaco" font-size="10.00">+ setValues()</text>
<text text-anchor="start" x="280.997" y="-539.544" font-family="Monaco" font-size="10.00">+ setValues()</text>
</a>
</g>
</g>
<!-- Node4&#45;&gt;Node3 -->
<g id="edge3" class="edge"><title>Node4&#45;&gt;Node3</title>
<path fill="none" stroke="midnightblue" d="M327.66,-520.703C318.045,-499.853 308.228,-478.565 299.616,-459.891"/>
<polygon fill="none" stroke="midnightblue" points="324.544,-522.305 331.91,-529.921 330.901,-519.374 324.544,-522.305"/>
</g>
<!-- Node8 -->
<g id="node8" class="node"><title>Node8</title>
<g id="a_node8"><a xlink:href="class_hydro_couple_1_1_spatial_1_1_i_raster_component_data_item.html" target="_top" xlink:title="An IRasterComponentDataItem represents an IRaster IComponentItem. ">
<polygon fill="none" stroke="black" points="379.998,-335.859 379.998,-466.539 570.026,-466.539 570.026,-335.859 379.998,-335.859"/>
<text text-anchor="start" x="387.998" y="-454.539" font-family="Monaco" font-size="10.00">HydroCouple::Spatial</text>
<text text-anchor="middle" x="475.012" y="-441.204" font-family="Monaco" font-size="10.00">::IRasterComponentDataItem</text>
<polyline fill="none" stroke="black" points="379.998,-431.869 570.026,-431.869 "/>
<text text-anchor="middle" x="475.012" y="-419.869" font-family="Monaco" font-size="10.00"> </text>
<polyline fill="none" stroke="black" points="379.998,-410.534 570.026,-410.534 "/>
<text text-anchor="start" x="387.998" y="-398.534" font-family="Monaco" font-size="10.00">+ ~IRasterComponentDataItem()</text>
<text text-anchor="start" x="387.998" y="-385.199" font-family="Monaco" font-size="10.00">+ xDimension()</text>
<text text-anchor="start" x="387.998" y="-371.864" font-family="Monaco" font-size="10.00">+ yDimension()</text>
<text text-anchor="start" x="387.998" y="-358.529" font-family="Monaco" font-size="10.00">+ bandDimension()</text>
<text text-anchor="start" x="387.998" y="-345.194" font-family="Monaco" font-size="10.00">+ raster()</text>
</a>
</g>
</g>
<!-- Node4&#45;&gt;Node8 -->
<g id="edge8" class="edge"><title>Node4&#45;&gt;Node8</title>
<path fill="none" stroke="midnightblue" d="M420.384,-520.66C428.845,-502.312 437.462,-483.627 445.276,-466.683"/>
<polygon fill="none" stroke="midnightblue" points="417.123,-519.374 416.114,-529.921 423.48,-522.305 417.123,-519.374"/>
</g>
<!-- Node10 -->
<g id="node10" class="node"><title>Node10</title>
<g id="a_node10"><a xlink:href="class_hydro_couple_1_1_i_argument.html" target="_top" xlink:title="IArgument interface class used to set the arguments for components. They can be complex or simple mul...">
<polygon fill="none" stroke="black" points="0,-309.189 0,-493.209 166.024,-493.209 166.024,-309.189 0,-309.189"/>
<text text-anchor="middle" x="83.0122" y="-481.209" font-family="Monaco" font-size="10.00">HydroCouple::IArgument</text>
<polyline fill="none" stroke="black" points="0,-471.874 166.024,-471.874 "/>
<text text-anchor="middle" x="83.0122" y="-459.874" font-family="Monaco" font-size="10.00"> </text>
<polyline fill="none" stroke="black" points="0,-450.539 166.024,-450.539 "/>
<text text-anchor="start" x="8" y="-438.539" font-family="Monaco" font-size="10.00">+ ~IArgument()</text>
<text text-anchor="start" x="8" y="-425.204" font-family="Monaco" font-size="10.00">+ isOptional()</text>
<text text-anchor="start" x="8" y="-411.869" font-family="Monaco" font-size="10.00">+ isReadOnly()</text>
<text text-anchor="start" x="8" y="-398.534" font-family="Monaco" font-size="10.00">+ toString()</text>
<text text-anchor="start" x="8" y="-385.199" font-family="Monaco" font-size="10.00">+ inputFileTypeFilters()</text>
<text text-anchor="start" x="8" y="-371.864" font-family="Monaco" font-size="10.00">+ canReadFromFile()</text>
<text text-anchor="start" x="8" y="-358.529" font-family="Monaco" font-size="10.00">+ canReadFromString()</text>
<text text-anchor="start" x="8" y="-345.194" font-family="Monaco" font-size="10.00">+ currentArgumentIOType()</text>
<text text-anchor="start" x="8" y="-331.859" font-family="Monaco" font-size="10.00">+ readValues()</text>
<text text-anchor="start" x="8" y="-318.524" font-family="Monaco" font-size="10.00">+ readValues()</text>
</a>
</g>
</g>
<!-- Node4&#45;&gt;Node10 -->
<g id="edge11" class="edge"><title>Node4&#45;&gt;Node10</title>
<path fill="none" stroke="midnightblue" d="M264.187,-556.738C234.362,-537.667 202.682,-515.915 175.012,-493.709 172.025,-491.312 169.03,-488.83 166.039,-486.284"/>
<polygon fill="none" stroke="midnightblue" points="262.641,-559.902 272.959,-562.305 266.391,-553.992 262.641,-559.902"/>
</g>
<!-- Node12 -->
<g id="node12" class="node"><title>Node12</title>
<g id="a_node12"><a xlink:href="class_hydro_couple_1_1_i_exchange_item.html" target="_top" xlink:title="IExchangeItem the base data item the can be exchanged between components at runtime. ">
<polygon fill="none" stroke="black" points="588,-369.197 588,-433.202 760.025,-433.202 760.025,-369.197 588,-369.197"/>
<text text-anchor="middle" x="674.012" y="-421.202" font-family="Monaco" font-size="10.00">HydroCouple::IExchangeItem</text>
<polyline fill="none" stroke="black" points="588,-411.867 760.025,-411.867 "/>
<text text-anchor="middle" x="674.012" y="-399.867" font-family="Monaco" font-size="10.00"> </text>
<polyline fill="none" stroke="black" points="588,-390.532 760.025,-390.532 "/>
<text text-anchor="start" x="596" y="-378.532" font-family="Monaco" font-size="10.00">+ ~IExchangeItem()</text>
</a>
</g>
</g>
<!-- Node4&#45;&gt;Node12 -->
<g id="edge15" class="edge"><title>Node4&#45;&gt;Node12</title>
<path fill="none" stroke="midnightblue" d="M483.961,-558.714C515.569,-539.196 549.463,-516.716 579.012,-493.709 602.502,-475.42 626.633,-452.107 644.696,-433.59"/>
<polygon fill="none" stroke="midnightblue" points="481.809,-555.928 475.112,-564.138 485.467,-561.896 481.809,-555.928"/>
</g>
<!-- Node5 -->
<g id="node5" class="node"><title>Node5</title>
<g id="a_node5"><a xlink:href="class_hydro_couple_1_1_i_identity.html" target="_top" xlink:title="IIdentity interface class defines a method to get the Id of an HydroCouple entity. ">
<polygon fill="none" stroke="black" points="300.001,-751.229 300.001,-828.568 448.023,-828.568 448.023,-751.229 300.001,-751.229"/>
<text text-anchor="middle" x="374.012" y="-816.568" font-family="Monaco" font-size="10.00">HydroCouple::IIdentity</text>
<polyline fill="none" stroke="black" points="300.001,-807.233 448.023,-807.233 "/>
<text text-anchor="middle" x="374.012" y="-795.233" font-family="Monaco" font-size="10.00"> </text>
<polyline fill="none" stroke="black" points="300.001,-785.898 448.023,-785.898 "/>
<text text-anchor="start" x="308.001" y="-773.898" font-family="Monaco" font-size="10.00">+ ~IIdentity()</text>
<text text-anchor="start" x="308.001" y="-760.563" font-family="Monaco" font-size="10.00">+ id()</text>
</a>
</g>
</g>
<!-- Node5&#45;&gt;Node4 -->
<g id="edge4" class="edge"><title>Node5&#45;&gt;Node4</title>
<path fill="none" stroke="midnightblue" d="M374.012,-740.646C374.012,-732.293 374.012,-723.368 374.012,-714.309"/>
<polygon fill="none" stroke="midnightblue" points="370.512,-740.888 374.012,-750.888 377.512,-740.888 370.512,-740.888"/>
</g>
<!-- Node6 -->
<g id="node6" class="node"><title>Node6</title>
<g id="a_node6"><a xlink:href="class_hydro_couple_1_1_i_description.html" target="_top" xlink:title="IDescription interface class provides descriptive information on a HydroCouple object. ">
<polygon fill="none" stroke="black" points="291,-865.568 291,-982.913 457.024,-982.913 457.024,-865.568 291,-865.568"/>
<text text-anchor="middle" x="374.012" y="-970.913" font-family="Monaco" font-size="10.00">HydroCouple::IDescription</text>
<polyline fill="none" stroke="black" points="291,-961.578 457.024,-961.578 "/>
<text text-anchor="middle" x="374.012" y="-949.578" font-family="Monaco" font-size="10.00"> </text>
<polyline fill="none" stroke="black" points="291,-940.243 457.024,-940.243 "/>
<text text-anchor="start" x="299" y="-928.243" font-family="Monaco" font-size="10.00">+ ~IDescription()</text>
<text text-anchor="start" x="299" y="-914.908" font-family="Monaco" font-size="10.00">+ caption()</text>
<text text-anchor="start" x="299" y="-901.573" font-family="Monaco" font-size="10.00">+ setCaption()</text>
<text text-anchor="start" x="299" y="-888.238" font-family="Monaco" font-size="10.00">+ description()</text>
<text text-anchor="start" x="299" y="-874.903" font-family="Monaco" font-size="10.00">+ setDescription()</text>
</a>
</g>
</g>
<!-- Node6&#45;&gt;Node5 -->
<g id="edge5" class="edge"><title>Node6&#45;&gt;Node5</title>
<path fill="none" stroke="midnightblue" d="M374.012,-855.002C374.012,-845.964 374.012,-836.976 374.012,-828.716"/>
<polygon fill="none" stroke="midnightblue" points="370.512,-855.193 374.012,-865.193 377.512,-855.194 370.512,-855.193"/>
</g>
<!-- Node7 -->
<g id="node7" class="node"><title>Node7</title>
<g id="a_node7"><a xlink:href="class_hydro_couple_1_1_i_property_changed.html" target="_top" xlink:title="IPropertyChanged interface is used to emit signal/event when a property of an object changes...">
<polygon fill="none" stroke="black" points="278.998,-1019.91 278.998,-1083.92 469.026,-1083.92 469.026,-1019.91 278.998,-1019.91"/>
<text text-anchor="middle" x="374.012" y="-1071.92" font-family="Monaco" font-size="10.00">HydroCouple::IPropertyChanged</text>
<polyline fill="none" stroke="black" points="278.998,-1062.58 469.026,-1062.58 "/>
<text text-anchor="middle" x="374.012" y="-1050.58" font-family="Monaco" font-size="10.00"> </text>
<polyline fill="none" stroke="black" points="278.998,-1041.25 469.026,-1041.25 "/>
<text text-anchor="start" x="286.998" y="-1029.25" font-family="Monaco" font-size="10.00">+ ~IPropertyChanged()</text>
</a>
</g>
</g>
<!-- Node7&#45;&gt;Node6 -->
<g id="edge6" class="edge"><title>Node7&#45;&gt;Node6</title>
<path fill="none" stroke="midnightblue" d="M374.012,-1009.59C374.012,-1001.21 374.012,-992.241 374.012,-983.399"/>
<polygon fill="none" stroke="midnightblue" points="370.512,-1009.85 374.012,-1019.85 377.512,-1009.85 370.512,-1009.85"/>
</g>
<!-- Node8&#45;&gt;Node2 -->
<g id="edge7" class="edge"><title>Node8&#45;&gt;Node2</title>
<path fill="none" stroke="midnightblue" d="M438.885,-326.627C430.264,-309.07 421.032,-290.27 412.316,-272.52"/>
<polygon fill="none" stroke="midnightblue" points="435.783,-328.25 443.332,-335.684 442.066,-325.165 435.783,-328.25"/>
</g>
<!-- Node11 -->
<g id="node11" class="node"><title>Node11</title>
<g id="a_node11"><a xlink:href="class_hydro_couple_1_1_spatial_1_1_i_raster_exhange_item.html" target="_top" xlink:title="An IRasterExhangeItem is an IExchangeItem with an IRaster. ">
<polygon fill="none" stroke="black" points="499.001,-154.845 499.001,-232.185 653.023,-232.185 653.023,-154.845 499.001,-154.845"/>
<text text-anchor="start" x="507.001" y="-220.185" font-family="Monaco" font-size="10.00">HydroCouple::Spatial</text>
<text text-anchor="middle" x="576.012" y="-206.85" font-family="Monaco" font-size="10.00">::IRasterExhangeItem</text>
<polyline fill="none" stroke="black" points="499.001,-197.515 653.023,-197.515 "/>
<text text-anchor="middle" x="576.012" y="-185.515" font-family="Monaco" font-size="10.00"> </text>
<polyline fill="none" stroke="black" points="499.001,-176.18 653.023,-176.18 "/>
<text text-anchor="start" x="507.001" y="-164.18" font-family="Monaco" font-size="10.00">+ ~IRasterExhangeItem()</text>
</a>
</g>
</g>
<!-- Node8&#45;&gt;Node11 -->
<g id="edge16" class="edge"><title>Node8&#45;&gt;Node11</title>
<path fill="none" stroke="midnightblue" d="M511.254,-326.394C526.875,-294.583 544.478,-258.733 557.384,-232.45"/>
<polygon fill="none" stroke="midnightblue" points="507.958,-325.165 506.692,-335.684 514.242,-328.25 507.958,-325.165"/>
</g>
<!-- Node9&#45;&gt;Node1 -->
<g id="edge9" class="edge"><title>Node9&#45;&gt;Node1</title>
<path fill="none" stroke="midnightblue" d="M221.01,-147.34C232.592,-136.067 245.415,-124.348 258.012,-114.34 274.108,-101.552 292.48,-88.9857 309.783,-77.9351"/>
<polygon fill="none" stroke="midnightblue" points="218.25,-145.145 213.592,-154.661 223.168,-150.127 218.25,-145.145"/>
</g>
<!-- Node10&#45;&gt;Node9 -->
<g id="edge10" class="edge"><title>Node10&#45;&gt;Node9</title>
<path fill="none" stroke="midnightblue" d="M129.36,-299.851C140.512,-275.706 151.749,-251.378 160.609,-232.194"/>
<polygon fill="none" stroke="midnightblue" points="126.111,-298.539 125.095,-309.085 132.466,-301.474 126.111,-298.539"/>
</g>
<!-- Node11&#45;&gt;Node1 -->
<g id="edge13" class="edge"><title>Node11&#45;&gt;Node1</title>
<path fill="none" stroke="midnightblue" d="M529.405,-147.534C516.964,-136.262 503.28,-124.496 490.012,-114.34 473.499,-101.699 454.812,-89.0842 437.336,-77.9371"/>
<polygon fill="none" stroke="midnightblue" points="527.239,-150.295 536.977,-154.469 531.967,-145.133 527.239,-150.295"/>
</g>
<!-- Node12&#45;&gt;Node11 -->
<g id="edge14" class="edge"><title>Node12&#45;&gt;Node11</title>
<path fill="none" stroke="midnightblue" d="M654.613,-359.483C636.996,-322.509 611.214,-268.398 594.039,-232.349"/>
<polygon fill="none" stroke="midnightblue" points="651.667,-361.438 659.128,-368.96 657.986,-358.427 651.667,-361.438"/>
</g>
</g>
</svg>
        <g id="navigator" transform="translate(0 0)" fill="#404254">
                <rect fill="#f2f5e9" fill-opacity="0.5" stroke="#606060" stroke-width=".5" x="0" y="0" width="60" height="60"/>
                <use id="zoomplus" xlink:href="#zoomPlus" x="17" y="9" onmousedown="handleZoom(evt,'in')"/>
                <use id="zoomminus" xlink:href="#zoomMin" x="42" y="9" onmousedown="handleZoom(evt,'out')"/>
                <use id="reset" xlink:href="#resetDef" x="30" y="36" onmousedown="handleReset()"/>
                <g id="arrowUp" xlink:href="#dirArrow" transform="translate(30 24)" onmousedown="handlePan(0,-1)">
                  <use xlink:href="#rim" fill="#404040">
                        <set attributeName="fill" to="#808080" begin="arrowUp.mouseover" end="arrowUp.mouseout"/>
                  </use>
                  <path fill="none" stroke="white" stroke-width="1.5" d="M0,-3.0v7 M-2.5,-0.5L0,-3.0L2.5,-0.5"/>
                </g>
                <g id="arrowRight" xlink:href="#dirArrow" transform="rotate(90) translate(36 -43)" onmousedown="handlePan(1,0)">
                  <use xlink:href="#rim" fill="#404040">
                        <set attributeName="fill" to="#808080" begin="arrowRight.mouseover" end="arrowRight.mouseout"/>
                  </use>
                  <path fill="none" stroke="white" stroke-width="1.5" d="M0,-3.0v7 M-2.5,-0.5L0,-3.0L2.5,-0.5"/>
                </g>
                <g id="arrowDown" xlink:href="#dirArrow" transform="rotate(180) translate(-30 -48)" onmousedown="handlePan(0,1)">
                  <use xlink:href="#rim" fill="#404040">
                        <set attributeName="fill" to="#808080" begin="arrowDown.mouseover" end="arrowDown.mouseout"/>
                  </use>
                  <path fill="none" stroke="white" stroke-width="1.5" d="M0,-3.0v7 M-2.5,-0.5L0,-3.0L2.5,-0.5"/>
                </g>
                <g id="arrowLeft" xlink:href="#dirArrow" transform="rotate(270) translate(-36 17)" onmousedown="handlePan(-1,0)">
                  <use xlink:href="#rim" fill="#404040">
                        <set attributeName="fill" to="#808080" begin="arrowLeft.mouseover" end="arrowLeft.mouseout"/>
                  </use>
                  <path fill="none" stroke="white" stroke-width="1.5" d="M0,-3.0v7 M-2.5,-0.5L0,-3.0L2.5,-0.5"/>
                </g>
        </g>
        <svg viewBox="0 0 15 15" width="100%" height="30px" preserveAspectRatio="xMaxYMin meet">
         <g id="arrow_out" transform="scale(0.3 0.3)">
          <a xlink:href="class_hydro_couple_1_1_spatio_temporal_1_1_i_time_raster_exchange_item__coll__graph_org.svg" target="_base">
           <rect id="button" ry="5" rx="5" y="6" x="6" height="38" width="38"
                fill="#f2f5e9" fill-opacity="0.5" stroke="#606060" stroke-width="1.0"/>
           <path id="arrow"
             d="M 11.500037,31.436501 C 11.940474,20.09759 22.043105,11.32322 32.158766,21.979434 L 37.068811,17.246167 C 37.068811,17.246167 37.088388,32 37.088388,32 L 22.160133,31.978069 C 22.160133,31.978069 26.997745,27.140456 26.997745,27.140456 C 18.528582,18.264221 13.291696,25.230495 11.500037,31.436501 z"
             style="fill:#404040;"/>
          </a>
         </g>
        </svg>
</svg>
