<?xml version="1.0" encoding="UTF-8" standalone="no"?>
<!DOCTYPE svg PUBLIC "-//W3C//DTD SVG 1.1//EN"
 "http://www.w3.org/Graphics/SVG/1.1/DTD/svg11.dtd">
<!-- Generated by graphviz version 2.38.0 (20140413.2041)
 -->
<!-- Title: HydroCouple::Temporal::ITimeSeriesArgument Pages: 1 -->
<svg width="394pt" height="1092pt"
 viewBox="0.00 0.00 394.03 1092.42" xmlns="http://www.w3.org/2000/svg" xmlns:xlink="http://www.w3.org/1999/xlink">
<g id="graph0" class="graph" transform="scale(1 1) rotate(0) translate(4 1088.42)">
<title>HydroCouple::Temporal::ITimeSeriesArgument</title>
<!-- Node1 -->
<g id="node1" class="node"><title>Node1</title>
<polygon fill="#bfbfbf" stroke="black" points="101,-0.5 101,-77.8398 261.024,-77.8398 261.024,-0.5 101,-0.5"/>
<text text-anchor="start" x="109" y="-65.8398" font-family="Monaco" font-size="10.00">HydroCouple::Temporal</text>
<text text-anchor="middle" x="181.012" y="-52.5049" font-family="Monaco" font-size="10.00">::ITimeSeriesArgument</text>
<polyline fill="none" stroke="black" points="101,-43.1699 261.024,-43.1699 "/>
<text text-anchor="middle" x="181.012" y="-31.1699" font-family="Monaco" font-size="10.00"> </text>
<polyline fill="none" stroke="black" points="101,-21.835 261.024,-21.835 "/>
<text text-anchor="start" x="109" y="-9.83496" font-family="Monaco" font-size="10.00">+ ~ITimeSeriesArgument()</text>
</g>
<!-- Node2 -->
<g id="node2" class="node"><title>Node2</title>
<g id="a_node2"><a xlink:href="class_hydro_couple_1_1_temporal_1_1_i_time_argument.html" target="_top" xlink:title="The ITimeArgument class. his class cannot be directly instantiated and must be implemented as as an a...">
<polygon fill="none" stroke="black" points="12.002,-154.845 12.002,-232.185 154.022,-232.185 154.022,-154.845 12.002,-154.845"/>
<text text-anchor="start" x="20.002" y="-220.185" font-family="Monaco" font-size="10.00">HydroCouple::Temporal</text>
<text text-anchor="middle" x="83.0122" y="-206.85" font-family="Monaco" font-size="10.00">::ITimeArgument</text>
<polyline fill="none" stroke="black" points="12.002,-197.515 154.022,-197.515 "/>
<text text-anchor="middle" x="83.0122" y="-185.515" font-family="Monaco" font-size="10.00"> </text>
<polyline fill="none" stroke="black" points="12.002,-176.18 154.022,-176.18 "/>
<text text-anchor="start" x="20.002" y="-164.18" font-family="Monaco" font-size="10.00">+ ~ITimeArgument()</text>
</a>
</g>
</g>
<!-- Node2&#45;&gt;Node1 -->
<g id="edge1" class="edge"><title>Node2&#45;&gt;Node1</title>
<path fill="none" stroke="midnightblue" d="M112.928,-146.009C126.948,-124.215 143.438,-98.5806 156.678,-77.9987"/>
<polygon fill="none" stroke="midnightblue" points="109.956,-144.161 107.489,-154.465 115.843,-147.948 109.956,-144.161"/>
</g>
<!-- Node3 -->
<g id="node3" class="node"><title>Node3</title>
<g id="a_node3"><a xlink:href="class_hydro_couple_1_1_i_argument.html" target="_top" xlink:title="IArgument interface class used to set the arguments for components. They can be complex or simple mul...">
<polygon fill="none" stroke="black" points="0,-309.189 0,-493.209 166.024,-493.209 166.024,-309.189 0,-309.189"/>
<text text-anchor="middle" x="83.0122" y="-481.209" font-family="Monaco" font-size="10.00">HydroCouple::IArgument</text>
<polyline fill="none" stroke="black" points="0,-471.874 166.024,-471.874 "/>
<text text-anchor="middle" x="83.0122" y="-459.874" font-family="Monaco" font-size="10.00"> </text>
<polyline fill="none" stroke="black" points="0,-450.539 166.024,-450.539 "/>
<text text-anchor="start" x="8" y="-438.539" font-family="Monaco" font-size="10.00">+ ~IArgument()</text>
<text text-anchor="start" x="8" y="-425.204" font-family="Monaco" font-size="10.00">+ isOptional()</text>
<text text-anchor="start" x="8" y="-411.869" font-family="Monaco" font-size="10.00">+ isReadOnly()</text>
<text text-anchor="start" x="8" y="-398.534" font-family="Monaco" font-size="10.00">+ toString()</text>
<text text-anchor="start" x="8" y="-385.199" font-family="Monaco" font-size="10.00">+ inputFileTypeFilters()</text>
<text text-anchor="start" x="8" y="-371.864" font-family="Monaco" font-size="10.00">+ canReadFromFile()</text>
<text text-anchor="start" x="8" y="-358.529" font-family="Monaco" font-size="10.00">+ canReadFromString()</text>
<text text-anchor="start" x="8" y="-345.194" font-family="Monaco" font-size="10.00">+ currentArgumentIOType()</text>
<text text-anchor="start" x="8" y="-331.859" font-family="Monaco" font-size="10.00">+ readValues()</text>
<text text-anchor="start" x="8" y="-318.524" font-family="Monaco" font-size="10.00">+ readValues()</text>
</a>
</g>
</g>
<!-- Node3&#45;&gt;Node2 -->
<g id="edge2" class="edge"><title>Node3&#45;&gt;Node2</title>
<path fill="none" stroke="midnightblue" d="M83.0122,-298.894C83.0122,-275.064 83.0122,-251.124 83.0122,-232.194"/>
<polygon fill="none" stroke="midnightblue" points="79.5123,-299.085 83.0122,-309.085 86.5123,-299.085 79.5123,-299.085"/>
</g>
<!-- Node4 -->
<g id="node4" class="node"><title>Node4</title>
<g id="a_node4"><a xlink:href="class_hydro_couple_1_1_i_component_data_item.html" target="_top" xlink:title="IComponentItem is a fundamental unit of data for a component. ">
<polygon fill="none" stroke="black" points="76.9971,-530.209 76.9971,-714.229 279.027,-714.229 279.027,-530.209 76.9971,-530.209"/>
<text text-anchor="middle" x="178.012" y="-702.229" font-family="Monaco" font-size="10.00">HydroCouple::IComponentDataItem</text>
<polyline fill="none" stroke="black" points="76.9971,-692.894 279.027,-692.894 "/>
<text text-anchor="middle" x="178.012" y="-680.894" font-family="Monaco" font-size="10.00"> </text>
<polyline fill="none" stroke="black" points="76.9971,-671.559 279.027,-671.559 "/>
<text text-anchor="start" x="84.9971" y="-659.559" font-family="Monaco" font-size="10.00">+ ~IComponentDataItem()</text>
<text text-anchor="start" x="84.9971" y="-646.224" font-family="Monaco" font-size="10.00">+ modelComponent()</text>
<text text-anchor="start" x="84.9971" y="-632.889" font-family="Monaco" font-size="10.00">+ dimensions()</text>
<text text-anchor="start" x="84.9971" y="-619.554" font-family="Monaco" font-size="10.00">+ valueDefinition()</text>
<text text-anchor="start" x="84.9971" y="-606.219" font-family="Monaco" font-size="10.00">+ getValue()</text>
<text text-anchor="start" x="84.9971" y="-592.884" font-family="Monaco" font-size="10.00">+ getValues()</text>
<text text-anchor="start" x="84.9971" y="-579.549" font-family="Monaco" font-size="10.00">+ getValues()</text>
<text text-anchor="start" x="84.9971" y="-566.214" font-family="Monaco" font-size="10.00">+ setValue()</text>
<text text-anchor="start" x="84.9971" y="-552.879" font-family="Monaco" font-size="10.00">+ setValues()</text>
<text text-anchor="start" x="84.9971" y="-539.544" font-family="Monaco" font-size="10.00">+ setValues()</text>
</a>
</g>
</g>
<!-- Node4&#45;&gt;Node3 -->
<g id="edge3" class="edge"><title>Node4&#45;&gt;Node3</title>
<path fill="none" stroke="midnightblue" d="M134.334,-520.52C130.404,-511.461 126.44,-502.32 122.549,-493.349"/>
<polygon fill="none" stroke="midnightblue" points="131.221,-522.139 138.412,-529.921 137.643,-519.354 131.221,-522.139"/>
</g>
<!-- Node8 -->
<g id="node8" class="node"><title>Node8</title>
<g id="a_node8"><a xlink:href="class_hydro_couple_1_1_temporal_1_1_i_time_component_data_item.html" target="_top" xlink:title="ITimeComponentItem is an IComponentItem with a temporal attribute. This class cannot be directly inst...">
<polygon fill="none" stroke="black" points="183.999,-342.527 183.999,-459.872 362.025,-459.872 362.025,-342.527 183.999,-342.527"/>
<text text-anchor="start" x="191.999" y="-447.872" font-family="Monaco" font-size="10.00">HydroCouple::Temporal</text>
<text text-anchor="middle" x="273.012" y="-434.537" font-family="Monaco" font-size="10.00">::ITimeComponentDataItem</text>
<polyline fill="none" stroke="black" points="183.999,-425.202 362.025,-425.202 "/>
<text text-anchor="middle" x="273.012" y="-413.202" font-family="Monaco" font-size="10.00"> </text>
<polyline fill="none" stroke="black" points="183.999,-403.867 362.025,-403.867 "/>
<text text-anchor="start" x="191.999" y="-391.867" font-family="Monaco" font-size="10.00">+ ~ITimeComponentDataItem()</text>
<text text-anchor="start" x="191.999" y="-378.532" font-family="Monaco" font-size="10.00">+ times()</text>
<text text-anchor="start" x="191.999" y="-365.197" font-family="Monaco" font-size="10.00">+ timeSpan()</text>
<text text-anchor="start" x="191.999" y="-351.862" font-family="Monaco" font-size="10.00">+ timeDimension()</text>
</a>
</g>
</g>
<!-- Node4&#45;&gt;Node8 -->
<g id="edge8" class="edge"><title>Node4&#45;&gt;Node8</title>
<path fill="none" stroke="midnightblue" d="M221.611,-520.703C230.655,-499.853 239.888,-478.565 247.989,-459.891"/>
<polygon fill="none" stroke="midnightblue" points="218.381,-519.354 217.613,-529.921 224.803,-522.139 218.381,-519.354"/>
</g>
<!-- Node5 -->
<g id="node5" class="node"><title>Node5</title>
<g id="a_node5"><a xlink:href="class_hydro_couple_1_1_i_identity.html" target="_top" xlink:title="IIdentity interface class defines a method to get the Id of an HydroCouple entity. ">
<polygon fill="none" stroke="black" points="104.001,-751.229 104.001,-828.568 252.023,-828.568 252.023,-751.229 104.001,-751.229"/>
<text text-anchor="middle" x="178.012" y="-816.568" font-family="Monaco" font-size="10.00">HydroCouple::IIdentity</text>
<polyline fill="none" stroke="black" points="104.001,-807.233 252.023,-807.233 "/>
<text text-anchor="middle" x="178.012" y="-795.233" font-family="Monaco" font-size="10.00"> </text>
<polyline fill="none" stroke="black" points="104.001,-785.898 252.023,-785.898 "/>
<text text-anchor="start" x="112.001" y="-773.898" font-family="Monaco" font-size="10.00">+ ~IIdentity()</text>
<text text-anchor="start" x="112.001" y="-760.563" font-family="Monaco" font-size="10.00">+ id()</text>
</a>
</g>
</g>
<!-- Node5&#45;&gt;Node4 -->
<g id="edge4" class="edge"><title>Node5&#45;&gt;Node4</title>
<path fill="none" stroke="midnightblue" d="M178.012,-740.646C178.012,-732.293 178.012,-723.368 178.012,-714.309"/>
<polygon fill="none" stroke="midnightblue" points="174.512,-740.888 178.012,-750.888 181.512,-740.888 174.512,-740.888"/>
</g>
<!-- Node6 -->
<g id="node6" class="node"><title>Node6</title>
<g id="a_node6"><a xlink:href="class_hydro_couple_1_1_i_description.html" target="_top" xlink:title="IDescription interface class provides descriptive information on a HydroCouple object. ">
<polygon fill="none" stroke="black" points="95,-865.568 95,-982.913 261.024,-982.913 261.024,-865.568 95,-865.568"/>
<text text-anchor="middle" x="178.012" y="-970.913" font-family="Monaco" font-size="10.00">HydroCouple::IDescription</text>
<polyline fill="none" stroke="black" points="95,-961.578 261.024,-961.578 "/>
<text text-anchor="middle" x="178.012" y="-949.578" font-family="Monaco" font-size="10.00"> </text>
<polyline fill="none" stroke="black" points="95,-940.243 261.024,-940.243 "/>
<text text-anchor="start" x="103" y="-928.243" font-family="Monaco" font-size="10.00">+ ~IDescription()</text>
<text text-anchor="start" x="103" y="-914.908" font-family="Monaco" font-size="10.00">+ caption()</text>
<text text-anchor="start" x="103" y="-901.573" font-family="Monaco" font-size="10.00">+ setCaption()</text>
<text text-anchor="start" x="103" y="-888.238" font-family="Monaco" font-size="10.00">+ description()</text>
<text text-anchor="start" x="103" y="-874.903" font-family="Monaco" font-size="10.00">+ setDescription()</text>
</a>
</g>
</g>
<!-- Node6&#45;&gt;Node5 -->
<g id="edge5" class="edge"><title>Node6&#45;&gt;Node5</title>
<path fill="none" stroke="midnightblue" d="M178.012,-855.002C178.012,-845.964 178.012,-836.976 178.012,-828.716"/>
<polygon fill="none" stroke="midnightblue" points="174.512,-855.193 178.012,-865.193 181.512,-855.194 174.512,-855.193"/>
</g>
<!-- Node7 -->
<g id="node7" class="node"><title>Node7</title>
<g id="a_node7"><a xlink:href="class_hydro_couple_1_1_i_property_changed.html" target="_top" xlink:title="IPropertyChanged interface is used to emit signal/event when a property of an object changes...">
<polygon fill="none" stroke="black" points="82.998,-1019.91 82.998,-1083.92 273.026,-1083.92 273.026,-1019.91 82.998,-1019.91"/>
<text text-anchor="middle" x="178.012" y="-1071.92" font-family="Monaco" font-size="10.00">HydroCouple::IPropertyChanged</text>
<polyline fill="none" stroke="black" points="82.998,-1062.58 273.026,-1062.58 "/>
<text text-anchor="middle" x="178.012" y="-1050.58" font-family="Monaco" font-size="10.00"> </text>
<polyline fill="none" stroke="black" points="82.998,-1041.25 273.026,-1041.25 "/>
<text text-anchor="start" x="90.998" y="-1029.25" font-family="Monaco" font-size="10.00">+ ~IPropertyChanged()</text>
</a>
</g>
</g>
<!-- Node7&#45;&gt;Node6 -->
<g id="edge6" class="edge"><title>Node7&#45;&gt;Node6</title>
<path fill="none" stroke="midnightblue" d="M178.012,-1009.59C178.012,-1001.21 178.012,-992.241 178.012,-983.399"/>
<polygon fill="none" stroke="midnightblue" points="174.512,-1009.85 178.012,-1019.85 181.512,-1009.85 174.512,-1009.85"/>
</g>
<!-- Node8&#45;&gt;Node2 -->
<g id="edge7" class="edge"><title>Node8&#45;&gt;Node2</title>
<path fill="none" stroke="midnightblue" d="M212.615,-334.816C181.447,-301.075 144.523,-261.103 118.076,-232.473"/>
<polygon fill="none" stroke="midnightblue" points="210.225,-337.387 219.581,-342.357 215.366,-332.637 210.225,-337.387"/>
</g>
<!-- Node9 -->
<g id="node9" class="node"><title>Node9</title>
<g id="a_node9"><a xlink:href="class_hydro_couple_1_1_temporal_1_1_i_time_series_component_data_item.html" target="_top" xlink:title="The ITimeSeriesComponentDataItem class. ">
<polygon fill="none" stroke="black" points="171.996,-114.84 171.996,-272.189 386.028,-272.189 386.028,-114.84 171.996,-114.84"/>
<text text-anchor="start" x="179.996" y="-260.189" font-family="Monaco" font-size="10.00">HydroCouple::Temporal</text>
<text text-anchor="middle" x="279.012" y="-246.854" font-family="Monaco" font-size="10.00">::ITimeSeriesComponentDataItem</text>
<polyline fill="none" stroke="black" points="171.996,-237.52 386.028,-237.52 "/>
<text text-anchor="middle" x="279.012" y="-225.52" font-family="Monaco" font-size="10.00"> </text>
<polyline fill="none" stroke="black" points="171.996,-216.185 386.028,-216.185 "/>
<text text-anchor="start" x="179.996" y="-204.185" font-family="Monaco" font-size="10.00">+ ~ITimeSeriesComponentDataItem()</text>
<text text-anchor="start" x="179.996" y="-190.85" font-family="Monaco" font-size="10.00">+ getValue()</text>
<text text-anchor="start" x="179.996" y="-177.515" font-family="Monaco" font-size="10.00">+ getValues()</text>
<text text-anchor="start" x="179.996" y="-164.18" font-family="Monaco" font-size="10.00">+ getValues()</text>
<text text-anchor="start" x="179.996" y="-150.845" font-family="Monaco" font-size="10.00">+ setValue()</text>
<text text-anchor="start" x="179.996" y="-137.51" font-family="Monaco" font-size="10.00">+ setValues()</text>
<text text-anchor="start" x="179.996" y="-124.175" font-family="Monaco" font-size="10.00">+ setValues()</text>
</a>
</g>
</g>
<!-- Node8&#45;&gt;Node9 -->
<g id="edge10" class="edge"><title>Node8&#45;&gt;Node9</title>
<path fill="none" stroke="midnightblue" d="M274.996,-332.205C275.556,-313.011 276.169,-291.982 276.744,-272.263"/>
<polygon fill="none" stroke="midnightblue" points="271.493,-332.259 274.7,-342.357 278.49,-332.464 271.493,-332.259"/>
</g>
<!-- Node9&#45;&gt;Node1 -->
<g id="edge9" class="edge"><title>Node9&#45;&gt;Node1</title>
<path fill="none" stroke="midnightblue" d="M223.312,-105.926C217.026,-96.154 210.889,-86.615 205.327,-77.9688"/>
<polygon fill="none" stroke="midnightblue" points="220.51,-108.04 228.864,-114.557 226.397,-104.253 220.51,-108.04"/>
</g>
</g>
</svg>
