<?xml version="1.0" encoding="UTF-8" standalone="no"?>
<!DOCTYPE svg PUBLIC "-//W3C//DTD SVG 1.1//EN"
 "http://www.w3.org/Graphics/SVG/1.1/DTD/svg11.dtd">
<!-- Generated by graphviz version 2.38.0 (20140413.2041)
 -->
<!-- Title: HydroCouple::SpatioTemporal::ITimeRasterArgument Pages: 1 -->
<!--zoomable 1092 -->
<svg id="main" version="1.1" xmlns="http://www.w3.org/2000/svg" xmlns:xlink="http://www.w3.org/1999/xlink" xml:space="preserve" onload="init(evt)">
<style type="text/css"><![CDATA[
.edge:hover path { stroke: red; }
.edge:hover polygon { stroke: red; fill: red; }
]]></style>
<script type="text/javascript"><![CDATA[
var edges = document.getElementsByTagName('g');
if (edges && edges.length) {
  for (var i=0;i<edges.length;i++) {
    if (edges[i].id.substr(0,4)=='edge') {
      edges[i].setAttribute('class','edge');
    }
  }
}
]]></script>
        <defs>
                <circle id="rim" cx="0" cy="0" r="7"/>
                <circle id="rim2" cx="0" cy="0" r="3.5"/>
                <g id="zoomPlus">
                        <use xlink:href="#rim" fill="#404040">
                                <set attributeName="fill" to="#808080" begin="zoomplus.mouseover" end="zoomplus.mouseout"/>
                        </use>
                        <path d="M-4,0h8M0,-4v8" fill="none" stroke="white" stroke-width="1.5" pointer-events="none"/>
                </g>
                <g id="zoomMin">
                        <use xlink:href="#rim" fill="#404040">
                                <set attributeName="fill" to="#808080" begin="zoomminus.mouseover" end="zoomminus.mouseout"/>
                        </use>
                        <path d="M-4,0h8" fill="none" stroke="white" stroke-width="1.5" pointer-events="none"/>
                </g>
                <g id="dirArrow">
                        <path fill="none" stroke="white" stroke-width="1.5" d="M0,-3.0v7 M-2.5,-0.5L0,-3.0L2.5,-0.5"/>
                </g>
               <g id="resetDef">
                       <use xlink:href="#rim2" fill="#404040">
                               <set attributeName="fill" to="#808080" begin="reset.mouseover" end="reset.mouseout"/>
                       </use>
               </g>
        </defs>

<script type="text/javascript">
var viewWidth = 578;
var viewHeight = 1092;
var sectionId = 'dynsection-1';
</script>
<script xlink:href="svgpan.js"/>
<svg id="graph" class="graph">
<g id="viewport">
<title>HydroCouple::SpatioTemporal::ITimeRasterArgument</title>
<!-- Node1 -->
<g id="node1" class="node"><title>Node1</title>
<polygon fill="#bfbfbf" stroke="black" points="218,-0.5 218,-77.8398 396.026,-77.8398 396.026,-0.5 218,-0.5"/>
<text text-anchor="start" x="226" y="-65.8398" font-family="Monaco" font-size="10.00">HydroCouple::SpatioTemporal</text>
<text text-anchor="middle" x="307.013" y="-52.5049" font-family="Monaco" font-size="10.00">::ITimeRasterArgument</text>
<polyline fill="none" stroke="black" points="218,-43.1699 396.026,-43.1699 "/>
<text text-anchor="middle" x="307.013" y="-31.1699" font-family="Monaco" font-size="10.00"> </text>
<polyline fill="none" stroke="black" points="218,-21.835 396.026,-21.835 "/>
<text text-anchor="start" x="226" y="-9.83496" font-family="Monaco" font-size="10.00">+ ~ITimeRasterArgument()</text>
</g>
<!-- Node2 -->
<g id="node2" class="node"><title>Node2</title>
<g id="a_node2"><a xlink:href="class_hydro_couple_1_1_spatio_temporal_1_1_i_time_raster_component_data_item.html" target="_top" xlink:title="The ITimeRasterComponentDataItem class. ">
<polygon fill="none" stroke="black" points="3.99707,-114.84 3.99707,-272.189 218.029,-272.189 218.029,-114.84 3.99707,-114.84"/>
<text text-anchor="start" x="11.9971" y="-260.189" font-family="Monaco" font-size="10.00">HydroCouple::SpatioTemporal</text>
<text text-anchor="middle" x="111.013" y="-246.854" font-family="Monaco" font-size="10.00">::ITimeRasterComponentDataItem</text>
<polyline fill="none" stroke="black" points="3.99707,-237.52 218.029,-237.52 "/>
<text text-anchor="middle" x="111.013" y="-225.52" font-family="Monaco" font-size="10.00"> </text>
<polyline fill="none" stroke="black" points="3.99707,-216.185 218.029,-216.185 "/>
<text text-anchor="start" x="11.9971" y="-204.185" font-family="Monaco" font-size="10.00">+ ~ITimeRasterComponentDataItem()</text>
<text text-anchor="start" x="11.9971" y="-190.85" font-family="Monaco" font-size="10.00">+ getValue()</text>
<text text-anchor="start" x="11.9971" y="-177.515" font-family="Monaco" font-size="10.00">+ getValues()</text>
<text text-anchor="start" x="11.9971" y="-164.18" font-family="Monaco" font-size="10.00">+ getValues()</text>
<text text-anchor="start" x="11.9971" y="-150.845" font-family="Monaco" font-size="10.00">+ setValue()</text>
<text text-anchor="start" x="11.9971" y="-137.51" font-family="Monaco" font-size="10.00">+ setValues()</text>
<text text-anchor="start" x="11.9971" y="-124.175" font-family="Monaco" font-size="10.00">+ setValues()</text>
</a>
</g>
</g>
<!-- Node2&#45;&gt;Node1 -->
<g id="edge1" class="edge"><title>Node2&#45;&gt;Node1</title>
<path fill="none" stroke="midnightblue" d="M219.091,-108.509C232.756,-97.8874 246.157,-87.4712 258.216,-78.0982"/>
<polygon fill="none" stroke="midnightblue" points="216.77,-105.88 211.023,-114.78 221.066,-111.407 216.77,-105.88"/>
</g>
<!-- Node3 -->
<g id="node3" class="node"><title>Node3</title>
<g id="a_node3"><a xlink:href="class_hydro_couple_1_1_temporal_1_1_i_time_component_data_item.html" target="_top" xlink:title="ITimeComponentItem is an IComponentItem with a temporal attribute. This class cannot be directly inst...">
<polygon fill="none" stroke="black" points="0,-342.527 0,-459.872 178.026,-459.872 178.026,-342.527 0,-342.527"/>
<text text-anchor="start" x="8" y="-447.872" font-family="Monaco" font-size="10.00">HydroCouple::Temporal</text>
<text text-anchor="middle" x="89.0132" y="-434.537" font-family="Monaco" font-size="10.00">::ITimeComponentDataItem</text>
<polyline fill="none" stroke="black" points="0,-425.202 178.026,-425.202 "/>
<text text-anchor="middle" x="89.0132" y="-413.202" font-family="Monaco" font-size="10.00"> </text>
<polyline fill="none" stroke="black" points="0,-403.867 178.026,-403.867 "/>
<text text-anchor="start" x="8" y="-391.867" font-family="Monaco" font-size="10.00">+ ~ITimeComponentDataItem()</text>
<text text-anchor="start" x="8" y="-378.532" font-family="Monaco" font-size="10.00">+ times()</text>
<text text-anchor="start" x="8" y="-365.197" font-family="Monaco" font-size="10.00">+ timeSpan()</text>
<text text-anchor="start" x="8" y="-351.862" font-family="Monaco" font-size="10.00">+ timeDimension()</text>
</a>
</g>
</g>
<!-- Node3&#45;&gt;Node2 -->
<g id="edge2" class="edge"><title>Node3&#45;&gt;Node2</title>
<path fill="none" stroke="midnightblue" d="M96.2858,-332.205C98.3388,-313.011 100.588,-291.982 102.697,-272.263"/>
<polygon fill="none" stroke="midnightblue" points="92.7834,-332.042 95.2,-342.357 99.7437,-332.786 92.7834,-332.042"/>
</g>
<!-- Node9 -->
<g id="node9" class="node"><title>Node9</title>
<g id="a_node9"><a xlink:href="class_hydro_couple_1_1_temporal_1_1_i_time_argument.html" target="_top" xlink:title="The ITimeArgument class. his class cannot be directly instantiated and must be implemented as as an a...">
<polygon fill="none" stroke="black" points="236.003,-154.845 236.003,-232.185 378.023,-232.185 378.023,-154.845 236.003,-154.845"/>
<text text-anchor="start" x="244.003" y="-220.185" font-family="Monaco" font-size="10.00">HydroCouple::Temporal</text>
<text text-anchor="middle" x="307.013" y="-206.85" font-family="Monaco" font-size="10.00">::ITimeArgument</text>
<polyline fill="none" stroke="black" points="236.003,-197.515 378.023,-197.515 "/>
<text text-anchor="middle" x="307.013" y="-185.515" font-family="Monaco" font-size="10.00"> </text>
<polyline fill="none" stroke="black" points="236.003,-176.18 378.023,-176.18 "/>
<text text-anchor="start" x="244.003" y="-164.18" font-family="Monaco" font-size="10.00">+ ~ITimeArgument()</text>
</a>
</g>
</g>
<!-- Node3&#45;&gt;Node9 -->
<g id="edge12" class="edge"><title>Node3&#45;&gt;Node9</title>
<path fill="none" stroke="midnightblue" d="M157.941,-335.539C167.676,-326.494 177.578,-317.339 187.013,-308.689 204.643,-292.527 209.567,-289.051 227.013,-272.689 240.894,-259.671 255.871,-245.164 269.071,-232.215"/>
<polygon fill="none" stroke="midnightblue" points="155.478,-333.05 150.54,-342.424 160.246,-338.175 155.478,-333.05"/>
</g>
<!-- Node4 -->
<g id="node4" class="node"><title>Node4</title>
<g id="a_node4"><a xlink:href="class_hydro_couple_1_1_i_component_data_item.html" target="_top" xlink:title="IComponentItem is a fundamental unit of data for a component. ">
<polygon fill="none" stroke="black" points="189.998,-530.209 189.998,-714.229 392.028,-714.229 392.028,-530.209 189.998,-530.209"/>
<text text-anchor="middle" x="291.013" y="-702.229" font-family="Monaco" font-size="10.00">HydroCouple::IComponentDataItem</text>
<polyline fill="none" stroke="black" points="189.998,-692.894 392.028,-692.894 "/>
<text text-anchor="middle" x="291.013" y="-680.894" font-family="Monaco" font-size="10.00"> </text>
<polyline fill="none" stroke="black" points="189.998,-671.559 392.028,-671.559 "/>
<text text-anchor="start" x="197.998" y="-659.559" font-family="Monaco" font-size="10.00">+ ~IComponentDataItem()</text>
<text text-anchor="start" x="197.998" y="-646.224" font-family="Monaco" font-size="10.00">+ modelComponent()</text>
<text text-anchor="start" x="197.998" y="-632.889" font-family="Monaco" font-size="10.00">+ dimensions()</text>
<text text-anchor="start" x="197.998" y="-619.554" font-family="Monaco" font-size="10.00">+ valueDefinition()</text>
<text text-anchor="start" x="197.998" y="-606.219" font-family="Monaco" font-size="10.00">+ getValue()</text>
<text text-anchor="start" x="197.998" y="-592.884" font-family="Monaco" font-size="10.00">+ getValues()</text>
<text text-anchor="start" x="197.998" y="-579.549" font-family="Monaco" font-size="10.00">+ getValues()</text>
<text text-anchor="start" x="197.998" y="-566.214" font-family="Monaco" font-size="10.00">+ setValue()</text>
<text text-anchor="start" x="197.998" y="-552.879" font-family="Monaco" font-size="10.00">+ setValues()</text>
<text text-anchor="start" x="197.998" y="-539.544" font-family="Monaco" font-size="10.00">+ setValues()</text>
</a>
</g>
</g>
<!-- Node4&#45;&gt;Node3 -->
<g id="edge3" class="edge"><title>Node4&#45;&gt;Node3</title>
<path fill="none" stroke="midnightblue" d="M199.86,-522.385C180.137,-501.001 159.909,-479.068 142.221,-459.891"/>
<polygon fill="none" stroke="midnightblue" points="197.457,-524.943 206.81,-529.921 202.603,-520.197 197.457,-524.943"/>
</g>
<!-- Node8 -->
<g id="node8" class="node"><title>Node8</title>
<g id="a_node8"><a xlink:href="class_hydro_couple_1_1_spatial_1_1_i_raster_component_data_item.html" target="_top" xlink:title="An IRasterComponentDataItem represents an IRaster IComponentItem. ">
<polygon fill="none" stroke="black" points="195.999,-335.859 195.999,-466.539 386.027,-466.539 386.027,-335.859 195.999,-335.859"/>
<text text-anchor="start" x="203.999" y="-454.539" font-family="Monaco" font-size="10.00">HydroCouple::Spatial</text>
<text text-anchor="middle" x="291.013" y="-441.204" font-family="Monaco" font-size="10.00">::IRasterComponentDataItem</text>
<polyline fill="none" stroke="black" points="195.999,-431.869 386.027,-431.869 "/>
<text text-anchor="middle" x="291.013" y="-419.869" font-family="Monaco" font-size="10.00"> </text>
<polyline fill="none" stroke="black" points="195.999,-410.534 386.027,-410.534 "/>
<text text-anchor="start" x="203.999" y="-398.534" font-family="Monaco" font-size="10.00">+ ~IRasterComponentDataItem()</text>
<text text-anchor="start" x="203.999" y="-385.199" font-family="Monaco" font-size="10.00">+ xDimension()</text>
<text text-anchor="start" x="203.999" y="-371.864" font-family="Monaco" font-size="10.00">+ yDimension()</text>
<text text-anchor="start" x="203.999" y="-358.529" font-family="Monaco" font-size="10.00">+ bandDimension()</text>
<text text-anchor="start" x="203.999" y="-345.194" font-family="Monaco" font-size="10.00">+ raster()</text>
</a>
</g>
</g>
<!-- Node4&#45;&gt;Node8 -->
<g id="edge8" class="edge"><title>Node4&#45;&gt;Node8</title>
<path fill="none" stroke="midnightblue" d="M291.013,-519.906C291.013,-501.801 291.013,-483.395 291.013,-466.683"/>
<polygon fill="none" stroke="midnightblue" points="287.513,-519.921 291.013,-529.921 294.513,-519.921 287.513,-519.921"/>
</g>
<!-- Node10 -->
<g id="node10" class="node"><title>Node10</title>
<g id="a_node10"><a xlink:href="class_hydro_couple_1_1_i_argument.html" target="_top" xlink:title="IArgument interface class used to set the arguments for components. They can be complex or simple mul...">
<polygon fill="none" stroke="black" points="404.001,-309.189 404.001,-493.209 570.025,-493.209 570.025,-309.189 404.001,-309.189"/>
<text text-anchor="middle" x="487.013" y="-481.209" font-family="Monaco" font-size="10.00">HydroCouple::IArgument</text>
<polyline fill="none" stroke="black" points="404.001,-471.874 570.025,-471.874 "/>
<text text-anchor="middle" x="487.013" y="-459.874" font-family="Monaco" font-size="10.00"> </text>
<polyline fill="none" stroke="black" points="404.001,-450.539 570.025,-450.539 "/>
<text text-anchor="start" x="412.001" y="-438.539" font-family="Monaco" font-size="10.00">+ ~IArgument()</text>
<text text-anchor="start" x="412.001" y="-425.204" font-family="Monaco" font-size="10.00">+ isOptional()</text>
<text text-anchor="start" x="412.001" y="-411.869" font-family="Monaco" font-size="10.00">+ isReadOnly()</text>
<text text-anchor="start" x="412.001" y="-398.534" font-family="Monaco" font-size="10.00">+ toString()</text>
<text text-anchor="start" x="412.001" y="-385.199" font-family="Monaco" font-size="10.00">+ inputFileTypeFilters()</text>
<text text-anchor="start" x="412.001" y="-371.864" font-family="Monaco" font-size="10.00">+ canReadFromFile()</text>
<text text-anchor="start" x="412.001" y="-358.529" font-family="Monaco" font-size="10.00">+ canReadFromString()</text>
<text text-anchor="start" x="412.001" y="-345.194" font-family="Monaco" font-size="10.00">+ currentArgumentIOType()</text>
<text text-anchor="start" x="412.001" y="-331.859" font-family="Monaco" font-size="10.00">+ readValues()</text>
<text text-anchor="start" x="412.001" y="-318.524" font-family="Monaco" font-size="10.00">+ readValues()</text>
</a>
</g>
</g>
<!-- Node4&#45;&gt;Node10 -->
<g id="edge11" class="edge"><title>Node4&#45;&gt;Node10</title>
<path fill="none" stroke="midnightblue" d="M379.593,-522.235C388.202,-512.616 396.908,-502.887 405.443,-493.349"/>
<polygon fill="none" stroke="midnightblue" points="376.776,-520.135 372.716,-529.921 381.992,-524.803 376.776,-520.135"/>
</g>
<!-- Node5 -->
<g id="node5" class="node"><title>Node5</title>
<g id="a_node5"><a xlink:href="class_hydro_couple_1_1_i_identity.html" target="_top" xlink:title="IIdentity interface class defines a method to get the Id of an HydroCouple entity. ">
<polygon fill="none" stroke="black" points="217.002,-751.229 217.002,-828.568 365.024,-828.568 365.024,-751.229 217.002,-751.229"/>
<text text-anchor="middle" x="291.013" y="-816.568" font-family="Monaco" font-size="10.00">HydroCouple::IIdentity</text>
<polyline fill="none" stroke="black" points="217.002,-807.233 365.024,-807.233 "/>
<text text-anchor="middle" x="291.013" y="-795.233" font-family="Monaco" font-size="10.00"> </text>
<polyline fill="none" stroke="black" points="217.002,-785.898 365.024,-785.898 "/>
<text text-anchor="start" x="225.002" y="-773.898" font-family="Monaco" font-size="10.00">+ ~IIdentity()</text>
<text text-anchor="start" x="225.002" y="-760.563" font-family="Monaco" font-size="10.00">+ id()</text>
</a>
</g>
</g>
<!-- Node5&#45;&gt;Node4 -->
<g id="edge4" class="edge"><title>Node5&#45;&gt;Node4</title>
<path fill="none" stroke="midnightblue" d="M291.013,-740.646C291.013,-732.293 291.013,-723.368 291.013,-714.309"/>
<polygon fill="none" stroke="midnightblue" points="287.513,-740.888 291.013,-750.888 294.513,-740.888 287.513,-740.888"/>
</g>
<!-- Node6 -->
<g id="node6" class="node"><title>Node6</title>
<g id="a_node6"><a xlink:href="class_hydro_couple_1_1_i_description.html" target="_top" xlink:title="IDescription interface class provides descriptive information on a HydroCouple object. ">
<polygon fill="none" stroke="black" points="208.001,-865.568 208.001,-982.913 374.025,-982.913 374.025,-865.568 208.001,-865.568"/>
<text text-anchor="middle" x="291.013" y="-970.913" font-family="Monaco" font-size="10.00">HydroCouple::IDescription</text>
<polyline fill="none" stroke="black" points="208.001,-961.578 374.025,-961.578 "/>
<text text-anchor="middle" x="291.013" y="-949.578" font-family="Monaco" font-size="10.00"> </text>
<polyline fill="none" stroke="black" points="208.001,-940.243 374.025,-940.243 "/>
<text text-anchor="start" x="216.001" y="-928.243" font-family="Monaco" font-size="10.00">+ ~IDescription()</text>
<text text-anchor="start" x="216.001" y="-914.908" font-family="Monaco" font-size="10.00">+ caption()</text>
<text text-anchor="start" x="216.001" y="-901.573" font-family="Monaco" font-size="10.00">+ setCaption()</text>
<text text-anchor="start" x="216.001" y="-888.238" font-family="Monaco" font-size="10.00">+ description()</text>
<text text-anchor="start" x="216.001" y="-874.903" font-family="Monaco" font-size="10.00">+ setDescription()</text>
</a>
</g>
</g>
<!-- Node6&#45;&gt;Node5 -->
<g id="edge5" class="edge"><title>Node6&#45;&gt;Node5</title>
<path fill="none" stroke="midnightblue" d="M291.013,-855.002C291.013,-845.964 291.013,-836.976 291.013,-828.716"/>
<polygon fill="none" stroke="midnightblue" points="287.513,-855.193 291.013,-865.193 294.513,-855.194 287.513,-855.193"/>
</g>
<!-- Node7 -->
<g id="node7" class="node"><title>Node7</title>
<g id="a_node7"><a xlink:href="class_hydro_couple_1_1_i_property_changed.html" target="_top" xlink:title="IPropertyChanged interface is used to emit signal/event when a property of an object changes...">
<polygon fill="none" stroke="black" points="195.999,-1019.91 195.999,-1083.92 386.027,-1083.92 386.027,-1019.91 195.999,-1019.91"/>
<text text-anchor="middle" x="291.013" y="-1071.92" font-family="Monaco" font-size="10.00">HydroCouple::IPropertyChanged</text>
<polyline fill="none" stroke="black" points="195.999,-1062.58 386.027,-1062.58 "/>
<text text-anchor="middle" x="291.013" y="-1050.58" font-family="Monaco" font-size="10.00"> </text>
<polyline fill="none" stroke="black" points="195.999,-1041.25 386.027,-1041.25 "/>
<text text-anchor="start" x="203.999" y="-1029.25" font-family="Monaco" font-size="10.00">+ ~IPropertyChanged()</text>
</a>
</g>
</g>
<!-- Node7&#45;&gt;Node6 -->
<g id="edge6" class="edge"><title>Node7&#45;&gt;Node6</title>
<path fill="none" stroke="midnightblue" d="M291.013,-1009.59C291.013,-1001.21 291.013,-992.241 291.013,-983.399"/>
<polygon fill="none" stroke="midnightblue" points="287.513,-1009.85 291.013,-1019.85 294.513,-1009.85 287.513,-1009.85"/>
</g>
<!-- Node8&#45;&gt;Node2 -->
<g id="edge7" class="edge"><title>Node8&#45;&gt;Node2</title>
<path fill="none" stroke="midnightblue" d="M227.895,-328.074C212.169,-310.105 195.239,-290.759 179.278,-272.52"/>
<polygon fill="none" stroke="midnightblue" points="225.334,-330.463 234.554,-335.684 230.602,-325.853 225.334,-330.463"/>
</g>
<!-- Node11 -->
<g id="node11" class="node"><title>Node11</title>
<g id="a_node11"><a xlink:href="class_hydro_couple_1_1_spatial_1_1_i_raster_argument.html" target="_top" xlink:title="An IRasterArgument is an IExchangeItem with an IRaster. ">
<polygon fill="none" stroke="black" points="396.003,-154.845 396.003,-232.185 532.023,-232.185 532.023,-154.845 396.003,-154.845"/>
<text text-anchor="start" x="404.003" y="-220.185" font-family="Monaco" font-size="10.00">HydroCouple::Spatial</text>
<text text-anchor="middle" x="464.013" y="-206.85" font-family="Monaco" font-size="10.00">::IRasterArgument</text>
<polyline fill="none" stroke="black" points="396.003,-197.515 532.023,-197.515 "/>
<text text-anchor="middle" x="464.013" y="-185.515" font-family="Monaco" font-size="10.00"> </text>
<polyline fill="none" stroke="black" points="396.003,-176.18 532.023,-176.18 "/>
<text text-anchor="start" x="404.003" y="-164.18" font-family="Monaco" font-size="10.00">+ ~IRasterArgument()</text>
</a>
</g>
</g>
<!-- Node8&#45;&gt;Node11 -->
<g id="edge15" class="edge"><title>Node8&#45;&gt;Node11</title>
<path fill="none" stroke="midnightblue" d="M351.715,-328.029C378.809,-295.816 409.62,-259.185 432.106,-232.45"/>
<polygon fill="none" stroke="midnightblue" points="349.035,-325.778 345.277,-335.684 354.392,-330.284 349.035,-325.778"/>
</g>
<!-- Node9&#45;&gt;Node1 -->
<g id="edge9" class="edge"><title>Node9&#45;&gt;Node1</title>
<path fill="none" stroke="midnightblue" d="M307.013,-144.266C307.013,-122.858 307.013,-98.0342 307.013,-77.9987"/>
<polygon fill="none" stroke="midnightblue" points="303.513,-144.465 307.013,-154.465 310.513,-144.465 303.513,-144.465"/>
</g>
<!-- Node10&#45;&gt;Node9 -->
<g id="edge10" class="edge"><title>Node10&#45;&gt;Node9</title>
<path fill="none" stroke="midnightblue" d="M400.592,-301.446C379.006,-276.78 357.145,-251.8 339.987,-232.194"/>
<polygon fill="none" stroke="midnightblue" points="398.057,-303.864 407.276,-309.085 403.325,-299.254 398.057,-303.864"/>
</g>
<!-- Node10&#45;&gt;Node11 -->
<g id="edge14" class="edge"><title>Node10&#45;&gt;Node11</title>
<path fill="none" stroke="midnightblue" d="M475.685,-298.894C473.02,-275.064 470.343,-251.124 468.227,-232.194"/>
<polygon fill="none" stroke="midnightblue" points="472.235,-299.536 476.825,-309.085 479.192,-298.758 472.235,-299.536"/>
</g>
<!-- Node11&#45;&gt;Node1 -->
<g id="edge13" class="edge"><title>Node11&#45;&gt;Node1</title>
<path fill="none" stroke="midnightblue" d="M420.23,-147.365C409.463,-136.457 397.9,-124.902 387.013,-114.34 374.643,-102.338 360.959,-89.4972 348.458,-77.9298"/>
<polygon fill="none" stroke="midnightblue" points="418.03,-150.119 427.538,-154.793 423.019,-145.21 418.03,-150.119"/>
</g>
</g>
</svg>
        <g id="navigator" transform="translate(0 0)" fill="#404254">
                <rect fill="#f2f5e9" fill-opacity="0.5" stroke="#606060" stroke-width=".5" x="0" y="0" width="60" height="60"/>
                <use id="zoomplus" xlink:href="#zoomPlus" x="17" y="9" onmousedown="handleZoom(evt,'in')"/>
                <use id="zoomminus" xlink:href="#zoomMin" x="42" y="9" onmousedown="handleZoom(evt,'out')"/>
                <use id="reset" xlink:href="#resetDef" x="30" y="36" onmousedown="handleReset()"/>
                <g id="arrowUp" xlink:href="#dirArrow" transform="translate(30 24)" onmousedown="handlePan(0,-1)">
                  <use xlink:href="#rim" fill="#404040">
                        <set attributeName="fill" to="#808080" begin="arrowUp.mouseover" end="arrowUp.mouseout"/>
                  </use>
                  <path fill="none" stroke="white" stroke-width="1.5" d="M0,-3.0v7 M-2.5,-0.5L0,-3.0L2.5,-0.5"/>
                </g>
                <g id="arrowRight" xlink:href="#dirArrow" transform="rotate(90) translate(36 -43)" onmousedown="handlePan(1,0)">
                  <use xlink:href="#rim" fill="#404040">
                        <set attributeName="fill" to="#808080" begin="arrowRight.mouseover" end="arrowRight.mouseout"/>
                  </use>
                  <path fill="none" stroke="white" stroke-width="1.5" d="M0,-3.0v7 M-2.5,-0.5L0,-3.0L2.5,-0.5"/>
                </g>
                <g id="arrowDown" xlink:href="#dirArrow" transform="rotate(180) translate(-30 -48)" onmousedown="handlePan(0,1)">
                  <use xlink:href="#rim" fill="#404040">
                        <set attributeName="fill" to="#808080" begin="arrowDown.mouseover" end="arrowDown.mouseout"/>
                  </use>
                  <path fill="none" stroke="white" stroke-width="1.5" d="M0,-3.0v7 M-2.5,-0.5L0,-3.0L2.5,-0.5"/>
                </g>
                <g id="arrowLeft" xlink:href="#dirArrow" transform="rotate(270) translate(-36 17)" onmousedown="handlePan(-1,0)">
                  <use xlink:href="#rim" fill="#404040">
                        <set attributeName="fill" to="#808080" begin="arrowLeft.mouseover" end="arrowLeft.mouseout"/>
                  </use>
                  <path fill="none" stroke="white" stroke-width="1.5" d="M0,-3.0v7 M-2.5,-0.5L0,-3.0L2.5,-0.5"/>
                </g>
        </g>
        <svg viewBox="0 0 15 15" width="100%" height="30px" preserveAspectRatio="xMaxYMin meet">
         <g id="arrow_out" transform="scale(0.3 0.3)">
          <a xlink:href="class_hydro_couple_1_1_spatio_temporal_1_1_i_time_raster_argument__coll__graph_org.svg" target="_base">
           <rect id="button" ry="5" rx="5" y="6" x="6" height="38" width="38"
                fill="#f2f5e9" fill-opacity="0.5" stroke="#606060" stroke-width="1.0"/>
           <path id="arrow"
             d="M 11.500037,31.436501 C 11.940474,20.09759 22.043105,11.32322 32.158766,21.979434 L 37.068811,17.246167 C 37.068811,17.246167 37.088388,32 37.088388,32 L 22.160133,31.978069 C 22.160133,31.978069 26.997745,27.140456 26.997745,27.140456 C 18.528582,18.264221 13.291696,25.230495 11.500037,31.436501 z"
             style="fill:#404040;"/>
          </a>
         </g>
        </svg>
</svg>
