<?xml version="1.0" encoding="UTF-8" standalone="no"?>
<!DOCTYPE svg PUBLIC "-//W3C//DTD SVG 1.1//EN"
 "http://www.w3.org/Graphics/SVG/1.1/DTD/svg11.dtd">
<!-- Generated by graphviz version 2.38.0 (20140413.2041)
 -->
<!-- Title: HydroCouple::Temporal::ITimeIdBasedComponentDataItem Pages: 1 -->
<!--zoomable 938 -->
<svg id="main" version="1.1" xmlns="http://www.w3.org/2000/svg" xmlns:xlink="http://www.w3.org/1999/xlink" xml:space="preserve" onload="init(evt)">
<style type="text/css"><![CDATA[
.edge:hover path { stroke: red; }
.edge:hover polygon { stroke: red; fill: red; }
]]></style>
<script type="text/javascript"><![CDATA[
var edges = document.getElementsByTagName('g');
if (edges && edges.length) {
  for (var i=0;i<edges.length;i++) {
    if (edges[i].id.substr(0,4)=='edge') {
      edges[i].setAttribute('class','edge');
    }
  }
}
]]></script>
        <defs>
                <circle id="rim" cx="0" cy="0" r="7"/>
                <circle id="rim2" cx="0" cy="0" r="3.5"/>
                <g id="zoomPlus">
                        <use xlink:href="#rim" fill="#404040">
                                <set attributeName="fill" to="#808080" begin="zoomplus.mouseover" end="zoomplus.mouseout"/>
                        </use>
                        <path d="M-4,0h8M0,-4v8" fill="none" stroke="white" stroke-width="1.5" pointer-events="none"/>
                </g>
                <g id="zoomMin">
                        <use xlink:href="#rim" fill="#404040">
                                <set attributeName="fill" to="#808080" begin="zoomminus.mouseover" end="zoomminus.mouseout"/>
                        </use>
                        <path d="M-4,0h8" fill="none" stroke="white" stroke-width="1.5" pointer-events="none"/>
                </g>
                <g id="dirArrow">
                        <path fill="none" stroke="white" stroke-width="1.5" d="M0,-3.0v7 M-2.5,-0.5L0,-3.0L2.5,-0.5"/>
                </g>
               <g id="resetDef">
                       <use xlink:href="#rim2" fill="#404040">
                               <set attributeName="fill" to="#808080" begin="reset.mouseover" end="reset.mouseout"/>
                       </use>
               </g>
        </defs>

<script type="text/javascript">
var viewWidth = 382;
var viewHeight = 938;
var sectionId = 'dynsection-0';
</script>
<script xlink:href="svgpan.js"/>
<svg id="graph" class="graph">
<g id="viewport">
<title>HydroCouple::Temporal::ITimeIdBasedComponentDataItem</title>
<!-- Node1 -->
<g id="node1" class="node"><title>Node1</title>
<polygon fill="#bfbfbf" stroke="black" points="70.9956,-114.84 70.9956,-338.864 291.029,-338.864 291.029,-114.84 70.9956,-114.84"/>
<text text-anchor="start" x="78.9956" y="-326.864" font-family="Monaco" font-size="10.00">HydroCouple::Temporal</text>
<text text-anchor="middle" x="181.012" y="-313.529" font-family="Monaco" font-size="10.00">::ITimeIdBasedComponentDataItem</text>
<polyline fill="none" stroke="black" points="70.9956,-304.194 291.029,-304.194 "/>
<text text-anchor="middle" x="181.012" y="-292.194" font-family="Monaco" font-size="10.00"> </text>
<polyline fill="none" stroke="black" points="70.9956,-282.859 291.029,-282.859 "/>
<text text-anchor="start" x="78.9956" y="-270.859" font-family="Monaco" font-size="10.00">+ ~ITimeIdBasedComponentDataItem()</text>
<text text-anchor="start" x="78.9956" y="-257.524" font-family="Monaco" font-size="10.00">+ times()</text>
<text text-anchor="start" x="78.9956" y="-244.189" font-family="Monaco" font-size="10.00">+ timeSpan()</text>
<text text-anchor="start" x="78.9956" y="-230.854" font-family="Monaco" font-size="10.00">+ timeDimension()</text>
<text text-anchor="start" x="78.9956" y="-217.52" font-family="Monaco" font-size="10.00">+ identifiers()</text>
<text text-anchor="start" x="78.9956" y="-204.185" font-family="Monaco" font-size="10.00">+ identifierDimension()</text>
<text text-anchor="start" x="78.9956" y="-190.85" font-family="Monaco" font-size="10.00">+ getValue()</text>
<text text-anchor="start" x="78.9956" y="-177.515" font-family="Monaco" font-size="10.00">+ getValues()</text>
<text text-anchor="start" x="78.9956" y="-164.18" font-family="Monaco" font-size="10.00">+ getValues()</text>
<text text-anchor="start" x="78.9956" y="-150.845" font-family="Monaco" font-size="10.00">+ setValue()</text>
<text text-anchor="start" x="78.9956" y="-137.51" font-family="Monaco" font-size="10.00">+ setValues()</text>
<text text-anchor="start" x="78.9956" y="-124.175" font-family="Monaco" font-size="10.00">+ setValues()</text>
</g>
<!-- Node6 -->
<g id="node6" class="node"><title>Node6</title>
<g id="a_node6"><a xlink:href="class_hydro_couple_1_1_temporal_1_1_i_time_id_based_argument.html" target="_top" xlink:title="The ITimeSeriesIdBasedArgument class. ">
<polygon fill="none" stroke="black" points="0,-0.5 0,-77.8398 166.024,-77.8398 166.024,-0.5 0,-0.5"/>
<text text-anchor="start" x="8" y="-65.8398" font-family="Monaco" font-size="10.00">HydroCouple::Temporal</text>
<text text-anchor="middle" x="83.0122" y="-52.5049" font-family="Monaco" font-size="10.00">::ITimeIdBasedArgument</text>
<polyline fill="none" stroke="black" points="0,-43.1699 166.024,-43.1699 "/>
<text text-anchor="middle" x="83.0122" y="-31.1699" font-family="Monaco" font-size="10.00"> </text>
<polyline fill="none" stroke="black" points="0,-21.835 166.024,-21.835 "/>
<text text-anchor="start" x="8" y="-9.83496" font-family="Monaco" font-size="10.00">+ ~ITimeIdBasedArgument()</text>
</a>
</g>
</g>
<!-- Node1&#45;&gt;Node6 -->
<g id="edge5" class="edge"><title>Node1&#45;&gt;Node6</title>
<path fill="none" stroke="midnightblue" d="M117.487,-105.49C112.303,-95.6675 107.357,-86.2966 102.912,-77.8748"/>
<polygon fill="none" stroke="midnightblue" points="114.545,-107.414 122.308,-114.624 120.736,-104.147 114.545,-107.414"/>
</g>
<!-- Node7 -->
<g id="node7" class="node"><title>Node7</title>
<g id="a_node7"><a xlink:href="class_hydro_couple_1_1_temporal_1_1_i_time_id_based_exchange_item.html" target="_top" xlink:title="The ITimeSeriesIdBasedExchangeItem class. ">
<polygon fill="none" stroke="black" points="183.998,-0.5 183.998,-77.8398 374.026,-77.8398 374.026,-0.5 183.998,-0.5"/>
<text text-anchor="start" x="191.998" y="-65.8398" font-family="Monaco" font-size="10.00">HydroCouple::Temporal</text>
<text text-anchor="middle" x="279.012" y="-52.5049" font-family="Monaco" font-size="10.00">::ITimeIdBasedExchangeItem</text>
<polyline fill="none" stroke="black" points="183.998,-43.1699 374.026,-43.1699 "/>
<text text-anchor="middle" x="279.012" y="-31.1699" font-family="Monaco" font-size="10.00"> </text>
<polyline fill="none" stroke="black" points="183.998,-21.835 374.026,-21.835 "/>
<text text-anchor="start" x="191.998" y="-9.83496" font-family="Monaco" font-size="10.00">+ ~ITimeIdBasedExchangeItem()</text>
</a>
</g>
</g>
<!-- Node1&#45;&gt;Node7 -->
<g id="edge6" class="edge"><title>Node1&#45;&gt;Node7</title>
<path fill="none" stroke="midnightblue" d="M244.537,-105.49C249.721,-95.6675 254.667,-86.2966 259.112,-77.8748"/>
<polygon fill="none" stroke="midnightblue" points="241.289,-104.147 239.717,-114.624 247.48,-107.414 241.289,-104.147"/>
</g>
<!-- Node2 -->
<g id="node2" class="node"><title>Node2</title>
<g id="a_node2"><a xlink:href="class_hydro_couple_1_1_i_component_data_item.html" target="_top" xlink:title="IComponentItem is a fundamental unit of data for a component. ">
<polygon fill="none" stroke="black" points="79.9971,-375.864 79.9971,-559.884 282.027,-559.884 282.027,-375.864 79.9971,-375.864"/>
<text text-anchor="middle" x="181.012" y="-547.884" font-family="Monaco" font-size="10.00">HydroCouple::IComponentDataItem</text>
<polyline fill="none" stroke="black" points="79.9971,-538.549 282.027,-538.549 "/>
<text text-anchor="middle" x="181.012" y="-526.549" font-family="Monaco" font-size="10.00"> </text>
<polyline fill="none" stroke="black" points="79.9971,-517.214 282.027,-517.214 "/>
<text text-anchor="start" x="87.9971" y="-505.214" font-family="Monaco" font-size="10.00">+ ~IComponentDataItem()</text>
<text text-anchor="start" x="87.9971" y="-491.879" font-family="Monaco" font-size="10.00">+ modelComponent()</text>
<text text-anchor="start" x="87.9971" y="-478.544" font-family="Monaco" font-size="10.00">+ dimensions()</text>
<text text-anchor="start" x="87.9971" y="-465.209" font-family="Monaco" font-size="10.00">+ valueDefinition()</text>
<text text-anchor="start" x="87.9971" y="-451.874" font-family="Monaco" font-size="10.00">+ getValue()</text>
<text text-anchor="start" x="87.9971" y="-438.539" font-family="Monaco" font-size="10.00">+ getValues()</text>
<text text-anchor="start" x="87.9971" y="-425.204" font-family="Monaco" font-size="10.00">+ getValues()</text>
<text text-anchor="start" x="87.9971" y="-411.869" font-family="Monaco" font-size="10.00">+ setValue()</text>
<text text-anchor="start" x="87.9971" y="-398.534" font-family="Monaco" font-size="10.00">+ setValues()</text>
<text text-anchor="start" x="87.9971" y="-385.199" font-family="Monaco" font-size="10.00">+ setValues()</text>
</a>
</g>
</g>
<!-- Node2&#45;&gt;Node1 -->
<g id="edge1" class="edge"><title>Node2&#45;&gt;Node1</title>
<path fill="none" stroke="midnightblue" d="M181.012,-365.614C181.012,-356.85 181.012,-347.952 181.012,-339.115"/>
<polygon fill="none" stroke="midnightblue" points="177.512,-365.828 181.012,-375.828 184.512,-365.828 177.512,-365.828"/>
</g>
<!-- Node3 -->
<g id="node3" class="node"><title>Node3</title>
<g id="a_node3"><a xlink:href="class_hydro_couple_1_1_i_identity.html" target="_top" xlink:title="IIdentity interface class defines a method to get the Id of an HydroCouple entity. ">
<polygon fill="none" stroke="black" points="107.001,-596.884 107.001,-674.224 255.023,-674.224 255.023,-596.884 107.001,-596.884"/>
<text text-anchor="middle" x="181.012" y="-662.224" font-family="Monaco" font-size="10.00">HydroCouple::IIdentity</text>
<polyline fill="none" stroke="black" points="107.001,-652.889 255.023,-652.889 "/>
<text text-anchor="middle" x="181.012" y="-640.889" font-family="Monaco" font-size="10.00"> </text>
<polyline fill="none" stroke="black" points="107.001,-631.554 255.023,-631.554 "/>
<text text-anchor="start" x="115.001" y="-619.554" font-family="Monaco" font-size="10.00">+ ~IIdentity()</text>
<text text-anchor="start" x="115.001" y="-606.219" font-family="Monaco" font-size="10.00">+ id()</text>
</a>
</g>
</g>
<!-- Node3&#45;&gt;Node2 -->
<g id="edge2" class="edge"><title>Node3&#45;&gt;Node2</title>
<path fill="none" stroke="midnightblue" d="M181.012,-586.301C181.012,-577.948 181.012,-569.023 181.012,-559.965"/>
<polygon fill="none" stroke="midnightblue" points="177.512,-586.543 181.012,-596.543 184.512,-586.543 177.512,-586.543"/>
</g>
<!-- Node4 -->
<g id="node4" class="node"><title>Node4</title>
<g id="a_node4"><a xlink:href="class_hydro_couple_1_1_i_description.html" target="_top" xlink:title="IDescription interface class provides descriptive information on a HydroCouple object. ">
<polygon fill="none" stroke="black" points="98,-711.224 98,-828.568 264.024,-828.568 264.024,-711.224 98,-711.224"/>
<text text-anchor="middle" x="181.012" y="-816.568" font-family="Monaco" font-size="10.00">HydroCouple::IDescription</text>
<polyline fill="none" stroke="black" points="98,-807.233 264.024,-807.233 "/>
<text text-anchor="middle" x="181.012" y="-795.233" font-family="Monaco" font-size="10.00"> </text>
<polyline fill="none" stroke="black" points="98,-785.898 264.024,-785.898 "/>
<text text-anchor="start" x="106" y="-773.898" font-family="Monaco" font-size="10.00">+ ~IDescription()</text>
<text text-anchor="start" x="106" y="-760.563" font-family="Monaco" font-size="10.00">+ caption()</text>
<text text-anchor="start" x="106" y="-747.229" font-family="Monaco" font-size="10.00">+ setCaption()</text>
<text text-anchor="start" x="106" y="-733.894" font-family="Monaco" font-size="10.00">+ description()</text>
<text text-anchor="start" x="106" y="-720.559" font-family="Monaco" font-size="10.00">+ setDescription()</text>
</a>
</g>
</g>
<!-- Node4&#45;&gt;Node3 -->
<g id="edge3" class="edge"><title>Node4&#45;&gt;Node3</title>
<path fill="none" stroke="midnightblue" d="M181.012,-700.658C181.012,-691.619 181.012,-682.632 181.012,-674.371"/>
<polygon fill="none" stroke="midnightblue" points="177.512,-700.849 181.012,-710.849 184.512,-700.849 177.512,-700.849"/>
</g>
<!-- Node5 -->
<g id="node5" class="node"><title>Node5</title>
<g id="a_node5"><a xlink:href="class_hydro_couple_1_1_i_property_changed.html" target="_top" xlink:title="IPropertyChanged interface is used to emit signal/event when a property of an object changes...">
<polygon fill="none" stroke="black" points="85.998,-865.568 85.998,-929.573 276.026,-929.573 276.026,-865.568 85.998,-865.568"/>
<text text-anchor="middle" x="181.012" y="-917.573" font-family="Monaco" font-size="10.00">HydroCouple::IPropertyChanged</text>
<polyline fill="none" stroke="black" points="85.998,-908.238 276.026,-908.238 "/>
<text text-anchor="middle" x="181.012" y="-896.238" font-family="Monaco" font-size="10.00"> </text>
<polyline fill="none" stroke="black" points="85.998,-886.903 276.026,-886.903 "/>
<text text-anchor="start" x="93.998" y="-874.903" font-family="Monaco" font-size="10.00">+ ~IPropertyChanged()</text>
</a>
</g>
</g>
<!-- Node5&#45;&gt;Node4 -->
<g id="edge4" class="edge"><title>Node5&#45;&gt;Node4</title>
<path fill="none" stroke="midnightblue" d="M181.012,-855.248C181.012,-846.863 181.012,-837.896 181.012,-829.054"/>
<polygon fill="none" stroke="midnightblue" points="177.512,-855.505 181.012,-865.505 184.512,-855.505 177.512,-855.505"/>
</g>
</g>
</svg>
        <g id="navigator" transform="translate(0 0)" fill="#404254">
                <rect fill="#f2f5e9" fill-opacity="0.5" stroke="#606060" stroke-width=".5" x="0" y="0" width="60" height="60"/>
                <use id="zoomplus" xlink:href="#zoomPlus" x="17" y="9" onmousedown="handleZoom(evt,'in')"/>
                <use id="zoomminus" xlink:href="#zoomMin" x="42" y="9" onmousedown="handleZoom(evt,'out')"/>
                <use id="reset" xlink:href="#resetDef" x="30" y="36" onmousedown="handleReset()"/>
                <g id="arrowUp" xlink:href="#dirArrow" transform="translate(30 24)" onmousedown="handlePan(0,-1)">
                  <use xlink:href="#rim" fill="#404040">
                        <set attributeName="fill" to="#808080" begin="arrowUp.mouseover" end="arrowUp.mouseout"/>
                  </use>
                  <path fill="none" stroke="white" stroke-width="1.5" d="M0,-3.0v7 M-2.5,-0.5L0,-3.0L2.5,-0.5"/>
                </g>
                <g id="arrowRight" xlink:href="#dirArrow" transform="rotate(90) translate(36 -43)" onmousedown="handlePan(1,0)">
                  <use xlink:href="#rim" fill="#404040">
                        <set attributeName="fill" to="#808080" begin="arrowRight.mouseover" end="arrowRight.mouseout"/>
                  </use>
                  <path fill="none" stroke="white" stroke-width="1.5" d="M0,-3.0v7 M-2.5,-0.5L0,-3.0L2.5,-0.5"/>
                </g>
                <g id="arrowDown" xlink:href="#dirArrow" transform="rotate(180) translate(-30 -48)" onmousedown="handlePan(0,1)">
                  <use xlink:href="#rim" fill="#404040">
                        <set attributeName="fill" to="#808080" begin="arrowDown.mouseover" end="arrowDown.mouseout"/>
                  </use>
                  <path fill="none" stroke="white" stroke-width="1.5" d="M0,-3.0v7 M-2.5,-0.5L0,-3.0L2.5,-0.5"/>
                </g>
                <g id="arrowLeft" xlink:href="#dirArrow" transform="rotate(270) translate(-36 17)" onmousedown="handlePan(-1,0)">
                  <use xlink:href="#rim" fill="#404040">
                        <set attributeName="fill" to="#808080" begin="arrowLeft.mouseover" end="arrowLeft.mouseout"/>
                  </use>
                  <path fill="none" stroke="white" stroke-width="1.5" d="M0,-3.0v7 M-2.5,-0.5L0,-3.0L2.5,-0.5"/>
                </g>
        </g>
        <svg viewBox="0 0 15 15" width="100%" height="30px" preserveAspectRatio="xMaxYMin meet">
         <g id="arrow_out" transform="scale(0.3 0.3)">
          <a xlink:href="class_hydro_couple_1_1_temporal_1_1_i_time_id_based_component_data_item__inherit__graph_org.svg" target="_base">
           <rect id="button" ry="5" rx="5" y="6" x="6" height="38" width="38"
                fill="#f2f5e9" fill-opacity="0.5" stroke="#606060" stroke-width="1.0"/>
           <path id="arrow"
             d="M 11.500037,31.436501 C 11.940474,20.09759 22.043105,11.32322 32.158766,21.979434 L 37.068811,17.246167 C 37.068811,17.246167 37.088388,32 37.088388,32 L 22.160133,31.978069 C 22.160133,31.978069 26.997745,27.140456 26.997745,27.140456 C 18.528582,18.264221 13.291696,25.230495 11.500037,31.436501 z"
             style="fill:#404040;"/>
          </a>
         </g>
        </svg>
</svg>
