<?xml version="1.0" encoding="UTF-8" standalone="no"?>
<!DOCTYPE svg PUBLIC "-//W3C//DTD SVG 1.1//EN"
 "http://www.w3.org/Graphics/SVG/1.1/DTD/svg11.dtd">
<!-- Generated by graphviz version 2.38.0 (20140413.2041)
 -->
<!-- Title: HydroCoupleSDK::Identity::id Pages: 1 -->
<svg width="614pt" height="57pt"
 viewBox="0.00 0.00 614.08 57.00" xmlns="http://www.w3.org/2000/svg" xmlns:xlink="http://www.w3.org/1999/xlink">
<g id="graph0" class="graph" transform="scale(1 1) rotate(0) translate(4 53.0049)">
<title>HydroCoupleSDK::Identity::id</title>
<polygon fill="white" stroke="none" points="-4,4 -4,-53.0049 610.079,-53.0049 610.079,4 -4,4"/>
<!-- Node1 -->
<g id="node1" class="node"><title>Node1</title>
<polygon fill="#bfbfbf" stroke="black" points="0,-13.835 0,-35.1699 184.027,-35.1699 184.027,-13.835 0,-13.835"/>
<text text-anchor="middle" x="92.0137" y="-23.1699" font-family="Monaco" font-size="10.00">HydroCoupleSDK::Identity::id</text>
</g>
<!-- Node2 -->
<g id="node2" class="node"><title>Node2</title>
<g id="a_node2"><a xlink:href="class_hydro_couple_s_d_k_1_1_identity.html#a30931aecbd238c1801b9a8ffa7351bed" target="_top" xlink:title="setId ">
<polygon fill="white" stroke="black" points="220.027,-7.16748 220.027,-41.8374 380.051,-41.8374 380.051,-7.16748 220.027,-7.16748"/>
<text text-anchor="start" x="228.027" y="-29.8374" font-family="Monaco" font-size="10.00">HydroCoupleSDK::Identity</text>
<text text-anchor="middle" x="300.039" y="-16.5024" font-family="Monaco" font-size="10.00">::setId</text>
</a>
</g>
</g>
<!-- Node1&#45;&gt;Node2 -->
<g id="edge1" class="edge"><title>Node1&#45;&gt;Node2</title>
<path fill="none" stroke="midnightblue" d="M194.304,-24.5024C202.863,-24.5024 211.437,-24.5024 219.791,-24.5024"/>
<polygon fill="midnightblue" stroke="midnightblue" points="194.279,-21.0025 184.279,-24.5024 194.279,-28.0025 194.279,-21.0025"/>
</g>
<!-- Node3 -->
<g id="node3" class="node"><title>Node3</title>
<g id="a_node3"><a xlink:href="class_hydro_couple_s_d_k_1_1_abstract_model_component.html#ac42477c253e82a0dbb9cf2595c4e3542" target="_top" xlink:title="AbstractModelComponent. ">
<polygon fill="white" stroke="black" points="416.051,-0.5 416.051,-48.5049 606.079,-48.5049 606.079,-0.5 416.051,-0.5"/>
<text text-anchor="start" x="424.051" y="-36.5049" font-family="Monaco" font-size="10.00">HydroCoupleSDK::Abstract</text>
<text text-anchor="start" x="424.051" y="-23.1699" font-family="Monaco" font-size="10.00">ModelComponent::AbstractModel</text>
<text text-anchor="middle" x="511.065" y="-9.83496" font-family="Monaco" font-size="10.00">Component</text>
</a>
</g>
</g>
<!-- Node2&#45;&gt;Node3 -->
<g id="edge2" class="edge"><title>Node2&#45;&gt;Node3</title>
<path fill="none" stroke="midnightblue" d="M390.287,-24.5024C398.736,-24.5024 407.322,-24.5024 415.816,-24.5024"/>
<polygon fill="midnightblue" stroke="midnightblue" points="390.063,-21.0025 380.063,-24.5024 390.063,-28.0025 390.063,-21.0025"/>
</g>
</g>
</svg>
