<?xml version="1.0" encoding="UTF-8" standalone="no"?>
<!DOCTYPE svg PUBLIC "-//W3C//DTD SVG 1.1//EN"
 "http://www.w3.org/Graphics/SVG/1.1/DTD/svg11.dtd">
<!-- Generated by graphviz version 2.38.0 (20140413.2041)
 -->
<!-- Title: HydroCouple::IValueSet Pages: 1 -->
<!--zoomable 643 -->
<svg id="main" version="1.1" xmlns="http://www.w3.org/2000/svg" xmlns:xlink="http://www.w3.org/1999/xlink" xml:space="preserve" onload="init(evt)">
<style type="text/css"><![CDATA[
.edge:hover path { stroke: red; }
.edge:hover polygon { stroke: red; fill: red; }
]]></style>
<script type="text/javascript"><![CDATA[
var edges = document.getElementsByTagName('g');
if (edges && edges.length) {
  for (var i=0;i<edges.length;i++) {
    if (edges[i].id.substr(0,4)=='edge') {
      edges[i].setAttribute('class','edge');
    }
  }
}
]]></script>
        <defs>
                <circle id="rim" cx="0" cy="0" r="7"/>
                <circle id="rim2" cx="0" cy="0" r="3.5"/>
                <g id="zoomPlus">
                        <use xlink:href="#rim" fill="#404040">
                                <set attributeName="fill" to="#808080" begin="zoomplus.mouseover" end="zoomplus.mouseout"/>
                        </use>
                        <path d="M-4,0h8M0,-4v8" fill="none" stroke="white" stroke-width="1.5" pointer-events="none"/>
                </g>
                <g id="zoomMin">
                        <use xlink:href="#rim" fill="#404040">
                                <set attributeName="fill" to="#808080" begin="zoomminus.mouseover" end="zoomminus.mouseout"/>
                        </use>
                        <path d="M-4,0h8" fill="none" stroke="white" stroke-width="1.5" pointer-events="none"/>
                </g>
                <g id="dirArrow">
                        <path fill="none" stroke="white" stroke-width="1.5" d="M0,-3.0v7 M-2.5,-0.5L0,-3.0L2.5,-0.5"/>
                </g>
               <g id="resetDef">
                       <use xlink:href="#rim2" fill="#404040">
                               <set attributeName="fill" to="#808080" begin="reset.mouseover" end="reset.mouseout"/>
                       </use>
               </g>
        </defs>

<script type="text/javascript">
var viewWidth = 2872;
var viewHeight = 643;
var sectionId = 'dynsection-0';
</script>
<script xlink:href="svgpan.js"/>
<svg id="graph" class="graph">
<g id="viewport">
<title>HydroCouple::IValueSet</title>
<polygon fill="white" stroke="none" points="-4,4 -4,-638.719 2868.02,-638.719 2868.02,4 -4,4"/>
<!-- Node1 -->
<g id="node1" class="node"><title>Node1</title>
<polygon fill="#bfbfbf" stroke="black" points="1314,-208.185 1314,-378.869 1462.02,-378.869 1462.02,-208.185 1314,-208.185"/>
<text text-anchor="middle" x="1388.01" y="-366.869" font-family="Monaco" font-size="10.00">HydroCouple::IValueSet</text>
<polyline fill="none" stroke="black" points="1314,-357.534 1462.02,-357.534 "/>
<text text-anchor="middle" x="1388.01" y="-345.534" font-family="Monaco" font-size="10.00"> </text>
<polyline fill="none" stroke="black" points="1314,-336.199 1462.02,-336.199 "/>
<text text-anchor="start" x="1322" y="-324.199" font-family="Monaco" font-size="10.00">+ ~IValueSet()</text>
<text text-anchor="start" x="1322" y="-310.864" font-family="Monaco" font-size="10.00">+ componentItem()</text>
<text text-anchor="start" x="1322" y="-297.529" font-family="Monaco" font-size="10.00">+ getValue()</text>
<text text-anchor="start" x="1322" y="-284.194" font-family="Monaco" font-size="10.00">+ getValues()</text>
<text text-anchor="start" x="1322" y="-270.859" font-family="Monaco" font-size="10.00">+ getValues()</text>
<text text-anchor="start" x="1322" y="-257.524" font-family="Monaco" font-size="10.00">+ setValue()</text>
<text text-anchor="start" x="1322" y="-244.189" font-family="Monaco" font-size="10.00">+ setValues()</text>
<text text-anchor="start" x="1322" y="-230.854" font-family="Monaco" font-size="10.00">+ setValues()</text>
<text text-anchor="start" x="1322" y="-217.52" font-family="Monaco" font-size="10.00">+ valueDefinition()</text>
</g>
<!-- Node4 -->
<g id="node4" class="node"><title>Node4</title>
<g id="a_node4"><a xlink:href="class_hydro_couple_1_1_i_id_based_value_set.html" target="_top" xlink:title="The IIdBasedValueSet class. ">
<polygon fill="white" stroke="black" points="0,-7.16748 0,-164.517 190.028,-164.517 190.028,-7.16748 0,-7.16748"/>
<text text-anchor="middle" x="95.0142" y="-152.517" font-family="Monaco" font-size="10.00">HydroCouple::IIdBasedValueSet</text>
<polyline fill="none" stroke="black" points="0,-143.182 190.028,-143.182 "/>
<text text-anchor="middle" x="95.0142" y="-131.182" font-family="Monaco" font-size="10.00"> </text>
<polyline fill="none" stroke="black" points="0,-121.847 190.028,-121.847 "/>
<text text-anchor="start" x="8" y="-109.847" font-family="Monaco" font-size="10.00">+ ~IIdBasedValueSet()</text>
<text text-anchor="start" x="8" y="-96.5122" font-family="Monaco" font-size="10.00">+ idComponentItem()</text>
<text text-anchor="start" x="8" y="-83.1772" font-family="Monaco" font-size="10.00">+ getValue()</text>
<text text-anchor="start" x="8" y="-69.8423" font-family="Monaco" font-size="10.00">+ getValues()</text>
<text text-anchor="start" x="8" y="-56.5073" font-family="Monaco" font-size="10.00">+ getValues()</text>
<text text-anchor="start" x="8" y="-43.1724" font-family="Monaco" font-size="10.00">+ setValue()</text>
<text text-anchor="start" x="8" y="-29.8374" font-family="Monaco" font-size="10.00">+ setValues()</text>
<text text-anchor="start" x="8" y="-16.5024" font-family="Monaco" font-size="10.00">+ setValues()</text>
</a>
</g>
</g>
<!-- Node1&#45;&gt;Node4 -->
<g id="edge3" class="edge"><title>Node1&#45;&gt;Node4</title>
<path fill="none" stroke="midnightblue" d="M1303.65,-290.223C1066.74,-282.773 399.579,-254.783 199.014,-171.685 194.063,-169.633 189.162,-167.266 184.342,-164.655"/>
<polygon fill="none" stroke="midnightblue" points="1303.83,-293.73 1313.93,-290.542 1304.04,-286.734 1303.83,-293.73"/>
</g>
<!-- Node5 -->
<g id="node5" class="node"><title>Node5</title>
<g id="a_node5"><a xlink:href="class_hydro_couple_1_1_spatial_1_1_i_geometry_value_set.html" target="_top" xlink:title="The IGeometryValueSet class. ">
<polygon fill="white" stroke="black" points="208.002,-0.5 208.002,-171.185 374.026,-171.185 374.026,-0.5 208.002,-0.5"/>
<text text-anchor="start" x="216.002" y="-159.185" font-family="Monaco" font-size="10.00">HydroCouple::Spatial</text>
<text text-anchor="middle" x="291.014" y="-145.85" font-family="Monaco" font-size="10.00">::IGeometryValueSet</text>
<polyline fill="none" stroke="black" points="208.002,-136.515 374.026,-136.515 "/>
<text text-anchor="middle" x="291.014" y="-124.515" font-family="Monaco" font-size="10.00"> </text>
<polyline fill="none" stroke="black" points="208.002,-115.18 374.026,-115.18 "/>
<text text-anchor="start" x="216.002" y="-103.18" font-family="Monaco" font-size="10.00">+ ~IGeometryValueSet()</text>
<text text-anchor="start" x="216.002" y="-89.8447" font-family="Monaco" font-size="10.00">+ geometryComponentItem()</text>
<text text-anchor="start" x="216.002" y="-76.5098" font-family="Monaco" font-size="10.00">+ getValue()</text>
<text text-anchor="start" x="216.002" y="-63.1748" font-family="Monaco" font-size="10.00">+ getValues()</text>
<text text-anchor="start" x="216.002" y="-49.8398" font-family="Monaco" font-size="10.00">+ getValues()</text>
<text text-anchor="start" x="216.002" y="-36.5049" font-family="Monaco" font-size="10.00">+ setValue()</text>
<text text-anchor="start" x="216.002" y="-23.1699" font-family="Monaco" font-size="10.00">+ setValues()</text>
<text text-anchor="start" x="216.002" y="-9.83496" font-family="Monaco" font-size="10.00">+ setValues()</text>
</a>
</g>
</g>
<!-- Node1&#45;&gt;Node5 -->
<g id="edge4" class="edge"><title>Node1&#45;&gt;Node5</title>
<path fill="none" stroke="midnightblue" d="M1303.77,-289.038C1092.73,-279.249 546.586,-247.159 383.014,-171.685 380.055,-170.319 377.127,-168.822 374.236,-167.215"/>
<polygon fill="none" stroke="midnightblue" points="1303.72,-292.539 1313.87,-289.501 1304.04,-285.546 1303.72,-292.539"/>
</g>
<!-- Node6 -->
<g id="node6" class="node"><title>Node6</title>
<g id="a_node6"><a xlink:href="class_hydro_couple_1_1_spatial_1_1_i_polyhedral_surface_value_set.html" target="_top" xlink:title="The IPolyhedralSurfaceValueSet class. ">
<polygon fill="white" stroke="black" points="391.998,-0.5 391.998,-171.185 612.031,-171.185 612.031,-0.5 391.998,-0.5"/>
<text text-anchor="start" x="399.998" y="-159.185" font-family="Monaco" font-size="10.00">HydroCouple::Spatial</text>
<text text-anchor="middle" x="502.014" y="-145.85" font-family="Monaco" font-size="10.00">::IPolyhedralSurfaceValueSet</text>
<polyline fill="none" stroke="black" points="391.998,-136.515 612.031,-136.515 "/>
<text text-anchor="middle" x="502.014" y="-124.515" font-family="Monaco" font-size="10.00"> </text>
<polyline fill="none" stroke="black" points="391.998,-115.18 612.031,-115.18 "/>
<text text-anchor="start" x="399.998" y="-103.18" font-family="Monaco" font-size="10.00">+ ~IPolyhedralSurfaceValueSet()</text>
<text text-anchor="start" x="399.998" y="-89.8447" font-family="Monaco" font-size="10.00">+ polyhedralSurfaceComponentItem()</text>
<text text-anchor="start" x="399.998" y="-76.5098" font-family="Monaco" font-size="10.00">+ getValue()</text>
<text text-anchor="start" x="399.998" y="-63.1748" font-family="Monaco" font-size="10.00">+ getValues()</text>
<text text-anchor="start" x="399.998" y="-49.8398" font-family="Monaco" font-size="10.00">+ getValues()</text>
<text text-anchor="start" x="399.998" y="-36.5049" font-family="Monaco" font-size="10.00">+ setValue()</text>
<text text-anchor="start" x="399.998" y="-23.1699" font-family="Monaco" font-size="10.00">+ setValues()</text>
<text text-anchor="start" x="399.998" y="-9.83496" font-family="Monaco" font-size="10.00">+ setValues()</text>
</a>
</g>
</g>
<!-- Node1&#45;&gt;Node6 -->
<g id="edge5" class="edge"><title>Node1&#45;&gt;Node6</title>
<path fill="none" stroke="midnightblue" d="M1303.76,-291.755C1158.87,-287.741 855.455,-267.455 621.014,-171.685 618.078,-170.485 615.145,-169.201 612.222,-167.842"/>
<polygon fill="none" stroke="midnightblue" points="1303.83,-295.258 1313.92,-292.017 1304.01,-288.261 1303.83,-295.258"/>
</g>
<!-- Node7 -->
<g id="node7" class="node"><title>Node7</title>
<g id="a_node7"><a xlink:href="class_hydro_couple_1_1_spatial_1_1_i_raster_value_set.html" target="_top" xlink:title="The IRasterValueSet class. ">
<polygon fill="white" stroke="black" points="630.003,-0.5 630.003,-171.185 784.025,-171.185 784.025,-0.5 630.003,-0.5"/>
<text text-anchor="start" x="638.003" y="-159.185" font-family="Monaco" font-size="10.00">HydroCouple::Spatial</text>
<text text-anchor="middle" x="707.014" y="-145.85" font-family="Monaco" font-size="10.00">::IRasterValueSet</text>
<polyline fill="none" stroke="black" points="630.003,-136.515 784.025,-136.515 "/>
<text text-anchor="middle" x="707.014" y="-124.515" font-family="Monaco" font-size="10.00"> </text>
<polyline fill="none" stroke="black" points="630.003,-115.18 784.025,-115.18 "/>
<text text-anchor="start" x="638.003" y="-103.18" font-family="Monaco" font-size="10.00">+ ~IRasterValueSet()</text>
<text text-anchor="start" x="638.003" y="-89.8447" font-family="Monaco" font-size="10.00">+ rasterComponentItem()</text>
<text text-anchor="start" x="638.003" y="-76.5098" font-family="Monaco" font-size="10.00">+ getValue()</text>
<text text-anchor="start" x="638.003" y="-63.1748" font-family="Monaco" font-size="10.00">+ getValues()</text>
<text text-anchor="start" x="638.003" y="-49.8398" font-family="Monaco" font-size="10.00">+ getValues()</text>
<text text-anchor="start" x="638.003" y="-36.5049" font-family="Monaco" font-size="10.00">+ setValue()</text>
<text text-anchor="start" x="638.003" y="-23.1699" font-family="Monaco" font-size="10.00">+ setValues()</text>
<text text-anchor="start" x="638.003" y="-9.83496" font-family="Monaco" font-size="10.00">+ setValues()</text>
</a>
</g>
</g>
<!-- Node1&#45;&gt;Node7 -->
<g id="edge6" class="edge"><title>Node1&#45;&gt;Node7</title>
<path fill="none" stroke="midnightblue" d="M1303.68,-290.361C1183.56,-284.076 959.341,-260.294 793.014,-171.685 790.052,-170.107 787.125,-168.395 784.239,-166.572"/>
<polygon fill="none" stroke="midnightblue" points="1303.75,-293.869 1313.91,-290.867 1304.1,-286.878 1303.75,-293.869"/>
</g>
<!-- Node8 -->
<g id="node8" class="node"><title>Node8</title>
<g id="a_node8"><a xlink:href="class_hydro_couple_1_1_spatial_1_1_i_regular_grid2_d_value_set.html" target="_top" xlink:title="The IRegularGrid2DValueSet class. ">
<polygon fill="white" stroke="black" points="802,-0.5 802,-171.185 998.029,-171.185 998.029,-0.5 802,-0.5"/>
<text text-anchor="start" x="810" y="-159.185" font-family="Monaco" font-size="10.00">HydroCouple::Spatial</text>
<text text-anchor="middle" x="900.014" y="-145.85" font-family="Monaco" font-size="10.00">::IRegularGrid2DValueSet</text>
<polyline fill="none" stroke="black" points="802,-136.515 998.029,-136.515 "/>
<text text-anchor="middle" x="900.014" y="-124.515" font-family="Monaco" font-size="10.00"> </text>
<polyline fill="none" stroke="black" points="802,-115.18 998.029,-115.18 "/>
<text text-anchor="start" x="810" y="-103.18" font-family="Monaco" font-size="10.00">+ ~IRegularGrid2DValueSet()</text>
<text text-anchor="start" x="810" y="-89.8447" font-family="Monaco" font-size="10.00">+ regularGrid2DComponentItem()</text>
<text text-anchor="start" x="810" y="-76.5098" font-family="Monaco" font-size="10.00">+ getValue()</text>
<text text-anchor="start" x="810" y="-63.1748" font-family="Monaco" font-size="10.00">+ getValues()</text>
<text text-anchor="start" x="810" y="-49.8398" font-family="Monaco" font-size="10.00">+ getValues()</text>
<text text-anchor="start" x="810" y="-36.5049" font-family="Monaco" font-size="10.00">+ setValue()</text>
<text text-anchor="start" x="810" y="-23.1699" font-family="Monaco" font-size="10.00">+ setValues()</text>
<text text-anchor="start" x="810" y="-9.83496" font-family="Monaco" font-size="10.00">+ setValues()</text>
</a>
</g>
</g>
<!-- Node1&#45;&gt;Node8 -->
<g id="edge7" class="edge"><title>Node1&#45;&gt;Node8</title>
<path fill="none" stroke="midnightblue" d="M1303.99,-275.166C1224.39,-256.612 1103.08,-222.773 1007.01,-171.685 1004.08,-170.126 1001.15,-168.484 998.233,-166.773"/>
<polygon fill="none" stroke="midnightblue" points="1303.44,-278.631 1313.97,-277.463 1305.01,-271.809 1303.44,-278.631"/>
</g>
<!-- Node9 -->
<g id="node9" class="node"><title>Node9</title>
<g id="a_node9"><a xlink:href="class_hydro_couple_1_1_spatial_1_1_i_regular_grid3_d_value_set.html" target="_top" xlink:title="The IRegularGrid3DValueSet class. ">
<polygon fill="white" stroke="black" points="1016,-0.5 1016,-171.185 1212.03,-171.185 1212.03,-0.5 1016,-0.5"/>
<text text-anchor="start" x="1024" y="-159.185" font-family="Monaco" font-size="10.00">HydroCouple::Spatial</text>
<text text-anchor="middle" x="1114.01" y="-145.85" font-family="Monaco" font-size="10.00">::IRegularGrid3DValueSet</text>
<polyline fill="none" stroke="black" points="1016,-136.515 1212.03,-136.515 "/>
<text text-anchor="middle" x="1114.01" y="-124.515" font-family="Monaco" font-size="10.00"> </text>
<polyline fill="none" stroke="black" points="1016,-115.18 1212.03,-115.18 "/>
<text text-anchor="start" x="1024" y="-103.18" font-family="Monaco" font-size="10.00">+ ~IRegularGrid3DValueSet()</text>
<text text-anchor="start" x="1024" y="-89.8447" font-family="Monaco" font-size="10.00">+ regularGrid3DComponentItem()</text>
<text text-anchor="start" x="1024" y="-76.5098" font-family="Monaco" font-size="10.00">+ getValue()</text>
<text text-anchor="start" x="1024" y="-63.1748" font-family="Monaco" font-size="10.00">+ getValues()</text>
<text text-anchor="start" x="1024" y="-49.8398" font-family="Monaco" font-size="10.00">+ getValues()</text>
<text text-anchor="start" x="1024" y="-36.5049" font-family="Monaco" font-size="10.00">+ setValue()</text>
<text text-anchor="start" x="1024" y="-23.1699" font-family="Monaco" font-size="10.00">+ setValues()</text>
<text text-anchor="start" x="1024" y="-9.83496" font-family="Monaco" font-size="10.00">+ setValues()</text>
</a>
</g>
</g>
<!-- Node1&#45;&gt;Node9 -->
<g id="edge8" class="edge"><title>Node1&#45;&gt;Node9</title>
<path fill="none" stroke="midnightblue" d="M1305.61,-233.994C1278.48,-214.433 1248.29,-192.348 1221.01,-171.685 1218.09,-169.465 1215.12,-167.204 1212.13,-164.913"/>
<polygon fill="none" stroke="midnightblue" points="1303.77,-236.978 1313.93,-239.98 1307.86,-231.297 1303.77,-236.978"/>
</g>
<!-- Node10 -->
<g id="node10" class="node"><title>Node10</title>
<g id="a_node10"><a xlink:href="class_hydro_couple_1_1_spatial_1_1_i_t_i_n_value_set.html" target="_top" xlink:title="The ITINValueSet class. ">
<polygon fill="white" stroke="black" points="1230,-0.5 1230,-171.185 1366.02,-171.185 1366.02,-0.5 1230,-0.5"/>
<text text-anchor="start" x="1238" y="-159.185" font-family="Monaco" font-size="10.00">HydroCouple::Spatial</text>
<text text-anchor="middle" x="1298.01" y="-145.85" font-family="Monaco" font-size="10.00">::ITINValueSet</text>
<polyline fill="none" stroke="black" points="1230,-136.515 1366.02,-136.515 "/>
<text text-anchor="middle" x="1298.01" y="-124.515" font-family="Monaco" font-size="10.00"> </text>
<polyline fill="none" stroke="black" points="1230,-115.18 1366.02,-115.18 "/>
<text text-anchor="start" x="1238" y="-103.18" font-family="Monaco" font-size="10.00">+ ~ITINValueSet()</text>
<text text-anchor="start" x="1238" y="-89.8447" font-family="Monaco" font-size="10.00">+ TINComponentItem()</text>
<text text-anchor="start" x="1238" y="-76.5098" font-family="Monaco" font-size="10.00">+ getValue()</text>
<text text-anchor="start" x="1238" y="-63.1748" font-family="Monaco" font-size="10.00">+ getValues()</text>
<text text-anchor="start" x="1238" y="-49.8398" font-family="Monaco" font-size="10.00">+ getValues()</text>
<text text-anchor="start" x="1238" y="-36.5049" font-family="Monaco" font-size="10.00">+ setValue()</text>
<text text-anchor="start" x="1238" y="-23.1699" font-family="Monaco" font-size="10.00">+ setValues()</text>
<text text-anchor="start" x="1238" y="-9.83496" font-family="Monaco" font-size="10.00">+ setValues()</text>
</a>
</g>
</g>
<!-- Node1&#45;&gt;Node10 -->
<g id="edge9" class="edge"><title>Node1&#45;&gt;Node10</title>
<path fill="none" stroke="midnightblue" d="M1346.91,-198.578C1342.94,-189.516 1338.93,-180.36 1335.01,-171.397"/>
<polygon fill="none" stroke="midnightblue" points="1343.8,-200.218 1351.02,-207.977 1350.22,-197.412 1343.8,-200.218"/>
</g>
<!-- Node11 -->
<g id="node11" class="node"><title>Node11</title>
<g id="a_node11"><a xlink:href="class_hydro_couple_1_1_spatio_temporal_1_1_i_time_geometry_value_set.html" target="_top" xlink:title="The ITimeGeometryValueSet class. ">
<polygon fill="white" stroke="black" points="1384,-0.5 1384,-171.185 1574.03,-171.185 1574.03,-0.5 1384,-0.5"/>
<text text-anchor="start" x="1392" y="-159.185" font-family="Monaco" font-size="10.00">HydroCouple::SpatioTemporal</text>
<text text-anchor="middle" x="1479.01" y="-145.85" font-family="Monaco" font-size="10.00">::ITimeGeometryValueSet</text>
<polyline fill="none" stroke="black" points="1384,-136.515 1574.03,-136.515 "/>
<text text-anchor="middle" x="1479.01" y="-124.515" font-family="Monaco" font-size="10.00"> </text>
<polyline fill="none" stroke="black" points="1384,-115.18 1574.03,-115.18 "/>
<text text-anchor="start" x="1392" y="-103.18" font-family="Monaco" font-size="10.00">+ ~ITimeGeometryValueSet()</text>
<text text-anchor="start" x="1392" y="-89.8447" font-family="Monaco" font-size="10.00">+ timeGeometryComponentItem()</text>
<text text-anchor="start" x="1392" y="-76.5098" font-family="Monaco" font-size="10.00">+ getValue()</text>
<text text-anchor="start" x="1392" y="-63.1748" font-family="Monaco" font-size="10.00">+ getValues()</text>
<text text-anchor="start" x="1392" y="-49.8398" font-family="Monaco" font-size="10.00">+ getValues()</text>
<text text-anchor="start" x="1392" y="-36.5049" font-family="Monaco" font-size="10.00">+ setValue()</text>
<text text-anchor="start" x="1392" y="-23.1699" font-family="Monaco" font-size="10.00">+ setValues()</text>
<text text-anchor="start" x="1392" y="-9.83496" font-family="Monaco" font-size="10.00">+ setValues()</text>
</a>
</g>
</g>
<!-- Node1&#45;&gt;Node11 -->
<g id="edge10" class="edge"><title>Node1&#45;&gt;Node11</title>
<path fill="none" stroke="midnightblue" d="M1429.58,-198.578C1433.59,-189.516 1437.64,-180.36 1441.61,-171.397"/>
<polygon fill="none" stroke="midnightblue" points="1426.27,-197.416 1425.42,-207.977 1432.67,-200.248 1426.27,-197.416"/>
</g>
<!-- Node12 -->
<g id="node12" class="node"><title>Node12</title>
<g id="a_node12"><a xlink:href="class_hydro_couple_1_1_spatio_temporal_1_1_i_time_polyhedral_surface_value_set.html" target="_top" xlink:title="The ITimePolyhedralSurfaceValueSet class,. ">
<polygon fill="white" stroke="black" points="1592,-0.5 1592,-171.185 1836.03,-171.185 1836.03,-0.5 1592,-0.5"/>
<text text-anchor="start" x="1600" y="-159.185" font-family="Monaco" font-size="10.00">HydroCouple::SpatioTemporal</text>
<text text-anchor="middle" x="1714.01" y="-145.85" font-family="Monaco" font-size="10.00">::ITimePolyhedralSurfaceValueSet</text>
<polyline fill="none" stroke="black" points="1592,-136.515 1836.03,-136.515 "/>
<text text-anchor="middle" x="1714.01" y="-124.515" font-family="Monaco" font-size="10.00"> </text>
<polyline fill="none" stroke="black" points="1592,-115.18 1836.03,-115.18 "/>
<text text-anchor="start" x="1600" y="-103.18" font-family="Monaco" font-size="10.00">+ ITimePolyhedralSurfaceValueSet()</text>
<text text-anchor="start" x="1600" y="-89.8447" font-family="Monaco" font-size="10.00">+ timePolyhedralSurfaceComponentItem()</text>
<text text-anchor="start" x="1600" y="-76.5098" font-family="Monaco" font-size="10.00">+ getValue()</text>
<text text-anchor="start" x="1600" y="-63.1748" font-family="Monaco" font-size="10.00">+ getValues()</text>
<text text-anchor="start" x="1600" y="-49.8398" font-family="Monaco" font-size="10.00">+ getValues()</text>
<text text-anchor="start" x="1600" y="-36.5049" font-family="Monaco" font-size="10.00">+ setValue()</text>
<text text-anchor="start" x="1600" y="-23.1699" font-family="Monaco" font-size="10.00">+ setValues()</text>
<text text-anchor="start" x="1600" y="-9.83496" font-family="Monaco" font-size="10.00">+ setValues()</text>
</a>
</g>
</g>
<!-- Node1&#45;&gt;Node12 -->
<g id="edge11" class="edge"><title>Node1&#45;&gt;Node12</title>
<path fill="none" stroke="midnightblue" d="M1471,-241.605C1505.71,-220.174 1546.42,-194.872 1583.01,-171.685 1585.88,-169.872 1588.77,-168.034 1591.69,-166.177"/>
<polygon fill="none" stroke="midnightblue" points="1468.98,-238.737 1462.31,-246.967 1472.66,-244.695 1468.98,-238.737"/>
</g>
<!-- Node13 -->
<g id="node13" class="node"><title>Node13</title>
<g id="a_node13"><a xlink:href="class_hydro_couple_1_1_spatio_temporal_1_1_i_time_raster_value_set.html" target="_top" xlink:title="The ITimeRasterValueSet class. ">
<polygon fill="white" stroke="black" points="1854,-0.5 1854,-171.185 2032.03,-171.185 2032.03,-0.5 1854,-0.5"/>
<text text-anchor="start" x="1862" y="-159.185" font-family="Monaco" font-size="10.00">HydroCouple::SpatioTemporal</text>
<text text-anchor="middle" x="1943.01" y="-145.85" font-family="Monaco" font-size="10.00">::ITimeRasterValueSet</text>
<polyline fill="none" stroke="black" points="1854,-136.515 2032.03,-136.515 "/>
<text text-anchor="middle" x="1943.01" y="-124.515" font-family="Monaco" font-size="10.00"> </text>
<polyline fill="none" stroke="black" points="1854,-115.18 2032.03,-115.18 "/>
<text text-anchor="start" x="1862" y="-103.18" font-family="Monaco" font-size="10.00">+ ~ITimeRasterValueSet()</text>
<text text-anchor="start" x="1862" y="-89.8447" font-family="Monaco" font-size="10.00">+ timeRasterComponentItem()</text>
<text text-anchor="start" x="1862" y="-76.5098" font-family="Monaco" font-size="10.00">+ getValue()</text>
<text text-anchor="start" x="1862" y="-63.1748" font-family="Monaco" font-size="10.00">+ getValues()</text>
<text text-anchor="start" x="1862" y="-49.8398" font-family="Monaco" font-size="10.00">+ getValues()</text>
<text text-anchor="start" x="1862" y="-36.5049" font-family="Monaco" font-size="10.00">+ setValue()</text>
<text text-anchor="start" x="1862" y="-23.1699" font-family="Monaco" font-size="10.00">+ setValues()</text>
<text text-anchor="start" x="1862" y="-9.83496" font-family="Monaco" font-size="10.00">+ setValues()</text>
</a>
</g>
</g>
<!-- Node1&#45;&gt;Node13 -->
<g id="edge12" class="edge"><title>Node1&#45;&gt;Node13</title>
<path fill="none" stroke="midnightblue" d="M1472.34,-281.932C1567.34,-267.407 1724.24,-235.488 1845.01,-171.685 1848,-170.108 1850.97,-168.424 1853.92,-166.652"/>
<polygon fill="none" stroke="midnightblue" points="1471.58,-278.507 1462.21,-283.451 1472.61,-285.43 1471.58,-278.507"/>
</g>
<!-- Node14 -->
<g id="node14" class="node"><title>Node14</title>
<g id="a_node14"><a xlink:href="class_hydro_couple_1_1_spatio_temporal_1_1_i_time_regular_grid2_d_value_set.html" target="_top" xlink:title="The ITimeRegularGrid2DValueSet class. ">
<polygon fill="white" stroke="black" points="2050,-0.5 2050,-171.185 2270.03,-171.185 2270.03,-0.5 2050,-0.5"/>
<text text-anchor="start" x="2058" y="-159.185" font-family="Monaco" font-size="10.00">HydroCouple::SpatioTemporal</text>
<text text-anchor="middle" x="2160.01" y="-145.85" font-family="Monaco" font-size="10.00">::ITimeRegularGrid2DValueSet</text>
<polyline fill="none" stroke="black" points="2050,-136.515 2270.03,-136.515 "/>
<text text-anchor="middle" x="2160.01" y="-124.515" font-family="Monaco" font-size="10.00"> </text>
<polyline fill="none" stroke="black" points="2050,-115.18 2270.03,-115.18 "/>
<text text-anchor="start" x="2058" y="-103.18" font-family="Monaco" font-size="10.00">+ ~ITimeRegularGrid2DValueSet()</text>
<text text-anchor="start" x="2058" y="-89.8447" font-family="Monaco" font-size="10.00">+ timeRegularGrid2DComponentItem()</text>
<text text-anchor="start" x="2058" y="-76.5098" font-family="Monaco" font-size="10.00">+ getValue()</text>
<text text-anchor="start" x="2058" y="-63.1748" font-family="Monaco" font-size="10.00">+ getValues()</text>
<text text-anchor="start" x="2058" y="-49.8398" font-family="Monaco" font-size="10.00">+ getValues()</text>
<text text-anchor="start" x="2058" y="-36.5049" font-family="Monaco" font-size="10.00">+ setValue()</text>
<text text-anchor="start" x="2058" y="-23.1699" font-family="Monaco" font-size="10.00">+ setValues()</text>
<text text-anchor="start" x="2058" y="-9.83496" font-family="Monaco" font-size="10.00">+ setValues()</text>
</a>
</g>
</g>
<!-- Node1&#45;&gt;Node14 -->
<g id="edge13" class="edge"><title>Node1&#45;&gt;Node14</title>
<path fill="none" stroke="midnightblue" d="M1472.62,-288.554C1600.43,-280.012 1848.28,-253.437 2041.01,-171.685 2043.93,-170.446 2046.85,-169.126 2049.76,-167.736"/>
<polygon fill="none" stroke="midnightblue" points="1472.25,-285.07 1462.5,-289.209 1472.7,-292.056 1472.25,-285.07"/>
</g>
<!-- Node15 -->
<g id="node15" class="node"><title>Node15</title>
<g id="a_node15"><a xlink:href="class_hydro_couple_1_1_spatio_temporal_1_1_i_time_regular_grid3_d_value_set.html" target="_top" xlink:title="The ITimeRegularGrid3DValueSet class. ">
<polygon fill="white" stroke="black" points="2288,-0.5 2288,-171.185 2508.03,-171.185 2508.03,-0.5 2288,-0.5"/>
<text text-anchor="start" x="2296" y="-159.185" font-family="Monaco" font-size="10.00">HydroCouple::SpatioTemporal</text>
<text text-anchor="middle" x="2398.01" y="-145.85" font-family="Monaco" font-size="10.00">::ITimeRegularGrid3DValueSet</text>
<polyline fill="none" stroke="black" points="2288,-136.515 2508.03,-136.515 "/>
<text text-anchor="middle" x="2398.01" y="-124.515" font-family="Monaco" font-size="10.00"> </text>
<polyline fill="none" stroke="black" points="2288,-115.18 2508.03,-115.18 "/>
<text text-anchor="start" x="2296" y="-103.18" font-family="Monaco" font-size="10.00">+ ~ITimeRegularGrid3DValueSet()</text>
<text text-anchor="start" x="2296" y="-89.8447" font-family="Monaco" font-size="10.00">+ timeRegularGrid3DComponentItem()</text>
<text text-anchor="start" x="2296" y="-76.5098" font-family="Monaco" font-size="10.00">+ getValue()</text>
<text text-anchor="start" x="2296" y="-63.1748" font-family="Monaco" font-size="10.00">+ getValues()</text>
<text text-anchor="start" x="2296" y="-49.8398" font-family="Monaco" font-size="10.00">+ getValues()</text>
<text text-anchor="start" x="2296" y="-36.5049" font-family="Monaco" font-size="10.00">+ setValue()</text>
<text text-anchor="start" x="2296" y="-23.1699" font-family="Monaco" font-size="10.00">+ setValues()</text>
<text text-anchor="start" x="2296" y="-9.83496" font-family="Monaco" font-size="10.00">+ setValues()</text>
</a>
</g>
</g>
<!-- Node1&#45;&gt;Node15 -->
<g id="edge14" class="edge"><title>Node1&#45;&gt;Node15</title>
<path fill="none" stroke="midnightblue" d="M1472.38,-286.279C1665.22,-271.166 2132.86,-229.565 2279.01,-171.685 2281.96,-170.517 2284.91,-169.261 2287.84,-167.928"/>
<polygon fill="none" stroke="midnightblue" points="1472,-282.798 1462.3,-287.065 1472.54,-289.777 1472,-282.798"/>
</g>
<!-- Node16 -->
<g id="node16" class="node"><title>Node16</title>
<g id="a_node16"><a xlink:href="class_hydro_couple_1_1_spatio_temporal_1_1_i_time_t_i_n_value_set.html" target="_top" xlink:title="The ITimeTINValueSet class. ">
<polygon fill="white" stroke="black" points="2526,-0.5 2526,-171.185 2704.03,-171.185 2704.03,-0.5 2526,-0.5"/>
<text text-anchor="start" x="2534" y="-159.185" font-family="Monaco" font-size="10.00">HydroCouple::SpatioTemporal</text>
<text text-anchor="middle" x="2615.01" y="-145.85" font-family="Monaco" font-size="10.00">::ITimeTINValueSet</text>
<polyline fill="none" stroke="black" points="2526,-136.515 2704.03,-136.515 "/>
<text text-anchor="middle" x="2615.01" y="-124.515" font-family="Monaco" font-size="10.00"> </text>
<polyline fill="none" stroke="black" points="2526,-115.18 2704.03,-115.18 "/>
<text text-anchor="start" x="2534" y="-103.18" font-family="Monaco" font-size="10.00">+ ITimeTINValueSet()</text>
<text text-anchor="start" x="2534" y="-89.8447" font-family="Monaco" font-size="10.00">+ timeTINComponentItem()</text>
<text text-anchor="start" x="2534" y="-76.5098" font-family="Monaco" font-size="10.00">+ getValue()</text>
<text text-anchor="start" x="2534" y="-63.1748" font-family="Monaco" font-size="10.00">+ getValues()</text>
<text text-anchor="start" x="2534" y="-49.8398" font-family="Monaco" font-size="10.00">+ getValues()</text>
<text text-anchor="start" x="2534" y="-36.5049" font-family="Monaco" font-size="10.00">+ setValue()</text>
<text text-anchor="start" x="2534" y="-23.1699" font-family="Monaco" font-size="10.00">+ setValues()</text>
<text text-anchor="start" x="2534" y="-9.83496" font-family="Monaco" font-size="10.00">+ setValues()</text>
</a>
</g>
</g>
<!-- Node1&#45;&gt;Node16 -->
<g id="edge15" class="edge"><title>Node1&#45;&gt;Node16</title>
<path fill="none" stroke="midnightblue" d="M1472.61,-289.988C1701.62,-282.091 2329.07,-253.394 2517.01,-171.685 2520.01,-170.384 2522.97,-168.958 2525.91,-167.426"/>
<polygon fill="none" stroke="midnightblue" points="1472.21,-286.499 1462.33,-290.337 1472.45,-293.495 1472.21,-286.499"/>
</g>
<!-- Node17 -->
<g id="node17" class="node"><title>Node17</title>
<g id="a_node17"><a xlink:href="class_hydro_couple_1_1_temporal_1_1_i_time_value_set.html" target="_top" xlink:title="The ITimeValueSet class is a time varying IValueSet class. ">
<polygon fill="white" stroke="black" points="2722,-0.5 2722,-171.185 2864.02,-171.185 2864.02,-0.5 2722,-0.5"/>
<text text-anchor="start" x="2730" y="-159.185" font-family="Monaco" font-size="10.00">HydroCouple::Temporal</text>
<text text-anchor="middle" x="2793.01" y="-145.85" font-family="Monaco" font-size="10.00">::ITimeValueSet</text>
<polyline fill="none" stroke="black" points="2722,-136.515 2864.02,-136.515 "/>
<text text-anchor="middle" x="2793.01" y="-124.515" font-family="Monaco" font-size="10.00"> </text>
<polyline fill="none" stroke="black" points="2722,-115.18 2864.02,-115.18 "/>
<text text-anchor="start" x="2730" y="-103.18" font-family="Monaco" font-size="10.00">+ ~ITimeValueSet()</text>
<text text-anchor="start" x="2730" y="-89.8447" font-family="Monaco" font-size="10.00">+ timeComponentItem()</text>
<text text-anchor="start" x="2730" y="-76.5098" font-family="Monaco" font-size="10.00">+ getValue()</text>
<text text-anchor="start" x="2730" y="-63.1748" font-family="Monaco" font-size="10.00">+ getValues()</text>
<text text-anchor="start" x="2730" y="-49.8398" font-family="Monaco" font-size="10.00">+ getValues()</text>
<text text-anchor="start" x="2730" y="-36.5049" font-family="Monaco" font-size="10.00">+ setValue()</text>
<text text-anchor="start" x="2730" y="-23.1699" font-family="Monaco" font-size="10.00">+ setValues()</text>
<text text-anchor="start" x="2730" y="-9.83496" font-family="Monaco" font-size="10.00">+ setValues()</text>
</a>
</g>
</g>
<!-- Node1&#45;&gt;Node17 -->
<g id="edge16" class="edge"><title>Node1&#45;&gt;Node17</title>
<path fill="none" stroke="midnightblue" d="M1472.7,-292.538C1729.11,-291.376 2492.91,-278.783 2713.01,-171.685 2716.02,-170.223 2718.97,-168.597 2721.86,-166.835"/>
<polygon fill="none" stroke="midnightblue" points="1472.32,-289.039 1462.33,-292.58 1472.35,-296.039 1472.32,-289.039"/>
</g>
<!-- Node2 -->
<g id="node2" class="node"><title>Node2</title>
<g id="a_node2"><a xlink:href="class_hydro_couple_1_1_i_description.html" target="_top" xlink:title="IDescription interface class provides descriptive information on a HydroCouple object. ">
<polygon fill="white" stroke="black" points="1305,-415.869 1305,-533.214 1471.03,-533.214 1471.03,-415.869 1305,-415.869"/>
<text text-anchor="middle" x="1388.01" y="-521.214" font-family="Monaco" font-size="10.00">HydroCouple::IDescription</text>
<polyline fill="none" stroke="black" points="1305,-511.879 1471.03,-511.879 "/>
<text text-anchor="middle" x="1388.01" y="-499.879" font-family="Monaco" font-size="10.00"> </text>
<polyline fill="none" stroke="black" points="1305,-490.544 1471.03,-490.544 "/>
<text text-anchor="start" x="1313" y="-478.544" font-family="Monaco" font-size="10.00">+ ~IDescription()</text>
<text text-anchor="start" x="1313" y="-465.209" font-family="Monaco" font-size="10.00">+ getCaption()</text>
<text text-anchor="start" x="1313" y="-451.874" font-family="Monaco" font-size="10.00">+ setCaption()</text>
<text text-anchor="start" x="1313" y="-438.539" font-family="Monaco" font-size="10.00">+ getDescription()</text>
<text text-anchor="start" x="1313" y="-425.204" font-family="Monaco" font-size="10.00">+ setDescription()</text>
</a>
</g>
</g>
<!-- Node2&#45;&gt;Node1 -->
<g id="edge1" class="edge"><title>Node2&#45;&gt;Node1</title>
<path fill="none" stroke="midnightblue" d="M1388.01,-405.147C1388.01,-396.596 1388.01,-387.771 1388.01,-379.011"/>
<polygon fill="none" stroke="midnightblue" points="1384.51,-405.421 1388.01,-415.421 1391.51,-405.421 1384.51,-405.421"/>
</g>
<!-- Node3 -->
<g id="node3" class="node"><title>Node3</title>
<g id="a_node3"><a xlink:href="class_hydro_couple_1_1_i_property_changed.html" target="_top" xlink:title="IPropertyChanged interface is used to emit signal/event when a property of an object changes...">
<polygon fill="white" stroke="black" points="1293,-570.214 1293,-634.219 1483.03,-634.219 1483.03,-570.214 1293,-570.214"/>
<text text-anchor="middle" x="1388.01" y="-622.219" font-family="Monaco" font-size="10.00">HydroCouple::IPropertyChanged</text>
<polyline fill="none" stroke="black" points="1293,-612.884 1483.03,-612.884 "/>
<text text-anchor="middle" x="1388.01" y="-600.884" font-family="Monaco" font-size="10.00"> </text>
<polyline fill="none" stroke="black" points="1293,-591.549 1483.03,-591.549 "/>
<text text-anchor="start" x="1301" y="-579.549" font-family="Monaco" font-size="10.00">+ ~IPropertyChanged()</text>
</a>
</g>
</g>
<!-- Node3&#45;&gt;Node2 -->
<g id="edge2" class="edge"><title>Node3&#45;&gt;Node2</title>
<path fill="none" stroke="midnightblue" d="M1388.01,-559.893C1388.01,-551.508 1388.01,-542.542 1388.01,-533.7"/>
<polygon fill="none" stroke="midnightblue" points="1384.51,-560.151 1388.01,-570.151 1391.51,-560.151 1384.51,-560.151"/>
</g>
</g>
</svg>
        <g id="navigator" transform="translate(0 0)" fill="#404254">
                <rect fill="#f2f5e9" fill-opacity="0.5" stroke="#606060" stroke-width=".5" x="0" y="0" width="60" height="60"/>
                <use id="zoomplus" xlink:href="#zoomPlus" x="17" y="9" onmousedown="handleZoom(evt,'in')"/>
                <use id="zoomminus" xlink:href="#zoomMin" x="42" y="9" onmousedown="handleZoom(evt,'out')"/>
                <use id="reset" xlink:href="#resetDef" x="30" y="36" onmousedown="handleReset()"/>
                <g id="arrowUp" xlink:href="#dirArrow" transform="translate(30 24)" onmousedown="handlePan(0,-1)">
                  <use xlink:href="#rim" fill="#404040">
                        <set attributeName="fill" to="#808080" begin="arrowUp.mouseover" end="arrowUp.mouseout"/>
                  </use>
                  <path fill="none" stroke="white" stroke-width="1.5" d="M0,-3.0v7 M-2.5,-0.5L0,-3.0L2.5,-0.5"/>
                </g>
                <g id="arrowRight" xlink:href="#dirArrow" transform="rotate(90) translate(36 -43)" onmousedown="handlePan(1,0)">
                  <use xlink:href="#rim" fill="#404040">
                        <set attributeName="fill" to="#808080" begin="arrowRight.mouseover" end="arrowRight.mouseout"/>
                  </use>
                  <path fill="none" stroke="white" stroke-width="1.5" d="M0,-3.0v7 M-2.5,-0.5L0,-3.0L2.5,-0.5"/>
                </g>
                <g id="arrowDown" xlink:href="#dirArrow" transform="rotate(180) translate(-30 -48)" onmousedown="handlePan(0,1)">
                  <use xlink:href="#rim" fill="#404040">
                        <set attributeName="fill" to="#808080" begin="arrowDown.mouseover" end="arrowDown.mouseout"/>
                  </use>
                  <path fill="none" stroke="white" stroke-width="1.5" d="M0,-3.0v7 M-2.5,-0.5L0,-3.0L2.5,-0.5"/>
                </g>
                <g id="arrowLeft" xlink:href="#dirArrow" transform="rotate(270) translate(-36 17)" onmousedown="handlePan(-1,0)">
                  <use xlink:href="#rim" fill="#404040">
                        <set attributeName="fill" to="#808080" begin="arrowLeft.mouseover" end="arrowLeft.mouseout"/>
                  </use>
                  <path fill="none" stroke="white" stroke-width="1.5" d="M0,-3.0v7 M-2.5,-0.5L0,-3.0L2.5,-0.5"/>
                </g>
        </g>
        <svg viewBox="0 0 15 15" width="100%" height="30px" preserveAspectRatio="xMaxYMin meet">
         <g id="arrow_out" transform="scale(0.3 0.3)">
          <a xlink:href="class_hydro_couple_1_1_i_value_set__inherit__graph_org.svg" target="_base">
           <rect id="button" ry="5" rx="5" y="6" x="6" height="38" width="38"
                fill="#f2f5e9" fill-opacity="0.5" stroke="#606060" stroke-width="1.0"/>
           <path id="arrow"
             d="M 11.500037,31.436501 C 11.940474,20.09759 22.043105,11.32322 32.158766,21.979434 L 37.068811,17.246167 C 37.068811,17.246167 37.088388,32 37.088388,32 L 22.160133,31.978069 C 22.160133,31.978069 26.997745,27.140456 26.997745,27.140456 C 18.528582,18.264221 13.291696,25.230495 11.500037,31.436501 z"
             style="fill:#404040;"/>
          </a>
         </g>
        </svg>
</svg>
