<?xml version="1.0" encoding="UTF-8" standalone="no"?>
<!DOCTYPE svg PUBLIC "-//W3C//DTD SVG 1.1//EN"
 "http://www.w3.org/Graphics/SVG/1.1/DTD/svg11.dtd">
<!-- Generated by graphviz version 2.38.0 (20140413.2041)
 -->
<!-- Title: HydroCouple::ITimeExchangeItem Pages: 1 -->
<svg width="331pt" height="751pt"
 viewBox="0.00 0.00 331.02 751.38" xmlns="http://www.w3.org/2000/svg" xmlns:xlink="http://www.w3.org/1999/xlink">
<g id="graph0" class="graph" transform="scale(1 1) rotate(0) translate(4 747.384)">
<title>HydroCouple::ITimeExchangeItem</title>
<polygon fill="white" stroke="none" points="-4,4 -4,-747.384 327.023,-747.384 327.023,4 -4,4"/>
<!-- Node1 -->
<g id="node1" class="node"><title>Node1</title>
<polygon fill="#bfbfbf" stroke="black" points="79.9995,-0.5 79.9995,-77.8398 276.029,-77.8398 276.029,-0.5 79.9995,-0.5"/>
<text text-anchor="middle" x="178.014" y="-65.8398" font-family="Monaco" font-size="10.00">HydroCouple::ITimeExchangeItem</text>
<polyline fill="none" stroke="black" points="79.9995,-56.5049 276.029,-56.5049 "/>
<text text-anchor="middle" x="178.014" y="-44.5049" font-family="Monaco" font-size="10.00"> </text>
<polyline fill="none" stroke="black" points="79.9995,-35.1699 276.029,-35.1699 "/>
<text text-anchor="start" x="87.9995" y="-23.1699" font-family="Monaco" font-size="10.00">+ ~ITimeExchangeItem()</text>
<text text-anchor="start" x="87.9995" y="-9.83496" font-family="Monaco" font-size="10.00">+ timeValues()</text>
</g>
<!-- Node2 -->
<g id="node2" class="node"><title>Node2</title>
<g id="a_node2"><a xlink:href="class_hydro_couple_1_1_i_exchange_item.html" target="_top" xlink:title="IExchangeItem the base data item the can be exchanged between components at runtime. ">
<polygon fill="white" stroke="black" points="9.00146,-114.84 9.00146,-205.515 181.027,-205.515 181.027,-114.84 9.00146,-114.84"/>
<text text-anchor="middle" x="95.0142" y="-193.515" font-family="Monaco" font-size="10.00">HydroCouple::IExchangeItem</text>
<polyline fill="none" stroke="black" points="9.00146,-184.18 181.027,-184.18 "/>
<text text-anchor="middle" x="95.0142" y="-172.18" font-family="Monaco" font-size="10.00"> </text>
<polyline fill="none" stroke="black" points="9.00146,-162.845 181.027,-162.845 "/>
<text text-anchor="start" x="17.0015" y="-150.845" font-family="Monaco" font-size="10.00">+ ~IExchangeItem()</text>
<text text-anchor="start" x="17.0015" y="-137.51" font-family="Monaco" font-size="10.00">+ values()</text>
<text text-anchor="start" x="17.0015" y="-124.175" font-family="Monaco" font-size="10.00">+ itemChanged()</text>
</a>
</g>
</g>
<!-- Node2&#45;&gt;Node1 -->
<g id="edge1" class="edge"><title>Node2&#45;&gt;Node1</title>
<path fill="none" stroke="midnightblue" d="M131.922,-106.258C138.549,-96.7565 145.333,-87.0283 151.589,-78.0584"/>
<polygon fill="none" stroke="midnightblue" points="129.006,-104.32 126.156,-114.525 134.748,-108.325 129.006,-104.32"/>
</g>
<!-- Node3 -->
<g id="node3" class="node"><title>Node3</title>
<g id="a_node3"><a xlink:href="class_hydro_couple_1_1_i_component_item.html" target="_top" xlink:title="IComponentItem is a fundamental unit of data for a component. ">
<polygon fill="white" stroke="black" points="6.00098,-242.515 6.00098,-346.524 184.027,-346.524 184.027,-242.515 6.00098,-242.515"/>
<text text-anchor="middle" x="95.0142" y="-334.524" font-family="Monaco" font-size="10.00">HydroCouple::IComponentItem</text>
<polyline fill="none" stroke="black" points="6.00098,-325.189 184.027,-325.189 "/>
<text text-anchor="middle" x="95.0142" y="-313.189" font-family="Monaco" font-size="10.00"> </text>
<polyline fill="none" stroke="black" points="6.00098,-303.854 184.027,-303.854 "/>
<text text-anchor="start" x="14.001" y="-291.854" font-family="Monaco" font-size="10.00">+ ~IComponentItem()</text>
<text text-anchor="start" x="14.001" y="-278.52" font-family="Monaco" font-size="10.00">+ modelComponent()</text>
<text text-anchor="start" x="14.001" y="-265.185" font-family="Monaco" font-size="10.00">+ modelComponentId()</text>
<text text-anchor="start" x="14.001" y="-251.85" font-family="Monaco" font-size="10.00">+ dimensions()</text>
</a>
</g>
</g>
<!-- Node3&#45;&gt;Node2 -->
<g id="edge2" class="edge"><title>Node3&#45;&gt;Node2</title>
<path fill="none" stroke="midnightblue" d="M95.0142,-232.325C95.0142,-223.367 95.0142,-214.286 95.0142,-205.745"/>
<polygon fill="none" stroke="midnightblue" points="91.5143,-232.353 95.0142,-242.353 98.5143,-232.353 91.5143,-232.353"/>
</g>
<!-- Node4 -->
<g id="node4" class="node"><title>Node4</title>
<g id="a_node4"><a xlink:href="class_hydro_couple_1_1_i_identity.html" target="_top" xlink:title="IIdentity interface class defines a method to get the Id of an HydroCouple entity. ">
<polygon fill="white" stroke="black" points="21.0034,-383.524 21.0034,-487.534 169.025,-487.534 169.025,-383.524 21.0034,-383.524"/>
<text text-anchor="middle" x="95.0142" y="-475.534" font-family="Monaco" font-size="10.00">HydroCouple::IIdentity</text>
<polyline fill="none" stroke="black" points="21.0034,-466.199 169.025,-466.199 "/>
<text text-anchor="middle" x="95.0142" y="-454.199" font-family="Monaco" font-size="10.00"> </text>
<polyline fill="none" stroke="black" points="21.0034,-444.864 169.025,-444.864 "/>
<text text-anchor="start" x="29.0034" y="-432.864" font-family="Monaco" font-size="10.00">+ ~IIdentity()</text>
<text text-anchor="start" x="29.0034" y="-419.529" font-family="Monaco" font-size="10.00">+ MPI_Comm()</text>
<text text-anchor="start" x="29.0034" y="-406.194" font-family="Monaco" font-size="10.00">+ MPI_Rank()</text>
<text text-anchor="start" x="29.0034" y="-392.859" font-family="Monaco" font-size="10.00">+ id()</text>
</a>
</g>
</g>
<!-- Node4&#45;&gt;Node3 -->
<g id="edge3" class="edge"><title>Node4&#45;&gt;Node3</title>
<path fill="none" stroke="midnightblue" d="M95.0142,-372.966C95.0142,-364.183 95.0142,-355.23 95.0142,-346.676"/>
<polygon fill="none" stroke="midnightblue" points="91.5143,-373.162 95.0142,-383.162 98.5143,-373.162 91.5143,-373.162"/>
</g>
<!-- Node5 -->
<g id="node5" class="node"><title>Node5</title>
<g id="a_node5"><a xlink:href="class_hydro_couple_1_1_i_description.html" target="_top" xlink:title="IDescription interface class provides descriptive information on a HydroCouple object. ">
<polygon fill="white" stroke="black" points="12.002,-524.534 12.002,-641.879 178.026,-641.879 178.026,-524.534 12.002,-524.534"/>
<text text-anchor="middle" x="95.0142" y="-629.879" font-family="Monaco" font-size="10.00">HydroCouple::IDescription</text>
<polyline fill="none" stroke="black" points="12.002,-620.544 178.026,-620.544 "/>
<text text-anchor="middle" x="95.0142" y="-608.544" font-family="Monaco" font-size="10.00"> </text>
<polyline fill="none" stroke="black" points="12.002,-599.209 178.026,-599.209 "/>
<text text-anchor="start" x="20.002" y="-587.209" font-family="Monaco" font-size="10.00">+ ~IDescription()</text>
<text text-anchor="start" x="20.002" y="-573.874" font-family="Monaco" font-size="10.00">+ getCaption()</text>
<text text-anchor="start" x="20.002" y="-560.539" font-family="Monaco" font-size="10.00">+ setCaption()</text>
<text text-anchor="start" x="20.002" y="-547.204" font-family="Monaco" font-size="10.00">+ getDescription()</text>
<text text-anchor="start" x="20.002" y="-533.869" font-family="Monaco" font-size="10.00">+ setDescription()</text>
</a>
</g>
</g>
<!-- Node5&#45;&gt;Node4 -->
<g id="edge4" class="edge"><title>Node5&#45;&gt;Node4</title>
<path fill="none" stroke="midnightblue" d="M95.0142,-513.933C95.0142,-505.115 95.0142,-496.207 95.0142,-487.73"/>
<polygon fill="none" stroke="midnightblue" points="91.5143,-514.212 95.0142,-524.212 98.5143,-514.212 91.5143,-514.212"/>
</g>
<!-- Node6 -->
<g id="node6" class="node"><title>Node6</title>
<g id="a_node6"><a xlink:href="class_hydro_couple_1_1_i_property_changed.html" target="_top" xlink:title="IPropertyChanged interface is used to emit signal/event when a property of an object changes...">
<polygon fill="white" stroke="black" points="0,-678.879 0,-742.884 190.028,-742.884 190.028,-678.879 0,-678.879"/>
<text text-anchor="middle" x="95.0142" y="-730.884" font-family="Monaco" font-size="10.00">HydroCouple::IPropertyChanged</text>
<polyline fill="none" stroke="black" points="0,-721.549 190.028,-721.549 "/>
<text text-anchor="middle" x="95.0142" y="-709.549" font-family="Monaco" font-size="10.00"> </text>
<polyline fill="none" stroke="black" points="0,-700.214 190.028,-700.214 "/>
<text text-anchor="start" x="8" y="-688.214" font-family="Monaco" font-size="10.00">+ ~IPropertyChanged()</text>
</a>
</g>
</g>
<!-- Node6&#45;&gt;Node5 -->
<g id="edge5" class="edge"><title>Node6&#45;&gt;Node5</title>
<path fill="none" stroke="midnightblue" d="M95.0142,-668.559C95.0142,-660.173 95.0142,-651.207 95.0142,-642.365"/>
<polygon fill="none" stroke="midnightblue" points="91.5143,-668.816 95.0142,-678.816 98.5143,-668.816 91.5143,-668.816"/>
</g>
<!-- Node7 -->
<g id="node7" class="node"><title>Node7</title>
<polygon fill="white" stroke="#bfbfbf" points="199.005,-128.175 199.005,-192.18 323.023,-192.18 323.023,-128.175 199.005,-128.175"/>
<text text-anchor="middle" x="261.014" y="-180.18" font-family="Monaco" font-size="10.00">ITimeComponentItem</text>
<polyline fill="none" stroke="#bfbfbf" points="199.005,-170.845 323.023,-170.845 "/>
<text text-anchor="middle" x="261.014" y="-158.845" font-family="Monaco" font-size="10.00"> </text>
<polyline fill="none" stroke="#bfbfbf" points="199.005,-149.51 323.023,-149.51 "/>
<text text-anchor="middle" x="261.014" y="-137.51" font-family="Monaco" font-size="10.00"> </text>
</g>
<!-- Node7&#45;&gt;Node1 -->
<g id="edge6" class="edge"><title>Node7&#45;&gt;Node1</title>
<path fill="none" stroke="midnightblue" d="M233.263,-119.387C223.956,-106.042 213.608,-91.2055 204.408,-78.0137"/>
<polygon fill="none" stroke="midnightblue" points="230.616,-121.709 239.207,-127.909 236.357,-117.705 230.616,-121.709"/>
</g>
</g>
</svg>
