<?xml version="1.0" encoding="UTF-8" standalone="no"?>
<!DOCTYPE svg PUBLIC "-//W3C//DTD SVG 1.1//EN"
 "http://www.w3.org/Graphics/SVG/1.1/DTD/svg11.dtd">
<!-- Generated by graphviz version 2.38.0 (20140413.2041)
 -->
<!-- Title: HydroCoupleSDK::ComponentInfo::propertyChanged Pages: 1 -->
<svg width="376pt" height="44pt"
 viewBox="0.00 0.00 376.05 43.67" xmlns="http://www.w3.org/2000/svg" xmlns:xlink="http://www.w3.org/1999/xlink">
<g id="graph0" class="graph" transform="scale(1 1) rotate(0) translate(4 39.6699)">
<title>HydroCoupleSDK::ComponentInfo::propertyChanged</title>
<polygon fill="white" stroke="none" points="-4,4 -4,-39.6699 372.049,-39.6699 372.049,4 -4,4"/>
<!-- Node1 -->
<g id="node1" class="node"><title>Node1</title>
<polygon fill="#bfbfbf" stroke="black" points="0,-0.5 0,-35.1699 166.024,-35.1699 166.024,-0.5 0,-0.5"/>
<text text-anchor="start" x="8" y="-23.1699" font-family="Monaco" font-size="10.00">HydroCoupleSDK::Component</text>
<text text-anchor="middle" x="83.0122" y="-9.83496" font-family="Monaco" font-size="10.00">Info::propertyChanged</text>
</g>
<!-- Node2 -->
<g id="node2" class="node"><title>Node2</title>
<g id="a_node2"><a xlink:href="class_hydro_couple_s_d_k_1_1_component_info.html#a731472cb76d294ba2709f6f297902891" target="_top" xlink:title="Sets file path to Component library. ">
<polygon fill="white" stroke="black" points="202.024,-0.5 202.024,-35.1699 368.049,-35.1699 368.049,-0.5 202.024,-0.5"/>
<text text-anchor="start" x="210.024" y="-23.1699" font-family="Monaco" font-size="10.00">HydroCoupleSDK::Component</text>
<text text-anchor="middle" x="285.037" y="-9.83496" font-family="Monaco" font-size="10.00">Info::setLibraryFilePath</text>
</a>
</g>
</g>
<!-- Node1&#45;&gt;Node2 -->
<g id="edge1" class="edge"><title>Node1&#45;&gt;Node2</title>
<path fill="none" stroke="midnightblue" d="M176.489,-17.835C184.938,-17.835 193.459,-17.835 201.809,-17.835"/>
<polygon fill="midnightblue" stroke="midnightblue" points="176.236,-14.3351 166.236,-17.835 176.236,-21.3351 176.236,-14.3351"/>
</g>
</g>
</svg>
