<?xml version="1.0" encoding="UTF-8" standalone="no"?>
<!DOCTYPE svg PUBLIC "-//W3C//DTD SVG 1.1//EN"
 "http://www.w3.org/Graphics/SVG/1.1/DTD/svg11.dtd">
<!-- Generated by graphviz version 2.38.0 (20140413.2041)
 -->
<!-- Title: HydroCouple::Spatial::IRasterArgument Pages: 1 -->
<!--zoomable 925 -->
<svg id="main" version="1.1" xmlns="http://www.w3.org/2000/svg" xmlns:xlink="http://www.w3.org/1999/xlink" xml:space="preserve" onload="init(evt)">
<style type="text/css"><![CDATA[
.edge:hover path { stroke: red; }
.edge:hover polygon { stroke: red; fill: red; }
]]></style>
<script type="text/javascript"><![CDATA[
var edges = document.getElementsByTagName('g');
if (edges && edges.length) {
  for (var i=0;i<edges.length;i++) {
    if (edges[i].id.substr(0,4)=='edge') {
      edges[i].setAttribute('class','edge');
    }
  }
}
]]></script>
        <defs>
                <circle id="rim" cx="0" cy="0" r="7"/>
                <circle id="rim2" cx="0" cy="0" r="3.5"/>
                <g id="zoomPlus">
                        <use xlink:href="#rim" fill="#404040">
                                <set attributeName="fill" to="#808080" begin="zoomplus.mouseover" end="zoomplus.mouseout"/>
                        </use>
                        <path d="M-4,0h8M0,-4v8" fill="none" stroke="white" stroke-width="1.5" pointer-events="none"/>
                </g>
                <g id="zoomMin">
                        <use xlink:href="#rim" fill="#404040">
                                <set attributeName="fill" to="#808080" begin="zoomminus.mouseover" end="zoomminus.mouseout"/>
                        </use>
                        <path d="M-4,0h8" fill="none" stroke="white" stroke-width="1.5" pointer-events="none"/>
                </g>
                <g id="dirArrow">
                        <path fill="none" stroke="white" stroke-width="1.5" d="M0,-3.0v7 M-2.5,-0.5L0,-3.0L2.5,-0.5"/>
                </g>
               <g id="resetDef">
                       <use xlink:href="#rim2" fill="#404040">
                               <set attributeName="fill" to="#808080" begin="reset.mouseover" end="reset.mouseout"/>
                       </use>
               </g>
        </defs>

<script type="text/javascript">
var viewWidth = 382;
var viewHeight = 925;
var sectionId = 'dynsection-1';
</script>
<script xlink:href="svgpan.js"/>
<svg id="graph" class="graph">
<g id="viewport">
<title>HydroCouple::Spatial::IRasterArgument</title>
<!-- Node1 -->
<g id="node1" class="node"><title>Node1</title>
<polygon fill="#bfbfbf" stroke="black" points="113.002,-0.5 113.002,-77.8398 249.022,-77.8398 249.022,-0.5 113.002,-0.5"/>
<text text-anchor="start" x="121.002" y="-65.8398" font-family="Monaco" font-size="10.00">HydroCouple::Spatial</text>
<text text-anchor="middle" x="181.012" y="-52.5049" font-family="Monaco" font-size="10.00">::IRasterArgument</text>
<polyline fill="none" stroke="black" points="113.002,-43.1699 249.022,-43.1699 "/>
<text text-anchor="middle" x="181.012" y="-31.1699" font-family="Monaco" font-size="10.00"> </text>
<polyline fill="none" stroke="black" points="113.002,-21.835 249.022,-21.835 "/>
<text text-anchor="start" x="121.002" y="-9.83496" font-family="Monaco" font-size="10.00">+ ~IRasterArgument()</text>
</g>
<!-- Node2 -->
<g id="node2" class="node"><title>Node2</title>
<g id="a_node2"><a xlink:href="class_hydro_couple_1_1_i_argument.html" target="_top" xlink:title="IArgument interface class used to set the arguments for components. They can be complex or simple mul...">
<polygon fill="none" stroke="black" points="0,-128.175 0,-312.194 166.024,-312.194 166.024,-128.175 0,-128.175"/>
<text text-anchor="middle" x="83.0122" y="-300.194" font-family="Monaco" font-size="10.00">HydroCouple::IArgument</text>
<polyline fill="none" stroke="black" points="0,-290.859 166.024,-290.859 "/>
<text text-anchor="middle" x="83.0122" y="-278.859" font-family="Monaco" font-size="10.00"> </text>
<polyline fill="none" stroke="black" points="0,-269.524 166.024,-269.524 "/>
<text text-anchor="start" x="8" y="-257.524" font-family="Monaco" font-size="10.00">+ ~IArgument()</text>
<text text-anchor="start" x="8" y="-244.189" font-family="Monaco" font-size="10.00">+ isOptional()</text>
<text text-anchor="start" x="8" y="-230.854" font-family="Monaco" font-size="10.00">+ isReadOnly()</text>
<text text-anchor="start" x="8" y="-217.52" font-family="Monaco" font-size="10.00">+ toString()</text>
<text text-anchor="start" x="8" y="-204.185" font-family="Monaco" font-size="10.00">+ inputFileTypeFilters()</text>
<text text-anchor="start" x="8" y="-190.85" font-family="Monaco" font-size="10.00">+ canReadFromFile()</text>
<text text-anchor="start" x="8" y="-177.515" font-family="Monaco" font-size="10.00">+ canReadFromString()</text>
<text text-anchor="start" x="8" y="-164.18" font-family="Monaco" font-size="10.00">+ currentArgumentIOType()</text>
<text text-anchor="start" x="8" y="-150.845" font-family="Monaco" font-size="10.00">+ readValues()</text>
<text text-anchor="start" x="8" y="-137.51" font-family="Monaco" font-size="10.00">+ readValues()</text>
</a>
</g>
</g>
<!-- Node2&#45;&gt;Node1 -->
<g id="edge1" class="edge"><title>Node2&#45;&gt;Node1</title>
<path fill="none" stroke="midnightblue" d="M137.836,-119.04C145.774,-104.538 153.506,-90.4141 160.182,-78.2199"/>
<polygon fill="none" stroke="midnightblue" points="134.605,-117.652 132.873,-128.104 140.746,-121.013 134.605,-117.652"/>
</g>
<!-- Node3 -->
<g id="node3" class="node"><title>Node3</title>
<g id="a_node3"><a xlink:href="class_hydro_couple_1_1_i_component_data_item.html" target="_top" xlink:title="IComponentItem is a fundamental unit of data for a component. ">
<polygon fill="none" stroke="black" points="79.9971,-362.529 79.9971,-546.549 282.027,-546.549 282.027,-362.529 79.9971,-362.529"/>
<text text-anchor="middle" x="181.012" y="-534.549" font-family="Monaco" font-size="10.00">HydroCouple::IComponentDataItem</text>
<polyline fill="none" stroke="black" points="79.9971,-525.214 282.027,-525.214 "/>
<text text-anchor="middle" x="181.012" y="-513.214" font-family="Monaco" font-size="10.00"> </text>
<polyline fill="none" stroke="black" points="79.9971,-503.879 282.027,-503.879 "/>
<text text-anchor="start" x="87.9971" y="-491.879" font-family="Monaco" font-size="10.00">+ ~IComponentDataItem()</text>
<text text-anchor="start" x="87.9971" y="-478.544" font-family="Monaco" font-size="10.00">+ modelComponent()</text>
<text text-anchor="start" x="87.9971" y="-465.209" font-family="Monaco" font-size="10.00">+ dimensions()</text>
<text text-anchor="start" x="87.9971" y="-451.874" font-family="Monaco" font-size="10.00">+ valueDefinition()</text>
<text text-anchor="start" x="87.9971" y="-438.539" font-family="Monaco" font-size="10.00">+ getValue()</text>
<text text-anchor="start" x="87.9971" y="-425.204" font-family="Monaco" font-size="10.00">+ getValues()</text>
<text text-anchor="start" x="87.9971" y="-411.869" font-family="Monaco" font-size="10.00">+ getValues()</text>
<text text-anchor="start" x="87.9971" y="-398.534" font-family="Monaco" font-size="10.00">+ setValue()</text>
<text text-anchor="start" x="87.9971" y="-385.199" font-family="Monaco" font-size="10.00">+ setValues()</text>
<text text-anchor="start" x="87.9971" y="-371.864" font-family="Monaco" font-size="10.00">+ setValues()</text>
</a>
</g>
</g>
<!-- Node3&#45;&gt;Node2 -->
<g id="edge2" class="edge"><title>Node3&#45;&gt;Node2</title>
<path fill="none" stroke="midnightblue" d="M138.643,-353.083C132.95,-339.585 127.135,-325.797 121.513,-312.469"/>
<polygon fill="none" stroke="midnightblue" points="135.45,-354.519 142.561,-362.373 141.9,-351.799 135.45,-354.519"/>
</g>
<!-- Node7 -->
<g id="node7" class="node"><title>Node7</title>
<g id="a_node7"><a xlink:href="class_hydro_couple_1_1_spatial_1_1_i_raster_component_data_item.html" target="_top" xlink:title="An IRasterComponentDataItem represents an IRaster IComponentItem. ">
<polygon fill="none" stroke="black" points="183.998,-114.84 183.998,-325.529 374.026,-325.529 374.026,-114.84 183.998,-114.84"/>
<text text-anchor="start" x="191.998" y="-313.529" font-family="Monaco" font-size="10.00">HydroCouple::Spatial</text>
<text text-anchor="middle" x="279.012" y="-300.194" font-family="Monaco" font-size="10.00">::IRasterComponentDataItem</text>
<polyline fill="none" stroke="black" points="183.998,-290.859 374.026,-290.859 "/>
<text text-anchor="middle" x="279.012" y="-278.859" font-family="Monaco" font-size="10.00"> </text>
<polyline fill="none" stroke="black" points="183.998,-269.524 374.026,-269.524 "/>
<text text-anchor="start" x="191.998" y="-257.524" font-family="Monaco" font-size="10.00">+ ~IRasterComponentDataItem()</text>
<text text-anchor="start" x="191.998" y="-244.189" font-family="Monaco" font-size="10.00">+ xDimension()</text>
<text text-anchor="start" x="191.998" y="-230.854" font-family="Monaco" font-size="10.00">+ yDimension()</text>
<text text-anchor="start" x="191.998" y="-217.52" font-family="Monaco" font-size="10.00">+ bandDimension()</text>
<text text-anchor="start" x="191.998" y="-204.185" font-family="Monaco" font-size="10.00">+ raster()</text>
<text text-anchor="start" x="191.998" y="-190.85" font-family="Monaco" font-size="10.00">+ getValue()</text>
<text text-anchor="start" x="191.998" y="-177.515" font-family="Monaco" font-size="10.00">+ getValues()</text>
<text text-anchor="start" x="191.998" y="-164.18" font-family="Monaco" font-size="10.00">+ getValues()</text>
<text text-anchor="start" x="191.998" y="-150.845" font-family="Monaco" font-size="10.00">+ setValue()</text>
<text text-anchor="start" x="191.998" y="-137.51" font-family="Monaco" font-size="10.00">+ setValues()</text>
<text text-anchor="start" x="191.998" y="-124.175" font-family="Monaco" font-size="10.00">+ setValues()</text>
</a>
</g>
</g>
<!-- Node3&#45;&gt;Node7 -->
<g id="edge7" class="edge"><title>Node3&#45;&gt;Node7</title>
<path fill="none" stroke="midnightblue" d="M223.431,-352.966C227.261,-343.884 231.147,-334.672 234.99,-325.559"/>
<polygon fill="none" stroke="midnightblue" points="220.124,-351.799 219.463,-362.373 226.574,-354.519 220.124,-351.799"/>
</g>
<!-- Node4 -->
<g id="node4" class="node"><title>Node4</title>
<g id="a_node4"><a xlink:href="class_hydro_couple_1_1_i_identity.html" target="_top" xlink:title="IIdentity interface class defines a method to get the Id of an HydroCouple entity. ">
<polygon fill="none" stroke="black" points="107.001,-583.549 107.001,-660.889 255.023,-660.889 255.023,-583.549 107.001,-583.549"/>
<text text-anchor="middle" x="181.012" y="-648.889" font-family="Monaco" font-size="10.00">HydroCouple::IIdentity</text>
<polyline fill="none" stroke="black" points="107.001,-639.554 255.023,-639.554 "/>
<text text-anchor="middle" x="181.012" y="-627.554" font-family="Monaco" font-size="10.00"> </text>
<polyline fill="none" stroke="black" points="107.001,-618.219 255.023,-618.219 "/>
<text text-anchor="start" x="115.001" y="-606.219" font-family="Monaco" font-size="10.00">+ ~IIdentity()</text>
<text text-anchor="start" x="115.001" y="-592.884" font-family="Monaco" font-size="10.00">+ id()</text>
</a>
</g>
</g>
<!-- Node4&#45;&gt;Node3 -->
<g id="edge3" class="edge"><title>Node4&#45;&gt;Node3</title>
<path fill="none" stroke="midnightblue" d="M181.012,-572.966C181.012,-564.613 181.012,-555.688 181.012,-546.63"/>
<polygon fill="none" stroke="midnightblue" points="177.512,-573.208 181.012,-583.208 184.512,-573.209 177.512,-573.208"/>
</g>
<!-- Node5 -->
<g id="node5" class="node"><title>Node5</title>
<g id="a_node5"><a xlink:href="class_hydro_couple_1_1_i_description.html" target="_top" xlink:title="IDescription interface class provides descriptive information on a HydroCouple object. ">
<polygon fill="none" stroke="black" points="98,-697.889 98,-815.233 264.024,-815.233 264.024,-697.889 98,-697.889"/>
<text text-anchor="middle" x="181.012" y="-803.233" font-family="Monaco" font-size="10.00">HydroCouple::IDescription</text>
<polyline fill="none" stroke="black" points="98,-793.898 264.024,-793.898 "/>
<text text-anchor="middle" x="181.012" y="-781.898" font-family="Monaco" font-size="10.00"> </text>
<polyline fill="none" stroke="black" points="98,-772.563 264.024,-772.563 "/>
<text text-anchor="start" x="106" y="-760.563" font-family="Monaco" font-size="10.00">+ ~IDescription()</text>
<text text-anchor="start" x="106" y="-747.229" font-family="Monaco" font-size="10.00">+ caption()</text>
<text text-anchor="start" x="106" y="-733.894" font-family="Monaco" font-size="10.00">+ setCaption()</text>
<text text-anchor="start" x="106" y="-720.559" font-family="Monaco" font-size="10.00">+ description()</text>
<text text-anchor="start" x="106" y="-707.224" font-family="Monaco" font-size="10.00">+ setDescription()</text>
</a>
</g>
</g>
<!-- Node5&#45;&gt;Node4 -->
<g id="edge4" class="edge"><title>Node5&#45;&gt;Node4</title>
<path fill="none" stroke="midnightblue" d="M181.012,-687.323C181.012,-678.284 181.012,-669.297 181.012,-661.036"/>
<polygon fill="none" stroke="midnightblue" points="177.512,-687.514 181.012,-697.514 184.512,-687.514 177.512,-687.514"/>
</g>
<!-- Node6 -->
<g id="node6" class="node"><title>Node6</title>
<g id="a_node6"><a xlink:href="class_hydro_couple_1_1_i_property_changed.html" target="_top" xlink:title="IPropertyChanged interface is used to emit signal/event when a property of an object changes...">
<polygon fill="none" stroke="black" points="85.998,-852.233 85.998,-916.238 276.026,-916.238 276.026,-852.233 85.998,-852.233"/>
<text text-anchor="middle" x="181.012" y="-904.238" font-family="Monaco" font-size="10.00">HydroCouple::IPropertyChanged</text>
<polyline fill="none" stroke="black" points="85.998,-894.903 276.026,-894.903 "/>
<text text-anchor="middle" x="181.012" y="-882.903" font-family="Monaco" font-size="10.00"> </text>
<polyline fill="none" stroke="black" points="85.998,-873.568 276.026,-873.568 "/>
<text text-anchor="start" x="93.998" y="-861.568" font-family="Monaco" font-size="10.00">+ ~IPropertyChanged()</text>
</a>
</g>
</g>
<!-- Node6&#45;&gt;Node5 -->
<g id="edge5" class="edge"><title>Node6&#45;&gt;Node5</title>
<path fill="none" stroke="midnightblue" d="M181.012,-841.913C181.012,-833.528 181.012,-824.562 181.012,-815.719"/>
<polygon fill="none" stroke="midnightblue" points="177.512,-842.17 181.012,-852.17 184.512,-842.17 177.512,-842.17"/>
</g>
<!-- Node7&#45;&gt;Node1 -->
<g id="edge6" class="edge"><title>Node7&#45;&gt;Node1</title>
<path fill="none" stroke="midnightblue" d="M217.055,-106.008C211.641,-96.1187 206.454,-86.6447 201.787,-78.1181"/>
<polygon fill="none" stroke="midnightblue" points="213.991,-107.701 221.863,-114.792 220.131,-104.34 213.991,-107.701"/>
</g>
</g>
</svg>
        <g id="navigator" transform="translate(0 0)" fill="#404254">
                <rect fill="#f2f5e9" fill-opacity="0.5" stroke="#606060" stroke-width=".5" x="0" y="0" width="60" height="60"/>
                <use id="zoomplus" xlink:href="#zoomPlus" x="17" y="9" onmousedown="handleZoom(evt,'in')"/>
                <use id="zoomminus" xlink:href="#zoomMin" x="42" y="9" onmousedown="handleZoom(evt,'out')"/>
                <use id="reset" xlink:href="#resetDef" x="30" y="36" onmousedown="handleReset()"/>
                <g id="arrowUp" xlink:href="#dirArrow" transform="translate(30 24)" onmousedown="handlePan(0,-1)">
                  <use xlink:href="#rim" fill="#404040">
                        <set attributeName="fill" to="#808080" begin="arrowUp.mouseover" end="arrowUp.mouseout"/>
                  </use>
                  <path fill="none" stroke="white" stroke-width="1.5" d="M0,-3.0v7 M-2.5,-0.5L0,-3.0L2.5,-0.5"/>
                </g>
                <g id="arrowRight" xlink:href="#dirArrow" transform="rotate(90) translate(36 -43)" onmousedown="handlePan(1,0)">
                  <use xlink:href="#rim" fill="#404040">
                        <set attributeName="fill" to="#808080" begin="arrowRight.mouseover" end="arrowRight.mouseout"/>
                  </use>
                  <path fill="none" stroke="white" stroke-width="1.5" d="M0,-3.0v7 M-2.5,-0.5L0,-3.0L2.5,-0.5"/>
                </g>
                <g id="arrowDown" xlink:href="#dirArrow" transform="rotate(180) translate(-30 -48)" onmousedown="handlePan(0,1)">
                  <use xlink:href="#rim" fill="#404040">
                        <set attributeName="fill" to="#808080" begin="arrowDown.mouseover" end="arrowDown.mouseout"/>
                  </use>
                  <path fill="none" stroke="white" stroke-width="1.5" d="M0,-3.0v7 M-2.5,-0.5L0,-3.0L2.5,-0.5"/>
                </g>
                <g id="arrowLeft" xlink:href="#dirArrow" transform="rotate(270) translate(-36 17)" onmousedown="handlePan(-1,0)">
                  <use xlink:href="#rim" fill="#404040">
                        <set attributeName="fill" to="#808080" begin="arrowLeft.mouseover" end="arrowLeft.mouseout"/>
                  </use>
                  <path fill="none" stroke="white" stroke-width="1.5" d="M0,-3.0v7 M-2.5,-0.5L0,-3.0L2.5,-0.5"/>
                </g>
        </g>
        <svg viewBox="0 0 15 15" width="100%" height="30px" preserveAspectRatio="xMaxYMin meet">
         <g id="arrow_out" transform="scale(0.3 0.3)">
          <a xlink:href="class_hydro_couple_1_1_spatial_1_1_i_raster_argument__coll__graph_org.svg" target="_base">
           <rect id="button" ry="5" rx="5" y="6" x="6" height="38" width="38"
                fill="#f2f5e9" fill-opacity="0.5" stroke="#606060" stroke-width="1.0"/>
           <path id="arrow"
             d="M 11.500037,31.436501 C 11.940474,20.09759 22.043105,11.32322 32.158766,21.979434 L 37.068811,17.246167 C 37.068811,17.246167 37.088388,32 37.088388,32 L 22.160133,31.978069 C 22.160133,31.978069 26.997745,27.140456 26.997745,27.140456 C 18.528582,18.264221 13.291696,25.230495 11.500037,31.436501 z"
             style="fill:#404040;"/>
          </a>
         </g>
        </svg>
</svg>
