<?xml version="1.0" encoding="UTF-8" standalone="no"?>
<!DOCTYPE svg PUBLIC "-//W3C//DTD SVG 1.1//EN"
 "http://www.w3.org/Graphics/SVG/1.1/DTD/svg11.dtd">
<!-- Generated by graphviz version 2.38.0 (20140413.2041)
 -->
<!-- Title: HydroCouple::Spatial::IRegularGrid3DOnlyArgument Pages: 1 -->
<svg width="388pt" height="1079pt"
 viewBox="0.00 0.00 388.03 1079.08" xmlns="http://www.w3.org/2000/svg" xmlns:xlink="http://www.w3.org/1999/xlink">
<g id="graph0" class="graph" transform="scale(1 1) rotate(0) translate(4 1075.08)">
<title>HydroCouple::Spatial::IRegularGrid3DOnlyArgument</title>
<!-- Node1 -->
<g id="node1" class="node"><title>Node1</title>
<polygon fill="#bfbfbf" stroke="black" points="80.9971,-0.5 80.9971,-77.8398 283.027,-77.8398 283.027,-0.5 80.9971,-0.5"/>
<text text-anchor="start" x="88.9971" y="-65.8398" font-family="Monaco" font-size="10.00">HydroCouple::Spatial</text>
<text text-anchor="middle" x="182.012" y="-52.5049" font-family="Monaco" font-size="10.00">::IRegularGrid3DOnlyArgument</text>
<polyline fill="none" stroke="black" points="80.9971,-43.1699 283.027,-43.1699 "/>
<text text-anchor="middle" x="182.012" y="-31.1699" font-family="Monaco" font-size="10.00"> </text>
<polyline fill="none" stroke="black" points="80.9971,-21.835 283.027,-21.835 "/>
<text text-anchor="start" x="88.9971" y="-9.83496" font-family="Monaco" font-size="10.00">+ ~IRegularGrid3DOnlyArgument()</text>
</g>
<!-- Node2 -->
<g id="node2" class="node"><title>Node2</title>
<g id="a_node2"><a xlink:href="class_hydro_couple_1_1_i_argument.html" target="_top" xlink:title="IArgument interface class used to set the arguments for components. They can be complex or simple mul...">
<polygon fill="none" stroke="black" points="0,-114.84 0,-298.859 166.024,-298.859 166.024,-114.84 0,-114.84"/>
<text text-anchor="middle" x="83.0122" y="-286.859" font-family="Monaco" font-size="10.00">HydroCouple::IArgument</text>
<polyline fill="none" stroke="black" points="0,-277.524 166.024,-277.524 "/>
<text text-anchor="middle" x="83.0122" y="-265.524" font-family="Monaco" font-size="10.00"> </text>
<polyline fill="none" stroke="black" points="0,-256.189 166.024,-256.189 "/>
<text text-anchor="start" x="8" y="-244.189" font-family="Monaco" font-size="10.00">+ ~IArgument()</text>
<text text-anchor="start" x="8" y="-230.854" font-family="Monaco" font-size="10.00">+ isOptional()</text>
<text text-anchor="start" x="8" y="-217.52" font-family="Monaco" font-size="10.00">+ isReadOnly()</text>
<text text-anchor="start" x="8" y="-204.185" font-family="Monaco" font-size="10.00">+ toString()</text>
<text text-anchor="start" x="8" y="-190.85" font-family="Monaco" font-size="10.00">+ inputFileTypeFilters()</text>
<text text-anchor="start" x="8" y="-177.515" font-family="Monaco" font-size="10.00">+ canReadFromFile()</text>
<text text-anchor="start" x="8" y="-164.18" font-family="Monaco" font-size="10.00">+ canReadFromString()</text>
<text text-anchor="start" x="8" y="-150.845" font-family="Monaco" font-size="10.00">+ currentArgumentIOType()</text>
<text text-anchor="start" x="8" y="-137.51" font-family="Monaco" font-size="10.00">+ readValues()</text>
<text text-anchor="start" x="8" y="-124.175" font-family="Monaco" font-size="10.00">+ readValues()</text>
</a>
</g>
</g>
<!-- Node2&#45;&gt;Node1 -->
<g id="edge1" class="edge"><title>Node2&#45;&gt;Node1</title>
<path fill="none" stroke="midnightblue" d="M142.655,-106.036C148.545,-96.1788 154.235,-86.6563 159.371,-78.0601"/>
<polygon fill="none" stroke="midnightblue" points="139.561,-104.391 137.436,-114.77 145.57,-107.981 139.561,-104.391"/>
</g>
<!-- Node3 -->
<g id="node3" class="node"><title>Node3</title>
<g id="a_node3"><a xlink:href="class_hydro_couple_1_1_i_component_data_item.html" target="_top" xlink:title="IComponentItem is a fundamental unit of data for a component. ">
<polygon fill="none" stroke="black" points="64.9971,-516.874 64.9971,-700.894 267.027,-700.894 267.027,-516.874 64.9971,-516.874"/>
<text text-anchor="middle" x="166.012" y="-688.894" font-family="Monaco" font-size="10.00">HydroCouple::IComponentDataItem</text>
<polyline fill="none" stroke="black" points="64.9971,-679.559 267.027,-679.559 "/>
<text text-anchor="middle" x="166.012" y="-667.559" font-family="Monaco" font-size="10.00"> </text>
<polyline fill="none" stroke="black" points="64.9971,-658.224 267.027,-658.224 "/>
<text text-anchor="start" x="72.9971" y="-646.224" font-family="Monaco" font-size="10.00">+ ~IComponentDataItem()</text>
<text text-anchor="start" x="72.9971" y="-632.889" font-family="Monaco" font-size="10.00">+ modelComponent()</text>
<text text-anchor="start" x="72.9971" y="-619.554" font-family="Monaco" font-size="10.00">+ dimensions()</text>
<text text-anchor="start" x="72.9971" y="-606.219" font-family="Monaco" font-size="10.00">+ valueDefinition()</text>
<text text-anchor="start" x="72.9971" y="-592.884" font-family="Monaco" font-size="10.00">+ getValue()</text>
<text text-anchor="start" x="72.9971" y="-579.549" font-family="Monaco" font-size="10.00">+ getValues()</text>
<text text-anchor="start" x="72.9971" y="-566.214" font-family="Monaco" font-size="10.00">+ getValues()</text>
<text text-anchor="start" x="72.9971" y="-552.879" font-family="Monaco" font-size="10.00">+ setValue()</text>
<text text-anchor="start" x="72.9971" y="-539.544" font-family="Monaco" font-size="10.00">+ setValues()</text>
<text text-anchor="start" x="72.9971" y="-526.209" font-family="Monaco" font-size="10.00">+ setValues()</text>
</a>
</g>
</g>
<!-- Node3&#45;&gt;Node2 -->
<g id="edge2" class="edge"><title>Node3&#45;&gt;Node2</title>
<path fill="none" stroke="midnightblue" d="M145.033,-506.771C131.784,-442.914 114.806,-361.084 101.964,-299.19"/>
<polygon fill="none" stroke="midnightblue" points="141.668,-507.779 147.126,-516.86 148.522,-506.357 141.668,-507.779"/>
</g>
<!-- Node8 -->
<g id="node8" class="node"><title>Node8</title>
<g id="a_node8"><a xlink:href="class_hydro_couple_1_1_spatial_1_1_i_regular_grid3_d_component_data_item.html" target="_top" xlink:title="An IRegularGrid3DComponentItem represents an IRegularGrid3D IComponentItem. ">
<polygon fill="none" stroke="black" points="158.996,-335.859 158.996,-479.874 373.028,-479.874 373.028,-335.859 158.996,-335.859"/>
<text text-anchor="start" x="166.996" y="-467.874" font-family="Monaco" font-size="10.00">HydroCouple::Spatial</text>
<text text-anchor="middle" x="266.012" y="-454.539" font-family="Monaco" font-size="10.00">::IRegularGrid3DComponentDataItem</text>
<polyline fill="none" stroke="black" points="158.996,-445.204 373.028,-445.204 "/>
<text text-anchor="middle" x="266.012" y="-433.204" font-family="Monaco" font-size="10.00"> </text>
<polyline fill="none" stroke="black" points="158.996,-423.869 373.028,-423.869 "/>
<text text-anchor="start" x="166.996" y="-411.869" font-family="Monaco" font-size="10.00">+ ~IRegularGrid3DComponent</text>
<text text-anchor="start" x="166.996" y="-398.534" font-family="Monaco" font-size="10.00">DataItem()</text>
<text text-anchor="start" x="166.996" y="-385.199" font-family="Monaco" font-size="10.00">+ numXCellsDimension()</text>
<text text-anchor="start" x="166.996" y="-371.864" font-family="Monaco" font-size="10.00">+ numYCellsDimension()</text>
<text text-anchor="start" x="166.996" y="-358.529" font-family="Monaco" font-size="10.00">+ numZCellsDimension()</text>
<text text-anchor="start" x="166.996" y="-345.194" font-family="Monaco" font-size="10.00">+ grid()</text>
</a>
</g>
</g>
<!-- Node3&#45;&gt;Node8 -->
<g id="edge8" class="edge"><title>Node3&#45;&gt;Node8</title>
<path fill="none" stroke="midnightblue" d="M216.3,-507.803C221.031,-498.387 225.758,-488.979 230.313,-479.915"/>
<polygon fill="none" stroke="midnightblue" points="213.131,-506.314 211.769,-516.821 219.386,-509.457 213.131,-506.314"/>
</g>
<!-- Node4 -->
<g id="node4" class="node"><title>Node4</title>
<g id="a_node4"><a xlink:href="class_hydro_couple_1_1_i_identity.html" target="_top" xlink:title="IIdentity interface class defines a method to get the Id of an HydroCouple entity. ">
<polygon fill="none" stroke="black" points="92.0015,-737.894 92.0015,-815.233 240.023,-815.233 240.023,-737.894 92.0015,-737.894"/>
<text text-anchor="middle" x="166.012" y="-803.233" font-family="Monaco" font-size="10.00">HydroCouple::IIdentity</text>
<polyline fill="none" stroke="black" points="92.0015,-793.898 240.023,-793.898 "/>
<text text-anchor="middle" x="166.012" y="-781.898" font-family="Monaco" font-size="10.00"> </text>
<polyline fill="none" stroke="black" points="92.0015,-772.563 240.023,-772.563 "/>
<text text-anchor="start" x="100.001" y="-760.563" font-family="Monaco" font-size="10.00">+ ~IIdentity()</text>
<text text-anchor="start" x="100.001" y="-747.229" font-family="Monaco" font-size="10.00">+ id()</text>
</a>
</g>
</g>
<!-- Node4&#45;&gt;Node3 -->
<g id="edge3" class="edge"><title>Node4&#45;&gt;Node3</title>
<path fill="none" stroke="midnightblue" d="M166.012,-727.311C166.012,-718.958 166.012,-710.033 166.012,-700.974"/>
<polygon fill="none" stroke="midnightblue" points="162.512,-727.553 166.012,-737.553 169.512,-727.553 162.512,-727.553"/>
</g>
<!-- Node5 -->
<g id="node5" class="node"><title>Node5</title>
<g id="a_node5"><a xlink:href="class_hydro_couple_1_1_i_description.html" target="_top" xlink:title="IDescription interface class provides descriptive information on a HydroCouple object. ">
<polygon fill="none" stroke="black" points="83,-852.233 83,-969.578 249.024,-969.578 249.024,-852.233 83,-852.233"/>
<text text-anchor="middle" x="166.012" y="-957.578" font-family="Monaco" font-size="10.00">HydroCouple::IDescription</text>
<polyline fill="none" stroke="black" points="83,-948.243 249.024,-948.243 "/>
<text text-anchor="middle" x="166.012" y="-936.243" font-family="Monaco" font-size="10.00"> </text>
<polyline fill="none" stroke="black" points="83,-926.908 249.024,-926.908 "/>
<text text-anchor="start" x="91" y="-914.908" font-family="Monaco" font-size="10.00">+ ~IDescription()</text>
<text text-anchor="start" x="91" y="-901.573" font-family="Monaco" font-size="10.00">+ caption()</text>
<text text-anchor="start" x="91" y="-888.238" font-family="Monaco" font-size="10.00">+ setCaption()</text>
<text text-anchor="start" x="91" y="-874.903" font-family="Monaco" font-size="10.00">+ description()</text>
<text text-anchor="start" x="91" y="-861.568" font-family="Monaco" font-size="10.00">+ setDescription()</text>
</a>
</g>
</g>
<!-- Node5&#45;&gt;Node4 -->
<g id="edge4" class="edge"><title>Node5&#45;&gt;Node4</title>
<path fill="none" stroke="midnightblue" d="M166.012,-841.667C166.012,-832.629 166.012,-823.641 166.012,-815.381"/>
<polygon fill="none" stroke="midnightblue" points="162.512,-841.858 166.012,-851.859 169.512,-841.859 162.512,-841.858"/>
</g>
<!-- Node6 -->
<g id="node6" class="node"><title>Node6</title>
<g id="a_node6"><a xlink:href="class_hydro_couple_1_1_i_property_changed.html" target="_top" xlink:title="IPropertyChanged interface is used to emit signal/event when a property of an object changes...">
<polygon fill="none" stroke="black" points="70.998,-1006.58 70.998,-1070.58 261.026,-1070.58 261.026,-1006.58 70.998,-1006.58"/>
<text text-anchor="middle" x="166.012" y="-1058.58" font-family="Monaco" font-size="10.00">HydroCouple::IPropertyChanged</text>
<polyline fill="none" stroke="black" points="70.998,-1049.25 261.026,-1049.25 "/>
<text text-anchor="middle" x="166.012" y="-1037.25" font-family="Monaco" font-size="10.00"> </text>
<polyline fill="none" stroke="black" points="70.998,-1027.91 261.026,-1027.91 "/>
<text text-anchor="start" x="78.998" y="-1015.91" font-family="Monaco" font-size="10.00">+ ~IPropertyChanged()</text>
</a>
</g>
</g>
<!-- Node6&#45;&gt;Node5 -->
<g id="edge5" class="edge"><title>Node6&#45;&gt;Node5</title>
<path fill="none" stroke="midnightblue" d="M166.012,-996.258C166.012,-987.873 166.012,-978.906 166.012,-970.064"/>
<polygon fill="none" stroke="midnightblue" points="162.512,-996.515 166.012,-1006.51 169.512,-996.515 162.512,-996.515"/>
</g>
<!-- Node7 -->
<g id="node7" class="node"><title>Node7</title>
<g id="a_node7"><a xlink:href="class_hydro_couple_1_1_spatial_1_1_i_regular_grid3_d_only_component_data_item.html" target="_top" xlink:title="An IRegularGrid3DOnlyComponentDataItem represents an IRegularGrid3D IComponentItem. ">
<polygon fill="none" stroke="black" points="183.998,-114.84 183.998,-298.859 380.027,-298.859 380.027,-114.84 183.998,-114.84"/>
<text text-anchor="start" x="191.998" y="-286.859" font-family="Monaco" font-size="10.00">HydroCouple::Spatial</text>
<text text-anchor="start" x="191.998" y="-273.524" font-family="Monaco" font-size="10.00">::IRegularGrid3DOnlyComponent</text>
<text text-anchor="middle" x="282.012" y="-260.189" font-family="Monaco" font-size="10.00">DataItem</text>
<polyline fill="none" stroke="black" points="183.998,-250.854 380.027,-250.854 "/>
<text text-anchor="middle" x="282.012" y="-238.854" font-family="Monaco" font-size="10.00"> </text>
<polyline fill="none" stroke="black" points="183.998,-229.52 380.027,-229.52 "/>
<text text-anchor="start" x="191.998" y="-217.52" font-family="Monaco" font-size="10.00">+ ~IRegularGrid3DOnlyComponent</text>
<text text-anchor="start" x="191.998" y="-204.185" font-family="Monaco" font-size="10.00">DataItem()</text>
<text text-anchor="start" x="191.998" y="-190.85" font-family="Monaco" font-size="10.00">+ getValue()</text>
<text text-anchor="start" x="191.998" y="-177.515" font-family="Monaco" font-size="10.00">+ getValues()</text>
<text text-anchor="start" x="191.998" y="-164.18" font-family="Monaco" font-size="10.00">+ getValues()</text>
<text text-anchor="start" x="191.998" y="-150.845" font-family="Monaco" font-size="10.00">+ setValue()</text>
<text text-anchor="start" x="191.998" y="-137.51" font-family="Monaco" font-size="10.00">+ setValues()</text>
<text text-anchor="start" x="191.998" y="-124.175" font-family="Monaco" font-size="10.00">+ setValues()</text>
</a>
</g>
</g>
<!-- Node7&#45;&gt;Node1 -->
<g id="edge6" class="edge"><title>Node7&#45;&gt;Node1</title>
<path fill="none" stroke="midnightblue" d="M221.767,-106.036C215.818,-96.1788 210.07,-86.6563 204.882,-78.0601"/>
<polygon fill="none" stroke="midnightblue" points="218.875,-108.017 227.039,-114.77 224.868,-104.4 218.875,-108.017"/>
</g>
<!-- Node8&#45;&gt;Node7 -->
<g id="edge7" class="edge"><title>Node8&#45;&gt;Node7</title>
<path fill="none" stroke="midnightblue" d="M272.555,-325.483C273.254,-316.793 273.968,-307.913 274.675,-299.119"/>
<polygon fill="none" stroke="midnightblue" points="269.056,-325.331 271.743,-335.579 276.034,-325.892 269.056,-325.331"/>
</g>
</g>
</svg>
