<?xml version="1.0" encoding="UTF-8" standalone="no"?>
<!DOCTYPE svg PUBLIC "-//W3C//DTD SVG 1.1//EN"
 "http://www.w3.org/Graphics/SVG/1.1/DTD/svg11.dtd">
<!-- Generated by graphviz version 2.38.0 (20140413.2041)
 -->
<!-- Title: HydroCouple::Spatial::IRegularGrid2DOnlyComponentDataItem Pages: 1 -->
<!--zoomable 1066 -->
<svg id="main" version="1.1" xmlns="http://www.w3.org/2000/svg" xmlns:xlink="http://www.w3.org/1999/xlink" xml:space="preserve" onload="init(evt)">
<style type="text/css"><![CDATA[
.edge:hover path { stroke: red; }
.edge:hover polygon { stroke: red; fill: red; }
]]></style>
<script type="text/javascript"><![CDATA[
var edges = document.getElementsByTagName('g');
if (edges && edges.length) {
  for (var i=0;i<edges.length;i++) {
    if (edges[i].id.substr(0,4)=='edge') {
      edges[i].setAttribute('class','edge');
    }
  }
}
]]></script>
        <defs>
                <circle id="rim" cx="0" cy="0" r="7"/>
                <circle id="rim2" cx="0" cy="0" r="3.5"/>
                <g id="zoomPlus">
                        <use xlink:href="#rim" fill="#404040">
                                <set attributeName="fill" to="#808080" begin="zoomplus.mouseover" end="zoomplus.mouseout"/>
                        </use>
                        <path d="M-4,0h8M0,-4v8" fill="none" stroke="white" stroke-width="1.5" pointer-events="none"/>
                </g>
                <g id="zoomMin">
                        <use xlink:href="#rim" fill="#404040">
                                <set attributeName="fill" to="#808080" begin="zoomminus.mouseover" end="zoomminus.mouseout"/>
                        </use>
                        <path d="M-4,0h8" fill="none" stroke="white" stroke-width="1.5" pointer-events="none"/>
                </g>
                <g id="dirArrow">
                        <path fill="none" stroke="white" stroke-width="1.5" d="M0,-3.0v7 M-2.5,-0.5L0,-3.0L2.5,-0.5"/>
                </g>
               <g id="resetDef">
                       <use xlink:href="#rim2" fill="#404040">
                               <set attributeName="fill" to="#808080" begin="reset.mouseover" end="reset.mouseout"/>
                       </use>
               </g>
        </defs>

<script type="text/javascript">
var viewWidth = 448;
var viewHeight = 1066;
var sectionId = 'dynsection-0';
</script>
<script xlink:href="svgpan.js"/>
<svg id="graph" class="graph">
<g id="viewport">
<title>HydroCouple::Spatial::IRegularGrid2DOnlyComponentDataItem</title>
<!-- Node1 -->
<g id="node1" class="node"><title>Node1</title>
<polygon fill="#bfbfbf" stroke="black" points="117,-114.84 117,-298.859 313.03,-298.859 313.03,-114.84 117,-114.84"/>
<text text-anchor="start" x="125" y="-286.859" font-family="Monaco" font-size="10.00">HydroCouple::Spatial</text>
<text text-anchor="start" x="125" y="-273.524" font-family="Monaco" font-size="10.00">::IRegularGrid2DOnlyComponent</text>
<text text-anchor="middle" x="215.015" y="-260.189" font-family="Monaco" font-size="10.00">DataItem</text>
<polyline fill="none" stroke="black" points="117,-250.854 313.03,-250.854 "/>
<text text-anchor="middle" x="215.015" y="-238.854" font-family="Monaco" font-size="10.00"> </text>
<polyline fill="none" stroke="black" points="117,-229.52 313.03,-229.52 "/>
<text text-anchor="start" x="125" y="-217.52" font-family="Monaco" font-size="10.00">+ ~IRegularGrid2DOnlyComponent</text>
<text text-anchor="start" x="125" y="-204.185" font-family="Monaco" font-size="10.00">DataItem()</text>
<text text-anchor="start" x="125" y="-190.85" font-family="Monaco" font-size="10.00">+ getValue()</text>
<text text-anchor="start" x="125" y="-177.515" font-family="Monaco" font-size="10.00">+ getValues()</text>
<text text-anchor="start" x="125" y="-164.18" font-family="Monaco" font-size="10.00">+ getValues()</text>
<text text-anchor="start" x="125" y="-150.845" font-family="Monaco" font-size="10.00">+ setValue()</text>
<text text-anchor="start" x="125" y="-137.51" font-family="Monaco" font-size="10.00">+ setValues()</text>
<text text-anchor="start" x="125" y="-124.175" font-family="Monaco" font-size="10.00">+ setValues()</text>
</g>
<!-- Node7 -->
<g id="node7" class="node"><title>Node7</title>
<g id="a_node7"><a xlink:href="class_hydro_couple_1_1_spatial_1_1_i_regular_grid2_d_only_argument.html" target="_top" xlink:title="An IRegularGrid2DArgument is an IExchangeItem with an IRegularGrid2DComponentItem. ">
<polygon fill="none" stroke="black" points="0,-0.5 0,-77.8398 202.03,-77.8398 202.03,-0.5 0,-0.5"/>
<text text-anchor="start" x="8" y="-65.8398" font-family="Monaco" font-size="10.00">HydroCouple::Spatial</text>
<text text-anchor="middle" x="101.015" y="-52.5049" font-family="Monaco" font-size="10.00">::IRegularGrid2DOnlyArgument</text>
<polyline fill="none" stroke="black" points="0,-43.1699 202.03,-43.1699 "/>
<text text-anchor="middle" x="101.015" y="-31.1699" font-family="Monaco" font-size="10.00"> </text>
<polyline fill="none" stroke="black" points="0,-21.835 202.03,-21.835 "/>
<text text-anchor="start" x="8" y="-9.83496" font-family="Monaco" font-size="10.00">+ ~IRegularGrid2DOnlyArgument()</text>
</a>
</g>
</g>
<!-- Node1&#45;&gt;Node7 -->
<g id="edge6" class="edge"><title>Node1&#45;&gt;Node7</title>
<path fill="none" stroke="midnightblue" d="M146.542,-106.335C139.686,-96.3712 133.061,-86.7431 127.086,-78.0601"/>
<polygon fill="none" stroke="midnightblue" points="143.794,-108.516 152.346,-114.77 149.561,-104.548 143.794,-108.516"/>
</g>
<!-- Node8 -->
<g id="node8" class="node"><title>Node8</title>
<g id="a_node8"><a xlink:href="class_hydro_couple_1_1_spatial_1_1_i_regular_grid2_d_only_exhange_item.html" target="_top" xlink:title="An IRegularGrid2DOnlyExhangeItem is an IExchangeItem with an IRegularGrid2DComponentItem. ">
<polygon fill="none" stroke="black" points="219.999,-0.5 219.999,-77.8398 440.032,-77.8398 440.032,-0.5 219.999,-0.5"/>
<text text-anchor="start" x="227.999" y="-65.8398" font-family="Monaco" font-size="10.00">HydroCouple::Spatial</text>
<text text-anchor="middle" x="330.015" y="-52.5049" font-family="Monaco" font-size="10.00">::IRegularGrid2DOnlyExhangeItem</text>
<polyline fill="none" stroke="black" points="219.999,-43.1699 440.032,-43.1699 "/>
<text text-anchor="middle" x="330.015" y="-31.1699" font-family="Monaco" font-size="10.00"> </text>
<polyline fill="none" stroke="black" points="219.999,-21.835 440.032,-21.835 "/>
<text text-anchor="start" x="227.999" y="-9.83496" font-family="Monaco" font-size="10.00">+ ~IRegularGrid2DOnlyExhangeItem()</text>
</a>
</g>
</g>
<!-- Node1&#45;&gt;Node8 -->
<g id="edge7" class="edge"><title>Node1&#45;&gt;Node8</title>
<path fill="none" stroke="midnightblue" d="M284.089,-106.335C291.005,-96.3712 297.688,-86.7431 303.715,-78.0601"/>
<polygon fill="none" stroke="midnightblue" points="281.061,-104.56 278.234,-114.77 286.812,-108.551 281.061,-104.56"/>
</g>
<!-- Node2 -->
<g id="node2" class="node"><title>Node2</title>
<g id="a_node2"><a xlink:href="class_hydro_couple_1_1_spatial_1_1_i_regular_grid2_d_component_data_item.html" target="_top" xlink:title="An IRegularGrid2DComponentDataItem represents an IRegularGrid2D IComponentItem. ">
<polygon fill="none" stroke="black" points="107.999,-335.859 107.999,-466.539 322.031,-466.539 322.031,-335.859 107.999,-335.859"/>
<text text-anchor="start" x="115.999" y="-454.539" font-family="Monaco" font-size="10.00">HydroCouple::Spatial</text>
<text text-anchor="middle" x="215.015" y="-441.204" font-family="Monaco" font-size="10.00">::IRegularGrid2DComponentDataItem</text>
<polyline fill="none" stroke="black" points="107.999,-431.869 322.031,-431.869 "/>
<text text-anchor="middle" x="215.015" y="-419.869" font-family="Monaco" font-size="10.00"> </text>
<polyline fill="none" stroke="black" points="107.999,-410.534 322.031,-410.534 "/>
<text text-anchor="start" x="115.999" y="-398.534" font-family="Monaco" font-size="10.00">+ ~IRegularGrid2DComponent</text>
<text text-anchor="start" x="115.999" y="-385.199" font-family="Monaco" font-size="10.00">DataItem()</text>
<text text-anchor="start" x="115.999" y="-371.864" font-family="Monaco" font-size="10.00">+ numXCellsDimension()</text>
<text text-anchor="start" x="115.999" y="-358.529" font-family="Monaco" font-size="10.00">+ numYCellsDimension()</text>
<text text-anchor="start" x="115.999" y="-345.194" font-family="Monaco" font-size="10.00">+ grid()</text>
</a>
</g>
</g>
<!-- Node2&#45;&gt;Node1 -->
<g id="edge1" class="edge"><title>Node2&#45;&gt;Node1</title>
<path fill="none" stroke="midnightblue" d="M215.015,-325.518C215.015,-316.805 215.015,-307.844 215.015,-298.942"/>
<polygon fill="none" stroke="midnightblue" points="211.515,-325.614 215.015,-335.614 218.515,-325.615 211.515,-325.614"/>
</g>
<!-- Node3 -->
<g id="node3" class="node"><title>Node3</title>
<g id="a_node3"><a xlink:href="class_hydro_couple_1_1_i_component_data_item.html" target="_top" xlink:title="IComponentItem is a fundamental unit of data for a component. ">
<polygon fill="none" stroke="black" points="114,-503.539 114,-687.559 316.03,-687.559 316.03,-503.539 114,-503.539"/>
<text text-anchor="middle" x="215.015" y="-675.559" font-family="Monaco" font-size="10.00">HydroCouple::IComponentDataItem</text>
<polyline fill="none" stroke="black" points="114,-666.224 316.03,-666.224 "/>
<text text-anchor="middle" x="215.015" y="-654.224" font-family="Monaco" font-size="10.00"> </text>
<polyline fill="none" stroke="black" points="114,-644.889 316.03,-644.889 "/>
<text text-anchor="start" x="122" y="-632.889" font-family="Monaco" font-size="10.00">+ ~IComponentDataItem()</text>
<text text-anchor="start" x="122" y="-619.554" font-family="Monaco" font-size="10.00">+ modelComponent()</text>
<text text-anchor="start" x="122" y="-606.219" font-family="Monaco" font-size="10.00">+ dimensions()</text>
<text text-anchor="start" x="122" y="-592.884" font-family="Monaco" font-size="10.00">+ valueDefinition()</text>
<text text-anchor="start" x="122" y="-579.549" font-family="Monaco" font-size="10.00">+ getValue()</text>
<text text-anchor="start" x="122" y="-566.214" font-family="Monaco" font-size="10.00">+ getValues()</text>
<text text-anchor="start" x="122" y="-552.879" font-family="Monaco" font-size="10.00">+ getValues()</text>
<text text-anchor="start" x="122" y="-539.544" font-family="Monaco" font-size="10.00">+ setValue()</text>
<text text-anchor="start" x="122" y="-526.209" font-family="Monaco" font-size="10.00">+ setValues()</text>
<text text-anchor="start" x="122" y="-512.874" font-family="Monaco" font-size="10.00">+ setValues()</text>
</a>
</g>
</g>
<!-- Node3&#45;&gt;Node2 -->
<g id="edge2" class="edge"><title>Node3&#45;&gt;Node2</title>
<path fill="none" stroke="midnightblue" d="M215.015,-493.24C215.015,-484.209 215.015,-475.24 215.015,-466.65"/>
<polygon fill="none" stroke="midnightblue" points="211.515,-493.444 215.015,-503.444 218.515,-493.444 211.515,-493.444"/>
</g>
<!-- Node4 -->
<g id="node4" class="node"><title>Node4</title>
<g id="a_node4"><a xlink:href="class_hydro_couple_1_1_i_identity.html" target="_top" xlink:title="IIdentity interface class defines a method to get the Id of an HydroCouple entity. ">
<polygon fill="none" stroke="black" points="141.004,-724.559 141.004,-801.898 289.026,-801.898 289.026,-724.559 141.004,-724.559"/>
<text text-anchor="middle" x="215.015" y="-789.898" font-family="Monaco" font-size="10.00">HydroCouple::IIdentity</text>
<polyline fill="none" stroke="black" points="141.004,-780.563 289.026,-780.563 "/>
<text text-anchor="middle" x="215.015" y="-768.563" font-family="Monaco" font-size="10.00"> </text>
<polyline fill="none" stroke="black" points="141.004,-759.229 289.026,-759.229 "/>
<text text-anchor="start" x="149.004" y="-747.229" font-family="Monaco" font-size="10.00">+ ~IIdentity()</text>
<text text-anchor="start" x="149.004" y="-733.894" font-family="Monaco" font-size="10.00">+ id()</text>
</a>
</g>
</g>
<!-- Node4&#45;&gt;Node3 -->
<g id="edge3" class="edge"><title>Node4&#45;&gt;Node3</title>
<path fill="none" stroke="midnightblue" d="M215.015,-713.976C215.015,-705.623 215.015,-696.698 215.015,-687.639"/>
<polygon fill="none" stroke="midnightblue" points="211.515,-714.218 215.015,-724.218 218.515,-714.218 211.515,-714.218"/>
</g>
<!-- Node5 -->
<g id="node5" class="node"><title>Node5</title>
<g id="a_node5"><a xlink:href="class_hydro_couple_1_1_i_description.html" target="_top" xlink:title="IDescription interface class provides descriptive information on a HydroCouple object. ">
<polygon fill="none" stroke="black" points="132.003,-838.898 132.003,-956.243 298.027,-956.243 298.027,-838.898 132.003,-838.898"/>
<text text-anchor="middle" x="215.015" y="-944.243" font-family="Monaco" font-size="10.00">HydroCouple::IDescription</text>
<polyline fill="none" stroke="black" points="132.003,-934.908 298.027,-934.908 "/>
<text text-anchor="middle" x="215.015" y="-922.908" font-family="Monaco" font-size="10.00"> </text>
<polyline fill="none" stroke="black" points="132.003,-913.573 298.027,-913.573 "/>
<text text-anchor="start" x="140.003" y="-901.573" font-family="Monaco" font-size="10.00">+ ~IDescription()</text>
<text text-anchor="start" x="140.003" y="-888.238" font-family="Monaco" font-size="10.00">+ caption()</text>
<text text-anchor="start" x="140.003" y="-874.903" font-family="Monaco" font-size="10.00">+ setCaption()</text>
<text text-anchor="start" x="140.003" y="-861.568" font-family="Monaco" font-size="10.00">+ description()</text>
<text text-anchor="start" x="140.003" y="-848.233" font-family="Monaco" font-size="10.00">+ setDescription()</text>
</a>
</g>
</g>
<!-- Node5&#45;&gt;Node4 -->
<g id="edge4" class="edge"><title>Node5&#45;&gt;Node4</title>
<path fill="none" stroke="midnightblue" d="M215.015,-828.333C215.015,-819.294 215.015,-810.306 215.015,-802.046"/>
<polygon fill="none" stroke="midnightblue" points="211.515,-828.524 215.015,-838.524 218.515,-828.524 211.515,-828.524"/>
</g>
<!-- Node6 -->
<g id="node6" class="node"><title>Node6</title>
<g id="a_node6"><a xlink:href="class_hydro_couple_1_1_i_property_changed.html" target="_top" xlink:title="IPropertyChanged interface is used to emit signal/event when a property of an object changes...">
<polygon fill="none" stroke="black" points="120.001,-993.243 120.001,-1057.25 310.029,-1057.25 310.029,-993.243 120.001,-993.243"/>
<text text-anchor="middle" x="215.015" y="-1045.25" font-family="Monaco" font-size="10.00">HydroCouple::IPropertyChanged</text>
<polyline fill="none" stroke="black" points="120.001,-1035.91 310.029,-1035.91 "/>
<text text-anchor="middle" x="215.015" y="-1023.91" font-family="Monaco" font-size="10.00"> </text>
<polyline fill="none" stroke="black" points="120.001,-1014.58 310.029,-1014.58 "/>
<text text-anchor="start" x="128.001" y="-1002.58" font-family="Monaco" font-size="10.00">+ ~IPropertyChanged()</text>
</a>
</g>
</g>
<!-- Node6&#45;&gt;Node5 -->
<g id="edge5" class="edge"><title>Node6&#45;&gt;Node5</title>
<path fill="none" stroke="midnightblue" d="M215.015,-982.923C215.015,-974.538 215.015,-965.571 215.015,-956.729"/>
<polygon fill="none" stroke="midnightblue" points="211.515,-983.18 215.015,-993.18 218.515,-983.18 211.515,-983.18"/>
</g>
</g>
</svg>
        <g id="navigator" transform="translate(0 0)" fill="#404254">
                <rect fill="#f2f5e9" fill-opacity="0.5" stroke="#606060" stroke-width=".5" x="0" y="0" width="60" height="60"/>
                <use id="zoomplus" xlink:href="#zoomPlus" x="17" y="9" onmousedown="handleZoom(evt,'in')"/>
                <use id="zoomminus" xlink:href="#zoomMin" x="42" y="9" onmousedown="handleZoom(evt,'out')"/>
                <use id="reset" xlink:href="#resetDef" x="30" y="36" onmousedown="handleReset()"/>
                <g id="arrowUp" xlink:href="#dirArrow" transform="translate(30 24)" onmousedown="handlePan(0,-1)">
                  <use xlink:href="#rim" fill="#404040">
                        <set attributeName="fill" to="#808080" begin="arrowUp.mouseover" end="arrowUp.mouseout"/>
                  </use>
                  <path fill="none" stroke="white" stroke-width="1.5" d="M0,-3.0v7 M-2.5,-0.5L0,-3.0L2.5,-0.5"/>
                </g>
                <g id="arrowRight" xlink:href="#dirArrow" transform="rotate(90) translate(36 -43)" onmousedown="handlePan(1,0)">
                  <use xlink:href="#rim" fill="#404040">
                        <set attributeName="fill" to="#808080" begin="arrowRight.mouseover" end="arrowRight.mouseout"/>
                  </use>
                  <path fill="none" stroke="white" stroke-width="1.5" d="M0,-3.0v7 M-2.5,-0.5L0,-3.0L2.5,-0.5"/>
                </g>
                <g id="arrowDown" xlink:href="#dirArrow" transform="rotate(180) translate(-30 -48)" onmousedown="handlePan(0,1)">
                  <use xlink:href="#rim" fill="#404040">
                        <set attributeName="fill" to="#808080" begin="arrowDown.mouseover" end="arrowDown.mouseout"/>
                  </use>
                  <path fill="none" stroke="white" stroke-width="1.5" d="M0,-3.0v7 M-2.5,-0.5L0,-3.0L2.5,-0.5"/>
                </g>
                <g id="arrowLeft" xlink:href="#dirArrow" transform="rotate(270) translate(-36 17)" onmousedown="handlePan(-1,0)">
                  <use xlink:href="#rim" fill="#404040">
                        <set attributeName="fill" to="#808080" begin="arrowLeft.mouseover" end="arrowLeft.mouseout"/>
                  </use>
                  <path fill="none" stroke="white" stroke-width="1.5" d="M0,-3.0v7 M-2.5,-0.5L0,-3.0L2.5,-0.5"/>
                </g>
        </g>
        <svg viewBox="0 0 15 15" width="100%" height="30px" preserveAspectRatio="xMaxYMin meet">
         <g id="arrow_out" transform="scale(0.3 0.3)">
          <a xlink:href="class_hydro_couple_1_1_spatial_1_1_i_regular_grid2_d_only_component_data_item__inherit__graph_org.svg" target="_base">
           <rect id="button" ry="5" rx="5" y="6" x="6" height="38" width="38"
                fill="#f2f5e9" fill-opacity="0.5" stroke="#606060" stroke-width="1.0"/>
           <path id="arrow"
             d="M 11.500037,31.436501 C 11.940474,20.09759 22.043105,11.32322 32.158766,21.979434 L 37.068811,17.246167 C 37.068811,17.246167 37.088388,32 37.088388,32 L 22.160133,31.978069 C 22.160133,31.978069 26.997745,27.140456 26.997745,27.140456 C 18.528582,18.264221 13.291696,25.230495 11.500037,31.436501 z"
             style="fill:#404040;"/>
          </a>
         </g>
        </svg>
</svg>
