<?xml version="1.0" encoding="UTF-8" standalone="no"?>
<!DOCTYPE svg PUBLIC "-//W3C//DTD SVG 1.1//EN"
 "http://www.w3.org/Graphics/SVG/1.1/DTD/svg11.dtd">
<!-- Generated by graphviz version 2.38.0 (20140413.2041)
 -->
<!-- Title: HydroCouple::SpatioTemporal::ITime3DRegularGridComponentItem Pages: 1 -->
<!--zoomable 1060 -->
<svg id="main" version="1.1" xmlns="http://www.w3.org/2000/svg" xmlns:xlink="http://www.w3.org/1999/xlink" xml:space="preserve" onload="init(evt)">
<style type="text/css"><![CDATA[
.edge:hover path { stroke: red; }
.edge:hover polygon { stroke: red; fill: red; }
]]></style>
<script type="text/javascript"><![CDATA[
var edges = document.getElementsByTagName('g');
if (edges && edges.length) {
  for (var i=0;i<edges.length;i++) {
    if (edges[i].id.substr(0,4)=='edge') {
      edges[i].setAttribute('class','edge');
    }
  }
}
]]></script>
        <defs>
                <circle id="rim" cx="0" cy="0" r="7"/>
                <circle id="rim2" cx="0" cy="0" r="3.5"/>
                <g id="zoomPlus">
                        <use xlink:href="#rim" fill="#404040">
                                <set attributeName="fill" to="#808080" begin="zoomplus.mouseover" end="zoomplus.mouseout"/>
                        </use>
                        <path d="M-4,0h8M0,-4v8" fill="none" stroke="white" stroke-width="1.5" pointer-events="none"/>
                </g>
                <g id="zoomMin">
                        <use xlink:href="#rim" fill="#404040">
                                <set attributeName="fill" to="#808080" begin="zoomminus.mouseover" end="zoomminus.mouseout"/>
                        </use>
                        <path d="M-4,0h8" fill="none" stroke="white" stroke-width="1.5" pointer-events="none"/>
                </g>
                <g id="dirArrow">
                        <path fill="none" stroke="white" stroke-width="1.5" d="M0,-3.0v7 M-2.5,-0.5L0,-3.0L2.5,-0.5"/>
                </g>
               <g id="resetDef">
                       <use xlink:href="#rim2" fill="#404040">
                               <set attributeName="fill" to="#808080" begin="reset.mouseover" end="reset.mouseout"/>
                       </use>
               </g>
        </defs>

<script type="text/javascript">
var viewWidth = 545;
var viewHeight = 1060;
var sectionId = 'dynsection-0';
</script>
<script xlink:href="svgpan.js"/>
<svg id="graph" class="graph">
<g id="viewport">
<title>HydroCouple::SpatioTemporal::ITime3DRegularGridComponentItem</title>
<polygon fill="white" stroke="none" points="-4,4 -4,-1056.07 541.031,-1056.07 541.031,4 -4,4"/>
<!-- Node1 -->
<g id="node1" class="node"><title>Node1</title>
<polygon fill="#bfbfbf" stroke="black" points="216.998,-128.175 216.998,-205.515 449.033,-205.515 449.033,-128.175 216.998,-128.175"/>
<text text-anchor="start" x="224.998" y="-193.515" font-family="Monaco" font-size="10.00">HydroCouple::SpatioTemporal</text>
<text text-anchor="middle" x="333.015" y="-180.18" font-family="Monaco" font-size="10.00">::ITime3DRegularGridComponentItem</text>
<polyline fill="none" stroke="black" points="216.998,-170.845 449.033,-170.845 "/>
<text text-anchor="middle" x="333.015" y="-158.845" font-family="Monaco" font-size="10.00"> </text>
<polyline fill="none" stroke="black" points="216.998,-149.51 449.033,-149.51 "/>
<text text-anchor="start" x="224.998" y="-137.51" font-family="Monaco" font-size="10.00">+ ~ITime3DRegularGridComponentItem()</text>
</g>
<!-- Node9 -->
<g id="node9" class="node"><title>Node9</title>
<g id="a_node9"><a xlink:href="class_hydro_couple_1_1_spatio_temporal_1_1_i_time3_d_regular_grid_argument.html" target="_top" xlink:title="The ITime3DRegularGridArgument class. ">
<polygon fill="white" stroke="black" points="0,-7.16748 0,-84.5073 202.03,-84.5073 202.03,-7.16748 0,-7.16748"/>
<text text-anchor="start" x="8" y="-72.5073" font-family="Monaco" font-size="10.00">HydroCouple::SpatioTemporal</text>
<text text-anchor="middle" x="101.015" y="-59.1724" font-family="Monaco" font-size="10.00">::ITime3DRegularGridArgument</text>
<polyline fill="none" stroke="black" points="0,-49.8374 202.03,-49.8374 "/>
<text text-anchor="middle" x="101.015" y="-37.8374" font-family="Monaco" font-size="10.00"> </text>
<polyline fill="none" stroke="black" points="0,-28.5024 202.03,-28.5024 "/>
<text text-anchor="start" x="8" y="-16.5024" font-family="Monaco" font-size="10.00">+ ~ITime3DRegularGridArgument()</text>
</a>
</g>
</g>
<!-- Node1&#45;&gt;Node9 -->
<g id="edge9" class="edge"><title>Node1&#45;&gt;Node9</title>
<path fill="none" stroke="midnightblue" d="M250.29,-123.41C225.567,-110.728 198.64,-96.9153 174.548,-84.5572"/>
<polygon fill="none" stroke="midnightblue" points="248.795,-126.577 259.29,-128.027 251.99,-120.348 248.795,-126.577"/>
</g>
<!-- Node10 -->
<g id="node10" class="node"><title>Node10</title>
<g id="a_node10"><a xlink:href="class_hydro_couple_1_1_spatio_temporal_1_1_i_time3_d_regular_grid_exchange_item.html" target="_top" xlink:title="The ITime3DRegularGridExchangeItem class. ">
<polygon fill="white" stroke="black" points="219.998,-0.5 219.998,-91.1748 446.032,-91.1748 446.032,-0.5 219.998,-0.5"/>
<text text-anchor="start" x="227.998" y="-79.1748" font-family="Monaco" font-size="10.00">HydroCouple::SpatioTemporal</text>
<text text-anchor="middle" x="333.015" y="-65.8398" font-family="Monaco" font-size="10.00">::ITime3DRegularGridExchangeItem</text>
<polyline fill="none" stroke="black" points="219.998,-56.5049 446.032,-56.5049 "/>
<text text-anchor="middle" x="333.015" y="-44.5049" font-family="Monaco" font-size="10.00"> </text>
<polyline fill="none" stroke="black" points="219.998,-35.1699 446.032,-35.1699 "/>
<text text-anchor="start" x="227.998" y="-23.1699" font-family="Monaco" font-size="10.00">+ ~ITime3RegularGridExchangeItem()</text>
<text text-anchor="start" x="227.998" y="-9.83496" font-family="Monaco" font-size="10.00">+ ~ITime3DRegularGridExchangeItem()</text>
</a>
</g>
</g>
<!-- Node1&#45;&gt;Node10 -->
<g id="edge10" class="edge"><title>Node1&#45;&gt;Node10</title>
<path fill="none" stroke="midnightblue" d="M326.379,-117.855C326.205,-109.157 326.231,-100.117 326.455,-91.5177"/>
<polygon fill="none" stroke="midnightblue" points="322.881,-117.97 326.674,-127.863 329.877,-117.764 322.881,-117.97"/>
</g>
<!-- Node1&#45;&gt;Node10 -->
<g id="edge11" class="edge"><title>Node1&#45;&gt;Node10</title>
<path fill="none" stroke="midnightblue" d="M339.652,-117.855C339.825,-109.157 339.8,-100.117 339.575,-91.5177"/>
<polygon fill="none" stroke="midnightblue" points="336.153,-117.764 339.356,-127.863 343.15,-117.97 336.153,-117.764"/>
</g>
<!-- Node2 -->
<g id="node2" class="node"><title>Node2</title>
<g id="a_node2"><a xlink:href="class_hydro_couple_1_1_temporal_1_1_i_time_component_item.html" target="_top" xlink:title="ITimeComponentItem is an IComponentItem with a temporal attribute. ">
<polygon fill="white" stroke="black" points="157.004,-242.515 157.004,-373.194 311.026,-373.194 311.026,-242.515 157.004,-242.515"/>
<text text-anchor="start" x="165.004" y="-361.194" font-family="Monaco" font-size="10.00">HydroCouple::Temporal</text>
<text text-anchor="middle" x="234.015" y="-347.859" font-family="Monaco" font-size="10.00">::ITimeComponentItem</text>
<polyline fill="none" stroke="black" points="157.004,-338.524 311.026,-338.524 "/>
<text text-anchor="middle" x="234.015" y="-326.524" font-family="Monaco" font-size="10.00"> </text>
<polyline fill="none" stroke="black" points="157.004,-317.189 311.026,-317.189 "/>
<text text-anchor="start" x="165.004" y="-305.189" font-family="Monaco" font-size="10.00">+ ~ITimeComponentItem()</text>
<text text-anchor="start" x="165.004" y="-291.854" font-family="Monaco" font-size="10.00">+ timeDimension()</text>
<text text-anchor="start" x="165.004" y="-278.52" font-family="Monaco" font-size="10.00">+ times()</text>
<text text-anchor="start" x="165.004" y="-265.185" font-family="Monaco" font-size="10.00">+ timeSpan()</text>
<text text-anchor="start" x="165.004" y="-251.85" font-family="Monaco" font-size="10.00">+ time()</text>
</a>
</g>
</g>
<!-- Node2&#45;&gt;Node1 -->
<g id="edge1" class="edge"><title>Node2&#45;&gt;Node1</title>
<path fill="none" stroke="midnightblue" d="M285.879,-234.031C292.83,-224.27 299.719,-214.597 305.996,-205.784"/>
<polygon fill="none" stroke="midnightblue" points="282.987,-232.057 280.037,-242.233 288.689,-236.118 282.987,-232.057"/>
</g>
<!-- Node3 -->
<g id="node3" class="node"><title>Node3</title>
<g id="a_node3"><a xlink:href="class_hydro_couple_1_1_i_component_item.html" target="_top" xlink:title="IComponentItem is a fundamental unit of data for a component. ">
<polygon fill="white" stroke="black" points="228.002,-591.209 228.002,-681.884 406.028,-681.884 406.028,-591.209 228.002,-591.209"/>
<text text-anchor="middle" x="317.015" y="-669.884" font-family="Monaco" font-size="10.00">HydroCouple::IComponentItem</text>
<polyline fill="none" stroke="black" points="228.002,-660.549 406.028,-660.549 "/>
<text text-anchor="middle" x="317.015" y="-648.549" font-family="Monaco" font-size="10.00"> </text>
<polyline fill="none" stroke="black" points="228.002,-639.214 406.028,-639.214 "/>
<text text-anchor="start" x="236.002" y="-627.214" font-family="Monaco" font-size="10.00">+ ~IComponentItem()</text>
<text text-anchor="start" x="236.002" y="-613.879" font-family="Monaco" font-size="10.00">+ modelComponent()</text>
<text text-anchor="start" x="236.002" y="-600.544" font-family="Monaco" font-size="10.00">+ dimensions()</text>
</a>
</g>
</g>
<!-- Node3&#45;&gt;Node2 -->
<g id="edge2" class="edge"><title>Node3&#45;&gt;Node2</title>
<path fill="none" stroke="midnightblue" d="M303.213,-581.221C288.693,-524.069 265.849,-434.154 250.418,-373.418"/>
<polygon fill="none" stroke="midnightblue" points="299.88,-582.317 305.735,-591.147 306.665,-580.593 299.88,-582.317"/>
</g>
<!-- Node8 -->
<g id="node8" class="node"><title>Node8</title>
<g id="a_node8"><a xlink:href="class_hydro_couple_1_1_spatial_1_1_i2_d_regular_grid_component_item.html" target="_top" xlink:title="An I2DRegularGridComponentItem represents an I2DRegularGrid IComponentItem. ">
<polygon fill="white" stroke="black" points="312,-410.194 312,-554.209 520.031,-554.209 520.031,-410.194 312,-410.194"/>
<text text-anchor="start" x="320" y="-542.209" font-family="Monaco" font-size="10.00">HydroCouple::Spatial</text>
<text text-anchor="middle" x="416.015" y="-528.874" font-family="Monaco" font-size="10.00">::I2DRegularGridComponentItem</text>
<polyline fill="none" stroke="black" points="312,-519.539 520.031,-519.539 "/>
<text text-anchor="middle" x="416.015" y="-507.539" font-family="Monaco" font-size="10.00"> </text>
<polyline fill="none" stroke="black" points="312,-498.204 520.031,-498.204 "/>
<text text-anchor="start" x="320" y="-486.204" font-family="Monaco" font-size="10.00">+ ~I2DRegularGridComponentItem()</text>
<text text-anchor="start" x="320" y="-472.869" font-family="Monaco" font-size="10.00">+ numXNodesDimension()</text>
<text text-anchor="start" x="320" y="-459.534" font-family="Monaco" font-size="10.00">+ numYNodesDimension()</text>
<text text-anchor="start" x="320" y="-446.199" font-family="Monaco" font-size="10.00">+ numXCellsDimension()</text>
<text text-anchor="start" x="320" y="-432.864" font-family="Monaco" font-size="10.00">+ numYCellsDimension()</text>
<text text-anchor="start" x="320" y="-419.529" font-family="Monaco" font-size="10.00">+ grid()</text>
</a>
</g>
</g>
<!-- Node3&#45;&gt;Node8 -->
<g id="edge8" class="edge"><title>Node3&#45;&gt;Node8</title>
<path fill="none" stroke="midnightblue" d="M351.47,-582.526C357.377,-573.436 363.6,-563.861 369.755,-554.388"/>
<polygon fill="none" stroke="midnightblue" points="348.43,-580.78 345.916,-591.072 354.3,-584.595 348.43,-580.78"/>
</g>
<!-- Node4 -->
<g id="node4" class="node"><title>Node4</title>
<g id="a_node4"><a xlink:href="class_hydro_couple_1_1_i_identity.html" target="_top" xlink:title="IIdentity interface class defines a method to get the Id of an HydroCouple entity. ">
<polygon fill="white" stroke="black" points="243.004,-718.884 243.004,-796.224 391.026,-796.224 391.026,-718.884 243.004,-718.884"/>
<text text-anchor="middle" x="317.015" y="-784.224" font-family="Monaco" font-size="10.00">HydroCouple::IIdentity</text>
<polyline fill="none" stroke="black" points="243.004,-774.889 391.026,-774.889 "/>
<text text-anchor="middle" x="317.015" y="-762.889" font-family="Monaco" font-size="10.00"> </text>
<polyline fill="none" stroke="black" points="243.004,-753.554 391.026,-753.554 "/>
<text text-anchor="start" x="251.004" y="-741.554" font-family="Monaco" font-size="10.00">+ ~IIdentity()</text>
<text text-anchor="start" x="251.004" y="-728.219" font-family="Monaco" font-size="10.00">+ id()</text>
</a>
</g>
</g>
<!-- Node4&#45;&gt;Node3 -->
<g id="edge3" class="edge"><title>Node4&#45;&gt;Node3</title>
<path fill="none" stroke="midnightblue" d="M317.015,-708.564C317.015,-699.865 317.015,-690.826 317.015,-682.227"/>
<polygon fill="none" stroke="midnightblue" points="313.515,-708.572 317.015,-718.572 320.515,-708.572 313.515,-708.572"/>
</g>
<!-- Node5 -->
<g id="node5" class="node"><title>Node5</title>
<g id="a_node5"><a xlink:href="class_hydro_couple_1_1_i_description.html" target="_top" xlink:title="IDescription interface class provides descriptive information on a HydroCouple object. ">
<polygon fill="white" stroke="black" points="234.003,-833.224 234.003,-950.568 400.027,-950.568 400.027,-833.224 234.003,-833.224"/>
<text text-anchor="middle" x="317.015" y="-938.568" font-family="Monaco" font-size="10.00">HydroCouple::IDescription</text>
<polyline fill="none" stroke="black" points="234.003,-929.233 400.027,-929.233 "/>
<text text-anchor="middle" x="317.015" y="-917.233" font-family="Monaco" font-size="10.00"> </text>
<polyline fill="none" stroke="black" points="234.003,-907.898 400.027,-907.898 "/>
<text text-anchor="start" x="242.003" y="-895.898" font-family="Monaco" font-size="10.00">+ ~IDescription()</text>
<text text-anchor="start" x="242.003" y="-882.563" font-family="Monaco" font-size="10.00">+ getCaption()</text>
<text text-anchor="start" x="242.003" y="-869.229" font-family="Monaco" font-size="10.00">+ setCaption()</text>
<text text-anchor="start" x="242.003" y="-855.894" font-family="Monaco" font-size="10.00">+ getDescription()</text>
<text text-anchor="start" x="242.003" y="-842.559" font-family="Monaco" font-size="10.00">+ setDescription()</text>
</a>
</g>
</g>
<!-- Node5&#45;&gt;Node4 -->
<g id="edge4" class="edge"><title>Node5&#45;&gt;Node4</title>
<path fill="none" stroke="midnightblue" d="M317.015,-822.658C317.015,-813.619 317.015,-804.632 317.015,-796.371"/>
<polygon fill="none" stroke="midnightblue" points="313.515,-822.849 317.015,-832.849 320.515,-822.849 313.515,-822.849"/>
</g>
<!-- Node6 -->
<g id="node6" class="node"><title>Node6</title>
<g id="a_node6"><a xlink:href="class_hydro_couple_1_1_i_property_changed.html" target="_top" xlink:title="IPropertyChanged interface is used to emit signal/event when a property of an object changes...">
<polygon fill="white" stroke="black" points="222.001,-987.568 222.001,-1051.57 412.029,-1051.57 412.029,-987.568 222.001,-987.568"/>
<text text-anchor="middle" x="317.015" y="-1039.57" font-family="Monaco" font-size="10.00">HydroCouple::IPropertyChanged</text>
<polyline fill="none" stroke="black" points="222.001,-1030.24 412.029,-1030.24 "/>
<text text-anchor="middle" x="317.015" y="-1018.24" font-family="Monaco" font-size="10.00"> </text>
<polyline fill="none" stroke="black" points="222.001,-1008.9 412.029,-1008.9 "/>
<text text-anchor="start" x="230.001" y="-996.903" font-family="Monaco" font-size="10.00">+ ~IPropertyChanged()</text>
</a>
</g>
</g>
<!-- Node6&#45;&gt;Node5 -->
<g id="edge5" class="edge"><title>Node6&#45;&gt;Node5</title>
<path fill="none" stroke="midnightblue" d="M317.015,-977.248C317.015,-968.863 317.015,-959.896 317.015,-951.054"/>
<polygon fill="none" stroke="midnightblue" points="313.515,-977.505 317.015,-987.505 320.515,-977.505 313.515,-977.505"/>
</g>
<!-- Node7 -->
<g id="node7" class="node"><title>Node7</title>
<g id="a_node7"><a xlink:href="class_hydro_couple_1_1_spatial_1_1_i3_d_regular_grid_component_item.html" target="_top" xlink:title="An I3DRegularGridComponentItem represents an I3DRegularGrid IComponentItem. ">
<polygon fill="white" stroke="black" points="329,-249.182 329,-366.527 537.031,-366.527 537.031,-249.182 329,-249.182"/>
<text text-anchor="start" x="337" y="-354.527" font-family="Monaco" font-size="10.00">HydroCouple::Spatial</text>
<text text-anchor="middle" x="433.015" y="-341.192" font-family="Monaco" font-size="10.00">::I3DRegularGridComponentItem</text>
<polyline fill="none" stroke="black" points="329,-331.857 537.031,-331.857 "/>
<text text-anchor="middle" x="433.015" y="-319.857" font-family="Monaco" font-size="10.00"> </text>
<polyline fill="none" stroke="black" points="329,-310.522 537.031,-310.522 "/>
<text text-anchor="start" x="337" y="-298.522" font-family="Monaco" font-size="10.00">+ ~I2DRegularGridComponentItem()</text>
<text text-anchor="start" x="337" y="-285.187" font-family="Monaco" font-size="10.00">+ numZNodesDimension()</text>
<text text-anchor="start" x="337" y="-271.852" font-family="Monaco" font-size="10.00">+ numZCellsDimension()</text>
<text text-anchor="start" x="337" y="-258.517" font-family="Monaco" font-size="10.00">+ grid()</text>
</a>
</g>
</g>
<!-- Node7&#45;&gt;Node1 -->
<g id="edge6" class="edge"><title>Node7&#45;&gt;Node1</title>
<path fill="none" stroke="midnightblue" d="M385.517,-240.828C376.87,-228.807 368.123,-216.648 360.314,-205.792"/>
<polygon fill="none" stroke="midnightblue" points="382.794,-243.036 391.475,-249.109 388.476,-238.948 382.794,-243.036"/>
</g>
<!-- Node8&#45;&gt;Node7 -->
<g id="edge7" class="edge"><title>Node8&#45;&gt;Node7</title>
<path fill="none" stroke="midnightblue" d="M424.038,-399.861C425.144,-388.648 426.261,-377.325 427.314,-366.656"/>
<polygon fill="none" stroke="midnightblue" points="420.526,-399.811 423.028,-410.106 427.493,-400.498 420.526,-399.811"/>
</g>
</g>
</svg>
        <g id="navigator" transform="translate(0 0)" fill="#404254">
                <rect fill="#f2f5e9" fill-opacity="0.5" stroke="#606060" stroke-width=".5" x="0" y="0" width="60" height="60"/>
                <use id="zoomplus" xlink:href="#zoomPlus" x="17" y="9" onmousedown="handleZoom(evt,'in')"/>
                <use id="zoomminus" xlink:href="#zoomMin" x="42" y="9" onmousedown="handleZoom(evt,'out')"/>
                <use id="reset" xlink:href="#resetDef" x="30" y="36" onmousedown="handleReset()"/>
                <g id="arrowUp" xlink:href="#dirArrow" transform="translate(30 24)" onmousedown="handlePan(0,-1)">
                  <use xlink:href="#rim" fill="#404040">
                        <set attributeName="fill" to="#808080" begin="arrowUp.mouseover" end="arrowUp.mouseout"/>
                  </use>
                  <path fill="none" stroke="white" stroke-width="1.5" d="M0,-3.0v7 M-2.5,-0.5L0,-3.0L2.5,-0.5"/>
                </g>
                <g id="arrowRight" xlink:href="#dirArrow" transform="rotate(90) translate(36 -43)" onmousedown="handlePan(1,0)">
                  <use xlink:href="#rim" fill="#404040">
                        <set attributeName="fill" to="#808080" begin="arrowRight.mouseover" end="arrowRight.mouseout"/>
                  </use>
                  <path fill="none" stroke="white" stroke-width="1.5" d="M0,-3.0v7 M-2.5,-0.5L0,-3.0L2.5,-0.5"/>
                </g>
                <g id="arrowDown" xlink:href="#dirArrow" transform="rotate(180) translate(-30 -48)" onmousedown="handlePan(0,1)">
                  <use xlink:href="#rim" fill="#404040">
                        <set attributeName="fill" to="#808080" begin="arrowDown.mouseover" end="arrowDown.mouseout"/>
                  </use>
                  <path fill="none" stroke="white" stroke-width="1.5" d="M0,-3.0v7 M-2.5,-0.5L0,-3.0L2.5,-0.5"/>
                </g>
                <g id="arrowLeft" xlink:href="#dirArrow" transform="rotate(270) translate(-36 17)" onmousedown="handlePan(-1,0)">
                  <use xlink:href="#rim" fill="#404040">
                        <set attributeName="fill" to="#808080" begin="arrowLeft.mouseover" end="arrowLeft.mouseout"/>
                  </use>
                  <path fill="none" stroke="white" stroke-width="1.5" d="M0,-3.0v7 M-2.5,-0.5L0,-3.0L2.5,-0.5"/>
                </g>
        </g>
        <svg viewBox="0 0 15 15" width="100%" height="30px" preserveAspectRatio="xMaxYMin meet">
         <g id="arrow_out" transform="scale(0.3 0.3)">
          <a xlink:href="class_hydro_couple_1_1_spatio_temporal_1_1_i_time3_d_regular_grid_component_item__inherit__graph_org.svg" target="_base">
           <rect id="button" ry="5" rx="5" y="6" x="6" height="38" width="38"
                fill="#f2f5e9" fill-opacity="0.5" stroke="#606060" stroke-width="1.0"/>
           <path id="arrow"
             d="M 11.500037,31.436501 C 11.940474,20.09759 22.043105,11.32322 32.158766,21.979434 L 37.068811,17.246167 C 37.068811,17.246167 37.088388,32 37.088388,32 L 22.160133,31.978069 C 22.160133,31.978069 26.997745,27.140456 26.997745,27.140456 C 18.528582,18.264221 13.291696,25.230495 11.500037,31.436501 z"
             style="fill:#404040;"/>
          </a>
         </g>
        </svg>
</svg>
