<?xml version="1.0" encoding="UTF-8" standalone="no"?>
<!DOCTYPE svg PUBLIC "-//W3C//DTD SVG 1.1//EN"
 "http://www.w3.org/Graphics/SVG/1.1/DTD/svg11.dtd">
<!-- Generated by graphviz version 2.38.0 (20140413.2041)
 -->
<!-- Title: HydroCouple::Temporal::ITimeSeriesIdBasedArgument Pages: 1 -->
<!--zoomable 1146 -->
<svg id="main" version="1.1" xmlns="http://www.w3.org/2000/svg" xmlns:xlink="http://www.w3.org/1999/xlink" xml:space="preserve" onload="init(evt)">
<style type="text/css"><![CDATA[
.edge:hover path { stroke: red; }
.edge:hover polygon { stroke: red; fill: red; }
]]></style>
<script type="text/javascript"><![CDATA[
var edges = document.getElementsByTagName('g');
if (edges && edges.length) {
  for (var i=0;i<edges.length;i++) {
    if (edges[i].id.substr(0,4)=='edge') {
      edges[i].setAttribute('class','edge');
    }
  }
}
]]></script>
        <defs>
                <circle id="rim" cx="0" cy="0" r="7"/>
                <circle id="rim2" cx="0" cy="0" r="3.5"/>
                <g id="zoomPlus">
                        <use xlink:href="#rim" fill="#404040">
                                <set attributeName="fill" to="#808080" begin="zoomplus.mouseover" end="zoomplus.mouseout"/>
                        </use>
                        <path d="M-4,0h8M0,-4v8" fill="none" stroke="white" stroke-width="1.5" pointer-events="none"/>
                </g>
                <g id="zoomMin">
                        <use xlink:href="#rim" fill="#404040">
                                <set attributeName="fill" to="#808080" begin="zoomminus.mouseover" end="zoomminus.mouseout"/>
                        </use>
                        <path d="M-4,0h8" fill="none" stroke="white" stroke-width="1.5" pointer-events="none"/>
                </g>
                <g id="dirArrow">
                        <path fill="none" stroke="white" stroke-width="1.5" d="M0,-3.0v7 M-2.5,-0.5L0,-3.0L2.5,-0.5"/>
                </g>
               <g id="resetDef">
                       <use xlink:href="#rim2" fill="#404040">
                               <set attributeName="fill" to="#808080" begin="reset.mouseover" end="reset.mouseout"/>
                       </use>
               </g>
        </defs>

<script type="text/javascript">
var viewWidth = 379;
var viewHeight = 1146;
var sectionId = 'dynsection-1';
</script>
<script xlink:href="svgpan.js"/>
<svg id="graph" class="graph">
<g id="viewport">
<title>HydroCouple::Temporal::ITimeSeriesIdBasedArgument</title>
<!-- Node1 -->
<g id="node1" class="node"><title>Node1</title>
<polygon fill="#bfbfbf" stroke="black" points="77.9971,-0.5 77.9971,-77.8398 280.027,-77.8398 280.027,-0.5 77.9971,-0.5"/>
<text text-anchor="start" x="85.9971" y="-65.8398" font-family="Monaco" font-size="10.00">HydroCouple::Temporal</text>
<text text-anchor="middle" x="179.012" y="-52.5049" font-family="Monaco" font-size="10.00">::ITimeSeriesIdBasedArgument</text>
<polyline fill="none" stroke="black" points="77.9971,-43.1699 280.027,-43.1699 "/>
<text text-anchor="middle" x="179.012" y="-31.1699" font-family="Monaco" font-size="10.00"> </text>
<polyline fill="none" stroke="black" points="77.9971,-21.835 280.027,-21.835 "/>
<text text-anchor="start" x="85.9971" y="-9.83496" font-family="Monaco" font-size="10.00">+ ~ITimeSeriesIdBasedArgument()</text>
</g>
<!-- Node2 -->
<g id="node2" class="node"><title>Node2</title>
<g id="a_node2"><a xlink:href="class_hydro_couple_1_1_temporal_1_1_i_time_argument.html" target="_top" xlink:title="The ITimeArgument class. his class cannot be directly instantiated and must be implemented as as an a...">
<polygon fill="none" stroke="black" points="15.002,-181.515 15.002,-258.854 157.022,-258.854 157.022,-181.515 15.002,-181.515"/>
<text text-anchor="start" x="23.002" y="-246.854" font-family="Monaco" font-size="10.00">HydroCouple::Temporal</text>
<text text-anchor="middle" x="86.0122" y="-233.52" font-family="Monaco" font-size="10.00">::ITimeArgument</text>
<polyline fill="none" stroke="black" points="15.002,-224.185 157.022,-224.185 "/>
<text text-anchor="middle" x="86.0122" y="-212.185" font-family="Monaco" font-size="10.00"> </text>
<polyline fill="none" stroke="black" points="15.002,-202.85 157.022,-202.85 "/>
<text text-anchor="start" x="23.002" y="-190.85" font-family="Monaco" font-size="10.00">+ ~ITimeArgument()</text>
</a>
</g>
</g>
<!-- Node2&#45;&gt;Node1 -->
<g id="edge1" class="edge"><title>Node2&#45;&gt;Node1</title>
<path fill="none" stroke="midnightblue" d="M110.526,-171.999C125.76,-142.675 145.083,-105.479 159.318,-78.0796"/>
<polygon fill="none" stroke="midnightblue" points="107.239,-170.733 105.735,-181.22 113.451,-173.96 107.239,-170.733"/>
</g>
<!-- Node3 -->
<g id="node3" class="node"><title>Node3</title>
<g id="a_node3"><a xlink:href="class_hydro_couple_1_1_i_argument.html" target="_top" xlink:title="IArgument interface class used to set the arguments for components. They can be complex or simple mul...">
<polygon fill="none" stroke="black" points="0,-362.529 0,-546.549 166.024,-546.549 166.024,-362.529 0,-362.529"/>
<text text-anchor="middle" x="83.0122" y="-534.549" font-family="Monaco" font-size="10.00">HydroCouple::IArgument</text>
<polyline fill="none" stroke="black" points="0,-525.214 166.024,-525.214 "/>
<text text-anchor="middle" x="83.0122" y="-513.214" font-family="Monaco" font-size="10.00"> </text>
<polyline fill="none" stroke="black" points="0,-503.879 166.024,-503.879 "/>
<text text-anchor="start" x="8" y="-491.879" font-family="Monaco" font-size="10.00">+ ~IArgument()</text>
<text text-anchor="start" x="8" y="-478.544" font-family="Monaco" font-size="10.00">+ isOptional()</text>
<text text-anchor="start" x="8" y="-465.209" font-family="Monaco" font-size="10.00">+ isReadOnly()</text>
<text text-anchor="start" x="8" y="-451.874" font-family="Monaco" font-size="10.00">+ toString()</text>
<text text-anchor="start" x="8" y="-438.539" font-family="Monaco" font-size="10.00">+ inputFileTypeFilters()</text>
<text text-anchor="start" x="8" y="-425.204" font-family="Monaco" font-size="10.00">+ canReadFromFile()</text>
<text text-anchor="start" x="8" y="-411.869" font-family="Monaco" font-size="10.00">+ canReadFromString()</text>
<text text-anchor="start" x="8" y="-398.534" font-family="Monaco" font-size="10.00">+ currentArgumentIOType()</text>
<text text-anchor="start" x="8" y="-385.199" font-family="Monaco" font-size="10.00">+ readValues()</text>
<text text-anchor="start" x="8" y="-371.864" font-family="Monaco" font-size="10.00">+ readValues()</text>
</a>
</g>
</g>
<!-- Node3&#45;&gt;Node2 -->
<g id="edge2" class="edge"><title>Node3&#45;&gt;Node2</title>
<path fill="none" stroke="midnightblue" d="M84.3209,-352.177C84.7478,-319.116 85.1957,-284.428 85.5232,-259.059"/>
<polygon fill="none" stroke="midnightblue" points="80.8188,-352.329 84.1893,-362.373 87.8182,-352.419 80.8188,-352.329"/>
</g>
<!-- Node4 -->
<g id="node4" class="node"><title>Node4</title>
<g id="a_node4"><a xlink:href="class_hydro_couple_1_1_i_component_data_item.html" target="_top" xlink:title="IComponentItem is a fundamental unit of data for a component. ">
<polygon fill="none" stroke="black" points="76.9971,-583.549 76.9971,-767.568 279.027,-767.568 279.027,-583.549 76.9971,-583.549"/>
<text text-anchor="middle" x="178.012" y="-755.568" font-family="Monaco" font-size="10.00">HydroCouple::IComponentDataItem</text>
<polyline fill="none" stroke="black" points="76.9971,-746.233 279.027,-746.233 "/>
<text text-anchor="middle" x="178.012" y="-734.233" font-family="Monaco" font-size="10.00"> </text>
<polyline fill="none" stroke="black" points="76.9971,-724.898 279.027,-724.898 "/>
<text text-anchor="start" x="84.9971" y="-712.898" font-family="Monaco" font-size="10.00">+ ~IComponentDataItem()</text>
<text text-anchor="start" x="84.9971" y="-699.563" font-family="Monaco" font-size="10.00">+ modelComponent()</text>
<text text-anchor="start" x="84.9971" y="-686.229" font-family="Monaco" font-size="10.00">+ dimensions()</text>
<text text-anchor="start" x="84.9971" y="-672.894" font-family="Monaco" font-size="10.00">+ valueDefinition()</text>
<text text-anchor="start" x="84.9971" y="-659.559" font-family="Monaco" font-size="10.00">+ getValue()</text>
<text text-anchor="start" x="84.9971" y="-646.224" font-family="Monaco" font-size="10.00">+ getValues()</text>
<text text-anchor="start" x="84.9971" y="-632.889" font-family="Monaco" font-size="10.00">+ getValues()</text>
<text text-anchor="start" x="84.9971" y="-619.554" font-family="Monaco" font-size="10.00">+ setValue()</text>
<text text-anchor="start" x="84.9971" y="-606.219" font-family="Monaco" font-size="10.00">+ setValues()</text>
<text text-anchor="start" x="84.9971" y="-592.884" font-family="Monaco" font-size="10.00">+ setValues()</text>
</a>
</g>
</g>
<!-- Node4&#45;&gt;Node3 -->
<g id="edge3" class="edge"><title>Node4&#45;&gt;Node3</title>
<path fill="none" stroke="midnightblue" d="M134.334,-573.86C130.404,-564.8 126.44,-555.66 122.549,-546.689"/>
<polygon fill="none" stroke="midnightblue" points="131.221,-575.479 138.412,-583.261 137.643,-572.694 131.221,-575.479"/>
</g>
<!-- Node8 -->
<g id="node8" class="node"><title>Node8</title>
<g id="a_node8"><a xlink:href="class_hydro_couple_1_1_temporal_1_1_i_time_component_data_item.html" target="_top" xlink:title="ITimeComponentItem is an IComponentItem with a temporal attribute. This class cannot be directly inst...">
<polygon fill="none" stroke="black" points="183.999,-395.867 183.999,-513.211 362.025,-513.211 362.025,-395.867 183.999,-395.867"/>
<text text-anchor="start" x="191.999" y="-501.211" font-family="Monaco" font-size="10.00">HydroCouple::Temporal</text>
<text text-anchor="middle" x="273.012" y="-487.876" font-family="Monaco" font-size="10.00">::ITimeComponentDataItem</text>
<polyline fill="none" stroke="black" points="183.999,-478.542 362.025,-478.542 "/>
<text text-anchor="middle" x="273.012" y="-466.542" font-family="Monaco" font-size="10.00"> </text>
<polyline fill="none" stroke="black" points="183.999,-457.207 362.025,-457.207 "/>
<text text-anchor="start" x="191.999" y="-445.207" font-family="Monaco" font-size="10.00">+ ~ITimeComponentDataItem()</text>
<text text-anchor="start" x="191.999" y="-431.872" font-family="Monaco" font-size="10.00">+ times()</text>
<text text-anchor="start" x="191.999" y="-418.537" font-family="Monaco" font-size="10.00">+ timeSpan()</text>
<text text-anchor="start" x="191.999" y="-405.202" font-family="Monaco" font-size="10.00">+ timeDimension()</text>
</a>
</g>
</g>
<!-- Node4&#45;&gt;Node8 -->
<g id="edge8" class="edge"><title>Node4&#45;&gt;Node8</title>
<path fill="none" stroke="midnightblue" d="M221.611,-574.043C230.655,-553.193 239.888,-531.905 247.989,-513.23"/>
<polygon fill="none" stroke="midnightblue" points="218.381,-572.694 217.613,-583.261 224.803,-575.479 218.381,-572.694"/>
</g>
<!-- Node5 -->
<g id="node5" class="node"><title>Node5</title>
<g id="a_node5"><a xlink:href="class_hydro_couple_1_1_i_identity.html" target="_top" xlink:title="IIdentity interface class defines a method to get the Id of an HydroCouple entity. ">
<polygon fill="none" stroke="black" points="104.001,-804.568 104.001,-881.908 252.023,-881.908 252.023,-804.568 104.001,-804.568"/>
<text text-anchor="middle" x="178.012" y="-869.908" font-family="Monaco" font-size="10.00">HydroCouple::IIdentity</text>
<polyline fill="none" stroke="black" points="104.001,-860.573 252.023,-860.573 "/>
<text text-anchor="middle" x="178.012" y="-848.573" font-family="Monaco" font-size="10.00"> </text>
<polyline fill="none" stroke="black" points="104.001,-839.238 252.023,-839.238 "/>
<text text-anchor="start" x="112.001" y="-827.238" font-family="Monaco" font-size="10.00">+ ~IIdentity()</text>
<text text-anchor="start" x="112.001" y="-813.903" font-family="Monaco" font-size="10.00">+ id()</text>
</a>
</g>
</g>
<!-- Node5&#45;&gt;Node4 -->
<g id="edge4" class="edge"><title>Node5&#45;&gt;Node4</title>
<path fill="none" stroke="midnightblue" d="M178.012,-793.986C178.012,-785.633 178.012,-776.707 178.012,-767.649"/>
<polygon fill="none" stroke="midnightblue" points="174.512,-794.228 178.012,-804.228 181.512,-794.228 174.512,-794.228"/>
</g>
<!-- Node6 -->
<g id="node6" class="node"><title>Node6</title>
<g id="a_node6"><a xlink:href="class_hydro_couple_1_1_i_description.html" target="_top" xlink:title="IDescription interface class provides descriptive information on a HydroCouple object. ">
<polygon fill="none" stroke="black" points="95,-918.908 95,-1036.25 261.024,-1036.25 261.024,-918.908 95,-918.908"/>
<text text-anchor="middle" x="178.012" y="-1024.25" font-family="Monaco" font-size="10.00">HydroCouple::IDescription</text>
<polyline fill="none" stroke="black" points="95,-1014.92 261.024,-1014.92 "/>
<text text-anchor="middle" x="178.012" y="-1002.92" font-family="Monaco" font-size="10.00"> </text>
<polyline fill="none" stroke="black" points="95,-993.583 261.024,-993.583 "/>
<text text-anchor="start" x="103" y="-981.583" font-family="Monaco" font-size="10.00">+ ~IDescription()</text>
<text text-anchor="start" x="103" y="-968.248" font-family="Monaco" font-size="10.00">+ caption()</text>
<text text-anchor="start" x="103" y="-954.913" font-family="Monaco" font-size="10.00">+ setCaption()</text>
<text text-anchor="start" x="103" y="-941.578" font-family="Monaco" font-size="10.00">+ description()</text>
<text text-anchor="start" x="103" y="-928.243" font-family="Monaco" font-size="10.00">+ setDescription()</text>
</a>
</g>
</g>
<!-- Node6&#45;&gt;Node5 -->
<g id="edge5" class="edge"><title>Node6&#45;&gt;Node5</title>
<path fill="none" stroke="midnightblue" d="M178.012,-908.342C178.012,-899.303 178.012,-890.316 178.012,-882.056"/>
<polygon fill="none" stroke="midnightblue" points="174.512,-908.533 178.012,-918.533 181.512,-908.533 174.512,-908.533"/>
</g>
<!-- Node7 -->
<g id="node7" class="node"><title>Node7</title>
<g id="a_node7"><a xlink:href="class_hydro_couple_1_1_i_property_changed.html" target="_top" xlink:title="IPropertyChanged interface is used to emit signal/event when a property of an object changes...">
<polygon fill="none" stroke="black" points="82.998,-1073.25 82.998,-1137.26 273.026,-1137.26 273.026,-1073.25 82.998,-1073.25"/>
<text text-anchor="middle" x="178.012" y="-1125.26" font-family="Monaco" font-size="10.00">HydroCouple::IPropertyChanged</text>
<polyline fill="none" stroke="black" points="82.998,-1115.92 273.026,-1115.92 "/>
<text text-anchor="middle" x="178.012" y="-1103.92" font-family="Monaco" font-size="10.00"> </text>
<polyline fill="none" stroke="black" points="82.998,-1094.59 273.026,-1094.59 "/>
<text text-anchor="start" x="90.998" y="-1082.59" font-family="Monaco" font-size="10.00">+ ~IPropertyChanged()</text>
</a>
</g>
</g>
<!-- Node7&#45;&gt;Node6 -->
<g id="edge6" class="edge"><title>Node7&#45;&gt;Node6</title>
<path fill="none" stroke="midnightblue" d="M178.012,-1062.93C178.012,-1054.55 178.012,-1045.58 178.012,-1036.74"/>
<polygon fill="none" stroke="midnightblue" points="174.512,-1063.19 178.012,-1073.19 181.512,-1063.19 174.512,-1063.19"/>
</g>
<!-- Node8&#45;&gt;Node2 -->
<g id="edge7" class="edge"><title>Node8&#45;&gt;Node2</title>
<path fill="none" stroke="midnightblue" d="M216.915,-387.872C200.333,-368.146 182.273,-346.346 166.012,-326.029 148.414,-304.043 129.259,-278.98 114.105,-258.874"/>
<polygon fill="none" stroke="midnightblue" points="214.313,-390.216 223.432,-395.61 219.667,-385.707 214.313,-390.216"/>
</g>
<!-- Node9 -->
<g id="node9" class="node"><title>Node9</title>
<g id="a_node9"><a xlink:href="class_hydro_couple_1_1_temporal_1_1_i_time_series_id_based_component_data_item.html" target="_top" xlink:title="The ITimeSeriesIdBasedComponentDataItem class. ">
<polygon fill="none" stroke="black" points="174.998,-114.84 174.998,-325.529 371.027,-325.529 371.027,-114.84 174.998,-114.84"/>
<text text-anchor="start" x="182.998" y="-313.529" font-family="Monaco" font-size="10.00">HydroCouple::Temporal</text>
<text text-anchor="start" x="182.998" y="-300.194" font-family="Monaco" font-size="10.00">::ITimeSeriesIdBasedComponent</text>
<text text-anchor="middle" x="273.012" y="-286.859" font-family="Monaco" font-size="10.00">DataItem</text>
<polyline fill="none" stroke="black" points="174.998,-277.524 371.027,-277.524 "/>
<text text-anchor="middle" x="273.012" y="-265.524" font-family="Monaco" font-size="10.00"> </text>
<polyline fill="none" stroke="black" points="174.998,-256.189 371.027,-256.189 "/>
<text text-anchor="start" x="182.998" y="-244.189" font-family="Monaco" font-size="10.00">+ ~ITimeSeriesIdBasedComponent</text>
<text text-anchor="start" x="182.998" y="-230.854" font-family="Monaco" font-size="10.00">DataItem()</text>
<text text-anchor="start" x="182.998" y="-217.52" font-family="Monaco" font-size="10.00">+ identifiers()</text>
<text text-anchor="start" x="182.998" y="-204.185" font-family="Monaco" font-size="10.00">+ identifierDimension()</text>
<text text-anchor="start" x="182.998" y="-190.85" font-family="Monaco" font-size="10.00">+ getValue()</text>
<text text-anchor="start" x="182.998" y="-177.515" font-family="Monaco" font-size="10.00">+ getValues()</text>
<text text-anchor="start" x="182.998" y="-164.18" font-family="Monaco" font-size="10.00">+ getValues()</text>
<text text-anchor="start" x="182.998" y="-150.845" font-family="Monaco" font-size="10.00">+ setValue()</text>
<text text-anchor="start" x="182.998" y="-137.51" font-family="Monaco" font-size="10.00">+ setValues()</text>
<text text-anchor="start" x="182.998" y="-124.175" font-family="Monaco" font-size="10.00">+ setValues()</text>
</a>
</g>
</g>
<!-- Node8&#45;&gt;Node9 -->
<g id="edge10" class="edge"><title>Node8&#45;&gt;Node9</title>
<path fill="none" stroke="midnightblue" d="M273.012,-385.608C273.012,-366.848 273.012,-346.047 273.012,-325.726"/>
<polygon fill="none" stroke="midnightblue" points="269.512,-385.805 273.012,-395.805 276.512,-385.805 269.512,-385.805"/>
</g>
<!-- Node9&#45;&gt;Node1 -->
<g id="edge9" class="edge"><title>Node9&#45;&gt;Node1</title>
<path fill="none" stroke="midnightblue" d="M213.426,-105.708C208.29,-95.9274 203.371,-86.5586 198.939,-78.1181"/>
<polygon fill="none" stroke="midnightblue" points="210.448,-107.566 218.196,-114.792 216.646,-104.311 210.448,-107.566"/>
</g>
</g>
</svg>
        <g id="navigator" transform="translate(0 0)" fill="#404254">
                <rect fill="#f2f5e9" fill-opacity="0.5" stroke="#606060" stroke-width=".5" x="0" y="0" width="60" height="60"/>
                <use id="zoomplus" xlink:href="#zoomPlus" x="17" y="9" onmousedown="handleZoom(evt,'in')"/>
                <use id="zoomminus" xlink:href="#zoomMin" x="42" y="9" onmousedown="handleZoom(evt,'out')"/>
                <use id="reset" xlink:href="#resetDef" x="30" y="36" onmousedown="handleReset()"/>
                <g id="arrowUp" xlink:href="#dirArrow" transform="translate(30 24)" onmousedown="handlePan(0,-1)">
                  <use xlink:href="#rim" fill="#404040">
                        <set attributeName="fill" to="#808080" begin="arrowUp.mouseover" end="arrowUp.mouseout"/>
                  </use>
                  <path fill="none" stroke="white" stroke-width="1.5" d="M0,-3.0v7 M-2.5,-0.5L0,-3.0L2.5,-0.5"/>
                </g>
                <g id="arrowRight" xlink:href="#dirArrow" transform="rotate(90) translate(36 -43)" onmousedown="handlePan(1,0)">
                  <use xlink:href="#rim" fill="#404040">
                        <set attributeName="fill" to="#808080" begin="arrowRight.mouseover" end="arrowRight.mouseout"/>
                  </use>
                  <path fill="none" stroke="white" stroke-width="1.5" d="M0,-3.0v7 M-2.5,-0.5L0,-3.0L2.5,-0.5"/>
                </g>
                <g id="arrowDown" xlink:href="#dirArrow" transform="rotate(180) translate(-30 -48)" onmousedown="handlePan(0,1)">
                  <use xlink:href="#rim" fill="#404040">
                        <set attributeName="fill" to="#808080" begin="arrowDown.mouseover" end="arrowDown.mouseout"/>
                  </use>
                  <path fill="none" stroke="white" stroke-width="1.5" d="M0,-3.0v7 M-2.5,-0.5L0,-3.0L2.5,-0.5"/>
                </g>
                <g id="arrowLeft" xlink:href="#dirArrow" transform="rotate(270) translate(-36 17)" onmousedown="handlePan(-1,0)">
                  <use xlink:href="#rim" fill="#404040">
                        <set attributeName="fill" to="#808080" begin="arrowLeft.mouseover" end="arrowLeft.mouseout"/>
                  </use>
                  <path fill="none" stroke="white" stroke-width="1.5" d="M0,-3.0v7 M-2.5,-0.5L0,-3.0L2.5,-0.5"/>
                </g>
        </g>
        <svg viewBox="0 0 15 15" width="100%" height="30px" preserveAspectRatio="xMaxYMin meet">
         <g id="arrow_out" transform="scale(0.3 0.3)">
          <a xlink:href="class_hydro_couple_1_1_temporal_1_1_i_time_series_id_based_argument__coll__graph_org.svg" target="_base">
           <rect id="button" ry="5" rx="5" y="6" x="6" height="38" width="38"
                fill="#f2f5e9" fill-opacity="0.5" stroke="#606060" stroke-width="1.0"/>
           <path id="arrow"
             d="M 11.500037,31.436501 C 11.940474,20.09759 22.043105,11.32322 32.158766,21.979434 L 37.068811,17.246167 C 37.068811,17.246167 37.088388,32 37.088388,32 L 22.160133,31.978069 C 22.160133,31.978069 26.997745,27.140456 26.997745,27.140456 C 18.528582,18.264221 13.291696,25.230495 11.500037,31.436501 z"
             style="fill:#404040;"/>
          </a>
         </g>
        </svg>
</svg>
