<?xml version="1.0" encoding="UTF-8" standalone="no"?>
<!DOCTYPE svg PUBLIC "-//W3C//DTD SVG 1.1//EN"
 "http://www.w3.org/Graphics/SVG/1.1/DTD/svg11.dtd">
<!-- Generated by graphviz version 2.38.0 (20140413.2041)
 -->
<!-- Title: AbstractModelComponent::AbstractModelComponent Pages: 1 -->
<svg width="476pt" height="84pt"
 viewBox="0.00 0.00 476.06 84.00" xmlns="http://www.w3.org/2000/svg" xmlns:xlink="http://www.w3.org/1999/xlink">
<g id="graph0" class="graph" transform="scale(1 1) rotate(0) translate(4 80.0024)">
<title>AbstractModelComponent::AbstractModelComponent</title>
<polygon fill="white" stroke="none" points="-4,4 -4,-80.0024 472.057,-80.0024 472.057,4 -4,4"/>
<!-- Node1 -->
<g id="node1" class="node"><title>Node1</title>
<polygon fill="#bfbfbf" stroke="black" points="0,-23.5 0,-58.1699 160.023,-58.1699 160.023,-23.5 0,-23.5"/>
<text text-anchor="start" x="8" y="-46.1699" font-family="Monaco" font-size="10.00">AbstractModelComponent</text>
<text text-anchor="middle" x="80.0117" y="-32.835" font-family="Monaco" font-size="10.00">::AbstractModelComponent</text>
</g>
<!-- Node2 -->
<g id="node2" class="node"><title>Node2</title>
<g id="a_node2"><a xlink:href="class_identity.html#a30931aecbd238c1801b9a8ffa7351bed" target="_top" xlink:title="setId ">
<polygon fill="white" stroke="black" points="217.027,-54.1675 217.027,-75.5024 323.042,-75.5024 323.042,-54.1675 217.027,-54.1675"/>
<text text-anchor="middle" x="270.034" y="-63.5024" font-family="Monaco" font-size="10.00">Identity::setId</text>
</a>
</g>
</g>
<!-- Node1&#45;&gt;Node2 -->
<g id="edge1" class="edge"><title>Node1&#45;&gt;Node2</title>
<path fill="none" stroke="midnightblue" d="M160.205,-50.9436C175.78,-52.9316 191.912,-54.9907 206.831,-56.8951"/>
<polygon fill="midnightblue" stroke="midnightblue" points="206.582,-60.3917 216.945,-58.1861 207.469,-53.448 206.582,-60.3917"/>
</g>
<!-- Node4 -->
<g id="node4" class="node"><title>Node4</title>
<g id="a_node4"><a xlink:href="class_abstract_model_component.html#adeeb4de83e6ffafd38332ba5c4580fc9" target="_top" xlink:title="Parent IModelComponent object from which current component was cloned from. ">
<polygon fill="white" stroke="black" points="196.023,-0.5 196.023,-35.1699 344.045,-35.1699 344.045,-0.5 196.023,-0.5"/>
<text text-anchor="start" x="204.023" y="-23.1699" font-family="Monaco" font-size="10.00">AbstractModelComponent</text>
<text text-anchor="middle" x="270.034" y="-9.83496" font-family="Monaco" font-size="10.00">::parent</text>
</a>
</g>
</g>
<!-- Node1&#45;&gt;Node4 -->
<g id="edge3" class="edge"><title>Node1&#45;&gt;Node4</title>
<path fill="none" stroke="midnightblue" d="M160.205,-31.1476C168.717,-30.1063 177.395,-29.0448 185.951,-27.9982"/>
<polygon fill="midnightblue" stroke="midnightblue" points="186.42,-31.4669 195.921,-26.7785 185.57,-24.5187 186.42,-31.4669"/>
</g>
<!-- Node3 -->
<g id="node3" class="node"><title>Node3</title>
<g id="a_node3"><a xlink:href="class_identity.html#a6d12d67baa0107e66869be4858859889" target="_top" xlink:title="Gets a unique identifier for the entity. ">
<polygon fill="white" stroke="black" points="380.045,-54.1675 380.045,-75.5024 468.057,-75.5024 468.057,-54.1675 380.045,-54.1675"/>
<text text-anchor="middle" x="424.051" y="-63.5024" font-family="Monaco" font-size="10.00">Identity::id</text>
</a>
</g>
</g>
<!-- Node2&#45;&gt;Node3 -->
<g id="edge2" class="edge"><title>Node2&#45;&gt;Node3</title>
<path fill="none" stroke="midnightblue" d="M323.35,-64.835C338.283,-64.835 354.572,-64.835 369.573,-64.835"/>
<polygon fill="midnightblue" stroke="midnightblue" points="369.721,-68.3351 379.721,-64.835 369.721,-61.3351 369.721,-68.3351"/>
</g>
</g>
</svg>
