<?xml version="1.0" encoding="UTF-8" standalone="no"?>
<!DOCTYPE svg PUBLIC "-//W3C//DTD SVG 1.1//EN"
 "http://www.w3.org/Graphics/SVG/1.1/DTD/svg11.dtd">
<!-- Generated by graphviz version 2.38.0 (20140413.2041)
 -->
<!-- Title: HydroCouple::Spatial::IRasterOnlyComponentDataItem Pages: 1 -->
<svg width="222pt" height="925pt"
 viewBox="0.00 0.00 222.03 924.74" xmlns="http://www.w3.org/2000/svg" xmlns:xlink="http://www.w3.org/1999/xlink">
<g id="graph0" class="graph" transform="scale(1 1) rotate(0) translate(4 920.738)">
<title>HydroCouple::Spatial::IRasterOnlyComponentDataItem</title>
<!-- Node1 -->
<g id="node1" class="node"><title>Node1</title>
<polygon fill="#bfbfbf" stroke="black" points="0,-0.5 0,-157.85 214.032,-157.85 214.032,-0.5 0,-0.5"/>
<text text-anchor="start" x="8" y="-145.85" font-family="Monaco" font-size="10.00">HydroCouple::Spatial</text>
<text text-anchor="middle" x="107.016" y="-132.515" font-family="Monaco" font-size="10.00">::IRasterOnlyComponentDataItem</text>
<polyline fill="none" stroke="black" points="0,-123.18 214.032,-123.18 "/>
<text text-anchor="middle" x="107.016" y="-111.18" font-family="Monaco" font-size="10.00"> </text>
<polyline fill="none" stroke="black" points="0,-101.845 214.032,-101.845 "/>
<text text-anchor="start" x="8" y="-89.8447" font-family="Monaco" font-size="10.00">+ ~IRasterOnlyComponentDataItem()</text>
<text text-anchor="start" x="8" y="-76.5098" font-family="Monaco" font-size="10.00">+ getValue()</text>
<text text-anchor="start" x="8" y="-63.1748" font-family="Monaco" font-size="10.00">+ getValues()</text>
<text text-anchor="start" x="8" y="-49.8398" font-family="Monaco" font-size="10.00">+ getValues()</text>
<text text-anchor="start" x="8" y="-36.5049" font-family="Monaco" font-size="10.00">+ setValue()</text>
<text text-anchor="start" x="8" y="-23.1699" font-family="Monaco" font-size="10.00">+ setValues()</text>
<text text-anchor="start" x="8" y="-9.83496" font-family="Monaco" font-size="10.00">+ setValues()</text>
</g>
<!-- Node2 -->
<g id="node2" class="node"><title>Node2</title>
<g id="a_node2"><a xlink:href="class_hydro_couple_1_1_spatial_1_1_i_raster_component_data_item.html" target="_top" xlink:title="An IRasterComponentDataItem represents an IRaster IComponentItem. ">
<polygon fill="none" stroke="black" points="12.002,-194.85 12.002,-325.529 202.03,-325.529 202.03,-194.85 12.002,-194.85"/>
<text text-anchor="start" x="20.002" y="-313.529" font-family="Monaco" font-size="10.00">HydroCouple::Spatial</text>
<text text-anchor="middle" x="107.016" y="-300.194" font-family="Monaco" font-size="10.00">::IRasterComponentDataItem</text>
<polyline fill="none" stroke="black" points="12.002,-290.859 202.03,-290.859 "/>
<text text-anchor="middle" x="107.016" y="-278.859" font-family="Monaco" font-size="10.00"> </text>
<polyline fill="none" stroke="black" points="12.002,-269.524 202.03,-269.524 "/>
<text text-anchor="start" x="20.002" y="-257.524" font-family="Monaco" font-size="10.00">+ ~IRasterComponentDataItem()</text>
<text text-anchor="start" x="20.002" y="-244.189" font-family="Monaco" font-size="10.00">+ xDimension()</text>
<text text-anchor="start" x="20.002" y="-230.854" font-family="Monaco" font-size="10.00">+ yDimension()</text>
<text text-anchor="start" x="20.002" y="-217.52" font-family="Monaco" font-size="10.00">+ bandDimension()</text>
<text text-anchor="start" x="20.002" y="-204.185" font-family="Monaco" font-size="10.00">+ raster()</text>
</a>
</g>
</g>
<!-- Node2&#45;&gt;Node1 -->
<g id="edge1" class="edge"><title>Node2&#45;&gt;Node1</title>
<path fill="none" stroke="midnightblue" d="M107.016,-184.617C107.016,-175.835 107.016,-166.856 107.016,-158.031"/>
<polygon fill="none" stroke="midnightblue" points="103.516,-184.814 107.016,-194.814 110.516,-184.814 103.516,-184.814"/>
</g>
<!-- Node3 -->
<g id="node3" class="node"><title>Node3</title>
<g id="a_node3"><a xlink:href="class_hydro_couple_1_1_i_component_data_item.html" target="_top" xlink:title="IComponentItem is a fundamental unit of data for a component. ">
<polygon fill="none" stroke="black" points="6.00098,-362.529 6.00098,-546.549 208.031,-546.549 208.031,-362.529 6.00098,-362.529"/>
<text text-anchor="middle" x="107.016" y="-534.549" font-family="Monaco" font-size="10.00">HydroCouple::IComponentDataItem</text>
<polyline fill="none" stroke="black" points="6.00098,-525.214 208.031,-525.214 "/>
<text text-anchor="middle" x="107.016" y="-513.214" font-family="Monaco" font-size="10.00"> </text>
<polyline fill="none" stroke="black" points="6.00098,-503.879 208.031,-503.879 "/>
<text text-anchor="start" x="14.001" y="-491.879" font-family="Monaco" font-size="10.00">+ ~IComponentDataItem()</text>
<text text-anchor="start" x="14.001" y="-478.544" font-family="Monaco" font-size="10.00">+ modelComponent()</text>
<text text-anchor="start" x="14.001" y="-465.209" font-family="Monaco" font-size="10.00">+ dimensions()</text>
<text text-anchor="start" x="14.001" y="-451.874" font-family="Monaco" font-size="10.00">+ valueDefinition()</text>
<text text-anchor="start" x="14.001" y="-438.539" font-family="Monaco" font-size="10.00">+ getValue()</text>
<text text-anchor="start" x="14.001" y="-425.204" font-family="Monaco" font-size="10.00">+ getValues()</text>
<text text-anchor="start" x="14.001" y="-411.869" font-family="Monaco" font-size="10.00">+ getValues()</text>
<text text-anchor="start" x="14.001" y="-398.534" font-family="Monaco" font-size="10.00">+ setValue()</text>
<text text-anchor="start" x="14.001" y="-385.199" font-family="Monaco" font-size="10.00">+ setValues()</text>
<text text-anchor="start" x="14.001" y="-371.864" font-family="Monaco" font-size="10.00">+ setValues()</text>
</a>
</g>
</g>
<!-- Node3&#45;&gt;Node2 -->
<g id="edge2" class="edge"><title>Node3&#45;&gt;Node2</title>
<path fill="none" stroke="midnightblue" d="M107.016,-352.23C107.016,-343.2 107.016,-334.23 107.016,-325.64"/>
<polygon fill="none" stroke="midnightblue" points="103.516,-352.434 107.016,-362.434 110.516,-352.434 103.516,-352.434"/>
</g>
<!-- Node4 -->
<g id="node4" class="node"><title>Node4</title>
<g id="a_node4"><a xlink:href="class_hydro_couple_1_1_i_identity.html" target="_top" xlink:title="IIdentity interface class defines a method to get the Id of an HydroCouple entity. ">
<polygon fill="none" stroke="black" points="33.0054,-583.549 33.0054,-660.889 181.027,-660.889 181.027,-583.549 33.0054,-583.549"/>
<text text-anchor="middle" x="107.016" y="-648.889" font-family="Monaco" font-size="10.00">HydroCouple::IIdentity</text>
<polyline fill="none" stroke="black" points="33.0054,-639.554 181.027,-639.554 "/>
<text text-anchor="middle" x="107.016" y="-627.554" font-family="Monaco" font-size="10.00"> </text>
<polyline fill="none" stroke="black" points="33.0054,-618.219 181.027,-618.219 "/>
<text text-anchor="start" x="41.0054" y="-606.219" font-family="Monaco" font-size="10.00">+ ~IIdentity()</text>
<text text-anchor="start" x="41.0054" y="-592.884" font-family="Monaco" font-size="10.00">+ id()</text>
</a>
</g>
</g>
<!-- Node4&#45;&gt;Node3 -->
<g id="edge3" class="edge"><title>Node4&#45;&gt;Node3</title>
<path fill="none" stroke="midnightblue" d="M107.016,-572.966C107.016,-564.613 107.016,-555.688 107.016,-546.63"/>
<polygon fill="none" stroke="midnightblue" points="103.516,-573.208 107.016,-583.208 110.516,-573.209 103.516,-573.208"/>
</g>
<!-- Node5 -->
<g id="node5" class="node"><title>Node5</title>
<g id="a_node5"><a xlink:href="class_hydro_couple_1_1_i_description.html" target="_top" xlink:title="IDescription interface class provides descriptive information on a HydroCouple object. ">
<polygon fill="none" stroke="black" points="24.0039,-697.889 24.0039,-815.233 190.028,-815.233 190.028,-697.889 24.0039,-697.889"/>
<text text-anchor="middle" x="107.016" y="-803.233" font-family="Monaco" font-size="10.00">HydroCouple::IDescription</text>
<polyline fill="none" stroke="black" points="24.0039,-793.898 190.028,-793.898 "/>
<text text-anchor="middle" x="107.016" y="-781.898" font-family="Monaco" font-size="10.00"> </text>
<polyline fill="none" stroke="black" points="24.0039,-772.563 190.028,-772.563 "/>
<text text-anchor="start" x="32.0039" y="-760.563" font-family="Monaco" font-size="10.00">+ ~IDescription()</text>
<text text-anchor="start" x="32.0039" y="-747.229" font-family="Monaco" font-size="10.00">+ caption()</text>
<text text-anchor="start" x="32.0039" y="-733.894" font-family="Monaco" font-size="10.00">+ setCaption()</text>
<text text-anchor="start" x="32.0039" y="-720.559" font-family="Monaco" font-size="10.00">+ description()</text>
<text text-anchor="start" x="32.0039" y="-707.224" font-family="Monaco" font-size="10.00">+ setDescription()</text>
</a>
</g>
</g>
<!-- Node5&#45;&gt;Node4 -->
<g id="edge4" class="edge"><title>Node5&#45;&gt;Node4</title>
<path fill="none" stroke="midnightblue" d="M107.016,-687.323C107.016,-678.284 107.016,-669.297 107.016,-661.036"/>
<polygon fill="none" stroke="midnightblue" points="103.516,-687.514 107.016,-697.514 110.516,-687.514 103.516,-687.514"/>
</g>
<!-- Node6 -->
<g id="node6" class="node"><title>Node6</title>
<g id="a_node6"><a xlink:href="class_hydro_couple_1_1_i_property_changed.html" target="_top" xlink:title="IPropertyChanged interface is used to emit signal/event when a property of an object changes...">
<polygon fill="none" stroke="black" points="12.002,-852.233 12.002,-916.238 202.03,-916.238 202.03,-852.233 12.002,-852.233"/>
<text text-anchor="middle" x="107.016" y="-904.238" font-family="Monaco" font-size="10.00">HydroCouple::IPropertyChanged</text>
<polyline fill="none" stroke="black" points="12.002,-894.903 202.03,-894.903 "/>
<text text-anchor="middle" x="107.016" y="-882.903" font-family="Monaco" font-size="10.00"> </text>
<polyline fill="none" stroke="black" points="12.002,-873.568 202.03,-873.568 "/>
<text text-anchor="start" x="20.002" y="-861.568" font-family="Monaco" font-size="10.00">+ ~IPropertyChanged()</text>
</a>
</g>
</g>
<!-- Node6&#45;&gt;Node5 -->
<g id="edge5" class="edge"><title>Node6&#45;&gt;Node5</title>
<path fill="none" stroke="midnightblue" d="M107.016,-841.913C107.016,-833.528 107.016,-824.562 107.016,-815.719"/>
<polygon fill="none" stroke="midnightblue" points="103.516,-842.17 107.016,-852.17 110.516,-842.17 103.516,-842.17"/>
</g>
</g>
</svg>
