<?xml version="1.0" encoding="UTF-8" standalone="no"?>
<!DOCTYPE svg PUBLIC "-//W3C//DTD SVG 1.1//EN"
 "http://www.w3.org/Graphics/SVG/1.1/DTD/svg11.dtd">
<!-- Generated by graphviz version 2.38.0 (20140413.2041)
 -->
<!-- Title: HydroCouple::Spatial::ITriangle Pages: 1 -->
<svg width="198pt" height="1639pt"
 viewBox="0.00 0.00 198.03 1639.15" xmlns="http://www.w3.org/2000/svg" xmlns:xlink="http://www.w3.org/1999/xlink">
<g id="graph0" class="graph" transform="scale(1 1) rotate(0) translate(4 1635.15)">
<title>HydroCouple::Spatial::ITriangle</title>
<!-- Node1 -->
<g id="node1" class="node"><title>Node1</title>
<polygon fill="#bfbfbf" stroke="black" points="27.0044,-0.5 27.0044,-117.845 163.024,-117.845 163.024,-0.5 27.0044,-0.5"/>
<text text-anchor="start" x="35.0044" y="-105.845" font-family="Monaco" font-size="10.00">HydroCouple::Spatial</text>
<text text-anchor="middle" x="95.0142" y="-92.5098" font-family="Monaco" font-size="10.00">::ITriangle</text>
<polyline fill="none" stroke="black" points="27.0044,-83.1748 163.024,-83.1748 "/>
<text text-anchor="middle" x="95.0142" y="-71.1748" font-family="Monaco" font-size="10.00"> </text>
<polyline fill="none" stroke="black" points="27.0044,-61.8398 163.024,-61.8398 "/>
<text text-anchor="start" x="35.0044" y="-49.8398" font-family="Monaco" font-size="10.00">+ ~ITriangle()</text>
<text text-anchor="start" x="35.0044" y="-36.5049" font-family="Monaco" font-size="10.00">+ p1()</text>
<text text-anchor="start" x="35.0044" y="-23.1699" font-family="Monaco" font-size="10.00">+ p2()</text>
<text text-anchor="start" x="35.0044" y="-9.83496" font-family="Monaco" font-size="10.00">+ p3()</text>
</g>
<!-- Node2 -->
<g id="node2" class="node"><title>Node2</title>
<g id="a_node2"><a xlink:href="class_hydro_couple_1_1_spatial_1_1_i_polygon.html" target="_top" xlink:title="A IPolygon is a planar ISurface defined by 1 exterior boundary and 0 or more interior boundaries...">
<polygon fill="none" stroke="black" points="24.0039,-154.845 24.0039,-325.529 166.024,-325.529 166.024,-154.845 24.0039,-154.845"/>
<text text-anchor="start" x="32.0039" y="-313.529" font-family="Monaco" font-size="10.00">HydroCouple::Spatial</text>
<text text-anchor="middle" x="95.0142" y="-300.194" font-family="Monaco" font-size="10.00">::IPolygon</text>
<polyline fill="none" stroke="black" points="24.0039,-290.859 166.024,-290.859 "/>
<text text-anchor="middle" x="95.0142" y="-278.859" font-family="Monaco" font-size="10.00"> </text>
<polyline fill="none" stroke="black" points="24.0039,-269.524 166.024,-269.524 "/>
<text text-anchor="start" x="32.0039" y="-257.524" font-family="Monaco" font-size="10.00">+ ~IPolygon()</text>
<text text-anchor="start" x="32.0039" y="-244.189" font-family="Monaco" font-size="10.00">+ exteriorRing()</text>
<text text-anchor="start" x="32.0039" y="-230.854" font-family="Monaco" font-size="10.00">+ interiorRingCount()</text>
<text text-anchor="start" x="32.0039" y="-217.52" font-family="Monaco" font-size="10.00">+ interiorRing()</text>
<text text-anchor="start" x="32.0039" y="-204.185" font-family="Monaco" font-size="10.00">+ edge()</text>
<text text-anchor="start" x="32.0039" y="-190.85" font-family="Monaco" font-size="10.00">+ addEdge()</text>
<text text-anchor="start" x="32.0039" y="-177.515" font-family="Monaco" font-size="10.00">+ removeEdge()</text>
<text text-anchor="start" x="32.0039" y="-164.18" font-family="Monaco" font-size="10.00">+ polyhydralSurface()</text>
</a>
</g>
</g>
<!-- Node2&#45;&gt;Node1 -->
<g id="edge1" class="edge"><title>Node2&#45;&gt;Node1</title>
<path fill="none" stroke="midnightblue" d="M95.0142,-144.477C95.0142,-135.467 95.0142,-126.527 95.0142,-118.025"/>
<polygon fill="none" stroke="midnightblue" points="91.5143,-144.66 95.0142,-154.66 98.5143,-144.66 91.5143,-144.66"/>
</g>
<!-- Node3 -->
<g id="node3" class="node"><title>Node3</title>
<g id="a_node3"><a xlink:href="class_hydro_couple_1_1_spatial_1_1_i_surface.html" target="_top" xlink:title="A ISurface is a 2&#45;dimensional IGeometry object. ">
<polygon fill="none" stroke="black" points="21.0034,-362.529 21.0034,-493.209 169.025,-493.209 169.025,-362.529 21.0034,-362.529"/>
<text text-anchor="start" x="29.0034" y="-481.209" font-family="Monaco" font-size="10.00">HydroCouple::Spatial</text>
<text text-anchor="middle" x="95.0142" y="-467.874" font-family="Monaco" font-size="10.00">::ISurface</text>
<polyline fill="none" stroke="black" points="21.0034,-458.539 169.025,-458.539 "/>
<text text-anchor="middle" x="95.0142" y="-446.539" font-family="Monaco" font-size="10.00"> </text>
<polyline fill="none" stroke="black" points="21.0034,-437.204 169.025,-437.204 "/>
<text text-anchor="start" x="29.0034" y="-425.204" font-family="Monaco" font-size="10.00">+ ~ISurface()</text>
<text text-anchor="start" x="29.0034" y="-411.869" font-family="Monaco" font-size="10.00">+ area()</text>
<text text-anchor="start" x="29.0034" y="-398.534" font-family="Monaco" font-size="10.00">+ centroid()</text>
<text text-anchor="start" x="29.0034" y="-385.199" font-family="Monaco" font-size="10.00">+ pointOnSurface()</text>
<text text-anchor="start" x="29.0034" y="-371.864" font-family="Monaco" font-size="10.00">+ boundaryMultiCurve()</text>
</a>
</g>
</g>
<!-- Node3&#45;&gt;Node2 -->
<g id="edge2" class="edge"><title>Node3&#45;&gt;Node2</title>
<path fill="none" stroke="midnightblue" d="M95.0142,-352.319C95.0142,-343.585 95.0142,-334.628 95.0142,-325.771"/>
<polygon fill="none" stroke="midnightblue" points="91.5143,-352.448 95.0142,-362.448 98.5143,-352.448 91.5143,-352.448"/>
</g>
<!-- Node4 -->
<g id="node4" class="node"><title>Node4</title>
<g id="a_node4"><a xlink:href="class_hydro_couple_1_1_spatial_1_1_i_geometry.html" target="_top" xlink:title="IGeometry is the root class of the hierarchy. ">
<polygon fill="none" stroke="black" points="9.00146,-530.209 9.00146,-1260.96 181.027,-1260.96 181.027,-530.209 9.00146,-530.209"/>
<text text-anchor="start" x="17.0015" y="-1248.96" font-family="Monaco" font-size="10.00">HydroCouple::Spatial</text>
<text text-anchor="middle" x="95.0142" y="-1235.63" font-family="Monaco" font-size="10.00">::IGeometry</text>
<polyline fill="none" stroke="black" points="9.00146,-1226.29 181.027,-1226.29 "/>
<text text-anchor="middle" x="95.0142" y="-1214.29" font-family="Monaco" font-size="10.00"> </text>
<polyline fill="none" stroke="black" points="9.00146,-1204.96 181.027,-1204.96 "/>
<text text-anchor="start" x="17.0015" y="-1192.96" font-family="Monaco" font-size="10.00">+ ~IGeometry()</text>
<text text-anchor="start" x="17.0015" y="-1179.62" font-family="Monaco" font-size="10.00">+ index()</text>
<text text-anchor="start" x="17.0015" y="-1166.29" font-family="Monaco" font-size="10.00">+ dimension()</text>
<text text-anchor="start" x="17.0015" y="-1152.95" font-family="Monaco" font-size="10.00">+ coordinateDimension()</text>
<text text-anchor="start" x="17.0015" y="-1139.62" font-family="Monaco" font-size="10.00">+ geometryType()</text>
<text text-anchor="start" x="17.0015" y="-1126.28" font-family="Monaco" font-size="10.00">+ spatialReferenceSystem()</text>
<text text-anchor="start" x="17.0015" y="-1112.95" font-family="Monaco" font-size="10.00">+ envelope()</text>
<text text-anchor="start" x="17.0015" y="-1099.61" font-family="Monaco" font-size="10.00">+ wkt()</text>
<text text-anchor="start" x="17.0015" y="-1086.28" font-family="Monaco" font-size="10.00">+ wkb()</text>
<text text-anchor="start" x="17.0015" y="-1072.94" font-family="Monaco" font-size="10.00">+ isEmpty()</text>
<text text-anchor="start" x="17.0015" y="-1059.61" font-family="Monaco" font-size="10.00">+ isSimple()</text>
<text text-anchor="start" x="17.0015" y="-1046.27" font-family="Monaco" font-size="10.00">+ is3D()</text>
<text text-anchor="start" x="17.0015" y="-1032.94" font-family="Monaco" font-size="10.00">+ isMeasured()</text>
<text text-anchor="start" x="17.0015" y="-1019.6" font-family="Monaco" font-size="10.00">+ boundary()</text>
<text text-anchor="start" x="17.0015" y="-1006.27" font-family="Monaco" font-size="10.00">+ equals()</text>
<text text-anchor="start" x="17.0015" y="-992.933" font-family="Monaco" font-size="10.00">+ disjoint()</text>
<text text-anchor="start" x="17.0015" y="-979.598" font-family="Monaco" font-size="10.00">+ intersects()</text>
<text text-anchor="start" x="17.0015" y="-966.263" font-family="Monaco" font-size="10.00">+ touches()</text>
<text text-anchor="start" x="17.0015" y="-952.928" font-family="Monaco" font-size="10.00">+ crosses()</text>
<text text-anchor="start" x="17.0015" y="-939.593" font-family="Monaco" font-size="10.00">+ within()</text>
<text text-anchor="start" x="17.0015" y="-926.258" font-family="Monaco" font-size="10.00">+ contains()</text>
<text text-anchor="start" x="17.0015" y="-912.923" font-family="Monaco" font-size="10.00">+ overlaps()</text>
<text text-anchor="start" x="17.0015" y="-899.588" font-family="Monaco" font-size="10.00">+ relate()</text>
<text text-anchor="start" x="17.0015" y="-886.253" font-family="Monaco" font-size="10.00">+ locateAlong()</text>
<text text-anchor="start" x="17.0015" y="-872.918" font-family="Monaco" font-size="10.00">+ locateBetween()</text>
<text text-anchor="start" x="17.0015" y="-859.583" font-family="Monaco" font-size="10.00">+ distance()</text>
<text text-anchor="start" x="17.0015" y="-846.248" font-family="Monaco" font-size="10.00">+ buffer()</text>
<text text-anchor="start" x="17.0015" y="-832.913" font-family="Monaco" font-size="10.00">+ convexHull()</text>
<text text-anchor="start" x="17.0015" y="-819.578" font-family="Monaco" font-size="10.00">+ intersection()</text>
<text text-anchor="start" x="17.0015" y="-806.243" font-family="Monaco" font-size="10.00">+ unionG()</text>
<text text-anchor="start" x="17.0015" y="-792.908" font-family="Monaco" font-size="10.00">+ difference()</text>
<text text-anchor="start" x="17.0015" y="-779.573" font-family="Monaco" font-size="10.00">+ symmetricDifference()</text>
<text text-anchor="start" x="17.0015" y="-766.238" font-family="Monaco" font-size="10.00">* equals()</text>
<text text-anchor="start" x="17.0015" y="-752.903" font-family="Monaco" font-size="10.00">* disjoint()</text>
<text text-anchor="start" x="17.0015" y="-739.568" font-family="Monaco" font-size="10.00">* intersects()</text>
<text text-anchor="start" x="17.0015" y="-726.233" font-family="Monaco" font-size="10.00">* touches()</text>
<text text-anchor="start" x="17.0015" y="-712.898" font-family="Monaco" font-size="10.00">* crosses()</text>
<text text-anchor="start" x="17.0015" y="-699.563" font-family="Monaco" font-size="10.00">* within()</text>
<text text-anchor="start" x="17.0015" y="-686.229" font-family="Monaco" font-size="10.00">* contains()</text>
<text text-anchor="start" x="17.0015" y="-672.894" font-family="Monaco" font-size="10.00">* overlaps()</text>
<text text-anchor="start" x="17.0015" y="-659.559" font-family="Monaco" font-size="10.00">* relate()</text>
<text text-anchor="start" x="17.0015" y="-646.224" font-family="Monaco" font-size="10.00">* locateAlong()</text>
<text text-anchor="start" x="17.0015" y="-632.889" font-family="Monaco" font-size="10.00">* locateBetween()</text>
<text text-anchor="start" x="17.0015" y="-619.554" font-family="Monaco" font-size="10.00">* distance()</text>
<text text-anchor="start" x="17.0015" y="-606.219" font-family="Monaco" font-size="10.00">* buffer()</text>
<text text-anchor="start" x="17.0015" y="-592.884" font-family="Monaco" font-size="10.00">* convexHull()</text>
<text text-anchor="start" x="17.0015" y="-579.549" font-family="Monaco" font-size="10.00">* intersection()</text>
<text text-anchor="start" x="17.0015" y="-566.214" font-family="Monaco" font-size="10.00">* unionG()</text>
<text text-anchor="start" x="17.0015" y="-552.879" font-family="Monaco" font-size="10.00">* difference()</text>
<text text-anchor="start" x="17.0015" y="-539.544" font-family="Monaco" font-size="10.00">* symmetricDifference()</text>
</a>
</g>
</g>
<!-- Node4&#45;&gt;Node3 -->
<g id="edge3" class="edge"><title>Node4&#45;&gt;Node3</title>
<path fill="none" stroke="midnightblue" d="M95.0142,-519.65C95.0142,-510.355 95.0142,-501.549 95.0142,-493.342"/>
<polygon fill="none" stroke="midnightblue" points="91.5143,-519.923 95.0142,-529.923 98.5143,-519.923 91.5143,-519.923"/>
</g>
<!-- Node5 -->
<g id="node5" class="node"><title>Node5</title>
<g id="a_node5"><a xlink:href="class_hydro_couple_1_1_i_identity.html" target="_top" xlink:title="IIdentity interface class defines a method to get the Id of an HydroCouple entity. ">
<polygon fill="none" stroke="black" points="21.0034,-1297.96 21.0034,-1375.3 169.025,-1375.3 169.025,-1297.96 21.0034,-1297.96"/>
<text text-anchor="middle" x="95.0142" y="-1363.3" font-family="Monaco" font-size="10.00">HydroCouple::IIdentity</text>
<polyline fill="none" stroke="black" points="21.0034,-1353.97 169.025,-1353.97 "/>
<text text-anchor="middle" x="95.0142" y="-1341.97" font-family="Monaco" font-size="10.00"> </text>
<polyline fill="none" stroke="black" points="21.0034,-1332.63 169.025,-1332.63 "/>
<text text-anchor="start" x="29.0034" y="-1320.63" font-family="Monaco" font-size="10.00">+ ~IIdentity()</text>
<text text-anchor="start" x="29.0034" y="-1307.3" font-family="Monaco" font-size="10.00">+ id()</text>
</a>
</g>
</g>
<!-- Node5&#45;&gt;Node4 -->
<g id="edge4" class="edge"><title>Node5&#45;&gt;Node4</title>
<path fill="none" stroke="midnightblue" d="M95.0142,-1287.72C95.0142,-1279.67 95.0142,-1270.8 95.0142,-1261.28"/>
<polygon fill="none" stroke="midnightblue" points="91.5143,-1287.82 95.0142,-1297.82 98.5143,-1287.82 91.5143,-1287.82"/>
</g>
<!-- Node6 -->
<g id="node6" class="node"><title>Node6</title>
<g id="a_node6"><a xlink:href="class_hydro_couple_1_1_i_description.html" target="_top" xlink:title="IDescription interface class provides descriptive information on a HydroCouple object. ">
<polygon fill="none" stroke="black" points="12.002,-1412.3 12.002,-1529.65 178.026,-1529.65 178.026,-1412.3 12.002,-1412.3"/>
<text text-anchor="middle" x="95.0142" y="-1517.65" font-family="Monaco" font-size="10.00">HydroCouple::IDescription</text>
<polyline fill="none" stroke="black" points="12.002,-1508.31 178.026,-1508.31 "/>
<text text-anchor="middle" x="95.0142" y="-1496.31" font-family="Monaco" font-size="10.00"> </text>
<polyline fill="none" stroke="black" points="12.002,-1486.98 178.026,-1486.98 "/>
<text text-anchor="start" x="20.002" y="-1474.98" font-family="Monaco" font-size="10.00">+ ~IDescription()</text>
<text text-anchor="start" x="20.002" y="-1461.64" font-family="Monaco" font-size="10.00">+ caption()</text>
<text text-anchor="start" x="20.002" y="-1448.31" font-family="Monaco" font-size="10.00">+ setCaption()</text>
<text text-anchor="start" x="20.002" y="-1434.97" font-family="Monaco" font-size="10.00">+ description()</text>
<text text-anchor="start" x="20.002" y="-1421.64" font-family="Monaco" font-size="10.00">+ setDescription()</text>
</a>
</g>
</g>
<!-- Node6&#45;&gt;Node5 -->
<g id="edge5" class="edge"><title>Node6&#45;&gt;Node5</title>
<path fill="none" stroke="midnightblue" d="M95.0142,-1401.74C95.0142,-1392.7 95.0142,-1383.71 95.0142,-1375.45"/>
<polygon fill="none" stroke="midnightblue" points="91.5143,-1401.93 95.0142,-1411.93 98.5143,-1401.93 91.5143,-1401.93"/>
</g>
<!-- Node7 -->
<g id="node7" class="node"><title>Node7</title>
<g id="a_node7"><a xlink:href="class_hydro_couple_1_1_i_property_changed.html" target="_top" xlink:title="IPropertyChanged interface is used to emit signal/event when a property of an object changes...">
<polygon fill="none" stroke="black" points="0,-1566.65 0,-1630.65 190.028,-1630.65 190.028,-1566.65 0,-1566.65"/>
<text text-anchor="middle" x="95.0142" y="-1618.65" font-family="Monaco" font-size="10.00">HydroCouple::IPropertyChanged</text>
<polyline fill="none" stroke="black" points="0,-1609.32 190.028,-1609.32 "/>
<text text-anchor="middle" x="95.0142" y="-1597.32" font-family="Monaco" font-size="10.00"> </text>
<polyline fill="none" stroke="black" points="0,-1587.98 190.028,-1587.98 "/>
<text text-anchor="start" x="8" y="-1575.98" font-family="Monaco" font-size="10.00">+ ~IPropertyChanged()</text>
</a>
</g>
</g>
<!-- Node7&#45;&gt;Node6 -->
<g id="edge6" class="edge"><title>Node7&#45;&gt;Node6</title>
<path fill="none" stroke="midnightblue" d="M95.0142,-1556.33C95.0142,-1547.94 95.0142,-1538.97 95.0142,-1530.13"/>
<polygon fill="none" stroke="midnightblue" points="91.5143,-1556.58 95.0142,-1566.58 98.5143,-1556.58 91.5143,-1556.58"/>
</g>
</g>
</svg>
