<?xml version="1.0" encoding="UTF-8" standalone="no"?>
<!DOCTYPE svg PUBLIC "-//W3C//DTD SVG 1.1//EN"
 "http://www.w3.org/Graphics/SVG/1.1/DTD/svg11.dtd">
<!-- Generated by graphviz version 2.38.0 (20140413.2041)
 -->
<!-- Title: HydroCouple::Data::IDimension Pages: 1 -->
<svg width="169pt" height="325pt"
 viewBox="0.00 0.00 169.08 325.00" xmlns="http://www.w3.org/2000/svg" xmlns:xlink="http://www.w3.org/1999/xlink">
<g id="graph0" class="graph" transform="scale(1 1) rotate(0) translate(4 321)">
<title>HydroCouple::Data::IDimension</title>
<polygon fill="white" stroke="none" points="-4,4 -4,-321 165.083,-321 165.083,4 -4,4"/>
<!-- Node1 -->
<g id="node1" class="node"><title>Node1</title>
<polygon fill="#bfbfbf" stroke="black" points="27.2412,-0.5 27.2412,-94.5 133.842,-94.5 133.842,-0.5 27.2412,-0.5"/>
<text text-anchor="start" x="35.2412" y="-82.5" font-family="Helvetica,sans-Serif" font-size="10.00">HydroCouple::Data::</text>
<text text-anchor="middle" x="80.5415" y="-72.5" font-family="Helvetica,sans-Serif" font-size="10.00">IDimension</text>
<polyline fill="none" stroke="black" points="27.2412,-66.5 133.842,-66.5 "/>
<text text-anchor="middle" x="80.5415" y="-54.5" font-family="Helvetica,sans-Serif" font-size="10.00"> </text>
<polyline fill="none" stroke="black" points="27.2412,-48.5 133.842,-48.5 "/>
<text text-anchor="start" x="35.2412" y="-36.5" font-family="Helvetica,sans-Serif" font-size="10.00">+ ~IDimension()</text>
<text text-anchor="start" x="35.2412" y="-26.5" font-family="Helvetica,sans-Serif" font-size="10.00">+ name()</text>
<text text-anchor="start" x="35.2412" y="-16.5" font-family="Helvetica,sans-Serif" font-size="10.00">+ length()</text>
<text text-anchor="start" x="35.2412" y="-6.5" font-family="Helvetica,sans-Serif" font-size="10.00">+ lengthType()</text>
</g>
<!-- Node2 -->
<g id="node2" class="node"><title>Node2</title>
<g id="a_node2"><a xlink:href="class_hydro_couple_1_1_i_description.html" target="_top" xlink:title="IDescription interface class provides descriptive information on a HydroCouple object. ">
<polygon fill="white" stroke="black" points="14.1821,-131.5 14.1821,-225.5 146.901,-225.5 146.901,-131.5 14.1821,-131.5"/>
<text text-anchor="middle" x="80.5415" y="-213.5" font-family="Helvetica,sans-Serif" font-size="10.00">HydroCouple::IDescription</text>
<polyline fill="none" stroke="black" points="14.1821,-207.5 146.901,-207.5 "/>
<text text-anchor="middle" x="80.5415" y="-195.5" font-family="Helvetica,sans-Serif" font-size="10.00"> </text>
<polyline fill="none" stroke="black" points="14.1821,-189.5 146.901,-189.5 "/>
<text text-anchor="start" x="22.1821" y="-177.5" font-family="Helvetica,sans-Serif" font-size="10.00">+ ~IDescription()</text>
<text text-anchor="start" x="22.1821" y="-167.5" font-family="Helvetica,sans-Serif" font-size="10.00">+ getCaption()</text>
<text text-anchor="start" x="22.1821" y="-157.5" font-family="Helvetica,sans-Serif" font-size="10.00">+ setCaption()</text>
<text text-anchor="start" x="22.1821" y="-147.5" font-family="Helvetica,sans-Serif" font-size="10.00">+ getDescription()</text>
<text text-anchor="start" x="22.1821" y="-137.5" font-family="Helvetica,sans-Serif" font-size="10.00">+ setDescription()</text>
</a>
</g>
</g>
<!-- Node2&#45;&gt;Node1 -->
<g id="edge1" class="edge"><title>Node2&#45;&gt;Node1</title>
<path fill="none" stroke="midnightblue" d="M80.5415,-121.115C80.5415,-112.332 80.5415,-103.344 80.5415,-94.8186"/>
<polygon fill="none" stroke="midnightblue" points="77.0416,-121.292 80.5415,-131.292 84.0416,-121.292 77.0416,-121.292"/>
</g>
<!-- Node3 -->
<g id="node3" class="node"><title>Node3</title>
<g id="a_node3"><a xlink:href="class_hydro_couple_1_1_i_property_changed.html" target="_top" xlink:title="IPropertyChanged interface is used to emit signal/event when a property of an object changes...">
<polygon fill="white" stroke="black" points="0,-262.5 0,-316.5 161.083,-316.5 161.083,-262.5 0,-262.5"/>
<text text-anchor="middle" x="80.5415" y="-304.5" font-family="Helvetica,sans-Serif" font-size="10.00">HydroCouple::IPropertyChanged</text>
<polyline fill="none" stroke="black" points="0,-298.5 161.083,-298.5 "/>
<text text-anchor="middle" x="80.5415" y="-286.5" font-family="Helvetica,sans-Serif" font-size="10.00"> </text>
<polyline fill="none" stroke="black" points="0,-280.5 161.083,-280.5 "/>
<text text-anchor="start" x="8" y="-268.5" font-family="Helvetica,sans-Serif" font-size="10.00">+ ~IPropertyChanged()</text>
</a>
</g>
</g>
<!-- Node3&#45;&gt;Node2 -->
<g id="edge2" class="edge"><title>Node3&#45;&gt;Node2</title>
<path fill="none" stroke="midnightblue" d="M80.5415,-252.141C80.5415,-243.716 80.5415,-234.639 80.5415,-225.851"/>
<polygon fill="none" stroke="midnightblue" points="77.0416,-252.392 80.5415,-262.392 84.0416,-252.392 77.0416,-252.392"/>
</g>
</g>
</svg>
