<?xml version="1.0" encoding="UTF-8" standalone="no"?>
<!DOCTYPE svg PUBLIC "-//W3C//DTD SVG 1.1//EN"
 "http://www.w3.org/Graphics/SVG/1.1/DTD/svg11.dtd">
<!-- Generated by graphviz version 2.38.0 (20140413.2041)
 -->
<!-- Title: HydroCouple::Temporal::ITimeComponentItem Pages: 1 -->
<svg width="2630pt" height="972pt"
 viewBox="0.00 0.00 2630.03 972.40" xmlns="http://www.w3.org/2000/svg" xmlns:xlink="http://www.w3.org/1999/xlink">
<g id="graph0" class="graph" transform="scale(1 1) rotate(0) translate(4 968.403)">
<title>HydroCouple::Temporal::ITimeComponentItem</title>
<polygon fill="white" stroke="none" points="-4,4 -4,-968.403 2626.03,-968.403 2626.03,4 -4,4"/>
<!-- Node1 -->
<g id="node1" class="node"><title>Node1</title>
<polygon fill="#bfbfbf" stroke="black" points="1683,-295.854 1683,-426.534 1837.02,-426.534 1837.02,-295.854 1683,-295.854"/>
<text text-anchor="start" x="1691" y="-414.534" font-family="Monaco" font-size="10.00">HydroCouple::Temporal</text>
<text text-anchor="middle" x="1760.01" y="-401.199" font-family="Monaco" font-size="10.00">::ITimeComponentItem</text>
<polyline fill="none" stroke="black" points="1683,-391.864 1837.02,-391.864 "/>
<text text-anchor="middle" x="1760.01" y="-379.864" font-family="Monaco" font-size="10.00"> </text>
<polyline fill="none" stroke="black" points="1683,-370.529 1837.02,-370.529 "/>
<text text-anchor="start" x="1691" y="-358.529" font-family="Monaco" font-size="10.00">+ ~ITimeComponentItem()</text>
<text text-anchor="start" x="1691" y="-345.194" font-family="Monaco" font-size="10.00">+ timeDimension()</text>
<text text-anchor="start" x="1691" y="-331.859" font-family="Monaco" font-size="10.00">+ times()</text>
<text text-anchor="start" x="1691" y="-318.524" font-family="Monaco" font-size="10.00">+ timeSpan()</text>
<text text-anchor="start" x="1691" y="-305.189" font-family="Monaco" font-size="10.00">+ time()</text>
</g>
<!-- Node6 -->
<g id="node6" class="node"><title>Node6</title>
<g id="a_node6"><a xlink:href="class_hydro_couple_1_1_spatio_temporal_1_1_i_time_geometry_component_item.html" target="_top" xlink:title="ITimeGeometryComponentItem represents an IComponentItem with both temporal and geometric components...">
<polygon fill="white" stroke="black" points="192.998,-168.18 192.998,-245.52 395.028,-245.52 395.028,-168.18 192.998,-168.18"/>
<text text-anchor="start" x="200.998" y="-233.52" font-family="Monaco" font-size="10.00">HydroCouple::SpatioTemporal</text>
<text text-anchor="middle" x="294.013" y="-220.185" font-family="Monaco" font-size="10.00">::ITimeGeometryComponentItem</text>
<polyline fill="none" stroke="black" points="192.998,-210.85 395.028,-210.85 "/>
<text text-anchor="middle" x="294.013" y="-198.85" font-family="Monaco" font-size="10.00"> </text>
<polyline fill="none" stroke="black" points="192.998,-189.515 395.028,-189.515 "/>
<text text-anchor="start" x="200.998" y="-177.515" font-family="Monaco" font-size="10.00">+ ~ITimeGeometryComponentItem()</text>
</a>
</g>
</g>
<!-- Node1&#45;&gt;Node6 -->
<g id="edge5" class="edge"><title>Node1&#45;&gt;Node6</title>
<path fill="none" stroke="midnightblue" d="M1672.81,-354.029C1484.35,-340.333 1025.15,-304.948 642.013,-259.354 558.624,-249.431 464.419,-235.309 395.075,-224.362"/>
<polygon fill="none" stroke="midnightblue" points="1672.71,-357.531 1682.93,-354.763 1673.21,-350.549 1672.71,-357.531"/>
</g>
<!-- Node9 -->
<g id="node9" class="node"><title>Node9</title>
<g id="a_node9"><a xlink:href="class_hydro_couple_1_1_spatio_temporal_1_1_i_time_polyhedral_surface_component_item.html" target="_top" xlink:title="The ITimePolyhedralSurfaceComponentItem class. ">
<polygon fill="white" stroke="black" points="650.994,-168.18 650.994,-245.52 907.033,-245.52 907.033,-168.18 650.994,-168.18"/>
<text text-anchor="start" x="658.994" y="-233.52" font-family="Monaco" font-size="10.00">HydroCouple::SpatioTemporal</text>
<text text-anchor="middle" x="779.013" y="-220.185" font-family="Monaco" font-size="10.00">::ITimePolyhedralSurfaceComponentItem</text>
<polyline fill="none" stroke="black" points="650.994,-210.85 907.033,-210.85 "/>
<text text-anchor="middle" x="779.013" y="-198.85" font-family="Monaco" font-size="10.00"> </text>
<polyline fill="none" stroke="black" points="650.994,-189.515 907.033,-189.515 "/>
<text text-anchor="start" x="658.994" y="-177.515" font-family="Monaco" font-size="10.00">+ ~ITimePolyhedralSurfaceComponentItem()</text>
</a>
</g>
</g>
<!-- Node1&#45;&gt;Node9 -->
<g id="edge8" class="edge"><title>Node1&#45;&gt;Node9</title>
<path fill="none" stroke="midnightblue" d="M1673.05,-346.878C1547.74,-327.666 1309.09,-291.004 1106.01,-259.354 1040.43,-249.133 967.458,-237.651 907.12,-228.126"/>
<polygon fill="none" stroke="midnightblue" points="1672.57,-350.344 1682.98,-348.4 1673.63,-343.425 1672.57,-350.344"/>
</g>
<!-- Node12 -->
<g id="node12" class="node"><title>Node12</title>
<g id="a_node12"><a xlink:href="class_hydro_couple_1_1_spatio_temporal_1_1_i_time_raster_component_item.html" target="_top" xlink:title="The ITimeRasterComponentItem class. ">
<polygon fill="white" stroke="black" points="1115,-168.18 1115,-245.52 1305.03,-245.52 1305.03,-168.18 1115,-168.18"/>
<text text-anchor="start" x="1123" y="-233.52" font-family="Monaco" font-size="10.00">HydroCouple::SpatioTemporal</text>
<text text-anchor="middle" x="1210.01" y="-220.185" font-family="Monaco" font-size="10.00">::ITimeRasterComponentItem</text>
<polyline fill="none" stroke="black" points="1115,-210.85 1305.03,-210.85 "/>
<text text-anchor="middle" x="1210.01" y="-198.85" font-family="Monaco" font-size="10.00"> </text>
<polyline fill="none" stroke="black" points="1115,-189.515 1305.03,-189.515 "/>
<text text-anchor="start" x="1123" y="-177.515" font-family="Monaco" font-size="10.00">+ ~ITimeRasterComponentItem()</text>
</a>
</g>
</g>
<!-- Node1&#45;&gt;Node12 -->
<g id="edge11" class="edge"><title>Node1&#45;&gt;Node12</title>
<path fill="none" stroke="midnightblue" d="M1673.18,-336.141C1573.08,-308.415 1409.08,-262.988 1305.47,-234.29"/>
<polygon fill="none" stroke="midnightblue" points="1672.39,-339.555 1682.96,-338.851 1674.26,-332.809 1672.39,-339.555"/>
</g>
<!-- Node15 -->
<g id="node15" class="node"><title>Node15</title>
<g id="a_node15"><a xlink:href="class_hydro_couple_1_1_spatio_temporal_1_1_i_time_regular_grid2_d_component_item.html" target="_top" xlink:title="The ITimeRegularGrid2DComponentItem class. ">
<polygon fill="white" stroke="black" points="1519,-168.18 1519,-245.52 1751.03,-245.52 1751.03,-168.18 1519,-168.18"/>
<text text-anchor="start" x="1527" y="-233.52" font-family="Monaco" font-size="10.00">HydroCouple::SpatioTemporal</text>
<text text-anchor="middle" x="1635.01" y="-220.185" font-family="Monaco" font-size="10.00">::ITimeRegularGrid2DComponentItem</text>
<polyline fill="none" stroke="black" points="1519,-210.85 1751.03,-210.85 "/>
<text text-anchor="middle" x="1635.01" y="-198.85" font-family="Monaco" font-size="10.00"> </text>
<polyline fill="none" stroke="black" points="1519,-189.515 1751.03,-189.515 "/>
<text text-anchor="start" x="1527" y="-177.515" font-family="Monaco" font-size="10.00">+ ~ITimeRegularGrid2DComponentItem()</text>
</a>
</g>
</g>
<!-- Node1&#45;&gt;Node15 -->
<g id="edge14" class="edge"><title>Node1&#45;&gt;Node15</title>
<path fill="none" stroke="midnightblue" d="M1700.42,-287.559C1688.51,-273.054 1676.47,-258.377 1666.02,-245.639"/>
<polygon fill="none" stroke="midnightblue" points="1697.95,-290.076 1707,-295.586 1703.36,-285.636 1697.95,-290.076"/>
</g>
<!-- Node18 -->
<g id="node18" class="node"><title>Node18</title>
<g id="a_node18"><a xlink:href="class_hydro_couple_1_1_spatio_temporal_1_1_i_time_regular_grid3_d_component_item.html" target="_top" xlink:title="The ITimeRegularGrid3DComponentItem class. ">
<polygon fill="white" stroke="black" points="1769,-168.18 1769,-245.52 2001.03,-245.52 2001.03,-168.18 1769,-168.18"/>
<text text-anchor="start" x="1777" y="-233.52" font-family="Monaco" font-size="10.00">HydroCouple::SpatioTemporal</text>
<text text-anchor="middle" x="1885.01" y="-220.185" font-family="Monaco" font-size="10.00">::ITimeRegularGrid3DComponentItem</text>
<polyline fill="none" stroke="black" points="1769,-210.85 2001.03,-210.85 "/>
<text text-anchor="middle" x="1885.01" y="-198.85" font-family="Monaco" font-size="10.00"> </text>
<polyline fill="none" stroke="black" points="1769,-189.515 2001.03,-189.515 "/>
<text text-anchor="start" x="1777" y="-177.515" font-family="Monaco" font-size="10.00">+ ~ITimeRegularGrid3DComponentItem()</text>
</a>
</g>
</g>
<!-- Node1&#45;&gt;Node18 -->
<g id="edge17" class="edge"><title>Node1&#45;&gt;Node18</title>
<path fill="none" stroke="midnightblue" d="M1819.61,-287.559C1831.51,-273.054 1843.55,-258.377 1854.01,-245.639"/>
<polygon fill="none" stroke="midnightblue" points="1816.66,-285.636 1813.02,-295.586 1822.07,-290.076 1816.66,-285.636"/>
</g>
<!-- Node21 -->
<g id="node21" class="node"><title>Node21</title>
<g id="a_node21"><a xlink:href="class_hydro_couple_1_1_spatio_temporal_1_1_i_time_t_i_n_component_item.html" target="_top" xlink:title="The ITINComponentItem class. ">
<polygon fill="white" stroke="black" points="2019,-168.18 2019,-245.52 2197.03,-245.52 2197.03,-168.18 2019,-168.18"/>
<text text-anchor="start" x="2027" y="-233.52" font-family="Monaco" font-size="10.00">HydroCouple::SpatioTemporal</text>
<text text-anchor="middle" x="2108.01" y="-220.185" font-family="Monaco" font-size="10.00">::ITimeTINComponentItem</text>
<polyline fill="none" stroke="black" points="2019,-210.85 2197.03,-210.85 "/>
<text text-anchor="middle" x="2108.01" y="-198.85" font-family="Monaco" font-size="10.00"> </text>
<polyline fill="none" stroke="black" points="2019,-189.515 2197.03,-189.515 "/>
<text text-anchor="start" x="2027" y="-177.515" font-family="Monaco" font-size="10.00">+ ~ITimeTINComponentItem()</text>
</a>
</g>
</g>
<!-- Node1&#45;&gt;Node21 -->
<g id="edge20" class="edge"><title>Node1&#45;&gt;Node21</title>
<path fill="none" stroke="midnightblue" d="M1846.71,-327.698C1895.24,-308.892 1956.56,-284.104 2010.01,-259.354 2019.26,-255.074 2028.87,-250.359 2038.31,-245.571"/>
<polygon fill="none" stroke="midnightblue" points="1845.25,-324.511 1837.18,-331.378 1847.77,-331.041 1845.25,-324.511"/>
</g>
<!-- Node24 -->
<g id="node24" class="node"><title>Node24</title>
<g id="a_node24"><a xlink:href="class_hydro_couple_1_1_temporal_1_1_i_time_argument.html" target="_top" xlink:title="The ITimeArgument class. ">
<polygon fill="white" stroke="black" points="2215,-154.845 2215,-258.854 2357.02,-258.854 2357.02,-154.845 2215,-154.845"/>
<text text-anchor="start" x="2223" y="-246.854" font-family="Monaco" font-size="10.00">HydroCouple::Temporal</text>
<text text-anchor="middle" x="2286.01" y="-233.52" font-family="Monaco" font-size="10.00">::ITimeArgument</text>
<polyline fill="none" stroke="black" points="2215,-224.185 2357.02,-224.185 "/>
<text text-anchor="middle" x="2286.01" y="-212.185" font-family="Monaco" font-size="10.00"> </text>
<polyline fill="none" stroke="black" points="2215,-202.85 2357.02,-202.85 "/>
<text text-anchor="start" x="2223" y="-190.85" font-family="Monaco" font-size="10.00">+ ~ITimeArgument()</text>
<text text-anchor="start" x="2223" y="-177.515" font-family="Monaco" font-size="10.00">+ setTimes()</text>
<text text-anchor="start" x="2223" y="-164.18" font-family="Monaco" font-size="10.00">+ timeValueSets()</text>
</a>
</g>
</g>
<!-- Node1&#45;&gt;Node24 -->
<g id="edge23" class="edge"><title>Node1&#45;&gt;Node24</title>
<path fill="none" stroke="midnightblue" d="M1847.17,-349.672C1939.13,-336.488 2086.94,-309.302 2206.01,-259.354 2208.91,-258.14 2211.81,-256.823 2214.71,-255.424"/>
<polygon fill="none" stroke="midnightblue" points="1846.48,-346.235 1837.07,-351.096 1847.46,-353.166 1846.48,-346.235"/>
</g>
<!-- Node25 -->
<g id="node25" class="node"><title>Node25</title>
<g id="a_node25"><a xlink:href="class_hydro_couple_1_1_temporal_1_1_i_time_exchange_item.html" target="_top" xlink:title="The ITimeExchangeItem class. ">
<polygon fill="white" stroke="black" points="2375,-161.512 2375,-252.187 2523.02,-252.187 2523.02,-161.512 2375,-161.512"/>
<text text-anchor="start" x="2383" y="-240.187" font-family="Monaco" font-size="10.00">HydroCouple::Temporal</text>
<text text-anchor="middle" x="2449.01" y="-226.852" font-family="Monaco" font-size="10.00">::ITimeExchangeItem</text>
<polyline fill="none" stroke="black" points="2375,-217.517 2523.02,-217.517 "/>
<text text-anchor="middle" x="2449.01" y="-205.517" font-family="Monaco" font-size="10.00"> </text>
<polyline fill="none" stroke="black" points="2375,-196.182 2523.02,-196.182 "/>
<text text-anchor="start" x="2383" y="-184.182" font-family="Monaco" font-size="10.00">+ ~ITimeExchangeItem()</text>
<text text-anchor="start" x="2383" y="-170.847" font-family="Monaco" font-size="10.00">+ timeValues()</text>
</a>
</g>
</g>
<!-- Node1&#45;&gt;Node25 -->
<g id="edge24" class="edge"><title>Node1&#45;&gt;Node25</title>
<path fill="none" stroke="midnightblue" d="M1847.37,-356.298C1967.67,-348.58 2189.5,-325.823 2366.01,-259.354 2371.41,-257.323 2376.84,-254.922 2382.19,-252.286"/>
<polygon fill="none" stroke="midnightblue" points="1846.87,-352.822 1837.11,-356.935 1847.31,-359.808 1846.87,-352.822"/>
</g>
<!-- Node2 -->
<g id="node2" class="node"><title>Node2</title>
<g id="a_node2"><a xlink:href="class_hydro_couple_1_1_i_component_item.html" target="_top" xlink:title="IComponentItem is a fundamental unit of data for a component. ">
<polygon fill="white" stroke="black" points="1671,-463.534 1671,-567.544 1849.03,-567.544 1849.03,-463.534 1671,-463.534"/>
<text text-anchor="middle" x="1760.01" y="-555.544" font-family="Monaco" font-size="10.00">HydroCouple::IComponentItem</text>
<polyline fill="none" stroke="black" points="1671,-546.209 1849.03,-546.209 "/>
<text text-anchor="middle" x="1760.01" y="-534.209" font-family="Monaco" font-size="10.00"> </text>
<polyline fill="none" stroke="black" points="1671,-524.874 1849.03,-524.874 "/>
<text text-anchor="start" x="1679" y="-512.874" font-family="Monaco" font-size="10.00">+ ~IComponentItem()</text>
<text text-anchor="start" x="1679" y="-499.539" font-family="Monaco" font-size="10.00">+ modelComponent()</text>
<text text-anchor="start" x="1679" y="-486.204" font-family="Monaco" font-size="10.00">+ modelComponentId()</text>
<text text-anchor="start" x="1679" y="-472.869" font-family="Monaco" font-size="10.00">+ dimensions()</text>
</a>
</g>
</g>
<!-- Node2&#45;&gt;Node1 -->
<g id="edge1" class="edge"><title>Node2&#45;&gt;Node1</title>
<path fill="none" stroke="midnightblue" d="M1760.01,-453.284C1760.01,-444.547 1760.01,-435.538 1760.01,-426.74"/>
<polygon fill="none" stroke="midnightblue" points="1756.51,-453.387 1760.01,-463.387 1763.51,-453.387 1756.51,-453.387"/>
</g>
<!-- Node3 -->
<g id="node3" class="node"><title>Node3</title>
<g id="a_node3"><a xlink:href="class_hydro_couple_1_1_i_identity.html" target="_top" xlink:title="IIdentity interface class defines a method to get the Id of an HydroCouple entity. ">
<polygon fill="white" stroke="black" points="1686,-604.544 1686,-708.554 1834.02,-708.554 1834.02,-604.544 1686,-604.544"/>
<text text-anchor="middle" x="1760.01" y="-696.554" font-family="Monaco" font-size="10.00">HydroCouple::IIdentity</text>
<polyline fill="none" stroke="black" points="1686,-687.219 1834.02,-687.219 "/>
<text text-anchor="middle" x="1760.01" y="-675.219" font-family="Monaco" font-size="10.00"> </text>
<polyline fill="none" stroke="black" points="1686,-665.884 1834.02,-665.884 "/>
<text text-anchor="start" x="1694" y="-653.884" font-family="Monaco" font-size="10.00">+ ~IIdentity()</text>
<text text-anchor="start" x="1694" y="-640.549" font-family="Monaco" font-size="10.00">+ MPI_Comm()</text>
<text text-anchor="start" x="1694" y="-627.214" font-family="Monaco" font-size="10.00">+ MPI_Rank()</text>
<text text-anchor="start" x="1694" y="-613.879" font-family="Monaco" font-size="10.00">+ id()</text>
</a>
</g>
</g>
<!-- Node3&#45;&gt;Node2 -->
<g id="edge2" class="edge"><title>Node3&#45;&gt;Node2</title>
<path fill="none" stroke="midnightblue" d="M1760.01,-593.985C1760.01,-585.203 1760.01,-576.249 1760.01,-567.695"/>
<polygon fill="none" stroke="midnightblue" points="1756.51,-594.182 1760.01,-604.182 1763.51,-594.182 1756.51,-594.182"/>
</g>
<!-- Node4 -->
<g id="node4" class="node"><title>Node4</title>
<g id="a_node4"><a xlink:href="class_hydro_couple_1_1_i_description.html" target="_top" xlink:title="IDescription interface class provides descriptive information on a HydroCouple object. ">
<polygon fill="white" stroke="black" points="1677,-745.554 1677,-862.898 1843.03,-862.898 1843.03,-745.554 1677,-745.554"/>
<text text-anchor="middle" x="1760.01" y="-850.898" font-family="Monaco" font-size="10.00">HydroCouple::IDescription</text>
<polyline fill="none" stroke="black" points="1677,-841.563 1843.03,-841.563 "/>
<text text-anchor="middle" x="1760.01" y="-829.563" font-family="Monaco" font-size="10.00"> </text>
<polyline fill="none" stroke="black" points="1677,-820.229 1843.03,-820.229 "/>
<text text-anchor="start" x="1685" y="-808.229" font-family="Monaco" font-size="10.00">+ ~IDescription()</text>
<text text-anchor="start" x="1685" y="-794.894" font-family="Monaco" font-size="10.00">+ getCaption()</text>
<text text-anchor="start" x="1685" y="-781.559" font-family="Monaco" font-size="10.00">+ setCaption()</text>
<text text-anchor="start" x="1685" y="-768.224" font-family="Monaco" font-size="10.00">+ getDescription()</text>
<text text-anchor="start" x="1685" y="-754.889" font-family="Monaco" font-size="10.00">+ setDescription()</text>
</a>
</g>
</g>
<!-- Node4&#45;&gt;Node3 -->
<g id="edge3" class="edge"><title>Node4&#45;&gt;Node3</title>
<path fill="none" stroke="midnightblue" d="M1760.01,-734.953C1760.01,-726.134 1760.01,-717.227 1760.01,-708.749"/>
<polygon fill="none" stroke="midnightblue" points="1756.51,-735.232 1760.01,-745.232 1763.51,-735.232 1756.51,-735.232"/>
</g>
<!-- Node5 -->
<g id="node5" class="node"><title>Node5</title>
<g id="a_node5"><a xlink:href="class_hydro_couple_1_1_i_property_changed.html" target="_top" xlink:title="IPropertyChanged interface is used to emit signal/event when a property of an object changes...">
<polygon fill="white" stroke="black" points="1665,-899.898 1665,-963.903 1855.03,-963.903 1855.03,-899.898 1665,-899.898"/>
<text text-anchor="middle" x="1760.01" y="-951.903" font-family="Monaco" font-size="10.00">HydroCouple::IPropertyChanged</text>
<polyline fill="none" stroke="black" points="1665,-942.568 1855.03,-942.568 "/>
<text text-anchor="middle" x="1760.01" y="-930.568" font-family="Monaco" font-size="10.00"> </text>
<polyline fill="none" stroke="black" points="1665,-921.233 1855.03,-921.233 "/>
<text text-anchor="start" x="1673" y="-909.233" font-family="Monaco" font-size="10.00">+ ~IPropertyChanged()</text>
</a>
</g>
</g>
<!-- Node5&#45;&gt;Node4 -->
<g id="edge4" class="edge"><title>Node5&#45;&gt;Node4</title>
<path fill="none" stroke="midnightblue" d="M1760.01,-889.578C1760.01,-881.193 1760.01,-872.227 1760.01,-863.384"/>
<polygon fill="none" stroke="midnightblue" points="1756.51,-889.835 1760.01,-899.835 1763.51,-889.835 1756.51,-889.835"/>
</g>
<!-- Node7 -->
<g id="node7" class="node"><title>Node7</title>
<g id="a_node7"><a xlink:href="class_hydro_couple_1_1_spatio_temporal_1_1_i_time_geometry_argument.html" target="_top" xlink:title="The ITimeGeometryArgument class. ">
<polygon fill="white" stroke="black" points="0,-0.5 0,-117.845 178.026,-117.845 178.026,-0.5 0,-0.5"/>
<text text-anchor="start" x="8" y="-105.845" font-family="Monaco" font-size="10.00">HydroCouple::SpatioTemporal</text>
<text text-anchor="middle" x="89.0132" y="-92.5098" font-family="Monaco" font-size="10.00">::ITimeGeometryArgument</text>
<polyline fill="none" stroke="black" points="0,-83.1748 178.026,-83.1748 "/>
<text text-anchor="middle" x="89.0132" y="-71.1748" font-family="Monaco" font-size="10.00"> </text>
<polyline fill="none" stroke="black" points="0,-61.8398 178.026,-61.8398 "/>
<text text-anchor="start" x="8" y="-49.8398" font-family="Monaco" font-size="10.00">+ ~ITimeGeometryArgument()</text>
<text text-anchor="start" x="8" y="-36.5049" font-family="Monaco" font-size="10.00">+ setTimes()</text>
<text text-anchor="start" x="8" y="-23.1699" font-family="Monaco" font-size="10.00">+ setGeometryCollection()</text>
<text text-anchor="start" x="8" y="-9.83496" font-family="Monaco" font-size="10.00">+ timeGeometryValueSets()</text>
</a>
</g>
</g>
<!-- Node6&#45;&gt;Node7 -->
<g id="edge6" class="edge"><title>Node6&#45;&gt;Node7</title>
<path fill="none" stroke="midnightblue" d="M232.734,-162.303C213.186,-148.412 191.238,-132.815 170.491,-118.072"/>
<polygon fill="none" stroke="midnightblue" points="230.775,-165.205 240.954,-168.145 234.83,-159.499 230.775,-165.205"/>
</g>
<!-- Node8 -->
<g id="node8" class="node"><title>Node8</title>
<g id="a_node8"><a xlink:href="class_hydro_couple_1_1_spatio_temporal_1_1_i_time_geometry_exchange_item.html" target="_top" xlink:title="The ITimeGeometryExchangeItem class. ">
<polygon fill="white" stroke="black" points="195.999,-13.835 195.999,-104.51 392.028,-104.51 392.028,-13.835 195.999,-13.835"/>
<text text-anchor="start" x="203.999" y="-92.5098" font-family="Monaco" font-size="10.00">HydroCouple::SpatioTemporal</text>
<text text-anchor="middle" x="294.013" y="-79.1748" font-family="Monaco" font-size="10.00">::ITimeGeometryExchangeItem</text>
<polyline fill="none" stroke="black" points="195.999,-69.8398 392.028,-69.8398 "/>
<text text-anchor="middle" x="294.013" y="-57.8398" font-family="Monaco" font-size="10.00"> </text>
<polyline fill="none" stroke="black" points="195.999,-48.5049 392.028,-48.5049 "/>
<text text-anchor="start" x="203.999" y="-36.5049" font-family="Monaco" font-size="10.00">+ ~ITimeGeometryExchangeItem()</text>
<text text-anchor="start" x="203.999" y="-23.1699" font-family="Monaco" font-size="10.00">+ timeGeometryValues()</text>
</a>
</g>
</g>
<!-- Node6&#45;&gt;Node8 -->
<g id="edge7" class="edge"><title>Node6&#45;&gt;Node8</title>
<path fill="none" stroke="midnightblue" d="M294.013,-157.613C294.013,-140.514 294.013,-121.366 294.013,-104.599"/>
<polygon fill="none" stroke="midnightblue" points="290.513,-157.955 294.013,-167.955 297.513,-157.955 290.513,-157.955"/>
</g>
<!-- Node10 -->
<g id="node10" class="node"><title>Node10</title>
<g id="a_node10"><a xlink:href="class_hydro_couple_1_1_spatio_temporal_1_1_i_time_polyhedral_surface_argument.html" target="_top" xlink:title="The ITimePolyhedralSurfaceArgument class. ">
<polygon fill="white" stroke="black" points="409.996,-0.5 409.996,-117.845 636.03,-117.845 636.03,-0.5 409.996,-0.5"/>
<text text-anchor="start" x="417.996" y="-105.845" font-family="Monaco" font-size="10.00">HydroCouple::SpatioTemporal</text>
<text text-anchor="middle" x="523.013" y="-92.5098" font-family="Monaco" font-size="10.00">::ITimePolyhedralSurfaceArgument</text>
<polyline fill="none" stroke="black" points="409.996,-83.1748 636.03,-83.1748 "/>
<text text-anchor="middle" x="523.013" y="-71.1748" font-family="Monaco" font-size="10.00"> </text>
<polyline fill="none" stroke="black" points="409.996,-61.8398 636.03,-61.8398 "/>
<text text-anchor="start" x="417.996" y="-49.8398" font-family="Monaco" font-size="10.00">+ ~ITimePolyhedralSurfaceArgument()</text>
<text text-anchor="start" x="417.996" y="-36.5049" font-family="Monaco" font-size="10.00">+ setTimes()</text>
<text text-anchor="start" x="417.996" y="-23.1699" font-family="Monaco" font-size="10.00">+ setPolyhedralSurface()</text>
<text text-anchor="start" x="417.996" y="-9.83496" font-family="Monaco" font-size="10.00">+ timePatchValueSets()</text>
</a>
</g>
</g>
<!-- Node9&#45;&gt;Node10 -->
<g id="edge9" class="edge"><title>Node9&#45;&gt;Node10</title>
<path fill="none" stroke="midnightblue" d="M703.793,-163.046C679.057,-148.969 651.132,-133.079 624.761,-118.072"/>
<polygon fill="none" stroke="midnightblue" points="702.332,-166.241 712.754,-168.145 705.794,-160.157 702.332,-166.241"/>
</g>
<!-- Node11 -->
<g id="node11" class="node"><title>Node11</title>
<g id="a_node11"><a xlink:href="class_hydro_couple_1_1_spatio_temporal_1_1_i_time_polyhedral_surface_exchange_item.html" target="_top" xlink:title="The ITimePolyhedralSurfaceExchangeItem class. ">
<polygon fill="white" stroke="black" points="653.994,-13.835 653.994,-104.51 904.032,-104.51 904.032,-13.835 653.994,-13.835"/>
<text text-anchor="start" x="661.994" y="-92.5098" font-family="Monaco" font-size="10.00">HydroCouple::SpatioTemporal</text>
<text text-anchor="middle" x="779.013" y="-79.1748" font-family="Monaco" font-size="10.00">::ITimePolyhedralSurfaceExchangeItem</text>
<polyline fill="none" stroke="black" points="653.994,-69.8398 904.032,-69.8398 "/>
<text text-anchor="middle" x="779.013" y="-57.8398" font-family="Monaco" font-size="10.00"> </text>
<polyline fill="none" stroke="black" points="653.994,-48.5049 904.032,-48.5049 "/>
<text text-anchor="start" x="661.994" y="-36.5049" font-family="Monaco" font-size="10.00">+ ~ITimePolyhedralSurfaceExchangeItem()</text>
<text text-anchor="start" x="661.994" y="-23.1699" font-family="Monaco" font-size="10.00">+ timePolyhedralSurfaceValues()</text>
</a>
</g>
</g>
<!-- Node9&#45;&gt;Node11 -->
<g id="edge10" class="edge"><title>Node9&#45;&gt;Node11</title>
<path fill="none" stroke="midnightblue" d="M779.013,-157.613C779.013,-140.514 779.013,-121.366 779.013,-104.599"/>
<polygon fill="none" stroke="midnightblue" points="775.513,-157.955 779.013,-167.955 782.513,-157.955 775.513,-157.955"/>
</g>
<!-- Node13 -->
<g id="node13" class="node"><title>Node13</title>
<g id="a_node13"><a xlink:href="class_hydro_couple_1_1_spatio_temporal_1_1_i_time_raster_argument.html" target="_top" xlink:title="The ITimeRasterArgument class. ">
<polygon fill="white" stroke="black" points="922,-0.5 922,-117.845 1100.03,-117.845 1100.03,-0.5 922,-0.5"/>
<text text-anchor="start" x="930" y="-105.845" font-family="Monaco" font-size="10.00">HydroCouple::SpatioTemporal</text>
<text text-anchor="middle" x="1011.01" y="-92.5098" font-family="Monaco" font-size="10.00">::ITimeRasterArgument</text>
<polyline fill="none" stroke="black" points="922,-83.1748 1100.03,-83.1748 "/>
<text text-anchor="middle" x="1011.01" y="-71.1748" font-family="Monaco" font-size="10.00"> </text>
<polyline fill="none" stroke="black" points="922,-61.8398 1100.03,-61.8398 "/>
<text text-anchor="start" x="930" y="-49.8398" font-family="Monaco" font-size="10.00">+ ~ITimeRasterArgument()</text>
<text text-anchor="start" x="930" y="-36.5049" font-family="Monaco" font-size="10.00">+ setTimes()</text>
<text text-anchor="start" x="930" y="-23.1699" font-family="Monaco" font-size="10.00">+ setRaster()</text>
<text text-anchor="start" x="930" y="-9.83496" font-family="Monaco" font-size="10.00">+ timeRasterValueSets()</text>
</a>
</g>
</g>
<!-- Node12&#45;&gt;Node13 -->
<g id="edge12" class="edge"><title>Node12&#45;&gt;Node13</title>
<path fill="none" stroke="midnightblue" d="M1150.27,-162.117C1131.36,-148.273 1110.16,-132.75 1090.11,-118.072"/>
<polygon fill="none" stroke="midnightblue" points="1148.37,-165.062 1158.51,-168.145 1152.51,-159.414 1148.37,-165.062"/>
</g>
<!-- Node14 -->
<g id="node14" class="node"><title>Node14</title>
<g id="a_node14"><a xlink:href="class_hydro_couple_1_1_spatio_temporal_1_1_i_time_raster_exchange_item.html" target="_top" xlink:title="The ITimeRasterExchangeItem class. ">
<polygon fill="white" stroke="black" points="1118,-13.835 1118,-104.51 1302.03,-104.51 1302.03,-13.835 1118,-13.835"/>
<text text-anchor="start" x="1126" y="-92.5098" font-family="Monaco" font-size="10.00">HydroCouple::SpatioTemporal</text>
<text text-anchor="middle" x="1210.01" y="-79.1748" font-family="Monaco" font-size="10.00">::ITimeRasterExchangeItem</text>
<polyline fill="none" stroke="black" points="1118,-69.8398 1302.03,-69.8398 "/>
<text text-anchor="middle" x="1210.01" y="-57.8398" font-family="Monaco" font-size="10.00"> </text>
<polyline fill="none" stroke="black" points="1118,-48.5049 1302.03,-48.5049 "/>
<text text-anchor="start" x="1126" y="-36.5049" font-family="Monaco" font-size="10.00">+ ~ITimeRasterExchangeItem()</text>
<text text-anchor="start" x="1126" y="-23.1699" font-family="Monaco" font-size="10.00">+ timeRasterValues()</text>
</a>
</g>
</g>
<!-- Node12&#45;&gt;Node14 -->
<g id="edge13" class="edge"><title>Node12&#45;&gt;Node14</title>
<path fill="none" stroke="midnightblue" d="M1210.01,-157.613C1210.01,-140.514 1210.01,-121.366 1210.01,-104.599"/>
<polygon fill="none" stroke="midnightblue" points="1206.51,-157.955 1210.01,-167.955 1213.51,-157.955 1206.51,-157.955"/>
</g>
<!-- Node16 -->
<g id="node16" class="node"><title>Node16</title>
<g id="a_node16"><a xlink:href="class_hydro_couple_1_1_spatio_temporal_1_1_i_time_regular_grid2_d_argument.html" target="_top" xlink:title="The ITimeRegularGrid2DArgument class. ">
<polygon fill="white" stroke="black" points="1320,-0.5 1320,-117.845 1522.03,-117.845 1522.03,-0.5 1320,-0.5"/>
<text text-anchor="start" x="1328" y="-105.845" font-family="Monaco" font-size="10.00">HydroCouple::SpatioTemporal</text>
<text text-anchor="middle" x="1421.01" y="-92.5098" font-family="Monaco" font-size="10.00">::ITimeRegularGrid2DArgument</text>
<polyline fill="none" stroke="black" points="1320,-83.1748 1522.03,-83.1748 "/>
<text text-anchor="middle" x="1421.01" y="-71.1748" font-family="Monaco" font-size="10.00"> </text>
<polyline fill="none" stroke="black" points="1320,-61.8398 1522.03,-61.8398 "/>
<text text-anchor="start" x="1328" y="-49.8398" font-family="Monaco" font-size="10.00">+ ~ITimeRegularGrid2DArgument()</text>
<text text-anchor="start" x="1328" y="-36.5049" font-family="Monaco" font-size="10.00">+ setTimes()</text>
<text text-anchor="start" x="1328" y="-23.1699" font-family="Monaco" font-size="10.00">+ setGrid()</text>
<text text-anchor="start" x="1328" y="-9.83496" font-family="Monaco" font-size="10.00">+ timeRegular2DValueSets()</text>
</a>
</g>
</g>
<!-- Node15&#45;&gt;Node16 -->
<g id="edge15" class="edge"><title>Node15&#45;&gt;Node16</title>
<path fill="none" stroke="midnightblue" d="M1571.32,-162.489C1550.84,-148.551 1527.82,-132.881 1506.07,-118.072"/>
<polygon fill="none" stroke="midnightblue" points="1569.39,-165.411 1579.62,-168.145 1573.33,-159.624 1569.39,-165.411"/>
</g>
<!-- Node17 -->
<g id="node17" class="node"><title>Node17</title>
<g id="a_node17"><a xlink:href="class_hydro_couple_1_1_spatio_temporal_1_1_i_time_regular_grid2_d_exchange_item.html" target="_top" xlink:title="The ITimeRegularGrid2DExchangeItem class. ">
<polygon fill="white" stroke="black" points="1540,-13.835 1540,-104.51 1766.03,-104.51 1766.03,-13.835 1540,-13.835"/>
<text text-anchor="start" x="1548" y="-92.5098" font-family="Monaco" font-size="10.00">HydroCouple::SpatioTemporal</text>
<text text-anchor="middle" x="1653.01" y="-79.1748" font-family="Monaco" font-size="10.00">::ITimeRegularGrid2DExchangeItem</text>
<polyline fill="none" stroke="black" points="1540,-69.8398 1766.03,-69.8398 "/>
<text text-anchor="middle" x="1653.01" y="-57.8398" font-family="Monaco" font-size="10.00"> </text>
<polyline fill="none" stroke="black" points="1540,-48.5049 1766.03,-48.5049 "/>
<text text-anchor="start" x="1548" y="-36.5049" font-family="Monaco" font-size="10.00">+ ~ITimeRegularGrid2DExchangeItem()</text>
<text text-anchor="start" x="1548" y="-23.1699" font-family="Monaco" font-size="10.00">+ timeRegularGrid2DValues()</text>
</a>
</g>
</g>
<!-- Node15&#45;&gt;Node17 -->
<g id="edge16" class="edge"><title>Node15&#45;&gt;Node17</title>
<path fill="none" stroke="midnightblue" d="M1640.97,-157.613C1643.09,-140.514 1645.45,-121.366 1647.52,-104.599"/>
<polygon fill="none" stroke="midnightblue" points="1637.45,-157.601 1639.7,-167.955 1644.4,-158.46 1637.45,-157.601"/>
</g>
<!-- Node19 -->
<g id="node19" class="node"><title>Node19</title>
<g id="a_node19"><a xlink:href="class_hydro_couple_1_1_spatio_temporal_1_1_i_time_regular_grid3_d_argument.html" target="_top" xlink:title="The ITimeRegularGrid3DArgument class. ">
<polygon fill="white" stroke="black" points="1784,-0.5 1784,-117.845 1986.03,-117.845 1986.03,-0.5 1784,-0.5"/>
<text text-anchor="start" x="1792" y="-105.845" font-family="Monaco" font-size="10.00">HydroCouple::SpatioTemporal</text>
<text text-anchor="middle" x="1885.01" y="-92.5098" font-family="Monaco" font-size="10.00">::ITimeRegularGrid3DArgument</text>
<polyline fill="none" stroke="black" points="1784,-83.1748 1986.03,-83.1748 "/>
<text text-anchor="middle" x="1885.01" y="-71.1748" font-family="Monaco" font-size="10.00"> </text>
<polyline fill="none" stroke="black" points="1784,-61.8398 1986.03,-61.8398 "/>
<text text-anchor="start" x="1792" y="-49.8398" font-family="Monaco" font-size="10.00">+ ~ITimeRegularGrid3DArgument()</text>
<text text-anchor="start" x="1792" y="-36.5049" font-family="Monaco" font-size="10.00">+ setTimes()</text>
<text text-anchor="start" x="1792" y="-23.1699" font-family="Monaco" font-size="10.00">+ setGrid()</text>
<text text-anchor="start" x="1792" y="-9.83496" font-family="Monaco" font-size="10.00">+ timeRegular3DValueSets()</text>
</a>
</g>
</g>
<!-- Node18&#45;&gt;Node19 -->
<g id="edge18" class="edge"><title>Node18&#45;&gt;Node19</title>
<path fill="none" stroke="midnightblue" d="M1885.01,-157.596C1885.01,-144.901 1885.01,-131.076 1885.01,-117.937"/>
<polygon fill="none" stroke="midnightblue" points="1881.51,-157.955 1885.01,-167.955 1888.51,-157.955 1881.51,-157.955"/>
</g>
<!-- Node20 -->
<g id="node20" class="node"><title>Node20</title>
<g id="a_node20"><a xlink:href="class_hydro_couple_1_1_spatio_temporal_1_1_i_time_regular_grid3_d_exchange_item.html" target="_top" xlink:title="The ITimeRegularGrid3DExchangeItem class. ">
<polygon fill="white" stroke="black" points="2004,-13.835 2004,-104.51 2230.03,-104.51 2230.03,-13.835 2004,-13.835"/>
<text text-anchor="start" x="2012" y="-92.5098" font-family="Monaco" font-size="10.00">HydroCouple::SpatioTemporal</text>
<text text-anchor="middle" x="2117.01" y="-79.1748" font-family="Monaco" font-size="10.00">::ITimeRegularGrid3DExchangeItem</text>
<polyline fill="none" stroke="black" points="2004,-69.8398 2230.03,-69.8398 "/>
<text text-anchor="middle" x="2117.01" y="-57.8398" font-family="Monaco" font-size="10.00"> </text>
<polyline fill="none" stroke="black" points="2004,-48.5049 2230.03,-48.5049 "/>
<text text-anchor="start" x="2012" y="-36.5049" font-family="Monaco" font-size="10.00">+ ~ITimeRegularGrid3DExchangeItem()</text>
<text text-anchor="start" x="2012" y="-23.1699" font-family="Monaco" font-size="10.00">+ timeRegularGrid3DValues()</text>
</a>
</g>
</g>
<!-- Node18&#45;&gt;Node20 -->
<g id="edge19" class="edge"><title>Node18&#45;&gt;Node20</title>
<path fill="none" stroke="midnightblue" d="M1953.54,-162.818C1982.69,-144.514 2016.68,-123.174 2046.09,-104.708"/>
<polygon fill="none" stroke="midnightblue" points="1951.67,-159.863 1945.06,-168.145 1955.39,-165.791 1951.67,-159.863"/>
</g>
<!-- Node22 -->
<g id="node22" class="node"><title>Node22</title>
<g id="a_node22"><a xlink:href="class_hydro_couple_1_1_spatio_temporal_1_1_i_time_t_i_n_argument.html" target="_top" xlink:title="The ITimeTINArgument class. ">
<polygon fill="white" stroke="black" points="2248,-0.5 2248,-117.845 2426.03,-117.845 2426.03,-0.5 2248,-0.5"/>
<text text-anchor="start" x="2256" y="-105.845" font-family="Monaco" font-size="10.00">HydroCouple::SpatioTemporal</text>
<text text-anchor="middle" x="2337.01" y="-92.5098" font-family="Monaco" font-size="10.00">::ITimeTINArgument</text>
<polyline fill="none" stroke="black" points="2248,-83.1748 2426.03,-83.1748 "/>
<text text-anchor="middle" x="2337.01" y="-71.1748" font-family="Monaco" font-size="10.00"> </text>
<polyline fill="none" stroke="black" points="2248,-61.8398 2426.03,-61.8398 "/>
<text text-anchor="start" x="2256" y="-49.8398" font-family="Monaco" font-size="10.00">+ ~ITimeTINArgument()</text>
<text text-anchor="start" x="2256" y="-36.5049" font-family="Monaco" font-size="10.00">+ setTimes()</text>
<text text-anchor="start" x="2256" y="-23.1699" font-family="Monaco" font-size="10.00">+ setTIN()</text>
<text text-anchor="start" x="2256" y="-9.83496" font-family="Monaco" font-size="10.00">+ timeTINValueSets()</text>
</a>
</g>
</g>
<!-- Node21&#45;&gt;Node22 -->
<g id="edge21" class="edge"><title>Node21&#45;&gt;Node22</title>
<path fill="none" stroke="midnightblue" d="M2175.78,-162.742C2198.34,-148.391 2223.82,-132.181 2247.75,-116.957"/>
<polygon fill="none" stroke="midnightblue" points="2173.84,-159.824 2167.28,-168.145 2177.6,-165.73 2173.84,-159.824"/>
</g>
<!-- Node23 -->
<g id="node23" class="node"><title>Node23</title>
<g id="a_node23"><a xlink:href="class_hydro_couple_1_1_spatio_temporal_1_1_i_time_t_i_n_exchange_item.html" target="_top" xlink:title="The ITimeTINExchangeItem class. ">
<polygon fill="white" stroke="black" points="2444,-13.835 2444,-104.51 2622.03,-104.51 2622.03,-13.835 2444,-13.835"/>
<text text-anchor="start" x="2452" y="-92.5098" font-family="Monaco" font-size="10.00">HydroCouple::SpatioTemporal</text>
<text text-anchor="middle" x="2533.01" y="-79.1748" font-family="Monaco" font-size="10.00">::ITimeTINExchangeItem</text>
<polyline fill="none" stroke="black" points="2444,-69.8398 2622.03,-69.8398 "/>
<text text-anchor="middle" x="2533.01" y="-57.8398" font-family="Monaco" font-size="10.00"> </text>
<polyline fill="none" stroke="black" points="2444,-48.5049 2622.03,-48.5049 "/>
<text text-anchor="start" x="2452" y="-36.5049" font-family="Monaco" font-size="10.00">+ ~ITimeTINExchangeItem()</text>
<text text-anchor="start" x="2452" y="-23.1699" font-family="Monaco" font-size="10.00">+ timeTINValues()</text>
</a>
</g>
</g>
<!-- Node21&#45;&gt;Node23 -->
<g id="edge22" class="edge"><title>Node21&#45;&gt;Node23</title>
<path fill="none" stroke="midnightblue" d="M2181.89,-163.82C2189.88,-160.248 2198.01,-156.995 2206.01,-154.345 2303.81,-121.945 2338.08,-153.267 2435.01,-118.345 2445.25,-114.656 2455.61,-109.867 2465.57,-104.621"/>
<polygon fill="none" stroke="midnightblue" points="2180.19,-160.751 2172.6,-168.142 2183.14,-167.098 2180.19,-160.751"/>
</g>
</g>
</svg>
