<?xml version="1.0" encoding="UTF-8" standalone="no"?>
<!DOCTYPE svg PUBLIC "-//W3C//DTD SVG 1.1//EN"
 "http://www.w3.org/Graphics/SVG/1.1/DTD/svg11.dtd">
<!-- Generated by graphviz version 2.38.0 (20140413.2041)
 -->
<!-- Title: HydroCouple::Spatial::IPolyhedralSurfaceExchangeItem Pages: 1 -->
<svg width="424pt" height="965pt"
 viewBox="0.00 0.00 424.03 964.74" xmlns="http://www.w3.org/2000/svg" xmlns:xlink="http://www.w3.org/1999/xlink">
<g id="graph0" class="graph" transform="scale(1 1) rotate(0) translate(4 960.743)">
<title>HydroCouple::Spatial::IPolyhedralSurfaceExchangeItem</title>
<!-- Node1 -->
<g id="node1" class="node"><title>Node1</title>
<polygon fill="#bfbfbf" stroke="black" points="80.9956,-0.5 80.9956,-77.8398 307.03,-77.8398 307.03,-0.5 80.9956,-0.5"/>
<text text-anchor="start" x="88.9956" y="-65.8398" font-family="Monaco" font-size="10.00">HydroCouple::Spatial</text>
<text text-anchor="middle" x="194.013" y="-52.5049" font-family="Monaco" font-size="10.00">::IPolyhedralSurfaceExchangeItem</text>
<polyline fill="none" stroke="black" points="80.9956,-43.1699 307.03,-43.1699 "/>
<text text-anchor="middle" x="194.013" y="-31.1699" font-family="Monaco" font-size="10.00"> </text>
<polyline fill="none" stroke="black" points="80.9956,-21.835 307.03,-21.835 "/>
<text text-anchor="start" x="88.9956" y="-9.83496" font-family="Monaco" font-size="10.00">+ ~IPolyhedralSurfaceExchangeItem()</text>
</g>
<!-- Node2 -->
<g id="node2" class="node"><title>Node2</title>
<g id="a_node2"><a xlink:href="class_hydro_couple_1_1_i_exchange_item.html" target="_top" xlink:title="IExchangeItem the base data item the can be exchanged between components at runtime. ">
<polygon fill="none" stroke="black" points="0,-208.185 0,-272.189 172.025,-272.189 172.025,-208.185 0,-208.185"/>
<text text-anchor="middle" x="86.0127" y="-260.189" font-family="Monaco" font-size="10.00">HydroCouple::IExchangeItem</text>
<polyline fill="none" stroke="black" points="0,-250.854 172.025,-250.854 "/>
<text text-anchor="middle" x="86.0127" y="-238.854" font-family="Monaco" font-size="10.00"> </text>
<polyline fill="none" stroke="black" points="0,-229.52 172.025,-229.52 "/>
<text text-anchor="start" x="8" y="-217.52" font-family="Monaco" font-size="10.00">+ ~IExchangeItem()</text>
</a>
</g>
</g>
<!-- Node2&#45;&gt;Node1 -->
<g id="edge1" class="edge"><title>Node2&#45;&gt;Node1</title>
<path fill="none" stroke="midnightblue" d="M107.803,-199.033C126.944,-163.761 154.593,-112.81 173.381,-78.1894"/>
<polygon fill="none" stroke="midnightblue" points="104.581,-197.632 102.888,-208.091 110.734,-200.971 104.581,-197.632"/>
</g>
<!-- Node3 -->
<g id="node3" class="node"><title>Node3</title>
<g id="a_node3"><a xlink:href="class_hydro_couple_1_1_i_component_data_item.html" target="_top" xlink:title="IComponentItem is a fundamental unit of data for a component. ">
<polygon fill="none" stroke="black" points="92.9976,-402.534 92.9976,-586.554 295.028,-586.554 295.028,-402.534 92.9976,-402.534"/>
<text text-anchor="middle" x="194.013" y="-574.554" font-family="Monaco" font-size="10.00">HydroCouple::IComponentDataItem</text>
<polyline fill="none" stroke="black" points="92.9976,-565.219 295.028,-565.219 "/>
<text text-anchor="middle" x="194.013" y="-553.219" font-family="Monaco" font-size="10.00"> </text>
<polyline fill="none" stroke="black" points="92.9976,-543.884 295.028,-543.884 "/>
<text text-anchor="start" x="100.998" y="-531.884" font-family="Monaco" font-size="10.00">+ ~IComponentDataItem()</text>
<text text-anchor="start" x="100.998" y="-518.549" font-family="Monaco" font-size="10.00">+ modelComponent()</text>
<text text-anchor="start" x="100.998" y="-505.214" font-family="Monaco" font-size="10.00">+ dimensions()</text>
<text text-anchor="start" x="100.998" y="-491.879" font-family="Monaco" font-size="10.00">+ valueDefinition()</text>
<text text-anchor="start" x="100.998" y="-478.544" font-family="Monaco" font-size="10.00">+ getValue()</text>
<text text-anchor="start" x="100.998" y="-465.209" font-family="Monaco" font-size="10.00">+ getValues()</text>
<text text-anchor="start" x="100.998" y="-451.874" font-family="Monaco" font-size="10.00">+ getValues()</text>
<text text-anchor="start" x="100.998" y="-438.539" font-family="Monaco" font-size="10.00">+ setValue()</text>
<text text-anchor="start" x="100.998" y="-425.204" font-family="Monaco" font-size="10.00">+ setValues()</text>
<text text-anchor="start" x="100.998" y="-411.869" font-family="Monaco" font-size="10.00">+ setValues()</text>
</a>
</g>
</g>
<!-- Node3&#45;&gt;Node2 -->
<g id="edge2" class="edge"><title>Node3&#45;&gt;Node2</title>
<path fill="none" stroke="midnightblue" d="M150.984,-393.001C132.49,-349.787 112.203,-302.384 99.303,-272.242"/>
<polygon fill="none" stroke="midnightblue" points="147.87,-394.621 155.022,-402.437 154.305,-391.867 147.87,-394.621"/>
</g>
<!-- Node7 -->
<g id="node7" class="node"><title>Node7</title>
<g id="a_node7"><a xlink:href="class_hydro_couple_1_1_spatial_1_1_i_polyhedral_surface_component_data_item.html" target="_top" xlink:title="IPolyhedralSurfaceComponentItem represents IPolyhedralSurface IComponentItem. ">
<polygon fill="none" stroke="black" points="189.996,-114.84 189.996,-365.534 416.03,-365.534 416.03,-114.84 189.996,-114.84"/>
<text text-anchor="start" x="197.996" y="-353.534" font-family="Monaco" font-size="10.00">HydroCouple::Spatial</text>
<text text-anchor="start" x="197.996" y="-340.199" font-family="Monaco" font-size="10.00">::IPolyhedralSurfaceComponent</text>
<text text-anchor="middle" x="303.013" y="-326.864" font-family="Monaco" font-size="10.00">DataItem</text>
<polyline fill="none" stroke="black" points="189.996,-317.529 416.03,-317.529 "/>
<text text-anchor="middle" x="303.013" y="-305.529" font-family="Monaco" font-size="10.00"> </text>
<polyline fill="none" stroke="black" points="189.996,-296.194 416.03,-296.194 "/>
<text text-anchor="start" x="197.996" y="-284.194" font-family="Monaco" font-size="10.00">+ ~IPolyhedralSurfaceComponent</text>
<text text-anchor="start" x="197.996" y="-270.859" font-family="Monaco" font-size="10.00">DataItem()</text>
<text text-anchor="start" x="197.996" y="-257.524" font-family="Monaco" font-size="10.00">+ polyhedralSurface()</text>
<text text-anchor="start" x="197.996" y="-244.189" font-family="Monaco" font-size="10.00">+ polygon()</text>
<text text-anchor="start" x="197.996" y="-230.854" font-family="Monaco" font-size="10.00">+ polyhedralSurfacePatchDimension()</text>
<text text-anchor="start" x="197.996" y="-217.52" font-family="Monaco" font-size="10.00">+ polyhedralSurfaceEdgeDimension()</text>
<text text-anchor="start" x="197.996" y="-204.185" font-family="Monaco" font-size="10.00">+ polyhedralSurfaceNodeDimensions()</text>
<text text-anchor="start" x="197.996" y="-190.85" font-family="Monaco" font-size="10.00">+ getValue()</text>
<text text-anchor="start" x="197.996" y="-177.515" font-family="Monaco" font-size="10.00">+ getValues()</text>
<text text-anchor="start" x="197.996" y="-164.18" font-family="Monaco" font-size="10.00">+ getValues()</text>
<text text-anchor="start" x="197.996" y="-150.845" font-family="Monaco" font-size="10.00">+ setValue()</text>
<text text-anchor="start" x="197.996" y="-137.51" font-family="Monaco" font-size="10.00">+ setValues()</text>
<text text-anchor="start" x="197.996" y="-124.175" font-family="Monaco" font-size="10.00">+ setValues()</text>
</a>
</g>
</g>
<!-- Node3&#45;&gt;Node7 -->
<g id="edge7" class="edge"><title>Node3&#45;&gt;Node7</title>
<path fill="none" stroke="midnightblue" d="M237.409,-393.072C241.322,-384.014 245.314,-374.771 249.301,-365.54"/>
<polygon fill="none" stroke="midnightblue" points="234.116,-391.869 233.364,-402.437 240.543,-394.645 234.116,-391.869"/>
</g>
<!-- Node4 -->
<g id="node4" class="node"><title>Node4</title>
<g id="a_node4"><a xlink:href="class_hydro_couple_1_1_i_identity.html" target="_top" xlink:title="IIdentity interface class defines a method to get the Id of an HydroCouple entity. ">
<polygon fill="none" stroke="black" points="120.002,-623.554 120.002,-700.894 268.023,-700.894 268.023,-623.554 120.002,-623.554"/>
<text text-anchor="middle" x="194.013" y="-688.894" font-family="Monaco" font-size="10.00">HydroCouple::IIdentity</text>
<polyline fill="none" stroke="black" points="120.002,-679.559 268.023,-679.559 "/>
<text text-anchor="middle" x="194.013" y="-667.559" font-family="Monaco" font-size="10.00"> </text>
<polyline fill="none" stroke="black" points="120.002,-658.224 268.023,-658.224 "/>
<text text-anchor="start" x="128.002" y="-646.224" font-family="Monaco" font-size="10.00">+ ~IIdentity()</text>
<text text-anchor="start" x="128.002" y="-632.889" font-family="Monaco" font-size="10.00">+ id()</text>
</a>
</g>
</g>
<!-- Node4&#45;&gt;Node3 -->
<g id="edge3" class="edge"><title>Node4&#45;&gt;Node3</title>
<path fill="none" stroke="midnightblue" d="M194.013,-612.971C194.013,-604.618 194.013,-595.693 194.013,-586.635"/>
<polygon fill="none" stroke="midnightblue" points="190.513,-613.213 194.013,-623.213 197.513,-613.213 190.513,-613.213"/>
</g>
<!-- Node5 -->
<g id="node5" class="node"><title>Node5</title>
<g id="a_node5"><a xlink:href="class_hydro_couple_1_1_i_description.html" target="_top" xlink:title="IDescription interface class provides descriptive information on a HydroCouple object. ">
<polygon fill="none" stroke="black" points="111,-737.894 111,-855.238 277.025,-855.238 277.025,-737.894 111,-737.894"/>
<text text-anchor="middle" x="194.013" y="-843.238" font-family="Monaco" font-size="10.00">HydroCouple::IDescription</text>
<polyline fill="none" stroke="black" points="111,-833.903 277.025,-833.903 "/>
<text text-anchor="middle" x="194.013" y="-821.903" font-family="Monaco" font-size="10.00"> </text>
<polyline fill="none" stroke="black" points="111,-812.568 277.025,-812.568 "/>
<text text-anchor="start" x="119" y="-800.568" font-family="Monaco" font-size="10.00">+ ~IDescription()</text>
<text text-anchor="start" x="119" y="-787.233" font-family="Monaco" font-size="10.00">+ caption()</text>
<text text-anchor="start" x="119" y="-773.898" font-family="Monaco" font-size="10.00">+ setCaption()</text>
<text text-anchor="start" x="119" y="-760.563" font-family="Monaco" font-size="10.00">+ description()</text>
<text text-anchor="start" x="119" y="-747.229" font-family="Monaco" font-size="10.00">+ setDescription()</text>
</a>
</g>
</g>
<!-- Node5&#45;&gt;Node4 -->
<g id="edge4" class="edge"><title>Node5&#45;&gt;Node4</title>
<path fill="none" stroke="midnightblue" d="M194.013,-727.328C194.013,-718.289 194.013,-709.301 194.013,-701.041"/>
<polygon fill="none" stroke="midnightblue" points="190.513,-727.519 194.013,-737.519 197.513,-727.519 190.513,-727.519"/>
</g>
<!-- Node6 -->
<g id="node6" class="node"><title>Node6</title>
<g id="a_node6"><a xlink:href="class_hydro_couple_1_1_i_property_changed.html" target="_top" xlink:title="IPropertyChanged interface is used to emit signal/event when a property of an object changes...">
<polygon fill="none" stroke="black" points="98.9985,-892.238 98.9985,-956.243 289.027,-956.243 289.027,-892.238 98.9985,-892.238"/>
<text text-anchor="middle" x="194.013" y="-944.243" font-family="Monaco" font-size="10.00">HydroCouple::IPropertyChanged</text>
<polyline fill="none" stroke="black" points="98.9985,-934.908 289.027,-934.908 "/>
<text text-anchor="middle" x="194.013" y="-922.908" font-family="Monaco" font-size="10.00"> </text>
<polyline fill="none" stroke="black" points="98.9985,-913.573 289.027,-913.573 "/>
<text text-anchor="start" x="106.999" y="-901.573" font-family="Monaco" font-size="10.00">+ ~IPropertyChanged()</text>
</a>
</g>
</g>
<!-- Node6&#45;&gt;Node5 -->
<g id="edge5" class="edge"><title>Node6&#45;&gt;Node5</title>
<path fill="none" stroke="midnightblue" d="M194.013,-881.918C194.013,-873.533 194.013,-864.566 194.013,-855.724"/>
<polygon fill="none" stroke="midnightblue" points="190.513,-882.175 194.013,-892.175 197.513,-882.175 190.513,-882.175"/>
</g>
<!-- Node7&#45;&gt;Node1 -->
<g id="edge6" class="edge"><title>Node7&#45;&gt;Node1</title>
<path fill="none" stroke="midnightblue" d="M229.916,-105.723C224.483,-95.804 219.331,-86.3966 214.713,-77.9657"/>
<polygon fill="none" stroke="midnightblue" points="226.882,-107.47 234.755,-114.56 233.021,-104.108 226.882,-107.47"/>
</g>
</g>
</svg>
