<?xml version="1.0" encoding="UTF-8" standalone="no"?>
<!DOCTYPE svg PUBLIC "-//W3C//DTD SVG 1.1//EN"
 "http://www.w3.org/Graphics/SVG/1.1/DTD/svg11.dtd">
<!-- Generated by graphviz version 2.38.0 (20140413.2041)
 -->
<!-- Title: HydroCouple::Spatial::IRasterOnlyExhangeItem Pages: 1 -->
<svg width="403pt" height="1039pt"
 viewBox="0.00 0.00 403.03 1039.08" xmlns="http://www.w3.org/2000/svg" xmlns:xlink="http://www.w3.org/1999/xlink">
<g id="graph0" class="graph" transform="scale(1 1) rotate(0) translate(4 1035.08)">
<title>HydroCouple::Spatial::IRasterOnlyExhangeItem</title>
<!-- Node1 -->
<g id="node1" class="node"><title>Node1</title>
<polygon fill="#bfbfbf" stroke="black" points="97.9995,-0.5 97.9995,-77.8398 276.026,-77.8398 276.026,-0.5 97.9995,-0.5"/>
<text text-anchor="start" x="106" y="-65.8398" font-family="Monaco" font-size="10.00">HydroCouple::Spatial</text>
<text text-anchor="middle" x="187.013" y="-52.5049" font-family="Monaco" font-size="10.00">::IRasterOnlyExhangeItem</text>
<polyline fill="none" stroke="black" points="97.9995,-43.1699 276.026,-43.1699 "/>
<text text-anchor="middle" x="187.013" y="-31.1699" font-family="Monaco" font-size="10.00"> </text>
<polyline fill="none" stroke="black" points="97.9995,-21.835 276.026,-21.835 "/>
<text text-anchor="start" x="106" y="-9.83496" font-family="Monaco" font-size="10.00">+ ~IRasterOnlyExhangeItem()</text>
</g>
<!-- Node2 -->
<g id="node2" class="node"><title>Node2</title>
<g id="a_node2"><a xlink:href="class_hydro_couple_1_1_spatial_1_1_i_raster_exhange_item.html" target="_top" xlink:title="An IRasterExhangeItem is an IExchangeItem with an IRaster. ">
<polygon fill="none" stroke="black" points="9.00146,-154.845 9.00146,-232.185 163.024,-232.185 163.024,-154.845 9.00146,-154.845"/>
<text text-anchor="start" x="17.0015" y="-220.185" font-family="Monaco" font-size="10.00">HydroCouple::Spatial</text>
<text text-anchor="middle" x="86.0127" y="-206.85" font-family="Monaco" font-size="10.00">::IRasterExhangeItem</text>
<polyline fill="none" stroke="black" points="9.00146,-197.515 163.024,-197.515 "/>
<text text-anchor="middle" x="86.0127" y="-185.515" font-family="Monaco" font-size="10.00"> </text>
<polyline fill="none" stroke="black" points="9.00146,-176.18 163.024,-176.18 "/>
<text text-anchor="start" x="17.0015" y="-164.18" font-family="Monaco" font-size="10.00">+ ~IRasterExhangeItem()</text>
</a>
</g>
</g>
<!-- Node2&#45;&gt;Node1 -->
<g id="edge1" class="edge"><title>Node2&#45;&gt;Node1</title>
<path fill="none" stroke="midnightblue" d="M116.844,-146.009C131.293,-124.215 148.288,-98.5806 161.933,-77.9987"/>
<polygon fill="none" stroke="midnightblue" points="113.847,-144.196 111.239,-154.465 119.682,-148.064 113.847,-144.196"/>
</g>
<!-- Node3 -->
<g id="node3" class="node"><title>Node3</title>
<g id="a_node3"><a xlink:href="class_hydro_couple_1_1_i_exchange_item.html" target="_top" xlink:title="IExchangeItem the base data item the can be exchanged between components at runtime. ">
<polygon fill="none" stroke="black" points="0,-342.527 0,-406.532 172.025,-406.532 172.025,-342.527 0,-342.527"/>
<text text-anchor="middle" x="86.0127" y="-394.532" font-family="Monaco" font-size="10.00">HydroCouple::IExchangeItem</text>
<polyline fill="none" stroke="black" points="0,-385.197 172.025,-385.197 "/>
<text text-anchor="middle" x="86.0127" y="-373.197" font-family="Monaco" font-size="10.00"> </text>
<polyline fill="none" stroke="black" points="0,-363.862 172.025,-363.862 "/>
<text text-anchor="start" x="8" y="-351.862" font-family="Monaco" font-size="10.00">+ ~IExchangeItem()</text>
</a>
</g>
</g>
<!-- Node3&#45;&gt;Node2 -->
<g id="edge2" class="edge"><title>Node3&#45;&gt;Node2</title>
<path fill="none" stroke="midnightblue" d="M86.0127,-332.179C86.0127,-302.117 86.0127,-261.734 86.0127,-232.486"/>
<polygon fill="none" stroke="midnightblue" points="82.5128,-332.347 86.0127,-342.347 89.5128,-332.347 82.5128,-332.347"/>
</g>
<!-- Node4 -->
<g id="node4" class="node"><title>Node4</title>
<g id="a_node4"><a xlink:href="class_hydro_couple_1_1_i_component_data_item.html" target="_top" xlink:title="IComponentItem is a fundamental unit of data for a component. ">
<polygon fill="none" stroke="black" points="83.9976,-476.869 83.9976,-660.889 286.028,-660.889 286.028,-476.869 83.9976,-476.869"/>
<text text-anchor="middle" x="185.013" y="-648.889" font-family="Monaco" font-size="10.00">HydroCouple::IComponentDataItem</text>
<polyline fill="none" stroke="black" points="83.9976,-639.554 286.028,-639.554 "/>
<text text-anchor="middle" x="185.013" y="-627.554" font-family="Monaco" font-size="10.00"> </text>
<polyline fill="none" stroke="black" points="83.9976,-618.219 286.028,-618.219 "/>
<text text-anchor="start" x="91.9976" y="-606.219" font-family="Monaco" font-size="10.00">+ ~IComponentDataItem()</text>
<text text-anchor="start" x="91.9976" y="-592.884" font-family="Monaco" font-size="10.00">+ modelComponent()</text>
<text text-anchor="start" x="91.9976" y="-579.549" font-family="Monaco" font-size="10.00">+ dimensions()</text>
<text text-anchor="start" x="91.9976" y="-566.214" font-family="Monaco" font-size="10.00">+ valueDefinition()</text>
<text text-anchor="start" x="91.9976" y="-552.879" font-family="Monaco" font-size="10.00">+ getValue()</text>
<text text-anchor="start" x="91.9976" y="-539.544" font-family="Monaco" font-size="10.00">+ getValues()</text>
<text text-anchor="start" x="91.9976" y="-526.209" font-family="Monaco" font-size="10.00">+ getValues()</text>
<text text-anchor="start" x="91.9976" y="-512.874" font-family="Monaco" font-size="10.00">+ setValue()</text>
<text text-anchor="start" x="91.9976" y="-499.539" font-family="Monaco" font-size="10.00">+ setValues()</text>
<text text-anchor="start" x="91.9976" y="-486.204" font-family="Monaco" font-size="10.00">+ setValues()</text>
</a>
</g>
</g>
<!-- Node4&#45;&gt;Node3 -->
<g id="edge3" class="edge"><title>Node4&#45;&gt;Node3</title>
<path fill="none" stroke="midnightblue" d="M133.397,-467.594C121.972,-445.395 110.697,-423.489 102.013,-406.617"/>
<polygon fill="none" stroke="midnightblue" points="130.434,-469.484 138.122,-476.774 136.658,-466.281 130.434,-469.484"/>
</g>
<!-- Node8 -->
<g id="node8" class="node"><title>Node8</title>
<g id="a_node8"><a xlink:href="class_hydro_couple_1_1_spatial_1_1_i_raster_component_data_item.html" target="_top" xlink:title="An IRasterComponentDataItem represents an IRaster IComponentItem. ">
<polygon fill="none" stroke="black" points="189.999,-309.189 189.999,-439.869 380.027,-439.869 380.027,-309.189 189.999,-309.189"/>
<text text-anchor="start" x="197.999" y="-427.869" font-family="Monaco" font-size="10.00">HydroCouple::Spatial</text>
<text text-anchor="middle" x="285.013" y="-414.534" font-family="Monaco" font-size="10.00">::IRasterComponentDataItem</text>
<polyline fill="none" stroke="black" points="189.999,-405.199 380.027,-405.199 "/>
<text text-anchor="middle" x="285.013" y="-393.199" font-family="Monaco" font-size="10.00"> </text>
<polyline fill="none" stroke="black" points="189.999,-383.864 380.027,-383.864 "/>
<text text-anchor="start" x="197.999" y="-371.864" font-family="Monaco" font-size="10.00">+ ~IRasterComponentDataItem()</text>
<text text-anchor="start" x="197.999" y="-358.529" font-family="Monaco" font-size="10.00">+ xDimension()</text>
<text text-anchor="start" x="197.999" y="-345.194" font-family="Monaco" font-size="10.00">+ yDimension()</text>
<text text-anchor="start" x="197.999" y="-331.859" font-family="Monaco" font-size="10.00">+ bandDimension()</text>
<text text-anchor="start" x="197.999" y="-318.524" font-family="Monaco" font-size="10.00">+ raster()</text>
</a>
</g>
</g>
<!-- Node4&#45;&gt;Node8 -->
<g id="edge8" class="edge"><title>Node4&#45;&gt;Node8</title>
<path fill="none" stroke="midnightblue" d="M237.076,-467.735C241.975,-458.312 246.848,-448.939 251.506,-439.98"/>
<polygon fill="none" stroke="midnightblue" points="233.884,-466.287 232.377,-476.774 240.095,-469.516 233.884,-466.287"/>
</g>
<!-- Node5 -->
<g id="node5" class="node"><title>Node5</title>
<g id="a_node5"><a xlink:href="class_hydro_couple_1_1_i_identity.html" target="_top" xlink:title="IIdentity interface class defines a method to get the Id of an HydroCouple entity. ">
<polygon fill="none" stroke="black" points="111.002,-697.889 111.002,-775.229 259.023,-775.229 259.023,-697.889 111.002,-697.889"/>
<text text-anchor="middle" x="185.013" y="-763.229" font-family="Monaco" font-size="10.00">HydroCouple::IIdentity</text>
<polyline fill="none" stroke="black" points="111.002,-753.894 259.023,-753.894 "/>
<text text-anchor="middle" x="185.013" y="-741.894" font-family="Monaco" font-size="10.00"> </text>
<polyline fill="none" stroke="black" points="111.002,-732.559 259.023,-732.559 "/>
<text text-anchor="start" x="119.002" y="-720.559" font-family="Monaco" font-size="10.00">+ ~IIdentity()</text>
<text text-anchor="start" x="119.002" y="-707.224" font-family="Monaco" font-size="10.00">+ id()</text>
</a>
</g>
</g>
<!-- Node5&#45;&gt;Node4 -->
<g id="edge4" class="edge"><title>Node5&#45;&gt;Node4</title>
<path fill="none" stroke="midnightblue" d="M185.013,-687.306C185.013,-678.953 185.013,-670.028 185.013,-660.97"/>
<polygon fill="none" stroke="midnightblue" points="181.513,-687.548 185.013,-697.548 188.513,-687.548 181.513,-687.548"/>
</g>
<!-- Node6 -->
<g id="node6" class="node"><title>Node6</title>
<g id="a_node6"><a xlink:href="class_hydro_couple_1_1_i_description.html" target="_top" xlink:title="IDescription interface class provides descriptive information on a HydroCouple object. ">
<polygon fill="none" stroke="black" points="102,-812.229 102,-929.573 268.025,-929.573 268.025,-812.229 102,-812.229"/>
<text text-anchor="middle" x="185.013" y="-917.573" font-family="Monaco" font-size="10.00">HydroCouple::IDescription</text>
<polyline fill="none" stroke="black" points="102,-908.238 268.025,-908.238 "/>
<text text-anchor="middle" x="185.013" y="-896.238" font-family="Monaco" font-size="10.00"> </text>
<polyline fill="none" stroke="black" points="102,-886.903 268.025,-886.903 "/>
<text text-anchor="start" x="110" y="-874.903" font-family="Monaco" font-size="10.00">+ ~IDescription()</text>
<text text-anchor="start" x="110" y="-861.568" font-family="Monaco" font-size="10.00">+ caption()</text>
<text text-anchor="start" x="110" y="-848.233" font-family="Monaco" font-size="10.00">+ setCaption()</text>
<text text-anchor="start" x="110" y="-834.898" font-family="Monaco" font-size="10.00">+ description()</text>
<text text-anchor="start" x="110" y="-821.563" font-family="Monaco" font-size="10.00">+ setDescription()</text>
</a>
</g>
</g>
<!-- Node6&#45;&gt;Node5 -->
<g id="edge5" class="edge"><title>Node6&#45;&gt;Node5</title>
<path fill="none" stroke="midnightblue" d="M185.013,-801.663C185.013,-792.624 185.013,-783.636 185.013,-775.376"/>
<polygon fill="none" stroke="midnightblue" points="181.513,-801.854 185.013,-811.854 188.513,-801.854 181.513,-801.854"/>
</g>
<!-- Node7 -->
<g id="node7" class="node"><title>Node7</title>
<g id="a_node7"><a xlink:href="class_hydro_couple_1_1_i_property_changed.html" target="_top" xlink:title="IPropertyChanged interface is used to emit signal/event when a property of an object changes...">
<polygon fill="none" stroke="black" points="89.9985,-966.573 89.9985,-1030.58 280.027,-1030.58 280.027,-966.573 89.9985,-966.573"/>
<text text-anchor="middle" x="185.013" y="-1018.58" font-family="Monaco" font-size="10.00">HydroCouple::IPropertyChanged</text>
<polyline fill="none" stroke="black" points="89.9985,-1009.24 280.027,-1009.24 "/>
<text text-anchor="middle" x="185.013" y="-997.243" font-family="Monaco" font-size="10.00"> </text>
<polyline fill="none" stroke="black" points="89.9985,-987.908 280.027,-987.908 "/>
<text text-anchor="start" x="97.9985" y="-975.908" font-family="Monaco" font-size="10.00">+ ~IPropertyChanged()</text>
</a>
</g>
</g>
<!-- Node7&#45;&gt;Node6 -->
<g id="edge6" class="edge"><title>Node7&#45;&gt;Node6</title>
<path fill="none" stroke="midnightblue" d="M185.013,-956.253C185.013,-947.868 185.013,-938.901 185.013,-930.059"/>
<polygon fill="none" stroke="midnightblue" points="181.513,-956.51 185.013,-966.51 188.513,-956.51 181.513,-956.51"/>
</g>
<!-- Node8&#45;&gt;Node2 -->
<g id="edge7" class="edge"><title>Node8&#45;&gt;Node2</title>
<path fill="none" stroke="midnightblue" d="M204.949,-302.245C193.871,-292.334 182.648,-282.269 172.013,-272.689 157.47,-259.591 141.601,-245.195 127.498,-232.366"/>
<polygon fill="none" stroke="midnightblue" points="202.799,-305.018 212.586,-309.074 207.465,-299.799 202.799,-305.018"/>
</g>
<!-- Node9 -->
<g id="node9" class="node"><title>Node9</title>
<g id="a_node9"><a xlink:href="class_hydro_couple_1_1_spatial_1_1_i_raster_only_component_data_item.html" target="_top" xlink:title="An IRasterComponentDataItem represents an IRaster IComponentItem. ">
<polygon fill="none" stroke="black" points="180.997,-114.84 180.997,-272.189 395.029,-272.189 395.029,-114.84 180.997,-114.84"/>
<text text-anchor="start" x="188.997" y="-260.189" font-family="Monaco" font-size="10.00">HydroCouple::Spatial</text>
<text text-anchor="middle" x="288.013" y="-246.854" font-family="Monaco" font-size="10.00">::IRasterOnlyComponentDataItem</text>
<polyline fill="none" stroke="black" points="180.997,-237.52 395.029,-237.52 "/>
<text text-anchor="middle" x="288.013" y="-225.52" font-family="Monaco" font-size="10.00"> </text>
<polyline fill="none" stroke="black" points="180.997,-216.185 395.029,-216.185 "/>
<text text-anchor="start" x="188.997" y="-204.185" font-family="Monaco" font-size="10.00">+ ~IRasterOnlyComponentDataItem()</text>
<text text-anchor="start" x="188.997" y="-190.85" font-family="Monaco" font-size="10.00">+ getValue()</text>
<text text-anchor="start" x="188.997" y="-177.515" font-family="Monaco" font-size="10.00">+ getValues()</text>
<text text-anchor="start" x="188.997" y="-164.18" font-family="Monaco" font-size="10.00">+ getValues()</text>
<text text-anchor="start" x="188.997" y="-150.845" font-family="Monaco" font-size="10.00">+ setValue()</text>
<text text-anchor="start" x="188.997" y="-137.51" font-family="Monaco" font-size="10.00">+ setValues()</text>
<text text-anchor="start" x="188.997" y="-124.175" font-family="Monaco" font-size="10.00">+ setValues()</text>
</a>
</g>
</g>
<!-- Node8&#45;&gt;Node9 -->
<g id="edge10" class="edge"><title>Node8&#45;&gt;Node9</title>
<path fill="none" stroke="midnightblue" d="M286.262,-298.957C286.41,-290.175 286.56,-281.196 286.708,-272.37"/>
<polygon fill="none" stroke="midnightblue" points="282.76,-299.097 286.092,-309.154 289.759,-299.214 282.76,-299.097"/>
</g>
<!-- Node9&#45;&gt;Node1 -->
<g id="edge9" class="edge"><title>Node9&#45;&gt;Node1</title>
<path fill="none" stroke="midnightblue" d="M230.803,-106.222C224.256,-96.3468 217.862,-86.7024 212.072,-77.9688"/>
<polygon fill="none" stroke="midnightblue" points="227.886,-108.156 236.329,-114.557 233.721,-104.288 227.886,-108.156"/>
</g>
</g>
</svg>
