<?xml version="1.0" encoding="UTF-8" standalone="no"?>
<!DOCTYPE svg PUBLIC "-//W3C//DTD SVG 1.1//EN"
 "http://www.w3.org/Graphics/SVG/1.1/DTD/svg11.dtd">
<!-- Generated by graphviz version 2.38.0 (20140413.2041)
 -->
<!-- Title: Description::propertyChanged Pages: 1 -->
<svg width="406pt" height="110pt"
 viewBox="0.00 0.00 406.05 110.33" xmlns="http://www.w3.org/2000/svg" xmlns:xlink="http://www.w3.org/1999/xlink">
<g id="graph0" class="graph" transform="scale(1 1) rotate(0) translate(4 106.335)">
<title>Description::propertyChanged</title>
<polygon fill="white" stroke="none" points="-4,4 -4,-106.335 402.054,-106.335 402.054,4 -4,4"/>
<!-- Node1 -->
<g id="node1" class="node"><title>Node1</title>
<polygon fill="#bfbfbf" stroke="black" points="0,-40.5 0,-61.835 184.027,-61.835 184.027,-40.5 0,-40.5"/>
<text text-anchor="middle" x="92.0137" y="-49.835" font-family="Monaco" font-size="10.00">Description::propertyChanged</text>
</g>
<!-- Node2 -->
<g id="node2" class="node"><title>Node2</title>
<g id="a_node2"><a xlink:href="class_identity.html#aea6966e4e4e3734a196f611880dc3acb" target="_top" xlink:title="~Identity ">
<polygon fill="white" stroke="black" points="244.031,-80.5 244.031,-101.835 374.05,-101.835 374.05,-80.5 244.031,-80.5"/>
<text text-anchor="middle" x="309.041" y="-89.835" font-family="Monaco" font-size="10.00">Identity::~Identity</text>
</a>
</g>
</g>
<!-- Node1&#45;&gt;Node2 -->
<g id="edge1" class="edge"><title>Node1&#45;&gt;Node2</title>
<path fill="none" stroke="midnightblue" d="M160.658,-63.7509C189.565,-69.1283 222.952,-75.339 250.631,-80.488"/>
<polygon fill="midnightblue" stroke="midnightblue" points="161.108,-60.2747 150.637,-61.8867 159.828,-67.1567 161.108,-60.2747"/>
</g>
<!-- Node3 -->
<g id="node3" class="node"><title>Node3</title>
<g id="a_node3"><a xlink:href="class_description.html#abcc77bedf753d33355773b6e5c929d5f" target="_top" xlink:title="Sets caption for the entity. ">
<polygon fill="white" stroke="black" points="232.029,-40.5 232.029,-61.835 386.052,-61.835 386.052,-40.5 232.029,-40.5"/>
<text text-anchor="middle" x="309.041" y="-49.835" font-family="Monaco" font-size="10.00">Description::setCaption</text>
</a>
</g>
</g>
<!-- Node1&#45;&gt;Node3 -->
<g id="edge2" class="edge"><title>Node1&#45;&gt;Node3</title>
<path fill="none" stroke="midnightblue" d="M194.324,-51.1675C206.991,-51.1675 219.773,-51.1675 231.963,-51.1675"/>
<polygon fill="midnightblue" stroke="midnightblue" points="194.204,-47.6676 184.204,-51.1675 194.204,-54.6676 194.204,-47.6676"/>
</g>
<!-- Node4 -->
<g id="node4" class="node"><title>Node4</title>
<g id="a_node4"><a xlink:href="class_description.html#a0d282d514cdcc821f21b7028ca2e5e1d" target="_top" xlink:title="Gets additional descriptive information for the entity. ">
<polygon fill="white" stroke="black" points="220.027,-0.5 220.027,-21.835 398.054,-21.835 398.054,-0.5 220.027,-0.5"/>
<text text-anchor="middle" x="309.041" y="-9.83496" font-family="Monaco" font-size="10.00">Description::setDescription</text>
</a>
</g>
</g>
<!-- Node1&#45;&gt;Node4 -->
<g id="edge3" class="edge"><title>Node1&#45;&gt;Node4</title>
<path fill="none" stroke="midnightblue" d="M160.658,-38.584C189.565,-33.2067 222.952,-26.996 250.631,-21.8469"/>
<polygon fill="midnightblue" stroke="midnightblue" points="159.828,-35.1783 150.637,-40.4482 161.108,-42.0602 159.828,-35.1783"/>
</g>
</g>
</svg>
