<?xml version="1.0" encoding="UTF-8" standalone="no"?>
<!DOCTYPE svg PUBLIC "-//W3C//DTD SVG 1.1//EN"
 "http://www.w3.org/Graphics/SVG/1.1/DTD/svg11.dtd">
<!-- Generated by graphviz version 2.38.0 (20140413.2041)
 -->
<!-- Title: HydroCouple::SpatioTemporal::ITimeRegularGrid3DExchangeItem Pages: 1 -->
<svg width="626pt" height="1066pt"
 viewBox="0.00 0.00 626.03 1065.75" xmlns="http://www.w3.org/2000/svg" xmlns:xlink="http://www.w3.org/1999/xlink">
<g id="graph0" class="graph" transform="scale(1 1) rotate(0) translate(4 1061.75)">
<title>HydroCouple::SpatioTemporal::ITimeRegularGrid3DExchangeItem</title>
<!-- Node1 -->
<g id="node1" class="node"><title>Node1</title>
<polygon fill="#bfbfbf" stroke="black" points="217.001,-0.5 217.001,-77.8398 443.035,-77.8398 443.035,-0.5 217.001,-0.5"/>
<text text-anchor="start" x="225.001" y="-65.8398" font-family="Monaco" font-size="10.00">HydroCouple::SpatioTemporal</text>
<text text-anchor="middle" x="330.018" y="-52.5049" font-family="Monaco" font-size="10.00">::ITimeRegularGrid3DExchangeItem</text>
<polyline fill="none" stroke="black" points="217.001,-43.1699 443.035,-43.1699 "/>
<text text-anchor="middle" x="330.018" y="-31.1699" font-family="Monaco" font-size="10.00"> </text>
<polyline fill="none" stroke="black" points="217.001,-21.835 443.035,-21.835 "/>
<text text-anchor="start" x="225.001" y="-9.83496" font-family="Monaco" font-size="10.00">+ ~ITimeRegularGrid3DExchangeItem()</text>
</g>
<!-- Node2 -->
<g id="node2" class="node"><title>Node2</title>
<g id="a_node2"><a xlink:href="class_hydro_couple_1_1_spatio_temporal_1_1_i_time_regular_grid3_d_component_data_item.html" target="_top" xlink:title="The ITimeRegularGrid3DComponentItem class. ">
<polygon fill="none" stroke="black" points="0,-114.84 0,-285.524 238.036,-285.524 238.036,-114.84 0,-114.84"/>
<text text-anchor="start" x="8" y="-273.524" font-family="Monaco" font-size="10.00">HydroCouple::SpatioTemporal</text>
<text text-anchor="middle" x="119.018" y="-260.189" font-family="Monaco" font-size="10.00">::ITimeRegularGrid3DComponentDataItem</text>
<polyline fill="none" stroke="black" points="0,-250.854 238.036,-250.854 "/>
<text text-anchor="middle" x="119.018" y="-238.854" font-family="Monaco" font-size="10.00"> </text>
<polyline fill="none" stroke="black" points="0,-229.52 238.036,-229.52 "/>
<text text-anchor="start" x="8" y="-217.52" font-family="Monaco" font-size="10.00">+ ~ITimeRegularGrid3DComponent</text>
<text text-anchor="start" x="8" y="-204.185" font-family="Monaco" font-size="10.00">DataItem()</text>
<text text-anchor="start" x="8" y="-190.85" font-family="Monaco" font-size="10.00">+ getValue()</text>
<text text-anchor="start" x="8" y="-177.515" font-family="Monaco" font-size="10.00">+ getValues()</text>
<text text-anchor="start" x="8" y="-164.18" font-family="Monaco" font-size="10.00">+ getValues()</text>
<text text-anchor="start" x="8" y="-150.845" font-family="Monaco" font-size="10.00">+ setValue()</text>
<text text-anchor="start" x="8" y="-137.51" font-family="Monaco" font-size="10.00">+ setValues()</text>
<text text-anchor="start" x="8" y="-124.175" font-family="Monaco" font-size="10.00">+ setValues()</text>
</a>
</g>
</g>
<!-- Node2&#45;&gt;Node1 -->
<g id="edge1" class="edge"><title>Node2&#45;&gt;Node1</title>
<path fill="none" stroke="midnightblue" d="M239.026,-108.742C253.409,-97.9035 267.425,-87.3408 279.977,-77.8812"/>
<polygon fill="none" stroke="midnightblue" points="236.885,-105.974 231.005,-114.787 241.098,-111.564 236.885,-105.974"/>
</g>
<!-- Node3 -->
<g id="node3" class="node"><title>Node3</title>
<g id="a_node3"><a xlink:href="class_hydro_couple_1_1_temporal_1_1_i_time_component_data_item.html" target="_top" xlink:title="ITimeComponentItem is an IComponentItem with a temporal attribute. This class cannot be directly inst...">
<polygon fill="none" stroke="black" points="18.0049,-335.859 18.0049,-453.204 196.031,-453.204 196.031,-335.859 18.0049,-335.859"/>
<text text-anchor="start" x="26.0049" y="-441.204" font-family="Monaco" font-size="10.00">HydroCouple::Temporal</text>
<text text-anchor="middle" x="107.018" y="-427.869" font-family="Monaco" font-size="10.00">::ITimeComponentDataItem</text>
<polyline fill="none" stroke="black" points="18.0049,-418.534 196.031,-418.534 "/>
<text text-anchor="middle" x="107.018" y="-406.534" font-family="Monaco" font-size="10.00"> </text>
<polyline fill="none" stroke="black" points="18.0049,-397.199 196.031,-397.199 "/>
<text text-anchor="start" x="26.0049" y="-385.199" font-family="Monaco" font-size="10.00">+ ~ITimeComponentDataItem()</text>
<text text-anchor="start" x="26.0049" y="-371.864" font-family="Monaco" font-size="10.00">+ times()</text>
<text text-anchor="start" x="26.0049" y="-358.529" font-family="Monaco" font-size="10.00">+ timeSpan()</text>
<text text-anchor="start" x="26.0049" y="-345.194" font-family="Monaco" font-size="10.00">+ timeDimension()</text>
</a>
</g>
</g>
<!-- Node3&#45;&gt;Node2 -->
<g id="edge2" class="edge"><title>Node3&#45;&gt;Node2</title>
<path fill="none" stroke="midnightblue" d="M111.251,-325.678C112.054,-312.807 112.904,-299.193 113.734,-285.877"/>
<polygon fill="none" stroke="midnightblue" points="107.748,-325.622 110.618,-335.821 114.734,-326.058 107.748,-325.622"/>
</g>
<!-- Node9 -->
<g id="node9" class="node"><title>Node9</title>
<g id="a_node9"><a xlink:href="class_hydro_couple_1_1_temporal_1_1_i_time_exchange_item.html" target="_top" xlink:title="The ITimeExchangeItem class.This class cannot be directly instantiated and must be implemented as as ...">
<polygon fill="none" stroke="black" points="256.007,-161.512 256.007,-238.852 404.029,-238.852 404.029,-161.512 256.007,-161.512"/>
<text text-anchor="start" x="264.007" y="-226.852" font-family="Monaco" font-size="10.00">HydroCouple::Temporal</text>
<text text-anchor="middle" x="330.018" y="-213.517" font-family="Monaco" font-size="10.00">::ITimeExchangeItem</text>
<polyline fill="none" stroke="black" points="256.007,-204.182 404.029,-204.182 "/>
<text text-anchor="middle" x="330.018" y="-192.182" font-family="Monaco" font-size="10.00"> </text>
<polyline fill="none" stroke="black" points="256.007,-182.847 404.029,-182.847 "/>
<text text-anchor="start" x="264.007" y="-170.847" font-family="Monaco" font-size="10.00">+ ~ITimeExchangeItem()</text>
</a>
</g>
</g>
<!-- Node3&#45;&gt;Node9 -->
<g id="edge12" class="edge"><title>Node3&#45;&gt;Node9</title>
<path fill="none" stroke="midnightblue" d="M194.461,-329.432C212.228,-315.567 230.517,-300.662 247.018,-286.024 263.512,-271.393 280.718,-254.171 295.159,-239.08"/>
<polygon fill="none" stroke="midnightblue" points="192.102,-326.832 186.342,-335.724 196.39,-332.364 192.102,-326.832"/>
</g>
<!-- Node4 -->
<g id="node4" class="node"><title>Node4</title>
<g id="a_node4"><a xlink:href="class_hydro_couple_1_1_i_component_data_item.html" target="_top" xlink:title="IComponentItem is a fundamental unit of data for a component. ">
<polygon fill="none" stroke="black" points="220.003,-503.539 220.003,-687.559 422.033,-687.559 422.033,-503.539 220.003,-503.539"/>
<text text-anchor="middle" x="321.018" y="-675.559" font-family="Monaco" font-size="10.00">HydroCouple::IComponentDataItem</text>
<polyline fill="none" stroke="black" points="220.003,-666.224 422.033,-666.224 "/>
<text text-anchor="middle" x="321.018" y="-654.224" font-family="Monaco" font-size="10.00"> </text>
<polyline fill="none" stroke="black" points="220.003,-644.889 422.033,-644.889 "/>
<text text-anchor="start" x="228.003" y="-632.889" font-family="Monaco" font-size="10.00">+ ~IComponentDataItem()</text>
<text text-anchor="start" x="228.003" y="-619.554" font-family="Monaco" font-size="10.00">+ modelComponent()</text>
<text text-anchor="start" x="228.003" y="-606.219" font-family="Monaco" font-size="10.00">+ dimensions()</text>
<text text-anchor="start" x="228.003" y="-592.884" font-family="Monaco" font-size="10.00">+ valueDefinition()</text>
<text text-anchor="start" x="228.003" y="-579.549" font-family="Monaco" font-size="10.00">+ getValue()</text>
<text text-anchor="start" x="228.003" y="-566.214" font-family="Monaco" font-size="10.00">+ getValues()</text>
<text text-anchor="start" x="228.003" y="-552.879" font-family="Monaco" font-size="10.00">+ getValues()</text>
<text text-anchor="start" x="228.003" y="-539.544" font-family="Monaco" font-size="10.00">+ setValue()</text>
<text text-anchor="start" x="228.003" y="-526.209" font-family="Monaco" font-size="10.00">+ setValues()</text>
<text text-anchor="start" x="228.003" y="-512.874" font-family="Monaco" font-size="10.00">+ setValues()</text>
</a>
</g>
</g>
<!-- Node4&#45;&gt;Node3 -->
<g id="edge3" class="edge"><title>Node4&#45;&gt;Node3</title>
<path fill="none" stroke="midnightblue" d="M215.762,-496.662C199.774,-481.794 183.735,-466.877 169.071,-453.24"/>
<polygon fill="none" stroke="midnightblue" points="213.393,-499.238 223.099,-503.486 218.16,-494.112 213.393,-499.238"/>
</g>
<!-- Node8 -->
<g id="node8" class="node"><title>Node8</title>
<g id="a_node8"><a xlink:href="class_hydro_couple_1_1_spatial_1_1_i_regular_grid3_d_component_data_item.html" target="_top" xlink:title="An IRegularGrid3DComponentItem represents an IRegularGrid3D IComponentItem. ">
<polygon fill="none" stroke="black" points="214.002,-322.524 214.002,-466.539 428.034,-466.539 428.034,-322.524 214.002,-322.524"/>
<text text-anchor="start" x="222.002" y="-454.539" font-family="Monaco" font-size="10.00">HydroCouple::Spatial</text>
<text text-anchor="middle" x="321.018" y="-441.204" font-family="Monaco" font-size="10.00">::IRegularGrid3DComponentDataItem</text>
<polyline fill="none" stroke="black" points="214.002,-431.869 428.034,-431.869 "/>
<text text-anchor="middle" x="321.018" y="-419.869" font-family="Monaco" font-size="10.00"> </text>
<polyline fill="none" stroke="black" points="214.002,-410.534 428.034,-410.534 "/>
<text text-anchor="start" x="222.002" y="-398.534" font-family="Monaco" font-size="10.00">+ ~IRegularGrid3DComponent</text>
<text text-anchor="start" x="222.002" y="-385.199" font-family="Monaco" font-size="10.00">DataItem()</text>
<text text-anchor="start" x="222.002" y="-371.864" font-family="Monaco" font-size="10.00">+ numXCellsDimension()</text>
<text text-anchor="start" x="222.002" y="-358.529" font-family="Monaco" font-size="10.00">+ numYCellsDimension()</text>
<text text-anchor="start" x="222.002" y="-345.194" font-family="Monaco" font-size="10.00">+ numZCellsDimension()</text>
<text text-anchor="start" x="222.002" y="-331.859" font-family="Monaco" font-size="10.00">+ grid()</text>
</a>
</g>
</g>
<!-- Node4&#45;&gt;Node8 -->
<g id="edge8" class="edge"><title>Node4&#45;&gt;Node8</title>
<path fill="none" stroke="midnightblue" d="M321.018,-493.303C321.018,-484.277 321.018,-475.27 321.018,-466.58"/>
<polygon fill="none" stroke="midnightblue" points="317.518,-493.486 321.018,-503.486 324.518,-493.486 317.518,-493.486"/>
</g>
<!-- Node10 -->
<g id="node10" class="node"><title>Node10</title>
<g id="a_node10"><a xlink:href="class_hydro_couple_1_1_i_exchange_item.html" target="_top" xlink:title="IExchangeItem the base data item the can be exchanged between components at runtime. ">
<polygon fill="none" stroke="black" points="446.005,-362.529 446.005,-426.534 618.031,-426.534 618.031,-362.529 446.005,-362.529"/>
<text text-anchor="middle" x="532.018" y="-414.534" font-family="Monaco" font-size="10.00">HydroCouple::IExchangeItem</text>
<polyline fill="none" stroke="black" points="446.005,-405.199 618.031,-405.199 "/>
<text text-anchor="middle" x="532.018" y="-393.199" font-family="Monaco" font-size="10.00"> </text>
<polyline fill="none" stroke="black" points="446.005,-383.864 618.031,-383.864 "/>
<text text-anchor="start" x="454.005" y="-371.864" font-family="Monaco" font-size="10.00">+ ~IExchangeItem()</text>
</a>
</g>
</g>
<!-- Node4&#45;&gt;Node10 -->
<g id="edge11" class="edge"><title>Node4&#45;&gt;Node10</title>
<path fill="none" stroke="midnightblue" d="M425.133,-496.347C451.998,-471.008 478.982,-445.556 499.117,-426.564"/>
<polygon fill="none" stroke="midnightblue" points="422.437,-494.078 417.564,-503.486 427.24,-499.17 422.437,-494.078"/>
</g>
<!-- Node5 -->
<g id="node5" class="node"><title>Node5</title>
<g id="a_node5"><a xlink:href="class_hydro_couple_1_1_i_identity.html" target="_top" xlink:title="IIdentity interface class defines a method to get the Id of an HydroCouple entity. ">
<polygon fill="none" stroke="black" points="247.007,-724.559 247.007,-801.898 395.029,-801.898 395.029,-724.559 247.007,-724.559"/>
<text text-anchor="middle" x="321.018" y="-789.898" font-family="Monaco" font-size="10.00">HydroCouple::IIdentity</text>
<polyline fill="none" stroke="black" points="247.007,-780.563 395.029,-780.563 "/>
<text text-anchor="middle" x="321.018" y="-768.563" font-family="Monaco" font-size="10.00"> </text>
<polyline fill="none" stroke="black" points="247.007,-759.229 395.029,-759.229 "/>
<text text-anchor="start" x="255.007" y="-747.229" font-family="Monaco" font-size="10.00">+ ~IIdentity()</text>
<text text-anchor="start" x="255.007" y="-733.894" font-family="Monaco" font-size="10.00">+ id()</text>
</a>
</g>
</g>
<!-- Node5&#45;&gt;Node4 -->
<g id="edge4" class="edge"><title>Node5&#45;&gt;Node4</title>
<path fill="none" stroke="midnightblue" d="M321.018,-713.976C321.018,-705.623 321.018,-696.698 321.018,-687.639"/>
<polygon fill="none" stroke="midnightblue" points="317.518,-714.218 321.018,-724.218 324.518,-714.218 317.518,-714.218"/>
</g>
<!-- Node6 -->
<g id="node6" class="node"><title>Node6</title>
<g id="a_node6"><a xlink:href="class_hydro_couple_1_1_i_description.html" target="_top" xlink:title="IDescription interface class provides descriptive information on a HydroCouple object. ">
<polygon fill="none" stroke="black" points="238.006,-838.898 238.006,-956.243 404.03,-956.243 404.03,-838.898 238.006,-838.898"/>
<text text-anchor="middle" x="321.018" y="-944.243" font-family="Monaco" font-size="10.00">HydroCouple::IDescription</text>
<polyline fill="none" stroke="black" points="238.006,-934.908 404.03,-934.908 "/>
<text text-anchor="middle" x="321.018" y="-922.908" font-family="Monaco" font-size="10.00"> </text>
<polyline fill="none" stroke="black" points="238.006,-913.573 404.03,-913.573 "/>
<text text-anchor="start" x="246.006" y="-901.573" font-family="Monaco" font-size="10.00">+ ~IDescription()</text>
<text text-anchor="start" x="246.006" y="-888.238" font-family="Monaco" font-size="10.00">+ caption()</text>
<text text-anchor="start" x="246.006" y="-874.903" font-family="Monaco" font-size="10.00">+ setCaption()</text>
<text text-anchor="start" x="246.006" y="-861.568" font-family="Monaco" font-size="10.00">+ description()</text>
<text text-anchor="start" x="246.006" y="-848.233" font-family="Monaco" font-size="10.00">+ setDescription()</text>
</a>
</g>
</g>
<!-- Node6&#45;&gt;Node5 -->
<g id="edge5" class="edge"><title>Node6&#45;&gt;Node5</title>
<path fill="none" stroke="midnightblue" d="M321.018,-828.333C321.018,-819.294 321.018,-810.306 321.018,-802.046"/>
<polygon fill="none" stroke="midnightblue" points="317.518,-828.524 321.018,-838.524 324.518,-828.524 317.518,-828.524"/>
</g>
<!-- Node7 -->
<g id="node7" class="node"><title>Node7</title>
<g id="a_node7"><a xlink:href="class_hydro_couple_1_1_i_property_changed.html" target="_top" xlink:title="IPropertyChanged interface is used to emit signal/event when a property of an object changes...">
<polygon fill="none" stroke="black" points="226.004,-993.243 226.004,-1057.25 416.032,-1057.25 416.032,-993.243 226.004,-993.243"/>
<text text-anchor="middle" x="321.018" y="-1045.25" font-family="Monaco" font-size="10.00">HydroCouple::IPropertyChanged</text>
<polyline fill="none" stroke="black" points="226.004,-1035.91 416.032,-1035.91 "/>
<text text-anchor="middle" x="321.018" y="-1023.91" font-family="Monaco" font-size="10.00"> </text>
<polyline fill="none" stroke="black" points="226.004,-1014.58 416.032,-1014.58 "/>
<text text-anchor="start" x="234.004" y="-1002.58" font-family="Monaco" font-size="10.00">+ ~IPropertyChanged()</text>
</a>
</g>
</g>
<!-- Node7&#45;&gt;Node6 -->
<g id="edge6" class="edge"><title>Node7&#45;&gt;Node6</title>
<path fill="none" stroke="midnightblue" d="M321.018,-982.923C321.018,-974.538 321.018,-965.571 321.018,-956.729"/>
<polygon fill="none" stroke="midnightblue" points="317.518,-983.18 321.018,-993.18 324.518,-983.18 317.518,-983.18"/>
</g>
<!-- Node8&#45;&gt;Node2 -->
<g id="edge7" class="edge"><title>Node8&#45;&gt;Node2</title>
<path fill="none" stroke="midnightblue" d="M238.938,-315.373C228.651,-305.578 218.093,-295.523 207.71,-285.637"/>
<polygon fill="none" stroke="midnightblue" points="236.719,-318.093 246.375,-322.454 241.546,-313.024 236.719,-318.093"/>
</g>
<!-- Node11 -->
<g id="node11" class="node"><title>Node11</title>
<g id="a_node11"><a xlink:href="class_hydro_couple_1_1_spatial_1_1_i_regular_grid3_d_exhange_item.html" target="_top" xlink:title="An IRegularGrid3DExhangeItem is an IExchangeItem with an IRegularGrid3DComponentItem. ">
<polygon fill="none" stroke="black" points="422.003,-161.512 422.003,-238.852 618.033,-238.852 618.033,-161.512 422.003,-161.512"/>
<text text-anchor="start" x="430.003" y="-226.852" font-family="Monaco" font-size="10.00">HydroCouple::Spatial</text>
<text text-anchor="middle" x="520.018" y="-213.517" font-family="Monaco" font-size="10.00">::IRegularGrid3DExhangeItem</text>
<polyline fill="none" stroke="black" points="422.003,-204.182 618.033,-204.182 "/>
<text text-anchor="middle" x="520.018" y="-192.182" font-family="Monaco" font-size="10.00"> </text>
<polyline fill="none" stroke="black" points="422.003,-182.847 618.033,-182.847 "/>
<text text-anchor="start" x="430.003" y="-170.847" font-family="Monaco" font-size="10.00">+ ~IRegularGrid3DExhangeItem()</text>
</a>
</g>
</g>
<!-- Node8&#45;&gt;Node11 -->
<g id="edge15" class="edge"><title>Node8&#45;&gt;Node11</title>
<path fill="none" stroke="midnightblue" d="M401.805,-315.445C429.052,-289.108 458.242,-260.894 480.799,-239.091"/>
<polygon fill="none" stroke="midnightblue" points="399.311,-312.988 394.553,-322.454 404.176,-318.021 399.311,-312.988"/>
</g>
<!-- Node9&#45;&gt;Node1 -->
<g id="edge9" class="edge"><title>Node9&#45;&gt;Node1</title>
<path fill="none" stroke="midnightblue" d="M330.018,-151.373C330.018,-127.833 330.018,-99.8595 330.018,-77.8583"/>
<polygon fill="none" stroke="midnightblue" points="326.518,-151.498 330.018,-161.498 333.518,-151.498 326.518,-151.498"/>
</g>
<!-- Node10&#45;&gt;Node9 -->
<g id="edge10" class="edge"><title>Node10&#45;&gt;Node9</title>
<path fill="none" stroke="midnightblue" d="M488.824,-355.665C465.977,-335.347 437.637,-309.684 413.018,-286.024 397.418,-271.032 380.652,-254.065 366.301,-239.266"/>
<polygon fill="none" stroke="midnightblue" points="486.545,-358.321 496.349,-362.339 491.19,-353.085 486.545,-358.321"/>
</g>
<!-- Node10&#45;&gt;Node11 -->
<g id="edge14" class="edge"><title>Node10&#45;&gt;Node11</title>
<path fill="none" stroke="midnightblue" d="M529.415,-351.812C527.324,-318.287 524.411,-271.594 522.385,-239.116"/>
<polygon fill="none" stroke="midnightblue" points="525.947,-352.437 530.063,-362.199 532.934,-352.001 525.947,-352.437"/>
</g>
<!-- Node11&#45;&gt;Node1 -->
<g id="edge13" class="edge"><title>Node11&#45;&gt;Node1</title>
<path fill="none" stroke="midnightblue" d="M467.014,-154.823C438.079,-130.607 402.637,-100.945 375.051,-77.8583"/>
<polygon fill="none" stroke="midnightblue" points="465.076,-157.764 474.991,-161.498 469.568,-152.396 465.076,-157.764"/>
</g>
</g>
</svg>
