<?xml version="1.0" encoding="UTF-8" standalone="no"?>
<!DOCTYPE svg PUBLIC "-//W3C//DTD SVG 1.1//EN"
 "http://www.w3.org/Graphics/SVG/1.1/DTD/svg11.dtd">
<!-- Generated by graphviz version 2.38.0 (20140413.2041)
 -->
<!-- Title: HydroCouple::Temporal::ITimeIdBasedArgument Pages: 1 -->
<svg width="508pt" height="1172pt"
 viewBox="0.00 0.00 508.03 1172.43" xmlns="http://www.w3.org/2000/svg" xmlns:xlink="http://www.w3.org/1999/xlink">
<g id="graph0" class="graph" transform="scale(1 1) rotate(0) translate(4 1168.43)">
<title>HydroCouple::Temporal::ITimeIdBasedArgument</title>
<!-- Node1 -->
<g id="node1" class="node"><title>Node1</title>
<polygon fill="#bfbfbf" stroke="black" points="207,-0.5 207,-77.8398 373.024,-77.8398 373.024,-0.5 207,-0.5"/>
<text text-anchor="start" x="215" y="-65.8398" font-family="Monaco" font-size="10.00">HydroCouple::Temporal</text>
<text text-anchor="middle" x="290.012" y="-52.5049" font-family="Monaco" font-size="10.00">::ITimeIdBasedArgument</text>
<polyline fill="none" stroke="black" points="207,-43.1699 373.024,-43.1699 "/>
<text text-anchor="middle" x="290.012" y="-31.1699" font-family="Monaco" font-size="10.00"> </text>
<polyline fill="none" stroke="black" points="207,-21.835 373.024,-21.835 "/>
<text text-anchor="start" x="215" y="-9.83496" font-family="Monaco" font-size="10.00">+ ~ITimeIdBasedArgument()</text>
</g>
<!-- Node2 -->
<g id="node2" class="node"><title>Node2</title>
<g id="a_node2"><a xlink:href="class_hydro_couple_1_1_temporal_1_1_i_time_argument.html" target="_top" xlink:title="The ITimeArgument class. his class cannot be directly instantiated and must be implemented as as an a...">
<polygon fill="none" stroke="black" points="120.002,-188.182 120.002,-265.522 262.022,-265.522 262.022,-188.182 120.002,-188.182"/>
<text text-anchor="start" x="128.002" y="-253.522" font-family="Monaco" font-size="10.00">HydroCouple::Temporal</text>
<text text-anchor="middle" x="191.012" y="-240.187" font-family="Monaco" font-size="10.00">::ITimeArgument</text>
<polyline fill="none" stroke="black" points="120.002,-230.852 262.022,-230.852 "/>
<text text-anchor="middle" x="191.012" y="-218.852" font-family="Monaco" font-size="10.00"> </text>
<polyline fill="none" stroke="black" points="120.002,-209.517 262.022,-209.517 "/>
<text text-anchor="start" x="128.002" y="-197.517" font-family="Monaco" font-size="10.00">+ ~ITimeArgument()</text>
</a>
</g>
</g>
<!-- Node2&#45;&gt;Node1 -->
<g id="edge1" class="edge"><title>Node2&#45;&gt;Node1</title>
<path fill="none" stroke="midnightblue" d="M216.055,-178.883C232.681,-147.699 254.224,-107.293 269.766,-78.1427"/>
<polygon fill="none" stroke="midnightblue" points="212.902,-177.358 211.285,-187.828 219.078,-180.651 212.902,-177.358"/>
</g>
<!-- Node3 -->
<g id="node3" class="node"><title>Node3</title>
<g id="a_node3"><a xlink:href="class_hydro_couple_1_1_i_argument.html" target="_top" xlink:title="IArgument interface class used to set the arguments for components. They can be complex or simple mul...">
<polygon fill="none" stroke="black" points="0,-382.532 0,-566.551 166.024,-566.551 166.024,-382.532 0,-382.532"/>
<text text-anchor="middle" x="83.0122" y="-554.551" font-family="Monaco" font-size="10.00">HydroCouple::IArgument</text>
<polyline fill="none" stroke="black" points="0,-545.216 166.024,-545.216 "/>
<text text-anchor="middle" x="83.0122" y="-533.216" font-family="Monaco" font-size="10.00"> </text>
<polyline fill="none" stroke="black" points="0,-523.881 166.024,-523.881 "/>
<text text-anchor="start" x="8" y="-511.881" font-family="Monaco" font-size="10.00">+ ~IArgument()</text>
<text text-anchor="start" x="8" y="-498.546" font-family="Monaco" font-size="10.00">+ isOptional()</text>
<text text-anchor="start" x="8" y="-485.211" font-family="Monaco" font-size="10.00">+ isReadOnly()</text>
<text text-anchor="start" x="8" y="-471.876" font-family="Monaco" font-size="10.00">+ toString()</text>
<text text-anchor="start" x="8" y="-458.542" font-family="Monaco" font-size="10.00">+ inputFileTypeFilters()</text>
<text text-anchor="start" x="8" y="-445.207" font-family="Monaco" font-size="10.00">+ canReadFromFile()</text>
<text text-anchor="start" x="8" y="-431.872" font-family="Monaco" font-size="10.00">+ canReadFromString()</text>
<text text-anchor="start" x="8" y="-418.537" font-family="Monaco" font-size="10.00">+ currentArgumentIOType()</text>
<text text-anchor="start" x="8" y="-405.202" font-family="Monaco" font-size="10.00">+ readValues()</text>
<text text-anchor="start" x="8" y="-391.867" font-family="Monaco" font-size="10.00">+ readValues()</text>
</a>
</g>
</g>
<!-- Node3&#45;&gt;Node2 -->
<g id="edge2" class="edge"><title>Node3&#45;&gt;Node2</title>
<path fill="none" stroke="midnightblue" d="M127.274,-372.85C143.919,-334.985 161.84,-294.215 174.427,-265.581"/>
<polygon fill="none" stroke="midnightblue" points="123.894,-371.842 123.074,-382.405 130.302,-374.659 123.894,-371.842"/>
</g>
<!-- Node4 -->
<g id="node4" class="node"><title>Node4</title>
<g id="a_node4"><a xlink:href="class_hydro_couple_1_1_i_component_data_item.html" target="_top" xlink:title="IComponentItem is a fundamental unit of data for a component. ">
<polygon fill="none" stroke="black" points="171.997,-610.219 171.997,-794.238 374.027,-794.238 374.027,-610.219 171.997,-610.219"/>
<text text-anchor="middle" x="273.012" y="-782.238" font-family="Monaco" font-size="10.00">HydroCouple::IComponentDataItem</text>
<polyline fill="none" stroke="black" points="171.997,-772.903 374.027,-772.903 "/>
<text text-anchor="middle" x="273.012" y="-760.903" font-family="Monaco" font-size="10.00"> </text>
<polyline fill="none" stroke="black" points="171.997,-751.568 374.027,-751.568 "/>
<text text-anchor="start" x="179.997" y="-739.568" font-family="Monaco" font-size="10.00">+ ~IComponentDataItem()</text>
<text text-anchor="start" x="179.997" y="-726.233" font-family="Monaco" font-size="10.00">+ modelComponent()</text>
<text text-anchor="start" x="179.997" y="-712.898" font-family="Monaco" font-size="10.00">+ dimensions()</text>
<text text-anchor="start" x="179.997" y="-699.563" font-family="Monaco" font-size="10.00">+ valueDefinition()</text>
<text text-anchor="start" x="179.997" y="-686.229" font-family="Monaco" font-size="10.00">+ getValue()</text>
<text text-anchor="start" x="179.997" y="-672.894" font-family="Monaco" font-size="10.00">+ getValues()</text>
<text text-anchor="start" x="179.997" y="-659.559" font-family="Monaco" font-size="10.00">+ getValues()</text>
<text text-anchor="start" x="179.997" y="-646.224" font-family="Monaco" font-size="10.00">+ setValue()</text>
<text text-anchor="start" x="179.997" y="-632.889" font-family="Monaco" font-size="10.00">+ setValues()</text>
<text text-anchor="start" x="179.997" y="-619.554" font-family="Monaco" font-size="10.00">+ setValues()</text>
</a>
</g>
</g>
<!-- Node4&#45;&gt;Node3 -->
<g id="edge3" class="edge"><title>Node4&#45;&gt;Node3</title>
<path fill="none" stroke="midnightblue" d="M189.749,-602.326C179.766,-590.468 169.607,-578.401 159.722,-566.66"/>
<polygon fill="none" stroke="midnightblue" points="187.162,-604.688 196.28,-610.084 192.517,-600.179 187.162,-604.688"/>
</g>
<!-- Node8 -->
<g id="node8" class="node"><title>Node8</title>
<g id="a_node8"><a xlink:href="class_hydro_couple_1_1_temporal_1_1_i_time_component_data_item.html" target="_top" xlink:title="ITimeComponentItem is an IComponentItem with a temporal attribute. This class cannot be directly inst...">
<polygon fill="none" stroke="black" points="183.999,-375.864 183.999,-573.219 362.025,-573.219 362.025,-375.864 183.999,-375.864"/>
<text text-anchor="start" x="191.999" y="-561.219" font-family="Monaco" font-size="10.00">HydroCouple::Temporal</text>
<text text-anchor="middle" x="273.012" y="-547.884" font-family="Monaco" font-size="10.00">::ITimeComponentDataItem</text>
<polyline fill="none" stroke="black" points="183.999,-538.549 362.025,-538.549 "/>
<text text-anchor="middle" x="273.012" y="-526.549" font-family="Monaco" font-size="10.00"> </text>
<polyline fill="none" stroke="black" points="183.999,-517.214 362.025,-517.214 "/>
<text text-anchor="start" x="191.999" y="-505.214" font-family="Monaco" font-size="10.00">+ ~ITimeComponentDataItem()</text>
<text text-anchor="start" x="191.999" y="-491.879" font-family="Monaco" font-size="10.00">+ times()</text>
<text text-anchor="start" x="191.999" y="-478.544" font-family="Monaco" font-size="10.00">+ timeSpan()</text>
<text text-anchor="start" x="191.999" y="-465.209" font-family="Monaco" font-size="10.00">+ timeDimension()</text>
<text text-anchor="start" x="191.999" y="-451.874" font-family="Monaco" font-size="10.00">+ getValue()</text>
<text text-anchor="start" x="191.999" y="-438.539" font-family="Monaco" font-size="10.00">+ getValues()</text>
<text text-anchor="start" x="191.999" y="-425.204" font-family="Monaco" font-size="10.00">+ getValues()</text>
<text text-anchor="start" x="191.999" y="-411.869" font-family="Monaco" font-size="10.00">+ setValue()</text>
<text text-anchor="start" x="191.999" y="-398.534" font-family="Monaco" font-size="10.00">+ setValues()</text>
<text text-anchor="start" x="191.999" y="-385.199" font-family="Monaco" font-size="10.00">+ setValues()</text>
</a>
</g>
</g>
<!-- Node4&#45;&gt;Node8 -->
<g id="edge8" class="edge"><title>Node4&#45;&gt;Node8</title>
<path fill="none" stroke="midnightblue" d="M273.012,-600.083C273.012,-591.177 273.012,-582.174 273.012,-573.297"/>
<polygon fill="none" stroke="midnightblue" points="269.512,-600.083 273.012,-610.084 276.512,-600.084 269.512,-600.083"/>
</g>
<!-- Node9 -->
<g id="node9" class="node"><title>Node9</title>
<g id="a_node9"><a xlink:href="class_hydro_couple_1_1_temporal_1_1_i_time_id_based_component_data_item.html" target="_top" xlink:title="The ITimeIdBasedComponentDataItem class. ">
<polygon fill="none" stroke="black" points="279.996,-114.84 279.996,-338.864 500.029,-338.864 500.029,-114.84 279.996,-114.84"/>
<text text-anchor="start" x="287.996" y="-326.864" font-family="Monaco" font-size="10.00">HydroCouple::Temporal</text>
<text text-anchor="middle" x="390.012" y="-313.529" font-family="Monaco" font-size="10.00">::ITimeIdBasedComponentDataItem</text>
<polyline fill="none" stroke="black" points="279.996,-304.194 500.029,-304.194 "/>
<text text-anchor="middle" x="390.012" y="-292.194" font-family="Monaco" font-size="10.00"> </text>
<polyline fill="none" stroke="black" points="279.996,-282.859 500.029,-282.859 "/>
<text text-anchor="start" x="287.996" y="-270.859" font-family="Monaco" font-size="10.00">+ ~ITimeIdBasedComponentDataItem()</text>
<text text-anchor="start" x="287.996" y="-257.524" font-family="Monaco" font-size="10.00">+ times()</text>
<text text-anchor="start" x="287.996" y="-244.189" font-family="Monaco" font-size="10.00">+ timeSpan()</text>
<text text-anchor="start" x="287.996" y="-230.854" font-family="Monaco" font-size="10.00">+ timeDimension()</text>
<text text-anchor="start" x="287.996" y="-217.52" font-family="Monaco" font-size="10.00">+ identifiers()</text>
<text text-anchor="start" x="287.996" y="-204.185" font-family="Monaco" font-size="10.00">+ identifierDimension()</text>
<text text-anchor="start" x="287.996" y="-190.85" font-family="Monaco" font-size="10.00">+ getValue()</text>
<text text-anchor="start" x="287.996" y="-177.515" font-family="Monaco" font-size="10.00">+ getValues()</text>
<text text-anchor="start" x="287.996" y="-164.18" font-family="Monaco" font-size="10.00">+ getValues()</text>
<text text-anchor="start" x="287.996" y="-150.845" font-family="Monaco" font-size="10.00">+ setValue()</text>
<text text-anchor="start" x="287.996" y="-137.51" font-family="Monaco" font-size="10.00">+ setValues()</text>
<text text-anchor="start" x="287.996" y="-124.175" font-family="Monaco" font-size="10.00">+ setValues()</text>
</a>
</g>
</g>
<!-- Node4&#45;&gt;Node9 -->
<g id="edge10" class="edge"><title>Node4&#45;&gt;Node9</title>
<path fill="none" stroke="midnightblue" d="M358.159,-601.172C363.161,-592.244 367.554,-583.045 371.012,-573.719 398.767,-498.867 402.846,-408.642 400.34,-339.114"/>
<polygon fill="none" stroke="midnightblue" points="355.018,-599.61 352.967,-610.004 361.052,-603.157 355.018,-599.61"/>
</g>
<!-- Node5 -->
<g id="node5" class="node"><title>Node5</title>
<g id="a_node5"><a xlink:href="class_hydro_couple_1_1_i_identity.html" target="_top" xlink:title="IIdentity interface class defines a method to get the Id of an HydroCouple entity. ">
<polygon fill="none" stroke="black" points="199.001,-831.238 199.001,-908.578 347.023,-908.578 347.023,-831.238 199.001,-831.238"/>
<text text-anchor="middle" x="273.012" y="-896.578" font-family="Monaco" font-size="10.00">HydroCouple::IIdentity</text>
<polyline fill="none" stroke="black" points="199.001,-887.243 347.023,-887.243 "/>
<text text-anchor="middle" x="273.012" y="-875.243" font-family="Monaco" font-size="10.00"> </text>
<polyline fill="none" stroke="black" points="199.001,-865.908 347.023,-865.908 "/>
<text text-anchor="start" x="207.001" y="-853.908" font-family="Monaco" font-size="10.00">+ ~IIdentity()</text>
<text text-anchor="start" x="207.001" y="-840.573" font-family="Monaco" font-size="10.00">+ id()</text>
</a>
</g>
</g>
<!-- Node5&#45;&gt;Node4 -->
<g id="edge4" class="edge"><title>Node5&#45;&gt;Node4</title>
<path fill="none" stroke="midnightblue" d="M273.012,-820.656C273.012,-812.303 273.012,-803.377 273.012,-794.319"/>
<polygon fill="none" stroke="midnightblue" points="269.512,-820.898 273.012,-830.898 276.512,-820.898 269.512,-820.898"/>
</g>
<!-- Node6 -->
<g id="node6" class="node"><title>Node6</title>
<g id="a_node6"><a xlink:href="class_hydro_couple_1_1_i_description.html" target="_top" xlink:title="IDescription interface class provides descriptive information on a HydroCouple object. ">
<polygon fill="none" stroke="black" points="190,-945.578 190,-1062.92 356.024,-1062.92 356.024,-945.578 190,-945.578"/>
<text text-anchor="middle" x="273.012" y="-1050.92" font-family="Monaco" font-size="10.00">HydroCouple::IDescription</text>
<polyline fill="none" stroke="black" points="190,-1041.59 356.024,-1041.59 "/>
<text text-anchor="middle" x="273.012" y="-1029.59" font-family="Monaco" font-size="10.00"> </text>
<polyline fill="none" stroke="black" points="190,-1020.25 356.024,-1020.25 "/>
<text text-anchor="start" x="198" y="-1008.25" font-family="Monaco" font-size="10.00">+ ~IDescription()</text>
<text text-anchor="start" x="198" y="-994.918" font-family="Monaco" font-size="10.00">+ caption()</text>
<text text-anchor="start" x="198" y="-981.583" font-family="Monaco" font-size="10.00">+ setCaption()</text>
<text text-anchor="start" x="198" y="-968.248" font-family="Monaco" font-size="10.00">+ description()</text>
<text text-anchor="start" x="198" y="-954.913" font-family="Monaco" font-size="10.00">+ setDescription()</text>
</a>
</g>
</g>
<!-- Node6&#45;&gt;Node5 -->
<g id="edge5" class="edge"><title>Node6&#45;&gt;Node5</title>
<path fill="none" stroke="midnightblue" d="M273.012,-935.012C273.012,-925.973 273.012,-916.986 273.012,-908.726"/>
<polygon fill="none" stroke="midnightblue" points="269.512,-935.203 273.012,-945.203 276.512,-935.203 269.512,-935.203"/>
</g>
<!-- Node7 -->
<g id="node7" class="node"><title>Node7</title>
<g id="a_node7"><a xlink:href="class_hydro_couple_1_1_i_property_changed.html" target="_top" xlink:title="IPropertyChanged interface is used to emit signal/event when a property of an object changes...">
<polygon fill="none" stroke="black" points="177.998,-1099.92 177.998,-1163.93 368.026,-1163.93 368.026,-1099.92 177.998,-1099.92"/>
<text text-anchor="middle" x="273.012" y="-1151.93" font-family="Monaco" font-size="10.00">HydroCouple::IPropertyChanged</text>
<polyline fill="none" stroke="black" points="177.998,-1142.59 368.026,-1142.59 "/>
<text text-anchor="middle" x="273.012" y="-1130.59" font-family="Monaco" font-size="10.00"> </text>
<polyline fill="none" stroke="black" points="177.998,-1121.26 368.026,-1121.26 "/>
<text text-anchor="start" x="185.998" y="-1109.26" font-family="Monaco" font-size="10.00">+ ~IPropertyChanged()</text>
</a>
</g>
</g>
<!-- Node7&#45;&gt;Node6 -->
<g id="edge6" class="edge"><title>Node7&#45;&gt;Node6</title>
<path fill="none" stroke="midnightblue" d="M273.012,-1089.6C273.012,-1081.22 273.012,-1072.25 273.012,-1063.41"/>
<polygon fill="none" stroke="midnightblue" points="269.512,-1089.86 273.012,-1099.86 276.512,-1089.86 269.512,-1089.86"/>
</g>
<!-- Node8&#45;&gt;Node2 -->
<g id="edge7" class="edge"><title>Node8&#45;&gt;Node2</title>
<path fill="none" stroke="midnightblue" d="M237.171,-366.154C225.182,-330.233 212.595,-292.52 203.599,-265.565"/>
<polygon fill="none" stroke="midnightblue" points="233.882,-367.355 240.368,-375.733 240.522,-365.139 233.882,-367.355"/>
</g>
<!-- Node9&#45;&gt;Node1 -->
<g id="edge9" class="edge"><title>Node9&#45;&gt;Node1</title>
<path fill="none" stroke="midnightblue" d="M325.353,-105.791C320.004,-95.8589 314.9,-86.3825 310.318,-77.8748"/>
<polygon fill="none" stroke="midnightblue" points="322.287,-107.479 330.11,-114.624 328.45,-104.16 322.287,-107.479"/>
</g>
</g>
</svg>
