<?xml version="1.0" encoding="UTF-8" standalone="no"?>
<!DOCTYPE svg PUBLIC "-//W3C//DTD SVG 1.1//EN"
 "http://www.w3.org/Graphics/SVG/1.1/DTD/svg11.dtd">
<!-- Generated by graphviz version 2.38.0 (20140413.2041)
 -->
<!-- Title: HydroCouple::Spatial::I3DRegularGridArgument Pages: 1 -->
<!--zoomable 1012 -->
<svg id="main" version="1.1" xmlns="http://www.w3.org/2000/svg" xmlns:xlink="http://www.w3.org/1999/xlink" xml:space="preserve" onload="init(evt)">
<style type="text/css"><![CDATA[
.edge:hover path { stroke: red; }
.edge:hover polygon { stroke: red; fill: red; }
]]></style>
<script type="text/javascript"><![CDATA[
var edges = document.getElementsByTagName('g');
if (edges && edges.length) {
  for (var i=0;i<edges.length;i++) {
    if (edges[i].id.substr(0,4)=='edge') {
      edges[i].setAttribute('class','edge');
    }
  }
}
]]></script>
        <defs>
                <circle id="rim" cx="0" cy="0" r="7"/>
                <circle id="rim2" cx="0" cy="0" r="3.5"/>
                <g id="zoomPlus">
                        <use xlink:href="#rim" fill="#404040">
                                <set attributeName="fill" to="#808080" begin="zoomplus.mouseover" end="zoomplus.mouseout"/>
                        </use>
                        <path d="M-4,0h8M0,-4v8" fill="none" stroke="white" stroke-width="1.5" pointer-events="none"/>
                </g>
                <g id="zoomMin">
                        <use xlink:href="#rim" fill="#404040">
                                <set attributeName="fill" to="#808080" begin="zoomminus.mouseover" end="zoomminus.mouseout"/>
                        </use>
                        <path d="M-4,0h8" fill="none" stroke="white" stroke-width="1.5" pointer-events="none"/>
                </g>
                <g id="dirArrow">
                        <path fill="none" stroke="white" stroke-width="1.5" d="M0,-3.0v7 M-2.5,-0.5L0,-3.0L2.5,-0.5"/>
                </g>
               <g id="resetDef">
                       <use xlink:href="#rim2" fill="#404040">
                               <set attributeName="fill" to="#808080" begin="reset.mouseover" end="reset.mouseout"/>
                       </use>
               </g>
        </defs>

<script type="text/javascript">
var viewWidth = 382;
var viewHeight = 1012;
var sectionId = 'dynsection-1';
</script>
<script xlink:href="svgpan.js"/>
<svg id="graph" class="graph">
<g id="viewport">
<title>HydroCouple::Spatial::I3DRegularGridArgument</title>
<polygon fill="white" stroke="none" points="-4,4 -4,-1008.41 378.026,-1008.41 378.026,4 -4,4"/>
<!-- Node1 -->
<g id="node1" class="node"><title>Node1</title>
<polygon fill="#bfbfbf" stroke="black" points="82.9976,-0.5 82.9976,-91.1748 261.024,-91.1748 261.024,-0.5 82.9976,-0.5"/>
<text text-anchor="start" x="90.9976" y="-79.1748" font-family="Monaco" font-size="10.00">HydroCouple::Spatial</text>
<text text-anchor="middle" x="172.011" y="-65.8398" font-family="Monaco" font-size="10.00">::I3DRegularGridArgument</text>
<polyline fill="none" stroke="black" points="82.9976,-56.5049 261.024,-56.5049 "/>
<text text-anchor="middle" x="172.011" y="-44.5049" font-family="Monaco" font-size="10.00"> </text>
<polyline fill="none" stroke="black" points="82.9976,-35.1699 261.024,-35.1699 "/>
<text text-anchor="start" x="90.9976" y="-23.1699" font-family="Monaco" font-size="10.00">+ ~I3DRegularGridArgument()</text>
<text text-anchor="start" x="90.9976" y="-9.83496" font-family="Monaco" font-size="10.00">+ setGrid()</text>
</g>
<!-- Node2 -->
<g id="node2" class="node"><title>Node2</title>
<g id="a_node2"><a xlink:href="class_hydro_couple_1_1_i_argument.html" target="_top" xlink:title="IArgument interface class used to set the arguments for components. They can be complex or simple mul...">
<polygon fill="white" stroke="black" points="0,-128.175 0,-325.529 148.021,-325.529 148.021,-128.175 0,-128.175"/>
<text text-anchor="middle" x="74.0107" y="-313.529" font-family="Monaco" font-size="10.00">HydroCouple::IArgument</text>
<polyline fill="none" stroke="black" points="0,-304.194 148.021,-304.194 "/>
<text text-anchor="middle" x="74.0107" y="-292.194" font-family="Monaco" font-size="10.00"> </text>
<polyline fill="none" stroke="black" points="0,-282.859 148.021,-282.859 "/>
<text text-anchor="start" x="8" y="-270.859" font-family="Monaco" font-size="10.00">+ ~IArgument()</text>
<text text-anchor="start" x="8" y="-257.524" font-family="Monaco" font-size="10.00">+ isOptional()</text>
<text text-anchor="start" x="8" y="-244.189" font-family="Monaco" font-size="10.00">+ isReadOnly()</text>
<text text-anchor="start" x="8" y="-230.854" font-family="Monaco" font-size="10.00">+ clone()</text>
<text text-anchor="start" x="8" y="-217.52" font-family="Monaco" font-size="10.00">+ valueSets()</text>
<text text-anchor="start" x="8" y="-204.185" font-family="Monaco" font-size="10.00">+ toString()</text>
<text text-anchor="start" x="8" y="-190.85" font-family="Monaco" font-size="10.00">+ fileExtensions()</text>
<text text-anchor="start" x="8" y="-177.515" font-family="Monaco" font-size="10.00">+ canReadFromFile()</text>
<text text-anchor="start" x="8" y="-164.18" font-family="Monaco" font-size="10.00">+ canReadFromString()</text>
<text text-anchor="start" x="8" y="-150.845" font-family="Monaco" font-size="10.00">+ readValues()</text>
<text text-anchor="start" x="8" y="-137.51" font-family="Monaco" font-size="10.00">+ readValues()</text>
</a>
</g>
</g>
<!-- Node2&#45;&gt;Node1 -->
<g id="edge1" class="edge"><title>Node2&#45;&gt;Node1</title>
<path fill="none" stroke="midnightblue" d="M132.472,-119.062C137.74,-109.439 142.857,-100.092 147.566,-91.491"/>
<polygon fill="none" stroke="midnightblue" points="129.33,-117.512 127.599,-127.964 135.471,-120.873 129.33,-117.512"/>
</g>
<!-- Node3 -->
<g id="node3" class="node"><title>Node3</title>
<g id="a_node3"><a xlink:href="class_hydro_couple_1_1_i_component_item.html" target="_top" xlink:title="IComponentItem is a fundamental unit of data for a component. ">
<polygon fill="white" stroke="black" points="66.9976,-543.544 66.9976,-634.219 245.024,-634.219 245.024,-543.544 66.9976,-543.544"/>
<text text-anchor="middle" x="156.011" y="-622.219" font-family="Monaco" font-size="10.00">HydroCouple::IComponentItem</text>
<polyline fill="none" stroke="black" points="66.9976,-612.884 245.024,-612.884 "/>
<text text-anchor="middle" x="156.011" y="-600.884" font-family="Monaco" font-size="10.00"> </text>
<polyline fill="none" stroke="black" points="66.9976,-591.549 245.024,-591.549 "/>
<text text-anchor="start" x="74.9976" y="-579.549" font-family="Monaco" font-size="10.00">+ ~IComponentItem()</text>
<text text-anchor="start" x="74.9976" y="-566.214" font-family="Monaco" font-size="10.00">+ modelComponent()</text>
<text text-anchor="start" x="74.9976" y="-552.879" font-family="Monaco" font-size="10.00">+ dimensions()</text>
</a>
</g>
</g>
<!-- Node3&#45;&gt;Node2 -->
<g id="edge2" class="edge"><title>Node3&#45;&gt;Node2</title>
<path fill="none" stroke="midnightblue" d="M143.624,-533.497C131.121,-478.601 111.538,-392.618 96.3226,-325.815"/>
<polygon fill="none" stroke="midnightblue" points="140.24,-534.401 145.874,-543.374 147.065,-532.846 140.24,-534.401"/>
</g>
<!-- Node8 -->
<g id="node8" class="node"><title>Node8</title>
<g id="a_node8"><a xlink:href="class_hydro_couple_1_1_spatial_1_1_i2_d_regular_grid_component_item.html" target="_top" xlink:title="An I2DRegularGridComponentItem represents an I2DRegularGrid IComponentItem. ">
<polygon fill="white" stroke="black" points="149.995,-362.529 149.995,-506.544 358.026,-506.544 358.026,-362.529 149.995,-362.529"/>
<text text-anchor="start" x="157.995" y="-494.544" font-family="Monaco" font-size="10.00">HydroCouple::Spatial</text>
<text text-anchor="middle" x="254.011" y="-481.209" font-family="Monaco" font-size="10.00">::I2DRegularGridComponentItem</text>
<polyline fill="none" stroke="black" points="149.995,-471.874 358.026,-471.874 "/>
<text text-anchor="middle" x="254.011" y="-459.874" font-family="Monaco" font-size="10.00"> </text>
<polyline fill="none" stroke="black" points="149.995,-450.539 358.026,-450.539 "/>
<text text-anchor="start" x="157.995" y="-438.539" font-family="Monaco" font-size="10.00">+ ~I2DRegularGridComponentItem()</text>
<text text-anchor="start" x="157.995" y="-425.204" font-family="Monaco" font-size="10.00">+ numXNodesDimension()</text>
<text text-anchor="start" x="157.995" y="-411.869" font-family="Monaco" font-size="10.00">+ numYNodesDimension()</text>
<text text-anchor="start" x="157.995" y="-398.534" font-family="Monaco" font-size="10.00">+ numXCellsDimension()</text>
<text text-anchor="start" x="157.995" y="-385.199" font-family="Monaco" font-size="10.00">+ numYCellsDimension()</text>
<text text-anchor="start" x="157.995" y="-371.864" font-family="Monaco" font-size="10.00">+ grid()</text>
</a>
</g>
</g>
<!-- Node3&#45;&gt;Node8 -->
<g id="edge8" class="edge"><title>Node3&#45;&gt;Node8</title>
<path fill="none" stroke="midnightblue" d="M190.118,-534.861C195.965,-525.771 202.125,-516.196 208.218,-506.723"/>
<polygon fill="none" stroke="midnightblue" points="187.086,-533.104 184.62,-543.407 192.974,-536.891 187.086,-533.104"/>
</g>
<!-- Node4 -->
<g id="node4" class="node"><title>Node4</title>
<g id="a_node4"><a xlink:href="class_hydro_couple_1_1_i_identity.html" target="_top" xlink:title="IIdentity interface class defines a method to get the Id of an HydroCouple entity. ">
<polygon fill="white" stroke="black" points="82,-671.219 82,-748.559 230.021,-748.559 230.021,-671.219 82,-671.219"/>
<text text-anchor="middle" x="156.011" y="-736.559" font-family="Monaco" font-size="10.00">HydroCouple::IIdentity</text>
<polyline fill="none" stroke="black" points="82,-727.224 230.021,-727.224 "/>
<text text-anchor="middle" x="156.011" y="-715.224" font-family="Monaco" font-size="10.00"> </text>
<polyline fill="none" stroke="black" points="82,-705.889 230.021,-705.889 "/>
<text text-anchor="start" x="90" y="-693.889" font-family="Monaco" font-size="10.00">+ ~IIdentity()</text>
<text text-anchor="start" x="90" y="-680.554" font-family="Monaco" font-size="10.00">+ id()</text>
</a>
</g>
</g>
<!-- Node4&#45;&gt;Node3 -->
<g id="edge3" class="edge"><title>Node4&#45;&gt;Node3</title>
<path fill="none" stroke="midnightblue" d="M156.011,-660.899C156.011,-652.2 156.011,-643.161 156.011,-634.562"/>
<polygon fill="none" stroke="midnightblue" points="152.511,-660.907 156.011,-670.907 159.511,-660.907 152.511,-660.907"/>
</g>
<!-- Node5 -->
<g id="node5" class="node"><title>Node5</title>
<g id="a_node5"><a xlink:href="class_hydro_couple_1_1_i_description.html" target="_top" xlink:title="IDescription interface class provides descriptive information on a HydroCouple object. ">
<polygon fill="white" stroke="black" points="72.9985,-785.559 72.9985,-902.903 239.023,-902.903 239.023,-785.559 72.9985,-785.559"/>
<text text-anchor="middle" x="156.011" y="-890.903" font-family="Monaco" font-size="10.00">HydroCouple::IDescription</text>
<polyline fill="none" stroke="black" points="72.9985,-881.568 239.023,-881.568 "/>
<text text-anchor="middle" x="156.011" y="-869.568" font-family="Monaco" font-size="10.00"> </text>
<polyline fill="none" stroke="black" points="72.9985,-860.233 239.023,-860.233 "/>
<text text-anchor="start" x="80.9985" y="-848.233" font-family="Monaco" font-size="10.00">+ ~IDescription()</text>
<text text-anchor="start" x="80.9985" y="-834.898" font-family="Monaco" font-size="10.00">+ getCaption()</text>
<text text-anchor="start" x="80.9985" y="-821.563" font-family="Monaco" font-size="10.00">+ setCaption()</text>
<text text-anchor="start" x="80.9985" y="-808.229" font-family="Monaco" font-size="10.00">+ getDescription()</text>
<text text-anchor="start" x="80.9985" y="-794.894" font-family="Monaco" font-size="10.00">+ setDescription()</text>
</a>
</g>
</g>
<!-- Node5&#45;&gt;Node4 -->
<g id="edge4" class="edge"><title>Node5&#45;&gt;Node4</title>
<path fill="none" stroke="midnightblue" d="M156.011,-774.993C156.011,-765.954 156.011,-756.966 156.011,-748.706"/>
<polygon fill="none" stroke="midnightblue" points="152.511,-775.184 156.011,-785.184 159.511,-775.184 152.511,-775.184"/>
</g>
<!-- Node6 -->
<g id="node6" class="node"><title>Node6</title>
<g id="a_node6"><a xlink:href="class_hydro_couple_1_1_i_property_changed.html" target="_top" xlink:title="IPropertyChanged interface is used to emit signal/event when a property of an object changes...">
<polygon fill="white" stroke="black" points="60.9966,-939.903 60.9966,-1003.91 251.025,-1003.91 251.025,-939.903 60.9966,-939.903"/>
<text text-anchor="middle" x="156.011" y="-991.908" font-family="Monaco" font-size="10.00">HydroCouple::IPropertyChanged</text>
<polyline fill="none" stroke="black" points="60.9966,-982.573 251.025,-982.573 "/>
<text text-anchor="middle" x="156.011" y="-970.573" font-family="Monaco" font-size="10.00"> </text>
<polyline fill="none" stroke="black" points="60.9966,-961.238 251.025,-961.238 "/>
<text text-anchor="start" x="68.9966" y="-949.238" font-family="Monaco" font-size="10.00">+ ~IPropertyChanged()</text>
</a>
</g>
</g>
<!-- Node6&#45;&gt;Node5 -->
<g id="edge5" class="edge"><title>Node6&#45;&gt;Node5</title>
<path fill="none" stroke="midnightblue" d="M156.011,-929.583C156.011,-921.198 156.011,-912.231 156.011,-903.389"/>
<polygon fill="none" stroke="midnightblue" points="152.511,-929.84 156.011,-939.84 159.511,-929.84 152.511,-929.84"/>
</g>
<!-- Node7 -->
<g id="node7" class="node"><title>Node7</title>
<g id="a_node7"><a xlink:href="class_hydro_couple_1_1_spatial_1_1_i3_d_regular_grid_component_item.html" target="_top" xlink:title="An I3DRegularGridComponentItem represents an I3DRegularGrid IComponentItem. ">
<polygon fill="white" stroke="black" points="165.995,-168.18 165.995,-285.524 374.026,-285.524 374.026,-168.18 165.995,-168.18"/>
<text text-anchor="start" x="173.995" y="-273.524" font-family="Monaco" font-size="10.00">HydroCouple::Spatial</text>
<text text-anchor="middle" x="270.011" y="-260.189" font-family="Monaco" font-size="10.00">::I3DRegularGridComponentItem</text>
<polyline fill="none" stroke="black" points="165.995,-250.854 374.026,-250.854 "/>
<text text-anchor="middle" x="270.011" y="-238.854" font-family="Monaco" font-size="10.00"> </text>
<polyline fill="none" stroke="black" points="165.995,-229.52 374.026,-229.52 "/>
<text text-anchor="start" x="173.995" y="-217.52" font-family="Monaco" font-size="10.00">+ ~I2DRegularGridComponentItem()</text>
<text text-anchor="start" x="173.995" y="-204.185" font-family="Monaco" font-size="10.00">+ numZNodesDimension()</text>
<text text-anchor="start" x="173.995" y="-190.85" font-family="Monaco" font-size="10.00">+ numZCellsDimension()</text>
<text text-anchor="start" x="173.995" y="-177.515" font-family="Monaco" font-size="10.00">+ grid()</text>
</a>
</g>
</g>
<!-- Node7&#45;&gt;Node1 -->
<g id="edge6" class="edge"><title>Node7&#45;&gt;Node1</title>
<path fill="none" stroke="midnightblue" d="M233.343,-158.872C220.997,-136.319 207.533,-111.725 196.374,-91.3407"/>
<polygon fill="none" stroke="midnightblue" points="230.321,-160.64 238.193,-167.731 236.461,-157.279 230.321,-160.64"/>
</g>
<!-- Node8&#45;&gt;Node7 -->
<g id="edge7" class="edge"><title>Node8&#45;&gt;Node7</title>
<path fill="none" stroke="midnightblue" d="M260.327,-352.338C262.061,-330.048 263.905,-306.338 265.514,-285.656"/>
<polygon fill="none" stroke="midnightblue" points="256.826,-352.222 259.539,-362.464 263.805,-352.765 256.826,-352.222"/>
</g>
</g>
</svg>
        <g id="navigator" transform="translate(0 0)" fill="#404254">
                <rect fill="#f2f5e9" fill-opacity="0.5" stroke="#606060" stroke-width=".5" x="0" y="0" width="60" height="60"/>
                <use id="zoomplus" xlink:href="#zoomPlus" x="17" y="9" onmousedown="handleZoom(evt,'in')"/>
                <use id="zoomminus" xlink:href="#zoomMin" x="42" y="9" onmousedown="handleZoom(evt,'out')"/>
                <use id="reset" xlink:href="#resetDef" x="30" y="36" onmousedown="handleReset()"/>
                <g id="arrowUp" xlink:href="#dirArrow" transform="translate(30 24)" onmousedown="handlePan(0,-1)">
                  <use xlink:href="#rim" fill="#404040">
                        <set attributeName="fill" to="#808080" begin="arrowUp.mouseover" end="arrowUp.mouseout"/>
                  </use>
                  <path fill="none" stroke="white" stroke-width="1.5" d="M0,-3.0v7 M-2.5,-0.5L0,-3.0L2.5,-0.5"/>
                </g>
                <g id="arrowRight" xlink:href="#dirArrow" transform="rotate(90) translate(36 -43)" onmousedown="handlePan(1,0)">
                  <use xlink:href="#rim" fill="#404040">
                        <set attributeName="fill" to="#808080" begin="arrowRight.mouseover" end="arrowRight.mouseout"/>
                  </use>
                  <path fill="none" stroke="white" stroke-width="1.5" d="M0,-3.0v7 M-2.5,-0.5L0,-3.0L2.5,-0.5"/>
                </g>
                <g id="arrowDown" xlink:href="#dirArrow" transform="rotate(180) translate(-30 -48)" onmousedown="handlePan(0,1)">
                  <use xlink:href="#rim" fill="#404040">
                        <set attributeName="fill" to="#808080" begin="arrowDown.mouseover" end="arrowDown.mouseout"/>
                  </use>
                  <path fill="none" stroke="white" stroke-width="1.5" d="M0,-3.0v7 M-2.5,-0.5L0,-3.0L2.5,-0.5"/>
                </g>
                <g id="arrowLeft" xlink:href="#dirArrow" transform="rotate(270) translate(-36 17)" onmousedown="handlePan(-1,0)">
                  <use xlink:href="#rim" fill="#404040">
                        <set attributeName="fill" to="#808080" begin="arrowLeft.mouseover" end="arrowLeft.mouseout"/>
                  </use>
                  <path fill="none" stroke="white" stroke-width="1.5" d="M0,-3.0v7 M-2.5,-0.5L0,-3.0L2.5,-0.5"/>
                </g>
        </g>
        <svg viewBox="0 0 15 15" width="100%" height="30px" preserveAspectRatio="xMaxYMin meet">
         <g id="arrow_out" transform="scale(0.3 0.3)">
          <a xlink:href="class_hydro_couple_1_1_spatial_1_1_i3_d_regular_grid_argument__coll__graph_org.svg" target="_base">
           <rect id="button" ry="5" rx="5" y="6" x="6" height="38" width="38"
                fill="#f2f5e9" fill-opacity="0.5" stroke="#606060" stroke-width="1.0"/>
           <path id="arrow"
             d="M 11.500037,31.436501 C 11.940474,20.09759 22.043105,11.32322 32.158766,21.979434 L 37.068811,17.246167 C 37.068811,17.246167 37.088388,32 37.088388,32 L 22.160133,31.978069 C 22.160133,31.978069 26.997745,27.140456 26.997745,27.140456 C 18.528582,18.264221 13.291696,25.230495 11.500037,31.436501 z"
             style="fill:#404040;"/>
          </a>
         </g>
        </svg>
</svg>
