<?xml version="1.0" encoding="UTF-8" standalone="no"?>
<!DOCTYPE svg PUBLIC "-//W3C//DTD SVG 1.1//EN"
 "http://www.w3.org/Graphics/SVG/1.1/DTD/svg11.dtd">
<!-- Generated by graphviz version 2.38.0 (20140413.2041)
 -->
<!-- Title: HydroCoupleSDK::ComponentInfo Pages: 1 -->
<svg width="373pt" height="1231pt"
 viewBox="0.00 0.00 373.03 1231.44" xmlns="http://www.w3.org/2000/svg" xmlns:xlink="http://www.w3.org/1999/xlink">
<g id="graph0" class="graph" transform="scale(1 1) rotate(0) translate(4 1227.44)">
<title>HydroCoupleSDK::ComponentInfo</title>
<polygon fill="white" stroke="none" points="-4,4 -4,-1227.44 369.026,-1227.44 369.026,4 -4,4"/>
<!-- Node1 -->
<g id="node1" class="node"><title>Node1</title>
<polygon fill="#bfbfbf" stroke="black" points="86.999,-101.505 86.999,-472.214 277.027,-472.214 277.027,-101.505 86.999,-101.505"/>
<text text-anchor="middle" x="182.013" y="-460.214" font-family="Monaco" font-size="10.00">HydroCoupleSDK::ComponentInfo</text>
<polyline fill="none" stroke="black" points="86.999,-450.879 277.027,-450.879 "/>
<text text-anchor="start" x="94.999" y="-438.879" font-family="Monaco" font-size="10.00"># m_name</text>
<text text-anchor="start" x="94.999" y="-425.544" font-family="Monaco" font-size="10.00"># m_iconFilePath</text>
<text text-anchor="start" x="94.999" y="-412.209" font-family="Monaco" font-size="10.00"># m_vendor</text>
<text text-anchor="start" x="94.999" y="-398.874" font-family="Monaco" font-size="10.00"># m_license</text>
<text text-anchor="start" x="94.999" y="-385.539" font-family="Monaco" font-size="10.00"># m_copyright</text>
<text text-anchor="start" x="94.999" y="-372.204" font-family="Monaco" font-size="10.00"># m_url</text>
<text text-anchor="start" x="94.999" y="-358.869" font-family="Monaco" font-size="10.00"># m_email</text>
<text text-anchor="start" x="94.999" y="-345.534" font-family="Monaco" font-size="10.00"># m_version</text>
<text text-anchor="start" x="94.999" y="-332.199" font-family="Monaco" font-size="10.00"># m_category</text>
<text text-anchor="start" x="94.999" y="-318.864" font-family="Monaco" font-size="10.00"># m_filePath</text>
<text text-anchor="start" x="94.999" y="-305.529" font-family="Monaco" font-size="10.00"># m_publications</text>
<polyline fill="none" stroke="black" points="86.999,-296.194 277.027,-296.194 "/>
<text text-anchor="start" x="94.999" y="-284.194" font-family="Monaco" font-size="10.00">+ ComponentInfo()</text>
<text text-anchor="start" x="94.999" y="-270.859" font-family="Monaco" font-size="10.00">+ ~ComponentInfo()</text>
<text text-anchor="start" x="94.999" y="-257.524" font-family="Monaco" font-size="10.00">+ name()</text>
<text text-anchor="start" x="94.999" y="-244.189" font-family="Monaco" font-size="10.00">+ libraryFilePath()</text>
<text text-anchor="start" x="94.999" y="-230.854" font-family="Monaco" font-size="10.00">+ setLibraryFilePath()</text>
<text text-anchor="start" x="94.999" y="-217.52" font-family="Monaco" font-size="10.00">+ iconFilePath()</text>
<text text-anchor="start" x="94.999" y="-204.185" font-family="Monaco" font-size="10.00">+ vendor()</text>
<text text-anchor="start" x="94.999" y="-190.85" font-family="Monaco" font-size="10.00">+ publications()</text>
<text text-anchor="start" x="94.999" y="-177.515" font-family="Monaco" font-size="10.00">+ license()</text>
<text text-anchor="start" x="94.999" y="-164.18" font-family="Monaco" font-size="10.00">+ copyright()</text>
<text text-anchor="start" x="94.999" y="-150.845" font-family="Monaco" font-size="10.00">+ url()</text>
<text text-anchor="start" x="94.999" y="-137.51" font-family="Monaco" font-size="10.00">+ email()</text>
<text text-anchor="start" x="94.999" y="-124.175" font-family="Monaco" font-size="10.00">+ version()</text>
<text text-anchor="start" x="94.999" y="-110.84" font-family="Monaco" font-size="10.00">+ category()</text>
</g>
<!-- Node9 -->
<g id="node9" class="node"><title>Node9</title>
<g id="a_node9"><a xlink:href="class_hydro_couple_s_d_k_1_1_model_component_info.html" target="_top" xlink:title="The ModelComponentInfo class. ">
<polygon fill="white" stroke="black" points="71.9966,-0.5 71.9966,-64.5049 292.03,-64.5049 292.03,-0.5 71.9966,-0.5"/>
<text text-anchor="middle" x="182.013" y="-52.5049" font-family="Monaco" font-size="10.00">HydroCoupleSDK::ModelComponentInfo</text>
<polyline fill="none" stroke="black" points="71.9966,-43.1699 292.03,-43.1699 "/>
<text text-anchor="middle" x="182.013" y="-31.1699" font-family="Monaco" font-size="10.00"> </text>
<polyline fill="none" stroke="black" points="71.9966,-21.835 292.03,-21.835 "/>
<text text-anchor="middle" x="182.013" y="-9.83496" font-family="Monaco" font-size="10.00"> </text>
</a>
</g>
</g>
<!-- Node1&#45;&gt;Node9 -->
<g id="edge10" class="edge"><title>Node1&#45;&gt;Node9</title>
<path fill="none" stroke="midnightblue" d="M182.013,-91.3936C182.013,-81.5749 182.013,-72.5457 182.013,-64.6846"/>
<polygon fill="none" stroke="midnightblue" points="178.513,-91.4614 182.013,-101.461 185.513,-91.4615 178.513,-91.4614"/>
</g>
<!-- Node2 -->
<g id="node2" class="node"><title>Node2</title>
<g id="a_node2"><a xlink:href="class_hydro_couple_s_d_k_1_1_identity.html" target="_top" xlink:title="The Identity class is an implementation of the HydroCouple::IIdentity of the HydroCouple interface de...">
<polygon fill="white" stroke="black" points="9.00146,-569.221 9.00146,-686.566 169.025,-686.566 169.025,-569.221 9.00146,-569.221"/>
<text text-anchor="middle" x="89.0132" y="-674.566" font-family="Monaco" font-size="10.00">HydroCoupleSDK::Identity</text>
<polyline fill="none" stroke="black" points="9.00146,-665.231 169.025,-665.231 "/>
<text text-anchor="start" x="17.0015" y="-653.231" font-family="Monaco" font-size="10.00">+ Id</text>
<polyline fill="none" stroke="black" points="9.00146,-643.896 169.025,-643.896 "/>
<text text-anchor="start" x="17.0015" y="-631.896" font-family="Monaco" font-size="10.00">+ Identity()</text>
<text text-anchor="start" x="17.0015" y="-618.561" font-family="Monaco" font-size="10.00">+ Identity()</text>
<text text-anchor="start" x="17.0015" y="-605.226" font-family="Monaco" font-size="10.00">+ ~Identity()</text>
<text text-anchor="start" x="17.0015" y="-591.891" font-family="Monaco" font-size="10.00">+ id()</text>
<text text-anchor="start" x="17.0015" y="-578.556" font-family="Monaco" font-size="10.00"># setId()</text>
</a>
</g>
</g>
<!-- Node2&#45;&gt;Node1 -->
<g id="edge1" class="edge"><title>Node2&#45;&gt;Node1</title>
<path fill="none" stroke="midnightblue" d="M107.606,-559.112C114.599,-533.618 122.929,-503.253 131.442,-472.218"/>
<polygon fill="none" stroke="midnightblue" points="104.165,-558.427 104.895,-568.997 110.916,-560.279 104.165,-558.427"/>
</g>
<!-- Node3 -->
<g id="node3" class="node"><title>Node3</title>
<g id="a_node3"><a xlink:href="class_hydro_couple_s_d_k_1_1_description.html" target="_top" xlink:title="The Description class. ">
<polygon fill="white" stroke="black" points="0,-783.573 0,-967.593 178.026,-967.593 178.026,-783.573 0,-783.573"/>
<text text-anchor="middle" x="89.0132" y="-955.593" font-family="Monaco" font-size="10.00">HydroCoupleSDK::Description</text>
<polyline fill="none" stroke="black" points="0,-946.258 178.026,-946.258 "/>
<text text-anchor="start" x="8" y="-934.258" font-family="Monaco" font-size="10.00">+ Caption</text>
<text text-anchor="start" x="8" y="-920.923" font-family="Monaco" font-size="10.00">+ Description</text>
<text text-anchor="start" x="8" y="-907.588" font-family="Monaco" font-size="10.00"># m_caption</text>
<text text-anchor="start" x="8" y="-894.253" font-family="Monaco" font-size="10.00"># m_description</text>
<polyline fill="none" stroke="black" points="0,-884.918 178.026,-884.918 "/>
<text text-anchor="start" x="8" y="-872.918" font-family="Monaco" font-size="10.00">+ Description()</text>
<text text-anchor="start" x="8" y="-859.583" font-family="Monaco" font-size="10.00">+ Description()</text>
<text text-anchor="start" x="8" y="-846.248" font-family="Monaco" font-size="10.00">+ ~Description()</text>
<text text-anchor="start" x="8" y="-832.913" font-family="Monaco" font-size="10.00">+ getCaption()</text>
<text text-anchor="start" x="8" y="-819.578" font-family="Monaco" font-size="10.00">+ setCaption()</text>
<text text-anchor="start" x="8" y="-806.243" font-family="Monaco" font-size="10.00">+ getDescription()</text>
<text text-anchor="start" x="8" y="-792.908" font-family="Monaco" font-size="10.00">+ setDescription()</text>
</a>
</g>
</g>
<!-- Node3&#45;&gt;Node2 -->
<g id="edge2" class="edge"><title>Node3&#45;&gt;Node2</title>
<path fill="none" stroke="midnightblue" d="M89.0132,-773.112C89.0132,-743.663 89.0132,-712.524 89.0132,-686.746"/>
<polygon fill="none" stroke="midnightblue" points="85.5133,-773.446 89.0132,-783.446 92.5133,-773.447 85.5133,-773.446"/>
</g>
<!-- Node4 -->
<g id="node4" class="node"><title>Node4</title>
<polygon fill="white" stroke="#bfbfbf" points="60.0098,-1031.26 60.0098,-1095.27 118.017,-1095.27 118.017,-1031.26 60.0098,-1031.26"/>
<text text-anchor="middle" x="89.0132" y="-1083.27" font-family="Monaco" font-size="10.00">QObject</text>
<polyline fill="none" stroke="#bfbfbf" points="60.0098,-1073.93 118.017,-1073.93 "/>
<text text-anchor="middle" x="89.0132" y="-1061.93" font-family="Monaco" font-size="10.00"> </text>
<polyline fill="none" stroke="#bfbfbf" points="60.0098,-1052.6 118.017,-1052.6 "/>
<text text-anchor="middle" x="89.0132" y="-1040.6" font-family="Monaco" font-size="10.00"> </text>
</g>
<!-- Node4&#45;&gt;Node3 -->
<g id="edge3" class="edge"><title>Node4&#45;&gt;Node3</title>
<path fill="none" stroke="midnightblue" d="M89.0132,-1020.78C89.0132,-1005.04 89.0132,-986.417 89.0132,-967.879"/>
<polygon fill="none" stroke="midnightblue" points="85.5133,-1021.19 89.0132,-1031.19 92.5133,-1021.19 85.5133,-1021.19"/>
</g>
<!-- Node5 -->
<g id="node5" class="node"><title>Node5</title>
<g id="a_node5"><a xlink:href="class_hydro_couple_1_1_i_description.html" target="_top" xlink:title="IDescription interface class provides descriptive information on a HydroCouple object. ">
<polygon fill="white" stroke="black" points="161.001,-1004.59 161.001,-1121.94 327.025,-1121.94 327.025,-1004.59 161.001,-1004.59"/>
<text text-anchor="middle" x="244.013" y="-1109.94" font-family="Monaco" font-size="10.00">HydroCouple::IDescription</text>
<polyline fill="none" stroke="black" points="161.001,-1100.6 327.025,-1100.6 "/>
<text text-anchor="middle" x="244.013" y="-1088.6" font-family="Monaco" font-size="10.00"> </text>
<polyline fill="none" stroke="black" points="161.001,-1079.27 327.025,-1079.27 "/>
<text text-anchor="start" x="169.001" y="-1067.27" font-family="Monaco" font-size="10.00">+ ~IDescription()</text>
<text text-anchor="start" x="169.001" y="-1053.93" font-family="Monaco" font-size="10.00">+ getCaption()</text>
<text text-anchor="start" x="169.001" y="-1040.6" font-family="Monaco" font-size="10.00">+ setCaption()</text>
<text text-anchor="start" x="169.001" y="-1027.26" font-family="Monaco" font-size="10.00">+ getDescription()</text>
<text text-anchor="start" x="169.001" y="-1013.93" font-family="Monaco" font-size="10.00">+ setDescription()</text>
</a>
</g>
</g>
<!-- Node5&#45;&gt;Node3 -->
<g id="edge4" class="edge"><title>Node5&#45;&gt;Node3</title>
<path fill="none" stroke="midnightblue" d="M189.308,-996.731C181.45,-987.318 173.249,-977.493 165.069,-967.694"/>
<polygon fill="none" stroke="midnightblue" points="186.725,-999.098 195.82,-1004.53 192.098,-994.612 186.725,-999.098"/>
</g>
<!-- Node7 -->
<g id="node7" class="node"><title>Node7</title>
<g id="a_node7"><a xlink:href="class_hydro_couple_1_1_i_identity.html" target="_top" xlink:title="IIdentity interface class defines a method to get the Id of an HydroCouple entity. ">
<polygon fill="white" stroke="black" points="196.002,-823.578 196.002,-927.588 344.024,-927.588 344.024,-823.578 196.002,-823.578"/>
<text text-anchor="middle" x="270.013" y="-915.588" font-family="Monaco" font-size="10.00">HydroCouple::IIdentity</text>
<polyline fill="none" stroke="black" points="196.002,-906.253 344.024,-906.253 "/>
<text text-anchor="middle" x="270.013" y="-894.253" font-family="Monaco" font-size="10.00"> </text>
<polyline fill="none" stroke="black" points="196.002,-884.918 344.024,-884.918 "/>
<text text-anchor="start" x="204.002" y="-872.918" font-family="Monaco" font-size="10.00">+ ~IIdentity()</text>
<text text-anchor="start" x="204.002" y="-859.583" font-family="Monaco" font-size="10.00">+ MPI_Comm()</text>
<text text-anchor="start" x="204.002" y="-846.248" font-family="Monaco" font-size="10.00">+ MPI_Rank()</text>
<text text-anchor="start" x="204.002" y="-832.913" font-family="Monaco" font-size="10.00">+ id()</text>
</a>
</g>
</g>
<!-- Node5&#45;&gt;Node7 -->
<g id="edge7" class="edge"><title>Node5&#45;&gt;Node7</title>
<path fill="none" stroke="midnightblue" d="M253.495,-994.549C256.587,-972.465 259.967,-948.33 262.859,-927.677"/>
<polygon fill="none" stroke="midnightblue" points="250.018,-994.143 252.097,-1004.53 256.95,-995.114 250.018,-994.143"/>
</g>
<!-- Node6 -->
<g id="node6" class="node"><title>Node6</title>
<g id="a_node6"><a xlink:href="class_hydro_couple_1_1_i_property_changed.html" target="_top" xlink:title="IPropertyChanged interface is used to emit signal/event when a property of an object changes...">
<polygon fill="white" stroke="black" points="148.999,-1158.94 148.999,-1222.94 339.027,-1222.94 339.027,-1158.94 148.999,-1158.94"/>
<text text-anchor="middle" x="244.013" y="-1210.94" font-family="Monaco" font-size="10.00">HydroCouple::IPropertyChanged</text>
<polyline fill="none" stroke="black" points="148.999,-1201.61 339.027,-1201.61 "/>
<text text-anchor="middle" x="244.013" y="-1189.61" font-family="Monaco" font-size="10.00"> </text>
<polyline fill="none" stroke="black" points="148.999,-1180.27 339.027,-1180.27 "/>
<text text-anchor="start" x="156.999" y="-1168.27" font-family="Monaco" font-size="10.00">+ ~IPropertyChanged()</text>
</a>
</g>
</g>
<!-- Node6&#45;&gt;Node5 -->
<g id="edge5" class="edge"><title>Node6&#45;&gt;Node5</title>
<path fill="none" stroke="midnightblue" d="M244.013,-1148.62C244.013,-1140.23 244.013,-1131.27 244.013,-1122.42"/>
<polygon fill="none" stroke="midnightblue" points="240.513,-1148.87 244.013,-1158.87 247.513,-1148.87 240.513,-1148.87"/>
</g>
<!-- Node7&#45;&gt;Node2 -->
<g id="edge6" class="edge"><title>Node7&#45;&gt;Node2</title>
<path fill="none" stroke="midnightblue" d="M226.305,-815.253C197.612,-776.305 160.262,-725.606 131.764,-686.923"/>
<polygon fill="none" stroke="midnightblue" points="223.541,-817.402 232.29,-823.378 229.177,-813.25 223.541,-817.402"/>
</g>
<!-- Node8 -->
<g id="node8" class="node"><title>Node8</title>
<g id="a_node8"><a xlink:href="class_hydro_couple_1_1_i_component_info.html" target="_top" xlink:title="IComponentInfo interface class provides detailed metadata about a component. ">
<polygon fill="white" stroke="black" points="187,-509.214 187,-746.573 365.026,-746.573 365.026,-509.214 187,-509.214"/>
<text text-anchor="middle" x="276.013" y="-734.573" font-family="Monaco" font-size="10.00">HydroCouple::IComponentInfo</text>
<polyline fill="none" stroke="black" points="187,-725.238 365.026,-725.238 "/>
<text text-anchor="middle" x="276.013" y="-713.238" font-family="Monaco" font-size="10.00"> </text>
<polyline fill="none" stroke="black" points="187,-703.903 365.026,-703.903 "/>
<text text-anchor="start" x="195" y="-691.903" font-family="Monaco" font-size="10.00">+ ~IComponentInfo()</text>
<text text-anchor="start" x="195" y="-678.568" font-family="Monaco" font-size="10.00">+ name()</text>
<text text-anchor="start" x="195" y="-665.233" font-family="Monaco" font-size="10.00">+ libraryFilePath()</text>
<text text-anchor="start" x="195" y="-651.898" font-family="Monaco" font-size="10.00">+ setLibraryFilePath()</text>
<text text-anchor="start" x="195" y="-638.563" font-family="Monaco" font-size="10.00">+ iconFilePath()</text>
<text text-anchor="start" x="195" y="-625.229" font-family="Monaco" font-size="10.00">+ vendor()</text>
<text text-anchor="start" x="195" y="-611.894" font-family="Monaco" font-size="10.00">+ publications()</text>
<text text-anchor="start" x="195" y="-598.559" font-family="Monaco" font-size="10.00">+ license()</text>
<text text-anchor="start" x="195" y="-585.224" font-family="Monaco" font-size="10.00">+ copyright()</text>
<text text-anchor="start" x="195" y="-571.889" font-family="Monaco" font-size="10.00">+ url()</text>
<text text-anchor="start" x="195" y="-558.554" font-family="Monaco" font-size="10.00">+ email()</text>
<text text-anchor="start" x="195" y="-545.219" font-family="Monaco" font-size="10.00">+ version()</text>
<text text-anchor="start" x="195" y="-531.884" font-family="Monaco" font-size="10.00">+ category()</text>
<text text-anchor="start" x="195" y="-518.549" font-family="Monaco" font-size="10.00">+ validateLicense()</text>
</a>
</g>
</g>
<!-- Node7&#45;&gt;Node8 -->
<g id="edge9" class="edge"><title>Node7&#45;&gt;Node8</title>
<path fill="none" stroke="midnightblue" d="M271.508,-813.36C272.004,-793.053 272.574,-769.715 273.138,-746.618"/>
<polygon fill="none" stroke="midnightblue" points="268.009,-813.295 271.264,-823.378 275.007,-813.466 268.009,-813.295"/>
</g>
<!-- Node8&#45;&gt;Node1 -->
<g id="edge8" class="edge"><title>Node8&#45;&gt;Node1</title>
<path fill="none" stroke="midnightblue" d="M240.552,-498.995C238.129,-490.253 235.661,-481.355 233.178,-472.4"/>
<polygon fill="none" stroke="midnightblue" points="237.224,-500.09 243.269,-508.792 243.969,-498.22 237.224,-500.09"/>
</g>
</g>
</svg>
