<?xml version="1.0" encoding="UTF-8" standalone="no"?>
<!DOCTYPE svg PUBLIC "-//W3C//DTD SVG 1.1//EN"
 "http://www.w3.org/Graphics/SVG/1.1/DTD/svg11.dtd">
<!-- Generated by graphviz version 2.38.0 (20140413.2041)
 -->
<!-- Title: HydroCouple::Spatial::IGeometryCollection Pages: 1 -->
<!--zoomable 1304 -->
<svg id="main" version="1.1" xmlns="http://www.w3.org/2000/svg" xmlns:xlink="http://www.w3.org/1999/xlink" xml:space="preserve" onload="init(evt)">
<style type="text/css"><![CDATA[
.edge:hover path { stroke: red; }
.edge:hover polygon { stroke: red; fill: red; }
]]></style>
<script type="text/javascript"><![CDATA[
var edges = document.getElementsByTagName('g');
if (edges && edges.length) {
  for (var i=0;i<edges.length;i++) {
    if (edges[i].id.substr(0,4)=='edge') {
      edges[i].setAttribute('class','edge');
    }
  }
}
]]></script>
        <defs>
                <circle id="rim" cx="0" cy="0" r="7"/>
                <circle id="rim2" cx="0" cy="0" r="3.5"/>
                <g id="zoomPlus">
                        <use xlink:href="#rim" fill="#404040">
                                <set attributeName="fill" to="#808080" begin="zoomplus.mouseover" end="zoomplus.mouseout"/>
                        </use>
                        <path d="M-4,0h8M0,-4v8" fill="none" stroke="white" stroke-width="1.5" pointer-events="none"/>
                </g>
                <g id="zoomMin">
                        <use xlink:href="#rim" fill="#404040">
                                <set attributeName="fill" to="#808080" begin="zoomminus.mouseover" end="zoomminus.mouseout"/>
                        </use>
                        <path d="M-4,0h8" fill="none" stroke="white" stroke-width="1.5" pointer-events="none"/>
                </g>
                <g id="dirArrow">
                        <path fill="none" stroke="white" stroke-width="1.5" d="M0,-3.0v7 M-2.5,-0.5L0,-3.0L2.5,-0.5"/>
                </g>
               <g id="resetDef">
                       <use xlink:href="#rim2" fill="#404040">
                               <set attributeName="fill" to="#808080" begin="reset.mouseover" end="reset.mouseout"/>
                       </use>
               </g>
        </defs>

<script type="text/javascript">
var viewWidth = 455;
var viewHeight = 1304;
var sectionId = 'dynsection-0';
</script>
<script xlink:href="svgpan.js"/>
<svg id="graph" class="graph">
<g id="viewport">
<title>HydroCouple::Spatial::IGeometryCollection</title>
<!-- Node1 -->
<g id="node1" class="node"><title>Node1</title>
<polygon fill="#bfbfbf" stroke="black" points="144.999,-410.194 144.999,-514.204 305.022,-514.204 305.022,-410.194 144.999,-410.194"/>
<text text-anchor="start" x="152.999" y="-502.204" font-family="Monaco" font-size="10.00">HydroCouple::Spatial</text>
<text text-anchor="middle" x="225.01" y="-488.869" font-family="Monaco" font-size="10.00">::IGeometryCollection</text>
<polyline fill="none" stroke="black" points="144.999,-479.534 305.022,-479.534 "/>
<text text-anchor="middle" x="225.01" y="-467.534" font-family="Monaco" font-size="10.00"> </text>
<polyline fill="none" stroke="black" points="144.999,-458.199 305.022,-458.199 "/>
<text text-anchor="start" x="152.999" y="-446.199" font-family="Monaco" font-size="10.00">+ ~IGeometryCollection()</text>
<text text-anchor="start" x="152.999" y="-432.864" font-family="Monaco" font-size="10.00">+ geometryCount()</text>
<text text-anchor="start" x="152.999" y="-419.529" font-family="Monaco" font-size="10.00">+ geometry()</text>
</g>
<!-- Node3 -->
<g id="node3" class="node"><title>Node3</title>
<g id="a_node3"><a xlink:href="class_hydro_couple_1_1_spatial_1_1_i_multi_curve.html" target="_top" xlink:title="An IMultiCurve is a 1&#45;dimensional IGeometryCollection whose elements are ICurves. ...">
<polygon fill="none" stroke="black" points="3.00049,-262.517 3.00049,-366.527 139.02,-366.527 139.02,-262.517 3.00049,-262.517"/>
<text text-anchor="start" x="11.0005" y="-354.527" font-family="Monaco" font-size="10.00">HydroCouple::Spatial</text>
<text text-anchor="middle" x="71.0103" y="-341.192" font-family="Monaco" font-size="10.00">::IMultiCurve</text>
<polyline fill="none" stroke="black" points="3.00049,-331.857 139.02,-331.857 "/>
<text text-anchor="middle" x="71.0103" y="-319.857" font-family="Monaco" font-size="10.00"> </text>
<polyline fill="none" stroke="black" points="3.00049,-310.522 139.02,-310.522 "/>
<text text-anchor="start" x="11.0005" y="-298.522" font-family="Monaco" font-size="10.00">+ ~IMultiCurve()</text>
<text text-anchor="start" x="11.0005" y="-285.187" font-family="Monaco" font-size="10.00">+ isClosed()</text>
<text text-anchor="start" x="11.0005" y="-271.852" font-family="Monaco" font-size="10.00">+ length()</text>
</a>
</g>
</g>
<!-- Node1&#45;&gt;Node3 -->
<g id="edge2" class="edge"><title>Node1&#45;&gt;Node3</title>
<path fill="none" stroke="midnightblue" d="M163.339,-402.861C150.678,-390.885 137.442,-378.363 125.074,-366.664"/>
<polygon fill="none" stroke="midnightblue" points="161.046,-405.509 170.716,-409.839 165.856,-400.424 161.046,-405.509"/>
</g>
<!-- Node6 -->
<g id="node6" class="node"><title>Node6</title>
<g id="a_node6"><a xlink:href="class_hydro_couple_1_1_spatial_1_1_i_multi_point.html" target="_top" xlink:title="An IMultiPoint is a 0&#45;dimensional IGeometryCollection. ">
<polygon fill="none" stroke="black" points="157,-269.185 157,-359.859 293.02,-359.859 293.02,-269.185 157,-269.185"/>
<text text-anchor="start" x="165" y="-347.859" font-family="Monaco" font-size="10.00">HydroCouple::Spatial</text>
<text text-anchor="middle" x="225.01" y="-334.524" font-family="Monaco" font-size="10.00">::IMultiPoint</text>
<polyline fill="none" stroke="black" points="157,-325.189 293.02,-325.189 "/>
<text text-anchor="middle" x="225.01" y="-313.189" font-family="Monaco" font-size="10.00"> </text>
<polyline fill="none" stroke="black" points="157,-303.854 293.02,-303.854 "/>
<text text-anchor="start" x="165" y="-291.854" font-family="Monaco" font-size="10.00">+ ~IMultiPoint()</text>
<text text-anchor="start" x="165" y="-278.52" font-family="Monaco" font-size="10.00">+ point()</text>
</a>
</g>
</g>
<!-- Node1&#45;&gt;Node6 -->
<g id="edge5" class="edge"><title>Node1&#45;&gt;Node6</title>
<path fill="none" stroke="midnightblue" d="M225.01,-399.792C225.01,-386.482 225.01,-372.649 225.01,-360.132"/>
<polygon fill="none" stroke="midnightblue" points="221.51,-399.839 225.01,-409.839 228.51,-399.839 221.51,-399.839"/>
</g>
<!-- Node7 -->
<g id="node7" class="node"><title>Node7</title>
<g id="a_node7"><a xlink:href="class_hydro_couple_1_1_spatial_1_1_i_multi_surface.html" target="_top" xlink:title="A MultiSurface is a 2&#45;dimensional GeometryCollection whose elements are Surfaces, all using coordinat...">
<polygon fill="none" stroke="black" points="311,-255.85 311,-373.194 447.02,-373.194 447.02,-255.85 311,-255.85"/>
<text text-anchor="start" x="319" y="-361.194" font-family="Monaco" font-size="10.00">HydroCouple::Spatial</text>
<text text-anchor="middle" x="379.01" y="-347.859" font-family="Monaco" font-size="10.00">::IMultiSurface</text>
<polyline fill="none" stroke="black" points="311,-338.524 447.02,-338.524 "/>
<text text-anchor="middle" x="379.01" y="-326.524" font-family="Monaco" font-size="10.00"> </text>
<polyline fill="none" stroke="black" points="311,-317.189 447.02,-317.189 "/>
<text text-anchor="start" x="319" y="-305.189" font-family="Monaco" font-size="10.00">+ ~IMultiSurface()</text>
<text text-anchor="start" x="319" y="-291.854" font-family="Monaco" font-size="10.00">+ area()</text>
<text text-anchor="start" x="319" y="-278.52" font-family="Monaco" font-size="10.00">+ centroid()</text>
<text text-anchor="start" x="319" y="-265.185" font-family="Monaco" font-size="10.00">+ pointOnSurface()</text>
</a>
</g>
</g>
<!-- Node1&#45;&gt;Node7 -->
<g id="edge6" class="edge"><title>Node1&#45;&gt;Node7</title>
<path fill="none" stroke="midnightblue" d="M286.7,-402.843C296.964,-393.134 307.605,-383.068 317.855,-373.372"/>
<polygon fill="none" stroke="midnightblue" points="284.164,-400.424 279.305,-409.839 288.975,-405.509 284.164,-400.424"/>
</g>
<!-- Node2 -->
<g id="node2" class="node"><title>Node2</title>
<g id="a_node2"><a xlink:href="class_hydro_couple_1_1_spatial_1_1_i_geometry.html" target="_top" xlink:title="IGeometry is the root class of the geometry hierarchy. ">
<polygon fill="none" stroke="black" points="138.998,-551.204 138.998,-1295.29 311.023,-1295.29 311.023,-551.204 138.998,-551.204"/>
<text text-anchor="start" x="146.998" y="-1283.29" font-family="Monaco" font-size="10.00">HydroCouple::Spatial</text>
<text text-anchor="middle" x="225.01" y="-1269.96" font-family="Monaco" font-size="10.00">::IGeometry</text>
<polyline fill="none" stroke="black" points="138.998,-1260.62 311.023,-1260.62 "/>
<text text-anchor="middle" x="225.01" y="-1248.62" font-family="Monaco" font-size="10.00"> </text>
<polyline fill="none" stroke="black" points="138.998,-1239.29 311.023,-1239.29 "/>
<text text-anchor="start" x="146.998" y="-1227.29" font-family="Monaco" font-size="10.00">+ ~IGeometry()</text>
<text text-anchor="start" x="146.998" y="-1213.95" font-family="Monaco" font-size="10.00">+ id()</text>
<text text-anchor="start" x="146.998" y="-1200.62" font-family="Monaco" font-size="10.00">+ index()</text>
<text text-anchor="start" x="146.998" y="-1187.28" font-family="Monaco" font-size="10.00">+ dimension()</text>
<text text-anchor="start" x="146.998" y="-1173.95" font-family="Monaco" font-size="10.00">+ coordinateDimension()</text>
<text text-anchor="start" x="146.998" y="-1160.61" font-family="Monaco" font-size="10.00">+ geometryType()</text>
<text text-anchor="start" x="146.998" y="-1147.28" font-family="Monaco" font-size="10.00">+ spatialReferenceSystem()</text>
<text text-anchor="start" x="146.998" y="-1133.94" font-family="Monaco" font-size="10.00">+ envelope()</text>
<text text-anchor="start" x="146.998" y="-1120.61" font-family="Monaco" font-size="10.00">+ getWKT()</text>
<text text-anchor="start" x="146.998" y="-1107.27" font-family="Monaco" font-size="10.00">+ getWKB()</text>
<text text-anchor="start" x="146.998" y="-1093.94" font-family="Monaco" font-size="10.00">+ isEmpty()</text>
<text text-anchor="start" x="146.998" y="-1080.6" font-family="Monaco" font-size="10.00">+ isSimple()</text>
<text text-anchor="start" x="146.998" y="-1067.27" font-family="Monaco" font-size="10.00">+ is3D()</text>
<text text-anchor="start" x="146.998" y="-1053.93" font-family="Monaco" font-size="10.00">+ isMeasured()</text>
<text text-anchor="start" x="146.998" y="-1040.6" font-family="Monaco" font-size="10.00">+ boundary()</text>
<text text-anchor="start" x="146.998" y="-1027.26" font-family="Monaco" font-size="10.00">+ equals()</text>
<text text-anchor="start" x="146.998" y="-1013.93" font-family="Monaco" font-size="10.00">+ disjoint()</text>
<text text-anchor="start" x="146.998" y="-1000.59" font-family="Monaco" font-size="10.00">+ intersects()</text>
<text text-anchor="start" x="146.998" y="-987.258" font-family="Monaco" font-size="10.00">+ touches()</text>
<text text-anchor="start" x="146.998" y="-973.923" font-family="Monaco" font-size="10.00">+ crosses()</text>
<text text-anchor="start" x="146.998" y="-960.588" font-family="Monaco" font-size="10.00">+ within()</text>
<text text-anchor="start" x="146.998" y="-947.253" font-family="Monaco" font-size="10.00">+ contains()</text>
<text text-anchor="start" x="146.998" y="-933.918" font-family="Monaco" font-size="10.00">+ overlaps()</text>
<text text-anchor="start" x="146.998" y="-920.583" font-family="Monaco" font-size="10.00">+ relate()</text>
<text text-anchor="start" x="146.998" y="-907.248" font-family="Monaco" font-size="10.00">+ locateAlong()</text>
<text text-anchor="start" x="146.998" y="-893.913" font-family="Monaco" font-size="10.00">+ locateBetween()</text>
<text text-anchor="start" x="146.998" y="-880.578" font-family="Monaco" font-size="10.00">+ distance()</text>
<text text-anchor="start" x="146.998" y="-867.243" font-family="Monaco" font-size="10.00">+ buffer()</text>
<text text-anchor="start" x="146.998" y="-853.908" font-family="Monaco" font-size="10.00">+ convexHull()</text>
<text text-anchor="start" x="146.998" y="-840.573" font-family="Monaco" font-size="10.00">+ intersection()</text>
<text text-anchor="start" x="146.998" y="-827.238" font-family="Monaco" font-size="10.00">+ unionG()</text>
<text text-anchor="start" x="146.998" y="-813.903" font-family="Monaco" font-size="10.00">+ difference()</text>
<text text-anchor="start" x="146.998" y="-800.568" font-family="Monaco" font-size="10.00">+ symmetricDifference()</text>
<text text-anchor="start" x="146.998" y="-787.233" font-family="Monaco" font-size="10.00">* equals()</text>
<text text-anchor="start" x="146.998" y="-773.898" font-family="Monaco" font-size="10.00">* disjoint()</text>
<text text-anchor="start" x="146.998" y="-760.563" font-family="Monaco" font-size="10.00">* intersects()</text>
<text text-anchor="start" x="146.998" y="-747.229" font-family="Monaco" font-size="10.00">* touches()</text>
<text text-anchor="start" x="146.998" y="-733.894" font-family="Monaco" font-size="10.00">* crosses()</text>
<text text-anchor="start" x="146.998" y="-720.559" font-family="Monaco" font-size="10.00">* within()</text>
<text text-anchor="start" x="146.998" y="-707.224" font-family="Monaco" font-size="10.00">* contains()</text>
<text text-anchor="start" x="146.998" y="-693.889" font-family="Monaco" font-size="10.00">* overlaps()</text>
<text text-anchor="start" x="146.998" y="-680.554" font-family="Monaco" font-size="10.00">* relate()</text>
<text text-anchor="start" x="146.998" y="-667.219" font-family="Monaco" font-size="10.00">* locateAlong()</text>
<text text-anchor="start" x="146.998" y="-653.884" font-family="Monaco" font-size="10.00">* locateBetween()</text>
<text text-anchor="start" x="146.998" y="-640.549" font-family="Monaco" font-size="10.00">* distance()</text>
<text text-anchor="start" x="146.998" y="-627.214" font-family="Monaco" font-size="10.00">* buffer()</text>
<text text-anchor="start" x="146.998" y="-613.879" font-family="Monaco" font-size="10.00">* convexHull()</text>
<text text-anchor="start" x="146.998" y="-600.544" font-family="Monaco" font-size="10.00">* intersection()</text>
<text text-anchor="start" x="146.998" y="-587.209" font-family="Monaco" font-size="10.00">* unionG()</text>
<text text-anchor="start" x="146.998" y="-573.874" font-family="Monaco" font-size="10.00">* difference()</text>
<text text-anchor="start" x="146.998" y="-560.539" font-family="Monaco" font-size="10.00">* symmetricDifference()</text>
</a>
</g>
</g>
<!-- Node2&#45;&gt;Node1 -->
<g id="edge1" class="edge"><title>Node2&#45;&gt;Node1</title>
<path fill="none" stroke="midnightblue" d="M225.01,-541.031C225.01,-531.519 225.01,-522.637 225.01,-514.525"/>
<polygon fill="none" stroke="midnightblue" points="221.51,-541.165 225.01,-551.165 228.51,-541.165 221.51,-541.165"/>
</g>
<!-- Node4 -->
<g id="node4" class="node"><title>Node4</title>
<g id="a_node4"><a xlink:href="class_hydro_couple_1_1_spatial_1_1_i_multi_line_string.html" target="_top" xlink:title="An IMultiLineString is an IMultiCurve whose elements are ILineStrings. ">
<polygon fill="none" stroke="black" points="0,-128.175 0,-218.85 142.021,-218.85 142.021,-128.175 0,-128.175"/>
<text text-anchor="start" x="8" y="-206.85" font-family="Monaco" font-size="10.00">HydroCouple::Spatial</text>
<text text-anchor="middle" x="71.0103" y="-193.515" font-family="Monaco" font-size="10.00">::IMultiLineString</text>
<polyline fill="none" stroke="black" points="0,-184.18 142.021,-184.18 "/>
<text text-anchor="middle" x="71.0103" y="-172.18" font-family="Monaco" font-size="10.00"> </text>
<polyline fill="none" stroke="black" points="0,-162.845 142.021,-162.845 "/>
<text text-anchor="start" x="8" y="-150.845" font-family="Monaco" font-size="10.00">+ ~IMultiLineString()</text>
<text text-anchor="start" x="8" y="-137.51" font-family="Monaco" font-size="10.00">+ lineString()</text>
</a>
</g>
</g>
<!-- Node3&#45;&gt;Node4 -->
<g id="edge3" class="edge"><title>Node3&#45;&gt;Node4</title>
<path fill="none" stroke="midnightblue" d="M71.0103,-252.114C71.0103,-241.061 71.0103,-229.731 71.0103,-219.262"/>
<polygon fill="none" stroke="midnightblue" points="67.5104,-252.155 71.0103,-262.155 74.5104,-252.155 67.5104,-252.155"/>
</g>
<!-- Node5 -->
<g id="node5" class="node"><title>Node5</title>
<g id="a_node5"><a xlink:href="class_hydro_couple_1_1_spatial_1_1_i_network.html" target="_top" xlink:title="The INetwork class. ">
<polygon fill="none" stroke="black" points="3.00049,-0.5 3.00049,-91.1748 139.02,-91.1748 139.02,-0.5 3.00049,-0.5"/>
<text text-anchor="start" x="11.0005" y="-79.1748" font-family="Monaco" font-size="10.00">HydroCouple::Spatial</text>
<text text-anchor="middle" x="71.0103" y="-65.8398" font-family="Monaco" font-size="10.00">::INetwork</text>
<polyline fill="none" stroke="black" points="3.00049,-56.5049 139.02,-56.5049 "/>
<text text-anchor="middle" x="71.0103" y="-44.5049" font-family="Monaco" font-size="10.00"> </text>
<polyline fill="none" stroke="black" points="3.00049,-35.1699 139.02,-35.1699 "/>
<text text-anchor="start" x="11.0005" y="-23.1699" font-family="Monaco" font-size="10.00">+ ~INetwork()</text>
<text text-anchor="start" x="11.0005" y="-9.83496" font-family="Monaco" font-size="10.00">+ vertices()</text>
</a>
</g>
</g>
<!-- Node4&#45;&gt;Node5 -->
<g id="edge4" class="edge"><title>Node4&#45;&gt;Node5</title>
<path fill="none" stroke="midnightblue" d="M71.0103,-117.668C71.0103,-108.875 71.0103,-99.8693 71.0103,-91.3557"/>
<polygon fill="none" stroke="midnightblue" points="67.5104,-117.85 71.0103,-127.85 74.5104,-117.85 67.5104,-117.85"/>
</g>
<!-- Node8 -->
<g id="node8" class="node"><title>Node8</title>
<g id="a_node8"><a xlink:href="class_hydro_couple_1_1_spatial_1_1_i_multi_polygon.html" target="_top" xlink:title="An IMultiPolygon is an IMultiSurface whose elements are IPolygons. ">
<polygon fill="none" stroke="black" points="311,-128.175 311,-218.85 447.02,-218.85 447.02,-128.175 311,-128.175"/>
<text text-anchor="start" x="319" y="-206.85" font-family="Monaco" font-size="10.00">HydroCouple::Spatial</text>
<text text-anchor="middle" x="379.01" y="-193.515" font-family="Monaco" font-size="10.00">::IMultiPolygon</text>
<polyline fill="none" stroke="black" points="311,-184.18 447.02,-184.18 "/>
<text text-anchor="middle" x="379.01" y="-172.18" font-family="Monaco" font-size="10.00"> </text>
<polyline fill="none" stroke="black" points="311,-162.845 447.02,-162.845 "/>
<text text-anchor="start" x="319" y="-150.845" font-family="Monaco" font-size="10.00">+ ~IMultiPolygon()</text>
<text text-anchor="start" x="319" y="-137.51" font-family="Monaco" font-size="10.00">+ polygon()</text>
</a>
</g>
</g>
<!-- Node7&#45;&gt;Node8 -->
<g id="edge7" class="edge"><title>Node7&#45;&gt;Node8</title>
<path fill="none" stroke="midnightblue" d="M379.01,-245.662C379.01,-236.66 379.01,-227.621 379.01,-219.15"/>
<polygon fill="none" stroke="midnightblue" points="375.51,-245.777 379.01,-255.777 382.51,-245.777 375.51,-245.777"/>
</g>
</g>
</svg>
        <g id="navigator" transform="translate(0 0)" fill="#404254">
                <rect fill="#f2f5e9" fill-opacity="0.5" stroke="#606060" stroke-width=".5" x="0" y="0" width="60" height="60"/>
                <use id="zoomplus" xlink:href="#zoomPlus" x="17" y="9" onmousedown="handleZoom(evt,'in')"/>
                <use id="zoomminus" xlink:href="#zoomMin" x="42" y="9" onmousedown="handleZoom(evt,'out')"/>
                <use id="reset" xlink:href="#resetDef" x="30" y="36" onmousedown="handleReset()"/>
                <g id="arrowUp" xlink:href="#dirArrow" transform="translate(30 24)" onmousedown="handlePan(0,-1)">
                  <use xlink:href="#rim" fill="#404040">
                        <set attributeName="fill" to="#808080" begin="arrowUp.mouseover" end="arrowUp.mouseout"/>
                  </use>
                  <path fill="none" stroke="white" stroke-width="1.5" d="M0,-3.0v7 M-2.5,-0.5L0,-3.0L2.5,-0.5"/>
                </g>
                <g id="arrowRight" xlink:href="#dirArrow" transform="rotate(90) translate(36 -43)" onmousedown="handlePan(1,0)">
                  <use xlink:href="#rim" fill="#404040">
                        <set attributeName="fill" to="#808080" begin="arrowRight.mouseover" end="arrowRight.mouseout"/>
                  </use>
                  <path fill="none" stroke="white" stroke-width="1.5" d="M0,-3.0v7 M-2.5,-0.5L0,-3.0L2.5,-0.5"/>
                </g>
                <g id="arrowDown" xlink:href="#dirArrow" transform="rotate(180) translate(-30 -48)" onmousedown="handlePan(0,1)">
                  <use xlink:href="#rim" fill="#404040">
                        <set attributeName="fill" to="#808080" begin="arrowDown.mouseover" end="arrowDown.mouseout"/>
                  </use>
                  <path fill="none" stroke="white" stroke-width="1.5" d="M0,-3.0v7 M-2.5,-0.5L0,-3.0L2.5,-0.5"/>
                </g>
                <g id="arrowLeft" xlink:href="#dirArrow" transform="rotate(270) translate(-36 17)" onmousedown="handlePan(-1,0)">
                  <use xlink:href="#rim" fill="#404040">
                        <set attributeName="fill" to="#808080" begin="arrowLeft.mouseover" end="arrowLeft.mouseout"/>
                  </use>
                  <path fill="none" stroke="white" stroke-width="1.5" d="M0,-3.0v7 M-2.5,-0.5L0,-3.0L2.5,-0.5"/>
                </g>
        </g>
        <svg viewBox="0 0 15 15" width="100%" height="30px" preserveAspectRatio="xMaxYMin meet">
         <g id="arrow_out" transform="scale(0.3 0.3)">
          <a xlink:href="class_hydro_couple_1_1_spatial_1_1_i_geometry_collection__inherit__graph_org.svg" target="_base">
           <rect id="button" ry="5" rx="5" y="6" x="6" height="38" width="38"
                fill="#f2f5e9" fill-opacity="0.5" stroke="#606060" stroke-width="1.0"/>
           <path id="arrow"
             d="M 11.500037,31.436501 C 11.940474,20.09759 22.043105,11.32322 32.158766,21.979434 L 37.068811,17.246167 C 37.068811,17.246167 37.088388,32 37.088388,32 L 22.160133,31.978069 C 22.160133,31.978069 26.997745,27.140456 26.997745,27.140456 C 18.528582,18.264221 13.291696,25.230495 11.500037,31.436501 z"
             style="fill:#404040;"/>
          </a>
         </g>
        </svg>
</svg>
