<?xml version="1.0" encoding="UTF-8" standalone="no"?>
<!DOCTYPE svg PUBLIC "-//W3C//DTD SVG 1.1//EN"
 "http://www.w3.org/Graphics/SVG/1.1/DTD/svg11.dtd">
<!-- Generated by graphviz version 2.38.0 (20140413.2041)
 -->
<!-- Title: HydroCouple::SpatioTemporal::ITimeTINComponentDataItem::~ITimeTINComponentDataItem Pages: 1 -->
<svg width="436pt" height="258pt"
 viewBox="0.00 0.00 436.06 258.00" xmlns="http://www.w3.org/2000/svg" xmlns:xlink="http://www.w3.org/1999/xlink">
<g id="graph0" class="graph" transform="scale(1 1) rotate(0) translate(4 254.005)">
<title>HydroCouple::SpatioTemporal::ITimeTINComponentDataItem::~ITimeTINComponentDataItem</title>
<!-- Node1 -->
<g id="node1" class="node"><title>Node1</title>
<polygon fill="#bfbfbf" stroke="black" points="0,-100.5 0,-148.505 184.027,-148.505 184.027,-100.5 0,-100.5"/>
<text text-anchor="start" x="8" y="-136.505" font-family="Monaco" font-size="10.00">HydroCouple::SpatioTemporal</text>
<text text-anchor="start" x="8" y="-123.17" font-family="Monaco" font-size="10.00">::ITimeTINComponentDataItem</text>
<text text-anchor="middle" x="92.0137" y="-109.835" font-family="Monaco" font-size="10.00">::~ITimeTINComponentDataItem</text>
</g>
<!-- Node2 -->
<g id="node2" class="node"><title>Node2</title>
<g id="a_node2"><a xlink:href="class_hydro_couple_1_1_spatio_temporal_1_1_i_time_geometry_component_data_item.html#a1fdfb452c3d3caf2aedae174f333a066" target="_top" xlink:title="Gets a single value for given time dimension index. ">
<polygon fill="none" stroke="black" points="220.027,-201.5 220.027,-249.505 428.059,-249.505 428.059,-201.5 220.027,-201.5"/>
<text text-anchor="start" x="228.027" y="-237.505" font-family="Monaco" font-size="10.00">HydroCouple::SpatioTemporal</text>
<text text-anchor="start" x="228.027" y="-224.17" font-family="Monaco" font-size="10.00">::ITimeGeometryComponentDataItem</text>
<text text-anchor="middle" x="324.043" y="-210.835" font-family="Monaco" font-size="10.00">::getValue</text>
</a>
</g>
</g>
<!-- Node1&#45;&gt;Node2 -->
<g id="edge1" class="edge"><title>Node1&#45;&gt;Node2</title>
<path fill="none" stroke="midnightblue" d="M133.557,-148.648C158.051,-162.613 190.203,-179.866 220.027,-192.502 224.391,-194.351 228.895,-196.156 233.47,-197.908"/>
<polygon fill="midnightblue" stroke="midnightblue" points="232.344,-201.223 242.937,-201.426 234.782,-194.662 232.344,-201.223"/>
</g>
<!-- Node3 -->
<g id="node3" class="node"><title>Node3</title>
<g id="a_node3"><a xlink:href="class_hydro_couple_1_1_spatio_temporal_1_1_i_time_geometry_component_data_item.html#af32f2312af03540b6266d3efe3c078aa" target="_top" xlink:title="Gets a multi&#45;dimensional array of values for given dimension time dimension index and size for a hype...">
<polygon fill="none" stroke="black" points="220.027,-134.5 220.027,-182.505 428.059,-182.505 428.059,-134.5 220.027,-134.5"/>
<text text-anchor="start" x="228.027" y="-170.505" font-family="Monaco" font-size="10.00">HydroCouple::SpatioTemporal</text>
<text text-anchor="start" x="228.027" y="-157.17" font-family="Monaco" font-size="10.00">::ITimeGeometryComponentDataItem</text>
<text text-anchor="middle" x="324.043" y="-143.835" font-family="Monaco" font-size="10.00">::getValues</text>
</a>
</g>
</g>
<!-- Node1&#45;&gt;Node3 -->
<g id="edge2" class="edge"><title>Node1&#45;&gt;Node3</title>
<path fill="none" stroke="midnightblue" d="M184.258,-137.989C192.642,-139.228 201.203,-140.494 209.751,-141.757"/>
<polygon fill="midnightblue" stroke="midnightblue" points="209.364,-145.238 219.769,-143.238 210.388,-138.313 209.364,-145.238"/>
</g>
<!-- Node4 -->
<g id="node4" class="node"><title>Node4</title>
<g id="a_node4"><a xlink:href="class_hydro_couple_1_1_spatio_temporal_1_1_i_time_geometry_component_data_item.html#a91293b8701a718ae3114e2456acd5216" target="_top" xlink:title="Sets a single value for given time dimension index. ">
<polygon fill="none" stroke="black" points="220.027,-67.5 220.027,-115.505 428.059,-115.505 428.059,-67.5 220.027,-67.5"/>
<text text-anchor="start" x="228.027" y="-103.505" font-family="Monaco" font-size="10.00">HydroCouple::SpatioTemporal</text>
<text text-anchor="start" x="228.027" y="-90.1699" font-family="Monaco" font-size="10.00">::ITimeGeometryComponentDataItem</text>
<text text-anchor="middle" x="324.043" y="-76.835" font-family="Monaco" font-size="10.00">::setValue</text>
</a>
</g>
</g>
<!-- Node1&#45;&gt;Node4 -->
<g id="edge3" class="edge"><title>Node1&#45;&gt;Node4</title>
<path fill="none" stroke="midnightblue" d="M184.258,-111.413C192.642,-110.21 201.203,-108.982 209.751,-107.755"/>
<polygon fill="midnightblue" stroke="midnightblue" points="210.367,-111.203 219.769,-106.318 209.373,-104.274 210.367,-111.203"/>
</g>
<!-- Node5 -->
<g id="node5" class="node"><title>Node5</title>
<g id="a_node5"><a xlink:href="class_hydro_couple_1_1_spatio_temporal_1_1_i_time_geometry_component_data_item.html#a79af6a7de3140685dc91d616853c2e0e" target="_top" xlink:title="Sets a multi&#45;dimensional array of values for given time dimension index and size for a hyperslab...">
<polygon fill="none" stroke="black" points="220.027,-0.5 220.027,-48.5049 428.059,-48.5049 428.059,-0.5 220.027,-0.5"/>
<text text-anchor="start" x="228.027" y="-36.5049" font-family="Monaco" font-size="10.00">HydroCouple::SpatioTemporal</text>
<text text-anchor="start" x="228.027" y="-23.1699" font-family="Monaco" font-size="10.00">::ITimeGeometryComponentDataItem</text>
<text text-anchor="middle" x="324.043" y="-9.83496" font-family="Monaco" font-size="10.00">::setValues</text>
</a>
</g>
</g>
<!-- Node1&#45;&gt;Node5 -->
<g id="edge4" class="edge"><title>Node1&#45;&gt;Node5</title>
<path fill="none" stroke="midnightblue" d="M134.169,-100.432C158.605,-86.7429 190.492,-69.9103 220.027,-57.5024 224.448,-55.6454 229.011,-53.8305 233.645,-52.0679"/>
<polygon fill="midnightblue" stroke="midnightblue" points="235.065,-55.2748 243.232,-48.5265 232.639,-48.7084 235.065,-55.2748"/>
</g>
</g>
</svg>
