<?xml version="1.0" encoding="UTF-8" standalone="no"?>
<!DOCTYPE svg PUBLIC "-//W3C//DTD SVG 1.1//EN"
 "http://www.w3.org/Graphics/SVG/1.1/DTD/svg11.dtd">
<!-- Generated by graphviz version 2.38.0 (20140413.2041)
 -->
<!-- Title: HydroCouple::SpatioTemporal::ITime2DRegularGridArgument Pages: 1 -->
<svg width="596pt" height="946pt"
 viewBox="0.00 0.00 596.03 945.73" xmlns="http://www.w3.org/2000/svg" xmlns:xlink="http://www.w3.org/1999/xlink">
<g id="graph0" class="graph" transform="scale(1 1) rotate(0) translate(4 941.733)">
<title>HydroCouple::SpatioTemporal::ITime2DRegularGridArgument</title>
<polygon fill="white" stroke="none" points="-4,4 -4,-941.733 592.028,-941.733 592.028,4 -4,4"/>
<!-- Node1 -->
<g id="node1" class="node"><title>Node1</title>
<polygon fill="#bfbfbf" stroke="black" points="147.995,-0.5 147.995,-77.8398 350.025,-77.8398 350.025,-0.5 147.995,-0.5"/>
<text text-anchor="start" x="155.995" y="-65.8398" font-family="Monaco" font-size="10.00">HydroCouple::SpatioTemporal</text>
<text text-anchor="middle" x="249.01" y="-52.5049" font-family="Monaco" font-size="10.00">::ITime2DRegularGridArgument</text>
<polyline fill="none" stroke="black" points="147.995,-43.1699 350.025,-43.1699 "/>
<text text-anchor="middle" x="249.01" y="-31.1699" font-family="Monaco" font-size="10.00"> </text>
<polyline fill="none" stroke="black" points="147.995,-21.835 350.025,-21.835 "/>
<text text-anchor="start" x="155.995" y="-9.83496" font-family="Monaco" font-size="10.00">+ ~ITime2DRegularGridArgument()</text>
</g>
<!-- Node2 -->
<g id="node2" class="node"><title>Node2</title>
<g id="a_node2"><a xlink:href="class_hydro_couple_1_1_temporal_1_1_i_time_argument.html" target="_top" xlink:title="The ITimeArgument class. ">
<polygon fill="white" stroke="black" points="0,-114.84 0,-205.515 142.021,-205.515 142.021,-114.84 0,-114.84"/>
<text text-anchor="start" x="8" y="-193.515" font-family="Monaco" font-size="10.00">HydroCouple::Temporal</text>
<text text-anchor="middle" x="71.0103" y="-180.18" font-family="Monaco" font-size="10.00">::ITimeArgument</text>
<polyline fill="none" stroke="black" points="0,-170.845 142.021,-170.845 "/>
<text text-anchor="middle" x="71.0103" y="-158.845" font-family="Monaco" font-size="10.00"> </text>
<polyline fill="none" stroke="black" points="0,-149.51 142.021,-149.51 "/>
<text text-anchor="start" x="8" y="-137.51" font-family="Monaco" font-size="10.00">+ ~ITimeArgument()</text>
<text text-anchor="start" x="8" y="-124.175" font-family="Monaco" font-size="10.00">+ setTimes()</text>
</a>
</g>
</g>
<!-- Node2&#45;&gt;Node1 -->
<g id="edge1" class="edge"><title>Node2&#45;&gt;Node1</title>
<path fill="none" stroke="midnightblue" d="M146.099,-108.974C161.628,-98.5921 177.736,-87.8226 192.469,-77.9724"/>
<polygon fill="none" stroke="midnightblue" points="143.912,-106.226 137.544,-114.694 147.802,-112.046 143.912,-106.226"/>
</g>
<!-- Node3 -->
<g id="node3" class="node"><title>Node3</title>
<g id="a_node3"><a xlink:href="class_hydro_couple_1_1_i_argument.html" target="_top" xlink:title="IArgument interface class used to set the arguments for components. They can be complex or simple mul...">
<polygon fill="white" stroke="black" points="12.9995,-242.515 12.9995,-439.869 161.021,-439.869 161.021,-242.515 12.9995,-242.515"/>
<text text-anchor="middle" x="87.0103" y="-427.869" font-family="Monaco" font-size="10.00">HydroCouple::IArgument</text>
<polyline fill="none" stroke="black" points="12.9995,-418.534 161.021,-418.534 "/>
<text text-anchor="middle" x="87.0103" y="-406.534" font-family="Monaco" font-size="10.00"> </text>
<polyline fill="none" stroke="black" points="12.9995,-397.199 161.021,-397.199 "/>
<text text-anchor="start" x="20.9995" y="-385.199" font-family="Monaco" font-size="10.00">+ ~IArgument()</text>
<text text-anchor="start" x="20.9995" y="-371.864" font-family="Monaco" font-size="10.00">+ isOptional()</text>
<text text-anchor="start" x="20.9995" y="-358.529" font-family="Monaco" font-size="10.00">+ isReadOnly()</text>
<text text-anchor="start" x="20.9995" y="-345.194" font-family="Monaco" font-size="10.00">+ clone()</text>
<text text-anchor="start" x="20.9995" y="-331.859" font-family="Monaco" font-size="10.00">+ valueSets()</text>
<text text-anchor="start" x="20.9995" y="-318.524" font-family="Monaco" font-size="10.00">+ toString()</text>
<text text-anchor="start" x="20.9995" y="-305.189" font-family="Monaco" font-size="10.00">+ fileExtensions()</text>
<text text-anchor="start" x="20.9995" y="-291.854" font-family="Monaco" font-size="10.00">+ canReadFromFile()</text>
<text text-anchor="start" x="20.9995" y="-278.52" font-family="Monaco" font-size="10.00">+ canReadFromString()</text>
<text text-anchor="start" x="20.9995" y="-265.185" font-family="Monaco" font-size="10.00">+ readValues()</text>
<text text-anchor="start" x="20.9995" y="-251.85" font-family="Monaco" font-size="10.00">+ readValues()</text>
</a>
</g>
</g>
<!-- Node3&#45;&gt;Node2 -->
<g id="edge2" class="edge"><title>Node3&#45;&gt;Node2</title>
<path fill="none" stroke="midnightblue" d="M77.3604,-232.225C76.5373,-223.017 75.7387,-214.081 75.0013,-205.831"/>
<polygon fill="none" stroke="midnightblue" points="73.8848,-232.656 78.2612,-242.304 80.857,-232.032 73.8848,-232.656"/>
</g>
<!-- Node9 -->
<g id="node9" class="node"><title>Node9</title>
<g id="a_node9"><a xlink:href="class_hydro_couple_1_1_spatial_1_1_i2_d_regular_grid_argument.html" target="_top" xlink:title="An I2DRegularGridArgument is an IArgument with an I2DRegularGridComponentItem. ">
<polygon fill="white" stroke="black" points="159.997,-114.84 159.997,-205.515 338.023,-205.515 338.023,-114.84 159.997,-114.84"/>
<text text-anchor="start" x="167.997" y="-193.515" font-family="Monaco" font-size="10.00">HydroCouple::Spatial</text>
<text text-anchor="middle" x="249.01" y="-180.18" font-family="Monaco" font-size="10.00">::I2DRegularGridArgument</text>
<polyline fill="none" stroke="black" points="159.997,-170.845 338.023,-170.845 "/>
<text text-anchor="middle" x="249.01" y="-158.845" font-family="Monaco" font-size="10.00"> </text>
<polyline fill="none" stroke="black" points="159.997,-149.51 338.023,-149.51 "/>
<text text-anchor="start" x="167.997" y="-137.51" font-family="Monaco" font-size="10.00">+ ~I2DRegularGridArgument()</text>
<text text-anchor="start" x="167.997" y="-124.175" font-family="Monaco" font-size="10.00">+ setGrid()</text>
</a>
</g>
</g>
<!-- Node3&#45;&gt;Node9 -->
<g id="edge10" class="edge"><title>Node3&#45;&gt;Node9</title>
<path fill="none" stroke="midnightblue" d="M168.084,-244.139C168.728,-243.427 169.37,-242.719 170.01,-242.015 180.967,-229.964 193.123,-217.229 204.549,-205.522"/>
<polygon fill="none" stroke="midnightblue" points="165.212,-242.1 161.143,-251.882 170.424,-246.772 165.212,-242.1"/>
</g>
<!-- Node4 -->
<g id="node4" class="node"><title>Node4</title>
<g id="a_node4"><a xlink:href="class_hydro_couple_1_1_i_component_item.html" target="_top" xlink:title="IComponentItem is a fundamental unit of data for a component. ">
<polygon fill="white" stroke="black" points="166.997,-476.869 166.997,-567.544 345.023,-567.544 345.023,-476.869 166.997,-476.869"/>
<text text-anchor="middle" x="256.01" y="-555.544" font-family="Monaco" font-size="10.00">HydroCouple::IComponentItem</text>
<polyline fill="none" stroke="black" points="166.997,-546.209 345.023,-546.209 "/>
<text text-anchor="middle" x="256.01" y="-534.209" font-family="Monaco" font-size="10.00"> </text>
<polyline fill="none" stroke="black" points="166.997,-524.874 345.023,-524.874 "/>
<text text-anchor="start" x="174.997" y="-512.874" font-family="Monaco" font-size="10.00">+ ~IComponentItem()</text>
<text text-anchor="start" x="174.997" y="-499.539" font-family="Monaco" font-size="10.00">+ modelComponent()</text>
<text text-anchor="start" x="174.997" y="-486.204" font-family="Monaco" font-size="10.00">+ dimensions()</text>
</a>
</g>
</g>
<!-- Node4&#45;&gt;Node3 -->
<g id="edge3" class="edge"><title>Node4&#45;&gt;Node3</title>
<path fill="none" stroke="midnightblue" d="M199.586,-469.924C189.538,-460.301 179.316,-450.178 170.01,-440.369 167.092,-437.293 164.149,-434.132 161.202,-430.917"/>
<polygon fill="none" stroke="midnightblue" points="197.196,-472.481 206.856,-476.832 202.017,-467.406 197.196,-472.481"/>
</g>
<!-- Node8 -->
<g id="node8" class="node"><title>Node8</title>
<g id="a_node8"><a xlink:href="class_hydro_couple_1_1_temporal_1_1_i_time_component_item.html" target="_top" xlink:title="ITimeComponentItem is an IComponentItem with a temporal attribute. ">
<polygon fill="white" stroke="black" points="178.999,-275.852 178.999,-406.532 333.021,-406.532 333.021,-275.852 178.999,-275.852"/>
<text text-anchor="start" x="186.999" y="-394.532" font-family="Monaco" font-size="10.00">HydroCouple::Temporal</text>
<text text-anchor="middle" x="256.01" y="-381.197" font-family="Monaco" font-size="10.00">::ITimeComponentItem</text>
<polyline fill="none" stroke="black" points="178.999,-371.862 333.021,-371.862 "/>
<text text-anchor="middle" x="256.01" y="-359.862" font-family="Monaco" font-size="10.00"> </text>
<polyline fill="none" stroke="black" points="178.999,-350.527 333.021,-350.527 "/>
<text text-anchor="start" x="186.999" y="-338.527" font-family="Monaco" font-size="10.00">+ ~ITimeComponentItem()</text>
<text text-anchor="start" x="186.999" y="-325.192" font-family="Monaco" font-size="10.00">+ timeDimension()</text>
<text text-anchor="start" x="186.999" y="-311.857" font-family="Monaco" font-size="10.00">+ times()</text>
<text text-anchor="start" x="186.999" y="-298.522" font-family="Monaco" font-size="10.00">+ timeSpan()</text>
<text text-anchor="start" x="186.999" y="-285.187" font-family="Monaco" font-size="10.00">+ time()</text>
</a>
</g>
</g>
<!-- Node4&#45;&gt;Node8 -->
<g id="edge8" class="edge"><title>Node4&#45;&gt;Node8</title>
<path fill="none" stroke="midnightblue" d="M256.01,-466.29C256.01,-447.425 256.01,-426.137 256.01,-406.587"/>
<polygon fill="none" stroke="midnightblue" points="252.51,-466.495 256.01,-476.495 259.51,-466.495 252.51,-466.495"/>
</g>
<!-- Node10 -->
<g id="node10" class="node"><title>Node10</title>
<g id="a_node10"><a xlink:href="class_hydro_couple_1_1_spatial_1_1_i2_d_regular_grid_component_item.html" target="_top" xlink:title="An I2DRegularGridComponentItem represents an I2DRegularGrid IComponentItem. ">
<polygon fill="white" stroke="black" points="350.995,-269.185 350.995,-413.199 559.026,-413.199 559.026,-269.185 350.995,-269.185"/>
<text text-anchor="start" x="358.995" y="-401.199" font-family="Monaco" font-size="10.00">HydroCouple::Spatial</text>
<text text-anchor="middle" x="455.01" y="-387.864" font-family="Monaco" font-size="10.00">::I2DRegularGridComponentItem</text>
<polyline fill="none" stroke="black" points="350.995,-378.529 559.026,-378.529 "/>
<text text-anchor="middle" x="455.01" y="-366.529" font-family="Monaco" font-size="10.00"> </text>
<polyline fill="none" stroke="black" points="350.995,-357.194 559.026,-357.194 "/>
<text text-anchor="start" x="358.995" y="-345.194" font-family="Monaco" font-size="10.00">+ ~I2DRegularGridComponentItem()</text>
<text text-anchor="start" x="358.995" y="-331.859" font-family="Monaco" font-size="10.00">+ numXNodesDimension()</text>
<text text-anchor="start" x="358.995" y="-318.524" font-family="Monaco" font-size="10.00">+ numYNodesDimension()</text>
<text text-anchor="start" x="358.995" y="-305.189" font-family="Monaco" font-size="10.00">+ numXCellsDimension()</text>
<text text-anchor="start" x="358.995" y="-291.854" font-family="Monaco" font-size="10.00">+ numYCellsDimension()</text>
<text text-anchor="start" x="358.995" y="-278.52" font-family="Monaco" font-size="10.00">+ grid()</text>
</a>
</g>
</g>
<!-- Node4&#45;&gt;Node10 -->
<g id="edge12" class="edge"><title>Node4&#45;&gt;Node10</title>
<path fill="none" stroke="midnightblue" d="M313.105,-469.846C332.69,-452.227 354.973,-432.183 375.982,-413.283"/>
<polygon fill="none" stroke="midnightblue" points="310.551,-467.436 305.457,-476.726 315.232,-472.64 310.551,-467.436"/>
</g>
<!-- Node5 -->
<g id="node5" class="node"><title>Node5</title>
<g id="a_node5"><a xlink:href="class_hydro_couple_1_1_i_identity.html" target="_top" xlink:title="IIdentity interface class defines a method to get the Id of an HydroCouple entity. ">
<polygon fill="white" stroke="black" points="182,-604.544 182,-681.884 330.021,-681.884 330.021,-604.544 182,-604.544"/>
<text text-anchor="middle" x="256.01" y="-669.884" font-family="Monaco" font-size="10.00">HydroCouple::IIdentity</text>
<polyline fill="none" stroke="black" points="182,-660.549 330.021,-660.549 "/>
<text text-anchor="middle" x="256.01" y="-648.549" font-family="Monaco" font-size="10.00"> </text>
<polyline fill="none" stroke="black" points="182,-639.214 330.021,-639.214 "/>
<text text-anchor="start" x="190" y="-627.214" font-family="Monaco" font-size="10.00">+ ~IIdentity()</text>
<text text-anchor="start" x="190" y="-613.879" font-family="Monaco" font-size="10.00">+ id()</text>
</a>
</g>
</g>
<!-- Node5&#45;&gt;Node4 -->
<g id="edge4" class="edge"><title>Node5&#45;&gt;Node4</title>
<path fill="none" stroke="midnightblue" d="M256.01,-594.224C256.01,-585.526 256.01,-576.486 256.01,-567.887"/>
<polygon fill="none" stroke="midnightblue" points="252.51,-594.232 256.01,-604.232 259.51,-594.232 252.51,-594.232"/>
</g>
<!-- Node6 -->
<g id="node6" class="node"><title>Node6</title>
<g id="a_node6"><a xlink:href="class_hydro_couple_1_1_i_description.html" target="_top" xlink:title="IDescription interface class provides descriptive information on a HydroCouple object. ">
<polygon fill="white" stroke="black" points="172.998,-718.884 172.998,-836.229 339.022,-836.229 339.022,-718.884 172.998,-718.884"/>
<text text-anchor="middle" x="256.01" y="-824.229" font-family="Monaco" font-size="10.00">HydroCouple::IDescription</text>
<polyline fill="none" stroke="black" points="172.998,-814.894 339.022,-814.894 "/>
<text text-anchor="middle" x="256.01" y="-802.894" font-family="Monaco" font-size="10.00"> </text>
<polyline fill="none" stroke="black" points="172.998,-793.559 339.022,-793.559 "/>
<text text-anchor="start" x="180.998" y="-781.559" font-family="Monaco" font-size="10.00">+ ~IDescription()</text>
<text text-anchor="start" x="180.998" y="-768.224" font-family="Monaco" font-size="10.00">+ getCaption()</text>
<text text-anchor="start" x="180.998" y="-754.889" font-family="Monaco" font-size="10.00">+ setCaption()</text>
<text text-anchor="start" x="180.998" y="-741.554" font-family="Monaco" font-size="10.00">+ getDescription()</text>
<text text-anchor="start" x="180.998" y="-728.219" font-family="Monaco" font-size="10.00">+ setDescription()</text>
</a>
</g>
</g>
<!-- Node6&#45;&gt;Node5 -->
<g id="edge5" class="edge"><title>Node6&#45;&gt;Node5</title>
<path fill="none" stroke="midnightblue" d="M256.01,-708.318C256.01,-699.279 256.01,-690.292 256.01,-682.031"/>
<polygon fill="none" stroke="midnightblue" points="252.51,-708.509 256.01,-718.509 259.51,-708.509 252.51,-708.509"/>
</g>
<!-- Node7 -->
<g id="node7" class="node"><title>Node7</title>
<g id="a_node7"><a xlink:href="class_hydro_couple_1_1_i_property_changed.html" target="_top" xlink:title="IPropertyChanged interface is used to emit signal/event when a property of an object changes...">
<polygon fill="white" stroke="black" points="160.996,-873.229 160.996,-937.233 351.024,-937.233 351.024,-873.229 160.996,-873.229"/>
<text text-anchor="middle" x="256.01" y="-925.233" font-family="Monaco" font-size="10.00">HydroCouple::IPropertyChanged</text>
<polyline fill="none" stroke="black" points="160.996,-915.898 351.024,-915.898 "/>
<text text-anchor="middle" x="256.01" y="-903.898" font-family="Monaco" font-size="10.00"> </text>
<polyline fill="none" stroke="black" points="160.996,-894.563 351.024,-894.563 "/>
<text text-anchor="start" x="168.996" y="-882.563" font-family="Monaco" font-size="10.00">+ ~IPropertyChanged()</text>
</a>
</g>
</g>
<!-- Node7&#45;&gt;Node6 -->
<g id="edge6" class="edge"><title>Node7&#45;&gt;Node6</title>
<path fill="none" stroke="midnightblue" d="M256.01,-862.908C256.01,-854.523 256.01,-845.557 256.01,-836.715"/>
<polygon fill="none" stroke="midnightblue" points="252.51,-863.165 256.01,-873.165 259.51,-863.165 252.51,-863.165"/>
</g>
<!-- Node8&#45;&gt;Node2 -->
<g id="edge7" class="edge"><title>Node8&#45;&gt;Node2</title>
<path fill="none" stroke="midnightblue" d="M195.336,-268.092C187.05,-259.096 178.477,-250.193 170.01,-242.015 157.163,-229.605 142.606,-217.006 128.685,-205.565"/>
<polygon fill="none" stroke="midnightblue" points="192.901,-270.617 202.22,-275.656 198.078,-265.905 192.901,-270.617"/>
</g>
<!-- Node11 -->
<g id="node11" class="node"><title>Node11</title>
<g id="a_node11"><a xlink:href="class_hydro_couple_1_1_spatio_temporal_1_1_i_time2_d_regular_grid_component_item.html" target="_top" xlink:title="The ITime2DRegularGridComponentItem class. ">
<polygon fill="white" stroke="black" points="355.993,-121.507 355.993,-198.847 588.028,-198.847 588.028,-121.507 355.993,-121.507"/>
<text text-anchor="start" x="363.993" y="-186.847" font-family="Monaco" font-size="10.00">HydroCouple::SpatioTemporal</text>
<text text-anchor="middle" x="472.01" y="-173.512" font-family="Monaco" font-size="10.00">::ITime2DRegularGridComponentItem</text>
<polyline fill="none" stroke="black" points="355.993,-164.177 588.028,-164.177 "/>
<text text-anchor="middle" x="472.01" y="-152.177" font-family="Monaco" font-size="10.00"> </text>
<polyline fill="none" stroke="black" points="355.993,-142.842 588.028,-142.842 "/>
<text text-anchor="start" x="363.993" y="-130.842" font-family="Monaco" font-size="10.00">+ ~ITime2DRegularGridComponentItem()</text>
</a>
</g>
</g>
<!-- Node8&#45;&gt;Node11 -->
<g id="edge14" class="edge"><title>Node8&#45;&gt;Node11</title>
<path fill="none" stroke="midnightblue" d="M314.505,-268.295C323.311,-259.027 332.605,-249.999 342.01,-242.015 360.549,-226.277 382.443,-211.462 402.925,-198.921"/>
<polygon fill="none" stroke="midnightblue" points="311.806,-266.059 307.555,-275.764 316.93,-270.827 311.806,-266.059"/>
</g>
<!-- Node9&#45;&gt;Node1 -->
<g id="edge9" class="edge"><title>Node9&#45;&gt;Node1</title>
<path fill="none" stroke="midnightblue" d="M249.01,-104.24C249.01,-95.3846 249.01,-86.394 249.01,-78.0584"/>
<polygon fill="none" stroke="midnightblue" points="245.51,-104.525 249.01,-114.525 252.51,-104.525 245.51,-104.525"/>
</g>
<!-- Node10&#45;&gt;Node9 -->
<g id="edge11" class="edge"><title>Node10&#45;&gt;Node9</title>
<path fill="none" stroke="midnightblue" d="M365.721,-262.6C343.262,-243.082 319.918,-222.796 300.062,-205.541"/>
<polygon fill="none" stroke="midnightblue" points="363.454,-265.266 373.298,-269.183 368.045,-259.982 363.454,-265.266"/>
</g>
<!-- Node10&#45;&gt;Node11 -->
<g id="edge15" class="edge"><title>Node10&#45;&gt;Node11</title>
<path fill="none" stroke="midnightblue" d="M462.724,-258.963C464.715,-238.002 466.763,-216.43 468.428,-198.898"/>
<polygon fill="none" stroke="midnightblue" points="459.215,-258.897 461.754,-269.183 466.183,-259.559 459.215,-258.897"/>
</g>
<!-- Node11&#45;&gt;Node1 -->
<g id="edge13" class="edge"><title>Node11&#45;&gt;Node1</title>
<path fill="none" stroke="midnightblue" d="M392.182,-116.576C368.503,-103.939 342.746,-90.1936 319.691,-77.8897"/>
<polygon fill="none" stroke="midnightblue" points="390.675,-119.739 401.145,-121.359 393.971,-113.563 390.675,-119.739"/>
</g>
</g>
</svg>
