<?xml version="1.0" encoding="UTF-8" standalone="no"?>
<!DOCTYPE svg PUBLIC "-//W3C//DTD SVG 1.1//EN"
 "http://www.w3.org/Graphics/SVG/1.1/DTD/svg11.dtd">
<!-- Generated by graphviz version 2.38.0 (20140413.2041)
 -->
<!-- Title: HydroCouple::SpatioTemporal::ITimeRegularGrid3DComponentDataItem Pages: 1 -->
<svg width="418pt" height="951pt"
 viewBox="0.00 0.00 418.03 951.41" xmlns="http://www.w3.org/2000/svg" xmlns:xlink="http://www.w3.org/1999/xlink">
<g id="graph0" class="graph" transform="scale(1 1) rotate(0) translate(4 947.408)">
<title>HydroCouple::SpatioTemporal::ITimeRegularGrid3DComponentDataItem</title>
<!-- Node1 -->
<g id="node1" class="node"><title>Node1</title>
<polygon fill="#bfbfbf" stroke="black" points="76.9951,-0.5 76.9951,-171.185 315.031,-171.185 315.031,-0.5 76.9951,-0.5"/>
<text text-anchor="start" x="84.9951" y="-159.185" font-family="Monaco" font-size="10.00">HydroCouple::SpatioTemporal</text>
<text text-anchor="middle" x="196.013" y="-145.85" font-family="Monaco" font-size="10.00">::ITimeRegularGrid3DComponentDataItem</text>
<polyline fill="none" stroke="black" points="76.9951,-136.515 315.031,-136.515 "/>
<text text-anchor="middle" x="196.013" y="-124.515" font-family="Monaco" font-size="10.00"> </text>
<polyline fill="none" stroke="black" points="76.9951,-115.18 315.031,-115.18 "/>
<text text-anchor="start" x="84.9951" y="-103.18" font-family="Monaco" font-size="10.00">+ ~ITimeRegularGrid3DComponent</text>
<text text-anchor="start" x="84.9951" y="-89.8447" font-family="Monaco" font-size="10.00">DataItem()</text>
<text text-anchor="start" x="84.9951" y="-76.5098" font-family="Monaco" font-size="10.00">+ getValue()</text>
<text text-anchor="start" x="84.9951" y="-63.1748" font-family="Monaco" font-size="10.00">+ getValues()</text>
<text text-anchor="start" x="84.9951" y="-49.8398" font-family="Monaco" font-size="10.00">+ getValues()</text>
<text text-anchor="start" x="84.9951" y="-36.5049" font-family="Monaco" font-size="10.00">+ setValue()</text>
<text text-anchor="start" x="84.9951" y="-23.1699" font-family="Monaco" font-size="10.00">+ setValues()</text>
<text text-anchor="start" x="84.9951" y="-9.83496" font-family="Monaco" font-size="10.00">+ setValues()</text>
</g>
<!-- Node2 -->
<g id="node2" class="node"><title>Node2</title>
<g id="a_node2"><a xlink:href="class_hydro_couple_1_1_temporal_1_1_i_time_component_data_item.html" target="_top" xlink:title="ITimeComponentItem is an IComponentItem with a temporal attribute. This class cannot be directly inst...">
<polygon fill="none" stroke="black" points="0,-221.52 0,-338.864 178.026,-338.864 178.026,-221.52 0,-221.52"/>
<text text-anchor="start" x="8" y="-326.864" font-family="Monaco" font-size="10.00">HydroCouple::Temporal</text>
<text text-anchor="middle" x="89.0132" y="-313.529" font-family="Monaco" font-size="10.00">::ITimeComponentDataItem</text>
<polyline fill="none" stroke="black" points="0,-304.194 178.026,-304.194 "/>
<text text-anchor="middle" x="89.0132" y="-292.194" font-family="Monaco" font-size="10.00"> </text>
<polyline fill="none" stroke="black" points="0,-282.859 178.026,-282.859 "/>
<text text-anchor="start" x="8" y="-270.859" font-family="Monaco" font-size="10.00">+ ~ITimeComponentDataItem()</text>
<text text-anchor="start" x="8" y="-257.524" font-family="Monaco" font-size="10.00">+ times()</text>
<text text-anchor="start" x="8" y="-244.189" font-family="Monaco" font-size="10.00">+ timeSpan()</text>
<text text-anchor="start" x="8" y="-230.854" font-family="Monaco" font-size="10.00">+ timeDimension()</text>
</a>
</g>
</g>
<!-- Node2&#45;&gt;Node1 -->
<g id="edge1" class="edge"><title>Node2&#45;&gt;Node1</title>
<path fill="none" stroke="midnightblue" d="M126.122,-212.483C133.469,-199.276 141.272,-185.249 148.899,-171.538"/>
<polygon fill="none" stroke="midnightblue" points="122.919,-211.04 121.117,-221.481 129.037,-214.443 122.919,-211.04"/>
</g>
<!-- Node3 -->
<g id="node3" class="node"><title>Node3</title>
<g id="a_node3"><a xlink:href="class_hydro_couple_1_1_i_component_data_item.html" target="_top" xlink:title="IComponentItem is a fundamental unit of data for a component. ">
<polygon fill="none" stroke="black" points="94.998,-389.199 94.998,-573.219 297.028,-573.219 297.028,-389.199 94.998,-389.199"/>
<text text-anchor="middle" x="196.013" y="-561.219" font-family="Monaco" font-size="10.00">HydroCouple::IComponentDataItem</text>
<polyline fill="none" stroke="black" points="94.998,-551.884 297.028,-551.884 "/>
<text text-anchor="middle" x="196.013" y="-539.884" font-family="Monaco" font-size="10.00"> </text>
<polyline fill="none" stroke="black" points="94.998,-530.549 297.028,-530.549 "/>
<text text-anchor="start" x="102.998" y="-518.549" font-family="Monaco" font-size="10.00">+ ~IComponentDataItem()</text>
<text text-anchor="start" x="102.998" y="-505.214" font-family="Monaco" font-size="10.00">+ modelComponent()</text>
<text text-anchor="start" x="102.998" y="-491.879" font-family="Monaco" font-size="10.00">+ dimensions()</text>
<text text-anchor="start" x="102.998" y="-478.544" font-family="Monaco" font-size="10.00">+ valueDefinition()</text>
<text text-anchor="start" x="102.998" y="-465.209" font-family="Monaco" font-size="10.00">+ getValue()</text>
<text text-anchor="start" x="102.998" y="-451.874" font-family="Monaco" font-size="10.00">+ getValues()</text>
<text text-anchor="start" x="102.998" y="-438.539" font-family="Monaco" font-size="10.00">+ getValues()</text>
<text text-anchor="start" x="102.998" y="-425.204" font-family="Monaco" font-size="10.00">+ setValue()</text>
<text text-anchor="start" x="102.998" y="-411.869" font-family="Monaco" font-size="10.00">+ setValues()</text>
<text text-anchor="start" x="102.998" y="-398.534" font-family="Monaco" font-size="10.00">+ setValues()</text>
</a>
</g>
</g>
<!-- Node3&#45;&gt;Node2 -->
<g id="edge2" class="edge"><title>Node3&#45;&gt;Node2</title>
<path fill="none" stroke="midnightblue" d="M142.305,-380.313C134.67,-366.113 127.041,-351.923 120.04,-338.9"/>
<polygon fill="none" stroke="midnightblue" points="139.236,-381.995 147.054,-389.146 145.401,-378.681 139.236,-381.995"/>
</g>
<!-- Node7 -->
<g id="node7" class="node"><title>Node7</title>
<g id="a_node7"><a xlink:href="class_hydro_couple_1_1_spatial_1_1_i_regular_grid3_d_component_data_item.html" target="_top" xlink:title="An IRegularGrid3DComponentItem represents an IRegularGrid3D IComponentItem. ">
<polygon fill="none" stroke="black" points="195.997,-208.185 195.997,-352.199 410.029,-352.199 410.029,-208.185 195.997,-208.185"/>
<text text-anchor="start" x="203.997" y="-340.199" font-family="Monaco" font-size="10.00">HydroCouple::Spatial</text>
<text text-anchor="middle" x="303.013" y="-326.864" font-family="Monaco" font-size="10.00">::IRegularGrid3DComponentDataItem</text>
<polyline fill="none" stroke="black" points="195.997,-317.529 410.029,-317.529 "/>
<text text-anchor="middle" x="303.013" y="-305.529" font-family="Monaco" font-size="10.00"> </text>
<polyline fill="none" stroke="black" points="195.997,-296.194 410.029,-296.194 "/>
<text text-anchor="start" x="203.997" y="-284.194" font-family="Monaco" font-size="10.00">+ ~IRegularGrid3DComponent</text>
<text text-anchor="start" x="203.997" y="-270.859" font-family="Monaco" font-size="10.00">DataItem()</text>
<text text-anchor="start" x="203.997" y="-257.524" font-family="Monaco" font-size="10.00">+ numXCellsDimension()</text>
<text text-anchor="start" x="203.997" y="-244.189" font-family="Monaco" font-size="10.00">+ numYCellsDimension()</text>
<text text-anchor="start" x="203.997" y="-230.854" font-family="Monaco" font-size="10.00">+ numZCellsDimension()</text>
<text text-anchor="start" x="203.997" y="-217.52" font-family="Monaco" font-size="10.00">+ grid()</text>
</a>
</g>
</g>
<!-- Node3&#45;&gt;Node7 -->
<g id="edge7" class="edge"><title>Node3&#45;&gt;Node7</title>
<path fill="none" stroke="midnightblue" d="M249.821,-380.128C254.883,-370.713 259.941,-361.304 264.815,-352.24"/>
<polygon fill="none" stroke="midnightblue" points="246.625,-378.681 244.973,-389.146 252.791,-381.995 246.625,-378.681"/>
</g>
<!-- Node4 -->
<g id="node4" class="node"><title>Node4</title>
<g id="a_node4"><a xlink:href="class_hydro_couple_1_1_i_identity.html" target="_top" xlink:title="IIdentity interface class defines a method to get the Id of an HydroCouple entity. ">
<polygon fill="none" stroke="black" points="122.002,-610.219 122.002,-687.559 270.024,-687.559 270.024,-610.219 122.002,-610.219"/>
<text text-anchor="middle" x="196.013" y="-675.559" font-family="Monaco" font-size="10.00">HydroCouple::IIdentity</text>
<polyline fill="none" stroke="black" points="122.002,-666.224 270.024,-666.224 "/>
<text text-anchor="middle" x="196.013" y="-654.224" font-family="Monaco" font-size="10.00"> </text>
<polyline fill="none" stroke="black" points="122.002,-644.889 270.024,-644.889 "/>
<text text-anchor="start" x="130.002" y="-632.889" font-family="Monaco" font-size="10.00">+ ~IIdentity()</text>
<text text-anchor="start" x="130.002" y="-619.554" font-family="Monaco" font-size="10.00">+ id()</text>
</a>
</g>
</g>
<!-- Node4&#45;&gt;Node3 -->
<g id="edge3" class="edge"><title>Node4&#45;&gt;Node3</title>
<path fill="none" stroke="midnightblue" d="M196.013,-599.636C196.013,-591.283 196.013,-582.358 196.013,-573.3"/>
<polygon fill="none" stroke="midnightblue" points="192.513,-599.878 196.013,-609.878 199.513,-599.878 192.513,-599.878"/>
</g>
<!-- Node5 -->
<g id="node5" class="node"><title>Node5</title>
<g id="a_node5"><a xlink:href="class_hydro_couple_1_1_i_description.html" target="_top" xlink:title="IDescription interface class provides descriptive information on a HydroCouple object. ">
<polygon fill="none" stroke="black" points="113.001,-724.559 113.001,-841.903 279.025,-841.903 279.025,-724.559 113.001,-724.559"/>
<text text-anchor="middle" x="196.013" y="-829.903" font-family="Monaco" font-size="10.00">HydroCouple::IDescription</text>
<polyline fill="none" stroke="black" points="113.001,-820.568 279.025,-820.568 "/>
<text text-anchor="middle" x="196.013" y="-808.568" font-family="Monaco" font-size="10.00"> </text>
<polyline fill="none" stroke="black" points="113.001,-799.233 279.025,-799.233 "/>
<text text-anchor="start" x="121.001" y="-787.233" font-family="Monaco" font-size="10.00">+ ~IDescription()</text>
<text text-anchor="start" x="121.001" y="-773.898" font-family="Monaco" font-size="10.00">+ caption()</text>
<text text-anchor="start" x="121.001" y="-760.563" font-family="Monaco" font-size="10.00">+ setCaption()</text>
<text text-anchor="start" x="121.001" y="-747.229" font-family="Monaco" font-size="10.00">+ description()</text>
<text text-anchor="start" x="121.001" y="-733.894" font-family="Monaco" font-size="10.00">+ setDescription()</text>
</a>
</g>
</g>
<!-- Node5&#45;&gt;Node4 -->
<g id="edge4" class="edge"><title>Node5&#45;&gt;Node4</title>
<path fill="none" stroke="midnightblue" d="M196.013,-713.993C196.013,-704.954 196.013,-695.966 196.013,-687.706"/>
<polygon fill="none" stroke="midnightblue" points="192.513,-714.184 196.013,-724.184 199.513,-714.184 192.513,-714.184"/>
</g>
<!-- Node6 -->
<g id="node6" class="node"><title>Node6</title>
<g id="a_node6"><a xlink:href="class_hydro_couple_1_1_i_property_changed.html" target="_top" xlink:title="IPropertyChanged interface is used to emit signal/event when a property of an object changes...">
<polygon fill="none" stroke="black" points="100.999,-878.903 100.999,-942.908 291.027,-942.908 291.027,-878.903 100.999,-878.903"/>
<text text-anchor="middle" x="196.013" y="-930.908" font-family="Monaco" font-size="10.00">HydroCouple::IPropertyChanged</text>
<polyline fill="none" stroke="black" points="100.999,-921.573 291.027,-921.573 "/>
<text text-anchor="middle" x="196.013" y="-909.573" font-family="Monaco" font-size="10.00"> </text>
<polyline fill="none" stroke="black" points="100.999,-900.238 291.027,-900.238 "/>
<text text-anchor="start" x="108.999" y="-888.238" font-family="Monaco" font-size="10.00">+ ~IPropertyChanged()</text>
</a>
</g>
</g>
<!-- Node6&#45;&gt;Node5 -->
<g id="edge5" class="edge"><title>Node6&#45;&gt;Node5</title>
<path fill="none" stroke="midnightblue" d="M196.013,-868.583C196.013,-860.198 196.013,-851.231 196.013,-842.389"/>
<polygon fill="none" stroke="midnightblue" points="192.513,-868.84 196.013,-878.84 199.513,-868.84 192.513,-868.84"/>
</g>
<!-- Node7&#45;&gt;Node1 -->
<g id="edge6" class="edge"><title>Node7&#45;&gt;Node1</title>
<path fill="none" stroke="midnightblue" d="M258.582,-199.319C253.435,-190.067 248.173,-180.608 242.994,-171.297"/>
<polygon fill="none" stroke="midnightblue" points="255.554,-201.077 263.474,-208.114 261.672,-197.674 255.554,-201.077"/>
</g>
</g>
</svg>
