<?xml version="1.0" encoding="UTF-8" standalone="no"?>
<!DOCTYPE svg PUBLIC "-//W3C//DTD SVG 1.1//EN"
 "http://www.w3.org/Graphics/SVG/1.1/DTD/svg11.dtd">
<!-- Generated by graphviz version 2.38.0 (20140413.2041)
 -->
<!-- Title: HydroCouple::IComponentDataItem::setValue Pages: 1 -->
<svg width="454pt" height="124pt"
 viewBox="0.00 0.00 454.06 124.00" xmlns="http://www.w3.org/2000/svg" xmlns:xlink="http://www.w3.org/1999/xlink">
<g id="graph0" class="graph" transform="scale(1 1) rotate(0) translate(4 120.005)">
<title>HydroCouple::IComponentDataItem::setValue</title>
<!-- Node1 -->
<g id="node1" class="node"><title>Node1</title>
<polygon fill="#bfbfbf" stroke="black" points="0,-40.1675 0,-74.8374 178.026,-74.8374 178.026,-40.1675 0,-40.1675"/>
<text text-anchor="start" x="8" y="-62.8374" font-family="Monaco" font-size="10.00">HydroCouple::IComponentData</text>
<text text-anchor="middle" x="89.0132" y="-49.5024" font-family="Monaco" font-size="10.00">Item::setValue</text>
</g>
<!-- Node2 -->
<g id="node2" class="node"><title>Node2</title>
<g id="a_node2"><a xlink:href="class_hydro_couple_1_1_temporal_1_1_i_time_component_data_item.html#a695ebdd6e16065be403c64c74a7799ea" target="_top" xlink:title="~ITimeComponentItem. ">
<polygon fill="none" stroke="black" points="247.032,-67.5 247.032,-115.505 413.056,-115.505 413.056,-67.5 247.032,-67.5"/>
<text text-anchor="start" x="255.032" y="-103.505" font-family="Monaco" font-size="10.00">HydroCouple::Temporal</text>
<text text-anchor="start" x="255.032" y="-90.1699" font-family="Monaco" font-size="10.00">::ITimeComponentDataItem</text>
<text text-anchor="middle" x="330.044" y="-76.835" font-family="Monaco" font-size="10.00">::~ITimeComponentDataItem</text>
</a>
</g>
</g>
<!-- Node1&#45;&gt;Node2 -->
<g id="edge1" class="edge"><title>Node1&#45;&gt;Node2</title>
<path fill="none" stroke="midnightblue" d="M188.442,-71.5031C207.916,-74.273 228.16,-77.1527 247.02,-79.8352"/>
<polygon fill="midnightblue" stroke="midnightblue" points="188.734,-68.0094 178.34,-70.0662 187.748,-74.9396 188.734,-68.0094"/>
</g>
<!-- Node3 -->
<g id="node3" class="node"><title>Node3</title>
<g id="a_node3"><a xlink:href="class_hydro_couple_1_1_temporal_1_1_i_time_id_based_component_data_item.html#a2385affdca01e2455aa6c8ac38250fa2" target="_top" xlink:title="HydroCouple::Temporal\l::ITimeIdBasedComponentData\lItem::~ITimeIdBasedComponentDataItem">
<polygon fill="none" stroke="black" points="214.026,-0.5 214.026,-48.5049 446.062,-48.5049 446.062,-0.5 214.026,-0.5"/>
<text text-anchor="start" x="222.026" y="-36.5049" font-family="Monaco" font-size="10.00">HydroCouple::Temporal</text>
<text text-anchor="start" x="222.026" y="-23.1699" font-family="Monaco" font-size="10.00">::ITimeIdBasedComponentData</text>
<text text-anchor="middle" x="330.044" y="-9.83496" font-family="Monaco" font-size="10.00">Item::~ITimeIdBasedComponentDataItem</text>
</a>
</g>
</g>
<!-- Node1&#45;&gt;Node3 -->
<g id="edge2" class="edge"><title>Node1&#45;&gt;Node3</title>
<path fill="none" stroke="midnightblue" d="M188.467,-43.9101C196.837,-42.7546 205.349,-41.5795 213.832,-40.4083"/>
<polygon fill="midnightblue" stroke="midnightblue" points="187.768,-40.4734 178.34,-45.3082 188.725,-47.4076 187.768,-40.4734"/>
</g>
</g>
</svg>
