<?xml version="1.0" encoding="UTF-8" standalone="no"?>
<!DOCTYPE svg PUBLIC "-//W3C//DTD SVG 1.1//EN"
 "http://www.w3.org/Graphics/SVG/1.1/DTD/svg11.dtd">
<!-- Generated by graphviz version 2.38.0 (20140413.2041)
 -->
<!-- Title: HydroCoupleSDK::ComponentStatusChangeEventArgs Pages: 1 -->
<svg width="319pt" height="427pt"
 viewBox="0.00 0.00 319.03 427.37" xmlns="http://www.w3.org/2000/svg" xmlns:xlink="http://www.w3.org/1999/xlink">
<g id="graph0" class="graph" transform="scale(1 1) rotate(0) translate(4 423.374)">
<title>HydroCoupleSDK::ComponentStatusChangeEventArgs</title>
<polygon fill="white" stroke="none" points="-4,4 -4,-423.374 315.035,-423.374 315.035,4 -4,4"/>
<!-- Node1 -->
<g id="node1" class="node"><title>Node1</title>
<polygon fill="#bfbfbf" stroke="black" points="0,-0.5 0,-224.524 226.034,-224.524 226.034,-0.5 0,-0.5"/>
<text text-anchor="start" x="8" y="-212.524" font-family="Monaco" font-size="10.00">HydroCoupleSDK::Component</text>
<text text-anchor="middle" x="113.017" y="-199.189" font-family="Monaco" font-size="10.00">StatusChangeEventArgs</text>
<polyline fill="none" stroke="black" points="0,-189.854 226.034,-189.854 "/>
<text text-anchor="start" x="8" y="-177.854" font-family="Monaco" font-size="10.00">+ Component</text>
<text text-anchor="start" x="8" y="-164.52" font-family="Monaco" font-size="10.00">+ OldStatus</text>
<text text-anchor="start" x="8" y="-151.185" font-family="Monaco" font-size="10.00">+ NewStatus</text>
<text text-anchor="start" x="8" y="-137.85" font-family="Monaco" font-size="10.00">+ Message</text>
<polyline fill="none" stroke="black" points="0,-128.515 226.034,-128.515 "/>
<text text-anchor="start" x="8" y="-116.515" font-family="Monaco" font-size="10.00">+ ComponentStatusChangeEventArgs()</text>
<text text-anchor="start" x="8" y="-103.18" font-family="Monaco" font-size="10.00">+ ComponentStatusChangeEventArgs()</text>
<text text-anchor="start" x="8" y="-89.8447" font-family="Monaco" font-size="10.00">+ ~ComponentStatusChangeEventArgs()</text>
<text text-anchor="start" x="8" y="-76.5098" font-family="Monaco" font-size="10.00">+ component()</text>
<text text-anchor="start" x="8" y="-63.1748" font-family="Monaco" font-size="10.00">+ oldStatus()</text>
<text text-anchor="start" x="8" y="-49.8398" font-family="Monaco" font-size="10.00">+ newStatus()</text>
<text text-anchor="start" x="8" y="-36.5049" font-family="Monaco" font-size="10.00">+ message()</text>
<text text-anchor="start" x="8" y="-23.1699" font-family="Monaco" font-size="10.00">+ hasProgressMonitor()</text>
<text text-anchor="start" x="8" y="-9.83496" font-family="Monaco" font-size="10.00">+ percentProgress()</text>
</g>
<!-- Node2 -->
<g id="node2" class="node"><title>Node2</title>
<polygon fill="white" stroke="#bfbfbf" points="3.01367,-308.197 3.01367,-372.202 61.0205,-372.202 61.0205,-308.197 3.01367,-308.197"/>
<text text-anchor="middle" x="32.0171" y="-360.202" font-family="Monaco" font-size="10.00">QObject</text>
<polyline fill="none" stroke="#bfbfbf" points="3.01367,-350.867 61.0205,-350.867 "/>
<text text-anchor="middle" x="32.0171" y="-338.867" font-family="Monaco" font-size="10.00"> </text>
<polyline fill="none" stroke="#bfbfbf" points="3.01367,-329.532 61.0205,-329.532 "/>
<text text-anchor="middle" x="32.0171" y="-317.532" font-family="Monaco" font-size="10.00"> </text>
</g>
<!-- Node2&#45;&gt;Node1 -->
<g id="edge1" class="edge"><title>Node2&#45;&gt;Node1</title>
<path fill="none" stroke="midnightblue" d="M46.6755,-298.357C54.1601,-277.503 63.6668,-251.015 73.1289,-224.651"/>
<polygon fill="none" stroke="midnightblue" points="43.3637,-297.224 43.2798,-307.818 49.9522,-299.589 43.3637,-297.224"/>
</g>
<!-- Node3 -->
<g id="node3" class="node"><title>Node3</title>
<g id="a_node3"><a xlink:href="class_hydro_couple_1_1_i_component_status_change_event_args.html" target="_top" xlink:title="The IComponentStatusChangeEventArgs contains the information that will be passed when the IModelCompo...">
<polygon fill="white" stroke="black" points="78.9995,-261.524 78.9995,-418.874 311.035,-418.874 311.035,-261.524 78.9995,-261.524"/>
<text text-anchor="start" x="86.9995" y="-406.874" font-family="Monaco" font-size="10.00">HydroCouple::IComponentStatus</text>
<text text-anchor="middle" x="195.017" y="-393.539" font-family="Monaco" font-size="10.00">ChangeEventArgs</text>
<polyline fill="none" stroke="black" points="78.9995,-384.204 311.035,-384.204 "/>
<text text-anchor="middle" x="195.017" y="-372.204" font-family="Monaco" font-size="10.00"> </text>
<polyline fill="none" stroke="black" points="78.9995,-362.869 311.035,-362.869 "/>
<text text-anchor="start" x="86.9995" y="-350.869" font-family="Monaco" font-size="10.00">+ ~IComponentStatusChangeEventArgs()</text>
<text text-anchor="start" x="86.9995" y="-337.534" font-family="Monaco" font-size="10.00">+ component()</text>
<text text-anchor="start" x="86.9995" y="-324.199" font-family="Monaco" font-size="10.00">+ oldStatus()</text>
<text text-anchor="start" x="86.9995" y="-310.864" font-family="Monaco" font-size="10.00">+ newStatus()</text>
<text text-anchor="start" x="86.9995" y="-297.529" font-family="Monaco" font-size="10.00">+ message()</text>
<text text-anchor="start" x="86.9995" y="-284.194" font-family="Monaco" font-size="10.00">+ hasProgressMonitor()</text>
<text text-anchor="start" x="86.9995" y="-270.859" font-family="Monaco" font-size="10.00">+ percentProgress()</text>
</a>
</g>
</g>
<!-- Node3&#45;&gt;Node1 -->
<g id="edge2" class="edge"><title>Node3&#45;&gt;Node1</title>
<path fill="none" stroke="midnightblue" d="M163.212,-251.663C159.981,-242.771 156.67,-233.657 153.364,-224.559"/>
<polygon fill="none" stroke="midnightblue" points="159.978,-253.011 166.683,-261.215 166.557,-250.62 159.978,-253.011"/>
</g>
</g>
</svg>
