<?xml version="1.0" encoding="UTF-8" standalone="no"?>
<!DOCTYPE svg PUBLIC "-//W3C//DTD SVG 1.1//EN"
 "http://www.w3.org/Graphics/SVG/1.1/DTD/svg11.dtd">
<!-- Generated by graphviz version 2.38.0 (20140413.2041)
 -->
<!-- Title: HydroCouple::Spatial::IRegularGrid3DOnlyComponentDataItem Pages: 1 -->
<svg width="222pt" height="965pt"
 viewBox="0.00 0.00 222.03 964.74" xmlns="http://www.w3.org/2000/svg" xmlns:xlink="http://www.w3.org/1999/xlink">
<g id="graph0" class="graph" transform="scale(1 1) rotate(0) translate(4 960.743)">
<title>HydroCouple::Spatial::IRegularGrid3DOnlyComponentDataItem</title>
<!-- Node1 -->
<g id="node1" class="node"><title>Node1</title>
<polygon fill="#bfbfbf" stroke="black" points="9.00146,-0.5 9.00146,-184.52 205.031,-184.52 205.031,-0.5 9.00146,-0.5"/>
<text text-anchor="start" x="17.0015" y="-172.52" font-family="Monaco" font-size="10.00">HydroCouple::Spatial</text>
<text text-anchor="start" x="17.0015" y="-159.185" font-family="Monaco" font-size="10.00">::IRegularGrid3DOnlyComponent</text>
<text text-anchor="middle" x="107.016" y="-145.85" font-family="Monaco" font-size="10.00">DataItem</text>
<polyline fill="none" stroke="black" points="9.00146,-136.515 205.031,-136.515 "/>
<text text-anchor="middle" x="107.016" y="-124.515" font-family="Monaco" font-size="10.00"> </text>
<polyline fill="none" stroke="black" points="9.00146,-115.18 205.031,-115.18 "/>
<text text-anchor="start" x="17.0015" y="-103.18" font-family="Monaco" font-size="10.00">+ ~IRegularGrid3DOnlyComponent</text>
<text text-anchor="start" x="17.0015" y="-89.8447" font-family="Monaco" font-size="10.00">DataItem()</text>
<text text-anchor="start" x="17.0015" y="-76.5098" font-family="Monaco" font-size="10.00">+ getValue()</text>
<text text-anchor="start" x="17.0015" y="-63.1748" font-family="Monaco" font-size="10.00">+ getValues()</text>
<text text-anchor="start" x="17.0015" y="-49.8398" font-family="Monaco" font-size="10.00">+ getValues()</text>
<text text-anchor="start" x="17.0015" y="-36.5049" font-family="Monaco" font-size="10.00">+ setValue()</text>
<text text-anchor="start" x="17.0015" y="-23.1699" font-family="Monaco" font-size="10.00">+ setValues()</text>
<text text-anchor="start" x="17.0015" y="-9.83496" font-family="Monaco" font-size="10.00">+ setValues()</text>
</g>
<!-- Node2 -->
<g id="node2" class="node"><title>Node2</title>
<g id="a_node2"><a xlink:href="class_hydro_couple_1_1_spatial_1_1_i_regular_grid3_d_component_data_item.html" target="_top" xlink:title="An IRegularGrid3DComponentItem represents an IRegularGrid3D IComponentItem. ">
<polygon fill="none" stroke="black" points="0,-221.52 0,-365.534 214.032,-365.534 214.032,-221.52 0,-221.52"/>
<text text-anchor="start" x="8" y="-353.534" font-family="Monaco" font-size="10.00">HydroCouple::Spatial</text>
<text text-anchor="middle" x="107.016" y="-340.199" font-family="Monaco" font-size="10.00">::IRegularGrid3DComponentDataItem</text>
<polyline fill="none" stroke="black" points="0,-330.864 214.032,-330.864 "/>
<text text-anchor="middle" x="107.016" y="-318.864" font-family="Monaco" font-size="10.00"> </text>
<polyline fill="none" stroke="black" points="0,-309.529 214.032,-309.529 "/>
<text text-anchor="start" x="8" y="-297.529" font-family="Monaco" font-size="10.00">+ ~IRegularGrid3DComponent</text>
<text text-anchor="start" x="8" y="-284.194" font-family="Monaco" font-size="10.00">DataItem()</text>
<text text-anchor="start" x="8" y="-270.859" font-family="Monaco" font-size="10.00">+ numXCellsDimension()</text>
<text text-anchor="start" x="8" y="-257.524" font-family="Monaco" font-size="10.00">+ numYCellsDimension()</text>
<text text-anchor="start" x="8" y="-244.189" font-family="Monaco" font-size="10.00">+ numZCellsDimension()</text>
<text text-anchor="start" x="8" y="-230.854" font-family="Monaco" font-size="10.00">+ grid()</text>
</a>
</g>
</g>
<!-- Node2&#45;&gt;Node1 -->
<g id="edge1" class="edge"><title>Node2&#45;&gt;Node1</title>
<path fill="none" stroke="midnightblue" d="M107.016,-211.143C107.016,-202.454 107.016,-193.573 107.016,-184.78"/>
<polygon fill="none" stroke="midnightblue" points="103.516,-211.239 107.016,-221.239 110.516,-211.239 103.516,-211.239"/>
</g>
<!-- Node3 -->
<g id="node3" class="node"><title>Node3</title>
<g id="a_node3"><a xlink:href="class_hydro_couple_1_1_i_component_data_item.html" target="_top" xlink:title="IComponentItem is a fundamental unit of data for a component. ">
<polygon fill="none" stroke="black" points="6.00098,-402.534 6.00098,-586.554 208.031,-586.554 208.031,-402.534 6.00098,-402.534"/>
<text text-anchor="middle" x="107.016" y="-574.554" font-family="Monaco" font-size="10.00">HydroCouple::IComponentDataItem</text>
<polyline fill="none" stroke="black" points="6.00098,-565.219 208.031,-565.219 "/>
<text text-anchor="middle" x="107.016" y="-553.219" font-family="Monaco" font-size="10.00"> </text>
<polyline fill="none" stroke="black" points="6.00098,-543.884 208.031,-543.884 "/>
<text text-anchor="start" x="14.001" y="-531.884" font-family="Monaco" font-size="10.00">+ ~IComponentDataItem()</text>
<text text-anchor="start" x="14.001" y="-518.549" font-family="Monaco" font-size="10.00">+ modelComponent()</text>
<text text-anchor="start" x="14.001" y="-505.214" font-family="Monaco" font-size="10.00">+ dimensions()</text>
<text text-anchor="start" x="14.001" y="-491.879" font-family="Monaco" font-size="10.00">+ valueDefinition()</text>
<text text-anchor="start" x="14.001" y="-478.544" font-family="Monaco" font-size="10.00">+ getValue()</text>
<text text-anchor="start" x="14.001" y="-465.209" font-family="Monaco" font-size="10.00">+ getValues()</text>
<text text-anchor="start" x="14.001" y="-451.874" font-family="Monaco" font-size="10.00">+ getValues()</text>
<text text-anchor="start" x="14.001" y="-438.539" font-family="Monaco" font-size="10.00">+ setValue()</text>
<text text-anchor="start" x="14.001" y="-425.204" font-family="Monaco" font-size="10.00">+ setValues()</text>
<text text-anchor="start" x="14.001" y="-411.869" font-family="Monaco" font-size="10.00">+ setValues()</text>
</a>
</g>
</g>
<!-- Node3&#45;&gt;Node2 -->
<g id="edge2" class="edge"><title>Node3&#45;&gt;Node2</title>
<path fill="none" stroke="midnightblue" d="M107.016,-392.298C107.016,-383.272 107.016,-374.265 107.016,-365.575"/>
<polygon fill="none" stroke="midnightblue" points="103.516,-392.481 107.016,-402.481 110.516,-392.481 103.516,-392.481"/>
</g>
<!-- Node4 -->
<g id="node4" class="node"><title>Node4</title>
<g id="a_node4"><a xlink:href="class_hydro_couple_1_1_i_identity.html" target="_top" xlink:title="IIdentity interface class defines a method to get the Id of an HydroCouple entity. ">
<polygon fill="none" stroke="black" points="33.0054,-623.554 33.0054,-700.894 181.027,-700.894 181.027,-623.554 33.0054,-623.554"/>
<text text-anchor="middle" x="107.016" y="-688.894" font-family="Monaco" font-size="10.00">HydroCouple::IIdentity</text>
<polyline fill="none" stroke="black" points="33.0054,-679.559 181.027,-679.559 "/>
<text text-anchor="middle" x="107.016" y="-667.559" font-family="Monaco" font-size="10.00"> </text>
<polyline fill="none" stroke="black" points="33.0054,-658.224 181.027,-658.224 "/>
<text text-anchor="start" x="41.0054" y="-646.224" font-family="Monaco" font-size="10.00">+ ~IIdentity()</text>
<text text-anchor="start" x="41.0054" y="-632.889" font-family="Monaco" font-size="10.00">+ id()</text>
</a>
</g>
</g>
<!-- Node4&#45;&gt;Node3 -->
<g id="edge3" class="edge"><title>Node4&#45;&gt;Node3</title>
<path fill="none" stroke="midnightblue" d="M107.016,-612.971C107.016,-604.618 107.016,-595.693 107.016,-586.635"/>
<polygon fill="none" stroke="midnightblue" points="103.516,-613.213 107.016,-623.213 110.516,-613.213 103.516,-613.213"/>
</g>
<!-- Node5 -->
<g id="node5" class="node"><title>Node5</title>
<g id="a_node5"><a xlink:href="class_hydro_couple_1_1_i_description.html" target="_top" xlink:title="IDescription interface class provides descriptive information on a HydroCouple object. ">
<polygon fill="none" stroke="black" points="24.0039,-737.894 24.0039,-855.238 190.028,-855.238 190.028,-737.894 24.0039,-737.894"/>
<text text-anchor="middle" x="107.016" y="-843.238" font-family="Monaco" font-size="10.00">HydroCouple::IDescription</text>
<polyline fill="none" stroke="black" points="24.0039,-833.903 190.028,-833.903 "/>
<text text-anchor="middle" x="107.016" y="-821.903" font-family="Monaco" font-size="10.00"> </text>
<polyline fill="none" stroke="black" points="24.0039,-812.568 190.028,-812.568 "/>
<text text-anchor="start" x="32.0039" y="-800.568" font-family="Monaco" font-size="10.00">+ ~IDescription()</text>
<text text-anchor="start" x="32.0039" y="-787.233" font-family="Monaco" font-size="10.00">+ caption()</text>
<text text-anchor="start" x="32.0039" y="-773.898" font-family="Monaco" font-size="10.00">+ setCaption()</text>
<text text-anchor="start" x="32.0039" y="-760.563" font-family="Monaco" font-size="10.00">+ description()</text>
<text text-anchor="start" x="32.0039" y="-747.229" font-family="Monaco" font-size="10.00">+ setDescription()</text>
</a>
</g>
</g>
<!-- Node5&#45;&gt;Node4 -->
<g id="edge4" class="edge"><title>Node5&#45;&gt;Node4</title>
<path fill="none" stroke="midnightblue" d="M107.016,-727.328C107.016,-718.289 107.016,-709.301 107.016,-701.041"/>
<polygon fill="none" stroke="midnightblue" points="103.516,-727.519 107.016,-737.519 110.516,-727.519 103.516,-727.519"/>
</g>
<!-- Node6 -->
<g id="node6" class="node"><title>Node6</title>
<g id="a_node6"><a xlink:href="class_hydro_couple_1_1_i_property_changed.html" target="_top" xlink:title="IPropertyChanged interface is used to emit signal/event when a property of an object changes...">
<polygon fill="none" stroke="black" points="12.002,-892.238 12.002,-956.243 202.03,-956.243 202.03,-892.238 12.002,-892.238"/>
<text text-anchor="middle" x="107.016" y="-944.243" font-family="Monaco" font-size="10.00">HydroCouple::IPropertyChanged</text>
<polyline fill="none" stroke="black" points="12.002,-934.908 202.03,-934.908 "/>
<text text-anchor="middle" x="107.016" y="-922.908" font-family="Monaco" font-size="10.00"> </text>
<polyline fill="none" stroke="black" points="12.002,-913.573 202.03,-913.573 "/>
<text text-anchor="start" x="20.002" y="-901.573" font-family="Monaco" font-size="10.00">+ ~IPropertyChanged()</text>
</a>
</g>
</g>
<!-- Node6&#45;&gt;Node5 -->
<g id="edge5" class="edge"><title>Node6&#45;&gt;Node5</title>
<path fill="none" stroke="midnightblue" d="M107.016,-881.918C107.016,-873.533 107.016,-864.566 107.016,-855.724"/>
<polygon fill="none" stroke="midnightblue" points="103.516,-882.175 107.016,-892.175 110.516,-882.175 103.516,-882.175"/>
</g>
</g>
</svg>
