<?xml version="1.0" encoding="UTF-8" standalone="no"?>
<!DOCTYPE svg PUBLIC "-//W3C//DTD SVG 1.1//EN"
 "http://www.w3.org/Graphics/SVG/1.1/DTD/svg11.dtd">
<!-- Generated by graphviz version 2.38.0 (20140413.2041)
 -->
<!-- Title: HydroCouple::SpatioTemporal::ITimeGeometryComponentDataItem::times Pages: 1 -->
<!--zoomable 406 -->
<svg id="main" version="1.1" xmlns="http://www.w3.org/2000/svg" xmlns:xlink="http://www.w3.org/1999/xlink" xml:space="preserve" onload="init(evt)">
<style type="text/css"><![CDATA[
.edge:hover path { stroke: red; }
.edge:hover polygon { stroke: red; fill: red; }
]]></style>
<script type="text/javascript"><![CDATA[
var edges = document.getElementsByTagName('g');
if (edges && edges.length) {
  for (var i=0;i<edges.length;i++) {
    if (edges[i].id.substr(0,4)=='edge') {
      edges[i].setAttribute('class','edge');
    }
  }
}
]]></script>
        <defs>
                <circle id="rim" cx="0" cy="0" r="7"/>
                <circle id="rim2" cx="0" cy="0" r="3.5"/>
                <g id="zoomPlus">
                        <use xlink:href="#rim" fill="#404040">
                                <set attributeName="fill" to="#808080" begin="zoomplus.mouseover" end="zoomplus.mouseout"/>
                        </use>
                        <path d="M-4,0h8M0,-4v8" fill="none" stroke="white" stroke-width="1.5" pointer-events="none"/>
                </g>
                <g id="zoomMin">
                        <use xlink:href="#rim" fill="#404040">
                                <set attributeName="fill" to="#808080" begin="zoomminus.mouseover" end="zoomminus.mouseout"/>
                        </use>
                        <path d="M-4,0h8" fill="none" stroke="white" stroke-width="1.5" pointer-events="none"/>
                </g>
                <g id="dirArrow">
                        <path fill="none" stroke="white" stroke-width="1.5" d="M0,-3.0v7 M-2.5,-0.5L0,-3.0L2.5,-0.5"/>
                </g>
               <g id="resetDef">
                       <use xlink:href="#rim2" fill="#404040">
                               <set attributeName="fill" to="#808080" begin="reset.mouseover" end="reset.mouseout"/>
                       </use>
               </g>
        </defs>

<script type="text/javascript">
var viewWidth = 562;
var viewHeight = 406;
var sectionId = 'dynsection-11';
</script>
<script xlink:href="svgpan.js"/>
<svg id="graph" class="graph">
<g id="viewport">
<title>HydroCouple::SpatioTemporal::ITimeGeometryComponentDataItem::times</title>
<polygon fill="white" stroke="none" points="-4,4 -4,-402.005 558.079,-402.005 558.079,4 -4,4"/>
<!-- Node1 -->
<g id="node1" class="node"><title>Node1</title>
<polygon fill="#bfbfbf" stroke="black" points="0,-178.167 0,-212.837 250.038,-212.837 250.038,-178.167 0,-178.167"/>
<text text-anchor="start" x="8" y="-200.837" font-family="Monaco" font-size="10.00">HydroCouple::SpatioTemporal</text>
<text text-anchor="middle" x="125.019" y="-187.502" font-family="Monaco" font-size="10.00">::ITimeGeometryComponentDataItem::times</text>
</g>
<!-- Node2 -->
<g id="node2" class="node"><title>Node2</title>
<g id="a_node2"><a xlink:href="class_hydro_couple_1_1_spatio_temporal_1_1_i_time_geometry_component_data_item.html#a57c46ea91026f9f9bae578261bb89c38" target="_top" xlink:title="~ITimeGeometryComponentItem. ">
<polygon fill="white" stroke="black" points="313.042,-349.5 313.042,-397.505 527.075,-397.505 527.075,-349.5 313.042,-349.5"/>
<text text-anchor="start" x="321.042" y="-385.505" font-family="Monaco" font-size="10.00">HydroCouple::SpatioTemporal</text>
<text text-anchor="start" x="321.042" y="-372.17" font-family="Monaco" font-size="10.00">::ITimeGeometryComponentDataItem</text>
<text text-anchor="middle" x="420.059" y="-358.835" font-family="Monaco" font-size="10.00">::~ITimeGeometryComponentDataItem</text>
</a>
</g>
</g>
<!-- Node1&#45;&gt;Node2 -->
<g id="edge1" class="edge"><title>Node1&#45;&gt;Node2</title>
<path fill="none" stroke="midnightblue" d="M146.922,-221.027C175.091,-253.71 228.394,-309.779 286.038,-340.502 294.437,-344.979 303.459,-348.862 312.704,-352.228"/>
<polygon fill="midnightblue" stroke="midnightblue" points="149.458,-218.605 140.315,-213.251 144.123,-223.138 149.458,-218.605"/>
</g>
<!-- Node3 -->
<g id="node3" class="node"><title>Node3</title>
<g id="a_node3"><a xlink:href="class_hydro_couple_1_1_spatio_temporal_1_1_i_time_t_i_n_component_data_item.html#a0e3d64ed6dff6103679b1bb6473ac0ea" target="_top" xlink:title="~ITimeTINComponentItem. ">
<polygon fill="white" stroke="black" points="328.045,-282.5 328.045,-330.505 512.072,-330.505 512.072,-282.5 328.045,-282.5"/>
<text text-anchor="start" x="336.045" y="-318.505" font-family="Monaco" font-size="10.00">HydroCouple::SpatioTemporal</text>
<text text-anchor="start" x="336.045" y="-305.17" font-family="Monaco" font-size="10.00">::ITimeTINComponentDataItem</text>
<text text-anchor="middle" x="420.059" y="-291.835" font-family="Monaco" font-size="10.00">::~ITimeTINComponentDataItem</text>
</a>
</g>
</g>
<!-- Node1&#45;&gt;Node3 -->
<g id="edge2" class="edge"><title>Node1&#45;&gt;Node3</title>
<path fill="none" stroke="midnightblue" d="M166.381,-217.688C198.17,-234.477 243.986,-257.182 286.038,-272.502 299.364,-277.357 313.681,-281.792 327.809,-285.74"/>
<polygon fill="midnightblue" stroke="midnightblue" points="167.866,-214.514 157.394,-212.902 164.576,-220.692 167.866,-214.514"/>
</g>
<!-- Node4 -->
<g id="node4" class="node"><title>Node4</title>
<g id="a_node4"><a xlink:href="class_hydro_couple_1_1_spatio_temporal_1_1_i_time_polyhedral_surface_component_data_item.html#a7f4b0fdba01f40134aa118e3eda58ccd" target="_top" xlink:title="~ITimePolyhedralSurfaceComponentItem. ">
<polygon fill="white" stroke="black" points="286.038,-201.833 286.038,-263.172 554.079,-263.172 554.079,-201.833 286.038,-201.833"/>
<text text-anchor="start" x="294.038" y="-251.172" font-family="Monaco" font-size="10.00">HydroCouple::SpatioTemporal</text>
<text text-anchor="start" x="294.038" y="-237.837" font-family="Monaco" font-size="10.00">::ITimePolyhedralSurfaceComponent</text>
<text text-anchor="start" x="294.038" y="-224.502" font-family="Monaco" font-size="10.00">DataItem::~ITimePolyhedralSurfaceComponent</text>
<text text-anchor="middle" x="420.059" y="-211.167" font-family="Monaco" font-size="10.00">DataItem</text>
</a>
</g>
</g>
<!-- Node1&#45;&gt;Node4 -->
<g id="edge3" class="edge"><title>Node1&#45;&gt;Node4</title>
<path fill="none" stroke="midnightblue" d="M260.481,-212.48C268.86,-213.538 277.292,-214.603 285.666,-215.66"/>
<polygon fill="midnightblue" stroke="midnightblue" points="260.654,-208.974 250.294,-211.194 259.777,-215.919 260.654,-208.974"/>
</g>
<!-- Node5 -->
<g id="node5" class="node"><title>Node5</title>
<g id="a_node5"><a xlink:href="class_hydro_couple_1_1_spatio_temporal_1_1_i_time_raster_component_data_item.html#a40bb56e657f691f554827b973cb06dab" target="_top" xlink:title="HydroCouple::SpatioTemporal\l::ITimeRasterComponentDataItem\l::~ITimeRasterComponentDataItem">
<polygon fill="white" stroke="black" points="319.043,-134.5 319.043,-182.505 521.074,-182.505 521.074,-134.5 319.043,-134.5"/>
<text text-anchor="start" x="327.043" y="-170.505" font-family="Monaco" font-size="10.00">HydroCouple::SpatioTemporal</text>
<text text-anchor="start" x="327.043" y="-157.17" font-family="Monaco" font-size="10.00">::ITimeRasterComponentDataItem</text>
<text text-anchor="middle" x="420.059" y="-143.835" font-family="Monaco" font-size="10.00">::~ITimeRasterComponentDataItem</text>
</a>
</g>
</g>
<!-- Node1&#45;&gt;Node5 -->
<g id="edge4" class="edge"><title>Node1&#45;&gt;Node5</title>
<path fill="none" stroke="midnightblue" d="M260.277,-178.551C280.036,-176.056 300.094,-173.523 319.002,-171.136"/>
<polygon fill="midnightblue" stroke="midnightblue" points="259.777,-175.086 250.294,-179.811 260.654,-182.031 259.777,-175.086"/>
</g>
<!-- Node6 -->
<g id="node6" class="node"><title>Node6</title>
<g id="a_node6"><a xlink:href="class_hydro_couple_1_1_spatio_temporal_1_1_i_time_regular_grid2_d_component_data_item.html#a2322197c9014c7b93f60db010a8a4174" target="_top" xlink:title="HydroCouple::SpatioTemporal\l::ITimeRegularGrid2DComponentData\lItem::~ITimeRegularGrid2DComponentDataItem">
<polygon fill="white" stroke="black" points="286.038,-67.5 286.038,-115.505 554.079,-115.505 554.079,-67.5 286.038,-67.5"/>
<text text-anchor="start" x="294.038" y="-103.505" font-family="Monaco" font-size="10.00">HydroCouple::SpatioTemporal</text>
<text text-anchor="start" x="294.038" y="-90.1699" font-family="Monaco" font-size="10.00">::ITimeRegularGrid2DComponentData</text>
<text text-anchor="middle" x="420.059" y="-76.835" font-family="Monaco" font-size="10.00">Item::~ITimeRegularGrid2DComponentDataItem</text>
</a>
</g>
</g>
<!-- Node1&#45;&gt;Node6 -->
<g id="edge5" class="edge"><title>Node1&#45;&gt;Node6</title>
<path fill="none" stroke="midnightblue" d="M169.599,-173.684C201.315,-158.423 245.611,-138.367 286.038,-124.502 295.266,-121.338 304.95,-118.34 314.707,-115.538"/>
<polygon fill="midnightblue" stroke="midnightblue" points="168.06,-170.541 160.59,-178.053 171.115,-176.839 168.06,-170.541"/>
</g>
<!-- Node7 -->
<g id="node7" class="node"><title>Node7</title>
<g id="a_node7"><a xlink:href="class_hydro_couple_1_1_spatio_temporal_1_1_i_time_regular_grid3_d_component_data_item.html#a51c986d2f99145968cb7a3e5e58b9996" target="_top" xlink:title="HydroCouple::SpatioTemporal\l::ITimeRegularGrid3DComponentData\lItem::~ITimeRegularGrid3DComponentDataItem">
<polygon fill="white" stroke="black" points="286.038,-0.5 286.038,-48.5049 554.079,-48.5049 554.079,-0.5 286.038,-0.5"/>
<text text-anchor="start" x="294.038" y="-36.5049" font-family="Monaco" font-size="10.00">HydroCouple::SpatioTemporal</text>
<text text-anchor="start" x="294.038" y="-23.1699" font-family="Monaco" font-size="10.00">::ITimeRegularGrid3DComponentData</text>
<text text-anchor="middle" x="420.059" y="-9.83496" font-family="Monaco" font-size="10.00">Item::~ITimeRegularGrid3DComponentDataItem</text>
</a>
</g>
</g>
<!-- Node1&#45;&gt;Node7 -->
<g id="edge6" class="edge"><title>Node1&#45;&gt;Node7</title>
<path fill="none" stroke="midnightblue" d="M148.101,-170.256C176.784,-139.062 229.868,-86.5607 286.038,-57.5024 292.378,-54.2226 299.059,-51.2583 305.914,-48.5806"/>
<polygon fill="midnightblue" stroke="midnightblue" points="145.475,-167.942 141.348,-177.7 150.659,-172.646 145.475,-167.942"/>
</g>
</g>
</svg>
        <g id="navigator" transform="translate(0 0)" fill="#404254">
                <rect fill="#f2f5e9" fill-opacity="0.5" stroke="#606060" stroke-width=".5" x="0" y="0" width="60" height="60"/>
                <use id="zoomplus" xlink:href="#zoomPlus" x="17" y="9" onmousedown="handleZoom(evt,'in')"/>
                <use id="zoomminus" xlink:href="#zoomMin" x="42" y="9" onmousedown="handleZoom(evt,'out')"/>
                <use id="reset" xlink:href="#resetDef" x="30" y="36" onmousedown="handleReset()"/>
                <g id="arrowUp" xlink:href="#dirArrow" transform="translate(30 24)" onmousedown="handlePan(0,-1)">
                  <use xlink:href="#rim" fill="#404040">
                        <set attributeName="fill" to="#808080" begin="arrowUp.mouseover" end="arrowUp.mouseout"/>
                  </use>
                  <path fill="none" stroke="white" stroke-width="1.5" d="M0,-3.0v7 M-2.5,-0.5L0,-3.0L2.5,-0.5"/>
                </g>
                <g id="arrowRight" xlink:href="#dirArrow" transform="rotate(90) translate(36 -43)" onmousedown="handlePan(1,0)">
                  <use xlink:href="#rim" fill="#404040">
                        <set attributeName="fill" to="#808080" begin="arrowRight.mouseover" end="arrowRight.mouseout"/>
                  </use>
                  <path fill="none" stroke="white" stroke-width="1.5" d="M0,-3.0v7 M-2.5,-0.5L0,-3.0L2.5,-0.5"/>
                </g>
                <g id="arrowDown" xlink:href="#dirArrow" transform="rotate(180) translate(-30 -48)" onmousedown="handlePan(0,1)">
                  <use xlink:href="#rim" fill="#404040">
                        <set attributeName="fill" to="#808080" begin="arrowDown.mouseover" end="arrowDown.mouseout"/>
                  </use>
                  <path fill="none" stroke="white" stroke-width="1.5" d="M0,-3.0v7 M-2.5,-0.5L0,-3.0L2.5,-0.5"/>
                </g>
                <g id="arrowLeft" xlink:href="#dirArrow" transform="rotate(270) translate(-36 17)" onmousedown="handlePan(-1,0)">
                  <use xlink:href="#rim" fill="#404040">
                        <set attributeName="fill" to="#808080" begin="arrowLeft.mouseover" end="arrowLeft.mouseout"/>
                  </use>
                  <path fill="none" stroke="white" stroke-width="1.5" d="M0,-3.0v7 M-2.5,-0.5L0,-3.0L2.5,-0.5"/>
                </g>
        </g>
        <svg viewBox="0 0 15 15" width="100%" height="30px" preserveAspectRatio="xMaxYMin meet">
         <g id="arrow_out" transform="scale(0.3 0.3)">
          <a xlink:href="class_hydro_couple_1_1_spatio_temporal_1_1_i_time_geometry_component_data_item_a8124d933673088f379a8fd6817787543_icgraph_org.svg" target="_base">
           <rect id="button" ry="5" rx="5" y="6" x="6" height="38" width="38"
                fill="#f2f5e9" fill-opacity="0.5" stroke="#606060" stroke-width="1.0"/>
           <path id="arrow"
             d="M 11.500037,31.436501 C 11.940474,20.09759 22.043105,11.32322 32.158766,21.979434 L 37.068811,17.246167 C 37.068811,17.246167 37.088388,32 37.088388,32 L 22.160133,31.978069 C 22.160133,31.978069 26.997745,27.140456 26.997745,27.140456 C 18.528582,18.264221 13.291696,25.230495 11.500037,31.436501 z"
             style="fill:#404040;"/>
          </a>
         </g>
        </svg>
</svg>
