<?xml version="1.0" encoding="UTF-8" standalone="no"?>
<!DOCTYPE svg PUBLIC "-//W3C//DTD SVG 1.1//EN"
 "http://www.w3.org/Graphics/SVG/1.1/DTD/svg11.dtd">
<!-- Generated by graphviz version 2.38.0 (20140413.2041)
 -->
<!-- Title: HydroCouple::IOutput Pages: 1 -->
<svg width="210pt" height="858pt"
 viewBox="0.00 0.00 210.03 858.06" xmlns="http://www.w3.org/2000/svg" xmlns:xlink="http://www.w3.org/1999/xlink">
<g id="graph0" class="graph" transform="scale(1 1) rotate(0) translate(4 854.063)">
<title>HydroCouple::IOutput</title>
<!-- Node1 -->
<g id="node1" class="node"><title>Node1</title>
<polygon fill="#bfbfbf" stroke="black" points="24.0039,-0.5 24.0039,-157.85 178.026,-157.85 178.026,-0.5 24.0039,-0.5"/>
<text text-anchor="middle" x="101.015" y="-145.85" font-family="Monaco" font-size="10.00">HydroCouple::IOutput</text>
<polyline fill="none" stroke="black" points="24.0039,-136.515 178.026,-136.515 "/>
<text text-anchor="middle" x="101.015" y="-124.515" font-family="Monaco" font-size="10.00"> </text>
<polyline fill="none" stroke="black" points="24.0039,-115.18 178.026,-115.18 "/>
<text text-anchor="start" x="32.0039" y="-103.18" font-family="Monaco" font-size="10.00">+ ~IOutput()</text>
<text text-anchor="start" x="32.0039" y="-89.8447" font-family="Monaco" font-size="10.00">+ consumers()</text>
<text text-anchor="start" x="32.0039" y="-76.5098" font-family="Monaco" font-size="10.00">+ addConsumer()</text>
<text text-anchor="start" x="32.0039" y="-63.1748" font-family="Monaco" font-size="10.00">+ removeConsumer()</text>
<text text-anchor="start" x="32.0039" y="-49.8398" font-family="Monaco" font-size="10.00">+ adaptedOutputs()</text>
<text text-anchor="start" x="32.0039" y="-36.5049" font-family="Monaco" font-size="10.00">+ addAdaptedOutput()</text>
<text text-anchor="start" x="32.0039" y="-23.1699" font-family="Monaco" font-size="10.00">+ removeAdaptedOutput()</text>
<text text-anchor="start" x="32.0039" y="-9.83496" font-family="Monaco" font-size="10.00">+ update()</text>
</g>
<!-- Node2 -->
<g id="node2" class="node"><title>Node2</title>
<g id="a_node2"><a xlink:href="class_hydro_couple_1_1_i_exchange_item.html" target="_top" xlink:title="IExchangeItem the base data item the can be exchanged between components at runtime. ">
<polygon fill="none" stroke="black" points="15.0024,-194.85 15.0024,-258.854 187.028,-258.854 187.028,-194.85 15.0024,-194.85"/>
<text text-anchor="middle" x="101.015" y="-246.854" font-family="Monaco" font-size="10.00">HydroCouple::IExchangeItem</text>
<polyline fill="none" stroke="black" points="15.0024,-237.52 187.028,-237.52 "/>
<text text-anchor="middle" x="101.015" y="-225.52" font-family="Monaco" font-size="10.00"> </text>
<polyline fill="none" stroke="black" points="15.0024,-216.185 187.028,-216.185 "/>
<text text-anchor="start" x="23.0024" y="-204.185" font-family="Monaco" font-size="10.00">+ ~IExchangeItem()</text>
</a>
</g>
</g>
<!-- Node2&#45;&gt;Node1 -->
<g id="edge1" class="edge"><title>Node2&#45;&gt;Node1</title>
<path fill="none" stroke="midnightblue" d="M101.015,-184.473C101.015,-176.157 101.015,-167.165 101.015,-158.066"/>
<polygon fill="none" stroke="midnightblue" points="97.5152,-184.601 101.015,-194.601 104.515,-184.601 97.5152,-184.601"/>
</g>
<!-- Node3 -->
<g id="node3" class="node"><title>Node3</title>
<g id="a_node3"><a xlink:href="class_hydro_couple_1_1_i_component_data_item.html" target="_top" xlink:title="IComponentItem is a fundamental unit of data for a component. ">
<polygon fill="none" stroke="black" points="0,-295.854 0,-479.874 202.03,-479.874 202.03,-295.854 0,-295.854"/>
<text text-anchor="middle" x="101.015" y="-467.874" font-family="Monaco" font-size="10.00">HydroCouple::IComponentDataItem</text>
<polyline fill="none" stroke="black" points="0,-458.539 202.03,-458.539 "/>
<text text-anchor="middle" x="101.015" y="-446.539" font-family="Monaco" font-size="10.00"> </text>
<polyline fill="none" stroke="black" points="0,-437.204 202.03,-437.204 "/>
<text text-anchor="start" x="8" y="-425.204" font-family="Monaco" font-size="10.00">+ ~IComponentDataItem()</text>
<text text-anchor="start" x="8" y="-411.869" font-family="Monaco" font-size="10.00">+ modelComponent()</text>
<text text-anchor="start" x="8" y="-398.534" font-family="Monaco" font-size="10.00">+ dimensions()</text>
<text text-anchor="start" x="8" y="-385.199" font-family="Monaco" font-size="10.00">+ valueDefinition()</text>
<text text-anchor="start" x="8" y="-371.864" font-family="Monaco" font-size="10.00">+ getValue()</text>
<text text-anchor="start" x="8" y="-358.529" font-family="Monaco" font-size="10.00">+ getValues()</text>
<text text-anchor="start" x="8" y="-345.194" font-family="Monaco" font-size="10.00">+ getValues()</text>
<text text-anchor="start" x="8" y="-331.859" font-family="Monaco" font-size="10.00">+ setValue()</text>
<text text-anchor="start" x="8" y="-318.524" font-family="Monaco" font-size="10.00">+ setValues()</text>
<text text-anchor="start" x="8" y="-305.189" font-family="Monaco" font-size="10.00">+ setValues()</text>
</a>
</g>
</g>
<!-- Node3&#45;&gt;Node2 -->
<g id="edge2" class="edge"><title>Node3&#45;&gt;Node2</title>
<path fill="none" stroke="midnightblue" d="M101.015,-285.664C101.015,-276.119 101.015,-267.025 101.015,-258.994"/>
<polygon fill="none" stroke="midnightblue" points="97.5152,-285.749 101.015,-295.749 104.515,-285.749 97.5152,-285.749"/>
</g>
<!-- Node4 -->
<g id="node4" class="node"><title>Node4</title>
<g id="a_node4"><a xlink:href="class_hydro_couple_1_1_i_identity.html" target="_top" xlink:title="IIdentity interface class defines a method to get the Id of an HydroCouple entity. ">
<polygon fill="none" stroke="black" points="27.0044,-516.874 27.0044,-594.214 175.026,-594.214 175.026,-516.874 27.0044,-516.874"/>
<text text-anchor="middle" x="101.015" y="-582.214" font-family="Monaco" font-size="10.00">HydroCouple::IIdentity</text>
<polyline fill="none" stroke="black" points="27.0044,-572.879 175.026,-572.879 "/>
<text text-anchor="middle" x="101.015" y="-560.879" font-family="Monaco" font-size="10.00"> </text>
<polyline fill="none" stroke="black" points="27.0044,-551.544 175.026,-551.544 "/>
<text text-anchor="start" x="35.0044" y="-539.544" font-family="Monaco" font-size="10.00">+ ~IIdentity()</text>
<text text-anchor="start" x="35.0044" y="-526.209" font-family="Monaco" font-size="10.00">+ id()</text>
</a>
</g>
</g>
<!-- Node4&#45;&gt;Node3 -->
<g id="edge3" class="edge"><title>Node4&#45;&gt;Node3</title>
<path fill="none" stroke="midnightblue" d="M101.015,-506.292C101.015,-497.938 101.015,-489.013 101.015,-479.955"/>
<polygon fill="none" stroke="midnightblue" points="97.5152,-506.534 101.015,-516.534 104.515,-506.534 97.5152,-506.534"/>
</g>
<!-- Node5 -->
<g id="node5" class="node"><title>Node5</title>
<g id="a_node5"><a xlink:href="class_hydro_couple_1_1_i_description.html" target="_top" xlink:title="IDescription interface class provides descriptive information on a HydroCouple object. ">
<polygon fill="none" stroke="black" points="18.0029,-631.214 18.0029,-748.559 184.027,-748.559 184.027,-631.214 18.0029,-631.214"/>
<text text-anchor="middle" x="101.015" y="-736.559" font-family="Monaco" font-size="10.00">HydroCouple::IDescription</text>
<polyline fill="none" stroke="black" points="18.0029,-727.224 184.027,-727.224 "/>
<text text-anchor="middle" x="101.015" y="-715.224" font-family="Monaco" font-size="10.00"> </text>
<polyline fill="none" stroke="black" points="18.0029,-705.889 184.027,-705.889 "/>
<text text-anchor="start" x="26.0029" y="-693.889" font-family="Monaco" font-size="10.00">+ ~IDescription()</text>
<text text-anchor="start" x="26.0029" y="-680.554" font-family="Monaco" font-size="10.00">+ caption()</text>
<text text-anchor="start" x="26.0029" y="-667.219" font-family="Monaco" font-size="10.00">+ setCaption()</text>
<text text-anchor="start" x="26.0029" y="-653.884" font-family="Monaco" font-size="10.00">+ description()</text>
<text text-anchor="start" x="26.0029" y="-640.549" font-family="Monaco" font-size="10.00">+ setDescription()</text>
</a>
</g>
</g>
<!-- Node5&#45;&gt;Node4 -->
<g id="edge4" class="edge"><title>Node5&#45;&gt;Node4</title>
<path fill="none" stroke="midnightblue" d="M101.015,-620.648C101.015,-611.609 101.015,-602.622 101.015,-594.361"/>
<polygon fill="none" stroke="midnightblue" points="97.5152,-620.839 101.015,-630.839 104.515,-620.839 97.5152,-620.839"/>
</g>
<!-- Node6 -->
<g id="node6" class="node"><title>Node6</title>
<g id="a_node6"><a xlink:href="class_hydro_couple_1_1_i_property_changed.html" target="_top" xlink:title="IPropertyChanged interface is used to emit signal/event when a property of an object changes...">
<polygon fill="none" stroke="black" points="6.00098,-785.559 6.00098,-849.563 196.029,-849.563 196.029,-785.559 6.00098,-785.559"/>
<text text-anchor="middle" x="101.015" y="-837.563" font-family="Monaco" font-size="10.00">HydroCouple::IPropertyChanged</text>
<polyline fill="none" stroke="black" points="6.00098,-828.229 196.029,-828.229 "/>
<text text-anchor="middle" x="101.015" y="-816.229" font-family="Monaco" font-size="10.00"> </text>
<polyline fill="none" stroke="black" points="6.00098,-806.894 196.029,-806.894 "/>
<text text-anchor="start" x="14.001" y="-794.894" font-family="Monaco" font-size="10.00">+ ~IPropertyChanged()</text>
</a>
</g>
</g>
<!-- Node6&#45;&gt;Node5 -->
<g id="edge5" class="edge"><title>Node6&#45;&gt;Node5</title>
<path fill="none" stroke="midnightblue" d="M101.015,-775.238C101.015,-766.853 101.015,-757.887 101.015,-749.045"/>
<polygon fill="none" stroke="midnightblue" points="97.5152,-775.495 101.015,-785.495 104.515,-775.495 97.5152,-775.495"/>
</g>
</g>
</svg>
