<?xml version="1.0" encoding="UTF-8" standalone="no"?>
<!DOCTYPE svg PUBLIC "-//W3C//DTD SVG 1.1//EN"
 "http://www.w3.org/Graphics/SVG/1.1/DTD/svg11.dtd">
<!-- Generated by graphviz version 2.38.0 (20140413.2041)
 -->
<!-- Title: HydroCouple::Spatial::IRegularGrid3DOnlyComponentDataItem Pages: 1 -->
<svg width="448pt" height="1079pt"
 viewBox="0.00 0.00 448.03 1079.08" xmlns="http://www.w3.org/2000/svg" xmlns:xlink="http://www.w3.org/1999/xlink">
<g id="graph0" class="graph" transform="scale(1 1) rotate(0) translate(4 1075.08)">
<title>HydroCouple::Spatial::IRegularGrid3DOnlyComponentDataItem</title>
<!-- Node1 -->
<g id="node1" class="node"><title>Node1</title>
<polygon fill="#bfbfbf" stroke="black" points="117,-114.84 117,-298.859 313.03,-298.859 313.03,-114.84 117,-114.84"/>
<text text-anchor="start" x="125" y="-286.859" font-family="Monaco" font-size="10.00">HydroCouple::Spatial</text>
<text text-anchor="start" x="125" y="-273.524" font-family="Monaco" font-size="10.00">::IRegularGrid3DOnlyComponent</text>
<text text-anchor="middle" x="215.015" y="-260.189" font-family="Monaco" font-size="10.00">DataItem</text>
<polyline fill="none" stroke="black" points="117,-250.854 313.03,-250.854 "/>
<text text-anchor="middle" x="215.015" y="-238.854" font-family="Monaco" font-size="10.00"> </text>
<polyline fill="none" stroke="black" points="117,-229.52 313.03,-229.52 "/>
<text text-anchor="start" x="125" y="-217.52" font-family="Monaco" font-size="10.00">+ ~IRegularGrid3DOnlyComponent</text>
<text text-anchor="start" x="125" y="-204.185" font-family="Monaco" font-size="10.00">DataItem()</text>
<text text-anchor="start" x="125" y="-190.85" font-family="Monaco" font-size="10.00">+ getValue()</text>
<text text-anchor="start" x="125" y="-177.515" font-family="Monaco" font-size="10.00">+ getValues()</text>
<text text-anchor="start" x="125" y="-164.18" font-family="Monaco" font-size="10.00">+ getValues()</text>
<text text-anchor="start" x="125" y="-150.845" font-family="Monaco" font-size="10.00">+ setValue()</text>
<text text-anchor="start" x="125" y="-137.51" font-family="Monaco" font-size="10.00">+ setValues()</text>
<text text-anchor="start" x="125" y="-124.175" font-family="Monaco" font-size="10.00">+ setValues()</text>
</g>
<!-- Node7 -->
<g id="node7" class="node"><title>Node7</title>
<g id="a_node7"><a xlink:href="class_hydro_couple_1_1_spatial_1_1_i_regular_grid3_d_only_argument.html" target="_top" xlink:title="An IRegularGrid3DArgument is an IExchangeItem with an IRegularGrid3DComponentItem. ">
<polygon fill="none" stroke="black" points="0,-0.5 0,-77.8398 202.03,-77.8398 202.03,-0.5 0,-0.5"/>
<text text-anchor="start" x="8" y="-65.8398" font-family="Monaco" font-size="10.00">HydroCouple::Spatial</text>
<text text-anchor="middle" x="101.015" y="-52.5049" font-family="Monaco" font-size="10.00">::IRegularGrid3DOnlyArgument</text>
<polyline fill="none" stroke="black" points="0,-43.1699 202.03,-43.1699 "/>
<text text-anchor="middle" x="101.015" y="-31.1699" font-family="Monaco" font-size="10.00"> </text>
<polyline fill="none" stroke="black" points="0,-21.835 202.03,-21.835 "/>
<text text-anchor="start" x="8" y="-9.83496" font-family="Monaco" font-size="10.00">+ ~IRegularGrid3DOnlyArgument()</text>
</a>
</g>
</g>
<!-- Node1&#45;&gt;Node7 -->
<g id="edge6" class="edge"><title>Node1&#45;&gt;Node7</title>
<path fill="none" stroke="midnightblue" d="M146.542,-106.335C139.686,-96.3712 133.061,-86.7431 127.086,-78.0601"/>
<polygon fill="none" stroke="midnightblue" points="143.794,-108.516 152.346,-114.77 149.561,-104.548 143.794,-108.516"/>
</g>
<!-- Node8 -->
<g id="node8" class="node"><title>Node8</title>
<g id="a_node8"><a xlink:href="class_hydro_couple_1_1_spatial_1_1_i_regular_grid3_d_only_exhange_item.html" target="_top" xlink:title="An IRegularGrid3DOnlyExhangeItem is an IExchangeItem with an IRegularGrid3DComponentDataItem. ">
<polygon fill="none" stroke="black" points="219.999,-0.5 219.999,-77.8398 440.032,-77.8398 440.032,-0.5 219.999,-0.5"/>
<text text-anchor="start" x="227.999" y="-65.8398" font-family="Monaco" font-size="10.00">HydroCouple::Spatial</text>
<text text-anchor="middle" x="330.015" y="-52.5049" font-family="Monaco" font-size="10.00">::IRegularGrid3DOnlyExhangeItem</text>
<polyline fill="none" stroke="black" points="219.999,-43.1699 440.032,-43.1699 "/>
<text text-anchor="middle" x="330.015" y="-31.1699" font-family="Monaco" font-size="10.00"> </text>
<polyline fill="none" stroke="black" points="219.999,-21.835 440.032,-21.835 "/>
<text text-anchor="start" x="227.999" y="-9.83496" font-family="Monaco" font-size="10.00">+ ~IRegularGrid3DOnlyExhangeItem()</text>
</a>
</g>
</g>
<!-- Node1&#45;&gt;Node8 -->
<g id="edge7" class="edge"><title>Node1&#45;&gt;Node8</title>
<path fill="none" stroke="midnightblue" d="M284.089,-106.335C291.005,-96.3712 297.688,-86.7431 303.715,-78.0601"/>
<polygon fill="none" stroke="midnightblue" points="281.061,-104.56 278.234,-114.77 286.812,-108.551 281.061,-104.56"/>
</g>
<!-- Node2 -->
<g id="node2" class="node"><title>Node2</title>
<g id="a_node2"><a xlink:href="class_hydro_couple_1_1_spatial_1_1_i_regular_grid3_d_component_data_item.html" target="_top" xlink:title="An IRegularGrid3DComponentItem represents an IRegularGrid3D IComponentItem. ">
<polygon fill="none" stroke="black" points="107.999,-335.859 107.999,-479.874 322.031,-479.874 322.031,-335.859 107.999,-335.859"/>
<text text-anchor="start" x="115.999" y="-467.874" font-family="Monaco" font-size="10.00">HydroCouple::Spatial</text>
<text text-anchor="middle" x="215.015" y="-454.539" font-family="Monaco" font-size="10.00">::IRegularGrid3DComponentDataItem</text>
<polyline fill="none" stroke="black" points="107.999,-445.204 322.031,-445.204 "/>
<text text-anchor="middle" x="215.015" y="-433.204" font-family="Monaco" font-size="10.00"> </text>
<polyline fill="none" stroke="black" points="107.999,-423.869 322.031,-423.869 "/>
<text text-anchor="start" x="115.999" y="-411.869" font-family="Monaco" font-size="10.00">+ ~IRegularGrid3DComponent</text>
<text text-anchor="start" x="115.999" y="-398.534" font-family="Monaco" font-size="10.00">DataItem()</text>
<text text-anchor="start" x="115.999" y="-385.199" font-family="Monaco" font-size="10.00">+ numXCellsDimension()</text>
<text text-anchor="start" x="115.999" y="-371.864" font-family="Monaco" font-size="10.00">+ numYCellsDimension()</text>
<text text-anchor="start" x="115.999" y="-358.529" font-family="Monaco" font-size="10.00">+ numZCellsDimension()</text>
<text text-anchor="start" x="115.999" y="-345.194" font-family="Monaco" font-size="10.00">+ grid()</text>
</a>
</g>
</g>
<!-- Node2&#45;&gt;Node1 -->
<g id="edge1" class="edge"><title>Node2&#45;&gt;Node1</title>
<path fill="none" stroke="midnightblue" d="M215.015,-325.483C215.015,-316.793 215.015,-307.913 215.015,-299.119"/>
<polygon fill="none" stroke="midnightblue" points="211.515,-325.579 215.015,-335.579 218.515,-325.579 211.515,-325.579"/>
</g>
<!-- Node3 -->
<g id="node3" class="node"><title>Node3</title>
<g id="a_node3"><a xlink:href="class_hydro_couple_1_1_i_component_data_item.html" target="_top" xlink:title="IComponentItem is a fundamental unit of data for a component. ">
<polygon fill="none" stroke="black" points="114,-516.874 114,-700.894 316.03,-700.894 316.03,-516.874 114,-516.874"/>
<text text-anchor="middle" x="215.015" y="-688.894" font-family="Monaco" font-size="10.00">HydroCouple::IComponentDataItem</text>
<polyline fill="none" stroke="black" points="114,-679.559 316.03,-679.559 "/>
<text text-anchor="middle" x="215.015" y="-667.559" font-family="Monaco" font-size="10.00"> </text>
<polyline fill="none" stroke="black" points="114,-658.224 316.03,-658.224 "/>
<text text-anchor="start" x="122" y="-646.224" font-family="Monaco" font-size="10.00">+ ~IComponentDataItem()</text>
<text text-anchor="start" x="122" y="-632.889" font-family="Monaco" font-size="10.00">+ modelComponent()</text>
<text text-anchor="start" x="122" y="-619.554" font-family="Monaco" font-size="10.00">+ dimensions()</text>
<text text-anchor="start" x="122" y="-606.219" font-family="Monaco" font-size="10.00">+ valueDefinition()</text>
<text text-anchor="start" x="122" y="-592.884" font-family="Monaco" font-size="10.00">+ getValue()</text>
<text text-anchor="start" x="122" y="-579.549" font-family="Monaco" font-size="10.00">+ getValues()</text>
<text text-anchor="start" x="122" y="-566.214" font-family="Monaco" font-size="10.00">+ getValues()</text>
<text text-anchor="start" x="122" y="-552.879" font-family="Monaco" font-size="10.00">+ setValue()</text>
<text text-anchor="start" x="122" y="-539.544" font-family="Monaco" font-size="10.00">+ setValues()</text>
<text text-anchor="start" x="122" y="-526.209" font-family="Monaco" font-size="10.00">+ setValues()</text>
</a>
</g>
</g>
<!-- Node3&#45;&gt;Node2 -->
<g id="edge2" class="edge"><title>Node3&#45;&gt;Node2</title>
<path fill="none" stroke="midnightblue" d="M215.015,-506.638C215.015,-497.612 215.015,-488.605 215.015,-479.915"/>
<polygon fill="none" stroke="midnightblue" points="211.515,-506.821 215.015,-516.821 218.515,-506.821 211.515,-506.821"/>
</g>
<!-- Node4 -->
<g id="node4" class="node"><title>Node4</title>
<g id="a_node4"><a xlink:href="class_hydro_couple_1_1_i_identity.html" target="_top" xlink:title="IIdentity interface class defines a method to get the Id of an HydroCouple entity. ">
<polygon fill="none" stroke="black" points="141.004,-737.894 141.004,-815.233 289.026,-815.233 289.026,-737.894 141.004,-737.894"/>
<text text-anchor="middle" x="215.015" y="-803.233" font-family="Monaco" font-size="10.00">HydroCouple::IIdentity</text>
<polyline fill="none" stroke="black" points="141.004,-793.898 289.026,-793.898 "/>
<text text-anchor="middle" x="215.015" y="-781.898" font-family="Monaco" font-size="10.00"> </text>
<polyline fill="none" stroke="black" points="141.004,-772.563 289.026,-772.563 "/>
<text text-anchor="start" x="149.004" y="-760.563" font-family="Monaco" font-size="10.00">+ ~IIdentity()</text>
<text text-anchor="start" x="149.004" y="-747.229" font-family="Monaco" font-size="10.00">+ id()</text>
</a>
</g>
</g>
<!-- Node4&#45;&gt;Node3 -->
<g id="edge3" class="edge"><title>Node4&#45;&gt;Node3</title>
<path fill="none" stroke="midnightblue" d="M215.015,-727.311C215.015,-718.958 215.015,-710.033 215.015,-700.974"/>
<polygon fill="none" stroke="midnightblue" points="211.515,-727.553 215.015,-737.553 218.515,-727.553 211.515,-727.553"/>
</g>
<!-- Node5 -->
<g id="node5" class="node"><title>Node5</title>
<g id="a_node5"><a xlink:href="class_hydro_couple_1_1_i_description.html" target="_top" xlink:title="IDescription interface class provides descriptive information on a HydroCouple object. ">
<polygon fill="none" stroke="black" points="132.003,-852.233 132.003,-969.578 298.027,-969.578 298.027,-852.233 132.003,-852.233"/>
<text text-anchor="middle" x="215.015" y="-957.578" font-family="Monaco" font-size="10.00">HydroCouple::IDescription</text>
<polyline fill="none" stroke="black" points="132.003,-948.243 298.027,-948.243 "/>
<text text-anchor="middle" x="215.015" y="-936.243" font-family="Monaco" font-size="10.00"> </text>
<polyline fill="none" stroke="black" points="132.003,-926.908 298.027,-926.908 "/>
<text text-anchor="start" x="140.003" y="-914.908" font-family="Monaco" font-size="10.00">+ ~IDescription()</text>
<text text-anchor="start" x="140.003" y="-901.573" font-family="Monaco" font-size="10.00">+ caption()</text>
<text text-anchor="start" x="140.003" y="-888.238" font-family="Monaco" font-size="10.00">+ setCaption()</text>
<text text-anchor="start" x="140.003" y="-874.903" font-family="Monaco" font-size="10.00">+ description()</text>
<text text-anchor="start" x="140.003" y="-861.568" font-family="Monaco" font-size="10.00">+ setDescription()</text>
</a>
</g>
</g>
<!-- Node5&#45;&gt;Node4 -->
<g id="edge4" class="edge"><title>Node5&#45;&gt;Node4</title>
<path fill="none" stroke="midnightblue" d="M215.015,-841.667C215.015,-832.629 215.015,-823.641 215.015,-815.381"/>
<polygon fill="none" stroke="midnightblue" points="211.515,-841.858 215.015,-851.859 218.515,-841.859 211.515,-841.858"/>
</g>
<!-- Node6 -->
<g id="node6" class="node"><title>Node6</title>
<g id="a_node6"><a xlink:href="class_hydro_couple_1_1_i_property_changed.html" target="_top" xlink:title="IPropertyChanged interface is used to emit signal/event when a property of an object changes...">
<polygon fill="none" stroke="black" points="120.001,-1006.58 120.001,-1070.58 310.029,-1070.58 310.029,-1006.58 120.001,-1006.58"/>
<text text-anchor="middle" x="215.015" y="-1058.58" font-family="Monaco" font-size="10.00">HydroCouple::IPropertyChanged</text>
<polyline fill="none" stroke="black" points="120.001,-1049.25 310.029,-1049.25 "/>
<text text-anchor="middle" x="215.015" y="-1037.25" font-family="Monaco" font-size="10.00"> </text>
<polyline fill="none" stroke="black" points="120.001,-1027.91 310.029,-1027.91 "/>
<text text-anchor="start" x="128.001" y="-1015.91" font-family="Monaco" font-size="10.00">+ ~IPropertyChanged()</text>
</a>
</g>
</g>
<!-- Node6&#45;&gt;Node5 -->
<g id="edge5" class="edge"><title>Node6&#45;&gt;Node5</title>
<path fill="none" stroke="midnightblue" d="M215.015,-996.258C215.015,-987.873 215.015,-978.906 215.015,-970.064"/>
<polygon fill="none" stroke="midnightblue" points="211.515,-996.515 215.015,-1006.51 218.515,-996.515 211.515,-996.515"/>
</g>
</g>
</svg>
