<?xml version="1.0" encoding="UTF-8" standalone="no"?>
<!DOCTYPE svg PUBLIC "-//W3C//DTD SVG 1.1//EN"
 "http://www.w3.org/Graphics/SVG/1.1/DTD/svg11.dtd">
<!-- Generated by graphviz version 2.38.0 (20140413.2041)
 -->
<!-- Title: HydroCouple::Spatial::IGeometryComponentItem Pages: 1 -->
<!--zoomable 959 -->
<svg id="main" version="1.1" xmlns="http://www.w3.org/2000/svg" xmlns:xlink="http://www.w3.org/1999/xlink" xml:space="preserve" onload="init(evt)">
<style type="text/css"><![CDATA[
.edge:hover path { stroke: red; }
.edge:hover polygon { stroke: red; fill: red; }
]]></style>
<script type="text/javascript"><![CDATA[
var edges = document.getElementsByTagName('g');
if (edges && edges.length) {
  for (var i=0;i<edges.length;i++) {
    if (edges[i].id.substr(0,4)=='edge') {
      edges[i].setAttribute('class','edge');
    }
  }
}
]]></script>
        <defs>
                <circle id="rim" cx="0" cy="0" r="7"/>
                <circle id="rim2" cx="0" cy="0" r="3.5"/>
                <g id="zoomPlus">
                        <use xlink:href="#rim" fill="#404040">
                                <set attributeName="fill" to="#808080" begin="zoomplus.mouseover" end="zoomplus.mouseout"/>
                        </use>
                        <path d="M-4,0h8M0,-4v8" fill="none" stroke="white" stroke-width="1.5" pointer-events="none"/>
                </g>
                <g id="zoomMin">
                        <use xlink:href="#rim" fill="#404040">
                                <set attributeName="fill" to="#808080" begin="zoomminus.mouseover" end="zoomminus.mouseout"/>
                        </use>
                        <path d="M-4,0h8" fill="none" stroke="white" stroke-width="1.5" pointer-events="none"/>
                </g>
                <g id="dirArrow">
                        <path fill="none" stroke="white" stroke-width="1.5" d="M0,-3.0v7 M-2.5,-0.5L0,-3.0L2.5,-0.5"/>
                </g>
               <g id="resetDef">
                       <use xlink:href="#rim2" fill="#404040">
                               <set attributeName="fill" to="#808080" begin="reset.mouseover" end="reset.mouseout"/>
                       </use>
               </g>
        </defs>

<script type="text/javascript">
var viewWidth = 683;
var viewHeight = 959;
var sectionId = 'dynsection-0';
</script>
<script xlink:href="svgpan.js"/>
<svg id="graph" class="graph">
<g id="viewport">
<title>HydroCouple::Spatial::IGeometryComponentItem</title>
<polygon fill="white" stroke="none" points="-4,4 -4,-955.068 679.027,-955.068 679.027,4 -4,4"/>
<!-- Node1 -->
<g id="node1" class="node"><title>Node1</title>
<polygon fill="#bfbfbf" stroke="black" points="180.999,-295.854 180.999,-413.199 359.025,-413.199 359.025,-295.854 180.999,-295.854"/>
<text text-anchor="start" x="188.999" y="-401.199" font-family="Monaco" font-size="10.00">HydroCouple::Spatial</text>
<text text-anchor="middle" x="270.012" y="-387.864" font-family="Monaco" font-size="10.00">::IGeometryComponentItem</text>
<polyline fill="none" stroke="black" points="180.999,-378.529 359.025,-378.529 "/>
<text text-anchor="middle" x="270.012" y="-366.529" font-family="Monaco" font-size="10.00"> </text>
<polyline fill="none" stroke="black" points="180.999,-357.194 359.025,-357.194 "/>
<text text-anchor="start" x="188.999" y="-345.194" font-family="Monaco" font-size="10.00">+ ~IGeometryComponentItem()</text>
<text text-anchor="start" x="188.999" y="-331.859" font-family="Monaco" font-size="10.00">+ geometryDimension()</text>
<text text-anchor="start" x="188.999" y="-318.524" font-family="Monaco" font-size="10.00">+ geometryCollection()</text>
<text text-anchor="start" x="188.999" y="-305.189" font-family="Monaco" font-size="10.00">+ geometry()</text>
</g>
<!-- Node6 -->
<g id="node6" class="node"><title>Node6</title>
<g id="a_node6"><a xlink:href="class_hydro_couple_1_1_spatial_1_1_i_geometry_argument.html" target="_top" xlink:title="An IGeometryArgument class is an IArgument class with a geometry component. ">
<polygon fill="white" stroke="black" points="0,-154.845 0,-258.854 166.024,-258.854 166.024,-154.845 0,-154.845"/>
<text text-anchor="start" x="8" y="-246.854" font-family="Monaco" font-size="10.00">HydroCouple::Spatial</text>
<text text-anchor="middle" x="83.0122" y="-233.52" font-family="Monaco" font-size="10.00">::IGeometryArgument</text>
<polyline fill="none" stroke="black" points="0,-224.185 166.024,-224.185 "/>
<text text-anchor="middle" x="83.0122" y="-212.185" font-family="Monaco" font-size="10.00"> </text>
<polyline fill="none" stroke="black" points="0,-202.85 166.024,-202.85 "/>
<text text-anchor="start" x="8" y="-190.85" font-family="Monaco" font-size="10.00">+ ~IGeometryArgument()</text>
<text text-anchor="start" x="8" y="-177.515" font-family="Monaco" font-size="10.00">+ setGeometryCollection()</text>
<text text-anchor="start" x="8" y="-164.18" font-family="Monaco" font-size="10.00">+ geometryValueSets()</text>
</a>
</g>
</g>
<!-- Node1&#45;&gt;Node6 -->
<g id="edge5" class="edge"><title>Node1&#45;&gt;Node6</title>
<path fill="none" stroke="midnightblue" d="M187.735,-289.431C174.646,-279.234 161.26,-268.806 148.621,-258.961"/>
<polygon fill="none" stroke="midnightblue" points="185.797,-292.358 195.836,-295.742 190.098,-286.835 185.797,-292.358"/>
</g>
<!-- Node7 -->
<g id="node7" class="node"><title>Node7</title>
<g id="a_node7"><a xlink:href="class_hydro_couple_1_1_spatial_1_1_i_geometry_exchange_item.html" target="_top" xlink:title="An IExchangeItem class with a geometry component. ">
<polygon fill="white" stroke="black" points="184,-161.512 184,-252.187 356.025,-252.187 356.025,-161.512 184,-161.512"/>
<text text-anchor="start" x="192" y="-240.187" font-family="Monaco" font-size="10.00">HydroCouple::Spatial</text>
<text text-anchor="middle" x="270.012" y="-226.852" font-family="Monaco" font-size="10.00">::IGeometryExchangeItem</text>
<polyline fill="none" stroke="black" points="184,-217.517 356.025,-217.517 "/>
<text text-anchor="middle" x="270.012" y="-205.517" font-family="Monaco" font-size="10.00"> </text>
<polyline fill="none" stroke="black" points="184,-196.182 356.025,-196.182 "/>
<text text-anchor="start" x="192" y="-184.182" font-family="Monaco" font-size="10.00">+ ~IGeometryExchangeItem()</text>
<text text-anchor="start" x="192" y="-170.847" font-family="Monaco" font-size="10.00">+ geometryValues()</text>
</a>
</g>
</g>
<!-- Node1&#45;&gt;Node7 -->
<g id="edge6" class="edge"><title>Node1&#45;&gt;Node7</title>
<path fill="none" stroke="midnightblue" d="M270.012,-285.39C270.012,-274.267 270.012,-262.998 270.012,-252.625"/>
<polygon fill="none" stroke="midnightblue" points="266.512,-285.533 270.012,-295.533 273.512,-285.533 266.512,-285.533"/>
</g>
<!-- Node8 -->
<g id="node8" class="node"><title>Node8</title>
<g id="a_node8"><a xlink:href="class_hydro_couple_1_1_spatio_temporal_1_1_i_time_geometry_component_item.html" target="_top" xlink:title="ITimeGeometryComponentItem represents an IComponentItem with both temporal and geometric components...">
<polygon fill="white" stroke="black" points="373.997,-168.18 373.997,-245.52 576.027,-245.52 576.027,-168.18 373.997,-168.18"/>
<text text-anchor="start" x="381.997" y="-233.52" font-family="Monaco" font-size="10.00">HydroCouple::SpatioTemporal</text>
<text text-anchor="middle" x="475.012" y="-220.185" font-family="Monaco" font-size="10.00">::ITimeGeometryComponentItem</text>
<polyline fill="none" stroke="black" points="373.997,-210.85 576.027,-210.85 "/>
<text text-anchor="middle" x="475.012" y="-198.85" font-family="Monaco" font-size="10.00"> </text>
<polyline fill="none" stroke="black" points="373.997,-189.515 576.027,-189.515 "/>
<text text-anchor="start" x="381.997" y="-177.515" font-family="Monaco" font-size="10.00">+ ~ITimeGeometryComponentItem()</text>
</a>
</g>
</g>
<!-- Node1&#45;&gt;Node8 -->
<g id="edge7" class="edge"><title>Node1&#45;&gt;Node8</title>
<path fill="none" stroke="midnightblue" d="M359.716,-289.781C380.899,-274.728 402.823,-259.148 421.792,-245.669"/>
<polygon fill="none" stroke="midnightblue" points="357.452,-287.096 351.328,-295.742 361.507,-292.803 357.452,-287.096"/>
</g>
<!-- Node2 -->
<g id="node2" class="node"><title>Node2</title>
<g id="a_node2"><a xlink:href="class_hydro_couple_1_1_i_component_item.html" target="_top" xlink:title="IComponentItem is a fundamental unit of data for a component. ">
<polygon fill="white" stroke="black" points="180.999,-450.199 180.999,-554.209 359.025,-554.209 359.025,-450.199 180.999,-450.199"/>
<text text-anchor="middle" x="270.012" y="-542.209" font-family="Monaco" font-size="10.00">HydroCouple::IComponentItem</text>
<polyline fill="none" stroke="black" points="180.999,-532.874 359.025,-532.874 "/>
<text text-anchor="middle" x="270.012" y="-520.874" font-family="Monaco" font-size="10.00"> </text>
<polyline fill="none" stroke="black" points="180.999,-511.539 359.025,-511.539 "/>
<text text-anchor="start" x="188.999" y="-499.539" font-family="Monaco" font-size="10.00">+ ~IComponentItem()</text>
<text text-anchor="start" x="188.999" y="-486.204" font-family="Monaco" font-size="10.00">+ modelComponent()</text>
<text text-anchor="start" x="188.999" y="-472.869" font-family="Monaco" font-size="10.00">+ modelComponentId()</text>
<text text-anchor="start" x="188.999" y="-459.534" font-family="Monaco" font-size="10.00">+ dimensions()</text>
</a>
</g>
</g>
<!-- Node2&#45;&gt;Node1 -->
<g id="edge1" class="edge"><title>Node2&#45;&gt;Node1</title>
<path fill="none" stroke="midnightblue" d="M270.012,-439.726C270.012,-430.993 270.012,-422.037 270.012,-413.377"/>
<polygon fill="none" stroke="midnightblue" points="266.512,-439.844 270.012,-449.844 273.512,-439.844 266.512,-439.844"/>
</g>
<!-- Node3 -->
<g id="node3" class="node"><title>Node3</title>
<g id="a_node3"><a xlink:href="class_hydro_couple_1_1_i_identity.html" target="_top" xlink:title="IIdentity interface class defines a method to get the Id of an HydroCouple entity. ">
<polygon fill="white" stroke="black" points="196.001,-591.209 196.001,-695.219 344.023,-695.219 344.023,-591.209 196.001,-591.209"/>
<text text-anchor="middle" x="270.012" y="-683.219" font-family="Monaco" font-size="10.00">HydroCouple::IIdentity</text>
<polyline fill="none" stroke="black" points="196.001,-673.884 344.023,-673.884 "/>
<text text-anchor="middle" x="270.012" y="-661.884" font-family="Monaco" font-size="10.00"> </text>
<polyline fill="none" stroke="black" points="196.001,-652.549 344.023,-652.549 "/>
<text text-anchor="start" x="204.001" y="-640.549" font-family="Monaco" font-size="10.00">+ ~IIdentity()</text>
<text text-anchor="start" x="204.001" y="-627.214" font-family="Monaco" font-size="10.00">+ MPI_Comm()</text>
<text text-anchor="start" x="204.001" y="-613.879" font-family="Monaco" font-size="10.00">+ MPI_Rank()</text>
<text text-anchor="start" x="204.001" y="-600.544" font-family="Monaco" font-size="10.00">+ id()</text>
</a>
</g>
</g>
<!-- Node3&#45;&gt;Node2 -->
<g id="edge2" class="edge"><title>Node3&#45;&gt;Node2</title>
<path fill="none" stroke="midnightblue" d="M270.012,-580.65C270.012,-571.868 270.012,-562.914 270.012,-554.36"/>
<polygon fill="none" stroke="midnightblue" points="266.512,-580.847 270.012,-590.847 273.512,-580.847 266.512,-580.847"/>
</g>
<!-- Node4 -->
<g id="node4" class="node"><title>Node4</title>
<g id="a_node4"><a xlink:href="class_hydro_couple_1_1_i_description.html" target="_top" xlink:title="IDescription interface class provides descriptive information on a HydroCouple object. ">
<polygon fill="white" stroke="black" points="187,-732.219 187,-849.563 353.024,-849.563 353.024,-732.219 187,-732.219"/>
<text text-anchor="middle" x="270.012" y="-837.563" font-family="Monaco" font-size="10.00">HydroCouple::IDescription</text>
<polyline fill="none" stroke="black" points="187,-828.229 353.024,-828.229 "/>
<text text-anchor="middle" x="270.012" y="-816.229" font-family="Monaco" font-size="10.00"> </text>
<polyline fill="none" stroke="black" points="187,-806.894 353.024,-806.894 "/>
<text text-anchor="start" x="195" y="-794.894" font-family="Monaco" font-size="10.00">+ ~IDescription()</text>
<text text-anchor="start" x="195" y="-781.559" font-family="Monaco" font-size="10.00">+ getCaption()</text>
<text text-anchor="start" x="195" y="-768.224" font-family="Monaco" font-size="10.00">+ setCaption()</text>
<text text-anchor="start" x="195" y="-754.889" font-family="Monaco" font-size="10.00">+ getDescription()</text>
<text text-anchor="start" x="195" y="-741.554" font-family="Monaco" font-size="10.00">+ setDescription()</text>
</a>
</g>
</g>
<!-- Node4&#45;&gt;Node3 -->
<g id="edge3" class="edge"><title>Node4&#45;&gt;Node3</title>
<path fill="none" stroke="midnightblue" d="M270.012,-721.618C270.012,-712.799 270.012,-703.892 270.012,-695.414"/>
<polygon fill="none" stroke="midnightblue" points="266.512,-721.897 270.012,-731.897 273.512,-721.897 266.512,-721.897"/>
</g>
<!-- Node5 -->
<g id="node5" class="node"><title>Node5</title>
<g id="a_node5"><a xlink:href="class_hydro_couple_1_1_i_property_changed.html" target="_top" xlink:title="IPropertyChanged interface is used to emit signal/event when a property of an object changes...">
<polygon fill="white" stroke="black" points="174.998,-886.563 174.998,-950.568 365.026,-950.568 365.026,-886.563 174.998,-886.563"/>
<text text-anchor="middle" x="270.012" y="-938.568" font-family="Monaco" font-size="10.00">HydroCouple::IPropertyChanged</text>
<polyline fill="none" stroke="black" points="174.998,-929.233 365.026,-929.233 "/>
<text text-anchor="middle" x="270.012" y="-917.233" font-family="Monaco" font-size="10.00"> </text>
<polyline fill="none" stroke="black" points="174.998,-907.898 365.026,-907.898 "/>
<text text-anchor="start" x="182.998" y="-895.898" font-family="Monaco" font-size="10.00">+ ~IPropertyChanged()</text>
</a>
</g>
</g>
<!-- Node5&#45;&gt;Node4 -->
<g id="edge4" class="edge"><title>Node5&#45;&gt;Node4</title>
<path fill="none" stroke="midnightblue" d="M270.012,-876.243C270.012,-867.858 270.012,-858.892 270.012,-850.049"/>
<polygon fill="none" stroke="midnightblue" points="266.512,-876.5 270.012,-886.5 273.512,-876.5 266.512,-876.5"/>
</g>
<!-- Node9 -->
<g id="node9" class="node"><title>Node9</title>
<g id="a_node9"><a xlink:href="class_hydro_couple_1_1_spatio_temporal_1_1_i_time_geometry_argument.html" target="_top" xlink:title="The ITimeGeometryArgument class. ">
<polygon fill="white" stroke="black" points="282.999,-0.5 282.999,-117.845 461.025,-117.845 461.025,-0.5 282.999,-0.5"/>
<text text-anchor="start" x="290.999" y="-105.845" font-family="Monaco" font-size="10.00">HydroCouple::SpatioTemporal</text>
<text text-anchor="middle" x="372.012" y="-92.5098" font-family="Monaco" font-size="10.00">::ITimeGeometryArgument</text>
<polyline fill="none" stroke="black" points="282.999,-83.1748 461.025,-83.1748 "/>
<text text-anchor="middle" x="372.012" y="-71.1748" font-family="Monaco" font-size="10.00"> </text>
<polyline fill="none" stroke="black" points="282.999,-61.8398 461.025,-61.8398 "/>
<text text-anchor="start" x="290.999" y="-49.8398" font-family="Monaco" font-size="10.00">+ ~ITimeGeometryArgument()</text>
<text text-anchor="start" x="290.999" y="-36.5049" font-family="Monaco" font-size="10.00">+ setTimes()</text>
<text text-anchor="start" x="290.999" y="-23.1699" font-family="Monaco" font-size="10.00">+ setGeometryCollection()</text>
<text text-anchor="start" x="290.999" y="-9.83496" font-family="Monaco" font-size="10.00">+ timeGeometryValueSets()</text>
</a>
</g>
</g>
<!-- Node8&#45;&gt;Node9 -->
<g id="edge8" class="edge"><title>Node8&#45;&gt;Node9</title>
<path fill="none" stroke="midnightblue" d="M442.235,-159.492C432.897,-146.285 422.609,-131.733 412.854,-117.937"/>
<polygon fill="none" stroke="midnightblue" points="439.588,-161.81 448.219,-167.955 445.304,-157.769 439.588,-161.81"/>
</g>
<!-- Node10 -->
<g id="node10" class="node"><title>Node10</title>
<g id="a_node10"><a xlink:href="class_hydro_couple_1_1_spatio_temporal_1_1_i_time_geometry_exchange_item.html" target="_top" xlink:title="The ITimeGeometryExchangeItem class. ">
<polygon fill="white" stroke="black" points="478.998,-13.835 478.998,-104.51 675.027,-104.51 675.027,-13.835 478.998,-13.835"/>
<text text-anchor="start" x="486.998" y="-92.5098" font-family="Monaco" font-size="10.00">HydroCouple::SpatioTemporal</text>
<text text-anchor="middle" x="577.012" y="-79.1748" font-family="Monaco" font-size="10.00">::ITimeGeometryExchangeItem</text>
<polyline fill="none" stroke="black" points="478.998,-69.8398 675.027,-69.8398 "/>
<text text-anchor="middle" x="577.012" y="-57.8398" font-family="Monaco" font-size="10.00"> </text>
<polyline fill="none" stroke="black" points="478.998,-48.5049 675.027,-48.5049 "/>
<text text-anchor="start" x="486.998" y="-36.5049" font-family="Monaco" font-size="10.00">+ ~ITimeGeometryExchangeItem()</text>
<text text-anchor="start" x="486.998" y="-23.1699" font-family="Monaco" font-size="10.00">+ timeGeometryValues()</text>
</a>
</g>
</g>
<!-- Node8&#45;&gt;Node10 -->
<g id="edge9" class="edge"><title>Node8&#45;&gt;Node10</title>
<path fill="none" stroke="midnightblue" d="M507.437,-159.54C519.744,-141.963 533.723,-121.998 545.906,-104.599"/>
<polygon fill="none" stroke="midnightblue" points="504.414,-157.756 501.545,-167.955 510.148,-161.771 504.414,-157.756"/>
</g>
</g>
</svg>
        <g id="navigator" transform="translate(0 0)" fill="#404254">
                <rect fill="#f2f5e9" fill-opacity="0.5" stroke="#606060" stroke-width=".5" x="0" y="0" width="60" height="60"/>
                <use id="zoomplus" xlink:href="#zoomPlus" x="17" y="9" onmousedown="handleZoom(evt,'in')"/>
                <use id="zoomminus" xlink:href="#zoomMin" x="42" y="9" onmousedown="handleZoom(evt,'out')"/>
                <use id="reset" xlink:href="#resetDef" x="30" y="36" onmousedown="handleReset()"/>
                <g id="arrowUp" xlink:href="#dirArrow" transform="translate(30 24)" onmousedown="handlePan(0,-1)">
                  <use xlink:href="#rim" fill="#404040">
                        <set attributeName="fill" to="#808080" begin="arrowUp.mouseover" end="arrowUp.mouseout"/>
                  </use>
                  <path fill="none" stroke="white" stroke-width="1.5" d="M0,-3.0v7 M-2.5,-0.5L0,-3.0L2.5,-0.5"/>
                </g>
                <g id="arrowRight" xlink:href="#dirArrow" transform="rotate(90) translate(36 -43)" onmousedown="handlePan(1,0)">
                  <use xlink:href="#rim" fill="#404040">
                        <set attributeName="fill" to="#808080" begin="arrowRight.mouseover" end="arrowRight.mouseout"/>
                  </use>
                  <path fill="none" stroke="white" stroke-width="1.5" d="M0,-3.0v7 M-2.5,-0.5L0,-3.0L2.5,-0.5"/>
                </g>
                <g id="arrowDown" xlink:href="#dirArrow" transform="rotate(180) translate(-30 -48)" onmousedown="handlePan(0,1)">
                  <use xlink:href="#rim" fill="#404040">
                        <set attributeName="fill" to="#808080" begin="arrowDown.mouseover" end="arrowDown.mouseout"/>
                  </use>
                  <path fill="none" stroke="white" stroke-width="1.5" d="M0,-3.0v7 M-2.5,-0.5L0,-3.0L2.5,-0.5"/>
                </g>
                <g id="arrowLeft" xlink:href="#dirArrow" transform="rotate(270) translate(-36 17)" onmousedown="handlePan(-1,0)">
                  <use xlink:href="#rim" fill="#404040">
                        <set attributeName="fill" to="#808080" begin="arrowLeft.mouseover" end="arrowLeft.mouseout"/>
                  </use>
                  <path fill="none" stroke="white" stroke-width="1.5" d="M0,-3.0v7 M-2.5,-0.5L0,-3.0L2.5,-0.5"/>
                </g>
        </g>
        <svg viewBox="0 0 15 15" width="100%" height="30px" preserveAspectRatio="xMaxYMin meet">
         <g id="arrow_out" transform="scale(0.3 0.3)">
          <a xlink:href="class_hydro_couple_1_1_spatial_1_1_i_geometry_component_item__inherit__graph_org.svg" target="_base">
           <rect id="button" ry="5" rx="5" y="6" x="6" height="38" width="38"
                fill="#f2f5e9" fill-opacity="0.5" stroke="#606060" stroke-width="1.0"/>
           <path id="arrow"
             d="M 11.500037,31.436501 C 11.940474,20.09759 22.043105,11.32322 32.158766,21.979434 L 37.068811,17.246167 C 37.068811,17.246167 37.088388,32 37.088388,32 L 22.160133,31.978069 C 22.160133,31.978069 26.997745,27.140456 26.997745,27.140456 C 18.528582,18.264221 13.291696,25.230495 11.500037,31.436501 z"
             style="fill:#404040;"/>
          </a>
         </g>
        </svg>
</svg>
