<?xml version="1.0" encoding="UTF-8" standalone="no"?>
<!DOCTYPE svg PUBLIC "-//W3C//DTD SVG 1.1//EN"
 "http://www.w3.org/Graphics/SVG/1.1/DTD/svg11.dtd">
<!-- Generated by graphviz version 2.38.0 (20140413.2041)
 -->
<!-- Title: HydroCoupleCore::Data::IValueDefinition Pages: 1 -->
<svg width="272pt" height="466pt"
 viewBox="0.00 0.00 271.72 466.00" xmlns="http://www.w3.org/2000/svg" xmlns:xlink="http://www.w3.org/1999/xlink">
<g id="graph0" class="graph" transform="scale(1 1) rotate(0) translate(4 462)">
<title>HydroCoupleCore::Data::IValueDefinition</title>
<polygon fill="white" stroke="none" points="-4,4 -4,-462 267.719,-462 267.719,4 -4,4"/>
<!-- Node1 -->
<g id="node1" class="node"><title>Node1</title>
<polygon fill="#bfbfbf" stroke="black" points="70,-121.5 70,-225.5 192.719,-225.5 192.719,-121.5 70,-121.5"/>
<text text-anchor="start" x="78" y="-213.5" font-family="Helvetica,sans-Serif" font-size="10.00">HydroCoupleCore::Data</text>
<text text-anchor="middle" x="131.359" y="-203.5" font-family="Helvetica,sans-Serif" font-size="10.00">::IValueDefinition</text>
<polyline fill="none" stroke="black" points="70,-197.5 192.719,-197.5 "/>
<text text-anchor="middle" x="131.359" y="-185.5" font-family="Helvetica,sans-Serif" font-size="10.00"> </text>
<polyline fill="none" stroke="black" points="70,-179.5 192.719,-179.5 "/>
<text text-anchor="start" x="78" y="-167.5" font-family="Helvetica,sans-Serif" font-size="10.00">+ ~IValueDefinition()</text>
<text text-anchor="start" x="78" y="-157.5" font-family="Helvetica,sans-Serif" font-size="10.00">+ type()</text>
<text text-anchor="start" x="78" y="-147.5" font-family="Helvetica,sans-Serif" font-size="10.00">+ missingValue()</text>
<text text-anchor="start" x="78" y="-137.5" font-family="Helvetica,sans-Serif" font-size="10.00">+ defaultValue()</text>
<text text-anchor="start" x="78" y="-127.5" font-family="Helvetica,sans-Serif" font-size="10.00">+ possibleValues()</text>
</g>
<!-- Node4 -->
<g id="node4" class="node"><title>Node4</title>
<g id="a_node4"><a xlink:href="class_hydro_couple_core_1_1_data_1_1_i_quality.html" target="_top" xlink:title="Qualitative data described items in terms of some quality or categorization that may be &#39;informal&#39; or...">
<polygon fill="white" stroke="black" points="0,-0.5 0,-84.5 122.719,-84.5 122.719,-0.5 0,-0.5"/>
<text text-anchor="start" x="8" y="-72.5" font-family="Helvetica,sans-Serif" font-size="10.00">HydroCoupleCore::Data</text>
<text text-anchor="middle" x="61.3594" y="-62.5" font-family="Helvetica,sans-Serif" font-size="10.00">::IQuality</text>
<polyline fill="none" stroke="black" points="0,-56.5 122.719,-56.5 "/>
<text text-anchor="middle" x="61.3594" y="-44.5" font-family="Helvetica,sans-Serif" font-size="10.00"> </text>
<polyline fill="none" stroke="black" points="0,-38.5 122.719,-38.5 "/>
<text text-anchor="start" x="8" y="-26.5" font-family="Helvetica,sans-Serif" font-size="10.00">+ ~IQuality()</text>
<text text-anchor="start" x="8" y="-16.5" font-family="Helvetica,sans-Serif" font-size="10.00">+ categories()</text>
<text text-anchor="start" x="8" y="-6.5" font-family="Helvetica,sans-Serif" font-size="10.00">+ isOrdered()</text>
</a>
</g>
</g>
<!-- Node1&#45;&gt;Node4 -->
<g id="edge3" class="edge"><title>Node1&#45;&gt;Node4</title>
<path fill="none" stroke="midnightblue" d="M98.6802,-112.277C93.6259,-102.963 88.5068,-93.5288 83.7469,-84.7571"/>
<polygon fill="none" stroke="midnightblue" points="95.6466,-114.025 103.492,-121.145 101.799,-110.686 95.6466,-114.025"/>
</g>
<!-- Node5 -->
<g id="node5" class="node"><title>Node5</title>
<g id="a_node5"><a xlink:href="class_hydro_couple_core_1_1_data_1_1_i_quantity.html" target="_top" xlink:title="IQuantity specifies values as an amount of some unit, usually as a floating point number...">
<polygon fill="white" stroke="black" points="141,-5.5 141,-79.5 263.719,-79.5 263.719,-5.5 141,-5.5"/>
<text text-anchor="start" x="149" y="-67.5" font-family="Helvetica,sans-Serif" font-size="10.00">HydroCoupleCore::Data</text>
<text text-anchor="middle" x="202.359" y="-57.5" font-family="Helvetica,sans-Serif" font-size="10.00">::IQuantity</text>
<polyline fill="none" stroke="black" points="141,-51.5 263.719,-51.5 "/>
<text text-anchor="middle" x="202.359" y="-39.5" font-family="Helvetica,sans-Serif" font-size="10.00"> </text>
<polyline fill="none" stroke="black" points="141,-33.5 263.719,-33.5 "/>
<text text-anchor="start" x="149" y="-21.5" font-family="Helvetica,sans-Serif" font-size="10.00">+ ~IQuantity()</text>
<text text-anchor="start" x="149" y="-11.5" font-family="Helvetica,sans-Serif" font-size="10.00">+ unit()</text>
</a>
</g>
</g>
<!-- Node1&#45;&gt;Node5 -->
<g id="edge4" class="edge"><title>Node1&#45;&gt;Node5</title>
<path fill="none" stroke="midnightblue" d="M164.518,-112.254C170.663,-101.089 176.902,-89.7534 182.494,-79.5932"/>
<polygon fill="none" stroke="midnightblue" points="161.38,-110.697 159.624,-121.145 167.513,-114.072 161.38,-110.697"/>
</g>
<!-- Node2 -->
<g id="node2" class="node"><title>Node2</title>
<g id="a_node2"><a xlink:href="class_hydro_couple_core_1_1_i_description.html" target="_top" xlink:title="IDescription interface class provides descriptive information on a HydroCouple object. ">
<polygon fill="white" stroke="black" points="54.1626,-262.5 54.1626,-356.5 208.556,-356.5 208.556,-262.5 54.1626,-262.5"/>
<text text-anchor="middle" x="131.359" y="-344.5" font-family="Helvetica,sans-Serif" font-size="10.00">HydroCoupleCore::IDescription</text>
<polyline fill="none" stroke="black" points="54.1626,-338.5 208.556,-338.5 "/>
<text text-anchor="middle" x="131.359" y="-326.5" font-family="Helvetica,sans-Serif" font-size="10.00"> </text>
<polyline fill="none" stroke="black" points="54.1626,-320.5 208.556,-320.5 "/>
<text text-anchor="start" x="62.1626" y="-308.5" font-family="Helvetica,sans-Serif" font-size="10.00">+ ~IDescription()</text>
<text text-anchor="start" x="62.1626" y="-298.5" font-family="Helvetica,sans-Serif" font-size="10.00">+ getCaption()</text>
<text text-anchor="start" x="62.1626" y="-288.5" font-family="Helvetica,sans-Serif" font-size="10.00">+ setCaption()</text>
<text text-anchor="start" x="62.1626" y="-278.5" font-family="Helvetica,sans-Serif" font-size="10.00">+ getDescription()</text>
<text text-anchor="start" x="62.1626" y="-268.5" font-family="Helvetica,sans-Serif" font-size="10.00">+ setDescription()</text>
</a>
</g>
</g>
<!-- Node2&#45;&gt;Node1 -->
<g id="edge1" class="edge"><title>Node2&#45;&gt;Node1</title>
<path fill="none" stroke="midnightblue" d="M131.359,-252.229C131.359,-243.447 131.359,-234.413 131.359,-225.751"/>
<polygon fill="none" stroke="midnightblue" points="127.859,-252.385 131.359,-262.385 134.859,-252.385 127.859,-252.385"/>
</g>
<!-- Node3 -->
<g id="node3" class="node"><title>Node3</title>
<g id="a_node3"><a xlink:href="class_hydro_couple_core_1_1_i_property_changed.html" target="_top" xlink:title="IPropertyChanged interface is used to emit signal/event when a property of an object changes...">
<polygon fill="white" stroke="black" points="60.2759,-393.5 60.2759,-457.5 202.443,-457.5 202.443,-393.5 60.2759,-393.5"/>
<text text-anchor="start" x="68.2759" y="-445.5" font-family="Helvetica,sans-Serif" font-size="10.00">HydroCoupleCore::IProperty</text>
<text text-anchor="middle" x="131.359" y="-435.5" font-family="Helvetica,sans-Serif" font-size="10.00">Changed</text>
<polyline fill="none" stroke="black" points="60.2759,-429.5 202.443,-429.5 "/>
<text text-anchor="middle" x="131.359" y="-417.5" font-family="Helvetica,sans-Serif" font-size="10.00"> </text>
<polyline fill="none" stroke="black" points="60.2759,-411.5 202.443,-411.5 "/>
<text text-anchor="start" x="68.2759" y="-399.5" font-family="Helvetica,sans-Serif" font-size="10.00">+ ~IPropertyChanged()</text>
</a>
</g>
</g>
<!-- Node3&#45;&gt;Node2 -->
<g id="edge2" class="edge"><title>Node3&#45;&gt;Node2</title>
<path fill="none" stroke="midnightblue" d="M131.359,-383.141C131.359,-374.513 131.359,-365.367 131.359,-356.581"/>
<polygon fill="none" stroke="midnightblue" points="127.859,-383.349 131.359,-393.349 134.859,-383.349 127.859,-383.349"/>
</g>
</g>
</svg>
