<?xml version="1.0" encoding="UTF-8" standalone="no"?>
<!DOCTYPE svg PUBLIC "-//W3C//DTD SVG 1.1//EN"
 "http://www.w3.org/Graphics/SVG/1.1/DTD/svg11.dtd">
<!-- Generated by graphviz version 2.38.0 (20140413.2041)
 -->
<!-- Title: ComponentInfo::~ComponentInfo Pages: 1 -->
<svg width="442pt" height="624pt"
 viewBox="0.00 0.00 442.06 623.67" xmlns="http://www.w3.org/2000/svg" xmlns:xlink="http://www.w3.org/1999/xlink">
<g id="graph0" class="graph" transform="scale(1 1) rotate(0) translate(4 619.67)">
<title>ComponentInfo::~ComponentInfo</title>
<polygon fill="white" stroke="none" points="-4,4 -4,-619.67 438.06,-619.67 438.06,4 -4,4"/>
<!-- Node1 -->
<g id="node1" class="node"><title>Node1</title>
<polygon fill="#bfbfbf" stroke="black" points="0,-290.167 0,-311.502 190.028,-311.502 190.028,-290.167 0,-290.167"/>
<text text-anchor="middle" x="95.0142" y="-299.502" font-family="Monaco" font-size="10.00">ComponentInfo::~ComponentInfo</text>
</g>
<!-- Node2 -->
<g id="node2" class="node"><title>Node2</title>
<g id="a_node2"><a xlink:href="class_hydro_couple_1_1_i_component_info.html#a76fe89cc78853de29edd3fdbb1be8a69" target="_top" xlink:title="Name of the current Component. ">
<polygon fill="white" stroke="black" points="241.031,-580.5 241.031,-615.17 419.057,-615.17 419.057,-580.5 241.031,-580.5"/>
<text text-anchor="start" x="249.031" y="-603.17" font-family="Monaco" font-size="10.00">HydroCouple::IComponentInfo</text>
<text text-anchor="middle" x="330.044" y="-589.835" font-family="Monaco" font-size="10.00">::name</text>
</a>
</g>
</g>
<!-- Node1&#45;&gt;Node2 -->
<g id="edge1" class="edge"><title>Node1&#45;&gt;Node2</title>
<path fill="none" stroke="midnightblue" d="M97.8662,-311.584C105.462,-352.298 138.095,-498.381 226.028,-570.835 228.026,-572.481 230.113,-574.028 232.274,-575.481"/>
<polygon fill="midnightblue" stroke="midnightblue" points="230.559,-578.533 240.942,-580.637 234.137,-572.517 230.559,-578.533"/>
</g>
<!-- Node3 -->
<g id="node3" class="node"><title>Node3</title>
<g id="a_node3"><a xlink:href="class_hydro_couple_1_1_i_component_info.html#aec30e02081b44559a90c75dc8024079d" target="_top" xlink:title="File path to Component library. ">
<polygon fill="white" stroke="black" points="241.031,-526.5 241.031,-561.17 419.057,-561.17 419.057,-526.5 241.031,-526.5"/>
<text text-anchor="start" x="249.031" y="-549.17" font-family="Monaco" font-size="10.00">HydroCouple::IComponentInfo</text>
<text text-anchor="middle" x="330.044" y="-535.835" font-family="Monaco" font-size="10.00">::libraryFilePath</text>
</a>
</g>
</g>
<!-- Node1&#45;&gt;Node3 -->
<g id="edge2" class="edge"><title>Node1&#45;&gt;Node3</title>
<path fill="none" stroke="midnightblue" d="M99.3098,-311.836C110.572,-347.476 151.048,-460.699 226.028,-516.835 228.165,-518.435 230.389,-519.94 232.682,-521.356"/>
<polygon fill="midnightblue" stroke="midnightblue" points="231.391,-524.64 241.841,-526.389 234.763,-518.506 231.391,-524.64"/>
</g>
<!-- Node4 -->
<g id="node4" class="node"><title>Node4</title>
<g id="a_node4"><a xlink:href="class_hydro_couple_1_1_i_component_info.html#aabdd158fd67c99350576cb4dd6f2d65c" target="_top" xlink:title="Sets file path to Component library. ">
<polygon fill="white" stroke="black" points="241.031,-472.5 241.031,-507.17 419.057,-507.17 419.057,-472.5 241.031,-472.5"/>
<text text-anchor="start" x="249.031" y="-495.17" font-family="Monaco" font-size="10.00">HydroCouple::IComponentInfo</text>
<text text-anchor="middle" x="330.044" y="-481.835" font-family="Monaco" font-size="10.00">::setLibraryFilePath</text>
</a>
</g>
</g>
<!-- Node1&#45;&gt;Node4 -->
<g id="edge3" class="edge"><title>Node1&#45;&gt;Node4</title>
<path fill="none" stroke="midnightblue" d="M101.597,-311.903C117.047,-341.365 163.4,-422.212 226.028,-462.835 228.948,-464.729 231.994,-466.49 235.134,-468.127"/>
<polygon fill="midnightblue" stroke="midnightblue" points="233.665,-471.304 244.201,-472.425 236.663,-464.979 233.665,-471.304"/>
</g>
<!-- Node5 -->
<g id="node5" class="node"><title>Node5</title>
<g id="a_node5"><a xlink:href="class_hydro_couple_1_1_i_component_info.html#a734b2fdf49a3c1237e92d273ed94ce3e" target="_top" xlink:title="File path to Component icon. Must be specified relative to the component library. ...">
<polygon fill="white" stroke="black" points="241.031,-418.5 241.031,-453.17 419.057,-453.17 419.057,-418.5 241.031,-418.5"/>
<text text-anchor="start" x="249.031" y="-441.17" font-family="Monaco" font-size="10.00">HydroCouple::IComponentInfo</text>
<text text-anchor="middle" x="330.044" y="-427.835" font-family="Monaco" font-size="10.00">::iconFilePath</text>
</a>
</g>
</g>
<!-- Node1&#45;&gt;Node5 -->
<g id="edge4" class="edge"><title>Node1&#45;&gt;Node5</title>
<path fill="none" stroke="midnightblue" d="M105.662,-311.519C125.838,-333.204 174.875,-382.545 226.028,-408.835 230.227,-410.993 234.612,-412.989 239.106,-414.834"/>
<polygon fill="midnightblue" stroke="midnightblue" points="237.866,-418.107 248.456,-418.412 240.368,-411.569 237.866,-418.107"/>
</g>
<!-- Node6 -->
<g id="node6" class="node"><title>Node6</title>
<g id="a_node6"><a xlink:href="class_hydro_couple_1_1_i_component_info.html#a40681c4287cbc91d9b12e3e7782f72bc" target="_top" xlink:title="Component developer information. ">
<polygon fill="white" stroke="black" points="241.031,-364.5 241.031,-399.17 419.057,-399.17 419.057,-364.5 241.031,-364.5"/>
<text text-anchor="start" x="249.031" y="-387.17" font-family="Monaco" font-size="10.00">HydroCouple::IComponentInfo</text>
<text text-anchor="middle" x="330.044" y="-373.835" font-family="Monaco" font-size="10.00">::vendor</text>
</a>
</g>
</g>
<!-- Node1&#45;&gt;Node6 -->
<g id="edge5" class="edge"><title>Node1&#45;&gt;Node6</title>
<path fill="none" stroke="midnightblue" d="M119.132,-311.573C144.848,-323.248 187.811,-341.958 226.028,-354.835 232.955,-357.169 240.198,-359.426 247.496,-361.574"/>
<polygon fill="midnightblue" stroke="midnightblue" points="246.879,-365.038 257.456,-364.432 248.81,-358.309 246.879,-365.038"/>
</g>
<!-- Node7 -->
<g id="node7" class="node"><title>Node7</title>
<g id="a_node7"><a xlink:href="class_hydro_couple_1_1_i_component_info.html#a2402db50c225ba4dba18ecdad60583d5" target="_top" xlink:title="Publications associated with this component. ">
<polygon fill="white" stroke="black" points="241.031,-310.5 241.031,-345.17 419.057,-345.17 419.057,-310.5 241.031,-310.5"/>
<text text-anchor="start" x="249.031" y="-333.17" font-family="Monaco" font-size="10.00">HydroCouple::IComponentInfo</text>
<text text-anchor="middle" x="330.044" y="-319.835" font-family="Monaco" font-size="10.00">::publications</text>
</a>
</g>
</g>
<!-- Node1&#45;&gt;Node7 -->
<g id="edge6" class="edge"><title>Node1&#45;&gt;Node7</title>
<path fill="none" stroke="midnightblue" d="M188.114,-311.506C202.036,-313.119 216.446,-314.789 230.498,-316.417"/>
<polygon fill="midnightblue" stroke="midnightblue" points="230.318,-319.919 240.655,-317.594 231.124,-312.966 230.318,-319.919"/>
</g>
<!-- Node8 -->
<g id="node8" class="node"><title>Node8</title>
<g id="a_node8"><a xlink:href="class_hydro_couple_1_1_i_component_info.html#a19c22fb41b8e3698fd2b323f831ca8de" target="_top" xlink:title="Component license info. ">
<polygon fill="white" stroke="black" points="241.031,-256.5 241.031,-291.17 419.057,-291.17 419.057,-256.5 241.031,-256.5"/>
<text text-anchor="start" x="249.031" y="-279.17" font-family="Monaco" font-size="10.00">HydroCouple::IComponentInfo</text>
<text text-anchor="middle" x="330.044" y="-265.835" font-family="Monaco" font-size="10.00">::license</text>
</a>
</g>
</g>
<!-- Node1&#45;&gt;Node8 -->
<g id="edge7" class="edge"><title>Node1&#45;&gt;Node8</title>
<path fill="none" stroke="midnightblue" d="M188.114,-290.164C202.036,-288.551 216.446,-286.881 230.498,-285.253"/>
<polygon fill="midnightblue" stroke="midnightblue" points="231.124,-288.704 240.655,-284.076 230.318,-281.75 231.124,-288.704"/>
</g>
<!-- Node9 -->
<g id="node9" class="node"><title>Node9</title>
<g id="a_node9"><a xlink:href="class_hydro_couple_1_1_i_component_info.html#a20045ada1e7a5c30ee11f5fbac09ad1e" target="_top" xlink:title="Component copyright info. ">
<polygon fill="white" stroke="black" points="241.031,-202.5 241.031,-237.17 419.057,-237.17 419.057,-202.5 241.031,-202.5"/>
<text text-anchor="start" x="249.031" y="-225.17" font-family="Monaco" font-size="10.00">HydroCouple::IComponentInfo</text>
<text text-anchor="middle" x="330.044" y="-211.835" font-family="Monaco" font-size="10.00">::copyright</text>
</a>
</g>
</g>
<!-- Node1&#45;&gt;Node9 -->
<g id="edge8" class="edge"><title>Node1&#45;&gt;Node9</title>
<path fill="none" stroke="midnightblue" d="M119.132,-290.097C144.848,-278.422 187.811,-259.712 226.028,-246.835 232.955,-244.501 240.198,-242.244 247.496,-240.096"/>
<polygon fill="midnightblue" stroke="midnightblue" points="248.81,-243.361 257.456,-237.238 246.879,-236.632 248.81,-243.361"/>
</g>
<!-- Node10 -->
<g id="node10" class="node"><title>Node10</title>
<g id="a_node10"><a xlink:href="class_hydro_couple_1_1_i_component_info.html#aea77d368551f6f2bb8cb3755016bd3f6" target="_top" xlink:title="Component developer url. ">
<polygon fill="white" stroke="black" points="226.028,-162.167 226.028,-183.502 434.06,-183.502 434.06,-162.167 226.028,-162.167"/>
<text text-anchor="middle" x="330.044" y="-171.502" font-family="Monaco" font-size="10.00">HydroCouple::IComponentInfo::url</text>
</a>
</g>
</g>
<!-- Node1&#45;&gt;Node10 -->
<g id="edge9" class="edge"><title>Node1&#45;&gt;Node10</title>
<path fill="none" stroke="midnightblue" d="M105.527,-289.876C125.453,-267.686 174.053,-217.46 226.028,-192.835 230.968,-190.495 236.164,-188.428 241.489,-186.604"/>
<polygon fill="midnightblue" stroke="midnightblue" points="242.685,-189.897 251.186,-183.574 240.598,-183.216 242.685,-189.897"/>
</g>
<!-- Node11 -->
<g id="node11" class="node"><title>Node11</title>
<g id="a_node11"><a xlink:href="class_hydro_couple_1_1_i_component_info.html#a44a02f33ceb1e49ca4a72fc6ed87a2e4" target="_top" xlink:title="Component developer email. ">
<polygon fill="white" stroke="black" points="241.031,-108.5 241.031,-143.17 419.057,-143.17 419.057,-108.5 241.031,-108.5"/>
<text text-anchor="start" x="249.031" y="-131.17" font-family="Monaco" font-size="10.00">HydroCouple::IComponentInfo</text>
<text text-anchor="middle" x="330.044" y="-117.835" font-family="Monaco" font-size="10.00">::email</text>
</a>
</g>
</g>
<!-- Node1&#45;&gt;Node11 -->
<g id="edge10" class="edge"><title>Node1&#45;&gt;Node11</title>
<path fill="none" stroke="midnightblue" d="M102.335,-289.94C118.888,-262.417 166.373,-189.67 226.028,-152.835 229.204,-150.874 232.52,-149.054 235.933,-147.366"/>
<polygon fill="midnightblue" stroke="midnightblue" points="237.495,-150.501 245.169,-143.197 234.614,-144.121 237.495,-150.501"/>
</g>
<!-- Node12 -->
<g id="node12" class="node"><title>Node12</title>
<g id="a_node12"><a xlink:href="class_hydro_couple_1_1_i_component_info.html#a62f6057385292ad34538fc2b4d242674" target="_top" xlink:title="Component version info. ">
<polygon fill="white" stroke="black" points="241.031,-54.5 241.031,-89.1699 419.057,-89.1699 419.057,-54.5 241.031,-54.5"/>
<text text-anchor="start" x="249.031" y="-77.1699" font-family="Monaco" font-size="10.00">HydroCouple::IComponentInfo</text>
<text text-anchor="middle" x="330.044" y="-63.835" font-family="Monaco" font-size="10.00">::version</text>
</a>
</g>
</g>
<!-- Node1&#45;&gt;Node12 -->
<g id="edge11" class="edge"><title>Node1&#45;&gt;Node12</title>
<path fill="none" stroke="midnightblue" d="M99.7004,-290.067C111.867,-256.199 154.125,-150.999 226.028,-98.835 228.413,-97.1046 230.901,-95.4851 233.469,-93.9693"/>
<polygon fill="midnightblue" stroke="midnightblue" points="235.273,-96.9743 242.476,-89.2048 232,-90.7866 235.273,-96.9743"/>
</g>
<!-- Node13 -->
<g id="node13" class="node"><title>Node13</title>
<g id="a_node13"><a xlink:href="class_hydro_couple_1_1_i_component_info.html#af9aa214f54f818367136d58f7514e16e" target="_top" xlink:title="Component category. ">
<polygon fill="white" stroke="black" points="241.031,-0.5 241.031,-35.1699 419.057,-35.1699 419.057,-0.5 241.031,-0.5"/>
<text text-anchor="start" x="249.031" y="-23.1699" font-family="Monaco" font-size="10.00">HydroCouple::IComponentInfo</text>
<text text-anchor="middle" x="330.044" y="-9.83496" font-family="Monaco" font-size="10.00">::category</text>
</a>
</g>
</g>
<!-- Node1&#45;&gt;Node13 -->
<g id="edge12" class="edge"><title>Node1&#45;&gt;Node13</title>
<path fill="none" stroke="midnightblue" d="M98.1661,-290.097C106.634,-250.726 141.436,-113.047 226.028,-44.835 227.841,-43.3734 229.724,-41.9903 231.668,-40.6815"/>
<polygon fill="midnightblue" stroke="midnightblue" points="233.73,-43.5271 240.534,-35.4057 230.15,-37.5115 233.73,-43.5271"/>
</g>
</g>
</svg>
