<?xml version="1.0" encoding="UTF-8" standalone="no"?>
<!DOCTYPE svg PUBLIC "-//W3C//DTD SVG 1.1//EN"
 "http://www.w3.org/Graphics/SVG/1.1/DTD/svg11.dtd">
<!-- Generated by graphviz version 2.38.0 (20140413.2041)
 -->
<!-- Title: HydroCoupleSDK::AbstractModelComponent::AbstractModelComponent Pages: 1 -->
<svg width="394pt" height="57pt"
 viewBox="0.00 0.00 394.05 57.00" xmlns="http://www.w3.org/2000/svg" xmlns:xlink="http://www.w3.org/1999/xlink">
<g id="graph0" class="graph" transform="scale(1 1) rotate(0) translate(4 53.0049)">
<title>HydroCoupleSDK::AbstractModelComponent::AbstractModelComponent</title>
<polygon fill="white" stroke="none" points="-4,4 -4,-53.0049 390.052,-53.0049 390.052,4 -4,4"/>
<!-- Node1 -->
<g id="node1" class="node"><title>Node1</title>
<polygon fill="#bfbfbf" stroke="black" points="0,-0.5 0,-48.5049 190.028,-48.5049 190.028,-0.5 0,-0.5"/>
<text text-anchor="start" x="8" y="-36.5049" font-family="Monaco" font-size="10.00">HydroCoupleSDK::Abstract</text>
<text text-anchor="start" x="8" y="-23.1699" font-family="Monaco" font-size="10.00">ModelComponent::AbstractModel</text>
<text text-anchor="middle" x="95.0142" y="-9.83496" font-family="Monaco" font-size="10.00">Component</text>
</g>
<!-- Node2 -->
<g id="node2" class="node"><title>Node2</title>
<g id="a_node2"><a xlink:href="class_hydro_couple_s_d_k_1_1_abstract_model_component.html#adeeb4de83e6ffafd38332ba5c4580fc9" target="_top" xlink:title="parent ">
<polygon fill="white" stroke="black" points="226.028,-7.16748 226.028,-41.8374 386.052,-41.8374 386.052,-7.16748 226.028,-7.16748"/>
<text text-anchor="start" x="234.028" y="-29.8374" font-family="Monaco" font-size="10.00">HydroCoupleSDK::Abstract</text>
<text text-anchor="middle" x="306.04" y="-16.5024" font-family="Monaco" font-size="10.00">ModelComponent::parent</text>
</a>
</g>
</g>
<!-- Node1&#45;&gt;Node2 -->
<g id="edge1" class="edge"><title>Node1&#45;&gt;Node2</title>
<path fill="none" stroke="midnightblue" d="M190.132,-24.5024C198.606,-24.5024 207.172,-24.5024 215.605,-24.5024"/>
<polygon fill="midnightblue" stroke="midnightblue" points="215.809,-28.0025 225.809,-24.5024 215.809,-21.0025 215.809,-28.0025"/>
</g>
</g>
</svg>
