<?xml version="1.0" encoding="UTF-8" standalone="no"?>
<!DOCTYPE svg PUBLIC "-//W3C//DTD SVG 1.1//EN"
 "http://www.w3.org/Graphics/SVG/1.1/DTD/svg11.dtd">
<!-- Generated by graphviz version 2.38.0 (20140413.2041)
 -->
<!-- Title: HydroCouple::SpatioTemporal::ITime3DRegularGridExchangeItem Pages: 1 -->
<!--zoomable 1060 -->
<svg id="main" version="1.1" xmlns="http://www.w3.org/2000/svg" xmlns:xlink="http://www.w3.org/1999/xlink" xml:space="preserve" onload="init(evt)">
<style type="text/css"><![CDATA[
.edge:hover path { stroke: red; }
.edge:hover polygon { stroke: red; fill: red; }
]]></style>
<script type="text/javascript"><![CDATA[
var edges = document.getElementsByTagName('g');
if (edges && edges.length) {
  for (var i=0;i<edges.length;i++) {
    if (edges[i].id.substr(0,4)=='edge') {
      edges[i].setAttribute('class','edge');
    }
  }
}
]]></script>
        <defs>
                <circle id="rim" cx="0" cy="0" r="7"/>
                <circle id="rim2" cx="0" cy="0" r="3.5"/>
                <g id="zoomPlus">
                        <use xlink:href="#rim" fill="#404040">
                                <set attributeName="fill" to="#808080" begin="zoomplus.mouseover" end="zoomplus.mouseout"/>
                        </use>
                        <path d="M-4,0h8M0,-4v8" fill="none" stroke="white" stroke-width="1.5" pointer-events="none"/>
                </g>
                <g id="zoomMin">
                        <use xlink:href="#rim" fill="#404040">
                                <set attributeName="fill" to="#808080" begin="zoomminus.mouseover" end="zoomminus.mouseout"/>
                        </use>
                        <path d="M-4,0h8" fill="none" stroke="white" stroke-width="1.5" pointer-events="none"/>
                </g>
                <g id="dirArrow">
                        <path fill="none" stroke="white" stroke-width="1.5" d="M0,-3.0v7 M-2.5,-0.5L0,-3.0L2.5,-0.5"/>
                </g>
               <g id="resetDef">
                       <use xlink:href="#rim2" fill="#404040">
                               <set attributeName="fill" to="#808080" begin="reset.mouseover" end="reset.mouseout"/>
                       </use>
               </g>
        </defs>

<script type="text/javascript">
var viewWidth = 620;
var viewHeight = 1060;
var sectionId = 'dynsection-0';
</script>
<script xlink:href="svgpan.js"/>
<svg id="graph" class="graph">
<g id="viewport">
<title>HydroCouple::SpatioTemporal::ITime3DRegularGridExchangeItem</title>
<polygon fill="white" stroke="none" points="-4,4 -4,-1056.07 616.028,-1056.07 616.028,4 -4,4"/>
<!-- Node1 -->
<g id="node1" class="node"><title>Node1</title>
<polygon fill="#bfbfbf" stroke="black" points="150.994,-0.5 150.994,-91.1748 377.028,-91.1748 377.028,-0.5 150.994,-0.5"/>
<text text-anchor="start" x="158.994" y="-79.1748" font-family="Monaco" font-size="10.00">HydroCouple::SpatioTemporal</text>
<text text-anchor="middle" x="264.011" y="-65.8398" font-family="Monaco" font-size="10.00">::ITime3DRegularGridExchangeItem</text>
<polyline fill="none" stroke="black" points="150.994,-56.5049 377.028,-56.5049 "/>
<text text-anchor="middle" x="264.011" y="-44.5049" font-family="Monaco" font-size="10.00"> </text>
<polyline fill="none" stroke="black" points="150.994,-35.1699 377.028,-35.1699 "/>
<text text-anchor="start" x="158.994" y="-23.1699" font-family="Monaco" font-size="10.00">+ ~ITime3RegularGridExchangeItem()</text>
<text text-anchor="start" x="158.994" y="-9.83496" font-family="Monaco" font-size="10.00">+ ~ITime3DRegularGridExchangeItem()</text>
</g>
<!-- Node2 -->
<g id="node2" class="node"><title>Node2</title>
<g id="a_node2"><a xlink:href="class_hydro_couple_1_1_temporal_1_1_i_time_exchange_item.html" target="_top" xlink:title="The ITimeExchangeItem class. ">
<polygon fill="white" stroke="black" points="0,-128.175 0,-205.515 148.021,-205.515 148.021,-128.175 0,-128.175"/>
<text text-anchor="start" x="8" y="-193.515" font-family="Monaco" font-size="10.00">HydroCouple::Temporal</text>
<text text-anchor="middle" x="74.0107" y="-180.18" font-family="Monaco" font-size="10.00">::ITimeExchangeItem</text>
<polyline fill="none" stroke="black" points="0,-170.845 148.021,-170.845 "/>
<text text-anchor="middle" x="74.0107" y="-158.845" font-family="Monaco" font-size="10.00"> </text>
<polyline fill="none" stroke="black" points="0,-149.51 148.021,-149.51 "/>
<text text-anchor="start" x="8" y="-137.51" font-family="Monaco" font-size="10.00">+ ~ITimeExchangeItem()</text>
</a>
</g>
</g>
<!-- Node2&#45;&gt;Node1 -->
<g id="edge1" class="edge"><title>Node2&#45;&gt;Node1</title>
<path fill="none" stroke="midnightblue" d="M136.763,-122.453C152.716,-112.278 170.036,-101.425 186.619,-91.2082"/>
<polygon fill="none" stroke="midnightblue" points="134.59,-119.688 128.054,-128.027 138.364,-125.584 134.59,-119.688"/>
</g>
<!-- Node2&#45;&gt;Node1 -->
<g id="edge17" class="edge"><title>Node2&#45;&gt;Node1</title>
<path fill="none" stroke="midnightblue" d="M149.354,-122.735C166.026,-112.479 183.536,-101.519 199.723,-91.2082"/>
<polygon fill="none" stroke="midnightblue" points="147.419,-119.816 140.724,-128.027 151.078,-125.783 147.419,-119.816"/>
</g>
<!-- Node3 -->
<g id="node3" class="node"><title>Node3</title>
<g id="a_node3"><a xlink:href="class_hydro_couple_1_1_i_exchange_item.html" target="_top" xlink:title="IExchangeItem the base data item the can be exchanged between components at runtime. ">
<polygon fill="white" stroke="black" points="8.99805,-269.185 8.99805,-346.524 181.023,-346.524 181.023,-269.185 8.99805,-269.185"/>
<text text-anchor="middle" x="95.0107" y="-334.524" font-family="Monaco" font-size="10.00">HydroCouple::IExchangeItem</text>
<polyline fill="none" stroke="black" points="8.99805,-325.189 181.023,-325.189 "/>
<text text-anchor="middle" x="95.0107" y="-313.189" font-family="Monaco" font-size="10.00"> </text>
<polyline fill="none" stroke="black" points="8.99805,-303.854 181.023,-303.854 "/>
<text text-anchor="start" x="16.998" y="-291.854" font-family="Monaco" font-size="10.00">+ ~IExchangeItem()</text>
<text text-anchor="start" x="16.998" y="-278.52" font-family="Monaco" font-size="10.00">+ itemChanged()</text>
</a>
</g>
</g>
<!-- Node3&#45;&gt;Node2 -->
<g id="edge2" class="edge"><title>Node3&#45;&gt;Node2</title>
<path fill="none" stroke="midnightblue" d="M87.7678,-258.91C85.1437,-241.539 82.2183,-222.175 79.7421,-205.784"/>
<polygon fill="none" stroke="midnightblue" points="84.3178,-259.504 89.2724,-268.869 91.2393,-258.459 84.3178,-259.504"/>
</g>
<!-- Node9 -->
<g id="node9" class="node"><title>Node9</title>
<g id="a_node9"><a xlink:href="class_hydro_couple_1_1_spatial_1_1_i3_d_regular_grid_exhange_item.html" target="_top" xlink:title="An I3DRegularGridExhangeItem is an IExchangeItem with an I3DRegularGridComponentItem. ">
<polygon fill="white" stroke="black" points="165.996,-128.175 165.996,-205.515 362.025,-205.515 362.025,-128.175 165.996,-128.175"/>
<text text-anchor="start" x="173.996" y="-193.515" font-family="Monaco" font-size="10.00">HydroCouple::Spatial</text>
<text text-anchor="middle" x="264.011" y="-180.18" font-family="Monaco" font-size="10.00">::I3DRegularGridExhangeItem</text>
<polyline fill="none" stroke="black" points="165.996,-170.845 362.025,-170.845 "/>
<text text-anchor="middle" x="264.011" y="-158.845" font-family="Monaco" font-size="10.00"> </text>
<polyline fill="none" stroke="black" points="165.996,-149.51 362.025,-149.51 "/>
<text text-anchor="start" x="173.996" y="-137.51" font-family="Monaco" font-size="10.00">+ ~I3DRegularGridExhangeItem()</text>
</a>
</g>
</g>
<!-- Node3&#45;&gt;Node9 -->
<g id="edge10" class="edge"><title>Node3&#45;&gt;Node9</title>
<path fill="none" stroke="midnightblue" d="M148.928,-262.505C171.225,-244.165 196.806,-223.123 218.179,-205.543"/>
<polygon fill="none" stroke="midnightblue" points="146.69,-259.814 141.191,-268.869 151.137,-265.22 146.69,-259.814"/>
</g>
<!-- Node4 -->
<g id="node4" class="node"><title>Node4</title>
<g id="a_node4"><a xlink:href="class_hydro_couple_1_1_i_component_item.html" target="_top" xlink:title="IComponentItem is a fundamental unit of data for a component. ">
<polygon fill="white" stroke="black" points="186.998,-591.209 186.998,-681.884 365.024,-681.884 365.024,-591.209 186.998,-591.209"/>
<text text-anchor="middle" x="276.011" y="-669.884" font-family="Monaco" font-size="10.00">HydroCouple::IComponentItem</text>
<polyline fill="none" stroke="black" points="186.998,-660.549 365.024,-660.549 "/>
<text text-anchor="middle" x="276.011" y="-648.549" font-family="Monaco" font-size="10.00"> </text>
<polyline fill="none" stroke="black" points="186.998,-639.214 365.024,-639.214 "/>
<text text-anchor="start" x="194.998" y="-627.214" font-family="Monaco" font-size="10.00">+ ~IComponentItem()</text>
<text text-anchor="start" x="194.998" y="-613.879" font-family="Monaco" font-size="10.00">+ modelComponent()</text>
<text text-anchor="start" x="194.998" y="-600.544" font-family="Monaco" font-size="10.00">+ dimensions()</text>
</a>
</g>
</g>
<!-- Node4&#45;&gt;Node3 -->
<g id="edge3" class="edge"><title>Node4&#45;&gt;Node3</title>
<path fill="none" stroke="midnightblue" d="M246.402,-582.105C209.687,-515.836 148.03,-404.55 115.903,-346.564"/>
<polygon fill="none" stroke="midnightblue" points="243.504,-584.096 251.412,-591.147 249.627,-580.704 243.504,-584.096"/>
</g>
<!-- Node8 -->
<g id="node8" class="node"><title>Node8</title>
<g id="a_node8"><a xlink:href="class_hydro_couple_1_1_temporal_1_1_i_time_component_item.html" target="_top" xlink:title="ITimeComponentItem is an IComponentItem with a temporal attribute. ">
<polygon fill="white" stroke="black" points="199,-242.515 199,-373.194 353.022,-373.194 353.022,-242.515 199,-242.515"/>
<text text-anchor="start" x="207" y="-361.194" font-family="Monaco" font-size="10.00">HydroCouple::Temporal</text>
<text text-anchor="middle" x="276.011" y="-347.859" font-family="Monaco" font-size="10.00">::ITimeComponentItem</text>
<polyline fill="none" stroke="black" points="199,-338.524 353.022,-338.524 "/>
<text text-anchor="middle" x="276.011" y="-326.524" font-family="Monaco" font-size="10.00"> </text>
<polyline fill="none" stroke="black" points="199,-317.189 353.022,-317.189 "/>
<text text-anchor="start" x="207" y="-305.189" font-family="Monaco" font-size="10.00">+ ~ITimeComponentItem()</text>
<text text-anchor="start" x="207" y="-291.854" font-family="Monaco" font-size="10.00">+ timeDimension()</text>
<text text-anchor="start" x="207" y="-278.52" font-family="Monaco" font-size="10.00">+ times()</text>
<text text-anchor="start" x="207" y="-265.185" font-family="Monaco" font-size="10.00">+ timeSpan()</text>
<text text-anchor="start" x="207" y="-251.85" font-family="Monaco" font-size="10.00">+ time()</text>
</a>
</g>
</g>
<!-- Node4&#45;&gt;Node8 -->
<g id="edge8" class="edge"><title>Node4&#45;&gt;Node8</title>
<path fill="none" stroke="midnightblue" d="M276.011,-580.865C276.011,-523.697 276.011,-434.028 276.011,-373.418"/>
<polygon fill="none" stroke="midnightblue" points="272.511,-581.147 276.011,-591.147 279.511,-581.147 272.511,-581.147"/>
</g>
<!-- Node11 -->
<g id="node11" class="node"><title>Node11</title>
<g id="a_node11"><a xlink:href="class_hydro_couple_1_1_spatial_1_1_i2_d_regular_grid_component_item.html" target="_top" xlink:title="An I2DRegularGridComponentItem represents an I2DRegularGrid IComponentItem. ">
<polygon fill="white" stroke="black" points="336.995,-410.194 336.995,-554.209 545.026,-554.209 545.026,-410.194 336.995,-410.194"/>
<text text-anchor="start" x="344.995" y="-542.209" font-family="Monaco" font-size="10.00">HydroCouple::Spatial</text>
<text text-anchor="middle" x="441.011" y="-528.874" font-family="Monaco" font-size="10.00">::I2DRegularGridComponentItem</text>
<polyline fill="none" stroke="black" points="336.995,-519.539 545.026,-519.539 "/>
<text text-anchor="middle" x="441.011" y="-507.539" font-family="Monaco" font-size="10.00"> </text>
<polyline fill="none" stroke="black" points="336.995,-498.204 545.026,-498.204 "/>
<text text-anchor="start" x="344.995" y="-486.204" font-family="Monaco" font-size="10.00">+ ~I2DRegularGridComponentItem()</text>
<text text-anchor="start" x="344.995" y="-472.869" font-family="Monaco" font-size="10.00">+ numXNodesDimension()</text>
<text text-anchor="start" x="344.995" y="-459.534" font-family="Monaco" font-size="10.00">+ numYNodesDimension()</text>
<text text-anchor="start" x="344.995" y="-446.199" font-family="Monaco" font-size="10.00">+ numXCellsDimension()</text>
<text text-anchor="start" x="344.995" y="-432.864" font-family="Monaco" font-size="10.00">+ numYCellsDimension()</text>
<text text-anchor="start" x="344.995" y="-419.529" font-family="Monaco" font-size="10.00">+ grid()</text>
</a>
</g>
</g>
<!-- Node4&#45;&gt;Node11 -->
<g id="edge13" class="edge"><title>Node4&#45;&gt;Node11</title>
<path fill="none" stroke="midnightblue" d="M331.615,-584.207C341.997,-574.621 353.017,-564.447 363.911,-554.388"/>
<polygon fill="none" stroke="midnightblue" points="329.152,-581.717 324.179,-591.072 333.901,-586.86 329.152,-581.717"/>
</g>
<!-- Node5 -->
<g id="node5" class="node"><title>Node5</title>
<g id="a_node5"><a xlink:href="class_hydro_couple_1_1_i_identity.html" target="_top" xlink:title="IIdentity interface class defines a method to get the Id of an HydroCouple entity. ">
<polygon fill="white" stroke="black" points="202,-718.884 202,-796.224 350.021,-796.224 350.021,-718.884 202,-718.884"/>
<text text-anchor="middle" x="276.011" y="-784.224" font-family="Monaco" font-size="10.00">HydroCouple::IIdentity</text>
<polyline fill="none" stroke="black" points="202,-774.889 350.021,-774.889 "/>
<text text-anchor="middle" x="276.011" y="-762.889" font-family="Monaco" font-size="10.00"> </text>
<polyline fill="none" stroke="black" points="202,-753.554 350.021,-753.554 "/>
<text text-anchor="start" x="210" y="-741.554" font-family="Monaco" font-size="10.00">+ ~IIdentity()</text>
<text text-anchor="start" x="210" y="-728.219" font-family="Monaco" font-size="10.00">+ id()</text>
</a>
</g>
</g>
<!-- Node5&#45;&gt;Node4 -->
<g id="edge4" class="edge"><title>Node5&#45;&gt;Node4</title>
<path fill="none" stroke="midnightblue" d="M276.011,-708.564C276.011,-699.865 276.011,-690.826 276.011,-682.227"/>
<polygon fill="none" stroke="midnightblue" points="272.511,-708.572 276.011,-718.572 279.511,-708.572 272.511,-708.572"/>
</g>
<!-- Node6 -->
<g id="node6" class="node"><title>Node6</title>
<g id="a_node6"><a xlink:href="class_hydro_couple_1_1_i_description.html" target="_top" xlink:title="IDescription interface class provides descriptive information on a HydroCouple object. ">
<polygon fill="white" stroke="black" points="192.999,-833.224 192.999,-950.568 359.023,-950.568 359.023,-833.224 192.999,-833.224"/>
<text text-anchor="middle" x="276.011" y="-938.568" font-family="Monaco" font-size="10.00">HydroCouple::IDescription</text>
<polyline fill="none" stroke="black" points="192.999,-929.233 359.023,-929.233 "/>
<text text-anchor="middle" x="276.011" y="-917.233" font-family="Monaco" font-size="10.00"> </text>
<polyline fill="none" stroke="black" points="192.999,-907.898 359.023,-907.898 "/>
<text text-anchor="start" x="200.999" y="-895.898" font-family="Monaco" font-size="10.00">+ ~IDescription()</text>
<text text-anchor="start" x="200.999" y="-882.563" font-family="Monaco" font-size="10.00">+ getCaption()</text>
<text text-anchor="start" x="200.999" y="-869.229" font-family="Monaco" font-size="10.00">+ setCaption()</text>
<text text-anchor="start" x="200.999" y="-855.894" font-family="Monaco" font-size="10.00">+ getDescription()</text>
<text text-anchor="start" x="200.999" y="-842.559" font-family="Monaco" font-size="10.00">+ setDescription()</text>
</a>
</g>
</g>
<!-- Node6&#45;&gt;Node5 -->
<g id="edge5" class="edge"><title>Node6&#45;&gt;Node5</title>
<path fill="none" stroke="midnightblue" d="M276.011,-822.658C276.011,-813.619 276.011,-804.632 276.011,-796.371"/>
<polygon fill="none" stroke="midnightblue" points="272.511,-822.849 276.011,-832.849 279.511,-822.849 272.511,-822.849"/>
</g>
<!-- Node7 -->
<g id="node7" class="node"><title>Node7</title>
<g id="a_node7"><a xlink:href="class_hydro_couple_1_1_i_property_changed.html" target="_top" xlink:title="IPropertyChanged interface is used to emit signal/event when a property of an object changes...">
<polygon fill="white" stroke="black" points="180.997,-987.568 180.997,-1051.57 371.025,-1051.57 371.025,-987.568 180.997,-987.568"/>
<text text-anchor="middle" x="276.011" y="-1039.57" font-family="Monaco" font-size="10.00">HydroCouple::IPropertyChanged</text>
<polyline fill="none" stroke="black" points="180.997,-1030.24 371.025,-1030.24 "/>
<text text-anchor="middle" x="276.011" y="-1018.24" font-family="Monaco" font-size="10.00"> </text>
<polyline fill="none" stroke="black" points="180.997,-1008.9 371.025,-1008.9 "/>
<text text-anchor="start" x="188.997" y="-996.903" font-family="Monaco" font-size="10.00">+ ~IPropertyChanged()</text>
</a>
</g>
</g>
<!-- Node7&#45;&gt;Node6 -->
<g id="edge6" class="edge"><title>Node7&#45;&gt;Node6</title>
<path fill="none" stroke="midnightblue" d="M276.011,-977.248C276.011,-968.863 276.011,-959.896 276.011,-951.054"/>
<polygon fill="none" stroke="midnightblue" points="272.511,-977.505 276.011,-987.505 279.511,-977.505 272.511,-977.505"/>
</g>
<!-- Node8&#45;&gt;Node2 -->
<g id="edge7" class="edge"><title>Node8&#45;&gt;Node2</title>
<path fill="none" stroke="midnightblue" d="M190.558,-242.396C190.376,-242.268 190.193,-242.141 190.011,-242.015 172.444,-229.804 152.982,-217.065 135.097,-205.661"/>
<polygon fill="none" stroke="midnightblue" points="188.672,-245.348 198.862,-248.247 192.704,-239.626 188.672,-245.348"/>
</g>
<!-- Node12 -->
<g id="node12" class="node"><title>Node12</title>
<g id="a_node12"><a xlink:href="class_hydro_couple_1_1_spatio_temporal_1_1_i_time3_d_regular_grid_component_item.html" target="_top" xlink:title="The ITime3DRegularGridComponentItem class. ">
<polygon fill="white" stroke="black" points="379.993,-128.175 379.993,-205.515 612.028,-205.515 612.028,-128.175 379.993,-128.175"/>
<text text-anchor="start" x="387.993" y="-193.515" font-family="Monaco" font-size="10.00">HydroCouple::SpatioTemporal</text>
<text text-anchor="middle" x="496.011" y="-180.18" font-family="Monaco" font-size="10.00">::ITime3DRegularGridComponentItem</text>
<polyline fill="none" stroke="black" points="379.993,-170.845 612.028,-170.845 "/>
<text text-anchor="middle" x="496.011" y="-158.845" font-family="Monaco" font-size="10.00"> </text>
<polyline fill="none" stroke="black" points="379.993,-149.51 612.028,-149.51 "/>
<text text-anchor="start" x="387.993" y="-137.51" font-family="Monaco" font-size="10.00">+ ~ITime3DRegularGridComponentItem()</text>
</a>
</g>
</g>
<!-- Node8&#45;&gt;Node12 -->
<g id="edge15" class="edge"><title>Node8&#45;&gt;Node12</title>
<path fill="none" stroke="midnightblue" d="M361.746,-242.187C361.834,-242.129 361.923,-242.072 362.011,-242.015 381.414,-229.419 403.105,-216.818 423.289,-205.671"/>
<polygon fill="none" stroke="midnightblue" points="359.866,-239.233 353.475,-247.683 363.741,-245.063 359.866,-239.233"/>
</g>
<!-- Node9&#45;&gt;Node1 -->
<g id="edge9" class="edge"><title>Node9&#45;&gt;Node1</title>
<path fill="none" stroke="midnightblue" d="M257.374,-117.855C257.201,-109.157 257.226,-100.117 257.45,-91.5177"/>
<polygon fill="none" stroke="midnightblue" points="253.876,-117.97 257.67,-127.863 260.873,-117.764 253.876,-117.97"/>
</g>
<!-- Node9&#45;&gt;Node1 -->
<g id="edge18" class="edge"><title>Node9&#45;&gt;Node1</title>
<path fill="none" stroke="midnightblue" d="M270.647,-117.855C270.821,-109.157 270.795,-100.117 270.571,-91.5177"/>
<polygon fill="none" stroke="midnightblue" points="267.148,-117.764 270.352,-127.863 274.145,-117.97 267.148,-117.764"/>
</g>
<!-- Node10 -->
<g id="node10" class="node"><title>Node10</title>
<g id="a_node10"><a xlink:href="class_hydro_couple_1_1_spatial_1_1_i3_d_regular_grid_component_item.html" target="_top" xlink:title="An I3DRegularGridComponentItem represents an I3DRegularGrid IComponentItem. ">
<polygon fill="white" stroke="black" points="370.995,-249.182 370.995,-366.527 579.026,-366.527 579.026,-249.182 370.995,-249.182"/>
<text text-anchor="start" x="378.995" y="-354.527" font-family="Monaco" font-size="10.00">HydroCouple::Spatial</text>
<text text-anchor="middle" x="475.011" y="-341.192" font-family="Monaco" font-size="10.00">::I3DRegularGridComponentItem</text>
<polyline fill="none" stroke="black" points="370.995,-331.857 579.026,-331.857 "/>
<text text-anchor="middle" x="475.011" y="-319.857" font-family="Monaco" font-size="10.00"> </text>
<polyline fill="none" stroke="black" points="370.995,-310.522 579.026,-310.522 "/>
<text text-anchor="start" x="378.995" y="-298.522" font-family="Monaco" font-size="10.00">+ ~I2DRegularGridComponentItem()</text>
<text text-anchor="start" x="378.995" y="-285.187" font-family="Monaco" font-size="10.00">+ numZNodesDimension()</text>
<text text-anchor="start" x="378.995" y="-271.852" font-family="Monaco" font-size="10.00">+ numZCellsDimension()</text>
<text text-anchor="start" x="378.995" y="-258.517" font-family="Monaco" font-size="10.00">+ grid()</text>
</a>
</g>
</g>
<!-- Node10&#45;&gt;Node9 -->
<g id="edge11" class="edge"><title>Node10&#45;&gt;Node9</title>
<path fill="none" stroke="midnightblue" d="M378.953,-243.57C359.252,-230.591 339.109,-217.321 321.301,-205.588"/>
<polygon fill="none" stroke="midnightblue" points="377.085,-246.531 387.361,-249.109 380.936,-240.685 377.085,-246.531"/>
</g>
<!-- Node10&#45;&gt;Node12 -->
<g id="edge16" class="edge"><title>Node10&#45;&gt;Node12</title>
<path fill="none" stroke="midnightblue" d="M485.247,-239.093C486.977,-227.641 488.717,-216.126 490.278,-205.792"/>
<polygon fill="none" stroke="midnightblue" points="481.767,-238.699 483.734,-249.109 488.689,-239.745 481.767,-238.699"/>
</g>
<!-- Node11&#45;&gt;Node10 -->
<g id="edge12" class="edge"><title>Node11&#45;&gt;Node10</title>
<path fill="none" stroke="midnightblue" d="M456.99,-400.204C459.224,-388.879 461.482,-377.434 463.608,-366.656"/>
<polygon fill="none" stroke="midnightblue" points="453.538,-399.618 455.036,-410.106 460.405,-400.973 453.538,-399.618"/>
</g>
<!-- Node12&#45;&gt;Node1 -->
<g id="edge14" class="edge"><title>Node12&#45;&gt;Node1</title>
<path fill="none" stroke="midnightblue" d="M406.847,-123.439C386.143,-112.982 364.238,-101.756 343.958,-91.2082"/>
<polygon fill="none" stroke="midnightblue" points="405.446,-126.652 415.951,-128.027 408.596,-120.401 405.446,-126.652"/>
</g>
<!-- Node12&#45;&gt;Node1 -->
<g id="edge19" class="edge"><title>Node12&#45;&gt;Node1</title>
<path fill="none" stroke="midnightblue" d="M419.569,-123.299C399.577,-112.882 377.812,-101.708 357.062,-91.2082"/>
<polygon fill="none" stroke="midnightblue" points="418.136,-126.499 428.62,-128.027 421.377,-120.294 418.136,-126.499"/>
</g>
</g>
</svg>
        <g id="navigator" transform="translate(0 0)" fill="#404254">
                <rect fill="#f2f5e9" fill-opacity="0.5" stroke="#606060" stroke-width=".5" x="0" y="0" width="60" height="60"/>
                <use id="zoomplus" xlink:href="#zoomPlus" x="17" y="9" onmousedown="handleZoom(evt,'in')"/>
                <use id="zoomminus" xlink:href="#zoomMin" x="42" y="9" onmousedown="handleZoom(evt,'out')"/>
                <use id="reset" xlink:href="#resetDef" x="30" y="36" onmousedown="handleReset()"/>
                <g id="arrowUp" xlink:href="#dirArrow" transform="translate(30 24)" onmousedown="handlePan(0,-1)">
                  <use xlink:href="#rim" fill="#404040">
                        <set attributeName="fill" to="#808080" begin="arrowUp.mouseover" end="arrowUp.mouseout"/>
                  </use>
                  <path fill="none" stroke="white" stroke-width="1.5" d="M0,-3.0v7 M-2.5,-0.5L0,-3.0L2.5,-0.5"/>
                </g>
                <g id="arrowRight" xlink:href="#dirArrow" transform="rotate(90) translate(36 -43)" onmousedown="handlePan(1,0)">
                  <use xlink:href="#rim" fill="#404040">
                        <set attributeName="fill" to="#808080" begin="arrowRight.mouseover" end="arrowRight.mouseout"/>
                  </use>
                  <path fill="none" stroke="white" stroke-width="1.5" d="M0,-3.0v7 M-2.5,-0.5L0,-3.0L2.5,-0.5"/>
                </g>
                <g id="arrowDown" xlink:href="#dirArrow" transform="rotate(180) translate(-30 -48)" onmousedown="handlePan(0,1)">
                  <use xlink:href="#rim" fill="#404040">
                        <set attributeName="fill" to="#808080" begin="arrowDown.mouseover" end="arrowDown.mouseout"/>
                  </use>
                  <path fill="none" stroke="white" stroke-width="1.5" d="M0,-3.0v7 M-2.5,-0.5L0,-3.0L2.5,-0.5"/>
                </g>
                <g id="arrowLeft" xlink:href="#dirArrow" transform="rotate(270) translate(-36 17)" onmousedown="handlePan(-1,0)">
                  <use xlink:href="#rim" fill="#404040">
                        <set attributeName="fill" to="#808080" begin="arrowLeft.mouseover" end="arrowLeft.mouseout"/>
                  </use>
                  <path fill="none" stroke="white" stroke-width="1.5" d="M0,-3.0v7 M-2.5,-0.5L0,-3.0L2.5,-0.5"/>
                </g>
        </g>
        <svg viewBox="0 0 15 15" width="100%" height="30px" preserveAspectRatio="xMaxYMin meet">
         <g id="arrow_out" transform="scale(0.3 0.3)">
          <a xlink:href="class_hydro_couple_1_1_spatio_temporal_1_1_i_time3_d_regular_grid_exchange_item__inherit__graph_org.svg" target="_base">
           <rect id="button" ry="5" rx="5" y="6" x="6" height="38" width="38"
                fill="#f2f5e9" fill-opacity="0.5" stroke="#606060" stroke-width="1.0"/>
           <path id="arrow"
             d="M 11.500037,31.436501 C 11.940474,20.09759 22.043105,11.32322 32.158766,21.979434 L 37.068811,17.246167 C 37.068811,17.246167 37.088388,32 37.088388,32 L 22.160133,31.978069 C 22.160133,31.978069 26.997745,27.140456 26.997745,27.140456 C 18.528582,18.264221 13.291696,25.230495 11.500037,31.436501 z"
             style="fill:#404040;"/>
          </a>
         </g>
        </svg>
</svg>
