<?xml version="1.0" encoding="UTF-8" standalone="no"?>
<!DOCTYPE svg PUBLIC "-//W3C//DTD SVG 1.1//EN"
 "http://www.w3.org/Graphics/SVG/1.1/DTD/svg11.dtd">
<!-- Generated by graphviz version 2.38.0 (20140413.2041)
 -->
<!-- Title: HydroCouple::Spatial::IRegularGrid3DComponentDataItem Pages: 1 -->
<svg width="400pt" height="978pt"
 viewBox="0.00 0.00 400.03 978.08" xmlns="http://www.w3.org/2000/svg" xmlns:xlink="http://www.w3.org/1999/xlink">
<g id="graph0" class="graph" transform="scale(1 1) rotate(0) translate(4 974.078)">
<title>HydroCouple::Spatial::IRegularGrid3DComponentDataItem</title>
<!-- Node1 -->
<g id="node1" class="node"><title>Node1</title>
<polygon fill="#bfbfbf" stroke="black" points="83.9971,-114.84 83.9971,-378.869 298.029,-378.869 298.029,-114.84 83.9971,-114.84"/>
<text text-anchor="start" x="91.9971" y="-366.869" font-family="Monaco" font-size="10.00">HydroCouple::Spatial</text>
<text text-anchor="middle" x="191.013" y="-353.534" font-family="Monaco" font-size="10.00">::IRegularGrid3DComponentDataItem</text>
<polyline fill="none" stroke="black" points="83.9971,-344.199 298.029,-344.199 "/>
<text text-anchor="middle" x="191.013" y="-332.199" font-family="Monaco" font-size="10.00"> </text>
<polyline fill="none" stroke="black" points="83.9971,-322.864 298.029,-322.864 "/>
<text text-anchor="start" x="91.9971" y="-310.864" font-family="Monaco" font-size="10.00">+ ~IRegularGrid3DComponent</text>
<text text-anchor="start" x="91.9971" y="-297.529" font-family="Monaco" font-size="10.00">DataItem()</text>
<text text-anchor="start" x="91.9971" y="-284.194" font-family="Monaco" font-size="10.00">+ numXCellsDimension()</text>
<text text-anchor="start" x="91.9971" y="-270.859" font-family="Monaco" font-size="10.00">+ numYCellsDimension()</text>
<text text-anchor="start" x="91.9971" y="-257.524" font-family="Monaco" font-size="10.00">+ numZCellsDimension()</text>
<text text-anchor="start" x="91.9971" y="-244.189" font-family="Monaco" font-size="10.00">+ cellFaceDimension()</text>
<text text-anchor="start" x="91.9971" y="-230.854" font-family="Monaco" font-size="10.00">+ cellEdgeDimension()</text>
<text text-anchor="start" x="91.9971" y="-217.52" font-family="Monaco" font-size="10.00">+ cellNodeDimension()</text>
<text text-anchor="start" x="91.9971" y="-204.185" font-family="Monaco" font-size="10.00">+ grid()</text>
<text text-anchor="start" x="91.9971" y="-190.85" font-family="Monaco" font-size="10.00">+ getValue()</text>
<text text-anchor="start" x="91.9971" y="-177.515" font-family="Monaco" font-size="10.00">+ getValues()</text>
<text text-anchor="start" x="91.9971" y="-164.18" font-family="Monaco" font-size="10.00">+ getValues()</text>
<text text-anchor="start" x="91.9971" y="-150.845" font-family="Monaco" font-size="10.00">+ setValue()</text>
<text text-anchor="start" x="91.9971" y="-137.51" font-family="Monaco" font-size="10.00">+ setValues()</text>
<text text-anchor="start" x="91.9971" y="-124.175" font-family="Monaco" font-size="10.00">+ setValues()</text>
</g>
<!-- Node6 -->
<g id="node6" class="node"><title>Node6</title>
<g id="a_node6"><a xlink:href="class_hydro_couple_1_1_spatial_1_1_i_regular_grid3_d_argument.html" target="_top" xlink:title="An IRegularGrid3DArgument is an IExchangeItem with an IRegularGrid3DComponentItem. ">
<polygon fill="none" stroke="black" points="0,-0.5 0,-77.8398 178.026,-77.8398 178.026,-0.5 0,-0.5"/>
<text text-anchor="start" x="8" y="-65.8398" font-family="Monaco" font-size="10.00">HydroCouple::Spatial</text>
<text text-anchor="middle" x="89.0132" y="-52.5049" font-family="Monaco" font-size="10.00">::IRegularGrid3DArgument</text>
<polyline fill="none" stroke="black" points="0,-43.1699 178.026,-43.1699 "/>
<text text-anchor="middle" x="89.0132" y="-31.1699" font-family="Monaco" font-size="10.00"> </text>
<polyline fill="none" stroke="black" points="0,-21.835 178.026,-21.835 "/>
<text text-anchor="start" x="8" y="-9.83496" font-family="Monaco" font-size="10.00">+ ~IRegularGrid3DArgument()</text>
</a>
</g>
</g>
<!-- Node1&#45;&gt;Node6 -->
<g id="edge5" class="edge"><title>Node1&#45;&gt;Node6</title>
<path fill="none" stroke="midnightblue" d="M121.417,-105.513C116.521,-95.6398 111.89,-86.3009 107.742,-77.9368"/>
<polygon fill="none" stroke="midnightblue" points="118.403,-107.314 125.982,-114.718 124.675,-104.204 118.403,-107.314"/>
</g>
<!-- Node7 -->
<g id="node7" class="node"><title>Node7</title>
<g id="a_node7"><a xlink:href="class_hydro_couple_1_1_spatial_1_1_i_regular_grid3_d_exhange_item.html" target="_top" xlink:title="An IRegularGrid3DExhangeItem is an IExchangeItem with an IRegularGrid3DComponentItem. ">
<polygon fill="none" stroke="black" points="195.999,-0.5 195.999,-77.8398 392.028,-77.8398 392.028,-0.5 195.999,-0.5"/>
<text text-anchor="start" x="203.999" y="-65.8398" font-family="Monaco" font-size="10.00">HydroCouple::Spatial</text>
<text text-anchor="middle" x="294.013" y="-52.5049" font-family="Monaco" font-size="10.00">::IRegularGrid3DExhangeItem</text>
<polyline fill="none" stroke="black" points="195.999,-43.1699 392.028,-43.1699 "/>
<text text-anchor="middle" x="294.013" y="-31.1699" font-family="Monaco" font-size="10.00"> </text>
<polyline fill="none" stroke="black" points="195.999,-21.835 392.028,-21.835 "/>
<text text-anchor="start" x="203.999" y="-9.83496" font-family="Monaco" font-size="10.00">+ ~IRegularGrid3DExhangeItem()</text>
</a>
</g>
</g>
<!-- Node1&#45;&gt;Node7 -->
<g id="edge6" class="edge"><title>Node1&#45;&gt;Node7</title>
<path fill="none" stroke="midnightblue" d="M261.292,-105.513C266.236,-95.6398 270.912,-86.3009 275.101,-77.9368"/>
<polygon fill="none" stroke="midnightblue" points="258.03,-104.209 256.682,-114.718 264.289,-107.343 258.03,-104.209"/>
</g>
<!-- Node2 -->
<g id="node2" class="node"><title>Node2</title>
<g id="a_node2"><a xlink:href="class_hydro_couple_1_1_i_component_data_item.html" target="_top" xlink:title="IComponentItem is a fundamental unit of data for a component. ">
<polygon fill="none" stroke="black" points="89.998,-415.869 89.998,-599.889 292.028,-599.889 292.028,-415.869 89.998,-415.869"/>
<text text-anchor="middle" x="191.013" y="-587.889" font-family="Monaco" font-size="10.00">HydroCouple::IComponentDataItem</text>
<polyline fill="none" stroke="black" points="89.998,-578.554 292.028,-578.554 "/>
<text text-anchor="middle" x="191.013" y="-566.554" font-family="Monaco" font-size="10.00"> </text>
<polyline fill="none" stroke="black" points="89.998,-557.219 292.028,-557.219 "/>
<text text-anchor="start" x="97.998" y="-545.219" font-family="Monaco" font-size="10.00">+ ~IComponentDataItem()</text>
<text text-anchor="start" x="97.998" y="-531.884" font-family="Monaco" font-size="10.00">+ modelComponent()</text>
<text text-anchor="start" x="97.998" y="-518.549" font-family="Monaco" font-size="10.00">+ dimensions()</text>
<text text-anchor="start" x="97.998" y="-505.214" font-family="Monaco" font-size="10.00">+ valueDefinition()</text>
<text text-anchor="start" x="97.998" y="-491.879" font-family="Monaco" font-size="10.00">+ getValue()</text>
<text text-anchor="start" x="97.998" y="-478.544" font-family="Monaco" font-size="10.00">+ getValues()</text>
<text text-anchor="start" x="97.998" y="-465.209" font-family="Monaco" font-size="10.00">+ getValues()</text>
<text text-anchor="start" x="97.998" y="-451.874" font-family="Monaco" font-size="10.00">+ setValue()</text>
<text text-anchor="start" x="97.998" y="-438.539" font-family="Monaco" font-size="10.00">+ setValues()</text>
<text text-anchor="start" x="97.998" y="-425.204" font-family="Monaco" font-size="10.00">+ setValues()</text>
</a>
</g>
</g>
<!-- Node2&#45;&gt;Node1 -->
<g id="edge1" class="edge"><title>Node2&#45;&gt;Node1</title>
<path fill="none" stroke="midnightblue" d="M191.013,-405.502C191.013,-396.859 191.013,-388.041 191.013,-379.212"/>
<polygon fill="none" stroke="midnightblue" points="187.513,-405.557 191.013,-415.557 194.513,-405.557 187.513,-405.557"/>
</g>
<!-- Node3 -->
<g id="node3" class="node"><title>Node3</title>
<g id="a_node3"><a xlink:href="class_hydro_couple_1_1_i_identity.html" target="_top" xlink:title="IIdentity interface class defines a method to get the Id of an HydroCouple entity. ">
<polygon fill="none" stroke="black" points="117.002,-636.889 117.002,-714.229 265.024,-714.229 265.024,-636.889 117.002,-636.889"/>
<text text-anchor="middle" x="191.013" y="-702.229" font-family="Monaco" font-size="10.00">HydroCouple::IIdentity</text>
<polyline fill="none" stroke="black" points="117.002,-692.894 265.024,-692.894 "/>
<text text-anchor="middle" x="191.013" y="-680.894" font-family="Monaco" font-size="10.00"> </text>
<polyline fill="none" stroke="black" points="117.002,-671.559 265.024,-671.559 "/>
<text text-anchor="start" x="125.002" y="-659.559" font-family="Monaco" font-size="10.00">+ ~IIdentity()</text>
<text text-anchor="start" x="125.002" y="-646.224" font-family="Monaco" font-size="10.00">+ id()</text>
</a>
</g>
</g>
<!-- Node3&#45;&gt;Node2 -->
<g id="edge2" class="edge"><title>Node3&#45;&gt;Node2</title>
<path fill="none" stroke="midnightblue" d="M191.013,-626.306C191.013,-617.953 191.013,-609.028 191.013,-599.97"/>
<polygon fill="none" stroke="midnightblue" points="187.513,-626.548 191.013,-636.548 194.513,-626.548 187.513,-626.548"/>
</g>
<!-- Node4 -->
<g id="node4" class="node"><title>Node4</title>
<g id="a_node4"><a xlink:href="class_hydro_couple_1_1_i_description.html" target="_top" xlink:title="IDescription interface class provides descriptive information on a HydroCouple object. ">
<polygon fill="none" stroke="black" points="108.001,-751.229 108.001,-868.573 274.025,-868.573 274.025,-751.229 108.001,-751.229"/>
<text text-anchor="middle" x="191.013" y="-856.573" font-family="Monaco" font-size="10.00">HydroCouple::IDescription</text>
<polyline fill="none" stroke="black" points="108.001,-847.238 274.025,-847.238 "/>
<text text-anchor="middle" x="191.013" y="-835.238" font-family="Monaco" font-size="10.00"> </text>
<polyline fill="none" stroke="black" points="108.001,-825.903 274.025,-825.903 "/>
<text text-anchor="start" x="116.001" y="-813.903" font-family="Monaco" font-size="10.00">+ ~IDescription()</text>
<text text-anchor="start" x="116.001" y="-800.568" font-family="Monaco" font-size="10.00">+ caption()</text>
<text text-anchor="start" x="116.001" y="-787.233" font-family="Monaco" font-size="10.00">+ setCaption()</text>
<text text-anchor="start" x="116.001" y="-773.898" font-family="Monaco" font-size="10.00">+ description()</text>
<text text-anchor="start" x="116.001" y="-760.563" font-family="Monaco" font-size="10.00">+ setDescription()</text>
</a>
</g>
</g>
<!-- Node4&#45;&gt;Node3 -->
<g id="edge3" class="edge"><title>Node4&#45;&gt;Node3</title>
<path fill="none" stroke="midnightblue" d="M191.013,-740.663C191.013,-731.624 191.013,-722.636 191.013,-714.376"/>
<polygon fill="none" stroke="midnightblue" points="187.513,-740.854 191.013,-750.854 194.513,-740.854 187.513,-740.854"/>
</g>
<!-- Node5 -->
<g id="node5" class="node"><title>Node5</title>
<g id="a_node5"><a xlink:href="class_hydro_couple_1_1_i_property_changed.html" target="_top" xlink:title="IPropertyChanged interface is used to emit signal/event when a property of an object changes...">
<polygon fill="none" stroke="black" points="95.999,-905.573 95.999,-969.578 286.027,-969.578 286.027,-905.573 95.999,-905.573"/>
<text text-anchor="middle" x="191.013" y="-957.578" font-family="Monaco" font-size="10.00">HydroCouple::IPropertyChanged</text>
<polyline fill="none" stroke="black" points="95.999,-948.243 286.027,-948.243 "/>
<text text-anchor="middle" x="191.013" y="-936.243" font-family="Monaco" font-size="10.00"> </text>
<polyline fill="none" stroke="black" points="95.999,-926.908 286.027,-926.908 "/>
<text text-anchor="start" x="103.999" y="-914.908" font-family="Monaco" font-size="10.00">+ ~IPropertyChanged()</text>
</a>
</g>
</g>
<!-- Node5&#45;&gt;Node4 -->
<g id="edge4" class="edge"><title>Node5&#45;&gt;Node4</title>
<path fill="none" stroke="midnightblue" d="M191.013,-895.253C191.013,-886.868 191.013,-877.901 191.013,-869.059"/>
<polygon fill="none" stroke="midnightblue" points="187.513,-895.51 191.013,-905.51 194.513,-895.51 187.513,-895.51"/>
</g>
</g>
</svg>
