<?xml version="1.0" encoding="UTF-8" standalone="no"?>
<!DOCTYPE svg PUBLIC "-//W3C//DTD SVG 1.1//EN"
 "http://www.w3.org/Graphics/SVG/1.1/DTD/svg11.dtd">
<!-- Generated by graphviz version 2.38.0 (20140413.2041)
 -->
<!-- Title: Identity::id Pages: 1 -->
<svg width="434pt" height="44pt"
 viewBox="0.00 0.00 434.05 43.67" xmlns="http://www.w3.org/2000/svg" xmlns:xlink="http://www.w3.org/1999/xlink">
<g id="graph0" class="graph" transform="scale(1 1) rotate(0) translate(4 39.6699)">
<title>Identity::id</title>
<polygon fill="white" stroke="none" points="-4,4 -4,-39.6699 430.05,-39.6699 430.05,4 -4,4"/>
<!-- Node1 -->
<g id="node1" class="node"><title>Node1</title>
<polygon fill="#bfbfbf" stroke="black" points="0,-7.16748 0,-28.5024 88.0117,-28.5024 88.0117,-7.16748 0,-7.16748"/>
<text text-anchor="middle" x="44.0059" y="-16.5024" font-family="Monaco" font-size="10.00">Identity::id</text>
</g>
<!-- Node2 -->
<g id="node2" class="node"><title>Node2</title>
<g id="a_node2"><a xlink:href="class_identity.html#a30931aecbd238c1801b9a8ffa7351bed" target="_top" xlink:title="setId ">
<polygon fill="white" stroke="black" points="124.012,-7.16748 124.012,-28.5024 230.026,-28.5024 230.026,-7.16748 124.012,-7.16748"/>
<text text-anchor="middle" x="177.019" y="-16.5024" font-family="Monaco" font-size="10.00">Identity::setId</text>
</a>
</g>
</g>
<!-- Node1&#45;&gt;Node2 -->
<g id="edge1" class="edge"><title>Node1&#45;&gt;Node2</title>
<path fill="none" stroke="midnightblue" d="M98.306,-17.835C106.679,-17.835 115.329,-17.835 123.68,-17.835"/>
<polygon fill="midnightblue" stroke="midnightblue" points="98.2676,-14.3351 88.2676,-17.835 98.2675,-21.3351 98.2676,-14.3351"/>
</g>
<!-- Node3 -->
<g id="node3" class="node"><title>Node3</title>
<g id="a_node3"><a xlink:href="class_abstract_model_component.html#ac42477c253e82a0dbb9cf2595c4e3542" target="_top" xlink:title="AbstractModelComponent\l::AbstractModelComponent">
<polygon fill="white" stroke="black" points="266.026,-0.5 266.026,-35.1699 426.05,-35.1699 426.05,-0.5 266.026,-0.5"/>
<text text-anchor="start" x="274.026" y="-23.1699" font-family="Monaco" font-size="10.00">AbstractModelComponent</text>
<text text-anchor="middle" x="346.038" y="-9.83496" font-family="Monaco" font-size="10.00">::AbstractModelComponent</text>
</a>
</g>
</g>
<!-- Node2&#45;&gt;Node3 -->
<g id="edge2" class="edge"><title>Node2&#45;&gt;Node3</title>
<path fill="none" stroke="midnightblue" d="M240.668,-17.835C248.913,-17.835 257.447,-17.835 265.921,-17.835"/>
<polygon fill="midnightblue" stroke="midnightblue" points="240.407,-14.3351 230.407,-17.835 240.407,-21.3351 240.407,-14.3351"/>
</g>
</g>
</svg>
