<?xml version="1.0" encoding="UTF-8" standalone="no"?>
<!DOCTYPE svg PUBLIC "-//W3C//DTD SVG 1.1//EN"
 "http://www.w3.org/Graphics/SVG/1.1/DTD/svg11.dtd">
<!-- Generated by graphviz version 2.38.0 (20140413.2041)
 -->
<!-- Title: HydroCouple::IIdBasedComponentItem Pages: 1 -->
<!--zoomable 765 -->
<svg id="main" version="1.1" xmlns="http://www.w3.org/2000/svg" xmlns:xlink="http://www.w3.org/1999/xlink" xml:space="preserve" onload="init(evt)">
<style type="text/css"><![CDATA[
.edge:hover path { stroke: red; }
.edge:hover polygon { stroke: red; fill: red; }
]]></style>
<script type="text/javascript"><![CDATA[
var edges = document.getElementsByTagName('g');
if (edges && edges.length) {
  for (var i=0;i<edges.length;i++) {
    if (edges[i].id.substr(0,4)=='edge') {
      edges[i].setAttribute('class','edge');
    }
  }
}
]]></script>
        <defs>
                <circle id="rim" cx="0" cy="0" r="7"/>
                <circle id="rim2" cx="0" cy="0" r="3.5"/>
                <g id="zoomPlus">
                        <use xlink:href="#rim" fill="#404040">
                                <set attributeName="fill" to="#808080" begin="zoomplus.mouseover" end="zoomplus.mouseout"/>
                        </use>
                        <path d="M-4,0h8M0,-4v8" fill="none" stroke="white" stroke-width="1.5" pointer-events="none"/>
                </g>
                <g id="zoomMin">
                        <use xlink:href="#rim" fill="#404040">
                                <set attributeName="fill" to="#808080" begin="zoomminus.mouseover" end="zoomminus.mouseout"/>
                        </use>
                        <path d="M-4,0h8" fill="none" stroke="white" stroke-width="1.5" pointer-events="none"/>
                </g>
                <g id="dirArrow">
                        <path fill="none" stroke="white" stroke-width="1.5" d="M0,-3.0v7 M-2.5,-0.5L0,-3.0L2.5,-0.5"/>
                </g>
               <g id="resetDef">
                       <use xlink:href="#rim2" fill="#404040">
                               <set attributeName="fill" to="#808080" begin="reset.mouseover" end="reset.mouseout"/>
                       </use>
               </g>
        </defs>

<script type="text/javascript">
var viewWidth = 430;
var viewHeight = 765;
var sectionId = 'dynsection-0';
</script>
<script xlink:href="svgpan.js"/>
<svg id="graph" class="graph">
<g id="viewport">
<title>HydroCouple::IIdBasedComponentItem</title>
<polygon fill="white" stroke="none" points="-4,4 -4,-760.719 426.03,-760.719 426.03,4 -4,4"/>
<!-- Node1 -->
<g id="node1" class="node"><title>Node1</title>
<polygon fill="#bfbfbf" stroke="black" points="94.9976,-128.175 94.9976,-218.85 315.031,-218.85 315.031,-128.175 94.9976,-128.175"/>
<text text-anchor="middle" x="205.014" y="-206.85" font-family="Monaco" font-size="10.00">HydroCouple::IIdBasedComponentItem</text>
<polyline fill="none" stroke="black" points="94.9976,-197.515 315.031,-197.515 "/>
<text text-anchor="middle" x="205.014" y="-185.515" font-family="Monaco" font-size="10.00"> </text>
<polyline fill="none" stroke="black" points="94.9976,-176.18 315.031,-176.18 "/>
<text text-anchor="start" x="102.998" y="-164.18" font-family="Monaco" font-size="10.00">+ ~IIdBasedComponentItem()</text>
<text text-anchor="start" x="102.998" y="-150.845" font-family="Monaco" font-size="10.00">+ idDimensions()</text>
<text text-anchor="start" x="102.998" y="-137.51" font-family="Monaco" font-size="10.00">+ ids()</text>
</g>
<!-- Node6 -->
<g id="node6" class="node"><title>Node6</title>
<g id="a_node6"><a xlink:href="class_hydro_couple_1_1_i_id_based_argument.html" target="_top" xlink:title="The IIdBasedArgument class. ">
<polygon fill="white" stroke="black" points="0,-0.5 0,-91.1748 190.028,-91.1748 190.028,-0.5 0,-0.5"/>
<text text-anchor="middle" x="95.0142" y="-79.1748" font-family="Monaco" font-size="10.00">HydroCouple::IIdBasedArgument</text>
<polyline fill="none" stroke="black" points="0,-69.8398 190.028,-69.8398 "/>
<text text-anchor="middle" x="95.0142" y="-57.8398" font-family="Monaco" font-size="10.00"> </text>
<polyline fill="none" stroke="black" points="0,-48.5049 190.028,-48.5049 "/>
<text text-anchor="start" x="8" y="-36.5049" font-family="Monaco" font-size="10.00">+ ~IIdBasedArgument()</text>
<text text-anchor="start" x="8" y="-23.1699" font-family="Monaco" font-size="10.00">+ setIds()</text>
<text text-anchor="start" x="8" y="-9.83496" font-family="Monaco" font-size="10.00">+ idValueSets()</text>
</a>
</g>
</g>
<!-- Node1&#45;&gt;Node6 -->
<g id="edge5" class="edge"><title>Node1&#45;&gt;Node6</title>
<path fill="none" stroke="midnightblue" d="M159.263,-120.241C150.86,-110.641 142.161,-100.702 133.98,-91.3557"/>
<polygon fill="none" stroke="midnightblue" points="156.703,-122.631 165.923,-127.85 161.97,-118.02 156.703,-122.631"/>
</g>
<!-- Node7 -->
<g id="node7" class="node"><title>Node7</title>
<g id="a_node7"><a xlink:href="class_hydro_couple_1_1_i_id_based_exchange_item.html" target="_top" xlink:title="The IIdBasedExchangeItem class. ">
<polygon fill="white" stroke="black" points="207.998,-7.16748 207.998,-84.5073 422.03,-84.5073 422.03,-7.16748 207.998,-7.16748"/>
<text text-anchor="middle" x="315.014" y="-72.5073" font-family="Monaco" font-size="10.00">HydroCouple::IIdBasedExchangeItem</text>
<polyline fill="none" stroke="black" points="207.998,-63.1724 422.03,-63.1724 "/>
<text text-anchor="middle" x="315.014" y="-51.1724" font-family="Monaco" font-size="10.00"> </text>
<polyline fill="none" stroke="black" points="207.998,-41.8374 422.03,-41.8374 "/>
<text text-anchor="start" x="215.998" y="-29.8374" font-family="Monaco" font-size="10.00">+ ~IIdBasedExchangeItem()</text>
<text text-anchor="start" x="215.998" y="-16.5024" font-family="Monaco" font-size="10.00">+ idValues()</text>
</a>
</g>
</g>
<!-- Node1&#45;&gt;Node7 -->
<g id="edge6" class="edge"><title>Node1&#45;&gt;Node7</title>
<path fill="none" stroke="midnightblue" d="M250.861,-120.133C261.263,-108.248 272.115,-95.85 281.871,-84.7038"/>
<polygon fill="none" stroke="midnightblue" points="248.058,-118.02 244.106,-127.85 253.326,-122.631 248.058,-118.02"/>
</g>
<!-- Node2 -->
<g id="node2" class="node"><title>Node2</title>
<g id="a_node2"><a xlink:href="class_hydro_couple_1_1_i_component_item.html" target="_top" xlink:title="IComponentItem is a fundamental unit of data for a component. ">
<polygon fill="white" stroke="black" points="116.001,-255.85 116.001,-359.859 294.027,-359.859 294.027,-255.85 116.001,-255.85"/>
<text text-anchor="middle" x="205.014" y="-347.859" font-family="Monaco" font-size="10.00">HydroCouple::IComponentItem</text>
<polyline fill="none" stroke="black" points="116.001,-338.524 294.027,-338.524 "/>
<text text-anchor="middle" x="205.014" y="-326.524" font-family="Monaco" font-size="10.00"> </text>
<polyline fill="none" stroke="black" points="116.001,-317.189 294.027,-317.189 "/>
<text text-anchor="start" x="124.001" y="-305.189" font-family="Monaco" font-size="10.00">+ ~IComponentItem()</text>
<text text-anchor="start" x="124.001" y="-291.854" font-family="Monaco" font-size="10.00">+ modelComponent()</text>
<text text-anchor="start" x="124.001" y="-278.52" font-family="Monaco" font-size="10.00">+ modelComponentId()</text>
<text text-anchor="start" x="124.001" y="-265.185" font-family="Monaco" font-size="10.00">+ dimensions()</text>
</a>
</g>
</g>
<!-- Node2&#45;&gt;Node1 -->
<g id="edge1" class="edge"><title>Node2&#45;&gt;Node1</title>
<path fill="none" stroke="midnightblue" d="M205.014,-245.66C205.014,-236.702 205.014,-227.621 205.014,-219.079"/>
<polygon fill="none" stroke="midnightblue" points="201.514,-245.687 205.014,-255.688 208.514,-245.688 201.514,-245.687"/>
</g>
<!-- Node3 -->
<g id="node3" class="node"><title>Node3</title>
<g id="a_node3"><a xlink:href="class_hydro_couple_1_1_i_identity.html" target="_top" xlink:title="IIdentity interface class defines a method to get the Id of an HydroCouple entity. ">
<polygon fill="white" stroke="black" points="131.003,-396.859 131.003,-500.869 279.025,-500.869 279.025,-396.859 131.003,-396.859"/>
<text text-anchor="middle" x="205.014" y="-488.869" font-family="Monaco" font-size="10.00">HydroCouple::IIdentity</text>
<polyline fill="none" stroke="black" points="131.003,-479.534 279.025,-479.534 "/>
<text text-anchor="middle" x="205.014" y="-467.534" font-family="Monaco" font-size="10.00"> </text>
<polyline fill="none" stroke="black" points="131.003,-458.199 279.025,-458.199 "/>
<text text-anchor="start" x="139.003" y="-446.199" font-family="Monaco" font-size="10.00">+ ~IIdentity()</text>
<text text-anchor="start" x="139.003" y="-432.864" font-family="Monaco" font-size="10.00">+ MPI_Comm()</text>
<text text-anchor="start" x="139.003" y="-419.529" font-family="Monaco" font-size="10.00">+ MPI_Rank()</text>
<text text-anchor="start" x="139.003" y="-406.194" font-family="Monaco" font-size="10.00">+ id()</text>
</a>
</g>
</g>
<!-- Node3&#45;&gt;Node2 -->
<g id="edge2" class="edge"><title>Node3&#45;&gt;Node2</title>
<path fill="none" stroke="midnightblue" d="M205.014,-386.3C205.014,-377.518 205.014,-368.565 205.014,-360.011"/>
<polygon fill="none" stroke="midnightblue" points="201.514,-386.497 205.014,-396.497 208.514,-386.497 201.514,-386.497"/>
</g>
<!-- Node4 -->
<g id="node4" class="node"><title>Node4</title>
<g id="a_node4"><a xlink:href="class_hydro_couple_1_1_i_description.html" target="_top" xlink:title="IDescription interface class provides descriptive information on a HydroCouple object. ">
<polygon fill="white" stroke="black" points="122.002,-537.869 122.002,-655.214 288.026,-655.214 288.026,-537.869 122.002,-537.869"/>
<text text-anchor="middle" x="205.014" y="-643.214" font-family="Monaco" font-size="10.00">HydroCouple::IDescription</text>
<polyline fill="none" stroke="black" points="122.002,-633.879 288.026,-633.879 "/>
<text text-anchor="middle" x="205.014" y="-621.879" font-family="Monaco" font-size="10.00"> </text>
<polyline fill="none" stroke="black" points="122.002,-612.544 288.026,-612.544 "/>
<text text-anchor="start" x="130.002" y="-600.544" font-family="Monaco" font-size="10.00">+ ~IDescription()</text>
<text text-anchor="start" x="130.002" y="-587.209" font-family="Monaco" font-size="10.00">+ getCaption()</text>
<text text-anchor="start" x="130.002" y="-573.874" font-family="Monaco" font-size="10.00">+ setCaption()</text>
<text text-anchor="start" x="130.002" y="-560.539" font-family="Monaco" font-size="10.00">+ getDescription()</text>
<text text-anchor="start" x="130.002" y="-547.204" font-family="Monaco" font-size="10.00">+ setDescription()</text>
</a>
</g>
</g>
<!-- Node4&#45;&gt;Node3 -->
<g id="edge3" class="edge"><title>Node4&#45;&gt;Node3</title>
<path fill="none" stroke="midnightblue" d="M205.014,-527.268C205.014,-518.45 205.014,-509.542 205.014,-501.065"/>
<polygon fill="none" stroke="midnightblue" points="201.514,-527.547 205.014,-537.547 208.514,-527.547 201.514,-527.547"/>
</g>
<!-- Node5 -->
<g id="node5" class="node"><title>Node5</title>
<g id="a_node5"><a xlink:href="class_hydro_couple_1_1_i_property_changed.html" target="_top" xlink:title="IPropertyChanged interface is used to emit signal/event when a property of an object changes...">
<polygon fill="white" stroke="black" points="110,-692.214 110,-756.219 300.028,-756.219 300.028,-692.214 110,-692.214"/>
<text text-anchor="middle" x="205.014" y="-744.219" font-family="Monaco" font-size="10.00">HydroCouple::IPropertyChanged</text>
<polyline fill="none" stroke="black" points="110,-734.884 300.028,-734.884 "/>
<text text-anchor="middle" x="205.014" y="-722.884" font-family="Monaco" font-size="10.00"> </text>
<polyline fill="none" stroke="black" points="110,-713.549 300.028,-713.549 "/>
<text text-anchor="start" x="118" y="-701.549" font-family="Monaco" font-size="10.00">+ ~IPropertyChanged()</text>
</a>
</g>
</g>
<!-- Node5&#45;&gt;Node4 -->
<g id="edge4" class="edge"><title>Node5&#45;&gt;Node4</title>
<path fill="none" stroke="midnightblue" d="M205.014,-681.893C205.014,-673.508 205.014,-664.542 205.014,-655.7"/>
<polygon fill="none" stroke="midnightblue" points="201.514,-682.151 205.014,-692.151 208.514,-682.151 201.514,-682.151"/>
</g>
</g>
</svg>
        <g id="navigator" transform="translate(0 0)" fill="#404254">
                <rect fill="#f2f5e9" fill-opacity="0.5" stroke="#606060" stroke-width=".5" x="0" y="0" width="60" height="60"/>
                <use id="zoomplus" xlink:href="#zoomPlus" x="17" y="9" onmousedown="handleZoom(evt,'in')"/>
                <use id="zoomminus" xlink:href="#zoomMin" x="42" y="9" onmousedown="handleZoom(evt,'out')"/>
                <use id="reset" xlink:href="#resetDef" x="30" y="36" onmousedown="handleReset()"/>
                <g id="arrowUp" xlink:href="#dirArrow" transform="translate(30 24)" onmousedown="handlePan(0,-1)">
                  <use xlink:href="#rim" fill="#404040">
                        <set attributeName="fill" to="#808080" begin="arrowUp.mouseover" end="arrowUp.mouseout"/>
                  </use>
                  <path fill="none" stroke="white" stroke-width="1.5" d="M0,-3.0v7 M-2.5,-0.5L0,-3.0L2.5,-0.5"/>
                </g>
                <g id="arrowRight" xlink:href="#dirArrow" transform="rotate(90) translate(36 -43)" onmousedown="handlePan(1,0)">
                  <use xlink:href="#rim" fill="#404040">
                        <set attributeName="fill" to="#808080" begin="arrowRight.mouseover" end="arrowRight.mouseout"/>
                  </use>
                  <path fill="none" stroke="white" stroke-width="1.5" d="M0,-3.0v7 M-2.5,-0.5L0,-3.0L2.5,-0.5"/>
                </g>
                <g id="arrowDown" xlink:href="#dirArrow" transform="rotate(180) translate(-30 -48)" onmousedown="handlePan(0,1)">
                  <use xlink:href="#rim" fill="#404040">
                        <set attributeName="fill" to="#808080" begin="arrowDown.mouseover" end="arrowDown.mouseout"/>
                  </use>
                  <path fill="none" stroke="white" stroke-width="1.5" d="M0,-3.0v7 M-2.5,-0.5L0,-3.0L2.5,-0.5"/>
                </g>
                <g id="arrowLeft" xlink:href="#dirArrow" transform="rotate(270) translate(-36 17)" onmousedown="handlePan(-1,0)">
                  <use xlink:href="#rim" fill="#404040">
                        <set attributeName="fill" to="#808080" begin="arrowLeft.mouseover" end="arrowLeft.mouseout"/>
                  </use>
                  <path fill="none" stroke="white" stroke-width="1.5" d="M0,-3.0v7 M-2.5,-0.5L0,-3.0L2.5,-0.5"/>
                </g>
        </g>
        <svg viewBox="0 0 15 15" width="100%" height="30px" preserveAspectRatio="xMaxYMin meet">
         <g id="arrow_out" transform="scale(0.3 0.3)">
          <a xlink:href="class_hydro_couple_1_1_i_id_based_component_item__inherit__graph_org.svg" target="_base">
           <rect id="button" ry="5" rx="5" y="6" x="6" height="38" width="38"
                fill="#f2f5e9" fill-opacity="0.5" stroke="#606060" stroke-width="1.0"/>
           <path id="arrow"
             d="M 11.500037,31.436501 C 11.940474,20.09759 22.043105,11.32322 32.158766,21.979434 L 37.068811,17.246167 C 37.068811,17.246167 37.088388,32 37.088388,32 L 22.160133,31.978069 C 22.160133,31.978069 26.997745,27.140456 26.997745,27.140456 C 18.528582,18.264221 13.291696,25.230495 11.500037,31.436501 z"
             style="fill:#404040;"/>
          </a>
         </g>
        </svg>
</svg>
