<?xml version="1.0" encoding="UTF-8" standalone="no"?>
<!DOCTYPE svg PUBLIC "-//W3C//DTD SVG 1.1//EN"
 "http://www.w3.org/Graphics/SVG/1.1/DTD/svg11.dtd">
<!-- Generated by graphviz version 2.38.0 (20140413.2041)
 -->
<!-- Title: HydroCoupleCore::Data::IQuality Pages: 1 -->
<svg width="162pt" height="466pt"
 viewBox="0.00 0.00 162.39 466.00" xmlns="http://www.w3.org/2000/svg" xmlns:xlink="http://www.w3.org/1999/xlink">
<g id="graph0" class="graph" transform="scale(1 1) rotate(0) translate(4 462)">
<title>HydroCoupleCore::Data::IQuality</title>
<polygon fill="white" stroke="none" points="-4,4 -4,-462 158.394,-462 158.394,4 -4,4"/>
<!-- Node1 -->
<g id="node1" class="node"><title>Node1</title>
<polygon fill="#bfbfbf" stroke="black" points="15.8374,-0.5 15.8374,-84.5 138.556,-84.5 138.556,-0.5 15.8374,-0.5"/>
<text text-anchor="start" x="23.8374" y="-72.5" font-family="Helvetica,sans-Serif" font-size="10.00">HydroCoupleCore::Data</text>
<text text-anchor="middle" x="77.1968" y="-62.5" font-family="Helvetica,sans-Serif" font-size="10.00">::IQuality</text>
<polyline fill="none" stroke="black" points="15.8374,-56.5 138.556,-56.5 "/>
<text text-anchor="middle" x="77.1968" y="-44.5" font-family="Helvetica,sans-Serif" font-size="10.00"> </text>
<polyline fill="none" stroke="black" points="15.8374,-38.5 138.556,-38.5 "/>
<text text-anchor="start" x="23.8374" y="-26.5" font-family="Helvetica,sans-Serif" font-size="10.00">+ ~IQuality()</text>
<text text-anchor="start" x="23.8374" y="-16.5" font-family="Helvetica,sans-Serif" font-size="10.00">+ categories()</text>
<text text-anchor="start" x="23.8374" y="-6.5" font-family="Helvetica,sans-Serif" font-size="10.00">+ isOrdered()</text>
</g>
<!-- Node2 -->
<g id="node2" class="node"><title>Node2</title>
<g id="a_node2"><a xlink:href="class_hydro_couple_core_1_1_data_1_1_i_value_definition.html" target="_top" xlink:title="IValueDefinition describes a value returned by the getValues function of IValueSet. ">
<polygon fill="white" stroke="black" points="15.8374,-121.5 15.8374,-225.5 138.556,-225.5 138.556,-121.5 15.8374,-121.5"/>
<text text-anchor="start" x="23.8374" y="-213.5" font-family="Helvetica,sans-Serif" font-size="10.00">HydroCoupleCore::Data</text>
<text text-anchor="middle" x="77.1968" y="-203.5" font-family="Helvetica,sans-Serif" font-size="10.00">::IValueDefinition</text>
<polyline fill="none" stroke="black" points="15.8374,-197.5 138.556,-197.5 "/>
<text text-anchor="middle" x="77.1968" y="-185.5" font-family="Helvetica,sans-Serif" font-size="10.00"> </text>
<polyline fill="none" stroke="black" points="15.8374,-179.5 138.556,-179.5 "/>
<text text-anchor="start" x="23.8374" y="-167.5" font-family="Helvetica,sans-Serif" font-size="10.00">+ ~IValueDefinition()</text>
<text text-anchor="start" x="23.8374" y="-157.5" font-family="Helvetica,sans-Serif" font-size="10.00">+ type()</text>
<text text-anchor="start" x="23.8374" y="-147.5" font-family="Helvetica,sans-Serif" font-size="10.00">+ missingValue()</text>
<text text-anchor="start" x="23.8374" y="-137.5" font-family="Helvetica,sans-Serif" font-size="10.00">+ defaultValue()</text>
<text text-anchor="start" x="23.8374" y="-127.5" font-family="Helvetica,sans-Serif" font-size="10.00">+ possibleValues()</text>
</a>
</g>
</g>
<!-- Node2&#45;&gt;Node1 -->
<g id="edge1" class="edge"><title>Node2&#45;&gt;Node1</title>
<path fill="none" stroke="midnightblue" d="M77.1968,-111.124C77.1968,-102.186 77.1968,-93.1671 77.1968,-84.7571"/>
<polygon fill="none" stroke="midnightblue" points="73.6969,-111.145 77.1968,-121.145 80.6969,-111.145 73.6969,-111.145"/>
</g>
<!-- Node3 -->
<g id="node3" class="node"><title>Node3</title>
<g id="a_node3"><a xlink:href="class_hydro_couple_core_1_1_i_description.html" target="_top" xlink:title="IDescription interface class provides descriptive information on a HydroCouple object. ">
<polygon fill="white" stroke="black" points="0,-262.5 0,-356.5 154.394,-356.5 154.394,-262.5 0,-262.5"/>
<text text-anchor="middle" x="77.1968" y="-344.5" font-family="Helvetica,sans-Serif" font-size="10.00">HydroCoupleCore::IDescription</text>
<polyline fill="none" stroke="black" points="0,-338.5 154.394,-338.5 "/>
<text text-anchor="middle" x="77.1968" y="-326.5" font-family="Helvetica,sans-Serif" font-size="10.00"> </text>
<polyline fill="none" stroke="black" points="0,-320.5 154.394,-320.5 "/>
<text text-anchor="start" x="8" y="-308.5" font-family="Helvetica,sans-Serif" font-size="10.00">+ ~IDescription()</text>
<text text-anchor="start" x="8" y="-298.5" font-family="Helvetica,sans-Serif" font-size="10.00">+ getCaption()</text>
<text text-anchor="start" x="8" y="-288.5" font-family="Helvetica,sans-Serif" font-size="10.00">+ setCaption()</text>
<text text-anchor="start" x="8" y="-278.5" font-family="Helvetica,sans-Serif" font-size="10.00">+ getDescription()</text>
<text text-anchor="start" x="8" y="-268.5" font-family="Helvetica,sans-Serif" font-size="10.00">+ setDescription()</text>
</a>
</g>
</g>
<!-- Node3&#45;&gt;Node2 -->
<g id="edge2" class="edge"><title>Node3&#45;&gt;Node2</title>
<path fill="none" stroke="midnightblue" d="M77.1968,-252.229C77.1968,-243.447 77.1968,-234.413 77.1968,-225.751"/>
<polygon fill="none" stroke="midnightblue" points="73.6969,-252.385 77.1968,-262.385 80.6969,-252.385 73.6969,-252.385"/>
</g>
<!-- Node4 -->
<g id="node4" class="node"><title>Node4</title>
<g id="a_node4"><a xlink:href="class_hydro_couple_core_1_1_i_property_changed.html" target="_top" xlink:title="IPropertyChanged interface is used to emit signal/event when a property of an object changes...">
<polygon fill="white" stroke="black" points="6.11328,-393.5 6.11328,-457.5 148.28,-457.5 148.28,-393.5 6.11328,-393.5"/>
<text text-anchor="start" x="14.1133" y="-445.5" font-family="Helvetica,sans-Serif" font-size="10.00">HydroCoupleCore::IProperty</text>
<text text-anchor="middle" x="77.1968" y="-435.5" font-family="Helvetica,sans-Serif" font-size="10.00">Changed</text>
<polyline fill="none" stroke="black" points="6.11328,-429.5 148.28,-429.5 "/>
<text text-anchor="middle" x="77.1968" y="-417.5" font-family="Helvetica,sans-Serif" font-size="10.00"> </text>
<polyline fill="none" stroke="black" points="6.11328,-411.5 148.28,-411.5 "/>
<text text-anchor="start" x="14.1133" y="-399.5" font-family="Helvetica,sans-Serif" font-size="10.00">+ ~IPropertyChanged()</text>
</a>
</g>
</g>
<!-- Node4&#45;&gt;Node3 -->
<g id="edge3" class="edge"><title>Node4&#45;&gt;Node3</title>
<path fill="none" stroke="midnightblue" d="M77.1968,-383.141C77.1968,-374.513 77.1968,-365.367 77.1968,-356.581"/>
<polygon fill="none" stroke="midnightblue" points="73.6969,-383.349 77.1968,-393.349 80.6969,-383.349 73.6969,-383.349"/>
</g>
</g>
</svg>
