<?xml version="1.0" encoding="UTF-8" standalone="no"?>
<!DOCTYPE svg PUBLIC "-//W3C//DTD SVG 1.1//EN"
 "http://www.w3.org/Graphics/SVG/1.1/DTD/svg11.dtd">
<!-- Generated by graphviz version 2.38.0 (20140413.2041)
 -->
<!-- Title: HydroCouple::Spatial::IMultiSurface Pages: 1 -->
<svg width="198pt" height="1532pt"
 viewBox="0.00 0.00 198.03 1532.47" xmlns="http://www.w3.org/2000/svg" xmlns:xlink="http://www.w3.org/1999/xlink">
<g id="graph0" class="graph" transform="scale(1 1) rotate(0) translate(4 1528.47)">
<title>HydroCouple::Spatial::IMultiSurface</title>
<!-- Node1 -->
<g id="node1" class="node"><title>Node1</title>
<polygon fill="#bfbfbf" stroke="black" points="27.0044,-128.175 27.0044,-245.52 163.024,-245.52 163.024,-128.175 27.0044,-128.175"/>
<text text-anchor="start" x="35.0044" y="-233.52" font-family="Monaco" font-size="10.00">HydroCouple::Spatial</text>
<text text-anchor="middle" x="95.0142" y="-220.185" font-family="Monaco" font-size="10.00">::IMultiSurface</text>
<polyline fill="none" stroke="black" points="27.0044,-210.85 163.024,-210.85 "/>
<text text-anchor="middle" x="95.0142" y="-198.85" font-family="Monaco" font-size="10.00"> </text>
<polyline fill="none" stroke="black" points="27.0044,-189.515 163.024,-189.515 "/>
<text text-anchor="start" x="35.0044" y="-177.515" font-family="Monaco" font-size="10.00">+ ~IMultiSurface()</text>
<text text-anchor="start" x="35.0044" y="-164.18" font-family="Monaco" font-size="10.00">+ area()</text>
<text text-anchor="start" x="35.0044" y="-150.845" font-family="Monaco" font-size="10.00">+ centroid()</text>
<text text-anchor="start" x="35.0044" y="-137.51" font-family="Monaco" font-size="10.00">+ pointOnSurface()</text>
</g>
<!-- Node7 -->
<g id="node7" class="node"><title>Node7</title>
<g id="a_node7"><a xlink:href="class_hydro_couple_1_1_spatial_1_1_i_multi_polygon.html" target="_top" xlink:title="An IMultiPolygon is an IMultiSurface whose elements are IPolygons. ">
<polygon fill="none" stroke="black" points="27.0044,-0.5 27.0044,-91.1748 163.024,-91.1748 163.024,-0.5 27.0044,-0.5"/>
<text text-anchor="start" x="35.0044" y="-79.1748" font-family="Monaco" font-size="10.00">HydroCouple::Spatial</text>
<text text-anchor="middle" x="95.0142" y="-65.8398" font-family="Monaco" font-size="10.00">::IMultiPolygon</text>
<polyline fill="none" stroke="black" points="27.0044,-56.5049 163.024,-56.5049 "/>
<text text-anchor="middle" x="95.0142" y="-44.5049" font-family="Monaco" font-size="10.00"> </text>
<polyline fill="none" stroke="black" points="27.0044,-35.1699 163.024,-35.1699 "/>
<text text-anchor="start" x="35.0044" y="-23.1699" font-family="Monaco" font-size="10.00">+ ~IMultiPolygon()</text>
<text text-anchor="start" x="35.0044" y="-9.83496" font-family="Monaco" font-size="10.00">+ element()</text>
</a>
</g>
</g>
<!-- Node1&#45;&gt;Node7 -->
<g id="edge6" class="edge"><title>Node1&#45;&gt;Node7</title>
<path fill="none" stroke="midnightblue" d="M95.0142,-117.987C95.0142,-108.985 95.0142,-99.9463 95.0142,-91.4754"/>
<polygon fill="none" stroke="midnightblue" points="91.5143,-118.102 95.0142,-128.102 98.5143,-118.102 91.5143,-118.102"/>
</g>
<!-- Node2 -->
<g id="node2" class="node"><title>Node2</title>
<g id="a_node2"><a xlink:href="class_hydro_couple_1_1_spatial_1_1_i_geometry_collection.html" target="_top" xlink:title="An IGeometryCollection is a geometric object that is a collection of some number of IGeometry objects...">
<polygon fill="none" stroke="black" points="15.0024,-282.52 15.0024,-386.529 175.026,-386.529 175.026,-282.52 15.0024,-282.52"/>
<text text-anchor="start" x="23.0024" y="-374.529" font-family="Monaco" font-size="10.00">HydroCouple::Spatial</text>
<text text-anchor="middle" x="95.0142" y="-361.194" font-family="Monaco" font-size="10.00">::IGeometryCollection</text>
<polyline fill="none" stroke="black" points="15.0024,-351.859 175.026,-351.859 "/>
<text text-anchor="middle" x="95.0142" y="-339.859" font-family="Monaco" font-size="10.00"> </text>
<polyline fill="none" stroke="black" points="15.0024,-330.524 175.026,-330.524 "/>
<text text-anchor="start" x="23.0024" y="-318.524" font-family="Monaco" font-size="10.00">+ ~IGeometryCollection()</text>
<text text-anchor="start" x="23.0024" y="-305.189" font-family="Monaco" font-size="10.00">+ geometryCount()</text>
<text text-anchor="start" x="23.0024" y="-291.854" font-family="Monaco" font-size="10.00">+ geometry()</text>
</a>
</g>
</g>
<!-- Node2&#45;&gt;Node1 -->
<g id="edge1" class="edge"><title>Node2&#45;&gt;Node1</title>
<path fill="none" stroke="midnightblue" d="M95.0142,-272.046C95.0142,-263.314 95.0142,-254.358 95.0142,-245.697"/>
<polygon fill="none" stroke="midnightblue" points="91.5143,-272.164 95.0142,-282.164 98.5143,-272.164 91.5143,-272.164"/>
</g>
<!-- Node3 -->
<g id="node3" class="node"><title>Node3</title>
<g id="a_node3"><a xlink:href="class_hydro_couple_1_1_spatial_1_1_i_geometry.html" target="_top" xlink:title="IGeometry is the root class of the hierarchy. ">
<polygon fill="none" stroke="black" points="9.00146,-423.529 9.00146,-1154.28 181.027,-1154.28 181.027,-423.529 9.00146,-423.529"/>
<text text-anchor="start" x="17.0015" y="-1142.28" font-family="Monaco" font-size="10.00">HydroCouple::Spatial</text>
<text text-anchor="middle" x="95.0142" y="-1128.95" font-family="Monaco" font-size="10.00">::IGeometry</text>
<polyline fill="none" stroke="black" points="9.00146,-1119.61 181.027,-1119.61 "/>
<text text-anchor="middle" x="95.0142" y="-1107.61" font-family="Monaco" font-size="10.00"> </text>
<polyline fill="none" stroke="black" points="9.00146,-1098.28 181.027,-1098.28 "/>
<text text-anchor="start" x="17.0015" y="-1086.28" font-family="Monaco" font-size="10.00">+ ~IGeometry()</text>
<text text-anchor="start" x="17.0015" y="-1072.94" font-family="Monaco" font-size="10.00">+ index()</text>
<text text-anchor="start" x="17.0015" y="-1059.61" font-family="Monaco" font-size="10.00">+ dimension()</text>
<text text-anchor="start" x="17.0015" y="-1046.27" font-family="Monaco" font-size="10.00">+ coordinateDimension()</text>
<text text-anchor="start" x="17.0015" y="-1032.94" font-family="Monaco" font-size="10.00">+ geometryType()</text>
<text text-anchor="start" x="17.0015" y="-1019.6" font-family="Monaco" font-size="10.00">+ spatialReferenceSystem()</text>
<text text-anchor="start" x="17.0015" y="-1006.27" font-family="Monaco" font-size="10.00">+ envelope()</text>
<text text-anchor="start" x="17.0015" y="-992.933" font-family="Monaco" font-size="10.00">+ wkt()</text>
<text text-anchor="start" x="17.0015" y="-979.598" font-family="Monaco" font-size="10.00">+ wkb()</text>
<text text-anchor="start" x="17.0015" y="-966.263" font-family="Monaco" font-size="10.00">+ isEmpty()</text>
<text text-anchor="start" x="17.0015" y="-952.928" font-family="Monaco" font-size="10.00">+ isSimple()</text>
<text text-anchor="start" x="17.0015" y="-939.593" font-family="Monaco" font-size="10.00">+ is3D()</text>
<text text-anchor="start" x="17.0015" y="-926.258" font-family="Monaco" font-size="10.00">+ isMeasured()</text>
<text text-anchor="start" x="17.0015" y="-912.923" font-family="Monaco" font-size="10.00">+ boundary()</text>
<text text-anchor="start" x="17.0015" y="-899.588" font-family="Monaco" font-size="10.00">+ equals()</text>
<text text-anchor="start" x="17.0015" y="-886.253" font-family="Monaco" font-size="10.00">+ disjoint()</text>
<text text-anchor="start" x="17.0015" y="-872.918" font-family="Monaco" font-size="10.00">+ intersects()</text>
<text text-anchor="start" x="17.0015" y="-859.583" font-family="Monaco" font-size="10.00">+ touches()</text>
<text text-anchor="start" x="17.0015" y="-846.248" font-family="Monaco" font-size="10.00">+ crosses()</text>
<text text-anchor="start" x="17.0015" y="-832.913" font-family="Monaco" font-size="10.00">+ within()</text>
<text text-anchor="start" x="17.0015" y="-819.578" font-family="Monaco" font-size="10.00">+ contains()</text>
<text text-anchor="start" x="17.0015" y="-806.243" font-family="Monaco" font-size="10.00">+ overlaps()</text>
<text text-anchor="start" x="17.0015" y="-792.908" font-family="Monaco" font-size="10.00">+ relate()</text>
<text text-anchor="start" x="17.0015" y="-779.573" font-family="Monaco" font-size="10.00">+ locateAlong()</text>
<text text-anchor="start" x="17.0015" y="-766.238" font-family="Monaco" font-size="10.00">+ locateBetween()</text>
<text text-anchor="start" x="17.0015" y="-752.903" font-family="Monaco" font-size="10.00">+ distance()</text>
<text text-anchor="start" x="17.0015" y="-739.568" font-family="Monaco" font-size="10.00">+ buffer()</text>
<text text-anchor="start" x="17.0015" y="-726.233" font-family="Monaco" font-size="10.00">+ convexHull()</text>
<text text-anchor="start" x="17.0015" y="-712.898" font-family="Monaco" font-size="10.00">+ intersection()</text>
<text text-anchor="start" x="17.0015" y="-699.563" font-family="Monaco" font-size="10.00">+ unionG()</text>
<text text-anchor="start" x="17.0015" y="-686.229" font-family="Monaco" font-size="10.00">+ difference()</text>
<text text-anchor="start" x="17.0015" y="-672.894" font-family="Monaco" font-size="10.00">+ symmetricDifference()</text>
<text text-anchor="start" x="17.0015" y="-659.559" font-family="Monaco" font-size="10.00">* equals()</text>
<text text-anchor="start" x="17.0015" y="-646.224" font-family="Monaco" font-size="10.00">* disjoint()</text>
<text text-anchor="start" x="17.0015" y="-632.889" font-family="Monaco" font-size="10.00">* intersects()</text>
<text text-anchor="start" x="17.0015" y="-619.554" font-family="Monaco" font-size="10.00">* touches()</text>
<text text-anchor="start" x="17.0015" y="-606.219" font-family="Monaco" font-size="10.00">* crosses()</text>
<text text-anchor="start" x="17.0015" y="-592.884" font-family="Monaco" font-size="10.00">* within()</text>
<text text-anchor="start" x="17.0015" y="-579.549" font-family="Monaco" font-size="10.00">* contains()</text>
<text text-anchor="start" x="17.0015" y="-566.214" font-family="Monaco" font-size="10.00">* overlaps()</text>
<text text-anchor="start" x="17.0015" y="-552.879" font-family="Monaco" font-size="10.00">* relate()</text>
<text text-anchor="start" x="17.0015" y="-539.544" font-family="Monaco" font-size="10.00">* locateAlong()</text>
<text text-anchor="start" x="17.0015" y="-526.209" font-family="Monaco" font-size="10.00">* locateBetween()</text>
<text text-anchor="start" x="17.0015" y="-512.874" font-family="Monaco" font-size="10.00">* distance()</text>
<text text-anchor="start" x="17.0015" y="-499.539" font-family="Monaco" font-size="10.00">* buffer()</text>
<text text-anchor="start" x="17.0015" y="-486.204" font-family="Monaco" font-size="10.00">* convexHull()</text>
<text text-anchor="start" x="17.0015" y="-472.869" font-family="Monaco" font-size="10.00">* intersection()</text>
<text text-anchor="start" x="17.0015" y="-459.534" font-family="Monaco" font-size="10.00">* unionG()</text>
<text text-anchor="start" x="17.0015" y="-446.199" font-family="Monaco" font-size="10.00">* difference()</text>
<text text-anchor="start" x="17.0015" y="-432.864" font-family="Monaco" font-size="10.00">* symmetricDifference()</text>
</a>
</g>
</g>
<!-- Node3&#45;&gt;Node2 -->
<g id="edge2" class="edge"><title>Node3&#45;&gt;Node2</title>
<path fill="none" stroke="midnightblue" d="M95.0142,-413.184C95.0142,-403.703 95.0142,-394.845 95.0142,-386.755"/>
<polygon fill="none" stroke="midnightblue" points="91.5143,-413.284 95.0142,-423.284 98.5143,-413.285 91.5143,-413.284"/>
</g>
<!-- Node4 -->
<g id="node4" class="node"><title>Node4</title>
<g id="a_node4"><a xlink:href="class_hydro_couple_1_1_i_identity.html" target="_top" xlink:title="IIdentity interface class defines a method to get the Id of an HydroCouple entity. ">
<polygon fill="none" stroke="black" points="21.0034,-1191.28 21.0034,-1268.62 169.025,-1268.62 169.025,-1191.28 21.0034,-1191.28"/>
<text text-anchor="middle" x="95.0142" y="-1256.62" font-family="Monaco" font-size="10.00">HydroCouple::IIdentity</text>
<polyline fill="none" stroke="black" points="21.0034,-1247.29 169.025,-1247.29 "/>
<text text-anchor="middle" x="95.0142" y="-1235.29" font-family="Monaco" font-size="10.00"> </text>
<polyline fill="none" stroke="black" points="21.0034,-1225.95 169.025,-1225.95 "/>
<text text-anchor="start" x="29.0034" y="-1213.95" font-family="Monaco" font-size="10.00">+ ~IIdentity()</text>
<text text-anchor="start" x="29.0034" y="-1200.62" font-family="Monaco" font-size="10.00">+ id()</text>
</a>
</g>
</g>
<!-- Node4&#45;&gt;Node3 -->
<g id="edge3" class="edge"><title>Node4&#45;&gt;Node3</title>
<path fill="none" stroke="midnightblue" d="M95.0142,-1181.04C95.0142,-1172.99 95.0142,-1164.12 95.0142,-1154.6"/>
<polygon fill="none" stroke="midnightblue" points="91.5143,-1181.14 95.0142,-1191.14 98.5143,-1181.14 91.5143,-1181.14"/>
</g>
<!-- Node5 -->
<g id="node5" class="node"><title>Node5</title>
<g id="a_node5"><a xlink:href="class_hydro_couple_1_1_i_description.html" target="_top" xlink:title="IDescription interface class provides descriptive information on a HydroCouple object. ">
<polygon fill="none" stroke="black" points="12.002,-1305.62 12.002,-1422.97 178.026,-1422.97 178.026,-1305.62 12.002,-1305.62"/>
<text text-anchor="middle" x="95.0142" y="-1410.97" font-family="Monaco" font-size="10.00">HydroCouple::IDescription</text>
<polyline fill="none" stroke="black" points="12.002,-1401.63 178.026,-1401.63 "/>
<text text-anchor="middle" x="95.0142" y="-1389.63" font-family="Monaco" font-size="10.00"> </text>
<polyline fill="none" stroke="black" points="12.002,-1380.3 178.026,-1380.3 "/>
<text text-anchor="start" x="20.002" y="-1368.3" font-family="Monaco" font-size="10.00">+ ~IDescription()</text>
<text text-anchor="start" x="20.002" y="-1354.96" font-family="Monaco" font-size="10.00">+ caption()</text>
<text text-anchor="start" x="20.002" y="-1341.63" font-family="Monaco" font-size="10.00">+ setCaption()</text>
<text text-anchor="start" x="20.002" y="-1328.29" font-family="Monaco" font-size="10.00">+ description()</text>
<text text-anchor="start" x="20.002" y="-1314.96" font-family="Monaco" font-size="10.00">+ setDescription()</text>
</a>
</g>
</g>
<!-- Node5&#45;&gt;Node4 -->
<g id="edge4" class="edge"><title>Node5&#45;&gt;Node4</title>
<path fill="none" stroke="midnightblue" d="M95.0142,-1295.06C95.0142,-1286.02 95.0142,-1277.03 95.0142,-1268.77"/>
<polygon fill="none" stroke="midnightblue" points="91.5143,-1295.25 95.0142,-1305.25 98.5143,-1295.25 91.5143,-1295.25"/>
</g>
<!-- Node6 -->
<g id="node6" class="node"><title>Node6</title>
<g id="a_node6"><a xlink:href="class_hydro_couple_1_1_i_property_changed.html" target="_top" xlink:title="IPropertyChanged interface is used to emit signal/event when a property of an object changes...">
<polygon fill="none" stroke="black" points="0,-1459.97 0,-1523.97 190.028,-1523.97 190.028,-1459.97 0,-1459.97"/>
<text text-anchor="middle" x="95.0142" y="-1511.97" font-family="Monaco" font-size="10.00">HydroCouple::IPropertyChanged</text>
<polyline fill="none" stroke="black" points="0,-1502.64 190.028,-1502.64 "/>
<text text-anchor="middle" x="95.0142" y="-1490.64" font-family="Monaco" font-size="10.00"> </text>
<polyline fill="none" stroke="black" points="0,-1481.3 190.028,-1481.3 "/>
<text text-anchor="start" x="8" y="-1469.3" font-family="Monaco" font-size="10.00">+ ~IPropertyChanged()</text>
</a>
</g>
</g>
<!-- Node6&#45;&gt;Node5 -->
<g id="edge5" class="edge"><title>Node6&#45;&gt;Node5</title>
<path fill="none" stroke="midnightblue" d="M95.0142,-1449.65C95.0142,-1441.26 95.0142,-1432.29 95.0142,-1423.45"/>
<polygon fill="none" stroke="midnightblue" points="91.5143,-1449.9 95.0142,-1459.9 98.5143,-1449.9 91.5143,-1449.9"/>
</g>
</g>
</svg>
