<?xml version="1.0" encoding="UTF-8" standalone="no"?>
<!DOCTYPE svg PUBLIC "-//W3C//DTD SVG 1.1//EN"
 "http://www.w3.org/Graphics/SVG/1.1/DTD/svg11.dtd">
<!-- Generated by graphviz version 2.38.0 (20140413.2041)
 -->
<!-- Title: HydroCouple::Spatial::ITINComponentDataItem Pages: 1 -->
<!--zoomable 938 -->
<svg id="main" version="1.1" xmlns="http://www.w3.org/2000/svg" xmlns:xlink="http://www.w3.org/1999/xlink" xml:space="preserve" onload="init(evt)">
<style type="text/css"><![CDATA[
.edge:hover path { stroke: red; }
.edge:hover polygon { stroke: red; fill: red; }
]]></style>
<script type="text/javascript"><![CDATA[
var edges = document.getElementsByTagName('g');
if (edges && edges.length) {
  for (var i=0;i<edges.length;i++) {
    if (edges[i].id.substr(0,4)=='edge') {
      edges[i].setAttribute('class','edge');
    }
  }
}
]]></script>
        <defs>
                <circle id="rim" cx="0" cy="0" r="7"/>
                <circle id="rim2" cx="0" cy="0" r="3.5"/>
                <g id="zoomPlus">
                        <use xlink:href="#rim" fill="#404040">
                                <set attributeName="fill" to="#808080" begin="zoomplus.mouseover" end="zoomplus.mouseout"/>
                        </use>
                        <path d="M-4,0h8M0,-4v8" fill="none" stroke="white" stroke-width="1.5" pointer-events="none"/>
                </g>
                <g id="zoomMin">
                        <use xlink:href="#rim" fill="#404040">
                                <set attributeName="fill" to="#808080" begin="zoomminus.mouseover" end="zoomminus.mouseout"/>
                        </use>
                        <path d="M-4,0h8" fill="none" stroke="white" stroke-width="1.5" pointer-events="none"/>
                </g>
                <g id="dirArrow">
                        <path fill="none" stroke="white" stroke-width="1.5" d="M0,-3.0v7 M-2.5,-0.5L0,-3.0L2.5,-0.5"/>
                </g>
               <g id="resetDef">
                       <use xlink:href="#rim2" fill="#404040">
                               <set attributeName="fill" to="#808080" begin="reset.mouseover" end="reset.mouseout"/>
                       </use>
               </g>
        </defs>

<script type="text/javascript">
var viewWidth = 304;
var viewHeight = 938;
var sectionId = 'dynsection-0';
</script>
<script xlink:href="svgpan.js"/>
<svg id="graph" class="graph">
<g id="viewport">
<title>HydroCouple::Spatial::ITINComponentDataItem</title>
<!-- Node1 -->
<g id="node1" class="node"><title>Node1</title>
<polygon fill="#bfbfbf" stroke="black" points="59.9971,-114.84 59.9971,-338.864 232.022,-338.864 232.022,-114.84 59.9971,-114.84"/>
<text text-anchor="start" x="67.9971" y="-326.864" font-family="Monaco" font-size="10.00">HydroCouple::Spatial</text>
<text text-anchor="middle" x="146.01" y="-313.529" font-family="Monaco" font-size="10.00">::ITINComponentDataItem</text>
<polyline fill="none" stroke="black" points="59.9971,-304.194 232.022,-304.194 "/>
<text text-anchor="middle" x="146.01" y="-292.194" font-family="Monaco" font-size="10.00"> </text>
<polyline fill="none" stroke="black" points="59.9971,-282.859 232.022,-282.859 "/>
<text text-anchor="start" x="67.9971" y="-270.859" font-family="Monaco" font-size="10.00">+ ~ITINComponentDataItem()</text>
<text text-anchor="start" x="67.9971" y="-257.524" font-family="Monaco" font-size="10.00">+ TIN()</text>
<text text-anchor="start" x="67.9971" y="-244.189" font-family="Monaco" font-size="10.00">+ triangle()</text>
<text text-anchor="start" x="67.9971" y="-230.854" font-family="Monaco" font-size="10.00">+ TINPatchDimension()</text>
<text text-anchor="start" x="67.9971" y="-217.52" font-family="Monaco" font-size="10.00">+ TINEdgeDimension()</text>
<text text-anchor="start" x="67.9971" y="-204.185" font-family="Monaco" font-size="10.00">+ TINNodeDimension()</text>
<text text-anchor="start" x="67.9971" y="-190.85" font-family="Monaco" font-size="10.00">+ getValue()</text>
<text text-anchor="start" x="67.9971" y="-177.515" font-family="Monaco" font-size="10.00">+ getValues()</text>
<text text-anchor="start" x="67.9971" y="-164.18" font-family="Monaco" font-size="10.00">+ getValues()</text>
<text text-anchor="start" x="67.9971" y="-150.845" font-family="Monaco" font-size="10.00">+ setValue()</text>
<text text-anchor="start" x="67.9971" y="-137.51" font-family="Monaco" font-size="10.00">+ setValues()</text>
<text text-anchor="start" x="67.9971" y="-124.175" font-family="Monaco" font-size="10.00">+ setValues()</text>
</g>
<!-- Node6 -->
<g id="node6" class="node"><title>Node6</title>
<g id="a_node6"><a xlink:href="class_hydro_couple_1_1_spatial_1_1_i_t_i_n_argument.html" target="_top" xlink:title="The ITINArgument class. ">
<polygon fill="none" stroke="black" points="0,-0.5 0,-77.8398 136.02,-77.8398 136.02,-0.5 0,-0.5"/>
<text text-anchor="start" x="8" y="-65.8398" font-family="Monaco" font-size="10.00">HydroCouple::Spatial</text>
<text text-anchor="middle" x="68.0098" y="-52.5049" font-family="Monaco" font-size="10.00">::ITINArgument</text>
<polyline fill="none" stroke="black" points="0,-43.1699 136.02,-43.1699 "/>
<text text-anchor="middle" x="68.0098" y="-31.1699" font-family="Monaco" font-size="10.00"> </text>
<polyline fill="none" stroke="black" points="0,-21.835 136.02,-21.835 "/>
<text text-anchor="start" x="8" y="-9.83496" font-family="Monaco" font-size="10.00">+ ~ITINArgument()</text>
</a>
</g>
</g>
<!-- Node1&#45;&gt;Node6 -->
<g id="edge5" class="edge"><title>Node1&#45;&gt;Node6</title>
<path fill="none" stroke="midnightblue" d="M95.3228,-105.19C91.2425,-95.4764 87.3502,-86.2106 83.8486,-77.8748"/>
<polygon fill="none" stroke="midnightblue" points="92.1861,-106.76 99.2859,-114.624 98.6398,-104.049 92.1861,-106.76"/>
</g>
<!-- Node7 -->
<g id="node7" class="node"><title>Node7</title>
<g id="a_node7"><a xlink:href="class_hydro_couple_1_1_spatial_1_1_i_t_i_n_exchange_item.html" target="_top" xlink:title="An ITINExchangeItem class with an TIN component. ">
<polygon fill="none" stroke="black" points="154,-0.5 154,-77.8398 296.02,-77.8398 296.02,-0.5 154,-0.5"/>
<text text-anchor="start" x="162" y="-65.8398" font-family="Monaco" font-size="10.00">HydroCouple::Spatial</text>
<text text-anchor="middle" x="225.01" y="-52.5049" font-family="Monaco" font-size="10.00">::ITINExchangeItem</text>
<polyline fill="none" stroke="black" points="154,-43.1699 296.02,-43.1699 "/>
<text text-anchor="middle" x="225.01" y="-31.1699" font-family="Monaco" font-size="10.00"> </text>
<polyline fill="none" stroke="black" points="154,-21.835 296.02,-21.835 "/>
<text text-anchor="start" x="162" y="-9.83496" font-family="Monaco" font-size="10.00">+ ~ITINExchangeItem()</text>
</a>
</g>
</g>
<!-- Node1&#45;&gt;Node7 -->
<g id="edge6" class="edge"><title>Node1&#45;&gt;Node7</title>
<path fill="none" stroke="midnightblue" d="M197.347,-105.19C201.479,-95.4764 205.421,-86.2106 208.968,-77.8748"/>
<polygon fill="none" stroke="midnightblue" points="194.027,-104.052 193.333,-114.624 200.468,-106.793 194.027,-104.052"/>
</g>
<!-- Node2 -->
<g id="node2" class="node"><title>Node2</title>
<g id="a_node2"><a xlink:href="class_hydro_couple_1_1_i_component_data_item.html" target="_top" xlink:title="IComponentItem is a fundamental unit of data for a component. ">
<polygon fill="none" stroke="black" points="44.9946,-375.864 44.9946,-559.884 247.025,-559.884 247.025,-375.864 44.9946,-375.864"/>
<text text-anchor="middle" x="146.01" y="-547.884" font-family="Monaco" font-size="10.00">HydroCouple::IComponentDataItem</text>
<polyline fill="none" stroke="black" points="44.9946,-538.549 247.025,-538.549 "/>
<text text-anchor="middle" x="146.01" y="-526.549" font-family="Monaco" font-size="10.00"> </text>
<polyline fill="none" stroke="black" points="44.9946,-517.214 247.025,-517.214 "/>
<text text-anchor="start" x="52.9946" y="-505.214" font-family="Monaco" font-size="10.00">+ ~IComponentDataItem()</text>
<text text-anchor="start" x="52.9946" y="-491.879" font-family="Monaco" font-size="10.00">+ modelComponent()</text>
<text text-anchor="start" x="52.9946" y="-478.544" font-family="Monaco" font-size="10.00">+ dimensions()</text>
<text text-anchor="start" x="52.9946" y="-465.209" font-family="Monaco" font-size="10.00">+ valueDefinition()</text>
<text text-anchor="start" x="52.9946" y="-451.874" font-family="Monaco" font-size="10.00">+ getValue()</text>
<text text-anchor="start" x="52.9946" y="-438.539" font-family="Monaco" font-size="10.00">+ getValues()</text>
<text text-anchor="start" x="52.9946" y="-425.204" font-family="Monaco" font-size="10.00">+ getValues()</text>
<text text-anchor="start" x="52.9946" y="-411.869" font-family="Monaco" font-size="10.00">+ setValue()</text>
<text text-anchor="start" x="52.9946" y="-398.534" font-family="Monaco" font-size="10.00">+ setValues()</text>
<text text-anchor="start" x="52.9946" y="-385.199" font-family="Monaco" font-size="10.00">+ setValues()</text>
</a>
</g>
</g>
<!-- Node2&#45;&gt;Node1 -->
<g id="edge1" class="edge"><title>Node2&#45;&gt;Node1</title>
<path fill="none" stroke="midnightblue" d="M146.01,-365.614C146.01,-356.85 146.01,-347.952 146.01,-339.115"/>
<polygon fill="none" stroke="midnightblue" points="142.51,-365.828 146.01,-375.828 149.51,-365.828 142.51,-365.828"/>
</g>
<!-- Node3 -->
<g id="node3" class="node"><title>Node3</title>
<g id="a_node3"><a xlink:href="class_hydro_couple_1_1_i_identity.html" target="_top" xlink:title="IIdentity interface class defines a method to get the Id of an HydroCouple entity. ">
<polygon fill="none" stroke="black" points="71.999,-596.884 71.999,-674.224 220.021,-674.224 220.021,-596.884 71.999,-596.884"/>
<text text-anchor="middle" x="146.01" y="-662.224" font-family="Monaco" font-size="10.00">HydroCouple::IIdentity</text>
<polyline fill="none" stroke="black" points="71.999,-652.889 220.021,-652.889 "/>
<text text-anchor="middle" x="146.01" y="-640.889" font-family="Monaco" font-size="10.00"> </text>
<polyline fill="none" stroke="black" points="71.999,-631.554 220.021,-631.554 "/>
<text text-anchor="start" x="79.999" y="-619.554" font-family="Monaco" font-size="10.00">+ ~IIdentity()</text>
<text text-anchor="start" x="79.999" y="-606.219" font-family="Monaco" font-size="10.00">+ id()</text>
</a>
</g>
</g>
<!-- Node3&#45;&gt;Node2 -->
<g id="edge2" class="edge"><title>Node3&#45;&gt;Node2</title>
<path fill="none" stroke="midnightblue" d="M146.01,-586.301C146.01,-577.948 146.01,-569.023 146.01,-559.965"/>
<polygon fill="none" stroke="midnightblue" points="142.51,-586.543 146.01,-596.543 149.51,-586.543 142.51,-586.543"/>
</g>
<!-- Node4 -->
<g id="node4" class="node"><title>Node4</title>
<g id="a_node4"><a xlink:href="class_hydro_couple_1_1_i_description.html" target="_top" xlink:title="IDescription interface class provides descriptive information on a HydroCouple object. ">
<polygon fill="none" stroke="black" points="62.9976,-711.224 62.9976,-828.568 229.022,-828.568 229.022,-711.224 62.9976,-711.224"/>
<text text-anchor="middle" x="146.01" y="-816.568" font-family="Monaco" font-size="10.00">HydroCouple::IDescription</text>
<polyline fill="none" stroke="black" points="62.9976,-807.233 229.022,-807.233 "/>
<text text-anchor="middle" x="146.01" y="-795.233" font-family="Monaco" font-size="10.00"> </text>
<polyline fill="none" stroke="black" points="62.9976,-785.898 229.022,-785.898 "/>
<text text-anchor="start" x="70.9976" y="-773.898" font-family="Monaco" font-size="10.00">+ ~IDescription()</text>
<text text-anchor="start" x="70.9976" y="-760.563" font-family="Monaco" font-size="10.00">+ caption()</text>
<text text-anchor="start" x="70.9976" y="-747.229" font-family="Monaco" font-size="10.00">+ setCaption()</text>
<text text-anchor="start" x="70.9976" y="-733.894" font-family="Monaco" font-size="10.00">+ description()</text>
<text text-anchor="start" x="70.9976" y="-720.559" font-family="Monaco" font-size="10.00">+ setDescription()</text>
</a>
</g>
</g>
<!-- Node4&#45;&gt;Node3 -->
<g id="edge3" class="edge"><title>Node4&#45;&gt;Node3</title>
<path fill="none" stroke="midnightblue" d="M146.01,-700.658C146.01,-691.619 146.01,-682.632 146.01,-674.371"/>
<polygon fill="none" stroke="midnightblue" points="142.51,-700.849 146.01,-710.849 149.51,-700.849 142.51,-700.849"/>
</g>
<!-- Node5 -->
<g id="node5" class="node"><title>Node5</title>
<g id="a_node5"><a xlink:href="class_hydro_couple_1_1_i_property_changed.html" target="_top" xlink:title="IPropertyChanged interface is used to emit signal/event when a property of an object changes...">
<polygon fill="none" stroke="black" points="50.9956,-865.568 50.9956,-929.573 241.024,-929.573 241.024,-865.568 50.9956,-865.568"/>
<text text-anchor="middle" x="146.01" y="-917.573" font-family="Monaco" font-size="10.00">HydroCouple::IPropertyChanged</text>
<polyline fill="none" stroke="black" points="50.9956,-908.238 241.024,-908.238 "/>
<text text-anchor="middle" x="146.01" y="-896.238" font-family="Monaco" font-size="10.00"> </text>
<polyline fill="none" stroke="black" points="50.9956,-886.903 241.024,-886.903 "/>
<text text-anchor="start" x="58.9956" y="-874.903" font-family="Monaco" font-size="10.00">+ ~IPropertyChanged()</text>
</a>
</g>
</g>
<!-- Node5&#45;&gt;Node4 -->
<g id="edge4" class="edge"><title>Node5&#45;&gt;Node4</title>
<path fill="none" stroke="midnightblue" d="M146.01,-855.248C146.01,-846.863 146.01,-837.896 146.01,-829.054"/>
<polygon fill="none" stroke="midnightblue" points="142.51,-855.505 146.01,-865.505 149.51,-855.505 142.51,-855.505"/>
</g>
</g>
</svg>
        <g id="navigator" transform="translate(0 0)" fill="#404254">
                <rect fill="#f2f5e9" fill-opacity="0.5" stroke="#606060" stroke-width=".5" x="0" y="0" width="60" height="60"/>
                <use id="zoomplus" xlink:href="#zoomPlus" x="17" y="9" onmousedown="handleZoom(evt,'in')"/>
                <use id="zoomminus" xlink:href="#zoomMin" x="42" y="9" onmousedown="handleZoom(evt,'out')"/>
                <use id="reset" xlink:href="#resetDef" x="30" y="36" onmousedown="handleReset()"/>
                <g id="arrowUp" xlink:href="#dirArrow" transform="translate(30 24)" onmousedown="handlePan(0,-1)">
                  <use xlink:href="#rim" fill="#404040">
                        <set attributeName="fill" to="#808080" begin="arrowUp.mouseover" end="arrowUp.mouseout"/>
                  </use>
                  <path fill="none" stroke="white" stroke-width="1.5" d="M0,-3.0v7 M-2.5,-0.5L0,-3.0L2.5,-0.5"/>
                </g>
                <g id="arrowRight" xlink:href="#dirArrow" transform="rotate(90) translate(36 -43)" onmousedown="handlePan(1,0)">
                  <use xlink:href="#rim" fill="#404040">
                        <set attributeName="fill" to="#808080" begin="arrowRight.mouseover" end="arrowRight.mouseout"/>
                  </use>
                  <path fill="none" stroke="white" stroke-width="1.5" d="M0,-3.0v7 M-2.5,-0.5L0,-3.0L2.5,-0.5"/>
                </g>
                <g id="arrowDown" xlink:href="#dirArrow" transform="rotate(180) translate(-30 -48)" onmousedown="handlePan(0,1)">
                  <use xlink:href="#rim" fill="#404040">
                        <set attributeName="fill" to="#808080" begin="arrowDown.mouseover" end="arrowDown.mouseout"/>
                  </use>
                  <path fill="none" stroke="white" stroke-width="1.5" d="M0,-3.0v7 M-2.5,-0.5L0,-3.0L2.5,-0.5"/>
                </g>
                <g id="arrowLeft" xlink:href="#dirArrow" transform="rotate(270) translate(-36 17)" onmousedown="handlePan(-1,0)">
                  <use xlink:href="#rim" fill="#404040">
                        <set attributeName="fill" to="#808080" begin="arrowLeft.mouseover" end="arrowLeft.mouseout"/>
                  </use>
                  <path fill="none" stroke="white" stroke-width="1.5" d="M0,-3.0v7 M-2.5,-0.5L0,-3.0L2.5,-0.5"/>
                </g>
        </g>
        <svg viewBox="0 0 15 15" width="100%" height="30px" preserveAspectRatio="xMaxYMin meet">
         <g id="arrow_out" transform="scale(0.3 0.3)">
          <a xlink:href="class_hydro_couple_1_1_spatial_1_1_i_t_i_n_component_data_item__inherit__graph_org.svg" target="_base">
           <rect id="button" ry="5" rx="5" y="6" x="6" height="38" width="38"
                fill="#f2f5e9" fill-opacity="0.5" stroke="#606060" stroke-width="1.0"/>
           <path id="arrow"
             d="M 11.500037,31.436501 C 11.940474,20.09759 22.043105,11.32322 32.158766,21.979434 L 37.068811,17.246167 C 37.068811,17.246167 37.088388,32 37.088388,32 L 22.160133,31.978069 C 22.160133,31.978069 26.997745,27.140456 26.997745,27.140456 C 18.528582,18.264221 13.291696,25.230495 11.500037,31.436501 z"
             style="fill:#404040;"/>
          </a>
         </g>
        </svg>
</svg>
