<?xml version="1.0" encoding="UTF-8" standalone="no"?>
<!DOCTYPE svg PUBLIC "-//W3C//DTD SVG 1.1//EN"
 "http://www.w3.org/Graphics/SVG/1.1/DTD/svg11.dtd">
<!-- Generated by graphviz version 2.38.0 (20140413.2041)
 -->
<!-- Title: HydroCouple::IComponentStatusChangeEventArgs Pages: 1 -->
<svg width="240pt" height="427pt"
 viewBox="0.00 0.00 240.04 427.37" xmlns="http://www.w3.org/2000/svg" xmlns:xlink="http://www.w3.org/1999/xlink">
<g id="graph0" class="graph" transform="scale(1 1) rotate(0) translate(4 423.374)">
<title>HydroCouple::IComponentStatusChangeEventArgs</title>
<polygon fill="white" stroke="none" points="-4,4 -4,-423.374 236.035,-423.374 236.035,4 -4,4"/>
<!-- Node1 -->
<g id="node1" class="node"><title>Node1</title>
<polygon fill="#bfbfbf" stroke="black" points="0,-261.524 0,-418.874 232.035,-418.874 232.035,-261.524 0,-261.524"/>
<text text-anchor="start" x="8" y="-406.874" font-family="Monaco" font-size="10.00">HydroCouple::IComponentStatus</text>
<text text-anchor="middle" x="116.018" y="-393.539" font-family="Monaco" font-size="10.00">ChangeEventArgs</text>
<polyline fill="none" stroke="black" points="0,-384.204 232.035,-384.204 "/>
<text text-anchor="middle" x="116.018" y="-372.204" font-family="Monaco" font-size="10.00"> </text>
<polyline fill="none" stroke="black" points="0,-362.869 232.035,-362.869 "/>
<text text-anchor="start" x="8" y="-350.869" font-family="Monaco" font-size="10.00">+ ~IComponentStatusChangeEventArgs()</text>
<text text-anchor="start" x="8" y="-337.534" font-family="Monaco" font-size="10.00">+ component()</text>
<text text-anchor="start" x="8" y="-324.199" font-family="Monaco" font-size="10.00">+ oldStatus()</text>
<text text-anchor="start" x="8" y="-310.864" font-family="Monaco" font-size="10.00">+ newStatus()</text>
<text text-anchor="start" x="8" y="-297.529" font-family="Monaco" font-size="10.00">+ message()</text>
<text text-anchor="start" x="8" y="-284.194" font-family="Monaco" font-size="10.00">+ hasProgressMonitor()</text>
<text text-anchor="start" x="8" y="-270.859" font-family="Monaco" font-size="10.00">+ percentProgress()</text>
</g>
<!-- Node2 -->
<g id="node2" class="node"><title>Node2</title>
<g id="a_node2"><a xlink:href="class_hydro_couple_s_d_k_1_1_component_status_change_event_args.html" target="_top" xlink:title="The ComponentStatusChangeEventArgs class. ">
<polygon fill="white" stroke="black" points="3.00049,-0.5 3.00049,-224.524 229.035,-224.524 229.035,-0.5 3.00049,-0.5"/>
<text text-anchor="start" x="11.0005" y="-212.524" font-family="Monaco" font-size="10.00">HydroCoupleSDK::Component</text>
<text text-anchor="middle" x="116.018" y="-199.189" font-family="Monaco" font-size="10.00">StatusChangeEventArgs</text>
<polyline fill="none" stroke="black" points="3.00049,-189.854 229.035,-189.854 "/>
<text text-anchor="start" x="11.0005" y="-177.854" font-family="Monaco" font-size="10.00">+ Component</text>
<text text-anchor="start" x="11.0005" y="-164.52" font-family="Monaco" font-size="10.00">+ OldStatus</text>
<text text-anchor="start" x="11.0005" y="-151.185" font-family="Monaco" font-size="10.00">+ NewStatus</text>
<text text-anchor="start" x="11.0005" y="-137.85" font-family="Monaco" font-size="10.00">+ Message</text>
<polyline fill="none" stroke="black" points="3.00049,-128.515 229.035,-128.515 "/>
<text text-anchor="start" x="11.0005" y="-116.515" font-family="Monaco" font-size="10.00">+ ComponentStatusChangeEventArgs()</text>
<text text-anchor="start" x="11.0005" y="-103.18" font-family="Monaco" font-size="10.00">+ ComponentStatusChangeEventArgs()</text>
<text text-anchor="start" x="11.0005" y="-89.8447" font-family="Monaco" font-size="10.00">+ ~ComponentStatusChangeEventArgs()</text>
<text text-anchor="start" x="11.0005" y="-76.5098" font-family="Monaco" font-size="10.00">+ component()</text>
<text text-anchor="start" x="11.0005" y="-63.1748" font-family="Monaco" font-size="10.00">+ oldStatus()</text>
<text text-anchor="start" x="11.0005" y="-49.8398" font-family="Monaco" font-size="10.00">+ newStatus()</text>
<text text-anchor="start" x="11.0005" y="-36.5049" font-family="Monaco" font-size="10.00">+ message()</text>
<text text-anchor="start" x="11.0005" y="-23.1699" font-family="Monaco" font-size="10.00">+ hasProgressMonitor()</text>
<text text-anchor="start" x="11.0005" y="-9.83496" font-family="Monaco" font-size="10.00">+ percentProgress()</text>
</a>
</g>
</g>
<!-- Node1&#45;&gt;Node2 -->
<g id="edge1" class="edge"><title>Node1&#45;&gt;Node2</title>
<path fill="none" stroke="midnightblue" d="M116.018,-251.095C116.018,-242.383 116.018,-233.463 116.018,-224.559"/>
<polygon fill="none" stroke="midnightblue" points="112.518,-251.214 116.018,-261.215 119.518,-251.215 112.518,-251.214"/>
</g>
</g>
</svg>
