<?xml version="1.0" encoding="UTF-8" standalone="no"?>
<!DOCTYPE svg PUBLIC "-//W3C//DTD SVG 1.1//EN"
 "http://www.w3.org/Graphics/SVG/1.1/DTD/svg11.dtd">
<!-- Generated by graphviz version 2.38.0 (20140413.2041)
 -->
<!-- Title: HydroCouple::SpatioTemporal::ITime2DRegularGridComponentItem Pages: 1 -->
<svg width="388pt" height="765pt"
 viewBox="0.00 0.00 388.03 764.72" xmlns="http://www.w3.org/2000/svg" xmlns:xlink="http://www.w3.org/1999/xlink">
<g id="graph0" class="graph" transform="scale(1 1) rotate(0) translate(4 760.719)">
<title>HydroCouple::SpatioTemporal::ITime2DRegularGridComponentItem</title>
<polygon fill="white" stroke="none" points="-4,4 -4,-760.719 384.027,-760.719 384.027,4 -4,4"/>
<!-- Node1 -->
<g id="node1" class="node"><title>Node1</title>
<polygon fill="#bfbfbf" stroke="black" points="59.9937,-0.5 59.9937,-77.8398 292.029,-77.8398 292.029,-0.5 59.9937,-0.5"/>
<text text-anchor="start" x="67.9937" y="-65.8398" font-family="Monaco" font-size="10.00">HydroCouple::SpatioTemporal</text>
<text text-anchor="middle" x="176.011" y="-52.5049" font-family="Monaco" font-size="10.00">::ITime2DRegularGridComponentItem</text>
<polyline fill="none" stroke="black" points="59.9937,-43.1699 292.029,-43.1699 "/>
<text text-anchor="middle" x="176.011" y="-31.1699" font-family="Monaco" font-size="10.00"> </text>
<polyline fill="none" stroke="black" points="59.9937,-21.835 292.029,-21.835 "/>
<text text-anchor="start" x="67.9937" y="-9.83496" font-family="Monaco" font-size="10.00">+ ~ITime2DRegularGridComponentItem()</text>
</g>
<!-- Node2 -->
<g id="node2" class="node"><title>Node2</title>
<g id="a_node2"><a xlink:href="class_hydro_couple_1_1_temporal_1_1_i_time_component_item.html" target="_top" xlink:title="ITimeComponentItem is an IComponentItem with a temporal attribute. ">
<polygon fill="white" stroke="black" points="0,-121.507 0,-252.187 154.022,-252.187 154.022,-121.507 0,-121.507"/>
<text text-anchor="start" x="8" y="-240.187" font-family="Monaco" font-size="10.00">HydroCouple::Temporal</text>
<text text-anchor="middle" x="77.0112" y="-226.852" font-family="Monaco" font-size="10.00">::ITimeComponentItem</text>
<polyline fill="none" stroke="black" points="0,-217.517 154.022,-217.517 "/>
<text text-anchor="middle" x="77.0112" y="-205.517" font-family="Monaco" font-size="10.00"> </text>
<polyline fill="none" stroke="black" points="0,-196.182 154.022,-196.182 "/>
<text text-anchor="start" x="8" y="-184.182" font-family="Monaco" font-size="10.00">+ ~ITimeComponentItem()</text>
<text text-anchor="start" x="8" y="-170.847" font-family="Monaco" font-size="10.00">+ timeDimension()</text>
<text text-anchor="start" x="8" y="-157.512" font-family="Monaco" font-size="10.00">+ times()</text>
<text text-anchor="start" x="8" y="-144.177" font-family="Monaco" font-size="10.00">+ timeSpan()</text>
<text text-anchor="start" x="8" y="-130.842" font-family="Monaco" font-size="10.00">+ time()</text>
</a>
</g>
</g>
<!-- Node2&#45;&gt;Node1 -->
<g id="edge1" class="edge"><title>Node2&#45;&gt;Node1</title>
<path fill="none" stroke="midnightblue" d="M126.667,-112.779C134.852,-100.735 143.031,-88.6992 150.31,-77.989"/>
<polygon fill="none" stroke="midnightblue" points="123.737,-110.864 121.011,-121.103 129.526,-114.799 123.737,-110.864"/>
</g>
<!-- Node3 -->
<g id="node3" class="node"><title>Node3</title>
<g id="a_node3"><a xlink:href="class_hydro_couple_1_1_i_component_item.html" target="_top" xlink:title="IComponentItem is a fundamental unit of data for a component. ">
<polygon fill="white" stroke="black" points="86.998,-295.854 86.998,-386.529 265.024,-386.529 265.024,-295.854 86.998,-295.854"/>
<text text-anchor="middle" x="176.011" y="-374.529" font-family="Monaco" font-size="10.00">HydroCouple::IComponentItem</text>
<polyline fill="none" stroke="black" points="86.998,-365.194 265.024,-365.194 "/>
<text text-anchor="middle" x="176.011" y="-353.194" font-family="Monaco" font-size="10.00"> </text>
<polyline fill="none" stroke="black" points="86.998,-343.859 265.024,-343.859 "/>
<text text-anchor="start" x="94.998" y="-331.859" font-family="Monaco" font-size="10.00">+ ~IComponentItem()</text>
<text text-anchor="start" x="94.998" y="-318.524" font-family="Monaco" font-size="10.00">+ modelComponent()</text>
<text text-anchor="start" x="94.998" y="-305.189" font-family="Monaco" font-size="10.00">+ dimensions()</text>
</a>
</g>
</g>
<!-- Node3&#45;&gt;Node2 -->
<g id="edge2" class="edge"><title>Node3&#45;&gt;Node2</title>
<path fill="none" stroke="midnightblue" d="M141.599,-287.238C134.252,-275.932 126.415,-263.871 118.824,-252.19"/>
<polygon fill="none" stroke="midnightblue" points="138.726,-289.24 147.11,-295.718 144.596,-285.426 138.726,-289.24"/>
</g>
<!-- Node7 -->
<g id="node7" class="node"><title>Node7</title>
<g id="a_node7"><a xlink:href="class_hydro_couple_1_1_spatial_1_1_i2_d_regular_grid_component_item.html" target="_top" xlink:title="An I2DRegularGridComponentItem represents an I2DRegularGrid IComponentItem. ">
<polygon fill="white" stroke="black" points="171.996,-114.84 171.996,-258.854 380.027,-258.854 380.027,-114.84 171.996,-114.84"/>
<text text-anchor="start" x="179.996" y="-246.854" font-family="Monaco" font-size="10.00">HydroCouple::Spatial</text>
<text text-anchor="middle" x="276.011" y="-233.52" font-family="Monaco" font-size="10.00">::I2DRegularGridComponentItem</text>
<polyline fill="none" stroke="black" points="171.996,-224.185 380.027,-224.185 "/>
<text text-anchor="middle" x="276.011" y="-212.185" font-family="Monaco" font-size="10.00"> </text>
<polyline fill="none" stroke="black" points="171.996,-202.85 380.027,-202.85 "/>
<text text-anchor="start" x="179.996" y="-190.85" font-family="Monaco" font-size="10.00">+ ~I2DRegularGridComponentItem()</text>
<text text-anchor="start" x="179.996" y="-177.515" font-family="Monaco" font-size="10.00">+ numXNodesDimension()</text>
<text text-anchor="start" x="179.996" y="-164.18" font-family="Monaco" font-size="10.00">+ numYNodesDimension()</text>
<text text-anchor="start" x="179.996" y="-150.845" font-family="Monaco" font-size="10.00">+ numXCellsDimension()</text>
<text text-anchor="start" x="179.996" y="-137.51" font-family="Monaco" font-size="10.00">+ numYCellsDimension()</text>
<text text-anchor="start" x="179.996" y="-124.175" font-family="Monaco" font-size="10.00">+ grid()</text>
</a>
</g>
</g>
<!-- Node3&#45;&gt;Node7 -->
<g id="edge7" class="edge"><title>Node3&#45;&gt;Node7</title>
<path fill="none" stroke="midnightblue" d="M210.814,-287.171C216.781,-278.082 223.066,-268.506 229.284,-259.034"/>
<polygon fill="none" stroke="midnightblue" points="207.766,-285.437 205.204,-295.718 213.618,-289.279 207.766,-285.437"/>
</g>
<!-- Node4 -->
<g id="node4" class="node"><title>Node4</title>
<g id="a_node4"><a xlink:href="class_hydro_couple_1_1_i_identity.html" target="_top" xlink:title="IIdentity interface class defines a method to get the Id of an HydroCouple entity. ">
<polygon fill="white" stroke="black" points="102,-423.529 102,-500.869 250.022,-500.869 250.022,-423.529 102,-423.529"/>
<text text-anchor="middle" x="176.011" y="-488.869" font-family="Monaco" font-size="10.00">HydroCouple::IIdentity</text>
<polyline fill="none" stroke="black" points="102,-479.534 250.022,-479.534 "/>
<text text-anchor="middle" x="176.011" y="-467.534" font-family="Monaco" font-size="10.00"> </text>
<polyline fill="none" stroke="black" points="102,-458.199 250.022,-458.199 "/>
<text text-anchor="start" x="110" y="-446.199" font-family="Monaco" font-size="10.00">+ ~IIdentity()</text>
<text text-anchor="start" x="110" y="-432.864" font-family="Monaco" font-size="10.00">+ id()</text>
</a>
</g>
</g>
<!-- Node4&#45;&gt;Node3 -->
<g id="edge3" class="edge"><title>Node4&#45;&gt;Node3</title>
<path fill="none" stroke="midnightblue" d="M176.011,-413.21C176.011,-404.511 176.011,-395.471 176.011,-386.872"/>
<polygon fill="none" stroke="midnightblue" points="172.511,-413.217 176.011,-423.217 179.511,-413.217 172.511,-413.217"/>
</g>
<!-- Node5 -->
<g id="node5" class="node"><title>Node5</title>
<g id="a_node5"><a xlink:href="class_hydro_couple_1_1_i_description.html" target="_top" xlink:title="IDescription interface class provides descriptive information on a HydroCouple object. ">
<polygon fill="white" stroke="black" points="92.999,-537.869 92.999,-655.214 259.023,-655.214 259.023,-537.869 92.999,-537.869"/>
<text text-anchor="middle" x="176.011" y="-643.214" font-family="Monaco" font-size="10.00">HydroCouple::IDescription</text>
<polyline fill="none" stroke="black" points="92.999,-633.879 259.023,-633.879 "/>
<text text-anchor="middle" x="176.011" y="-621.879" font-family="Monaco" font-size="10.00"> </text>
<polyline fill="none" stroke="black" points="92.999,-612.544 259.023,-612.544 "/>
<text text-anchor="start" x="100.999" y="-600.544" font-family="Monaco" font-size="10.00">+ ~IDescription()</text>
<text text-anchor="start" x="100.999" y="-587.209" font-family="Monaco" font-size="10.00">+ getCaption()</text>
<text text-anchor="start" x="100.999" y="-573.874" font-family="Monaco" font-size="10.00">+ setCaption()</text>
<text text-anchor="start" x="100.999" y="-560.539" font-family="Monaco" font-size="10.00">+ getDescription()</text>
<text text-anchor="start" x="100.999" y="-547.204" font-family="Monaco" font-size="10.00">+ setDescription()</text>
</a>
</g>
</g>
<!-- Node5&#45;&gt;Node4 -->
<g id="edge4" class="edge"><title>Node5&#45;&gt;Node4</title>
<path fill="none" stroke="midnightblue" d="M176.011,-527.303C176.011,-518.264 176.011,-509.277 176.011,-501.017"/>
<polygon fill="none" stroke="midnightblue" points="172.511,-527.494 176.011,-537.494 179.511,-527.494 172.511,-527.494"/>
</g>
<!-- Node6 -->
<g id="node6" class="node"><title>Node6</title>
<g id="a_node6"><a xlink:href="class_hydro_couple_1_1_i_property_changed.html" target="_top" xlink:title="IPropertyChanged interface is used to emit signal/event when a property of an object changes...">
<polygon fill="white" stroke="black" points="80.9971,-692.214 80.9971,-756.219 271.025,-756.219 271.025,-692.214 80.9971,-692.214"/>
<text text-anchor="middle" x="176.011" y="-744.219" font-family="Monaco" font-size="10.00">HydroCouple::IPropertyChanged</text>
<polyline fill="none" stroke="black" points="80.9971,-734.884 271.025,-734.884 "/>
<text text-anchor="middle" x="176.011" y="-722.884" font-family="Monaco" font-size="10.00"> </text>
<polyline fill="none" stroke="black" points="80.9971,-713.549 271.025,-713.549 "/>
<text text-anchor="start" x="88.9971" y="-701.549" font-family="Monaco" font-size="10.00">+ ~IPropertyChanged()</text>
</a>
</g>
</g>
<!-- Node6&#45;&gt;Node5 -->
<g id="edge5" class="edge"><title>Node6&#45;&gt;Node5</title>
<path fill="none" stroke="midnightblue" d="M176.011,-681.893C176.011,-673.508 176.011,-664.542 176.011,-655.7"/>
<polygon fill="none" stroke="midnightblue" points="172.511,-682.151 176.011,-692.151 179.511,-682.151 172.511,-682.151"/>
</g>
<!-- Node7&#45;&gt;Node1 -->
<g id="edge6" class="edge"><title>Node7&#45;&gt;Node1</title>
<path fill="none" stroke="midnightblue" d="M221.461,-106.38C214.667,-96.4831 207.987,-86.7509 201.926,-77.9223"/>
<polygon fill="none" stroke="midnightblue" points="218.638,-108.452 227.183,-114.716 224.409,-104.49 218.638,-108.452"/>
</g>
</g>
</svg>
