<?xml version="1.0" encoding="UTF-8" standalone="no"?>
<!DOCTYPE svg PUBLIC "-//W3C//DTD SVG 1.1//EN"
 "http://www.w3.org/Graphics/SVG/1.1/DTD/svg11.dtd">
<!-- Generated by graphviz version 2.38.0 (20140413.2041)
 -->
<!-- Title: HydroCouple::Spatial::IPolyhedralSurfaceComponentDataItem Pages: 1 -->
<!--zoomable 850 -->
<svg id="main" version="1.1" xmlns="http://www.w3.org/2000/svg" xmlns:xlink="http://www.w3.org/1999/xlink" xml:space="preserve" onload="init(evt)">
<style type="text/css"><![CDATA[
.edge:hover path { stroke: red; }
.edge:hover polygon { stroke: red; fill: red; }
]]></style>
<script type="text/javascript"><![CDATA[
var edges = document.getElementsByTagName('g');
if (edges && edges.length) {
  for (var i=0;i<edges.length;i++) {
    if (edges[i].id.substr(0,4)=='edge') {
      edges[i].setAttribute('class','edge');
    }
  }
}
]]></script>
        <defs>
                <circle id="rim" cx="0" cy="0" r="7"/>
                <circle id="rim2" cx="0" cy="0" r="3.5"/>
                <g id="zoomPlus">
                        <use xlink:href="#rim" fill="#404040">
                                <set attributeName="fill" to="#808080" begin="zoomplus.mouseover" end="zoomplus.mouseout"/>
                        </use>
                        <path d="M-4,0h8M0,-4v8" fill="none" stroke="white" stroke-width="1.5" pointer-events="none"/>
                </g>
                <g id="zoomMin">
                        <use xlink:href="#rim" fill="#404040">
                                <set attributeName="fill" to="#808080" begin="zoomminus.mouseover" end="zoomminus.mouseout"/>
                        </use>
                        <path d="M-4,0h8" fill="none" stroke="white" stroke-width="1.5" pointer-events="none"/>
                </g>
                <g id="dirArrow">
                        <path fill="none" stroke="white" stroke-width="1.5" d="M0,-3.0v7 M-2.5,-0.5L0,-3.0L2.5,-0.5"/>
                </g>
               <g id="resetDef">
                       <use xlink:href="#rim2" fill="#404040">
                               <set attributeName="fill" to="#808080" begin="reset.mouseover" end="reset.mouseout"/>
                       </use>
               </g>
        </defs>

<script type="text/javascript">
var viewWidth = 234;
var viewHeight = 850;
var sectionId = 'dynsection-1';
</script>
<script xlink:href="svgpan.js"/>
<svg id="graph" class="graph">
<g id="viewport">
<title>HydroCouple::Spatial::IPolyhedralSurfaceComponentDataItem</title>
<!-- Node1 -->
<g id="node1" class="node"><title>Node1</title>
<polygon fill="#bfbfbf" stroke="black" points="0,-0.5 0,-251.194 226.034,-251.194 226.034,-0.5 0,-0.5"/>
<text text-anchor="start" x="8" y="-239.194" font-family="Monaco" font-size="10.00">HydroCouple::Spatial</text>
<text text-anchor="start" x="8" y="-225.859" font-family="Monaco" font-size="10.00">::IPolyhedralSurfaceComponent</text>
<text text-anchor="middle" x="113.017" y="-212.524" font-family="Monaco" font-size="10.00">DataItem</text>
<polyline fill="none" stroke="black" points="0,-203.189 226.034,-203.189 "/>
<text text-anchor="middle" x="113.017" y="-191.189" font-family="Monaco" font-size="10.00"> </text>
<polyline fill="none" stroke="black" points="0,-181.854 226.034,-181.854 "/>
<text text-anchor="start" x="8" y="-169.854" font-family="Monaco" font-size="10.00">+ ~IPolyhedralSurfaceComponent</text>
<text text-anchor="start" x="8" y="-156.52" font-family="Monaco" font-size="10.00">DataItem()</text>
<text text-anchor="start" x="8" y="-143.185" font-family="Monaco" font-size="10.00">+ polyhedralSurface()</text>
<text text-anchor="start" x="8" y="-129.85" font-family="Monaco" font-size="10.00">+ polygon()</text>
<text text-anchor="start" x="8" y="-116.515" font-family="Monaco" font-size="10.00">+ polyhedralSurfacePatchDimension()</text>
<text text-anchor="start" x="8" y="-103.18" font-family="Monaco" font-size="10.00">+ polyhedralSurfaceEdgeDimension()</text>
<text text-anchor="start" x="8" y="-89.8447" font-family="Monaco" font-size="10.00">+ polyhedralSurfaceNodeDimensions()</text>
<text text-anchor="start" x="8" y="-76.5098" font-family="Monaco" font-size="10.00">+ getValue()</text>
<text text-anchor="start" x="8" y="-63.1748" font-family="Monaco" font-size="10.00">+ getValues()</text>
<text text-anchor="start" x="8" y="-49.8398" font-family="Monaco" font-size="10.00">+ getValues()</text>
<text text-anchor="start" x="8" y="-36.5049" font-family="Monaco" font-size="10.00">+ setValue()</text>
<text text-anchor="start" x="8" y="-23.1699" font-family="Monaco" font-size="10.00">+ setValues()</text>
<text text-anchor="start" x="8" y="-9.83496" font-family="Monaco" font-size="10.00">+ setValues()</text>
</g>
<!-- Node2 -->
<g id="node2" class="node"><title>Node2</title>
<g id="a_node2"><a xlink:href="class_hydro_couple_1_1_i_component_data_item.html" target="_top" xlink:title="IComponentItem is a fundamental unit of data for a component. ">
<polygon fill="none" stroke="black" points="12.002,-288.194 12.002,-472.214 214.032,-472.214 214.032,-288.194 12.002,-288.194"/>
<text text-anchor="middle" x="113.017" y="-460.214" font-family="Monaco" font-size="10.00">HydroCouple::IComponentDataItem</text>
<polyline fill="none" stroke="black" points="12.002,-450.879 214.032,-450.879 "/>
<text text-anchor="middle" x="113.017" y="-438.879" font-family="Monaco" font-size="10.00"> </text>
<polyline fill="none" stroke="black" points="12.002,-429.544 214.032,-429.544 "/>
<text text-anchor="start" x="20.002" y="-417.544" font-family="Monaco" font-size="10.00">+ ~IComponentDataItem()</text>
<text text-anchor="start" x="20.002" y="-404.209" font-family="Monaco" font-size="10.00">+ modelComponent()</text>
<text text-anchor="start" x="20.002" y="-390.874" font-family="Monaco" font-size="10.00">+ dimensions()</text>
<text text-anchor="start" x="20.002" y="-377.539" font-family="Monaco" font-size="10.00">+ valueDefinition()</text>
<text text-anchor="start" x="20.002" y="-364.204" font-family="Monaco" font-size="10.00">+ getValue()</text>
<text text-anchor="start" x="20.002" y="-350.869" font-family="Monaco" font-size="10.00">+ getValues()</text>
<text text-anchor="start" x="20.002" y="-337.534" font-family="Monaco" font-size="10.00">+ getValues()</text>
<text text-anchor="start" x="20.002" y="-324.199" font-family="Monaco" font-size="10.00">+ setValue()</text>
<text text-anchor="start" x="20.002" y="-310.864" font-family="Monaco" font-size="10.00">+ setValues()</text>
<text text-anchor="start" x="20.002" y="-297.529" font-family="Monaco" font-size="10.00">+ setValues()</text>
</a>
</g>
</g>
<!-- Node2&#45;&gt;Node1 -->
<g id="edge1" class="edge"><title>Node2&#45;&gt;Node1</title>
<path fill="none" stroke="midnightblue" d="M113.017,-277.874C113.017,-269.09 113.017,-260.139 113.017,-251.2"/>
<polygon fill="none" stroke="midnightblue" points="109.517,-278.097 113.017,-288.097 116.517,-278.097 109.517,-278.097"/>
</g>
<!-- Node3 -->
<g id="node3" class="node"><title>Node3</title>
<g id="a_node3"><a xlink:href="class_hydro_couple_1_1_i_identity.html" target="_top" xlink:title="IIdentity interface class defines a method to get the Id of an HydroCouple entity. ">
<polygon fill="none" stroke="black" points="39.0063,-509.214 39.0063,-586.554 187.028,-586.554 187.028,-509.214 39.0063,-509.214"/>
<text text-anchor="middle" x="113.017" y="-574.554" font-family="Monaco" font-size="10.00">HydroCouple::IIdentity</text>
<polyline fill="none" stroke="black" points="39.0063,-565.219 187.028,-565.219 "/>
<text text-anchor="middle" x="113.017" y="-553.219" font-family="Monaco" font-size="10.00"> </text>
<polyline fill="none" stroke="black" points="39.0063,-543.884 187.028,-543.884 "/>
<text text-anchor="start" x="47.0063" y="-531.884" font-family="Monaco" font-size="10.00">+ ~IIdentity()</text>
<text text-anchor="start" x="47.0063" y="-518.549" font-family="Monaco" font-size="10.00">+ id()</text>
</a>
</g>
</g>
<!-- Node3&#45;&gt;Node2 -->
<g id="edge2" class="edge"><title>Node3&#45;&gt;Node2</title>
<path fill="none" stroke="midnightblue" d="M113.017,-498.632C113.017,-490.278 113.017,-481.353 113.017,-472.295"/>
<polygon fill="none" stroke="midnightblue" points="109.517,-498.873 113.017,-508.874 116.517,-498.874 109.517,-498.873"/>
</g>
<!-- Node4 -->
<g id="node4" class="node"><title>Node4</title>
<g id="a_node4"><a xlink:href="class_hydro_couple_1_1_i_description.html" target="_top" xlink:title="IDescription interface class provides descriptive information on a HydroCouple object. ">
<polygon fill="none" stroke="black" points="30.0049,-623.554 30.0049,-740.898 196.029,-740.898 196.029,-623.554 30.0049,-623.554"/>
<text text-anchor="middle" x="113.017" y="-728.898" font-family="Monaco" font-size="10.00">HydroCouple::IDescription</text>
<polyline fill="none" stroke="black" points="30.0049,-719.563 196.029,-719.563 "/>
<text text-anchor="middle" x="113.017" y="-707.563" font-family="Monaco" font-size="10.00"> </text>
<polyline fill="none" stroke="black" points="30.0049,-698.229 196.029,-698.229 "/>
<text text-anchor="start" x="38.0049" y="-686.229" font-family="Monaco" font-size="10.00">+ ~IDescription()</text>
<text text-anchor="start" x="38.0049" y="-672.894" font-family="Monaco" font-size="10.00">+ caption()</text>
<text text-anchor="start" x="38.0049" y="-659.559" font-family="Monaco" font-size="10.00">+ setCaption()</text>
<text text-anchor="start" x="38.0049" y="-646.224" font-family="Monaco" font-size="10.00">+ description()</text>
<text text-anchor="start" x="38.0049" y="-632.889" font-family="Monaco" font-size="10.00">+ setDescription()</text>
</a>
</g>
</g>
<!-- Node4&#45;&gt;Node3 -->
<g id="edge3" class="edge"><title>Node4&#45;&gt;Node3</title>
<path fill="none" stroke="midnightblue" d="M113.017,-612.988C113.017,-603.949 113.017,-594.962 113.017,-586.701"/>
<polygon fill="none" stroke="midnightblue" points="109.517,-613.179 113.017,-623.179 116.517,-613.179 109.517,-613.179"/>
</g>
<!-- Node5 -->
<g id="node5" class="node"><title>Node5</title>
<g id="a_node5"><a xlink:href="class_hydro_couple_1_1_i_property_changed.html" target="_top" xlink:title="IPropertyChanged interface is used to emit signal/event when a property of an object changes...">
<polygon fill="none" stroke="black" points="18.0029,-777.898 18.0029,-841.903 208.031,-841.903 208.031,-777.898 18.0029,-777.898"/>
<text text-anchor="middle" x="113.017" y="-829.903" font-family="Monaco" font-size="10.00">HydroCouple::IPropertyChanged</text>
<polyline fill="none" stroke="black" points="18.0029,-820.568 208.031,-820.568 "/>
<text text-anchor="middle" x="113.017" y="-808.568" font-family="Monaco" font-size="10.00"> </text>
<polyline fill="none" stroke="black" points="18.0029,-799.233 208.031,-799.233 "/>
<text text-anchor="start" x="26.0029" y="-787.233" font-family="Monaco" font-size="10.00">+ ~IPropertyChanged()</text>
</a>
</g>
</g>
<!-- Node5&#45;&gt;Node4 -->
<g id="edge4" class="edge"><title>Node5&#45;&gt;Node4</title>
<path fill="none" stroke="midnightblue" d="M113.017,-767.578C113.017,-759.193 113.017,-750.227 113.017,-741.384"/>
<polygon fill="none" stroke="midnightblue" points="109.517,-767.835 113.017,-777.835 116.517,-767.835 109.517,-767.835"/>
</g>
</g>
</svg>
        <g id="navigator" transform="translate(0 0)" fill="#404254">
                <rect fill="#f2f5e9" fill-opacity="0.5" stroke="#606060" stroke-width=".5" x="0" y="0" width="60" height="60"/>
                <use id="zoomplus" xlink:href="#zoomPlus" x="17" y="9" onmousedown="handleZoom(evt,'in')"/>
                <use id="zoomminus" xlink:href="#zoomMin" x="42" y="9" onmousedown="handleZoom(evt,'out')"/>
                <use id="reset" xlink:href="#resetDef" x="30" y="36" onmousedown="handleReset()"/>
                <g id="arrowUp" xlink:href="#dirArrow" transform="translate(30 24)" onmousedown="handlePan(0,-1)">
                  <use xlink:href="#rim" fill="#404040">
                        <set attributeName="fill" to="#808080" begin="arrowUp.mouseover" end="arrowUp.mouseout"/>
                  </use>
                  <path fill="none" stroke="white" stroke-width="1.5" d="M0,-3.0v7 M-2.5,-0.5L0,-3.0L2.5,-0.5"/>
                </g>
                <g id="arrowRight" xlink:href="#dirArrow" transform="rotate(90) translate(36 -43)" onmousedown="handlePan(1,0)">
                  <use xlink:href="#rim" fill="#404040">
                        <set attributeName="fill" to="#808080" begin="arrowRight.mouseover" end="arrowRight.mouseout"/>
                  </use>
                  <path fill="none" stroke="white" stroke-width="1.5" d="M0,-3.0v7 M-2.5,-0.5L0,-3.0L2.5,-0.5"/>
                </g>
                <g id="arrowDown" xlink:href="#dirArrow" transform="rotate(180) translate(-30 -48)" onmousedown="handlePan(0,1)">
                  <use xlink:href="#rim" fill="#404040">
                        <set attributeName="fill" to="#808080" begin="arrowDown.mouseover" end="arrowDown.mouseout"/>
                  </use>
                  <path fill="none" stroke="white" stroke-width="1.5" d="M0,-3.0v7 M-2.5,-0.5L0,-3.0L2.5,-0.5"/>
                </g>
                <g id="arrowLeft" xlink:href="#dirArrow" transform="rotate(270) translate(-36 17)" onmousedown="handlePan(-1,0)">
                  <use xlink:href="#rim" fill="#404040">
                        <set attributeName="fill" to="#808080" begin="arrowLeft.mouseover" end="arrowLeft.mouseout"/>
                  </use>
                  <path fill="none" stroke="white" stroke-width="1.5" d="M0,-3.0v7 M-2.5,-0.5L0,-3.0L2.5,-0.5"/>
                </g>
        </g>
        <svg viewBox="0 0 15 15" width="100%" height="30px" preserveAspectRatio="xMaxYMin meet">
         <g id="arrow_out" transform="scale(0.3 0.3)">
          <a xlink:href="class_hydro_couple_1_1_spatial_1_1_i_polyhedral_surface_component_data_item__coll__graph_org.svg" target="_base">
           <rect id="button" ry="5" rx="5" y="6" x="6" height="38" width="38"
                fill="#f2f5e9" fill-opacity="0.5" stroke="#606060" stroke-width="1.0"/>
           <path id="arrow"
             d="M 11.500037,31.436501 C 11.940474,20.09759 22.043105,11.32322 32.158766,21.979434 L 37.068811,17.246167 C 37.068811,17.246167 37.088388,32 37.088388,32 L 22.160133,31.978069 C 22.160133,31.978069 26.997745,27.140456 26.997745,27.140456 C 18.528582,18.264221 13.291696,25.230495 11.500037,31.436501 z"
             style="fill:#404040;"/>
          </a>
         </g>
        </svg>
</svg>
