<?xml version="1.0" encoding="UTF-8" standalone="no"?>
<!DOCTYPE svg PUBLIC "-//W3C//DTD SVG 1.1//EN"
 "http://www.w3.org/Graphics/SVG/1.1/DTD/svg11.dtd">
<!-- Generated by graphviz version 2.38.0 (20140413.2041)
 -->
<!-- Title: HydroCouple::SpatioTemporal::ITimeTINComponentDataItem Pages: 1 -->
<svg width="228pt" height="1066pt"
 viewBox="0.00 0.00 228.03 1065.75" xmlns="http://www.w3.org/2000/svg" xmlns:xlink="http://www.w3.org/1999/xlink">
<g id="graph0" class="graph" transform="scale(1 1) rotate(0) translate(4 1061.75)">
<title>HydroCouple::SpatioTemporal::ITimeTINComponentDataItem</title>
<!-- Node1 -->
<g id="node1" class="node"><title>Node1</title>
<polygon fill="#bfbfbf" stroke="black" points="12.002,-0.5 12.002,-117.845 208.031,-117.845 208.031,-0.5 12.002,-0.5"/>
<text text-anchor="start" x="20.002" y="-105.845" font-family="Monaco" font-size="10.00">HydroCouple::SpatioTemporal</text>
<text text-anchor="middle" x="110.017" y="-92.5098" font-family="Monaco" font-size="10.00">::ITimeTINComponentDataItem</text>
<polyline fill="none" stroke="black" points="12.002,-83.1748 208.031,-83.1748 "/>
<text text-anchor="middle" x="110.017" y="-71.1748" font-family="Monaco" font-size="10.00"> </text>
<polyline fill="none" stroke="black" points="12.002,-61.8398 208.031,-61.8398 "/>
<text text-anchor="start" x="20.002" y="-49.8398" font-family="Monaco" font-size="10.00">+ ~ITimeTINComponentDataItem()</text>
<text text-anchor="start" x="20.002" y="-36.5049" font-family="Monaco" font-size="10.00">+ TIN()</text>
<text text-anchor="start" x="20.002" y="-23.1699" font-family="Monaco" font-size="10.00">+ getValues()</text>
<text text-anchor="start" x="20.002" y="-9.83496" font-family="Monaco" font-size="10.00">+ setValues()</text>
</g>
<!-- Node2 -->
<g id="node2" class="node"><title>Node2</title>
<g id="a_node2"><a xlink:href="class_hydro_couple_1_1_spatio_temporal_1_1_i_time_polyhedral_surface_component_data_item.html" target="_top" xlink:title="The ITimePolyhedralSurfaceComponentItem class. ">
<polygon fill="none" stroke="black" points="0,-154.845 0,-352.199 220.033,-352.199 220.033,-154.845 0,-154.845"/>
<text text-anchor="start" x="8" y="-340.199" font-family="Monaco" font-size="10.00">HydroCouple::SpatioTemporal</text>
<text text-anchor="start" x="8" y="-326.864" font-family="Monaco" font-size="10.00">::ITimePolyhedralSurfaceComponent</text>
<text text-anchor="middle" x="110.017" y="-313.529" font-family="Monaco" font-size="10.00">DataItem</text>
<polyline fill="none" stroke="black" points="0,-304.194 220.033,-304.194 "/>
<text text-anchor="middle" x="110.017" y="-292.194" font-family="Monaco" font-size="10.00"> </text>
<polyline fill="none" stroke="black" points="0,-282.859 220.033,-282.859 "/>
<text text-anchor="start" x="8" y="-270.859" font-family="Monaco" font-size="10.00">+ ~ITimePolyhedralSurfaceComponent</text>
<text text-anchor="start" x="8" y="-257.524" font-family="Monaco" font-size="10.00">DataItem()</text>
<text text-anchor="start" x="8" y="-244.189" font-family="Monaco" font-size="10.00">+ meshDataType()</text>
<text text-anchor="start" x="8" y="-230.854" font-family="Monaco" font-size="10.00">+ polyhedralSurface()</text>
<text text-anchor="start" x="8" y="-217.52" font-family="Monaco" font-size="10.00">+ cellDimension()</text>
<text text-anchor="start" x="8" y="-204.185" font-family="Monaco" font-size="10.00">+ edgeDimension()</text>
<text text-anchor="start" x="8" y="-190.85" font-family="Monaco" font-size="10.00">+ nodeDimension()</text>
<text text-anchor="start" x="8" y="-177.515" font-family="Monaco" font-size="10.00">+ getValue()</text>
<text text-anchor="start" x="8" y="-164.18" font-family="Monaco" font-size="10.00">+ setValue()</text>
</a>
</g>
</g>
<!-- Node2&#45;&gt;Node1 -->
<g id="edge1" class="edge"><title>Node2&#45;&gt;Node1</title>
<path fill="none" stroke="midnightblue" d="M110.017,-144.405C110.017,-135.363 110.017,-126.465 110.017,-118.035"/>
<polygon fill="none" stroke="midnightblue" points="106.517,-144.657 110.017,-154.657 113.517,-144.657 106.517,-144.657"/>
</g>
<!-- Node3 -->
<g id="node3" class="node"><title>Node3</title>
<g id="a_node3"><a xlink:href="class_hydro_couple_1_1_temporal_1_1_i_time_component_data_item.html" target="_top" xlink:title="ITimeComponentItem is an IComponentItem with a temporal attribute. This class cannot be directly inst...">
<polygon fill="none" stroke="black" points="21.0034,-389.199 21.0034,-506.544 199.03,-506.544 199.03,-389.199 21.0034,-389.199"/>
<text text-anchor="start" x="29.0034" y="-494.544" font-family="Monaco" font-size="10.00">HydroCouple::Temporal</text>
<text text-anchor="middle" x="110.017" y="-481.209" font-family="Monaco" font-size="10.00">::ITimeComponentDataItem</text>
<polyline fill="none" stroke="black" points="21.0034,-471.874 199.03,-471.874 "/>
<text text-anchor="middle" x="110.017" y="-459.874" font-family="Monaco" font-size="10.00"> </text>
<polyline fill="none" stroke="black" points="21.0034,-450.539 199.03,-450.539 "/>
<text text-anchor="start" x="29.0034" y="-438.539" font-family="Monaco" font-size="10.00">+ ~ITimeComponentDataItem()</text>
<text text-anchor="start" x="29.0034" y="-425.204" font-family="Monaco" font-size="10.00">+ times()</text>
<text text-anchor="start" x="29.0034" y="-411.869" font-family="Monaco" font-size="10.00">+ timeSpan()</text>
<text text-anchor="start" x="29.0034" y="-398.534" font-family="Monaco" font-size="10.00">+ timeDimension()</text>
</a>
</g>
</g>
<!-- Node3&#45;&gt;Node2 -->
<g id="edge2" class="edge"><title>Node3&#45;&gt;Node2</title>
<path fill="none" stroke="midnightblue" d="M110.017,-378.88C110.017,-370.302 110.017,-361.395 110.017,-352.469"/>
<polygon fill="none" stroke="midnightblue" points="106.517,-379.16 110.017,-389.16 113.517,-379.16 106.517,-379.16"/>
</g>
<!-- Node4 -->
<g id="node4" class="node"><title>Node4</title>
<g id="a_node4"><a xlink:href="class_hydro_couple_1_1_i_component_data_item.html" target="_top" xlink:title="IComponentItem is a fundamental unit of data for a component. ">
<polygon fill="none" stroke="black" points="9.00146,-543.544 9.00146,-687.559 211.032,-687.559 211.032,-543.544 9.00146,-543.544"/>
<text text-anchor="middle" x="110.017" y="-675.559" font-family="Monaco" font-size="10.00">HydroCouple::IComponentDataItem</text>
<polyline fill="none" stroke="black" points="9.00146,-666.224 211.032,-666.224 "/>
<text text-anchor="middle" x="110.017" y="-654.224" font-family="Monaco" font-size="10.00"> </text>
<polyline fill="none" stroke="black" points="9.00146,-644.889 211.032,-644.889 "/>
<text text-anchor="start" x="17.0015" y="-632.889" font-family="Monaco" font-size="10.00">+ ~IComponentDataItem()</text>
<text text-anchor="start" x="17.0015" y="-619.554" font-family="Monaco" font-size="10.00">+ modelComponent()</text>
<text text-anchor="start" x="17.0015" y="-606.219" font-family="Monaco" font-size="10.00">+ dimensions()</text>
<text text-anchor="start" x="17.0015" y="-592.884" font-family="Monaco" font-size="10.00">+ dimensionLength()</text>
<text text-anchor="start" x="17.0015" y="-579.549" font-family="Monaco" font-size="10.00">+ valueDefinition()</text>
<text text-anchor="start" x="17.0015" y="-566.214" font-family="Monaco" font-size="10.00">+ getValue()</text>
<text text-anchor="start" x="17.0015" y="-552.879" font-family="Monaco" font-size="10.00">+ setValue()</text>
</a>
</g>
</g>
<!-- Node4&#45;&gt;Node3 -->
<g id="edge3" class="edge"><title>Node4&#45;&gt;Node3</title>
<path fill="none" stroke="midnightblue" d="M110.017,-533.199C110.017,-524.2 110.017,-515.178 110.017,-506.557"/>
<polygon fill="none" stroke="midnightblue" points="106.517,-533.327 110.017,-543.327 113.517,-533.327 106.517,-533.327"/>
</g>
<!-- Node5 -->
<g id="node5" class="node"><title>Node5</title>
<g id="a_node5"><a xlink:href="class_hydro_couple_1_1_i_identity.html" target="_top" xlink:title="IIdentity interface class defines a method to get the Id of an HydroCouple entity. ">
<polygon fill="none" stroke="black" points="36.0059,-724.559 36.0059,-801.898 184.027,-801.898 184.027,-724.559 36.0059,-724.559"/>
<text text-anchor="middle" x="110.017" y="-789.898" font-family="Monaco" font-size="10.00">HydroCouple::IIdentity</text>
<polyline fill="none" stroke="black" points="36.0059,-780.563 184.027,-780.563 "/>
<text text-anchor="middle" x="110.017" y="-768.563" font-family="Monaco" font-size="10.00"> </text>
<polyline fill="none" stroke="black" points="36.0059,-759.229 184.027,-759.229 "/>
<text text-anchor="start" x="44.0059" y="-747.229" font-family="Monaco" font-size="10.00">+ ~IIdentity()</text>
<text text-anchor="start" x="44.0059" y="-733.894" font-family="Monaco" font-size="10.00">+ id()</text>
</a>
</g>
</g>
<!-- Node5&#45;&gt;Node4 -->
<g id="edge4" class="edge"><title>Node5&#45;&gt;Node4</title>
<path fill="none" stroke="midnightblue" d="M110.017,-714.206C110.017,-705.663 110.017,-696.602 110.017,-687.578"/>
<polygon fill="none" stroke="midnightblue" points="106.517,-714.334 110.017,-724.334 113.517,-714.334 106.517,-714.334"/>
</g>
<!-- Node6 -->
<g id="node6" class="node"><title>Node6</title>
<g id="a_node6"><a xlink:href="class_hydro_couple_1_1_i_description.html" target="_top" xlink:title="IDescription interface class provides descriptive information on a HydroCouple object. ">
<polygon fill="none" stroke="black" points="27.0044,-838.898 27.0044,-956.243 193.029,-956.243 193.029,-838.898 27.0044,-838.898"/>
<text text-anchor="middle" x="110.017" y="-944.243" font-family="Monaco" font-size="10.00">HydroCouple::IDescription</text>
<polyline fill="none" stroke="black" points="27.0044,-934.908 193.029,-934.908 "/>
<text text-anchor="middle" x="110.017" y="-922.908" font-family="Monaco" font-size="10.00"> </text>
<polyline fill="none" stroke="black" points="27.0044,-913.573 193.029,-913.573 "/>
<text text-anchor="start" x="35.0044" y="-901.573" font-family="Monaco" font-size="10.00">+ ~IDescription()</text>
<text text-anchor="start" x="35.0044" y="-888.238" font-family="Monaco" font-size="10.00">+ caption()</text>
<text text-anchor="start" x="35.0044" y="-874.903" font-family="Monaco" font-size="10.00">+ setCaption()</text>
<text text-anchor="start" x="35.0044" y="-861.568" font-family="Monaco" font-size="10.00">+ description()</text>
<text text-anchor="start" x="35.0044" y="-848.233" font-family="Monaco" font-size="10.00">+ setDescription()</text>
</a>
</g>
</g>
<!-- Node6&#45;&gt;Node5 -->
<g id="edge5" class="edge"><title>Node6&#45;&gt;Node5</title>
<path fill="none" stroke="midnightblue" d="M110.017,-828.333C110.017,-819.294 110.017,-810.306 110.017,-802.046"/>
<polygon fill="none" stroke="midnightblue" points="106.517,-828.524 110.017,-838.524 113.517,-828.524 106.517,-828.524"/>
</g>
<!-- Node7 -->
<g id="node7" class="node"><title>Node7</title>
<g id="a_node7"><a xlink:href="class_hydro_couple_1_1_i_property_changed.html" target="_top" xlink:title="IPropertyChanged interface is used to emit signal/event when a property of an object changes...">
<polygon fill="none" stroke="black" points="15.0024,-993.243 15.0024,-1057.25 205.031,-1057.25 205.031,-993.243 15.0024,-993.243"/>
<text text-anchor="middle" x="110.017" y="-1045.25" font-family="Monaco" font-size="10.00">HydroCouple::IPropertyChanged</text>
<polyline fill="none" stroke="black" points="15.0024,-1035.91 205.031,-1035.91 "/>
<text text-anchor="middle" x="110.017" y="-1023.91" font-family="Monaco" font-size="10.00"> </text>
<polyline fill="none" stroke="black" points="15.0024,-1014.58 205.031,-1014.58 "/>
<text text-anchor="start" x="23.0024" y="-1002.58" font-family="Monaco" font-size="10.00">+ ~IPropertyChanged()</text>
</a>
</g>
</g>
<!-- Node7&#45;&gt;Node6 -->
<g id="edge6" class="edge"><title>Node7&#45;&gt;Node6</title>
<path fill="none" stroke="midnightblue" d="M110.017,-982.923C110.017,-974.538 110.017,-965.571 110.017,-956.729"/>
<polygon fill="none" stroke="midnightblue" points="106.517,-983.18 110.017,-993.18 113.517,-983.18 106.517,-983.18"/>
</g>
</g>
</svg>
