<?xml version="1.0" encoding="UTF-8" standalone="no"?>
<!DOCTYPE svg PUBLIC "-//W3C//DTD SVG 1.1//EN"
 "http://www.w3.org/Graphics/SVG/1.1/DTD/svg11.dtd">
<!-- Generated by graphviz version 2.38.0 (20140413.2041)
 -->
<!-- Title: HydroCouple::Temporal::ITimeComponentDataItem Pages: 1 -->
<!--zoomable 1026 -->
<svg id="main" version="1.1" xmlns="http://www.w3.org/2000/svg" xmlns:xlink="http://www.w3.org/1999/xlink" xml:space="preserve" onload="init(evt)">
<style type="text/css"><![CDATA[
.edge:hover path { stroke: red; }
.edge:hover polygon { stroke: red; fill: red; }
]]></style>
<script type="text/javascript"><![CDATA[
var edges = document.getElementsByTagName('g');
if (edges && edges.length) {
  for (var i=0;i<edges.length;i++) {
    if (edges[i].id.substr(0,4)=='edge') {
      edges[i].setAttribute('class','edge');
    }
  }
}
]]></script>
        <defs>
                <circle id="rim" cx="0" cy="0" r="7"/>
                <circle id="rim2" cx="0" cy="0" r="3.5"/>
                <g id="zoomPlus">
                        <use xlink:href="#rim" fill="#404040">
                                <set attributeName="fill" to="#808080" begin="zoomplus.mouseover" end="zoomplus.mouseout"/>
                        </use>
                        <path d="M-4,0h8M0,-4v8" fill="none" stroke="white" stroke-width="1.5" pointer-events="none"/>
                </g>
                <g id="zoomMin">
                        <use xlink:href="#rim" fill="#404040">
                                <set attributeName="fill" to="#808080" begin="zoomminus.mouseover" end="zoomminus.mouseout"/>
                        </use>
                        <path d="M-4,0h8" fill="none" stroke="white" stroke-width="1.5" pointer-events="none"/>
                </g>
                <g id="dirArrow">
                        <path fill="none" stroke="white" stroke-width="1.5" d="M0,-3.0v7 M-2.5,-0.5L0,-3.0L2.5,-0.5"/>
                </g>
               <g id="resetDef">
                       <use xlink:href="#rim2" fill="#404040">
                               <set attributeName="fill" to="#808080" begin="reset.mouseover" end="reset.mouseout"/>
                       </use>
               </g>
        </defs>

<script type="text/javascript">
var viewWidth = 328;
var viewHeight = 1026;
var sectionId = 'dynsection-0';
</script>
<script xlink:href="svgpan.js"/>
<svg id="graph" class="graph">
<g id="viewport">
<title>HydroCouple::Temporal::ITimeComponentDataItem</title>
<!-- Node1 -->
<g id="node1" class="node"><title>Node1</title>
<polygon fill="#bfbfbf" stroke="black" points="74.999,-229.18 74.999,-426.534 253.025,-426.534 253.025,-229.18 74.999,-229.18"/>
<text text-anchor="start" x="82.999" y="-414.534" font-family="Monaco" font-size="10.00">HydroCouple::Temporal</text>
<text text-anchor="middle" x="164.012" y="-401.199" font-family="Monaco" font-size="10.00">::ITimeComponentDataItem</text>
<polyline fill="none" stroke="black" points="74.999,-391.864 253.025,-391.864 "/>
<text text-anchor="middle" x="164.012" y="-379.864" font-family="Monaco" font-size="10.00"> </text>
<polyline fill="none" stroke="black" points="74.999,-370.529 253.025,-370.529 "/>
<text text-anchor="start" x="82.999" y="-358.529" font-family="Monaco" font-size="10.00">+ ~ITimeComponentDataItem()</text>
<text text-anchor="start" x="82.999" y="-345.194" font-family="Monaco" font-size="10.00">+ times()</text>
<text text-anchor="start" x="82.999" y="-331.859" font-family="Monaco" font-size="10.00">+ timeSpan()</text>
<text text-anchor="start" x="82.999" y="-318.524" font-family="Monaco" font-size="10.00">+ timeDimension()</text>
<text text-anchor="start" x="82.999" y="-305.189" font-family="Monaco" font-size="10.00">+ getValue()</text>
<text text-anchor="start" x="82.999" y="-291.854" font-family="Monaco" font-size="10.00">+ getValues()</text>
<text text-anchor="start" x="82.999" y="-278.52" font-family="Monaco" font-size="10.00">+ getValues()</text>
<text text-anchor="start" x="82.999" y="-265.185" font-family="Monaco" font-size="10.00">+ setValue()</text>
<text text-anchor="start" x="82.999" y="-251.85" font-family="Monaco" font-size="10.00">+ setValues()</text>
<text text-anchor="start" x="82.999" y="-238.515" font-family="Monaco" font-size="10.00">+ setValues()</text>
</g>
<!-- Node6 -->
<g id="node6" class="node"><title>Node6</title>
<g id="a_node6"><a xlink:href="class_hydro_couple_1_1_temporal_1_1_i_time_argument.html" target="_top" xlink:title="The ITimeArgument class. his class cannot be directly instantiated and must be implemented as as an a...">
<polygon fill="none" stroke="black" points="12.002,-114.84 12.002,-192.18 154.022,-192.18 154.022,-114.84 12.002,-114.84"/>
<text text-anchor="start" x="20.002" y="-180.18" font-family="Monaco" font-size="10.00">HydroCouple::Temporal</text>
<text text-anchor="middle" x="83.0122" y="-166.845" font-family="Monaco" font-size="10.00">::ITimeArgument</text>
<polyline fill="none" stroke="black" points="12.002,-157.51 154.022,-157.51 "/>
<text text-anchor="middle" x="83.0122" y="-145.51" font-family="Monaco" font-size="10.00"> </text>
<polyline fill="none" stroke="black" points="12.002,-136.175 154.022,-136.175 "/>
<text text-anchor="start" x="20.002" y="-124.175" font-family="Monaco" font-size="10.00">+ ~ITimeArgument()</text>
</a>
</g>
</g>
<!-- Node1&#45;&gt;Node6 -->
<g id="edge5" class="edge"><title>Node1&#45;&gt;Node6</title>
<path fill="none" stroke="midnightblue" d="M113.786,-219.989C109.169,-210.165 104.732,-200.723 100.733,-192.216"/>
<polygon fill="none" stroke="midnightblue" points="110.648,-221.54 118.069,-229.101 116.983,-218.562 110.648,-221.54"/>
</g>
<!-- Node8 -->
<g id="node8" class="node"><title>Node8</title>
<g id="a_node8"><a xlink:href="class_hydro_couple_1_1_temporal_1_1_i_time_exchange_item.html" target="_top" xlink:title="The ITimeExchangeItem class.This class cannot be directly instantiated and must be implemented as as ...">
<polygon fill="none" stroke="black" points="172.001,-114.84 172.001,-192.18 320.023,-192.18 320.023,-114.84 172.001,-114.84"/>
<text text-anchor="start" x="180.001" y="-180.18" font-family="Monaco" font-size="10.00">HydroCouple::Temporal</text>
<text text-anchor="middle" x="246.012" y="-166.845" font-family="Monaco" font-size="10.00">::ITimeExchangeItem</text>
<polyline fill="none" stroke="black" points="172.001,-157.51 320.023,-157.51 "/>
<text text-anchor="middle" x="246.012" y="-145.51" font-family="Monaco" font-size="10.00"> </text>
<polyline fill="none" stroke="black" points="172.001,-136.175 320.023,-136.175 "/>
<text text-anchor="start" x="180.001" y="-124.175" font-family="Monaco" font-size="10.00">+ ~ITimeExchangeItem()</text>
</a>
</g>
</g>
<!-- Node1&#45;&gt;Node8 -->
<g id="edge7" class="edge"><title>Node1&#45;&gt;Node8</title>
<path fill="none" stroke="midnightblue" d="M214.858,-219.989C219.532,-210.165 224.024,-200.723 228.072,-192.216"/>
<polygon fill="none" stroke="midnightblue" points="211.659,-218.568 210.523,-229.101 217.98,-221.575 211.659,-218.568"/>
</g>
<!-- Node2 -->
<g id="node2" class="node"><title>Node2</title>
<g id="a_node2"><a xlink:href="class_hydro_couple_1_1_i_component_data_item.html" target="_top" xlink:title="IComponentItem is a fundamental unit of data for a component. ">
<polygon fill="none" stroke="black" points="62.9971,-463.534 62.9971,-647.554 265.027,-647.554 265.027,-463.534 62.9971,-463.534"/>
<text text-anchor="middle" x="164.012" y="-635.554" font-family="Monaco" font-size="10.00">HydroCouple::IComponentDataItem</text>
<polyline fill="none" stroke="black" points="62.9971,-626.219 265.027,-626.219 "/>
<text text-anchor="middle" x="164.012" y="-614.219" font-family="Monaco" font-size="10.00"> </text>
<polyline fill="none" stroke="black" points="62.9971,-604.884 265.027,-604.884 "/>
<text text-anchor="start" x="70.9971" y="-592.884" font-family="Monaco" font-size="10.00">+ ~IComponentDataItem()</text>
<text text-anchor="start" x="70.9971" y="-579.549" font-family="Monaco" font-size="10.00">+ modelComponent()</text>
<text text-anchor="start" x="70.9971" y="-566.214" font-family="Monaco" font-size="10.00">+ dimensions()</text>
<text text-anchor="start" x="70.9971" y="-552.879" font-family="Monaco" font-size="10.00">+ valueDefinition()</text>
<text text-anchor="start" x="70.9971" y="-539.544" font-family="Monaco" font-size="10.00">+ getValue()</text>
<text text-anchor="start" x="70.9971" y="-526.209" font-family="Monaco" font-size="10.00">+ getValues()</text>
<text text-anchor="start" x="70.9971" y="-512.874" font-family="Monaco" font-size="10.00">+ getValues()</text>
<text text-anchor="start" x="70.9971" y="-499.539" font-family="Monaco" font-size="10.00">+ setValue()</text>
<text text-anchor="start" x="70.9971" y="-486.204" font-family="Monaco" font-size="10.00">+ setValues()</text>
<text text-anchor="start" x="70.9971" y="-472.869" font-family="Monaco" font-size="10.00">+ setValues()</text>
</a>
</g>
</g>
<!-- Node2&#45;&gt;Node1 -->
<g id="edge1" class="edge"><title>Node2&#45;&gt;Node1</title>
<path fill="none" stroke="midnightblue" d="M164.012,-453.398C164.012,-444.493 164.012,-435.489 164.012,-426.612"/>
<polygon fill="none" stroke="midnightblue" points="160.512,-453.399 164.012,-463.399 167.512,-453.399 160.512,-453.399"/>
</g>
<!-- Node3 -->
<g id="node3" class="node"><title>Node3</title>
<g id="a_node3"><a xlink:href="class_hydro_couple_1_1_i_identity.html" target="_top" xlink:title="IIdentity interface class defines a method to get the Id of an HydroCouple entity. ">
<polygon fill="none" stroke="black" points="90.0015,-684.554 90.0015,-761.894 238.023,-761.894 238.023,-684.554 90.0015,-684.554"/>
<text text-anchor="middle" x="164.012" y="-749.894" font-family="Monaco" font-size="10.00">HydroCouple::IIdentity</text>
<polyline fill="none" stroke="black" points="90.0015,-740.559 238.023,-740.559 "/>
<text text-anchor="middle" x="164.012" y="-728.559" font-family="Monaco" font-size="10.00"> </text>
<polyline fill="none" stroke="black" points="90.0015,-719.224 238.023,-719.224 "/>
<text text-anchor="start" x="98.0015" y="-707.224" font-family="Monaco" font-size="10.00">+ ~IIdentity()</text>
<text text-anchor="start" x="98.0015" y="-693.889" font-family="Monaco" font-size="10.00">+ id()</text>
</a>
</g>
</g>
<!-- Node3&#45;&gt;Node2 -->
<g id="edge2" class="edge"><title>Node3&#45;&gt;Node2</title>
<path fill="none" stroke="midnightblue" d="M164.012,-673.971C164.012,-665.618 164.012,-656.693 164.012,-647.635"/>
<polygon fill="none" stroke="midnightblue" points="160.512,-674.213 164.012,-684.213 167.512,-674.213 160.512,-674.213"/>
</g>
<!-- Node4 -->
<g id="node4" class="node"><title>Node4</title>
<g id="a_node4"><a xlink:href="class_hydro_couple_1_1_i_description.html" target="_top" xlink:title="IDescription interface class provides descriptive information on a HydroCouple object. ">
<polygon fill="none" stroke="black" points="81,-798.894 81,-916.238 247.024,-916.238 247.024,-798.894 81,-798.894"/>
<text text-anchor="middle" x="164.012" y="-904.238" font-family="Monaco" font-size="10.00">HydroCouple::IDescription</text>
<polyline fill="none" stroke="black" points="81,-894.903 247.024,-894.903 "/>
<text text-anchor="middle" x="164.012" y="-882.903" font-family="Monaco" font-size="10.00"> </text>
<polyline fill="none" stroke="black" points="81,-873.568 247.024,-873.568 "/>
<text text-anchor="start" x="89" y="-861.568" font-family="Monaco" font-size="10.00">+ ~IDescription()</text>
<text text-anchor="start" x="89" y="-848.233" font-family="Monaco" font-size="10.00">+ caption()</text>
<text text-anchor="start" x="89" y="-834.898" font-family="Monaco" font-size="10.00">+ setCaption()</text>
<text text-anchor="start" x="89" y="-821.563" font-family="Monaco" font-size="10.00">+ description()</text>
<text text-anchor="start" x="89" y="-808.229" font-family="Monaco" font-size="10.00">+ setDescription()</text>
</a>
</g>
</g>
<!-- Node4&#45;&gt;Node3 -->
<g id="edge3" class="edge"><title>Node4&#45;&gt;Node3</title>
<path fill="none" stroke="midnightblue" d="M164.012,-788.328C164.012,-779.289 164.012,-770.301 164.012,-762.041"/>
<polygon fill="none" stroke="midnightblue" points="160.512,-788.519 164.012,-798.519 167.512,-788.519 160.512,-788.519"/>
</g>
<!-- Node5 -->
<g id="node5" class="node"><title>Node5</title>
<g id="a_node5"><a xlink:href="class_hydro_couple_1_1_i_property_changed.html" target="_top" xlink:title="IPropertyChanged interface is used to emit signal/event when a property of an object changes...">
<polygon fill="none" stroke="black" points="68.998,-953.238 68.998,-1017.24 259.026,-1017.24 259.026,-953.238 68.998,-953.238"/>
<text text-anchor="middle" x="164.012" y="-1005.24" font-family="Monaco" font-size="10.00">HydroCouple::IPropertyChanged</text>
<polyline fill="none" stroke="black" points="68.998,-995.908 259.026,-995.908 "/>
<text text-anchor="middle" x="164.012" y="-983.908" font-family="Monaco" font-size="10.00"> </text>
<polyline fill="none" stroke="black" points="68.998,-974.573 259.026,-974.573 "/>
<text text-anchor="start" x="76.998" y="-962.573" font-family="Monaco" font-size="10.00">+ ~IPropertyChanged()</text>
</a>
</g>
</g>
<!-- Node5&#45;&gt;Node4 -->
<g id="edge4" class="edge"><title>Node5&#45;&gt;Node4</title>
<path fill="none" stroke="midnightblue" d="M164.012,-942.918C164.012,-934.533 164.012,-925.566 164.012,-916.724"/>
<polygon fill="none" stroke="midnightblue" points="160.512,-943.175 164.012,-953.175 167.512,-943.175 160.512,-943.175"/>
</g>
<!-- Node7 -->
<g id="node7" class="node"><title>Node7</title>
<g id="a_node7"><a xlink:href="class_hydro_couple_1_1_temporal_1_1_i_time_id_based_argument.html" target="_top" xlink:title="The ITimeSeriesIdBasedArgument class. ">
<polygon fill="none" stroke="black" points="0,-0.5 0,-77.8398 166.024,-77.8398 166.024,-0.5 0,-0.5"/>
<text text-anchor="start" x="8" y="-65.8398" font-family="Monaco" font-size="10.00">HydroCouple::Temporal</text>
<text text-anchor="middle" x="83.0122" y="-52.5049" font-family="Monaco" font-size="10.00">::ITimeIdBasedArgument</text>
<polyline fill="none" stroke="black" points="0,-43.1699 166.024,-43.1699 "/>
<text text-anchor="middle" x="83.0122" y="-31.1699" font-family="Monaco" font-size="10.00"> </text>
<polyline fill="none" stroke="black" points="0,-21.835 166.024,-21.835 "/>
<text text-anchor="start" x="8" y="-9.83496" font-family="Monaco" font-size="10.00">+ ~ITimeIdBasedArgument()</text>
</a>
</g>
</g>
<!-- Node6&#45;&gt;Node7 -->
<g id="edge6" class="edge"><title>Node6&#45;&gt;Node7</title>
<path fill="none" stroke="midnightblue" d="M83.0122,-104.548C83.0122,-95.6678 83.0122,-86.5077 83.0122,-77.9816"/>
<polygon fill="none" stroke="midnightblue" points="79.5123,-104.79 83.0122,-114.79 86.5123,-104.79 79.5123,-104.79"/>
</g>
</g>
</svg>
        <g id="navigator" transform="translate(0 0)" fill="#404254">
                <rect fill="#f2f5e9" fill-opacity="0.5" stroke="#606060" stroke-width=".5" x="0" y="0" width="60" height="60"/>
                <use id="zoomplus" xlink:href="#zoomPlus" x="17" y="9" onmousedown="handleZoom(evt,'in')"/>
                <use id="zoomminus" xlink:href="#zoomMin" x="42" y="9" onmousedown="handleZoom(evt,'out')"/>
                <use id="reset" xlink:href="#resetDef" x="30" y="36" onmousedown="handleReset()"/>
                <g id="arrowUp" xlink:href="#dirArrow" transform="translate(30 24)" onmousedown="handlePan(0,-1)">
                  <use xlink:href="#rim" fill="#404040">
                        <set attributeName="fill" to="#808080" begin="arrowUp.mouseover" end="arrowUp.mouseout"/>
                  </use>
                  <path fill="none" stroke="white" stroke-width="1.5" d="M0,-3.0v7 M-2.5,-0.5L0,-3.0L2.5,-0.5"/>
                </g>
                <g id="arrowRight" xlink:href="#dirArrow" transform="rotate(90) translate(36 -43)" onmousedown="handlePan(1,0)">
                  <use xlink:href="#rim" fill="#404040">
                        <set attributeName="fill" to="#808080" begin="arrowRight.mouseover" end="arrowRight.mouseout"/>
                  </use>
                  <path fill="none" stroke="white" stroke-width="1.5" d="M0,-3.0v7 M-2.5,-0.5L0,-3.0L2.5,-0.5"/>
                </g>
                <g id="arrowDown" xlink:href="#dirArrow" transform="rotate(180) translate(-30 -48)" onmousedown="handlePan(0,1)">
                  <use xlink:href="#rim" fill="#404040">
                        <set attributeName="fill" to="#808080" begin="arrowDown.mouseover" end="arrowDown.mouseout"/>
                  </use>
                  <path fill="none" stroke="white" stroke-width="1.5" d="M0,-3.0v7 M-2.5,-0.5L0,-3.0L2.5,-0.5"/>
                </g>
                <g id="arrowLeft" xlink:href="#dirArrow" transform="rotate(270) translate(-36 17)" onmousedown="handlePan(-1,0)">
                  <use xlink:href="#rim" fill="#404040">
                        <set attributeName="fill" to="#808080" begin="arrowLeft.mouseover" end="arrowLeft.mouseout"/>
                  </use>
                  <path fill="none" stroke="white" stroke-width="1.5" d="M0,-3.0v7 M-2.5,-0.5L0,-3.0L2.5,-0.5"/>
                </g>
        </g>
        <svg viewBox="0 0 15 15" width="100%" height="30px" preserveAspectRatio="xMaxYMin meet">
         <g id="arrow_out" transform="scale(0.3 0.3)">
          <a xlink:href="class_hydro_couple_1_1_temporal_1_1_i_time_component_data_item__inherit__graph_org.svg" target="_base">
           <rect id="button" ry="5" rx="5" y="6" x="6" height="38" width="38"
                fill="#f2f5e9" fill-opacity="0.5" stroke="#606060" stroke-width="1.0"/>
           <path id="arrow"
             d="M 11.500037,31.436501 C 11.940474,20.09759 22.043105,11.32322 32.158766,21.979434 L 37.068811,17.246167 C 37.068811,17.246167 37.088388,32 37.088388,32 L 22.160133,31.978069 C 22.160133,31.978069 26.997745,27.140456 26.997745,27.140456 C 18.528582,18.264221 13.291696,25.230495 11.500037,31.436501 z"
             style="fill:#404040;"/>
          </a>
         </g>
        </svg>
</svg>
