<?xml version="1.0" encoding="UTF-8" standalone="no"?>
<!DOCTYPE svg PUBLIC "-//W3C//DTD SVG 1.1//EN"
 "http://www.w3.org/Graphics/SVG/1.1/DTD/svg11.dtd">
<!-- Generated by graphviz version 2.38.0 (20140413.2041)
 -->
<!-- Title: HydroCouple::Spatial::ITINComponentDataItem Pages: 1 -->
<svg width="270pt" height="911pt"
 viewBox="0.00 0.00 270.03 911.40" xmlns="http://www.w3.org/2000/svg" xmlns:xlink="http://www.w3.org/1999/xlink">
<g id="graph0" class="graph" transform="scale(1 1) rotate(0) translate(4 907.403)">
<title>HydroCouple::Spatial::ITINComponentDataItem</title>
<!-- Node1 -->
<g id="node1" class="node"><title>Node1</title>
<polygon fill="#bfbfbf" stroke="black" points="15.0024,-0.5 15.0024,-117.845 187.028,-117.845 187.028,-0.5 15.0024,-0.5"/>
<text text-anchor="start" x="23.0024" y="-105.845" font-family="Monaco" font-size="10.00">HydroCouple::Spatial</text>
<text text-anchor="middle" x="101.015" y="-92.5098" font-family="Monaco" font-size="10.00">::ITINComponentDataItem</text>
<polyline fill="none" stroke="black" points="15.0024,-83.1748 187.028,-83.1748 "/>
<text text-anchor="middle" x="101.015" y="-71.1748" font-family="Monaco" font-size="10.00"> </text>
<polyline fill="none" stroke="black" points="15.0024,-61.8398 187.028,-61.8398 "/>
<text text-anchor="start" x="23.0024" y="-49.8398" font-family="Monaco" font-size="10.00">+ ~ITINComponentDataItem()</text>
<text text-anchor="start" x="23.0024" y="-36.5049" font-family="Monaco" font-size="10.00">+ TIN()</text>
<text text-anchor="start" x="23.0024" y="-23.1699" font-family="Monaco" font-size="10.00">+ getValues()</text>
<text text-anchor="start" x="23.0024" y="-9.83496" font-family="Monaco" font-size="10.00">+ setValues()</text>
</g>
<!-- Node2 -->
<g id="node2" class="node"><title>Node2</title>
<g id="a_node2"><a xlink:href="class_hydro_couple_1_1_i_component_data_item.html" target="_top" xlink:title="IComponentItem is a fundamental unit of data for a component. ">
<polygon fill="none" stroke="black" points="0,-389.199 0,-533.214 202.03,-533.214 202.03,-389.199 0,-389.199"/>
<text text-anchor="middle" x="101.015" y="-521.214" font-family="Monaco" font-size="10.00">HydroCouple::IComponentDataItem</text>
<polyline fill="none" stroke="black" points="0,-511.879 202.03,-511.879 "/>
<text text-anchor="middle" x="101.015" y="-499.879" font-family="Monaco" font-size="10.00"> </text>
<polyline fill="none" stroke="black" points="0,-490.544 202.03,-490.544 "/>
<text text-anchor="start" x="8" y="-478.544" font-family="Monaco" font-size="10.00">+ ~IComponentDataItem()</text>
<text text-anchor="start" x="8" y="-465.209" font-family="Monaco" font-size="10.00">+ modelComponent()</text>
<text text-anchor="start" x="8" y="-451.874" font-family="Monaco" font-size="10.00">+ dimensions()</text>
<text text-anchor="start" x="8" y="-438.539" font-family="Monaco" font-size="10.00">+ dimensionLength()</text>
<text text-anchor="start" x="8" y="-425.204" font-family="Monaco" font-size="10.00">+ valueDefinition()</text>
<text text-anchor="start" x="8" y="-411.869" font-family="Monaco" font-size="10.00">+ getValue()</text>
<text text-anchor="start" x="8" y="-398.534" font-family="Monaco" font-size="10.00">+ setValue()</text>
</a>
</g>
</g>
<!-- Node2&#45;&gt;Node1 -->
<g id="edge1" class="edge"><title>Node2&#45;&gt;Node1</title>
<path fill="none" stroke="midnightblue" d="M64.1462,-379.523C61.2397,-370.618 58.7589,-361.564 57.0151,-352.699 39.9991,-266.199 37.9018,-240.405 57.0151,-154.345 59.7148,-142.189 64.1556,-129.745 69.2029,-118.051"/>
<polygon fill="none" stroke="midnightblue" points="60.8841,-380.8 67.4525,-389.113 67.5018,-378.518 60.8841,-380.8"/>
</g>
<!-- Node6 -->
<g id="node6" class="node"><title>Node6</title>
<g id="a_node6"><a xlink:href="class_hydro_couple_1_1_spatial_1_1_i_polyhedral_surface_component_data_item.html" target="_top" xlink:title="IPolyhedralSurfaceComponentItem represents IPolyhedralSurface IComponentItem. ">
<polygon fill="none" stroke="black" points="66.0005,-154.845 66.0005,-352.199 262.03,-352.199 262.03,-154.845 66.0005,-154.845"/>
<text text-anchor="start" x="74.0005" y="-340.199" font-family="Monaco" font-size="10.00">HydroCouple::Spatial</text>
<text text-anchor="start" x="74.0005" y="-326.864" font-family="Monaco" font-size="10.00">::IPolyhedralSurfaceComponent</text>
<text text-anchor="middle" x="164.015" y="-313.529" font-family="Monaco" font-size="10.00">DataItem</text>
<polyline fill="none" stroke="black" points="66.0005,-304.194 262.03,-304.194 "/>
<text text-anchor="middle" x="164.015" y="-292.194" font-family="Monaco" font-size="10.00"> </text>
<polyline fill="none" stroke="black" points="66.0005,-282.859 262.03,-282.859 "/>
<text text-anchor="start" x="74.0005" y="-270.859" font-family="Monaco" font-size="10.00">+ ~IPolyhedralSurfaceComponent</text>
<text text-anchor="start" x="74.0005" y="-257.524" font-family="Monaco" font-size="10.00">DataItem()</text>
<text text-anchor="start" x="74.0005" y="-244.189" font-family="Monaco" font-size="10.00">+ meshDataType()</text>
<text text-anchor="start" x="74.0005" y="-230.854" font-family="Monaco" font-size="10.00">+ polyhedralSurface()</text>
<text text-anchor="start" x="74.0005" y="-217.52" font-family="Monaco" font-size="10.00">+ cellDimension()</text>
<text text-anchor="start" x="74.0005" y="-204.185" font-family="Monaco" font-size="10.00">+ edgeDimension()</text>
<text text-anchor="start" x="74.0005" y="-190.85" font-family="Monaco" font-size="10.00">+ nodeDimension()</text>
<text text-anchor="start" x="74.0005" y="-177.515" font-family="Monaco" font-size="10.00">+ getValue()</text>
<text text-anchor="start" x="74.0005" y="-164.18" font-family="Monaco" font-size="10.00">+ setValue()</text>
</a>
</g>
</g>
<!-- Node2&#45;&gt;Node6 -->
<g id="edge6" class="edge"><title>Node2&#45;&gt;Node6</title>
<path fill="none" stroke="midnightblue" d="M125.799,-379.293C128.498,-370.479 131.267,-361.439 134.02,-352.45"/>
<polygon fill="none" stroke="midnightblue" points="122.367,-378.547 122.784,-389.134 129.06,-380.597 122.367,-378.547"/>
</g>
<!-- Node3 -->
<g id="node3" class="node"><title>Node3</title>
<g id="a_node3"><a xlink:href="class_hydro_couple_1_1_i_identity.html" target="_top" xlink:title="IIdentity interface class defines a method to get the Id of an HydroCouple entity. ">
<polygon fill="none" stroke="black" points="27.0044,-570.214 27.0044,-647.554 175.026,-647.554 175.026,-570.214 27.0044,-570.214"/>
<text text-anchor="middle" x="101.015" y="-635.554" font-family="Monaco" font-size="10.00">HydroCouple::IIdentity</text>
<polyline fill="none" stroke="black" points="27.0044,-626.219 175.026,-626.219 "/>
<text text-anchor="middle" x="101.015" y="-614.219" font-family="Monaco" font-size="10.00"> </text>
<polyline fill="none" stroke="black" points="27.0044,-604.884 175.026,-604.884 "/>
<text text-anchor="start" x="35.0044" y="-592.884" font-family="Monaco" font-size="10.00">+ ~IIdentity()</text>
<text text-anchor="start" x="35.0044" y="-579.549" font-family="Monaco" font-size="10.00">+ id()</text>
</a>
</g>
</g>
<!-- Node3&#45;&gt;Node2 -->
<g id="edge2" class="edge"><title>Node3&#45;&gt;Node2</title>
<path fill="none" stroke="midnightblue" d="M101.015,-559.862C101.015,-551.318 101.015,-542.257 101.015,-533.233"/>
<polygon fill="none" stroke="midnightblue" points="97.5152,-559.989 101.015,-569.989 104.515,-559.989 97.5152,-559.989"/>
</g>
<!-- Node4 -->
<g id="node4" class="node"><title>Node4</title>
<g id="a_node4"><a xlink:href="class_hydro_couple_1_1_i_description.html" target="_top" xlink:title="IDescription interface class provides descriptive information on a HydroCouple object. ">
<polygon fill="none" stroke="black" points="18.0029,-684.554 18.0029,-801.898 184.027,-801.898 184.027,-684.554 18.0029,-684.554"/>
<text text-anchor="middle" x="101.015" y="-789.898" font-family="Monaco" font-size="10.00">HydroCouple::IDescription</text>
<polyline fill="none" stroke="black" points="18.0029,-780.563 184.027,-780.563 "/>
<text text-anchor="middle" x="101.015" y="-768.563" font-family="Monaco" font-size="10.00"> </text>
<polyline fill="none" stroke="black" points="18.0029,-759.229 184.027,-759.229 "/>
<text text-anchor="start" x="26.0029" y="-747.229" font-family="Monaco" font-size="10.00">+ ~IDescription()</text>
<text text-anchor="start" x="26.0029" y="-733.894" font-family="Monaco" font-size="10.00">+ caption()</text>
<text text-anchor="start" x="26.0029" y="-720.559" font-family="Monaco" font-size="10.00">+ setCaption()</text>
<text text-anchor="start" x="26.0029" y="-707.224" font-family="Monaco" font-size="10.00">+ description()</text>
<text text-anchor="start" x="26.0029" y="-693.889" font-family="Monaco" font-size="10.00">+ setDescription()</text>
</a>
</g>
</g>
<!-- Node4&#45;&gt;Node3 -->
<g id="edge3" class="edge"><title>Node4&#45;&gt;Node3</title>
<path fill="none" stroke="midnightblue" d="M101.015,-673.988C101.015,-664.949 101.015,-655.962 101.015,-647.701"/>
<polygon fill="none" stroke="midnightblue" points="97.5152,-674.179 101.015,-684.179 104.515,-674.179 97.5152,-674.179"/>
</g>
<!-- Node5 -->
<g id="node5" class="node"><title>Node5</title>
<g id="a_node5"><a xlink:href="class_hydro_couple_1_1_i_property_changed.html" target="_top" xlink:title="IPropertyChanged interface is used to emit signal/event when a property of an object changes...">
<polygon fill="none" stroke="black" points="6.00098,-838.898 6.00098,-902.903 196.029,-902.903 196.029,-838.898 6.00098,-838.898"/>
<text text-anchor="middle" x="101.015" y="-890.903" font-family="Monaco" font-size="10.00">HydroCouple::IPropertyChanged</text>
<polyline fill="none" stroke="black" points="6.00098,-881.568 196.029,-881.568 "/>
<text text-anchor="middle" x="101.015" y="-869.568" font-family="Monaco" font-size="10.00"> </text>
<polyline fill="none" stroke="black" points="6.00098,-860.233 196.029,-860.233 "/>
<text text-anchor="start" x="14.001" y="-848.233" font-family="Monaco" font-size="10.00">+ ~IPropertyChanged()</text>
</a>
</g>
</g>
<!-- Node5&#45;&gt;Node4 -->
<g id="edge4" class="edge"><title>Node5&#45;&gt;Node4</title>
<path fill="none" stroke="midnightblue" d="M101.015,-828.578C101.015,-820.193 101.015,-811.227 101.015,-802.384"/>
<polygon fill="none" stroke="midnightblue" points="97.5152,-828.835 101.015,-838.835 104.515,-828.835 97.5152,-828.835"/>
</g>
<!-- Node6&#45;&gt;Node1 -->
<g id="edge5" class="edge"><title>Node6&#45;&gt;Node1</title>
<path fill="none" stroke="midnightblue" d="M128.795,-144.988C125.768,-135.746 122.787,-126.646 119.967,-118.035"/>
<polygon fill="none" stroke="midnightblue" points="125.523,-146.243 131.961,-154.657 132.175,-144.064 125.523,-146.243"/>
</g>
</g>
</svg>
