<?xml version="1.0" encoding="UTF-8" standalone="no"?>
<!DOCTYPE svg PUBLIC "-//W3C//DTD SVG 1.1//EN"
 "http://www.w3.org/Graphics/SVG/1.1/DTD/svg11.dtd">
<!-- Generated by graphviz version 2.38.0 (20140413.2041)
 -->
<!-- Title: HydroCoupleSDK::Identity Pages: 1 -->
<!--zoomable 1111 -->
<svg id="main" version="1.1" xmlns="http://www.w3.org/2000/svg" xmlns:xlink="http://www.w3.org/1999/xlink" xml:space="preserve" onload="init(evt)">
<style type="text/css"><![CDATA[
.edge:hover path { stroke: red; }
.edge:hover polygon { stroke: red; fill: red; }
]]></style>
<script type="text/javascript"><![CDATA[
var edges = document.getElementsByTagName('g');
if (edges && edges.length) {
  for (var i=0;i<edges.length;i++) {
    if (edges[i].id.substr(0,4)=='edge') {
      edges[i].setAttribute('class','edge');
    }
  }
}
]]></script>
        <defs>
                <circle id="rim" cx="0" cy="0" r="7"/>
                <circle id="rim2" cx="0" cy="0" r="3.5"/>
                <g id="zoomPlus">
                        <use xlink:href="#rim" fill="#404040">
                                <set attributeName="fill" to="#808080" begin="zoomplus.mouseover" end="zoomplus.mouseout"/>
                        </use>
                        <path d="M-4,0h8M0,-4v8" fill="none" stroke="white" stroke-width="1.5" pointer-events="none"/>
                </g>
                <g id="zoomMin">
                        <use xlink:href="#rim" fill="#404040">
                                <set attributeName="fill" to="#808080" begin="zoomminus.mouseover" end="zoomminus.mouseout"/>
                        </use>
                        <path d="M-4,0h8" fill="none" stroke="white" stroke-width="1.5" pointer-events="none"/>
                </g>
                <g id="dirArrow">
                        <path fill="none" stroke="white" stroke-width="1.5" d="M0,-3.0v7 M-2.5,-0.5L0,-3.0L2.5,-0.5"/>
                </g>
               <g id="resetDef">
                       <use xlink:href="#rim2" fill="#404040">
                               <set attributeName="fill" to="#808080" begin="reset.mouseover" end="reset.mouseout"/>
                       </use>
               </g>
        </defs>

<script type="text/javascript">
var viewWidth = 409;
var viewHeight = 1111;
var sectionId = 'dynsection-0';
</script>
<script xlink:href="svgpan.js"/>
<svg id="graph" class="graph">
<g id="viewport">
<title>HydroCoupleSDK::Identity</title>
<polygon fill="white" stroke="none" points="-4,4 -4,-1107.43 405.03,-1107.43 405.03,4 -4,4"/>
<!-- Node1 -->
<g id="node1" class="node"><title>Node1</title>
<polygon fill="#bfbfbf" stroke="black" points="110.001,-509.214 110.001,-626.559 270.025,-626.559 270.025,-509.214 110.001,-509.214"/>
<text text-anchor="middle" x="190.013" y="-614.559" font-family="Monaco" font-size="10.00">HydroCoupleSDK::Identity</text>
<polyline fill="none" stroke="black" points="110.001,-605.224 270.025,-605.224 "/>
<text text-anchor="start" x="118.001" y="-593.224" font-family="Monaco" font-size="10.00">+ Id</text>
<polyline fill="none" stroke="black" points="110.001,-583.889 270.025,-583.889 "/>
<text text-anchor="start" x="118.001" y="-571.889" font-family="Monaco" font-size="10.00">+ Identity()</text>
<text text-anchor="start" x="118.001" y="-558.554" font-family="Monaco" font-size="10.00">+ Identity()</text>
<text text-anchor="start" x="118.001" y="-545.219" font-family="Monaco" font-size="10.00">+ ~Identity()</text>
<text text-anchor="start" x="118.001" y="-531.884" font-family="Monaco" font-size="10.00">+ id()</text>
<text text-anchor="start" x="118.001" y="-518.549" font-family="Monaco" font-size="10.00"># setId()</text>
</g>
<!-- Node7 -->
<g id="node7" class="node"><title>Node7</title>
<g id="a_node7"><a xlink:href="class_hydro_couple_s_d_k_1_1_abstract_model_component.html" target="_top" xlink:title="AbstractModelComponent class. ">
<polygon fill="white" stroke="black" points="0,-101.505 0,-472.214 178.026,-472.214 178.026,-101.505 0,-101.505"/>
<text text-anchor="start" x="8" y="-460.214" font-family="Monaco" font-size="10.00">HydroCoupleSDK::Abstract</text>
<text text-anchor="middle" x="89.0132" y="-446.879" font-family="Monaco" font-size="10.00">ModelComponent</text>
<polyline fill="none" stroke="black" points="0,-437.544 178.026,-437.544 "/>
<text text-anchor="start" x="8" y="-425.544" font-family="Monaco" font-size="10.00">+ ComponentInfo</text>
<text text-anchor="start" x="8" y="-412.209" font-family="Monaco" font-size="10.00">+ Parent</text>
<text text-anchor="start" x="8" y="-398.874" font-family="Monaco" font-size="10.00">+ Arguments</text>
<text text-anchor="start" x="8" y="-385.539" font-family="Monaco" font-size="10.00">+ Status</text>
<text text-anchor="start" x="8" y="-372.204" font-family="Monaco" font-size="10.00">+ Inputs</text>
<text text-anchor="start" x="8" y="-358.869" font-family="Monaco" font-size="10.00">+ Outputs</text>
<text text-anchor="start" x="8" y="-345.534" font-family="Monaco" font-size="10.00">+ AdaptedOutputFactories</text>
<text text-anchor="start" x="8" y="-332.199" font-family="Monaco" font-size="10.00"># m_children</text>
<text text-anchor="start" x="8" y="-318.864" font-family="Monaco" font-size="10.00"># m_status</text>
<text text-anchor="start" x="8" y="-305.529" font-family="Monaco" font-size="10.00"># m_inputs</text>
<text text-anchor="start" x="8" y="-292.194" font-family="Monaco" font-size="10.00"># m_outputs</text>
<text text-anchor="start" x="8" y="-278.859" font-family="Monaco" font-size="10.00"># m_adaptedOutputFactories</text>
<text text-anchor="start" x="8" y="-265.524" font-family="Monaco" font-size="10.00"># m_arguments</text>
<polyline fill="none" stroke="black" points="0,-256.189 178.026,-256.189 "/>
<text text-anchor="start" x="8" y="-244.189" font-family="Monaco" font-size="10.00">+ AbstractModelComponent()</text>
<text text-anchor="start" x="8" y="-230.854" font-family="Monaco" font-size="10.00">+ AbstractModelComponent()</text>
<text text-anchor="start" x="8" y="-217.52" font-family="Monaco" font-size="10.00">+ ~AbstractModelComponent()</text>
<text text-anchor="start" x="8" y="-204.185" font-family="Monaco" font-size="10.00">+ componentInfo()</text>
<text text-anchor="start" x="8" y="-190.85" font-family="Monaco" font-size="10.00">+ parent()</text>
<text text-anchor="start" x="8" y="-177.515" font-family="Monaco" font-size="10.00">+ clone()</text>
<text text-anchor="start" x="8" y="-164.18" font-family="Monaco" font-size="10.00">+ children()</text>
<text text-anchor="start" x="8" y="-150.845" font-family="Monaco" font-size="10.00">+ arguments()</text>
<text text-anchor="start" x="8" y="-137.51" font-family="Monaco" font-size="10.00">+ status()</text>
<text text-anchor="start" x="8" y="-124.175" font-family="Monaco" font-size="10.00">+ inputs()</text>
<text text-anchor="start" x="8" y="-110.84" font-family="Monaco" font-size="10.00">and 7 more...</text>
</a>
</g>
</g>
<!-- Node1&#45;&gt;Node7 -->
<g id="edge7" class="edge"><title>Node1&#45;&gt;Node7</title>
<path fill="none" stroke="midnightblue" d="M165.634,-499.536C162.504,-490.889 159.19,-481.732 155.763,-472.265"/>
<polygon fill="none" stroke="midnightblue" points="162.391,-500.86 169.086,-509.072 168.973,-498.477 162.391,-500.86"/>
</g>
<!-- Node8 -->
<g id="node8" class="node"><title>Node8</title>
<g id="a_node8"><a xlink:href="class_hydro_couple_s_d_k_1_1_component_info.html" target="_top" xlink:title="Implementation of the IComponentInfo. This is the core interface specifying meta data about a compone...">
<polygon fill="white" stroke="black" points="195.999,-101.505 195.999,-472.214 386.027,-472.214 386.027,-101.505 195.999,-101.505"/>
<text text-anchor="middle" x="291.013" y="-460.214" font-family="Monaco" font-size="10.00">HydroCoupleSDK::ComponentInfo</text>
<polyline fill="none" stroke="black" points="195.999,-450.879 386.027,-450.879 "/>
<text text-anchor="start" x="203.999" y="-438.879" font-family="Monaco" font-size="10.00"># m_name</text>
<text text-anchor="start" x="203.999" y="-425.544" font-family="Monaco" font-size="10.00"># m_iconFilePath</text>
<text text-anchor="start" x="203.999" y="-412.209" font-family="Monaco" font-size="10.00"># m_vendor</text>
<text text-anchor="start" x="203.999" y="-398.874" font-family="Monaco" font-size="10.00"># m_license</text>
<text text-anchor="start" x="203.999" y="-385.539" font-family="Monaco" font-size="10.00"># m_copyright</text>
<text text-anchor="start" x="203.999" y="-372.204" font-family="Monaco" font-size="10.00"># m_url</text>
<text text-anchor="start" x="203.999" y="-358.869" font-family="Monaco" font-size="10.00"># m_email</text>
<text text-anchor="start" x="203.999" y="-345.534" font-family="Monaco" font-size="10.00"># m_version</text>
<text text-anchor="start" x="203.999" y="-332.199" font-family="Monaco" font-size="10.00"># m_category</text>
<text text-anchor="start" x="203.999" y="-318.864" font-family="Monaco" font-size="10.00"># m_filePath</text>
<text text-anchor="start" x="203.999" y="-305.529" font-family="Monaco" font-size="10.00"># m_publications</text>
<polyline fill="none" stroke="black" points="195.999,-296.194 386.027,-296.194 "/>
<text text-anchor="start" x="203.999" y="-284.194" font-family="Monaco" font-size="10.00">+ ComponentInfo()</text>
<text text-anchor="start" x="203.999" y="-270.859" font-family="Monaco" font-size="10.00">+ ~ComponentInfo()</text>
<text text-anchor="start" x="203.999" y="-257.524" font-family="Monaco" font-size="10.00">+ name()</text>
<text text-anchor="start" x="203.999" y="-244.189" font-family="Monaco" font-size="10.00">+ libraryFilePath()</text>
<text text-anchor="start" x="203.999" y="-230.854" font-family="Monaco" font-size="10.00">+ setLibraryFilePath()</text>
<text text-anchor="start" x="203.999" y="-217.52" font-family="Monaco" font-size="10.00">+ iconFilePath()</text>
<text text-anchor="start" x="203.999" y="-204.185" font-family="Monaco" font-size="10.00">+ vendor()</text>
<text text-anchor="start" x="203.999" y="-190.85" font-family="Monaco" font-size="10.00">+ publications()</text>
<text text-anchor="start" x="203.999" y="-177.515" font-family="Monaco" font-size="10.00">+ license()</text>
<text text-anchor="start" x="203.999" y="-164.18" font-family="Monaco" font-size="10.00">+ copyright()</text>
<text text-anchor="start" x="203.999" y="-150.845" font-family="Monaco" font-size="10.00">+ url()</text>
<text text-anchor="start" x="203.999" y="-137.51" font-family="Monaco" font-size="10.00">+ email()</text>
<text text-anchor="start" x="203.999" y="-124.175" font-family="Monaco" font-size="10.00">+ version()</text>
<text text-anchor="start" x="203.999" y="-110.84" font-family="Monaco" font-size="10.00">+ category()</text>
</a>
</g>
</g>
<!-- Node1&#45;&gt;Node8 -->
<g id="edge8" class="edge"><title>Node1&#45;&gt;Node8</title>
<path fill="none" stroke="midnightblue" d="M214.392,-499.536C217.522,-490.889 220.837,-481.732 224.263,-472.265"/>
<polygon fill="none" stroke="midnightblue" points="211.053,-498.477 210.94,-509.072 217.635,-500.86 211.053,-498.477"/>
</g>
<!-- Node2 -->
<g id="node2" class="node"><title>Node2</title>
<g id="a_node2"><a xlink:href="class_hydro_couple_s_d_k_1_1_description.html" target="_top" xlink:title="The Description class. ">
<polygon fill="white" stroke="black" points="11,-663.559 11,-847.578 189.026,-847.578 189.026,-663.559 11,-663.559"/>
<text text-anchor="middle" x="100.013" y="-835.578" font-family="Monaco" font-size="10.00">HydroCoupleSDK::Description</text>
<polyline fill="none" stroke="black" points="11,-826.243 189.026,-826.243 "/>
<text text-anchor="start" x="19" y="-814.243" font-family="Monaco" font-size="10.00">+ Caption</text>
<text text-anchor="start" x="19" y="-800.908" font-family="Monaco" font-size="10.00">+ Description</text>
<text text-anchor="start" x="19" y="-787.573" font-family="Monaco" font-size="10.00"># m_caption</text>
<text text-anchor="start" x="19" y="-774.238" font-family="Monaco" font-size="10.00"># m_description</text>
<polyline fill="none" stroke="black" points="11,-764.903 189.026,-764.903 "/>
<text text-anchor="start" x="19" y="-752.903" font-family="Monaco" font-size="10.00">+ Description()</text>
<text text-anchor="start" x="19" y="-739.568" font-family="Monaco" font-size="10.00">+ Description()</text>
<text text-anchor="start" x="19" y="-726.233" font-family="Monaco" font-size="10.00">+ ~Description()</text>
<text text-anchor="start" x="19" y="-712.898" font-family="Monaco" font-size="10.00">+ getCaption()</text>
<text text-anchor="start" x="19" y="-699.563" font-family="Monaco" font-size="10.00">+ setCaption()</text>
<text text-anchor="start" x="19" y="-686.229" font-family="Monaco" font-size="10.00">+ getDescription()</text>
<text text-anchor="start" x="19" y="-672.894" font-family="Monaco" font-size="10.00">+ setDescription()</text>
</a>
</g>
</g>
<!-- Node2&#45;&gt;Node1 -->
<g id="edge1" class="edge"><title>Node2&#45;&gt;Node1</title>
<path fill="none" stroke="midnightblue" d="M148.612,-654.302C153.181,-644.876 157.7,-635.552 161.98,-626.723"/>
<polygon fill="none" stroke="midnightblue" points="145.434,-652.834 144.222,-663.359 151.733,-655.887 145.434,-652.834"/>
</g>
<!-- Node3 -->
<g id="node3" class="node"><title>Node3</title>
<polygon fill="white" stroke="#bfbfbf" points="71.0098,-911.248 71.0098,-975.253 129.017,-975.253 129.017,-911.248 71.0098,-911.248"/>
<text text-anchor="middle" x="100.013" y="-963.253" font-family="Monaco" font-size="10.00">QObject</text>
<polyline fill="none" stroke="#bfbfbf" points="71.0098,-953.918 129.017,-953.918 "/>
<text text-anchor="middle" x="100.013" y="-941.918" font-family="Monaco" font-size="10.00"> </text>
<polyline fill="none" stroke="#bfbfbf" points="71.0098,-932.583 129.017,-932.583 "/>
<text text-anchor="middle" x="100.013" y="-920.583" font-family="Monaco" font-size="10.00"> </text>
</g>
<!-- Node3&#45;&gt;Node2 -->
<g id="edge2" class="edge"><title>Node3&#45;&gt;Node2</title>
<path fill="none" stroke="midnightblue" d="M100.013,-900.767C100.013,-885.022 100.013,-866.402 100.013,-847.865"/>
<polygon fill="none" stroke="midnightblue" points="96.5133,-901.171 100.013,-911.171 103.513,-901.172 96.5133,-901.171"/>
</g>
<!-- Node4 -->
<g id="node4" class="node"><title>Node4</title>
<g id="a_node4"><a xlink:href="class_hydro_couple_1_1_i_description.html" target="_top" xlink:title="IDescription interface class provides descriptive information on a HydroCouple object. ">
<polygon fill="white" stroke="black" points="172.001,-884.578 172.001,-1001.92 338.025,-1001.92 338.025,-884.578 172.001,-884.578"/>
<text text-anchor="middle" x="255.013" y="-989.923" font-family="Monaco" font-size="10.00">HydroCouple::IDescription</text>
<polyline fill="none" stroke="black" points="172.001,-980.588 338.025,-980.588 "/>
<text text-anchor="middle" x="255.013" y="-968.588" font-family="Monaco" font-size="10.00"> </text>
<polyline fill="none" stroke="black" points="172.001,-959.253 338.025,-959.253 "/>
<text text-anchor="start" x="180.001" y="-947.253" font-family="Monaco" font-size="10.00">+ ~IDescription()</text>
<text text-anchor="start" x="180.001" y="-933.918" font-family="Monaco" font-size="10.00">+ getCaption()</text>
<text text-anchor="start" x="180.001" y="-920.583" font-family="Monaco" font-size="10.00">+ setCaption()</text>
<text text-anchor="start" x="180.001" y="-907.248" font-family="Monaco" font-size="10.00">+ getDescription()</text>
<text text-anchor="start" x="180.001" y="-893.913" font-family="Monaco" font-size="10.00">+ setDescription()</text>
</a>
</g>
</g>
<!-- Node4&#45;&gt;Node2 -->
<g id="edge3" class="edge"><title>Node4&#45;&gt;Node2</title>
<path fill="none" stroke="midnightblue" d="M200.308,-876.716C192.45,-867.303 184.249,-857.479 176.069,-847.68"/>
<polygon fill="none" stroke="midnightblue" points="197.725,-879.083 206.82,-884.517 203.098,-874.598 197.725,-879.083"/>
</g>
<!-- Node6 -->
<g id="node6" class="node"><title>Node6</title>
<g id="a_node6"><a xlink:href="class_hydro_couple_1_1_i_identity.html" target="_top" xlink:title="IIdentity interface class defines a method to get the Id of an HydroCouple entity. ">
<polygon fill="white" stroke="black" points="207.002,-703.563 207.002,-807.573 355.024,-807.573 355.024,-703.563 207.002,-703.563"/>
<text text-anchor="middle" x="281.013" y="-795.573" font-family="Monaco" font-size="10.00">HydroCouple::IIdentity</text>
<polyline fill="none" stroke="black" points="207.002,-786.238 355.024,-786.238 "/>
<text text-anchor="middle" x="281.013" y="-774.238" font-family="Monaco" font-size="10.00"> </text>
<polyline fill="none" stroke="black" points="207.002,-764.903 355.024,-764.903 "/>
<text text-anchor="start" x="215.002" y="-752.903" font-family="Monaco" font-size="10.00">+ ~IIdentity()</text>
<text text-anchor="start" x="215.002" y="-739.568" font-family="Monaco" font-size="10.00">+ MPI_Comm()</text>
<text text-anchor="start" x="215.002" y="-726.233" font-family="Monaco" font-size="10.00">+ MPI_Rank()</text>
<text text-anchor="start" x="215.002" y="-712.898" font-family="Monaco" font-size="10.00">+ id()</text>
</a>
</g>
</g>
<!-- Node4&#45;&gt;Node6 -->
<g id="edge6" class="edge"><title>Node4&#45;&gt;Node6</title>
<path fill="none" stroke="midnightblue" d="M264.495,-874.535C267.587,-852.451 270.967,-828.316 273.859,-807.662"/>
<polygon fill="none" stroke="midnightblue" points="261.018,-874.129 263.097,-884.517 267.95,-875.099 261.018,-874.129"/>
</g>
<!-- Node5 -->
<g id="node5" class="node"><title>Node5</title>
<g id="a_node5"><a xlink:href="class_hydro_couple_1_1_i_property_changed.html" target="_top" xlink:title="IPropertyChanged interface is used to emit signal/event when a property of an object changes...">
<polygon fill="white" stroke="black" points="159.999,-1038.92 159.999,-1102.93 350.027,-1102.93 350.027,-1038.92 159.999,-1038.92"/>
<text text-anchor="middle" x="255.013" y="-1090.93" font-family="Monaco" font-size="10.00">HydroCouple::IPropertyChanged</text>
<polyline fill="none" stroke="black" points="159.999,-1081.59 350.027,-1081.59 "/>
<text text-anchor="middle" x="255.013" y="-1069.59" font-family="Monaco" font-size="10.00"> </text>
<polyline fill="none" stroke="black" points="159.999,-1060.26 350.027,-1060.26 "/>
<text text-anchor="start" x="167.999" y="-1048.26" font-family="Monaco" font-size="10.00">+ ~IPropertyChanged()</text>
</a>
</g>
</g>
<!-- Node5&#45;&gt;Node4 -->
<g id="edge4" class="edge"><title>Node5&#45;&gt;Node4</title>
<path fill="none" stroke="midnightblue" d="M255.013,-1028.6C255.013,-1020.22 255.013,-1011.25 255.013,-1002.41"/>
<polygon fill="none" stroke="midnightblue" points="251.513,-1028.86 255.013,-1038.86 258.513,-1028.86 251.513,-1028.86"/>
</g>
<!-- Node6&#45;&gt;Node1 -->
<g id="edge5" class="edge"><title>Node6&#45;&gt;Node1</title>
<path fill="none" stroke="midnightblue" d="M251.449,-694.244C240.842,-672.601 228.913,-648.259 218.407,-626.823"/>
<polygon fill="none" stroke="midnightblue" points="248.362,-695.899 255.906,-703.338 254.648,-692.818 248.362,-695.899"/>
</g>
<!-- Node9 -->
<g id="node9" class="node"><title>Node9</title>
<g id="a_node9"><a xlink:href="class_hydro_couple_s_d_k_1_1_model_component_info.html" target="_top" xlink:title="The ModelComponentInfo class. ">
<polygon fill="white" stroke="black" points="180.997,-0.5 180.997,-64.5049 401.03,-64.5049 401.03,-0.5 180.997,-0.5"/>
<text text-anchor="middle" x="291.013" y="-52.5049" font-family="Monaco" font-size="10.00">HydroCoupleSDK::ModelComponentInfo</text>
<polyline fill="none" stroke="black" points="180.997,-43.1699 401.03,-43.1699 "/>
<text text-anchor="middle" x="291.013" y="-31.1699" font-family="Monaco" font-size="10.00"> </text>
<polyline fill="none" stroke="black" points="180.997,-21.835 401.03,-21.835 "/>
<text text-anchor="middle" x="291.013" y="-9.83496" font-family="Monaco" font-size="10.00"> </text>
</a>
</g>
</g>
<!-- Node8&#45;&gt;Node9 -->
<g id="edge9" class="edge"><title>Node8&#45;&gt;Node9</title>
<path fill="none" stroke="midnightblue" d="M291.013,-91.3936C291.013,-81.5749 291.013,-72.5457 291.013,-64.6846"/>
<polygon fill="none" stroke="midnightblue" points="287.513,-91.4614 291.013,-101.461 294.513,-91.4615 287.513,-91.4614"/>
</g>
</g>
</svg>
        <g id="navigator" transform="translate(0 0)" fill="#404254">
                <rect fill="#f2f5e9" fill-opacity="0.5" stroke="#606060" stroke-width=".5" x="0" y="0" width="60" height="60"/>
                <use id="zoomplus" xlink:href="#zoomPlus" x="17" y="9" onmousedown="handleZoom(evt,'in')"/>
                <use id="zoomminus" xlink:href="#zoomMin" x="42" y="9" onmousedown="handleZoom(evt,'out')"/>
                <use id="reset" xlink:href="#resetDef" x="30" y="36" onmousedown="handleReset()"/>
                <g id="arrowUp" xlink:href="#dirArrow" transform="translate(30 24)" onmousedown="handlePan(0,-1)">
                  <use xlink:href="#rim" fill="#404040">
                        <set attributeName="fill" to="#808080" begin="arrowUp.mouseover" end="arrowUp.mouseout"/>
                  </use>
                  <path fill="none" stroke="white" stroke-width="1.5" d="M0,-3.0v7 M-2.5,-0.5L0,-3.0L2.5,-0.5"/>
                </g>
                <g id="arrowRight" xlink:href="#dirArrow" transform="rotate(90) translate(36 -43)" onmousedown="handlePan(1,0)">
                  <use xlink:href="#rim" fill="#404040">
                        <set attributeName="fill" to="#808080" begin="arrowRight.mouseover" end="arrowRight.mouseout"/>
                  </use>
                  <path fill="none" stroke="white" stroke-width="1.5" d="M0,-3.0v7 M-2.5,-0.5L0,-3.0L2.5,-0.5"/>
                </g>
                <g id="arrowDown" xlink:href="#dirArrow" transform="rotate(180) translate(-30 -48)" onmousedown="handlePan(0,1)">
                  <use xlink:href="#rim" fill="#404040">
                        <set attributeName="fill" to="#808080" begin="arrowDown.mouseover" end="arrowDown.mouseout"/>
                  </use>
                  <path fill="none" stroke="white" stroke-width="1.5" d="M0,-3.0v7 M-2.5,-0.5L0,-3.0L2.5,-0.5"/>
                </g>
                <g id="arrowLeft" xlink:href="#dirArrow" transform="rotate(270) translate(-36 17)" onmousedown="handlePan(-1,0)">
                  <use xlink:href="#rim" fill="#404040">
                        <set attributeName="fill" to="#808080" begin="arrowLeft.mouseover" end="arrowLeft.mouseout"/>
                  </use>
                  <path fill="none" stroke="white" stroke-width="1.5" d="M0,-3.0v7 M-2.5,-0.5L0,-3.0L2.5,-0.5"/>
                </g>
        </g>
        <svg viewBox="0 0 15 15" width="100%" height="30px" preserveAspectRatio="xMaxYMin meet">
         <g id="arrow_out" transform="scale(0.3 0.3)">
          <a xlink:href="class_hydro_couple_s_d_k_1_1_identity__inherit__graph_org.svg" target="_base">
           <rect id="button" ry="5" rx="5" y="6" x="6" height="38" width="38"
                fill="#f2f5e9" fill-opacity="0.5" stroke="#606060" stroke-width="1.0"/>
           <path id="arrow"
             d="M 11.500037,31.436501 C 11.940474,20.09759 22.043105,11.32322 32.158766,21.979434 L 37.068811,17.246167 C 37.068811,17.246167 37.088388,32 37.088388,32 L 22.160133,31.978069 C 22.160133,31.978069 26.997745,27.140456 26.997745,27.140456 C 18.528582,18.264221 13.291696,25.230495 11.500037,31.436501 z"
             style="fill:#404040;"/>
          </a>
         </g>
        </svg>
</svg>
