<?xml version="1.0" encoding="UTF-8" standalone="no"?>
<!DOCTYPE svg PUBLIC "-//W3C//DTD SVG 1.1//EN"
 "http://www.w3.org/Graphics/SVG/1.1/DTD/svg11.dtd">
<!-- Generated by graphviz version 2.38.0 (20140413.2041)
 -->
<!-- Title: HydroCouple::Data::IComponentItem Pages: 1 -->
<svg width="169pt" height="416pt"
 viewBox="0.00 0.00 169.08 416.00" xmlns="http://www.w3.org/2000/svg" xmlns:xlink="http://www.w3.org/1999/xlink">
<g id="graph0" class="graph" transform="scale(1 1) rotate(0) translate(4 412)">
<title>HydroCouple::Data::IComponentItem</title>
<polygon fill="white" stroke="none" points="-4,4 -4,-412 165.083,-412 165.083,4 -4,4"/>
<!-- Node1 -->
<g id="node1" class="node"><title>Node1</title>
<polygon fill="#bfbfbf" stroke="black" points="25.0195,-0.5 25.0195,-84.5 136.063,-84.5 136.063,-0.5 25.0195,-0.5"/>
<text text-anchor="start" x="33.0195" y="-72.5" font-family="Helvetica,sans-Serif" font-size="10.00">HydroCouple::Data::</text>
<text text-anchor="middle" x="80.5415" y="-62.5" font-family="Helvetica,sans-Serif" font-size="10.00">IComponentItem</text>
<polyline fill="none" stroke="black" points="25.0195,-56.5 136.063,-56.5 "/>
<text text-anchor="middle" x="80.5415" y="-44.5" font-family="Helvetica,sans-Serif" font-size="10.00"> </text>
<polyline fill="none" stroke="black" points="25.0195,-38.5 136.063,-38.5 "/>
<text text-anchor="start" x="33.0195" y="-26.5" font-family="Helvetica,sans-Serif" font-size="10.00">+ ~IComponentItem()</text>
<text text-anchor="start" x="33.0195" y="-16.5" font-family="Helvetica,sans-Serif" font-size="10.00">+ modelComponent()</text>
<text text-anchor="start" x="33.0195" y="-6.5" font-family="Helvetica,sans-Serif" font-size="10.00">+ dimensions()</text>
</g>
<!-- Node2 -->
<g id="node2" class="node"><title>Node2</title>
<g id="a_node2"><a xlink:href="class_hydro_couple_1_1_i_identity.html" target="_top" xlink:title="IIdentity interface class defines a method to get the Id of an HydroCouple entity. &#160;IIdentity extends the IDescription interface class, and therefore has, next to the id, a caption and a description. ">
<polygon fill="white" stroke="black" points="23.0713,-121.5 23.0713,-185.5 138.012,-185.5 138.012,-121.5 23.0713,-121.5"/>
<text text-anchor="middle" x="80.5415" y="-173.5" font-family="Helvetica,sans-Serif" font-size="10.00">HydroCouple::IIdentity</text>
<polyline fill="none" stroke="black" points="23.0713,-167.5 138.012,-167.5 "/>
<text text-anchor="middle" x="80.5415" y="-155.5" font-family="Helvetica,sans-Serif" font-size="10.00"> </text>
<polyline fill="none" stroke="black" points="23.0713,-149.5 138.012,-149.5 "/>
<text text-anchor="start" x="31.0713" y="-137.5" font-family="Helvetica,sans-Serif" font-size="10.00">+ ~IIdentity()</text>
<text text-anchor="start" x="31.0713" y="-127.5" font-family="Helvetica,sans-Serif" font-size="10.00">+ id()</text>
</a>
</g>
</g>
<!-- Node2&#45;&gt;Node1 -->
<g id="edge1" class="edge"><title>Node2&#45;&gt;Node1</title>
<path fill="none" stroke="midnightblue" d="M80.5415,-111.263C80.5415,-102.503 80.5415,-93.2551 80.5415,-84.5032"/>
<polygon fill="none" stroke="midnightblue" points="77.0416,-111.265 80.5415,-121.265 84.0416,-111.265 77.0416,-111.265"/>
</g>
<!-- Node3 -->
<g id="node3" class="node"><title>Node3</title>
<g id="a_node3"><a xlink:href="class_hydro_couple_1_1_i_description.html" target="_top" xlink:title="IDescription interface class provides descriptive information on a HydroCouple object. ">
<polygon fill="white" stroke="black" points="14.1821,-222.5 14.1821,-316.5 146.901,-316.5 146.901,-222.5 14.1821,-222.5"/>
<text text-anchor="middle" x="80.5415" y="-304.5" font-family="Helvetica,sans-Serif" font-size="10.00">HydroCouple::IDescription</text>
<polyline fill="none" stroke="black" points="14.1821,-298.5 146.901,-298.5 "/>
<text text-anchor="middle" x="80.5415" y="-286.5" font-family="Helvetica,sans-Serif" font-size="10.00"> </text>
<polyline fill="none" stroke="black" points="14.1821,-280.5 146.901,-280.5 "/>
<text text-anchor="start" x="22.1821" y="-268.5" font-family="Helvetica,sans-Serif" font-size="10.00">+ ~IDescription()</text>
<text text-anchor="start" x="22.1821" y="-258.5" font-family="Helvetica,sans-Serif" font-size="10.00">+ getCaption()</text>
<text text-anchor="start" x="22.1821" y="-248.5" font-family="Helvetica,sans-Serif" font-size="10.00">+ setCaption()</text>
<text text-anchor="start" x="22.1821" y="-238.5" font-family="Helvetica,sans-Serif" font-size="10.00">+ getDescription()</text>
<text text-anchor="start" x="22.1821" y="-228.5" font-family="Helvetica,sans-Serif" font-size="10.00">+ setDescription()</text>
</a>
</g>
</g>
<!-- Node3&#45;&gt;Node2 -->
<g id="edge2" class="edge"><title>Node3&#45;&gt;Node2</title>
<path fill="none" stroke="midnightblue" d="M80.5415,-212.212C80.5415,-203.081 80.5415,-193.926 80.5415,-185.684"/>
<polygon fill="none" stroke="midnightblue" points="77.0416,-212.46 80.5415,-222.46 84.0416,-212.46 77.0416,-212.46"/>
</g>
<!-- Node4 -->
<g id="node4" class="node"><title>Node4</title>
<g id="a_node4"><a xlink:href="class_hydro_couple_1_1_i_property_changed.html" target="_top" xlink:title="IPropertyChanged interface is used to emit signal/event when a property of an object changes...">
<polygon fill="white" stroke="black" points="0,-353.5 0,-407.5 161.083,-407.5 161.083,-353.5 0,-353.5"/>
<text text-anchor="middle" x="80.5415" y="-395.5" font-family="Helvetica,sans-Serif" font-size="10.00">HydroCouple::IPropertyChanged</text>
<polyline fill="none" stroke="black" points="0,-389.5 161.083,-389.5 "/>
<text text-anchor="middle" x="80.5415" y="-377.5" font-family="Helvetica,sans-Serif" font-size="10.00"> </text>
<polyline fill="none" stroke="black" points="0,-371.5 161.083,-371.5 "/>
<text text-anchor="start" x="8" y="-359.5" font-family="Helvetica,sans-Serif" font-size="10.00">+ ~IPropertyChanged()</text>
</a>
</g>
</g>
<!-- Node4&#45;&gt;Node3 -->
<g id="edge3" class="edge"><title>Node4&#45;&gt;Node3</title>
<path fill="none" stroke="midnightblue" d="M80.5415,-343.141C80.5415,-334.716 80.5415,-325.639 80.5415,-316.851"/>
<polygon fill="none" stroke="midnightblue" points="77.0416,-343.392 80.5415,-353.392 84.0416,-343.392 77.0416,-343.392"/>
</g>
</g>
</svg>
