<?xml version="1.0" encoding="UTF-8" standalone="no"?>
<!DOCTYPE svg PUBLIC "-//W3C//DTD SVG 1.1//EN"
 "http://www.w3.org/Graphics/SVG/1.1/DTD/svg11.dtd">
<!-- Generated by graphviz version 2.38.0 (20140413.2041)
 -->
<!-- Title: HydroCoupleCore::IComponentInfo Pages: 1 -->
<!--zoomable 637 -->
<svg id="main" version="1.1" xmlns="http://www.w3.org/2000/svg" xmlns:xlink="http://www.w3.org/1999/xlink" xml:space="preserve" onload="init(evt)">
<style type="text/css"><![CDATA[
.edge:hover path { stroke: red; }
.edge:hover polygon { stroke: red; fill: red; }
]]></style>
<script type="text/javascript"><![CDATA[
var edges = document.getElementsByTagName('g');
if (edges && edges.length) {
  for (var i=0;i<edges.length;i++) {
    if (edges[i].id.substr(0,4)=='edge') {
      edges[i].setAttribute('class','edge');
    }
  }
}
]]></script>
        <defs>
                <circle id="rim" cx="0" cy="0" r="7"/>
                <circle id="rim2" cx="0" cy="0" r="3.5"/>
                <g id="zoomPlus">
                        <use xlink:href="#rim" fill="#404040">
                                <set attributeName="fill" to="#808080" begin="zoomplus.mouseover" end="zoomplus.mouseout"/>
                        </use>
                        <path d="M-4,0h8M0,-4v8" fill="none" stroke="white" stroke-width="1.5" pointer-events="none"/>
                </g>
                <g id="zoomMin">
                        <use xlink:href="#rim" fill="#404040">
                                <set attributeName="fill" to="#808080" begin="zoomminus.mouseover" end="zoomminus.mouseout"/>
                        </use>
                        <path d="M-4,0h8" fill="none" stroke="white" stroke-width="1.5" pointer-events="none"/>
                </g>
                <g id="dirArrow">
                        <path fill="none" stroke="white" stroke-width="1.5" d="M0,-3.0v7 M-2.5,-0.5L0,-3.0L2.5,-0.5"/>
                </g>
               <g id="resetDef">
                       <use xlink:href="#rim2" fill="#404040">
                               <set attributeName="fill" to="#808080" begin="reset.mouseover" end="reset.mouseout"/>
                       </use>
               </g>
        </defs>

<script type="text/javascript">
var viewWidth = 434;
var viewHeight = 637;
var sectionId = 'dynsection-0';
</script>
<script xlink:href="svgpan.js"/>
<svg id="graph" class="graph">
<g id="viewport">
<title>HydroCoupleCore::IComponentInfo</title>
<polygon fill="white" stroke="none" points="-4,4 -4,-633 430.44,-633 430.44,4 -4,4"/>
<!-- Node1 -->
<g id="node1" class="node"><title>Node1</title>
<polygon fill="#bfbfbf" stroke="black" points="129.069,-111.5 129.069,-295.5 301.822,-295.5 301.822,-111.5 129.069,-111.5"/>
<text text-anchor="middle" x="215.445" y="-283.5" font-family="Helvetica,sans-Serif" font-size="10.00">HydroCoupleCore::IComponentInfo</text>
<polyline fill="none" stroke="black" points="129.069,-277.5 301.822,-277.5 "/>
<text text-anchor="middle" x="215.445" y="-265.5" font-family="Helvetica,sans-Serif" font-size="10.00"> </text>
<polyline fill="none" stroke="black" points="129.069,-259.5 301.822,-259.5 "/>
<text text-anchor="start" x="137.069" y="-247.5" font-family="Helvetica,sans-Serif" font-size="10.00">+ ~IComponentInfo()</text>
<text text-anchor="start" x="137.069" y="-237.5" font-family="Helvetica,sans-Serif" font-size="10.00">+ name()</text>
<text text-anchor="start" x="137.069" y="-227.5" font-family="Helvetica,sans-Serif" font-size="10.00">+ libraryFilePath()</text>
<text text-anchor="start" x="137.069" y="-217.5" font-family="Helvetica,sans-Serif" font-size="10.00">+ setLibraryFilePath()</text>
<text text-anchor="start" x="137.069" y="-207.5" font-family="Helvetica,sans-Serif" font-size="10.00">+ iconFilePath()</text>
<text text-anchor="start" x="137.069" y="-197.5" font-family="Helvetica,sans-Serif" font-size="10.00">+ vendor()</text>
<text text-anchor="start" x="137.069" y="-187.5" font-family="Helvetica,sans-Serif" font-size="10.00">+ publications()</text>
<text text-anchor="start" x="137.069" y="-177.5" font-family="Helvetica,sans-Serif" font-size="10.00">+ license()</text>
<text text-anchor="start" x="137.069" y="-167.5" font-family="Helvetica,sans-Serif" font-size="10.00">+ copyright()</text>
<text text-anchor="start" x="137.069" y="-157.5" font-family="Helvetica,sans-Serif" font-size="10.00">+ url()</text>
<text text-anchor="start" x="137.069" y="-147.5" font-family="Helvetica,sans-Serif" font-size="10.00">+ email()</text>
<text text-anchor="start" x="137.069" y="-137.5" font-family="Helvetica,sans-Serif" font-size="10.00">+ version()</text>
<text text-anchor="start" x="137.069" y="-127.5" font-family="Helvetica,sans-Serif" font-size="10.00">+ category()</text>
<text text-anchor="start" x="137.069" y="-117.5" font-family="Helvetica,sans-Serif" font-size="10.00">+ hasValidLicense()</text>
</g>
<!-- Node5 -->
<g id="node5" class="node"><title>Node5</title>
<g id="a_node5"><a xlink:href="class_hydro_couple_core_1_1_data_1_1_i_adapted_output_factory_component_info.html" target="_top" xlink:title="IAdaptedOutputFactoryComponentInfo interface class provides information about an IAdaptedOutputFactor...">
<polygon fill="white" stroke="black" points="0,-0.5 0,-74.5 208.891,-74.5 208.891,-0.5 0,-0.5"/>
<text text-anchor="start" x="8" y="-62.5" font-family="Helvetica,sans-Serif" font-size="10.00">HydroCoupleCore::Data</text>
<text text-anchor="middle" x="104.445" y="-52.5" font-family="Helvetica,sans-Serif" font-size="10.00">::IAdaptedOutputFactoryComponentInfo</text>
<polyline fill="none" stroke="black" points="0,-46.5 208.891,-46.5 "/>
<text text-anchor="middle" x="104.445" y="-34.5" font-family="Helvetica,sans-Serif" font-size="10.00"> </text>
<polyline fill="none" stroke="black" points="0,-28.5 208.891,-28.5 "/>
<text text-anchor="start" x="8" y="-16.5" font-family="Helvetica,sans-Serif" font-size="10.00">+ ~IAdaptedOutputFactoryComponentInfo()</text>
<text text-anchor="start" x="8" y="-6.5" font-family="Helvetica,sans-Serif" font-size="10.00">+ createComponentInstance()</text>
</a>
</g>
</g>
<!-- Node1&#45;&gt;Node5 -->
<g id="edge4" class="edge"><title>Node1&#45;&gt;Node5</title>
<path fill="none" stroke="midnightblue" d="M148.054,-102.931C141.297,-92.9479 134.787,-83.3297 128.951,-74.7062"/>
<polygon fill="none" stroke="midnightblue" points="145.274,-105.068 153.778,-111.388 151.071,-101.145 145.274,-105.068"/>
</g>
<!-- Node6 -->
<g id="node6" class="node"><title>Node6</title>
<g id="a_node6"><a xlink:href="class_hydro_couple_core_1_1_i_model_component_info.html" target="_top" xlink:title="IModelComponentInfo interface inherits from the IComponentInfo interface which provides detailed meta...">
<polygon fill="white" stroke="black" points="226.451,-5.5 226.451,-69.5 426.44,-69.5 426.44,-5.5 226.451,-5.5"/>
<text text-anchor="middle" x="326.445" y="-57.5" font-family="Helvetica,sans-Serif" font-size="10.00">HydroCoupleCore::IModelComponentInfo</text>
<polyline fill="none" stroke="black" points="226.451,-51.5 426.44,-51.5 "/>
<text text-anchor="middle" x="326.445" y="-39.5" font-family="Helvetica,sans-Serif" font-size="10.00"> </text>
<polyline fill="none" stroke="black" points="226.451,-33.5 426.44,-33.5 "/>
<text text-anchor="start" x="234.451" y="-21.5" font-family="Helvetica,sans-Serif" font-size="10.00">+ ~IModelComponentInfo()</text>
<text text-anchor="start" x="234.451" y="-11.5" font-family="Helvetica,sans-Serif" font-size="10.00">+ createComponentInstance()</text>
</a>
</g>
</g>
<!-- Node1&#45;&gt;Node6 -->
<g id="edge5" class="edge"><title>Node1&#45;&gt;Node6</title>
<path fill="none" stroke="midnightblue" d="M282.8,-102.985C290.946,-90.9497 298.734,-79.4425 305.418,-69.5671"/>
<polygon fill="none" stroke="midnightblue" points="279.819,-101.145 277.113,-111.388 285.616,-105.068 279.819,-101.145"/>
</g>
<!-- Node2 -->
<g id="node2" class="node"><title>Node2</title>
<g id="a_node2"><a xlink:href="class_hydro_couple_core_1_1_i_identity.html" target="_top" xlink:title="IIdentity interface class defines a method to get the Id of an HydroCouple entity. &#160;IIdentity extends the IDescription interface class, and therefore has, next to the id, a caption and a description. ">
<polygon fill="white" stroke="black" points="147.138,-332.5 147.138,-396.5 283.753,-396.5 283.753,-332.5 147.138,-332.5"/>
<text text-anchor="middle" x="215.445" y="-384.5" font-family="Helvetica,sans-Serif" font-size="10.00">HydroCoupleCore::IIdentity</text>
<polyline fill="none" stroke="black" points="147.138,-378.5 283.753,-378.5 "/>
<text text-anchor="middle" x="215.445" y="-366.5" font-family="Helvetica,sans-Serif" font-size="10.00"> </text>
<polyline fill="none" stroke="black" points="147.138,-360.5 283.753,-360.5 "/>
<text text-anchor="start" x="155.138" y="-348.5" font-family="Helvetica,sans-Serif" font-size="10.00">+ ~IIdentity()</text>
<text text-anchor="start" x="155.138" y="-338.5" font-family="Helvetica,sans-Serif" font-size="10.00">+ id()</text>
</a>
</g>
</g>
<!-- Node2&#45;&gt;Node1 -->
<g id="edge1" class="edge"><title>Node2&#45;&gt;Node1</title>
<path fill="none" stroke="midnightblue" d="M215.445,-322.332C215.445,-313.988 215.445,-304.903 215.445,-295.601"/>
<polygon fill="none" stroke="midnightblue" points="211.945,-322.466 215.445,-332.466 218.945,-322.466 211.945,-322.466"/>
</g>
<!-- Node3 -->
<g id="node3" class="node"><title>Node3</title>
<g id="a_node3"><a xlink:href="class_hydro_couple_core_1_1_i_description.html" target="_top" xlink:title="IDescription interface class provides descriptive information on a HydroCouple object. ">
<polygon fill="white" stroke="black" points="138.249,-433.5 138.249,-527.5 292.642,-527.5 292.642,-433.5 138.249,-433.5"/>
<text text-anchor="middle" x="215.445" y="-515.5" font-family="Helvetica,sans-Serif" font-size="10.00">HydroCoupleCore::IDescription</text>
<polyline fill="none" stroke="black" points="138.249,-509.5 292.642,-509.5 "/>
<text text-anchor="middle" x="215.445" y="-497.5" font-family="Helvetica,sans-Serif" font-size="10.00"> </text>
<polyline fill="none" stroke="black" points="138.249,-491.5 292.642,-491.5 "/>
<text text-anchor="start" x="146.249" y="-479.5" font-family="Helvetica,sans-Serif" font-size="10.00">+ ~IDescription()</text>
<text text-anchor="start" x="146.249" y="-469.5" font-family="Helvetica,sans-Serif" font-size="10.00">+ getCaption()</text>
<text text-anchor="start" x="146.249" y="-459.5" font-family="Helvetica,sans-Serif" font-size="10.00">+ setCaption()</text>
<text text-anchor="start" x="146.249" y="-449.5" font-family="Helvetica,sans-Serif" font-size="10.00">+ getDescription()</text>
<text text-anchor="start" x="146.249" y="-439.5" font-family="Helvetica,sans-Serif" font-size="10.00">+ setDescription()</text>
</a>
</g>
</g>
<!-- Node3&#45;&gt;Node2 -->
<g id="edge2" class="edge"><title>Node3&#45;&gt;Node2</title>
<path fill="none" stroke="midnightblue" d="M215.445,-423.212C215.445,-414.081 215.445,-404.926 215.445,-396.684"/>
<polygon fill="none" stroke="midnightblue" points="211.945,-423.46 215.445,-433.46 218.945,-423.46 211.945,-423.46"/>
</g>
<!-- Node4 -->
<g id="node4" class="node"><title>Node4</title>
<g id="a_node4"><a xlink:href="class_hydro_couple_core_1_1_i_property_changed.html" target="_top" xlink:title="IPropertyChanged interface is used to emit signal/event when a property of an object changes...">
<polygon fill="white" stroke="black" points="144.362,-564.5 144.362,-628.5 286.529,-628.5 286.529,-564.5 144.362,-564.5"/>
<text text-anchor="start" x="152.362" y="-616.5" font-family="Helvetica,sans-Serif" font-size="10.00">HydroCoupleCore::IProperty</text>
<text text-anchor="middle" x="215.445" y="-606.5" font-family="Helvetica,sans-Serif" font-size="10.00">Changed</text>
<polyline fill="none" stroke="black" points="144.362,-600.5 286.529,-600.5 "/>
<text text-anchor="middle" x="215.445" y="-588.5" font-family="Helvetica,sans-Serif" font-size="10.00"> </text>
<polyline fill="none" stroke="black" points="144.362,-582.5 286.529,-582.5 "/>
<text text-anchor="start" x="152.362" y="-570.5" font-family="Helvetica,sans-Serif" font-size="10.00">+ ~IPropertyChanged()</text>
</a>
</g>
</g>
<!-- Node4&#45;&gt;Node3 -->
<g id="edge3" class="edge"><title>Node4&#45;&gt;Node3</title>
<path fill="none" stroke="midnightblue" d="M215.445,-554.141C215.445,-545.513 215.445,-536.367 215.445,-527.581"/>
<polygon fill="none" stroke="midnightblue" points="211.945,-554.349 215.445,-564.349 218.945,-554.349 211.945,-554.349"/>
</g>
</g>
</svg>
        <g id="navigator" transform="translate(0 0)" fill="#404254">
                <rect fill="#f2f5e9" fill-opacity="0.5" stroke="#606060" stroke-width=".5" x="0" y="0" width="60" height="60"/>
                <use id="zoomplus" xlink:href="#zoomPlus" x="17" y="9" onmousedown="handleZoom(evt,'in')"/>
                <use id="zoomminus" xlink:href="#zoomMin" x="42" y="9" onmousedown="handleZoom(evt,'out')"/>
                <use id="reset" xlink:href="#resetDef" x="30" y="36" onmousedown="handleReset()"/>
                <g id="arrowUp" xlink:href="#dirArrow" transform="translate(30 24)" onmousedown="handlePan(0,-1)">
                  <use xlink:href="#rim" fill="#404040">
                        <set attributeName="fill" to="#808080" begin="arrowUp.mouseover" end="arrowUp.mouseout"/>
                  </use>
                  <path fill="none" stroke="white" stroke-width="1.5" d="M0,-3.0v7 M-2.5,-0.5L0,-3.0L2.5,-0.5"/>
                </g>
                <g id="arrowRight" xlink:href="#dirArrow" transform="rotate(90) translate(36 -43)" onmousedown="handlePan(1,0)">
                  <use xlink:href="#rim" fill="#404040">
                        <set attributeName="fill" to="#808080" begin="arrowRight.mouseover" end="arrowRight.mouseout"/>
                  </use>
                  <path fill="none" stroke="white" stroke-width="1.5" d="M0,-3.0v7 M-2.5,-0.5L0,-3.0L2.5,-0.5"/>
                </g>
                <g id="arrowDown" xlink:href="#dirArrow" transform="rotate(180) translate(-30 -48)" onmousedown="handlePan(0,1)">
                  <use xlink:href="#rim" fill="#404040">
                        <set attributeName="fill" to="#808080" begin="arrowDown.mouseover" end="arrowDown.mouseout"/>
                  </use>
                  <path fill="none" stroke="white" stroke-width="1.5" d="M0,-3.0v7 M-2.5,-0.5L0,-3.0L2.5,-0.5"/>
                </g>
                <g id="arrowLeft" xlink:href="#dirArrow" transform="rotate(270) translate(-36 17)" onmousedown="handlePan(-1,0)">
                  <use xlink:href="#rim" fill="#404040">
                        <set attributeName="fill" to="#808080" begin="arrowLeft.mouseover" end="arrowLeft.mouseout"/>
                  </use>
                  <path fill="none" stroke="white" stroke-width="1.5" d="M0,-3.0v7 M-2.5,-0.5L0,-3.0L2.5,-0.5"/>
                </g>
        </g>
        <svg viewBox="0 0 15 15" width="100%" height="30px" preserveAspectRatio="xMaxYMin meet">
         <g id="arrow_out" transform="scale(0.3 0.3)">
          <a xlink:href="class_hydro_couple_core_1_1_i_component_info__inherit__graph_org.svg" target="_base">
           <rect id="button" ry="5" rx="5" y="6" x="6" height="38" width="38"
                fill="#f2f5e9" fill-opacity="0.5" stroke="#606060" stroke-width="1.0"/>
           <path id="arrow"
             d="M 11.500037,31.436501 C 11.940474,20.09759 22.043105,11.32322 32.158766,21.979434 L 37.068811,17.246167 C 37.068811,17.246167 37.088388,32 37.088388,32 L 22.160133,31.978069 C 22.160133,31.978069 26.997745,27.140456 26.997745,27.140456 C 18.528582,18.264221 13.291696,25.230495 11.500037,31.436501 z"
             style="fill:#404040;"/>
          </a>
         </g>
        </svg>
</svg>
