<?xml version="1.0" encoding="UTF-8" standalone="no"?>
<!DOCTYPE svg PUBLIC "-//W3C//DTD SVG 1.1//EN"
 "http://www.w3.org/Graphics/SVG/1.1/DTD/svg11.dtd">
<!-- Generated by graphviz version 2.38.0 (20140413.2041)
 -->
<!-- Title: HydroCouple::Spatial::ISpatialReferenceSystem Pages: 1 -->
<svg width="198pt" height="496pt"
 viewBox="0.00 0.00 198.03 496.03" xmlns="http://www.w3.org/2000/svg" xmlns:xlink="http://www.w3.org/1999/xlink">
<g id="graph0" class="graph" transform="scale(1 1) rotate(0) translate(4 492.034)">
<title>HydroCouple::Spatial::ISpatialReferenceSystem</title>
<!-- Node1 -->
<g id="node1" class="node"><title>Node1</title>
<polygon fill="#bfbfbf" stroke="black" points="3.00049,-0.5 3.00049,-117.845 187.028,-117.845 187.028,-0.5 3.00049,-0.5"/>
<text text-anchor="start" x="11.0005" y="-105.845" font-family="Monaco" font-size="10.00">HydroCouple::Spatial</text>
<text text-anchor="middle" x="95.0142" y="-92.5098" font-family="Monaco" font-size="10.00">::ISpatialReferenceSystem</text>
<polyline fill="none" stroke="black" points="3.00049,-83.1748 187.028,-83.1748 "/>
<text text-anchor="middle" x="95.0142" y="-71.1748" font-family="Monaco" font-size="10.00"> </text>
<polyline fill="none" stroke="black" points="3.00049,-61.8398 187.028,-61.8398 "/>
<text text-anchor="start" x="11.0005" y="-49.8398" font-family="Monaco" font-size="10.00">+ ~ISpatialReferenceSystem()</text>
<text text-anchor="start" x="11.0005" y="-36.5049" font-family="Monaco" font-size="10.00">+ authSRID()</text>
<text text-anchor="start" x="11.0005" y="-23.1699" font-family="Monaco" font-size="10.00">+ authName()</text>
<text text-anchor="start" x="11.0005" y="-9.83496" font-family="Monaco" font-size="10.00">+ srText()</text>
</g>
<!-- Node2 -->
<g id="node2" class="node"><title>Node2</title>
<g id="a_node2"><a xlink:href="class_hydro_couple_1_1_i_identity.html" target="_top" xlink:title="IIdentity interface class defines a method to get the Id of an HydroCouple entity. ">
<polygon fill="none" stroke="black" points="21.0034,-154.845 21.0034,-232.185 169.025,-232.185 169.025,-154.845 21.0034,-154.845"/>
<text text-anchor="middle" x="95.0142" y="-220.185" font-family="Monaco" font-size="10.00">HydroCouple::IIdentity</text>
<polyline fill="none" stroke="black" points="21.0034,-210.85 169.025,-210.85 "/>
<text text-anchor="middle" x="95.0142" y="-198.85" font-family="Monaco" font-size="10.00"> </text>
<polyline fill="none" stroke="black" points="21.0034,-189.515 169.025,-189.515 "/>
<text text-anchor="start" x="29.0034" y="-177.515" font-family="Monaco" font-size="10.00">+ ~IIdentity()</text>
<text text-anchor="start" x="29.0034" y="-164.18" font-family="Monaco" font-size="10.00">+ id()</text>
</a>
</g>
</g>
<!-- Node2&#45;&gt;Node1 -->
<g id="edge1" class="edge"><title>Node2&#45;&gt;Node1</title>
<path fill="none" stroke="midnightblue" d="M95.0142,-144.35C95.0142,-135.74 95.0142,-126.69 95.0142,-117.845"/>
<polygon fill="none" stroke="midnightblue" points="91.5143,-144.591 95.0142,-154.591 98.5143,-144.591 91.5143,-144.591"/>
</g>
<!-- Node3 -->
<g id="node3" class="node"><title>Node3</title>
<g id="a_node3"><a xlink:href="class_hydro_couple_1_1_i_description.html" target="_top" xlink:title="IDescription interface class provides descriptive information on a HydroCouple object. ">
<polygon fill="none" stroke="black" points="12.002,-269.185 12.002,-386.529 178.026,-386.529 178.026,-269.185 12.002,-269.185"/>
<text text-anchor="middle" x="95.0142" y="-374.529" font-family="Monaco" font-size="10.00">HydroCouple::IDescription</text>
<polyline fill="none" stroke="black" points="12.002,-365.194 178.026,-365.194 "/>
<text text-anchor="middle" x="95.0142" y="-353.194" font-family="Monaco" font-size="10.00"> </text>
<polyline fill="none" stroke="black" points="12.002,-343.859 178.026,-343.859 "/>
<text text-anchor="start" x="20.002" y="-331.859" font-family="Monaco" font-size="10.00">+ ~IDescription()</text>
<text text-anchor="start" x="20.002" y="-318.524" font-family="Monaco" font-size="10.00">+ caption()</text>
<text text-anchor="start" x="20.002" y="-305.189" font-family="Monaco" font-size="10.00">+ setCaption()</text>
<text text-anchor="start" x="20.002" y="-291.854" font-family="Monaco" font-size="10.00">+ description()</text>
<text text-anchor="start" x="20.002" y="-278.52" font-family="Monaco" font-size="10.00">+ setDescription()</text>
</a>
</g>
</g>
<!-- Node3&#45;&gt;Node2 -->
<g id="edge2" class="edge"><title>Node3&#45;&gt;Node2</title>
<path fill="none" stroke="midnightblue" d="M95.0142,-258.619C95.0142,-249.58 95.0142,-240.592 95.0142,-232.332"/>
<polygon fill="none" stroke="midnightblue" points="91.5143,-258.81 95.0142,-268.81 98.5143,-258.81 91.5143,-258.81"/>
</g>
<!-- Node4 -->
<g id="node4" class="node"><title>Node4</title>
<g id="a_node4"><a xlink:href="class_hydro_couple_1_1_i_property_changed.html" target="_top" xlink:title="IPropertyChanged interface is used to emit signal/event when a property of an object changes...">
<polygon fill="none" stroke="black" points="0,-423.529 0,-487.534 190.028,-487.534 190.028,-423.529 0,-423.529"/>
<text text-anchor="middle" x="95.0142" y="-475.534" font-family="Monaco" font-size="10.00">HydroCouple::IPropertyChanged</text>
<polyline fill="none" stroke="black" points="0,-466.199 190.028,-466.199 "/>
<text text-anchor="middle" x="95.0142" y="-454.199" font-family="Monaco" font-size="10.00"> </text>
<polyline fill="none" stroke="black" points="0,-444.864 190.028,-444.864 "/>
<text text-anchor="start" x="8" y="-432.864" font-family="Monaco" font-size="10.00">+ ~IPropertyChanged()</text>
</a>
</g>
</g>
<!-- Node4&#45;&gt;Node3 -->
<g id="edge3" class="edge"><title>Node4&#45;&gt;Node3</title>
<path fill="none" stroke="midnightblue" d="M95.0142,-413.209C95.0142,-404.824 95.0142,-395.857 95.0142,-387.015"/>
<polygon fill="none" stroke="midnightblue" points="91.5143,-413.466 95.0142,-423.466 98.5143,-413.466 91.5143,-413.466"/>
</g>
</g>
</svg>
