<?xml version="1.0" encoding="UTF-8" standalone="no"?>
<!DOCTYPE svg PUBLIC "-//W3C//DTD SVG 1.1//EN"
 "http://www.w3.org/Graphics/SVG/1.1/DTD/svg11.dtd">
<!-- Generated by graphviz version 2.38.0 (20140413.2041)
 -->
<!-- Title: HydroCouple::Temporal::ITimeComponentDataItem::~ITimeComponentDataItem Pages: 1 -->
<svg width="388pt" height="206pt"
 viewBox="0.00 0.00 388.05 205.67" xmlns="http://www.w3.org/2000/svg" xmlns:xlink="http://www.w3.org/1999/xlink">
<g id="graph0" class="graph" transform="scale(1 1) rotate(0) translate(4 201.67)">
<title>HydroCouple::Temporal::ITimeComponentDataItem::~ITimeComponentDataItem</title>
<!-- Node1 -->
<g id="node1" class="node"><title>Node1</title>
<polygon fill="#bfbfbf" stroke="black" points="0,-74.8325 0,-122.837 166.024,-122.837 166.024,-74.8325 0,-74.8325"/>
<text text-anchor="start" x="8" y="-110.837" font-family="Monaco" font-size="10.00">HydroCouple::Temporal</text>
<text text-anchor="start" x="8" y="-97.5024" font-family="Monaco" font-size="10.00">::ITimeComponentDataItem</text>
<text text-anchor="middle" x="83.0122" y="-84.1675" font-family="Monaco" font-size="10.00">::~ITimeComponentDataItem</text>
</g>
<!-- Node2 -->
<g id="node2" class="node"><title>Node2</title>
<g id="a_node2"><a xlink:href="class_hydro_couple_1_1_i_component_data_item.html#a652b695e108f9e3a04f96f1207014b5f" target="_top" xlink:title="Gets a single value for given dimension indexes specified. ">
<polygon fill="none" stroke="black" points="202.024,-162.5 202.024,-197.17 380.051,-197.17 380.051,-162.5 202.024,-162.5"/>
<text text-anchor="start" x="210.024" y="-185.17" font-family="Monaco" font-size="10.00">HydroCouple::IComponentData</text>
<text text-anchor="middle" x="291.038" y="-171.835" font-family="Monaco" font-size="10.00">Item::getValue</text>
</a>
</g>
</g>
<!-- Node1&#45;&gt;Node2 -->
<g id="edge1" class="edge"><title>Node1&#45;&gt;Node2</title>
<path fill="none" stroke="midnightblue" d="M132.778,-122.897C153.812,-132.816 178.859,-144.025 202.024,-152.835 207.809,-155.035 213.857,-157.187 219.956,-159.255"/>
<polygon fill="midnightblue" stroke="midnightblue" points="218.959,-162.612 229.553,-162.431 221.159,-155.966 218.959,-162.612"/>
</g>
<!-- Node3 -->
<g id="node3" class="node"><title>Node3</title>
<g id="a_node3"><a xlink:href="class_hydro_couple_1_1_i_component_data_item.html#aed149c453986ae14c8365ee7fa7bed3d" target="_top" xlink:title="Gets a multi&#45;dimensional array of values for given dimension indexes and size for a hyperslab...">
<polygon fill="none" stroke="black" points="202.024,-108.5 202.024,-143.17 380.051,-143.17 380.051,-108.5 202.024,-108.5"/>
<text text-anchor="start" x="210.024" y="-131.17" font-family="Monaco" font-size="10.00">HydroCouple::IComponentData</text>
<text text-anchor="middle" x="291.038" y="-117.835" font-family="Monaco" font-size="10.00">Item::getValues</text>
</a>
</g>
</g>
<!-- Node1&#45;&gt;Node3 -->
<g id="edge2" class="edge"><title>Node1&#45;&gt;Node3</title>
<path fill="none" stroke="midnightblue" d="M166.031,-109.584C174.5,-110.693 183.166,-111.829 191.788,-112.959"/>
<polygon fill="midnightblue" stroke="midnightblue" points="191.504,-116.452 201.874,-114.281 192.414,-109.511 191.504,-116.452"/>
</g>
<!-- Node4 -->
<g id="node4" class="node"><title>Node4</title>
<g id="a_node4"><a xlink:href="class_hydro_couple_1_1_i_component_data_item.html#a0d2d2c003357ae04bd78c4fc7312c47c" target="_top" xlink:title="Sets a single value for given dimension indexes specified. ">
<polygon fill="none" stroke="black" points="202.024,-54.5 202.024,-89.1699 380.051,-89.1699 380.051,-54.5 202.024,-54.5"/>
<text text-anchor="start" x="210.024" y="-77.1699" font-family="Monaco" font-size="10.00">HydroCouple::IComponentData</text>
<text text-anchor="middle" x="291.038" y="-63.835" font-family="Monaco" font-size="10.00">Item::setValue</text>
</a>
</g>
</g>
<!-- Node1&#45;&gt;Node4 -->
<g id="edge3" class="edge"><title>Node1&#45;&gt;Node4</title>
<path fill="none" stroke="midnightblue" d="M166.031,-88.0863C174.5,-86.9764 183.166,-85.8407 191.788,-84.7108"/>
<polygon fill="midnightblue" stroke="midnightblue" points="192.414,-88.1588 201.874,-83.389 191.504,-81.2181 192.414,-88.1588"/>
</g>
<!-- Node5 -->
<g id="node5" class="node"><title>Node5</title>
<g id="a_node5"><a xlink:href="class_hydro_couple_1_1_i_component_data_item.html#ab51166edc999587d0427d366389eb5ad" target="_top" xlink:title="Sets a multi&#45;dimensional array of values for given dimension indexes and size for a hyperslab...">
<polygon fill="none" stroke="black" points="202.024,-0.5 202.024,-35.1699 380.051,-35.1699 380.051,-0.5 202.024,-0.5"/>
<text text-anchor="start" x="210.024" y="-23.1699" font-family="Monaco" font-size="10.00">HydroCouple::IComponentData</text>
<text text-anchor="middle" x="291.038" y="-9.83496" font-family="Monaco" font-size="10.00">Item::setValues</text>
</a>
</g>
</g>
<!-- Node1&#45;&gt;Node5 -->
<g id="edge4" class="edge"><title>Node1&#45;&gt;Node5</title>
<path fill="none" stroke="midnightblue" d="M132.778,-74.7734C153.812,-64.8536 178.859,-53.6447 202.024,-44.835 207.809,-42.6353 213.857,-40.4834 219.956,-38.4151"/>
<polygon fill="midnightblue" stroke="midnightblue" points="221.159,-41.7037 229.553,-35.2389 218.959,-35.0582 221.159,-41.7037"/>
</g>
</g>
</svg>
