<?xml version="1.0" encoding="UTF-8" standalone="no"?>
<!DOCTYPE svg PUBLIC "-//W3C//DTD SVG 1.1//EN"
 "http://www.w3.org/Graphics/SVG/1.1/DTD/svg11.dtd">
<!-- Generated by graphviz version 2.38.0 (20140413.2041)
 -->
<!-- Title: HydroCouple::SpatioTemporal::ITimeRasterComponentDataItem Pages: 1 -->
<svg width="394pt" height="925pt"
 viewBox="0.00 0.00 394.03 924.74" xmlns="http://www.w3.org/2000/svg" xmlns:xlink="http://www.w3.org/1999/xlink">
<g id="graph0" class="graph" transform="scale(1 1) rotate(0) translate(4 920.738)">
<title>HydroCouple::SpatioTemporal::ITimeRasterComponentDataItem</title>
<!-- Node1 -->
<g id="node1" class="node"><title>Node1</title>
<polygon fill="#bfbfbf" stroke="black" points="82.9971,-0.5 82.9971,-157.85 297.029,-157.85 297.029,-0.5 82.9971,-0.5"/>
<text text-anchor="start" x="90.9971" y="-145.85" font-family="Monaco" font-size="10.00">HydroCouple::SpatioTemporal</text>
<text text-anchor="middle" x="190.013" y="-132.515" font-family="Monaco" font-size="10.00">::ITimeRasterComponentDataItem</text>
<polyline fill="none" stroke="black" points="82.9971,-123.18 297.029,-123.18 "/>
<text text-anchor="middle" x="190.013" y="-111.18" font-family="Monaco" font-size="10.00"> </text>
<polyline fill="none" stroke="black" points="82.9971,-101.845 297.029,-101.845 "/>
<text text-anchor="start" x="90.9971" y="-89.8447" font-family="Monaco" font-size="10.00">+ ~ITimeRasterComponentDataItem()</text>
<text text-anchor="start" x="90.9971" y="-76.5098" font-family="Monaco" font-size="10.00">+ getValue()</text>
<text text-anchor="start" x="90.9971" y="-63.1748" font-family="Monaco" font-size="10.00">+ getValues()</text>
<text text-anchor="start" x="90.9971" y="-49.8398" font-family="Monaco" font-size="10.00">+ getValues()</text>
<text text-anchor="start" x="90.9971" y="-36.5049" font-family="Monaco" font-size="10.00">+ setValue()</text>
<text text-anchor="start" x="90.9971" y="-23.1699" font-family="Monaco" font-size="10.00">+ setValues()</text>
<text text-anchor="start" x="90.9971" y="-9.83496" font-family="Monaco" font-size="10.00">+ setValues()</text>
</g>
<!-- Node2 -->
<g id="node2" class="node"><title>Node2</title>
<g id="a_node2"><a xlink:href="class_hydro_couple_1_1_temporal_1_1_i_time_component_data_item.html" target="_top" xlink:title="ITimeComponentItem is an IComponentItem with a temporal attribute. This class cannot be directly inst...">
<polygon fill="none" stroke="black" points="0,-201.517 0,-318.862 178.026,-318.862 178.026,-201.517 0,-201.517"/>
<text text-anchor="start" x="8" y="-306.862" font-family="Monaco" font-size="10.00">HydroCouple::Temporal</text>
<text text-anchor="middle" x="89.0132" y="-293.527" font-family="Monaco" font-size="10.00">::ITimeComponentDataItem</text>
<polyline fill="none" stroke="black" points="0,-284.192 178.026,-284.192 "/>
<text text-anchor="middle" x="89.0132" y="-272.192" font-family="Monaco" font-size="10.00"> </text>
<polyline fill="none" stroke="black" points="0,-262.857 178.026,-262.857 "/>
<text text-anchor="start" x="8" y="-250.857" font-family="Monaco" font-size="10.00">+ ~ITimeComponentDataItem()</text>
<text text-anchor="start" x="8" y="-237.522" font-family="Monaco" font-size="10.00">+ times()</text>
<text text-anchor="start" x="8" y="-224.187" font-family="Monaco" font-size="10.00">+ timeSpan()</text>
<text text-anchor="start" x="8" y="-210.852" font-family="Monaco" font-size="10.00">+ timeDimension()</text>
</a>
</g>
</g>
<!-- Node2&#45;&gt;Node1 -->
<g id="edge1" class="edge"><title>Node2&#45;&gt;Node1</title>
<path fill="none" stroke="midnightblue" d="M126.803,-192.21C133.122,-181.011 139.724,-169.309 146.178,-157.869"/>
<polygon fill="none" stroke="midnightblue" points="123.671,-190.639 121.805,-201.069 129.767,-194.079 123.671,-190.639"/>
</g>
<!-- Node3 -->
<g id="node3" class="node"><title>Node3</title>
<g id="a_node3"><a xlink:href="class_hydro_couple_1_1_i_component_data_item.html" target="_top" xlink:title="IComponentItem is a fundamental unit of data for a component. ">
<polygon fill="none" stroke="black" points="88.998,-362.529 88.998,-546.549 291.028,-546.549 291.028,-362.529 88.998,-362.529"/>
<text text-anchor="middle" x="190.013" y="-534.549" font-family="Monaco" font-size="10.00">HydroCouple::IComponentDataItem</text>
<polyline fill="none" stroke="black" points="88.998,-525.214 291.028,-525.214 "/>
<text text-anchor="middle" x="190.013" y="-513.214" font-family="Monaco" font-size="10.00"> </text>
<polyline fill="none" stroke="black" points="88.998,-503.879 291.028,-503.879 "/>
<text text-anchor="start" x="96.998" y="-491.879" font-family="Monaco" font-size="10.00">+ ~IComponentDataItem()</text>
<text text-anchor="start" x="96.998" y="-478.544" font-family="Monaco" font-size="10.00">+ modelComponent()</text>
<text text-anchor="start" x="96.998" y="-465.209" font-family="Monaco" font-size="10.00">+ dimensions()</text>
<text text-anchor="start" x="96.998" y="-451.874" font-family="Monaco" font-size="10.00">+ valueDefinition()</text>
<text text-anchor="start" x="96.998" y="-438.539" font-family="Monaco" font-size="10.00">+ getValue()</text>
<text text-anchor="start" x="96.998" y="-425.204" font-family="Monaco" font-size="10.00">+ getValues()</text>
<text text-anchor="start" x="96.998" y="-411.869" font-family="Monaco" font-size="10.00">+ getValues()</text>
<text text-anchor="start" x="96.998" y="-398.534" font-family="Monaco" font-size="10.00">+ setValue()</text>
<text text-anchor="start" x="96.998" y="-385.199" font-family="Monaco" font-size="10.00">+ setValues()</text>
<text text-anchor="start" x="96.998" y="-371.864" font-family="Monaco" font-size="10.00">+ setValues()</text>
</a>
</g>
</g>
<!-- Node3&#45;&gt;Node2 -->
<g id="edge2" class="edge"><title>Node3&#45;&gt;Node2</title>
<path fill="none" stroke="midnightblue" d="M137.448,-353.432C131.269,-341.664 125.132,-329.976 119.406,-319.072"/>
<polygon fill="none" stroke="midnightblue" points="134.427,-355.207 142.175,-362.434 140.625,-351.953 134.427,-355.207"/>
</g>
<!-- Node7 -->
<g id="node7" class="node"><title>Node7</title>
<g id="a_node7"><a xlink:href="class_hydro_couple_1_1_spatial_1_1_i_raster_component_data_item.html" target="_top" xlink:title="An IRasterComponentDataItem represents an IRaster IComponentItem. ">
<polygon fill="none" stroke="black" points="195.999,-194.85 195.999,-325.529 386.027,-325.529 386.027,-194.85 195.999,-194.85"/>
<text text-anchor="start" x="203.999" y="-313.529" font-family="Monaco" font-size="10.00">HydroCouple::Spatial</text>
<text text-anchor="middle" x="291.013" y="-300.194" font-family="Monaco" font-size="10.00">::IRasterComponentDataItem</text>
<polyline fill="none" stroke="black" points="195.999,-290.859 386.027,-290.859 "/>
<text text-anchor="middle" x="291.013" y="-278.859" font-family="Monaco" font-size="10.00"> </text>
<polyline fill="none" stroke="black" points="195.999,-269.524 386.027,-269.524 "/>
<text text-anchor="start" x="203.999" y="-257.524" font-family="Monaco" font-size="10.00">+ ~IRasterComponentDataItem()</text>
<text text-anchor="start" x="203.999" y="-244.189" font-family="Monaco" font-size="10.00">+ xDimension()</text>
<text text-anchor="start" x="203.999" y="-230.854" font-family="Monaco" font-size="10.00">+ yDimension()</text>
<text text-anchor="start" x="203.999" y="-217.52" font-family="Monaco" font-size="10.00">+ bandDimension()</text>
<text text-anchor="start" x="203.999" y="-204.185" font-family="Monaco" font-size="10.00">+ raster()</text>
</a>
</g>
</g>
<!-- Node3&#45;&gt;Node7 -->
<g id="edge7" class="edge"><title>Node3&#45;&gt;Node7</title>
<path fill="none" stroke="midnightblue" d="M242.597,-353.395C247.545,-343.972 252.467,-334.599 257.171,-325.64"/>
<polygon fill="none" stroke="midnightblue" points="239.401,-351.953 237.851,-362.434 245.599,-355.207 239.401,-351.953"/>
</g>
<!-- Node4 -->
<g id="node4" class="node"><title>Node4</title>
<g id="a_node4"><a xlink:href="class_hydro_couple_1_1_i_identity.html" target="_top" xlink:title="IIdentity interface class defines a method to get the Id of an HydroCouple entity. ">
<polygon fill="none" stroke="black" points="116.002,-583.549 116.002,-660.889 264.024,-660.889 264.024,-583.549 116.002,-583.549"/>
<text text-anchor="middle" x="190.013" y="-648.889" font-family="Monaco" font-size="10.00">HydroCouple::IIdentity</text>
<polyline fill="none" stroke="black" points="116.002,-639.554 264.024,-639.554 "/>
<text text-anchor="middle" x="190.013" y="-627.554" font-family="Monaco" font-size="10.00"> </text>
<polyline fill="none" stroke="black" points="116.002,-618.219 264.024,-618.219 "/>
<text text-anchor="start" x="124.002" y="-606.219" font-family="Monaco" font-size="10.00">+ ~IIdentity()</text>
<text text-anchor="start" x="124.002" y="-592.884" font-family="Monaco" font-size="10.00">+ id()</text>
</a>
</g>
</g>
<!-- Node4&#45;&gt;Node3 -->
<g id="edge3" class="edge"><title>Node4&#45;&gt;Node3</title>
<path fill="none" stroke="midnightblue" d="M190.013,-572.966C190.013,-564.613 190.013,-555.688 190.013,-546.63"/>
<polygon fill="none" stroke="midnightblue" points="186.513,-573.208 190.013,-583.208 193.513,-573.209 186.513,-573.208"/>
</g>
<!-- Node5 -->
<g id="node5" class="node"><title>Node5</title>
<g id="a_node5"><a xlink:href="class_hydro_couple_1_1_i_description.html" target="_top" xlink:title="IDescription interface class provides descriptive information on a HydroCouple object. ">
<polygon fill="none" stroke="black" points="107.001,-697.889 107.001,-815.233 273.025,-815.233 273.025,-697.889 107.001,-697.889"/>
<text text-anchor="middle" x="190.013" y="-803.233" font-family="Monaco" font-size="10.00">HydroCouple::IDescription</text>
<polyline fill="none" stroke="black" points="107.001,-793.898 273.025,-793.898 "/>
<text text-anchor="middle" x="190.013" y="-781.898" font-family="Monaco" font-size="10.00"> </text>
<polyline fill="none" stroke="black" points="107.001,-772.563 273.025,-772.563 "/>
<text text-anchor="start" x="115.001" y="-760.563" font-family="Monaco" font-size="10.00">+ ~IDescription()</text>
<text text-anchor="start" x="115.001" y="-747.229" font-family="Monaco" font-size="10.00">+ caption()</text>
<text text-anchor="start" x="115.001" y="-733.894" font-family="Monaco" font-size="10.00">+ setCaption()</text>
<text text-anchor="start" x="115.001" y="-720.559" font-family="Monaco" font-size="10.00">+ description()</text>
<text text-anchor="start" x="115.001" y="-707.224" font-family="Monaco" font-size="10.00">+ setDescription()</text>
</a>
</g>
</g>
<!-- Node5&#45;&gt;Node4 -->
<g id="edge4" class="edge"><title>Node5&#45;&gt;Node4</title>
<path fill="none" stroke="midnightblue" d="M190.013,-687.323C190.013,-678.284 190.013,-669.297 190.013,-661.036"/>
<polygon fill="none" stroke="midnightblue" points="186.513,-687.514 190.013,-697.514 193.513,-687.514 186.513,-687.514"/>
</g>
<!-- Node6 -->
<g id="node6" class="node"><title>Node6</title>
<g id="a_node6"><a xlink:href="class_hydro_couple_1_1_i_property_changed.html" target="_top" xlink:title="IPropertyChanged interface is used to emit signal/event when a property of an object changes...">
<polygon fill="none" stroke="black" points="94.999,-852.233 94.999,-916.238 285.027,-916.238 285.027,-852.233 94.999,-852.233"/>
<text text-anchor="middle" x="190.013" y="-904.238" font-family="Monaco" font-size="10.00">HydroCouple::IPropertyChanged</text>
<polyline fill="none" stroke="black" points="94.999,-894.903 285.027,-894.903 "/>
<text text-anchor="middle" x="190.013" y="-882.903" font-family="Monaco" font-size="10.00"> </text>
<polyline fill="none" stroke="black" points="94.999,-873.568 285.027,-873.568 "/>
<text text-anchor="start" x="102.999" y="-861.568" font-family="Monaco" font-size="10.00">+ ~IPropertyChanged()</text>
</a>
</g>
</g>
<!-- Node6&#45;&gt;Node5 -->
<g id="edge5" class="edge"><title>Node6&#45;&gt;Node5</title>
<path fill="none" stroke="midnightblue" d="M190.013,-841.913C190.013,-833.528 190.013,-824.562 190.013,-815.719"/>
<polygon fill="none" stroke="midnightblue" points="186.513,-842.17 190.013,-852.17 193.513,-842.17 186.513,-842.17"/>
</g>
<!-- Node7&#45;&gt;Node1 -->
<g id="edge6" class="edge"><title>Node7&#45;&gt;Node1</title>
<path fill="none" stroke="midnightblue" d="M249.746,-186.047C244.536,-176.811 239.189,-167.336 233.939,-158.031"/>
<polygon fill="none" stroke="midnightblue" points="246.73,-187.824 254.693,-194.814 252.827,-184.385 246.73,-187.824"/>
</g>
</g>
</svg>
