<?xml version="1.0" encoding="UTF-8" standalone="no"?>
<!DOCTYPE svg PUBLIC "-//W3C//DTD SVG 1.1//EN"
 "http://www.w3.org/Graphics/SVG/1.1/DTD/svg11.dtd">
<!-- Generated by graphviz version 2.38.0 (20140413.2041)
 -->
<!-- Title: HydroCouple::Spatial::IGeometryExchangeItem Pages: 1 -->
<!--zoomable 911 -->
<svg id="main" version="1.1" xmlns="http://www.w3.org/2000/svg" xmlns:xlink="http://www.w3.org/1999/xlink" xml:space="preserve" onload="init(evt)">
<style type="text/css"><![CDATA[
.edge:hover path { stroke: red; }
.edge:hover polygon { stroke: red; fill: red; }
]]></style>
<script type="text/javascript"><![CDATA[
var edges = document.getElementsByTagName('g');
if (edges && edges.length) {
  for (var i=0;i<edges.length;i++) {
    if (edges[i].id.substr(0,4)=='edge') {
      edges[i].setAttribute('class','edge');
    }
  }
}
]]></script>
        <defs>
                <circle id="rim" cx="0" cy="0" r="7"/>
                <circle id="rim2" cx="0" cy="0" r="3.5"/>
                <g id="zoomPlus">
                        <use xlink:href="#rim" fill="#404040">
                                <set attributeName="fill" to="#808080" begin="zoomplus.mouseover" end="zoomplus.mouseout"/>
                        </use>
                        <path d="M-4,0h8M0,-4v8" fill="none" stroke="white" stroke-width="1.5" pointer-events="none"/>
                </g>
                <g id="zoomMin">
                        <use xlink:href="#rim" fill="#404040">
                                <set attributeName="fill" to="#808080" begin="zoomminus.mouseover" end="zoomminus.mouseout"/>
                        </use>
                        <path d="M-4,0h8" fill="none" stroke="white" stroke-width="1.5" pointer-events="none"/>
                </g>
                <g id="dirArrow">
                        <path fill="none" stroke="white" stroke-width="1.5" d="M0,-3.0v7 M-2.5,-0.5L0,-3.0L2.5,-0.5"/>
                </g>
               <g id="resetDef">
                       <use xlink:href="#rim2" fill="#404040">
                               <set attributeName="fill" to="#808080" begin="reset.mouseover" end="reset.mouseout"/>
                       </use>
               </g>
        </defs>

<script type="text/javascript">
var viewWidth = 400;
var viewHeight = 911;
var sectionId = 'dynsection-1';
</script>
<script xlink:href="svgpan.js"/>
<svg id="graph" class="graph">
<g id="viewport">
<title>HydroCouple::Spatial::IGeometryExchangeItem</title>
<!-- Node1 -->
<g id="node1" class="node"><title>Node1</title>
<polygon fill="#bfbfbf" stroke="black" points="102,-0.5 102,-77.8398 274.025,-77.8398 274.025,-0.5 102,-0.5"/>
<text text-anchor="start" x="110" y="-65.8398" font-family="Monaco" font-size="10.00">HydroCouple::Spatial</text>
<text text-anchor="middle" x="188.013" y="-52.5049" font-family="Monaco" font-size="10.00">::IGeometryExchangeItem</text>
<polyline fill="none" stroke="black" points="102,-43.1699 274.025,-43.1699 "/>
<text text-anchor="middle" x="188.013" y="-31.1699" font-family="Monaco" font-size="10.00"> </text>
<polyline fill="none" stroke="black" points="102,-21.835 274.025,-21.835 "/>
<text text-anchor="start" x="110" y="-9.83496" font-family="Monaco" font-size="10.00">+ ~IGeometryExchangeItem()</text>
</g>
<!-- Node2 -->
<g id="node2" class="node"><title>Node2</title>
<g id="a_node2"><a xlink:href="class_hydro_couple_1_1_i_exchange_item.html" target="_top" xlink:title="IExchangeItem the base data item the can be exchanged between components at runtime. ">
<polygon fill="none" stroke="black" points="0,-181.515 0,-245.52 172.025,-245.52 172.025,-181.515 0,-181.515"/>
<text text-anchor="middle" x="86.0127" y="-233.52" font-family="Monaco" font-size="10.00">HydroCouple::IExchangeItem</text>
<polyline fill="none" stroke="black" points="0,-224.185 172.025,-224.185 "/>
<text text-anchor="middle" x="86.0127" y="-212.185" font-family="Monaco" font-size="10.00"> </text>
<polyline fill="none" stroke="black" points="0,-202.85 172.025,-202.85 "/>
<text text-anchor="start" x="8" y="-190.85" font-family="Monaco" font-size="10.00">+ ~IExchangeItem()</text>
</a>
</g>
</g>
<!-- Node2&#45;&gt;Node1 -->
<g id="edge1" class="edge"><title>Node2&#45;&gt;Node1</title>
<path fill="none" stroke="midnightblue" d="M109.74,-172.426C126.581,-143.97 149.043,-106.016 165.584,-78.0664"/>
<polygon fill="none" stroke="midnightblue" points="106.565,-170.918 104.484,-181.306 112.589,-174.483 106.565,-170.918"/>
</g>
<!-- Node3 -->
<g id="node3" class="node"><title>Node3</title>
<g id="a_node3"><a xlink:href="class_hydro_couple_1_1_i_component_data_item.html" target="_top" xlink:title="IComponentItem is a fundamental unit of data for a component. ">
<polygon fill="none" stroke="black" points="86.9976,-349.194 86.9976,-533.214 289.028,-533.214 289.028,-349.194 86.9976,-349.194"/>
<text text-anchor="middle" x="188.013" y="-521.214" font-family="Monaco" font-size="10.00">HydroCouple::IComponentDataItem</text>
<polyline fill="none" stroke="black" points="86.9976,-511.879 289.028,-511.879 "/>
<text text-anchor="middle" x="188.013" y="-499.879" font-family="Monaco" font-size="10.00"> </text>
<polyline fill="none" stroke="black" points="86.9976,-490.544 289.028,-490.544 "/>
<text text-anchor="start" x="94.9976" y="-478.544" font-family="Monaco" font-size="10.00">+ ~IComponentDataItem()</text>
<text text-anchor="start" x="94.9976" y="-465.209" font-family="Monaco" font-size="10.00">+ modelComponent()</text>
<text text-anchor="start" x="94.9976" y="-451.874" font-family="Monaco" font-size="10.00">+ dimensions()</text>
<text text-anchor="start" x="94.9976" y="-438.539" font-family="Monaco" font-size="10.00">+ valueDefinition()</text>
<text text-anchor="start" x="94.9976" y="-425.204" font-family="Monaco" font-size="10.00">+ getValue()</text>
<text text-anchor="start" x="94.9976" y="-411.869" font-family="Monaco" font-size="10.00">+ getValues()</text>
<text text-anchor="start" x="94.9976" y="-398.534" font-family="Monaco" font-size="10.00">+ getValues()</text>
<text text-anchor="start" x="94.9976" y="-385.199" font-family="Monaco" font-size="10.00">+ setValue()</text>
<text text-anchor="start" x="94.9976" y="-371.864" font-family="Monaco" font-size="10.00">+ setValues()</text>
<text text-anchor="start" x="94.9976" y="-358.529" font-family="Monaco" font-size="10.00">+ setValues()</text>
</a>
</g>
</g>
<!-- Node3&#45;&gt;Node2 -->
<g id="edge2" class="edge"><title>Node3&#45;&gt;Node2</title>
<path fill="none" stroke="midnightblue" d="M142.516,-339.537C127.178,-305.6 111.168,-270.177 100.123,-245.739"/>
<polygon fill="none" stroke="midnightblue" points="139.512,-341.388 146.819,-349.059 145.89,-338.505 139.512,-341.388"/>
</g>
<!-- Node7 -->
<g id="node7" class="node"><title>Node7</title>
<g id="a_node7"><a xlink:href="class_hydro_couple_1_1_spatial_1_1_i_geometry_component_data_item.html" target="_top" xlink:title="IGeometryComponentItem represents IGeometryCollection IComponentItem. This class must be implemented ...">
<polygon fill="none" stroke="black" points="189.998,-114.84 189.998,-312.194 392.028,-312.194 392.028,-114.84 189.998,-114.84"/>
<text text-anchor="start" x="197.998" y="-300.194" font-family="Monaco" font-size="10.00">HydroCouple::Spatial</text>
<text text-anchor="middle" x="291.013" y="-286.859" font-family="Monaco" font-size="10.00">::IGeometryComponentDataItem</text>
<polyline fill="none" stroke="black" points="189.998,-277.524 392.028,-277.524 "/>
<text text-anchor="middle" x="291.013" y="-265.524" font-family="Monaco" font-size="10.00"> </text>
<polyline fill="none" stroke="black" points="189.998,-256.189 392.028,-256.189 "/>
<text text-anchor="start" x="197.998" y="-244.189" font-family="Monaco" font-size="10.00">+ ~IGeometryComponentDataItem()</text>
<text text-anchor="start" x="197.998" y="-230.854" font-family="Monaco" font-size="10.00">+ geometryCollection()</text>
<text text-anchor="start" x="197.998" y="-217.52" font-family="Monaco" font-size="10.00">+ geometry()</text>
<text text-anchor="start" x="197.998" y="-204.185" font-family="Monaco" font-size="10.00">+ geometryDimension()</text>
<text text-anchor="start" x="197.998" y="-190.85" font-family="Monaco" font-size="10.00">+ getValue()</text>
<text text-anchor="start" x="197.998" y="-177.515" font-family="Monaco" font-size="10.00">+ getValues()</text>
<text text-anchor="start" x="197.998" y="-164.18" font-family="Monaco" font-size="10.00">+ getValues()</text>
<text text-anchor="start" x="197.998" y="-150.845" font-family="Monaco" font-size="10.00">+ setValue()</text>
<text text-anchor="start" x="197.998" y="-137.51" font-family="Monaco" font-size="10.00">+ setValues()</text>
<text text-anchor="start" x="197.998" y="-124.175" font-family="Monaco" font-size="10.00">+ setValues()</text>
</a>
</g>
</g>
<!-- Node3&#45;&gt;Node7 -->
<g id="edge7" class="edge"><title>Node3&#45;&gt;Node7</title>
<path fill="none" stroke="midnightblue" d="M233.781,-339.92C237.973,-330.734 242.217,-321.435 246.399,-312.272"/>
<polygon fill="none" stroke="midnightblue" points="230.578,-338.509 229.61,-349.059 236.946,-341.415 230.578,-338.509"/>
</g>
<!-- Node4 -->
<g id="node4" class="node"><title>Node4</title>
<g id="a_node4"><a xlink:href="class_hydro_couple_1_1_i_identity.html" target="_top" xlink:title="IIdentity interface class defines a method to get the Id of an HydroCouple entity. ">
<polygon fill="none" stroke="black" points="114.002,-570.214 114.002,-647.554 262.023,-647.554 262.023,-570.214 114.002,-570.214"/>
<text text-anchor="middle" x="188.013" y="-635.554" font-family="Monaco" font-size="10.00">HydroCouple::IIdentity</text>
<polyline fill="none" stroke="black" points="114.002,-626.219 262.023,-626.219 "/>
<text text-anchor="middle" x="188.013" y="-614.219" font-family="Monaco" font-size="10.00"> </text>
<polyline fill="none" stroke="black" points="114.002,-604.884 262.023,-604.884 "/>
<text text-anchor="start" x="122.002" y="-592.884" font-family="Monaco" font-size="10.00">+ ~IIdentity()</text>
<text text-anchor="start" x="122.002" y="-579.549" font-family="Monaco" font-size="10.00">+ id()</text>
</a>
</g>
</g>
<!-- Node4&#45;&gt;Node3 -->
<g id="edge3" class="edge"><title>Node4&#45;&gt;Node3</title>
<path fill="none" stroke="midnightblue" d="M188.013,-559.632C188.013,-551.278 188.013,-542.353 188.013,-533.295"/>
<polygon fill="none" stroke="midnightblue" points="184.513,-559.873 188.013,-569.874 191.513,-559.874 184.513,-559.873"/>
</g>
<!-- Node5 -->
<g id="node5" class="node"><title>Node5</title>
<g id="a_node5"><a xlink:href="class_hydro_couple_1_1_i_description.html" target="_top" xlink:title="IDescription interface class provides descriptive information on a HydroCouple object. ">
<polygon fill="none" stroke="black" points="105,-684.554 105,-801.898 271.025,-801.898 271.025,-684.554 105,-684.554"/>
<text text-anchor="middle" x="188.013" y="-789.898" font-family="Monaco" font-size="10.00">HydroCouple::IDescription</text>
<polyline fill="none" stroke="black" points="105,-780.563 271.025,-780.563 "/>
<text text-anchor="middle" x="188.013" y="-768.563" font-family="Monaco" font-size="10.00"> </text>
<polyline fill="none" stroke="black" points="105,-759.229 271.025,-759.229 "/>
<text text-anchor="start" x="113" y="-747.229" font-family="Monaco" font-size="10.00">+ ~IDescription()</text>
<text text-anchor="start" x="113" y="-733.894" font-family="Monaco" font-size="10.00">+ caption()</text>
<text text-anchor="start" x="113" y="-720.559" font-family="Monaco" font-size="10.00">+ setCaption()</text>
<text text-anchor="start" x="113" y="-707.224" font-family="Monaco" font-size="10.00">+ description()</text>
<text text-anchor="start" x="113" y="-693.889" font-family="Monaco" font-size="10.00">+ setDescription()</text>
</a>
</g>
</g>
<!-- Node5&#45;&gt;Node4 -->
<g id="edge4" class="edge"><title>Node5&#45;&gt;Node4</title>
<path fill="none" stroke="midnightblue" d="M188.013,-673.988C188.013,-664.949 188.013,-655.962 188.013,-647.701"/>
<polygon fill="none" stroke="midnightblue" points="184.513,-674.179 188.013,-684.179 191.513,-674.179 184.513,-674.179"/>
</g>
<!-- Node6 -->
<g id="node6" class="node"><title>Node6</title>
<g id="a_node6"><a xlink:href="class_hydro_couple_1_1_i_property_changed.html" target="_top" xlink:title="IPropertyChanged interface is used to emit signal/event when a property of an object changes...">
<polygon fill="none" stroke="black" points="92.9985,-838.898 92.9985,-902.903 283.027,-902.903 283.027,-838.898 92.9985,-838.898"/>
<text text-anchor="middle" x="188.013" y="-890.903" font-family="Monaco" font-size="10.00">HydroCouple::IPropertyChanged</text>
<polyline fill="none" stroke="black" points="92.9985,-881.568 283.027,-881.568 "/>
<text text-anchor="middle" x="188.013" y="-869.568" font-family="Monaco" font-size="10.00"> </text>
<polyline fill="none" stroke="black" points="92.9985,-860.233 283.027,-860.233 "/>
<text text-anchor="start" x="100.999" y="-848.233" font-family="Monaco" font-size="10.00">+ ~IPropertyChanged()</text>
</a>
</g>
</g>
<!-- Node6&#45;&gt;Node5 -->
<g id="edge5" class="edge"><title>Node6&#45;&gt;Node5</title>
<path fill="none" stroke="midnightblue" d="M188.013,-828.578C188.013,-820.193 188.013,-811.227 188.013,-802.384"/>
<polygon fill="none" stroke="midnightblue" points="184.513,-828.835 188.013,-838.835 191.513,-828.835 184.513,-828.835"/>
</g>
<!-- Node7&#45;&gt;Node1 -->
<g id="edge6" class="edge"><title>Node7&#45;&gt;Node1</title>
<path fill="none" stroke="midnightblue" d="M227.325,-105.95C221.389,-96.0183 215.683,-86.4704 210.547,-77.8757"/>
<polygon fill="none" stroke="midnightblue" points="224.457,-107.973 232.591,-114.762 230.465,-104.382 224.457,-107.973"/>
</g>
</g>
</svg>
        <g id="navigator" transform="translate(0 0)" fill="#404254">
                <rect fill="#f2f5e9" fill-opacity="0.5" stroke="#606060" stroke-width=".5" x="0" y="0" width="60" height="60"/>
                <use id="zoomplus" xlink:href="#zoomPlus" x="17" y="9" onmousedown="handleZoom(evt,'in')"/>
                <use id="zoomminus" xlink:href="#zoomMin" x="42" y="9" onmousedown="handleZoom(evt,'out')"/>
                <use id="reset" xlink:href="#resetDef" x="30" y="36" onmousedown="handleReset()"/>
                <g id="arrowUp" xlink:href="#dirArrow" transform="translate(30 24)" onmousedown="handlePan(0,-1)">
                  <use xlink:href="#rim" fill="#404040">
                        <set attributeName="fill" to="#808080" begin="arrowUp.mouseover" end="arrowUp.mouseout"/>
                  </use>
                  <path fill="none" stroke="white" stroke-width="1.5" d="M0,-3.0v7 M-2.5,-0.5L0,-3.0L2.5,-0.5"/>
                </g>
                <g id="arrowRight" xlink:href="#dirArrow" transform="rotate(90) translate(36 -43)" onmousedown="handlePan(1,0)">
                  <use xlink:href="#rim" fill="#404040">
                        <set attributeName="fill" to="#808080" begin="arrowRight.mouseover" end="arrowRight.mouseout"/>
                  </use>
                  <path fill="none" stroke="white" stroke-width="1.5" d="M0,-3.0v7 M-2.5,-0.5L0,-3.0L2.5,-0.5"/>
                </g>
                <g id="arrowDown" xlink:href="#dirArrow" transform="rotate(180) translate(-30 -48)" onmousedown="handlePan(0,1)">
                  <use xlink:href="#rim" fill="#404040">
                        <set attributeName="fill" to="#808080" begin="arrowDown.mouseover" end="arrowDown.mouseout"/>
                  </use>
                  <path fill="none" stroke="white" stroke-width="1.5" d="M0,-3.0v7 M-2.5,-0.5L0,-3.0L2.5,-0.5"/>
                </g>
                <g id="arrowLeft" xlink:href="#dirArrow" transform="rotate(270) translate(-36 17)" onmousedown="handlePan(-1,0)">
                  <use xlink:href="#rim" fill="#404040">
                        <set attributeName="fill" to="#808080" begin="arrowLeft.mouseover" end="arrowLeft.mouseout"/>
                  </use>
                  <path fill="none" stroke="white" stroke-width="1.5" d="M0,-3.0v7 M-2.5,-0.5L0,-3.0L2.5,-0.5"/>
                </g>
        </g>
        <svg viewBox="0 0 15 15" width="100%" height="30px" preserveAspectRatio="xMaxYMin meet">
         <g id="arrow_out" transform="scale(0.3 0.3)">
          <a xlink:href="class_hydro_couple_1_1_spatial_1_1_i_geometry_exchange_item__coll__graph_org.svg" target="_base">
           <rect id="button" ry="5" rx="5" y="6" x="6" height="38" width="38"
                fill="#f2f5e9" fill-opacity="0.5" stroke="#606060" stroke-width="1.0"/>
           <path id="arrow"
             d="M 11.500037,31.436501 C 11.940474,20.09759 22.043105,11.32322 32.158766,21.979434 L 37.068811,17.246167 C 37.068811,17.246167 37.088388,32 37.088388,32 L 22.160133,31.978069 C 22.160133,31.978069 26.997745,27.140456 26.997745,27.140456 C 18.528582,18.264221 13.291696,25.230495 11.500037,31.436501 z"
             style="fill:#404040;"/>
          </a>
         </g>
        </svg>
</svg>
