<?xml version="1.0" encoding="UTF-8" standalone="no"?>
<!DOCTYPE svg PUBLIC "-//W3C//DTD SVG 1.1//EN"
 "http://www.w3.org/Graphics/SVG/1.1/DTD/svg11.dtd">
<!-- Generated by graphviz version 2.38.0 (20140413.2041)
 -->
<!-- Title: HydroCouple::Spatial::IRegularGrid2DArgument Pages: 1 -->
<!--zoomable 951 -->
<svg id="main" version="1.1" xmlns="http://www.w3.org/2000/svg" xmlns:xlink="http://www.w3.org/1999/xlink" xml:space="preserve" onload="init(evt)">
<style type="text/css"><![CDATA[
.edge:hover path { stroke: red; }
.edge:hover polygon { stroke: red; fill: red; }
]]></style>
<script type="text/javascript"><![CDATA[
var edges = document.getElementsByTagName('g');
if (edges && edges.length) {
  for (var i=0;i<edges.length;i++) {
    if (edges[i].id.substr(0,4)=='edge') {
      edges[i].setAttribute('class','edge');
    }
  }
}
]]></script>
        <defs>
                <circle id="rim" cx="0" cy="0" r="7"/>
                <circle id="rim2" cx="0" cy="0" r="3.5"/>
                <g id="zoomPlus">
                        <use xlink:href="#rim" fill="#404040">
                                <set attributeName="fill" to="#808080" begin="zoomplus.mouseover" end="zoomplus.mouseout"/>
                        </use>
                        <path d="M-4,0h8M0,-4v8" fill="none" stroke="white" stroke-width="1.5" pointer-events="none"/>
                </g>
                <g id="zoomMin">
                        <use xlink:href="#rim" fill="#404040">
                                <set attributeName="fill" to="#808080" begin="zoomminus.mouseover" end="zoomminus.mouseout"/>
                        </use>
                        <path d="M-4,0h8" fill="none" stroke="white" stroke-width="1.5" pointer-events="none"/>
                </g>
                <g id="dirArrow">
                        <path fill="none" stroke="white" stroke-width="1.5" d="M0,-3.0v7 M-2.5,-0.5L0,-3.0L2.5,-0.5"/>
                </g>
               <g id="resetDef">
                       <use xlink:href="#rim2" fill="#404040">
                               <set attributeName="fill" to="#808080" begin="reset.mouseover" end="reset.mouseout"/>
                       </use>
               </g>
        </defs>

<script type="text/javascript">
var viewWidth = 406;
var viewHeight = 951;
var sectionId = 'dynsection-1';
</script>
<script xlink:href="svgpan.js"/>
<svg id="graph" class="graph">
<g id="viewport">
<title>HydroCouple::Spatial::IRegularGrid2DArgument</title>
<!-- Node1 -->
<g id="node1" class="node"><title>Node1</title>
<polygon fill="#bfbfbf" stroke="black" points="97.999,-0.5 97.999,-77.8398 276.025,-77.8398 276.025,-0.5 97.999,-0.5"/>
<text text-anchor="start" x="105.999" y="-65.8398" font-family="Monaco" font-size="10.00">HydroCouple::Spatial</text>
<text text-anchor="middle" x="187.012" y="-52.5049" font-family="Monaco" font-size="10.00">::IRegularGrid2DArgument</text>
<polyline fill="none" stroke="black" points="97.999,-43.1699 276.025,-43.1699 "/>
<text text-anchor="middle" x="187.012" y="-31.1699" font-family="Monaco" font-size="10.00"> </text>
<polyline fill="none" stroke="black" points="97.999,-21.835 276.025,-21.835 "/>
<text text-anchor="start" x="105.999" y="-9.83496" font-family="Monaco" font-size="10.00">+ ~IRegularGrid2DArgument()</text>
</g>
<!-- Node2 -->
<g id="node2" class="node"><title>Node2</title>
<g id="a_node2"><a xlink:href="class_hydro_couple_1_1_i_argument.html" target="_top" xlink:title="IArgument interface class used to set the arguments for components. They can be complex or simple mul...">
<polygon fill="none" stroke="black" points="0,-141.51 0,-325.529 166.024,-325.529 166.024,-141.51 0,-141.51"/>
<text text-anchor="middle" x="83.0122" y="-313.529" font-family="Monaco" font-size="10.00">HydroCouple::IArgument</text>
<polyline fill="none" stroke="black" points="0,-304.194 166.024,-304.194 "/>
<text text-anchor="middle" x="83.0122" y="-292.194" font-family="Monaco" font-size="10.00"> </text>
<polyline fill="none" stroke="black" points="0,-282.859 166.024,-282.859 "/>
<text text-anchor="start" x="8" y="-270.859" font-family="Monaco" font-size="10.00">+ ~IArgument()</text>
<text text-anchor="start" x="8" y="-257.524" font-family="Monaco" font-size="10.00">+ isOptional()</text>
<text text-anchor="start" x="8" y="-244.189" font-family="Monaco" font-size="10.00">+ isReadOnly()</text>
<text text-anchor="start" x="8" y="-230.854" font-family="Monaco" font-size="10.00">+ toString()</text>
<text text-anchor="start" x="8" y="-217.52" font-family="Monaco" font-size="10.00">+ inputFileTypeFilters()</text>
<text text-anchor="start" x="8" y="-204.185" font-family="Monaco" font-size="10.00">+ canReadFromFile()</text>
<text text-anchor="start" x="8" y="-190.85" font-family="Monaco" font-size="10.00">+ canReadFromString()</text>
<text text-anchor="start" x="8" y="-177.515" font-family="Monaco" font-size="10.00">+ currentArgumentIOType()</text>
<text text-anchor="start" x="8" y="-164.18" font-family="Monaco" font-size="10.00">+ readValues()</text>
<text text-anchor="start" x="8" y="-150.845" font-family="Monaco" font-size="10.00">+ readValues()</text>
</a>
</g>
</g>
<!-- Node2&#45;&gt;Node1 -->
<g id="edge1" class="edge"><title>Node2&#45;&gt;Node1</title>
<path fill="none" stroke="midnightblue" d="M137.087,-132.508C147.564,-113.13 157.929,-93.9606 166.476,-78.1523"/>
<polygon fill="none" stroke="midnightblue" points="133.949,-130.953 132.271,-141.414 140.106,-134.282 133.949,-130.953"/>
</g>
<!-- Node3 -->
<g id="node3" class="node"><title>Node3</title>
<g id="a_node3"><a xlink:href="class_hydro_couple_1_1_i_component_data_item.html" target="_top" xlink:title="IComponentItem is a fundamental unit of data for a component. ">
<polygon fill="none" stroke="black" points="85.9971,-389.199 85.9971,-573.219 288.027,-573.219 288.027,-389.199 85.9971,-389.199"/>
<text text-anchor="middle" x="187.012" y="-561.219" font-family="Monaco" font-size="10.00">HydroCouple::IComponentDataItem</text>
<polyline fill="none" stroke="black" points="85.9971,-551.884 288.027,-551.884 "/>
<text text-anchor="middle" x="187.012" y="-539.884" font-family="Monaco" font-size="10.00"> </text>
<polyline fill="none" stroke="black" points="85.9971,-530.549 288.027,-530.549 "/>
<text text-anchor="start" x="93.9971" y="-518.549" font-family="Monaco" font-size="10.00">+ ~IComponentDataItem()</text>
<text text-anchor="start" x="93.9971" y="-505.214" font-family="Monaco" font-size="10.00">+ modelComponent()</text>
<text text-anchor="start" x="93.9971" y="-491.879" font-family="Monaco" font-size="10.00">+ dimensions()</text>
<text text-anchor="start" x="93.9971" y="-478.544" font-family="Monaco" font-size="10.00">+ valueDefinition()</text>
<text text-anchor="start" x="93.9971" y="-465.209" font-family="Monaco" font-size="10.00">+ getValue()</text>
<text text-anchor="start" x="93.9971" y="-451.874" font-family="Monaco" font-size="10.00">+ getValues()</text>
<text text-anchor="start" x="93.9971" y="-438.539" font-family="Monaco" font-size="10.00">+ getValues()</text>
<text text-anchor="start" x="93.9971" y="-425.204" font-family="Monaco" font-size="10.00">+ setValue()</text>
<text text-anchor="start" x="93.9971" y="-411.869" font-family="Monaco" font-size="10.00">+ setValues()</text>
<text text-anchor="start" x="93.9971" y="-398.534" font-family="Monaco" font-size="10.00">+ setValues()</text>
</a>
</g>
</g>
<!-- Node3&#45;&gt;Node2 -->
<g id="edge2" class="edge"><title>Node3&#45;&gt;Node2</title>
<path fill="none" stroke="midnightblue" d="M144.515,-379.813C136.965,-361.977 129.138,-343.488 121.701,-325.919"/>
<polygon fill="none" stroke="midnightblue" points="141.313,-381.228 148.434,-389.072 147.759,-378.499 141.313,-381.228"/>
</g>
<!-- Node7 -->
<g id="node7" class="node"><title>Node7</title>
<g id="a_node7"><a xlink:href="class_hydro_couple_1_1_spatial_1_1_i_regular_grid2_d_component_data_item.html" target="_top" xlink:title="An IRegularGrid2DComponentDataItem represents an IRegularGrid2D IComponentItem. ">
<polygon fill="none" stroke="black" points="183.996,-114.84 183.996,-352.199 398.028,-352.199 398.028,-114.84 183.996,-114.84"/>
<text text-anchor="start" x="191.996" y="-340.199" font-family="Monaco" font-size="10.00">HydroCouple::Spatial</text>
<text text-anchor="middle" x="291.012" y="-326.864" font-family="Monaco" font-size="10.00">::IRegularGrid2DComponentDataItem</text>
<polyline fill="none" stroke="black" points="183.996,-317.529 398.028,-317.529 "/>
<text text-anchor="middle" x="291.012" y="-305.529" font-family="Monaco" font-size="10.00"> </text>
<polyline fill="none" stroke="black" points="183.996,-296.194 398.028,-296.194 "/>
<text text-anchor="start" x="191.996" y="-284.194" font-family="Monaco" font-size="10.00">+ ~IRegularGrid2DComponent</text>
<text text-anchor="start" x="191.996" y="-270.859" font-family="Monaco" font-size="10.00">DataItem()</text>
<text text-anchor="start" x="191.996" y="-257.524" font-family="Monaco" font-size="10.00">+ numXCellsDimension()</text>
<text text-anchor="start" x="191.996" y="-244.189" font-family="Monaco" font-size="10.00">+ numYCellsDimension()</text>
<text text-anchor="start" x="191.996" y="-230.854" font-family="Monaco" font-size="10.00">+ cellEdgeDimension()</text>
<text text-anchor="start" x="191.996" y="-217.52" font-family="Monaco" font-size="10.00">+ cellNodeDimension()</text>
<text text-anchor="start" x="191.996" y="-204.185" font-family="Monaco" font-size="10.00">+ grid()</text>
<text text-anchor="start" x="191.996" y="-190.85" font-family="Monaco" font-size="10.00">+ getValue()</text>
<text text-anchor="start" x="191.996" y="-177.515" font-family="Monaco" font-size="10.00">+ getValues()</text>
<text text-anchor="start" x="191.996" y="-164.18" font-family="Monaco" font-size="10.00">+ getValues()</text>
<text text-anchor="start" x="191.996" y="-150.845" font-family="Monaco" font-size="10.00">+ setValue()</text>
<text text-anchor="start" x="191.996" y="-137.51" font-family="Monaco" font-size="10.00">+ setValues()</text>
<text text-anchor="start" x="191.996" y="-124.175" font-family="Monaco" font-size="10.00">+ setValues()</text>
</a>
</g>
</g>
<!-- Node3&#45;&gt;Node7 -->
<g id="edge7" class="edge"><title>Node3&#45;&gt;Node7</title>
<path fill="none" stroke="midnightblue" d="M229.558,-379.7C233.393,-370.639 237.3,-361.41 241.19,-352.22"/>
<polygon fill="none" stroke="midnightblue" points="226.265,-378.499 225.59,-389.072 232.711,-381.228 226.265,-378.499"/>
</g>
<!-- Node4 -->
<g id="node4" class="node"><title>Node4</title>
<g id="a_node4"><a xlink:href="class_hydro_couple_1_1_i_identity.html" target="_top" xlink:title="IIdentity interface class defines a method to get the Id of an HydroCouple entity. ">
<polygon fill="none" stroke="black" points="113.001,-610.219 113.001,-687.559 261.023,-687.559 261.023,-610.219 113.001,-610.219"/>
<text text-anchor="middle" x="187.012" y="-675.559" font-family="Monaco" font-size="10.00">HydroCouple::IIdentity</text>
<polyline fill="none" stroke="black" points="113.001,-666.224 261.023,-666.224 "/>
<text text-anchor="middle" x="187.012" y="-654.224" font-family="Monaco" font-size="10.00"> </text>
<polyline fill="none" stroke="black" points="113.001,-644.889 261.023,-644.889 "/>
<text text-anchor="start" x="121.001" y="-632.889" font-family="Monaco" font-size="10.00">+ ~IIdentity()</text>
<text text-anchor="start" x="121.001" y="-619.554" font-family="Monaco" font-size="10.00">+ id()</text>
</a>
</g>
</g>
<!-- Node4&#45;&gt;Node3 -->
<g id="edge3" class="edge"><title>Node4&#45;&gt;Node3</title>
<path fill="none" stroke="midnightblue" d="M187.012,-599.636C187.012,-591.283 187.012,-582.358 187.012,-573.3"/>
<polygon fill="none" stroke="midnightblue" points="183.512,-599.878 187.012,-609.878 190.512,-599.878 183.512,-599.878"/>
</g>
<!-- Node5 -->
<g id="node5" class="node"><title>Node5</title>
<g id="a_node5"><a xlink:href="class_hydro_couple_1_1_i_description.html" target="_top" xlink:title="IDescription interface class provides descriptive information on a HydroCouple object. ">
<polygon fill="none" stroke="black" points="104,-724.559 104,-841.903 270.024,-841.903 270.024,-724.559 104,-724.559"/>
<text text-anchor="middle" x="187.012" y="-829.903" font-family="Monaco" font-size="10.00">HydroCouple::IDescription</text>
<polyline fill="none" stroke="black" points="104,-820.568 270.024,-820.568 "/>
<text text-anchor="middle" x="187.012" y="-808.568" font-family="Monaco" font-size="10.00"> </text>
<polyline fill="none" stroke="black" points="104,-799.233 270.024,-799.233 "/>
<text text-anchor="start" x="112" y="-787.233" font-family="Monaco" font-size="10.00">+ ~IDescription()</text>
<text text-anchor="start" x="112" y="-773.898" font-family="Monaco" font-size="10.00">+ caption()</text>
<text text-anchor="start" x="112" y="-760.563" font-family="Monaco" font-size="10.00">+ setCaption()</text>
<text text-anchor="start" x="112" y="-747.229" font-family="Monaco" font-size="10.00">+ description()</text>
<text text-anchor="start" x="112" y="-733.894" font-family="Monaco" font-size="10.00">+ setDescription()</text>
</a>
</g>
</g>
<!-- Node5&#45;&gt;Node4 -->
<g id="edge4" class="edge"><title>Node5&#45;&gt;Node4</title>
<path fill="none" stroke="midnightblue" d="M187.012,-713.993C187.012,-704.954 187.012,-695.966 187.012,-687.706"/>
<polygon fill="none" stroke="midnightblue" points="183.512,-714.184 187.012,-724.184 190.512,-714.184 183.512,-714.184"/>
</g>
<!-- Node6 -->
<g id="node6" class="node"><title>Node6</title>
<g id="a_node6"><a xlink:href="class_hydro_couple_1_1_i_property_changed.html" target="_top" xlink:title="IPropertyChanged interface is used to emit signal/event when a property of an object changes...">
<polygon fill="none" stroke="black" points="91.998,-878.903 91.998,-942.908 282.026,-942.908 282.026,-878.903 91.998,-878.903"/>
<text text-anchor="middle" x="187.012" y="-930.908" font-family="Monaco" font-size="10.00">HydroCouple::IPropertyChanged</text>
<polyline fill="none" stroke="black" points="91.998,-921.573 282.026,-921.573 "/>
<text text-anchor="middle" x="187.012" y="-909.573" font-family="Monaco" font-size="10.00"> </text>
<polyline fill="none" stroke="black" points="91.998,-900.238 282.026,-900.238 "/>
<text text-anchor="start" x="99.998" y="-888.238" font-family="Monaco" font-size="10.00">+ ~IPropertyChanged()</text>
</a>
</g>
</g>
<!-- Node6&#45;&gt;Node5 -->
<g id="edge5" class="edge"><title>Node6&#45;&gt;Node5</title>
<path fill="none" stroke="midnightblue" d="M187.012,-868.583C187.012,-860.198 187.012,-851.231 187.012,-842.389"/>
<polygon fill="none" stroke="midnightblue" points="183.512,-868.84 187.012,-878.84 190.512,-868.84 183.512,-868.84"/>
</g>
<!-- Node7&#45;&gt;Node1 -->
<g id="edge6" class="edge"><title>Node7&#45;&gt;Node1</title>
<path fill="none" stroke="midnightblue" d="M222.552,-105.902C217.14,-95.8921 211.993,-86.3726 207.381,-77.8431"/>
<polygon fill="none" stroke="midnightblue" points="219.535,-107.681 227.37,-114.813 225.693,-104.351 219.535,-107.681"/>
</g>
</g>
</svg>
        <g id="navigator" transform="translate(0 0)" fill="#404254">
                <rect fill="#f2f5e9" fill-opacity="0.5" stroke="#606060" stroke-width=".5" x="0" y="0" width="60" height="60"/>
                <use id="zoomplus" xlink:href="#zoomPlus" x="17" y="9" onmousedown="handleZoom(evt,'in')"/>
                <use id="zoomminus" xlink:href="#zoomMin" x="42" y="9" onmousedown="handleZoom(evt,'out')"/>
                <use id="reset" xlink:href="#resetDef" x="30" y="36" onmousedown="handleReset()"/>
                <g id="arrowUp" xlink:href="#dirArrow" transform="translate(30 24)" onmousedown="handlePan(0,-1)">
                  <use xlink:href="#rim" fill="#404040">
                        <set attributeName="fill" to="#808080" begin="arrowUp.mouseover" end="arrowUp.mouseout"/>
                  </use>
                  <path fill="none" stroke="white" stroke-width="1.5" d="M0,-3.0v7 M-2.5,-0.5L0,-3.0L2.5,-0.5"/>
                </g>
                <g id="arrowRight" xlink:href="#dirArrow" transform="rotate(90) translate(36 -43)" onmousedown="handlePan(1,0)">
                  <use xlink:href="#rim" fill="#404040">
                        <set attributeName="fill" to="#808080" begin="arrowRight.mouseover" end="arrowRight.mouseout"/>
                  </use>
                  <path fill="none" stroke="white" stroke-width="1.5" d="M0,-3.0v7 M-2.5,-0.5L0,-3.0L2.5,-0.5"/>
                </g>
                <g id="arrowDown" xlink:href="#dirArrow" transform="rotate(180) translate(-30 -48)" onmousedown="handlePan(0,1)">
                  <use xlink:href="#rim" fill="#404040">
                        <set attributeName="fill" to="#808080" begin="arrowDown.mouseover" end="arrowDown.mouseout"/>
                  </use>
                  <path fill="none" stroke="white" stroke-width="1.5" d="M0,-3.0v7 M-2.5,-0.5L0,-3.0L2.5,-0.5"/>
                </g>
                <g id="arrowLeft" xlink:href="#dirArrow" transform="rotate(270) translate(-36 17)" onmousedown="handlePan(-1,0)">
                  <use xlink:href="#rim" fill="#404040">
                        <set attributeName="fill" to="#808080" begin="arrowLeft.mouseover" end="arrowLeft.mouseout"/>
                  </use>
                  <path fill="none" stroke="white" stroke-width="1.5" d="M0,-3.0v7 M-2.5,-0.5L0,-3.0L2.5,-0.5"/>
                </g>
        </g>
        <svg viewBox="0 0 15 15" width="100%" height="30px" preserveAspectRatio="xMaxYMin meet">
         <g id="arrow_out" transform="scale(0.3 0.3)">
          <a xlink:href="class_hydro_couple_1_1_spatial_1_1_i_regular_grid2_d_argument__coll__graph_org.svg" target="_base">
           <rect id="button" ry="5" rx="5" y="6" x="6" height="38" width="38"
                fill="#f2f5e9" fill-opacity="0.5" stroke="#606060" stroke-width="1.0"/>
           <path id="arrow"
             d="M 11.500037,31.436501 C 11.940474,20.09759 22.043105,11.32322 32.158766,21.979434 L 37.068811,17.246167 C 37.068811,17.246167 37.088388,32 37.088388,32 L 22.160133,31.978069 C 22.160133,31.978069 26.997745,27.140456 26.997745,27.140456 C 18.528582,18.264221 13.291696,25.230495 11.500037,31.436501 z"
             style="fill:#404040;"/>
          </a>
         </g>
        </svg>
</svg>
