<?xml version="1.0" encoding="UTF-8" standalone="no"?>
<!DOCTYPE svg PUBLIC "-//W3C//DTD SVG 1.1//EN"
 "http://www.w3.org/Graphics/SVG/1.1/DTD/svg11.dtd">
<!-- Generated by graphviz version 2.38.0 (20140413.2041)
 -->
<!-- Title: HydroCouple::Spatial::IPolyhedralSurfaceOnlyArgument Pages: 1 -->
<svg width="448pt" height="1119pt"
 viewBox="0.00 0.00 448.03 1119.09" xmlns="http://www.w3.org/2000/svg" xmlns:xlink="http://www.w3.org/1999/xlink">
<g id="graph0" class="graph" transform="scale(1 1) rotate(0) translate(4 1115.09)">
<title>HydroCouple::Spatial::IPolyhedralSurfaceOnlyArgument</title>
<!-- Node1 -->
<g id="node1" class="node"><title>Node1</title>
<polygon fill="#bfbfbf" stroke="black" points="101.998,-0.5 101.998,-77.8398 328.032,-77.8398 328.032,-0.5 101.998,-0.5"/>
<text text-anchor="start" x="109.998" y="-65.8398" font-family="Monaco" font-size="10.00">HydroCouple::Spatial</text>
<text text-anchor="middle" x="215.015" y="-52.5049" font-family="Monaco" font-size="10.00">::IPolyhedralSurfaceOnlyArgument</text>
<polyline fill="none" stroke="black" points="101.998,-43.1699 328.032,-43.1699 "/>
<text text-anchor="middle" x="215.015" y="-31.1699" font-family="Monaco" font-size="10.00"> </text>
<polyline fill="none" stroke="black" points="101.998,-21.835 328.032,-21.835 "/>
<text text-anchor="start" x="109.998" y="-9.83496" font-family="Monaco" font-size="10.00">+ ~IPolyhedralSurfaceOnlyArgument()</text>
</g>
<!-- Node2 -->
<g id="node2" class="node"><title>Node2</title>
<g id="a_node2"><a xlink:href="class_hydro_couple_1_1_spatial_1_1_i_polyhedral_surface_argument.html" target="_top" xlink:title="An IPolyhedralSurfaceArgument class with an IPolyhedralSurface component. ">
<polygon fill="none" stroke="black" points="0,-168.18 0,-245.52 202.03,-245.52 202.03,-168.18 0,-168.18"/>
<text text-anchor="start" x="8" y="-233.52" font-family="Monaco" font-size="10.00">HydroCouple::Spatial</text>
<text text-anchor="middle" x="101.015" y="-220.185" font-family="Monaco" font-size="10.00">::IPolyhedralSurfaceArgument</text>
<polyline fill="none" stroke="black" points="0,-210.85 202.03,-210.85 "/>
<text text-anchor="middle" x="101.015" y="-198.85" font-family="Monaco" font-size="10.00"> </text>
<polyline fill="none" stroke="black" points="0,-189.515 202.03,-189.515 "/>
<text text-anchor="start" x="8" y="-177.515" font-family="Monaco" font-size="10.00">+ ~IPolyhedralSurfaceArgument()</text>
</a>
</g>
</g>
<!-- Node2&#45;&gt;Node1 -->
<g id="edge1" class="edge"><title>Node2&#45;&gt;Node1</title>
<path fill="none" stroke="midnightblue" d="M132.997,-159.37C150.673,-133.681 172.353,-102.173 188.983,-78.0033"/>
<polygon fill="none" stroke="midnightblue" points="129.954,-157.617 127.169,-167.839 135.721,-161.585 129.954,-157.617"/>
</g>
<!-- Node3 -->
<g id="node3" class="node"><title>Node3</title>
<g id="a_node3"><a xlink:href="class_hydro_couple_1_1_i_argument.html" target="_top" xlink:title="IArgument interface class used to set the arguments for components. They can be complex or simple mul...">
<polygon fill="none" stroke="black" points="18.0029,-335.859 18.0029,-519.879 184.027,-519.879 184.027,-335.859 18.0029,-335.859"/>
<text text-anchor="middle" x="101.015" y="-507.879" font-family="Monaco" font-size="10.00">HydroCouple::IArgument</text>
<polyline fill="none" stroke="black" points="18.0029,-498.544 184.027,-498.544 "/>
<text text-anchor="middle" x="101.015" y="-486.544" font-family="Monaco" font-size="10.00"> </text>
<polyline fill="none" stroke="black" points="18.0029,-477.209 184.027,-477.209 "/>
<text text-anchor="start" x="26.0029" y="-465.209" font-family="Monaco" font-size="10.00">+ ~IArgument()</text>
<text text-anchor="start" x="26.0029" y="-451.874" font-family="Monaco" font-size="10.00">+ isOptional()</text>
<text text-anchor="start" x="26.0029" y="-438.539" font-family="Monaco" font-size="10.00">+ isReadOnly()</text>
<text text-anchor="start" x="26.0029" y="-425.204" font-family="Monaco" font-size="10.00">+ toString()</text>
<text text-anchor="start" x="26.0029" y="-411.869" font-family="Monaco" font-size="10.00">+ inputFileTypeFilters()</text>
<text text-anchor="start" x="26.0029" y="-398.534" font-family="Monaco" font-size="10.00">+ canReadFromFile()</text>
<text text-anchor="start" x="26.0029" y="-385.199" font-family="Monaco" font-size="10.00">+ canReadFromString()</text>
<text text-anchor="start" x="26.0029" y="-371.864" font-family="Monaco" font-size="10.00">+ currentArgumentIOType()</text>
<text text-anchor="start" x="26.0029" y="-358.529" font-family="Monaco" font-size="10.00">+ readValues()</text>
<text text-anchor="start" x="26.0029" y="-345.194" font-family="Monaco" font-size="10.00">+ readValues()</text>
</a>
</g>
</g>
<!-- Node3&#45;&gt;Node2 -->
<g id="edge2" class="edge"><title>Node3&#45;&gt;Node2</title>
<path fill="none" stroke="midnightblue" d="M101.015,-325.562C101.015,-297.141 101.015,-267.979 101.015,-245.791"/>
<polygon fill="none" stroke="midnightblue" points="97.5152,-325.571 101.015,-335.571 104.515,-325.571 97.5152,-325.571"/>
</g>
<!-- Node4 -->
<g id="node4" class="node"><title>Node4</title>
<g id="a_node4"><a xlink:href="class_hydro_couple_1_1_i_component_data_item.html" target="_top" xlink:title="IComponentItem is a fundamental unit of data for a component. ">
<polygon fill="none" stroke="black" points="107,-556.879 107,-740.898 309.03,-740.898 309.03,-556.879 107,-556.879"/>
<text text-anchor="middle" x="208.015" y="-728.898" font-family="Monaco" font-size="10.00">HydroCouple::IComponentDataItem</text>
<polyline fill="none" stroke="black" points="107,-719.563 309.03,-719.563 "/>
<text text-anchor="middle" x="208.015" y="-707.563" font-family="Monaco" font-size="10.00"> </text>
<polyline fill="none" stroke="black" points="107,-698.229 309.03,-698.229 "/>
<text text-anchor="start" x="115" y="-686.229" font-family="Monaco" font-size="10.00">+ ~IComponentDataItem()</text>
<text text-anchor="start" x="115" y="-672.894" font-family="Monaco" font-size="10.00">+ modelComponent()</text>
<text text-anchor="start" x="115" y="-659.559" font-family="Monaco" font-size="10.00">+ dimensions()</text>
<text text-anchor="start" x="115" y="-646.224" font-family="Monaco" font-size="10.00">+ valueDefinition()</text>
<text text-anchor="start" x="115" y="-632.889" font-family="Monaco" font-size="10.00">+ getValue()</text>
<text text-anchor="start" x="115" y="-619.554" font-family="Monaco" font-size="10.00">+ getValues()</text>
<text text-anchor="start" x="115" y="-606.219" font-family="Monaco" font-size="10.00">+ getValues()</text>
<text text-anchor="start" x="115" y="-592.884" font-family="Monaco" font-size="10.00">+ setValue()</text>
<text text-anchor="start" x="115" y="-579.549" font-family="Monaco" font-size="10.00">+ setValues()</text>
<text text-anchor="start" x="115" y="-566.214" font-family="Monaco" font-size="10.00">+ setValues()</text>
</a>
</g>
</g>
<!-- Node4&#45;&gt;Node3 -->
<g id="edge3" class="edge"><title>Node4&#45;&gt;Node3</title>
<path fill="none" stroke="midnightblue" d="M158.959,-547.476C154.488,-538.323 149.975,-529.085 145.546,-520.019"/>
<polygon fill="none" stroke="midnightblue" points="155.878,-549.142 163.412,-556.591 162.167,-546.069 155.878,-549.142"/>
</g>
<!-- Node8 -->
<g id="node8" class="node"><title>Node8</title>
<g id="a_node8"><a xlink:href="class_hydro_couple_1_1_spatial_1_1_i_polyhedral_surface_component_data_item.html" target="_top" xlink:title="IPolyhedralSurfaceComponentItem represents IPolyhedralSurface IComponentItem. ">
<polygon fill="none" stroke="black" points="201.998,-355.862 201.998,-499.876 428.032,-499.876 428.032,-355.862 201.998,-355.862"/>
<text text-anchor="start" x="209.998" y="-487.876" font-family="Monaco" font-size="10.00">HydroCouple::Spatial</text>
<text text-anchor="start" x="209.998" y="-474.542" font-family="Monaco" font-size="10.00">::IPolyhedralSurfaceComponent</text>
<text text-anchor="middle" x="315.015" y="-461.207" font-family="Monaco" font-size="10.00">DataItem</text>
<polyline fill="none" stroke="black" points="201.998,-451.872 428.032,-451.872 "/>
<text text-anchor="middle" x="315.015" y="-439.872" font-family="Monaco" font-size="10.00"> </text>
<polyline fill="none" stroke="black" points="201.998,-430.537 428.032,-430.537 "/>
<text text-anchor="start" x="209.998" y="-418.537" font-family="Monaco" font-size="10.00">+ ~IPolyhedralSurfaceComponent</text>
<text text-anchor="start" x="209.998" y="-405.202" font-family="Monaco" font-size="10.00">DataItem()</text>
<text text-anchor="start" x="209.998" y="-391.867" font-family="Monaco" font-size="10.00">+ polyhedralSurface()</text>
<text text-anchor="start" x="209.998" y="-378.532" font-family="Monaco" font-size="10.00">+ polygon()</text>
<text text-anchor="start" x="209.998" y="-365.197" font-family="Monaco" font-size="10.00">+ polyhedralSurfacePatchDimension()</text>
</a>
</g>
</g>
<!-- Node4&#45;&gt;Node8 -->
<g id="edge8" class="edge"><title>Node4&#45;&gt;Node8</title>
<path fill="none" stroke="midnightblue" d="M257.186,-547.24C264.978,-531.291 272.893,-515.09 280.264,-500.002"/>
<polygon fill="none" stroke="midnightblue" points="253.863,-546.069 252.618,-556.591 260.152,-549.142 253.863,-546.069"/>
</g>
<!-- Node5 -->
<g id="node5" class="node"><title>Node5</title>
<g id="a_node5"><a xlink:href="class_hydro_couple_1_1_i_identity.html" target="_top" xlink:title="IIdentity interface class defines a method to get the Id of an HydroCouple entity. ">
<polygon fill="none" stroke="black" points="134.004,-777.898 134.004,-855.238 282.026,-855.238 282.026,-777.898 134.004,-777.898"/>
<text text-anchor="middle" x="208.015" y="-843.238" font-family="Monaco" font-size="10.00">HydroCouple::IIdentity</text>
<polyline fill="none" stroke="black" points="134.004,-833.903 282.026,-833.903 "/>
<text text-anchor="middle" x="208.015" y="-821.903" font-family="Monaco" font-size="10.00"> </text>
<polyline fill="none" stroke="black" points="134.004,-812.568 282.026,-812.568 "/>
<text text-anchor="start" x="142.004" y="-800.568" font-family="Monaco" font-size="10.00">+ ~IIdentity()</text>
<text text-anchor="start" x="142.004" y="-787.233" font-family="Monaco" font-size="10.00">+ id()</text>
</a>
</g>
</g>
<!-- Node5&#45;&gt;Node4 -->
<g id="edge4" class="edge"><title>Node5&#45;&gt;Node4</title>
<path fill="none" stroke="midnightblue" d="M208.015,-767.316C208.015,-758.963 208.015,-750.037 208.015,-740.979"/>
<polygon fill="none" stroke="midnightblue" points="204.515,-767.558 208.015,-777.558 211.515,-767.558 204.515,-767.558"/>
</g>
<!-- Node6 -->
<g id="node6" class="node"><title>Node6</title>
<g id="a_node6"><a xlink:href="class_hydro_couple_1_1_i_description.html" target="_top" xlink:title="IDescription interface class provides descriptive information on a HydroCouple object. ">
<polygon fill="none" stroke="black" points="125.003,-892.238 125.003,-1009.58 291.027,-1009.58 291.027,-892.238 125.003,-892.238"/>
<text text-anchor="middle" x="208.015" y="-997.583" font-family="Monaco" font-size="10.00">HydroCouple::IDescription</text>
<polyline fill="none" stroke="black" points="125.003,-988.248 291.027,-988.248 "/>
<text text-anchor="middle" x="208.015" y="-976.248" font-family="Monaco" font-size="10.00"> </text>
<polyline fill="none" stroke="black" points="125.003,-966.913 291.027,-966.913 "/>
<text text-anchor="start" x="133.003" y="-954.913" font-family="Monaco" font-size="10.00">+ ~IDescription()</text>
<text text-anchor="start" x="133.003" y="-941.578" font-family="Monaco" font-size="10.00">+ caption()</text>
<text text-anchor="start" x="133.003" y="-928.243" font-family="Monaco" font-size="10.00">+ setCaption()</text>
<text text-anchor="start" x="133.003" y="-914.908" font-family="Monaco" font-size="10.00">+ description()</text>
<text text-anchor="start" x="133.003" y="-901.573" font-family="Monaco" font-size="10.00">+ setDescription()</text>
</a>
</g>
</g>
<!-- Node6&#45;&gt;Node5 -->
<g id="edge5" class="edge"><title>Node6&#45;&gt;Node5</title>
<path fill="none" stroke="midnightblue" d="M208.015,-881.672C208.015,-872.634 208.015,-863.646 208.015,-855.386"/>
<polygon fill="none" stroke="midnightblue" points="204.515,-881.863 208.015,-891.863 211.515,-881.863 204.515,-881.863"/>
</g>
<!-- Node7 -->
<g id="node7" class="node"><title>Node7</title>
<g id="a_node7"><a xlink:href="class_hydro_couple_1_1_i_property_changed.html" target="_top" xlink:title="IPropertyChanged interface is used to emit signal/event when a property of an object changes...">
<polygon fill="none" stroke="black" points="113.001,-1046.58 113.001,-1110.59 303.029,-1110.59 303.029,-1046.58 113.001,-1046.58"/>
<text text-anchor="middle" x="208.015" y="-1098.59" font-family="Monaco" font-size="10.00">HydroCouple::IPropertyChanged</text>
<polyline fill="none" stroke="black" points="113.001,-1089.25 303.029,-1089.25 "/>
<text text-anchor="middle" x="208.015" y="-1077.25" font-family="Monaco" font-size="10.00"> </text>
<polyline fill="none" stroke="black" points="113.001,-1067.92 303.029,-1067.92 "/>
<text text-anchor="start" x="121.001" y="-1055.92" font-family="Monaco" font-size="10.00">+ ~IPropertyChanged()</text>
</a>
</g>
</g>
<!-- Node7&#45;&gt;Node6 -->
<g id="edge6" class="edge"><title>Node7&#45;&gt;Node6</title>
<path fill="none" stroke="midnightblue" d="M208.015,-1036.26C208.015,-1027.88 208.015,-1018.91 208.015,-1010.07"/>
<polygon fill="none" stroke="midnightblue" points="204.515,-1036.52 208.015,-1046.52 211.515,-1036.52 204.515,-1036.52"/>
</g>
<!-- Node8&#45;&gt;Node2 -->
<g id="edge7" class="edge"><title>Node8&#45;&gt;Node2</title>
<path fill="none" stroke="midnightblue" d="M238.333,-348.388C204.233,-313.488 165.656,-274.006 138.092,-245.796"/>
<polygon fill="none" stroke="midnightblue" points="236.043,-351.053 245.535,-355.76 241.05,-346.161 236.043,-351.053"/>
</g>
<!-- Node9 -->
<g id="node9" class="node"><title>Node9</title>
<g id="a_node9"><a xlink:href="class_hydro_couple_1_1_spatial_1_1_i_polyhedral_surface_only_component_data_item.html" target="_top" xlink:title="IPolyhedralSurfaceOnlyComponentDataItem represents IPolyhedralSurface IComponentItem. ">
<polygon fill="none" stroke="black" points="219.999,-114.84 219.999,-298.859 440.032,-298.859 440.032,-114.84 219.999,-114.84"/>
<text text-anchor="start" x="227.999" y="-286.859" font-family="Monaco" font-size="10.00">HydroCouple::Spatial</text>
<text text-anchor="start" x="227.999" y="-273.524" font-family="Monaco" font-size="10.00">::IPolyhedralSurfaceOnlyComponent</text>
<text text-anchor="middle" x="330.015" y="-260.189" font-family="Monaco" font-size="10.00">DataItem</text>
<polyline fill="none" stroke="black" points="219.999,-250.854 440.032,-250.854 "/>
<text text-anchor="middle" x="330.015" y="-238.854" font-family="Monaco" font-size="10.00"> </text>
<polyline fill="none" stroke="black" points="219.999,-229.52 440.032,-229.52 "/>
<text text-anchor="start" x="227.999" y="-217.52" font-family="Monaco" font-size="10.00">+ ~IPolyhedralSurfaceOnlyComponent</text>
<text text-anchor="start" x="227.999" y="-204.185" font-family="Monaco" font-size="10.00">DataItem()</text>
<text text-anchor="start" x="227.999" y="-190.85" font-family="Monaco" font-size="10.00">+ getValue()</text>
<text text-anchor="start" x="227.999" y="-177.515" font-family="Monaco" font-size="10.00">+ getValues()</text>
<text text-anchor="start" x="227.999" y="-164.18" font-family="Monaco" font-size="10.00">+ getValues()</text>
<text text-anchor="start" x="227.999" y="-150.845" font-family="Monaco" font-size="10.00">+ setValue()</text>
<text text-anchor="start" x="227.999" y="-137.51" font-family="Monaco" font-size="10.00">+ setValues()</text>
<text text-anchor="start" x="227.999" y="-124.175" font-family="Monaco" font-size="10.00">+ setValues()</text>
</a>
</g>
</g>
<!-- Node8&#45;&gt;Node9 -->
<g id="edge10" class="edge"><title>Node8&#45;&gt;Node9</title>
<path fill="none" stroke="midnightblue" d="M320.593,-345.418C321.63,-330.281 322.719,-314.377 323.774,-298.973"/>
<polygon fill="none" stroke="midnightblue" points="317.077,-345.544 319.885,-355.76 324.06,-346.022 317.077,-345.544"/>
</g>
<!-- Node9&#45;&gt;Node1 -->
<g id="edge9" class="edge"><title>Node9&#45;&gt;Node1</title>
<path fill="none" stroke="midnightblue" d="M260.941,-106.335C254.025,-96.3712 247.342,-86.7431 241.315,-78.0601"/>
<polygon fill="none" stroke="midnightblue" points="258.219,-108.551 266.796,-114.77 263.969,-104.56 258.219,-108.551"/>
</g>
</g>
</svg>
