<?xml version="1.0" encoding="UTF-8" standalone="no"?>
<!DOCTYPE svg PUBLIC "-//W3C//DTD SVG 1.1//EN"
 "http://www.w3.org/Graphics/SVG/1.1/DTD/svg11.dtd">
<!-- Generated by graphviz version 2.38.0 (20140413.2041)
 -->
<!-- Title: HydroCouple::Spatial::IPolyhedralSurfaceComponentDataItem Pages: 1 -->
<svg width="454pt" height="965pt"
 viewBox="0.00 0.00 454.03 964.74" xmlns="http://www.w3.org/2000/svg" xmlns:xlink="http://www.w3.org/1999/xlink">
<g id="graph0" class="graph" transform="scale(1 1) rotate(0) translate(4 960.743)">
<title>HydroCouple::Spatial::IPolyhedralSurfaceComponentDataItem</title>
<!-- Node1 -->
<g id="node1" class="node"><title>Node1</title>
<polygon fill="#bfbfbf" stroke="black" points="103.998,-114.84 103.998,-365.534 330.032,-365.534 330.032,-114.84 103.998,-114.84"/>
<text text-anchor="start" x="111.998" y="-353.534" font-family="Monaco" font-size="10.00">HydroCouple::Spatial</text>
<text text-anchor="start" x="111.998" y="-340.199" font-family="Monaco" font-size="10.00">::IPolyhedralSurfaceComponent</text>
<text text-anchor="middle" x="217.015" y="-326.864" font-family="Monaco" font-size="10.00">DataItem</text>
<polyline fill="none" stroke="black" points="103.998,-317.529 330.032,-317.529 "/>
<text text-anchor="middle" x="217.015" y="-305.529" font-family="Monaco" font-size="10.00"> </text>
<polyline fill="none" stroke="black" points="103.998,-296.194 330.032,-296.194 "/>
<text text-anchor="start" x="111.998" y="-284.194" font-family="Monaco" font-size="10.00">+ ~IPolyhedralSurfaceComponent</text>
<text text-anchor="start" x="111.998" y="-270.859" font-family="Monaco" font-size="10.00">DataItem()</text>
<text text-anchor="start" x="111.998" y="-257.524" font-family="Monaco" font-size="10.00">+ polyhedralSurface()</text>
<text text-anchor="start" x="111.998" y="-244.189" font-family="Monaco" font-size="10.00">+ polygon()</text>
<text text-anchor="start" x="111.998" y="-230.854" font-family="Monaco" font-size="10.00">+ polyhedralSurfacePatchDimension()</text>
<text text-anchor="start" x="111.998" y="-217.52" font-family="Monaco" font-size="10.00">+ polyhedralSurfaceEdgeDimension()</text>
<text text-anchor="start" x="111.998" y="-204.185" font-family="Monaco" font-size="10.00">+ polyhedralSurfaceNodeDimensions()</text>
<text text-anchor="start" x="111.998" y="-190.85" font-family="Monaco" font-size="10.00">+ getValue()</text>
<text text-anchor="start" x="111.998" y="-177.515" font-family="Monaco" font-size="10.00">+ getValues()</text>
<text text-anchor="start" x="111.998" y="-164.18" font-family="Monaco" font-size="10.00">+ getValues()</text>
<text text-anchor="start" x="111.998" y="-150.845" font-family="Monaco" font-size="10.00">+ setValue()</text>
<text text-anchor="start" x="111.998" y="-137.51" font-family="Monaco" font-size="10.00">+ setValues()</text>
<text text-anchor="start" x="111.998" y="-124.175" font-family="Monaco" font-size="10.00">+ setValues()</text>
</g>
<!-- Node6 -->
<g id="node6" class="node"><title>Node6</title>
<g id="a_node6"><a xlink:href="class_hydro_couple_1_1_spatial_1_1_i_polyhedral_surface_argument.html" target="_top" xlink:title="An IPolyhedralSurfaceArgument class with an IPolyhedralSurface component. ">
<polygon fill="none" stroke="black" points="0,-0.5 0,-77.8398 202.03,-77.8398 202.03,-0.5 0,-0.5"/>
<text text-anchor="start" x="8" y="-65.8398" font-family="Monaco" font-size="10.00">HydroCouple::Spatial</text>
<text text-anchor="middle" x="101.015" y="-52.5049" font-family="Monaco" font-size="10.00">::IPolyhedralSurfaceArgument</text>
<polyline fill="none" stroke="black" points="0,-43.1699 202.03,-43.1699 "/>
<text text-anchor="middle" x="101.015" y="-31.1699" font-family="Monaco" font-size="10.00"> </text>
<polyline fill="none" stroke="black" points="0,-21.835 202.03,-21.835 "/>
<text text-anchor="start" x="8" y="-9.83496" font-family="Monaco" font-size="10.00">+ ~IPolyhedralSurfaceArgument()</text>
</a>
</g>
</g>
<!-- Node1&#45;&gt;Node6 -->
<g id="edge5" class="edge"><title>Node1&#45;&gt;Node6</title>
<path fill="none" stroke="midnightblue" d="M139.224,-105.723C133.442,-95.804 127.959,-86.3966 123.045,-77.9657"/>
<polygon fill="none" stroke="midnightblue" points="136.315,-107.682 144.374,-114.56 142.362,-104.157 136.315,-107.682"/>
</g>
<!-- Node7 -->
<g id="node7" class="node"><title>Node7</title>
<g id="a_node7"><a xlink:href="class_hydro_couple_1_1_spatial_1_1_i_polyhedral_surface_exchange_item.html" target="_top" xlink:title="An IPolyhedralSurfaceExchangeItem class with an IPolyhedralSurface component. ">
<polygon fill="none" stroke="black" points="219.998,-0.5 219.998,-77.8398 446.032,-77.8398 446.032,-0.5 219.998,-0.5"/>
<text text-anchor="start" x="227.998" y="-65.8398" font-family="Monaco" font-size="10.00">HydroCouple::Spatial</text>
<text text-anchor="middle" x="333.015" y="-52.5049" font-family="Monaco" font-size="10.00">::IPolyhedralSurfaceExchangeItem</text>
<polyline fill="none" stroke="black" points="219.998,-43.1699 446.032,-43.1699 "/>
<text text-anchor="middle" x="333.015" y="-31.1699" font-family="Monaco" font-size="10.00"> </text>
<polyline fill="none" stroke="black" points="219.998,-21.835 446.032,-21.835 "/>
<text text-anchor="start" x="227.998" y="-9.83496" font-family="Monaco" font-size="10.00">+ ~IPolyhedralSurfaceExchangeItem()</text>
</a>
</g>
</g>
<!-- Node1&#45;&gt;Node7 -->
<g id="edge6" class="edge"><title>Node1&#45;&gt;Node7</title>
<path fill="none" stroke="midnightblue" d="M294.807,-105.723C300.588,-95.804 306.071,-86.3966 310.985,-77.9657"/>
<polygon fill="none" stroke="midnightblue" points="291.668,-104.157 289.656,-114.56 297.716,-107.682 291.668,-104.157"/>
</g>
<!-- Node2 -->
<g id="node2" class="node"><title>Node2</title>
<g id="a_node2"><a xlink:href="class_hydro_couple_1_1_i_component_data_item.html" target="_top" xlink:title="IComponentItem is a fundamental unit of data for a component. ">
<polygon fill="none" stroke="black" points="116,-402.534 116,-586.554 318.03,-586.554 318.03,-402.534 116,-402.534"/>
<text text-anchor="middle" x="217.015" y="-574.554" font-family="Monaco" font-size="10.00">HydroCouple::IComponentDataItem</text>
<polyline fill="none" stroke="black" points="116,-565.219 318.03,-565.219 "/>
<text text-anchor="middle" x="217.015" y="-553.219" font-family="Monaco" font-size="10.00"> </text>
<polyline fill="none" stroke="black" points="116,-543.884 318.03,-543.884 "/>
<text text-anchor="start" x="124" y="-531.884" font-family="Monaco" font-size="10.00">+ ~IComponentDataItem()</text>
<text text-anchor="start" x="124" y="-518.549" font-family="Monaco" font-size="10.00">+ modelComponent()</text>
<text text-anchor="start" x="124" y="-505.214" font-family="Monaco" font-size="10.00">+ dimensions()</text>
<text text-anchor="start" x="124" y="-491.879" font-family="Monaco" font-size="10.00">+ valueDefinition()</text>
<text text-anchor="start" x="124" y="-478.544" font-family="Monaco" font-size="10.00">+ getValue()</text>
<text text-anchor="start" x="124" y="-465.209" font-family="Monaco" font-size="10.00">+ getValues()</text>
<text text-anchor="start" x="124" y="-451.874" font-family="Monaco" font-size="10.00">+ getValues()</text>
<text text-anchor="start" x="124" y="-438.539" font-family="Monaco" font-size="10.00">+ setValue()</text>
<text text-anchor="start" x="124" y="-425.204" font-family="Monaco" font-size="10.00">+ setValues()</text>
<text text-anchor="start" x="124" y="-411.869" font-family="Monaco" font-size="10.00">+ setValues()</text>
</a>
</g>
</g>
<!-- Node2&#45;&gt;Node1 -->
<g id="edge1" class="edge"><title>Node2&#45;&gt;Node1</title>
<path fill="none" stroke="midnightblue" d="M217.015,-392.214C217.015,-383.43 217.015,-374.479 217.015,-365.54"/>
<polygon fill="none" stroke="midnightblue" points="213.515,-392.437 217.015,-402.437 220.515,-392.437 213.515,-392.437"/>
</g>
<!-- Node3 -->
<g id="node3" class="node"><title>Node3</title>
<g id="a_node3"><a xlink:href="class_hydro_couple_1_1_i_identity.html" target="_top" xlink:title="IIdentity interface class defines a method to get the Id of an HydroCouple entity. ">
<polygon fill="none" stroke="black" points="143.004,-623.554 143.004,-700.894 291.026,-700.894 291.026,-623.554 143.004,-623.554"/>
<text text-anchor="middle" x="217.015" y="-688.894" font-family="Monaco" font-size="10.00">HydroCouple::IIdentity</text>
<polyline fill="none" stroke="black" points="143.004,-679.559 291.026,-679.559 "/>
<text text-anchor="middle" x="217.015" y="-667.559" font-family="Monaco" font-size="10.00"> </text>
<polyline fill="none" stroke="black" points="143.004,-658.224 291.026,-658.224 "/>
<text text-anchor="start" x="151.004" y="-646.224" font-family="Monaco" font-size="10.00">+ ~IIdentity()</text>
<text text-anchor="start" x="151.004" y="-632.889" font-family="Monaco" font-size="10.00">+ id()</text>
</a>
</g>
</g>
<!-- Node3&#45;&gt;Node2 -->
<g id="edge2" class="edge"><title>Node3&#45;&gt;Node2</title>
<path fill="none" stroke="midnightblue" d="M217.015,-612.971C217.015,-604.618 217.015,-595.693 217.015,-586.635"/>
<polygon fill="none" stroke="midnightblue" points="213.515,-613.213 217.015,-623.213 220.515,-613.213 213.515,-613.213"/>
</g>
<!-- Node4 -->
<g id="node4" class="node"><title>Node4</title>
<g id="a_node4"><a xlink:href="class_hydro_couple_1_1_i_description.html" target="_top" xlink:title="IDescription interface class provides descriptive information on a HydroCouple object. ">
<polygon fill="none" stroke="black" points="134.003,-737.894 134.003,-855.238 300.027,-855.238 300.027,-737.894 134.003,-737.894"/>
<text text-anchor="middle" x="217.015" y="-843.238" font-family="Monaco" font-size="10.00">HydroCouple::IDescription</text>
<polyline fill="none" stroke="black" points="134.003,-833.903 300.027,-833.903 "/>
<text text-anchor="middle" x="217.015" y="-821.903" font-family="Monaco" font-size="10.00"> </text>
<polyline fill="none" stroke="black" points="134.003,-812.568 300.027,-812.568 "/>
<text text-anchor="start" x="142.003" y="-800.568" font-family="Monaco" font-size="10.00">+ ~IDescription()</text>
<text text-anchor="start" x="142.003" y="-787.233" font-family="Monaco" font-size="10.00">+ caption()</text>
<text text-anchor="start" x="142.003" y="-773.898" font-family="Monaco" font-size="10.00">+ setCaption()</text>
<text text-anchor="start" x="142.003" y="-760.563" font-family="Monaco" font-size="10.00">+ description()</text>
<text text-anchor="start" x="142.003" y="-747.229" font-family="Monaco" font-size="10.00">+ setDescription()</text>
</a>
</g>
</g>
<!-- Node4&#45;&gt;Node3 -->
<g id="edge3" class="edge"><title>Node4&#45;&gt;Node3</title>
<path fill="none" stroke="midnightblue" d="M217.015,-727.328C217.015,-718.289 217.015,-709.301 217.015,-701.041"/>
<polygon fill="none" stroke="midnightblue" points="213.515,-727.519 217.015,-737.519 220.515,-727.519 213.515,-727.519"/>
</g>
<!-- Node5 -->
<g id="node5" class="node"><title>Node5</title>
<g id="a_node5"><a xlink:href="class_hydro_couple_1_1_i_property_changed.html" target="_top" xlink:title="IPropertyChanged interface is used to emit signal/event when a property of an object changes...">
<polygon fill="none" stroke="black" points="122.001,-892.238 122.001,-956.243 312.029,-956.243 312.029,-892.238 122.001,-892.238"/>
<text text-anchor="middle" x="217.015" y="-944.243" font-family="Monaco" font-size="10.00">HydroCouple::IPropertyChanged</text>
<polyline fill="none" stroke="black" points="122.001,-934.908 312.029,-934.908 "/>
<text text-anchor="middle" x="217.015" y="-922.908" font-family="Monaco" font-size="10.00"> </text>
<polyline fill="none" stroke="black" points="122.001,-913.573 312.029,-913.573 "/>
<text text-anchor="start" x="130.001" y="-901.573" font-family="Monaco" font-size="10.00">+ ~IPropertyChanged()</text>
</a>
</g>
</g>
<!-- Node5&#45;&gt;Node4 -->
<g id="edge4" class="edge"><title>Node5&#45;&gt;Node4</title>
<path fill="none" stroke="midnightblue" d="M217.015,-881.918C217.015,-873.533 217.015,-864.566 217.015,-855.724"/>
<polygon fill="none" stroke="midnightblue" points="213.515,-882.175 217.015,-892.175 220.515,-882.175 213.515,-882.175"/>
</g>
</g>
</svg>
