<?xml version="1.0" encoding="UTF-8" standalone="no"?>
<!DOCTYPE svg PUBLIC "-//W3C//DTD SVG 1.1//EN"
 "http://www.w3.org/Graphics/SVG/1.1/DTD/svg11.dtd">
<!-- Generated by graphviz version 2.38.0 (20140413.2041)
 -->
<!-- Title: HydroCoupleSDK::ModelComponentInfo Pages: 1 -->
<svg width="424pt" height="1231pt"
 viewBox="0.00 0.00 424.03 1231.44" xmlns="http://www.w3.org/2000/svg" xmlns:xlink="http://www.w3.org/1999/xlink">
<g id="graph0" class="graph" transform="scale(1 1) rotate(0) translate(4 1227.44)">
<title>HydroCoupleSDK::ModelComponentInfo</title>
<polygon fill="white" stroke="none" points="-4,4 -4,-1227.44 420.03,-1227.44 420.03,4 -4,4"/>
<!-- Node1 -->
<g id="node1" class="node"><title>Node1</title>
<polygon fill="#bfbfbf" stroke="black" points="92.9976,-0.5 92.9976,-64.5049 313.031,-64.5049 313.031,-0.5 92.9976,-0.5"/>
<text text-anchor="middle" x="203.014" y="-52.5049" font-family="Monaco" font-size="10.00">HydroCoupleSDK::ModelComponentInfo</text>
<polyline fill="none" stroke="black" points="92.9976,-43.1699 313.031,-43.1699 "/>
<text text-anchor="middle" x="203.014" y="-31.1699" font-family="Monaco" font-size="10.00"> </text>
<polyline fill="none" stroke="black" points="92.9976,-21.835 313.031,-21.835 "/>
<text text-anchor="middle" x="203.014" y="-9.83496" font-family="Monaco" font-size="10.00"> </text>
</g>
<!-- Node2 -->
<g id="node2" class="node"><title>Node2</title>
<g id="a_node2"><a xlink:href="class_hydro_couple_s_d_k_1_1_component_info.html" target="_top" xlink:title="Implementation of the IComponentInfo. This is the core interface specifying meta data about a compone...">
<polygon fill="white" stroke="black" points="0,-101.505 0,-472.214 190.028,-472.214 190.028,-101.505 0,-101.505"/>
<text text-anchor="middle" x="95.0142" y="-460.214" font-family="Monaco" font-size="10.00">HydroCoupleSDK::ComponentInfo</text>
<polyline fill="none" stroke="black" points="0,-450.879 190.028,-450.879 "/>
<text text-anchor="start" x="8" y="-438.879" font-family="Monaco" font-size="10.00"># m_name</text>
<text text-anchor="start" x="8" y="-425.544" font-family="Monaco" font-size="10.00"># m_iconFilePath</text>
<text text-anchor="start" x="8" y="-412.209" font-family="Monaco" font-size="10.00"># m_vendor</text>
<text text-anchor="start" x="8" y="-398.874" font-family="Monaco" font-size="10.00"># m_license</text>
<text text-anchor="start" x="8" y="-385.539" font-family="Monaco" font-size="10.00"># m_copyright</text>
<text text-anchor="start" x="8" y="-372.204" font-family="Monaco" font-size="10.00"># m_url</text>
<text text-anchor="start" x="8" y="-358.869" font-family="Monaco" font-size="10.00"># m_email</text>
<text text-anchor="start" x="8" y="-345.534" font-family="Monaco" font-size="10.00"># m_version</text>
<text text-anchor="start" x="8" y="-332.199" font-family="Monaco" font-size="10.00"># m_category</text>
<text text-anchor="start" x="8" y="-318.864" font-family="Monaco" font-size="10.00"># m_filePath</text>
<text text-anchor="start" x="8" y="-305.529" font-family="Monaco" font-size="10.00"># m_publications</text>
<polyline fill="none" stroke="black" points="0,-296.194 190.028,-296.194 "/>
<text text-anchor="start" x="8" y="-284.194" font-family="Monaco" font-size="10.00">+ ComponentInfo()</text>
<text text-anchor="start" x="8" y="-270.859" font-family="Monaco" font-size="10.00">+ ~ComponentInfo()</text>
<text text-anchor="start" x="8" y="-257.524" font-family="Monaco" font-size="10.00">+ name()</text>
<text text-anchor="start" x="8" y="-244.189" font-family="Monaco" font-size="10.00">+ libraryFilePath()</text>
<text text-anchor="start" x="8" y="-230.854" font-family="Monaco" font-size="10.00">+ setLibraryFilePath()</text>
<text text-anchor="start" x="8" y="-217.52" font-family="Monaco" font-size="10.00">+ iconFilePath()</text>
<text text-anchor="start" x="8" y="-204.185" font-family="Monaco" font-size="10.00">+ vendor()</text>
<text text-anchor="start" x="8" y="-190.85" font-family="Monaco" font-size="10.00">+ publications()</text>
<text text-anchor="start" x="8" y="-177.515" font-family="Monaco" font-size="10.00">+ license()</text>
<text text-anchor="start" x="8" y="-164.18" font-family="Monaco" font-size="10.00">+ copyright()</text>
<text text-anchor="start" x="8" y="-150.845" font-family="Monaco" font-size="10.00">+ url()</text>
<text text-anchor="start" x="8" y="-137.51" font-family="Monaco" font-size="10.00">+ email()</text>
<text text-anchor="start" x="8" y="-124.175" font-family="Monaco" font-size="10.00">+ version()</text>
<text text-anchor="start" x="8" y="-110.84" font-family="Monaco" font-size="10.00">+ category()</text>
</a>
</g>
</g>
<!-- Node2&#45;&gt;Node1 -->
<g id="edge1" class="edge"><title>Node2&#45;&gt;Node1</title>
<path fill="none" stroke="midnightblue" d="M177.976,-92.0083C182.28,-81.9516 186.235,-72.7094 189.669,-64.6846"/>
<polygon fill="none" stroke="midnightblue" points="174.647,-90.8909 173.93,-101.461 181.082,-93.6451 174.647,-90.8909"/>
</g>
<!-- Node3 -->
<g id="node3" class="node"><title>Node3</title>
<g id="a_node3"><a xlink:href="class_hydro_couple_s_d_k_1_1_identity.html" target="_top" xlink:title="The Identity class is an implementation of the HydroCouple::IIdentity of the HydroCouple interface de...">
<polygon fill="white" stroke="black" points="15.0024,-569.221 15.0024,-686.566 175.026,-686.566 175.026,-569.221 15.0024,-569.221"/>
<text text-anchor="middle" x="95.0142" y="-674.566" font-family="Monaco" font-size="10.00">HydroCoupleSDK::Identity</text>
<polyline fill="none" stroke="black" points="15.0024,-665.231 175.026,-665.231 "/>
<text text-anchor="start" x="23.0024" y="-653.231" font-family="Monaco" font-size="10.00">+ Id</text>
<polyline fill="none" stroke="black" points="15.0024,-643.896 175.026,-643.896 "/>
<text text-anchor="start" x="23.0024" y="-631.896" font-family="Monaco" font-size="10.00">+ Identity()</text>
<text text-anchor="start" x="23.0024" y="-618.561" font-family="Monaco" font-size="10.00">+ Identity()</text>
<text text-anchor="start" x="23.0024" y="-605.226" font-family="Monaco" font-size="10.00">+ ~Identity()</text>
<text text-anchor="start" x="23.0024" y="-591.891" font-family="Monaco" font-size="10.00">+ id()</text>
<text text-anchor="start" x="23.0024" y="-578.556" font-family="Monaco" font-size="10.00"># setId()</text>
</a>
</g>
</g>
<!-- Node3&#45;&gt;Node2 -->
<g id="edge2" class="edge"><title>Node3&#45;&gt;Node2</title>
<path fill="none" stroke="midnightblue" d="M95.0142,-558.773C95.0142,-533.349 95.0142,-503.115 95.0142,-472.218"/>
<polygon fill="none" stroke="midnightblue" points="91.5143,-558.997 95.0142,-568.997 98.5143,-558.997 91.5143,-558.997"/>
</g>
<!-- Node4 -->
<g id="node4" class="node"><title>Node4</title>
<g id="a_node4"><a xlink:href="class_hydro_couple_s_d_k_1_1_description.html" target="_top" xlink:title="The Description class. ">
<polygon fill="white" stroke="black" points="6.00098,-783.573 6.00098,-967.593 184.027,-967.593 184.027,-783.573 6.00098,-783.573"/>
<text text-anchor="middle" x="95.0142" y="-955.593" font-family="Monaco" font-size="10.00">HydroCoupleSDK::Description</text>
<polyline fill="none" stroke="black" points="6.00098,-946.258 184.027,-946.258 "/>
<text text-anchor="start" x="14.001" y="-934.258" font-family="Monaco" font-size="10.00">+ Caption</text>
<text text-anchor="start" x="14.001" y="-920.923" font-family="Monaco" font-size="10.00">+ Description</text>
<text text-anchor="start" x="14.001" y="-907.588" font-family="Monaco" font-size="10.00"># m_caption</text>
<text text-anchor="start" x="14.001" y="-894.253" font-family="Monaco" font-size="10.00"># m_description</text>
<polyline fill="none" stroke="black" points="6.00098,-884.918 184.027,-884.918 "/>
<text text-anchor="start" x="14.001" y="-872.918" font-family="Monaco" font-size="10.00">+ Description()</text>
<text text-anchor="start" x="14.001" y="-859.583" font-family="Monaco" font-size="10.00">+ Description()</text>
<text text-anchor="start" x="14.001" y="-846.248" font-family="Monaco" font-size="10.00">+ ~Description()</text>
<text text-anchor="start" x="14.001" y="-832.913" font-family="Monaco" font-size="10.00">+ getCaption()</text>
<text text-anchor="start" x="14.001" y="-819.578" font-family="Monaco" font-size="10.00">+ setCaption()</text>
<text text-anchor="start" x="14.001" y="-806.243" font-family="Monaco" font-size="10.00">+ getDescription()</text>
<text text-anchor="start" x="14.001" y="-792.908" font-family="Monaco" font-size="10.00">+ setDescription()</text>
</a>
</g>
</g>
<!-- Node4&#45;&gt;Node3 -->
<g id="edge3" class="edge"><title>Node4&#45;&gt;Node3</title>
<path fill="none" stroke="midnightblue" d="M95.0142,-773.112C95.0142,-743.663 95.0142,-712.524 95.0142,-686.746"/>
<polygon fill="none" stroke="midnightblue" points="91.5143,-773.446 95.0142,-783.446 98.5143,-773.447 91.5143,-773.446"/>
</g>
<!-- Node5 -->
<g id="node5" class="node"><title>Node5</title>
<polygon fill="white" stroke="#bfbfbf" points="66.0107,-1031.26 66.0107,-1095.27 124.018,-1095.27 124.018,-1031.26 66.0107,-1031.26"/>
<text text-anchor="middle" x="95.0142" y="-1083.27" font-family="Monaco" font-size="10.00">QObject</text>
<polyline fill="none" stroke="#bfbfbf" points="66.0107,-1073.93 124.018,-1073.93 "/>
<text text-anchor="middle" x="95.0142" y="-1061.93" font-family="Monaco" font-size="10.00"> </text>
<polyline fill="none" stroke="#bfbfbf" points="66.0107,-1052.6 124.018,-1052.6 "/>
<text text-anchor="middle" x="95.0142" y="-1040.6" font-family="Monaco" font-size="10.00"> </text>
</g>
<!-- Node5&#45;&gt;Node4 -->
<g id="edge4" class="edge"><title>Node5&#45;&gt;Node4</title>
<path fill="none" stroke="midnightblue" d="M95.0142,-1020.78C95.0142,-1005.04 95.0142,-986.417 95.0142,-967.879"/>
<polygon fill="none" stroke="midnightblue" points="91.5143,-1021.19 95.0142,-1031.19 98.5143,-1021.19 91.5143,-1021.19"/>
</g>
<!-- Node6 -->
<g id="node6" class="node"><title>Node6</title>
<g id="a_node6"><a xlink:href="class_hydro_couple_1_1_i_description.html" target="_top" xlink:title="IDescription interface class provides descriptive information on a HydroCouple object. ">
<polygon fill="white" stroke="black" points="167.002,-1004.59 167.002,-1121.94 333.026,-1121.94 333.026,-1004.59 167.002,-1004.59"/>
<text text-anchor="middle" x="250.014" y="-1109.94" font-family="Monaco" font-size="10.00">HydroCouple::IDescription</text>
<polyline fill="none" stroke="black" points="167.002,-1100.6 333.026,-1100.6 "/>
<text text-anchor="middle" x="250.014" y="-1088.6" font-family="Monaco" font-size="10.00"> </text>
<polyline fill="none" stroke="black" points="167.002,-1079.27 333.026,-1079.27 "/>
<text text-anchor="start" x="175.002" y="-1067.27" font-family="Monaco" font-size="10.00">+ ~IDescription()</text>
<text text-anchor="start" x="175.002" y="-1053.93" font-family="Monaco" font-size="10.00">+ getCaption()</text>
<text text-anchor="start" x="175.002" y="-1040.6" font-family="Monaco" font-size="10.00">+ setCaption()</text>
<text text-anchor="start" x="175.002" y="-1027.26" font-family="Monaco" font-size="10.00">+ getDescription()</text>
<text text-anchor="start" x="175.002" y="-1013.93" font-family="Monaco" font-size="10.00">+ setDescription()</text>
</a>
</g>
</g>
<!-- Node6&#45;&gt;Node4 -->
<g id="edge5" class="edge"><title>Node6&#45;&gt;Node4</title>
<path fill="none" stroke="midnightblue" d="M195.309,-996.731C187.451,-987.318 179.25,-977.493 171.07,-967.694"/>
<polygon fill="none" stroke="midnightblue" points="192.726,-999.098 201.821,-1004.53 198.099,-994.612 192.726,-999.098"/>
</g>
<!-- Node8 -->
<g id="node8" class="node"><title>Node8</title>
<g id="a_node8"><a xlink:href="class_hydro_couple_1_1_i_identity.html" target="_top" xlink:title="IIdentity interface class defines a method to get the Id of an HydroCouple entity. ">
<polygon fill="white" stroke="black" points="202.003,-823.578 202.003,-927.588 350.025,-927.588 350.025,-823.578 202.003,-823.578"/>
<text text-anchor="middle" x="276.014" y="-915.588" font-family="Monaco" font-size="10.00">HydroCouple::IIdentity</text>
<polyline fill="none" stroke="black" points="202.003,-906.253 350.025,-906.253 "/>
<text text-anchor="middle" x="276.014" y="-894.253" font-family="Monaco" font-size="10.00"> </text>
<polyline fill="none" stroke="black" points="202.003,-884.918 350.025,-884.918 "/>
<text text-anchor="start" x="210.003" y="-872.918" font-family="Monaco" font-size="10.00">+ ~IIdentity()</text>
<text text-anchor="start" x="210.003" y="-859.583" font-family="Monaco" font-size="10.00">+ MPI_Comm()</text>
<text text-anchor="start" x="210.003" y="-846.248" font-family="Monaco" font-size="10.00">+ MPI_Rank()</text>
<text text-anchor="start" x="210.003" y="-832.913" font-family="Monaco" font-size="10.00">+ id()</text>
</a>
</g>
</g>
<!-- Node6&#45;&gt;Node8 -->
<g id="edge8" class="edge"><title>Node6&#45;&gt;Node8</title>
<path fill="none" stroke="midnightblue" d="M259.496,-994.549C262.588,-972.465 265.968,-948.33 268.86,-927.677"/>
<polygon fill="none" stroke="midnightblue" points="256.019,-994.143 258.098,-1004.53 262.951,-995.114 256.019,-994.143"/>
</g>
<!-- Node7 -->
<g id="node7" class="node"><title>Node7</title>
<g id="a_node7"><a xlink:href="class_hydro_couple_1_1_i_property_changed.html" target="_top" xlink:title="IPropertyChanged interface is used to emit signal/event when a property of an object changes...">
<polygon fill="white" stroke="black" points="155,-1158.94 155,-1222.94 345.028,-1222.94 345.028,-1158.94 155,-1158.94"/>
<text text-anchor="middle" x="250.014" y="-1210.94" font-family="Monaco" font-size="10.00">HydroCouple::IPropertyChanged</text>
<polyline fill="none" stroke="black" points="155,-1201.61 345.028,-1201.61 "/>
<text text-anchor="middle" x="250.014" y="-1189.61" font-family="Monaco" font-size="10.00"> </text>
<polyline fill="none" stroke="black" points="155,-1180.27 345.028,-1180.27 "/>
<text text-anchor="start" x="163" y="-1168.27" font-family="Monaco" font-size="10.00">+ ~IPropertyChanged()</text>
</a>
</g>
</g>
<!-- Node7&#45;&gt;Node6 -->
<g id="edge6" class="edge"><title>Node7&#45;&gt;Node6</title>
<path fill="none" stroke="midnightblue" d="M250.014,-1148.62C250.014,-1140.23 250.014,-1131.27 250.014,-1122.42"/>
<polygon fill="none" stroke="midnightblue" points="246.514,-1148.87 250.014,-1158.87 253.514,-1148.87 246.514,-1148.87"/>
</g>
<!-- Node8&#45;&gt;Node3 -->
<g id="edge7" class="edge"><title>Node8&#45;&gt;Node3</title>
<path fill="none" stroke="midnightblue" d="M232.306,-815.253C203.613,-776.305 166.263,-725.606 137.765,-686.923"/>
<polygon fill="none" stroke="midnightblue" points="229.542,-817.402 238.291,-823.378 235.178,-813.25 229.542,-817.402"/>
</g>
<!-- Node9 -->
<g id="node9" class="node"><title>Node9</title>
<g id="a_node9"><a xlink:href="class_hydro_couple_1_1_i_component_info.html" target="_top" xlink:title="IComponentInfo interface class provides detailed metadata about a component. ">
<polygon fill="white" stroke="black" points="193.001,-509.214 193.001,-746.573 371.027,-746.573 371.027,-509.214 193.001,-509.214"/>
<text text-anchor="middle" x="282.014" y="-734.573" font-family="Monaco" font-size="10.00">HydroCouple::IComponentInfo</text>
<polyline fill="none" stroke="black" points="193.001,-725.238 371.027,-725.238 "/>
<text text-anchor="middle" x="282.014" y="-713.238" font-family="Monaco" font-size="10.00"> </text>
<polyline fill="none" stroke="black" points="193.001,-703.903 371.027,-703.903 "/>
<text text-anchor="start" x="201.001" y="-691.903" font-family="Monaco" font-size="10.00">+ ~IComponentInfo()</text>
<text text-anchor="start" x="201.001" y="-678.568" font-family="Monaco" font-size="10.00">+ name()</text>
<text text-anchor="start" x="201.001" y="-665.233" font-family="Monaco" font-size="10.00">+ libraryFilePath()</text>
<text text-anchor="start" x="201.001" y="-651.898" font-family="Monaco" font-size="10.00">+ setLibraryFilePath()</text>
<text text-anchor="start" x="201.001" y="-638.563" font-family="Monaco" font-size="10.00">+ iconFilePath()</text>
<text text-anchor="start" x="201.001" y="-625.229" font-family="Monaco" font-size="10.00">+ vendor()</text>
<text text-anchor="start" x="201.001" y="-611.894" font-family="Monaco" font-size="10.00">+ publications()</text>
<text text-anchor="start" x="201.001" y="-598.559" font-family="Monaco" font-size="10.00">+ license()</text>
<text text-anchor="start" x="201.001" y="-585.224" font-family="Monaco" font-size="10.00">+ copyright()</text>
<text text-anchor="start" x="201.001" y="-571.889" font-family="Monaco" font-size="10.00">+ url()</text>
<text text-anchor="start" x="201.001" y="-558.554" font-family="Monaco" font-size="10.00">+ email()</text>
<text text-anchor="start" x="201.001" y="-545.219" font-family="Monaco" font-size="10.00">+ version()</text>
<text text-anchor="start" x="201.001" y="-531.884" font-family="Monaco" font-size="10.00">+ category()</text>
<text text-anchor="start" x="201.001" y="-518.549" font-family="Monaco" font-size="10.00">+ validateLicense()</text>
</a>
</g>
</g>
<!-- Node8&#45;&gt;Node9 -->
<g id="edge10" class="edge"><title>Node8&#45;&gt;Node9</title>
<path fill="none" stroke="midnightblue" d="M277.509,-813.36C278.005,-793.053 278.575,-769.715 279.139,-746.618"/>
<polygon fill="none" stroke="midnightblue" points="274.01,-813.295 277.265,-823.378 281.008,-813.466 274.01,-813.295"/>
</g>
<!-- Node9&#45;&gt;Node2 -->
<g id="edge9" class="edge"><title>Node9&#45;&gt;Node2</title>
<path fill="none" stroke="midnightblue" d="M211.946,-499.858C204.78,-486.867 197.418,-473.519 190.043,-460.148"/>
<polygon fill="none" stroke="midnightblue" points="208.979,-501.726 216.873,-508.792 215.108,-498.345 208.979,-501.726"/>
</g>
<!-- Node10 -->
<g id="node10" class="node"><title>Node10</title>
<g id="a_node10"><a xlink:href="class_hydro_couple_1_1_i_model_component_info.html" target="_top" xlink:title="IModelComponentInfo interface inherits from the IComponentInfo interface which provides detailed meta...">
<polygon fill="white" stroke="black" points="207.999,-248.189 207.999,-325.529 416.03,-325.529 416.03,-248.189 207.999,-248.189"/>
<text text-anchor="middle" x="312.014" y="-313.529" font-family="Monaco" font-size="10.00">HydroCouple::IModelComponentInfo</text>
<polyline fill="none" stroke="black" points="207.999,-304.194 416.03,-304.194 "/>
<text text-anchor="middle" x="312.014" y="-292.194" font-family="Monaco" font-size="10.00"> </text>
<polyline fill="none" stroke="black" points="207.999,-282.859 416.03,-282.859 "/>
<text text-anchor="start" x="215.999" y="-270.859" font-family="Monaco" font-size="10.00">+ ~IModelComponentInfo()</text>
<text text-anchor="start" x="215.999" y="-257.524" font-family="Monaco" font-size="10.00">+ createComponentInstance()</text>
</a>
</g>
</g>
<!-- Node9&#45;&gt;Node10 -->
<g id="edge12" class="edge"><title>Node9&#45;&gt;Node10</title>
<path fill="none" stroke="midnightblue" d="M293.368,-498.58C298.82,-436.966 304.956,-367.621 308.651,-325.862"/>
<polygon fill="none" stroke="midnightblue" points="289.86,-498.522 292.465,-508.792 296.832,-499.139 289.86,-498.522"/>
</g>
<!-- Node10&#45;&gt;Node1 -->
<g id="edge11" class="edge"><title>Node10&#45;&gt;Node1</title>
<path fill="none" stroke="midnightblue" d="M291.611,-238.622C269.651,-187.781 235.347,-108.36 216.516,-64.7619"/>
<polygon fill="none" stroke="midnightblue" points="288.517,-240.287 295.696,-248.079 294.944,-237.511 288.517,-240.287"/>
</g>
</g>
</svg>
