<?xml version="1.0" encoding="UTF-8" standalone="no"?>
<!DOCTYPE svg PUBLIC "-//W3C//DTD SVG 1.1//EN"
 "http://www.w3.org/Graphics/SVG/1.1/DTD/svg11.dtd">
<!-- Generated by graphviz version 2.38.0 (20140413.2041)
 -->
<!-- Title: HydroCouple::Spatial::IGeometryComponentItem Pages: 1 -->
<svg width="198pt" height="664pt"
 viewBox="0.00 0.00 198.03 663.71" xmlns="http://www.w3.org/2000/svg" xmlns:xlink="http://www.w3.org/1999/xlink">
<g id="graph0" class="graph" transform="scale(1 1) rotate(0) translate(4 659.714)">
<title>HydroCouple::Spatial::IGeometryComponentItem</title>
<polygon fill="white" stroke="none" points="-4,4 -4,-659.714 194.028,-659.714 194.028,4 -4,4"/>
<!-- Node1 -->
<g id="node1" class="node"><title>Node1</title>
<polygon fill="#bfbfbf" stroke="black" points="6.00098,-0.5 6.00098,-117.845 184.027,-117.845 184.027,-0.5 6.00098,-0.5"/>
<text text-anchor="start" x="14.001" y="-105.845" font-family="Monaco" font-size="10.00">HydroCouple::Spatial</text>
<text text-anchor="middle" x="95.0142" y="-92.5098" font-family="Monaco" font-size="10.00">::IGeometryComponentItem</text>
<polyline fill="none" stroke="black" points="6.00098,-83.1748 184.027,-83.1748 "/>
<text text-anchor="middle" x="95.0142" y="-71.1748" font-family="Monaco" font-size="10.00"> </text>
<polyline fill="none" stroke="black" points="6.00098,-61.8398 184.027,-61.8398 "/>
<text text-anchor="start" x="14.001" y="-49.8398" font-family="Monaco" font-size="10.00">+ ~IGeometryComponentItem()</text>
<text text-anchor="start" x="14.001" y="-36.5049" font-family="Monaco" font-size="10.00">+ geometryDimension()</text>
<text text-anchor="start" x="14.001" y="-23.1699" font-family="Monaco" font-size="10.00">+ geometryCollection()</text>
<text text-anchor="start" x="14.001" y="-9.83496" font-family="Monaco" font-size="10.00">+ geometry()</text>
</g>
<!-- Node2 -->
<g id="node2" class="node"><title>Node2</title>
<g id="a_node2"><a xlink:href="class_hydro_couple_1_1_i_component_item.html" target="_top" xlink:title="IComponentItem is a fundamental unit of data for a component. ">
<polygon fill="white" stroke="black" points="6.00098,-154.845 6.00098,-258.854 184.027,-258.854 184.027,-154.845 6.00098,-154.845"/>
<text text-anchor="middle" x="95.0142" y="-246.854" font-family="Monaco" font-size="10.00">HydroCouple::IComponentItem</text>
<polyline fill="none" stroke="black" points="6.00098,-237.52 184.027,-237.52 "/>
<text text-anchor="middle" x="95.0142" y="-225.52" font-family="Monaco" font-size="10.00"> </text>
<polyline fill="none" stroke="black" points="6.00098,-216.185 184.027,-216.185 "/>
<text text-anchor="start" x="14.001" y="-204.185" font-family="Monaco" font-size="10.00">+ ~IComponentItem()</text>
<text text-anchor="start" x="14.001" y="-190.85" font-family="Monaco" font-size="10.00">+ modelComponent()</text>
<text text-anchor="start" x="14.001" y="-177.515" font-family="Monaco" font-size="10.00">+ modelComponentId()</text>
<text text-anchor="start" x="14.001" y="-164.18" font-family="Monaco" font-size="10.00">+ dimensions()</text>
</a>
</g>
</g>
<!-- Node2&#45;&gt;Node1 -->
<g id="edge1" class="edge"><title>Node2&#45;&gt;Node1</title>
<path fill="none" stroke="midnightblue" d="M95.0142,-144.372C95.0142,-135.639 95.0142,-126.683 95.0142,-118.023"/>
<polygon fill="none" stroke="midnightblue" points="91.5143,-144.489 95.0142,-154.489 98.5143,-144.489 91.5143,-144.489"/>
</g>
<!-- Node3 -->
<g id="node3" class="node"><title>Node3</title>
<g id="a_node3"><a xlink:href="class_hydro_couple_1_1_i_identity.html" target="_top" xlink:title="IIdentity interface class defines a method to get the Id of an HydroCouple entity. ">
<polygon fill="white" stroke="black" points="21.0034,-295.854 21.0034,-399.864 169.025,-399.864 169.025,-295.854 21.0034,-295.854"/>
<text text-anchor="middle" x="95.0142" y="-387.864" font-family="Monaco" font-size="10.00">HydroCouple::IIdentity</text>
<polyline fill="none" stroke="black" points="21.0034,-378.529 169.025,-378.529 "/>
<text text-anchor="middle" x="95.0142" y="-366.529" font-family="Monaco" font-size="10.00"> </text>
<polyline fill="none" stroke="black" points="21.0034,-357.194 169.025,-357.194 "/>
<text text-anchor="start" x="29.0034" y="-345.194" font-family="Monaco" font-size="10.00">+ ~IIdentity()</text>
<text text-anchor="start" x="29.0034" y="-331.859" font-family="Monaco" font-size="10.00">+ MPI_Comm()</text>
<text text-anchor="start" x="29.0034" y="-318.524" font-family="Monaco" font-size="10.00">+ MPI_Rank()</text>
<text text-anchor="start" x="29.0034" y="-305.189" font-family="Monaco" font-size="10.00">+ id()</text>
</a>
</g>
</g>
<!-- Node3&#45;&gt;Node2 -->
<g id="edge2" class="edge"><title>Node3&#45;&gt;Node2</title>
<path fill="none" stroke="midnightblue" d="M95.0142,-285.296C95.0142,-276.513 95.0142,-267.56 95.0142,-259.006"/>
<polygon fill="none" stroke="midnightblue" points="91.5143,-285.492 95.0142,-295.492 98.5143,-285.492 91.5143,-285.492"/>
</g>
<!-- Node4 -->
<g id="node4" class="node"><title>Node4</title>
<g id="a_node4"><a xlink:href="class_hydro_couple_1_1_i_description.html" target="_top" xlink:title="IDescription interface class provides descriptive information on a HydroCouple object. ">
<polygon fill="white" stroke="black" points="12.002,-436.864 12.002,-554.209 178.026,-554.209 178.026,-436.864 12.002,-436.864"/>
<text text-anchor="middle" x="95.0142" y="-542.209" font-family="Monaco" font-size="10.00">HydroCouple::IDescription</text>
<polyline fill="none" stroke="black" points="12.002,-532.874 178.026,-532.874 "/>
<text text-anchor="middle" x="95.0142" y="-520.874" font-family="Monaco" font-size="10.00"> </text>
<polyline fill="none" stroke="black" points="12.002,-511.539 178.026,-511.539 "/>
<text text-anchor="start" x="20.002" y="-499.539" font-family="Monaco" font-size="10.00">+ ~IDescription()</text>
<text text-anchor="start" x="20.002" y="-486.204" font-family="Monaco" font-size="10.00">+ getCaption()</text>
<text text-anchor="start" x="20.002" y="-472.869" font-family="Monaco" font-size="10.00">+ setCaption()</text>
<text text-anchor="start" x="20.002" y="-459.534" font-family="Monaco" font-size="10.00">+ getDescription()</text>
<text text-anchor="start" x="20.002" y="-446.199" font-family="Monaco" font-size="10.00">+ setDescription()</text>
</a>
</g>
</g>
<!-- Node4&#45;&gt;Node3 -->
<g id="edge3" class="edge"><title>Node4&#45;&gt;Node3</title>
<path fill="none" stroke="midnightblue" d="M95.0142,-426.263C95.0142,-417.445 95.0142,-408.537 95.0142,-400.06"/>
<polygon fill="none" stroke="midnightblue" points="91.5143,-426.543 95.0142,-436.543 98.5143,-426.543 91.5143,-426.543"/>
</g>
<!-- Node5 -->
<g id="node5" class="node"><title>Node5</title>
<g id="a_node5"><a xlink:href="class_hydro_couple_1_1_i_property_changed.html" target="_top" xlink:title="IPropertyChanged interface is used to emit signal/event when a property of an object changes...">
<polygon fill="white" stroke="black" points="0,-591.209 0,-655.214 190.028,-655.214 190.028,-591.209 0,-591.209"/>
<text text-anchor="middle" x="95.0142" y="-643.214" font-family="Monaco" font-size="10.00">HydroCouple::IPropertyChanged</text>
<polyline fill="none" stroke="black" points="0,-633.879 190.028,-633.879 "/>
<text text-anchor="middle" x="95.0142" y="-621.879" font-family="Monaco" font-size="10.00"> </text>
<polyline fill="none" stroke="black" points="0,-612.544 190.028,-612.544 "/>
<text text-anchor="start" x="8" y="-600.544" font-family="Monaco" font-size="10.00">+ ~IPropertyChanged()</text>
</a>
</g>
</g>
<!-- Node5&#45;&gt;Node4 -->
<g id="edge4" class="edge"><title>Node5&#45;&gt;Node4</title>
<path fill="none" stroke="midnightblue" d="M95.0142,-580.889C95.0142,-572.504 95.0142,-563.537 95.0142,-554.695"/>
<polygon fill="none" stroke="midnightblue" points="91.5143,-581.146 95.0142,-591.146 98.5143,-581.146 91.5143,-581.146"/>
</g>
</g>
</svg>
