<?xml version="1.0" encoding="UTF-8" standalone="no"?>
<!DOCTYPE svg PUBLIC "-//W3C//DTD SVG 1.1//EN"
 "http://www.w3.org/Graphics/SVG/1.1/DTD/svg11.dtd">
<!-- Generated by graphviz version 2.38.0 (20140413.2041)
 -->
<!-- Title: HydroCouple::IDimension Pages: 1 -->
<svg width="198pt" height="469pt"
 viewBox="0.00 0.00 198.03 469.36" xmlns="http://www.w3.org/2000/svg" xmlns:xlink="http://www.w3.org/1999/xlink">
<g id="graph0" class="graph" transform="scale(1 1) rotate(0) translate(4 465.364)">
<title>HydroCouple::IDimension</title>
<!-- Node1 -->
<g id="node1" class="node"><title>Node1</title>
<polygon fill="#bfbfbf" stroke="black" points="18.0029,-0.5 18.0029,-91.1748 172.025,-91.1748 172.025,-0.5 18.0029,-0.5"/>
<text text-anchor="middle" x="95.0142" y="-79.1748" font-family="Monaco" font-size="10.00">HydroCouple::IDimension</text>
<polyline fill="none" stroke="black" points="18.0029,-69.8398 172.025,-69.8398 "/>
<text text-anchor="middle" x="95.0142" y="-57.8398" font-family="Monaco" font-size="10.00"> </text>
<polyline fill="none" stroke="black" points="18.0029,-48.5049 172.025,-48.5049 "/>
<text text-anchor="start" x="26.0029" y="-36.5049" font-family="Monaco" font-size="10.00">+ ~IDimension()</text>
<text text-anchor="start" x="26.0029" y="-23.1699" font-family="Monaco" font-size="10.00">+ length()</text>
<text text-anchor="start" x="26.0029" y="-9.83496" font-family="Monaco" font-size="10.00">+ lengthType()</text>
</g>
<!-- Node2 -->
<g id="node2" class="node"><title>Node2</title>
<g id="a_node2"><a xlink:href="class_hydro_couple_1_1_i_identity.html" target="_top" xlink:title="IIdentity interface class defines a method to get the Id of an HydroCouple entity. ">
<polygon fill="none" stroke="black" points="21.0034,-128.175 21.0034,-205.515 169.025,-205.515 169.025,-128.175 21.0034,-128.175"/>
<text text-anchor="middle" x="95.0142" y="-193.515" font-family="Monaco" font-size="10.00">HydroCouple::IIdentity</text>
<polyline fill="none" stroke="black" points="21.0034,-184.18 169.025,-184.18 "/>
<text text-anchor="middle" x="95.0142" y="-172.18" font-family="Monaco" font-size="10.00"> </text>
<polyline fill="none" stroke="black" points="21.0034,-162.845 169.025,-162.845 "/>
<text text-anchor="start" x="29.0034" y="-150.845" font-family="Monaco" font-size="10.00">+ ~IIdentity()</text>
<text text-anchor="start" x="29.0034" y="-137.51" font-family="Monaco" font-size="10.00">+ id()</text>
</a>
</g>
</g>
<!-- Node2&#45;&gt;Node1 -->
<g id="edge1" class="edge"><title>Node2&#45;&gt;Node1</title>
<path fill="none" stroke="midnightblue" d="M95.0142,-117.855C95.0142,-109.157 95.0142,-100.117 95.0142,-91.5177"/>
<polygon fill="none" stroke="midnightblue" points="91.5143,-117.863 95.0142,-127.863 98.5143,-117.863 91.5143,-117.863"/>
</g>
<!-- Node3 -->
<g id="node3" class="node"><title>Node3</title>
<g id="a_node3"><a xlink:href="class_hydro_couple_1_1_i_description.html" target="_top" xlink:title="IDescription interface class provides descriptive information on a HydroCouple object. ">
<polygon fill="none" stroke="black" points="12.002,-242.515 12.002,-359.859 178.026,-359.859 178.026,-242.515 12.002,-242.515"/>
<text text-anchor="middle" x="95.0142" y="-347.859" font-family="Monaco" font-size="10.00">HydroCouple::IDescription</text>
<polyline fill="none" stroke="black" points="12.002,-338.524 178.026,-338.524 "/>
<text text-anchor="middle" x="95.0142" y="-326.524" font-family="Monaco" font-size="10.00"> </text>
<polyline fill="none" stroke="black" points="12.002,-317.189 178.026,-317.189 "/>
<text text-anchor="start" x="20.002" y="-305.189" font-family="Monaco" font-size="10.00">+ ~IDescription()</text>
<text text-anchor="start" x="20.002" y="-291.854" font-family="Monaco" font-size="10.00">+ caption()</text>
<text text-anchor="start" x="20.002" y="-278.52" font-family="Monaco" font-size="10.00">+ setCaption()</text>
<text text-anchor="start" x="20.002" y="-265.185" font-family="Monaco" font-size="10.00">+ description()</text>
<text text-anchor="start" x="20.002" y="-251.85" font-family="Monaco" font-size="10.00">+ setDescription()</text>
</a>
</g>
</g>
<!-- Node3&#45;&gt;Node2 -->
<g id="edge2" class="edge"><title>Node3&#45;&gt;Node2</title>
<path fill="none" stroke="midnightblue" d="M95.0142,-231.949C95.0142,-222.91 95.0142,-213.923 95.0142,-205.662"/>
<polygon fill="none" stroke="midnightblue" points="91.5143,-232.14 95.0142,-242.14 98.5143,-232.14 91.5143,-232.14"/>
</g>
<!-- Node4 -->
<g id="node4" class="node"><title>Node4</title>
<g id="a_node4"><a xlink:href="class_hydro_couple_1_1_i_property_changed.html" target="_top" xlink:title="IPropertyChanged interface is used to emit signal/event when a property of an object changes...">
<polygon fill="none" stroke="black" points="0,-396.859 0,-460.864 190.028,-460.864 190.028,-396.859 0,-396.859"/>
<text text-anchor="middle" x="95.0142" y="-448.864" font-family="Monaco" font-size="10.00">HydroCouple::IPropertyChanged</text>
<polyline fill="none" stroke="black" points="0,-439.529 190.028,-439.529 "/>
<text text-anchor="middle" x="95.0142" y="-427.529" font-family="Monaco" font-size="10.00"> </text>
<polyline fill="none" stroke="black" points="0,-418.194 190.028,-418.194 "/>
<text text-anchor="start" x="8" y="-406.194" font-family="Monaco" font-size="10.00">+ ~IPropertyChanged()</text>
</a>
</g>
</g>
<!-- Node4&#45;&gt;Node3 -->
<g id="edge3" class="edge"><title>Node4&#45;&gt;Node3</title>
<path fill="none" stroke="midnightblue" d="M95.0142,-386.539C95.0142,-378.154 95.0142,-369.188 95.0142,-360.345"/>
<polygon fill="none" stroke="midnightblue" points="91.5143,-386.796 95.0142,-396.796 98.5143,-386.796 91.5143,-386.796"/>
</g>
</g>
</svg>
