<?xml version="1.0" encoding="UTF-8" standalone="no"?>
<!DOCTYPE svg PUBLIC "-//W3C//DTD SVG 1.1//EN"
 "http://www.w3.org/Graphics/SVG/1.1/DTD/svg11.dtd">
<!-- Generated by graphviz version 2.38.0 (20140413.2041)
 -->
<!-- Title: HydroCouple::SpatioTemporal::ITimeRegularGrid2DComponentItem Pages: 1 -->
<!--zoomable 791 -->
<svg id="main" version="1.1" xmlns="http://www.w3.org/2000/svg" xmlns:xlink="http://www.w3.org/1999/xlink" xml:space="preserve" onload="init(evt)">
<style type="text/css"><![CDATA[
.edge:hover path { stroke: red; }
.edge:hover polygon { stroke: red; fill: red; }
]]></style>
<script type="text/javascript"><![CDATA[
var edges = document.getElementsByTagName('g');
if (edges && edges.length) {
  for (var i=0;i<edges.length;i++) {
    if (edges[i].id.substr(0,4)=='edge') {
      edges[i].setAttribute('class','edge');
    }
  }
}
]]></script>
        <defs>
                <circle id="rim" cx="0" cy="0" r="7"/>
                <circle id="rim2" cx="0" cy="0" r="3.5"/>
                <g id="zoomPlus">
                        <use xlink:href="#rim" fill="#404040">
                                <set attributeName="fill" to="#808080" begin="zoomplus.mouseover" end="zoomplus.mouseout"/>
                        </use>
                        <path d="M-4,0h8M0,-4v8" fill="none" stroke="white" stroke-width="1.5" pointer-events="none"/>
                </g>
                <g id="zoomMin">
                        <use xlink:href="#rim" fill="#404040">
                                <set attributeName="fill" to="#808080" begin="zoomminus.mouseover" end="zoomminus.mouseout"/>
                        </use>
                        <path d="M-4,0h8" fill="none" stroke="white" stroke-width="1.5" pointer-events="none"/>
                </g>
                <g id="dirArrow">
                        <path fill="none" stroke="white" stroke-width="1.5" d="M0,-3.0v7 M-2.5,-0.5L0,-3.0L2.5,-0.5"/>
                </g>
               <g id="resetDef">
                       <use xlink:href="#rim2" fill="#404040">
                               <set attributeName="fill" to="#808080" begin="reset.mouseover" end="reset.mouseout"/>
                       </use>
               </g>
        </defs>

<script type="text/javascript">
var viewWidth = 388;
var viewHeight = 791;
var sectionId = 'dynsection-1';
</script>
<script xlink:href="svgpan.js"/>
<svg id="graph" class="graph">
<g id="viewport">
<title>HydroCouple::SpatioTemporal::ITimeRegularGrid2DComponentItem</title>
<polygon fill="white" stroke="none" points="-4,4 -4,-787.389 384.027,-787.389 384.027,4 -4,4"/>
<!-- Node1 -->
<g id="node1" class="node"><title>Node1</title>
<polygon fill="#bfbfbf" stroke="black" points="59.9937,-0.5 59.9937,-77.8398 292.029,-77.8398 292.029,-0.5 59.9937,-0.5"/>
<text text-anchor="start" x="67.9937" y="-65.8398" font-family="Monaco" font-size="10.00">HydroCouple::SpatioTemporal</text>
<text text-anchor="middle" x="176.011" y="-52.5049" font-family="Monaco" font-size="10.00">::ITimeRegularGrid2DComponentItem</text>
<polyline fill="none" stroke="black" points="59.9937,-43.1699 292.029,-43.1699 "/>
<text text-anchor="middle" x="176.011" y="-31.1699" font-family="Monaco" font-size="10.00"> </text>
<polyline fill="none" stroke="black" points="59.9937,-21.835 292.029,-21.835 "/>
<text text-anchor="start" x="67.9937" y="-9.83496" font-family="Monaco" font-size="10.00">+ ~ITimeRegularGrid2DComponentItem()</text>
</g>
<!-- Node2 -->
<g id="node2" class="node"><title>Node2</title>
<g id="a_node2"><a xlink:href="class_hydro_couple_1_1_temporal_1_1_i_time_component_item.html" target="_top" xlink:title="ITimeComponentItem is an IComponentItem with a temporal attribute. ">
<polygon fill="white" stroke="black" points="0,-114.84 0,-245.52 154.022,-245.52 154.022,-114.84 0,-114.84"/>
<text text-anchor="start" x="8" y="-233.52" font-family="Monaco" font-size="10.00">HydroCouple::Temporal</text>
<text text-anchor="middle" x="77.0112" y="-220.185" font-family="Monaco" font-size="10.00">::ITimeComponentItem</text>
<polyline fill="none" stroke="black" points="0,-210.85 154.022,-210.85 "/>
<text text-anchor="middle" x="77.0112" y="-198.85" font-family="Monaco" font-size="10.00"> </text>
<polyline fill="none" stroke="black" points="0,-189.515 154.022,-189.515 "/>
<text text-anchor="start" x="8" y="-177.515" font-family="Monaco" font-size="10.00">+ ~ITimeComponentItem()</text>
<text text-anchor="start" x="8" y="-164.18" font-family="Monaco" font-size="10.00">+ timeDimension()</text>
<text text-anchor="start" x="8" y="-150.845" font-family="Monaco" font-size="10.00">+ times()</text>
<text text-anchor="start" x="8" y="-137.51" font-family="Monaco" font-size="10.00">+ timeSpan()</text>
<text text-anchor="start" x="8" y="-124.175" font-family="Monaco" font-size="10.00">+ time()</text>
</a>
</g>
</g>
<!-- Node2&#45;&gt;Node1 -->
<g id="edge1" class="edge"><title>Node2&#45;&gt;Node1</title>
<path fill="none" stroke="midnightblue" d="M128.875,-106.356C135.826,-96.5953 142.715,-86.9223 148.992,-78.109"/>
<polygon fill="none" stroke="midnightblue" points="125.983,-104.382 123.033,-114.558 131.685,-108.443 125.983,-104.382"/>
</g>
<!-- Node3 -->
<g id="node3" class="node"><title>Node3</title>
<g id="a_node3"><a xlink:href="class_hydro_couple_1_1_i_component_item.html" target="_top" xlink:title="IComponentItem is a fundamental unit of data for a component. ">
<polygon fill="white" stroke="black" points="86.998,-282.52 86.998,-386.529 265.024,-386.529 265.024,-282.52 86.998,-282.52"/>
<text text-anchor="middle" x="176.011" y="-374.529" font-family="Monaco" font-size="10.00">HydroCouple::IComponentItem</text>
<polyline fill="none" stroke="black" points="86.998,-365.194 265.024,-365.194 "/>
<text text-anchor="middle" x="176.011" y="-353.194" font-family="Monaco" font-size="10.00"> </text>
<polyline fill="none" stroke="black" points="86.998,-343.859 265.024,-343.859 "/>
<text text-anchor="start" x="94.998" y="-331.859" font-family="Monaco" font-size="10.00">+ ~IComponentItem()</text>
<text text-anchor="start" x="94.998" y="-318.524" font-family="Monaco" font-size="10.00">+ modelComponent()</text>
<text text-anchor="start" x="94.998" y="-305.189" font-family="Monaco" font-size="10.00">+ modelComponentId()</text>
<text text-anchor="start" x="94.998" y="-291.854" font-family="Monaco" font-size="10.00">+ dimensions()</text>
</a>
</g>
</g>
<!-- Node3&#45;&gt;Node2 -->
<g id="edge2" class="edge"><title>Node3&#45;&gt;Node2</title>
<path fill="none" stroke="midnightblue" d="M137.314,-273.976C131.292,-264.709 125.046,-255.097 118.956,-245.725"/>
<polygon fill="none" stroke="midnightblue" points="134.386,-275.894 142.77,-282.372 140.256,-272.08 134.386,-275.894"/>
</g>
<!-- Node7 -->
<g id="node7" class="node"><title>Node7</title>
<g id="a_node7"><a xlink:href="class_hydro_couple_1_1_spatial_1_1_i_regular_grid2_d_component_item.html" target="_top" xlink:title="An IRegularGrid2DComponentItem represents an IRegularGrid2D IComponentItem. ">
<polygon fill="white" stroke="black" points="171.996,-121.507 171.996,-238.852 380.027,-238.852 380.027,-121.507 171.996,-121.507"/>
<text text-anchor="start" x="179.996" y="-226.852" font-family="Monaco" font-size="10.00">HydroCouple::Spatial</text>
<text text-anchor="middle" x="276.011" y="-213.517" font-family="Monaco" font-size="10.00">::IRegularGrid2DComponentItem</text>
<polyline fill="none" stroke="black" points="171.996,-204.182 380.027,-204.182 "/>
<text text-anchor="middle" x="276.011" y="-192.182" font-family="Monaco" font-size="10.00"> </text>
<polyline fill="none" stroke="black" points="171.996,-182.847 380.027,-182.847 "/>
<text text-anchor="start" x="179.996" y="-170.847" font-family="Monaco" font-size="10.00">+ ~IRegularGrid2DComponentItem()</text>
<text text-anchor="start" x="179.996" y="-157.512" font-family="Monaco" font-size="10.00">+ numXCellsDimension()</text>
<text text-anchor="start" x="179.996" y="-144.177" font-family="Monaco" font-size="10.00">+ numYCellsDimension()</text>
<text text-anchor="start" x="179.996" y="-130.842" font-family="Monaco" font-size="10.00">+ grid()</text>
</a>
</g>
</g>
<!-- Node3&#45;&gt;Node7 -->
<g id="edge7" class="edge"><title>Node3&#45;&gt;Node7</title>
<path fill="none" stroke="midnightblue" d="M215.245,-273.754C222.744,-262.33 230.582,-250.388 238.041,-239.025"/>
<polygon fill="none" stroke="midnightblue" points="212.15,-272.091 209.588,-282.372 218.001,-275.933 212.15,-272.091"/>
</g>
<!-- Node4 -->
<g id="node4" class="node"><title>Node4</title>
<g id="a_node4"><a xlink:href="class_hydro_couple_1_1_i_identity.html" target="_top" xlink:title="IIdentity interface class defines a method to get the Id of an HydroCouple entity. ">
<polygon fill="white" stroke="black" points="102,-423.529 102,-527.539 250.022,-527.539 250.022,-423.529 102,-423.529"/>
<text text-anchor="middle" x="176.011" y="-515.539" font-family="Monaco" font-size="10.00">HydroCouple::IIdentity</text>
<polyline fill="none" stroke="black" points="102,-506.204 250.022,-506.204 "/>
<text text-anchor="middle" x="176.011" y="-494.204" font-family="Monaco" font-size="10.00"> </text>
<polyline fill="none" stroke="black" points="102,-484.869 250.022,-484.869 "/>
<text text-anchor="start" x="110" y="-472.869" font-family="Monaco" font-size="10.00">+ ~IIdentity()</text>
<text text-anchor="start" x="110" y="-459.534" font-family="Monaco" font-size="10.00">+ MPI_Comm()</text>
<text text-anchor="start" x="110" y="-446.199" font-family="Monaco" font-size="10.00">+ MPI_Rank()</text>
<text text-anchor="start" x="110" y="-432.864" font-family="Monaco" font-size="10.00">+ id()</text>
</a>
</g>
</g>
<!-- Node4&#45;&gt;Node3 -->
<g id="edge3" class="edge"><title>Node4&#45;&gt;Node3</title>
<path fill="none" stroke="midnightblue" d="M176.011,-412.97C176.011,-404.188 176.011,-395.235 176.011,-386.68"/>
<polygon fill="none" stroke="midnightblue" points="172.511,-413.167 176.011,-423.167 179.511,-413.167 172.511,-413.167"/>
</g>
<!-- Node5 -->
<g id="node5" class="node"><title>Node5</title>
<g id="a_node5"><a xlink:href="class_hydro_couple_1_1_i_description.html" target="_top" xlink:title="IDescription interface class provides descriptive information on a HydroCouple object. ">
<polygon fill="white" stroke="black" points="92.999,-564.539 92.999,-681.884 259.023,-681.884 259.023,-564.539 92.999,-564.539"/>
<text text-anchor="middle" x="176.011" y="-669.884" font-family="Monaco" font-size="10.00">HydroCouple::IDescription</text>
<polyline fill="none" stroke="black" points="92.999,-660.549 259.023,-660.549 "/>
<text text-anchor="middle" x="176.011" y="-648.549" font-family="Monaco" font-size="10.00"> </text>
<polyline fill="none" stroke="black" points="92.999,-639.214 259.023,-639.214 "/>
<text text-anchor="start" x="100.999" y="-627.214" font-family="Monaco" font-size="10.00">+ ~IDescription()</text>
<text text-anchor="start" x="100.999" y="-613.879" font-family="Monaco" font-size="10.00">+ getCaption()</text>
<text text-anchor="start" x="100.999" y="-600.544" font-family="Monaco" font-size="10.00">+ setCaption()</text>
<text text-anchor="start" x="100.999" y="-587.209" font-family="Monaco" font-size="10.00">+ getDescription()</text>
<text text-anchor="start" x="100.999" y="-573.874" font-family="Monaco" font-size="10.00">+ setDescription()</text>
</a>
</g>
</g>
<!-- Node5&#45;&gt;Node4 -->
<g id="edge4" class="edge"><title>Node5&#45;&gt;Node4</title>
<path fill="none" stroke="midnightblue" d="M176.011,-553.938C176.011,-545.12 176.011,-536.212 176.011,-527.734"/>
<polygon fill="none" stroke="midnightblue" points="172.511,-554.217 176.011,-564.217 179.511,-554.217 172.511,-554.217"/>
</g>
<!-- Node6 -->
<g id="node6" class="node"><title>Node6</title>
<g id="a_node6"><a xlink:href="class_hydro_couple_1_1_i_property_changed.html" target="_top" xlink:title="IPropertyChanged interface is used to emit signal/event when a property of an object changes...">
<polygon fill="white" stroke="black" points="80.9971,-718.884 80.9971,-782.889 271.025,-782.889 271.025,-718.884 80.9971,-718.884"/>
<text text-anchor="middle" x="176.011" y="-770.889" font-family="Monaco" font-size="10.00">HydroCouple::IPropertyChanged</text>
<polyline fill="none" stroke="black" points="80.9971,-761.554 271.025,-761.554 "/>
<text text-anchor="middle" x="176.011" y="-749.554" font-family="Monaco" font-size="10.00"> </text>
<polyline fill="none" stroke="black" points="80.9971,-740.219 271.025,-740.219 "/>
<text text-anchor="start" x="88.9971" y="-728.219" font-family="Monaco" font-size="10.00">+ ~IPropertyChanged()</text>
</a>
</g>
</g>
<!-- Node6&#45;&gt;Node5 -->
<g id="edge5" class="edge"><title>Node6&#45;&gt;Node5</title>
<path fill="none" stroke="midnightblue" d="M176.011,-708.563C176.011,-700.178 176.011,-691.212 176.011,-682.37"/>
<polygon fill="none" stroke="midnightblue" points="172.511,-708.821 176.011,-718.821 179.511,-708.821 172.511,-708.821"/>
</g>
<!-- Node7&#45;&gt;Node1 -->
<g id="edge6" class="edge"><title>Node7&#45;&gt;Node1</title>
<path fill="none" stroke="midnightblue" d="M228.513,-113.153C219.866,-101.133 211.119,-88.9732 203.31,-78.1176"/>
<polygon fill="none" stroke="midnightblue" points="225.79,-115.361 234.471,-121.435 231.472,-111.273 225.79,-115.361"/>
</g>
</g>
</svg>
        <g id="navigator" transform="translate(0 0)" fill="#404254">
                <rect fill="#f2f5e9" fill-opacity="0.5" stroke="#606060" stroke-width=".5" x="0" y="0" width="60" height="60"/>
                <use id="zoomplus" xlink:href="#zoomPlus" x="17" y="9" onmousedown="handleZoom(evt,'in')"/>
                <use id="zoomminus" xlink:href="#zoomMin" x="42" y="9" onmousedown="handleZoom(evt,'out')"/>
                <use id="reset" xlink:href="#resetDef" x="30" y="36" onmousedown="handleReset()"/>
                <g id="arrowUp" xlink:href="#dirArrow" transform="translate(30 24)" onmousedown="handlePan(0,-1)">
                  <use xlink:href="#rim" fill="#404040">
                        <set attributeName="fill" to="#808080" begin="arrowUp.mouseover" end="arrowUp.mouseout"/>
                  </use>
                  <path fill="none" stroke="white" stroke-width="1.5" d="M0,-3.0v7 M-2.5,-0.5L0,-3.0L2.5,-0.5"/>
                </g>
                <g id="arrowRight" xlink:href="#dirArrow" transform="rotate(90) translate(36 -43)" onmousedown="handlePan(1,0)">
                  <use xlink:href="#rim" fill="#404040">
                        <set attributeName="fill" to="#808080" begin="arrowRight.mouseover" end="arrowRight.mouseout"/>
                  </use>
                  <path fill="none" stroke="white" stroke-width="1.5" d="M0,-3.0v7 M-2.5,-0.5L0,-3.0L2.5,-0.5"/>
                </g>
                <g id="arrowDown" xlink:href="#dirArrow" transform="rotate(180) translate(-30 -48)" onmousedown="handlePan(0,1)">
                  <use xlink:href="#rim" fill="#404040">
                        <set attributeName="fill" to="#808080" begin="arrowDown.mouseover" end="arrowDown.mouseout"/>
                  </use>
                  <path fill="none" stroke="white" stroke-width="1.5" d="M0,-3.0v7 M-2.5,-0.5L0,-3.0L2.5,-0.5"/>
                </g>
                <g id="arrowLeft" xlink:href="#dirArrow" transform="rotate(270) translate(-36 17)" onmousedown="handlePan(-1,0)">
                  <use xlink:href="#rim" fill="#404040">
                        <set attributeName="fill" to="#808080" begin="arrowLeft.mouseover" end="arrowLeft.mouseout"/>
                  </use>
                  <path fill="none" stroke="white" stroke-width="1.5" d="M0,-3.0v7 M-2.5,-0.5L0,-3.0L2.5,-0.5"/>
                </g>
        </g>
        <svg viewBox="0 0 15 15" width="100%" height="30px" preserveAspectRatio="xMaxYMin meet">
         <g id="arrow_out" transform="scale(0.3 0.3)">
          <a xlink:href="class_hydro_couple_1_1_spatio_temporal_1_1_i_time_regular_grid2_d_component_item__coll__graph_org.svg" target="_base">
           <rect id="button" ry="5" rx="5" y="6" x="6" height="38" width="38"
                fill="#f2f5e9" fill-opacity="0.5" stroke="#606060" stroke-width="1.0"/>
           <path id="arrow"
             d="M 11.500037,31.436501 C 11.940474,20.09759 22.043105,11.32322 32.158766,21.979434 L 37.068811,17.246167 C 37.068811,17.246167 37.088388,32 37.088388,32 L 22.160133,31.978069 C 22.160133,31.978069 26.997745,27.140456 26.997745,27.140456 C 18.528582,18.264221 13.291696,25.230495 11.500037,31.436501 z"
             style="fill:#404040;"/>
          </a>
         </g>
        </svg>
</svg>
