<?xml version="1.0" encoding="UTF-8" standalone="no"?>
<!DOCTYPE svg PUBLIC "-//W3C//DTD SVG 1.1//EN"
 "http://www.w3.org/Graphics/SVG/1.1/DTD/svg11.dtd">
<!-- Generated by graphviz version 2.38.0 (20140413.2041)
 -->
<!-- Title: HydroCouple::IExchangeItem Pages: 1 -->
<!--zoomable 1026 -->
<svg id="main" version="1.1" xmlns="http://www.w3.org/2000/svg" xmlns:xlink="http://www.w3.org/1999/xlink" xml:space="preserve" onload="init(evt)">
<style type="text/css"><![CDATA[
.edge:hover path { stroke: red; }
.edge:hover polygon { stroke: red; fill: red; }
]]></style>
<script type="text/javascript"><![CDATA[
var edges = document.getElementsByTagName('g');
if (edges && edges.length) {
  for (var i=0;i<edges.length;i++) {
    if (edges[i].id.substr(0,4)=='edge') {
      edges[i].setAttribute('class','edge');
    }
  }
}
]]></script>
        <defs>
                <circle id="rim" cx="0" cy="0" r="7"/>
                <circle id="rim2" cx="0" cy="0" r="3.5"/>
                <g id="zoomPlus">
                        <use xlink:href="#rim" fill="#404040">
                                <set attributeName="fill" to="#808080" begin="zoomplus.mouseover" end="zoomplus.mouseout"/>
                        </use>
                        <path d="M-4,0h8M0,-4v8" fill="none" stroke="white" stroke-width="1.5" pointer-events="none"/>
                </g>
                <g id="zoomMin">
                        <use xlink:href="#rim" fill="#404040">
                                <set attributeName="fill" to="#808080" begin="zoomminus.mouseover" end="zoomminus.mouseout"/>
                        </use>
                        <path d="M-4,0h8" fill="none" stroke="white" stroke-width="1.5" pointer-events="none"/>
                </g>
                <g id="dirArrow">
                        <path fill="none" stroke="white" stroke-width="1.5" d="M0,-3.0v7 M-2.5,-0.5L0,-3.0L2.5,-0.5"/>
                </g>
               <g id="resetDef">
                       <use xlink:href="#rim2" fill="#404040">
                               <set attributeName="fill" to="#808080" begin="reset.mouseover" end="reset.mouseout"/>
                       </use>
               </g>
        </defs>

<script type="text/javascript">
var viewWidth = 2110;
var viewHeight = 1026;
var sectionId = 'dynsection-0';
</script>
<script xlink:href="svgpan.js"/>
<svg id="graph" class="graph">
<g id="viewport">
<title>HydroCouple::IExchangeItem</title>
<!-- Node1 -->
<g id="node1" class="node"><title>Node1</title>
<polygon fill="#bfbfbf" stroke="black" points="977.003,-362.529 977.003,-426.534 1149.03,-426.534 1149.03,-362.529 977.003,-362.529"/>
<text text-anchor="middle" x="1063.02" y="-414.534" font-family="Monaco" font-size="10.00">HydroCouple::IExchangeItem</text>
<polyline fill="none" stroke="black" points="977.003,-405.199 1149.03,-405.199 "/>
<text text-anchor="middle" x="1063.02" y="-393.199" font-family="Monaco" font-size="10.00"> </text>
<polyline fill="none" stroke="black" points="977.003,-383.864 1149.03,-383.864 "/>
<text text-anchor="start" x="985.003" y="-371.864" font-family="Monaco" font-size="10.00">+ ~IExchangeItem()</text>
</g>
<!-- Node6 -->
<g id="node6" class="node"><title>Node6</title>
<g id="a_node6"><a xlink:href="class_hydro_couple_1_1_i_id_based_exchange_item.html" target="_top" xlink:title="The IIdBasedExchangeItem class. ">
<polygon fill="none" stroke="black" points="0,-214.852 0,-278.857 214.032,-278.857 214.032,-214.852 0,-214.852"/>
<text text-anchor="middle" x="107.016" y="-266.857" font-family="Monaco" font-size="10.00">HydroCouple::IIdBasedExchangeItem</text>
<polyline fill="none" stroke="black" points="0,-257.522 214.032,-257.522 "/>
<text text-anchor="middle" x="107.016" y="-245.522" font-family="Monaco" font-size="10.00"> </text>
<polyline fill="none" stroke="black" points="0,-236.187 214.032,-236.187 "/>
<text text-anchor="start" x="8" y="-224.187" font-family="Monaco" font-size="10.00">+ ~IIdBasedExchangeItem()</text>
</a>
</g>
</g>
<!-- Node1&#45;&gt;Node6 -->
<g id="edge5" class="edge"><title>Node1&#45;&gt;Node6</title>
<path fill="none" stroke="midnightblue" d="M966.71,-391.91C776.184,-387.704 357.919,-373.234 223.016,-326.029 193.561,-315.722 164.449,-296.066 142.757,-279.043"/>
<polygon fill="none" stroke="midnightblue" points="966.642,-395.409 976.716,-392.126 966.794,-388.411 966.642,-395.409"/>
</g>
<!-- Node7 -->
<g id="node7" class="node"><title>Node7</title>
<g id="a_node7"><a xlink:href="class_hydro_couple_1_1_i_input.html" target="_top" xlink:title="An IInput item that can accept values for an IModelComponent. ">
<polygon fill="none" stroke="black" points="232.007,-194.85 232.007,-298.859 362.025,-298.859 362.025,-194.85 232.007,-194.85"/>
<text text-anchor="middle" x="297.016" y="-286.859" font-family="Monaco" font-size="10.00">HydroCouple::IInput</text>
<polyline fill="none" stroke="black" points="232.007,-277.524 362.025,-277.524 "/>
<text text-anchor="middle" x="297.016" y="-265.524" font-family="Monaco" font-size="10.00"> </text>
<polyline fill="none" stroke="black" points="232.007,-256.189 362.025,-256.189 "/>
<text text-anchor="start" x="240.007" y="-244.189" font-family="Monaco" font-size="10.00">+ ~IInput()</text>
<text text-anchor="start" x="240.007" y="-230.854" font-family="Monaco" font-size="10.00">+ provider()</text>
<text text-anchor="start" x="240.007" y="-217.52" font-family="Monaco" font-size="10.00">+ setProvider()</text>
<text text-anchor="start" x="240.007" y="-204.185" font-family="Monaco" font-size="10.00">+ canConsume()</text>
</a>
</g>
</g>
<!-- Node1&#45;&gt;Node7 -->
<g id="edge6" class="edge"><title>Node1&#45;&gt;Node7</title>
<path fill="none" stroke="midnightblue" d="M966.793,-392.385C801.976,-389.069 473.502,-376.173 371.016,-326.029 357.755,-319.541 345.631,-309.612 335.206,-298.985"/>
<polygon fill="none" stroke="midnightblue" points="966.861,-395.887 976.926,-392.581 966.996,-388.888 966.861,-395.887"/>
</g>
<!-- Node9 -->
<g id="node9" class="node"><title>Node9</title>
<g id="a_node9"><a xlink:href="class_hydro_couple_1_1_i_output.html" target="_top" xlink:title="An output exchange item that can deliver values from an IModelComponent. ">
<polygon fill="none" stroke="black" points="380.005,-168.18 380.005,-325.529 534.027,-325.529 534.027,-168.18 380.005,-168.18"/>
<text text-anchor="middle" x="457.016" y="-313.529" font-family="Monaco" font-size="10.00">HydroCouple::IOutput</text>
<polyline fill="none" stroke="black" points="380.005,-304.194 534.027,-304.194 "/>
<text text-anchor="middle" x="457.016" y="-292.194" font-family="Monaco" font-size="10.00"> </text>
<polyline fill="none" stroke="black" points="380.005,-282.859 534.027,-282.859 "/>
<text text-anchor="start" x="388.005" y="-270.859" font-family="Monaco" font-size="10.00">+ ~IOutput()</text>
<text text-anchor="start" x="388.005" y="-257.524" font-family="Monaco" font-size="10.00">+ consumers()</text>
<text text-anchor="start" x="388.005" y="-244.189" font-family="Monaco" font-size="10.00">+ addConsumer()</text>
<text text-anchor="start" x="388.005" y="-230.854" font-family="Monaco" font-size="10.00">+ removeConsumer()</text>
<text text-anchor="start" x="388.005" y="-217.52" font-family="Monaco" font-size="10.00">+ adaptedOutputs()</text>
<text text-anchor="start" x="388.005" y="-204.185" font-family="Monaco" font-size="10.00">+ addAdaptedOutput()</text>
<text text-anchor="start" x="388.005" y="-190.85" font-family="Monaco" font-size="10.00">+ removeAdaptedOutput()</text>
<text text-anchor="start" x="388.005" y="-177.515" font-family="Monaco" font-size="10.00">+ update()</text>
</a>
</g>
</g>
<!-- Node1&#45;&gt;Node9 -->
<g id="edge8" class="edge"><title>Node1&#45;&gt;Node9</title>
<path fill="none" stroke="midnightblue" d="M966.615,-387.929C837.53,-379.252 616.266,-359.928 543.016,-326.029 539.995,-324.631 537.006,-323.088 534.057,-321.425"/>
<polygon fill="none" stroke="midnightblue" points="966.685,-391.441 976.894,-388.61 967.148,-384.456 966.685,-391.441"/>
</g>
<!-- Node11 -->
<g id="node11" class="node"><title>Node11</title>
<g id="a_node11"><a xlink:href="class_hydro_couple_1_1_spatial_1_1_i_geometry_exchange_item.html" target="_top" xlink:title="An IExchangeItem class with a geometry component. ">
<polygon fill="none" stroke="black" points="552.003,-208.185 552.003,-285.524 724.029,-285.524 724.029,-208.185 552.003,-208.185"/>
<text text-anchor="start" x="560.003" y="-273.524" font-family="Monaco" font-size="10.00">HydroCouple::Spatial</text>
<text text-anchor="middle" x="638.016" y="-260.189" font-family="Monaco" font-size="10.00">::IGeometryExchangeItem</text>
<polyline fill="none" stroke="black" points="552.003,-250.854 724.029,-250.854 "/>
<text text-anchor="middle" x="638.016" y="-238.854" font-family="Monaco" font-size="10.00"> </text>
<polyline fill="none" stroke="black" points="552.003,-229.52 724.029,-229.52 "/>
<text text-anchor="start" x="560.003" y="-217.52" font-family="Monaco" font-size="10.00">+ ~IGeometryExchangeItem()</text>
</a>
</g>
</g>
<!-- Node1&#45;&gt;Node11 -->
<g id="edge10" class="edge"><title>Node1&#45;&gt;Node11</title>
<path fill="none" stroke="midnightblue" d="M966.406,-386.197C898.44,-378.122 806.813,-361.237 733.016,-326.029 712.003,-316.004 691.662,-300.344 675.229,-285.664"/>
<polygon fill="none" stroke="midnightblue" points="966.348,-389.713 976.681,-387.372 967.143,-382.758 966.348,-389.713"/>
</g>
<!-- Node12 -->
<g id="node12" class="node"><title>Node12</title>
<g id="a_node12"><a xlink:href="class_hydro_couple_1_1_spatial_1_1_i_polyhedral_surface_exchange_item.html" target="_top" xlink:title="An IPolyhedralSurfaceExchangeItem class with an IPolyhedralSurface component. ">
<polygon fill="none" stroke="black" points="741.999,-208.185 741.999,-285.524 968.033,-285.524 968.033,-208.185 741.999,-208.185"/>
<text text-anchor="start" x="749.999" y="-273.524" font-family="Monaco" font-size="10.00">HydroCouple::Spatial</text>
<text text-anchor="middle" x="855.016" y="-260.189" font-family="Monaco" font-size="10.00">::IPolyhedralSurfaceExchangeItem</text>
<polyline fill="none" stroke="black" points="741.999,-250.854 968.033,-250.854 "/>
<text text-anchor="middle" x="855.016" y="-238.854" font-family="Monaco" font-size="10.00"> </text>
<polyline fill="none" stroke="black" points="741.999,-229.52 968.033,-229.52 "/>
<text text-anchor="start" x="749.999" y="-217.52" font-family="Monaco" font-size="10.00">+ ~IPolyhedralSurfaceExchangeItem()</text>
</a>
</g>
</g>
<!-- Node1&#45;&gt;Node12 -->
<g id="edge11" class="edge"><title>Node1&#45;&gt;Node12</title>
<path fill="none" stroke="midnightblue" d="M1010.14,-356.496C979.142,-334.789 940.086,-307.435 908.918,-285.606"/>
<polygon fill="none" stroke="midnightblue" points="1008.45,-359.589 1018.65,-362.459 1012.47,-353.855 1008.45,-359.589"/>
</g>
<!-- Node13 -->
<g id="node13" class="node"><title>Node13</title>
<g id="a_node13"><a xlink:href="class_hydro_couple_1_1_spatial_1_1_i_raster_exhange_item.html" target="_top" xlink:title="An IRasterExhangeItem is an IExchangeItem with an IRaster. ">
<polygon fill="none" stroke="black" points="986.005,-208.185 986.005,-285.524 1140.03,-285.524 1140.03,-208.185 986.005,-208.185"/>
<text text-anchor="start" x="994.005" y="-273.524" font-family="Monaco" font-size="10.00">HydroCouple::Spatial</text>
<text text-anchor="middle" x="1063.02" y="-260.189" font-family="Monaco" font-size="10.00">::IRasterExhangeItem</text>
<polyline fill="none" stroke="black" points="986.005,-250.854 1140.03,-250.854 "/>
<text text-anchor="middle" x="1063.02" y="-238.854" font-family="Monaco" font-size="10.00"> </text>
<polyline fill="none" stroke="black" points="986.005,-229.52 1140.03,-229.52 "/>
<text text-anchor="start" x="994.005" y="-217.52" font-family="Monaco" font-size="10.00">+ ~IRasterExhangeItem()</text>
</a>
</g>
</g>
<!-- Node1&#45;&gt;Node13 -->
<g id="edge12" class="edge"><title>Node1&#45;&gt;Node13</title>
<path fill="none" stroke="midnightblue" d="M1063.02,-352.114C1063.02,-331.252 1063.02,-306.135 1063.02,-285.782"/>
<polygon fill="none" stroke="midnightblue" points="1059.52,-352.28 1063.02,-362.28 1066.52,-352.28 1059.52,-352.28"/>
</g>
<!-- Node14 -->
<g id="node14" class="node"><title>Node14</title>
<g id="a_node14"><a xlink:href="class_hydro_couple_1_1_spatial_1_1_i_regular_grid2_d_exhange_item.html" target="_top" xlink:title="An IRegularGrid2DExhangeItem is an IExchangeItem with an IRegularGrid2DComponentItem. ">
<polygon fill="none" stroke="black" points="1158,-208.185 1158,-285.524 1354.03,-285.524 1354.03,-208.185 1158,-208.185"/>
<text text-anchor="start" x="1166" y="-273.524" font-family="Monaco" font-size="10.00">HydroCouple::Spatial</text>
<text text-anchor="middle" x="1256.02" y="-260.189" font-family="Monaco" font-size="10.00">::IRegularGrid2DExhangeItem</text>
<polyline fill="none" stroke="black" points="1158,-250.854 1354.03,-250.854 "/>
<text text-anchor="middle" x="1256.02" y="-238.854" font-family="Monaco" font-size="10.00"> </text>
<polyline fill="none" stroke="black" points="1158,-229.52 1354.03,-229.52 "/>
<text text-anchor="start" x="1166" y="-217.52" font-family="Monaco" font-size="10.00">+ ~IRegularGrid2DExhangeItem()</text>
</a>
</g>
</g>
<!-- Node1&#45;&gt;Node14 -->
<g id="edge13" class="edge"><title>Node1&#45;&gt;Node14</title>
<path fill="none" stroke="midnightblue" d="M1112.66,-356.061C1141.25,-334.483 1177.08,-307.436 1205.77,-285.782"/>
<polygon fill="none" stroke="midnightblue" points="1110.29,-353.462 1104.42,-362.28 1114.51,-359.049 1110.29,-353.462"/>
</g>
<!-- Node15 -->
<g id="node15" class="node"><title>Node15</title>
<g id="a_node15"><a xlink:href="class_hydro_couple_1_1_spatial_1_1_i_regular_grid3_d_exhange_item.html" target="_top" xlink:title="An IRegularGrid3DExhangeItem is an IExchangeItem with an IRegularGrid3DComponentItem. ">
<polygon fill="none" stroke="black" points="1372,-208.185 1372,-285.524 1568.03,-285.524 1568.03,-208.185 1372,-208.185"/>
<text text-anchor="start" x="1380" y="-273.524" font-family="Monaco" font-size="10.00">HydroCouple::Spatial</text>
<text text-anchor="middle" x="1470.02" y="-260.189" font-family="Monaco" font-size="10.00">::IRegularGrid3DExhangeItem</text>
<polyline fill="none" stroke="black" points="1372,-250.854 1568.03,-250.854 "/>
<text text-anchor="middle" x="1470.02" y="-238.854" font-family="Monaco" font-size="10.00"> </text>
<polyline fill="none" stroke="black" points="1372,-229.52 1568.03,-229.52 "/>
<text text-anchor="start" x="1380" y="-217.52" font-family="Monaco" font-size="10.00">+ ~IRegularGrid3DExhangeItem()</text>
</a>
</g>
</g>
<!-- Node1&#45;&gt;Node15 -->
<g id="edge14" class="edge"><title>Node1&#45;&gt;Node15</title>
<path fill="none" stroke="midnightblue" d="M1159.01,-382.155C1219.53,-372.537 1298.2,-355.452 1363.02,-326.029 1385.75,-315.711 1408.43,-300.097 1427.02,-285.529"/>
<polygon fill="none" stroke="midnightblue" points="1158.42,-378.704 1149.08,-383.692 1159.49,-385.621 1158.42,-378.704"/>
</g>
<!-- Node16 -->
<g id="node16" class="node"><title>Node16</title>
<g id="a_node16"><a xlink:href="class_hydro_couple_1_1_spatial_1_1_i_t_i_n_exchange_item.html" target="_top" xlink:title="An ITINExchangeItem class with an TIN component. ">
<polygon fill="none" stroke="black" points="1586.01,-208.185 1586.01,-285.524 1728.03,-285.524 1728.03,-208.185 1586.01,-208.185"/>
<text text-anchor="start" x="1594.01" y="-273.524" font-family="Monaco" font-size="10.00">HydroCouple::Spatial</text>
<text text-anchor="middle" x="1657.02" y="-260.189" font-family="Monaco" font-size="10.00">::ITINExchangeItem</text>
<polyline fill="none" stroke="black" points="1586.01,-250.854 1728.03,-250.854 "/>
<text text-anchor="middle" x="1657.02" y="-238.854" font-family="Monaco" font-size="10.00"> </text>
<polyline fill="none" stroke="black" points="1586.01,-229.52 1728.03,-229.52 "/>
<text text-anchor="start" x="1594.01" y="-217.52" font-family="Monaco" font-size="10.00">+ ~ITINExchangeItem()</text>
</a>
</g>
</g>
<!-- Node1&#45;&gt;Node16 -->
<g id="edge15" class="edge"><title>Node1&#45;&gt;Node16</title>
<path fill="none" stroke="midnightblue" d="M1159.27,-388.152C1287.19,-379.771 1505.39,-360.826 1577.02,-326.029 1596.4,-316.61 1614.02,-300.662 1627.75,-285.618"/>
<polygon fill="none" stroke="midnightblue" points="1158.84,-384.673 1149.08,-388.81 1159.29,-391.658 1158.84,-384.673"/>
</g>
<!-- Node17 -->
<g id="node17" class="node"><title>Node17</title>
<g id="a_node17"><a xlink:href="class_hydro_couple_1_1_temporal_1_1_i_time_exchange_item.html" target="_top" xlink:title="The ITimeExchangeItem class.This class cannot be directly instantiated and must be implemented as as ...">
<polygon fill="none" stroke="black" points="1746.01,-208.185 1746.01,-285.524 1894.03,-285.524 1894.03,-208.185 1746.01,-208.185"/>
<text text-anchor="start" x="1754.01" y="-273.524" font-family="Monaco" font-size="10.00">HydroCouple::Temporal</text>
<text text-anchor="middle" x="1820.02" y="-260.189" font-family="Monaco" font-size="10.00">::ITimeExchangeItem</text>
<polyline fill="none" stroke="black" points="1746.01,-250.854 1894.03,-250.854 "/>
<text text-anchor="middle" x="1820.02" y="-238.854" font-family="Monaco" font-size="10.00"> </text>
<polyline fill="none" stroke="black" points="1746.01,-229.52 1894.03,-229.52 "/>
<text text-anchor="start" x="1754.01" y="-217.52" font-family="Monaco" font-size="10.00">+ ~ITimeExchangeItem()</text>
</a>
</g>
</g>
<!-- Node1&#45;&gt;Node17 -->
<g id="edge16" class="edge"><title>Node1&#45;&gt;Node17</title>
<path fill="none" stroke="midnightblue" d="M1159.45,-391.468C1320.51,-386.769 1636.49,-371.844 1737.02,-326.029 1757.01,-316.917 1775.27,-301.009 1789.54,-285.913"/>
<polygon fill="none" stroke="midnightblue" points="1158.96,-387.981 1149.07,-391.763 1159.16,-394.978 1158.96,-387.981"/>
</g>
<!-- Node18 -->
<g id="node18" class="node"><title>Node18</title>
<g id="a_node18"><a xlink:href="class_hydro_couple_1_1_temporal_1_1_i_time_id_based_exchange_item.html" target="_top" xlink:title="The ITimeSeriesIdBasedExchangeItem class. ">
<polygon fill="none" stroke="black" points="1912,-208.185 1912,-285.524 2102.03,-285.524 2102.03,-208.185 1912,-208.185"/>
<text text-anchor="start" x="1920" y="-273.524" font-family="Monaco" font-size="10.00">HydroCouple::Temporal</text>
<text text-anchor="middle" x="2007.02" y="-260.189" font-family="Monaco" font-size="10.00">::ITimeIdBasedExchangeItem</text>
<polyline fill="none" stroke="black" points="1912,-250.854 2102.03,-250.854 "/>
<text text-anchor="middle" x="2007.02" y="-238.854" font-family="Monaco" font-size="10.00"> </text>
<polyline fill="none" stroke="black" points="1912,-229.52 2102.03,-229.52 "/>
<text text-anchor="start" x="1920" y="-217.52" font-family="Monaco" font-size="10.00">+ ~ITimeIdBasedExchangeItem()</text>
</a>
</g>
</g>
<!-- Node1&#45;&gt;Node18 -->
<g id="edge17" class="edge"><title>Node1&#45;&gt;Node18</title>
<path fill="none" stroke="midnightblue" d="M1159.17,-392.498C1349.92,-389.359 1769.29,-376.728 1903.02,-326.029 1926.67,-317.061 1949.53,-300.977 1967.77,-285.72"/>
<polygon fill="none" stroke="midnightblue" points="1159.1,-388.999 1149.16,-392.658 1159.21,-395.998 1159.1,-388.999"/>
</g>
<!-- Node2 -->
<g id="node2" class="node"><title>Node2</title>
<g id="a_node2"><a xlink:href="class_hydro_couple_1_1_i_component_data_item.html" target="_top" xlink:title="IComponentItem is a fundamental unit of data for a component. ">
<polygon fill="none" stroke="black" points="962.001,-463.534 962.001,-647.554 1164.03,-647.554 1164.03,-463.534 962.001,-463.534"/>
<text text-anchor="middle" x="1063.02" y="-635.554" font-family="Monaco" font-size="10.00">HydroCouple::IComponentDataItem</text>
<polyline fill="none" stroke="black" points="962.001,-626.219 1164.03,-626.219 "/>
<text text-anchor="middle" x="1063.02" y="-614.219" font-family="Monaco" font-size="10.00"> </text>
<polyline fill="none" stroke="black" points="962.001,-604.884 1164.03,-604.884 "/>
<text text-anchor="start" x="970.001" y="-592.884" font-family="Monaco" font-size="10.00">+ ~IComponentDataItem()</text>
<text text-anchor="start" x="970.001" y="-579.549" font-family="Monaco" font-size="10.00">+ modelComponent()</text>
<text text-anchor="start" x="970.001" y="-566.214" font-family="Monaco" font-size="10.00">+ dimensions()</text>
<text text-anchor="start" x="970.001" y="-552.879" font-family="Monaco" font-size="10.00">+ valueDefinition()</text>
<text text-anchor="start" x="970.001" y="-539.544" font-family="Monaco" font-size="10.00">+ getValue()</text>
<text text-anchor="start" x="970.001" y="-526.209" font-family="Monaco" font-size="10.00">+ getValues()</text>
<text text-anchor="start" x="970.001" y="-512.874" font-family="Monaco" font-size="10.00">+ getValues()</text>
<text text-anchor="start" x="970.001" y="-499.539" font-family="Monaco" font-size="10.00">+ setValue()</text>
<text text-anchor="start" x="970.001" y="-486.204" font-family="Monaco" font-size="10.00">+ setValues()</text>
<text text-anchor="start" x="970.001" y="-472.869" font-family="Monaco" font-size="10.00">+ setValues()</text>
</a>
</g>
</g>
<!-- Node2&#45;&gt;Node1 -->
<g id="edge1" class="edge"><title>Node2&#45;&gt;Node1</title>
<path fill="none" stroke="midnightblue" d="M1063.02,-453.343C1063.02,-443.798 1063.02,-434.705 1063.02,-426.673"/>
<polygon fill="none" stroke="midnightblue" points="1059.52,-453.428 1063.02,-463.428 1066.52,-453.428 1059.52,-453.428"/>
</g>
<!-- Node3 -->
<g id="node3" class="node"><title>Node3</title>
<g id="a_node3"><a xlink:href="class_hydro_couple_1_1_i_identity.html" target="_top" xlink:title="IIdentity interface class defines a method to get the Id of an HydroCouple entity. ">
<polygon fill="none" stroke="black" points="989.005,-684.554 989.005,-761.894 1137.03,-761.894 1137.03,-684.554 989.005,-684.554"/>
<text text-anchor="middle" x="1063.02" y="-749.894" font-family="Monaco" font-size="10.00">HydroCouple::IIdentity</text>
<polyline fill="none" stroke="black" points="989.005,-740.559 1137.03,-740.559 "/>
<text text-anchor="middle" x="1063.02" y="-728.559" font-family="Monaco" font-size="10.00"> </text>
<polyline fill="none" stroke="black" points="989.005,-719.224 1137.03,-719.224 "/>
<text text-anchor="start" x="997.005" y="-707.224" font-family="Monaco" font-size="10.00">+ ~IIdentity()</text>
<text text-anchor="start" x="997.005" y="-693.889" font-family="Monaco" font-size="10.00">+ id()</text>
</a>
</g>
</g>
<!-- Node3&#45;&gt;Node2 -->
<g id="edge2" class="edge"><title>Node3&#45;&gt;Node2</title>
<path fill="none" stroke="midnightblue" d="M1063.02,-673.971C1063.02,-665.618 1063.02,-656.693 1063.02,-647.635"/>
<polygon fill="none" stroke="midnightblue" points="1059.52,-674.213 1063.02,-684.213 1066.52,-674.213 1059.52,-674.213"/>
</g>
<!-- Node4 -->
<g id="node4" class="node"><title>Node4</title>
<g id="a_node4"><a xlink:href="class_hydro_couple_1_1_i_description.html" target="_top" xlink:title="IDescription interface class provides descriptive information on a HydroCouple object. ">
<polygon fill="none" stroke="black" points="980.004,-798.894 980.004,-916.238 1146.03,-916.238 1146.03,-798.894 980.004,-798.894"/>
<text text-anchor="middle" x="1063.02" y="-904.238" font-family="Monaco" font-size="10.00">HydroCouple::IDescription</text>
<polyline fill="none" stroke="black" points="980.004,-894.903 1146.03,-894.903 "/>
<text text-anchor="middle" x="1063.02" y="-882.903" font-family="Monaco" font-size="10.00"> </text>
<polyline fill="none" stroke="black" points="980.004,-873.568 1146.03,-873.568 "/>
<text text-anchor="start" x="988.004" y="-861.568" font-family="Monaco" font-size="10.00">+ ~IDescription()</text>
<text text-anchor="start" x="988.004" y="-848.233" font-family="Monaco" font-size="10.00">+ caption()</text>
<text text-anchor="start" x="988.004" y="-834.898" font-family="Monaco" font-size="10.00">+ setCaption()</text>
<text text-anchor="start" x="988.004" y="-821.563" font-family="Monaco" font-size="10.00">+ description()</text>
<text text-anchor="start" x="988.004" y="-808.229" font-family="Monaco" font-size="10.00">+ setDescription()</text>
</a>
</g>
</g>
<!-- Node4&#45;&gt;Node3 -->
<g id="edge3" class="edge"><title>Node4&#45;&gt;Node3</title>
<path fill="none" stroke="midnightblue" d="M1063.02,-788.328C1063.02,-779.289 1063.02,-770.301 1063.02,-762.041"/>
<polygon fill="none" stroke="midnightblue" points="1059.52,-788.519 1063.02,-798.519 1066.52,-788.519 1059.52,-788.519"/>
</g>
<!-- Node5 -->
<g id="node5" class="node"><title>Node5</title>
<g id="a_node5"><a xlink:href="class_hydro_couple_1_1_i_property_changed.html" target="_top" xlink:title="IPropertyChanged interface is used to emit signal/event when a property of an object changes...">
<polygon fill="none" stroke="black" points="968.002,-953.238 968.002,-1017.24 1158.03,-1017.24 1158.03,-953.238 968.002,-953.238"/>
<text text-anchor="middle" x="1063.02" y="-1005.24" font-family="Monaco" font-size="10.00">HydroCouple::IPropertyChanged</text>
<polyline fill="none" stroke="black" points="968.002,-995.908 1158.03,-995.908 "/>
<text text-anchor="middle" x="1063.02" y="-983.908" font-family="Monaco" font-size="10.00"> </text>
<polyline fill="none" stroke="black" points="968.002,-974.573 1158.03,-974.573 "/>
<text text-anchor="start" x="976.002" y="-962.573" font-family="Monaco" font-size="10.00">+ ~IPropertyChanged()</text>
</a>
</g>
</g>
<!-- Node5&#45;&gt;Node4 -->
<g id="edge4" class="edge"><title>Node5&#45;&gt;Node4</title>
<path fill="none" stroke="midnightblue" d="M1063.02,-942.918C1063.02,-934.533 1063.02,-925.566 1063.02,-916.724"/>
<polygon fill="none" stroke="midnightblue" points="1059.52,-943.175 1063.02,-953.175 1066.52,-943.175 1059.52,-943.175"/>
</g>
<!-- Node8 -->
<g id="node8" class="node"><title>Node8</title>
<g id="a_node8"><a xlink:href="class_hydro_couple_1_1_i_multi_input.html" target="_top" xlink:title="The IMultiInput class is an IInput class that has multiple outputs supplying data to it...">
<polygon fill="none" stroke="black" points="203.004,-13.835 203.004,-117.845 363.028,-117.845 363.028,-13.835 203.004,-13.835"/>
<text text-anchor="middle" x="283.016" y="-105.845" font-family="Monaco" font-size="10.00">HydroCouple::IMultiInput</text>
<polyline fill="none" stroke="black" points="203.004,-96.5098 363.028,-96.5098 "/>
<text text-anchor="middle" x="283.016" y="-84.5098" font-family="Monaco" font-size="10.00"> </text>
<polyline fill="none" stroke="black" points="203.004,-75.1748 363.028,-75.1748 "/>
<text text-anchor="start" x="211.004" y="-63.1748" font-family="Monaco" font-size="10.00">+ ~IMultiInput()</text>
<text text-anchor="start" x="211.004" y="-49.8398" font-family="Monaco" font-size="10.00">+ providers()</text>
<text text-anchor="start" x="211.004" y="-36.5049" font-family="Monaco" font-size="10.00">+ addProvider()</text>
<text text-anchor="start" x="211.004" y="-23.1699" font-family="Monaco" font-size="10.00">+ removeProvider()</text>
</a>
</g>
</g>
<!-- Node7&#45;&gt;Node8 -->
<g id="edge7" class="edge"><title>Node7&#45;&gt;Node8</title>
<path fill="none" stroke="midnightblue" d="M292.217,-184.495C290.527,-162.886 288.647,-138.839 287.029,-118.146"/>
<polygon fill="none" stroke="midnightblue" points="288.735,-184.859 293.004,-194.556 295.714,-184.314 288.735,-184.859"/>
</g>
<!-- Node10 -->
<g id="node10" class="node"><title>Node10</title>
<g id="a_node10"><a xlink:href="class_hydro_couple_1_1_i_adapted_output.html" target="_top" xlink:title="An IAdaptedOutput adds one or more data operations on top of an IOutput. ">
<polygon fill="none" stroke="black" points="381.003,-0.5 381.003,-131.18 559.029,-131.18 559.029,-0.5 381.003,-0.5"/>
<text text-anchor="middle" x="470.016" y="-119.18" font-family="Monaco" font-size="10.00">HydroCouple::IAdaptedOutput</text>
<polyline fill="none" stroke="black" points="381.003,-109.845 559.029,-109.845 "/>
<text text-anchor="middle" x="470.016" y="-97.8447" font-family="Monaco" font-size="10.00"> </text>
<polyline fill="none" stroke="black" points="381.003,-88.5098 559.029,-88.5098 "/>
<text text-anchor="start" x="389.003" y="-76.5098" font-family="Monaco" font-size="10.00">+ ~IAdaptedOutput()</text>
<text text-anchor="start" x="389.003" y="-63.1748" font-family="Monaco" font-size="10.00">+ adaptedOutputFactory()</text>
<text text-anchor="start" x="389.003" y="-49.8398" font-family="Monaco" font-size="10.00">+ arguments()</text>
<text text-anchor="start" x="389.003" y="-36.5049" font-family="Monaco" font-size="10.00">+ initialize()</text>
<text text-anchor="start" x="389.003" y="-23.1699" font-family="Monaco" font-size="10.00">+ adaptee()</text>
<text text-anchor="start" x="389.003" y="-9.83496" font-family="Monaco" font-size="10.00">+ refresh()</text>
</a>
</g>
</g>
<!-- Node9&#45;&gt;Node10 -->
<g id="edge9" class="edge"><title>Node9&#45;&gt;Node10</title>
<path fill="none" stroke="midnightblue" d="M463.396,-158.007C464.048,-149.026 464.702,-140.024 465.331,-131.361"/>
<polygon fill="none" stroke="midnightblue" points="459.895,-157.89 462.661,-168.117 466.877,-158.397 459.895,-157.89"/>
</g>
</g>
</svg>
        <g id="navigator" transform="translate(0 0)" fill="#404254">
                <rect fill="#f2f5e9" fill-opacity="0.5" stroke="#606060" stroke-width=".5" x="0" y="0" width="60" height="60"/>
                <use id="zoomplus" xlink:href="#zoomPlus" x="17" y="9" onmousedown="handleZoom(evt,'in')"/>
                <use id="zoomminus" xlink:href="#zoomMin" x="42" y="9" onmousedown="handleZoom(evt,'out')"/>
                <use id="reset" xlink:href="#resetDef" x="30" y="36" onmousedown="handleReset()"/>
                <g id="arrowUp" xlink:href="#dirArrow" transform="translate(30 24)" onmousedown="handlePan(0,-1)">
                  <use xlink:href="#rim" fill="#404040">
                        <set attributeName="fill" to="#808080" begin="arrowUp.mouseover" end="arrowUp.mouseout"/>
                  </use>
                  <path fill="none" stroke="white" stroke-width="1.5" d="M0,-3.0v7 M-2.5,-0.5L0,-3.0L2.5,-0.5"/>
                </g>
                <g id="arrowRight" xlink:href="#dirArrow" transform="rotate(90) translate(36 -43)" onmousedown="handlePan(1,0)">
                  <use xlink:href="#rim" fill="#404040">
                        <set attributeName="fill" to="#808080" begin="arrowRight.mouseover" end="arrowRight.mouseout"/>
                  </use>
                  <path fill="none" stroke="white" stroke-width="1.5" d="M0,-3.0v7 M-2.5,-0.5L0,-3.0L2.5,-0.5"/>
                </g>
                <g id="arrowDown" xlink:href="#dirArrow" transform="rotate(180) translate(-30 -48)" onmousedown="handlePan(0,1)">
                  <use xlink:href="#rim" fill="#404040">
                        <set attributeName="fill" to="#808080" begin="arrowDown.mouseover" end="arrowDown.mouseout"/>
                  </use>
                  <path fill="none" stroke="white" stroke-width="1.5" d="M0,-3.0v7 M-2.5,-0.5L0,-3.0L2.5,-0.5"/>
                </g>
                <g id="arrowLeft" xlink:href="#dirArrow" transform="rotate(270) translate(-36 17)" onmousedown="handlePan(-1,0)">
                  <use xlink:href="#rim" fill="#404040">
                        <set attributeName="fill" to="#808080" begin="arrowLeft.mouseover" end="arrowLeft.mouseout"/>
                  </use>
                  <path fill="none" stroke="white" stroke-width="1.5" d="M0,-3.0v7 M-2.5,-0.5L0,-3.0L2.5,-0.5"/>
                </g>
        </g>
        <svg viewBox="0 0 15 15" width="100%" height="30px" preserveAspectRatio="xMaxYMin meet">
         <g id="arrow_out" transform="scale(0.3 0.3)">
          <a xlink:href="class_hydro_couple_1_1_i_exchange_item__inherit__graph_org.svg" target="_base">
           <rect id="button" ry="5" rx="5" y="6" x="6" height="38" width="38"
                fill="#f2f5e9" fill-opacity="0.5" stroke="#606060" stroke-width="1.0"/>
           <path id="arrow"
             d="M 11.500037,31.436501 C 11.940474,20.09759 22.043105,11.32322 32.158766,21.979434 L 37.068811,17.246167 C 37.068811,17.246167 37.088388,32 37.088388,32 L 22.160133,31.978069 C 22.160133,31.978069 26.997745,27.140456 26.997745,27.140456 C 18.528582,18.264221 13.291696,25.230495 11.500037,31.436501 z"
             style="fill:#404040;"/>
          </a>
         </g>
        </svg>
</svg>
