<?xml version="1.0" encoding="UTF-8" standalone="no"?>
<!DOCTYPE svg PUBLIC "-//W3C//DTD SVG 1.1//EN"
 "http://www.w3.org/Graphics/SVG/1.1/DTD/svg11.dtd">
<!-- Generated by graphviz version 2.38.0 (20140413.2041)
 -->
<!-- Title: HydroCouple::SpatioTemporal::ITimeRegularGrid2DArgument Pages: 1 -->
<svg width="614pt" height="1106pt"
 viewBox="0.00 0.00 614.03 1105.75" xmlns="http://www.w3.org/2000/svg" xmlns:xlink="http://www.w3.org/1999/xlink">
<g id="graph0" class="graph" transform="scale(1 1) rotate(0) translate(4 1101.75)">
<title>HydroCouple::SpatioTemporal::ITimeRegularGrid2DArgument</title>
<!-- Node1 -->
<g id="node1" class="node"><title>Node1</title>
<polygon fill="#bfbfbf" stroke="black" points="226.003,-0.5 226.003,-77.8398 428.033,-77.8398 428.033,-0.5 226.003,-0.5"/>
<text text-anchor="start" x="234.003" y="-65.8398" font-family="Monaco" font-size="10.00">HydroCouple::SpatioTemporal</text>
<text text-anchor="middle" x="327.018" y="-52.5049" font-family="Monaco" font-size="10.00">::ITimeRegularGrid2DArgument</text>
<polyline fill="none" stroke="black" points="226.003,-43.1699 428.033,-43.1699 "/>
<text text-anchor="middle" x="327.018" y="-31.1699" font-family="Monaco" font-size="10.00"> </text>
<polyline fill="none" stroke="black" points="226.003,-21.835 428.033,-21.835 "/>
<text text-anchor="start" x="234.003" y="-9.83496" font-family="Monaco" font-size="10.00">+ ~ITimeRegularGrid2DArgument()</text>
</g>
<!-- Node2 -->
<g id="node2" class="node"><title>Node2</title>
<g id="a_node2"><a xlink:href="class_hydro_couple_1_1_spatio_temporal_1_1_i_time_regular_grid2_d_component_data_item.html" target="_top" xlink:title="The ITimeRegularGrid2DComponentItem class. ">
<polygon fill="none" stroke="black" points="0,-114.84 0,-285.524 238.036,-285.524 238.036,-114.84 0,-114.84"/>
<text text-anchor="start" x="8" y="-273.524" font-family="Monaco" font-size="10.00">HydroCouple::SpatioTemporal</text>
<text text-anchor="middle" x="119.018" y="-260.189" font-family="Monaco" font-size="10.00">::ITimeRegularGrid2DComponentDataItem</text>
<polyline fill="none" stroke="black" points="0,-250.854 238.036,-250.854 "/>
<text text-anchor="middle" x="119.018" y="-238.854" font-family="Monaco" font-size="10.00"> </text>
<polyline fill="none" stroke="black" points="0,-229.52 238.036,-229.52 "/>
<text text-anchor="start" x="8" y="-217.52" font-family="Monaco" font-size="10.00">+ ~ITimeRegularGrid2DComponent</text>
<text text-anchor="start" x="8" y="-204.185" font-family="Monaco" font-size="10.00">DataItem()</text>
<text text-anchor="start" x="8" y="-190.85" font-family="Monaco" font-size="10.00">+ getValue()</text>
<text text-anchor="start" x="8" y="-177.515" font-family="Monaco" font-size="10.00">+ getValues()</text>
<text text-anchor="start" x="8" y="-164.18" font-family="Monaco" font-size="10.00">+ getValues()</text>
<text text-anchor="start" x="8" y="-150.845" font-family="Monaco" font-size="10.00">+ setValue()</text>
<text text-anchor="start" x="8" y="-137.51" font-family="Monaco" font-size="10.00">+ setValues()</text>
<text text-anchor="start" x="8" y="-124.175" font-family="Monaco" font-size="10.00">+ setValues()</text>
</a>
</g>
</g>
<!-- Node2&#45;&gt;Node1 -->
<g id="edge1" class="edge"><title>Node2&#45;&gt;Node1</title>
<path fill="none" stroke="midnightblue" d="M237.714,-108.441C251.754,-97.7079 265.43,-87.2532 277.689,-77.8812"/>
<polygon fill="none" stroke="midnightblue" points="235.232,-105.933 229.413,-114.787 239.483,-111.494 235.232,-105.933"/>
</g>
<!-- Node3 -->
<g id="node3" class="node"><title>Node3</title>
<g id="a_node3"><a xlink:href="class_hydro_couple_1_1_temporal_1_1_i_time_component_data_item.html" target="_top" xlink:title="ITimeComponentItem is an IComponentItem with a temporal attribute. This class cannot be directly inst...">
<polygon fill="none" stroke="black" points="12.0049,-355.862 12.0049,-473.207 190.031,-473.207 190.031,-355.862 12.0049,-355.862"/>
<text text-anchor="start" x="20.0049" y="-461.207" font-family="Monaco" font-size="10.00">HydroCouple::Temporal</text>
<text text-anchor="middle" x="101.018" y="-447.872" font-family="Monaco" font-size="10.00">::ITimeComponentDataItem</text>
<polyline fill="none" stroke="black" points="12.0049,-438.537 190.031,-438.537 "/>
<text text-anchor="middle" x="101.018" y="-426.537" font-family="Monaco" font-size="10.00"> </text>
<polyline fill="none" stroke="black" points="12.0049,-417.202 190.031,-417.202 "/>
<text text-anchor="start" x="20.0049" y="-405.202" font-family="Monaco" font-size="10.00">+ ~ITimeComponentDataItem()</text>
<text text-anchor="start" x="20.0049" y="-391.867" font-family="Monaco" font-size="10.00">+ times()</text>
<text text-anchor="start" x="20.0049" y="-378.532" font-family="Monaco" font-size="10.00">+ timeSpan()</text>
<text text-anchor="start" x="20.0049" y="-365.197" font-family="Monaco" font-size="10.00">+ timeDimension()</text>
</a>
</g>
</g>
<!-- Node3&#45;&gt;Node2 -->
<g id="edge2" class="edge"><title>Node3&#45;&gt;Node2</title>
<path fill="none" stroke="midnightblue" d="M106.769,-345.69C108.388,-326.583 110.17,-305.564 111.861,-285.615"/>
<polygon fill="none" stroke="midnightblue" points="103.27,-345.529 105.913,-355.789 110.245,-346.12 103.27,-345.529"/>
</g>
<!-- Node9 -->
<g id="node9" class="node"><title>Node9</title>
<g id="a_node9"><a xlink:href="class_hydro_couple_1_1_temporal_1_1_i_time_argument.html" target="_top" xlink:title="The ITimeArgument class. his class cannot be directly instantiated and must be implemented as as an a...">
<polygon fill="none" stroke="black" points="256.008,-161.512 256.008,-238.852 398.028,-238.852 398.028,-161.512 256.008,-161.512"/>
<text text-anchor="start" x="264.008" y="-226.852" font-family="Monaco" font-size="10.00">HydroCouple::Temporal</text>
<text text-anchor="middle" x="327.018" y="-213.517" font-family="Monaco" font-size="10.00">::ITimeArgument</text>
<polyline fill="none" stroke="black" points="256.008,-204.182 398.028,-204.182 "/>
<text text-anchor="middle" x="327.018" y="-192.182" font-family="Monaco" font-size="10.00"> </text>
<polyline fill="none" stroke="black" points="256.008,-182.847 398.028,-182.847 "/>
<text text-anchor="start" x="264.008" y="-170.847" font-family="Monaco" font-size="10.00">+ ~ITimeArgument()</text>
</a>
</g>
</g>
<!-- Node3&#45;&gt;Node9 -->
<g id="edge12" class="edge"><title>Node3&#45;&gt;Node9</title>
<path fill="none" stroke="midnightblue" d="M168.608,-348.661C178.649,-339.542 188.993,-330.423 199.018,-322.024 219.46,-304.9 227.131,-303.79 247.018,-286.024 263.324,-271.458 280.11,-254.082 294.069,-238.859"/>
<polygon fill="none" stroke="midnightblue" points="166.014,-346.29 160.999,-355.623 170.739,-351.455 166.014,-346.29"/>
</g>
<!-- Node4 -->
<g id="node4" class="node"><title>Node4</title>
<g id="a_node4"><a xlink:href="class_hydro_couple_1_1_i_component_data_item.html" target="_top" xlink:title="IComponentItem is a fundamental unit of data for a component. ">
<polygon fill="none" stroke="black" points="214.003,-543.544 214.003,-727.563 416.033,-727.563 416.033,-543.544 214.003,-543.544"/>
<text text-anchor="middle" x="315.018" y="-715.563" font-family="Monaco" font-size="10.00">HydroCouple::IComponentDataItem</text>
<polyline fill="none" stroke="black" points="214.003,-706.229 416.033,-706.229 "/>
<text text-anchor="middle" x="315.018" y="-694.229" font-family="Monaco" font-size="10.00"> </text>
<polyline fill="none" stroke="black" points="214.003,-684.894 416.033,-684.894 "/>
<text text-anchor="start" x="222.003" y="-672.894" font-family="Monaco" font-size="10.00">+ ~IComponentDataItem()</text>
<text text-anchor="start" x="222.003" y="-659.559" font-family="Monaco" font-size="10.00">+ modelComponent()</text>
<text text-anchor="start" x="222.003" y="-646.224" font-family="Monaco" font-size="10.00">+ dimensions()</text>
<text text-anchor="start" x="222.003" y="-632.889" font-family="Monaco" font-size="10.00">+ valueDefinition()</text>
<text text-anchor="start" x="222.003" y="-619.554" font-family="Monaco" font-size="10.00">+ getValue()</text>
<text text-anchor="start" x="222.003" y="-606.219" font-family="Monaco" font-size="10.00">+ getValues()</text>
<text text-anchor="start" x="222.003" y="-592.884" font-family="Monaco" font-size="10.00">+ getValues()</text>
<text text-anchor="start" x="222.003" y="-579.549" font-family="Monaco" font-size="10.00">+ setValue()</text>
<text text-anchor="start" x="222.003" y="-566.214" font-family="Monaco" font-size="10.00">+ setValues()</text>
<text text-anchor="start" x="222.003" y="-552.879" font-family="Monaco" font-size="10.00">+ setValues()</text>
</a>
</g>
</g>
<!-- Node4&#45;&gt;Node3 -->
<g id="edge3" class="edge"><title>Node4&#45;&gt;Node3</title>
<path fill="none" stroke="midnightblue" d="M218.723,-536C197.742,-514.527 176.207,-492.487 157.387,-473.226"/>
<polygon fill="none" stroke="midnightblue" points="216.32,-538.549 225.812,-543.256 221.327,-533.657 216.32,-538.549"/>
</g>
<!-- Node8 -->
<g id="node8" class="node"><title>Node8</title>
<g id="a_node8"><a xlink:href="class_hydro_couple_1_1_spatial_1_1_i_regular_grid2_d_component_data_item.html" target="_top" xlink:title="An IRegularGrid2DComponentDataItem represents an IRegularGrid2D IComponentItem. ">
<polygon fill="none" stroke="black" points="208.002,-349.194 208.002,-479.874 422.034,-479.874 422.034,-349.194 208.002,-349.194"/>
<text text-anchor="start" x="216.002" y="-467.874" font-family="Monaco" font-size="10.00">HydroCouple::Spatial</text>
<text text-anchor="middle" x="315.018" y="-454.539" font-family="Monaco" font-size="10.00">::IRegularGrid2DComponentDataItem</text>
<polyline fill="none" stroke="black" points="208.002,-445.204 422.034,-445.204 "/>
<text text-anchor="middle" x="315.018" y="-433.204" font-family="Monaco" font-size="10.00"> </text>
<polyline fill="none" stroke="black" points="208.002,-423.869 422.034,-423.869 "/>
<text text-anchor="start" x="216.002" y="-411.869" font-family="Monaco" font-size="10.00">+ ~IRegularGrid2DComponent</text>
<text text-anchor="start" x="216.002" y="-398.534" font-family="Monaco" font-size="10.00">DataItem()</text>
<text text-anchor="start" x="216.002" y="-385.199" font-family="Monaco" font-size="10.00">+ numXCellsDimension()</text>
<text text-anchor="start" x="216.002" y="-371.864" font-family="Monaco" font-size="10.00">+ numYCellsDimension()</text>
<text text-anchor="start" x="216.002" y="-358.529" font-family="Monaco" font-size="10.00">+ grid()</text>
</a>
</g>
</g>
<!-- Node4&#45;&gt;Node8 -->
<g id="edge8" class="edge"><title>Node4&#45;&gt;Node8</title>
<path fill="none" stroke="midnightblue" d="M315.018,-533.241C315.018,-515.136 315.018,-496.73 315.018,-480.018"/>
<polygon fill="none" stroke="midnightblue" points="311.518,-533.256 315.018,-543.256 318.518,-533.256 311.518,-533.256"/>
</g>
<!-- Node10 -->
<g id="node10" class="node"><title>Node10</title>
<g id="a_node10"><a xlink:href="class_hydro_couple_1_1_i_argument.html" target="_top" xlink:title="IArgument interface class used to set the arguments for components. They can be complex or simple mul...">
<polygon fill="none" stroke="black" points="440.006,-322.524 440.006,-506.544 606.03,-506.544 606.03,-322.524 440.006,-322.524"/>
<text text-anchor="middle" x="523.018" y="-494.544" font-family="Monaco" font-size="10.00">HydroCouple::IArgument</text>
<polyline fill="none" stroke="black" points="440.006,-485.209 606.03,-485.209 "/>
<text text-anchor="middle" x="523.018" y="-473.209" font-family="Monaco" font-size="10.00"> </text>
<polyline fill="none" stroke="black" points="440.006,-463.874 606.03,-463.874 "/>
<text text-anchor="start" x="448.006" y="-451.874" font-family="Monaco" font-size="10.00">+ ~IArgument()</text>
<text text-anchor="start" x="448.006" y="-438.539" font-family="Monaco" font-size="10.00">+ isOptional()</text>
<text text-anchor="start" x="448.006" y="-425.204" font-family="Monaco" font-size="10.00">+ isReadOnly()</text>
<text text-anchor="start" x="448.006" y="-411.869" font-family="Monaco" font-size="10.00">+ toString()</text>
<text text-anchor="start" x="448.006" y="-398.534" font-family="Monaco" font-size="10.00">+ inputFileTypeFilters()</text>
<text text-anchor="start" x="448.006" y="-385.199" font-family="Monaco" font-size="10.00">+ canReadFromFile()</text>
<text text-anchor="start" x="448.006" y="-371.864" font-family="Monaco" font-size="10.00">+ canReadFromString()</text>
<text text-anchor="start" x="448.006" y="-358.529" font-family="Monaco" font-size="10.00">+ currentArgumentIOType()</text>
<text text-anchor="start" x="448.006" y="-345.194" font-family="Monaco" font-size="10.00">+ readValues()</text>
<text text-anchor="start" x="448.006" y="-331.859" font-family="Monaco" font-size="10.00">+ readValues()</text>
</a>
</g>
</g>
<!-- Node4&#45;&gt;Node10 -->
<g id="edge11" class="edge"><title>Node4&#45;&gt;Node10</title>
<path fill="none" stroke="midnightblue" d="M408.84,-535.762C419.158,-524.896 429.612,-513.889 439.789,-503.173"/>
<polygon fill="none" stroke="midnightblue" points="406.071,-533.594 401.723,-543.256 411.147,-538.415 406.071,-533.594"/>
</g>
<!-- Node5 -->
<g id="node5" class="node"><title>Node5</title>
<g id="a_node5"><a xlink:href="class_hydro_couple_1_1_i_identity.html" target="_top" xlink:title="IIdentity interface class defines a method to get the Id of an HydroCouple entity. ">
<polygon fill="none" stroke="black" points="241.007,-764.563 241.007,-841.903 389.029,-841.903 389.029,-764.563 241.007,-764.563"/>
<text text-anchor="middle" x="315.018" y="-829.903" font-family="Monaco" font-size="10.00">HydroCouple::IIdentity</text>
<polyline fill="none" stroke="black" points="241.007,-820.568 389.029,-820.568 "/>
<text text-anchor="middle" x="315.018" y="-808.568" font-family="Monaco" font-size="10.00"> </text>
<polyline fill="none" stroke="black" points="241.007,-799.233 389.029,-799.233 "/>
<text text-anchor="start" x="249.007" y="-787.233" font-family="Monaco" font-size="10.00">+ ~IIdentity()</text>
<text text-anchor="start" x="249.007" y="-773.898" font-family="Monaco" font-size="10.00">+ id()</text>
</a>
</g>
</g>
<!-- Node5&#45;&gt;Node4 -->
<g id="edge4" class="edge"><title>Node5&#45;&gt;Node4</title>
<path fill="none" stroke="midnightblue" d="M315.018,-753.981C315.018,-745.628 315.018,-736.703 315.018,-727.644"/>
<polygon fill="none" stroke="midnightblue" points="311.518,-754.223 315.018,-764.223 318.518,-754.223 311.518,-754.223"/>
</g>
<!-- Node6 -->
<g id="node6" class="node"><title>Node6</title>
<g id="a_node6"><a xlink:href="class_hydro_couple_1_1_i_description.html" target="_top" xlink:title="IDescription interface class provides descriptive information on a HydroCouple object. ">
<polygon fill="none" stroke="black" points="232.006,-878.903 232.006,-996.248 398.03,-996.248 398.03,-878.903 232.006,-878.903"/>
<text text-anchor="middle" x="315.018" y="-984.248" font-family="Monaco" font-size="10.00">HydroCouple::IDescription</text>
<polyline fill="none" stroke="black" points="232.006,-974.913 398.03,-974.913 "/>
<text text-anchor="middle" x="315.018" y="-962.913" font-family="Monaco" font-size="10.00"> </text>
<polyline fill="none" stroke="black" points="232.006,-953.578 398.03,-953.578 "/>
<text text-anchor="start" x="240.006" y="-941.578" font-family="Monaco" font-size="10.00">+ ~IDescription()</text>
<text text-anchor="start" x="240.006" y="-928.243" font-family="Monaco" font-size="10.00">+ caption()</text>
<text text-anchor="start" x="240.006" y="-914.908" font-family="Monaco" font-size="10.00">+ setCaption()</text>
<text text-anchor="start" x="240.006" y="-901.573" font-family="Monaco" font-size="10.00">+ description()</text>
<text text-anchor="start" x="240.006" y="-888.238" font-family="Monaco" font-size="10.00">+ setDescription()</text>
</a>
</g>
</g>
<!-- Node6&#45;&gt;Node5 -->
<g id="edge5" class="edge"><title>Node6&#45;&gt;Node5</title>
<path fill="none" stroke="midnightblue" d="M315.018,-868.337C315.018,-859.299 315.018,-850.311 315.018,-842.051"/>
<polygon fill="none" stroke="midnightblue" points="311.518,-868.528 315.018,-878.528 318.518,-868.528 311.518,-868.528"/>
</g>
<!-- Node7 -->
<g id="node7" class="node"><title>Node7</title>
<g id="a_node7"><a xlink:href="class_hydro_couple_1_1_i_property_changed.html" target="_top" xlink:title="IPropertyChanged interface is used to emit signal/event when a property of an object changes...">
<polygon fill="none" stroke="black" points="220.004,-1033.25 220.004,-1097.25 410.032,-1097.25 410.032,-1033.25 220.004,-1033.25"/>
<text text-anchor="middle" x="315.018" y="-1085.25" font-family="Monaco" font-size="10.00">HydroCouple::IPropertyChanged</text>
<polyline fill="none" stroke="black" points="220.004,-1075.92 410.032,-1075.92 "/>
<text text-anchor="middle" x="315.018" y="-1063.92" font-family="Monaco" font-size="10.00"> </text>
<polyline fill="none" stroke="black" points="220.004,-1054.58 410.032,-1054.58 "/>
<text text-anchor="start" x="228.004" y="-1042.58" font-family="Monaco" font-size="10.00">+ ~IPropertyChanged()</text>
</a>
</g>
</g>
<!-- Node7&#45;&gt;Node6 -->
<g id="edge6" class="edge"><title>Node7&#45;&gt;Node6</title>
<path fill="none" stroke="midnightblue" d="M315.018,-1022.93C315.018,-1014.54 315.018,-1005.58 315.018,-996.734"/>
<polygon fill="none" stroke="midnightblue" points="311.518,-1023.18 315.018,-1033.18 318.518,-1023.18 311.518,-1023.18"/>
</g>
<!-- Node8&#45;&gt;Node2 -->
<g id="edge7" class="edge"><title>Node8&#45;&gt;Node2</title>
<path fill="none" stroke="midnightblue" d="M248.435,-341.396C231.949,-323.535 214.136,-304.236 197.154,-285.837"/>
<polygon fill="none" stroke="midnightblue" points="246.059,-343.982 255.413,-348.957 251.203,-339.234 246.059,-343.982"/>
</g>
<!-- Node11 -->
<g id="node11" class="node"><title>Node11</title>
<g id="a_node11"><a xlink:href="class_hydro_couple_1_1_spatial_1_1_i_regular_grid2_d_argument.html" target="_top" xlink:title="An IRegularGrid2DArgument is an IExchangeItem with an IRegularGrid2DComponentItem. ">
<polygon fill="none" stroke="black" points="416.005,-161.512 416.005,-238.852 594.031,-238.852 594.031,-161.512 416.005,-161.512"/>
<text text-anchor="start" x="424.005" y="-226.852" font-family="Monaco" font-size="10.00">HydroCouple::Spatial</text>
<text text-anchor="middle" x="505.018" y="-213.517" font-family="Monaco" font-size="10.00">::IRegularGrid2DArgument</text>
<polyline fill="none" stroke="black" points="416.005,-204.182 594.031,-204.182 "/>
<text text-anchor="middle" x="505.018" y="-192.182" font-family="Monaco" font-size="10.00"> </text>
<polyline fill="none" stroke="black" points="416.005,-182.847 594.031,-182.847 "/>
<text text-anchor="start" x="424.005" y="-170.847" font-family="Monaco" font-size="10.00">+ ~IRegularGrid2DArgument()</text>
</a>
</g>
</g>
<!-- Node8&#45;&gt;Node11 -->
<g id="edge15" class="edge"><title>Node8&#45;&gt;Node11</title>
<path fill="none" stroke="midnightblue" d="M379.686,-341.258C410.43,-306.898 445.909,-267.244 471.255,-238.917"/>
<polygon fill="none" stroke="midnightblue" points="376.858,-339.17 372.798,-348.957 382.075,-343.838 376.858,-339.17"/>
</g>
<!-- Node9&#45;&gt;Node1 -->
<g id="edge9" class="edge"><title>Node9&#45;&gt;Node1</title>
<path fill="none" stroke="midnightblue" d="M327.018,-151.373C327.018,-127.833 327.018,-99.8595 327.018,-77.8583"/>
<polygon fill="none" stroke="midnightblue" points="323.518,-151.498 327.018,-161.498 330.518,-151.498 323.518,-151.498"/>
</g>
<!-- Node10&#45;&gt;Node9 -->
<g id="edge10" class="edge"><title>Node10&#45;&gt;Node9</title>
<path fill="none" stroke="midnightblue" d="M432.819,-315.81C407.644,-288.534 381.777,-260.509 361.921,-238.997"/>
<polygon fill="none" stroke="midnightblue" points="430.542,-318.503 439.896,-323.478 435.686,-313.756 430.542,-318.503"/>
</g>
<!-- Node10&#45;&gt;Node11 -->
<g id="edge14" class="edge"><title>Node10&#45;&gt;Node11</title>
<path fill="none" stroke="midnightblue" d="M514.434,-312.267C512.22,-286.146 509.972,-259.628 508.228,-239.055"/>
<polygon fill="none" stroke="midnightblue" points="510.948,-312.577 515.28,-322.245 517.923,-311.985 510.948,-312.577"/>
</g>
<!-- Node11&#45;&gt;Node1 -->
<g id="edge13" class="edge"><title>Node11&#45;&gt;Node1</title>
<path fill="none" stroke="midnightblue" d="M455.362,-154.823C428.254,-130.607 395.05,-100.945 369.207,-77.8583"/>
<polygon fill="none" stroke="midnightblue" points="453.045,-157.446 462.835,-161.498 457.709,-152.226 453.045,-157.446"/>
</g>
</g>
</svg>
