<?xml version="1.0" encoding="UTF-8" standalone="no"?>
<!DOCTYPE svg PUBLIC "-//W3C//DTD SVG 1.1//EN"
 "http://www.w3.org/Graphics/SVG/1.1/DTD/svg11.dtd">
<!-- Generated by graphviz version 2.38.0 (20140413.2041)
 -->
<!-- Title: HydroCouple::SpatioTemporal::ITimeGeometryComponentItem Pages: 1 -->
<!--zoomable 946 -->
<svg id="main" version="1.1" xmlns="http://www.w3.org/2000/svg" xmlns:xlink="http://www.w3.org/1999/xlink" xml:space="preserve" onload="init(evt)">
<style type="text/css"><![CDATA[
.edge:hover path { stroke: red; }
.edge:hover polygon { stroke: red; fill: red; }
]]></style>
<script type="text/javascript"><![CDATA[
var edges = document.getElementsByTagName('g');
if (edges && edges.length) {
  for (var i=0;i<edges.length;i++) {
    if (edges[i].id.substr(0,4)=='edge') {
      edges[i].setAttribute('class','edge');
    }
  }
}
]]></script>
        <defs>
                <circle id="rim" cx="0" cy="0" r="7"/>
                <circle id="rim2" cx="0" cy="0" r="3.5"/>
                <g id="zoomPlus">
                        <use xlink:href="#rim" fill="#404040">
                                <set attributeName="fill" to="#808080" begin="zoomplus.mouseover" end="zoomplus.mouseout"/>
                        </use>
                        <path d="M-4,0h8M0,-4v8" fill="none" stroke="white" stroke-width="1.5" pointer-events="none"/>
                </g>
                <g id="zoomMin">
                        <use xlink:href="#rim" fill="#404040">
                                <set attributeName="fill" to="#808080" begin="zoomminus.mouseover" end="zoomminus.mouseout"/>
                        </use>
                        <path d="M-4,0h8" fill="none" stroke="white" stroke-width="1.5" pointer-events="none"/>
                </g>
                <g id="dirArrow">
                        <path fill="none" stroke="white" stroke-width="1.5" d="M0,-3.0v7 M-2.5,-0.5L0,-3.0L2.5,-0.5"/>
                </g>
               <g id="resetDef">
                       <use xlink:href="#rim2" fill="#404040">
                               <set attributeName="fill" to="#808080" begin="reset.mouseover" end="reset.mouseout"/>
                       </use>
               </g>
        </defs>

<script type="text/javascript">
var viewWidth = 400;
var viewHeight = 946;
var sectionId = 'dynsection-0';
</script>
<script xlink:href="svgpan.js"/>
<svg id="graph" class="graph">
<g id="viewport">
<title>HydroCouple::SpatioTemporal::ITimeGeometryComponentItem</title>
<polygon fill="white" stroke="none" points="-4,4 -4,-941.733 396.028,-941.733 396.028,4 -4,4"/>
<!-- Node1 -->
<g id="node1" class="node"><title>Node1</title>
<polygon fill="#bfbfbf" stroke="black" points="89.998,-154.845 89.998,-232.185 292.028,-232.185 292.028,-154.845 89.998,-154.845"/>
<text text-anchor="start" x="97.998" y="-220.185" font-family="Monaco" font-size="10.00">HydroCouple::SpatioTemporal</text>
<text text-anchor="middle" x="191.013" y="-206.85" font-family="Monaco" font-size="10.00">::ITimeGeometryComponentItem</text>
<polyline fill="none" stroke="black" points="89.998,-197.515 292.028,-197.515 "/>
<text text-anchor="middle" x="191.013" y="-185.515" font-family="Monaco" font-size="10.00"> </text>
<polyline fill="none" stroke="black" points="89.998,-176.18 292.028,-176.18 "/>
<text text-anchor="start" x="97.998" y="-164.18" font-family="Monaco" font-size="10.00">+ ~ITimeGeometryComponentItem()</text>
</g>
<!-- Node8 -->
<g id="node8" class="node"><title>Node8</title>
<g id="a_node8"><a xlink:href="class_hydro_couple_1_1_spatio_temporal_1_1_i_time_geometry_argument.html" target="_top" xlink:title="The ITimeGeometryArgument class. ">
<polygon fill="white" stroke="black" points="0,-0.5 0,-117.845 178.026,-117.845 178.026,-0.5 0,-0.5"/>
<text text-anchor="start" x="8" y="-105.845" font-family="Monaco" font-size="10.00">HydroCouple::SpatioTemporal</text>
<text text-anchor="middle" x="89.0132" y="-92.5098" font-family="Monaco" font-size="10.00">::ITimeGeometryArgument</text>
<polyline fill="none" stroke="black" points="0,-83.1748 178.026,-83.1748 "/>
<text text-anchor="middle" x="89.0132" y="-71.1748" font-family="Monaco" font-size="10.00"> </text>
<polyline fill="none" stroke="black" points="0,-61.8398 178.026,-61.8398 "/>
<text text-anchor="start" x="8" y="-49.8398" font-family="Monaco" font-size="10.00">+ ~ITimeGeometryArgument()</text>
<text text-anchor="start" x="8" y="-36.5049" font-family="Monaco" font-size="10.00">+ setTimes()</text>
<text text-anchor="start" x="8" y="-23.1699" font-family="Monaco" font-size="10.00">+ setGeometryCollection()</text>
<text text-anchor="start" x="8" y="-9.83496" font-family="Monaco" font-size="10.00">+ timeGeometryValueSets()</text>
</a>
</g>
</g>
<!-- Node1&#45;&gt;Node8 -->
<g id="edge8" class="edge"><title>Node1&#45;&gt;Node8</title>
<path fill="none" stroke="midnightblue" d="M155.633,-146.61C148.483,-137.333 140.879,-127.467 133.463,-117.845"/>
<polygon fill="none" stroke="midnightblue" points="152.907,-148.807 161.784,-154.591 158.452,-144.534 152.907,-148.807"/>
</g>
<!-- Node9 -->
<g id="node9" class="node"><title>Node9</title>
<g id="a_node9"><a xlink:href="class_hydro_couple_1_1_spatio_temporal_1_1_i_time_geometry_exchange_item.html" target="_top" xlink:title="The ITimeGeometryExchangeItem class. ">
<polygon fill="white" stroke="black" points="195.999,-13.835 195.999,-104.51 392.028,-104.51 392.028,-13.835 195.999,-13.835"/>
<text text-anchor="start" x="203.999" y="-92.5098" font-family="Monaco" font-size="10.00">HydroCouple::SpatioTemporal</text>
<text text-anchor="middle" x="294.013" y="-79.1748" font-family="Monaco" font-size="10.00">::ITimeGeometryExchangeItem</text>
<polyline fill="none" stroke="black" points="195.999,-69.8398 392.028,-69.8398 "/>
<text text-anchor="middle" x="294.013" y="-57.8398" font-family="Monaco" font-size="10.00"> </text>
<polyline fill="none" stroke="black" points="195.999,-48.5049 392.028,-48.5049 "/>
<text text-anchor="start" x="203.999" y="-36.5049" font-family="Monaco" font-size="10.00">+ ~ITimeGeometryExchangeItem()</text>
<text text-anchor="start" x="203.999" y="-23.1699" font-family="Monaco" font-size="10.00">+ timeGeometryValues()</text>
</a>
</g>
</g>
<!-- Node1&#45;&gt;Node9 -->
<g id="edge9" class="edge"><title>Node1&#45;&gt;Node9</title>
<path fill="none" stroke="midnightblue" d="M226.941,-146.351C237.468,-132.826 248.952,-118.07 259.396,-104.652"/>
<polygon fill="none" stroke="midnightblue" points="223.909,-144.549 220.529,-154.591 229.433,-148.849 223.909,-144.549"/>
</g>
<!-- Node2 -->
<g id="node2" class="node"><title>Node2</title>
<g id="a_node2"><a xlink:href="class_hydro_couple_1_1_temporal_1_1_i_time_component_item.html" target="_top" xlink:title="ITimeComponentItem is an IComponentItem with a temporal attribute. ">
<polygon fill="white" stroke="black" points="22.002,-269.185 22.002,-399.864 176.024,-399.864 176.024,-269.185 22.002,-269.185"/>
<text text-anchor="start" x="30.002" y="-387.864" font-family="Monaco" font-size="10.00">HydroCouple::Temporal</text>
<text text-anchor="middle" x="99.0132" y="-374.529" font-family="Monaco" font-size="10.00">::ITimeComponentItem</text>
<polyline fill="none" stroke="black" points="22.002,-365.194 176.024,-365.194 "/>
<text text-anchor="middle" x="99.0132" y="-353.194" font-family="Monaco" font-size="10.00"> </text>
<polyline fill="none" stroke="black" points="22.002,-343.859 176.024,-343.859 "/>
<text text-anchor="start" x="30.002" y="-331.859" font-family="Monaco" font-size="10.00">+ ~ITimeComponentItem()</text>
<text text-anchor="start" x="30.002" y="-318.524" font-family="Monaco" font-size="10.00">+ timeDimension()</text>
<text text-anchor="start" x="30.002" y="-305.189" font-family="Monaco" font-size="10.00">+ times()</text>
<text text-anchor="start" x="30.002" y="-291.854" font-family="Monaco" font-size="10.00">+ timeSpan()</text>
<text text-anchor="start" x="30.002" y="-278.52" font-family="Monaco" font-size="10.00">+ time()</text>
</a>
</g>
</g>
<!-- Node2&#45;&gt;Node1 -->
<g id="edge1" class="edge"><title>Node2&#45;&gt;Node1</title>
<path fill="none" stroke="midnightblue" d="M147.404,-260.408C153.797,-250.747 160.13,-241.179 165.904,-232.454"/>
<polygon fill="none" stroke="midnightblue" points="144.382,-258.632 141.781,-268.903 150.219,-262.496 144.382,-258.632"/>
</g>
<!-- Node3 -->
<g id="node3" class="node"><title>Node3</title>
<g id="a_node3"><a xlink:href="class_hydro_couple_1_1_i_component_item.html" target="_top" xlink:title="IComponentItem is a fundamental unit of data for a component. ">
<polygon fill="white" stroke="black" points="102,-436.864 102,-540.874 280.026,-540.874 280.026,-436.864 102,-436.864"/>
<text text-anchor="middle" x="191.013" y="-528.874" font-family="Monaco" font-size="10.00">HydroCouple::IComponentItem</text>
<polyline fill="none" stroke="black" points="102,-519.539 280.026,-519.539 "/>
<text text-anchor="middle" x="191.013" y="-507.539" font-family="Monaco" font-size="10.00"> </text>
<polyline fill="none" stroke="black" points="102,-498.204 280.026,-498.204 "/>
<text text-anchor="start" x="110" y="-486.204" font-family="Monaco" font-size="10.00">+ ~IComponentItem()</text>
<text text-anchor="start" x="110" y="-472.869" font-family="Monaco" font-size="10.00">+ modelComponent()</text>
<text text-anchor="start" x="110" y="-459.534" font-family="Monaco" font-size="10.00">+ modelComponentId()</text>
<text text-anchor="start" x="110" y="-446.199" font-family="Monaco" font-size="10.00">+ dimensions()</text>
</a>
</g>
</g>
<!-- Node3&#45;&gt;Node2 -->
<g id="edge2" class="edge"><title>Node3&#45;&gt;Node2</title>
<path fill="none" stroke="midnightblue" d="M154.881,-428.036C149.337,-418.857 143.594,-409.346 137.992,-400.07"/>
<polygon fill="none" stroke="midnightblue" points="151.957,-429.966 160.123,-436.717 157.949,-426.347 151.957,-429.966"/>
</g>
<!-- Node7 -->
<g id="node7" class="node"><title>Node7</title>
<g id="a_node7"><a xlink:href="class_hydro_couple_1_1_spatial_1_1_i_geometry_component_item.html" target="_top" xlink:title="IGeometryComponentItem represents IGeometryCollection IComponentItem. ">
<polygon fill="white" stroke="black" points="194,-275.852 194,-393.197 372.026,-393.197 372.026,-275.852 194,-275.852"/>
<text text-anchor="start" x="202" y="-381.197" font-family="Monaco" font-size="10.00">HydroCouple::Spatial</text>
<text text-anchor="middle" x="283.013" y="-367.862" font-family="Monaco" font-size="10.00">::IGeometryComponentItem</text>
<polyline fill="none" stroke="black" points="194,-358.527 372.026,-358.527 "/>
<text text-anchor="middle" x="283.013" y="-346.527" font-family="Monaco" font-size="10.00"> </text>
<polyline fill="none" stroke="black" points="194,-337.192 372.026,-337.192 "/>
<text text-anchor="start" x="202" y="-325.192" font-family="Monaco" font-size="10.00">+ ~IGeometryComponentItem()</text>
<text text-anchor="start" x="202" y="-311.857" font-family="Monaco" font-size="10.00">+ geometryDimension()</text>
<text text-anchor="start" x="202" y="-298.522" font-family="Monaco" font-size="10.00">+ geometryCollection()</text>
<text text-anchor="start" x="202" y="-285.187" font-family="Monaco" font-size="10.00">+ geometry()</text>
</a>
</g>
</g>
<!-- Node3&#45;&gt;Node7 -->
<g id="edge7" class="edge"><title>Node3&#45;&gt;Node7</title>
<path fill="none" stroke="midnightblue" d="M227.108,-428.099C234.007,-416.674 241.219,-404.733 248.081,-393.37"/>
<polygon fill="none" stroke="midnightblue" points="224.077,-426.347 221.904,-436.717 230.069,-429.966 224.077,-426.347"/>
</g>
<!-- Node4 -->
<g id="node4" class="node"><title>Node4</title>
<g id="a_node4"><a xlink:href="class_hydro_couple_1_1_i_identity.html" target="_top" xlink:title="IIdentity interface class defines a method to get the Id of an HydroCouple entity. ">
<polygon fill="white" stroke="black" points="117.002,-577.874 117.002,-681.884 265.024,-681.884 265.024,-577.874 117.002,-577.874"/>
<text text-anchor="middle" x="191.013" y="-669.884" font-family="Monaco" font-size="10.00">HydroCouple::IIdentity</text>
<polyline fill="none" stroke="black" points="117.002,-660.549 265.024,-660.549 "/>
<text text-anchor="middle" x="191.013" y="-648.549" font-family="Monaco" font-size="10.00"> </text>
<polyline fill="none" stroke="black" points="117.002,-639.214 265.024,-639.214 "/>
<text text-anchor="start" x="125.002" y="-627.214" font-family="Monaco" font-size="10.00">+ ~IIdentity()</text>
<text text-anchor="start" x="125.002" y="-613.879" font-family="Monaco" font-size="10.00">+ MPI_Comm()</text>
<text text-anchor="start" x="125.002" y="-600.544" font-family="Monaco" font-size="10.00">+ MPI_Rank()</text>
<text text-anchor="start" x="125.002" y="-587.209" font-family="Monaco" font-size="10.00">+ id()</text>
</a>
</g>
</g>
<!-- Node4&#45;&gt;Node3 -->
<g id="edge3" class="edge"><title>Node4&#45;&gt;Node3</title>
<path fill="none" stroke="midnightblue" d="M191.013,-567.315C191.013,-558.533 191.013,-549.579 191.013,-541.025"/>
<polygon fill="none" stroke="midnightblue" points="187.513,-567.512 191.013,-577.512 194.513,-567.512 187.513,-567.512"/>
</g>
<!-- Node5 -->
<g id="node5" class="node"><title>Node5</title>
<g id="a_node5"><a xlink:href="class_hydro_couple_1_1_i_description.html" target="_top" xlink:title="IDescription interface class provides descriptive information on a HydroCouple object. ">
<polygon fill="white" stroke="black" points="108.001,-718.884 108.001,-836.229 274.025,-836.229 274.025,-718.884 108.001,-718.884"/>
<text text-anchor="middle" x="191.013" y="-824.229" font-family="Monaco" font-size="10.00">HydroCouple::IDescription</text>
<polyline fill="none" stroke="black" points="108.001,-814.894 274.025,-814.894 "/>
<text text-anchor="middle" x="191.013" y="-802.894" font-family="Monaco" font-size="10.00"> </text>
<polyline fill="none" stroke="black" points="108.001,-793.559 274.025,-793.559 "/>
<text text-anchor="start" x="116.001" y="-781.559" font-family="Monaco" font-size="10.00">+ ~IDescription()</text>
<text text-anchor="start" x="116.001" y="-768.224" font-family="Monaco" font-size="10.00">+ getCaption()</text>
<text text-anchor="start" x="116.001" y="-754.889" font-family="Monaco" font-size="10.00">+ setCaption()</text>
<text text-anchor="start" x="116.001" y="-741.554" font-family="Monaco" font-size="10.00">+ getDescription()</text>
<text text-anchor="start" x="116.001" y="-728.219" font-family="Monaco" font-size="10.00">+ setDescription()</text>
</a>
</g>
</g>
<!-- Node5&#45;&gt;Node4 -->
<g id="edge4" class="edge"><title>Node5&#45;&gt;Node4</title>
<path fill="none" stroke="midnightblue" d="M191.013,-708.283C191.013,-699.465 191.013,-690.557 191.013,-682.079"/>
<polygon fill="none" stroke="midnightblue" points="187.513,-708.562 191.013,-718.562 194.513,-708.562 187.513,-708.562"/>
</g>
<!-- Node6 -->
<g id="node6" class="node"><title>Node6</title>
<g id="a_node6"><a xlink:href="class_hydro_couple_1_1_i_property_changed.html" target="_top" xlink:title="IPropertyChanged interface is used to emit signal/event when a property of an object changes...">
<polygon fill="white" stroke="black" points="95.999,-873.229 95.999,-937.233 286.027,-937.233 286.027,-873.229 95.999,-873.229"/>
<text text-anchor="middle" x="191.013" y="-925.233" font-family="Monaco" font-size="10.00">HydroCouple::IPropertyChanged</text>
<polyline fill="none" stroke="black" points="95.999,-915.898 286.027,-915.898 "/>
<text text-anchor="middle" x="191.013" y="-903.898" font-family="Monaco" font-size="10.00"> </text>
<polyline fill="none" stroke="black" points="95.999,-894.563 286.027,-894.563 "/>
<text text-anchor="start" x="103.999" y="-882.563" font-family="Monaco" font-size="10.00">+ ~IPropertyChanged()</text>
</a>
</g>
</g>
<!-- Node6&#45;&gt;Node5 -->
<g id="edge5" class="edge"><title>Node6&#45;&gt;Node5</title>
<path fill="none" stroke="midnightblue" d="M191.013,-862.908C191.013,-854.523 191.013,-845.557 191.013,-836.715"/>
<polygon fill="none" stroke="midnightblue" points="187.513,-863.165 191.013,-873.165 194.513,-863.165 187.513,-863.165"/>
</g>
<!-- Node7&#45;&gt;Node1 -->
<g id="edge6" class="edge"><title>Node7&#45;&gt;Node1</title>
<path fill="none" stroke="midnightblue" d="M239.086,-267.151C231.205,-255.244 223.243,-243.214 216.128,-232.462"/>
<polygon fill="none" stroke="midnightblue" points="236.358,-269.372 244.796,-275.779 242.196,-265.509 236.358,-269.372"/>
</g>
</g>
</svg>
        <g id="navigator" transform="translate(0 0)" fill="#404254">
                <rect fill="#f2f5e9" fill-opacity="0.5" stroke="#606060" stroke-width=".5" x="0" y="0" width="60" height="60"/>
                <use id="zoomplus" xlink:href="#zoomPlus" x="17" y="9" onmousedown="handleZoom(evt,'in')"/>
                <use id="zoomminus" xlink:href="#zoomMin" x="42" y="9" onmousedown="handleZoom(evt,'out')"/>
                <use id="reset" xlink:href="#resetDef" x="30" y="36" onmousedown="handleReset()"/>
                <g id="arrowUp" xlink:href="#dirArrow" transform="translate(30 24)" onmousedown="handlePan(0,-1)">
                  <use xlink:href="#rim" fill="#404040">
                        <set attributeName="fill" to="#808080" begin="arrowUp.mouseover" end="arrowUp.mouseout"/>
                  </use>
                  <path fill="none" stroke="white" stroke-width="1.5" d="M0,-3.0v7 M-2.5,-0.5L0,-3.0L2.5,-0.5"/>
                </g>
                <g id="arrowRight" xlink:href="#dirArrow" transform="rotate(90) translate(36 -43)" onmousedown="handlePan(1,0)">
                  <use xlink:href="#rim" fill="#404040">
                        <set attributeName="fill" to="#808080" begin="arrowRight.mouseover" end="arrowRight.mouseout"/>
                  </use>
                  <path fill="none" stroke="white" stroke-width="1.5" d="M0,-3.0v7 M-2.5,-0.5L0,-3.0L2.5,-0.5"/>
                </g>
                <g id="arrowDown" xlink:href="#dirArrow" transform="rotate(180) translate(-30 -48)" onmousedown="handlePan(0,1)">
                  <use xlink:href="#rim" fill="#404040">
                        <set attributeName="fill" to="#808080" begin="arrowDown.mouseover" end="arrowDown.mouseout"/>
                  </use>
                  <path fill="none" stroke="white" stroke-width="1.5" d="M0,-3.0v7 M-2.5,-0.5L0,-3.0L2.5,-0.5"/>
                </g>
                <g id="arrowLeft" xlink:href="#dirArrow" transform="rotate(270) translate(-36 17)" onmousedown="handlePan(-1,0)">
                  <use xlink:href="#rim" fill="#404040">
                        <set attributeName="fill" to="#808080" begin="arrowLeft.mouseover" end="arrowLeft.mouseout"/>
                  </use>
                  <path fill="none" stroke="white" stroke-width="1.5" d="M0,-3.0v7 M-2.5,-0.5L0,-3.0L2.5,-0.5"/>
                </g>
        </g>
        <svg viewBox="0 0 15 15" width="100%" height="30px" preserveAspectRatio="xMaxYMin meet">
         <g id="arrow_out" transform="scale(0.3 0.3)">
          <a xlink:href="class_hydro_couple_1_1_spatio_temporal_1_1_i_time_geometry_component_item__inherit__graph_org.svg" target="_base">
           <rect id="button" ry="5" rx="5" y="6" x="6" height="38" width="38"
                fill="#f2f5e9" fill-opacity="0.5" stroke="#606060" stroke-width="1.0"/>
           <path id="arrow"
             d="M 11.500037,31.436501 C 11.940474,20.09759 22.043105,11.32322 32.158766,21.979434 L 37.068811,17.246167 C 37.068811,17.246167 37.088388,32 37.088388,32 L 22.160133,31.978069 C 22.160133,31.978069 26.997745,27.140456 26.997745,27.140456 C 18.528582,18.264221 13.291696,25.230495 11.500037,31.436501 z"
             style="fill:#404040;"/>
          </a>
         </g>
        </svg>
</svg>
