<?xml version="1.0" encoding="UTF-8" standalone="no"?>
<!DOCTYPE svg PUBLIC "-//W3C//DTD SVG 1.1//EN"
 "http://www.w3.org/Graphics/SVG/1.1/DTD/svg11.dtd">
<!-- Generated by graphviz version 2.38.0 (20140413.2041)
 -->
<!-- Title: HydroCouple::Data::IInput Pages: 1 -->
<svg width="169pt" height="658pt"
 viewBox="0.00 0.00 169.08 658.00" xmlns="http://www.w3.org/2000/svg" xmlns:xlink="http://www.w3.org/1999/xlink">
<g id="graph0" class="graph" transform="scale(1 1) rotate(0) translate(4 654)">
<title>HydroCouple::Data::IInput</title>
<polygon fill="white" stroke="none" points="-4,4 -4,-654 165.083,-654 165.083,4 -4,4"/>
<!-- Node1 -->
<g id="node1" class="node"><title>Node1</title>
<polygon fill="#bfbfbf" stroke="black" points="27.2412,-0.5 27.2412,-94.5 133.842,-94.5 133.842,-0.5 27.2412,-0.5"/>
<text text-anchor="start" x="35.2412" y="-82.5" font-family="Helvetica,sans-Serif" font-size="10.00">HydroCouple::Data::</text>
<text text-anchor="middle" x="80.5415" y="-72.5" font-family="Helvetica,sans-Serif" font-size="10.00">IInput</text>
<polyline fill="none" stroke="black" points="27.2412,-66.5 133.842,-66.5 "/>
<text text-anchor="middle" x="80.5415" y="-54.5" font-family="Helvetica,sans-Serif" font-size="10.00"> </text>
<polyline fill="none" stroke="black" points="27.2412,-48.5 133.842,-48.5 "/>
<text text-anchor="start" x="35.2412" y="-36.5" font-family="Helvetica,sans-Serif" font-size="10.00">+ ~IInput()</text>
<text text-anchor="start" x="35.2412" y="-26.5" font-family="Helvetica,sans-Serif" font-size="10.00">+ getProvider()</text>
<text text-anchor="start" x="35.2412" y="-16.5" font-family="Helvetica,sans-Serif" font-size="10.00">+ setProvider()</text>
<text text-anchor="start" x="35.2412" y="-6.5" font-family="Helvetica,sans-Serif" font-size="10.00">+ canConsume()</text>
</g>
<!-- Node2 -->
<g id="node2" class="node"><title>Node2</title>
<g id="a_node2"><a xlink:href="class_hydro_couple_1_1_data_1_1_i_exchange_item.html" target="_top" xlink:title="IExchangeItem the base data item the can be exchanged between components at runtime. ">
<polygon fill="white" stroke="black" points="27.2412,-131.5 27.2412,-205.5 133.842,-205.5 133.842,-131.5 27.2412,-131.5"/>
<text text-anchor="start" x="35.2412" y="-193.5" font-family="Helvetica,sans-Serif" font-size="10.00">HydroCouple::Data::</text>
<text text-anchor="middle" x="80.5415" y="-183.5" font-family="Helvetica,sans-Serif" font-size="10.00">IExchangeItem</text>
<polyline fill="none" stroke="black" points="27.2412,-177.5 133.842,-177.5 "/>
<text text-anchor="middle" x="80.5415" y="-165.5" font-family="Helvetica,sans-Serif" font-size="10.00"> </text>
<polyline fill="none" stroke="black" points="27.2412,-159.5 133.842,-159.5 "/>
<text text-anchor="start" x="35.2412" y="-147.5" font-family="Helvetica,sans-Serif" font-size="10.00">+ ~IExchangeItem()</text>
<text text-anchor="start" x="35.2412" y="-137.5" font-family="Helvetica,sans-Serif" font-size="10.00">+ itemChanged()</text>
</a>
</g>
</g>
<!-- Node2&#45;&gt;Node1 -->
<g id="edge1" class="edge"><title>Node2&#45;&gt;Node1</title>
<path fill="none" stroke="midnightblue" d="M80.5415,-121.372C80.5415,-112.564 80.5415,-103.344 80.5415,-94.5391"/>
<polygon fill="none" stroke="midnightblue" points="77.0416,-121.473 80.5415,-131.473 84.0416,-121.473 77.0416,-121.473"/>
</g>
<!-- Node3 -->
<g id="node3" class="node"><title>Node3</title>
<g id="a_node3"><a xlink:href="class_hydro_couple_1_1_data_1_1_i_component_item.html" target="_top" xlink:title="IComponentItem is a fundamental unit of data for a component. ">
<polygon fill="white" stroke="black" points="25.0195,-242.5 25.0195,-326.5 136.063,-326.5 136.063,-242.5 25.0195,-242.5"/>
<text text-anchor="start" x="33.0195" y="-314.5" font-family="Helvetica,sans-Serif" font-size="10.00">HydroCouple::Data::</text>
<text text-anchor="middle" x="80.5415" y="-304.5" font-family="Helvetica,sans-Serif" font-size="10.00">IComponentItem</text>
<polyline fill="none" stroke="black" points="25.0195,-298.5 136.063,-298.5 "/>
<text text-anchor="middle" x="80.5415" y="-286.5" font-family="Helvetica,sans-Serif" font-size="10.00"> </text>
<polyline fill="none" stroke="black" points="25.0195,-280.5 136.063,-280.5 "/>
<text text-anchor="start" x="33.0195" y="-268.5" font-family="Helvetica,sans-Serif" font-size="10.00">+ ~IComponentItem()</text>
<text text-anchor="start" x="33.0195" y="-258.5" font-family="Helvetica,sans-Serif" font-size="10.00">+ modelComponent()</text>
<text text-anchor="start" x="33.0195" y="-248.5" font-family="Helvetica,sans-Serif" font-size="10.00">+ dimensions()</text>
</a>
</g>
</g>
<!-- Node3&#45;&gt;Node2 -->
<g id="edge2" class="edge"><title>Node3&#45;&gt;Node2</title>
<path fill="none" stroke="midnightblue" d="M80.5415,-232.328C80.5415,-223.341 80.5415,-214.159 80.5415,-205.688"/>
<polygon fill="none" stroke="midnightblue" points="77.0416,-232.343 80.5415,-242.343 84.0416,-232.343 77.0416,-232.343"/>
</g>
<!-- Node4 -->
<g id="node4" class="node"><title>Node4</title>
<g id="a_node4"><a xlink:href="class_hydro_couple_1_1_i_identity.html" target="_top" xlink:title="IIdentity interface class defines a method to get the Id of an HydroCouple entity. &#160;IIdentity extends the IDescription interface class, and therefore has, next to the id, a caption and a description. ">
<polygon fill="white" stroke="black" points="23.0713,-363.5 23.0713,-427.5 138.012,-427.5 138.012,-363.5 23.0713,-363.5"/>
<text text-anchor="middle" x="80.5415" y="-415.5" font-family="Helvetica,sans-Serif" font-size="10.00">HydroCouple::IIdentity</text>
<polyline fill="none" stroke="black" points="23.0713,-409.5 138.012,-409.5 "/>
<text text-anchor="middle" x="80.5415" y="-397.5" font-family="Helvetica,sans-Serif" font-size="10.00"> </text>
<polyline fill="none" stroke="black" points="23.0713,-391.5 138.012,-391.5 "/>
<text text-anchor="start" x="31.0713" y="-379.5" font-family="Helvetica,sans-Serif" font-size="10.00">+ ~IIdentity()</text>
<text text-anchor="start" x="31.0713" y="-369.5" font-family="Helvetica,sans-Serif" font-size="10.00">+ id()</text>
</a>
</g>
</g>
<!-- Node4&#45;&gt;Node3 -->
<g id="edge3" class="edge"><title>Node4&#45;&gt;Node3</title>
<path fill="none" stroke="midnightblue" d="M80.5415,-353.263C80.5415,-344.503 80.5415,-335.255 80.5415,-326.503"/>
<polygon fill="none" stroke="midnightblue" points="77.0416,-353.265 80.5415,-363.265 84.0416,-353.265 77.0416,-353.265"/>
</g>
<!-- Node5 -->
<g id="node5" class="node"><title>Node5</title>
<g id="a_node5"><a xlink:href="class_hydro_couple_1_1_i_description.html" target="_top" xlink:title="IDescription interface class provides descriptive information on a HydroCouple object. ">
<polygon fill="white" stroke="black" points="14.1821,-464.5 14.1821,-558.5 146.901,-558.5 146.901,-464.5 14.1821,-464.5"/>
<text text-anchor="middle" x="80.5415" y="-546.5" font-family="Helvetica,sans-Serif" font-size="10.00">HydroCouple::IDescription</text>
<polyline fill="none" stroke="black" points="14.1821,-540.5 146.901,-540.5 "/>
<text text-anchor="middle" x="80.5415" y="-528.5" font-family="Helvetica,sans-Serif" font-size="10.00"> </text>
<polyline fill="none" stroke="black" points="14.1821,-522.5 146.901,-522.5 "/>
<text text-anchor="start" x="22.1821" y="-510.5" font-family="Helvetica,sans-Serif" font-size="10.00">+ ~IDescription()</text>
<text text-anchor="start" x="22.1821" y="-500.5" font-family="Helvetica,sans-Serif" font-size="10.00">+ getCaption()</text>
<text text-anchor="start" x="22.1821" y="-490.5" font-family="Helvetica,sans-Serif" font-size="10.00">+ setCaption()</text>
<text text-anchor="start" x="22.1821" y="-480.5" font-family="Helvetica,sans-Serif" font-size="10.00">+ getDescription()</text>
<text text-anchor="start" x="22.1821" y="-470.5" font-family="Helvetica,sans-Serif" font-size="10.00">+ setDescription()</text>
</a>
</g>
</g>
<!-- Node5&#45;&gt;Node4 -->
<g id="edge4" class="edge"><title>Node5&#45;&gt;Node4</title>
<path fill="none" stroke="midnightblue" d="M80.5415,-454.212C80.5415,-445.081 80.5415,-435.926 80.5415,-427.684"/>
<polygon fill="none" stroke="midnightblue" points="77.0416,-454.46 80.5415,-464.46 84.0416,-454.46 77.0416,-454.46"/>
</g>
<!-- Node6 -->
<g id="node6" class="node"><title>Node6</title>
<g id="a_node6"><a xlink:href="class_hydro_couple_1_1_i_property_changed.html" target="_top" xlink:title="IPropertyChanged interface is used to emit signal/event when a property of an object changes...">
<polygon fill="white" stroke="black" points="0,-595.5 0,-649.5 161.083,-649.5 161.083,-595.5 0,-595.5"/>
<text text-anchor="middle" x="80.5415" y="-637.5" font-family="Helvetica,sans-Serif" font-size="10.00">HydroCouple::IPropertyChanged</text>
<polyline fill="none" stroke="black" points="0,-631.5 161.083,-631.5 "/>
<text text-anchor="middle" x="80.5415" y="-619.5" font-family="Helvetica,sans-Serif" font-size="10.00"> </text>
<polyline fill="none" stroke="black" points="0,-613.5 161.083,-613.5 "/>
<text text-anchor="start" x="8" y="-601.5" font-family="Helvetica,sans-Serif" font-size="10.00">+ ~IPropertyChanged()</text>
</a>
</g>
</g>
<!-- Node6&#45;&gt;Node5 -->
<g id="edge5" class="edge"><title>Node6&#45;&gt;Node5</title>
<path fill="none" stroke="midnightblue" d="M80.5415,-585.141C80.5415,-576.716 80.5415,-567.639 80.5415,-558.851"/>
<polygon fill="none" stroke="midnightblue" points="77.0416,-585.392 80.5415,-595.392 84.0416,-585.392 77.0416,-585.392"/>
</g>
</g>
</svg>
