<?xml version="1.0" encoding="UTF-8" standalone="no"?>
<!DOCTYPE svg PUBLIC "-//W3C//DTD SVG 1.1//EN"
 "http://www.w3.org/Graphics/SVG/1.1/DTD/svg11.dtd">
<!-- Generated by graphviz version 2.38.0 (20140413.2041)
 -->
<!-- Title: HydroCouple::SpatioTemporal::ITimePolyhedralSurfaceArgument Pages: 1 -->
<!--zoomable 1119 -->
<svg id="main" version="1.1" xmlns="http://www.w3.org/2000/svg" xmlns:xlink="http://www.w3.org/1999/xlink" xml:space="preserve" onload="init(evt)">
<style type="text/css"><![CDATA[
.edge:hover path { stroke: red; }
.edge:hover polygon { stroke: red; fill: red; }
]]></style>
<script type="text/javascript"><![CDATA[
var edges = document.getElementsByTagName('g');
if (edges && edges.length) {
  for (var i=0;i<edges.length;i++) {
    if (edges[i].id.substr(0,4)=='edge') {
      edges[i].setAttribute('class','edge');
    }
  }
}
]]></script>
        <defs>
                <circle id="rim" cx="0" cy="0" r="7"/>
                <circle id="rim2" cx="0" cy="0" r="3.5"/>
                <g id="zoomPlus">
                        <use xlink:href="#rim" fill="#404040">
                                <set attributeName="fill" to="#808080" begin="zoomplus.mouseover" end="zoomplus.mouseout"/>
                        </use>
                        <path d="M-4,0h8M0,-4v8" fill="none" stroke="white" stroke-width="1.5" pointer-events="none"/>
                </g>
                <g id="zoomMin">
                        <use xlink:href="#rim" fill="#404040">
                                <set attributeName="fill" to="#808080" begin="zoomminus.mouseover" end="zoomminus.mouseout"/>
                        </use>
                        <path d="M-4,0h8" fill="none" stroke="white" stroke-width="1.5" pointer-events="none"/>
                </g>
                <g id="dirArrow">
                        <path fill="none" stroke="white" stroke-width="1.5" d="M0,-3.0v7 M-2.5,-0.5L0,-3.0L2.5,-0.5"/>
                </g>
               <g id="resetDef">
                       <use xlink:href="#rim2" fill="#404040">
                               <set attributeName="fill" to="#808080" begin="reset.mouseover" end="reset.mouseout"/>
                       </use>
               </g>
        </defs>

<script type="text/javascript">
var viewWidth = 614;
var viewHeight = 1119;
var sectionId = 'dynsection-0';
</script>
<script xlink:href="svgpan.js"/>
<svg id="graph" class="graph">
<g id="viewport">
<title>HydroCouple::SpatioTemporal::ITimePolyhedralSurfaceArgument</title>
<!-- Node1 -->
<g id="node1" class="node"><title>Node1</title>
<polygon fill="#bfbfbf" stroke="black" points="196.996,-0.5 196.996,-77.8398 423.03,-77.8398 423.03,-0.5 196.996,-0.5"/>
<text text-anchor="start" x="204.996" y="-65.8398" font-family="Monaco" font-size="10.00">HydroCouple::SpatioTemporal</text>
<text text-anchor="middle" x="310.013" y="-52.5049" font-family="Monaco" font-size="10.00">::ITimePolyhedralSurfaceArgument</text>
<polyline fill="none" stroke="black" points="196.996,-43.1699 423.03,-43.1699 "/>
<text text-anchor="middle" x="310.013" y="-31.1699" font-family="Monaco" font-size="10.00"> </text>
<polyline fill="none" stroke="black" points="196.996,-21.835 423.03,-21.835 "/>
<text text-anchor="start" x="204.996" y="-9.83496" font-family="Monaco" font-size="10.00">+ ~ITimePolyhedralSurfaceArgument()</text>
</g>
<!-- Node2 -->
<g id="node2" class="node"><title>Node2</title>
<g id="a_node2"><a xlink:href="class_hydro_couple_1_1_spatio_temporal_1_1_i_time_polyhedral_surface_component_data_item.html" target="_top" xlink:title="The ITimePolyhedralSurfaceComponentItem class. ">
<polygon fill="none" stroke="black" points="0.996582,-114.84 0.996582,-298.859 221.03,-298.859 221.03,-114.84 0.996582,-114.84"/>
<text text-anchor="start" x="8.99658" y="-286.859" font-family="Monaco" font-size="10.00">HydroCouple::SpatioTemporal</text>
<text text-anchor="start" x="8.99658" y="-273.524" font-family="Monaco" font-size="10.00">::ITimePolyhedralSurfaceComponent</text>
<text text-anchor="middle" x="111.013" y="-260.189" font-family="Monaco" font-size="10.00">DataItem</text>
<polyline fill="none" stroke="black" points="0.996582,-250.854 221.03,-250.854 "/>
<text text-anchor="middle" x="111.013" y="-238.854" font-family="Monaco" font-size="10.00"> </text>
<polyline fill="none" stroke="black" points="0.996582,-229.52 221.03,-229.52 "/>
<text text-anchor="start" x="8.99658" y="-217.52" font-family="Monaco" font-size="10.00">+ ~ITimePolyhedralSurfaceComponent</text>
<text text-anchor="start" x="8.99658" y="-204.185" font-family="Monaco" font-size="10.00">DataItem()</text>
<text text-anchor="start" x="8.99658" y="-190.85" font-family="Monaco" font-size="10.00">+ getValue()</text>
<text text-anchor="start" x="8.99658" y="-177.515" font-family="Monaco" font-size="10.00">+ getValues()</text>
<text text-anchor="start" x="8.99658" y="-164.18" font-family="Monaco" font-size="10.00">+ getValues()</text>
<text text-anchor="start" x="8.99658" y="-150.845" font-family="Monaco" font-size="10.00">+ setValue()</text>
<text text-anchor="start" x="8.99658" y="-137.51" font-family="Monaco" font-size="10.00">+ setValues()</text>
<text text-anchor="start" x="8.99658" y="-124.175" font-family="Monaco" font-size="10.00">+ setValues()</text>
</a>
</g>
</g>
<!-- Node2&#45;&gt;Node1 -->
<g id="edge1" class="edge"><title>Node2&#45;&gt;Node1</title>
<path fill="none" stroke="midnightblue" d="M228.383,-108.132C241.117,-97.53 253.448,-87.2641 264.503,-78.0601"/>
<polygon fill="none" stroke="midnightblue" points="225.855,-105.682 220.41,-114.77 230.334,-111.062 225.855,-105.682"/>
</g>
<!-- Node3 -->
<g id="node3" class="node"><title>Node3</title>
<g id="a_node3"><a xlink:href="class_hydro_couple_1_1_temporal_1_1_i_time_component_data_item.html" target="_top" xlink:title="ITimeComponentItem is an IComponentItem with a temporal attribute. This class cannot be directly inst...">
<polygon fill="none" stroke="black" points="0,-369.197 0,-486.542 178.026,-486.542 178.026,-369.197 0,-369.197"/>
<text text-anchor="start" x="8" y="-474.542" font-family="Monaco" font-size="10.00">HydroCouple::Temporal</text>
<text text-anchor="middle" x="89.0132" y="-461.207" font-family="Monaco" font-size="10.00">::ITimeComponentDataItem</text>
<polyline fill="none" stroke="black" points="0,-451.872 178.026,-451.872 "/>
<text text-anchor="middle" x="89.0132" y="-439.872" font-family="Monaco" font-size="10.00"> </text>
<polyline fill="none" stroke="black" points="0,-430.537 178.026,-430.537 "/>
<text text-anchor="start" x="8" y="-418.537" font-family="Monaco" font-size="10.00">+ ~ITimeComponentDataItem()</text>
<text text-anchor="start" x="8" y="-405.202" font-family="Monaco" font-size="10.00">+ times()</text>
<text text-anchor="start" x="8" y="-391.867" font-family="Monaco" font-size="10.00">+ timeSpan()</text>
<text text-anchor="start" x="8" y="-378.532" font-family="Monaco" font-size="10.00">+ timeDimension()</text>
</a>
</g>
</g>
<!-- Node3&#45;&gt;Node2 -->
<g id="edge2" class="edge"><title>Node3&#45;&gt;Node2</title>
<path fill="none" stroke="midnightblue" d="M95.8278,-359.027C97.7312,-340.078 99.831,-319.173 101.846,-299.109"/>
<polygon fill="none" stroke="midnightblue" points="92.3393,-358.738 94.8222,-369.038 99.3042,-359.438 92.3393,-358.738"/>
</g>
<!-- Node9 -->
<g id="node9" class="node"><title>Node9</title>
<g id="a_node9"><a xlink:href="class_hydro_couple_1_1_temporal_1_1_i_time_argument.html" target="_top" xlink:title="The ITimeArgument class. his class cannot be directly instantiated and must be implemented as as an a...">
<polygon fill="none" stroke="black" points="239.003,-168.18 239.003,-245.52 381.023,-245.52 381.023,-168.18 239.003,-168.18"/>
<text text-anchor="start" x="247.003" y="-233.52" font-family="Monaco" font-size="10.00">HydroCouple::Temporal</text>
<text text-anchor="middle" x="310.013" y="-220.185" font-family="Monaco" font-size="10.00">::ITimeArgument</text>
<polyline fill="none" stroke="black" points="239.003,-210.85 381.023,-210.85 "/>
<text text-anchor="middle" x="310.013" y="-198.85" font-family="Monaco" font-size="10.00"> </text>
<polyline fill="none" stroke="black" points="239.003,-189.515 381.023,-189.515 "/>
<text text-anchor="start" x="247.003" y="-177.515" font-family="Monaco" font-size="10.00">+ ~ITimeArgument()</text>
</a>
</g>
</g>
<!-- Node3&#45;&gt;Node9 -->
<g id="edge12" class="edge"><title>Node3&#45;&gt;Node9</title>
<path fill="none" stroke="midnightblue" d="M157.445,-362.09C167.29,-353.028 177.356,-343.9 187.013,-335.359 205.684,-318.848 212.202,-316.794 230.013,-299.359 247.204,-282.532 264.949,-262.544 279.345,-245.549"/>
<polygon fill="none" stroke="midnightblue" points="154.94,-359.639 149.97,-368.995 159.69,-364.78 154.94,-359.639"/>
</g>
<!-- Node4 -->
<g id="node4" class="node"><title>Node4</title>
<g id="a_node4"><a xlink:href="class_hydro_couple_1_1_i_component_data_item.html" target="_top" xlink:title="IComponentItem is a fundamental unit of data for a component. ">
<polygon fill="none" stroke="black" points="207.998,-556.879 207.998,-740.898 410.028,-740.898 410.028,-556.879 207.998,-556.879"/>
<text text-anchor="middle" x="309.013" y="-728.898" font-family="Monaco" font-size="10.00">HydroCouple::IComponentDataItem</text>
<polyline fill="none" stroke="black" points="207.998,-719.563 410.028,-719.563 "/>
<text text-anchor="middle" x="309.013" y="-707.563" font-family="Monaco" font-size="10.00"> </text>
<polyline fill="none" stroke="black" points="207.998,-698.229 410.028,-698.229 "/>
<text text-anchor="start" x="215.998" y="-686.229" font-family="Monaco" font-size="10.00">+ ~IComponentDataItem()</text>
<text text-anchor="start" x="215.998" y="-672.894" font-family="Monaco" font-size="10.00">+ modelComponent()</text>
<text text-anchor="start" x="215.998" y="-659.559" font-family="Monaco" font-size="10.00">+ dimensions()</text>
<text text-anchor="start" x="215.998" y="-646.224" font-family="Monaco" font-size="10.00">+ valueDefinition()</text>
<text text-anchor="start" x="215.998" y="-632.889" font-family="Monaco" font-size="10.00">+ getValue()</text>
<text text-anchor="start" x="215.998" y="-619.554" font-family="Monaco" font-size="10.00">+ getValues()</text>
<text text-anchor="start" x="215.998" y="-606.219" font-family="Monaco" font-size="10.00">+ getValues()</text>
<text text-anchor="start" x="215.998" y="-592.884" font-family="Monaco" font-size="10.00">+ setValue()</text>
<text text-anchor="start" x="215.998" y="-579.549" font-family="Monaco" font-size="10.00">+ setValues()</text>
<text text-anchor="start" x="215.998" y="-566.214" font-family="Monaco" font-size="10.00">+ setValues()</text>
</a>
</g>
</g>
<!-- Node4&#45;&gt;Node3 -->
<g id="edge3" class="edge"><title>Node4&#45;&gt;Node3</title>
<path fill="none" stroke="midnightblue" d="M210.018,-549.335C188.449,-527.862 166.31,-505.822 146.963,-486.56"/>
<polygon fill="none" stroke="midnightblue" points="207.75,-552.016 217.306,-556.591 212.689,-547.055 207.75,-552.016"/>
</g>
<!-- Node8 -->
<g id="node8" class="node"><title>Node8</title>
<g id="a_node8"><a xlink:href="class_hydro_couple_1_1_spatial_1_1_i_polyhedral_surface_component_data_item.html" target="_top" xlink:title="IPolyhedralSurfaceComponentItem represents IPolyhedralSurface IComponentItem. ">
<polygon fill="none" stroke="black" points="195.996,-355.862 195.996,-499.876 422.03,-499.876 422.03,-355.862 195.996,-355.862"/>
<text text-anchor="start" x="203.996" y="-487.876" font-family="Monaco" font-size="10.00">HydroCouple::Spatial</text>
<text text-anchor="start" x="203.996" y="-474.542" font-family="Monaco" font-size="10.00">::IPolyhedralSurfaceComponent</text>
<text text-anchor="middle" x="309.013" y="-461.207" font-family="Monaco" font-size="10.00">DataItem</text>
<polyline fill="none" stroke="black" points="195.996,-451.872 422.03,-451.872 "/>
<text text-anchor="middle" x="309.013" y="-439.872" font-family="Monaco" font-size="10.00"> </text>
<polyline fill="none" stroke="black" points="195.996,-430.537 422.03,-430.537 "/>
<text text-anchor="start" x="203.996" y="-418.537" font-family="Monaco" font-size="10.00">+ ~IPolyhedralSurfaceComponent</text>
<text text-anchor="start" x="203.996" y="-405.202" font-family="Monaco" font-size="10.00">DataItem()</text>
<text text-anchor="start" x="203.996" y="-391.867" font-family="Monaco" font-size="10.00">+ polyhedralSurface()</text>
<text text-anchor="start" x="203.996" y="-378.532" font-family="Monaco" font-size="10.00">+ polygon()</text>
<text text-anchor="start" x="203.996" y="-365.197" font-family="Monaco" font-size="10.00">+ polyhedralSurfacePatchDimension()</text>
</a>
</g>
</g>
<!-- Node4&#45;&gt;Node8 -->
<g id="edge8" class="edge"><title>Node4&#45;&gt;Node8</title>
<path fill="none" stroke="midnightblue" d="M309.013,-546.345C309.013,-530.686 309.013,-514.808 309.013,-500.002"/>
<polygon fill="none" stroke="midnightblue" points="305.513,-546.591 309.013,-556.591 312.513,-546.591 305.513,-546.591"/>
</g>
<!-- Node10 -->
<g id="node10" class="node"><title>Node10</title>
<g id="a_node10"><a xlink:href="class_hydro_couple_1_1_i_argument.html" target="_top" xlink:title="IArgument interface class used to set the arguments for components. They can be complex or simple mul...">
<polygon fill="none" stroke="black" points="440.001,-335.859 440.001,-519.879 606.025,-519.879 606.025,-335.859 440.001,-335.859"/>
<text text-anchor="middle" x="523.013" y="-507.879" font-family="Monaco" font-size="10.00">HydroCouple::IArgument</text>
<polyline fill="none" stroke="black" points="440.001,-498.544 606.025,-498.544 "/>
<text text-anchor="middle" x="523.013" y="-486.544" font-family="Monaco" font-size="10.00"> </text>
<polyline fill="none" stroke="black" points="440.001,-477.209 606.025,-477.209 "/>
<text text-anchor="start" x="448.001" y="-465.209" font-family="Monaco" font-size="10.00">+ ~IArgument()</text>
<text text-anchor="start" x="448.001" y="-451.874" font-family="Monaco" font-size="10.00">+ isOptional()</text>
<text text-anchor="start" x="448.001" y="-438.539" font-family="Monaco" font-size="10.00">+ isReadOnly()</text>
<text text-anchor="start" x="448.001" y="-425.204" font-family="Monaco" font-size="10.00">+ toString()</text>
<text text-anchor="start" x="448.001" y="-411.869" font-family="Monaco" font-size="10.00">+ inputFileTypeFilters()</text>
<text text-anchor="start" x="448.001" y="-398.534" font-family="Monaco" font-size="10.00">+ canReadFromFile()</text>
<text text-anchor="start" x="448.001" y="-385.199" font-family="Monaco" font-size="10.00">+ canReadFromString()</text>
<text text-anchor="start" x="448.001" y="-371.864" font-family="Monaco" font-size="10.00">+ currentArgumentIOType()</text>
<text text-anchor="start" x="448.001" y="-358.529" font-family="Monaco" font-size="10.00">+ readValues()</text>
<text text-anchor="start" x="448.001" y="-345.194" font-family="Monaco" font-size="10.00">+ readValues()</text>
</a>
</g>
</g>
<!-- Node4&#45;&gt;Node10 -->
<g id="edge11" class="edge"><title>Node4&#45;&gt;Node10</title>
<path fill="none" stroke="midnightblue" d="M405.346,-549.296C416.835,-537.538 428.489,-525.61 439.773,-514.062"/>
<polygon fill="none" stroke="midnightblue" points="402.704,-546.992 398.219,-556.591 407.711,-551.884 402.704,-546.992"/>
</g>
<!-- Node5 -->
<g id="node5" class="node"><title>Node5</title>
<g id="a_node5"><a xlink:href="class_hydro_couple_1_1_i_identity.html" target="_top" xlink:title="IIdentity interface class defines a method to get the Id of an HydroCouple entity. ">
<polygon fill="none" stroke="black" points="235.002,-777.898 235.002,-855.238 383.024,-855.238 383.024,-777.898 235.002,-777.898"/>
<text text-anchor="middle" x="309.013" y="-843.238" font-family="Monaco" font-size="10.00">HydroCouple::IIdentity</text>
<polyline fill="none" stroke="black" points="235.002,-833.903 383.024,-833.903 "/>
<text text-anchor="middle" x="309.013" y="-821.903" font-family="Monaco" font-size="10.00"> </text>
<polyline fill="none" stroke="black" points="235.002,-812.568 383.024,-812.568 "/>
<text text-anchor="start" x="243.002" y="-800.568" font-family="Monaco" font-size="10.00">+ ~IIdentity()</text>
<text text-anchor="start" x="243.002" y="-787.233" font-family="Monaco" font-size="10.00">+ id()</text>
</a>
</g>
</g>
<!-- Node5&#45;&gt;Node4 -->
<g id="edge4" class="edge"><title>Node5&#45;&gt;Node4</title>
<path fill="none" stroke="midnightblue" d="M309.013,-767.316C309.013,-758.963 309.013,-750.037 309.013,-740.979"/>
<polygon fill="none" stroke="midnightblue" points="305.513,-767.558 309.013,-777.558 312.513,-767.558 305.513,-767.558"/>
</g>
<!-- Node6 -->
<g id="node6" class="node"><title>Node6</title>
<g id="a_node6"><a xlink:href="class_hydro_couple_1_1_i_description.html" target="_top" xlink:title="IDescription interface class provides descriptive information on a HydroCouple object. ">
<polygon fill="none" stroke="black" points="226.001,-892.238 226.001,-1009.58 392.025,-1009.58 392.025,-892.238 226.001,-892.238"/>
<text text-anchor="middle" x="309.013" y="-997.583" font-family="Monaco" font-size="10.00">HydroCouple::IDescription</text>
<polyline fill="none" stroke="black" points="226.001,-988.248 392.025,-988.248 "/>
<text text-anchor="middle" x="309.013" y="-976.248" font-family="Monaco" font-size="10.00"> </text>
<polyline fill="none" stroke="black" points="226.001,-966.913 392.025,-966.913 "/>
<text text-anchor="start" x="234.001" y="-954.913" font-family="Monaco" font-size="10.00">+ ~IDescription()</text>
<text text-anchor="start" x="234.001" y="-941.578" font-family="Monaco" font-size="10.00">+ caption()</text>
<text text-anchor="start" x="234.001" y="-928.243" font-family="Monaco" font-size="10.00">+ setCaption()</text>
<text text-anchor="start" x="234.001" y="-914.908" font-family="Monaco" font-size="10.00">+ description()</text>
<text text-anchor="start" x="234.001" y="-901.573" font-family="Monaco" font-size="10.00">+ setDescription()</text>
</a>
</g>
</g>
<!-- Node6&#45;&gt;Node5 -->
<g id="edge5" class="edge"><title>Node6&#45;&gt;Node5</title>
<path fill="none" stroke="midnightblue" d="M309.013,-881.672C309.013,-872.634 309.013,-863.646 309.013,-855.386"/>
<polygon fill="none" stroke="midnightblue" points="305.513,-881.863 309.013,-891.863 312.513,-881.863 305.513,-881.863"/>
</g>
<!-- Node7 -->
<g id="node7" class="node"><title>Node7</title>
<g id="a_node7"><a xlink:href="class_hydro_couple_1_1_i_property_changed.html" target="_top" xlink:title="IPropertyChanged interface is used to emit signal/event when a property of an object changes...">
<polygon fill="none" stroke="black" points="213.999,-1046.58 213.999,-1110.59 404.027,-1110.59 404.027,-1046.58 213.999,-1046.58"/>
<text text-anchor="middle" x="309.013" y="-1098.59" font-family="Monaco" font-size="10.00">HydroCouple::IPropertyChanged</text>
<polyline fill="none" stroke="black" points="213.999,-1089.25 404.027,-1089.25 "/>
<text text-anchor="middle" x="309.013" y="-1077.25" font-family="Monaco" font-size="10.00"> </text>
<polyline fill="none" stroke="black" points="213.999,-1067.92 404.027,-1067.92 "/>
<text text-anchor="start" x="221.999" y="-1055.92" font-family="Monaco" font-size="10.00">+ ~IPropertyChanged()</text>
</a>
</g>
</g>
<!-- Node7&#45;&gt;Node6 -->
<g id="edge6" class="edge"><title>Node7&#45;&gt;Node6</title>
<path fill="none" stroke="midnightblue" d="M309.013,-1036.26C309.013,-1027.88 309.013,-1018.91 309.013,-1010.07"/>
<polygon fill="none" stroke="midnightblue" points="305.513,-1036.52 309.013,-1046.52 312.513,-1036.52 305.513,-1036.52"/>
</g>
<!-- Node8&#45;&gt;Node2 -->
<g id="edge7" class="edge"><title>Node8&#45;&gt;Node2</title>
<path fill="none" stroke="midnightblue" d="M237.741,-348.03C223.356,-332.118 208.121,-315.266 193.392,-298.973"/>
<polygon fill="none" stroke="midnightblue" points="235.426,-350.689 244.728,-355.76 240.618,-345.995 235.426,-350.689"/>
</g>
<!-- Node11 -->
<g id="node11" class="node"><title>Node11</title>
<g id="a_node11"><a xlink:href="class_hydro_couple_1_1_spatial_1_1_i_polyhedral_surface_argument.html" target="_top" xlink:title="An IPolyhedralSurfaceArgument class with an IPolyhedralSurface component. ">
<polygon fill="none" stroke="black" points="398.998,-168.18 398.998,-245.52 601.028,-245.52 601.028,-168.18 398.998,-168.18"/>
<text text-anchor="start" x="406.998" y="-233.52" font-family="Monaco" font-size="10.00">HydroCouple::Spatial</text>
<text text-anchor="middle" x="500.013" y="-220.185" font-family="Monaco" font-size="10.00">::IPolyhedralSurfaceArgument</text>
<polyline fill="none" stroke="black" points="398.998,-210.85 601.028,-210.85 "/>
<text text-anchor="middle" x="500.013" y="-198.85" font-family="Monaco" font-size="10.00"> </text>
<polyline fill="none" stroke="black" points="398.998,-189.515 601.028,-189.515 "/>
<text text-anchor="start" x="406.998" y="-177.515" font-family="Monaco" font-size="10.00">+ ~IPolyhedralSurfaceArgument()</text>
</a>
</g>
</g>
<!-- Node8&#45;&gt;Node11 -->
<g id="edge15" class="edge"><title>Node8&#45;&gt;Node11</title>
<path fill="none" stroke="midnightblue" d="M377.836,-347.95C408.177,-313.158 442.423,-273.888 466.922,-245.796"/>
<polygon fill="none" stroke="midnightblue" points="374.96,-345.923 371.025,-355.76 380.236,-350.523 374.96,-345.923"/>
</g>
<!-- Node9&#45;&gt;Node1 -->
<g id="edge9" class="edge"><title>Node9&#45;&gt;Node1</title>
<path fill="none" stroke="midnightblue" d="M310.013,-157.686C310.013,-132.314 310.013,-101.647 310.013,-78.0033"/>
<polygon fill="none" stroke="midnightblue" points="306.513,-157.839 310.013,-167.839 313.513,-157.839 306.513,-157.839"/>
</g>
<!-- Node10&#45;&gt;Node9 -->
<g id="edge10" class="edge"><title>Node10&#45;&gt;Node9</title>
<path fill="none" stroke="midnightblue" d="M432.683,-336.923C432.125,-336.4 431.569,-335.879 431.013,-335.359 413.297,-318.801 407.142,-316.525 390.013,-299.359 373.17,-282.48 355.609,-262.672 341.246,-245.81"/>
<polygon fill="none" stroke="midnightblue" points="430.323,-339.508 439.995,-343.833 435.131,-334.421 430.323,-339.508"/>
</g>
<!-- Node10&#45;&gt;Node11 -->
<g id="edge14" class="edge"><title>Node10&#45;&gt;Node11</title>
<path fill="none" stroke="midnightblue" d="M512.375,-325.562C509.39,-297.141 506.328,-267.979 503.998,-245.791"/>
<polygon fill="none" stroke="midnightblue" points="508.9,-325.991 513.426,-335.571 515.862,-325.26 508.9,-325.991"/>
</g>
<!-- Node11&#45;&gt;Node1 -->
<g id="edge13" class="edge"><title>Node11&#45;&gt;Node1</title>
<path fill="none" stroke="midnightblue" d="M448.622,-161.037C418.826,-135.054 381.72,-102.698 353.4,-78.0033"/>
<polygon fill="none" stroke="midnightblue" points="446.586,-163.905 456.423,-167.839 451.187,-158.629 446.586,-163.905"/>
</g>
</g>
</svg>
        <g id="navigator" transform="translate(0 0)" fill="#404254">
                <rect fill="#f2f5e9" fill-opacity="0.5" stroke="#606060" stroke-width=".5" x="0" y="0" width="60" height="60"/>
                <use id="zoomplus" xlink:href="#zoomPlus" x="17" y="9" onmousedown="handleZoom(evt,'in')"/>
                <use id="zoomminus" xlink:href="#zoomMin" x="42" y="9" onmousedown="handleZoom(evt,'out')"/>
                <use id="reset" xlink:href="#resetDef" x="30" y="36" onmousedown="handleReset()"/>
                <g id="arrowUp" xlink:href="#dirArrow" transform="translate(30 24)" onmousedown="handlePan(0,-1)">
                  <use xlink:href="#rim" fill="#404040">
                        <set attributeName="fill" to="#808080" begin="arrowUp.mouseover" end="arrowUp.mouseout"/>
                  </use>
                  <path fill="none" stroke="white" stroke-width="1.5" d="M0,-3.0v7 M-2.5,-0.5L0,-3.0L2.5,-0.5"/>
                </g>
                <g id="arrowRight" xlink:href="#dirArrow" transform="rotate(90) translate(36 -43)" onmousedown="handlePan(1,0)">
                  <use xlink:href="#rim" fill="#404040">
                        <set attributeName="fill" to="#808080" begin="arrowRight.mouseover" end="arrowRight.mouseout"/>
                  </use>
                  <path fill="none" stroke="white" stroke-width="1.5" d="M0,-3.0v7 M-2.5,-0.5L0,-3.0L2.5,-0.5"/>
                </g>
                <g id="arrowDown" xlink:href="#dirArrow" transform="rotate(180) translate(-30 -48)" onmousedown="handlePan(0,1)">
                  <use xlink:href="#rim" fill="#404040">
                        <set attributeName="fill" to="#808080" begin="arrowDown.mouseover" end="arrowDown.mouseout"/>
                  </use>
                  <path fill="none" stroke="white" stroke-width="1.5" d="M0,-3.0v7 M-2.5,-0.5L0,-3.0L2.5,-0.5"/>
                </g>
                <g id="arrowLeft" xlink:href="#dirArrow" transform="rotate(270) translate(-36 17)" onmousedown="handlePan(-1,0)">
                  <use xlink:href="#rim" fill="#404040">
                        <set attributeName="fill" to="#808080" begin="arrowLeft.mouseover" end="arrowLeft.mouseout"/>
                  </use>
                  <path fill="none" stroke="white" stroke-width="1.5" d="M0,-3.0v7 M-2.5,-0.5L0,-3.0L2.5,-0.5"/>
                </g>
        </g>
        <svg viewBox="0 0 15 15" width="100%" height="30px" preserveAspectRatio="xMaxYMin meet">
         <g id="arrow_out" transform="scale(0.3 0.3)">
          <a xlink:href="class_hydro_couple_1_1_spatio_temporal_1_1_i_time_polyhedral_surface_argument__inherit__graph_org.svg" target="_base">
           <rect id="button" ry="5" rx="5" y="6" x="6" height="38" width="38"
                fill="#f2f5e9" fill-opacity="0.5" stroke="#606060" stroke-width="1.0"/>
           <path id="arrow"
             d="M 11.500037,31.436501 C 11.940474,20.09759 22.043105,11.32322 32.158766,21.979434 L 37.068811,17.246167 C 37.068811,17.246167 37.088388,32 37.088388,32 L 22.160133,31.978069 C 22.160133,31.978069 26.997745,27.140456 26.997745,27.140456 C 18.528582,18.264221 13.291696,25.230495 11.500037,31.436501 z"
             style="fill:#404040;"/>
          </a>
         </g>
        </svg>
</svg>
