<?xml version="1.0" encoding="UTF-8" standalone="no"?>
<!DOCTYPE svg PUBLIC "-//W3C//DTD SVG 1.1//EN"
 "http://www.w3.org/Graphics/SVG/1.1/DTD/svg11.dtd">
<!-- Generated by graphviz version 2.38.0 (20140413.2041)
 -->
<!-- Title: HydroCouple::IQuantity Pages: 1 -->
<!--zoomable 509 -->
<svg id="main" version="1.1" xmlns="http://www.w3.org/2000/svg" xmlns:xlink="http://www.w3.org/1999/xlink" xml:space="preserve" onload="init(evt)">
<style type="text/css"><![CDATA[
.edge:hover path { stroke: red; }
.edge:hover polygon { stroke: red; fill: red; }
]]></style>
<script type="text/javascript"><![CDATA[
var edges = document.getElementsByTagName('g');
if (edges && edges.length) {
  for (var i=0;i<edges.length;i++) {
    if (edges[i].id.substr(0,4)=='edge') {
      edges[i].setAttribute('class','edge');
    }
  }
}
]]></script>
        <defs>
                <circle id="rim" cx="0" cy="0" r="7"/>
                <circle id="rim2" cx="0" cy="0" r="3.5"/>
                <g id="zoomPlus">
                        <use xlink:href="#rim" fill="#404040">
                                <set attributeName="fill" to="#808080" begin="zoomplus.mouseover" end="zoomplus.mouseout"/>
                        </use>
                        <path d="M-4,0h8M0,-4v8" fill="none" stroke="white" stroke-width="1.5" pointer-events="none"/>
                </g>
                <g id="zoomMin">
                        <use xlink:href="#rim" fill="#404040">
                                <set attributeName="fill" to="#808080" begin="zoomminus.mouseover" end="zoomminus.mouseout"/>
                        </use>
                        <path d="M-4,0h8" fill="none" stroke="white" stroke-width="1.5" pointer-events="none"/>
                </g>
                <g id="dirArrow">
                        <path fill="none" stroke="white" stroke-width="1.5" d="M0,-3.0v7 M-2.5,-0.5L0,-3.0L2.5,-0.5"/>
                </g>
               <g id="resetDef">
                       <use xlink:href="#rim2" fill="#404040">
                               <set attributeName="fill" to="#808080" begin="reset.mouseover" end="reset.mouseout"/>
                       </use>
               </g>
        </defs>

<script type="text/javascript">
var viewWidth = 198;
var viewHeight = 509;
var sectionId = 'dynsection-1';
</script>
<script xlink:href="svgpan.js"/>
<svg id="graph" class="graph">
<g id="viewport">
<title>HydroCouple::IQuantity</title>
<!-- Node1 -->
<g id="node1" class="node"><title>Node1</title>
<polygon fill="#bfbfbf" stroke="black" points="21.0034,-0.5 21.0034,-104.51 169.025,-104.51 169.025,-0.5 21.0034,-0.5"/>
<text text-anchor="middle" x="95.0142" y="-92.5098" font-family="Monaco" font-size="10.00">HydroCouple::IQuantity</text>
<polyline fill="none" stroke="black" points="21.0034,-83.1748 169.025,-83.1748 "/>
<text text-anchor="middle" x="95.0142" y="-71.1748" font-family="Monaco" font-size="10.00"> </text>
<polyline fill="none" stroke="black" points="21.0034,-61.8398 169.025,-61.8398 "/>
<text text-anchor="start" x="29.0034" y="-49.8398" font-family="Monaco" font-size="10.00">+ ~IQuantity()</text>
<text text-anchor="start" x="29.0034" y="-36.5049" font-family="Monaco" font-size="10.00">+ unit()</text>
<text text-anchor="start" x="29.0034" y="-23.1699" font-family="Monaco" font-size="10.00">+ minValue()</text>
<text text-anchor="start" x="29.0034" y="-9.83496" font-family="Monaco" font-size="10.00">+ maxValue()</text>
</g>
<!-- Node2 -->
<g id="node2" class="node"><title>Node2</title>
<g id="a_node2"><a xlink:href="class_hydro_couple_1_1_i_value_definition.html" target="_top" xlink:title="IValueDefinition describes a value returned by the getValues() function of IValueSet. ">
<polygon fill="none" stroke="black" points="0,-141.51 0,-245.52 190.028,-245.52 190.028,-141.51 0,-141.51"/>
<text text-anchor="middle" x="95.0142" y="-233.52" font-family="Monaco" font-size="10.00">HydroCouple::IValueDefinition</text>
<polyline fill="none" stroke="black" points="0,-224.185 190.028,-224.185 "/>
<text text-anchor="middle" x="95.0142" y="-212.185" font-family="Monaco" font-size="10.00"> </text>
<polyline fill="none" stroke="black" points="0,-202.85 190.028,-202.85 "/>
<text text-anchor="start" x="8" y="-190.85" font-family="Monaco" font-size="10.00">+ ~IValueDefinition()</text>
<text text-anchor="start" x="8" y="-177.515" font-family="Monaco" font-size="10.00">+ type()</text>
<text text-anchor="start" x="8" y="-164.18" font-family="Monaco" font-size="10.00">+ missingValue()</text>
<text text-anchor="start" x="8" y="-150.845" font-family="Monaco" font-size="10.00">+ defaultValue()</text>
</a>
</g>
</g>
<!-- Node2&#45;&gt;Node1 -->
<g id="edge1" class="edge"><title>Node2&#45;&gt;Node1</title>
<path fill="none" stroke="midnightblue" d="M95.0142,-130.951C95.0142,-122.169 95.0142,-113.215 95.0142,-104.661"/>
<polygon fill="none" stroke="midnightblue" points="91.5143,-131.147 95.0142,-141.147 98.5143,-131.148 91.5143,-131.147"/>
</g>
<!-- Node3 -->
<g id="node3" class="node"><title>Node3</title>
<g id="a_node3"><a xlink:href="class_hydro_couple_1_1_i_description.html" target="_top" xlink:title="IDescription interface class provides descriptive information on a HydroCouple object. ">
<polygon fill="none" stroke="black" points="12.002,-282.52 12.002,-399.864 178.026,-399.864 178.026,-282.52 12.002,-282.52"/>
<text text-anchor="middle" x="95.0142" y="-387.864" font-family="Monaco" font-size="10.00">HydroCouple::IDescription</text>
<polyline fill="none" stroke="black" points="12.002,-378.529 178.026,-378.529 "/>
<text text-anchor="middle" x="95.0142" y="-366.529" font-family="Monaco" font-size="10.00"> </text>
<polyline fill="none" stroke="black" points="12.002,-357.194 178.026,-357.194 "/>
<text text-anchor="start" x="20.002" y="-345.194" font-family="Monaco" font-size="10.00">+ ~IDescription()</text>
<text text-anchor="start" x="20.002" y="-331.859" font-family="Monaco" font-size="10.00">+ caption()</text>
<text text-anchor="start" x="20.002" y="-318.524" font-family="Monaco" font-size="10.00">+ setCaption()</text>
<text text-anchor="start" x="20.002" y="-305.189" font-family="Monaco" font-size="10.00">+ description()</text>
<text text-anchor="start" x="20.002" y="-291.854" font-family="Monaco" font-size="10.00">+ setDescription()</text>
</a>
</g>
</g>
<!-- Node3&#45;&gt;Node2 -->
<g id="edge2" class="edge"><title>Node3&#45;&gt;Node2</title>
<path fill="none" stroke="midnightblue" d="M95.0142,-271.918C95.0142,-263.1 95.0142,-254.193 95.0142,-245.715"/>
<polygon fill="none" stroke="midnightblue" points="91.5143,-272.198 95.0142,-282.198 98.5143,-272.198 91.5143,-272.198"/>
</g>
<!-- Node4 -->
<g id="node4" class="node"><title>Node4</title>
<g id="a_node4"><a xlink:href="class_hydro_couple_1_1_i_property_changed.html" target="_top" xlink:title="IPropertyChanged interface is used to emit signal/event when a property of an object changes...">
<polygon fill="none" stroke="black" points="0,-436.864 0,-500.869 190.028,-500.869 190.028,-436.864 0,-436.864"/>
<text text-anchor="middle" x="95.0142" y="-488.869" font-family="Monaco" font-size="10.00">HydroCouple::IPropertyChanged</text>
<polyline fill="none" stroke="black" points="0,-479.534 190.028,-479.534 "/>
<text text-anchor="middle" x="95.0142" y="-467.534" font-family="Monaco" font-size="10.00"> </text>
<polyline fill="none" stroke="black" points="0,-458.199 190.028,-458.199 "/>
<text text-anchor="start" x="8" y="-446.199" font-family="Monaco" font-size="10.00">+ ~IPropertyChanged()</text>
</a>
</g>
</g>
<!-- Node4&#45;&gt;Node3 -->
<g id="edge3" class="edge"><title>Node4&#45;&gt;Node3</title>
<path fill="none" stroke="midnightblue" d="M95.0142,-426.544C95.0142,-418.159 95.0142,-409.192 95.0142,-400.35"/>
<polygon fill="none" stroke="midnightblue" points="91.5143,-426.801 95.0142,-436.801 98.5143,-426.801 91.5143,-426.801"/>
</g>
</g>
</svg>
        <g id="navigator" transform="translate(0 0)" fill="#404254">
                <rect fill="#f2f5e9" fill-opacity="0.5" stroke="#606060" stroke-width=".5" x="0" y="0" width="60" height="60"/>
                <use id="zoomplus" xlink:href="#zoomPlus" x="17" y="9" onmousedown="handleZoom(evt,'in')"/>
                <use id="zoomminus" xlink:href="#zoomMin" x="42" y="9" onmousedown="handleZoom(evt,'out')"/>
                <use id="reset" xlink:href="#resetDef" x="30" y="36" onmousedown="handleReset()"/>
                <g id="arrowUp" xlink:href="#dirArrow" transform="translate(30 24)" onmousedown="handlePan(0,-1)">
                  <use xlink:href="#rim" fill="#404040">
                        <set attributeName="fill" to="#808080" begin="arrowUp.mouseover" end="arrowUp.mouseout"/>
                  </use>
                  <path fill="none" stroke="white" stroke-width="1.5" d="M0,-3.0v7 M-2.5,-0.5L0,-3.0L2.5,-0.5"/>
                </g>
                <g id="arrowRight" xlink:href="#dirArrow" transform="rotate(90) translate(36 -43)" onmousedown="handlePan(1,0)">
                  <use xlink:href="#rim" fill="#404040">
                        <set attributeName="fill" to="#808080" begin="arrowRight.mouseover" end="arrowRight.mouseout"/>
                  </use>
                  <path fill="none" stroke="white" stroke-width="1.5" d="M0,-3.0v7 M-2.5,-0.5L0,-3.0L2.5,-0.5"/>
                </g>
                <g id="arrowDown" xlink:href="#dirArrow" transform="rotate(180) translate(-30 -48)" onmousedown="handlePan(0,1)">
                  <use xlink:href="#rim" fill="#404040">
                        <set attributeName="fill" to="#808080" begin="arrowDown.mouseover" end="arrowDown.mouseout"/>
                  </use>
                  <path fill="none" stroke="white" stroke-width="1.5" d="M0,-3.0v7 M-2.5,-0.5L0,-3.0L2.5,-0.5"/>
                </g>
                <g id="arrowLeft" xlink:href="#dirArrow" transform="rotate(270) translate(-36 17)" onmousedown="handlePan(-1,0)">
                  <use xlink:href="#rim" fill="#404040">
                        <set attributeName="fill" to="#808080" begin="arrowLeft.mouseover" end="arrowLeft.mouseout"/>
                  </use>
                  <path fill="none" stroke="white" stroke-width="1.5" d="M0,-3.0v7 M-2.5,-0.5L0,-3.0L2.5,-0.5"/>
                </g>
        </g>
        <svg viewBox="0 0 15 15" width="100%" height="30px" preserveAspectRatio="xMaxYMin meet">
         <g id="arrow_out" transform="scale(0.3 0.3)">
          <a xlink:href="class_hydro_couple_1_1_i_quantity__coll__graph_org.svg" target="_base">
           <rect id="button" ry="5" rx="5" y="6" x="6" height="38" width="38"
                fill="#f2f5e9" fill-opacity="0.5" stroke="#606060" stroke-width="1.0"/>
           <path id="arrow"
             d="M 11.500037,31.436501 C 11.940474,20.09759 22.043105,11.32322 32.158766,21.979434 L 37.068811,17.246167 C 37.068811,17.246167 37.088388,32 37.088388,32 L 22.160133,31.978069 C 22.160133,31.978069 26.997745,27.140456 26.997745,27.140456 C 18.528582,18.264221 13.291696,25.230495 11.500037,31.436501 z"
             style="fill:#404040;"/>
          </a>
         </g>
        </svg>
</svg>
