<?xml version="1.0" encoding="UTF-8" standalone="no"?>
<!DOCTYPE svg PUBLIC "-//W3C//DTD SVG 1.1//EN"
 "http://www.w3.org/Graphics/SVG/1.1/DTD/svg11.dtd">
<!-- Generated by graphviz version 2.38.0 (20140413.2041)
 -->
<!-- Title: HydroCouple::IArgument Pages: 1 -->
<svg width="210pt" height="784pt"
 viewBox="0.00 0.00 210.03 783.73" xmlns="http://www.w3.org/2000/svg" xmlns:xlink="http://www.w3.org/1999/xlink">
<g id="graph0" class="graph" transform="scale(1 1) rotate(0) translate(4 779.729)">
<title>HydroCouple::IArgument</title>
<!-- Node1 -->
<g id="node1" class="node"><title>Node1</title>
<polygon fill="#bfbfbf" stroke="black" points="18.0029,-0.5 18.0029,-184.52 184.027,-184.52 184.027,-0.5 18.0029,-0.5"/>
<text text-anchor="middle" x="101.015" y="-172.52" font-family="Monaco" font-size="10.00">HydroCouple::IArgument</text>
<polyline fill="none" stroke="black" points="18.0029,-163.185 184.027,-163.185 "/>
<text text-anchor="middle" x="101.015" y="-151.185" font-family="Monaco" font-size="10.00"> </text>
<polyline fill="none" stroke="black" points="18.0029,-141.85 184.027,-141.85 "/>
<text text-anchor="start" x="26.0029" y="-129.85" font-family="Monaco" font-size="10.00">+ ~IArgument()</text>
<text text-anchor="start" x="26.0029" y="-116.515" font-family="Monaco" font-size="10.00">+ isOptional()</text>
<text text-anchor="start" x="26.0029" y="-103.18" font-family="Monaco" font-size="10.00">+ isReadOnly()</text>
<text text-anchor="start" x="26.0029" y="-89.8447" font-family="Monaco" font-size="10.00">+ toString()</text>
<text text-anchor="start" x="26.0029" y="-76.5098" font-family="Monaco" font-size="10.00">+ inputFileTypeFilters()</text>
<text text-anchor="start" x="26.0029" y="-63.1748" font-family="Monaco" font-size="10.00">+ canReadFromFile()</text>
<text text-anchor="start" x="26.0029" y="-49.8398" font-family="Monaco" font-size="10.00">+ canReadFromString()</text>
<text text-anchor="start" x="26.0029" y="-36.5049" font-family="Monaco" font-size="10.00">+ currentArgumentIOType()</text>
<text text-anchor="start" x="26.0029" y="-23.1699" font-family="Monaco" font-size="10.00">+ readValues()</text>
<text text-anchor="start" x="26.0029" y="-9.83496" font-family="Monaco" font-size="10.00">+ readValues()</text>
</g>
<!-- Node2 -->
<g id="node2" class="node"><title>Node2</title>
<g id="a_node2"><a xlink:href="class_hydro_couple_1_1_i_component_data_item.html" target="_top" xlink:title="IComponentItem is a fundamental unit of data for a component. ">
<polygon fill="none" stroke="black" points="0,-221.52 0,-405.539 202.03,-405.539 202.03,-221.52 0,-221.52"/>
<text text-anchor="middle" x="101.015" y="-393.539" font-family="Monaco" font-size="10.00">HydroCouple::IComponentDataItem</text>
<polyline fill="none" stroke="black" points="0,-384.204 202.03,-384.204 "/>
<text text-anchor="middle" x="101.015" y="-372.204" font-family="Monaco" font-size="10.00"> </text>
<polyline fill="none" stroke="black" points="0,-362.869 202.03,-362.869 "/>
<text text-anchor="start" x="8" y="-350.869" font-family="Monaco" font-size="10.00">+ ~IComponentDataItem()</text>
<text text-anchor="start" x="8" y="-337.534" font-family="Monaco" font-size="10.00">+ modelComponent()</text>
<text text-anchor="start" x="8" y="-324.199" font-family="Monaco" font-size="10.00">+ dimensions()</text>
<text text-anchor="start" x="8" y="-310.864" font-family="Monaco" font-size="10.00">+ valueDefinition()</text>
<text text-anchor="start" x="8" y="-297.529" font-family="Monaco" font-size="10.00">+ getValue()</text>
<text text-anchor="start" x="8" y="-284.194" font-family="Monaco" font-size="10.00">+ getValues()</text>
<text text-anchor="start" x="8" y="-270.859" font-family="Monaco" font-size="10.00">+ getValues()</text>
<text text-anchor="start" x="8" y="-257.524" font-family="Monaco" font-size="10.00">+ setValue()</text>
<text text-anchor="start" x="8" y="-244.189" font-family="Monaco" font-size="10.00">+ setValues()</text>
<text text-anchor="start" x="8" y="-230.854" font-family="Monaco" font-size="10.00">+ setValues()</text>
</a>
</g>
</g>
<!-- Node2&#45;&gt;Node1 -->
<g id="edge1" class="edge"><title>Node2&#45;&gt;Node1</title>
<path fill="none" stroke="midnightblue" d="M101.015,-210.972C101.015,-202.194 101.015,-193.348 101.015,-184.66"/>
<polygon fill="none" stroke="midnightblue" points="97.5152,-211.231 101.015,-221.231 104.515,-211.231 97.5152,-211.231"/>
</g>
<!-- Node3 -->
<g id="node3" class="node"><title>Node3</title>
<g id="a_node3"><a xlink:href="class_hydro_couple_1_1_i_identity.html" target="_top" xlink:title="IIdentity interface class defines a method to get the Id of an HydroCouple entity. ">
<polygon fill="none" stroke="black" points="27.0044,-442.539 27.0044,-519.879 175.026,-519.879 175.026,-442.539 27.0044,-442.539"/>
<text text-anchor="middle" x="101.015" y="-507.879" font-family="Monaco" font-size="10.00">HydroCouple::IIdentity</text>
<polyline fill="none" stroke="black" points="27.0044,-498.544 175.026,-498.544 "/>
<text text-anchor="middle" x="101.015" y="-486.544" font-family="Monaco" font-size="10.00"> </text>
<polyline fill="none" stroke="black" points="27.0044,-477.209 175.026,-477.209 "/>
<text text-anchor="start" x="35.0044" y="-465.209" font-family="Monaco" font-size="10.00">+ ~IIdentity()</text>
<text text-anchor="start" x="35.0044" y="-451.874" font-family="Monaco" font-size="10.00">+ id()</text>
</a>
</g>
</g>
<!-- Node3&#45;&gt;Node2 -->
<g id="edge2" class="edge"><title>Node3&#45;&gt;Node2</title>
<path fill="none" stroke="midnightblue" d="M101.015,-431.957C101.015,-423.603 101.015,-414.678 101.015,-405.62"/>
<polygon fill="none" stroke="midnightblue" points="97.5152,-432.199 101.015,-442.199 104.515,-432.199 97.5152,-432.199"/>
</g>
<!-- Node4 -->
<g id="node4" class="node"><title>Node4</title>
<g id="a_node4"><a xlink:href="class_hydro_couple_1_1_i_description.html" target="_top" xlink:title="IDescription interface class provides descriptive information on a HydroCouple object. ">
<polygon fill="none" stroke="black" points="18.0029,-556.879 18.0029,-674.224 184.027,-674.224 184.027,-556.879 18.0029,-556.879"/>
<text text-anchor="middle" x="101.015" y="-662.224" font-family="Monaco" font-size="10.00">HydroCouple::IDescription</text>
<polyline fill="none" stroke="black" points="18.0029,-652.889 184.027,-652.889 "/>
<text text-anchor="middle" x="101.015" y="-640.889" font-family="Monaco" font-size="10.00"> </text>
<polyline fill="none" stroke="black" points="18.0029,-631.554 184.027,-631.554 "/>
<text text-anchor="start" x="26.0029" y="-619.554" font-family="Monaco" font-size="10.00">+ ~IDescription()</text>
<text text-anchor="start" x="26.0029" y="-606.219" font-family="Monaco" font-size="10.00">+ caption()</text>
<text text-anchor="start" x="26.0029" y="-592.884" font-family="Monaco" font-size="10.00">+ setCaption()</text>
<text text-anchor="start" x="26.0029" y="-579.549" font-family="Monaco" font-size="10.00">+ description()</text>
<text text-anchor="start" x="26.0029" y="-566.214" font-family="Monaco" font-size="10.00">+ setDescription()</text>
</a>
</g>
</g>
<!-- Node4&#45;&gt;Node3 -->
<g id="edge3" class="edge"><title>Node4&#45;&gt;Node3</title>
<path fill="none" stroke="midnightblue" d="M101.015,-546.313C101.015,-537.274 101.015,-528.287 101.015,-520.026"/>
<polygon fill="none" stroke="midnightblue" points="97.5152,-546.504 101.015,-556.504 104.515,-546.504 97.5152,-546.504"/>
</g>
<!-- Node5 -->
<g id="node5" class="node"><title>Node5</title>
<g id="a_node5"><a xlink:href="class_hydro_couple_1_1_i_property_changed.html" target="_top" xlink:title="IPropertyChanged interface is used to emit signal/event when a property of an object changes...">
<polygon fill="none" stroke="black" points="6.00098,-711.224 6.00098,-775.229 196.029,-775.229 196.029,-711.224 6.00098,-711.224"/>
<text text-anchor="middle" x="101.015" y="-763.229" font-family="Monaco" font-size="10.00">HydroCouple::IPropertyChanged</text>
<polyline fill="none" stroke="black" points="6.00098,-753.894 196.029,-753.894 "/>
<text text-anchor="middle" x="101.015" y="-741.894" font-family="Monaco" font-size="10.00"> </text>
<polyline fill="none" stroke="black" points="6.00098,-732.559 196.029,-732.559 "/>
<text text-anchor="start" x="14.001" y="-720.559" font-family="Monaco" font-size="10.00">+ ~IPropertyChanged()</text>
</a>
</g>
</g>
<!-- Node5&#45;&gt;Node4 -->
<g id="edge4" class="edge"><title>Node5&#45;&gt;Node4</title>
<path fill="none" stroke="midnightblue" d="M101.015,-700.903C101.015,-692.518 101.015,-683.552 101.015,-674.71"/>
<polygon fill="none" stroke="midnightblue" points="97.5152,-701.16 101.015,-711.16 104.515,-701.16 97.5152,-701.16"/>
</g>
</g>
</svg>
