<?xml version="1.0" encoding="UTF-8" standalone="no"?>
<!DOCTYPE svg PUBLIC "-//W3C//DTD SVG 1.1//EN"
 "http://www.w3.org/Graphics/SVG/1.1/DTD/svg11.dtd">
<!-- Generated by graphviz version 2.38.0 (20140413.2041)
 -->
<!-- Title: HydroCouple::SpatioTemporal::ITimeGeometryArgument Pages: 1 -->
<!--zoomable 1092 -->
<svg id="main" version="1.1" xmlns="http://www.w3.org/2000/svg" xmlns:xlink="http://www.w3.org/1999/xlink" xml:space="preserve" onload="init(evt)">
<style type="text/css"><![CDATA[
.edge:hover path { stroke: red; }
.edge:hover polygon { stroke: red; fill: red; }
]]></style>
<script type="text/javascript"><![CDATA[
var edges = document.getElementsByTagName('g');
if (edges && edges.length) {
  for (var i=0;i<edges.length;i++) {
    if (edges[i].id.substr(0,4)=='edge') {
      edges[i].setAttribute('class','edge');
    }
  }
}
]]></script>
        <defs>
                <circle id="rim" cx="0" cy="0" r="7"/>
                <circle id="rim2" cx="0" cy="0" r="3.5"/>
                <g id="zoomPlus">
                        <use xlink:href="#rim" fill="#404040">
                                <set attributeName="fill" to="#808080" begin="zoomplus.mouseover" end="zoomplus.mouseout"/>
                        </use>
                        <path d="M-4,0h8M0,-4v8" fill="none" stroke="white" stroke-width="1.5" pointer-events="none"/>
                </g>
                <g id="zoomMin">
                        <use xlink:href="#rim" fill="#404040">
                                <set attributeName="fill" to="#808080" begin="zoomminus.mouseover" end="zoomminus.mouseout"/>
                        </use>
                        <path d="M-4,0h8" fill="none" stroke="white" stroke-width="1.5" pointer-events="none"/>
                </g>
                <g id="dirArrow">
                        <path fill="none" stroke="white" stroke-width="1.5" d="M0,-3.0v7 M-2.5,-0.5L0,-3.0L2.5,-0.5"/>
                </g>
               <g id="resetDef">
                       <use xlink:href="#rim2" fill="#404040">
                               <set attributeName="fill" to="#808080" begin="reset.mouseover" end="reset.mouseout"/>
                       </use>
               </g>
        </defs>

<script type="text/javascript">
var viewWidth = 592;
var viewHeight = 1092;
var sectionId = 'dynsection-0';
</script>
<script xlink:href="svgpan.js"/>
<svg id="graph" class="graph">
<g id="viewport">
<title>HydroCouple::SpatioTemporal::ITimeGeometryArgument</title>
<!-- Node1 -->
<g id="node1" class="node"><title>Node1</title>
<polygon fill="#bfbfbf" stroke="black" points="226.004,-0.5 226.004,-77.8398 404.03,-77.8398 404.03,-0.5 226.004,-0.5"/>
<text text-anchor="start" x="234.004" y="-65.8398" font-family="Monaco" font-size="10.00">HydroCouple::SpatioTemporal</text>
<text text-anchor="middle" x="315.017" y="-52.5049" font-family="Monaco" font-size="10.00">::ITimeGeometryArgument</text>
<polyline fill="none" stroke="black" points="226.004,-43.1699 404.03,-43.1699 "/>
<text text-anchor="middle" x="315.017" y="-31.1699" font-family="Monaco" font-size="10.00"> </text>
<polyline fill="none" stroke="black" points="226.004,-21.835 404.03,-21.835 "/>
<text text-anchor="start" x="234.004" y="-9.83496" font-family="Monaco" font-size="10.00">+ ~ITimeGeometryArgument()</text>
</g>
<!-- Node2 -->
<g id="node2" class="node"><title>Node2</title>
<g id="a_node2"><a xlink:href="class_hydro_couple_1_1_spatio_temporal_1_1_i_time_geometry_component_data_item.html" target="_top" xlink:title="ITimeGeometryComponentItem represents an IComponentItem with both temporal and geometric components...">
<polygon fill="none" stroke="black" points="0,-114.84 0,-272.189 226.034,-272.189 226.034,-114.84 0,-114.84"/>
<text text-anchor="start" x="8" y="-260.189" font-family="Monaco" font-size="10.00">HydroCouple::SpatioTemporal</text>
<text text-anchor="middle" x="113.017" y="-246.854" font-family="Monaco" font-size="10.00">::ITimeGeometryComponentDataItem</text>
<polyline fill="none" stroke="black" points="0,-237.52 226.034,-237.52 "/>
<text text-anchor="middle" x="113.017" y="-225.52" font-family="Monaco" font-size="10.00"> </text>
<polyline fill="none" stroke="black" points="0,-216.185 226.034,-216.185 "/>
<text text-anchor="start" x="8" y="-204.185" font-family="Monaco" font-size="10.00">+ ~ITimeGeometryComponentDataItem()</text>
<text text-anchor="start" x="8" y="-190.85" font-family="Monaco" font-size="10.00">+ getValue()</text>
<text text-anchor="start" x="8" y="-177.515" font-family="Monaco" font-size="10.00">+ getValues()</text>
<text text-anchor="start" x="8" y="-164.18" font-family="Monaco" font-size="10.00">+ getValues()</text>
<text text-anchor="start" x="8" y="-150.845" font-family="Monaco" font-size="10.00">+ setValue()</text>
<text text-anchor="start" x="8" y="-137.51" font-family="Monaco" font-size="10.00">+ setValues()</text>
<text text-anchor="start" x="8" y="-124.175" font-family="Monaco" font-size="10.00">+ setValues()</text>
</a>
</g>
</g>
<!-- Node2&#45;&gt;Node1 -->
<g id="edge1" class="edge"><title>Node2&#45;&gt;Node1</title>
<path fill="none" stroke="midnightblue" d="M224.451,-108.473C238.615,-97.7909 252.502,-87.3174 264.983,-77.905"/>
<polygon fill="none" stroke="midnightblue" points="221.965,-105.964 216.088,-114.78 226.18,-111.553 221.965,-105.964"/>
</g>
<!-- Node3 -->
<g id="node3" class="node"><title>Node3</title>
<g id="a_node3"><a xlink:href="class_hydro_couple_1_1_temporal_1_1_i_time_component_data_item.html" target="_top" xlink:title="ITimeComponentItem is an IComponentItem with a temporal attribute. This class cannot be directly inst...">
<polygon fill="none" stroke="black" points="2.00391,-342.527 2.00391,-459.872 180.03,-459.872 180.03,-342.527 2.00391,-342.527"/>
<text text-anchor="start" x="10.0039" y="-447.872" font-family="Monaco" font-size="10.00">HydroCouple::Temporal</text>
<text text-anchor="middle" x="91.0171" y="-434.537" font-family="Monaco" font-size="10.00">::ITimeComponentDataItem</text>
<polyline fill="none" stroke="black" points="2.00391,-425.202 180.03,-425.202 "/>
<text text-anchor="middle" x="91.0171" y="-413.202" font-family="Monaco" font-size="10.00"> </text>
<polyline fill="none" stroke="black" points="2.00391,-403.867 180.03,-403.867 "/>
<text text-anchor="start" x="10.0039" y="-391.867" font-family="Monaco" font-size="10.00">+ ~ITimeComponentDataItem()</text>
<text text-anchor="start" x="10.0039" y="-378.532" font-family="Monaco" font-size="10.00">+ times()</text>
<text text-anchor="start" x="10.0039" y="-365.197" font-family="Monaco" font-size="10.00">+ timeSpan()</text>
<text text-anchor="start" x="10.0039" y="-351.862" font-family="Monaco" font-size="10.00">+ timeDimension()</text>
</a>
</g>
</g>
<!-- Node3&#45;&gt;Node2 -->
<g id="edge2" class="edge"><title>Node3&#45;&gt;Node2</title>
<path fill="none" stroke="midnightblue" d="M98.2898,-332.205C100.343,-313.011 102.592,-291.982 104.701,-272.263"/>
<polygon fill="none" stroke="midnightblue" points="94.7873,-332.042 97.2039,-342.357 101.748,-332.786 94.7873,-332.042"/>
</g>
<!-- Node9 -->
<g id="node9" class="node"><title>Node9</title>
<g id="a_node9"><a xlink:href="class_hydro_couple_1_1_temporal_1_1_i_time_argument.html" target="_top" xlink:title="The ITimeArgument class. his class cannot be directly instantiated and must be implemented as as an a...">
<polygon fill="none" stroke="black" points="244.007,-154.845 244.007,-232.185 386.027,-232.185 386.027,-154.845 244.007,-154.845"/>
<text text-anchor="start" x="252.007" y="-220.185" font-family="Monaco" font-size="10.00">HydroCouple::Temporal</text>
<text text-anchor="middle" x="315.017" y="-206.85" font-family="Monaco" font-size="10.00">::ITimeArgument</text>
<polyline fill="none" stroke="black" points="244.007,-197.515 386.027,-197.515 "/>
<text text-anchor="middle" x="315.017" y="-185.515" font-family="Monaco" font-size="10.00"> </text>
<polyline fill="none" stroke="black" points="244.007,-176.18 386.027,-176.18 "/>
<text text-anchor="start" x="252.007" y="-164.18" font-family="Monaco" font-size="10.00">+ ~ITimeArgument()</text>
</a>
</g>
</g>
<!-- Node3&#45;&gt;Node9 -->
<g id="edge12" class="edge"><title>Node3&#45;&gt;Node9</title>
<path fill="none" stroke="midnightblue" d="M158.766,-335.513C168.783,-326.367 179.079,-317.19 189.017,-308.689 208.745,-291.814 215.482,-289.787 235.017,-272.689 249.484,-260.028 264.725,-245.468 277.979,-232.372"/>
<polygon fill="none" stroke="midnightblue" points="156.167,-333.148 151.169,-342.49 160.902,-338.304 156.167,-333.148"/>
</g>
<!-- Node4 -->
<g id="node4" class="node"><title>Node4</title>
<g id="a_node4"><a xlink:href="class_hydro_couple_1_1_i_component_data_item.html" target="_top" xlink:title="IComponentItem is a fundamental unit of data for a component. ">
<polygon fill="none" stroke="black" points="198.002,-530.209 198.002,-714.229 400.032,-714.229 400.032,-530.209 198.002,-530.209"/>
<text text-anchor="middle" x="299.017" y="-702.229" font-family="Monaco" font-size="10.00">HydroCouple::IComponentDataItem</text>
<polyline fill="none" stroke="black" points="198.002,-692.894 400.032,-692.894 "/>
<text text-anchor="middle" x="299.017" y="-680.894" font-family="Monaco" font-size="10.00"> </text>
<polyline fill="none" stroke="black" points="198.002,-671.559 400.032,-671.559 "/>
<text text-anchor="start" x="206.002" y="-659.559" font-family="Monaco" font-size="10.00">+ ~IComponentDataItem()</text>
<text text-anchor="start" x="206.002" y="-646.224" font-family="Monaco" font-size="10.00">+ modelComponent()</text>
<text text-anchor="start" x="206.002" y="-632.889" font-family="Monaco" font-size="10.00">+ dimensions()</text>
<text text-anchor="start" x="206.002" y="-619.554" font-family="Monaco" font-size="10.00">+ valueDefinition()</text>
<text text-anchor="start" x="206.002" y="-606.219" font-family="Monaco" font-size="10.00">+ getValue()</text>
<text text-anchor="start" x="206.002" y="-592.884" font-family="Monaco" font-size="10.00">+ getValues()</text>
<text text-anchor="start" x="206.002" y="-579.549" font-family="Monaco" font-size="10.00">+ getValues()</text>
<text text-anchor="start" x="206.002" y="-566.214" font-family="Monaco" font-size="10.00">+ setValue()</text>
<text text-anchor="start" x="206.002" y="-552.879" font-family="Monaco" font-size="10.00">+ setValues()</text>
<text text-anchor="start" x="206.002" y="-539.544" font-family="Monaco" font-size="10.00">+ setValues()</text>
</a>
</g>
</g>
<!-- Node4&#45;&gt;Node3 -->
<g id="edge3" class="edge"><title>Node4&#45;&gt;Node3</title>
<path fill="none" stroke="midnightblue" d="M205.422,-522.665C185.029,-501.192 164.098,-479.152 145.806,-459.891"/>
<polygon fill="none" stroke="midnightblue" points="202.888,-525.08 212.313,-529.921 207.964,-520.259 202.888,-525.08"/>
</g>
<!-- Node8 -->
<g id="node8" class="node"><title>Node8</title>
<g id="a_node8"><a xlink:href="class_hydro_couple_1_1_spatial_1_1_i_geometry_component_data_item.html" target="_top" xlink:title="IGeometryComponentItem represents IGeometryCollection IComponentItem. This class must be implemented ...">
<polygon fill="none" stroke="black" points="198.002,-342.527 198.002,-459.872 400.032,-459.872 400.032,-342.527 198.002,-342.527"/>
<text text-anchor="start" x="206.002" y="-447.872" font-family="Monaco" font-size="10.00">HydroCouple::Spatial</text>
<text text-anchor="middle" x="299.017" y="-434.537" font-family="Monaco" font-size="10.00">::IGeometryComponentDataItem</text>
<polyline fill="none" stroke="black" points="198.002,-425.202 400.032,-425.202 "/>
<text text-anchor="middle" x="299.017" y="-413.202" font-family="Monaco" font-size="10.00"> </text>
<polyline fill="none" stroke="black" points="198.002,-403.867 400.032,-403.867 "/>
<text text-anchor="start" x="206.002" y="-391.867" font-family="Monaco" font-size="10.00">+ ~IGeometryComponentDataItem()</text>
<text text-anchor="start" x="206.002" y="-378.532" font-family="Monaco" font-size="10.00">+ geometryCollection()</text>
<text text-anchor="start" x="206.002" y="-365.197" font-family="Monaco" font-size="10.00">+ geometry()</text>
<text text-anchor="start" x="206.002" y="-351.862" font-family="Monaco" font-size="10.00">+ geometryDimension()</text>
</a>
</g>
</g>
<!-- Node4&#45;&gt;Node8 -->
<g id="edge8" class="edge"><title>Node4&#45;&gt;Node8</title>
<path fill="none" stroke="midnightblue" d="M299.017,-519.861C299.017,-499.281 299.017,-478.314 299.017,-459.891"/>
<polygon fill="none" stroke="midnightblue" points="295.517,-519.921 299.017,-529.921 302.517,-519.921 295.517,-519.921"/>
</g>
<!-- Node10 -->
<g id="node10" class="node"><title>Node10</title>
<g id="a_node10"><a xlink:href="class_hydro_couple_1_1_i_argument.html" target="_top" xlink:title="IArgument interface class used to set the arguments for components. They can be complex or simple mul...">
<polygon fill="none" stroke="black" points="418.005,-309.189 418.005,-493.209 584.029,-493.209 584.029,-309.189 418.005,-309.189"/>
<text text-anchor="middle" x="501.017" y="-481.209" font-family="Monaco" font-size="10.00">HydroCouple::IArgument</text>
<polyline fill="none" stroke="black" points="418.005,-471.874 584.029,-471.874 "/>
<text text-anchor="middle" x="501.017" y="-459.874" font-family="Monaco" font-size="10.00"> </text>
<polyline fill="none" stroke="black" points="418.005,-450.539 584.029,-450.539 "/>
<text text-anchor="start" x="426.005" y="-438.539" font-family="Monaco" font-size="10.00">+ ~IArgument()</text>
<text text-anchor="start" x="426.005" y="-425.204" font-family="Monaco" font-size="10.00">+ isOptional()</text>
<text text-anchor="start" x="426.005" y="-411.869" font-family="Monaco" font-size="10.00">+ isReadOnly()</text>
<text text-anchor="start" x="426.005" y="-398.534" font-family="Monaco" font-size="10.00">+ toString()</text>
<text text-anchor="start" x="426.005" y="-385.199" font-family="Monaco" font-size="10.00">+ inputFileTypeFilters()</text>
<text text-anchor="start" x="426.005" y="-371.864" font-family="Monaco" font-size="10.00">+ canReadFromFile()</text>
<text text-anchor="start" x="426.005" y="-358.529" font-family="Monaco" font-size="10.00">+ canReadFromString()</text>
<text text-anchor="start" x="426.005" y="-345.194" font-family="Monaco" font-size="10.00">+ currentArgumentIOType()</text>
<text text-anchor="start" x="426.005" y="-331.859" font-family="Monaco" font-size="10.00">+ readValues()</text>
<text text-anchor="start" x="426.005" y="-318.524" font-family="Monaco" font-size="10.00">+ readValues()</text>
</a>
</g>
</g>
<!-- Node4&#45;&gt;Node10 -->
<g id="edge11" class="edge"><title>Node4&#45;&gt;Node10</title>
<path fill="none" stroke="midnightblue" d="M390.245,-522.305C399.465,-512.307 408.795,-502.191 417.923,-492.294"/>
<polygon fill="none" stroke="midnightblue" points="387.427,-520.197 383.221,-529.921 392.573,-524.943 387.427,-520.197"/>
</g>
<!-- Node5 -->
<g id="node5" class="node"><title>Node5</title>
<g id="a_node5"><a xlink:href="class_hydro_couple_1_1_i_identity.html" target="_top" xlink:title="IIdentity interface class defines a method to get the Id of an HydroCouple entity. ">
<polygon fill="none" stroke="black" points="225.006,-751.229 225.006,-828.568 373.028,-828.568 373.028,-751.229 225.006,-751.229"/>
<text text-anchor="middle" x="299.017" y="-816.568" font-family="Monaco" font-size="10.00">HydroCouple::IIdentity</text>
<polyline fill="none" stroke="black" points="225.006,-807.233 373.028,-807.233 "/>
<text text-anchor="middle" x="299.017" y="-795.233" font-family="Monaco" font-size="10.00"> </text>
<polyline fill="none" stroke="black" points="225.006,-785.898 373.028,-785.898 "/>
<text text-anchor="start" x="233.006" y="-773.898" font-family="Monaco" font-size="10.00">+ ~IIdentity()</text>
<text text-anchor="start" x="233.006" y="-760.563" font-family="Monaco" font-size="10.00">+ id()</text>
</a>
</g>
</g>
<!-- Node5&#45;&gt;Node4 -->
<g id="edge4" class="edge"><title>Node5&#45;&gt;Node4</title>
<path fill="none" stroke="midnightblue" d="M299.017,-740.646C299.017,-732.293 299.017,-723.368 299.017,-714.309"/>
<polygon fill="none" stroke="midnightblue" points="295.517,-740.888 299.017,-750.888 302.517,-740.888 295.517,-740.888"/>
</g>
<!-- Node6 -->
<g id="node6" class="node"><title>Node6</title>
<g id="a_node6"><a xlink:href="class_hydro_couple_1_1_i_description.html" target="_top" xlink:title="IDescription interface class provides descriptive information on a HydroCouple object. ">
<polygon fill="none" stroke="black" points="216.005,-865.568 216.005,-982.913 382.029,-982.913 382.029,-865.568 216.005,-865.568"/>
<text text-anchor="middle" x="299.017" y="-970.913" font-family="Monaco" font-size="10.00">HydroCouple::IDescription</text>
<polyline fill="none" stroke="black" points="216.005,-961.578 382.029,-961.578 "/>
<text text-anchor="middle" x="299.017" y="-949.578" font-family="Monaco" font-size="10.00"> </text>
<polyline fill="none" stroke="black" points="216.005,-940.243 382.029,-940.243 "/>
<text text-anchor="start" x="224.005" y="-928.243" font-family="Monaco" font-size="10.00">+ ~IDescription()</text>
<text text-anchor="start" x="224.005" y="-914.908" font-family="Monaco" font-size="10.00">+ caption()</text>
<text text-anchor="start" x="224.005" y="-901.573" font-family="Monaco" font-size="10.00">+ setCaption()</text>
<text text-anchor="start" x="224.005" y="-888.238" font-family="Monaco" font-size="10.00">+ description()</text>
<text text-anchor="start" x="224.005" y="-874.903" font-family="Monaco" font-size="10.00">+ setDescription()</text>
</a>
</g>
</g>
<!-- Node6&#45;&gt;Node5 -->
<g id="edge5" class="edge"><title>Node6&#45;&gt;Node5</title>
<path fill="none" stroke="midnightblue" d="M299.017,-855.002C299.017,-845.964 299.017,-836.976 299.017,-828.716"/>
<polygon fill="none" stroke="midnightblue" points="295.517,-855.193 299.017,-865.193 302.517,-855.194 295.517,-855.193"/>
</g>
<!-- Node7 -->
<g id="node7" class="node"><title>Node7</title>
<g id="a_node7"><a xlink:href="class_hydro_couple_1_1_i_property_changed.html" target="_top" xlink:title="IPropertyChanged interface is used to emit signal/event when a property of an object changes...">
<polygon fill="none" stroke="black" points="204.003,-1019.91 204.003,-1083.92 394.031,-1083.92 394.031,-1019.91 204.003,-1019.91"/>
<text text-anchor="middle" x="299.017" y="-1071.92" font-family="Monaco" font-size="10.00">HydroCouple::IPropertyChanged</text>
<polyline fill="none" stroke="black" points="204.003,-1062.58 394.031,-1062.58 "/>
<text text-anchor="middle" x="299.017" y="-1050.58" font-family="Monaco" font-size="10.00"> </text>
<polyline fill="none" stroke="black" points="204.003,-1041.25 394.031,-1041.25 "/>
<text text-anchor="start" x="212.003" y="-1029.25" font-family="Monaco" font-size="10.00">+ ~IPropertyChanged()</text>
</a>
</g>
</g>
<!-- Node7&#45;&gt;Node6 -->
<g id="edge6" class="edge"><title>Node7&#45;&gt;Node6</title>
<path fill="none" stroke="midnightblue" d="M299.017,-1009.59C299.017,-1001.21 299.017,-992.241 299.017,-983.399"/>
<polygon fill="none" stroke="midnightblue" points="295.517,-1009.85 299.017,-1019.85 302.517,-1009.85 295.517,-1009.85"/>
</g>
<!-- Node8&#45;&gt;Node2 -->
<g id="edge7" class="edge"><title>Node8&#45;&gt;Node2</title>
<path fill="none" stroke="midnightblue" d="M239.919,-334.846C221.929,-314.953 201.978,-292.89 183.324,-272.263"/>
<polygon fill="none" stroke="midnightblue" points="237.407,-337.288 246.711,-342.357 242.599,-332.593 237.407,-337.288"/>
</g>
<!-- Node11 -->
<g id="node11" class="node"><title>Node11</title>
<g id="a_node11"><a xlink:href="class_hydro_couple_1_1_spatial_1_1_i_geometry_argument.html" target="_top" xlink:title="The IGeometryArgument class. ">
<polygon fill="none" stroke="black" points="404.006,-154.845 404.006,-232.185 552.028,-232.185 552.028,-154.845 404.006,-154.845"/>
<text text-anchor="start" x="412.006" y="-220.185" font-family="Monaco" font-size="10.00">HydroCouple::Spatial</text>
<text text-anchor="middle" x="478.017" y="-206.85" font-family="Monaco" font-size="10.00">::IGeometryArgument</text>
<polyline fill="none" stroke="black" points="404.006,-197.515 552.028,-197.515 "/>
<text text-anchor="middle" x="478.017" y="-185.515" font-family="Monaco" font-size="10.00"> </text>
<polyline fill="none" stroke="black" points="404.006,-176.18 552.028,-176.18 "/>
<text text-anchor="start" x="412.006" y="-164.18" font-family="Monaco" font-size="10.00">+ ~IGeometryArgument()</text>
</a>
</g>
</g>
<!-- Node8&#45;&gt;Node11 -->
<g id="edge15" class="edge"><title>Node8&#45;&gt;Node11</title>
<path fill="none" stroke="midnightblue" d="M356.288,-334.391C385.573,-300.739 420.172,-260.983 444.984,-232.473"/>
<polygon fill="none" stroke="midnightblue" points="353.28,-332.516 349.355,-342.357 358.56,-337.111 353.28,-332.516"/>
</g>
<!-- Node9&#45;&gt;Node1 -->
<g id="edge9" class="edge"><title>Node9&#45;&gt;Node1</title>
<path fill="none" stroke="midnightblue" d="M315.017,-144.266C315.017,-122.858 315.017,-98.0342 315.017,-77.9987"/>
<polygon fill="none" stroke="midnightblue" points="311.517,-144.465 315.017,-154.465 318.517,-144.465 311.517,-144.465"/>
</g>
<!-- Node10&#45;&gt;Node9 -->
<g id="edge10" class="edge"><title>Node10&#45;&gt;Node9</title>
<path fill="none" stroke="midnightblue" d="M411.715,-301.446C389.41,-276.78 366.82,-251.8 349.09,-232.194"/>
<polygon fill="none" stroke="midnightblue" points="409.319,-304.015 418.623,-309.085 414.511,-299.32 409.319,-304.015"/>
</g>
<!-- Node10&#45;&gt;Node11 -->
<g id="edge14" class="edge"><title>Node10&#45;&gt;Node11</title>
<path fill="none" stroke="midnightblue" d="M489.689,-298.894C487.024,-275.064 484.347,-251.124 482.23,-232.194"/>
<polygon fill="none" stroke="midnightblue" points="486.239,-299.536 490.829,-309.085 493.195,-298.758 486.239,-299.536"/>
</g>
<!-- Node11&#45;&gt;Node1 -->
<g id="edge13" class="edge"><title>Node11&#45;&gt;Node1</title>
<path fill="none" stroke="midnightblue" d="M430.486,-147.626C418.898,-136.715 406.525,-125.094 395.017,-114.34 382.286,-102.443 368.373,-89.518 355.773,-77.8403"/>
<polygon fill="none" stroke="midnightblue" points="428.292,-150.367 437.971,-154.677 433.092,-145.272 428.292,-150.367"/>
</g>
</g>
</svg>
        <g id="navigator" transform="translate(0 0)" fill="#404254">
                <rect fill="#f2f5e9" fill-opacity="0.5" stroke="#606060" stroke-width=".5" x="0" y="0" width="60" height="60"/>
                <use id="zoomplus" xlink:href="#zoomPlus" x="17" y="9" onmousedown="handleZoom(evt,'in')"/>
                <use id="zoomminus" xlink:href="#zoomMin" x="42" y="9" onmousedown="handleZoom(evt,'out')"/>
                <use id="reset" xlink:href="#resetDef" x="30" y="36" onmousedown="handleReset()"/>
                <g id="arrowUp" xlink:href="#dirArrow" transform="translate(30 24)" onmousedown="handlePan(0,-1)">
                  <use xlink:href="#rim" fill="#404040">
                        <set attributeName="fill" to="#808080" begin="arrowUp.mouseover" end="arrowUp.mouseout"/>
                  </use>
                  <path fill="none" stroke="white" stroke-width="1.5" d="M0,-3.0v7 M-2.5,-0.5L0,-3.0L2.5,-0.5"/>
                </g>
                <g id="arrowRight" xlink:href="#dirArrow" transform="rotate(90) translate(36 -43)" onmousedown="handlePan(1,0)">
                  <use xlink:href="#rim" fill="#404040">
                        <set attributeName="fill" to="#808080" begin="arrowRight.mouseover" end="arrowRight.mouseout"/>
                  </use>
                  <path fill="none" stroke="white" stroke-width="1.5" d="M0,-3.0v7 M-2.5,-0.5L0,-3.0L2.5,-0.5"/>
                </g>
                <g id="arrowDown" xlink:href="#dirArrow" transform="rotate(180) translate(-30 -48)" onmousedown="handlePan(0,1)">
                  <use xlink:href="#rim" fill="#404040">
                        <set attributeName="fill" to="#808080" begin="arrowDown.mouseover" end="arrowDown.mouseout"/>
                  </use>
                  <path fill="none" stroke="white" stroke-width="1.5" d="M0,-3.0v7 M-2.5,-0.5L0,-3.0L2.5,-0.5"/>
                </g>
                <g id="arrowLeft" xlink:href="#dirArrow" transform="rotate(270) translate(-36 17)" onmousedown="handlePan(-1,0)">
                  <use xlink:href="#rim" fill="#404040">
                        <set attributeName="fill" to="#808080" begin="arrowLeft.mouseover" end="arrowLeft.mouseout"/>
                  </use>
                  <path fill="none" stroke="white" stroke-width="1.5" d="M0,-3.0v7 M-2.5,-0.5L0,-3.0L2.5,-0.5"/>
                </g>
        </g>
        <svg viewBox="0 0 15 15" width="100%" height="30px" preserveAspectRatio="xMaxYMin meet">
         <g id="arrow_out" transform="scale(0.3 0.3)">
          <a xlink:href="class_hydro_couple_1_1_spatio_temporal_1_1_i_time_geometry_argument__inherit__graph_org.svg" target="_base">
           <rect id="button" ry="5" rx="5" y="6" x="6" height="38" width="38"
                fill="#f2f5e9" fill-opacity="0.5" stroke="#606060" stroke-width="1.0"/>
           <path id="arrow"
             d="M 11.500037,31.436501 C 11.940474,20.09759 22.043105,11.32322 32.158766,21.979434 L 37.068811,17.246167 C 37.068811,17.246167 37.088388,32 37.088388,32 L 22.160133,31.978069 C 22.160133,31.978069 26.997745,27.140456 26.997745,27.140456 C 18.528582,18.264221 13.291696,25.230495 11.500037,31.436501 z"
             style="fill:#404040;"/>
          </a>
         </g>
        </svg>
</svg>
