<?xml version="1.0" encoding="UTF-8" standalone="no"?>
<!DOCTYPE svg PUBLIC "-//W3C//DTD SVG 1.1//EN"
 "http://www.w3.org/Graphics/SVG/1.1/DTD/svg11.dtd">
<!-- Generated by graphviz version 2.38.0 (20140413.2041)
 -->
<!-- Title: HydroCouple::Spatial::I3DRegularGridArgument Pages: 1 -->
<!--zoomable 1127 -->
<svg id="main" version="1.1" xmlns="http://www.w3.org/2000/svg" xmlns:xlink="http://www.w3.org/1999/xlink" xml:space="preserve" onload="init(evt)">
<style type="text/css"><![CDATA[
.edge:hover path { stroke: red; }
.edge:hover polygon { stroke: red; fill: red; }
]]></style>
<script type="text/javascript"><![CDATA[
var edges = document.getElementsByTagName('g');
if (edges && edges.length) {
  for (var i=0;i<edges.length;i++) {
    if (edges[i].id.substr(0,4)=='edge') {
      edges[i].setAttribute('class','edge');
    }
  }
}
]]></script>
        <defs>
                <circle id="rim" cx="0" cy="0" r="7"/>
                <circle id="rim2" cx="0" cy="0" r="3.5"/>
                <g id="zoomPlus">
                        <use xlink:href="#rim" fill="#404040">
                                <set attributeName="fill" to="#808080" begin="zoomplus.mouseover" end="zoomplus.mouseout"/>
                        </use>
                        <path d="M-4,0h8M0,-4v8" fill="none" stroke="white" stroke-width="1.5" pointer-events="none"/>
                </g>
                <g id="zoomMin">
                        <use xlink:href="#rim" fill="#404040">
                                <set attributeName="fill" to="#808080" begin="zoomminus.mouseover" end="zoomminus.mouseout"/>
                        </use>
                        <path d="M-4,0h8" fill="none" stroke="white" stroke-width="1.5" pointer-events="none"/>
                </g>
                <g id="dirArrow">
                        <path fill="none" stroke="white" stroke-width="1.5" d="M0,-3.0v7 M-2.5,-0.5L0,-3.0L2.5,-0.5"/>
                </g>
               <g id="resetDef">
                       <use xlink:href="#rim2" fill="#404040">
                               <set attributeName="fill" to="#808080" begin="reset.mouseover" end="reset.mouseout"/>
                       </use>
               </g>
        </defs>

<script type="text/javascript">
var viewWidth = 382;
var viewHeight = 1127;
var sectionId = 'dynsection-0';
</script>
<script xlink:href="svgpan.js"/>
<svg id="graph" class="graph">
<g id="viewport">
<title>HydroCouple::Spatial::I3DRegularGridArgument</title>
<polygon fill="white" stroke="none" points="-4,4 -4,-1122.75 378.026,-1122.75 378.026,4 -4,4"/>
<!-- Node1 -->
<g id="node1" class="node"><title>Node1</title>
<polygon fill="#bfbfbf" stroke="black" points="82.9976,-114.84 82.9976,-205.515 261.024,-205.515 261.024,-114.84 82.9976,-114.84"/>
<text text-anchor="start" x="90.9976" y="-193.515" font-family="Monaco" font-size="10.00">HydroCouple::Spatial</text>
<text text-anchor="middle" x="172.011" y="-180.18" font-family="Monaco" font-size="10.00">::I3DRegularGridArgument</text>
<polyline fill="none" stroke="black" points="82.9976,-170.845 261.024,-170.845 "/>
<text text-anchor="middle" x="172.011" y="-158.845" font-family="Monaco" font-size="10.00"> </text>
<polyline fill="none" stroke="black" points="82.9976,-149.51 261.024,-149.51 "/>
<text text-anchor="start" x="90.9976" y="-137.51" font-family="Monaco" font-size="10.00">+ ~I3DRegularGridArgument()</text>
<text text-anchor="start" x="90.9976" y="-124.175" font-family="Monaco" font-size="10.00">+ setGrid()</text>
</g>
<!-- Node9 -->
<g id="node9" class="node"><title>Node9</title>
<g id="a_node9"><a xlink:href="class_hydro_couple_1_1_spatio_temporal_1_1_i_time3_d_regular_grid_argument.html" target="_top" xlink:title="The ITime3DRegularGridArgument class. ">
<polygon fill="white" stroke="black" points="70.9956,-0.5 70.9956,-77.8398 273.026,-77.8398 273.026,-0.5 70.9956,-0.5"/>
<text text-anchor="start" x="78.9956" y="-65.8398" font-family="Monaco" font-size="10.00">HydroCouple::SpatioTemporal</text>
<text text-anchor="middle" x="172.011" y="-52.5049" font-family="Monaco" font-size="10.00">::ITime3DRegularGridArgument</text>
<polyline fill="none" stroke="black" points="70.9956,-43.1699 273.026,-43.1699 "/>
<text text-anchor="middle" x="172.011" y="-31.1699" font-family="Monaco" font-size="10.00"> </text>
<polyline fill="none" stroke="black" points="70.9956,-21.835 273.026,-21.835 "/>
<text text-anchor="start" x="78.9956" y="-9.83496" font-family="Monaco" font-size="10.00">+ ~ITime3DRegularGridArgument()</text>
</a>
</g>
</g>
<!-- Node1&#45;&gt;Node9 -->
<g id="edge9" class="edge"><title>Node1&#45;&gt;Node9</title>
<path fill="none" stroke="midnightblue" d="M172.011,-104.24C172.011,-95.3846 172.011,-86.394 172.011,-78.0584"/>
<polygon fill="none" stroke="midnightblue" points="168.511,-104.525 172.011,-114.525 175.511,-104.525 168.511,-104.525"/>
</g>
<!-- Node2 -->
<g id="node2" class="node"><title>Node2</title>
<g id="a_node2"><a xlink:href="class_hydro_couple_1_1_i_argument.html" target="_top" xlink:title="IArgument interface class used to set the arguments for components. They can be complex or simple mul...">
<polygon fill="white" stroke="black" points="0,-242.515 0,-439.869 148.021,-439.869 148.021,-242.515 0,-242.515"/>
<text text-anchor="middle" x="74.0107" y="-427.869" font-family="Monaco" font-size="10.00">HydroCouple::IArgument</text>
<polyline fill="none" stroke="black" points="0,-418.534 148.021,-418.534 "/>
<text text-anchor="middle" x="74.0107" y="-406.534" font-family="Monaco" font-size="10.00"> </text>
<polyline fill="none" stroke="black" points="0,-397.199 148.021,-397.199 "/>
<text text-anchor="start" x="8" y="-385.199" font-family="Monaco" font-size="10.00">+ ~IArgument()</text>
<text text-anchor="start" x="8" y="-371.864" font-family="Monaco" font-size="10.00">+ isOptional()</text>
<text text-anchor="start" x="8" y="-358.529" font-family="Monaco" font-size="10.00">+ isReadOnly()</text>
<text text-anchor="start" x="8" y="-345.194" font-family="Monaco" font-size="10.00">+ clone()</text>
<text text-anchor="start" x="8" y="-331.859" font-family="Monaco" font-size="10.00">+ valueSets()</text>
<text text-anchor="start" x="8" y="-318.524" font-family="Monaco" font-size="10.00">+ toString()</text>
<text text-anchor="start" x="8" y="-305.189" font-family="Monaco" font-size="10.00">+ fileExtensions()</text>
<text text-anchor="start" x="8" y="-291.854" font-family="Monaco" font-size="10.00">+ canReadFromFile()</text>
<text text-anchor="start" x="8" y="-278.52" font-family="Monaco" font-size="10.00">+ canReadFromString()</text>
<text text-anchor="start" x="8" y="-265.185" font-family="Monaco" font-size="10.00">+ readValues()</text>
<text text-anchor="start" x="8" y="-251.85" font-family="Monaco" font-size="10.00">+ readValues()</text>
</a>
</g>
</g>
<!-- Node2&#45;&gt;Node1 -->
<g id="edge1" class="edge"><title>Node2&#45;&gt;Node1</title>
<path fill="none" stroke="midnightblue" d="M132.472,-233.402C137.74,-223.778 142.857,-214.432 147.566,-205.831"/>
<polygon fill="none" stroke="midnightblue" points="129.33,-231.852 127.599,-242.304 135.471,-235.213 129.33,-231.852"/>
</g>
<!-- Node3 -->
<g id="node3" class="node"><title>Node3</title>
<g id="a_node3"><a xlink:href="class_hydro_couple_1_1_i_component_item.html" target="_top" xlink:title="IComponentItem is a fundamental unit of data for a component. ">
<polygon fill="white" stroke="black" points="66.9976,-657.884 66.9976,-748.559 245.024,-748.559 245.024,-657.884 66.9976,-657.884"/>
<text text-anchor="middle" x="156.011" y="-736.559" font-family="Monaco" font-size="10.00">HydroCouple::IComponentItem</text>
<polyline fill="none" stroke="black" points="66.9976,-727.224 245.024,-727.224 "/>
<text text-anchor="middle" x="156.011" y="-715.224" font-family="Monaco" font-size="10.00"> </text>
<polyline fill="none" stroke="black" points="66.9976,-705.889 245.024,-705.889 "/>
<text text-anchor="start" x="74.9976" y="-693.889" font-family="Monaco" font-size="10.00">+ ~IComponentItem()</text>
<text text-anchor="start" x="74.9976" y="-680.554" font-family="Monaco" font-size="10.00">+ modelComponent()</text>
<text text-anchor="start" x="74.9976" y="-667.219" font-family="Monaco" font-size="10.00">+ dimensions()</text>
</a>
</g>
</g>
<!-- Node3&#45;&gt;Node2 -->
<g id="edge2" class="edge"><title>Node3&#45;&gt;Node2</title>
<path fill="none" stroke="midnightblue" d="M143.624,-647.837C131.121,-592.941 111.538,-506.958 96.3226,-440.154"/>
<polygon fill="none" stroke="midnightblue" points="140.24,-648.74 145.874,-657.713 147.065,-647.186 140.24,-648.74"/>
</g>
<!-- Node8 -->
<g id="node8" class="node"><title>Node8</title>
<g id="a_node8"><a xlink:href="class_hydro_couple_1_1_spatial_1_1_i2_d_regular_grid_component_item.html" target="_top" xlink:title="An I2DRegularGridComponentItem represents an I2DRegularGrid IComponentItem. ">
<polygon fill="white" stroke="black" points="149.995,-476.869 149.995,-620.884 358.026,-620.884 358.026,-476.869 149.995,-476.869"/>
<text text-anchor="start" x="157.995" y="-608.884" font-family="Monaco" font-size="10.00">HydroCouple::Spatial</text>
<text text-anchor="middle" x="254.011" y="-595.549" font-family="Monaco" font-size="10.00">::I2DRegularGridComponentItem</text>
<polyline fill="none" stroke="black" points="149.995,-586.214 358.026,-586.214 "/>
<text text-anchor="middle" x="254.011" y="-574.214" font-family="Monaco" font-size="10.00"> </text>
<polyline fill="none" stroke="black" points="149.995,-564.879 358.026,-564.879 "/>
<text text-anchor="start" x="157.995" y="-552.879" font-family="Monaco" font-size="10.00">+ ~I2DRegularGridComponentItem()</text>
<text text-anchor="start" x="157.995" y="-539.544" font-family="Monaco" font-size="10.00">+ numXNodesDimension()</text>
<text text-anchor="start" x="157.995" y="-526.209" font-family="Monaco" font-size="10.00">+ numYNodesDimension()</text>
<text text-anchor="start" x="157.995" y="-512.874" font-family="Monaco" font-size="10.00">+ numXCellsDimension()</text>
<text text-anchor="start" x="157.995" y="-499.539" font-family="Monaco" font-size="10.00">+ numYCellsDimension()</text>
<text text-anchor="start" x="157.995" y="-486.204" font-family="Monaco" font-size="10.00">+ grid()</text>
</a>
</g>
</g>
<!-- Node3&#45;&gt;Node8 -->
<g id="edge8" class="edge"><title>Node3&#45;&gt;Node8</title>
<path fill="none" stroke="midnightblue" d="M190.118,-649.201C195.965,-640.111 202.125,-630.535 208.218,-621.063"/>
<polygon fill="none" stroke="midnightblue" points="187.086,-647.444 184.62,-657.747 192.974,-651.231 187.086,-647.444"/>
</g>
<!-- Node4 -->
<g id="node4" class="node"><title>Node4</title>
<g id="a_node4"><a xlink:href="class_hydro_couple_1_1_i_identity.html" target="_top" xlink:title="IIdentity interface class defines a method to get the Id of an HydroCouple entity. ">
<polygon fill="white" stroke="black" points="82,-785.559 82,-862.898 230.021,-862.898 230.021,-785.559 82,-785.559"/>
<text text-anchor="middle" x="156.011" y="-850.898" font-family="Monaco" font-size="10.00">HydroCouple::IIdentity</text>
<polyline fill="none" stroke="black" points="82,-841.563 230.021,-841.563 "/>
<text text-anchor="middle" x="156.011" y="-829.563" font-family="Monaco" font-size="10.00"> </text>
<polyline fill="none" stroke="black" points="82,-820.229 230.021,-820.229 "/>
<text text-anchor="start" x="90" y="-808.229" font-family="Monaco" font-size="10.00">+ ~IIdentity()</text>
<text text-anchor="start" x="90" y="-794.894" font-family="Monaco" font-size="10.00">+ id()</text>
</a>
</g>
</g>
<!-- Node4&#45;&gt;Node3 -->
<g id="edge3" class="edge"><title>Node4&#45;&gt;Node3</title>
<path fill="none" stroke="midnightblue" d="M156.011,-775.239C156.011,-766.54 156.011,-757.5 156.011,-748.902"/>
<polygon fill="none" stroke="midnightblue" points="152.511,-775.247 156.011,-785.247 159.511,-775.247 152.511,-775.247"/>
</g>
<!-- Node5 -->
<g id="node5" class="node"><title>Node5</title>
<g id="a_node5"><a xlink:href="class_hydro_couple_1_1_i_description.html" target="_top" xlink:title="IDescription interface class provides descriptive information on a HydroCouple object. ">
<polygon fill="white" stroke="black" points="72.9985,-899.898 72.9985,-1017.24 239.023,-1017.24 239.023,-899.898 72.9985,-899.898"/>
<text text-anchor="middle" x="156.011" y="-1005.24" font-family="Monaco" font-size="10.00">HydroCouple::IDescription</text>
<polyline fill="none" stroke="black" points="72.9985,-995.908 239.023,-995.908 "/>
<text text-anchor="middle" x="156.011" y="-983.908" font-family="Monaco" font-size="10.00"> </text>
<polyline fill="none" stroke="black" points="72.9985,-974.573 239.023,-974.573 "/>
<text text-anchor="start" x="80.9985" y="-962.573" font-family="Monaco" font-size="10.00">+ ~IDescription()</text>
<text text-anchor="start" x="80.9985" y="-949.238" font-family="Monaco" font-size="10.00">+ getCaption()</text>
<text text-anchor="start" x="80.9985" y="-935.903" font-family="Monaco" font-size="10.00">+ setCaption()</text>
<text text-anchor="start" x="80.9985" y="-922.568" font-family="Monaco" font-size="10.00">+ getDescription()</text>
<text text-anchor="start" x="80.9985" y="-909.233" font-family="Monaco" font-size="10.00">+ setDescription()</text>
</a>
</g>
</g>
<!-- Node5&#45;&gt;Node4 -->
<g id="edge4" class="edge"><title>Node5&#45;&gt;Node4</title>
<path fill="none" stroke="midnightblue" d="M156.011,-889.333C156.011,-880.294 156.011,-871.306 156.011,-863.046"/>
<polygon fill="none" stroke="midnightblue" points="152.511,-889.524 156.011,-899.524 159.511,-889.524 152.511,-889.524"/>
</g>
<!-- Node6 -->
<g id="node6" class="node"><title>Node6</title>
<g id="a_node6"><a xlink:href="class_hydro_couple_1_1_i_property_changed.html" target="_top" xlink:title="IPropertyChanged interface is used to emit signal/event when a property of an object changes...">
<polygon fill="white" stroke="black" points="60.9966,-1054.24 60.9966,-1118.25 251.025,-1118.25 251.025,-1054.24 60.9966,-1054.24"/>
<text text-anchor="middle" x="156.011" y="-1106.25" font-family="Monaco" font-size="10.00">HydroCouple::IPropertyChanged</text>
<polyline fill="none" stroke="black" points="60.9966,-1096.91 251.025,-1096.91 "/>
<text text-anchor="middle" x="156.011" y="-1084.91" font-family="Monaco" font-size="10.00"> </text>
<polyline fill="none" stroke="black" points="60.9966,-1075.58 251.025,-1075.58 "/>
<text text-anchor="start" x="68.9966" y="-1063.58" font-family="Monaco" font-size="10.00">+ ~IPropertyChanged()</text>
</a>
</g>
</g>
<!-- Node6&#45;&gt;Node5 -->
<g id="edge5" class="edge"><title>Node6&#45;&gt;Node5</title>
<path fill="none" stroke="midnightblue" d="M156.011,-1043.92C156.011,-1035.54 156.011,-1026.57 156.011,-1017.73"/>
<polygon fill="none" stroke="midnightblue" points="152.511,-1044.18 156.011,-1054.18 159.511,-1044.18 152.511,-1044.18"/>
</g>
<!-- Node7 -->
<g id="node7" class="node"><title>Node7</title>
<g id="a_node7"><a xlink:href="class_hydro_couple_1_1_spatial_1_1_i3_d_regular_grid_component_item.html" target="_top" xlink:title="An I3DRegularGridComponentItem represents an I3DRegularGrid IComponentItem. ">
<polygon fill="white" stroke="black" points="165.995,-282.52 165.995,-399.864 374.026,-399.864 374.026,-282.52 165.995,-282.52"/>
<text text-anchor="start" x="173.995" y="-387.864" font-family="Monaco" font-size="10.00">HydroCouple::Spatial</text>
<text text-anchor="middle" x="270.011" y="-374.529" font-family="Monaco" font-size="10.00">::I3DRegularGridComponentItem</text>
<polyline fill="none" stroke="black" points="165.995,-365.194 374.026,-365.194 "/>
<text text-anchor="middle" x="270.011" y="-353.194" font-family="Monaco" font-size="10.00"> </text>
<polyline fill="none" stroke="black" points="165.995,-343.859 374.026,-343.859 "/>
<text text-anchor="start" x="173.995" y="-331.859" font-family="Monaco" font-size="10.00">+ ~I2DRegularGridComponentItem()</text>
<text text-anchor="start" x="173.995" y="-318.524" font-family="Monaco" font-size="10.00">+ numZNodesDimension()</text>
<text text-anchor="start" x="173.995" y="-305.189" font-family="Monaco" font-size="10.00">+ numZCellsDimension()</text>
<text text-anchor="start" x="173.995" y="-291.854" font-family="Monaco" font-size="10.00">+ grid()</text>
</a>
</g>
</g>
<!-- Node7&#45;&gt;Node1 -->
<g id="edge6" class="edge"><title>Node7&#45;&gt;Node1</title>
<path fill="none" stroke="midnightblue" d="M233.343,-273.212C220.997,-250.659 207.533,-226.065 196.374,-205.681"/>
<polygon fill="none" stroke="midnightblue" points="230.321,-274.98 238.193,-282.071 236.461,-271.619 230.321,-274.98"/>
</g>
<!-- Node8&#45;&gt;Node7 -->
<g id="edge7" class="edge"><title>Node8&#45;&gt;Node7</title>
<path fill="none" stroke="midnightblue" d="M260.327,-466.678C262.061,-444.388 263.905,-420.678 265.514,-399.995"/>
<polygon fill="none" stroke="midnightblue" points="256.826,-466.562 259.539,-476.803 263.805,-467.105 256.826,-466.562"/>
</g>
</g>
</svg>
        <g id="navigator" transform="translate(0 0)" fill="#404254">
                <rect fill="#f2f5e9" fill-opacity="0.5" stroke="#606060" stroke-width=".5" x="0" y="0" width="60" height="60"/>
                <use id="zoomplus" xlink:href="#zoomPlus" x="17" y="9" onmousedown="handleZoom(evt,'in')"/>
                <use id="zoomminus" xlink:href="#zoomMin" x="42" y="9" onmousedown="handleZoom(evt,'out')"/>
                <use id="reset" xlink:href="#resetDef" x="30" y="36" onmousedown="handleReset()"/>
                <g id="arrowUp" xlink:href="#dirArrow" transform="translate(30 24)" onmousedown="handlePan(0,-1)">
                  <use xlink:href="#rim" fill="#404040">
                        <set attributeName="fill" to="#808080" begin="arrowUp.mouseover" end="arrowUp.mouseout"/>
                  </use>
                  <path fill="none" stroke="white" stroke-width="1.5" d="M0,-3.0v7 M-2.5,-0.5L0,-3.0L2.5,-0.5"/>
                </g>
                <g id="arrowRight" xlink:href="#dirArrow" transform="rotate(90) translate(36 -43)" onmousedown="handlePan(1,0)">
                  <use xlink:href="#rim" fill="#404040">
                        <set attributeName="fill" to="#808080" begin="arrowRight.mouseover" end="arrowRight.mouseout"/>
                  </use>
                  <path fill="none" stroke="white" stroke-width="1.5" d="M0,-3.0v7 M-2.5,-0.5L0,-3.0L2.5,-0.5"/>
                </g>
                <g id="arrowDown" xlink:href="#dirArrow" transform="rotate(180) translate(-30 -48)" onmousedown="handlePan(0,1)">
                  <use xlink:href="#rim" fill="#404040">
                        <set attributeName="fill" to="#808080" begin="arrowDown.mouseover" end="arrowDown.mouseout"/>
                  </use>
                  <path fill="none" stroke="white" stroke-width="1.5" d="M0,-3.0v7 M-2.5,-0.5L0,-3.0L2.5,-0.5"/>
                </g>
                <g id="arrowLeft" xlink:href="#dirArrow" transform="rotate(270) translate(-36 17)" onmousedown="handlePan(-1,0)">
                  <use xlink:href="#rim" fill="#404040">
                        <set attributeName="fill" to="#808080" begin="arrowLeft.mouseover" end="arrowLeft.mouseout"/>
                  </use>
                  <path fill="none" stroke="white" stroke-width="1.5" d="M0,-3.0v7 M-2.5,-0.5L0,-3.0L2.5,-0.5"/>
                </g>
        </g>
        <svg viewBox="0 0 15 15" width="100%" height="30px" preserveAspectRatio="xMaxYMin meet">
         <g id="arrow_out" transform="scale(0.3 0.3)">
          <a xlink:href="class_hydro_couple_1_1_spatial_1_1_i3_d_regular_grid_argument__inherit__graph_org.svg" target="_base">
           <rect id="button" ry="5" rx="5" y="6" x="6" height="38" width="38"
                fill="#f2f5e9" fill-opacity="0.5" stroke="#606060" stroke-width="1.0"/>
           <path id="arrow"
             d="M 11.500037,31.436501 C 11.940474,20.09759 22.043105,11.32322 32.158766,21.979434 L 37.068811,17.246167 C 37.068811,17.246167 37.088388,32 37.088388,32 L 22.160133,31.978069 C 22.160133,31.978069 26.997745,27.140456 26.997745,27.140456 C 18.528582,18.264221 13.291696,25.230495 11.500037,31.436501 z"
             style="fill:#404040;"/>
          </a>
         </g>
        </svg>
</svg>
