<?xml version="1.0" encoding="UTF-8" standalone="no"?>
<!DOCTYPE svg PUBLIC "-//W3C//DTD SVG 1.1//EN"
 "http://www.w3.org/Graphics/SVG/1.1/DTD/svg11.dtd">
<!-- Generated by graphviz version 2.38.0 (20140413.2041)
 -->
<!-- Title: HydroCouple::Temporal::ITimeComponentItem::times Pages: 1 -->
<svg width="424pt" height="378pt"
 viewBox="0.00 0.00 424.06 378.00" xmlns="http://www.w3.org/2000/svg" xmlns:xlink="http://www.w3.org/1999/xlink">
<g id="graph0" class="graph" transform="scale(1 1) rotate(0) translate(4 374.005)">
<title>HydroCouple::Temporal::ITimeComponentItem::times</title>
<polygon fill="white" stroke="none" points="-4,4 -4,-374.005 420.057,-374.005 420.057,4 -4,4"/>
<!-- Node1 -->
<g id="node1" class="node"><title>Node1</title>
<polygon fill="#bfbfbf" stroke="black" points="0,-167.5 0,-215.505 142.021,-215.505 142.021,-167.5 0,-167.5"/>
<text text-anchor="start" x="8" y="-203.505" font-family="Monaco" font-size="10.00">HydroCouple::Temporal</text>
<text text-anchor="start" x="8" y="-190.17" font-family="Monaco" font-size="10.00">::ITimeComponentItem</text>
<text text-anchor="middle" x="71.0103" y="-176.835" font-family="Monaco" font-size="10.00">::times</text>
</g>
<!-- Node2 -->
<g id="node2" class="node"><title>Node2</title>
<g id="a_node2"><a xlink:href="class_hydro_couple_1_1_spatio_temporal_1_1_i_time_geometry_argument.html#abc03af070afcad58412f6db4130fd00c" target="_top" xlink:title="HydroCouple::SpatioTemporal\l::ITimeGeometryArgument\l::~ITimeGeometryArgument">
<polygon fill="white" stroke="black" points="208.025,-321.5 208.025,-369.505 386.052,-369.505 386.052,-321.5 208.025,-321.5"/>
<text text-anchor="start" x="216.025" y="-357.505" font-family="Monaco" font-size="10.00">HydroCouple::SpatioTemporal</text>
<text text-anchor="start" x="216.025" y="-344.17" font-family="Monaco" font-size="10.00">::ITimeGeometryArgument</text>
<text text-anchor="middle" x="297.039" y="-330.835" font-family="Monaco" font-size="10.00">::~ITimeGeometryArgument</text>
</a>
</g>
</g>
<!-- Node1&#45;&gt;Node2 -->
<g id="edge1" class="edge"><title>Node1&#45;&gt;Node2</title>
<path fill="none" stroke="midnightblue" d="M92.6489,-224.206C111.625,-251.67 142.194,-289.941 178.021,-312.502 187.202,-318.284 197.409,-323.072 207.869,-327.033"/>
<polygon fill="midnightblue" stroke="midnightblue" points="95.402,-222.029 86.9033,-215.703 89.6018,-225.948 95.402,-222.029"/>
</g>
<!-- Node3 -->
<g id="node3" class="node"><title>Node3</title>
<g id="a_node3"><a xlink:href="class_hydro_couple_1_1_spatio_temporal_1_1_i_time_t_i_n_argument.html#a9c7b695b7ce7bd4005147e06f25bd352" target="_top" xlink:title="~ITimeTINArgument. ">
<polygon fill="white" stroke="black" points="178.021,-268.167 178.021,-302.837 416.057,-302.837 416.057,-268.167 178.021,-268.167"/>
<text text-anchor="start" x="186.021" y="-290.837" font-family="Monaco" font-size="10.00">HydroCouple::SpatioTemporal</text>
<text text-anchor="middle" x="297.039" y="-277.502" font-family="Monaco" font-size="10.00">::ITimeTINArgument::~ITimeTINArgument</text>
</a>
</g>
</g>
<!-- Node1&#45;&gt;Node3 -->
<g id="edge2" class="edge"><title>Node1&#45;&gt;Node3</title>
<path fill="none" stroke="midnightblue" d="M111.502,-221.592C130.693,-234.938 154.625,-249.787 178.021,-259.502 185.771,-262.721 193.981,-265.568 202.317,-268.082"/>
<polygon fill="midnightblue" stroke="midnightblue" points="113.494,-218.714 103.311,-215.787 109.446,-224.425 113.494,-218.714"/>
</g>
<!-- Node4 -->
<g id="node4" class="node"><title>Node4</title>
<g id="a_node4"><a xlink:href="class_hydro_couple_1_1_spatio_temporal_1_1_i_time_polyhedral_surface_argument.html#afa1365bdbf5f8a89ccfec6a0675ca784" target="_top" xlink:title="HydroCouple::SpatioTemporal\l::ITimePolyhedralSurfaceArgument\l::~ITimePolyhedralSurfaceArgument">
<polygon fill="white" stroke="black" points="190.022,-201.5 190.022,-249.505 404.055,-249.505 404.055,-201.5 190.022,-201.5"/>
<text text-anchor="start" x="198.022" y="-237.505" font-family="Monaco" font-size="10.00">HydroCouple::SpatioTemporal</text>
<text text-anchor="start" x="198.022" y="-224.17" font-family="Monaco" font-size="10.00">::ITimePolyhedralSurfaceArgument</text>
<text text-anchor="middle" x="297.039" y="-210.835" font-family="Monaco" font-size="10.00">::~ITimePolyhedralSurfaceArgument</text>
</a>
</g>
</g>
<!-- Node1&#45;&gt;Node4 -->
<g id="edge3" class="edge"><title>Node1&#45;&gt;Node4</title>
<path fill="none" stroke="midnightblue" d="M152.373,-203.699C164.558,-205.548 177.287,-207.48 189.916,-209.397"/>
<polygon fill="midnightblue" stroke="midnightblue" points="152.692,-200.207 142.28,-202.167 151.641,-207.128 152.692,-200.207"/>
</g>
<!-- Node5 -->
<g id="node5" class="node"><title>Node5</title>
<g id="a_node5"><a xlink:href="class_hydro_couple_1_1_spatio_temporal_1_1_i_time_raster_argument.html#a95c24973003afeb8b57b27545c65bd53" target="_top" xlink:title="HydroCouple::SpatioTemporal\l::ITimeRasterArgument::\l~ITimeRasterArgument">
<polygon fill="white" stroke="black" points="208.025,-134.5 208.025,-182.505 386.052,-182.505 386.052,-134.5 208.025,-134.5"/>
<text text-anchor="start" x="216.025" y="-170.505" font-family="Monaco" font-size="10.00">HydroCouple::SpatioTemporal</text>
<text text-anchor="start" x="216.025" y="-157.17" font-family="Monaco" font-size="10.00">::ITimeRasterArgument::</text>
<text text-anchor="middle" x="297.039" y="-143.835" font-family="Monaco" font-size="10.00">~ITimeRasterArgument</text>
</a>
</g>
</g>
<!-- Node1&#45;&gt;Node5 -->
<g id="edge4" class="edge"><title>Node1&#45;&gt;Node5</title>
<path fill="none" stroke="midnightblue" d="M152.174,-179.694C170.232,-177.034 189.495,-174.197 207.861,-171.491"/>
<polygon fill="midnightblue" stroke="midnightblue" points="151.663,-176.232 142.28,-181.152 152.683,-183.157 151.663,-176.232"/>
</g>
<!-- Node6 -->
<g id="node6" class="node"><title>Node6</title>
<g id="a_node6"><a xlink:href="class_hydro_couple_1_1_spatio_temporal_1_1_i_time_regular_grid2_d_argument.html#adaf3bf82e7d22e38dd36ab8eb0fa5a81" target="_top" xlink:title="HydroCouple::SpatioTemporal\l::ITimeRegularGrid2DArgument\l::~ITimeRegularGrid2DArgument">
<polygon fill="white" stroke="black" points="202.024,-67.5 202.024,-115.505 392.053,-115.505 392.053,-67.5 202.024,-67.5"/>
<text text-anchor="start" x="210.024" y="-103.505" font-family="Monaco" font-size="10.00">HydroCouple::SpatioTemporal</text>
<text text-anchor="start" x="210.024" y="-90.1699" font-family="Monaco" font-size="10.00">::ITimeRegularGrid2DArgument</text>
<text text-anchor="middle" x="297.039" y="-76.835" font-family="Monaco" font-size="10.00">::~ITimeRegularGrid2DArgument</text>
</a>
</g>
</g>
<!-- Node1&#45;&gt;Node6 -->
<g id="edge5" class="edge"><title>Node1&#45;&gt;Node6</title>
<path fill="none" stroke="midnightblue" d="M112.941,-161.696C132,-148.869 155.418,-134.546 178.021,-124.502 185.603,-121.133 193.614,-118.025 201.748,-115.176"/>
<polygon fill="midnightblue" stroke="midnightblue" points="110.787,-158.929 104.51,-167.464 114.739,-164.707 110.787,-158.929"/>
</g>
<!-- Node7 -->
<g id="node7" class="node"><title>Node7</title>
<g id="a_node7"><a xlink:href="class_hydro_couple_1_1_spatio_temporal_1_1_i_time_regular_grid3_d_argument.html#ad1aac3024b7a3a7e5375fc7ff9615c15" target="_top" xlink:title="HydroCouple::SpatioTemporal\l::ITimeRegularGrid3DArgument\l::~ITimeRegularGrid3DArgument">
<polygon fill="white" stroke="black" points="202.024,-0.5 202.024,-48.5049 392.053,-48.5049 392.053,-0.5 202.024,-0.5"/>
<text text-anchor="start" x="210.024" y="-36.5049" font-family="Monaco" font-size="10.00">HydroCouple::SpatioTemporal</text>
<text text-anchor="start" x="210.024" y="-23.1699" font-family="Monaco" font-size="10.00">::ITimeRegularGrid3DArgument</text>
<text text-anchor="middle" x="297.039" y="-9.83496" font-family="Monaco" font-size="10.00">::~ITimeRegularGrid3DArgument</text>
</a>
</g>
</g>
<!-- Node1&#45;&gt;Node7 -->
<g id="edge6" class="edge"><title>Node1&#45;&gt;Node7</title>
<path fill="none" stroke="midnightblue" d="M89.9902,-158.329C108.246,-127.73 139.3,-83.264 178.021,-57.5024 185.371,-52.6117 193.44,-48.4394 201.802,-44.8812"/>
<polygon fill="midnightblue" stroke="midnightblue" points="86.7485,-156.94 84.7413,-167.343 92.7978,-160.463 86.7485,-156.94"/>
</g>
</g>
</svg>
