<?xml version="1.0" encoding="UTF-8" standalone="no"?>
<!DOCTYPE svg PUBLIC "-//W3C//DTD SVG 1.1//EN"
 "http://www.w3.org/Graphics/SVG/1.1/DTD/svg11.dtd">
<!-- Generated by graphviz version 2.38.0 (20140413.2041)
 -->
<!-- Title: HydroCouple::Temporal::IIdBasedTimeExchangeItem Pages: 1 -->
<!--zoomable 1052 -->
<svg id="main" version="1.1" xmlns="http://www.w3.org/2000/svg" xmlns:xlink="http://www.w3.org/1999/xlink" xml:space="preserve" onload="init(evt)">
<style type="text/css"><![CDATA[
.edge:hover path { stroke: red; }
.edge:hover polygon { stroke: red; fill: red; }
]]></style>
<script type="text/javascript"><![CDATA[
var edges = document.getElementsByTagName('g');
if (edges && edges.length) {
  for (var i=0;i<edges.length;i++) {
    if (edges[i].id.substr(0,4)=='edge') {
      edges[i].setAttribute('class','edge');
    }
  }
}
]]></script>
        <defs>
                <circle id="rim" cx="0" cy="0" r="7"/>
                <circle id="rim2" cx="0" cy="0" r="3.5"/>
                <g id="zoomPlus">
                        <use xlink:href="#rim" fill="#404040">
                                <set attributeName="fill" to="#808080" begin="zoomplus.mouseover" end="zoomplus.mouseout"/>
                        </use>
                        <path d="M-4,0h8M0,-4v8" fill="none" stroke="white" stroke-width="1.5" pointer-events="none"/>
                </g>
                <g id="zoomMin">
                        <use xlink:href="#rim" fill="#404040">
                                <set attributeName="fill" to="#808080" begin="zoomminus.mouseover" end="zoomminus.mouseout"/>
                        </use>
                        <path d="M-4,0h8" fill="none" stroke="white" stroke-width="1.5" pointer-events="none"/>
                </g>
                <g id="dirArrow">
                        <path fill="none" stroke="white" stroke-width="1.5" d="M0,-3.0v7 M-2.5,-0.5L0,-3.0L2.5,-0.5"/>
                </g>
               <g id="resetDef">
                       <use xlink:href="#rim2" fill="#404040">
                               <set attributeName="fill" to="#808080" begin="reset.mouseover" end="reset.mouseout"/>
                       </use>
               </g>
        </defs>

<script type="text/javascript">
var viewWidth = 418;
var viewHeight = 1052;
var sectionId = 'dynsection-1';
</script>
<script xlink:href="svgpan.js"/>
<svg id="graph" class="graph">
<g id="viewport">
<title>HydroCouple::Temporal::IIdBasedTimeExchangeItem</title>
<!-- Node1 -->
<g id="node1" class="node"><title>Node1</title>
<polygon fill="#bfbfbf" stroke="black" points="97.9985,-0.5 97.9985,-77.8398 288.027,-77.8398 288.027,-0.5 97.9985,-0.5"/>
<text text-anchor="start" x="105.999" y="-65.8398" font-family="Monaco" font-size="10.00">HydroCouple::Temporal</text>
<text text-anchor="middle" x="193.013" y="-52.5049" font-family="Monaco" font-size="10.00">::IIdBasedTimeExchangeItem</text>
<polyline fill="none" stroke="black" points="97.9985,-43.1699 288.027,-43.1699 "/>
<text text-anchor="middle" x="193.013" y="-31.1699" font-family="Monaco" font-size="10.00"> </text>
<polyline fill="none" stroke="black" points="97.9985,-21.835 288.027,-21.835 "/>
<text text-anchor="start" x="105.999" y="-9.83496" font-family="Monaco" font-size="10.00">+ ~IIdBasedTimeExchangeItem()</text>
</g>
<!-- Node2 -->
<g id="node2" class="node"><title>Node2</title>
<g id="a_node2"><a xlink:href="class_hydro_couple_1_1_i_exchange_item.html" target="_top" xlink:title="IExchangeItem the base data item the can be exchanged between components at runtime. ">
<polygon fill="none" stroke="black" points="0,-168.18 0,-245.52 172.025,-245.52 172.025,-168.18 0,-168.18"/>
<text text-anchor="middle" x="86.0127" y="-233.52" font-family="Monaco" font-size="10.00">HydroCouple::IExchangeItem</text>
<polyline fill="none" stroke="black" points="0,-224.185 172.025,-224.185 "/>
<text text-anchor="middle" x="86.0127" y="-212.185" font-family="Monaco" font-size="10.00"> </text>
<polyline fill="none" stroke="black" points="0,-202.85 172.025,-202.85 "/>
<text text-anchor="start" x="8" y="-190.85" font-family="Monaco" font-size="10.00">+ ~IExchangeItem()</text>
<text text-anchor="start" x="8" y="-177.515" font-family="Monaco" font-size="10.00">+ itemChanged()</text>
</a>
</g>
</g>
<!-- Node2&#45;&gt;Node1 -->
<g id="edge1" class="edge"><title>Node2&#45;&gt;Node1</title>
<path fill="none" stroke="midnightblue" d="M116.031,-159.37C132.621,-133.681 152.97,-102.173 168.579,-78.0033"/>
<polygon fill="none" stroke="midnightblue" points="113.046,-157.54 110.561,-167.839 118.926,-161.338 113.046,-157.54"/>
</g>
<!-- Node3 -->
<g id="node3" class="node"><title>Node3</title>
<g id="a_node3"><a xlink:href="class_hydro_couple_1_1_i_component_data_item.html" target="_top" xlink:title="IComponentItem is a fundamental unit of data for a component. ">
<polygon fill="none" stroke="black" points="66.9976,-490.204 66.9976,-674.224 269.028,-674.224 269.028,-490.204 66.9976,-490.204"/>
<text text-anchor="middle" x="168.013" y="-662.224" font-family="Monaco" font-size="10.00">HydroCouple::IComponentDataItem</text>
<polyline fill="none" stroke="black" points="66.9976,-652.889 269.028,-652.889 "/>
<text text-anchor="middle" x="168.013" y="-640.889" font-family="Monaco" font-size="10.00"> </text>
<polyline fill="none" stroke="black" points="66.9976,-631.554 269.028,-631.554 "/>
<text text-anchor="start" x="74.9976" y="-619.554" font-family="Monaco" font-size="10.00">+ ~IComponentDataItem()</text>
<text text-anchor="start" x="74.9976" y="-606.219" font-family="Monaco" font-size="10.00">+ modelComponent()</text>
<text text-anchor="start" x="74.9976" y="-592.884" font-family="Monaco" font-size="10.00">+ dimensions()</text>
<text text-anchor="start" x="74.9976" y="-579.549" font-family="Monaco" font-size="10.00">+ valueDefinition()</text>
<text text-anchor="start" x="74.9976" y="-566.214" font-family="Monaco" font-size="10.00">+ getValue()</text>
<text text-anchor="start" x="74.9976" y="-552.879" font-family="Monaco" font-size="10.00">+ getValues()</text>
<text text-anchor="start" x="74.9976" y="-539.544" font-family="Monaco" font-size="10.00">+ getValues()</text>
<text text-anchor="start" x="74.9976" y="-526.209" font-family="Monaco" font-size="10.00">+ setValue()</text>
<text text-anchor="start" x="74.9976" y="-512.874" font-family="Monaco" font-size="10.00">+ setValues()</text>
<text text-anchor="start" x="74.9976" y="-499.539" font-family="Monaco" font-size="10.00">+ setValues()</text>
</a>
</g>
</g>
<!-- Node3&#45;&gt;Node2 -->
<g id="edge2" class="edge"><title>Node3&#45;&gt;Node2</title>
<path fill="none" stroke="midnightblue" d="M145.803,-480.087C128.797,-402.657 106.289,-300.172 94.3239,-245.692"/>
<polygon fill="none" stroke="midnightblue" points="142.39,-480.862 147.953,-489.879 149.227,-479.361 142.39,-480.862"/>
</g>
<!-- Node8 -->
<g id="node8" class="node"><title>Node8</title>
<g id="a_node8"><a xlink:href="class_hydro_couple_1_1_temporal_1_1_i_time_component_data_item.html" target="_top" xlink:title="ITimeComponentItem is an IComponentItem with a temporal attribute. ">
<polygon fill="none" stroke="black" points="186,-335.859 186,-453.204 364.026,-453.204 364.026,-335.859 186,-335.859"/>
<text text-anchor="start" x="194" y="-441.204" font-family="Monaco" font-size="10.00">HydroCouple::Temporal</text>
<text text-anchor="middle" x="275.013" y="-427.869" font-family="Monaco" font-size="10.00">::ITimeComponentDataItem</text>
<polyline fill="none" stroke="black" points="186,-418.534 364.026,-418.534 "/>
<text text-anchor="middle" x="275.013" y="-406.534" font-family="Monaco" font-size="10.00"> </text>
<polyline fill="none" stroke="black" points="186,-397.199 364.026,-397.199 "/>
<text text-anchor="start" x="194" y="-385.199" font-family="Monaco" font-size="10.00">+ ~ITimeComponentDataItem()</text>
<text text-anchor="start" x="194" y="-371.864" font-family="Monaco" font-size="10.00">+ times()</text>
<text text-anchor="start" x="194" y="-358.529" font-family="Monaco" font-size="10.00">+ timeSpan()</text>
<text text-anchor="start" x="194" y="-345.194" font-family="Monaco" font-size="10.00">+ timeDimension()</text>
</a>
</g>
</g>
<!-- Node3&#45;&gt;Node8 -->
<g id="edge8" class="edge"><title>Node3&#45;&gt;Node8</title>
<path fill="none" stroke="midnightblue" d="M225.623,-481.24C231.113,-471.714 236.544,-462.288 241.684,-453.368"/>
<polygon fill="none" stroke="midnightblue" points="222.533,-479.593 220.572,-490.005 228.598,-483.088 222.533,-479.593"/>
</g>
<!-- Node4 -->
<g id="node4" class="node"><title>Node4</title>
<g id="a_node4"><a xlink:href="class_hydro_couple_1_1_i_identity.html" target="_top" xlink:title="IIdentity interface class defines a method to get the Id of an HydroCouple entity. ">
<polygon fill="none" stroke="black" points="94.002,-711.224 94.002,-788.563 242.023,-788.563 242.023,-711.224 94.002,-711.224"/>
<text text-anchor="middle" x="168.013" y="-776.563" font-family="Monaco" font-size="10.00">HydroCouple::IIdentity</text>
<polyline fill="none" stroke="black" points="94.002,-767.229 242.023,-767.229 "/>
<text text-anchor="middle" x="168.013" y="-755.229" font-family="Monaco" font-size="10.00"> </text>
<polyline fill="none" stroke="black" points="94.002,-745.894 242.023,-745.894 "/>
<text text-anchor="start" x="102.002" y="-733.894" font-family="Monaco" font-size="10.00">+ ~IIdentity()</text>
<text text-anchor="start" x="102.002" y="-720.559" font-family="Monaco" font-size="10.00">+ id()</text>
</a>
</g>
</g>
<!-- Node4&#45;&gt;Node3 -->
<g id="edge3" class="edge"><title>Node4&#45;&gt;Node3</title>
<path fill="none" stroke="midnightblue" d="M168.013,-700.641C168.013,-692.288 168.013,-683.363 168.013,-674.305"/>
<polygon fill="none" stroke="midnightblue" points="164.513,-700.883 168.013,-710.883 171.513,-700.883 164.513,-700.883"/>
</g>
<!-- Node5 -->
<g id="node5" class="node"><title>Node5</title>
<g id="a_node5"><a xlink:href="class_hydro_couple_1_1_i_description.html" target="_top" xlink:title="IDescription interface class provides descriptive information on a HydroCouple object. ">
<polygon fill="none" stroke="black" points="85.0005,-825.563 85.0005,-942.908 251.025,-942.908 251.025,-825.563 85.0005,-825.563"/>
<text text-anchor="middle" x="168.013" y="-930.908" font-family="Monaco" font-size="10.00">HydroCouple::IDescription</text>
<polyline fill="none" stroke="black" points="85.0005,-921.573 251.025,-921.573 "/>
<text text-anchor="middle" x="168.013" y="-909.573" font-family="Monaco" font-size="10.00"> </text>
<polyline fill="none" stroke="black" points="85.0005,-900.238 251.025,-900.238 "/>
<text text-anchor="start" x="93.0005" y="-888.238" font-family="Monaco" font-size="10.00">+ ~IDescription()</text>
<text text-anchor="start" x="93.0005" y="-874.903" font-family="Monaco" font-size="10.00">+ caption()</text>
<text text-anchor="start" x="93.0005" y="-861.568" font-family="Monaco" font-size="10.00">+ setCaption()</text>
<text text-anchor="start" x="93.0005" y="-848.233" font-family="Monaco" font-size="10.00">+ description()</text>
<text text-anchor="start" x="93.0005" y="-834.898" font-family="Monaco" font-size="10.00">+ setDescription()</text>
</a>
</g>
</g>
<!-- Node5&#45;&gt;Node4 -->
<g id="edge4" class="edge"><title>Node5&#45;&gt;Node4</title>
<path fill="none" stroke="midnightblue" d="M168.013,-814.998C168.013,-805.959 168.013,-796.971 168.013,-788.711"/>
<polygon fill="none" stroke="midnightblue" points="164.513,-815.189 168.013,-825.189 171.513,-815.189 164.513,-815.189"/>
</g>
<!-- Node6 -->
<g id="node6" class="node"><title>Node6</title>
<g id="a_node6"><a xlink:href="class_hydro_couple_1_1_i_property_changed.html" target="_top" xlink:title="IPropertyChanged interface is used to emit signal/event when a property of an object changes...">
<polygon fill="none" stroke="black" points="72.9985,-979.908 72.9985,-1043.91 263.027,-1043.91 263.027,-979.908 72.9985,-979.908"/>
<text text-anchor="middle" x="168.013" y="-1031.91" font-family="Monaco" font-size="10.00">HydroCouple::IPropertyChanged</text>
<polyline fill="none" stroke="black" points="72.9985,-1022.58 263.027,-1022.58 "/>
<text text-anchor="middle" x="168.013" y="-1010.58" font-family="Monaco" font-size="10.00"> </text>
<polyline fill="none" stroke="black" points="72.9985,-1001.24 263.027,-1001.24 "/>
<text text-anchor="start" x="80.9985" y="-989.243" font-family="Monaco" font-size="10.00">+ ~IPropertyChanged()</text>
</a>
</g>
</g>
<!-- Node6&#45;&gt;Node5 -->
<g id="edge5" class="edge"><title>Node6&#45;&gt;Node5</title>
<path fill="none" stroke="midnightblue" d="M168.013,-969.588C168.013,-961.203 168.013,-952.236 168.013,-943.394"/>
<polygon fill="none" stroke="midnightblue" points="164.513,-969.845 168.013,-979.845 171.513,-969.845 164.513,-969.845"/>
</g>
<!-- Node7 -->
<g id="node7" class="node"><title>Node7</title>
<g id="a_node7"><a xlink:href="class_hydro_couple_1_1_temporal_1_1_i_id_based_time_component_data_item.html" target="_top" xlink:title="The IIdBasedTimeComponentDataItem class. ">
<polygon fill="none" stroke="black" points="189.996,-114.84 189.996,-298.859 410.029,-298.859 410.029,-114.84 189.996,-114.84"/>
<text text-anchor="start" x="197.996" y="-286.859" font-family="Monaco" font-size="10.00">HydroCouple::Temporal</text>
<text text-anchor="middle" x="300.013" y="-273.524" font-family="Monaco" font-size="10.00">::IIdBasedTimeComponentDataItem</text>
<polyline fill="none" stroke="black" points="189.996,-264.189 410.029,-264.189 "/>
<text text-anchor="middle" x="300.013" y="-252.189" font-family="Monaco" font-size="10.00"> </text>
<polyline fill="none" stroke="black" points="189.996,-242.854 410.029,-242.854 "/>
<text text-anchor="start" x="197.996" y="-230.854" font-family="Monaco" font-size="10.00">+ ~IIdBasedTimeComponentDataItem()</text>
<text text-anchor="start" x="197.996" y="-217.52" font-family="Monaco" font-size="10.00">+ identifiers()</text>
<text text-anchor="start" x="197.996" y="-204.185" font-family="Monaco" font-size="10.00">+ identifierDimension()</text>
<text text-anchor="start" x="197.996" y="-190.85" font-family="Monaco" font-size="10.00">+ getValue()</text>
<text text-anchor="start" x="197.996" y="-177.515" font-family="Monaco" font-size="10.00">+ getValues()</text>
<text text-anchor="start" x="197.996" y="-164.18" font-family="Monaco" font-size="10.00">+ getValues()</text>
<text text-anchor="start" x="197.996" y="-150.845" font-family="Monaco" font-size="10.00">+ setValue()</text>
<text text-anchor="start" x="197.996" y="-137.51" font-family="Monaco" font-size="10.00">+ setValues()</text>
<text text-anchor="start" x="197.996" y="-124.175" font-family="Monaco" font-size="10.00">+ setValues()</text>
</a>
</g>
</g>
<!-- Node7&#45;&gt;Node1 -->
<g id="edge6" class="edge"><title>Node7&#45;&gt;Node1</title>
<path fill="none" stroke="midnightblue" d="M235.744,-106.335C229.309,-96.3712 223.091,-86.7431 217.483,-78.0601"/>
<polygon fill="none" stroke="midnightblue" points="232.826,-108.269 241.191,-114.77 238.706,-104.471 232.826,-108.269"/>
</g>
<!-- Node8&#45;&gt;Node7 -->
<g id="edge7" class="edge"><title>Node8&#45;&gt;Node7</title>
<path fill="none" stroke="midnightblue" d="M284.141,-325.731C285.315,-317.013 286.532,-307.976 287.746,-298.961"/>
<polygon fill="none" stroke="midnightblue" points="280.652,-325.421 282.786,-335.799 287.589,-326.355 280.652,-325.421"/>
</g>
</g>
</svg>
        <g id="navigator" transform="translate(0 0)" fill="#404254">
                <rect fill="#f2f5e9" fill-opacity="0.5" stroke="#606060" stroke-width=".5" x="0" y="0" width="60" height="60"/>
                <use id="zoomplus" xlink:href="#zoomPlus" x="17" y="9" onmousedown="handleZoom(evt,'in')"/>
                <use id="zoomminus" xlink:href="#zoomMin" x="42" y="9" onmousedown="handleZoom(evt,'out')"/>
                <use id="reset" xlink:href="#resetDef" x="30" y="36" onmousedown="handleReset()"/>
                <g id="arrowUp" xlink:href="#dirArrow" transform="translate(30 24)" onmousedown="handlePan(0,-1)">
                  <use xlink:href="#rim" fill="#404040">
                        <set attributeName="fill" to="#808080" begin="arrowUp.mouseover" end="arrowUp.mouseout"/>
                  </use>
                  <path fill="none" stroke="white" stroke-width="1.5" d="M0,-3.0v7 M-2.5,-0.5L0,-3.0L2.5,-0.5"/>
                </g>
                <g id="arrowRight" xlink:href="#dirArrow" transform="rotate(90) translate(36 -43)" onmousedown="handlePan(1,0)">
                  <use xlink:href="#rim" fill="#404040">
                        <set attributeName="fill" to="#808080" begin="arrowRight.mouseover" end="arrowRight.mouseout"/>
                  </use>
                  <path fill="none" stroke="white" stroke-width="1.5" d="M0,-3.0v7 M-2.5,-0.5L0,-3.0L2.5,-0.5"/>
                </g>
                <g id="arrowDown" xlink:href="#dirArrow" transform="rotate(180) translate(-30 -48)" onmousedown="handlePan(0,1)">
                  <use xlink:href="#rim" fill="#404040">
                        <set attributeName="fill" to="#808080" begin="arrowDown.mouseover" end="arrowDown.mouseout"/>
                  </use>
                  <path fill="none" stroke="white" stroke-width="1.5" d="M0,-3.0v7 M-2.5,-0.5L0,-3.0L2.5,-0.5"/>
                </g>
                <g id="arrowLeft" xlink:href="#dirArrow" transform="rotate(270) translate(-36 17)" onmousedown="handlePan(-1,0)">
                  <use xlink:href="#rim" fill="#404040">
                        <set attributeName="fill" to="#808080" begin="arrowLeft.mouseover" end="arrowLeft.mouseout"/>
                  </use>
                  <path fill="none" stroke="white" stroke-width="1.5" d="M0,-3.0v7 M-2.5,-0.5L0,-3.0L2.5,-0.5"/>
                </g>
        </g>
        <svg viewBox="0 0 15 15" width="100%" height="30px" preserveAspectRatio="xMaxYMin meet">
         <g id="arrow_out" transform="scale(0.3 0.3)">
          <a xlink:href="class_hydro_couple_1_1_temporal_1_1_i_id_based_time_exchange_item__coll__graph_org.svg" target="_base">
           <rect id="button" ry="5" rx="5" y="6" x="6" height="38" width="38"
                fill="#f2f5e9" fill-opacity="0.5" stroke="#606060" stroke-width="1.0"/>
           <path id="arrow"
             d="M 11.500037,31.436501 C 11.940474,20.09759 22.043105,11.32322 32.158766,21.979434 L 37.068811,17.246167 C 37.068811,17.246167 37.088388,32 37.088388,32 L 22.160133,31.978069 C 22.160133,31.978069 26.997745,27.140456 26.997745,27.140456 C 18.528582,18.264221 13.291696,25.230495 11.500037,31.436501 z"
             style="fill:#404040;"/>
          </a>
         </g>
        </svg>
</svg>
