<?xml version="1.0" encoding="UTF-8" standalone="no"?>
<!DOCTYPE svg PUBLIC "-//W3C//DTD SVG 1.1//EN"
 "http://www.w3.org/Graphics/SVG/1.1/DTD/svg11.dtd">
<!-- Generated by graphviz version 2.38.0 (20140413.2041)
 -->
<!-- Title: HydroCouple::IComponentDataItem::getValues Pages: 1 -->
<svg width="490pt" height="581pt"
 viewBox="0.00 0.00 490.07 580.67" xmlns="http://www.w3.org/2000/svg" xmlns:xlink="http://www.w3.org/1999/xlink">
<g id="graph0" class="graph" transform="scale(1 1) rotate(0) translate(4 576.672)">
<title>HydroCouple::IComponentDataItem::getValues</title>
<!-- Node1 -->
<g id="node1" class="node"><title>Node1</title>
<polygon fill="#bfbfbf" stroke="black" points="0,-278.835 0,-313.505 178.026,-313.505 178.026,-278.835 0,-278.835"/>
<text text-anchor="start" x="8" y="-301.505" font-family="Monaco" font-size="10.00">HydroCouple::IComponentData</text>
<text text-anchor="middle" x="89.0132" y="-288.17" font-family="Monaco" font-size="10.00">Item::getValues</text>
</g>
<!-- Node2 -->
<g id="node2" class="node"><title>Node2</title>
<g id="a_node2"><a xlink:href="class_hydro_couple_1_1_spatial_1_1_i_geometry_only_component_data_item.html#aedc8772b44c46b7fdaa8e86838aa39c9" target="_top" xlink:title="HydroCouple::Spatial\l::IGeometryOnlyComponentData\lItem::~IGeometryOnlyComponentDataItem">
<polygon fill="none" stroke="black" points="229.029,-524.167 229.029,-572.172 467.065,-572.172 467.065,-524.167 229.029,-524.167"/>
<text text-anchor="start" x="237.029" y="-560.172" font-family="Monaco" font-size="10.00">HydroCouple::Spatial</text>
<text text-anchor="start" x="237.029" y="-546.837" font-family="Monaco" font-size="10.00">::IGeometryOnlyComponentData</text>
<text text-anchor="middle" x="348.047" y="-533.502" font-family="Monaco" font-size="10.00">Item::~IGeometryOnlyComponentDataItem</text>
</a>
</g>
</g>
<!-- Node1&#45;&gt;Node2 -->
<g id="edge1" class="edge"><title>Node1&#45;&gt;Node2</title>
<path fill="none" stroke="midnightblue" d="M97.5975,-323.262C112.109,-369.941 148.348,-465.307 214.026,-515.17 218.669,-518.695 223.642,-521.847 228.839,-524.666"/>
<polygon fill="midnightblue" stroke="midnightblue" points="100.907,-322.115 94.6746,-313.547 94.2042,-324.131 100.907,-322.115"/>
</g>
<!-- Node3 -->
<g id="node3" class="node"><title>Node3</title>
<g id="a_node3"><a xlink:href="class_hydro_couple_1_1_spatial_1_1_i_t_i_n_only_component_data_item.html#aff6e926153401ab930e255e787b7b445" target="_top" xlink:title="HydroCouple::Spatial\l::ITINOnlyComponentDataItem\l::~ITINOnlyComponentDataItem">
<polygon fill="none" stroke="black" points="256.033,-457.167 256.033,-505.172 440.061,-505.172 440.061,-457.167 256.033,-457.167"/>
<text text-anchor="start" x="264.033" y="-493.172" font-family="Monaco" font-size="10.00">HydroCouple::Spatial</text>
<text text-anchor="start" x="264.033" y="-479.837" font-family="Monaco" font-size="10.00">::ITINOnlyComponentDataItem</text>
<text text-anchor="middle" x="348.047" y="-466.502" font-family="Monaco" font-size="10.00">::~ITINOnlyComponentDataItem</text>
</a>
</g>
</g>
<!-- Node1&#45;&gt;Node3 -->
<g id="edge2" class="edge"><title>Node1&#45;&gt;Node3</title>
<path fill="none" stroke="midnightblue" d="M104.503,-322.625C124.568,-356.717 164.06,-415.373 214.026,-447.17 226.696,-455.232 241.185,-461.385 255.832,-466.081"/>
<polygon fill="midnightblue" stroke="midnightblue" points="107.389,-320.623 99.3658,-313.703 101.322,-324.116 107.389,-320.623"/>
</g>
<!-- Node4 -->
<g id="node4" class="node"><title>Node4</title>
<g id="a_node4"><a xlink:href="class_hydro_couple_1_1_spatial_1_1_i_polyhedral_surface_only_component_data_item.html#a448e1adb7e4a6ad22bd29c04bbf691d0" target="_top" xlink:title="HydroCouple::Spatial\l::IPolyhedralSurfaceOnlyComponent\lDataItem::~IPolyhedralSurfaceOnlyComponent\lDataItem">
<polygon fill="none" stroke="black" points="214.026,-376.5 214.026,-437.84 482.067,-437.84 482.067,-376.5 214.026,-376.5"/>
<text text-anchor="start" x="222.026" y="-425.84" font-family="Monaco" font-size="10.00">HydroCouple::Spatial</text>
<text text-anchor="start" x="222.026" y="-412.505" font-family="Monaco" font-size="10.00">::IPolyhedralSurfaceOnlyComponent</text>
<text text-anchor="start" x="222.026" y="-399.17" font-family="Monaco" font-size="10.00">DataItem::~IPolyhedralSurfaceOnlyComponent</text>
<text text-anchor="middle" x="348.047" y="-385.835" font-family="Monaco" font-size="10.00">DataItem</text>
</a>
</g>
</g>
<!-- Node1&#45;&gt;Node4 -->
<g id="edge3" class="edge"><title>Node1&#45;&gt;Node4</title>
<path fill="none" stroke="midnightblue" d="M124.696,-318.884C148.971,-334.059 182.563,-353.643 214.026,-367.17 221.559,-370.408 229.437,-373.492 237.436,-376.405"/>
<polygon fill="midnightblue" stroke="midnightblue" points="126.518,-315.895 116.195,-313.512 122.779,-321.813 126.518,-315.895"/>
</g>
<!-- Node5 -->
<g id="node5" class="node"><title>Node5</title>
<g id="a_node5"><a xlink:href="class_hydro_couple_1_1_spatial_1_1_i_raster_only_component_data_item.html#ad825efb5de1e17a4c5fd43a8ca85ea32" target="_top" xlink:title="HydroCouple::Spatial\l::IRasterOnlyComponentDataItem\l::~IRasterOnlyComponentDataItem">
<polygon fill="none" stroke="black" points="247.032,-309.167 247.032,-357.172 449.062,-357.172 449.062,-309.167 247.032,-309.167"/>
<text text-anchor="start" x="255.032" y="-345.172" font-family="Monaco" font-size="10.00">HydroCouple::Spatial</text>
<text text-anchor="start" x="255.032" y="-331.837" font-family="Monaco" font-size="10.00">::IRasterOnlyComponentDataItem</text>
<text text-anchor="middle" x="348.047" y="-318.502" font-family="Monaco" font-size="10.00">::~IRasterOnlyComponentDataItem</text>
</a>
</g>
</g>
<!-- Node1&#45;&gt;Node5 -->
<g id="edge4" class="edge"><title>Node1&#45;&gt;Node5</title>
<path fill="none" stroke="midnightblue" d="M188.054,-310.283C207.257,-313.047 227.422,-315.95 246.699,-318.725"/>
<polygon fill="midnightblue" stroke="midnightblue" points="188.507,-306.812 178.11,-308.851 187.509,-313.741 188.507,-306.812"/>
</g>
<!-- Node6 -->
<g id="node6" class="node"><title>Node6</title>
<g id="a_node6"><a xlink:href="class_hydro_couple_1_1_spatial_1_1_i_regular_grid2_d_only_component_data_item.html#af025f0bf508052e70e6f41a2a140d0c3" target="_top" xlink:title="~IRegularGrid2DComponentItem. ">
<polygon fill="none" stroke="black" points="226.028,-228.5 226.028,-289.84 470.065,-289.84 470.065,-228.5 226.028,-228.5"/>
<text text-anchor="start" x="234.028" y="-277.84" font-family="Monaco" font-size="10.00">HydroCouple::Spatial</text>
<text text-anchor="start" x="234.028" y="-264.505" font-family="Monaco" font-size="10.00">::IRegularGrid2DOnlyComponent</text>
<text text-anchor="start" x="234.028" y="-251.17" font-family="Monaco" font-size="10.00">DataItem::~IRegularGrid2DOnlyComponent</text>
<text text-anchor="middle" x="348.047" y="-237.835" font-family="Monaco" font-size="10.00">DataItem</text>
</a>
</g>
</g>
<!-- Node1&#45;&gt;Node6 -->
<g id="edge5" class="edge"><title>Node1&#45;&gt;Node6</title>
<path fill="none" stroke="midnightblue" d="M188.332,-282.017C200.624,-280.248 213.306,-278.422 225.893,-276.61"/>
<polygon fill="midnightblue" stroke="midnightblue" points="187.509,-278.599 178.11,-283.488 188.507,-285.528 187.509,-278.599"/>
</g>
<!-- Node7 -->
<g id="node7" class="node"><title>Node7</title>
<g id="a_node7"><a xlink:href="class_hydro_couple_1_1_spatial_1_1_i_regular_grid3_d_only_component_data_item.html#a1afea1a453d373e1c4c7b273e7da256d" target="_top" xlink:title="HydroCouple::Spatial\l::IRegularGrid3DOnlyComponent\lDataItem::~IRegularGrid3DOnlyComponent\lDataItem">
<polygon fill="none" stroke="black" points="226.028,-148.5 226.028,-209.84 470.065,-209.84 470.065,-148.5 226.028,-148.5"/>
<text text-anchor="start" x="234.028" y="-197.84" font-family="Monaco" font-size="10.00">HydroCouple::Spatial</text>
<text text-anchor="start" x="234.028" y="-184.505" font-family="Monaco" font-size="10.00">::IRegularGrid3DOnlyComponent</text>
<text text-anchor="start" x="234.028" y="-171.17" font-family="Monaco" font-size="10.00">DataItem::~IRegularGrid3DOnlyComponent</text>
<text text-anchor="middle" x="348.047" y="-157.835" font-family="Monaco" font-size="10.00">DataItem</text>
</a>
</g>
</g>
<!-- Node1&#45;&gt;Node7 -->
<g id="edge6" class="edge"><title>Node1&#45;&gt;Node7</title>
<path fill="none" stroke="midnightblue" d="M122.574,-272.628C146.846,-255.922 181.315,-233.93 214.026,-219.17 221.28,-215.897 228.874,-212.803 236.6,-209.896"/>
<polygon fill="midnightblue" stroke="midnightblue" points="120.32,-269.933 114.115,-278.521 124.321,-275.677 120.32,-269.933"/>
</g>
<!-- Node8 -->
<g id="node8" class="node"><title>Node8</title>
<g id="a_node8"><a xlink:href="class_hydro_couple_1_1_temporal_1_1_i_time_series_component_data_item.html#a6bcc4ce7ee23033ee81ee82ba6b4c902" target="_top" xlink:title="HydroCouple::Temporal\l::ITimeSeriesComponentDataItem\l::~ITimeSeriesComponentDataItem">
<polygon fill="none" stroke="black" points="247.032,-81.1675 247.032,-129.172 449.062,-129.172 449.062,-81.1675 247.032,-81.1675"/>
<text text-anchor="start" x="255.032" y="-117.172" font-family="Monaco" font-size="10.00">HydroCouple::Temporal</text>
<text text-anchor="start" x="255.032" y="-103.837" font-family="Monaco" font-size="10.00">::ITimeSeriesComponentDataItem</text>
<text text-anchor="middle" x="348.047" y="-90.5024" font-family="Monaco" font-size="10.00">::~ITimeSeriesComponentDataItem</text>
</a>
</g>
</g>
<!-- Node1&#45;&gt;Node8 -->
<g id="edge7" class="edge"><title>Node1&#45;&gt;Node8</title>
<path fill="none" stroke="midnightblue" d="M103.773,-269.489C123.392,-234.166 162.778,-172.472 214.026,-139.17 224.12,-132.611 235.407,-127.317 247.025,-123.043"/>
<polygon fill="midnightblue" stroke="midnightblue" points="100.464,-268.249 98.7696,-278.708 106.616,-271.588 100.464,-268.249"/>
</g>
<!-- Node9 -->
<g id="node9" class="node"><title>Node9</title>
<g id="a_node9"><a xlink:href="class_hydro_couple_1_1_temporal_1_1_i_time_series_id_based_component_data_item.html#abb925e354d18f8affe231481082c0551" target="_top" xlink:title="HydroCouple::Temporal\l::ITimeSeriesIdBasedComponent\lDataItem::~ITimeSeriesIdBasedComponent\lDataItem">
<polygon fill="none" stroke="black" points="226.028,-0.5 226.028,-61.8398 470.065,-61.8398 470.065,-0.5 226.028,-0.5"/>
<text text-anchor="start" x="234.028" y="-49.8398" font-family="Monaco" font-size="10.00">HydroCouple::Temporal</text>
<text text-anchor="start" x="234.028" y="-36.5049" font-family="Monaco" font-size="10.00">::ITimeSeriesIdBasedComponent</text>
<text text-anchor="start" x="234.028" y="-23.1699" font-family="Monaco" font-size="10.00">DataItem::~ITimeSeriesIdBasedComponent</text>
<text text-anchor="middle" x="348.047" y="-9.83496" font-family="Monaco" font-size="10.00">DataItem</text>
</a>
</g>
</g>
<!-- Node1&#45;&gt;Node9 -->
<g id="edge8" class="edge"><title>Node1&#45;&gt;Node9</title>
<path fill="none" stroke="midnightblue" d="M97.6393,-268.683C112.215,-221.258 148.55,-124.073 214.026,-71.1699 218.153,-67.8357 222.553,-64.7791 227.148,-61.9771"/>
<polygon fill="midnightblue" stroke="midnightblue" points="94.2011,-267.965 94.7025,-278.548 100.91,-269.963 94.2011,-267.965"/>
</g>
</g>
</svg>
