<?xml version="1.0" encoding="UTF-8" standalone="no"?>
<!DOCTYPE svg PUBLIC "-//W3C//DTD SVG 1.1//EN"
 "http://www.w3.org/Graphics/SVG/1.1/DTD/svg11.dtd">
<!-- Generated by graphviz version 2.38.0 (20140413.2041)
 -->
<!-- Title: AbstractModelComponent Pages: 1 -->
<svg width="319pt" height="1077pt"
 viewBox="0.00 0.00 319.02 1077.10" xmlns="http://www.w3.org/2000/svg" xmlns:xlink="http://www.w3.org/1999/xlink">
<g id="graph0" class="graph" transform="scale(1 1) rotate(0) translate(4 1073.1)">
<title>AbstractModelComponent</title>
<polygon fill="white" stroke="none" points="-4,4 -4,-1073.1 315.022,-1073.1 315.022,4 -4,4"/>
<!-- Node1 -->
<g id="node1" class="node"><title>Node1</title>
<polygon fill="#bfbfbf" stroke="black" points="50.9956,-0.5 50.9956,-357.874 229.022,-357.874 229.022,-0.5 50.9956,-0.5"/>
<text text-anchor="middle" x="140.009" y="-345.874" font-family="Monaco" font-size="10.00">AbstractModelComponent</text>
<polyline fill="none" stroke="black" points="50.9956,-336.539 229.022,-336.539 "/>
<text text-anchor="start" x="58.9956" y="-324.539" font-family="Monaco" font-size="10.00">+ ComponentInfo</text>
<text text-anchor="start" x="58.9956" y="-311.204" font-family="Monaco" font-size="10.00">+ Parent</text>
<text text-anchor="start" x="58.9956" y="-297.869" font-family="Monaco" font-size="10.00">+ Arguments</text>
<text text-anchor="start" x="58.9956" y="-284.534" font-family="Monaco" font-size="10.00">+ Status</text>
<text text-anchor="start" x="58.9956" y="-271.199" font-family="Monaco" font-size="10.00">+ Inputs</text>
<text text-anchor="start" x="58.9956" y="-257.864" font-family="Monaco" font-size="10.00">+ Outputs</text>
<text text-anchor="start" x="58.9956" y="-244.529" font-family="Monaco" font-size="10.00">+ AdaptedOutputFactories</text>
<text text-anchor="start" x="58.9956" y="-231.194" font-family="Monaco" font-size="10.00"># m_children</text>
<text text-anchor="start" x="58.9956" y="-217.859" font-family="Monaco" font-size="10.00"># m_status</text>
<text text-anchor="start" x="58.9956" y="-204.524" font-family="Monaco" font-size="10.00"># m_inputs</text>
<text text-anchor="start" x="58.9956" y="-191.189" font-family="Monaco" font-size="10.00"># m_outputs</text>
<text text-anchor="start" x="58.9956" y="-177.854" font-family="Monaco" font-size="10.00"># m_adaptedOutputFactories</text>
<text text-anchor="start" x="58.9956" y="-164.52" font-family="Monaco" font-size="10.00"># m_arguments</text>
<polyline fill="none" stroke="black" points="50.9956,-155.185 229.022,-155.185 "/>
<text text-anchor="start" x="58.9956" y="-143.185" font-family="Monaco" font-size="10.00">+ AbstractModelComponent()</text>
<text text-anchor="start" x="58.9956" y="-129.85" font-family="Monaco" font-size="10.00">+ AbstractModelComponent()</text>
<text text-anchor="start" x="58.9956" y="-116.515" font-family="Monaco" font-size="10.00">+ ~AbstractModelComponent()</text>
<text text-anchor="start" x="58.9956" y="-103.18" font-family="Monaco" font-size="10.00">+ componentInfo()</text>
<text text-anchor="start" x="58.9956" y="-89.8447" font-family="Monaco" font-size="10.00">+ parent()</text>
<text text-anchor="start" x="58.9956" y="-76.5098" font-family="Monaco" font-size="10.00">+ clone()</text>
<text text-anchor="start" x="58.9956" y="-63.1748" font-family="Monaco" font-size="10.00">+ children()</text>
<text text-anchor="start" x="58.9956" y="-49.8398" font-family="Monaco" font-size="10.00">+ arguments()</text>
<text text-anchor="start" x="58.9956" y="-36.5049" font-family="Monaco" font-size="10.00">+ status()</text>
<text text-anchor="start" x="58.9956" y="-23.1699" font-family="Monaco" font-size="10.00">+ inputs()</text>
<text text-anchor="start" x="58.9956" y="-9.83496" font-family="Monaco" font-size="10.00">and 7 more...</text>
</g>
<!-- Node2 -->
<g id="node2" class="node"><title>Node2</title>
<g id="a_node2"><a xlink:href="class_identity.html" target="_top" xlink:title="The Identity class is an implementation of the HydroCouple::IIdentity of the HydroCouple interface de...">
<polygon fill="white" stroke="black" points="15.0024,-434.879 15.0024,-552.224 109.015,-552.224 109.015,-434.879 15.0024,-434.879"/>
<text text-anchor="middle" x="62.0088" y="-540.224" font-family="Monaco" font-size="10.00">Identity</text>
<polyline fill="none" stroke="black" points="15.0024,-530.889 109.015,-530.889 "/>
<text text-anchor="start" x="23.0024" y="-518.889" font-family="Monaco" font-size="10.00">+ Id</text>
<polyline fill="none" stroke="black" points="15.0024,-509.554 109.015,-509.554 "/>
<text text-anchor="start" x="23.0024" y="-497.554" font-family="Monaco" font-size="10.00">+ Identity()</text>
<text text-anchor="start" x="23.0024" y="-484.219" font-family="Monaco" font-size="10.00">+ Identity()</text>
<text text-anchor="start" x="23.0024" y="-470.884" font-family="Monaco" font-size="10.00">+ ~Identity()</text>
<text text-anchor="start" x="23.0024" y="-457.549" font-family="Monaco" font-size="10.00">+ id()</text>
<text text-anchor="start" x="23.0024" y="-444.214" font-family="Monaco" font-size="10.00"># setId()</text>
</a>
</g>
</g>
<!-- Node2&#45;&gt;Node1 -->
<g id="edge1" class="edge"><title>Node2&#45;&gt;Node1</title>
<path fill="none" stroke="midnightblue" d="M78.9713,-424.622C83.9798,-404.565 89.7102,-381.616 95.6086,-357.995"/>
<polygon fill="none" stroke="midnightblue" points="75.5242,-423.98 76.4972,-434.53 82.3157,-425.676 75.5242,-423.98"/>
</g>
<!-- Node3 -->
<g id="node3" class="node"><title>Node3</title>
<g id="a_node3"><a xlink:href="class_description.html" target="_top" xlink:title="The Description class. ">
<polygon fill="white" stroke="black" points="0,-629.229 0,-813.248 124.018,-813.248 124.018,-629.229 0,-629.229"/>
<text text-anchor="middle" x="62.0088" y="-801.248" font-family="Monaco" font-size="10.00">Description</text>
<polyline fill="none" stroke="black" points="0,-791.913 124.018,-791.913 "/>
<text text-anchor="start" x="8" y="-779.913" font-family="Monaco" font-size="10.00">+ Caption</text>
<text text-anchor="start" x="8" y="-766.578" font-family="Monaco" font-size="10.00">+ Description</text>
<text text-anchor="start" x="8" y="-753.243" font-family="Monaco" font-size="10.00"># m_caption</text>
<text text-anchor="start" x="8" y="-739.908" font-family="Monaco" font-size="10.00"># m_description</text>
<polyline fill="none" stroke="black" points="0,-730.573 124.018,-730.573 "/>
<text text-anchor="start" x="8" y="-718.573" font-family="Monaco" font-size="10.00">+ Description()</text>
<text text-anchor="start" x="8" y="-705.238" font-family="Monaco" font-size="10.00">+ Description()</text>
<text text-anchor="start" x="8" y="-691.903" font-family="Monaco" font-size="10.00">+ ~Description()</text>
<text text-anchor="start" x="8" y="-678.568" font-family="Monaco" font-size="10.00">+ getCaption()</text>
<text text-anchor="start" x="8" y="-665.233" font-family="Monaco" font-size="10.00">+ setCaption()</text>
<text text-anchor="start" x="8" y="-651.898" font-family="Monaco" font-size="10.00">+ getDescription()</text>
<text text-anchor="start" x="8" y="-638.563" font-family="Monaco" font-size="10.00">+ setDescription()</text>
</a>
</g>
</g>
<!-- Node3&#45;&gt;Node2 -->
<g id="edge2" class="edge"><title>Node3&#45;&gt;Node2</title>
<path fill="none" stroke="midnightblue" d="M62.0088,-618.997C62.0088,-596.131 62.0088,-572.623 62.0088,-552.282"/>
<polygon fill="none" stroke="midnightblue" points="58.5089,-619.093 62.0088,-629.093 65.5089,-619.093 58.5089,-619.093"/>
</g>
<!-- Node4 -->
<g id="node4" class="node"><title>Node4</title>
<polygon fill="white" stroke="#bfbfbf" points="33.0054,-876.918 33.0054,-940.923 91.0122,-940.923 91.0122,-876.918 33.0054,-876.918"/>
<text text-anchor="middle" x="62.0088" y="-928.923" font-family="Monaco" font-size="10.00">QObject</text>
<polyline fill="none" stroke="#bfbfbf" points="33.0054,-919.588 91.0122,-919.588 "/>
<text text-anchor="middle" x="62.0088" y="-907.588" font-family="Monaco" font-size="10.00"> </text>
<polyline fill="none" stroke="#bfbfbf" points="33.0054,-898.253 91.0122,-898.253 "/>
<text text-anchor="middle" x="62.0088" y="-886.253" font-family="Monaco" font-size="10.00"> </text>
</g>
<!-- Node4&#45;&gt;Node3 -->
<g id="edge3" class="edge"><title>Node4&#45;&gt;Node3</title>
<path fill="none" stroke="midnightblue" d="M62.0088,-866.437C62.0088,-850.692 62.0088,-832.072 62.0088,-813.535"/>
<polygon fill="none" stroke="midnightblue" points="58.5089,-866.841 62.0088,-876.841 65.5089,-866.841 58.5089,-866.841"/>
</g>
<!-- Node5 -->
<g id="node5" class="node"><title>Node5</title>
<g id="a_node5"><a xlink:href="class_hydro_couple_1_1_i_description.html" target="_top" xlink:title="IDescription interface class provides descriptive information on a HydroCouple object. ">
<polygon fill="white" stroke="black" points="120.997,-850.248 120.997,-967.593 287.021,-967.593 287.021,-850.248 120.997,-850.248"/>
<text text-anchor="middle" x="204.009" y="-955.593" font-family="Monaco" font-size="10.00">HydroCouple::IDescription</text>
<polyline fill="none" stroke="black" points="120.997,-946.258 287.021,-946.258 "/>
<text text-anchor="middle" x="204.009" y="-934.258" font-family="Monaco" font-size="10.00"> </text>
<polyline fill="none" stroke="black" points="120.997,-924.923 287.021,-924.923 "/>
<text text-anchor="start" x="128.997" y="-912.923" font-family="Monaco" font-size="10.00">+ ~IDescription()</text>
<text text-anchor="start" x="128.997" y="-899.588" font-family="Monaco" font-size="10.00">+ getCaption()</text>
<text text-anchor="start" x="128.997" y="-886.253" font-family="Monaco" font-size="10.00">+ setCaption()</text>
<text text-anchor="start" x="128.997" y="-872.918" font-family="Monaco" font-size="10.00">+ getDescription()</text>
<text text-anchor="start" x="128.997" y="-859.583" font-family="Monaco" font-size="10.00">+ setDescription()</text>
</a>
</g>
</g>
<!-- Node5&#45;&gt;Node3 -->
<g id="edge4" class="edge"><title>Node5&#45;&gt;Node3</title>
<path fill="none" stroke="midnightblue" d="M153.662,-842.086C144.102,-829.584 133.994,-816.368 124.119,-803.455"/>
<polygon fill="none" stroke="midnightblue" points="151.003,-844.37 159.857,-850.187 156.563,-840.118 151.003,-844.37"/>
</g>
<!-- Node7 -->
<g id="node7" class="node"><title>Node7</title>
<g id="a_node7"><a xlink:href="class_hydro_couple_1_1_i_identity.html" target="_top" xlink:title="IIdentity interface class defines a method to get the Id of an HydroCouple entity. ">
<polygon fill="white" stroke="black" points="141.998,-682.568 141.998,-759.908 290.02,-759.908 290.02,-682.568 141.998,-682.568"/>
<text text-anchor="middle" x="216.009" y="-747.908" font-family="Monaco" font-size="10.00">HydroCouple::IIdentity</text>
<polyline fill="none" stroke="black" points="141.998,-738.573 290.02,-738.573 "/>
<text text-anchor="middle" x="216.009" y="-726.573" font-family="Monaco" font-size="10.00"> </text>
<polyline fill="none" stroke="black" points="141.998,-717.238 290.02,-717.238 "/>
<text text-anchor="start" x="149.998" y="-705.238" font-family="Monaco" font-size="10.00">+ ~IIdentity()</text>
<text text-anchor="start" x="149.998" y="-691.903" font-family="Monaco" font-size="10.00">+ id()</text>
</a>
</g>
</g>
<!-- Node5&#45;&gt;Node7 -->
<g id="edge7" class="edge"><title>Node5&#45;&gt;Node7</title>
<path fill="none" stroke="midnightblue" d="M208.398,-840.011C210.142,-813.016 212.083,-782.984 213.568,-760.003"/>
<polygon fill="none" stroke="midnightblue" points="204.892,-839.982 207.74,-850.187 211.878,-840.434 204.892,-839.982"/>
</g>
<!-- Node6 -->
<g id="node6" class="node"><title>Node6</title>
<g id="a_node6"><a xlink:href="class_hydro_couple_1_1_i_property_changed.html" target="_top" xlink:title="IPropertyChanged interface is used to emit signal/event when a property of an object changes...">
<polygon fill="white" stroke="black" points="108.995,-1004.59 108.995,-1068.6 299.023,-1068.6 299.023,-1004.59 108.995,-1004.59"/>
<text text-anchor="middle" x="204.009" y="-1056.6" font-family="Monaco" font-size="10.00">HydroCouple::IPropertyChanged</text>
<polyline fill="none" stroke="black" points="108.995,-1047.26 299.023,-1047.26 "/>
<text text-anchor="middle" x="204.009" y="-1035.26" font-family="Monaco" font-size="10.00"> </text>
<polyline fill="none" stroke="black" points="108.995,-1025.93 299.023,-1025.93 "/>
<text text-anchor="start" x="116.995" y="-1013.93" font-family="Monaco" font-size="10.00">+ ~IPropertyChanged()</text>
</a>
</g>
</g>
<!-- Node6&#45;&gt;Node5 -->
<g id="edge5" class="edge"><title>Node6&#45;&gt;Node5</title>
<path fill="none" stroke="midnightblue" d="M204.009,-994.272C204.009,-985.887 204.009,-976.921 204.009,-968.079"/>
<polygon fill="none" stroke="midnightblue" points="200.509,-994.529 204.009,-1004.53 207.509,-994.53 200.509,-994.529"/>
</g>
<!-- Node7&#45;&gt;Node2 -->
<g id="edge6" class="edge"><title>Node7&#45;&gt;Node2</title>
<path fill="none" stroke="midnightblue" d="M178.524,-674.633C159.571,-650.805 136.69,-620.823 118.009,-592.729 109.534,-579.984 101.025,-565.891 93.2887,-552.455"/>
<polygon fill="none" stroke="midnightblue" points="175.81,-676.843 184.789,-682.467 181.277,-672.471 175.81,-676.843"/>
</g>
<!-- Node8 -->
<g id="node8" class="node"><title>Node8</title>
<g id="a_node8"><a xlink:href="class_hydro_couple_1_1_i_model_component.html" target="_top" xlink:title="IModelComponent interface is the core interface in the HydroCouple standard defining a model componen...">
<polygon fill="white" stroke="black" points="126.995,-394.874 126.995,-592.229 311.022,-592.229 311.022,-394.874 126.995,-394.874"/>
<text text-anchor="middle" x="219.009" y="-580.229" font-family="Monaco" font-size="10.00">HydroCouple::IModelComponent</text>
<polyline fill="none" stroke="black" points="126.995,-570.894 311.022,-570.894 "/>
<text text-anchor="middle" x="219.009" y="-558.894" font-family="Monaco" font-size="10.00"> </text>
<polyline fill="none" stroke="black" points="126.995,-549.559 311.022,-549.559 "/>
<text text-anchor="start" x="134.995" y="-537.559" font-family="Monaco" font-size="10.00">+ ~IModelComponent()</text>
<text text-anchor="start" x="134.995" y="-524.224" font-family="Monaco" font-size="10.00">+ componentInfo()</text>
<text text-anchor="start" x="134.995" y="-510.889" font-family="Monaco" font-size="10.00">+ parent()</text>
<text text-anchor="start" x="134.995" y="-497.554" font-family="Monaco" font-size="10.00">+ clone()</text>
<text text-anchor="start" x="134.995" y="-484.219" font-family="Monaco" font-size="10.00">+ children()</text>
<text text-anchor="start" x="134.995" y="-470.884" font-family="Monaco" font-size="10.00">+ arguments()</text>
<text text-anchor="start" x="134.995" y="-457.549" font-family="Monaco" font-size="10.00">+ status()</text>
<text text-anchor="start" x="134.995" y="-444.214" font-family="Monaco" font-size="10.00">+ inputs()</text>
<text text-anchor="start" x="134.995" y="-430.879" font-family="Monaco" font-size="10.00">+ outputs()</text>
<text text-anchor="start" x="134.995" y="-417.544" font-family="Monaco" font-size="10.00">+ adaptedOutputFactories()</text>
<text text-anchor="start" x="134.995" y="-404.209" font-family="Monaco" font-size="10.00">and 6 more...</text>
</a>
</g>
</g>
<!-- Node7&#45;&gt;Node8 -->
<g id="edge9" class="edge"><title>Node7&#45;&gt;Node8</title>
<path fill="none" stroke="midnightblue" d="M216.648,-672.173C216.957,-648.869 217.341,-619.992 217.709,-592.342"/>
<polygon fill="none" stroke="midnightblue" points="213.144,-672.418 216.511,-682.463 220.144,-672.511 213.144,-672.418"/>
</g>
<!-- Node8&#45;&gt;Node1 -->
<g id="edge8" class="edge"><title>Node8&#45;&gt;Node1</title>
<path fill="none" stroke="midnightblue" d="M191.752,-384.778C189.534,-376.01 187.26,-367.017 184.96,-357.924"/>
<polygon fill="none" stroke="midnightblue" points="188.384,-385.738 194.229,-394.574 195.171,-384.021 188.384,-385.738"/>
</g>
</g>
</svg>
