<?xml version="1.0" encoding="UTF-8" standalone="no"?>
<!DOCTYPE svg PUBLIC "-//W3C//DTD SVG 1.1//EN"
 "http://www.w3.org/Graphics/SVG/1.1/DTD/svg11.dtd">
<!-- Generated by graphviz version 2.38.0 (20140413.2041)
 -->
<!-- Title: HydroCouple::Temporal::ITimeSeriesIdBasedComponentDataItem::~ITimeSeriesIdBasedComponentDataItem Pages: 1 -->
<svg width="466pt" height="206pt"
 viewBox="0.00 0.00 466.06 205.67" xmlns="http://www.w3.org/2000/svg" xmlns:xlink="http://www.w3.org/1999/xlink">
<g id="graph0" class="graph" transform="scale(1 1) rotate(0) translate(4 201.67)">
<title>HydroCouple::Temporal::ITimeSeriesIdBasedComponentDataItem::~ITimeSeriesIdBasedComponentDataItem</title>
<!-- Node1 -->
<g id="node1" class="node"><title>Node1</title>
<polygon fill="#bfbfbf" stroke="black" points="0,-68.165 0,-129.505 244.037,-129.505 244.037,-68.165 0,-68.165"/>
<text text-anchor="start" x="8" y="-117.505" font-family="Monaco" font-size="10.00">HydroCouple::Temporal</text>
<text text-anchor="start" x="8" y="-104.17" font-family="Monaco" font-size="10.00">::ITimeSeriesIdBasedComponent</text>
<text text-anchor="start" x="8" y="-90.835" font-family="Monaco" font-size="10.00">DataItem::~ITimeSeriesIdBasedComponent</text>
<text text-anchor="middle" x="122.019" y="-77.5" font-family="Monaco" font-size="10.00">DataItem</text>
</g>
<!-- Node2 -->
<g id="node2" class="node"><title>Node2</title>
<g id="a_node2"><a xlink:href="class_hydro_couple_1_1_i_component_data_item.html#a652b695e108f9e3a04f96f1207014b5f" target="_top" xlink:title="Gets a single value for given dimension indexes specified. ">
<polygon fill="none" stroke="black" points="280.037,-162.5 280.037,-197.17 458.063,-197.17 458.063,-162.5 280.037,-162.5"/>
<text text-anchor="start" x="288.037" y="-185.17" font-family="Monaco" font-size="10.00">HydroCouple::IComponentData</text>
<text text-anchor="middle" x="369.05" y="-171.835" font-family="Monaco" font-size="10.00">Item::getValue</text>
</a>
</g>
</g>
<!-- Node1&#45;&gt;Node2 -->
<g id="edge1" class="edge"><title>Node1&#45;&gt;Node2</title>
<path fill="none" stroke="midnightblue" d="M210.873,-129.63C233.369,-137.356 257.558,-145.524 280.037,-152.835 286.573,-154.961 293.396,-157.134 300.226,-159.279"/>
<polygon fill="midnightblue" stroke="midnightblue" points="299.616,-162.755 310.204,-162.393 301.701,-156.073 299.616,-162.755"/>
</g>
<!-- Node3 -->
<g id="node3" class="node"><title>Node3</title>
<g id="a_node3"><a xlink:href="class_hydro_couple_1_1_i_component_data_item.html#aed149c453986ae14c8365ee7fa7bed3d" target="_top" xlink:title="Gets a multi&#45;dimensional array of values for given dimension indexes and size for a hyperslab...">
<polygon fill="none" stroke="black" points="280.037,-108.5 280.037,-143.17 458.063,-143.17 458.063,-108.5 280.037,-108.5"/>
<text text-anchor="start" x="288.037" y="-131.17" font-family="Monaco" font-size="10.00">HydroCouple::IComponentData</text>
<text text-anchor="middle" x="369.05" y="-117.835" font-family="Monaco" font-size="10.00">Item::getValues</text>
</a>
</g>
</g>
<!-- Node1&#45;&gt;Node3 -->
<g id="edge2" class="edge"><title>Node1&#45;&gt;Node3</title>
<path fill="none" stroke="midnightblue" d="M244.099,-112.177C252.671,-113.121 261.252,-114.067 269.675,-114.995"/>
<polygon fill="midnightblue" stroke="midnightblue" points="269.535,-118.501 279.859,-116.117 270.302,-111.543 269.535,-118.501"/>
</g>
<!-- Node4 -->
<g id="node4" class="node"><title>Node4</title>
<g id="a_node4"><a xlink:href="class_hydro_couple_1_1_i_component_data_item.html#a0d2d2c003357ae04bd78c4fc7312c47c" target="_top" xlink:title="Sets a single value for given dimension indexes specified. ">
<polygon fill="none" stroke="black" points="280.037,-54.5 280.037,-89.1699 458.063,-89.1699 458.063,-54.5 280.037,-54.5"/>
<text text-anchor="start" x="288.037" y="-77.1699" font-family="Monaco" font-size="10.00">HydroCouple::IComponentData</text>
<text text-anchor="middle" x="369.05" y="-63.835" font-family="Monaco" font-size="10.00">Item::setValue</text>
</a>
</g>
</g>
<!-- Node1&#45;&gt;Node4 -->
<g id="edge3" class="edge"><title>Node1&#45;&gt;Node4</title>
<path fill="none" stroke="midnightblue" d="M244.099,-85.4932C252.671,-84.5486 261.252,-83.6031 269.675,-82.675"/>
<polygon fill="midnightblue" stroke="midnightblue" points="270.302,-86.1271 279.859,-81.5528 269.535,-79.1692 270.302,-86.1271"/>
</g>
<!-- Node5 -->
<g id="node5" class="node"><title>Node5</title>
<g id="a_node5"><a xlink:href="class_hydro_couple_1_1_i_component_data_item.html#ab51166edc999587d0427d366389eb5ad" target="_top" xlink:title="Sets a multi&#45;dimensional array of values for given dimension indexes and size for a hyperslab...">
<polygon fill="none" stroke="black" points="280.037,-0.5 280.037,-35.1699 458.063,-35.1699 458.063,-0.5 280.037,-0.5"/>
<text text-anchor="start" x="288.037" y="-23.1699" font-family="Monaco" font-size="10.00">HydroCouple::IComponentData</text>
<text text-anchor="middle" x="369.05" y="-9.83496" font-family="Monaco" font-size="10.00">Item::setValues</text>
</a>
</g>
</g>
<!-- Node1&#45;&gt;Node5 -->
<g id="edge4" class="edge"><title>Node1&#45;&gt;Node5</title>
<path fill="none" stroke="midnightblue" d="M210.873,-68.0395C233.369,-60.3139 257.558,-52.1461 280.037,-44.835 286.573,-42.7093 293.396,-40.536 300.226,-38.391"/>
<polygon fill="midnightblue" stroke="midnightblue" points="301.701,-41.5972 310.204,-35.2774 299.616,-34.915 301.701,-41.5972"/>
</g>
</g>
</svg>
