<?xml version="1.0" encoding="UTF-8" standalone="no"?>
<!DOCTYPE svg PUBLIC "-//W3C//DTD SVG 1.1//EN"
 "http://www.w3.org/Graphics/SVG/1.1/DTD/svg11.dtd">
<!-- Generated by graphviz version 2.38.0 (20140413.2041)
 -->
<!-- Title: ComponentInfo Pages: 1 -->
<svg width="313pt" height="1144pt"
 viewBox="0.00 0.00 313.02 1143.77" xmlns="http://www.w3.org/2000/svg" xmlns:xlink="http://www.w3.org/1999/xlink">
<g id="graph0" class="graph" transform="scale(1 1) rotate(0) translate(4 1139.77)">
<title>ComponentInfo</title>
<polygon fill="white" stroke="none" points="-4,4 -4,-1139.77 309.022,-1139.77 309.022,4 -4,4"/>
<!-- Node1 -->
<g id="node1" class="node"><title>Node1</title>
<polygon fill="#bfbfbf" stroke="black" points="64.998,-0.5 64.998,-384.544 213.02,-384.544 213.02,-0.5 64.998,-0.5"/>
<text text-anchor="middle" x="139.009" y="-372.544" font-family="Monaco" font-size="10.00">ComponentInfo</text>
<polyline fill="none" stroke="black" points="64.998,-363.209 213.02,-363.209 "/>
<text text-anchor="start" x="72.998" y="-351.209" font-family="Monaco" font-size="10.00"># m_name</text>
<text text-anchor="start" x="72.998" y="-337.874" font-family="Monaco" font-size="10.00"># m_iconFilePath</text>
<text text-anchor="start" x="72.998" y="-324.539" font-family="Monaco" font-size="10.00"># m_vendor</text>
<text text-anchor="start" x="72.998" y="-311.204" font-family="Monaco" font-size="10.00"># m_license</text>
<text text-anchor="start" x="72.998" y="-297.869" font-family="Monaco" font-size="10.00"># m_copyright</text>
<text text-anchor="start" x="72.998" y="-284.534" font-family="Monaco" font-size="10.00"># m_url</text>
<text text-anchor="start" x="72.998" y="-271.199" font-family="Monaco" font-size="10.00"># m_email</text>
<text text-anchor="start" x="72.998" y="-257.864" font-family="Monaco" font-size="10.00"># m_version</text>
<text text-anchor="start" x="72.998" y="-244.529" font-family="Monaco" font-size="10.00"># m_category</text>
<text text-anchor="start" x="72.998" y="-231.194" font-family="Monaco" font-size="10.00"># m_filePath</text>
<text text-anchor="start" x="72.998" y="-217.859" font-family="Monaco" font-size="10.00"># m_publications</text>
<polyline fill="none" stroke="black" points="64.998,-208.524 213.02,-208.524 "/>
<text text-anchor="start" x="72.998" y="-196.524" font-family="Monaco" font-size="10.00">+ ComponentInfo()</text>
<text text-anchor="start" x="72.998" y="-183.189" font-family="Monaco" font-size="10.00">+ ~ComponentInfo()</text>
<text text-anchor="start" x="72.998" y="-169.854" font-family="Monaco" font-size="10.00">+ name()</text>
<text text-anchor="start" x="72.998" y="-156.52" font-family="Monaco" font-size="10.00">+ libraryFilePath()</text>
<text text-anchor="start" x="72.998" y="-143.185" font-family="Monaco" font-size="10.00">+ setLibraryFilePath()</text>
<text text-anchor="start" x="72.998" y="-129.85" font-family="Monaco" font-size="10.00">+ iconFilePath()</text>
<text text-anchor="start" x="72.998" y="-116.515" font-family="Monaco" font-size="10.00">+ vendor()</text>
<text text-anchor="start" x="72.998" y="-103.18" font-family="Monaco" font-size="10.00">+ publications()</text>
<text text-anchor="start" x="72.998" y="-89.8447" font-family="Monaco" font-size="10.00">+ license()</text>
<text text-anchor="start" x="72.998" y="-76.5098" font-family="Monaco" font-size="10.00">+ copyright()</text>
<text text-anchor="start" x="72.998" y="-63.1748" font-family="Monaco" font-size="10.00">+ url()</text>
<text text-anchor="start" x="72.998" y="-49.8398" font-family="Monaco" font-size="10.00">+ email()</text>
<text text-anchor="start" x="72.998" y="-36.5049" font-family="Monaco" font-size="10.00">+ version()</text>
<text text-anchor="start" x="72.998" y="-23.1699" font-family="Monaco" font-size="10.00">+ category()</text>
<text text-anchor="start" x="72.998" y="-9.83496" font-family="Monaco" font-size="10.00">+ hasValidLicense()</text>
</g>
<!-- Node2 -->
<g id="node2" class="node"><title>Node2</title>
<g id="a_node2"><a xlink:href="class_identity.html" target="_top" xlink:title="The Identity class is an implementation of the HydroCouple::IIdentity of the HydroCouple interface de...">
<polygon fill="white" stroke="black" points="15.0024,-481.551 15.0024,-598.896 109.015,-598.896 109.015,-481.551 15.0024,-481.551"/>
<text text-anchor="middle" x="62.0088" y="-586.896" font-family="Monaco" font-size="10.00">Identity</text>
<polyline fill="none" stroke="black" points="15.0024,-577.561 109.015,-577.561 "/>
<text text-anchor="start" x="23.0024" y="-565.561" font-family="Monaco" font-size="10.00">+ Id</text>
<polyline fill="none" stroke="black" points="15.0024,-556.226 109.015,-556.226 "/>
<text text-anchor="start" x="23.0024" y="-544.226" font-family="Monaco" font-size="10.00">+ Identity()</text>
<text text-anchor="start" x="23.0024" y="-530.891" font-family="Monaco" font-size="10.00">+ Identity()</text>
<text text-anchor="start" x="23.0024" y="-517.556" font-family="Monaco" font-size="10.00">+ ~Identity()</text>
<text text-anchor="start" x="23.0024" y="-504.221" font-family="Monaco" font-size="10.00">+ id()</text>
<text text-anchor="start" x="23.0024" y="-490.886" font-family="Monaco" font-size="10.00"># setId()</text>
</a>
</g>
</g>
<!-- Node2&#45;&gt;Node1 -->
<g id="edge1" class="edge"><title>Node2&#45;&gt;Node1</title>
<path fill="none" stroke="midnightblue" d="M77.0883,-471.522C82.7407,-446.145 89.4794,-415.89 96.3973,-384.832"/>
<polygon fill="none" stroke="midnightblue" points="73.6547,-470.839 74.8969,-481.361 80.4873,-472.361 73.6547,-470.839"/>
</g>
<!-- Node3 -->
<g id="node3" class="node"><title>Node3</title>
<g id="a_node3"><a xlink:href="class_description.html" target="_top" xlink:title="The Description class. ">
<polygon fill="white" stroke="black" points="0,-695.903 0,-879.923 124.018,-879.923 124.018,-695.903 0,-695.903"/>
<text text-anchor="middle" x="62.0088" y="-867.923" font-family="Monaco" font-size="10.00">Description</text>
<polyline fill="none" stroke="black" points="0,-858.588 124.018,-858.588 "/>
<text text-anchor="start" x="8" y="-846.588" font-family="Monaco" font-size="10.00">+ Caption</text>
<text text-anchor="start" x="8" y="-833.253" font-family="Monaco" font-size="10.00">+ Description</text>
<text text-anchor="start" x="8" y="-819.918" font-family="Monaco" font-size="10.00"># m_caption</text>
<text text-anchor="start" x="8" y="-806.583" font-family="Monaco" font-size="10.00"># m_description</text>
<polyline fill="none" stroke="black" points="0,-797.248 124.018,-797.248 "/>
<text text-anchor="start" x="8" y="-785.248" font-family="Monaco" font-size="10.00">+ Description()</text>
<text text-anchor="start" x="8" y="-771.913" font-family="Monaco" font-size="10.00">+ Description()</text>
<text text-anchor="start" x="8" y="-758.578" font-family="Monaco" font-size="10.00">+ ~Description()</text>
<text text-anchor="start" x="8" y="-745.243" font-family="Monaco" font-size="10.00">+ getCaption()</text>
<text text-anchor="start" x="8" y="-731.908" font-family="Monaco" font-size="10.00">+ setCaption()</text>
<text text-anchor="start" x="8" y="-718.573" font-family="Monaco" font-size="10.00">+ getDescription()</text>
<text text-anchor="start" x="8" y="-705.238" font-family="Monaco" font-size="10.00">+ setDescription()</text>
</a>
</g>
</g>
<!-- Node3&#45;&gt;Node2 -->
<g id="edge2" class="edge"><title>Node3&#45;&gt;Node2</title>
<path fill="none" stroke="midnightblue" d="M62.0088,-685.442C62.0088,-655.993 62.0088,-624.854 62.0088,-599.076"/>
<polygon fill="none" stroke="midnightblue" points="58.5089,-685.777 62.0088,-695.777 65.5089,-685.777 58.5089,-685.777"/>
</g>
<!-- Node4 -->
<g id="node4" class="node"><title>Node4</title>
<polygon fill="white" stroke="#bfbfbf" points="33.0054,-943.593 33.0054,-1007.6 91.0122,-1007.6 91.0122,-943.593 33.0054,-943.593"/>
<text text-anchor="middle" x="62.0088" y="-995.598" font-family="Monaco" font-size="10.00">QObject</text>
<polyline fill="none" stroke="#bfbfbf" points="33.0054,-986.263 91.0122,-986.263 "/>
<text text-anchor="middle" x="62.0088" y="-974.263" font-family="Monaco" font-size="10.00"> </text>
<polyline fill="none" stroke="#bfbfbf" points="33.0054,-964.928 91.0122,-964.928 "/>
<text text-anchor="middle" x="62.0088" y="-952.928" font-family="Monaco" font-size="10.00"> </text>
</g>
<!-- Node4&#45;&gt;Node3 -->
<g id="edge3" class="edge"><title>Node4&#45;&gt;Node3</title>
<path fill="none" stroke="midnightblue" d="M62.0088,-933.112C62.0088,-917.367 62.0088,-898.747 62.0088,-880.209"/>
<polygon fill="none" stroke="midnightblue" points="58.5089,-933.516 62.0088,-943.516 65.5089,-933.516 58.5089,-933.516"/>
</g>
<!-- Node5 -->
<g id="node5" class="node"><title>Node5</title>
<g id="a_node5"><a xlink:href="class_hydro_couple_1_1_i_description.html" target="_top" xlink:title="IDescription interface class provides descriptive information on a HydroCouple object. ">
<polygon fill="white" stroke="black" points="120.997,-916.923 120.997,-1034.27 287.021,-1034.27 287.021,-916.923 120.997,-916.923"/>
<text text-anchor="middle" x="204.009" y="-1022.27" font-family="Monaco" font-size="10.00">HydroCouple::IDescription</text>
<polyline fill="none" stroke="black" points="120.997,-1012.93 287.021,-1012.93 "/>
<text text-anchor="middle" x="204.009" y="-1000.93" font-family="Monaco" font-size="10.00"> </text>
<polyline fill="none" stroke="black" points="120.997,-991.598 287.021,-991.598 "/>
<text text-anchor="start" x="128.997" y="-979.598" font-family="Monaco" font-size="10.00">+ ~IDescription()</text>
<text text-anchor="start" x="128.997" y="-966.263" font-family="Monaco" font-size="10.00">+ getCaption()</text>
<text text-anchor="start" x="128.997" y="-952.928" font-family="Monaco" font-size="10.00">+ setCaption()</text>
<text text-anchor="start" x="128.997" y="-939.593" font-family="Monaco" font-size="10.00">+ getDescription()</text>
<text text-anchor="start" x="128.997" y="-926.258" font-family="Monaco" font-size="10.00">+ setDescription()</text>
</a>
</g>
</g>
<!-- Node5&#45;&gt;Node3 -->
<g id="edge4" class="edge"><title>Node5&#45;&gt;Node3</title>
<path fill="none" stroke="midnightblue" d="M153.662,-908.761C144.102,-896.259 133.994,-883.042 124.119,-870.13"/>
<polygon fill="none" stroke="midnightblue" points="151.003,-911.045 159.857,-916.862 156.563,-906.792 151.003,-911.045"/>
</g>
<!-- Node7 -->
<g id="node7" class="node"><title>Node7</title>
<g id="a_node7"><a xlink:href="class_hydro_couple_1_1_i_identity.html" target="_top" xlink:title="IIdentity interface class defines a method to get the Id of an HydroCouple entity. ">
<polygon fill="white" stroke="black" points="141.998,-749.243 141.998,-826.583 290.02,-826.583 290.02,-749.243 141.998,-749.243"/>
<text text-anchor="middle" x="216.009" y="-814.583" font-family="Monaco" font-size="10.00">HydroCouple::IIdentity</text>
<polyline fill="none" stroke="black" points="141.998,-805.248 290.02,-805.248 "/>
<text text-anchor="middle" x="216.009" y="-793.248" font-family="Monaco" font-size="10.00"> </text>
<polyline fill="none" stroke="black" points="141.998,-783.913 290.02,-783.913 "/>
<text text-anchor="start" x="149.998" y="-771.913" font-family="Monaco" font-size="10.00">+ ~IIdentity()</text>
<text text-anchor="start" x="149.998" y="-758.578" font-family="Monaco" font-size="10.00">+ id()</text>
</a>
</g>
</g>
<!-- Node5&#45;&gt;Node7 -->
<g id="edge7" class="edge"><title>Node5&#45;&gt;Node7</title>
<path fill="none" stroke="midnightblue" d="M208.398,-906.686C210.142,-879.691 212.083,-849.658 213.568,-826.677"/>
<polygon fill="none" stroke="midnightblue" points="204.892,-906.657 207.74,-916.862 211.878,-907.109 204.892,-906.657"/>
</g>
<!-- Node6 -->
<g id="node6" class="node"><title>Node6</title>
<g id="a_node6"><a xlink:href="class_hydro_couple_1_1_i_property_changed.html" target="_top" xlink:title="IPropertyChanged interface is used to emit signal/event when a property of an object changes...">
<polygon fill="white" stroke="black" points="108.995,-1071.27 108.995,-1135.27 299.023,-1135.27 299.023,-1071.27 108.995,-1071.27"/>
<text text-anchor="middle" x="204.009" y="-1123.27" font-family="Monaco" font-size="10.00">HydroCouple::IPropertyChanged</text>
<polyline fill="none" stroke="black" points="108.995,-1113.94 299.023,-1113.94 "/>
<text text-anchor="middle" x="204.009" y="-1101.94" font-family="Monaco" font-size="10.00"> </text>
<polyline fill="none" stroke="black" points="108.995,-1092.6 299.023,-1092.6 "/>
<text text-anchor="start" x="116.995" y="-1080.6" font-family="Monaco" font-size="10.00">+ ~IPropertyChanged()</text>
</a>
</g>
</g>
<!-- Node6&#45;&gt;Node5 -->
<g id="edge5" class="edge"><title>Node6&#45;&gt;Node5</title>
<path fill="none" stroke="midnightblue" d="M204.009,-1060.95C204.009,-1052.56 204.009,-1043.6 204.009,-1034.75"/>
<polygon fill="none" stroke="midnightblue" points="200.509,-1061.2 204.009,-1071.2 207.509,-1061.2 200.509,-1061.2"/>
</g>
<!-- Node7&#45;&gt;Node2 -->
<g id="edge6" class="edge"><title>Node7&#45;&gt;Node2</title>
<path fill="none" stroke="midnightblue" d="M177.193,-741.354C158.093,-717.76 135.481,-687.972 118.009,-659.403 106.4,-640.422 95.4725,-618.654 86.4061,-599.015"/>
<polygon fill="none" stroke="midnightblue" points="174.488,-743.575 183.524,-749.108 179.911,-739.148 174.488,-743.575"/>
</g>
<!-- Node8 -->
<g id="node8" class="node"><title>Node8</title>
<g id="a_node8"><a xlink:href="class_hydro_couple_1_1_i_component_info.html" target="_top" xlink:title="IComponentInfo interface class provides detailed metadata about a component. ">
<polygon fill="white" stroke="black" points="126.996,-421.544 126.996,-658.903 305.022,-658.903 305.022,-421.544 126.996,-421.544"/>
<text text-anchor="middle" x="216.009" y="-646.903" font-family="Monaco" font-size="10.00">HydroCouple::IComponentInfo</text>
<polyline fill="none" stroke="black" points="126.996,-637.568 305.022,-637.568 "/>
<text text-anchor="middle" x="216.009" y="-625.568" font-family="Monaco" font-size="10.00"> </text>
<polyline fill="none" stroke="black" points="126.996,-616.233 305.022,-616.233 "/>
<text text-anchor="start" x="134.996" y="-604.233" font-family="Monaco" font-size="10.00">+ ~IComponentInfo()</text>
<text text-anchor="start" x="134.996" y="-590.898" font-family="Monaco" font-size="10.00">+ name()</text>
<text text-anchor="start" x="134.996" y="-577.563" font-family="Monaco" font-size="10.00">+ libraryFilePath()</text>
<text text-anchor="start" x="134.996" y="-564.229" font-family="Monaco" font-size="10.00">+ setLibraryFilePath()</text>
<text text-anchor="start" x="134.996" y="-550.894" font-family="Monaco" font-size="10.00">+ iconFilePath()</text>
<text text-anchor="start" x="134.996" y="-537.559" font-family="Monaco" font-size="10.00">+ vendor()</text>
<text text-anchor="start" x="134.996" y="-524.224" font-family="Monaco" font-size="10.00">+ publications()</text>
<text text-anchor="start" x="134.996" y="-510.889" font-family="Monaco" font-size="10.00">+ license()</text>
<text text-anchor="start" x="134.996" y="-497.554" font-family="Monaco" font-size="10.00">+ copyright()</text>
<text text-anchor="start" x="134.996" y="-484.219" font-family="Monaco" font-size="10.00">+ url()</text>
<text text-anchor="start" x="134.996" y="-470.884" font-family="Monaco" font-size="10.00">+ email()</text>
<text text-anchor="start" x="134.996" y="-457.549" font-family="Monaco" font-size="10.00">+ version()</text>
<text text-anchor="start" x="134.996" y="-444.214" font-family="Monaco" font-size="10.00">+ category()</text>
<text text-anchor="start" x="134.996" y="-430.879" font-family="Monaco" font-size="10.00">+ validateLicense()</text>
</a>
</g>
</g>
<!-- Node7&#45;&gt;Node8 -->
<g id="edge9" class="edge"><title>Node7&#45;&gt;Node8</title>
<path fill="none" stroke="midnightblue" d="M216.009,-738.914C216.009,-715.912 216.009,-687.253 216.009,-658.957"/>
<polygon fill="none" stroke="midnightblue" points="212.509,-739.063 216.009,-749.063 219.509,-739.063 212.509,-739.063"/>
</g>
<!-- Node8&#45;&gt;Node1 -->
<g id="edge8" class="edge"><title>Node8&#45;&gt;Node1</title>
<path fill="none" stroke="midnightblue" d="M187.545,-411.432C185.599,-402.695 183.617,-393.794 181.619,-384.826"/>
<polygon fill="none" stroke="midnightblue" points="184.135,-412.22 189.725,-421.22 190.967,-410.698 184.135,-412.22"/>
</g>
</g>
</svg>
