<?xml version="1.0" encoding="UTF-8" standalone="no"?>
<!DOCTYPE svg PUBLIC "-//W3C//DTD SVG 1.1//EN"
 "http://www.w3.org/Graphics/SVG/1.1/DTD/svg11.dtd">
<!-- Generated by graphviz version 2.38.0 (20140413.2041)
 -->
<!-- Title: HydroCouple::Data::ICategory Pages: 1 -->
<svg width="169pt" height="305pt"
 viewBox="0.00 0.00 169.08 305.00" xmlns="http://www.w3.org/2000/svg" xmlns:xlink="http://www.w3.org/1999/xlink">
<g id="graph0" class="graph" transform="scale(1 1) rotate(0) translate(4 301)">
<title>HydroCouple::Data::ICategory</title>
<polygon fill="white" stroke="none" points="-4,4 -4,-301 165.083,-301 165.083,4 -4,4"/>
<!-- Node1 -->
<g id="node1" class="node"><title>Node1</title>
<polygon fill="#bfbfbf" stroke="black" points="27.2412,-0.5 27.2412,-74.5 133.842,-74.5 133.842,-0.5 27.2412,-0.5"/>
<text text-anchor="start" x="35.2412" y="-62.5" font-family="Helvetica,sans-Serif" font-size="10.00">HydroCouple::Data::</text>
<text text-anchor="middle" x="80.5415" y="-52.5" font-family="Helvetica,sans-Serif" font-size="10.00">ICategory</text>
<polyline fill="none" stroke="black" points="27.2412,-46.5 133.842,-46.5 "/>
<text text-anchor="middle" x="80.5415" y="-34.5" font-family="Helvetica,sans-Serif" font-size="10.00"> </text>
<polyline fill="none" stroke="black" points="27.2412,-28.5 133.842,-28.5 "/>
<text text-anchor="start" x="35.2412" y="-16.5" font-family="Helvetica,sans-Serif" font-size="10.00">+ ~ICategory()</text>
<text text-anchor="start" x="35.2412" y="-6.5" font-family="Helvetica,sans-Serif" font-size="10.00">+ value()</text>
</g>
<!-- Node2 -->
<g id="node2" class="node"><title>Node2</title>
<g id="a_node2"><a xlink:href="class_hydro_couple_1_1_i_description.html" target="_top" xlink:title="IDescription interface class provides descriptive information on a HydroCouple object. ">
<polygon fill="white" stroke="black" points="14.1821,-111.5 14.1821,-205.5 146.901,-205.5 146.901,-111.5 14.1821,-111.5"/>
<text text-anchor="middle" x="80.5415" y="-193.5" font-family="Helvetica,sans-Serif" font-size="10.00">HydroCouple::IDescription</text>
<polyline fill="none" stroke="black" points="14.1821,-187.5 146.901,-187.5 "/>
<text text-anchor="middle" x="80.5415" y="-175.5" font-family="Helvetica,sans-Serif" font-size="10.00"> </text>
<polyline fill="none" stroke="black" points="14.1821,-169.5 146.901,-169.5 "/>
<text text-anchor="start" x="22.1821" y="-157.5" font-family="Helvetica,sans-Serif" font-size="10.00">+ ~IDescription()</text>
<text text-anchor="start" x="22.1821" y="-147.5" font-family="Helvetica,sans-Serif" font-size="10.00">+ getCaption()</text>
<text text-anchor="start" x="22.1821" y="-137.5" font-family="Helvetica,sans-Serif" font-size="10.00">+ setCaption()</text>
<text text-anchor="start" x="22.1821" y="-127.5" font-family="Helvetica,sans-Serif" font-size="10.00">+ getDescription()</text>
<text text-anchor="start" x="22.1821" y="-117.5" font-family="Helvetica,sans-Serif" font-size="10.00">+ setDescription()</text>
</a>
</g>
</g>
<!-- Node2&#45;&gt;Node1 -->
<g id="edge1" class="edge"><title>Node2&#45;&gt;Node1</title>
<path fill="none" stroke="midnightblue" d="M80.5415,-101.379C80.5415,-92.3431 80.5415,-83.2032 80.5415,-74.7961"/>
<polygon fill="none" stroke="midnightblue" points="77.0416,-101.491 80.5415,-111.491 84.0416,-101.492 77.0416,-101.491"/>
</g>
<!-- Node3 -->
<g id="node3" class="node"><title>Node3</title>
<g id="a_node3"><a xlink:href="class_hydro_couple_1_1_i_property_changed.html" target="_top" xlink:title="IPropertyChanged interface is used to emit signal/event when a property of an object changes...">
<polygon fill="white" stroke="black" points="0,-242.5 0,-296.5 161.083,-296.5 161.083,-242.5 0,-242.5"/>
<text text-anchor="middle" x="80.5415" y="-284.5" font-family="Helvetica,sans-Serif" font-size="10.00">HydroCouple::IPropertyChanged</text>
<polyline fill="none" stroke="black" points="0,-278.5 161.083,-278.5 "/>
<text text-anchor="middle" x="80.5415" y="-266.5" font-family="Helvetica,sans-Serif" font-size="10.00"> </text>
<polyline fill="none" stroke="black" points="0,-260.5 161.083,-260.5 "/>
<text text-anchor="start" x="8" y="-248.5" font-family="Helvetica,sans-Serif" font-size="10.00">+ ~IPropertyChanged()</text>
</a>
</g>
</g>
<!-- Node3&#45;&gt;Node2 -->
<g id="edge2" class="edge"><title>Node3&#45;&gt;Node2</title>
<path fill="none" stroke="midnightblue" d="M80.5415,-232.141C80.5415,-223.716 80.5415,-214.639 80.5415,-205.851"/>
<polygon fill="none" stroke="midnightblue" points="77.0416,-232.392 80.5415,-242.392 84.0416,-232.392 77.0416,-232.392"/>
</g>
</g>
</svg>
