<?xml version="1.0" encoding="UTF-8" standalone="no"?>
<!DOCTYPE svg PUBLIC "-//W3C//DTD SVG 1.1//EN"
 "http://www.w3.org/Graphics/SVG/1.1/DTD/svg11.dtd">
<!-- Generated by graphviz version 2.38.0 (20140413.2041)
 -->
<!-- Title: HydroCouple::SpatioTemporal::ITimeGeometryComponentDataItem::~ITimeGeometryComponentDataItem Pages: 1 -->
<svg width="466pt" height="459pt"
 viewBox="0.00 0.00 466.06 459.00" xmlns="http://www.w3.org/2000/svg" xmlns:xlink="http://www.w3.org/1999/xlink">
<g id="graph0" class="graph" transform="scale(1 1) rotate(0) translate(4 455.005)">
<title>HydroCouple::SpatioTemporal::ITimeGeometryComponentDataItem::~ITimeGeometryComponentDataItem</title>
<!-- Node1 -->
<g id="node1" class="node"><title>Node1</title>
<polygon fill="#bfbfbf" stroke="black" points="0,-201.5 0,-249.505 214.032,-249.505 214.032,-201.5 0,-201.5"/>
<text text-anchor="start" x="8" y="-237.505" font-family="Monaco" font-size="10.00">HydroCouple::SpatioTemporal</text>
<text text-anchor="start" x="8" y="-224.17" font-family="Monaco" font-size="10.00">::ITimeGeometryComponentDataItem</text>
<text text-anchor="middle" x="107.016" y="-210.835" font-family="Monaco" font-size="10.00">::~ITimeGeometryComponentDataItem</text>
</g>
<!-- Node2 -->
<g id="node2" class="node"><title>Node2</title>
<g id="a_node2"><a xlink:href="class_hydro_couple_1_1_spatio_temporal_1_1_i_time_geometry_component_data_item.html#a3f3ad5b985a82113dc859f90a7726464" target="_top" xlink:title="HydroCouple::SpatioTemporal\l::ITimeGeometryComponentDataItem\l::geometryCollection">
<polygon fill="none" stroke="black" points="250.032,-402.5 250.032,-450.505 458.063,-450.505 458.063,-402.5 250.032,-402.5"/>
<text text-anchor="start" x="258.032" y="-438.505" font-family="Monaco" font-size="10.00">HydroCouple::SpatioTemporal</text>
<text text-anchor="start" x="258.032" y="-425.17" font-family="Monaco" font-size="10.00">::ITimeGeometryComponentDataItem</text>
<text text-anchor="middle" x="354.048" y="-411.835" font-family="Monaco" font-size="10.00">::geometryCollection</text>
</a>
</g>
</g>
<!-- Node1&#45;&gt;Node2 -->
<g id="edge1" class="edge"><title>Node1&#45;&gt;Node2</title>
<path fill="none" stroke="midnightblue" d="M122.087,-249.513C144.59,-285.872 192.097,-354.752 250.032,-393.502 252.183,-394.941 254.402,-396.321 256.673,-397.643"/>
<polygon fill="midnightblue" stroke="midnightblue" points="255.205,-400.827 265.672,-402.466 258.511,-394.658 255.205,-400.827"/>
</g>
<!-- Node3 -->
<g id="node3" class="node"><title>Node3</title>
<g id="a_node3"><a xlink:href="class_hydro_couple_1_1_spatio_temporal_1_1_i_time_geometry_component_data_item.html#ab729930974fc9d1e67cb17e415d9c04a" target="_top" xlink:title="HydroCouple::SpatioTemporal\l::ITimeGeometryComponentDataItem\l::geometry">
<polygon fill="none" stroke="black" points="250.032,-335.5 250.032,-383.505 458.063,-383.505 458.063,-335.5 250.032,-335.5"/>
<text text-anchor="start" x="258.032" y="-371.505" font-family="Monaco" font-size="10.00">HydroCouple::SpatioTemporal</text>
<text text-anchor="start" x="258.032" y="-358.17" font-family="Monaco" font-size="10.00">::ITimeGeometryComponentDataItem</text>
<text text-anchor="middle" x="354.048" y="-344.835" font-family="Monaco" font-size="10.00">::geometry</text>
</a>
</g>
</g>
<!-- Node1&#45;&gt;Node3 -->
<g id="edge2" class="edge"><title>Node1&#45;&gt;Node3</title>
<path fill="none" stroke="midnightblue" d="M136.248,-249.595C163.766,-272.07 207.556,-305.24 250.032,-326.502 253.522,-328.249 257.124,-329.93 260.797,-331.544"/>
<polygon fill="midnightblue" stroke="midnightblue" points="259.475,-334.785 270.051,-335.417 262.178,-328.327 259.475,-334.785"/>
</g>
<!-- Node4 -->
<g id="node4" class="node"><title>Node4</title>
<g id="a_node4"><a xlink:href="class_hydro_couple_1_1_spatio_temporal_1_1_i_time_geometry_component_data_item.html#a55fc6a1f2499e13ad4fcedace94e7af2" target="_top" xlink:title="HydroCouple::SpatioTemporal\l::ITimeGeometryComponentDataItem\l::geometryDimension">
<polygon fill="none" stroke="black" points="250.032,-268.5 250.032,-316.505 458.063,-316.505 458.063,-268.5 250.032,-268.5"/>
<text text-anchor="start" x="258.032" y="-304.505" font-family="Monaco" font-size="10.00">HydroCouple::SpatioTemporal</text>
<text text-anchor="start" x="258.032" y="-291.17" font-family="Monaco" font-size="10.00">::ITimeGeometryComponentDataItem</text>
<text text-anchor="middle" x="354.048" y="-277.835" font-family="Monaco" font-size="10.00">::geometryDimension</text>
</a>
</g>
</g>
<!-- Node1&#45;&gt;Node4 -->
<g id="edge3" class="edge"><title>Node1&#45;&gt;Node4</title>
<path fill="none" stroke="midnightblue" d="M196.132,-249.596C215.264,-254.828 235.614,-260.392 255.099,-265.72"/>
<polygon fill="midnightblue" stroke="midnightblue" points="254.322,-269.136 264.891,-268.397 256.168,-262.384 254.322,-269.136"/>
</g>
<!-- Node5 -->
<g id="node5" class="node"><title>Node5</title>
<g id="a_node5"><a xlink:href="class_hydro_couple_1_1_spatio_temporal_1_1_i_time_geometry_component_data_item.html#a1fdfb452c3d3caf2aedae174f333a066" target="_top" xlink:title="Gets a single value for given time dimension index. ">
<polygon fill="none" stroke="black" points="250.032,-201.5 250.032,-249.505 458.063,-249.505 458.063,-201.5 250.032,-201.5"/>
<text text-anchor="start" x="258.032" y="-237.505" font-family="Monaco" font-size="10.00">HydroCouple::SpatioTemporal</text>
<text text-anchor="start" x="258.032" y="-224.17" font-family="Monaco" font-size="10.00">::ITimeGeometryComponentDataItem</text>
<text text-anchor="middle" x="354.048" y="-210.835" font-family="Monaco" font-size="10.00">::getValue</text>
</a>
</g>
</g>
<!-- Node1&#45;&gt;Node5 -->
<g id="edge4" class="edge"><title>Node1&#45;&gt;Node5</title>
<path fill="none" stroke="midnightblue" d="M214.065,-225.502C222.618,-225.502 231.28,-225.502 239.88,-225.502"/>
<polygon fill="midnightblue" stroke="midnightblue" points="239.937,-229.003 249.937,-225.502 239.937,-222.003 239.937,-229.003"/>
</g>
<!-- Node6 -->
<g id="node6" class="node"><title>Node6</title>
<g id="a_node6"><a xlink:href="class_hydro_couple_1_1_spatio_temporal_1_1_i_time_geometry_component_data_item.html#af32f2312af03540b6266d3efe3c078aa" target="_top" xlink:title="Gets a multi&#45;dimensional array of values for given dimension time dimension index and size for a hype...">
<polygon fill="none" stroke="black" points="250.032,-134.5 250.032,-182.505 458.063,-182.505 458.063,-134.5 250.032,-134.5"/>
<text text-anchor="start" x="258.032" y="-170.505" font-family="Monaco" font-size="10.00">HydroCouple::SpatioTemporal</text>
<text text-anchor="start" x="258.032" y="-157.17" font-family="Monaco" font-size="10.00">::ITimeGeometryComponentDataItem</text>
<text text-anchor="middle" x="354.048" y="-143.835" font-family="Monaco" font-size="10.00">::getValues</text>
</a>
</g>
</g>
<!-- Node1&#45;&gt;Node6 -->
<g id="edge5" class="edge"><title>Node1&#45;&gt;Node6</title>
<path fill="none" stroke="midnightblue" d="M196.132,-201.409C215.264,-196.177 235.614,-190.613 255.099,-185.285"/>
<polygon fill="midnightblue" stroke="midnightblue" points="256.168,-188.621 264.891,-182.608 254.322,-181.869 256.168,-188.621"/>
</g>
<!-- Node7 -->
<g id="node7" class="node"><title>Node7</title>
<g id="a_node7"><a xlink:href="class_hydro_couple_1_1_spatio_temporal_1_1_i_time_geometry_component_data_item.html#a91293b8701a718ae3114e2456acd5216" target="_top" xlink:title="Sets a single value for given time dimension index. ">
<polygon fill="none" stroke="black" points="250.032,-67.5 250.032,-115.505 458.063,-115.505 458.063,-67.5 250.032,-67.5"/>
<text text-anchor="start" x="258.032" y="-103.505" font-family="Monaco" font-size="10.00">HydroCouple::SpatioTemporal</text>
<text text-anchor="start" x="258.032" y="-90.1699" font-family="Monaco" font-size="10.00">::ITimeGeometryComponentDataItem</text>
<text text-anchor="middle" x="354.048" y="-76.835" font-family="Monaco" font-size="10.00">::setValue</text>
</a>
</g>
</g>
<!-- Node1&#45;&gt;Node7 -->
<g id="edge6" class="edge"><title>Node1&#45;&gt;Node7</title>
<path fill="none" stroke="midnightblue" d="M136.248,-201.41C163.766,-178.935 207.556,-145.765 250.032,-124.502 253.522,-122.756 257.124,-121.075 260.797,-119.461"/>
<polygon fill="midnightblue" stroke="midnightblue" points="262.178,-122.678 270.051,-115.588 259.475,-116.22 262.178,-122.678"/>
</g>
<!-- Node8 -->
<g id="node8" class="node"><title>Node8</title>
<g id="a_node8"><a xlink:href="class_hydro_couple_1_1_spatio_temporal_1_1_i_time_geometry_component_data_item.html#a79af6a7de3140685dc91d616853c2e0e" target="_top" xlink:title="Sets a multi&#45;dimensional array of values for given time dimension index and size for a hyperslab...">
<polygon fill="none" stroke="black" points="250.032,-0.5 250.032,-48.5049 458.063,-48.5049 458.063,-0.5 250.032,-0.5"/>
<text text-anchor="start" x="258.032" y="-36.5049" font-family="Monaco" font-size="10.00">HydroCouple::SpatioTemporal</text>
<text text-anchor="start" x="258.032" y="-23.1699" font-family="Monaco" font-size="10.00">::ITimeGeometryComponentDataItem</text>
<text text-anchor="middle" x="354.048" y="-9.83496" font-family="Monaco" font-size="10.00">::setValues</text>
</a>
</g>
</g>
<!-- Node1&#45;&gt;Node8 -->
<g id="edge7" class="edge"><title>Node1&#45;&gt;Node8</title>
<path fill="none" stroke="midnightblue" d="M122.087,-201.492C144.59,-165.133 192.097,-96.2524 250.032,-57.5024 252.183,-56.0636 254.402,-54.684 256.673,-53.3615"/>
<polygon fill="midnightblue" stroke="midnightblue" points="258.511,-56.3473 265.672,-48.5386 255.205,-50.1776 258.511,-56.3473"/>
</g>
</g>
</svg>
