<?xml version="1.0" encoding="UTF-8" standalone="no"?>
<!DOCTYPE svg PUBLIC "-//W3C//DTD SVG 1.1//EN"
 "http://www.w3.org/Graphics/SVG/1.1/DTD/svg11.dtd">
<!-- Generated by graphviz version 2.38.0 (20140413.2041)
 -->
<!-- Title: HydroCouple::Spatial::IRasterComponentItem Pages: 1 -->
<svg width="198pt" height="690pt"
 viewBox="0.00 0.00 198.03 690.38" xmlns="http://www.w3.org/2000/svg" xmlns:xlink="http://www.w3.org/1999/xlink">
<g id="graph0" class="graph" transform="scale(1 1) rotate(0) translate(4 686.384)">
<title>HydroCouple::Spatial::IRasterComponentItem</title>
<polygon fill="white" stroke="none" points="-4,4 -4,-686.384 194.028,-686.384 194.028,4 -4,4"/>
<!-- Node1 -->
<g id="node1" class="node"><title>Node1</title>
<polygon fill="#bfbfbf" stroke="black" points="12.002,-0.5 12.002,-144.515 178.026,-144.515 178.026,-0.5 12.002,-0.5"/>
<text text-anchor="start" x="20.002" y="-132.515" font-family="Monaco" font-size="10.00">HydroCouple::Spatial</text>
<text text-anchor="middle" x="95.0142" y="-119.18" font-family="Monaco" font-size="10.00">::IRasterComponentItem</text>
<polyline fill="none" stroke="black" points="12.002,-109.845 178.026,-109.845 "/>
<text text-anchor="middle" x="95.0142" y="-97.8447" font-family="Monaco" font-size="10.00"> </text>
<polyline fill="none" stroke="black" points="12.002,-88.5098 178.026,-88.5098 "/>
<text text-anchor="start" x="20.002" y="-76.5098" font-family="Monaco" font-size="10.00">+ ~IRasterComponentItem()</text>
<text text-anchor="start" x="20.002" y="-63.1748" font-family="Monaco" font-size="10.00">+ rasterDimension()</text>
<text text-anchor="start" x="20.002" y="-49.8398" font-family="Monaco" font-size="10.00">+ xDimension()</text>
<text text-anchor="start" x="20.002" y="-36.5049" font-family="Monaco" font-size="10.00">+ yDimension()</text>
<text text-anchor="start" x="20.002" y="-23.1699" font-family="Monaco" font-size="10.00">+ bandDimension()</text>
<text text-anchor="start" x="20.002" y="-9.83496" font-family="Monaco" font-size="10.00">+ raster()</text>
</g>
<!-- Node2 -->
<g id="node2" class="node"><title>Node2</title>
<g id="a_node2"><a xlink:href="class_hydro_couple_1_1_i_component_item.html" target="_top" xlink:title="IComponentItem is a fundamental unit of data for a component. ">
<polygon fill="white" stroke="black" points="6.00098,-181.515 6.00098,-285.524 184.027,-285.524 184.027,-181.515 6.00098,-181.515"/>
<text text-anchor="middle" x="95.0142" y="-273.524" font-family="Monaco" font-size="10.00">HydroCouple::IComponentItem</text>
<polyline fill="none" stroke="black" points="6.00098,-264.189 184.027,-264.189 "/>
<text text-anchor="middle" x="95.0142" y="-252.189" font-family="Monaco" font-size="10.00"> </text>
<polyline fill="none" stroke="black" points="6.00098,-242.854 184.027,-242.854 "/>
<text text-anchor="start" x="14.001" y="-230.854" font-family="Monaco" font-size="10.00">+ ~IComponentItem()</text>
<text text-anchor="start" x="14.001" y="-217.52" font-family="Monaco" font-size="10.00">+ modelComponent()</text>
<text text-anchor="start" x="14.001" y="-204.185" font-family="Monaco" font-size="10.00">+ modelComponentId()</text>
<text text-anchor="start" x="14.001" y="-190.85" font-family="Monaco" font-size="10.00">+ dimensions()</text>
</a>
</g>
</g>
<!-- Node2&#45;&gt;Node1 -->
<g id="edge1" class="edge"><title>Node2&#45;&gt;Node1</title>
<path fill="none" stroke="midnightblue" d="M95.0142,-171.253C95.0142,-162.523 95.0142,-153.483 95.0142,-144.586"/>
<polygon fill="none" stroke="midnightblue" points="91.5143,-171.332 95.0142,-181.332 98.5143,-171.332 91.5143,-171.332"/>
</g>
<!-- Node3 -->
<g id="node3" class="node"><title>Node3</title>
<g id="a_node3"><a xlink:href="class_hydro_couple_1_1_i_identity.html" target="_top" xlink:title="IIdentity interface class defines a method to get the Id of an HydroCouple entity. ">
<polygon fill="white" stroke="black" points="21.0034,-322.524 21.0034,-426.534 169.025,-426.534 169.025,-322.524 21.0034,-322.524"/>
<text text-anchor="middle" x="95.0142" y="-414.534" font-family="Monaco" font-size="10.00">HydroCouple::IIdentity</text>
<polyline fill="none" stroke="black" points="21.0034,-405.199 169.025,-405.199 "/>
<text text-anchor="middle" x="95.0142" y="-393.199" font-family="Monaco" font-size="10.00"> </text>
<polyline fill="none" stroke="black" points="21.0034,-383.864 169.025,-383.864 "/>
<text text-anchor="start" x="29.0034" y="-371.864" font-family="Monaco" font-size="10.00">+ ~IIdentity()</text>
<text text-anchor="start" x="29.0034" y="-358.529" font-family="Monaco" font-size="10.00">+ MPI_Comm()</text>
<text text-anchor="start" x="29.0034" y="-345.194" font-family="Monaco" font-size="10.00">+ MPI_Rank()</text>
<text text-anchor="start" x="29.0034" y="-331.859" font-family="Monaco" font-size="10.00">+ id()</text>
</a>
</g>
</g>
<!-- Node3&#45;&gt;Node2 -->
<g id="edge2" class="edge"><title>Node3&#45;&gt;Node2</title>
<path fill="none" stroke="midnightblue" d="M95.0142,-311.966C95.0142,-303.183 95.0142,-294.23 95.0142,-285.676"/>
<polygon fill="none" stroke="midnightblue" points="91.5143,-312.162 95.0142,-322.162 98.5143,-312.162 91.5143,-312.162"/>
</g>
<!-- Node4 -->
<g id="node4" class="node"><title>Node4</title>
<g id="a_node4"><a xlink:href="class_hydro_couple_1_1_i_description.html" target="_top" xlink:title="IDescription interface class provides descriptive information on a HydroCouple object. ">
<polygon fill="white" stroke="black" points="12.002,-463.534 12.002,-580.879 178.026,-580.879 178.026,-463.534 12.002,-463.534"/>
<text text-anchor="middle" x="95.0142" y="-568.879" font-family="Monaco" font-size="10.00">HydroCouple::IDescription</text>
<polyline fill="none" stroke="black" points="12.002,-559.544 178.026,-559.544 "/>
<text text-anchor="middle" x="95.0142" y="-547.544" font-family="Monaco" font-size="10.00"> </text>
<polyline fill="none" stroke="black" points="12.002,-538.209 178.026,-538.209 "/>
<text text-anchor="start" x="20.002" y="-526.209" font-family="Monaco" font-size="10.00">+ ~IDescription()</text>
<text text-anchor="start" x="20.002" y="-512.874" font-family="Monaco" font-size="10.00">+ getCaption()</text>
<text text-anchor="start" x="20.002" y="-499.539" font-family="Monaco" font-size="10.00">+ setCaption()</text>
<text text-anchor="start" x="20.002" y="-486.204" font-family="Monaco" font-size="10.00">+ getDescription()</text>
<text text-anchor="start" x="20.002" y="-472.869" font-family="Monaco" font-size="10.00">+ setDescription()</text>
</a>
</g>
</g>
<!-- Node4&#45;&gt;Node3 -->
<g id="edge3" class="edge"><title>Node4&#45;&gt;Node3</title>
<path fill="none" stroke="midnightblue" d="M95.0142,-452.933C95.0142,-444.115 95.0142,-435.207 95.0142,-426.73"/>
<polygon fill="none" stroke="midnightblue" points="91.5143,-453.212 95.0142,-463.212 98.5143,-453.212 91.5143,-453.212"/>
</g>
<!-- Node5 -->
<g id="node5" class="node"><title>Node5</title>
<g id="a_node5"><a xlink:href="class_hydro_couple_1_1_i_property_changed.html" target="_top" xlink:title="IPropertyChanged interface is used to emit signal/event when a property of an object changes...">
<polygon fill="white" stroke="black" points="0,-617.879 0,-681.884 190.028,-681.884 190.028,-617.879 0,-617.879"/>
<text text-anchor="middle" x="95.0142" y="-669.884" font-family="Monaco" font-size="10.00">HydroCouple::IPropertyChanged</text>
<polyline fill="none" stroke="black" points="0,-660.549 190.028,-660.549 "/>
<text text-anchor="middle" x="95.0142" y="-648.549" font-family="Monaco" font-size="10.00"> </text>
<polyline fill="none" stroke="black" points="0,-639.214 190.028,-639.214 "/>
<text text-anchor="start" x="8" y="-627.214" font-family="Monaco" font-size="10.00">+ ~IPropertyChanged()</text>
</a>
</g>
</g>
<!-- Node5&#45;&gt;Node4 -->
<g id="edge4" class="edge"><title>Node5&#45;&gt;Node4</title>
<path fill="none" stroke="midnightblue" d="M95.0142,-607.559C95.0142,-599.173 95.0142,-590.207 95.0142,-581.365"/>
<polygon fill="none" stroke="midnightblue" points="91.5143,-607.816 95.0142,-617.816 98.5143,-607.816 91.5143,-607.816"/>
</g>
</g>
</svg>
