<?xml version="1.0" encoding="UTF-8" standalone="no"?>
<!DOCTYPE svg PUBLIC "-//W3C//DTD SVG 1.1//EN"
 "http://www.w3.org/Graphics/SVG/1.1/DTD/svg11.dtd">
<!-- Generated by graphviz version 2.38.0 (20140413.2041)
 -->
<!-- Title: HydroCouple::Spatial::ITIN Pages: 1 -->
<svg width="198pt" height="1626pt"
 viewBox="0.00 0.00 198.03 1625.82" xmlns="http://www.w3.org/2000/svg" xmlns:xlink="http://www.w3.org/1999/xlink">
<g id="graph0" class="graph" transform="scale(1 1) rotate(0) translate(4 1621.82)">
<title>HydroCouple::Spatial::ITIN</title>
<!-- Node1 -->
<g id="node1" class="node"><title>Node1</title>
<polygon fill="#bfbfbf" stroke="black" points="27.0044,-0.5 27.0044,-91.1748 163.024,-91.1748 163.024,-0.5 27.0044,-0.5"/>
<text text-anchor="start" x="35.0044" y="-79.1748" font-family="Monaco" font-size="10.00">HydroCouple::Spatial</text>
<text text-anchor="middle" x="95.0142" y="-65.8398" font-family="Monaco" font-size="10.00">::ITIN</text>
<polyline fill="none" stroke="black" points="27.0044,-56.5049 163.024,-56.5049 "/>
<text text-anchor="middle" x="95.0142" y="-44.5049" font-family="Monaco" font-size="10.00"> </text>
<polyline fill="none" stroke="black" points="27.0044,-35.1699 163.024,-35.1699 "/>
<text text-anchor="start" x="35.0044" y="-23.1699" font-family="Monaco" font-size="10.00">+ ~ITIN()</text>
<text text-anchor="start" x="35.0044" y="-9.83496" font-family="Monaco" font-size="10.00">+ patch()</text>
</g>
<!-- Node2 -->
<g id="node2" class="node"><title>Node2</title>
<g id="a_node2"><a xlink:href="class_hydro_couple_1_1_spatial_1_1_i_polyhedral_surface.html" target="_top" xlink:title="An IPolyhedralSurface is a contiguous collection of polygons, which share common boundary segments...">
<polygon fill="none" stroke="black" points="18.0029,-128.175 18.0029,-312.194 172.025,-312.194 172.025,-128.175 18.0029,-128.175"/>
<text text-anchor="start" x="26.0029" y="-300.194" font-family="Monaco" font-size="10.00">HydroCouple::Spatial</text>
<text text-anchor="middle" x="95.0142" y="-286.859" font-family="Monaco" font-size="10.00">::IPolyhedralSurface</text>
<polyline fill="none" stroke="black" points="18.0029,-277.524 172.025,-277.524 "/>
<text text-anchor="middle" x="95.0142" y="-265.524" font-family="Monaco" font-size="10.00"> </text>
<polyline fill="none" stroke="black" points="18.0029,-256.189 172.025,-256.189 "/>
<text text-anchor="start" x="26.0029" y="-244.189" font-family="Monaco" font-size="10.00">+ ~IPolyhedralSurface()</text>
<text text-anchor="start" x="26.0029" y="-230.854" font-family="Monaco" font-size="10.00">+ patchCount()</text>
<text text-anchor="start" x="26.0029" y="-217.52" font-family="Monaco" font-size="10.00">+ patch()</text>
<text text-anchor="start" x="26.0029" y="-204.185" font-family="Monaco" font-size="10.00">+ boundingPolygons()</text>
<text text-anchor="start" x="26.0029" y="-190.85" font-family="Monaco" font-size="10.00">+ isClosed()</text>
<text text-anchor="start" x="26.0029" y="-177.515" font-family="Monaco" font-size="10.00">+ makeVertexEdge()</text>
<text text-anchor="start" x="26.0029" y="-164.18" font-family="Monaco" font-size="10.00">+ deleteVertexEdge()</text>
<text text-anchor="start" x="26.0029" y="-150.845" font-family="Monaco" font-size="10.00">+ makeFaceEdge()</text>
<text text-anchor="start" x="26.0029" y="-137.51" font-family="Monaco" font-size="10.00">+ deleteFaceEdge()</text>
</a>
</g>
</g>
<!-- Node2&#45;&gt;Node1 -->
<g id="edge1" class="edge"><title>Node2&#45;&gt;Node1</title>
<path fill="none" stroke="midnightblue" d="M95.0142,-117.851C95.0142,-108.598 95.0142,-99.5858 95.0142,-91.2596"/>
<polygon fill="none" stroke="midnightblue" points="91.5143,-117.964 95.0142,-127.964 98.5143,-117.964 91.5143,-117.964"/>
</g>
<!-- Node3 -->
<g id="node3" class="node"><title>Node3</title>
<g id="a_node3"><a xlink:href="class_hydro_couple_1_1_spatial_1_1_i_surface.html" target="_top" xlink:title="A ISurface is a 2&#45;dimensional IGeometry object. ">
<polygon fill="none" stroke="black" points="21.0034,-349.194 21.0034,-479.874 169.025,-479.874 169.025,-349.194 21.0034,-349.194"/>
<text text-anchor="start" x="29.0034" y="-467.874" font-family="Monaco" font-size="10.00">HydroCouple::Spatial</text>
<text text-anchor="middle" x="95.0142" y="-454.539" font-family="Monaco" font-size="10.00">::ISurface</text>
<polyline fill="none" stroke="black" points="21.0034,-445.204 169.025,-445.204 "/>
<text text-anchor="middle" x="95.0142" y="-433.204" font-family="Monaco" font-size="10.00"> </text>
<polyline fill="none" stroke="black" points="21.0034,-423.869 169.025,-423.869 "/>
<text text-anchor="start" x="29.0034" y="-411.869" font-family="Monaco" font-size="10.00">+ ~ISurface()</text>
<text text-anchor="start" x="29.0034" y="-398.534" font-family="Monaco" font-size="10.00">+ area()</text>
<text text-anchor="start" x="29.0034" y="-385.199" font-family="Monaco" font-size="10.00">+ centroid()</text>
<text text-anchor="start" x="29.0034" y="-371.864" font-family="Monaco" font-size="10.00">+ pointOnSurface()</text>
<text text-anchor="start" x="29.0034" y="-358.529" font-family="Monaco" font-size="10.00">+ boundaryMultiCurve()</text>
</a>
</g>
</g>
<!-- Node3&#45;&gt;Node2 -->
<g id="edge2" class="edge"><title>Node3&#45;&gt;Node2</title>
<path fill="none" stroke="midnightblue" d="M95.0142,-338.853C95.0142,-330.14 95.0142,-321.179 95.0142,-312.277"/>
<polygon fill="none" stroke="midnightblue" points="91.5143,-338.949 95.0142,-348.949 98.5143,-338.949 91.5143,-338.949"/>
</g>
<!-- Node4 -->
<g id="node4" class="node"><title>Node4</title>
<g id="a_node4"><a xlink:href="class_hydro_couple_1_1_spatial_1_1_i_geometry.html" target="_top" xlink:title="IGeometry is the root class of the hierarchy. ">
<polygon fill="none" stroke="black" points="9.00146,-516.874 9.00146,-1247.63 181.027,-1247.63 181.027,-516.874 9.00146,-516.874"/>
<text text-anchor="start" x="17.0015" y="-1235.63" font-family="Monaco" font-size="10.00">HydroCouple::Spatial</text>
<text text-anchor="middle" x="95.0142" y="-1222.29" font-family="Monaco" font-size="10.00">::IGeometry</text>
<polyline fill="none" stroke="black" points="9.00146,-1212.96 181.027,-1212.96 "/>
<text text-anchor="middle" x="95.0142" y="-1200.96" font-family="Monaco" font-size="10.00"> </text>
<polyline fill="none" stroke="black" points="9.00146,-1191.62 181.027,-1191.62 "/>
<text text-anchor="start" x="17.0015" y="-1179.62" font-family="Monaco" font-size="10.00">+ ~IGeometry()</text>
<text text-anchor="start" x="17.0015" y="-1166.29" font-family="Monaco" font-size="10.00">+ index()</text>
<text text-anchor="start" x="17.0015" y="-1152.95" font-family="Monaco" font-size="10.00">+ dimension()</text>
<text text-anchor="start" x="17.0015" y="-1139.62" font-family="Monaco" font-size="10.00">+ coordinateDimension()</text>
<text text-anchor="start" x="17.0015" y="-1126.28" font-family="Monaco" font-size="10.00">+ geometryType()</text>
<text text-anchor="start" x="17.0015" y="-1112.95" font-family="Monaco" font-size="10.00">+ spatialReferenceSystem()</text>
<text text-anchor="start" x="17.0015" y="-1099.61" font-family="Monaco" font-size="10.00">+ envelope()</text>
<text text-anchor="start" x="17.0015" y="-1086.28" font-family="Monaco" font-size="10.00">+ wkt()</text>
<text text-anchor="start" x="17.0015" y="-1072.94" font-family="Monaco" font-size="10.00">+ wkb()</text>
<text text-anchor="start" x="17.0015" y="-1059.61" font-family="Monaco" font-size="10.00">+ isEmpty()</text>
<text text-anchor="start" x="17.0015" y="-1046.27" font-family="Monaco" font-size="10.00">+ isSimple()</text>
<text text-anchor="start" x="17.0015" y="-1032.94" font-family="Monaco" font-size="10.00">+ is3D()</text>
<text text-anchor="start" x="17.0015" y="-1019.6" font-family="Monaco" font-size="10.00">+ isMeasured()</text>
<text text-anchor="start" x="17.0015" y="-1006.27" font-family="Monaco" font-size="10.00">+ boundary()</text>
<text text-anchor="start" x="17.0015" y="-992.933" font-family="Monaco" font-size="10.00">+ equals()</text>
<text text-anchor="start" x="17.0015" y="-979.598" font-family="Monaco" font-size="10.00">+ disjoint()</text>
<text text-anchor="start" x="17.0015" y="-966.263" font-family="Monaco" font-size="10.00">+ intersects()</text>
<text text-anchor="start" x="17.0015" y="-952.928" font-family="Monaco" font-size="10.00">+ touches()</text>
<text text-anchor="start" x="17.0015" y="-939.593" font-family="Monaco" font-size="10.00">+ crosses()</text>
<text text-anchor="start" x="17.0015" y="-926.258" font-family="Monaco" font-size="10.00">+ within()</text>
<text text-anchor="start" x="17.0015" y="-912.923" font-family="Monaco" font-size="10.00">+ contains()</text>
<text text-anchor="start" x="17.0015" y="-899.588" font-family="Monaco" font-size="10.00">+ overlaps()</text>
<text text-anchor="start" x="17.0015" y="-886.253" font-family="Monaco" font-size="10.00">+ relate()</text>
<text text-anchor="start" x="17.0015" y="-872.918" font-family="Monaco" font-size="10.00">+ locateAlong()</text>
<text text-anchor="start" x="17.0015" y="-859.583" font-family="Monaco" font-size="10.00">+ locateBetween()</text>
<text text-anchor="start" x="17.0015" y="-846.248" font-family="Monaco" font-size="10.00">+ distance()</text>
<text text-anchor="start" x="17.0015" y="-832.913" font-family="Monaco" font-size="10.00">+ buffer()</text>
<text text-anchor="start" x="17.0015" y="-819.578" font-family="Monaco" font-size="10.00">+ convexHull()</text>
<text text-anchor="start" x="17.0015" y="-806.243" font-family="Monaco" font-size="10.00">+ intersection()</text>
<text text-anchor="start" x="17.0015" y="-792.908" font-family="Monaco" font-size="10.00">+ unionG()</text>
<text text-anchor="start" x="17.0015" y="-779.573" font-family="Monaco" font-size="10.00">+ difference()</text>
<text text-anchor="start" x="17.0015" y="-766.238" font-family="Monaco" font-size="10.00">+ symmetricDifference()</text>
<text text-anchor="start" x="17.0015" y="-752.903" font-family="Monaco" font-size="10.00">* equals()</text>
<text text-anchor="start" x="17.0015" y="-739.568" font-family="Monaco" font-size="10.00">* disjoint()</text>
<text text-anchor="start" x="17.0015" y="-726.233" font-family="Monaco" font-size="10.00">* intersects()</text>
<text text-anchor="start" x="17.0015" y="-712.898" font-family="Monaco" font-size="10.00">* touches()</text>
<text text-anchor="start" x="17.0015" y="-699.563" font-family="Monaco" font-size="10.00">* crosses()</text>
<text text-anchor="start" x="17.0015" y="-686.229" font-family="Monaco" font-size="10.00">* within()</text>
<text text-anchor="start" x="17.0015" y="-672.894" font-family="Monaco" font-size="10.00">* contains()</text>
<text text-anchor="start" x="17.0015" y="-659.559" font-family="Monaco" font-size="10.00">* overlaps()</text>
<text text-anchor="start" x="17.0015" y="-646.224" font-family="Monaco" font-size="10.00">* relate()</text>
<text text-anchor="start" x="17.0015" y="-632.889" font-family="Monaco" font-size="10.00">* locateAlong()</text>
<text text-anchor="start" x="17.0015" y="-619.554" font-family="Monaco" font-size="10.00">* locateBetween()</text>
<text text-anchor="start" x="17.0015" y="-606.219" font-family="Monaco" font-size="10.00">* distance()</text>
<text text-anchor="start" x="17.0015" y="-592.884" font-family="Monaco" font-size="10.00">* buffer()</text>
<text text-anchor="start" x="17.0015" y="-579.549" font-family="Monaco" font-size="10.00">* convexHull()</text>
<text text-anchor="start" x="17.0015" y="-566.214" font-family="Monaco" font-size="10.00">* intersection()</text>
<text text-anchor="start" x="17.0015" y="-552.879" font-family="Monaco" font-size="10.00">* unionG()</text>
<text text-anchor="start" x="17.0015" y="-539.544" font-family="Monaco" font-size="10.00">* difference()</text>
<text text-anchor="start" x="17.0015" y="-526.209" font-family="Monaco" font-size="10.00">* symmetricDifference()</text>
</a>
</g>
</g>
<!-- Node4&#45;&gt;Node3 -->
<g id="edge3" class="edge"><title>Node4&#45;&gt;Node3</title>
<path fill="none" stroke="midnightblue" d="M95.0142,-506.315C95.0142,-497.02 95.0142,-488.214 95.0142,-480.007"/>
<polygon fill="none" stroke="midnightblue" points="91.5143,-506.588 95.0142,-516.588 98.5143,-506.588 91.5143,-506.588"/>
</g>
<!-- Node5 -->
<g id="node5" class="node"><title>Node5</title>
<g id="a_node5"><a xlink:href="class_hydro_couple_1_1_i_identity.html" target="_top" xlink:title="IIdentity interface class defines a method to get the Id of an HydroCouple entity. ">
<polygon fill="none" stroke="black" points="21.0034,-1284.63 21.0034,-1361.97 169.025,-1361.97 169.025,-1284.63 21.0034,-1284.63"/>
<text text-anchor="middle" x="95.0142" y="-1349.97" font-family="Monaco" font-size="10.00">HydroCouple::IIdentity</text>
<polyline fill="none" stroke="black" points="21.0034,-1340.63 169.025,-1340.63 "/>
<text text-anchor="middle" x="95.0142" y="-1328.63" font-family="Monaco" font-size="10.00"> </text>
<polyline fill="none" stroke="black" points="21.0034,-1319.3 169.025,-1319.3 "/>
<text text-anchor="start" x="29.0034" y="-1307.3" font-family="Monaco" font-size="10.00">+ ~IIdentity()</text>
<text text-anchor="start" x="29.0034" y="-1293.96" font-family="Monaco" font-size="10.00">+ id()</text>
</a>
</g>
</g>
<!-- Node5&#45;&gt;Node4 -->
<g id="edge4" class="edge"><title>Node5&#45;&gt;Node4</title>
<path fill="none" stroke="midnightblue" d="M95.0142,-1274.39C95.0142,-1266.34 95.0142,-1257.47 95.0142,-1247.94"/>
<polygon fill="none" stroke="midnightblue" points="91.5143,-1274.48 95.0142,-1284.48 98.5143,-1274.48 91.5143,-1274.48"/>
</g>
<!-- Node6 -->
<g id="node6" class="node"><title>Node6</title>
<g id="a_node6"><a xlink:href="class_hydro_couple_1_1_i_description.html" target="_top" xlink:title="IDescription interface class provides descriptive information on a HydroCouple object. ">
<polygon fill="none" stroke="black" points="12.002,-1398.97 12.002,-1516.31 178.026,-1516.31 178.026,-1398.97 12.002,-1398.97"/>
<text text-anchor="middle" x="95.0142" y="-1504.31" font-family="Monaco" font-size="10.00">HydroCouple::IDescription</text>
<polyline fill="none" stroke="black" points="12.002,-1494.98 178.026,-1494.98 "/>
<text text-anchor="middle" x="95.0142" y="-1482.98" font-family="Monaco" font-size="10.00"> </text>
<polyline fill="none" stroke="black" points="12.002,-1473.64 178.026,-1473.64 "/>
<text text-anchor="start" x="20.002" y="-1461.64" font-family="Monaco" font-size="10.00">+ ~IDescription()</text>
<text text-anchor="start" x="20.002" y="-1448.31" font-family="Monaco" font-size="10.00">+ caption()</text>
<text text-anchor="start" x="20.002" y="-1434.97" font-family="Monaco" font-size="10.00">+ setCaption()</text>
<text text-anchor="start" x="20.002" y="-1421.64" font-family="Monaco" font-size="10.00">+ description()</text>
<text text-anchor="start" x="20.002" y="-1408.3" font-family="Monaco" font-size="10.00">+ setDescription()</text>
</a>
</g>
</g>
<!-- Node6&#45;&gt;Node5 -->
<g id="edge5" class="edge"><title>Node6&#45;&gt;Node5</title>
<path fill="none" stroke="midnightblue" d="M95.0142,-1388.4C95.0142,-1379.36 95.0142,-1370.37 95.0142,-1362.11"/>
<polygon fill="none" stroke="midnightblue" points="91.5143,-1388.59 95.0142,-1398.59 98.5143,-1388.59 91.5143,-1388.59"/>
</g>
<!-- Node7 -->
<g id="node7" class="node"><title>Node7</title>
<g id="a_node7"><a xlink:href="class_hydro_couple_1_1_i_property_changed.html" target="_top" xlink:title="IPropertyChanged interface is used to emit signal/event when a property of an object changes...">
<polygon fill="none" stroke="black" points="0,-1553.31 0,-1617.32 190.028,-1617.32 190.028,-1553.31 0,-1553.31"/>
<text text-anchor="middle" x="95.0142" y="-1605.32" font-family="Monaco" font-size="10.00">HydroCouple::IPropertyChanged</text>
<polyline fill="none" stroke="black" points="0,-1595.98 190.028,-1595.98 "/>
<text text-anchor="middle" x="95.0142" y="-1583.98" font-family="Monaco" font-size="10.00"> </text>
<polyline fill="none" stroke="black" points="0,-1574.65 190.028,-1574.65 "/>
<text text-anchor="start" x="8" y="-1562.65" font-family="Monaco" font-size="10.00">+ ~IPropertyChanged()</text>
</a>
</g>
</g>
<!-- Node7&#45;&gt;Node6 -->
<g id="edge6" class="edge"><title>Node7&#45;&gt;Node6</title>
<path fill="none" stroke="midnightblue" d="M95.0142,-1542.99C95.0142,-1534.61 95.0142,-1525.64 95.0142,-1516.8"/>
<polygon fill="none" stroke="midnightblue" points="91.5143,-1543.25 95.0142,-1553.25 98.5143,-1543.25 91.5143,-1543.25"/>
</g>
</g>
</svg>
