<?xml version="1.0" encoding="UTF-8" standalone="no"?>
<!DOCTYPE svg PUBLIC "-//W3C//DTD SVG 1.1//EN"
 "http://www.w3.org/Graphics/SVG/1.1/DTD/svg11.dtd">
<!-- Generated by graphviz version 2.38.0 (20140413.2041)
 -->
<!-- Title: HydroCoupleSDK::Description::propertyChanged Pages: 1 -->
<svg width="400pt" height="98pt"
 viewBox="0.00 0.00 400.05 97.67" xmlns="http://www.w3.org/2000/svg" xmlns:xlink="http://www.w3.org/1999/xlink">
<g id="graph0" class="graph" transform="scale(1 1) rotate(0) translate(4 93.6699)">
<title>HydroCoupleSDK::Description::propertyChanged</title>
<polygon fill="white" stroke="none" points="-4,4 -4,-93.6699 396.053,-93.6699 396.053,4 -4,4"/>
<!-- Node1 -->
<g id="node1" class="node"><title>Node1</title>
<polygon fill="#bfbfbf" stroke="black" points="0,-27.5 0,-62.1699 178.026,-62.1699 178.026,-27.5 0,-27.5"/>
<text text-anchor="start" x="8" y="-50.1699" font-family="Monaco" font-size="10.00">HydroCoupleSDK::Description</text>
<text text-anchor="middle" x="89.0132" y="-36.835" font-family="Monaco" font-size="10.00">::propertyChanged</text>
</g>
<!-- Node2 -->
<g id="node2" class="node"><title>Node2</title>
<g id="a_node2"><a xlink:href="class_hydro_couple_s_d_k_1_1_description.html#abcc77bedf753d33355773b6e5c929d5f" target="_top" xlink:title="Sets caption for the entity. ">
<polygon fill="white" stroke="black" points="214.026,-54.5 214.026,-89.1699 392.053,-89.1699 392.053,-54.5 214.026,-54.5"/>
<text text-anchor="start" x="222.026" y="-77.1699" font-family="Monaco" font-size="10.00">HydroCoupleSDK::Description</text>
<text text-anchor="middle" x="303.04" y="-63.835" font-family="Monaco" font-size="10.00">::setCaption</text>
</a>
</g>
</g>
<!-- Node1&#45;&gt;Node2 -->
<g id="edge1" class="edge"><title>Node1&#45;&gt;Node2</title>
<path fill="none" stroke="midnightblue" d="M188.133,-57.3298C196.727,-58.4242 205.391,-59.5274 213.896,-60.6106"/>
<polygon fill="midnightblue" stroke="midnightblue" points="188.452,-53.8422 178.089,-56.0508 187.567,-60.7861 188.452,-53.8422"/>
</g>
<!-- Node3 -->
<g id="node3" class="node"><title>Node3</title>
<g id="a_node3"><a xlink:href="class_hydro_couple_s_d_k_1_1_description.html#a0d282d514cdcc821f21b7028ca2e5e1d" target="_top" xlink:title="Gets additional descriptive information for the entity. ">
<polygon fill="white" stroke="black" points="214.026,-0.5 214.026,-35.1699 392.053,-35.1699 392.053,-0.5 214.026,-0.5"/>
<text text-anchor="start" x="222.026" y="-23.1699" font-family="Monaco" font-size="10.00">HydroCoupleSDK::Description</text>
<text text-anchor="middle" x="303.04" y="-9.83496" font-family="Monaco" font-size="10.00">::setDescription</text>
</a>
</g>
</g>
<!-- Node1&#45;&gt;Node3 -->
<g id="edge2" class="edge"><title>Node1&#45;&gt;Node3</title>
<path fill="none" stroke="midnightblue" d="M188.133,-32.3402C196.727,-31.2458 205.391,-30.1425 213.896,-29.0594"/>
<polygon fill="midnightblue" stroke="midnightblue" points="187.567,-28.8838 178.089,-33.6191 188.452,-35.8277 187.567,-28.8838"/>
</g>
</g>
</svg>
