<?xml version="1.0" encoding="UTF-8" standalone="no"?>
<!DOCTYPE svg PUBLIC "-//W3C//DTD SVG 1.1//EN"
 "http://www.w3.org/Graphics/SVG/1.1/DTD/svg11.dtd">
<!-- Generated by graphviz version 2.38.0 (20140413.2041)
 -->
<!-- Title: HydroCouple::Spatial::IGeometryOnlyComponentDataItem::~IGeometryOnlyComponentDataItem Pages: 1 -->
<svg width="460pt" height="206pt"
 viewBox="0.00 0.00 460.06 205.67" xmlns="http://www.w3.org/2000/svg" xmlns:xlink="http://www.w3.org/1999/xlink">
<g id="graph0" class="graph" transform="scale(1 1) rotate(0) translate(4 201.67)">
<title>HydroCouple::Spatial::IGeometryOnlyComponentDataItem::~IGeometryOnlyComponentDataItem</title>
<!-- Node1 -->
<g id="node1" class="node"><title>Node1</title>
<polygon fill="#bfbfbf" stroke="black" points="0,-74.8325 0,-122.837 238.036,-122.837 238.036,-74.8325 0,-74.8325"/>
<text text-anchor="start" x="8" y="-110.837" font-family="Monaco" font-size="10.00">HydroCouple::Spatial</text>
<text text-anchor="start" x="8" y="-97.5024" font-family="Monaco" font-size="10.00">::IGeometryOnlyComponentData</text>
<text text-anchor="middle" x="119.018" y="-84.1675" font-family="Monaco" font-size="10.00">Item::~IGeometryOnlyComponentDataItem</text>
</g>
<!-- Node2 -->
<g id="node2" class="node"><title>Node2</title>
<g id="a_node2"><a xlink:href="class_hydro_couple_1_1_i_component_data_item.html#a652b695e108f9e3a04f96f1207014b5f" target="_top" xlink:title="Gets a single value for given dimension indexes specified. ">
<polygon fill="none" stroke="black" points="274.036,-162.5 274.036,-197.17 452.062,-197.17 452.062,-162.5 274.036,-162.5"/>
<text text-anchor="start" x="282.036" y="-185.17" font-family="Monaco" font-size="10.00">HydroCouple::IComponentData</text>
<text text-anchor="middle" x="363.049" y="-171.835" font-family="Monaco" font-size="10.00">Item::getValue</text>
</a>
</g>
</g>
<!-- Node1&#45;&gt;Node2 -->
<g id="edge1" class="edge"><title>Node1&#45;&gt;Node2</title>
<path fill="none" stroke="midnightblue" d="M186.915,-122.937C213.896,-132.488 245.367,-143.416 274.036,-152.835 280.565,-154.98 287.384,-157.166 294.212,-159.32"/>
<polygon fill="midnightblue" stroke="midnightblue" points="293.598,-162.795 304.187,-162.442 295.689,-156.114 293.598,-162.795"/>
</g>
<!-- Node3 -->
<g id="node3" class="node"><title>Node3</title>
<g id="a_node3"><a xlink:href="class_hydro_couple_1_1_i_component_data_item.html#aed149c453986ae14c8365ee7fa7bed3d" target="_top" xlink:title="Gets a multi&#45;dimensional array of values for given dimension indexes and size for a hyperslab...">
<polygon fill="none" stroke="black" points="274.036,-108.5 274.036,-143.17 452.062,-143.17 452.062,-108.5 274.036,-108.5"/>
<text text-anchor="start" x="282.036" y="-131.17" font-family="Monaco" font-size="10.00">HydroCouple::IComponentData</text>
<text text-anchor="middle" x="363.049" y="-117.835" font-family="Monaco" font-size="10.00">Item::getValues</text>
</a>
</g>
</g>
<!-- Node1&#45;&gt;Node3 -->
<g id="edge2" class="edge"><title>Node1&#45;&gt;Node3</title>
<path fill="none" stroke="midnightblue" d="M238.198,-112.019C246.729,-112.97 255.278,-113.924 263.677,-114.861"/>
<polygon fill="midnightblue" stroke="midnightblue" points="263.509,-118.364 273.836,-115.994 264.286,-111.407 263.509,-118.364"/>
</g>
<!-- Node4 -->
<g id="node4" class="node"><title>Node4</title>
<g id="a_node4"><a xlink:href="class_hydro_couple_1_1_i_component_data_item.html#a0d2d2c003357ae04bd78c4fc7312c47c" target="_top" xlink:title="Sets a single value for given dimension indexes specified. ">
<polygon fill="none" stroke="black" points="274.036,-54.5 274.036,-89.1699 452.062,-89.1699 452.062,-54.5 274.036,-54.5"/>
<text text-anchor="start" x="282.036" y="-77.1699" font-family="Monaco" font-size="10.00">HydroCouple::IComponentData</text>
<text text-anchor="middle" x="363.049" y="-63.835" font-family="Monaco" font-size="10.00">Item::setValue</text>
</a>
</g>
</g>
<!-- Node1&#45;&gt;Node4 -->
<g id="edge3" class="edge"><title>Node1&#45;&gt;Node4</title>
<path fill="none" stroke="midnightblue" d="M238.198,-85.6513C246.729,-84.6997 255.278,-83.7459 263.677,-82.8089"/>
<polygon fill="midnightblue" stroke="midnightblue" points="264.286,-86.2629 273.836,-81.6757 263.509,-79.306 264.286,-86.2629"/>
</g>
<!-- Node5 -->
<g id="node5" class="node"><title>Node5</title>
<g id="a_node5"><a xlink:href="class_hydro_couple_1_1_i_component_data_item.html#ab51166edc999587d0427d366389eb5ad" target="_top" xlink:title="Sets a multi&#45;dimensional array of values for given dimension indexes and size for a hyperslab...">
<polygon fill="none" stroke="black" points="274.036,-0.5 274.036,-35.1699 452.062,-35.1699 452.062,-0.5 274.036,-0.5"/>
<text text-anchor="start" x="282.036" y="-23.1699" font-family="Monaco" font-size="10.00">HydroCouple::IComponentData</text>
<text text-anchor="middle" x="363.049" y="-9.83496" font-family="Monaco" font-size="10.00">Item::setValues</text>
</a>
</g>
</g>
<!-- Node1&#45;&gt;Node5 -->
<g id="edge4" class="edge"><title>Node1&#45;&gt;Node5</title>
<path fill="none" stroke="midnightblue" d="M186.915,-74.7331C213.896,-65.182 245.367,-54.2542 274.036,-44.835 280.565,-42.6898 287.384,-40.5035 294.212,-38.3504"/>
<polygon fill="midnightblue" stroke="midnightblue" points="295.689,-41.5554 304.187,-35.2283 293.598,-34.875 295.689,-41.5554"/>
</g>
</g>
</svg>
