<?xml version="1.0" encoding="UTF-8" standalone="no"?>
<!DOCTYPE svg PUBLIC "-//W3C//DTD SVG 1.1//EN"
 "http://www.w3.org/Graphics/SVG/1.1/DTD/svg11.dtd">
<!-- Generated by graphviz version 2.38.0 (20140413.2041)
 -->
<!-- Title: HydroCouple::SpatioTemporal::ITimeTINComponentItem Pages: 1 -->
<!--zoomable 946 -->
<svg id="main" version="1.1" xmlns="http://www.w3.org/2000/svg" xmlns:xlink="http://www.w3.org/1999/xlink" xml:space="preserve" onload="init(evt)">
<style type="text/css"><![CDATA[
.edge:hover path { stroke: red; }
.edge:hover polygon { stroke: red; fill: red; }
]]></style>
<script type="text/javascript"><![CDATA[
var edges = document.getElementsByTagName('g');
if (edges && edges.length) {
  for (var i=0;i<edges.length;i++) {
    if (edges[i].id.substr(0,4)=='edge') {
      edges[i].setAttribute('class','edge');
    }
  }
}
]]></script>
        <defs>
                <circle id="rim" cx="0" cy="0" r="7"/>
                <circle id="rim2" cx="0" cy="0" r="3.5"/>
                <g id="zoomPlus">
                        <use xlink:href="#rim" fill="#404040">
                                <set attributeName="fill" to="#808080" begin="zoomplus.mouseover" end="zoomplus.mouseout"/>
                        </use>
                        <path d="M-4,0h8M0,-4v8" fill="none" stroke="white" stroke-width="1.5" pointer-events="none"/>
                </g>
                <g id="zoomMin">
                        <use xlink:href="#rim" fill="#404040">
                                <set attributeName="fill" to="#808080" begin="zoomminus.mouseover" end="zoomminus.mouseout"/>
                        </use>
                        <path d="M-4,0h8" fill="none" stroke="white" stroke-width="1.5" pointer-events="none"/>
                </g>
                <g id="dirArrow">
                        <path fill="none" stroke="white" stroke-width="1.5" d="M0,-3.0v7 M-2.5,-0.5L0,-3.0L2.5,-0.5"/>
                </g>
               <g id="resetDef">
                       <use xlink:href="#rim2" fill="#404040">
                               <set attributeName="fill" to="#808080" begin="reset.mouseover" end="reset.mouseout"/>
                       </use>
               </g>
        </defs>

<script type="text/javascript">
var viewWidth = 382;
var viewHeight = 946;
var sectionId = 'dynsection-0';
</script>
<script xlink:href="svgpan.js"/>
<svg id="graph" class="graph">
<g id="viewport">
<title>HydroCouple::SpatioTemporal::ITimeTINComponentItem</title>
<polygon fill="white" stroke="none" points="-4,4 -4,-941.733 378.026,-941.733 378.026,4 -4,4"/>
<!-- Node1 -->
<g id="node1" class="node"><title>Node1</title>
<polygon fill="#bfbfbf" stroke="black" points="98,-154.845 98,-232.185 276.026,-232.185 276.026,-154.845 98,-154.845"/>
<text text-anchor="start" x="106" y="-220.185" font-family="Monaco" font-size="10.00">HydroCouple::SpatioTemporal</text>
<text text-anchor="middle" x="187.013" y="-206.85" font-family="Monaco" font-size="10.00">::ITimeTINComponentItem</text>
<polyline fill="none" stroke="black" points="98,-197.515 276.026,-197.515 "/>
<text text-anchor="middle" x="187.013" y="-185.515" font-family="Monaco" font-size="10.00"> </text>
<polyline fill="none" stroke="black" points="98,-176.18 276.026,-176.18 "/>
<text text-anchor="start" x="106" y="-164.18" font-family="Monaco" font-size="10.00">+ ~ITimeTINComponentItem()</text>
</g>
<!-- Node8 -->
<g id="node8" class="node"><title>Node8</title>
<g id="a_node8"><a xlink:href="class_hydro_couple_1_1_spatio_temporal_1_1_i_time_t_i_n_argument.html" target="_top" xlink:title="The ITimeTINArgument class. ">
<polygon fill="white" stroke="black" points="0,-0.5 0,-117.845 178.026,-117.845 178.026,-0.5 0,-0.5"/>
<text text-anchor="start" x="8" y="-105.845" font-family="Monaco" font-size="10.00">HydroCouple::SpatioTemporal</text>
<text text-anchor="middle" x="89.0132" y="-92.5098" font-family="Monaco" font-size="10.00">::ITimeTINArgument</text>
<polyline fill="none" stroke="black" points="0,-83.1748 178.026,-83.1748 "/>
<text text-anchor="middle" x="89.0132" y="-71.1748" font-family="Monaco" font-size="10.00"> </text>
<polyline fill="none" stroke="black" points="0,-61.8398 178.026,-61.8398 "/>
<text text-anchor="start" x="8" y="-49.8398" font-family="Monaco" font-size="10.00">+ ~ITimeTINArgument()</text>
<text text-anchor="start" x="8" y="-36.5049" font-family="Monaco" font-size="10.00">+ setTimes()</text>
<text text-anchor="start" x="8" y="-23.1699" font-family="Monaco" font-size="10.00">+ setTIN()</text>
<text text-anchor="start" x="8" y="-9.83496" font-family="Monaco" font-size="10.00">+ timeTINValueSets()</text>
</a>
</g>
</g>
<!-- Node1&#45;&gt;Node8 -->
<g id="edge8" class="edge"><title>Node1&#45;&gt;Node8</title>
<path fill="none" stroke="midnightblue" d="M152.812,-146.329C146.003,-137.133 138.773,-127.37 131.72,-117.845"/>
<polygon fill="none" stroke="midnightblue" points="150.166,-148.637 158.93,-154.591 155.792,-144.471 150.166,-148.637"/>
</g>
<!-- Node9 -->
<g id="node9" class="node"><title>Node9</title>
<g id="a_node9"><a xlink:href="class_hydro_couple_1_1_spatio_temporal_1_1_i_time_t_i_n_exchange_item.html" target="_top" xlink:title="The ITimeTINExchangeItem class. ">
<polygon fill="white" stroke="black" points="196,-13.835 196,-104.51 374.026,-104.51 374.026,-13.835 196,-13.835"/>
<text text-anchor="start" x="204" y="-92.5098" font-family="Monaco" font-size="10.00">HydroCouple::SpatioTemporal</text>
<text text-anchor="middle" x="285.013" y="-79.1748" font-family="Monaco" font-size="10.00">::ITimeTINExchangeItem</text>
<polyline fill="none" stroke="black" points="196,-69.8398 374.026,-69.8398 "/>
<text text-anchor="middle" x="285.013" y="-57.8398" font-family="Monaco" font-size="10.00"> </text>
<polyline fill="none" stroke="black" points="196,-48.5049 374.026,-48.5049 "/>
<text text-anchor="start" x="204" y="-36.5049" font-family="Monaco" font-size="10.00">+ ~ITimeTINExchangeItem()</text>
<text text-anchor="start" x="204" y="-23.1699" font-family="Monaco" font-size="10.00">+ timeTINValues()</text>
</a>
</g>
</g>
<!-- Node1&#45;&gt;Node9 -->
<g id="edge9" class="edge"><title>Node1&#45;&gt;Node9</title>
<path fill="none" stroke="midnightblue" d="M221.197,-146.351C231.213,-132.826 242.14,-118.07 252.076,-104.652"/>
<polygon fill="none" stroke="midnightblue" points="218.234,-144.471 215.096,-154.591 223.86,-148.637 218.234,-144.471"/>
</g>
<!-- Node2 -->
<g id="node2" class="node"><title>Node2</title>
<g id="a_node2"><a xlink:href="class_hydro_couple_1_1_temporal_1_1_i_time_component_item.html" target="_top" xlink:title="ITimeComponentItem is an IComponentItem with a temporal attribute. ">
<polygon fill="white" stroke="black" points="26.002,-269.185 26.002,-399.864 180.024,-399.864 180.024,-269.185 26.002,-269.185"/>
<text text-anchor="start" x="34.002" y="-387.864" font-family="Monaco" font-size="10.00">HydroCouple::Temporal</text>
<text text-anchor="middle" x="103.013" y="-374.529" font-family="Monaco" font-size="10.00">::ITimeComponentItem</text>
<polyline fill="none" stroke="black" points="26.002,-365.194 180.024,-365.194 "/>
<text text-anchor="middle" x="103.013" y="-353.194" font-family="Monaco" font-size="10.00"> </text>
<polyline fill="none" stroke="black" points="26.002,-343.859 180.024,-343.859 "/>
<text text-anchor="start" x="34.002" y="-331.859" font-family="Monaco" font-size="10.00">+ ~ITimeComponentItem()</text>
<text text-anchor="start" x="34.002" y="-318.524" font-family="Monaco" font-size="10.00">+ timeDimension()</text>
<text text-anchor="start" x="34.002" y="-305.189" font-family="Monaco" font-size="10.00">+ times()</text>
<text text-anchor="start" x="34.002" y="-291.854" font-family="Monaco" font-size="10.00">+ timeSpan()</text>
<text text-anchor="start" x="34.002" y="-278.52" font-family="Monaco" font-size="10.00">+ time()</text>
</a>
</g>
</g>
<!-- Node2&#45;&gt;Node1 -->
<g id="edge1" class="edge"><title>Node2&#45;&gt;Node1</title>
<path fill="none" stroke="midnightblue" d="M147.373,-260.115C153.15,-250.553 158.868,-241.091 164.088,-232.454"/>
<polygon fill="none" stroke="midnightblue" points="144.239,-258.534 142.062,-268.903 150.23,-262.154 144.239,-258.534"/>
</g>
<!-- Node3 -->
<g id="node3" class="node"><title>Node3</title>
<g id="a_node3"><a xlink:href="class_hydro_couple_1_1_i_component_item.html" target="_top" xlink:title="IComponentItem is a fundamental unit of data for a component. ">
<polygon fill="white" stroke="black" points="98,-436.864 98,-540.874 276.026,-540.874 276.026,-436.864 98,-436.864"/>
<text text-anchor="middle" x="187.013" y="-528.874" font-family="Monaco" font-size="10.00">HydroCouple::IComponentItem</text>
<polyline fill="none" stroke="black" points="98,-519.539 276.026,-519.539 "/>
<text text-anchor="middle" x="187.013" y="-507.539" font-family="Monaco" font-size="10.00"> </text>
<polyline fill="none" stroke="black" points="98,-498.204 276.026,-498.204 "/>
<text text-anchor="start" x="106" y="-486.204" font-family="Monaco" font-size="10.00">+ ~IComponentItem()</text>
<text text-anchor="start" x="106" y="-472.869" font-family="Monaco" font-size="10.00">+ modelComponent()</text>
<text text-anchor="start" x="106" y="-459.534" font-family="Monaco" font-size="10.00">+ modelComponentId()</text>
<text text-anchor="start" x="106" y="-446.199" font-family="Monaco" font-size="10.00">+ dimensions()</text>
</a>
</g>
</g>
<!-- Node3&#45;&gt;Node2 -->
<g id="edge2" class="edge"><title>Node3&#45;&gt;Node2</title>
<path fill="none" stroke="midnightblue" d="M153.866,-427.752C148.853,-418.661 143.664,-409.25 138.602,-400.07"/>
<polygon fill="none" stroke="midnightblue" points="150.915,-429.65 158.809,-436.717 157.045,-426.27 150.915,-429.65"/>
</g>
<!-- Node7 -->
<g id="node7" class="node"><title>Node7</title>
<g id="a_node7"><a xlink:href="class_hydro_couple_1_1_spatial_1_1_i_t_i_n_component_item.html" target="_top" xlink:title="ITINComponentItem represents ITIN IComponentItem. ">
<polygon fill="white" stroke="black" points="198.002,-275.852 198.002,-393.197 346.024,-393.197 346.024,-275.852 198.002,-275.852"/>
<text text-anchor="start" x="206.002" y="-381.197" font-family="Monaco" font-size="10.00">HydroCouple::Spatial</text>
<text text-anchor="middle" x="272.013" y="-367.862" font-family="Monaco" font-size="10.00">::ITINComponentItem</text>
<polyline fill="none" stroke="black" points="198.002,-358.527 346.024,-358.527 "/>
<text text-anchor="middle" x="272.013" y="-346.527" font-family="Monaco" font-size="10.00"> </text>
<polyline fill="none" stroke="black" points="198.002,-337.192 346.024,-337.192 "/>
<text text-anchor="start" x="206.002" y="-325.192" font-family="Monaco" font-size="10.00">+ ~ITINComponentItem()</text>
<text text-anchor="start" x="206.002" y="-311.857" font-family="Monaco" font-size="10.00">+ patchDimension()</text>
<text text-anchor="start" x="206.002" y="-298.522" font-family="Monaco" font-size="10.00">+ polyhedralSurface()</text>
<text text-anchor="start" x="206.002" y="-285.187" font-family="Monaco" font-size="10.00">+ geometry()</text>
</a>
</g>
</g>
<!-- Node3&#45;&gt;Node7 -->
<g id="edge7" class="edge"><title>Node3&#45;&gt;Node7</title>
<path fill="none" stroke="midnightblue" d="M220.549,-427.763C226.867,-416.44 233.461,-404.621 239.739,-393.37"/>
<polygon fill="none" stroke="midnightblue" points="217.369,-426.279 215.553,-436.717 223.482,-429.689 217.369,-426.279"/>
</g>
<!-- Node4 -->
<g id="node4" class="node"><title>Node4</title>
<g id="a_node4"><a xlink:href="class_hydro_couple_1_1_i_identity.html" target="_top" xlink:title="IIdentity interface class defines a method to get the Id of an HydroCouple entity. ">
<polygon fill="white" stroke="black" points="113.002,-577.874 113.002,-681.884 261.024,-681.884 261.024,-577.874 113.002,-577.874"/>
<text text-anchor="middle" x="187.013" y="-669.884" font-family="Monaco" font-size="10.00">HydroCouple::IIdentity</text>
<polyline fill="none" stroke="black" points="113.002,-660.549 261.024,-660.549 "/>
<text text-anchor="middle" x="187.013" y="-648.549" font-family="Monaco" font-size="10.00"> </text>
<polyline fill="none" stroke="black" points="113.002,-639.214 261.024,-639.214 "/>
<text text-anchor="start" x="121.002" y="-627.214" font-family="Monaco" font-size="10.00">+ ~IIdentity()</text>
<text text-anchor="start" x="121.002" y="-613.879" font-family="Monaco" font-size="10.00">+ MPI_Comm()</text>
<text text-anchor="start" x="121.002" y="-600.544" font-family="Monaco" font-size="10.00">+ MPI_Rank()</text>
<text text-anchor="start" x="121.002" y="-587.209" font-family="Monaco" font-size="10.00">+ id()</text>
</a>
</g>
</g>
<!-- Node4&#45;&gt;Node3 -->
<g id="edge3" class="edge"><title>Node4&#45;&gt;Node3</title>
<path fill="none" stroke="midnightblue" d="M187.013,-567.315C187.013,-558.533 187.013,-549.579 187.013,-541.025"/>
<polygon fill="none" stroke="midnightblue" points="183.513,-567.512 187.013,-577.512 190.513,-567.512 183.513,-567.512"/>
</g>
<!-- Node5 -->
<g id="node5" class="node"><title>Node5</title>
<g id="a_node5"><a xlink:href="class_hydro_couple_1_1_i_description.html" target="_top" xlink:title="IDescription interface class provides descriptive information on a HydroCouple object. ">
<polygon fill="white" stroke="black" points="104.001,-718.884 104.001,-836.229 270.025,-836.229 270.025,-718.884 104.001,-718.884"/>
<text text-anchor="middle" x="187.013" y="-824.229" font-family="Monaco" font-size="10.00">HydroCouple::IDescription</text>
<polyline fill="none" stroke="black" points="104.001,-814.894 270.025,-814.894 "/>
<text text-anchor="middle" x="187.013" y="-802.894" font-family="Monaco" font-size="10.00"> </text>
<polyline fill="none" stroke="black" points="104.001,-793.559 270.025,-793.559 "/>
<text text-anchor="start" x="112.001" y="-781.559" font-family="Monaco" font-size="10.00">+ ~IDescription()</text>
<text text-anchor="start" x="112.001" y="-768.224" font-family="Monaco" font-size="10.00">+ getCaption()</text>
<text text-anchor="start" x="112.001" y="-754.889" font-family="Monaco" font-size="10.00">+ setCaption()</text>
<text text-anchor="start" x="112.001" y="-741.554" font-family="Monaco" font-size="10.00">+ getDescription()</text>
<text text-anchor="start" x="112.001" y="-728.219" font-family="Monaco" font-size="10.00">+ setDescription()</text>
</a>
</g>
</g>
<!-- Node5&#45;&gt;Node4 -->
<g id="edge4" class="edge"><title>Node5&#45;&gt;Node4</title>
<path fill="none" stroke="midnightblue" d="M187.013,-708.283C187.013,-699.465 187.013,-690.557 187.013,-682.079"/>
<polygon fill="none" stroke="midnightblue" points="183.513,-708.562 187.013,-718.562 190.513,-708.562 183.513,-708.562"/>
</g>
<!-- Node6 -->
<g id="node6" class="node"><title>Node6</title>
<g id="a_node6"><a xlink:href="class_hydro_couple_1_1_i_property_changed.html" target="_top" xlink:title="IPropertyChanged interface is used to emit signal/event when a property of an object changes...">
<polygon fill="white" stroke="black" points="91.999,-873.229 91.999,-937.233 282.027,-937.233 282.027,-873.229 91.999,-873.229"/>
<text text-anchor="middle" x="187.013" y="-925.233" font-family="Monaco" font-size="10.00">HydroCouple::IPropertyChanged</text>
<polyline fill="none" stroke="black" points="91.999,-915.898 282.027,-915.898 "/>
<text text-anchor="middle" x="187.013" y="-903.898" font-family="Monaco" font-size="10.00"> </text>
<polyline fill="none" stroke="black" points="91.999,-894.563 282.027,-894.563 "/>
<text text-anchor="start" x="99.999" y="-882.563" font-family="Monaco" font-size="10.00">+ ~IPropertyChanged()</text>
</a>
</g>
</g>
<!-- Node6&#45;&gt;Node5 -->
<g id="edge5" class="edge"><title>Node6&#45;&gt;Node5</title>
<path fill="none" stroke="midnightblue" d="M187.013,-862.908C187.013,-854.523 187.013,-845.557 187.013,-836.715"/>
<polygon fill="none" stroke="midnightblue" points="183.513,-863.165 187.013,-873.165 190.513,-863.165 183.513,-863.165"/>
</g>
<!-- Node7&#45;&gt;Node1 -->
<g id="edge6" class="edge"><title>Node7&#45;&gt;Node1</title>
<path fill="none" stroke="midnightblue" d="M231.428,-267.151C224.147,-255.244 216.791,-243.214 210.217,-232.462"/>
<polygon fill="none" stroke="midnightblue" points="228.501,-269.074 236.704,-275.779 234.473,-265.422 228.501,-269.074"/>
</g>
</g>
</svg>
        <g id="navigator" transform="translate(0 0)" fill="#404254">
                <rect fill="#f2f5e9" fill-opacity="0.5" stroke="#606060" stroke-width=".5" x="0" y="0" width="60" height="60"/>
                <use id="zoomplus" xlink:href="#zoomPlus" x="17" y="9" onmousedown="handleZoom(evt,'in')"/>
                <use id="zoomminus" xlink:href="#zoomMin" x="42" y="9" onmousedown="handleZoom(evt,'out')"/>
                <use id="reset" xlink:href="#resetDef" x="30" y="36" onmousedown="handleReset()"/>
                <g id="arrowUp" xlink:href="#dirArrow" transform="translate(30 24)" onmousedown="handlePan(0,-1)">
                  <use xlink:href="#rim" fill="#404040">
                        <set attributeName="fill" to="#808080" begin="arrowUp.mouseover" end="arrowUp.mouseout"/>
                  </use>
                  <path fill="none" stroke="white" stroke-width="1.5" d="M0,-3.0v7 M-2.5,-0.5L0,-3.0L2.5,-0.5"/>
                </g>
                <g id="arrowRight" xlink:href="#dirArrow" transform="rotate(90) translate(36 -43)" onmousedown="handlePan(1,0)">
                  <use xlink:href="#rim" fill="#404040">
                        <set attributeName="fill" to="#808080" begin="arrowRight.mouseover" end="arrowRight.mouseout"/>
                  </use>
                  <path fill="none" stroke="white" stroke-width="1.5" d="M0,-3.0v7 M-2.5,-0.5L0,-3.0L2.5,-0.5"/>
                </g>
                <g id="arrowDown" xlink:href="#dirArrow" transform="rotate(180) translate(-30 -48)" onmousedown="handlePan(0,1)">
                  <use xlink:href="#rim" fill="#404040">
                        <set attributeName="fill" to="#808080" begin="arrowDown.mouseover" end="arrowDown.mouseout"/>
                  </use>
                  <path fill="none" stroke="white" stroke-width="1.5" d="M0,-3.0v7 M-2.5,-0.5L0,-3.0L2.5,-0.5"/>
                </g>
                <g id="arrowLeft" xlink:href="#dirArrow" transform="rotate(270) translate(-36 17)" onmousedown="handlePan(-1,0)">
                  <use xlink:href="#rim" fill="#404040">
                        <set attributeName="fill" to="#808080" begin="arrowLeft.mouseover" end="arrowLeft.mouseout"/>
                  </use>
                  <path fill="none" stroke="white" stroke-width="1.5" d="M0,-3.0v7 M-2.5,-0.5L0,-3.0L2.5,-0.5"/>
                </g>
        </g>
        <svg viewBox="0 0 15 15" width="100%" height="30px" preserveAspectRatio="xMaxYMin meet">
         <g id="arrow_out" transform="scale(0.3 0.3)">
          <a xlink:href="class_hydro_couple_1_1_spatio_temporal_1_1_i_time_t_i_n_component_item__inherit__graph_org.svg" target="_base">
           <rect id="button" ry="5" rx="5" y="6" x="6" height="38" width="38"
                fill="#f2f5e9" fill-opacity="0.5" stroke="#606060" stroke-width="1.0"/>
           <path id="arrow"
             d="M 11.500037,31.436501 C 11.940474,20.09759 22.043105,11.32322 32.158766,21.979434 L 37.068811,17.246167 C 37.068811,17.246167 37.088388,32 37.088388,32 L 22.160133,31.978069 C 22.160133,31.978069 26.997745,27.140456 26.997745,27.140456 C 18.528582,18.264221 13.291696,25.230495 11.500037,31.436501 z"
             style="fill:#404040;"/>
          </a>
         </g>
        </svg>
</svg>
