<?xml version="1.0" encoding="UTF-8" standalone="no"?>
<!DOCTYPE svg PUBLIC "-//W3C//DTD SVG 1.1//EN"
 "http://www.w3.org/Graphics/SVG/1.1/DTD/svg11.dtd">
<!-- Generated by graphviz version 2.38.0 (20140413.2041)
 -->
<!-- Title: HydroCoupleCore::Data::IArgument Pages: 1 -->
<svg width="162pt" height="637pt"
 viewBox="0.00 0.00 162.39 637.00" xmlns="http://www.w3.org/2000/svg" xmlns:xlink="http://www.w3.org/1999/xlink">
<g id="graph0" class="graph" transform="scale(1 1) rotate(0) translate(4 633)">
<title>HydroCoupleCore::Data::IArgument</title>
<polygon fill="white" stroke="none" points="-4,4 -4,-633 158.394,-633 158.394,4 -4,4"/>
<!-- Node1 -->
<g id="node1" class="node"><title>Node1</title>
<polygon fill="#bfbfbf" stroke="black" points="12.6465,-0.5 12.6465,-174.5 141.747,-174.5 141.747,-0.5 12.6465,-0.5"/>
<text text-anchor="start" x="20.6465" y="-162.5" font-family="Helvetica,sans-Serif" font-size="10.00">HydroCoupleCore::Data</text>
<text text-anchor="middle" x="77.1968" y="-152.5" font-family="Helvetica,sans-Serif" font-size="10.00">::IArgument</text>
<polyline fill="none" stroke="black" points="12.6465,-146.5 141.747,-146.5 "/>
<text text-anchor="middle" x="77.1968" y="-134.5" font-family="Helvetica,sans-Serif" font-size="10.00"> </text>
<polyline fill="none" stroke="black" points="12.6465,-128.5 141.747,-128.5 "/>
<text text-anchor="start" x="20.6465" y="-116.5" font-family="Helvetica,sans-Serif" font-size="10.00">+ ~IArgument()</text>
<text text-anchor="start" x="20.6465" y="-106.5" font-family="Helvetica,sans-Serif" font-size="10.00">+ isOptional()</text>
<text text-anchor="start" x="20.6465" y="-96.5" font-family="Helvetica,sans-Serif" font-size="10.00">+ isReadOnly()</text>
<text text-anchor="start" x="20.6465" y="-86.5" font-family="Helvetica,sans-Serif" font-size="10.00">+ clone()</text>
<text text-anchor="start" x="20.6465" y="-76.5" font-family="Helvetica,sans-Serif" font-size="10.00">+ valueSets()</text>
<text text-anchor="start" x="20.6465" y="-66.5" font-family="Helvetica,sans-Serif" font-size="10.00">+ toString()</text>
<text text-anchor="start" x="20.6465" y="-56.5" font-family="Helvetica,sans-Serif" font-size="10.00">+ fileExtensions()</text>
<text text-anchor="start" x="20.6465" y="-46.5" font-family="Helvetica,sans-Serif" font-size="10.00">+ canReadFromFile()</text>
<text text-anchor="start" x="20.6465" y="-36.5" font-family="Helvetica,sans-Serif" font-size="10.00">+ canCopyFromAnother()</text>
<text text-anchor="start" x="20.6465" y="-26.5" font-family="Helvetica,sans-Serif" font-size="10.00">+ canReadFromString()</text>
<text text-anchor="start" x="20.6465" y="-16.5" font-family="Helvetica,sans-Serif" font-size="10.00">+ readFromString()</text>
<text text-anchor="start" x="20.6465" y="-6.5" font-family="Helvetica,sans-Serif" font-size="10.00">+ readFromFile()</text>
</g>
<!-- Node2 -->
<g id="node2" class="node"><title>Node2</title>
<g id="a_node2"><a xlink:href="class_hydro_couple_core_1_1_data_1_1_i_component_item.html" target="_top" xlink:title="IComponentItem is a fundamental unit of data for a component. ">
<polygon fill="white" stroke="black" points="15.8374,-211.5 15.8374,-295.5 138.556,-295.5 138.556,-211.5 15.8374,-211.5"/>
<text text-anchor="start" x="23.8374" y="-283.5" font-family="Helvetica,sans-Serif" font-size="10.00">HydroCoupleCore::Data</text>
<text text-anchor="middle" x="77.1968" y="-273.5" font-family="Helvetica,sans-Serif" font-size="10.00">::IComponentItem</text>
<polyline fill="none" stroke="black" points="15.8374,-267.5 138.556,-267.5 "/>
<text text-anchor="middle" x="77.1968" y="-255.5" font-family="Helvetica,sans-Serif" font-size="10.00"> </text>
<polyline fill="none" stroke="black" points="15.8374,-249.5 138.556,-249.5 "/>
<text text-anchor="start" x="23.8374" y="-237.5" font-family="Helvetica,sans-Serif" font-size="10.00">+ ~IComponentItem()</text>
<text text-anchor="start" x="23.8374" y="-227.5" font-family="Helvetica,sans-Serif" font-size="10.00">+ modelComponent()</text>
<text text-anchor="start" x="23.8374" y="-217.5" font-family="Helvetica,sans-Serif" font-size="10.00">+ dimensions()</text>
</a>
</g>
</g>
<!-- Node2&#45;&gt;Node1 -->
<g id="edge1" class="edge"><title>Node2&#45;&gt;Node1</title>
<path fill="none" stroke="midnightblue" d="M77.1968,-201.097C77.1968,-192.653 77.1968,-183.704 77.1968,-174.687"/>
<polygon fill="none" stroke="midnightblue" points="73.6969,-201.116 77.1968,-211.116 80.6969,-201.116 73.6969,-201.116"/>
</g>
<!-- Node3 -->
<g id="node3" class="node"><title>Node3</title>
<g id="a_node3"><a xlink:href="class_hydro_couple_core_1_1_i_identity.html" target="_top" xlink:title="IIdentity interface class defines a method to get the Id of an HydroCouple entity. &#160;IIdentity extends the IDescription interface class, and therefore has, next to the id, a caption and a description. ">
<polygon fill="white" stroke="black" points="8.88916,-332.5 8.88916,-396.5 145.504,-396.5 145.504,-332.5 8.88916,-332.5"/>
<text text-anchor="middle" x="77.1968" y="-384.5" font-family="Helvetica,sans-Serif" font-size="10.00">HydroCoupleCore::IIdentity</text>
<polyline fill="none" stroke="black" points="8.88916,-378.5 145.504,-378.5 "/>
<text text-anchor="middle" x="77.1968" y="-366.5" font-family="Helvetica,sans-Serif" font-size="10.00"> </text>
<polyline fill="none" stroke="black" points="8.88916,-360.5 145.504,-360.5 "/>
<text text-anchor="start" x="16.8892" y="-348.5" font-family="Helvetica,sans-Serif" font-size="10.00">+ ~IIdentity()</text>
<text text-anchor="start" x="16.8892" y="-338.5" font-family="Helvetica,sans-Serif" font-size="10.00">+ id()</text>
</a>
</g>
</g>
<!-- Node3&#45;&gt;Node2 -->
<g id="edge2" class="edge"><title>Node3&#45;&gt;Node2</title>
<path fill="none" stroke="midnightblue" d="M77.1968,-322.263C77.1968,-313.503 77.1968,-304.255 77.1968,-295.503"/>
<polygon fill="none" stroke="midnightblue" points="73.6969,-322.265 77.1968,-332.265 80.6969,-322.265 73.6969,-322.265"/>
</g>
<!-- Node4 -->
<g id="node4" class="node"><title>Node4</title>
<g id="a_node4"><a xlink:href="class_hydro_couple_core_1_1_i_description.html" target="_top" xlink:title="IDescription interface class provides descriptive information on a HydroCouple object. ">
<polygon fill="white" stroke="black" points="0,-433.5 0,-527.5 154.394,-527.5 154.394,-433.5 0,-433.5"/>
<text text-anchor="middle" x="77.1968" y="-515.5" font-family="Helvetica,sans-Serif" font-size="10.00">HydroCoupleCore::IDescription</text>
<polyline fill="none" stroke="black" points="0,-509.5 154.394,-509.5 "/>
<text text-anchor="middle" x="77.1968" y="-497.5" font-family="Helvetica,sans-Serif" font-size="10.00"> </text>
<polyline fill="none" stroke="black" points="0,-491.5 154.394,-491.5 "/>
<text text-anchor="start" x="8" y="-479.5" font-family="Helvetica,sans-Serif" font-size="10.00">+ ~IDescription()</text>
<text text-anchor="start" x="8" y="-469.5" font-family="Helvetica,sans-Serif" font-size="10.00">+ getCaption()</text>
<text text-anchor="start" x="8" y="-459.5" font-family="Helvetica,sans-Serif" font-size="10.00">+ setCaption()</text>
<text text-anchor="start" x="8" y="-449.5" font-family="Helvetica,sans-Serif" font-size="10.00">+ getDescription()</text>
<text text-anchor="start" x="8" y="-439.5" font-family="Helvetica,sans-Serif" font-size="10.00">+ setDescription()</text>
</a>
</g>
</g>
<!-- Node4&#45;&gt;Node3 -->
<g id="edge3" class="edge"><title>Node4&#45;&gt;Node3</title>
<path fill="none" stroke="midnightblue" d="M77.1968,-423.212C77.1968,-414.081 77.1968,-404.926 77.1968,-396.684"/>
<polygon fill="none" stroke="midnightblue" points="73.6969,-423.46 77.1968,-433.46 80.6969,-423.46 73.6969,-423.46"/>
</g>
<!-- Node5 -->
<g id="node5" class="node"><title>Node5</title>
<g id="a_node5"><a xlink:href="class_hydro_couple_core_1_1_i_property_changed.html" target="_top" xlink:title="IPropertyChanged interface is used to emit signal/event when a property of an object changes...">
<polygon fill="white" stroke="black" points="6.11328,-564.5 6.11328,-628.5 148.28,-628.5 148.28,-564.5 6.11328,-564.5"/>
<text text-anchor="start" x="14.1133" y="-616.5" font-family="Helvetica,sans-Serif" font-size="10.00">HydroCoupleCore::IProperty</text>
<text text-anchor="middle" x="77.1968" y="-606.5" font-family="Helvetica,sans-Serif" font-size="10.00">Changed</text>
<polyline fill="none" stroke="black" points="6.11328,-600.5 148.28,-600.5 "/>
<text text-anchor="middle" x="77.1968" y="-588.5" font-family="Helvetica,sans-Serif" font-size="10.00"> </text>
<polyline fill="none" stroke="black" points="6.11328,-582.5 148.28,-582.5 "/>
<text text-anchor="start" x="14.1133" y="-570.5" font-family="Helvetica,sans-Serif" font-size="10.00">+ ~IPropertyChanged()</text>
</a>
</g>
</g>
<!-- Node5&#45;&gt;Node4 -->
<g id="edge4" class="edge"><title>Node5&#45;&gt;Node4</title>
<path fill="none" stroke="midnightblue" d="M77.1968,-554.141C77.1968,-545.513 77.1968,-536.367 77.1968,-527.581"/>
<polygon fill="none" stroke="midnightblue" points="73.6969,-554.349 77.1968,-564.349 80.6969,-554.349 73.6969,-554.349"/>
</g>
</g>
</svg>
