<?xml version="1.0" encoding="UTF-8" standalone="no"?>
<!DOCTYPE svg PUBLIC "-//W3C//DTD SVG 1.1//EN"
 "http://www.w3.org/Graphics/SVG/1.1/DTD/svg11.dtd">
<!-- Generated by graphviz version 2.38.0 (20140413.2041)
 -->
<!-- Title: HydroCouple::Spatial::IRegularGrid2DComponentItem Pages: 1 -->
<!--zoomable 1113 -->
<svg id="main" version="1.1" xmlns="http://www.w3.org/2000/svg" xmlns:xlink="http://www.w3.org/1999/xlink" xml:space="preserve" onload="init(evt)">
<style type="text/css"><![CDATA[
.edge:hover path { stroke: red; }
.edge:hover polygon { stroke: red; fill: red; }
]]></style>
<script type="text/javascript"><![CDATA[
var edges = document.getElementsByTagName('g');
if (edges && edges.length) {
  for (var i=0;i<edges.length;i++) {
    if (edges[i].id.substr(0,4)=='edge') {
      edges[i].setAttribute('class','edge');
    }
  }
}
]]></script>
        <defs>
                <circle id="rim" cx="0" cy="0" r="7"/>
                <circle id="rim2" cx="0" cy="0" r="3.5"/>
                <g id="zoomPlus">
                        <use xlink:href="#rim" fill="#404040">
                                <set attributeName="fill" to="#808080" begin="zoomplus.mouseover" end="zoomplus.mouseout"/>
                        </use>
                        <path d="M-4,0h8M0,-4v8" fill="none" stroke="white" stroke-width="1.5" pointer-events="none"/>
                </g>
                <g id="zoomMin">
                        <use xlink:href="#rim" fill="#404040">
                                <set attributeName="fill" to="#808080" begin="zoomminus.mouseover" end="zoomminus.mouseout"/>
                        </use>
                        <path d="M-4,0h8" fill="none" stroke="white" stroke-width="1.5" pointer-events="none"/>
                </g>
                <g id="dirArrow">
                        <path fill="none" stroke="white" stroke-width="1.5" d="M0,-3.0v7 M-2.5,-0.5L0,-3.0L2.5,-0.5"/>
                </g>
               <g id="resetDef">
                       <use xlink:href="#rim2" fill="#404040">
                               <set attributeName="fill" to="#808080" begin="reset.mouseover" end="reset.mouseout"/>
                       </use>
               </g>
        </defs>

<script type="text/javascript">
var viewWidth = 1219;
var viewHeight = 1113;
var sectionId = 'dynsection-0';
</script>
<script xlink:href="svgpan.js"/>
<svg id="graph" class="graph">
<g id="viewport">
<title>HydroCouple::Spatial::IRegularGrid2DComponentItem</title>
<polygon fill="white" stroke="none" points="-4,4 -4,-1109.41 1215.03,-1109.41 1215.03,4 -4,4"/>
<!-- Node1 -->
<g id="node1" class="node"><title>Node1</title>
<polygon fill="#bfbfbf" stroke="black" points="299.998,-450.199 299.998,-567.544 508.029,-567.544 508.029,-450.199 299.998,-450.199"/>
<text text-anchor="start" x="307.998" y="-555.544" font-family="Monaco" font-size="10.00">HydroCouple::Spatial</text>
<text text-anchor="middle" x="404.013" y="-542.209" font-family="Monaco" font-size="10.00">::IRegularGrid2DComponentItem</text>
<polyline fill="none" stroke="black" points="299.998,-532.874 508.029,-532.874 "/>
<text text-anchor="middle" x="404.013" y="-520.874" font-family="Monaco" font-size="10.00"> </text>
<polyline fill="none" stroke="black" points="299.998,-511.539 508.029,-511.539 "/>
<text text-anchor="start" x="307.998" y="-499.539" font-family="Monaco" font-size="10.00">+ ~IRegularGrid2DComponentItem()</text>
<text text-anchor="start" x="307.998" y="-486.204" font-family="Monaco" font-size="10.00">+ numXCellsDimension()</text>
<text text-anchor="start" x="307.998" y="-472.869" font-family="Monaco" font-size="10.00">+ numYCellsDimension()</text>
<text text-anchor="start" x="307.998" y="-459.534" font-family="Monaco" font-size="10.00">+ grid()</text>
</g>
<!-- Node6 -->
<g id="node6" class="node"><title>Node6</title>
<g id="a_node6"><a xlink:href="class_hydro_couple_1_1_spatial_1_1_i_regular_grid2_d_argument.html" target="_top" xlink:title="An IRegularGrid2DArgument is an IArgument with an IRegularGrid2DComponentItem. ">
<polygon fill="white" stroke="black" points="0,-309.189 0,-413.199 178.026,-413.199 178.026,-309.189 0,-309.189"/>
<text text-anchor="start" x="8" y="-401.199" font-family="Monaco" font-size="10.00">HydroCouple::Spatial</text>
<text text-anchor="middle" x="89.0132" y="-387.864" font-family="Monaco" font-size="10.00">::IRegularGrid2DArgument</text>
<polyline fill="none" stroke="black" points="0,-378.529 178.026,-378.529 "/>
<text text-anchor="middle" x="89.0132" y="-366.529" font-family="Monaco" font-size="10.00"> </text>
<polyline fill="none" stroke="black" points="0,-357.194 178.026,-357.194 "/>
<text text-anchor="start" x="8" y="-345.194" font-family="Monaco" font-size="10.00">+ ~IRegularGrid2DArgument()</text>
<text text-anchor="start" x="8" y="-331.859" font-family="Monaco" font-size="10.00">+ setGrid()</text>
<text text-anchor="start" x="8" y="-318.524" font-family="Monaco" font-size="10.00">+ regular2DValueSets()</text>
</a>
</g>
</g>
<!-- Node1&#45;&gt;Node6 -->
<g id="edge5" class="edge"><title>Node1&#45;&gt;Node6</title>
<path fill="none" stroke="midnightblue" d="M290.449,-460.479C256.907,-445.974 220.277,-429.631 187.013,-413.699 184.066,-412.288 181.079,-410.837 178.069,-409.357"/>
<polygon fill="none" stroke="midnightblue" points="289.254,-463.775 299.822,-464.52 292.025,-457.347 289.254,-463.775"/>
</g>
<!-- Node7 -->
<g id="node7" class="node"><title>Node7</title>
<g id="a_node7"><a xlink:href="class_hydro_couple_1_1_spatial_1_1_i_regular_grid2_d_exhange_item.html" target="_top" xlink:title="An IRegularGrid2DExhangeItem is an IExchangeItem with an IRegularGrid2DComponentItem. ">
<polygon fill="white" stroke="black" points="195.999,-315.857 195.999,-406.532 392.028,-406.532 392.028,-315.857 195.999,-315.857"/>
<text text-anchor="start" x="203.999" y="-394.532" font-family="Monaco" font-size="10.00">HydroCouple::Spatial</text>
<text text-anchor="middle" x="294.013" y="-381.197" font-family="Monaco" font-size="10.00">::IRegularGrid2DExhangeItem</text>
<polyline fill="none" stroke="black" points="195.999,-371.862 392.028,-371.862 "/>
<text text-anchor="middle" x="294.013" y="-359.862" font-family="Monaco" font-size="10.00"> </text>
<polyline fill="none" stroke="black" points="195.999,-350.527 392.028,-350.527 "/>
<text text-anchor="start" x="203.999" y="-338.527" font-family="Monaco" font-size="10.00">+ ~IRegularGrid2DExhangeItem()</text>
<text text-anchor="start" x="203.999" y="-325.192" font-family="Monaco" font-size="10.00">+ regular2DValues()</text>
</a>
</g>
</g>
<!-- Node1&#45;&gt;Node7 -->
<g id="edge6" class="edge"><title>Node1&#45;&gt;Node7</title>
<path fill="none" stroke="midnightblue" d="M354.104,-441.775C345.209,-429.995 336.135,-417.978 327.823,-406.97"/>
<polygon fill="none" stroke="midnightblue" points="351.403,-444.006 360.222,-449.877 356.989,-439.788 351.403,-444.006"/>
</g>
<!-- Node8 -->
<g id="node8" class="node"><title>Node8</title>
<g id="a_node8"><a xlink:href="class_hydro_couple_1_1_spatial_1_1_i_regular_grid3_d_component_item.html" target="_top" xlink:title="An IRegularGrid3DComponentItem represents an IRegularGrid3D IComponentItem. ">
<polygon fill="white" stroke="black" points="409.998,-309.189 409.998,-413.199 618.029,-413.199 618.029,-309.189 409.998,-309.189"/>
<text text-anchor="start" x="417.998" y="-401.199" font-family="Monaco" font-size="10.00">HydroCouple::Spatial</text>
<text text-anchor="middle" x="514.013" y="-387.864" font-family="Monaco" font-size="10.00">::IRegularGrid3DComponentItem</text>
<polyline fill="none" stroke="black" points="409.998,-378.529 618.029,-378.529 "/>
<text text-anchor="middle" x="514.013" y="-366.529" font-family="Monaco" font-size="10.00"> </text>
<polyline fill="none" stroke="black" points="409.998,-357.194 618.029,-357.194 "/>
<text text-anchor="start" x="417.998" y="-345.194" font-family="Monaco" font-size="10.00">+ ~IRegularGrid3DComponentItem()</text>
<text text-anchor="start" x="417.998" y="-331.859" font-family="Monaco" font-size="10.00">+ numZCellsDimension()</text>
<text text-anchor="start" x="417.998" y="-318.524" font-family="Monaco" font-size="10.00">+ grid()</text>
</a>
</g>
</g>
<!-- Node1&#45;&gt;Node8 -->
<g id="edge7" class="edge"><title>Node1&#45;&gt;Node8</title>
<path fill="none" stroke="midnightblue" d="M453.831,-441.896C461.052,-432.332 468.394,-422.609 475.352,-413.395"/>
<polygon fill="none" stroke="midnightblue" points="451.037,-439.788 447.804,-449.877 456.623,-444.006 451.037,-439.788"/>
</g>
<!-- Node14 -->
<g id="node14" class="node"><title>Node14</title>
<g id="a_node14"><a xlink:href="class_hydro_couple_1_1_spatio_temporal_1_1_i_time_regular_grid2_d_component_item.html" target="_top" xlink:title="The ITimeRegularGrid2DComponentItem class. ">
<polygon fill="white" stroke="black" points="749.996,-322.524 749.996,-399.864 982.031,-399.864 982.031,-322.524 749.996,-322.524"/>
<text text-anchor="start" x="757.996" y="-387.864" font-family="Monaco" font-size="10.00">HydroCouple::SpatioTemporal</text>
<text text-anchor="middle" x="866.013" y="-374.529" font-family="Monaco" font-size="10.00">::ITimeRegularGrid2DComponentItem</text>
<polyline fill="none" stroke="black" points="749.996,-365.194 982.031,-365.194 "/>
<text text-anchor="middle" x="866.013" y="-353.194" font-family="Monaco" font-size="10.00"> </text>
<polyline fill="none" stroke="black" points="749.996,-343.859 982.031,-343.859 "/>
<text text-anchor="start" x="757.996" y="-331.859" font-family="Monaco" font-size="10.00">+ ~ITimeRegularGrid2DComponentItem()</text>
</a>
</g>
</g>
<!-- Node1&#45;&gt;Node14 -->
<g id="edge13" class="edge"><title>Node1&#45;&gt;Node14</title>
<path fill="none" stroke="midnightblue" d="M518.094,-471.9C588.67,-449.646 679.02,-421.157 749.96,-398.788"/>
<polygon fill="none" stroke="midnightblue" points="516.756,-468.652 508.271,-474.997 518.861,-475.328 516.756,-468.652"/>
</g>
<!-- Node2 -->
<g id="node2" class="node"><title>Node2</title>
<g id="a_node2"><a xlink:href="class_hydro_couple_1_1_i_component_item.html" target="_top" xlink:title="IComponentItem is a fundamental unit of data for a component. ">
<polygon fill="white" stroke="black" points="315,-604.544 315,-708.554 493.026,-708.554 493.026,-604.544 315,-604.544"/>
<text text-anchor="middle" x="404.013" y="-696.554" font-family="Monaco" font-size="10.00">HydroCouple::IComponentItem</text>
<polyline fill="none" stroke="black" points="315,-687.219 493.026,-687.219 "/>
<text text-anchor="middle" x="404.013" y="-675.219" font-family="Monaco" font-size="10.00"> </text>
<polyline fill="none" stroke="black" points="315,-665.884 493.026,-665.884 "/>
<text text-anchor="start" x="323" y="-653.884" font-family="Monaco" font-size="10.00">+ ~IComponentItem()</text>
<text text-anchor="start" x="323" y="-640.549" font-family="Monaco" font-size="10.00">+ modelComponent()</text>
<text text-anchor="start" x="323" y="-627.214" font-family="Monaco" font-size="10.00">+ modelComponentId()</text>
<text text-anchor="start" x="323" y="-613.879" font-family="Monaco" font-size="10.00">+ dimensions()</text>
</a>
</g>
</g>
<!-- Node2&#45;&gt;Node1 -->
<g id="edge1" class="edge"><title>Node2&#45;&gt;Node1</title>
<path fill="none" stroke="midnightblue" d="M404.013,-594.071C404.013,-585.338 404.013,-576.382 404.013,-567.722"/>
<polygon fill="none" stroke="midnightblue" points="400.513,-594.188 404.013,-604.188 407.513,-594.189 400.513,-594.188"/>
</g>
<!-- Node3 -->
<g id="node3" class="node"><title>Node3</title>
<g id="a_node3"><a xlink:href="class_hydro_couple_1_1_i_identity.html" target="_top" xlink:title="IIdentity interface class defines a method to get the Id of an HydroCouple entity. ">
<polygon fill="white" stroke="black" points="330.002,-745.554 330.002,-849.563 478.024,-849.563 478.024,-745.554 330.002,-745.554"/>
<text text-anchor="middle" x="404.013" y="-837.563" font-family="Monaco" font-size="10.00">HydroCouple::IIdentity</text>
<polyline fill="none" stroke="black" points="330.002,-828.229 478.024,-828.229 "/>
<text text-anchor="middle" x="404.013" y="-816.229" font-family="Monaco" font-size="10.00"> </text>
<polyline fill="none" stroke="black" points="330.002,-806.894 478.024,-806.894 "/>
<text text-anchor="start" x="338.002" y="-794.894" font-family="Monaco" font-size="10.00">+ ~IIdentity()</text>
<text text-anchor="start" x="338.002" y="-781.559" font-family="Monaco" font-size="10.00">+ MPI_Comm()</text>
<text text-anchor="start" x="338.002" y="-768.224" font-family="Monaco" font-size="10.00">+ MPI_Rank()</text>
<text text-anchor="start" x="338.002" y="-754.889" font-family="Monaco" font-size="10.00">+ id()</text>
</a>
</g>
</g>
<!-- Node3&#45;&gt;Node2 -->
<g id="edge2" class="edge"><title>Node3&#45;&gt;Node2</title>
<path fill="none" stroke="midnightblue" d="M404.013,-734.995C404.013,-726.213 404.013,-717.259 404.013,-708.705"/>
<polygon fill="none" stroke="midnightblue" points="400.513,-735.191 404.013,-745.191 407.513,-735.191 400.513,-735.191"/>
</g>
<!-- Node4 -->
<g id="node4" class="node"><title>Node4</title>
<g id="a_node4"><a xlink:href="class_hydro_couple_1_1_i_description.html" target="_top" xlink:title="IDescription interface class provides descriptive information on a HydroCouple object. ">
<polygon fill="white" stroke="black" points="321.001,-886.563 321.001,-1003.91 487.025,-1003.91 487.025,-886.563 321.001,-886.563"/>
<text text-anchor="middle" x="404.013" y="-991.908" font-family="Monaco" font-size="10.00">HydroCouple::IDescription</text>
<polyline fill="none" stroke="black" points="321.001,-982.573 487.025,-982.573 "/>
<text text-anchor="middle" x="404.013" y="-970.573" font-family="Monaco" font-size="10.00"> </text>
<polyline fill="none" stroke="black" points="321.001,-961.238 487.025,-961.238 "/>
<text text-anchor="start" x="329.001" y="-949.238" font-family="Monaco" font-size="10.00">+ ~IDescription()</text>
<text text-anchor="start" x="329.001" y="-935.903" font-family="Monaco" font-size="10.00">+ getCaption()</text>
<text text-anchor="start" x="329.001" y="-922.568" font-family="Monaco" font-size="10.00">+ setCaption()</text>
<text text-anchor="start" x="329.001" y="-909.233" font-family="Monaco" font-size="10.00">+ getDescription()</text>
<text text-anchor="start" x="329.001" y="-895.898" font-family="Monaco" font-size="10.00">+ setDescription()</text>
</a>
</g>
</g>
<!-- Node4&#45;&gt;Node3 -->
<g id="edge3" class="edge"><title>Node4&#45;&gt;Node3</title>
<path fill="none" stroke="midnightblue" d="M404.013,-875.962C404.013,-867.144 404.013,-858.236 404.013,-849.759"/>
<polygon fill="none" stroke="midnightblue" points="400.513,-876.242 404.013,-886.242 407.513,-876.242 400.513,-876.242"/>
</g>
<!-- Node5 -->
<g id="node5" class="node"><title>Node5</title>
<g id="a_node5"><a xlink:href="class_hydro_couple_1_1_i_property_changed.html" target="_top" xlink:title="IPropertyChanged interface is used to emit signal/event when a property of an object changes...">
<polygon fill="white" stroke="black" points="308.999,-1040.91 308.999,-1104.91 499.027,-1104.91 499.027,-1040.91 308.999,-1040.91"/>
<text text-anchor="middle" x="404.013" y="-1092.91" font-family="Monaco" font-size="10.00">HydroCouple::IPropertyChanged</text>
<polyline fill="none" stroke="black" points="308.999,-1083.58 499.027,-1083.58 "/>
<text text-anchor="middle" x="404.013" y="-1071.58" font-family="Monaco" font-size="10.00"> </text>
<polyline fill="none" stroke="black" points="308.999,-1062.24 499.027,-1062.24 "/>
<text text-anchor="start" x="316.999" y="-1050.24" font-family="Monaco" font-size="10.00">+ ~IPropertyChanged()</text>
</a>
</g>
</g>
<!-- Node5&#45;&gt;Node4 -->
<g id="edge4" class="edge"><title>Node5&#45;&gt;Node4</title>
<path fill="none" stroke="midnightblue" d="M404.013,-1030.59C404.013,-1022.2 404.013,-1013.24 404.013,-1004.39"/>
<polygon fill="none" stroke="midnightblue" points="400.513,-1030.84 404.013,-1040.84 407.513,-1030.84 400.513,-1030.84"/>
</g>
<!-- Node9 -->
<g id="node9" class="node"><title>Node9</title>
<g id="a_node9"><a xlink:href="class_hydro_couple_1_1_spatial_1_1_i_regular_grid3_d_argument.html" target="_top" xlink:title="An IRegularGrid3DArgument is an IArgument with an IRegularGrid3DComponentItem. ">
<polygon fill="white" stroke="black" points="105,-161.512 105,-265.522 283.026,-265.522 283.026,-161.512 105,-161.512"/>
<text text-anchor="start" x="113" y="-253.522" font-family="Monaco" font-size="10.00">HydroCouple::Spatial</text>
<text text-anchor="middle" x="194.013" y="-240.187" font-family="Monaco" font-size="10.00">::IRegularGrid3DArgument</text>
<polyline fill="none" stroke="black" points="105,-230.852 283.026,-230.852 "/>
<text text-anchor="middle" x="194.013" y="-218.852" font-family="Monaco" font-size="10.00"> </text>
<polyline fill="none" stroke="black" points="105,-209.517 283.026,-209.517 "/>
<text text-anchor="start" x="113" y="-197.517" font-family="Monaco" font-size="10.00">+ ~IRegularGrid3DArgument()</text>
<text text-anchor="start" x="113" y="-184.182" font-family="Monaco" font-size="10.00">+ setGrid()</text>
<text text-anchor="start" x="113" y="-170.847" font-family="Monaco" font-size="10.00">+ regular3DValueSets()</text>
</a>
</g>
</g>
<!-- Node8&#45;&gt;Node9 -->
<g id="edge8" class="edge"><title>Node8&#45;&gt;Node9</title>
<path fill="none" stroke="midnightblue" d="M400.341,-308.577C351.636,-290.436 335.723,-292.595 292.013,-272.689 287.151,-270.475 282.225,-268.081 277.302,-265.57"/>
<polygon fill="none" stroke="midnightblue" points="399.241,-311.903 409.831,-312.21 401.743,-305.366 399.241,-311.903"/>
</g>
<!-- Node10 -->
<g id="node10" class="node"><title>Node10</title>
<g id="a_node10"><a xlink:href="class_hydro_couple_1_1_spatial_1_1_i_regular_grid3_d_exhange_item.html" target="_top" xlink:title="An IRegularGrid3DExhangeItem is an IExchangeItem with an IRegularGrid3DComponentItem. ">
<polygon fill="white" stroke="black" points="300.999,-168.18 300.999,-258.854 497.028,-258.854 497.028,-168.18 300.999,-168.18"/>
<text text-anchor="start" x="308.999" y="-246.854" font-family="Monaco" font-size="10.00">HydroCouple::Spatial</text>
<text text-anchor="middle" x="399.013" y="-233.52" font-family="Monaco" font-size="10.00">::IRegularGrid3DExhangeItem</text>
<polyline fill="none" stroke="black" points="300.999,-224.185 497.028,-224.185 "/>
<text text-anchor="middle" x="399.013" y="-212.185" font-family="Monaco" font-size="10.00"> </text>
<polyline fill="none" stroke="black" points="300.999,-202.85 497.028,-202.85 "/>
<text text-anchor="start" x="308.999" y="-190.85" font-family="Monaco" font-size="10.00">+ ~IRegularGrid3DExhangeItem()</text>
<text text-anchor="start" x="308.999" y="-177.515" font-family="Monaco" font-size="10.00">+ regular3DValues()</text>
</a>
</g>
</g>
<!-- Node8&#45;&gt;Node10 -->
<g id="edge9" class="edge"><title>Node8&#45;&gt;Node10</title>
<path fill="none" stroke="midnightblue" d="M467.08,-300.741C456.103,-286.836 444.594,-272.257 434.229,-259.127"/>
<polygon fill="none" stroke="midnightblue" points="464.525,-303.154 473.468,-308.834 470.019,-298.816 464.525,-303.154"/>
</g>
<!-- Node11 -->
<g id="node11" class="node"><title>Node11</title>
<g id="a_node11"><a xlink:href="class_hydro_couple_1_1_spatio_temporal_1_1_i_time_regular_grid3_d_component_item.html" target="_top" xlink:title="The ITimeRegularGrid3DComponentItem class. ">
<polygon fill="white" stroke="black" points="514.996,-174.847 514.996,-252.187 747.031,-252.187 747.031,-174.847 514.996,-174.847"/>
<text text-anchor="start" x="522.996" y="-240.187" font-family="Monaco" font-size="10.00">HydroCouple::SpatioTemporal</text>
<text text-anchor="middle" x="631.013" y="-226.852" font-family="Monaco" font-size="10.00">::ITimeRegularGrid3DComponentItem</text>
<polyline fill="none" stroke="black" points="514.996,-217.517 747.031,-217.517 "/>
<text text-anchor="middle" x="631.013" y="-205.517" font-family="Monaco" font-size="10.00"> </text>
<polyline fill="none" stroke="black" points="514.996,-196.182 747.031,-196.182 "/>
<text text-anchor="start" x="522.996" y="-184.182" font-family="Monaco" font-size="10.00">+ ~ITimeRegularGrid3DComponentItem()</text>
</a>
</g>
</g>
<!-- Node8&#45;&gt;Node11 -->
<g id="edge10" class="edge"><title>Node8&#45;&gt;Node11</title>
<path fill="none" stroke="midnightblue" d="M561.621,-300.918C574.719,-284.609 588.573,-267.359 600.429,-252.597"/>
<polygon fill="none" stroke="midnightblue" points="558.796,-298.846 555.263,-308.834 564.254,-303.229 558.796,-298.846"/>
</g>
<!-- Node12 -->
<g id="node12" class="node"><title>Node12</title>
<g id="a_node12"><a xlink:href="class_hydro_couple_1_1_spatio_temporal_1_1_i_time_regular_grid3_d_argument.html" target="_top" xlink:title="The ITimeRegularGrid3DArgument class. ">
<polygon fill="white" stroke="black" points="413.998,-0.5 413.998,-117.845 616.028,-117.845 616.028,-0.5 413.998,-0.5"/>
<text text-anchor="start" x="421.998" y="-105.845" font-family="Monaco" font-size="10.00">HydroCouple::SpatioTemporal</text>
<text text-anchor="middle" x="515.013" y="-92.5098" font-family="Monaco" font-size="10.00">::ITimeRegularGrid3DArgument</text>
<polyline fill="none" stroke="black" points="413.998,-83.1748 616.028,-83.1748 "/>
<text text-anchor="middle" x="515.013" y="-71.1748" font-family="Monaco" font-size="10.00"> </text>
<polyline fill="none" stroke="black" points="413.998,-61.8398 616.028,-61.8398 "/>
<text text-anchor="start" x="421.998" y="-49.8398" font-family="Monaco" font-size="10.00">+ ~ITimeRegularGrid3DArgument()</text>
<text text-anchor="start" x="421.998" y="-36.5049" font-family="Monaco" font-size="10.00">+ setTimes()</text>
<text text-anchor="start" x="421.998" y="-23.1699" font-family="Monaco" font-size="10.00">+ setGrid()</text>
<text text-anchor="start" x="421.998" y="-9.83496" font-family="Monaco" font-size="10.00">+ timeRegular3DValueSets()</text>
</a>
</g>
</g>
<!-- Node11&#45;&gt;Node12 -->
<g id="edge11" class="edge"><title>Node11&#45;&gt;Node12</title>
<path fill="none" stroke="midnightblue" d="M595.76,-166.219C584.162,-150.987 571.122,-133.861 558.96,-117.888"/>
<polygon fill="none" stroke="midnightblue" points="593.198,-168.631 602.041,-174.467 598.767,-164.391 593.198,-168.631"/>
</g>
<!-- Node13 -->
<g id="node13" class="node"><title>Node13</title>
<g id="a_node13"><a xlink:href="class_hydro_couple_1_1_spatio_temporal_1_1_i_time_regular_grid3_d_exchange_item.html" target="_top" xlink:title="The ITimeRegularGrid3DExchangeItem class. ">
<polygon fill="white" stroke="black" points="633.996,-13.835 633.996,-104.51 860.03,-104.51 860.03,-13.835 633.996,-13.835"/>
<text text-anchor="start" x="641.996" y="-92.5098" font-family="Monaco" font-size="10.00">HydroCouple::SpatioTemporal</text>
<text text-anchor="middle" x="747.013" y="-79.1748" font-family="Monaco" font-size="10.00">::ITimeRegularGrid3DExchangeItem</text>
<polyline fill="none" stroke="black" points="633.996,-69.8398 860.03,-69.8398 "/>
<text text-anchor="middle" x="747.013" y="-57.8398" font-family="Monaco" font-size="10.00"> </text>
<polyline fill="none" stroke="black" points="633.996,-48.5049 860.03,-48.5049 "/>
<text text-anchor="start" x="641.996" y="-36.5049" font-family="Monaco" font-size="10.00">+ ~ITimeRegularGrid3DExchangeItem()</text>
<text text-anchor="start" x="641.996" y="-23.1699" font-family="Monaco" font-size="10.00">+ timeRegularGrid3DValues()</text>
</a>
</g>
</g>
<!-- Node11&#45;&gt;Node13 -->
<g id="edge12" class="edge"><title>Node11&#45;&gt;Node13</title>
<path fill="none" stroke="midnightblue" d="M666.2,-166.306C681.072,-146.774 698.325,-124.115 713.062,-104.762"/>
<polygon fill="none" stroke="midnightblue" points="663.259,-164.391 659.986,-174.467 668.828,-168.631 663.259,-164.391"/>
</g>
<!-- Node15 -->
<g id="node15" class="node"><title>Node15</title>
<g id="a_node15"><a xlink:href="class_hydro_couple_1_1_spatio_temporal_1_1_i_time_regular_grid2_d_argument.html" target="_top" xlink:title="The ITimeRegularGrid2DArgument class. ">
<polygon fill="white" stroke="black" points="764.998,-154.845 764.998,-272.189 967.028,-272.189 967.028,-154.845 764.998,-154.845"/>
<text text-anchor="start" x="772.998" y="-260.189" font-family="Monaco" font-size="10.00">HydroCouple::SpatioTemporal</text>
<text text-anchor="middle" x="866.013" y="-246.854" font-family="Monaco" font-size="10.00">::ITimeRegularGrid2DArgument</text>
<polyline fill="none" stroke="black" points="764.998,-237.52 967.028,-237.52 "/>
<text text-anchor="middle" x="866.013" y="-225.52" font-family="Monaco" font-size="10.00"> </text>
<polyline fill="none" stroke="black" points="764.998,-216.185 967.028,-216.185 "/>
<text text-anchor="start" x="772.998" y="-204.185" font-family="Monaco" font-size="10.00">+ ~ITimeRegularGrid2DArgument()</text>
<text text-anchor="start" x="772.998" y="-190.85" font-family="Monaco" font-size="10.00">+ setTimes()</text>
<text text-anchor="start" x="772.998" y="-177.515" font-family="Monaco" font-size="10.00">+ setGrid()</text>
<text text-anchor="start" x="772.998" y="-164.18" font-family="Monaco" font-size="10.00">+ timeRegular2DValueSets()</text>
</a>
</g>
</g>
<!-- Node14&#45;&gt;Node15 -->
<g id="edge14" class="edge"><title>Node14&#45;&gt;Node15</title>
<path fill="none" stroke="midnightblue" d="M866.013,-311.941C866.013,-299.245 866.013,-285.421 866.013,-272.281"/>
<polygon fill="none" stroke="midnightblue" points="862.513,-312.3 866.013,-322.3 869.513,-312.3 862.513,-312.3"/>
</g>
<!-- Node16 -->
<g id="node16" class="node"><title>Node16</title>
<g id="a_node16"><a xlink:href="class_hydro_couple_1_1_spatio_temporal_1_1_i_time_regular_grid2_d_exchange_item.html" target="_top" xlink:title="The ITimeRegularGrid2DExchangeItem class. ">
<polygon fill="white" stroke="black" points="984.996,-168.18 984.996,-258.854 1211.03,-258.854 1211.03,-168.18 984.996,-168.18"/>
<text text-anchor="start" x="992.996" y="-246.854" font-family="Monaco" font-size="10.00">HydroCouple::SpatioTemporal</text>
<text text-anchor="middle" x="1098.01" y="-233.52" font-family="Monaco" font-size="10.00">::ITimeRegularGrid2DExchangeItem</text>
<polyline fill="none" stroke="black" points="984.996,-224.185 1211.03,-224.185 "/>
<text text-anchor="middle" x="1098.01" y="-212.185" font-family="Monaco" font-size="10.00"> </text>
<polyline fill="none" stroke="black" points="984.996,-202.85 1211.03,-202.85 "/>
<text text-anchor="start" x="992.996" y="-190.85" font-family="Monaco" font-size="10.00">+ ~ITimeRegularGrid2DExchangeItem()</text>
<text text-anchor="start" x="992.996" y="-177.515" font-family="Monaco" font-size="10.00">+ timeRegularGrid2DValues()</text>
</a>
</g>
</g>
<!-- Node14&#45;&gt;Node16 -->
<g id="edge15" class="edge"><title>Node14&#45;&gt;Node16</title>
<path fill="none" stroke="midnightblue" d="M934.543,-317.163C963.694,-298.858 997.679,-277.519 1027.09,-259.053"/>
<polygon fill="none" stroke="midnightblue" points="932.668,-314.207 926.061,-322.489 936.391,-320.136 932.668,-314.207"/>
</g>
</g>
</svg>
        <g id="navigator" transform="translate(0 0)" fill="#404254">
                <rect fill="#f2f5e9" fill-opacity="0.5" stroke="#606060" stroke-width=".5" x="0" y="0" width="60" height="60"/>
                <use id="zoomplus" xlink:href="#zoomPlus" x="17" y="9" onmousedown="handleZoom(evt,'in')"/>
                <use id="zoomminus" xlink:href="#zoomMin" x="42" y="9" onmousedown="handleZoom(evt,'out')"/>
                <use id="reset" xlink:href="#resetDef" x="30" y="36" onmousedown="handleReset()"/>
                <g id="arrowUp" xlink:href="#dirArrow" transform="translate(30 24)" onmousedown="handlePan(0,-1)">
                  <use xlink:href="#rim" fill="#404040">
                        <set attributeName="fill" to="#808080" begin="arrowUp.mouseover" end="arrowUp.mouseout"/>
                  </use>
                  <path fill="none" stroke="white" stroke-width="1.5" d="M0,-3.0v7 M-2.5,-0.5L0,-3.0L2.5,-0.5"/>
                </g>
                <g id="arrowRight" xlink:href="#dirArrow" transform="rotate(90) translate(36 -43)" onmousedown="handlePan(1,0)">
                  <use xlink:href="#rim" fill="#404040">
                        <set attributeName="fill" to="#808080" begin="arrowRight.mouseover" end="arrowRight.mouseout"/>
                  </use>
                  <path fill="none" stroke="white" stroke-width="1.5" d="M0,-3.0v7 M-2.5,-0.5L0,-3.0L2.5,-0.5"/>
                </g>
                <g id="arrowDown" xlink:href="#dirArrow" transform="rotate(180) translate(-30 -48)" onmousedown="handlePan(0,1)">
                  <use xlink:href="#rim" fill="#404040">
                        <set attributeName="fill" to="#808080" begin="arrowDown.mouseover" end="arrowDown.mouseout"/>
                  </use>
                  <path fill="none" stroke="white" stroke-width="1.5" d="M0,-3.0v7 M-2.5,-0.5L0,-3.0L2.5,-0.5"/>
                </g>
                <g id="arrowLeft" xlink:href="#dirArrow" transform="rotate(270) translate(-36 17)" onmousedown="handlePan(-1,0)">
                  <use xlink:href="#rim" fill="#404040">
                        <set attributeName="fill" to="#808080" begin="arrowLeft.mouseover" end="arrowLeft.mouseout"/>
                  </use>
                  <path fill="none" stroke="white" stroke-width="1.5" d="M0,-3.0v7 M-2.5,-0.5L0,-3.0L2.5,-0.5"/>
                </g>
        </g>
        <svg viewBox="0 0 15 15" width="100%" height="30px" preserveAspectRatio="xMaxYMin meet">
         <g id="arrow_out" transform="scale(0.3 0.3)">
          <a xlink:href="class_hydro_couple_1_1_spatial_1_1_i_regular_grid2_d_component_item__inherit__graph_org.svg" target="_base">
           <rect id="button" ry="5" rx="5" y="6" x="6" height="38" width="38"
                fill="#f2f5e9" fill-opacity="0.5" stroke="#606060" stroke-width="1.0"/>
           <path id="arrow"
             d="M 11.500037,31.436501 C 11.940474,20.09759 22.043105,11.32322 32.158766,21.979434 L 37.068811,17.246167 C 37.068811,17.246167 37.088388,32 37.088388,32 L 22.160133,31.978069 C 22.160133,31.978069 26.997745,27.140456 26.997745,27.140456 C 18.528582,18.264221 13.291696,25.230495 11.500037,31.436501 z"
             style="fill:#404040;"/>
          </a>
         </g>
        </svg>
</svg>
