<?xml version="1.0" encoding="UTF-8" standalone="no"?>
<!DOCTYPE svg PUBLIC "-//W3C//DTD SVG 1.1//EN"
 "http://www.w3.org/Graphics/SVG/1.1/DTD/svg11.dtd">
<!-- Generated by graphviz version 2.38.0 (20140413.2041)
 -->
<!-- Title: HydroCouple::SpatioTemporal::ITimeRegularGrid3DValueSet Pages: 1 -->
<!--zoomable 643 -->
<svg id="main" version="1.1" xmlns="http://www.w3.org/2000/svg" xmlns:xlink="http://www.w3.org/1999/xlink" xml:space="preserve" onload="init(evt)">
<style type="text/css"><![CDATA[
.edge:hover path { stroke: red; }
.edge:hover polygon { stroke: red; fill: red; }
]]></style>
<script type="text/javascript"><![CDATA[
var edges = document.getElementsByTagName('g');
if (edges && edges.length) {
  for (var i=0;i<edges.length;i++) {
    if (edges[i].id.substr(0,4)=='edge') {
      edges[i].setAttribute('class','edge');
    }
  }
}
]]></script>
        <defs>
                <circle id="rim" cx="0" cy="0" r="7"/>
                <circle id="rim2" cx="0" cy="0" r="3.5"/>
                <g id="zoomPlus">
                        <use xlink:href="#rim" fill="#404040">
                                <set attributeName="fill" to="#808080" begin="zoomplus.mouseover" end="zoomplus.mouseout"/>
                        </use>
                        <path d="M-4,0h8M0,-4v8" fill="none" stroke="white" stroke-width="1.5" pointer-events="none"/>
                </g>
                <g id="zoomMin">
                        <use xlink:href="#rim" fill="#404040">
                                <set attributeName="fill" to="#808080" begin="zoomminus.mouseover" end="zoomminus.mouseout"/>
                        </use>
                        <path d="M-4,0h8" fill="none" stroke="white" stroke-width="1.5" pointer-events="none"/>
                </g>
                <g id="dirArrow">
                        <path fill="none" stroke="white" stroke-width="1.5" d="M0,-3.0v7 M-2.5,-0.5L0,-3.0L2.5,-0.5"/>
                </g>
               <g id="resetDef">
                       <use xlink:href="#rim2" fill="#404040">
                               <set attributeName="fill" to="#808080" begin="reset.mouseover" end="reset.mouseout"/>
                       </use>
               </g>
        </defs>

<script type="text/javascript">
var viewWidth = 228;
var viewHeight = 643;
var sectionId = 'dynsection-1';
</script>
<script xlink:href="svgpan.js"/>
<svg id="graph" class="graph">
<g id="viewport">
<title>HydroCouple::SpatioTemporal::ITimeRegularGrid3DValueSet</title>
<polygon fill="white" stroke="none" points="-4,4 -4,-638.719 224.033,-638.719 224.033,4 -4,4"/>
<!-- Node1 -->
<g id="node1" class="node"><title>Node1</title>
<polygon fill="#bfbfbf" stroke="black" points="0,-0.5 0,-171.185 220.033,-171.185 220.033,-0.5 0,-0.5"/>
<text text-anchor="start" x="8" y="-159.185" font-family="Monaco" font-size="10.00">HydroCouple::SpatioTemporal</text>
<text text-anchor="middle" x="110.017" y="-145.85" font-family="Monaco" font-size="10.00">::ITimeRegularGrid3DValueSet</text>
<polyline fill="none" stroke="black" points="0,-136.515 220.033,-136.515 "/>
<text text-anchor="middle" x="110.017" y="-124.515" font-family="Monaco" font-size="10.00"> </text>
<polyline fill="none" stroke="black" points="0,-115.18 220.033,-115.18 "/>
<text text-anchor="start" x="8" y="-103.18" font-family="Monaco" font-size="10.00">+ ~ITimeRegularGrid3DValueSet()</text>
<text text-anchor="start" x="8" y="-89.8447" font-family="Monaco" font-size="10.00">+ timeRegularGrid3DComponentItem()</text>
<text text-anchor="start" x="8" y="-76.5098" font-family="Monaco" font-size="10.00">+ getValue()</text>
<text text-anchor="start" x="8" y="-63.1748" font-family="Monaco" font-size="10.00">+ getValues()</text>
<text text-anchor="start" x="8" y="-49.8398" font-family="Monaco" font-size="10.00">+ getValues()</text>
<text text-anchor="start" x="8" y="-36.5049" font-family="Monaco" font-size="10.00">+ setValue()</text>
<text text-anchor="start" x="8" y="-23.1699" font-family="Monaco" font-size="10.00">+ setValues()</text>
<text text-anchor="start" x="8" y="-9.83496" font-family="Monaco" font-size="10.00">+ setValues()</text>
</g>
<!-- Node2 -->
<g id="node2" class="node"><title>Node2</title>
<g id="a_node2"><a xlink:href="class_hydro_couple_1_1_i_value_set.html" target="_top" xlink:title="IValueSet provides a multi&#45;dimensional data with its context. ">
<polygon fill="white" stroke="black" points="36.0059,-208.185 36.0059,-378.869 184.027,-378.869 184.027,-208.185 36.0059,-208.185"/>
<text text-anchor="middle" x="110.017" y="-366.869" font-family="Monaco" font-size="10.00">HydroCouple::IValueSet</text>
<polyline fill="none" stroke="black" points="36.0059,-357.534 184.027,-357.534 "/>
<text text-anchor="middle" x="110.017" y="-345.534" font-family="Monaco" font-size="10.00"> </text>
<polyline fill="none" stroke="black" points="36.0059,-336.199 184.027,-336.199 "/>
<text text-anchor="start" x="44.0059" y="-324.199" font-family="Monaco" font-size="10.00">+ ~IValueSet()</text>
<text text-anchor="start" x="44.0059" y="-310.864" font-family="Monaco" font-size="10.00">+ componentItem()</text>
<text text-anchor="start" x="44.0059" y="-297.529" font-family="Monaco" font-size="10.00">+ getValue()</text>
<text text-anchor="start" x="44.0059" y="-284.194" font-family="Monaco" font-size="10.00">+ getValues()</text>
<text text-anchor="start" x="44.0059" y="-270.859" font-family="Monaco" font-size="10.00">+ getValues()</text>
<text text-anchor="start" x="44.0059" y="-257.524" font-family="Monaco" font-size="10.00">+ setValue()</text>
<text text-anchor="start" x="44.0059" y="-244.189" font-family="Monaco" font-size="10.00">+ setValues()</text>
<text text-anchor="start" x="44.0059" y="-230.854" font-family="Monaco" font-size="10.00">+ setValues()</text>
<text text-anchor="start" x="44.0059" y="-217.52" font-family="Monaco" font-size="10.00">+ valueDefinition()</text>
</a>
</g>
</g>
<!-- Node2&#45;&gt;Node1 -->
<g id="edge1" class="edge"><title>Node2&#45;&gt;Node1</title>
<path fill="none" stroke="midnightblue" d="M110.017,-197.719C110.017,-188.938 110.017,-180.077 110.017,-171.397"/>
<polygon fill="none" stroke="midnightblue" points="106.517,-197.977 110.017,-207.977 113.517,-197.977 106.517,-197.977"/>
</g>
<!-- Node3 -->
<g id="node3" class="node"><title>Node3</title>
<g id="a_node3"><a xlink:href="class_hydro_couple_1_1_i_description.html" target="_top" xlink:title="IDescription interface class provides descriptive information on a HydroCouple object. ">
<polygon fill="white" stroke="black" points="27.0044,-415.869 27.0044,-533.214 193.029,-533.214 193.029,-415.869 27.0044,-415.869"/>
<text text-anchor="middle" x="110.017" y="-521.214" font-family="Monaco" font-size="10.00">HydroCouple::IDescription</text>
<polyline fill="none" stroke="black" points="27.0044,-511.879 193.029,-511.879 "/>
<text text-anchor="middle" x="110.017" y="-499.879" font-family="Monaco" font-size="10.00"> </text>
<polyline fill="none" stroke="black" points="27.0044,-490.544 193.029,-490.544 "/>
<text text-anchor="start" x="35.0044" y="-478.544" font-family="Monaco" font-size="10.00">+ ~IDescription()</text>
<text text-anchor="start" x="35.0044" y="-465.209" font-family="Monaco" font-size="10.00">+ getCaption()</text>
<text text-anchor="start" x="35.0044" y="-451.874" font-family="Monaco" font-size="10.00">+ setCaption()</text>
<text text-anchor="start" x="35.0044" y="-438.539" font-family="Monaco" font-size="10.00">+ getDescription()</text>
<text text-anchor="start" x="35.0044" y="-425.204" font-family="Monaco" font-size="10.00">+ setDescription()</text>
</a>
</g>
</g>
<!-- Node3&#45;&gt;Node2 -->
<g id="edge2" class="edge"><title>Node3&#45;&gt;Node2</title>
<path fill="none" stroke="midnightblue" d="M110.017,-405.147C110.017,-396.596 110.017,-387.771 110.017,-379.011"/>
<polygon fill="none" stroke="midnightblue" points="106.517,-405.421 110.017,-415.421 113.517,-405.421 106.517,-405.421"/>
</g>
<!-- Node4 -->
<g id="node4" class="node"><title>Node4</title>
<g id="a_node4"><a xlink:href="class_hydro_couple_1_1_i_property_changed.html" target="_top" xlink:title="IPropertyChanged interface is used to emit signal/event when a property of an object changes...">
<polygon fill="white" stroke="black" points="15.0024,-570.214 15.0024,-634.219 205.031,-634.219 205.031,-570.214 15.0024,-570.214"/>
<text text-anchor="middle" x="110.017" y="-622.219" font-family="Monaco" font-size="10.00">HydroCouple::IPropertyChanged</text>
<polyline fill="none" stroke="black" points="15.0024,-612.884 205.031,-612.884 "/>
<text text-anchor="middle" x="110.017" y="-600.884" font-family="Monaco" font-size="10.00"> </text>
<polyline fill="none" stroke="black" points="15.0024,-591.549 205.031,-591.549 "/>
<text text-anchor="start" x="23.0024" y="-579.549" font-family="Monaco" font-size="10.00">+ ~IPropertyChanged()</text>
</a>
</g>
</g>
<!-- Node4&#45;&gt;Node3 -->
<g id="edge3" class="edge"><title>Node4&#45;&gt;Node3</title>
<path fill="none" stroke="midnightblue" d="M110.017,-559.893C110.017,-551.508 110.017,-542.542 110.017,-533.7"/>
<polygon fill="none" stroke="midnightblue" points="106.517,-560.151 110.017,-570.151 113.517,-560.151 106.517,-560.151"/>
</g>
</g>
</svg>
        <g id="navigator" transform="translate(0 0)" fill="#404254">
                <rect fill="#f2f5e9" fill-opacity="0.5" stroke="#606060" stroke-width=".5" x="0" y="0" width="60" height="60"/>
                <use id="zoomplus" xlink:href="#zoomPlus" x="17" y="9" onmousedown="handleZoom(evt,'in')"/>
                <use id="zoomminus" xlink:href="#zoomMin" x="42" y="9" onmousedown="handleZoom(evt,'out')"/>
                <use id="reset" xlink:href="#resetDef" x="30" y="36" onmousedown="handleReset()"/>
                <g id="arrowUp" xlink:href="#dirArrow" transform="translate(30 24)" onmousedown="handlePan(0,-1)">
                  <use xlink:href="#rim" fill="#404040">
                        <set attributeName="fill" to="#808080" begin="arrowUp.mouseover" end="arrowUp.mouseout"/>
                  </use>
                  <path fill="none" stroke="white" stroke-width="1.5" d="M0,-3.0v7 M-2.5,-0.5L0,-3.0L2.5,-0.5"/>
                </g>
                <g id="arrowRight" xlink:href="#dirArrow" transform="rotate(90) translate(36 -43)" onmousedown="handlePan(1,0)">
                  <use xlink:href="#rim" fill="#404040">
                        <set attributeName="fill" to="#808080" begin="arrowRight.mouseover" end="arrowRight.mouseout"/>
                  </use>
                  <path fill="none" stroke="white" stroke-width="1.5" d="M0,-3.0v7 M-2.5,-0.5L0,-3.0L2.5,-0.5"/>
                </g>
                <g id="arrowDown" xlink:href="#dirArrow" transform="rotate(180) translate(-30 -48)" onmousedown="handlePan(0,1)">
                  <use xlink:href="#rim" fill="#404040">
                        <set attributeName="fill" to="#808080" begin="arrowDown.mouseover" end="arrowDown.mouseout"/>
                  </use>
                  <path fill="none" stroke="white" stroke-width="1.5" d="M0,-3.0v7 M-2.5,-0.5L0,-3.0L2.5,-0.5"/>
                </g>
                <g id="arrowLeft" xlink:href="#dirArrow" transform="rotate(270) translate(-36 17)" onmousedown="handlePan(-1,0)">
                  <use xlink:href="#rim" fill="#404040">
                        <set attributeName="fill" to="#808080" begin="arrowLeft.mouseover" end="arrowLeft.mouseout"/>
                  </use>
                  <path fill="none" stroke="white" stroke-width="1.5" d="M0,-3.0v7 M-2.5,-0.5L0,-3.0L2.5,-0.5"/>
                </g>
        </g>
        <svg viewBox="0 0 15 15" width="100%" height="30px" preserveAspectRatio="xMaxYMin meet">
         <g id="arrow_out" transform="scale(0.3 0.3)">
          <a xlink:href="class_hydro_couple_1_1_spatio_temporal_1_1_i_time_regular_grid3_d_value_set__coll__graph_org.svg" target="_base">
           <rect id="button" ry="5" rx="5" y="6" x="6" height="38" width="38"
                fill="#f2f5e9" fill-opacity="0.5" stroke="#606060" stroke-width="1.0"/>
           <path id="arrow"
             d="M 11.500037,31.436501 C 11.940474,20.09759 22.043105,11.32322 32.158766,21.979434 L 37.068811,17.246167 C 37.068811,17.246167 37.088388,32 37.088388,32 L 22.160133,31.978069 C 22.160133,31.978069 26.997745,27.140456 26.997745,27.140456 C 18.528582,18.264221 13.291696,25.230495 11.500037,31.436501 z"
             style="fill:#404040;"/>
          </a>
         </g>
        </svg>
</svg>
