<?xml version="1.0" encoding="UTF-8" standalone="no"?>
<!DOCTYPE svg PUBLIC "-//W3C//DTD SVG 1.1//EN"
 "http://www.w3.org/Graphics/SVG/1.1/DTD/svg11.dtd">
<!-- Generated by graphviz version 2.38.0 (20140413.2041)
 -->
<!-- Title: HydroCouple::SpatioTemporal::ITimeTINComponentDataItem Pages: 1 -->
<svg width="382pt" height="1026pt"
 viewBox="0.00 0.00 382.03 1025.74" xmlns="http://www.w3.org/2000/svg" xmlns:xlink="http://www.w3.org/1999/xlink">
<g id="graph0" class="graph" transform="scale(1 1) rotate(0) translate(4 1021.74)">
<title>HydroCouple::SpatioTemporal::ITimeTINComponentDataItem</title>
<!-- Node1 -->
<g id="node1" class="node"><title>Node1</title>
<polygon fill="#bfbfbf" stroke="black" points="88.9985,-114.84 88.9985,-272.189 285.028,-272.189 285.028,-114.84 88.9985,-114.84"/>
<text text-anchor="start" x="96.9985" y="-260.189" font-family="Monaco" font-size="10.00">HydroCouple::SpatioTemporal</text>
<text text-anchor="middle" x="187.013" y="-246.854" font-family="Monaco" font-size="10.00">::ITimeTINComponentDataItem</text>
<polyline fill="none" stroke="black" points="88.9985,-237.52 285.028,-237.52 "/>
<text text-anchor="middle" x="187.013" y="-225.52" font-family="Monaco" font-size="10.00"> </text>
<polyline fill="none" stroke="black" points="88.9985,-216.185 285.028,-216.185 "/>
<text text-anchor="start" x="96.9985" y="-204.185" font-family="Monaco" font-size="10.00">+ ~ITimeTINComponentDataItem()</text>
<text text-anchor="start" x="96.9985" y="-190.85" font-family="Monaco" font-size="10.00">+ getValue()</text>
<text text-anchor="start" x="96.9985" y="-177.515" font-family="Monaco" font-size="10.00">+ getValues()</text>
<text text-anchor="start" x="96.9985" y="-164.18" font-family="Monaco" font-size="10.00">+ getValues()</text>
<text text-anchor="start" x="96.9985" y="-150.845" font-family="Monaco" font-size="10.00">+ setValue()</text>
<text text-anchor="start" x="96.9985" y="-137.51" font-family="Monaco" font-size="10.00">+ setValues()</text>
<text text-anchor="start" x="96.9985" y="-124.175" font-family="Monaco" font-size="10.00">+ setValues()</text>
</g>
<!-- Node8 -->
<g id="node8" class="node"><title>Node8</title>
<g id="a_node8"><a xlink:href="class_hydro_couple_1_1_spatio_temporal_1_1_i_time_t_i_n_argument.html" target="_top" xlink:title="The ITimeTINArgument class. ">
<polygon fill="none" stroke="black" points="0,-0.5 0,-77.8398 178.026,-77.8398 178.026,-0.5 0,-0.5"/>
<text text-anchor="start" x="8" y="-65.8398" font-family="Monaco" font-size="10.00">HydroCouple::SpatioTemporal</text>
<text text-anchor="middle" x="89.0132" y="-52.5049" font-family="Monaco" font-size="10.00">::ITimeTINArgument</text>
<polyline fill="none" stroke="black" points="0,-43.1699 178.026,-43.1699 "/>
<text text-anchor="middle" x="89.0132" y="-31.1699" font-family="Monaco" font-size="10.00"> </text>
<polyline fill="none" stroke="black" points="0,-21.835 178.026,-21.835 "/>
<text text-anchor="start" x="8" y="-9.83496" font-family="Monaco" font-size="10.00">+ ~ITimeTINArgument()</text>
</a>
</g>
</g>
<!-- Node1&#45;&gt;Node8 -->
<g id="edge8" class="edge"><title>Node1&#45;&gt;Node8</title>
<path fill="none" stroke="midnightblue" d="M131.313,-105.926C125.027,-96.154 118.89,-86.615 113.328,-77.9688"/>
<polygon fill="none" stroke="midnightblue" points="128.511,-108.04 136.865,-114.557 134.398,-104.253 128.511,-108.04"/>
</g>
<!-- Node9 -->
<g id="node9" class="node"><title>Node9</title>
<g id="a_node9"><a xlink:href="class_hydro_couple_1_1_spatio_temporal_1_1_i_time_t_i_n_exchange_item.html" target="_top" xlink:title="The ITimeTINExchangeItem class. ">
<polygon fill="none" stroke="black" points="196,-0.5 196,-77.8398 374.026,-77.8398 374.026,-0.5 196,-0.5"/>
<text text-anchor="start" x="204" y="-65.8398" font-family="Monaco" font-size="10.00">HydroCouple::SpatioTemporal</text>
<text text-anchor="middle" x="285.013" y="-52.5049" font-family="Monaco" font-size="10.00">::ITimeTINExchangeItem</text>
<polyline fill="none" stroke="black" points="196,-43.1699 374.026,-43.1699 "/>
<text text-anchor="middle" x="285.013" y="-31.1699" font-family="Monaco" font-size="10.00"> </text>
<polyline fill="none" stroke="black" points="196,-21.835 374.026,-21.835 "/>
<text text-anchor="start" x="204" y="-9.83496" font-family="Monaco" font-size="10.00">+ ~ITimeTINExchangeItem()</text>
</a>
</g>
</g>
<!-- Node1&#45;&gt;Node9 -->
<g id="edge9" class="edge"><title>Node1&#45;&gt;Node9</title>
<path fill="none" stroke="midnightblue" d="M242.714,-105.926C249,-96.154 255.136,-86.615 260.698,-77.9688"/>
<polygon fill="none" stroke="midnightblue" points="239.628,-104.253 237.162,-114.557 245.515,-108.04 239.628,-104.253"/>
</g>
<!-- Node2 -->
<g id="node2" class="node"><title>Node2</title>
<g id="a_node2"><a xlink:href="class_hydro_couple_1_1_temporal_1_1_i_time_component_data_item.html" target="_top" xlink:title="ITimeComponentItem is an IComponentItem with a temporal attribute. This class cannot be directly inst...">
<polygon fill="none" stroke="black" points="2,-309.189 2,-426.534 180.026,-426.534 180.026,-309.189 2,-309.189"/>
<text text-anchor="start" x="10" y="-414.534" font-family="Monaco" font-size="10.00">HydroCouple::Temporal</text>
<text text-anchor="middle" x="91.0132" y="-401.199" font-family="Monaco" font-size="10.00">::ITimeComponentDataItem</text>
<polyline fill="none" stroke="black" points="2,-391.864 180.026,-391.864 "/>
<text text-anchor="middle" x="91.0132" y="-379.864" font-family="Monaco" font-size="10.00"> </text>
<polyline fill="none" stroke="black" points="2,-370.529 180.026,-370.529 "/>
<text text-anchor="start" x="10" y="-358.529" font-family="Monaco" font-size="10.00">+ ~ITimeComponentDataItem()</text>
<text text-anchor="start" x="10" y="-345.194" font-family="Monaco" font-size="10.00">+ times()</text>
<text text-anchor="start" x="10" y="-331.859" font-family="Monaco" font-size="10.00">+ timeSpan()</text>
<text text-anchor="start" x="10" y="-318.524" font-family="Monaco" font-size="10.00">+ timeDimension()</text>
</a>
</g>
</g>
<!-- Node2&#45;&gt;Node1 -->
<g id="edge1" class="edge"><title>Node2&#45;&gt;Node1</title>
<path fill="none" stroke="midnightblue" d="M128.223,-300.06C133.263,-291.011 138.471,-281.662 143.608,-272.439"/>
<polygon fill="none" stroke="midnightblue" points="125.055,-298.554 123.247,-308.993 131.171,-301.96 125.055,-298.554"/>
</g>
<!-- Node3 -->
<g id="node3" class="node"><title>Node3</title>
<g id="a_node3"><a xlink:href="class_hydro_couple_1_1_i_component_data_item.html" target="_top" xlink:title="IComponentItem is a fundamental unit of data for a component. ">
<polygon fill="none" stroke="black" points="85.998,-463.534 85.998,-647.554 288.028,-647.554 288.028,-463.534 85.998,-463.534"/>
<text text-anchor="middle" x="187.013" y="-635.554" font-family="Monaco" font-size="10.00">HydroCouple::IComponentDataItem</text>
<polyline fill="none" stroke="black" points="85.998,-626.219 288.028,-626.219 "/>
<text text-anchor="middle" x="187.013" y="-614.219" font-family="Monaco" font-size="10.00"> </text>
<polyline fill="none" stroke="black" points="85.998,-604.884 288.028,-604.884 "/>
<text text-anchor="start" x="93.998" y="-592.884" font-family="Monaco" font-size="10.00">+ ~IComponentDataItem()</text>
<text text-anchor="start" x="93.998" y="-579.549" font-family="Monaco" font-size="10.00">+ modelComponent()</text>
<text text-anchor="start" x="93.998" y="-566.214" font-family="Monaco" font-size="10.00">+ dimensions()</text>
<text text-anchor="start" x="93.998" y="-552.879" font-family="Monaco" font-size="10.00">+ valueDefinition()</text>
<text text-anchor="start" x="93.998" y="-539.544" font-family="Monaco" font-size="10.00">+ getValue()</text>
<text text-anchor="start" x="93.998" y="-526.209" font-family="Monaco" font-size="10.00">+ getValues()</text>
<text text-anchor="start" x="93.998" y="-512.874" font-family="Monaco" font-size="10.00">+ getValues()</text>
<text text-anchor="start" x="93.998" y="-499.539" font-family="Monaco" font-size="10.00">+ setValue()</text>
<text text-anchor="start" x="93.998" y="-486.204" font-family="Monaco" font-size="10.00">+ setValues()</text>
<text text-anchor="start" x="93.998" y="-472.869" font-family="Monaco" font-size="10.00">+ setValues()</text>
</a>
</g>
</g>
<!-- Node3&#45;&gt;Node2 -->
<g id="edge2" class="edge"><title>Node3&#45;&gt;Node2</title>
<path fill="none" stroke="midnightblue" d="M135.174,-454.278C130.301,-444.851 125.48,-435.527 120.915,-426.698"/>
<polygon fill="none" stroke="midnightblue" points="132.155,-456.059 139.857,-463.335 138.373,-452.844 132.155,-456.059"/>
</g>
<!-- Node7 -->
<g id="node7" class="node"><title>Node7</title>
<g id="a_node7"><a xlink:href="class_hydro_couple_1_1_spatial_1_1_i_t_i_n_component_data_item.html" target="_top" xlink:title="ITINComponentDataItem represents ITIN IComponentDataItem. ">
<polygon fill="none" stroke="black" points="198,-309.189 198,-426.534 370.026,-426.534 370.026,-309.189 198,-309.189"/>
<text text-anchor="start" x="206" y="-414.534" font-family="Monaco" font-size="10.00">HydroCouple::Spatial</text>
<text text-anchor="middle" x="284.013" y="-401.199" font-family="Monaco" font-size="10.00">::ITINComponentDataItem</text>
<polyline fill="none" stroke="black" points="198,-391.864 370.026,-391.864 "/>
<text text-anchor="middle" x="284.013" y="-379.864" font-family="Monaco" font-size="10.00"> </text>
<polyline fill="none" stroke="black" points="198,-370.529 370.026,-370.529 "/>
<text text-anchor="start" x="206" y="-358.529" font-family="Monaco" font-size="10.00">+ ~ITINComponentDataItem()</text>
<text text-anchor="start" x="206" y="-345.194" font-family="Monaco" font-size="10.00">+ TIN()</text>
<text text-anchor="start" x="206" y="-331.859" font-family="Monaco" font-size="10.00">+ triangle()</text>
<text text-anchor="start" x="206" y="-318.524" font-family="Monaco" font-size="10.00">+ TINPatchDimension()</text>
</a>
</g>
</g>
<!-- Node3&#45;&gt;Node7 -->
<g id="edge7" class="edge"><title>Node3&#45;&gt;Node7</title>
<path fill="none" stroke="midnightblue" d="M239.392,-454.278C244.316,-444.851 249.187,-435.527 253.8,-426.698"/>
<polygon fill="none" stroke="midnightblue" points="236.189,-452.851 234.661,-463.335 242.393,-456.092 236.189,-452.851"/>
</g>
<!-- Node4 -->
<g id="node4" class="node"><title>Node4</title>
<g id="a_node4"><a xlink:href="class_hydro_couple_1_1_i_identity.html" target="_top" xlink:title="IIdentity interface class defines a method to get the Id of an HydroCouple entity. ">
<polygon fill="none" stroke="black" points="113.002,-684.554 113.002,-761.894 261.024,-761.894 261.024,-684.554 113.002,-684.554"/>
<text text-anchor="middle" x="187.013" y="-749.894" font-family="Monaco" font-size="10.00">HydroCouple::IIdentity</text>
<polyline fill="none" stroke="black" points="113.002,-740.559 261.024,-740.559 "/>
<text text-anchor="middle" x="187.013" y="-728.559" font-family="Monaco" font-size="10.00"> </text>
<polyline fill="none" stroke="black" points="113.002,-719.224 261.024,-719.224 "/>
<text text-anchor="start" x="121.002" y="-707.224" font-family="Monaco" font-size="10.00">+ ~IIdentity()</text>
<text text-anchor="start" x="121.002" y="-693.889" font-family="Monaco" font-size="10.00">+ id()</text>
</a>
</g>
</g>
<!-- Node4&#45;&gt;Node3 -->
<g id="edge3" class="edge"><title>Node4&#45;&gt;Node3</title>
<path fill="none" stroke="midnightblue" d="M187.013,-673.971C187.013,-665.618 187.013,-656.693 187.013,-647.635"/>
<polygon fill="none" stroke="midnightblue" points="183.513,-674.213 187.013,-684.213 190.513,-674.213 183.513,-674.213"/>
</g>
<!-- Node5 -->
<g id="node5" class="node"><title>Node5</title>
<g id="a_node5"><a xlink:href="class_hydro_couple_1_1_i_description.html" target="_top" xlink:title="IDescription interface class provides descriptive information on a HydroCouple object. ">
<polygon fill="none" stroke="black" points="104.001,-798.894 104.001,-916.238 270.025,-916.238 270.025,-798.894 104.001,-798.894"/>
<text text-anchor="middle" x="187.013" y="-904.238" font-family="Monaco" font-size="10.00">HydroCouple::IDescription</text>
<polyline fill="none" stroke="black" points="104.001,-894.903 270.025,-894.903 "/>
<text text-anchor="middle" x="187.013" y="-882.903" font-family="Monaco" font-size="10.00"> </text>
<polyline fill="none" stroke="black" points="104.001,-873.568 270.025,-873.568 "/>
<text text-anchor="start" x="112.001" y="-861.568" font-family="Monaco" font-size="10.00">+ ~IDescription()</text>
<text text-anchor="start" x="112.001" y="-848.233" font-family="Monaco" font-size="10.00">+ caption()</text>
<text text-anchor="start" x="112.001" y="-834.898" font-family="Monaco" font-size="10.00">+ setCaption()</text>
<text text-anchor="start" x="112.001" y="-821.563" font-family="Monaco" font-size="10.00">+ description()</text>
<text text-anchor="start" x="112.001" y="-808.229" font-family="Monaco" font-size="10.00">+ setDescription()</text>
</a>
</g>
</g>
<!-- Node5&#45;&gt;Node4 -->
<g id="edge4" class="edge"><title>Node5&#45;&gt;Node4</title>
<path fill="none" stroke="midnightblue" d="M187.013,-788.328C187.013,-779.289 187.013,-770.301 187.013,-762.041"/>
<polygon fill="none" stroke="midnightblue" points="183.513,-788.519 187.013,-798.519 190.513,-788.519 183.513,-788.519"/>
</g>
<!-- Node6 -->
<g id="node6" class="node"><title>Node6</title>
<g id="a_node6"><a xlink:href="class_hydro_couple_1_1_i_property_changed.html" target="_top" xlink:title="IPropertyChanged interface is used to emit signal/event when a property of an object changes...">
<polygon fill="none" stroke="black" points="91.999,-953.238 91.999,-1017.24 282.027,-1017.24 282.027,-953.238 91.999,-953.238"/>
<text text-anchor="middle" x="187.013" y="-1005.24" font-family="Monaco" font-size="10.00">HydroCouple::IPropertyChanged</text>
<polyline fill="none" stroke="black" points="91.999,-995.908 282.027,-995.908 "/>
<text text-anchor="middle" x="187.013" y="-983.908" font-family="Monaco" font-size="10.00"> </text>
<polyline fill="none" stroke="black" points="91.999,-974.573 282.027,-974.573 "/>
<text text-anchor="start" x="99.999" y="-962.573" font-family="Monaco" font-size="10.00">+ ~IPropertyChanged()</text>
</a>
</g>
</g>
<!-- Node6&#45;&gt;Node5 -->
<g id="edge5" class="edge"><title>Node6&#45;&gt;Node5</title>
<path fill="none" stroke="midnightblue" d="M187.013,-942.918C187.013,-934.533 187.013,-925.566 187.013,-916.724"/>
<polygon fill="none" stroke="midnightblue" points="183.513,-943.175 187.013,-953.175 190.513,-943.175 183.513,-943.175"/>
</g>
<!-- Node7&#45;&gt;Node1 -->
<g id="edge6" class="edge"><title>Node7&#45;&gt;Node1</title>
<path fill="none" stroke="midnightblue" d="M246.416,-300.06C241.323,-291.011 236.061,-281.662 230.871,-272.439"/>
<polygon fill="none" stroke="midnightblue" points="243.489,-301.995 251.444,-308.993 249.589,-298.562 243.489,-301.995"/>
</g>
</g>
</svg>
