<?xml version="1.0" encoding="UTF-8" standalone="no"?>
<!DOCTYPE svg PUBLIC "-//W3C//DTD SVG 1.1//EN"
 "http://www.w3.org/Graphics/SVG/1.1/DTD/svg11.dtd">
<!-- Generated by graphviz version 2.38.0 (20140413.2041)
 -->
<!-- Title: Identity Pages: 1 -->
<!--zoomable 603 -->
<svg id="main" version="1.1" xmlns="http://www.w3.org/2000/svg" xmlns:xlink="http://www.w3.org/1999/xlink" xml:space="preserve" onload="init(evt)">
<style type="text/css"><![CDATA[
.edge:hover path { stroke: red; }
.edge:hover polygon { stroke: red; fill: red; }
]]></style>
<script type="text/javascript"><![CDATA[
var edges = document.getElementsByTagName('g');
if (edges && edges.length) {
  for (var i=0;i<edges.length;i++) {
    if (edges[i].id.substr(0,4)=='edge') {
      edges[i].setAttribute('class','edge');
    }
  }
}
]]></script>
        <defs>
                <circle id="rim" cx="0" cy="0" r="7"/>
                <circle id="rim2" cx="0" cy="0" r="3.5"/>
                <g id="zoomPlus">
                        <use xlink:href="#rim" fill="#404040">
                                <set attributeName="fill" to="#808080" begin="zoomplus.mouseover" end="zoomplus.mouseout"/>
                        </use>
                        <path d="M-4,0h8M0,-4v8" fill="none" stroke="white" stroke-width="1.5" pointer-events="none"/>
                </g>
                <g id="zoomMin">
                        <use xlink:href="#rim" fill="#404040">
                                <set attributeName="fill" to="#808080" begin="zoomminus.mouseover" end="zoomminus.mouseout"/>
                        </use>
                        <path d="M-4,0h8" fill="none" stroke="white" stroke-width="1.5" pointer-events="none"/>
                </g>
                <g id="dirArrow">
                        <path fill="none" stroke="white" stroke-width="1.5" d="M0,-3.0v7 M-2.5,-0.5L0,-3.0L2.5,-0.5"/>
                </g>
               <g id="resetDef">
                       <use xlink:href="#rim2" fill="#404040">
                               <set attributeName="fill" to="#808080" begin="reset.mouseover" end="reset.mouseout"/>
                       </use>
               </g>
        </defs>

<script type="text/javascript">
var viewWidth = 307;
var viewHeight = 603;
var sectionId = 'dynsection-1';
</script>
<script xlink:href="svgpan.js"/>
<svg id="graph" class="graph">
<g id="viewport">
<title>Identity</title>
<polygon fill="white" stroke="none" points="-4,4 -4,-598.714 303.023,-598.714 303.023,4 -4,4"/>
<!-- Node1 -->
<g id="node1" class="node"><title>Node1</title>
<polygon fill="#bfbfbf" stroke="black" points="92.0024,-0.5 92.0024,-117.845 186.015,-117.845 186.015,-0.5 92.0024,-0.5"/>
<text text-anchor="middle" x="139.009" y="-105.845" font-family="Monaco" font-size="10.00">Identity</text>
<polyline fill="none" stroke="black" points="92.0024,-96.5098 186.015,-96.5098 "/>
<text text-anchor="start" x="100.002" y="-84.5098" font-family="Monaco" font-size="10.00">+ Id</text>
<polyline fill="none" stroke="black" points="92.0024,-75.1748 186.015,-75.1748 "/>
<text text-anchor="start" x="100.002" y="-63.1748" font-family="Monaco" font-size="10.00">+ Identity()</text>
<text text-anchor="start" x="100.002" y="-49.8398" font-family="Monaco" font-size="10.00">+ Identity()</text>
<text text-anchor="start" x="100.002" y="-36.5049" font-family="Monaco" font-size="10.00">+ ~Identity()</text>
<text text-anchor="start" x="100.002" y="-23.1699" font-family="Monaco" font-size="10.00">+ id()</text>
<text text-anchor="start" x="100.002" y="-9.83496" font-family="Monaco" font-size="10.00"># setId()</text>
</g>
<!-- Node2 -->
<g id="node2" class="node"><title>Node2</title>
<g id="a_node2"><a xlink:href="class_description.html" target="_top" xlink:title="The Description class. ">
<polygon fill="white" stroke="black" points="0,-154.845 0,-338.864 124.018,-338.864 124.018,-154.845 0,-154.845"/>
<text text-anchor="middle" x="62.0088" y="-326.864" font-family="Monaco" font-size="10.00">Description</text>
<polyline fill="none" stroke="black" points="0,-317.529 124.018,-317.529 "/>
<text text-anchor="start" x="8" y="-305.529" font-family="Monaco" font-size="10.00">+ Caption</text>
<text text-anchor="start" x="8" y="-292.194" font-family="Monaco" font-size="10.00">+ Description</text>
<text text-anchor="start" x="8" y="-278.859" font-family="Monaco" font-size="10.00"># m_caption</text>
<text text-anchor="start" x="8" y="-265.524" font-family="Monaco" font-size="10.00"># m_description</text>
<polyline fill="none" stroke="black" points="0,-256.189 124.018,-256.189 "/>
<text text-anchor="start" x="8" y="-244.189" font-family="Monaco" font-size="10.00">+ Description()</text>
<text text-anchor="start" x="8" y="-230.854" font-family="Monaco" font-size="10.00">+ Description()</text>
<text text-anchor="start" x="8" y="-217.52" font-family="Monaco" font-size="10.00">+ ~Description()</text>
<text text-anchor="start" x="8" y="-204.185" font-family="Monaco" font-size="10.00">+ getCaption()</text>
<text text-anchor="start" x="8" y="-190.85" font-family="Monaco" font-size="10.00">+ setCaption()</text>
<text text-anchor="start" x="8" y="-177.515" font-family="Monaco" font-size="10.00">+ getDescription()</text>
<text text-anchor="start" x="8" y="-164.18" font-family="Monaco" font-size="10.00">+ setDescription()</text>
</a>
</g>
</g>
<!-- Node2&#45;&gt;Node1 -->
<g id="edge1" class="edge"><title>Node2&#45;&gt;Node1</title>
<path fill="none" stroke="midnightblue" d="M103.709,-145.297C107.577,-135.97 111.401,-126.747 115.025,-118.009"/>
<polygon fill="none" stroke="midnightblue" points="100.43,-144.067 99.8321,-154.645 106.896,-146.749 100.43,-144.067"/>
</g>
<!-- Node3 -->
<g id="node3" class="node"><title>Node3</title>
<polygon fill="white" stroke="#bfbfbf" points="33.0054,-402.534 33.0054,-466.539 91.0122,-466.539 91.0122,-402.534 33.0054,-402.534"/>
<text text-anchor="middle" x="62.0088" y="-454.539" font-family="Monaco" font-size="10.00">QObject</text>
<polyline fill="none" stroke="#bfbfbf" points="33.0054,-445.204 91.0122,-445.204 "/>
<text text-anchor="middle" x="62.0088" y="-433.204" font-family="Monaco" font-size="10.00"> </text>
<polyline fill="none" stroke="#bfbfbf" points="33.0054,-423.869 91.0122,-423.869 "/>
<text text-anchor="middle" x="62.0088" y="-411.869" font-family="Monaco" font-size="10.00"> </text>
</g>
<!-- Node3&#45;&gt;Node2 -->
<g id="edge2" class="edge"><title>Node3&#45;&gt;Node2</title>
<path fill="none" stroke="midnightblue" d="M62.0088,-392.053C62.0088,-376.309 62.0088,-357.689 62.0088,-339.151"/>
<polygon fill="none" stroke="midnightblue" points="58.5089,-392.458 62.0088,-402.458 65.5089,-392.458 58.5089,-392.458"/>
</g>
<!-- Node4 -->
<g id="node4" class="node"><title>Node4</title>
<g id="a_node4"><a xlink:href="class_hydro_couple_1_1_i_description.html" target="_top" xlink:title="IDescription interface class provides descriptive information on a HydroCouple object. ">
<polygon fill="white" stroke="black" points="120.997,-375.864 120.997,-493.209 287.021,-493.209 287.021,-375.864 120.997,-375.864"/>
<text text-anchor="middle" x="204.009" y="-481.209" font-family="Monaco" font-size="10.00">HydroCouple::IDescription</text>
<polyline fill="none" stroke="black" points="120.997,-471.874 287.021,-471.874 "/>
<text text-anchor="middle" x="204.009" y="-459.874" font-family="Monaco" font-size="10.00"> </text>
<polyline fill="none" stroke="black" points="120.997,-450.539 287.021,-450.539 "/>
<text text-anchor="start" x="128.997" y="-438.539" font-family="Monaco" font-size="10.00">+ ~IDescription()</text>
<text text-anchor="start" x="128.997" y="-425.204" font-family="Monaco" font-size="10.00">+ getCaption()</text>
<text text-anchor="start" x="128.997" y="-411.869" font-family="Monaco" font-size="10.00">+ setCaption()</text>
<text text-anchor="start" x="128.997" y="-398.534" font-family="Monaco" font-size="10.00">+ getDescription()</text>
<text text-anchor="start" x="128.997" y="-385.199" font-family="Monaco" font-size="10.00">+ setDescription()</text>
</a>
</g>
</g>
<!-- Node4&#45;&gt;Node2 -->
<g id="edge3" class="edge"><title>Node4&#45;&gt;Node2</title>
<path fill="none" stroke="midnightblue" d="M153.662,-367.702C144.102,-355.201 133.994,-341.984 124.119,-329.072"/>
<polygon fill="none" stroke="midnightblue" points="151.003,-369.986 159.857,-375.803 156.563,-365.734 151.003,-369.986"/>
</g>
<!-- Node6 -->
<g id="node6" class="node"><title>Node6</title>
<g id="a_node6"><a xlink:href="class_hydro_couple_1_1_i_identity.html" target="_top" xlink:title="IIdentity interface class defines a method to get the Id of an HydroCouple entity. ">
<polygon fill="white" stroke="black" points="141.998,-208.185 141.998,-285.524 290.02,-285.524 290.02,-208.185 141.998,-208.185"/>
<text text-anchor="middle" x="216.009" y="-273.524" font-family="Monaco" font-size="10.00">HydroCouple::IIdentity</text>
<polyline fill="none" stroke="black" points="141.998,-264.189 290.02,-264.189 "/>
<text text-anchor="middle" x="216.009" y="-252.189" font-family="Monaco" font-size="10.00"> </text>
<polyline fill="none" stroke="black" points="141.998,-242.854 290.02,-242.854 "/>
<text text-anchor="start" x="149.998" y="-230.854" font-family="Monaco" font-size="10.00">+ ~IIdentity()</text>
<text text-anchor="start" x="149.998" y="-217.52" font-family="Monaco" font-size="10.00">+ id()</text>
</a>
</g>
</g>
<!-- Node4&#45;&gt;Node6 -->
<g id="edge6" class="edge"><title>Node4&#45;&gt;Node6</title>
<path fill="none" stroke="midnightblue" d="M208.398,-365.627C210.142,-338.632 212.083,-308.6 213.568,-285.619"/>
<polygon fill="none" stroke="midnightblue" points="204.892,-365.599 207.74,-375.803 211.878,-366.05 204.892,-365.599"/>
</g>
<!-- Node5 -->
<g id="node5" class="node"><title>Node5</title>
<g id="a_node5"><a xlink:href="class_hydro_couple_1_1_i_property_changed.html" target="_top" xlink:title="IPropertyChanged interface is used to emit signal/event when a property of an object changes...">
<polygon fill="white" stroke="black" points="108.995,-530.209 108.995,-594.214 299.023,-594.214 299.023,-530.209 108.995,-530.209"/>
<text text-anchor="middle" x="204.009" y="-582.214" font-family="Monaco" font-size="10.00">HydroCouple::IPropertyChanged</text>
<polyline fill="none" stroke="black" points="108.995,-572.879 299.023,-572.879 "/>
<text text-anchor="middle" x="204.009" y="-560.879" font-family="Monaco" font-size="10.00"> </text>
<polyline fill="none" stroke="black" points="108.995,-551.544 299.023,-551.544 "/>
<text text-anchor="start" x="116.995" y="-539.544" font-family="Monaco" font-size="10.00">+ ~IPropertyChanged()</text>
</a>
</g>
</g>
<!-- Node5&#45;&gt;Node4 -->
<g id="edge4" class="edge"><title>Node5&#45;&gt;Node4</title>
<path fill="none" stroke="midnightblue" d="M204.009,-519.889C204.009,-511.504 204.009,-502.537 204.009,-493.695"/>
<polygon fill="none" stroke="midnightblue" points="200.509,-520.146 204.009,-530.146 207.509,-520.146 200.509,-520.146"/>
</g>
<!-- Node6&#45;&gt;Node1 -->
<g id="edge5" class="edge"><title>Node6&#45;&gt;Node1</title>
<path fill="none" stroke="midnightblue" d="M196.325,-198.387C186.159,-173.873 173.672,-143.762 162.952,-117.909"/>
<polygon fill="none" stroke="midnightblue" points="193.177,-199.934 200.241,-207.831 199.643,-197.253 193.177,-199.934"/>
</g>
</g>
</svg>
        <g id="navigator" transform="translate(0 0)" fill="#404254">
                <rect fill="#f2f5e9" fill-opacity="0.5" stroke="#606060" stroke-width=".5" x="0" y="0" width="60" height="60"/>
                <use id="zoomplus" xlink:href="#zoomPlus" x="17" y="9" onmousedown="handleZoom(evt,'in')"/>
                <use id="zoomminus" xlink:href="#zoomMin" x="42" y="9" onmousedown="handleZoom(evt,'out')"/>
                <use id="reset" xlink:href="#resetDef" x="30" y="36" onmousedown="handleReset()"/>
                <g id="arrowUp" xlink:href="#dirArrow" transform="translate(30 24)" onmousedown="handlePan(0,-1)">
                  <use xlink:href="#rim" fill="#404040">
                        <set attributeName="fill" to="#808080" begin="arrowUp.mouseover" end="arrowUp.mouseout"/>
                  </use>
                  <path fill="none" stroke="white" stroke-width="1.5" d="M0,-3.0v7 M-2.5,-0.5L0,-3.0L2.5,-0.5"/>
                </g>
                <g id="arrowRight" xlink:href="#dirArrow" transform="rotate(90) translate(36 -43)" onmousedown="handlePan(1,0)">
                  <use xlink:href="#rim" fill="#404040">
                        <set attributeName="fill" to="#808080" begin="arrowRight.mouseover" end="arrowRight.mouseout"/>
                  </use>
                  <path fill="none" stroke="white" stroke-width="1.5" d="M0,-3.0v7 M-2.5,-0.5L0,-3.0L2.5,-0.5"/>
                </g>
                <g id="arrowDown" xlink:href="#dirArrow" transform="rotate(180) translate(-30 -48)" onmousedown="handlePan(0,1)">
                  <use xlink:href="#rim" fill="#404040">
                        <set attributeName="fill" to="#808080" begin="arrowDown.mouseover" end="arrowDown.mouseout"/>
                  </use>
                  <path fill="none" stroke="white" stroke-width="1.5" d="M0,-3.0v7 M-2.5,-0.5L0,-3.0L2.5,-0.5"/>
                </g>
                <g id="arrowLeft" xlink:href="#dirArrow" transform="rotate(270) translate(-36 17)" onmousedown="handlePan(-1,0)">
                  <use xlink:href="#rim" fill="#404040">
                        <set attributeName="fill" to="#808080" begin="arrowLeft.mouseover" end="arrowLeft.mouseout"/>
                  </use>
                  <path fill="none" stroke="white" stroke-width="1.5" d="M0,-3.0v7 M-2.5,-0.5L0,-3.0L2.5,-0.5"/>
                </g>
        </g>
        <svg viewBox="0 0 15 15" width="100%" height="30px" preserveAspectRatio="xMaxYMin meet">
         <g id="arrow_out" transform="scale(0.3 0.3)">
          <a xlink:href="class_identity__coll__graph_org.svg" target="_base">
           <rect id="button" ry="5" rx="5" y="6" x="6" height="38" width="38"
                fill="#f2f5e9" fill-opacity="0.5" stroke="#606060" stroke-width="1.0"/>
           <path id="arrow"
             d="M 11.500037,31.436501 C 11.940474,20.09759 22.043105,11.32322 32.158766,21.979434 L 37.068811,17.246167 C 37.068811,17.246167 37.088388,32 37.088388,32 L 22.160133,31.978069 C 22.160133,31.978069 26.997745,27.140456 26.997745,27.140456 C 18.528582,18.264221 13.291696,25.230495 11.500037,31.436501 z"
             style="fill:#404040;"/>
          </a>
         </g>
        </svg>
</svg>
