<?xml version="1.0" encoding="UTF-8" standalone="no"?>
<!DOCTYPE svg PUBLIC "-//W3C//DTD SVG 1.1//EN"
 "http://www.w3.org/Graphics/SVG/1.1/DTD/svg11.dtd">
<!-- Generated by graphviz version 2.38.0 (20140413.2041)
 -->
<!-- Title: HydroCouple::Data::IValueDefinition Pages: 1 -->
<svg width="169pt" height="335pt"
 viewBox="0.00 0.00 169.08 335.00" xmlns="http://www.w3.org/2000/svg" xmlns:xlink="http://www.w3.org/1999/xlink">
<g id="graph0" class="graph" transform="scale(1 1) rotate(0) translate(4 331)">
<title>HydroCouple::Data::IValueDefinition</title>
<polygon fill="white" stroke="none" points="-4,4 -4,-331 165.083,-331 165.083,4 -4,4"/>
<!-- Node1 -->
<g id="node1" class="node"><title>Node1</title>
<polygon fill="#bfbfbf" stroke="black" points="27.2412,-0.5 27.2412,-104.5 133.842,-104.5 133.842,-0.5 27.2412,-0.5"/>
<text text-anchor="start" x="35.2412" y="-92.5" font-family="Helvetica,sans-Serif" font-size="10.00">HydroCouple::Data::</text>
<text text-anchor="middle" x="80.5415" y="-82.5" font-family="Helvetica,sans-Serif" font-size="10.00">IValueDefinition</text>
<polyline fill="none" stroke="black" points="27.2412,-76.5 133.842,-76.5 "/>
<text text-anchor="middle" x="80.5415" y="-64.5" font-family="Helvetica,sans-Serif" font-size="10.00"> </text>
<polyline fill="none" stroke="black" points="27.2412,-58.5 133.842,-58.5 "/>
<text text-anchor="start" x="35.2412" y="-46.5" font-family="Helvetica,sans-Serif" font-size="10.00">+ ~IValueDefinition()</text>
<text text-anchor="start" x="35.2412" y="-36.5" font-family="Helvetica,sans-Serif" font-size="10.00">+ type()</text>
<text text-anchor="start" x="35.2412" y="-26.5" font-family="Helvetica,sans-Serif" font-size="10.00">+ missingValue()</text>
<text text-anchor="start" x="35.2412" y="-16.5" font-family="Helvetica,sans-Serif" font-size="10.00">+ defaultValue()</text>
<text text-anchor="start" x="35.2412" y="-6.5" font-family="Helvetica,sans-Serif" font-size="10.00">+ possibleValues()</text>
</g>
<!-- Node2 -->
<g id="node2" class="node"><title>Node2</title>
<g id="a_node2"><a xlink:href="class_hydro_couple_1_1_i_description.html" target="_top" xlink:title="IDescription interface class provides descriptive information on a HydroCouple object. ">
<polygon fill="white" stroke="black" points="14.1821,-141.5 14.1821,-235.5 146.901,-235.5 146.901,-141.5 14.1821,-141.5"/>
<text text-anchor="middle" x="80.5415" y="-223.5" font-family="Helvetica,sans-Serif" font-size="10.00">HydroCouple::IDescription</text>
<polyline fill="none" stroke="black" points="14.1821,-217.5 146.901,-217.5 "/>
<text text-anchor="middle" x="80.5415" y="-205.5" font-family="Helvetica,sans-Serif" font-size="10.00"> </text>
<polyline fill="none" stroke="black" points="14.1821,-199.5 146.901,-199.5 "/>
<text text-anchor="start" x="22.1821" y="-187.5" font-family="Helvetica,sans-Serif" font-size="10.00">+ ~IDescription()</text>
<text text-anchor="start" x="22.1821" y="-177.5" font-family="Helvetica,sans-Serif" font-size="10.00">+ getCaption()</text>
<text text-anchor="start" x="22.1821" y="-167.5" font-family="Helvetica,sans-Serif" font-size="10.00">+ setCaption()</text>
<text text-anchor="start" x="22.1821" y="-157.5" font-family="Helvetica,sans-Serif" font-size="10.00">+ getDescription()</text>
<text text-anchor="start" x="22.1821" y="-147.5" font-family="Helvetica,sans-Serif" font-size="10.00">+ setDescription()</text>
</a>
</g>
</g>
<!-- Node2&#45;&gt;Node1 -->
<g id="edge1" class="edge"><title>Node2&#45;&gt;Node1</title>
<path fill="none" stroke="midnightblue" d="M80.5415,-131.229C80.5415,-122.447 80.5415,-113.413 80.5415,-104.751"/>
<polygon fill="none" stroke="midnightblue" points="77.0416,-131.385 80.5415,-141.385 84.0416,-131.385 77.0416,-131.385"/>
</g>
<!-- Node3 -->
<g id="node3" class="node"><title>Node3</title>
<g id="a_node3"><a xlink:href="class_hydro_couple_1_1_i_property_changed.html" target="_top" xlink:title="IPropertyChanged interface is used to emit signal/event when a property of an object changes...">
<polygon fill="white" stroke="black" points="0,-272.5 0,-326.5 161.083,-326.5 161.083,-272.5 0,-272.5"/>
<text text-anchor="middle" x="80.5415" y="-314.5" font-family="Helvetica,sans-Serif" font-size="10.00">HydroCouple::IPropertyChanged</text>
<polyline fill="none" stroke="black" points="0,-308.5 161.083,-308.5 "/>
<text text-anchor="middle" x="80.5415" y="-296.5" font-family="Helvetica,sans-Serif" font-size="10.00"> </text>
<polyline fill="none" stroke="black" points="0,-290.5 161.083,-290.5 "/>
<text text-anchor="start" x="8" y="-278.5" font-family="Helvetica,sans-Serif" font-size="10.00">+ ~IPropertyChanged()</text>
</a>
</g>
</g>
<!-- Node3&#45;&gt;Node2 -->
<g id="edge2" class="edge"><title>Node3&#45;&gt;Node2</title>
<path fill="none" stroke="midnightblue" d="M80.5415,-262.141C80.5415,-253.716 80.5415,-244.639 80.5415,-235.851"/>
<polygon fill="none" stroke="midnightblue" points="77.0416,-262.392 80.5415,-272.392 84.0416,-262.392 77.0416,-262.392"/>
</g>
</g>
</svg>
