<?xml version="1.0" encoding="UTF-8" standalone="no"?>
<!DOCTYPE svg PUBLIC "-//W3C//DTD SVG 1.1//EN"
 "http://www.w3.org/Graphics/SVG/1.1/DTD/svg11.dtd">
<!-- Generated by graphviz version 2.38.0 (20140413.2041)
 -->
<!-- Title: HydroCouple::SpatioTemporal::ITimePolyhedralSurfaceExchangeItem Pages: 1 -->
<!--zoomable 1079 -->
<svg id="main" version="1.1" xmlns="http://www.w3.org/2000/svg" xmlns:xlink="http://www.w3.org/1999/xlink" xml:space="preserve" onload="init(evt)">
<style type="text/css"><![CDATA[
.edge:hover path { stroke: red; }
.edge:hover polygon { stroke: red; fill: red; }
]]></style>
<script type="text/javascript"><![CDATA[
var edges = document.getElementsByTagName('g');
if (edges && edges.length) {
  for (var i=0;i<edges.length;i++) {
    if (edges[i].id.substr(0,4)=='edge') {
      edges[i].setAttribute('class','edge');
    }
  }
}
]]></script>
        <defs>
                <circle id="rim" cx="0" cy="0" r="7"/>
                <circle id="rim2" cx="0" cy="0" r="3.5"/>
                <g id="zoomPlus">
                        <use xlink:href="#rim" fill="#404040">
                                <set attributeName="fill" to="#808080" begin="zoomplus.mouseover" end="zoomplus.mouseout"/>
                        </use>
                        <path d="M-4,0h8M0,-4v8" fill="none" stroke="white" stroke-width="1.5" pointer-events="none"/>
                </g>
                <g id="zoomMin">
                        <use xlink:href="#rim" fill="#404040">
                                <set attributeName="fill" to="#808080" begin="zoomminus.mouseover" end="zoomminus.mouseout"/>
                        </use>
                        <path d="M-4,0h8" fill="none" stroke="white" stroke-width="1.5" pointer-events="none"/>
                </g>
                <g id="dirArrow">
                        <path fill="none" stroke="white" stroke-width="1.5" d="M0,-3.0v7 M-2.5,-0.5L0,-3.0L2.5,-0.5"/>
                </g>
               <g id="resetDef">
                       <use xlink:href="#rim2" fill="#404040">
                               <set attributeName="fill" to="#808080" begin="reset.mouseover" end="reset.mouseout"/>
                       </use>
               </g>
        </defs>

<script type="text/javascript">
var viewWidth = 638;
var viewHeight = 1079;
var sectionId = 'dynsection-1';
</script>
<script xlink:href="svgpan.js"/>
<svg id="graph" class="graph">
<g id="viewport">
<title>HydroCouple::SpatioTemporal::ITimePolyhedralSurfaceExchangeItem</title>
<!-- Node1 -->
<g id="node1" class="node"><title>Node1</title>
<polygon fill="#bfbfbf" stroke="black" points="186.998,-0.5 186.998,-77.8398 437.036,-77.8398 437.036,-0.5 186.998,-0.5"/>
<text text-anchor="start" x="194.998" y="-65.8398" font-family="Monaco" font-size="10.00">HydroCouple::SpatioTemporal</text>
<text text-anchor="middle" x="312.017" y="-52.5049" font-family="Monaco" font-size="10.00">::ITimePolyhedralSurfaceExchangeItem</text>
<polyline fill="none" stroke="black" points="186.998,-43.1699 437.036,-43.1699 "/>
<text text-anchor="middle" x="312.017" y="-31.1699" font-family="Monaco" font-size="10.00"> </text>
<polyline fill="none" stroke="black" points="186.998,-21.835 437.036,-21.835 "/>
<text text-anchor="start" x="194.998" y="-9.83496" font-family="Monaco" font-size="10.00">+ ~ITimePolyhedralSurfaceExchangeItem()</text>
</g>
<!-- Node2 -->
<g id="node2" class="node"><title>Node2</title>
<g id="a_node2"><a xlink:href="class_hydro_couple_1_1_spatio_temporal_1_1_i_time_polyhedral_surface_component_data_item.html" target="_top" xlink:title="The ITimePolyhedralSurfaceComponentItem class. ">
<polygon fill="none" stroke="black" points="0,-114.84 0,-298.859 220.033,-298.859 220.033,-114.84 0,-114.84"/>
<text text-anchor="start" x="8" y="-286.859" font-family="Monaco" font-size="10.00">HydroCouple::SpatioTemporal</text>
<text text-anchor="start" x="8" y="-273.524" font-family="Monaco" font-size="10.00">::ITimePolyhedralSurfaceComponent</text>
<text text-anchor="middle" x="110.017" y="-260.189" font-family="Monaco" font-size="10.00">DataItem</text>
<polyline fill="none" stroke="black" points="0,-250.854 220.033,-250.854 "/>
<text text-anchor="middle" x="110.017" y="-238.854" font-family="Monaco" font-size="10.00"> </text>
<polyline fill="none" stroke="black" points="0,-229.52 220.033,-229.52 "/>
<text text-anchor="start" x="8" y="-217.52" font-family="Monaco" font-size="10.00">+ ~ITimePolyhedralSurfaceComponent</text>
<text text-anchor="start" x="8" y="-204.185" font-family="Monaco" font-size="10.00">DataItem()</text>
<text text-anchor="start" x="8" y="-190.85" font-family="Monaco" font-size="10.00">+ getValue()</text>
<text text-anchor="start" x="8" y="-177.515" font-family="Monaco" font-size="10.00">+ getValues()</text>
<text text-anchor="start" x="8" y="-164.18" font-family="Monaco" font-size="10.00">+ getValues()</text>
<text text-anchor="start" x="8" y="-150.845" font-family="Monaco" font-size="10.00">+ setValue()</text>
<text text-anchor="start" x="8" y="-137.51" font-family="Monaco" font-size="10.00">+ setValues()</text>
<text text-anchor="start" x="8" y="-124.175" font-family="Monaco" font-size="10.00">+ setValues()</text>
</a>
</g>
</g>
<!-- Node2&#45;&gt;Node1 -->
<g id="edge1" class="edge"><title>Node2&#45;&gt;Node1</title>
<path fill="none" stroke="midnightblue" d="M228.052,-109.037C241.358,-98.1237 254.258,-87.5434 265.791,-78.0836"/>
<polygon fill="none" stroke="midnightblue" points="225.691,-106.447 220.178,-115.495 230.13,-111.86 225.691,-106.447"/>
</g>
<!-- Node3 -->
<g id="node3" class="node"><title>Node3</title>
<g id="a_node3"><a xlink:href="class_hydro_couple_1_1_temporal_1_1_i_time_component_data_item.html" target="_top" xlink:title="ITimeComponentItem is an IComponentItem with a temporal attribute. This class cannot be directly inst...">
<polygon fill="none" stroke="black" points="6.00342,-349.194 6.00342,-466.539 184.03,-466.539 184.03,-349.194 6.00342,-349.194"/>
<text text-anchor="start" x="14.0034" y="-454.539" font-family="Monaco" font-size="10.00">HydroCouple::Temporal</text>
<text text-anchor="middle" x="95.0166" y="-441.204" font-family="Monaco" font-size="10.00">::ITimeComponentDataItem</text>
<polyline fill="none" stroke="black" points="6.00342,-431.869 184.03,-431.869 "/>
<text text-anchor="middle" x="95.0166" y="-419.869" font-family="Monaco" font-size="10.00"> </text>
<polyline fill="none" stroke="black" points="6.00342,-410.534 184.03,-410.534 "/>
<text text-anchor="start" x="14.0034" y="-398.534" font-family="Monaco" font-size="10.00">+ ~ITimeComponentDataItem()</text>
<text text-anchor="start" x="14.0034" y="-385.199" font-family="Monaco" font-size="10.00">+ times()</text>
<text text-anchor="start" x="14.0034" y="-371.864" font-family="Monaco" font-size="10.00">+ timeSpan()</text>
<text text-anchor="start" x="14.0034" y="-358.529" font-family="Monaco" font-size="10.00">+ timeDimension()</text>
</a>
</g>
</g>
<!-- Node3&#45;&gt;Node2 -->
<g id="edge2" class="edge"><title>Node3&#45;&gt;Node2</title>
<path fill="none" stroke="midnightblue" d="M100.135,-338.954C101.1,-326.152 102.124,-312.572 103.132,-299.19"/>
<polygon fill="none" stroke="midnightblue" points="96.6369,-338.801 99.3754,-349.035 103.617,-339.327 96.6369,-338.801"/>
</g>
<!-- Node9 -->
<g id="node9" class="node"><title>Node9</title>
<g id="a_node9"><a xlink:href="class_hydro_couple_1_1_temporal_1_1_i_time_exchange_item.html" target="_top" xlink:title="The ITimeExchangeItem class.This class cannot be directly instantiated and must be implemented as as ...">
<polygon fill="none" stroke="black" points="238.006,-168.18 238.006,-245.52 386.027,-245.52 386.027,-168.18 238.006,-168.18"/>
<text text-anchor="start" x="246.006" y="-233.52" font-family="Monaco" font-size="10.00">HydroCouple::Temporal</text>
<text text-anchor="middle" x="312.017" y="-220.185" font-family="Monaco" font-size="10.00">::ITimeExchangeItem</text>
<polyline fill="none" stroke="black" points="238.006,-210.85 386.027,-210.85 "/>
<text text-anchor="middle" x="312.017" y="-198.85" font-family="Monaco" font-size="10.00"> </text>
<polyline fill="none" stroke="black" points="238.006,-189.515 386.027,-189.515 "/>
<text text-anchor="start" x="246.006" y="-177.515" font-family="Monaco" font-size="10.00">+ ~ITimeExchangeItem()</text>
</a>
</g>
</g>
<!-- Node3&#45;&gt;Node9 -->
<g id="edge12" class="edge"><title>Node3&#45;&gt;Node9</title>
<path fill="none" stroke="midnightblue" d="M179.421,-342.51C196.264,-328.742 213.525,-313.94 229.017,-299.359 246.822,-282.601 265.228,-262.621 280.17,-245.612"/>
<polygon fill="none" stroke="midnightblue" points="176.759,-340.162 171.196,-349.18 181.168,-345.599 176.759,-340.162"/>
</g>
<!-- Node4 -->
<g id="node4" class="node"><title>Node4</title>
<g id="a_node4"><a xlink:href="class_hydro_couple_1_1_i_component_data_item.html" target="_top" xlink:title="IComponentItem is a fundamental unit of data for a component. ">
<polygon fill="none" stroke="black" points="214.001,-516.874 214.001,-700.894 416.032,-700.894 416.032,-516.874 214.001,-516.874"/>
<text text-anchor="middle" x="315.017" y="-688.894" font-family="Monaco" font-size="10.00">HydroCouple::IComponentDataItem</text>
<polyline fill="none" stroke="black" points="214.001,-679.559 416.032,-679.559 "/>
<text text-anchor="middle" x="315.017" y="-667.559" font-family="Monaco" font-size="10.00"> </text>
<polyline fill="none" stroke="black" points="214.001,-658.224 416.032,-658.224 "/>
<text text-anchor="start" x="222.001" y="-646.224" font-family="Monaco" font-size="10.00">+ ~IComponentDataItem()</text>
<text text-anchor="start" x="222.001" y="-632.889" font-family="Monaco" font-size="10.00">+ modelComponent()</text>
<text text-anchor="start" x="222.001" y="-619.554" font-family="Monaco" font-size="10.00">+ dimensions()</text>
<text text-anchor="start" x="222.001" y="-606.219" font-family="Monaco" font-size="10.00">+ valueDefinition()</text>
<text text-anchor="start" x="222.001" y="-592.884" font-family="Monaco" font-size="10.00">+ getValue()</text>
<text text-anchor="start" x="222.001" y="-579.549" font-family="Monaco" font-size="10.00">+ getValues()</text>
<text text-anchor="start" x="222.001" y="-566.214" font-family="Monaco" font-size="10.00">+ getValues()</text>
<text text-anchor="start" x="222.001" y="-552.879" font-family="Monaco" font-size="10.00">+ setValue()</text>
<text text-anchor="start" x="222.001" y="-539.544" font-family="Monaco" font-size="10.00">+ setValues()</text>
<text text-anchor="start" x="222.001" y="-526.209" font-family="Monaco" font-size="10.00">+ setValues()</text>
</a>
</g>
</g>
<!-- Node4&#45;&gt;Node3 -->
<g id="edge3" class="edge"><title>Node4&#45;&gt;Node3</title>
<path fill="none" stroke="midnightblue" d="M206.81,-509.997C190.374,-495.129 173.884,-480.212 158.81,-466.575"/>
<polygon fill="none" stroke="midnightblue" points="204.588,-512.708 214.352,-516.821 209.284,-507.516 204.588,-512.708"/>
</g>
<!-- Node8 -->
<g id="node8" class="node"><title>Node8</title>
<g id="a_node8"><a xlink:href="class_hydro_couple_1_1_spatial_1_1_i_polyhedral_surface_component_data_item.html" target="_top" xlink:title="IPolyhedralSurfaceComponentItem represents IPolyhedralSurface IComponentItem. ">
<polygon fill="none" stroke="black" points="202,-335.859 202,-479.874 428.034,-479.874 428.034,-335.859 202,-335.859"/>
<text text-anchor="start" x="210" y="-467.874" font-family="Monaco" font-size="10.00">HydroCouple::Spatial</text>
<text text-anchor="start" x="210" y="-454.539" font-family="Monaco" font-size="10.00">::IPolyhedralSurfaceComponent</text>
<text text-anchor="middle" x="315.017" y="-441.204" font-family="Monaco" font-size="10.00">DataItem</text>
<polyline fill="none" stroke="black" points="202,-431.869 428.034,-431.869 "/>
<text text-anchor="middle" x="315.017" y="-419.869" font-family="Monaco" font-size="10.00"> </text>
<polyline fill="none" stroke="black" points="202,-410.534 428.034,-410.534 "/>
<text text-anchor="start" x="210" y="-398.534" font-family="Monaco" font-size="10.00">+ ~IPolyhedralSurfaceComponent</text>
<text text-anchor="start" x="210" y="-385.199" font-family="Monaco" font-size="10.00">DataItem()</text>
<text text-anchor="start" x="210" y="-371.864" font-family="Monaco" font-size="10.00">+ polyhedralSurface()</text>
<text text-anchor="start" x="210" y="-358.529" font-family="Monaco" font-size="10.00">+ polygon()</text>
<text text-anchor="start" x="210" y="-345.194" font-family="Monaco" font-size="10.00">+ polyhedralSurfacePatchDimension()</text>
</a>
</g>
</g>
<!-- Node4&#45;&gt;Node8 -->
<g id="edge8" class="edge"><title>Node4&#45;&gt;Node8</title>
<path fill="none" stroke="midnightblue" d="M315.017,-506.638C315.017,-497.612 315.017,-488.605 315.017,-479.915"/>
<polygon fill="none" stroke="midnightblue" points="311.517,-506.821 315.017,-516.821 318.517,-506.821 311.517,-506.821"/>
</g>
<!-- Node10 -->
<g id="node10" class="node"><title>Node10</title>
<g id="a_node10"><a xlink:href="class_hydro_couple_1_1_i_exchange_item.html" target="_top" xlink:title="IExchangeItem the base data item the can be exchanged between components at runtime. ">
<polygon fill="none" stroke="black" points="446.004,-375.864 446.004,-439.869 618.029,-439.869 618.029,-375.864 446.004,-375.864"/>
<text text-anchor="middle" x="532.017" y="-427.869" font-family="Monaco" font-size="10.00">HydroCouple::IExchangeItem</text>
<polyline fill="none" stroke="black" points="446.004,-418.534 618.029,-418.534 "/>
<text text-anchor="middle" x="532.017" y="-406.534" font-family="Monaco" font-size="10.00"> </text>
<polyline fill="none" stroke="black" points="446.004,-397.199 618.029,-397.199 "/>
<text text-anchor="start" x="454.004" y="-385.199" font-family="Monaco" font-size="10.00">+ ~IExchangeItem()</text>
</a>
</g>
</g>
<!-- Node4&#45;&gt;Node10 -->
<g id="edge11" class="edge"><title>Node4&#45;&gt;Node10</title>
<path fill="none" stroke="midnightblue" d="M421.738,-510.007C449.483,-484.56 477.384,-458.972 498.18,-439.899"/>
<polygon fill="none" stroke="midnightblue" points="419.312,-507.482 414.308,-516.821 424.044,-512.641 419.312,-507.482"/>
</g>
<!-- Node5 -->
<g id="node5" class="node"><title>Node5</title>
<g id="a_node5"><a xlink:href="class_hydro_couple_1_1_i_identity.html" target="_top" xlink:title="IIdentity interface class defines a method to get the Id of an HydroCouple entity. ">
<polygon fill="none" stroke="black" points="241.006,-737.894 241.006,-815.233 389.027,-815.233 389.027,-737.894 241.006,-737.894"/>
<text text-anchor="middle" x="315.017" y="-803.233" font-family="Monaco" font-size="10.00">HydroCouple::IIdentity</text>
<polyline fill="none" stroke="black" points="241.006,-793.898 389.027,-793.898 "/>
<text text-anchor="middle" x="315.017" y="-781.898" font-family="Monaco" font-size="10.00"> </text>
<polyline fill="none" stroke="black" points="241.006,-772.563 389.027,-772.563 "/>
<text text-anchor="start" x="249.006" y="-760.563" font-family="Monaco" font-size="10.00">+ ~IIdentity()</text>
<text text-anchor="start" x="249.006" y="-747.229" font-family="Monaco" font-size="10.00">+ id()</text>
</a>
</g>
</g>
<!-- Node5&#45;&gt;Node4 -->
<g id="edge4" class="edge"><title>Node5&#45;&gt;Node4</title>
<path fill="none" stroke="midnightblue" d="M315.017,-727.311C315.017,-718.958 315.017,-710.033 315.017,-700.974"/>
<polygon fill="none" stroke="midnightblue" points="311.517,-727.553 315.017,-737.553 318.517,-727.553 311.517,-727.553"/>
</g>
<!-- Node6 -->
<g id="node6" class="node"><title>Node6</title>
<g id="a_node6"><a xlink:href="class_hydro_couple_1_1_i_description.html" target="_top" xlink:title="IDescription interface class provides descriptive information on a HydroCouple object. ">
<polygon fill="none" stroke="black" points="232.004,-852.233 232.004,-969.578 398.029,-969.578 398.029,-852.233 232.004,-852.233"/>
<text text-anchor="middle" x="315.017" y="-957.578" font-family="Monaco" font-size="10.00">HydroCouple::IDescription</text>
<polyline fill="none" stroke="black" points="232.004,-948.243 398.029,-948.243 "/>
<text text-anchor="middle" x="315.017" y="-936.243" font-family="Monaco" font-size="10.00"> </text>
<polyline fill="none" stroke="black" points="232.004,-926.908 398.029,-926.908 "/>
<text text-anchor="start" x="240.004" y="-914.908" font-family="Monaco" font-size="10.00">+ ~IDescription()</text>
<text text-anchor="start" x="240.004" y="-901.573" font-family="Monaco" font-size="10.00">+ caption()</text>
<text text-anchor="start" x="240.004" y="-888.238" font-family="Monaco" font-size="10.00">+ setCaption()</text>
<text text-anchor="start" x="240.004" y="-874.903" font-family="Monaco" font-size="10.00">+ description()</text>
<text text-anchor="start" x="240.004" y="-861.568" font-family="Monaco" font-size="10.00">+ setDescription()</text>
</a>
</g>
</g>
<!-- Node6&#45;&gt;Node5 -->
<g id="edge5" class="edge"><title>Node6&#45;&gt;Node5</title>
<path fill="none" stroke="midnightblue" d="M315.017,-841.667C315.017,-832.629 315.017,-823.641 315.017,-815.381"/>
<polygon fill="none" stroke="midnightblue" points="311.517,-841.858 315.017,-851.859 318.517,-841.859 311.517,-841.858"/>
</g>
<!-- Node7 -->
<g id="node7" class="node"><title>Node7</title>
<g id="a_node7"><a xlink:href="class_hydro_couple_1_1_i_property_changed.html" target="_top" xlink:title="IPropertyChanged interface is used to emit signal/event when a property of an object changes...">
<polygon fill="none" stroke="black" points="220.002,-1006.58 220.002,-1070.58 410.031,-1070.58 410.031,-1006.58 220.002,-1006.58"/>
<text text-anchor="middle" x="315.017" y="-1058.58" font-family="Monaco" font-size="10.00">HydroCouple::IPropertyChanged</text>
<polyline fill="none" stroke="black" points="220.002,-1049.25 410.031,-1049.25 "/>
<text text-anchor="middle" x="315.017" y="-1037.25" font-family="Monaco" font-size="10.00"> </text>
<polyline fill="none" stroke="black" points="220.002,-1027.91 410.031,-1027.91 "/>
<text text-anchor="start" x="228.002" y="-1015.91" font-family="Monaco" font-size="10.00">+ ~IPropertyChanged()</text>
</a>
</g>
</g>
<!-- Node7&#45;&gt;Node6 -->
<g id="edge6" class="edge"><title>Node7&#45;&gt;Node6</title>
<path fill="none" stroke="midnightblue" d="M315.017,-996.258C315.017,-987.873 315.017,-978.906 315.017,-970.064"/>
<polygon fill="none" stroke="midnightblue" points="311.517,-996.515 315.017,-1006.51 318.517,-996.515 311.517,-996.515"/>
</g>
<!-- Node8&#45;&gt;Node2 -->
<g id="edge7" class="edge"><title>Node8&#45;&gt;Node2</title>
<path fill="none" stroke="midnightblue" d="M234.388,-328.591C224.424,-318.918 214.171,-308.965 204.03,-299.119"/>
<polygon fill="none" stroke="midnightblue" points="231.973,-331.125 241.586,-335.579 236.849,-326.102 231.973,-331.125"/>
</g>
<!-- Node11 -->
<g id="node11" class="node"><title>Node11</title>
<g id="a_node11"><a xlink:href="class_hydro_couple_1_1_spatial_1_1_i_polyhedral_surface_exchange_item.html" target="_top" xlink:title="An IPolyhedralSurfaceExchangeItem class with an IPolyhedralSurface component. ">
<polygon fill="none" stroke="black" points="404,-168.18 404,-245.52 630.034,-245.52 630.034,-168.18 404,-168.18"/>
<text text-anchor="start" x="412" y="-233.52" font-family="Monaco" font-size="10.00">HydroCouple::Spatial</text>
<text text-anchor="middle" x="517.017" y="-220.185" font-family="Monaco" font-size="10.00">::IPolyhedralSurfaceExchangeItem</text>
<polyline fill="none" stroke="black" points="404,-210.85 630.034,-210.85 "/>
<text text-anchor="middle" x="517.017" y="-198.85" font-family="Monaco" font-size="10.00"> </text>
<polyline fill="none" stroke="black" points="404,-189.515 630.034,-189.515 "/>
<text text-anchor="start" x="412" y="-177.515" font-family="Monaco" font-size="10.00">+ ~IPolyhedralSurfaceExchangeItem()</text>
</a>
</g>
</g>
<!-- Node8&#45;&gt;Node11 -->
<g id="edge15" class="edge"><title>Node8&#45;&gt;Node11</title>
<path fill="none" stroke="midnightblue" d="M394.654,-328.405C423.527,-299.959 454.84,-269.108 478.561,-245.737"/>
<polygon fill="none" stroke="midnightblue" points="392.04,-326.068 387.373,-335.579 396.953,-331.054 392.04,-326.068"/>
</g>
<!-- Node9&#45;&gt;Node1 -->
<g id="edge9" class="edge"><title>Node9&#45;&gt;Node1</title>
<path fill="none" stroke="midnightblue" d="M312.017,-157.686C312.017,-132.314 312.017,-101.647 312.017,-78.0033"/>
<polygon fill="none" stroke="midnightblue" points="308.517,-157.839 312.017,-167.839 315.517,-157.839 308.517,-157.839"/>
</g>
<!-- Node10&#45;&gt;Node9 -->
<g id="edge10" class="edge"><title>Node10&#45;&gt;Node9</title>
<path fill="none" stroke="midnightblue" d="M482.749,-369.6C450.097,-344.637 410.519,-313.794 395.017,-299.359 377.121,-282.697 358.705,-262.728 343.78,-245.701"/>
<polygon fill="none" stroke="midnightblue" points="480.81,-372.523 490.883,-375.807 485.056,-366.958 480.81,-372.523"/>
</g>
<!-- Node10&#45;&gt;Node11 -->
<g id="edge14" class="edge"><title>Node10&#45;&gt;Node11</title>
<path fill="none" stroke="midnightblue" d="M528.888,-365.354C526.234,-330.143 522.458,-280.047 519.882,-245.869"/>
<polygon fill="none" stroke="midnightblue" points="525.431,-366.062 529.673,-375.77 532.411,-365.535 525.431,-366.062"/>
</g>
<!-- Node11&#45;&gt;Node1 -->
<g id="edge13" class="edge"><title>Node11&#45;&gt;Node1</title>
<path fill="none" stroke="midnightblue" d="M462.236,-161.576C430.016,-135.536 389.697,-102.951 358.944,-78.0966"/>
<polygon fill="none" stroke="midnightblue" points="460.265,-164.483 470.242,-168.047 464.665,-159.039 460.265,-164.483"/>
</g>
</g>
</svg>
        <g id="navigator" transform="translate(0 0)" fill="#404254">
                <rect fill="#f2f5e9" fill-opacity="0.5" stroke="#606060" stroke-width=".5" x="0" y="0" width="60" height="60"/>
                <use id="zoomplus" xlink:href="#zoomPlus" x="17" y="9" onmousedown="handleZoom(evt,'in')"/>
                <use id="zoomminus" xlink:href="#zoomMin" x="42" y="9" onmousedown="handleZoom(evt,'out')"/>
                <use id="reset" xlink:href="#resetDef" x="30" y="36" onmousedown="handleReset()"/>
                <g id="arrowUp" xlink:href="#dirArrow" transform="translate(30 24)" onmousedown="handlePan(0,-1)">
                  <use xlink:href="#rim" fill="#404040">
                        <set attributeName="fill" to="#808080" begin="arrowUp.mouseover" end="arrowUp.mouseout"/>
                  </use>
                  <path fill="none" stroke="white" stroke-width="1.5" d="M0,-3.0v7 M-2.5,-0.5L0,-3.0L2.5,-0.5"/>
                </g>
                <g id="arrowRight" xlink:href="#dirArrow" transform="rotate(90) translate(36 -43)" onmousedown="handlePan(1,0)">
                  <use xlink:href="#rim" fill="#404040">
                        <set attributeName="fill" to="#808080" begin="arrowRight.mouseover" end="arrowRight.mouseout"/>
                  </use>
                  <path fill="none" stroke="white" stroke-width="1.5" d="M0,-3.0v7 M-2.5,-0.5L0,-3.0L2.5,-0.5"/>
                </g>
                <g id="arrowDown" xlink:href="#dirArrow" transform="rotate(180) translate(-30 -48)" onmousedown="handlePan(0,1)">
                  <use xlink:href="#rim" fill="#404040">
                        <set attributeName="fill" to="#808080" begin="arrowDown.mouseover" end="arrowDown.mouseout"/>
                  </use>
                  <path fill="none" stroke="white" stroke-width="1.5" d="M0,-3.0v7 M-2.5,-0.5L0,-3.0L2.5,-0.5"/>
                </g>
                <g id="arrowLeft" xlink:href="#dirArrow" transform="rotate(270) translate(-36 17)" onmousedown="handlePan(-1,0)">
                  <use xlink:href="#rim" fill="#404040">
                        <set attributeName="fill" to="#808080" begin="arrowLeft.mouseover" end="arrowLeft.mouseout"/>
                  </use>
                  <path fill="none" stroke="white" stroke-width="1.5" d="M0,-3.0v7 M-2.5,-0.5L0,-3.0L2.5,-0.5"/>
                </g>
        </g>
        <svg viewBox="0 0 15 15" width="100%" height="30px" preserveAspectRatio="xMaxYMin meet">
         <g id="arrow_out" transform="scale(0.3 0.3)">
          <a xlink:href="class_hydro_couple_1_1_spatio_temporal_1_1_i_time_polyhedral_surface_exchange_item__coll__graph_org.svg" target="_base">
           <rect id="button" ry="5" rx="5" y="6" x="6" height="38" width="38"
                fill="#f2f5e9" fill-opacity="0.5" stroke="#606060" stroke-width="1.0"/>
           <path id="arrow"
             d="M 11.500037,31.436501 C 11.940474,20.09759 22.043105,11.32322 32.158766,21.979434 L 37.068811,17.246167 C 37.068811,17.246167 37.088388,32 37.088388,32 L 22.160133,31.978069 C 22.160133,31.978069 26.997745,27.140456 26.997745,27.140456 C 18.528582,18.264221 13.291696,25.230495 11.500037,31.436501 z"
             style="fill:#404040;"/>
          </a>
         </g>
        </svg>
</svg>
