<?xml version="1.0" encoding="UTF-8" standalone="no"?>
<!DOCTYPE svg PUBLIC "-//W3C//DTD SVG 1.1//EN"
 "http://www.w3.org/Graphics/SVG/1.1/DTD/svg11.dtd">
<!-- Generated by graphviz version 2.38.0 (20140413.2041)
 -->
<!-- Title: HydroCouple::SpatioTemporal::ITimeRegularGrid3DArgument::~ITimeRegularGrid3DArgument Pages: 1 -->
<svg width="376pt" height="57pt"
 viewBox="0.00 0.00 376.05 57.00" xmlns="http://www.w3.org/2000/svg" xmlns:xlink="http://www.w3.org/1999/xlink">
<g id="graph0" class="graph" transform="scale(1 1) rotate(0) translate(4 53.0049)">
<title>HydroCouple::SpatioTemporal::ITimeRegularGrid3DArgument::~ITimeRegularGrid3DArgument</title>
<polygon fill="white" stroke="none" points="-4,4 -4,-53.0049 372.049,-53.0049 372.049,4 -4,4"/>
<!-- Node1 -->
<g id="node1" class="node"><title>Node1</title>
<polygon fill="#bfbfbf" stroke="black" points="0,-0.5 0,-48.5049 190.028,-48.5049 190.028,-0.5 0,-0.5"/>
<text text-anchor="start" x="8" y="-36.5049" font-family="Monaco" font-size="10.00">HydroCouple::SpatioTemporal</text>
<text text-anchor="start" x="8" y="-23.1699" font-family="Monaco" font-size="10.00">::ITimeRegularGrid3DArgument</text>
<text text-anchor="middle" x="95.0142" y="-9.83496" font-family="Monaco" font-size="10.00">::~ITimeRegularGrid3DArgument</text>
</g>
<!-- Node2 -->
<g id="node2" class="node"><title>Node2</title>
<g id="a_node2"><a xlink:href="class_hydro_couple_1_1_temporal_1_1_i_time_component_item.html#ae64e3f2a6b5e107624d7aeaf29017373" target="_top" xlink:title="ITimes associated with this dimension. ">
<polygon fill="white" stroke="black" points="226.028,-0.5 226.028,-48.5049 368.049,-48.5049 368.049,-0.5 226.028,-0.5"/>
<text text-anchor="start" x="234.028" y="-36.5049" font-family="Monaco" font-size="10.00">HydroCouple::Temporal</text>
<text text-anchor="start" x="234.028" y="-23.1699" font-family="Monaco" font-size="10.00">::ITimeComponentItem</text>
<text text-anchor="middle" x="297.039" y="-9.83496" font-family="Monaco" font-size="10.00">::times</text>
</a>
</g>
</g>
<!-- Node1&#45;&gt;Node2 -->
<g id="edge1" class="edge"><title>Node1&#45;&gt;Node2</title>
<path fill="none" stroke="midnightblue" d="M190.169,-24.5024C198.742,-24.5024 207.372,-24.5024 215.807,-24.5024"/>
<polygon fill="midnightblue" stroke="midnightblue" points="215.981,-28.0025 225.981,-24.5024 215.981,-21.0025 215.981,-28.0025"/>
</g>
</g>
</svg>
