<?xml version="1.0" encoding="UTF-8" standalone="no"?>
<!DOCTYPE svg PUBLIC "-//W3C//DTD SVG 1.1//EN"
 "http://www.w3.org/Graphics/SVG/1.1/DTD/svg11.dtd">
<!-- Generated by graphviz version 2.38.0 (20140413.2041)
 -->
<!-- Title: HydroCouple::SpatioTemporal::ITimeRasterComponentItem Pages: 1 -->
<svg width="388pt" height="959pt"
 viewBox="0.00 0.00 388.03 959.07" xmlns="http://www.w3.org/2000/svg" xmlns:xlink="http://www.w3.org/1999/xlink">
<g id="graph0" class="graph" transform="scale(1 1) rotate(0) translate(4 955.068)">
<title>HydroCouple::SpatioTemporal::ITimeRasterComponentItem</title>
<polygon fill="white" stroke="none" points="-4,4 -4,-955.068 384.027,-955.068 384.027,4 -4,4"/>
<!-- Node1 -->
<g id="node1" class="node"><title>Node1</title>
<polygon fill="#bfbfbf" stroke="black" points="92.999,-154.845 92.999,-232.185 283.027,-232.185 283.027,-154.845 92.999,-154.845"/>
<text text-anchor="start" x="100.999" y="-220.185" font-family="Monaco" font-size="10.00">HydroCouple::SpatioTemporal</text>
<text text-anchor="middle" x="188.013" y="-206.85" font-family="Monaco" font-size="10.00">::ITimeRasterComponentItem</text>
<polyline fill="none" stroke="black" points="92.999,-197.515 283.027,-197.515 "/>
<text text-anchor="middle" x="188.013" y="-185.515" font-family="Monaco" font-size="10.00"> </text>
<polyline fill="none" stroke="black" points="92.999,-176.18 283.027,-176.18 "/>
<text text-anchor="start" x="100.999" y="-164.18" font-family="Monaco" font-size="10.00">+ ~ITimeRasterComponentItem()</text>
</g>
<!-- Node8 -->
<g id="node8" class="node"><title>Node8</title>
<g id="a_node8"><a xlink:href="class_hydro_couple_1_1_spatio_temporal_1_1_i_time_raster_argument.html" target="_top" xlink:title="The ITimeRasterArgument class. ">
<polygon fill="white" stroke="black" points="0,-0.5 0,-117.845 178.026,-117.845 178.026,-0.5 0,-0.5"/>
<text text-anchor="start" x="8" y="-105.845" font-family="Monaco" font-size="10.00">HydroCouple::SpatioTemporal</text>
<text text-anchor="middle" x="89.0132" y="-92.5098" font-family="Monaco" font-size="10.00">::ITimeRasterArgument</text>
<polyline fill="none" stroke="black" points="0,-83.1748 178.026,-83.1748 "/>
<text text-anchor="middle" x="89.0132" y="-71.1748" font-family="Monaco" font-size="10.00"> </text>
<polyline fill="none" stroke="black" points="0,-61.8398 178.026,-61.8398 "/>
<text text-anchor="start" x="8" y="-49.8398" font-family="Monaco" font-size="10.00">+ ~ITimeRasterArgument()</text>
<text text-anchor="start" x="8" y="-36.5049" font-family="Monaco" font-size="10.00">+ setTimes()</text>
<text text-anchor="start" x="8" y="-23.1699" font-family="Monaco" font-size="10.00">+ setRaster()</text>
<text text-anchor="start" x="8" y="-9.83496" font-family="Monaco" font-size="10.00">+ timeRasterValueSets()</text>
</a>
</g>
</g>
<!-- Node1&#45;&gt;Node8 -->
<g id="edge8" class="edge"><title>Node1&#45;&gt;Node8</title>
<path fill="none" stroke="midnightblue" d="M153.463,-146.329C146.585,-137.133 139.281,-127.37 132.156,-117.845"/>
<polygon fill="none" stroke="midnightblue" points="150.851,-148.68 159.644,-154.591 156.456,-144.487 150.851,-148.68"/>
</g>
<!-- Node9 -->
<g id="node9" class="node"><title>Node9</title>
<g id="a_node9"><a xlink:href="class_hydro_couple_1_1_spatio_temporal_1_1_i_time_raster_exchange_item.html" target="_top" xlink:title="The ITimeRasterExchangeItem class. ">
<polygon fill="white" stroke="black" points="196,-13.835 196,-104.51 380.027,-104.51 380.027,-13.835 196,-13.835"/>
<text text-anchor="start" x="204" y="-92.5098" font-family="Monaco" font-size="10.00">HydroCouple::SpatioTemporal</text>
<text text-anchor="middle" x="288.013" y="-79.1748" font-family="Monaco" font-size="10.00">::ITimeRasterExchangeItem</text>
<polyline fill="none" stroke="black" points="196,-69.8398 380.027,-69.8398 "/>
<text text-anchor="middle" x="288.013" y="-57.8398" font-family="Monaco" font-size="10.00"> </text>
<polyline fill="none" stroke="black" points="196,-48.5049 380.027,-48.5049 "/>
<text text-anchor="start" x="204" y="-36.5049" font-family="Monaco" font-size="10.00">+ ~ITimeRasterExchangeItem()</text>
<text text-anchor="start" x="204" y="-23.1699" font-family="Monaco" font-size="10.00">+ timeRasterValues()</text>
</a>
</g>
</g>
<!-- Node1&#45;&gt;Node9 -->
<g id="edge9" class="edge"><title>Node1&#45;&gt;Node9</title>
<path fill="none" stroke="midnightblue" d="M222.895,-146.351C233.115,-132.826 244.265,-118.07 254.404,-104.652"/>
<polygon fill="none" stroke="midnightblue" points="219.905,-144.502 216.669,-154.591 225.49,-148.722 219.905,-144.502"/>
</g>
<!-- Node2 -->
<g id="node2" class="node"><title>Node2</title>
<g id="a_node2"><a xlink:href="class_hydro_couple_1_1_temporal_1_1_i_time_component_item.html" target="_top" xlink:title="ITimeComponentItem is an IComponentItem with a temporal attribute. ">
<polygon fill="white" stroke="black" points="22.002,-275.852 22.002,-406.532 176.024,-406.532 176.024,-275.852 22.002,-275.852"/>
<text text-anchor="start" x="30.002" y="-394.532" font-family="Monaco" font-size="10.00">HydroCouple::Temporal</text>
<text text-anchor="middle" x="99.0132" y="-381.197" font-family="Monaco" font-size="10.00">::ITimeComponentItem</text>
<polyline fill="none" stroke="black" points="22.002,-371.862 176.024,-371.862 "/>
<text text-anchor="middle" x="99.0132" y="-359.862" font-family="Monaco" font-size="10.00"> </text>
<polyline fill="none" stroke="black" points="22.002,-350.527 176.024,-350.527 "/>
<text text-anchor="start" x="30.002" y="-338.527" font-family="Monaco" font-size="10.00">+ ~ITimeComponentItem()</text>
<text text-anchor="start" x="30.002" y="-325.192" font-family="Monaco" font-size="10.00">+ timeDimension()</text>
<text text-anchor="start" x="30.002" y="-311.857" font-family="Monaco" font-size="10.00">+ times()</text>
<text text-anchor="start" x="30.002" y="-298.522" font-family="Monaco" font-size="10.00">+ timeSpan()</text>
<text text-anchor="start" x="30.002" y="-285.187" font-family="Monaco" font-size="10.00">+ time()</text>
</a>
</g>
</g>
<!-- Node2&#45;&gt;Node1 -->
<g id="edge1" class="edge"><title>Node2&#45;&gt;Node1</title>
<path fill="none" stroke="midnightblue" d="M143.866,-266.777C151.153,-254.848 158.428,-242.941 164.908,-232.334"/>
<polygon fill="none" stroke="midnightblue" points="140.795,-265.089 138.568,-275.447 146.768,-268.739 140.795,-265.089"/>
</g>
<!-- Node3 -->
<g id="node3" class="node"><title>Node3</title>
<g id="a_node3"><a xlink:href="class_hydro_couple_1_1_i_component_item.html" target="_top" xlink:title="IComponentItem is a fundamental unit of data for a component. ">
<polygon fill="white" stroke="black" points="99,-450.199 99,-554.209 277.026,-554.209 277.026,-450.199 99,-450.199"/>
<text text-anchor="middle" x="188.013" y="-542.209" font-family="Monaco" font-size="10.00">HydroCouple::IComponentItem</text>
<polyline fill="none" stroke="black" points="99,-532.874 277.026,-532.874 "/>
<text text-anchor="middle" x="188.013" y="-520.874" font-family="Monaco" font-size="10.00"> </text>
<polyline fill="none" stroke="black" points="99,-511.539 277.026,-511.539 "/>
<text text-anchor="start" x="107" y="-499.539" font-family="Monaco" font-size="10.00">+ ~IComponentItem()</text>
<text text-anchor="start" x="107" y="-486.204" font-family="Monaco" font-size="10.00">+ modelComponent()</text>
<text text-anchor="start" x="107" y="-472.869" font-family="Monaco" font-size="10.00">+ modelComponentId()</text>
<text text-anchor="start" x="107" y="-459.534" font-family="Monaco" font-size="10.00">+ dimensions()</text>
</a>
</g>
</g>
<!-- Node3&#45;&gt;Node2 -->
<g id="edge2" class="edge"><title>Node3&#45;&gt;Node2</title>
<path fill="none" stroke="midnightblue" d="M154.388,-441.127C148.089,-429.873 141.479,-418.064 135.109,-406.682"/>
<polygon fill="none" stroke="midnightblue" points="151.425,-443 159.363,-450.016 157.533,-439.581 151.425,-443"/>
</g>
<!-- Node7 -->
<g id="node7" class="node"><title>Node7</title>
<g id="a_node7"><a xlink:href="class_hydro_couple_1_1_spatial_1_1_i_raster_component_item.html" target="_top" xlink:title="An IRasterComponentItem represents an IRaster IComponentItem. ">
<polygon fill="white" stroke="black" points="194.001,-269.185 194.001,-413.199 360.025,-413.199 360.025,-269.185 194.001,-269.185"/>
<text text-anchor="start" x="202.001" y="-401.199" font-family="Monaco" font-size="10.00">HydroCouple::Spatial</text>
<text text-anchor="middle" x="277.013" y="-387.864" font-family="Monaco" font-size="10.00">::IRasterComponentItem</text>
<polyline fill="none" stroke="black" points="194.001,-378.529 360.025,-378.529 "/>
<text text-anchor="middle" x="277.013" y="-366.529" font-family="Monaco" font-size="10.00"> </text>
<polyline fill="none" stroke="black" points="194.001,-357.194 360.025,-357.194 "/>
<text text-anchor="start" x="202.001" y="-345.194" font-family="Monaco" font-size="10.00">+ ~IRasterComponentItem()</text>
<text text-anchor="start" x="202.001" y="-331.859" font-family="Monaco" font-size="10.00">+ rasterDimension()</text>
<text text-anchor="start" x="202.001" y="-318.524" font-family="Monaco" font-size="10.00">+ xDimension()</text>
<text text-anchor="start" x="202.001" y="-305.189" font-family="Monaco" font-size="10.00">+ yDimension()</text>
<text text-anchor="start" x="202.001" y="-291.854" font-family="Monaco" font-size="10.00">+ bandDimension()</text>
<text text-anchor="start" x="202.001" y="-278.52" font-family="Monaco" font-size="10.00">+ raster()</text>
</a>
</g>
</g>
<!-- Node3&#45;&gt;Node7 -->
<g id="edge7" class="edge"><title>Node3&#45;&gt;Node7</title>
<path fill="none" stroke="midnightblue" d="M221.668,-441.075C226.75,-431.994 232.034,-422.555 237.23,-413.27"/>
<polygon fill="none" stroke="midnightblue" points="218.493,-439.581 216.663,-450.016 224.602,-443 218.493,-439.581"/>
</g>
<!-- Node4 -->
<g id="node4" class="node"><title>Node4</title>
<g id="a_node4"><a xlink:href="class_hydro_couple_1_1_i_identity.html" target="_top" xlink:title="IIdentity interface class defines a method to get the Id of an HydroCouple entity. ">
<polygon fill="white" stroke="black" points="114.002,-591.209 114.002,-695.219 262.024,-695.219 262.024,-591.209 114.002,-591.209"/>
<text text-anchor="middle" x="188.013" y="-683.219" font-family="Monaco" font-size="10.00">HydroCouple::IIdentity</text>
<polyline fill="none" stroke="black" points="114.002,-673.884 262.024,-673.884 "/>
<text text-anchor="middle" x="188.013" y="-661.884" font-family="Monaco" font-size="10.00"> </text>
<polyline fill="none" stroke="black" points="114.002,-652.549 262.024,-652.549 "/>
<text text-anchor="start" x="122.002" y="-640.549" font-family="Monaco" font-size="10.00">+ ~IIdentity()</text>
<text text-anchor="start" x="122.002" y="-627.214" font-family="Monaco" font-size="10.00">+ MPI_Comm()</text>
<text text-anchor="start" x="122.002" y="-613.879" font-family="Monaco" font-size="10.00">+ MPI_Rank()</text>
<text text-anchor="start" x="122.002" y="-600.544" font-family="Monaco" font-size="10.00">+ id()</text>
</a>
</g>
</g>
<!-- Node4&#45;&gt;Node3 -->
<g id="edge3" class="edge"><title>Node4&#45;&gt;Node3</title>
<path fill="none" stroke="midnightblue" d="M188.013,-580.65C188.013,-571.868 188.013,-562.914 188.013,-554.36"/>
<polygon fill="none" stroke="midnightblue" points="184.513,-580.847 188.013,-590.847 191.513,-580.847 184.513,-580.847"/>
</g>
<!-- Node5 -->
<g id="node5" class="node"><title>Node5</title>
<g id="a_node5"><a xlink:href="class_hydro_couple_1_1_i_description.html" target="_top" xlink:title="IDescription interface class provides descriptive information on a HydroCouple object. ">
<polygon fill="white" stroke="black" points="105.001,-732.219 105.001,-849.563 271.025,-849.563 271.025,-732.219 105.001,-732.219"/>
<text text-anchor="middle" x="188.013" y="-837.563" font-family="Monaco" font-size="10.00">HydroCouple::IDescription</text>
<polyline fill="none" stroke="black" points="105.001,-828.229 271.025,-828.229 "/>
<text text-anchor="middle" x="188.013" y="-816.229" font-family="Monaco" font-size="10.00"> </text>
<polyline fill="none" stroke="black" points="105.001,-806.894 271.025,-806.894 "/>
<text text-anchor="start" x="113.001" y="-794.894" font-family="Monaco" font-size="10.00">+ ~IDescription()</text>
<text text-anchor="start" x="113.001" y="-781.559" font-family="Monaco" font-size="10.00">+ getCaption()</text>
<text text-anchor="start" x="113.001" y="-768.224" font-family="Monaco" font-size="10.00">+ setCaption()</text>
<text text-anchor="start" x="113.001" y="-754.889" font-family="Monaco" font-size="10.00">+ getDescription()</text>
<text text-anchor="start" x="113.001" y="-741.554" font-family="Monaco" font-size="10.00">+ setDescription()</text>
</a>
</g>
</g>
<!-- Node5&#45;&gt;Node4 -->
<g id="edge4" class="edge"><title>Node5&#45;&gt;Node4</title>
<path fill="none" stroke="midnightblue" d="M188.013,-721.618C188.013,-712.799 188.013,-703.892 188.013,-695.414"/>
<polygon fill="none" stroke="midnightblue" points="184.513,-721.897 188.013,-731.897 191.513,-721.897 184.513,-721.897"/>
</g>
<!-- Node6 -->
<g id="node6" class="node"><title>Node6</title>
<g id="a_node6"><a xlink:href="class_hydro_couple_1_1_i_property_changed.html" target="_top" xlink:title="IPropertyChanged interface is used to emit signal/event when a property of an object changes...">
<polygon fill="white" stroke="black" points="92.999,-886.563 92.999,-950.568 283.027,-950.568 283.027,-886.563 92.999,-886.563"/>
<text text-anchor="middle" x="188.013" y="-938.568" font-family="Monaco" font-size="10.00">HydroCouple::IPropertyChanged</text>
<polyline fill="none" stroke="black" points="92.999,-929.233 283.027,-929.233 "/>
<text text-anchor="middle" x="188.013" y="-917.233" font-family="Monaco" font-size="10.00"> </text>
<polyline fill="none" stroke="black" points="92.999,-907.898 283.027,-907.898 "/>
<text text-anchor="start" x="100.999" y="-895.898" font-family="Monaco" font-size="10.00">+ ~IPropertyChanged()</text>
</a>
</g>
</g>
<!-- Node6&#45;&gt;Node5 -->
<g id="edge5" class="edge"><title>Node6&#45;&gt;Node5</title>
<path fill="none" stroke="midnightblue" d="M188.013,-876.243C188.013,-867.858 188.013,-858.892 188.013,-850.049"/>
<polygon fill="none" stroke="midnightblue" points="184.513,-876.5 188.013,-886.5 191.513,-876.5 184.513,-876.5"/>
</g>
<!-- Node7&#45;&gt;Node1 -->
<g id="edge6" class="edge"><title>Node7&#45;&gt;Node1</title>
<path fill="none" stroke="midnightblue" d="M228.282,-260.428C222.298,-250.633 216.417,-241.007 211.078,-232.267"/>
<polygon fill="none" stroke="midnightblue" points="225.356,-262.352 233.556,-269.06 231.329,-258.702 225.356,-262.352"/>
</g>
</g>
</svg>
