<?xml version="1.0" encoding="UTF-8" standalone="no"?>
<!DOCTYPE svg PUBLIC "-//W3C//DTD SVG 1.1//EN"
 "http://www.w3.org/Graphics/SVG/1.1/DTD/svg11.dtd">
<!-- Generated by graphviz version 2.38.0 (20140413.2041)
 -->
<!-- Title: HydroCouple::Spatial::IPolyhedralSurfaceOnlyComponentDataItem Pages: 1 -->
<svg width="234pt" height="965pt"
 viewBox="0.00 0.00 234.03 964.74" xmlns="http://www.w3.org/2000/svg" xmlns:xlink="http://www.w3.org/1999/xlink">
<g id="graph0" class="graph" transform="scale(1 1) rotate(0) translate(4 960.743)">
<title>HydroCouple::Spatial::IPolyhedralSurfaceOnlyComponentDataItem</title>
<!-- Node1 -->
<g id="node1" class="node"><title>Node1</title>
<polygon fill="#bfbfbf" stroke="black" points="3.00049,-0.5 3.00049,-184.52 223.034,-184.52 223.034,-0.5 3.00049,-0.5"/>
<text text-anchor="start" x="11.0005" y="-172.52" font-family="Monaco" font-size="10.00">HydroCouple::Spatial</text>
<text text-anchor="start" x="11.0005" y="-159.185" font-family="Monaco" font-size="10.00">::IPolyhedralSurfaceOnlyComponent</text>
<text text-anchor="middle" x="113.017" y="-145.85" font-family="Monaco" font-size="10.00">DataItem</text>
<polyline fill="none" stroke="black" points="3.00049,-136.515 223.034,-136.515 "/>
<text text-anchor="middle" x="113.017" y="-124.515" font-family="Monaco" font-size="10.00"> </text>
<polyline fill="none" stroke="black" points="3.00049,-115.18 223.034,-115.18 "/>
<text text-anchor="start" x="11.0005" y="-103.18" font-family="Monaco" font-size="10.00">+ ~IPolyhedralSurfaceOnlyComponent</text>
<text text-anchor="start" x="11.0005" y="-89.8447" font-family="Monaco" font-size="10.00">DataItem()</text>
<text text-anchor="start" x="11.0005" y="-76.5098" font-family="Monaco" font-size="10.00">+ getValue()</text>
<text text-anchor="start" x="11.0005" y="-63.1748" font-family="Monaco" font-size="10.00">+ getValues()</text>
<text text-anchor="start" x="11.0005" y="-49.8398" font-family="Monaco" font-size="10.00">+ getValues()</text>
<text text-anchor="start" x="11.0005" y="-36.5049" font-family="Monaco" font-size="10.00">+ setValue()</text>
<text text-anchor="start" x="11.0005" y="-23.1699" font-family="Monaco" font-size="10.00">+ setValues()</text>
<text text-anchor="start" x="11.0005" y="-9.83496" font-family="Monaco" font-size="10.00">+ setValues()</text>
</g>
<!-- Node2 -->
<g id="node2" class="node"><title>Node2</title>
<g id="a_node2"><a xlink:href="class_hydro_couple_1_1_spatial_1_1_i_polyhedral_surface_component_data_item.html" target="_top" xlink:title="IPolyhedralSurfaceComponentItem represents IPolyhedralSurface IComponentItem. ">
<polygon fill="none" stroke="black" points="0,-221.52 0,-365.534 226.034,-365.534 226.034,-221.52 0,-221.52"/>
<text text-anchor="start" x="8" y="-353.534" font-family="Monaco" font-size="10.00">HydroCouple::Spatial</text>
<text text-anchor="start" x="8" y="-340.199" font-family="Monaco" font-size="10.00">::IPolyhedralSurfaceComponent</text>
<text text-anchor="middle" x="113.017" y="-326.864" font-family="Monaco" font-size="10.00">DataItem</text>
<polyline fill="none" stroke="black" points="0,-317.529 226.034,-317.529 "/>
<text text-anchor="middle" x="113.017" y="-305.529" font-family="Monaco" font-size="10.00"> </text>
<polyline fill="none" stroke="black" points="0,-296.194 226.034,-296.194 "/>
<text text-anchor="start" x="8" y="-284.194" font-family="Monaco" font-size="10.00">+ ~IPolyhedralSurfaceComponent</text>
<text text-anchor="start" x="8" y="-270.859" font-family="Monaco" font-size="10.00">DataItem()</text>
<text text-anchor="start" x="8" y="-257.524" font-family="Monaco" font-size="10.00">+ polyhedralSurface()</text>
<text text-anchor="start" x="8" y="-244.189" font-family="Monaco" font-size="10.00">+ polygon()</text>
<text text-anchor="start" x="8" y="-230.854" font-family="Monaco" font-size="10.00">+ polyhedralSurfacePatchDimension()</text>
</a>
</g>
</g>
<!-- Node2&#45;&gt;Node1 -->
<g id="edge1" class="edge"><title>Node2&#45;&gt;Node1</title>
<path fill="none" stroke="midnightblue" d="M113.017,-211.143C113.017,-202.454 113.017,-193.573 113.017,-184.78"/>
<polygon fill="none" stroke="midnightblue" points="109.517,-211.239 113.017,-221.239 116.517,-211.239 109.517,-211.239"/>
</g>
<!-- Node3 -->
<g id="node3" class="node"><title>Node3</title>
<g id="a_node3"><a xlink:href="class_hydro_couple_1_1_i_component_data_item.html" target="_top" xlink:title="IComponentItem is a fundamental unit of data for a component. ">
<polygon fill="none" stroke="black" points="12.002,-402.534 12.002,-586.554 214.032,-586.554 214.032,-402.534 12.002,-402.534"/>
<text text-anchor="middle" x="113.017" y="-574.554" font-family="Monaco" font-size="10.00">HydroCouple::IComponentDataItem</text>
<polyline fill="none" stroke="black" points="12.002,-565.219 214.032,-565.219 "/>
<text text-anchor="middle" x="113.017" y="-553.219" font-family="Monaco" font-size="10.00"> </text>
<polyline fill="none" stroke="black" points="12.002,-543.884 214.032,-543.884 "/>
<text text-anchor="start" x="20.002" y="-531.884" font-family="Monaco" font-size="10.00">+ ~IComponentDataItem()</text>
<text text-anchor="start" x="20.002" y="-518.549" font-family="Monaco" font-size="10.00">+ modelComponent()</text>
<text text-anchor="start" x="20.002" y="-505.214" font-family="Monaco" font-size="10.00">+ dimensions()</text>
<text text-anchor="start" x="20.002" y="-491.879" font-family="Monaco" font-size="10.00">+ valueDefinition()</text>
<text text-anchor="start" x="20.002" y="-478.544" font-family="Monaco" font-size="10.00">+ getValue()</text>
<text text-anchor="start" x="20.002" y="-465.209" font-family="Monaco" font-size="10.00">+ getValues()</text>
<text text-anchor="start" x="20.002" y="-451.874" font-family="Monaco" font-size="10.00">+ getValues()</text>
<text text-anchor="start" x="20.002" y="-438.539" font-family="Monaco" font-size="10.00">+ setValue()</text>
<text text-anchor="start" x="20.002" y="-425.204" font-family="Monaco" font-size="10.00">+ setValues()</text>
<text text-anchor="start" x="20.002" y="-411.869" font-family="Monaco" font-size="10.00">+ setValues()</text>
</a>
</g>
</g>
<!-- Node3&#45;&gt;Node2 -->
<g id="edge2" class="edge"><title>Node3&#45;&gt;Node2</title>
<path fill="none" stroke="midnightblue" d="M113.017,-392.298C113.017,-383.272 113.017,-374.265 113.017,-365.575"/>
<polygon fill="none" stroke="midnightblue" points="109.517,-392.481 113.017,-402.481 116.517,-392.481 109.517,-392.481"/>
</g>
<!-- Node4 -->
<g id="node4" class="node"><title>Node4</title>
<g id="a_node4"><a xlink:href="class_hydro_couple_1_1_i_identity.html" target="_top" xlink:title="IIdentity interface class defines a method to get the Id of an HydroCouple entity. ">
<polygon fill="none" stroke="black" points="39.0063,-623.554 39.0063,-700.894 187.028,-700.894 187.028,-623.554 39.0063,-623.554"/>
<text text-anchor="middle" x="113.017" y="-688.894" font-family="Monaco" font-size="10.00">HydroCouple::IIdentity</text>
<polyline fill="none" stroke="black" points="39.0063,-679.559 187.028,-679.559 "/>
<text text-anchor="middle" x="113.017" y="-667.559" font-family="Monaco" font-size="10.00"> </text>
<polyline fill="none" stroke="black" points="39.0063,-658.224 187.028,-658.224 "/>
<text text-anchor="start" x="47.0063" y="-646.224" font-family="Monaco" font-size="10.00">+ ~IIdentity()</text>
<text text-anchor="start" x="47.0063" y="-632.889" font-family="Monaco" font-size="10.00">+ id()</text>
</a>
</g>
</g>
<!-- Node4&#45;&gt;Node3 -->
<g id="edge3" class="edge"><title>Node4&#45;&gt;Node3</title>
<path fill="none" stroke="midnightblue" d="M113.017,-612.971C113.017,-604.618 113.017,-595.693 113.017,-586.635"/>
<polygon fill="none" stroke="midnightblue" points="109.517,-613.213 113.017,-623.213 116.517,-613.213 109.517,-613.213"/>
</g>
<!-- Node5 -->
<g id="node5" class="node"><title>Node5</title>
<g id="a_node5"><a xlink:href="class_hydro_couple_1_1_i_description.html" target="_top" xlink:title="IDescription interface class provides descriptive information on a HydroCouple object. ">
<polygon fill="none" stroke="black" points="30.0049,-737.894 30.0049,-855.238 196.029,-855.238 196.029,-737.894 30.0049,-737.894"/>
<text text-anchor="middle" x="113.017" y="-843.238" font-family="Monaco" font-size="10.00">HydroCouple::IDescription</text>
<polyline fill="none" stroke="black" points="30.0049,-833.903 196.029,-833.903 "/>
<text text-anchor="middle" x="113.017" y="-821.903" font-family="Monaco" font-size="10.00"> </text>
<polyline fill="none" stroke="black" points="30.0049,-812.568 196.029,-812.568 "/>
<text text-anchor="start" x="38.0049" y="-800.568" font-family="Monaco" font-size="10.00">+ ~IDescription()</text>
<text text-anchor="start" x="38.0049" y="-787.233" font-family="Monaco" font-size="10.00">+ caption()</text>
<text text-anchor="start" x="38.0049" y="-773.898" font-family="Monaco" font-size="10.00">+ setCaption()</text>
<text text-anchor="start" x="38.0049" y="-760.563" font-family="Monaco" font-size="10.00">+ description()</text>
<text text-anchor="start" x="38.0049" y="-747.229" font-family="Monaco" font-size="10.00">+ setDescription()</text>
</a>
</g>
</g>
<!-- Node5&#45;&gt;Node4 -->
<g id="edge4" class="edge"><title>Node5&#45;&gt;Node4</title>
<path fill="none" stroke="midnightblue" d="M113.017,-727.328C113.017,-718.289 113.017,-709.301 113.017,-701.041"/>
<polygon fill="none" stroke="midnightblue" points="109.517,-727.519 113.017,-737.519 116.517,-727.519 109.517,-727.519"/>
</g>
<!-- Node6 -->
<g id="node6" class="node"><title>Node6</title>
<g id="a_node6"><a xlink:href="class_hydro_couple_1_1_i_property_changed.html" target="_top" xlink:title="IPropertyChanged interface is used to emit signal/event when a property of an object changes...">
<polygon fill="none" stroke="black" points="18.0029,-892.238 18.0029,-956.243 208.031,-956.243 208.031,-892.238 18.0029,-892.238"/>
<text text-anchor="middle" x="113.017" y="-944.243" font-family="Monaco" font-size="10.00">HydroCouple::IPropertyChanged</text>
<polyline fill="none" stroke="black" points="18.0029,-934.908 208.031,-934.908 "/>
<text text-anchor="middle" x="113.017" y="-922.908" font-family="Monaco" font-size="10.00"> </text>
<polyline fill="none" stroke="black" points="18.0029,-913.573 208.031,-913.573 "/>
<text text-anchor="start" x="26.0029" y="-901.573" font-family="Monaco" font-size="10.00">+ ~IPropertyChanged()</text>
</a>
</g>
</g>
<!-- Node6&#45;&gt;Node5 -->
<g id="edge5" class="edge"><title>Node6&#45;&gt;Node5</title>
<path fill="none" stroke="midnightblue" d="M113.017,-881.918C113.017,-873.533 113.017,-864.566 113.017,-855.724"/>
<polygon fill="none" stroke="midnightblue" points="109.517,-882.175 113.017,-892.175 116.517,-882.175 109.517,-882.175"/>
</g>
</g>
</svg>
