<?xml version="1.0" encoding="UTF-8" standalone="no"?>
<!DOCTYPE svg PUBLIC "-//W3C//DTD SVG 1.1//EN"
 "http://www.w3.org/Graphics/SVG/1.1/DTD/svg11.dtd">
<!-- Generated by graphviz version 2.38.0 (20140413.2041)
 -->
<!-- Title: HydroCouple::SpatioTemporal::ITimeRasterComponentDataItem Pages: 1 -->
<!--zoomable 1039 -->
<svg id="main" version="1.1" xmlns="http://www.w3.org/2000/svg" xmlns:xlink="http://www.w3.org/1999/xlink" xml:space="preserve" onload="init(evt)">
<style type="text/css"><![CDATA[
.edge:hover path { stroke: red; }
.edge:hover polygon { stroke: red; fill: red; }
]]></style>
<script type="text/javascript"><![CDATA[
var edges = document.getElementsByTagName('g');
if (edges && edges.length) {
  for (var i=0;i<edges.length;i++) {
    if (edges[i].id.substr(0,4)=='edge') {
      edges[i].setAttribute('class','edge');
    }
  }
}
]]></script>
        <defs>
                <circle id="rim" cx="0" cy="0" r="7"/>
                <circle id="rim2" cx="0" cy="0" r="3.5"/>
                <g id="zoomPlus">
                        <use xlink:href="#rim" fill="#404040">
                                <set attributeName="fill" to="#808080" begin="zoomplus.mouseover" end="zoomplus.mouseout"/>
                        </use>
                        <path d="M-4,0h8M0,-4v8" fill="none" stroke="white" stroke-width="1.5" pointer-events="none"/>
                </g>
                <g id="zoomMin">
                        <use xlink:href="#rim" fill="#404040">
                                <set attributeName="fill" to="#808080" begin="zoomminus.mouseover" end="zoomminus.mouseout"/>
                        </use>
                        <path d="M-4,0h8" fill="none" stroke="white" stroke-width="1.5" pointer-events="none"/>
                </g>
                <g id="dirArrow">
                        <path fill="none" stroke="white" stroke-width="1.5" d="M0,-3.0v7 M-2.5,-0.5L0,-3.0L2.5,-0.5"/>
                </g>
               <g id="resetDef">
                       <use xlink:href="#rim2" fill="#404040">
                               <set attributeName="fill" to="#808080" begin="reset.mouseover" end="reset.mouseout"/>
                       </use>
               </g>
        </defs>

<script type="text/javascript">
var viewWidth = 394;
var viewHeight = 1039;
var sectionId = 'dynsection-0';
</script>
<script xlink:href="svgpan.js"/>
<svg id="graph" class="graph">
<g id="viewport">
<title>HydroCouple::SpatioTemporal::ITimeRasterComponentDataItem</title>
<!-- Node1 -->
<g id="node1" class="node"><title>Node1</title>
<polygon fill="#bfbfbf" stroke="black" points="82.9971,-114.84 82.9971,-272.189 297.029,-272.189 297.029,-114.84 82.9971,-114.84"/>
<text text-anchor="start" x="90.9971" y="-260.189" font-family="Monaco" font-size="10.00">HydroCouple::SpatioTemporal</text>
<text text-anchor="middle" x="190.013" y="-246.854" font-family="Monaco" font-size="10.00">::ITimeRasterComponentDataItem</text>
<polyline fill="none" stroke="black" points="82.9971,-237.52 297.029,-237.52 "/>
<text text-anchor="middle" x="190.013" y="-225.52" font-family="Monaco" font-size="10.00"> </text>
<polyline fill="none" stroke="black" points="82.9971,-216.185 297.029,-216.185 "/>
<text text-anchor="start" x="90.9971" y="-204.185" font-family="Monaco" font-size="10.00">+ ~ITimeRasterComponentDataItem()</text>
<text text-anchor="start" x="90.9971" y="-190.85" font-family="Monaco" font-size="10.00">+ getValue()</text>
<text text-anchor="start" x="90.9971" y="-177.515" font-family="Monaco" font-size="10.00">+ getValues()</text>
<text text-anchor="start" x="90.9971" y="-164.18" font-family="Monaco" font-size="10.00">+ getValues()</text>
<text text-anchor="start" x="90.9971" y="-150.845" font-family="Monaco" font-size="10.00">+ setValue()</text>
<text text-anchor="start" x="90.9971" y="-137.51" font-family="Monaco" font-size="10.00">+ setValues()</text>
<text text-anchor="start" x="90.9971" y="-124.175" font-family="Monaco" font-size="10.00">+ setValues()</text>
</g>
<!-- Node8 -->
<g id="node8" class="node"><title>Node8</title>
<g id="a_node8"><a xlink:href="class_hydro_couple_1_1_spatio_temporal_1_1_i_time_raster_argument.html" target="_top" xlink:title="The ITimeRasterArgument class. ">
<polygon fill="none" stroke="black" points="2,-0.5 2,-77.8398 180.026,-77.8398 180.026,-0.5 2,-0.5"/>
<text text-anchor="start" x="10" y="-65.8398" font-family="Monaco" font-size="10.00">HydroCouple::SpatioTemporal</text>
<text text-anchor="middle" x="91.0132" y="-52.5049" font-family="Monaco" font-size="10.00">::ITimeRasterArgument</text>
<polyline fill="none" stroke="black" points="2,-43.1699 180.026,-43.1699 "/>
<text text-anchor="middle" x="91.0132" y="-31.1699" font-family="Monaco" font-size="10.00"> </text>
<polyline fill="none" stroke="black" points="2,-21.835 180.026,-21.835 "/>
<text text-anchor="start" x="10" y="-9.83496" font-family="Monaco" font-size="10.00">+ ~ITimeRasterArgument()</text>
</a>
</g>
</g>
<!-- Node1&#45;&gt;Node8 -->
<g id="edge8" class="edge"><title>Node1&#45;&gt;Node8</title>
<path fill="none" stroke="midnightblue" d="M133.744,-105.926C127.394,-96.154 121.195,-86.615 115.577,-77.9688"/>
<polygon fill="none" stroke="midnightblue" points="130.969,-108.079 139.353,-114.557 136.839,-104.265 130.969,-108.079"/>
</g>
<!-- Node9 -->
<g id="node9" class="node"><title>Node9</title>
<g id="a_node9"><a xlink:href="class_hydro_couple_1_1_spatio_temporal_1_1_i_time_raster_exchange_item.html" target="_top" xlink:title="The ITimeRasterExchangeItem class. ">
<polygon fill="none" stroke="black" points="198,-0.5 198,-77.8398 382.027,-77.8398 382.027,-0.5 198,-0.5"/>
<text text-anchor="start" x="206" y="-65.8398" font-family="Monaco" font-size="10.00">HydroCouple::SpatioTemporal</text>
<text text-anchor="middle" x="290.013" y="-52.5049" font-family="Monaco" font-size="10.00">::ITimeRasterExchangeItem</text>
<polyline fill="none" stroke="black" points="198,-43.1699 382.027,-43.1699 "/>
<text text-anchor="middle" x="290.013" y="-31.1699" font-family="Monaco" font-size="10.00"> </text>
<polyline fill="none" stroke="black" points="198,-21.835 382.027,-21.835 "/>
<text text-anchor="start" x="206" y="-9.83496" font-family="Monaco" font-size="10.00">+ ~ITimeRasterExchangeItem()</text>
</a>
</g>
</g>
<!-- Node1&#45;&gt;Node9 -->
<g id="edge9" class="edge"><title>Node1&#45;&gt;Node9</title>
<path fill="none" stroke="midnightblue" d="M246.85,-105.926C253.265,-96.154 259.526,-86.615 265.202,-77.9688"/>
<polygon fill="none" stroke="midnightblue" points="243.747,-104.277 241.185,-114.557 249.598,-108.118 243.747,-104.277"/>
</g>
<!-- Node2 -->
<g id="node2" class="node"><title>Node2</title>
<g id="a_node2"><a xlink:href="class_hydro_couple_1_1_temporal_1_1_i_time_component_data_item.html" target="_top" xlink:title="ITimeComponentItem is an IComponentItem with a temporal attribute. This class cannot be directly inst...">
<polygon fill="none" stroke="black" points="0,-315.857 0,-433.202 178.026,-433.202 178.026,-315.857 0,-315.857"/>
<text text-anchor="start" x="8" y="-421.202" font-family="Monaco" font-size="10.00">HydroCouple::Temporal</text>
<text text-anchor="middle" x="89.0132" y="-407.867" font-family="Monaco" font-size="10.00">::ITimeComponentDataItem</text>
<polyline fill="none" stroke="black" points="0,-398.532 178.026,-398.532 "/>
<text text-anchor="middle" x="89.0132" y="-386.532" font-family="Monaco" font-size="10.00"> </text>
<polyline fill="none" stroke="black" points="0,-377.197 178.026,-377.197 "/>
<text text-anchor="start" x="8" y="-365.197" font-family="Monaco" font-size="10.00">+ ~ITimeComponentDataItem()</text>
<text text-anchor="start" x="8" y="-351.862" font-family="Monaco" font-size="10.00">+ times()</text>
<text text-anchor="start" x="8" y="-338.527" font-family="Monaco" font-size="10.00">+ timeSpan()</text>
<text text-anchor="start" x="8" y="-325.192" font-family="Monaco" font-size="10.00">+ timeDimension()</text>
</a>
</g>
</g>
<!-- Node2&#45;&gt;Node1 -->
<g id="edge1" class="edge"><title>Node2&#45;&gt;Node1</title>
<path fill="none" stroke="midnightblue" d="M126.803,-306.55C133.122,-295.351 139.724,-283.648 146.178,-272.208"/>
<polygon fill="none" stroke="midnightblue" points="123.671,-304.979 121.805,-315.408 129.767,-308.419 123.671,-304.979"/>
</g>
<!-- Node3 -->
<g id="node3" class="node"><title>Node3</title>
<g id="a_node3"><a xlink:href="class_hydro_couple_1_1_i_component_data_item.html" target="_top" xlink:title="IComponentItem is a fundamental unit of data for a component. ">
<polygon fill="none" stroke="black" points="88.998,-476.869 88.998,-660.889 291.028,-660.889 291.028,-476.869 88.998,-476.869"/>
<text text-anchor="middle" x="190.013" y="-648.889" font-family="Monaco" font-size="10.00">HydroCouple::IComponentDataItem</text>
<polyline fill="none" stroke="black" points="88.998,-639.554 291.028,-639.554 "/>
<text text-anchor="middle" x="190.013" y="-627.554" font-family="Monaco" font-size="10.00"> </text>
<polyline fill="none" stroke="black" points="88.998,-618.219 291.028,-618.219 "/>
<text text-anchor="start" x="96.998" y="-606.219" font-family="Monaco" font-size="10.00">+ ~IComponentDataItem()</text>
<text text-anchor="start" x="96.998" y="-592.884" font-family="Monaco" font-size="10.00">+ modelComponent()</text>
<text text-anchor="start" x="96.998" y="-579.549" font-family="Monaco" font-size="10.00">+ dimensions()</text>
<text text-anchor="start" x="96.998" y="-566.214" font-family="Monaco" font-size="10.00">+ valueDefinition()</text>
<text text-anchor="start" x="96.998" y="-552.879" font-family="Monaco" font-size="10.00">+ getValue()</text>
<text text-anchor="start" x="96.998" y="-539.544" font-family="Monaco" font-size="10.00">+ getValues()</text>
<text text-anchor="start" x="96.998" y="-526.209" font-family="Monaco" font-size="10.00">+ getValues()</text>
<text text-anchor="start" x="96.998" y="-512.874" font-family="Monaco" font-size="10.00">+ setValue()</text>
<text text-anchor="start" x="96.998" y="-499.539" font-family="Monaco" font-size="10.00">+ setValues()</text>
<text text-anchor="start" x="96.998" y="-486.204" font-family="Monaco" font-size="10.00">+ setValues()</text>
</a>
</g>
</g>
<!-- Node3&#45;&gt;Node2 -->
<g id="edge2" class="edge"><title>Node3&#45;&gt;Node2</title>
<path fill="none" stroke="midnightblue" d="M137.448,-467.772C131.269,-456.004 125.132,-444.316 119.406,-433.412"/>
<polygon fill="none" stroke="midnightblue" points="134.427,-469.547 142.175,-476.774 140.625,-466.293 134.427,-469.547"/>
</g>
<!-- Node7 -->
<g id="node7" class="node"><title>Node7</title>
<g id="a_node7"><a xlink:href="class_hydro_couple_1_1_spatial_1_1_i_raster_component_data_item.html" target="_top" xlink:title="An IRasterComponentDataItem represents an IRaster IComponentItem. ">
<polygon fill="none" stroke="black" points="195.999,-309.189 195.999,-439.869 386.027,-439.869 386.027,-309.189 195.999,-309.189"/>
<text text-anchor="start" x="203.999" y="-427.869" font-family="Monaco" font-size="10.00">HydroCouple::Spatial</text>
<text text-anchor="middle" x="291.013" y="-414.534" font-family="Monaco" font-size="10.00">::IRasterComponentDataItem</text>
<polyline fill="none" stroke="black" points="195.999,-405.199 386.027,-405.199 "/>
<text text-anchor="middle" x="291.013" y="-393.199" font-family="Monaco" font-size="10.00"> </text>
<polyline fill="none" stroke="black" points="195.999,-383.864 386.027,-383.864 "/>
<text text-anchor="start" x="203.999" y="-371.864" font-family="Monaco" font-size="10.00">+ ~IRasterComponentDataItem()</text>
<text text-anchor="start" x="203.999" y="-358.529" font-family="Monaco" font-size="10.00">+ xDimension()</text>
<text text-anchor="start" x="203.999" y="-345.194" font-family="Monaco" font-size="10.00">+ yDimension()</text>
<text text-anchor="start" x="203.999" y="-331.859" font-family="Monaco" font-size="10.00">+ bandDimension()</text>
<text text-anchor="start" x="203.999" y="-318.524" font-family="Monaco" font-size="10.00">+ raster()</text>
</a>
</g>
</g>
<!-- Node3&#45;&gt;Node7 -->
<g id="edge7" class="edge"><title>Node3&#45;&gt;Node7</title>
<path fill="none" stroke="midnightblue" d="M242.597,-467.735C247.545,-458.312 252.467,-448.939 257.171,-439.98"/>
<polygon fill="none" stroke="midnightblue" points="239.401,-466.293 237.851,-476.774 245.599,-469.547 239.401,-466.293"/>
</g>
<!-- Node4 -->
<g id="node4" class="node"><title>Node4</title>
<g id="a_node4"><a xlink:href="class_hydro_couple_1_1_i_identity.html" target="_top" xlink:title="IIdentity interface class defines a method to get the Id of an HydroCouple entity. ">
<polygon fill="none" stroke="black" points="116.002,-697.889 116.002,-775.229 264.024,-775.229 264.024,-697.889 116.002,-697.889"/>
<text text-anchor="middle" x="190.013" y="-763.229" font-family="Monaco" font-size="10.00">HydroCouple::IIdentity</text>
<polyline fill="none" stroke="black" points="116.002,-753.894 264.024,-753.894 "/>
<text text-anchor="middle" x="190.013" y="-741.894" font-family="Monaco" font-size="10.00"> </text>
<polyline fill="none" stroke="black" points="116.002,-732.559 264.024,-732.559 "/>
<text text-anchor="start" x="124.002" y="-720.559" font-family="Monaco" font-size="10.00">+ ~IIdentity()</text>
<text text-anchor="start" x="124.002" y="-707.224" font-family="Monaco" font-size="10.00">+ id()</text>
</a>
</g>
</g>
<!-- Node4&#45;&gt;Node3 -->
<g id="edge3" class="edge"><title>Node4&#45;&gt;Node3</title>
<path fill="none" stroke="midnightblue" d="M190.013,-687.306C190.013,-678.953 190.013,-670.028 190.013,-660.97"/>
<polygon fill="none" stroke="midnightblue" points="186.513,-687.548 190.013,-697.548 193.513,-687.548 186.513,-687.548"/>
</g>
<!-- Node5 -->
<g id="node5" class="node"><title>Node5</title>
<g id="a_node5"><a xlink:href="class_hydro_couple_1_1_i_description.html" target="_top" xlink:title="IDescription interface class provides descriptive information on a HydroCouple object. ">
<polygon fill="none" stroke="black" points="107.001,-812.229 107.001,-929.573 273.025,-929.573 273.025,-812.229 107.001,-812.229"/>
<text text-anchor="middle" x="190.013" y="-917.573" font-family="Monaco" font-size="10.00">HydroCouple::IDescription</text>
<polyline fill="none" stroke="black" points="107.001,-908.238 273.025,-908.238 "/>
<text text-anchor="middle" x="190.013" y="-896.238" font-family="Monaco" font-size="10.00"> </text>
<polyline fill="none" stroke="black" points="107.001,-886.903 273.025,-886.903 "/>
<text text-anchor="start" x="115.001" y="-874.903" font-family="Monaco" font-size="10.00">+ ~IDescription()</text>
<text text-anchor="start" x="115.001" y="-861.568" font-family="Monaco" font-size="10.00">+ caption()</text>
<text text-anchor="start" x="115.001" y="-848.233" font-family="Monaco" font-size="10.00">+ setCaption()</text>
<text text-anchor="start" x="115.001" y="-834.898" font-family="Monaco" font-size="10.00">+ description()</text>
<text text-anchor="start" x="115.001" y="-821.563" font-family="Monaco" font-size="10.00">+ setDescription()</text>
</a>
</g>
</g>
<!-- Node5&#45;&gt;Node4 -->
<g id="edge4" class="edge"><title>Node5&#45;&gt;Node4</title>
<path fill="none" stroke="midnightblue" d="M190.013,-801.663C190.013,-792.624 190.013,-783.636 190.013,-775.376"/>
<polygon fill="none" stroke="midnightblue" points="186.513,-801.854 190.013,-811.854 193.513,-801.854 186.513,-801.854"/>
</g>
<!-- Node6 -->
<g id="node6" class="node"><title>Node6</title>
<g id="a_node6"><a xlink:href="class_hydro_couple_1_1_i_property_changed.html" target="_top" xlink:title="IPropertyChanged interface is used to emit signal/event when a property of an object changes...">
<polygon fill="none" stroke="black" points="94.999,-966.573 94.999,-1030.58 285.027,-1030.58 285.027,-966.573 94.999,-966.573"/>
<text text-anchor="middle" x="190.013" y="-1018.58" font-family="Monaco" font-size="10.00">HydroCouple::IPropertyChanged</text>
<polyline fill="none" stroke="black" points="94.999,-1009.24 285.027,-1009.24 "/>
<text text-anchor="middle" x="190.013" y="-997.243" font-family="Monaco" font-size="10.00"> </text>
<polyline fill="none" stroke="black" points="94.999,-987.908 285.027,-987.908 "/>
<text text-anchor="start" x="102.999" y="-975.908" font-family="Monaco" font-size="10.00">+ ~IPropertyChanged()</text>
</a>
</g>
</g>
<!-- Node6&#45;&gt;Node5 -->
<g id="edge5" class="edge"><title>Node6&#45;&gt;Node5</title>
<path fill="none" stroke="midnightblue" d="M190.013,-956.253C190.013,-947.868 190.013,-938.901 190.013,-930.059"/>
<polygon fill="none" stroke="midnightblue" points="186.513,-956.51 190.013,-966.51 193.513,-956.51 186.513,-956.51"/>
</g>
<!-- Node7&#45;&gt;Node1 -->
<g id="edge6" class="edge"><title>Node7&#45;&gt;Node1</title>
<path fill="none" stroke="midnightblue" d="M249.746,-300.387C244.536,-291.151 239.189,-281.675 233.939,-272.37"/>
<polygon fill="none" stroke="midnightblue" points="246.73,-302.164 254.693,-309.154 252.827,-298.725 246.73,-302.164"/>
</g>
</g>
</svg>
        <g id="navigator" transform="translate(0 0)" fill="#404254">
                <rect fill="#f2f5e9" fill-opacity="0.5" stroke="#606060" stroke-width=".5" x="0" y="0" width="60" height="60"/>
                <use id="zoomplus" xlink:href="#zoomPlus" x="17" y="9" onmousedown="handleZoom(evt,'in')"/>
                <use id="zoomminus" xlink:href="#zoomMin" x="42" y="9" onmousedown="handleZoom(evt,'out')"/>
                <use id="reset" xlink:href="#resetDef" x="30" y="36" onmousedown="handleReset()"/>
                <g id="arrowUp" xlink:href="#dirArrow" transform="translate(30 24)" onmousedown="handlePan(0,-1)">
                  <use xlink:href="#rim" fill="#404040">
                        <set attributeName="fill" to="#808080" begin="arrowUp.mouseover" end="arrowUp.mouseout"/>
                  </use>
                  <path fill="none" stroke="white" stroke-width="1.5" d="M0,-3.0v7 M-2.5,-0.5L0,-3.0L2.5,-0.5"/>
                </g>
                <g id="arrowRight" xlink:href="#dirArrow" transform="rotate(90) translate(36 -43)" onmousedown="handlePan(1,0)">
                  <use xlink:href="#rim" fill="#404040">
                        <set attributeName="fill" to="#808080" begin="arrowRight.mouseover" end="arrowRight.mouseout"/>
                  </use>
                  <path fill="none" stroke="white" stroke-width="1.5" d="M0,-3.0v7 M-2.5,-0.5L0,-3.0L2.5,-0.5"/>
                </g>
                <g id="arrowDown" xlink:href="#dirArrow" transform="rotate(180) translate(-30 -48)" onmousedown="handlePan(0,1)">
                  <use xlink:href="#rim" fill="#404040">
                        <set attributeName="fill" to="#808080" begin="arrowDown.mouseover" end="arrowDown.mouseout"/>
                  </use>
                  <path fill="none" stroke="white" stroke-width="1.5" d="M0,-3.0v7 M-2.5,-0.5L0,-3.0L2.5,-0.5"/>
                </g>
                <g id="arrowLeft" xlink:href="#dirArrow" transform="rotate(270) translate(-36 17)" onmousedown="handlePan(-1,0)">
                  <use xlink:href="#rim" fill="#404040">
                        <set attributeName="fill" to="#808080" begin="arrowLeft.mouseover" end="arrowLeft.mouseout"/>
                  </use>
                  <path fill="none" stroke="white" stroke-width="1.5" d="M0,-3.0v7 M-2.5,-0.5L0,-3.0L2.5,-0.5"/>
                </g>
        </g>
        <svg viewBox="0 0 15 15" width="100%" height="30px" preserveAspectRatio="xMaxYMin meet">
         <g id="arrow_out" transform="scale(0.3 0.3)">
          <a xlink:href="class_hydro_couple_1_1_spatio_temporal_1_1_i_time_raster_component_data_item__inherit__graph_org.svg" target="_base">
           <rect id="button" ry="5" rx="5" y="6" x="6" height="38" width="38"
                fill="#f2f5e9" fill-opacity="0.5" stroke="#606060" stroke-width="1.0"/>
           <path id="arrow"
             d="M 11.500037,31.436501 C 11.940474,20.09759 22.043105,11.32322 32.158766,21.979434 L 37.068811,17.246167 C 37.068811,17.246167 37.088388,32 37.088388,32 L 22.160133,31.978069 C 22.160133,31.978069 26.997745,27.140456 26.997745,27.140456 C 18.528582,18.264221 13.291696,25.230495 11.500037,31.436501 z"
             style="fill:#404040;"/>
          </a>
         </g>
        </svg>
</svg>
