<?xml version="1.0" encoding="UTF-8" standalone="no"?>
<!DOCTYPE svg PUBLIC "-//W3C//DTD SVG 1.1//EN"
 "http://www.w3.org/Graphics/SVG/1.1/DTD/svg11.dtd">
<!-- Generated by graphviz version 2.38.0 (20140413.2041)
 -->
<!-- Title: HydroCouple::Spatial::ITINOnlyComponentDataItem::~ITINOnlyComponentDataItem Pages: 1 -->
<svg width="406pt" height="206pt"
 viewBox="0.00 0.00 406.05 205.67" xmlns="http://www.w3.org/2000/svg" xmlns:xlink="http://www.w3.org/1999/xlink">
<g id="graph0" class="graph" transform="scale(1 1) rotate(0) translate(4 201.67)">
<title>HydroCouple::Spatial::ITINOnlyComponentDataItem::~ITINOnlyComponentDataItem</title>
<!-- Node1 -->
<g id="node1" class="node"><title>Node1</title>
<polygon fill="#bfbfbf" stroke="black" points="0,-74.8325 0,-122.837 184.027,-122.837 184.027,-74.8325 0,-74.8325"/>
<text text-anchor="start" x="8" y="-110.837" font-family="Monaco" font-size="10.00">HydroCouple::Spatial</text>
<text text-anchor="start" x="8" y="-97.5024" font-family="Monaco" font-size="10.00">::ITINOnlyComponentDataItem</text>
<text text-anchor="middle" x="92.0137" y="-84.1675" font-family="Monaco" font-size="10.00">::~ITINOnlyComponentDataItem</text>
</g>
<!-- Node2 -->
<g id="node2" class="node"><title>Node2</title>
<g id="a_node2"><a xlink:href="class_hydro_couple_1_1_i_component_data_item.html#a652b695e108f9e3a04f96f1207014b5f" target="_top" xlink:title="Gets a single value for given dimension indexes specified. ">
<polygon fill="none" stroke="black" points="220.027,-162.5 220.027,-197.17 398.054,-197.17 398.054,-162.5 220.027,-162.5"/>
<text text-anchor="start" x="228.027" y="-185.17" font-family="Monaco" font-size="10.00">HydroCouple::IComponentData</text>
<text text-anchor="middle" x="309.041" y="-171.835" font-family="Monaco" font-size="10.00">Item::getValue</text>
</a>
</g>
</g>
<!-- Node1&#45;&gt;Node2 -->
<g id="edge1" class="edge"><title>Node1&#45;&gt;Node2</title>
<path fill="none" stroke="midnightblue" d="M146.287,-122.948C168.823,-132.765 195.492,-143.883 220.027,-152.835 225.939,-154.992 232.115,-157.124 238.333,-159.188"/>
<polygon fill="midnightblue" stroke="midnightblue" points="237.515,-162.603 248.108,-162.369 239.682,-155.946 237.515,-162.603"/>
</g>
<!-- Node3 -->
<g id="node3" class="node"><title>Node3</title>
<g id="a_node3"><a xlink:href="class_hydro_couple_1_1_i_component_data_item.html#aed149c453986ae14c8365ee7fa7bed3d" target="_top" xlink:title="Gets a multi&#45;dimensional array of values for given dimension indexes and size for a hyperslab...">
<polygon fill="none" stroke="black" points="220.027,-108.5 220.027,-143.17 398.054,-143.17 398.054,-108.5 220.027,-108.5"/>
<text text-anchor="start" x="228.027" y="-131.17" font-family="Monaco" font-size="10.00">HydroCouple::IComponentData</text>
<text text-anchor="middle" x="309.041" y="-117.835" font-family="Monaco" font-size="10.00">Item::getValues</text>
</a>
</g>
</g>
<!-- Node1&#45;&gt;Node3 -->
<g id="edge2" class="edge"><title>Node1&#45;&gt;Node3</title>
<path fill="none" stroke="midnightblue" d="M184.204,-110.285C192.678,-111.349 201.291,-112.431 209.824,-113.502"/>
<polygon fill="midnightblue" stroke="midnightblue" points="209.435,-116.981 219.793,-114.754 210.307,-110.035 209.435,-116.981"/>
</g>
<!-- Node4 -->
<g id="node4" class="node"><title>Node4</title>
<g id="a_node4"><a xlink:href="class_hydro_couple_1_1_i_component_data_item.html#a0d2d2c003357ae04bd78c4fc7312c47c" target="_top" xlink:title="Sets a single value for given dimension indexes specified. ">
<polygon fill="none" stroke="black" points="220.027,-54.5 220.027,-89.1699 398.054,-89.1699 398.054,-54.5 220.027,-54.5"/>
<text text-anchor="start" x="228.027" y="-77.1699" font-family="Monaco" font-size="10.00">HydroCouple::IComponentData</text>
<text text-anchor="middle" x="309.041" y="-63.835" font-family="Monaco" font-size="10.00">Item::setValue</text>
</a>
</g>
</g>
<!-- Node1&#45;&gt;Node4 -->
<g id="edge3" class="edge"><title>Node1&#45;&gt;Node4</title>
<path fill="none" stroke="midnightblue" d="M184.204,-87.3845C192.678,-86.3205 201.291,-85.2391 209.824,-84.1675"/>
<polygon fill="midnightblue" stroke="midnightblue" points="210.307,-87.6345 219.793,-82.9158 209.435,-80.689 210.307,-87.6345"/>
</g>
<!-- Node5 -->
<g id="node5" class="node"><title>Node5</title>
<g id="a_node5"><a xlink:href="class_hydro_couple_1_1_i_component_data_item.html#ab51166edc999587d0427d366389eb5ad" target="_top" xlink:title="Sets a multi&#45;dimensional array of values for given dimension indexes and size for a hyperslab...">
<polygon fill="none" stroke="black" points="220.027,-0.5 220.027,-35.1699 398.054,-35.1699 398.054,-0.5 220.027,-0.5"/>
<text text-anchor="start" x="228.027" y="-23.1699" font-family="Monaco" font-size="10.00">HydroCouple::IComponentData</text>
<text text-anchor="middle" x="309.041" y="-9.83496" font-family="Monaco" font-size="10.00">Item::setValues</text>
</a>
</g>
</g>
<!-- Node1&#45;&gt;Node5 -->
<g id="edge4" class="edge"><title>Node1&#45;&gt;Node5</title>
<path fill="none" stroke="midnightblue" d="M146.287,-74.722C168.823,-64.9048 195.492,-53.7864 220.027,-44.835 225.939,-42.678 232.115,-40.5459 238.333,-38.4819"/>
<polygon fill="midnightblue" stroke="midnightblue" points="239.682,-41.7237 248.108,-35.3008 237.515,-35.0673 239.682,-41.7237"/>
</g>
</g>
</svg>
