<?xml version="1.0" encoding="UTF-8" standalone="no"?>
<!DOCTYPE svg PUBLIC "-//W3C//DTD SVG 1.1//EN"
 "http://www.w3.org/Graphics/SVG/1.1/DTD/svg11.dtd">
<!-- Generated by graphviz version 2.38.0 (20140413.2041)
 -->
<!-- Title: HydroCouple::IInput Pages: 1 -->
<svg width="210pt" height="805pt"
 viewBox="0.00 0.00 210.03 804.72" xmlns="http://www.w3.org/2000/svg" xmlns:xlink="http://www.w3.org/1999/xlink">
<g id="graph0" class="graph" transform="scale(1 1) rotate(0) translate(4 800.724)">
<title>HydroCouple::IInput</title>
<!-- Node1 -->
<g id="node1" class="node"><title>Node1</title>
<polygon fill="#bfbfbf" stroke="black" points="36.0059,-0.5 36.0059,-104.51 166.024,-104.51 166.024,-0.5 36.0059,-0.5"/>
<text text-anchor="middle" x="101.015" y="-92.5098" font-family="Monaco" font-size="10.00">HydroCouple::IInput</text>
<polyline fill="none" stroke="black" points="36.0059,-83.1748 166.024,-83.1748 "/>
<text text-anchor="middle" x="101.015" y="-71.1748" font-family="Monaco" font-size="10.00"> </text>
<polyline fill="none" stroke="black" points="36.0059,-61.8398 166.024,-61.8398 "/>
<text text-anchor="start" x="44.0059" y="-49.8398" font-family="Monaco" font-size="10.00">+ ~IInput()</text>
<text text-anchor="start" x="44.0059" y="-36.5049" font-family="Monaco" font-size="10.00">+ provider()</text>
<text text-anchor="start" x="44.0059" y="-23.1699" font-family="Monaco" font-size="10.00">+ setProvider()</text>
<text text-anchor="start" x="44.0059" y="-9.83496" font-family="Monaco" font-size="10.00">+ canConsume()</text>
</g>
<!-- Node2 -->
<g id="node2" class="node"><title>Node2</title>
<g id="a_node2"><a xlink:href="class_hydro_couple_1_1_i_exchange_item.html" target="_top" xlink:title="IExchangeItem the base data item the can be exchanged between components at runtime. ">
<polygon fill="none" stroke="black" points="15.0024,-141.51 15.0024,-205.515 187.028,-205.515 187.028,-141.51 15.0024,-141.51"/>
<text text-anchor="middle" x="101.015" y="-193.515" font-family="Monaco" font-size="10.00">HydroCouple::IExchangeItem</text>
<polyline fill="none" stroke="black" points="15.0024,-184.18 187.028,-184.18 "/>
<text text-anchor="middle" x="101.015" y="-172.18" font-family="Monaco" font-size="10.00"> </text>
<polyline fill="none" stroke="black" points="15.0024,-162.845 187.028,-162.845 "/>
<text text-anchor="start" x="23.0024" y="-150.845" font-family="Monaco" font-size="10.00">+ ~IExchangeItem()</text>
</a>
</g>
</g>
<!-- Node2&#45;&gt;Node1 -->
<g id="edge1" class="edge"><title>Node2&#45;&gt;Node1</title>
<path fill="none" stroke="midnightblue" d="M101.015,-131.191C101.015,-122.682 101.015,-113.624 101.015,-104.811"/>
<polygon fill="none" stroke="midnightblue" points="97.5152,-131.244 101.015,-141.244 104.515,-131.244 97.5152,-131.244"/>
</g>
<!-- Node3 -->
<g id="node3" class="node"><title>Node3</title>
<g id="a_node3"><a xlink:href="class_hydro_couple_1_1_i_component_data_item.html" target="_top" xlink:title="IComponentItem is a fundamental unit of data for a component. ">
<polygon fill="none" stroke="black" points="0,-242.515 0,-426.534 202.03,-426.534 202.03,-242.515 0,-242.515"/>
<text text-anchor="middle" x="101.015" y="-414.534" font-family="Monaco" font-size="10.00">HydroCouple::IComponentDataItem</text>
<polyline fill="none" stroke="black" points="0,-405.199 202.03,-405.199 "/>
<text text-anchor="middle" x="101.015" y="-393.199" font-family="Monaco" font-size="10.00"> </text>
<polyline fill="none" stroke="black" points="0,-383.864 202.03,-383.864 "/>
<text text-anchor="start" x="8" y="-371.864" font-family="Monaco" font-size="10.00">+ ~IComponentDataItem()</text>
<text text-anchor="start" x="8" y="-358.529" font-family="Monaco" font-size="10.00">+ modelComponent()</text>
<text text-anchor="start" x="8" y="-345.194" font-family="Monaco" font-size="10.00">+ dimensions()</text>
<text text-anchor="start" x="8" y="-331.859" font-family="Monaco" font-size="10.00">+ valueDefinition()</text>
<text text-anchor="start" x="8" y="-318.524" font-family="Monaco" font-size="10.00">+ getValue()</text>
<text text-anchor="start" x="8" y="-305.189" font-family="Monaco" font-size="10.00">+ getValues()</text>
<text text-anchor="start" x="8" y="-291.854" font-family="Monaco" font-size="10.00">+ getValues()</text>
<text text-anchor="start" x="8" y="-278.52" font-family="Monaco" font-size="10.00">+ setValue()</text>
<text text-anchor="start" x="8" y="-265.185" font-family="Monaco" font-size="10.00">+ setValues()</text>
<text text-anchor="start" x="8" y="-251.85" font-family="Monaco" font-size="10.00">+ setValues()</text>
</a>
</g>
</g>
<!-- Node3&#45;&gt;Node2 -->
<g id="edge2" class="edge"><title>Node3&#45;&gt;Node2</title>
<path fill="none" stroke="midnightblue" d="M101.015,-232.324C101.015,-222.779 101.015,-213.685 101.015,-205.654"/>
<polygon fill="none" stroke="midnightblue" points="97.5152,-232.409 101.015,-242.409 104.515,-232.409 97.5152,-232.409"/>
</g>
<!-- Node4 -->
<g id="node4" class="node"><title>Node4</title>
<g id="a_node4"><a xlink:href="class_hydro_couple_1_1_i_identity.html" target="_top" xlink:title="IIdentity interface class defines a method to get the Id of an HydroCouple entity. ">
<polygon fill="none" stroke="black" points="27.0044,-463.534 27.0044,-540.874 175.026,-540.874 175.026,-463.534 27.0044,-463.534"/>
<text text-anchor="middle" x="101.015" y="-528.874" font-family="Monaco" font-size="10.00">HydroCouple::IIdentity</text>
<polyline fill="none" stroke="black" points="27.0044,-519.539 175.026,-519.539 "/>
<text text-anchor="middle" x="101.015" y="-507.539" font-family="Monaco" font-size="10.00"> </text>
<polyline fill="none" stroke="black" points="27.0044,-498.204 175.026,-498.204 "/>
<text text-anchor="start" x="35.0044" y="-486.204" font-family="Monaco" font-size="10.00">+ ~IIdentity()</text>
<text text-anchor="start" x="35.0044" y="-472.869" font-family="Monaco" font-size="10.00">+ id()</text>
</a>
</g>
</g>
<!-- Node4&#45;&gt;Node3 -->
<g id="edge3" class="edge"><title>Node4&#45;&gt;Node3</title>
<path fill="none" stroke="midnightblue" d="M101.015,-452.952C101.015,-444.598 101.015,-435.673 101.015,-426.615"/>
<polygon fill="none" stroke="midnightblue" points="97.5152,-453.194 101.015,-463.194 104.515,-453.194 97.5152,-453.194"/>
</g>
<!-- Node5 -->
<g id="node5" class="node"><title>Node5</title>
<g id="a_node5"><a xlink:href="class_hydro_couple_1_1_i_description.html" target="_top" xlink:title="IDescription interface class provides descriptive information on a HydroCouple object. ">
<polygon fill="none" stroke="black" points="18.0029,-577.874 18.0029,-695.219 184.027,-695.219 184.027,-577.874 18.0029,-577.874"/>
<text text-anchor="middle" x="101.015" y="-683.219" font-family="Monaco" font-size="10.00">HydroCouple::IDescription</text>
<polyline fill="none" stroke="black" points="18.0029,-673.884 184.027,-673.884 "/>
<text text-anchor="middle" x="101.015" y="-661.884" font-family="Monaco" font-size="10.00"> </text>
<polyline fill="none" stroke="black" points="18.0029,-652.549 184.027,-652.549 "/>
<text text-anchor="start" x="26.0029" y="-640.549" font-family="Monaco" font-size="10.00">+ ~IDescription()</text>
<text text-anchor="start" x="26.0029" y="-627.214" font-family="Monaco" font-size="10.00">+ caption()</text>
<text text-anchor="start" x="26.0029" y="-613.879" font-family="Monaco" font-size="10.00">+ setCaption()</text>
<text text-anchor="start" x="26.0029" y="-600.544" font-family="Monaco" font-size="10.00">+ description()</text>
<text text-anchor="start" x="26.0029" y="-587.209" font-family="Monaco" font-size="10.00">+ setDescription()</text>
</a>
</g>
</g>
<!-- Node5&#45;&gt;Node4 -->
<g id="edge4" class="edge"><title>Node5&#45;&gt;Node4</title>
<path fill="none" stroke="midnightblue" d="M101.015,-567.308C101.015,-558.269 101.015,-549.282 101.015,-541.022"/>
<polygon fill="none" stroke="midnightblue" points="97.5152,-567.499 101.015,-577.499 104.515,-567.499 97.5152,-567.499"/>
</g>
<!-- Node6 -->
<g id="node6" class="node"><title>Node6</title>
<g id="a_node6"><a xlink:href="class_hydro_couple_1_1_i_property_changed.html" target="_top" xlink:title="IPropertyChanged interface is used to emit signal/event when a property of an object changes...">
<polygon fill="none" stroke="black" points="6.00098,-732.219 6.00098,-796.224 196.029,-796.224 196.029,-732.219 6.00098,-732.219"/>
<text text-anchor="middle" x="101.015" y="-784.224" font-family="Monaco" font-size="10.00">HydroCouple::IPropertyChanged</text>
<polyline fill="none" stroke="black" points="6.00098,-774.889 196.029,-774.889 "/>
<text text-anchor="middle" x="101.015" y="-762.889" font-family="Monaco" font-size="10.00"> </text>
<polyline fill="none" stroke="black" points="6.00098,-753.554 196.029,-753.554 "/>
<text text-anchor="start" x="14.001" y="-741.554" font-family="Monaco" font-size="10.00">+ ~IPropertyChanged()</text>
</a>
</g>
</g>
<!-- Node6&#45;&gt;Node5 -->
<g id="edge5" class="edge"><title>Node6&#45;&gt;Node5</title>
<path fill="none" stroke="midnightblue" d="M101.015,-721.898C101.015,-713.513 101.015,-704.547 101.015,-695.705"/>
<polygon fill="none" stroke="midnightblue" points="97.5152,-722.155 101.015,-732.156 104.515,-722.156 97.5152,-722.155"/>
</g>
</g>
</svg>
