<?xml version="1.0" encoding="UTF-8" standalone="no"?>
<!DOCTYPE svg PUBLIC "-//W3C//DTD SVG 1.1//EN"
 "http://www.w3.org/Graphics/SVG/1.1/DTD/svg11.dtd">
<!-- Generated by graphviz version 2.38.0 (20140413.2041)
 -->
<!-- Title: HydroCouple::Data::IAdaptedOutput Pages: 1 -->
<svg width="169pt" height="859pt"
 viewBox="0.00 0.00 169.08 859.00" xmlns="http://www.w3.org/2000/svg" xmlns:xlink="http://www.w3.org/1999/xlink">
<g id="graph0" class="graph" transform="scale(1 1) rotate(0) translate(4 855)">
<title>HydroCouple::Data::IAdaptedOutput</title>
<polygon fill="white" stroke="none" points="-4,4 -4,-855 165.083,-855 165.083,4 -4,4"/>
<!-- Node1 -->
<g id="node1" class="node"><title>Node1</title>
<polygon fill="#bfbfbf" stroke="black" points="15.1489,-0.5 15.1489,-124.5 145.934,-124.5 145.934,-0.5 15.1489,-0.5"/>
<text text-anchor="start" x="23.1489" y="-112.5" font-family="Helvetica,sans-Serif" font-size="10.00">HydroCouple::Data::</text>
<text text-anchor="middle" x="80.5415" y="-102.5" font-family="Helvetica,sans-Serif" font-size="10.00">IAdaptedOutput</text>
<polyline fill="none" stroke="black" points="15.1489,-96.5 145.934,-96.5 "/>
<text text-anchor="middle" x="80.5415" y="-84.5" font-family="Helvetica,sans-Serif" font-size="10.00"> </text>
<polyline fill="none" stroke="black" points="15.1489,-78.5 145.934,-78.5 "/>
<text text-anchor="start" x="23.1489" y="-66.5" font-family="Helvetica,sans-Serif" font-size="10.00">+ ~IAdaptedOutput()</text>
<text text-anchor="start" x="23.1489" y="-56.5" font-family="Helvetica,sans-Serif" font-size="10.00">+ adaptedOutputFactory()</text>
<text text-anchor="start" x="23.1489" y="-46.5" font-family="Helvetica,sans-Serif" font-size="10.00">+ arguments()</text>
<text text-anchor="start" x="23.1489" y="-36.5" font-family="Helvetica,sans-Serif" font-size="10.00">+ setArgument()</text>
<text text-anchor="start" x="23.1489" y="-26.5" font-family="Helvetica,sans-Serif" font-size="10.00">+ initialize()</text>
<text text-anchor="start" x="23.1489" y="-16.5" font-family="Helvetica,sans-Serif" font-size="10.00">+ adaptee()</text>
<text text-anchor="start" x="23.1489" y="-6.5" font-family="Helvetica,sans-Serif" font-size="10.00">+ refresh()</text>
</g>
<!-- Node2 -->
<g id="node2" class="node"><title>Node2</title>
<g id="a_node2"><a xlink:href="class_hydro_couple_1_1_data_1_1_i_output.html" target="_top" xlink:title="An output exchange item that can deliver values from an IModelComponent. ">
<polygon fill="white" stroke="black" points="14.5923,-161.5 14.5923,-295.5 146.491,-295.5 146.491,-161.5 14.5923,-161.5"/>
<text text-anchor="start" x="22.5923" y="-283.5" font-family="Helvetica,sans-Serif" font-size="10.00">HydroCouple::Data::</text>
<text text-anchor="middle" x="80.5415" y="-273.5" font-family="Helvetica,sans-Serif" font-size="10.00">IOutput</text>
<polyline fill="none" stroke="black" points="14.5923,-267.5 146.491,-267.5 "/>
<text text-anchor="middle" x="80.5415" y="-255.5" font-family="Helvetica,sans-Serif" font-size="10.00"> </text>
<polyline fill="none" stroke="black" points="14.5923,-249.5 146.491,-249.5 "/>
<text text-anchor="start" x="22.5923" y="-237.5" font-family="Helvetica,sans-Serif" font-size="10.00">+ ~IOutput()</text>
<text text-anchor="start" x="22.5923" y="-227.5" font-family="Helvetica,sans-Serif" font-size="10.00">+ consumers()</text>
<text text-anchor="start" x="22.5923" y="-217.5" font-family="Helvetica,sans-Serif" font-size="10.00">+ addConsumer()</text>
<text text-anchor="start" x="22.5923" y="-207.5" font-family="Helvetica,sans-Serif" font-size="10.00">+ removeConsumer()</text>
<text text-anchor="start" x="22.5923" y="-197.5" font-family="Helvetica,sans-Serif" font-size="10.00">+ adaptedOutputs()</text>
<text text-anchor="start" x="22.5923" y="-187.5" font-family="Helvetica,sans-Serif" font-size="10.00">+ addAdaptedOutput()</text>
<text text-anchor="start" x="22.5923" y="-177.5" font-family="Helvetica,sans-Serif" font-size="10.00">+ removeAdaptedOutput()</text>
<text text-anchor="start" x="22.5923" y="-167.5" font-family="Helvetica,sans-Serif" font-size="10.00">+ updateValues()</text>
</a>
</g>
</g>
<!-- Node2&#45;&gt;Node1 -->
<g id="edge1" class="edge"><title>Node2&#45;&gt;Node1</title>
<path fill="none" stroke="midnightblue" d="M80.5415,-151.266C80.5415,-142.353 80.5415,-133.348 80.5415,-124.677"/>
<polygon fill="none" stroke="midnightblue" points="77.0416,-151.268 80.5415,-161.268 84.0416,-151.268 77.0416,-151.268"/>
</g>
<!-- Node3 -->
<g id="node3" class="node"><title>Node3</title>
<g id="a_node3"><a xlink:href="class_hydro_couple_1_1_data_1_1_i_exchange_item.html" target="_top" xlink:title="IExchangeItem the base data item the can be exchanged between components at runtime. ">
<polygon fill="white" stroke="black" points="27.2412,-332.5 27.2412,-406.5 133.842,-406.5 133.842,-332.5 27.2412,-332.5"/>
<text text-anchor="start" x="35.2412" y="-394.5" font-family="Helvetica,sans-Serif" font-size="10.00">HydroCouple::Data::</text>
<text text-anchor="middle" x="80.5415" y="-384.5" font-family="Helvetica,sans-Serif" font-size="10.00">IExchangeItem</text>
<polyline fill="none" stroke="black" points="27.2412,-378.5 133.842,-378.5 "/>
<text text-anchor="middle" x="80.5415" y="-366.5" font-family="Helvetica,sans-Serif" font-size="10.00"> </text>
<polyline fill="none" stroke="black" points="27.2412,-360.5 133.842,-360.5 "/>
<text text-anchor="start" x="35.2412" y="-348.5" font-family="Helvetica,sans-Serif" font-size="10.00">+ ~IExchangeItem()</text>
<text text-anchor="start" x="35.2412" y="-338.5" font-family="Helvetica,sans-Serif" font-size="10.00">+ itemChanged()</text>
</a>
</g>
</g>
<!-- Node3&#45;&gt;Node2 -->
<g id="edge2" class="edge"><title>Node3&#45;&gt;Node2</title>
<path fill="none" stroke="midnightblue" d="M80.5415,-322.233C80.5415,-313.698 80.5415,-304.634 80.5415,-295.645"/>
<polygon fill="none" stroke="midnightblue" points="77.0416,-322.342 80.5415,-332.342 84.0416,-322.342 77.0416,-322.342"/>
</g>
<!-- Node4 -->
<g id="node4" class="node"><title>Node4</title>
<g id="a_node4"><a xlink:href="class_hydro_couple_1_1_data_1_1_i_component_item.html" target="_top" xlink:title="IComponentItem is a fundamental unit of data for a component. ">
<polygon fill="white" stroke="black" points="25.0195,-443.5 25.0195,-527.5 136.063,-527.5 136.063,-443.5 25.0195,-443.5"/>
<text text-anchor="start" x="33.0195" y="-515.5" font-family="Helvetica,sans-Serif" font-size="10.00">HydroCouple::Data::</text>
<text text-anchor="middle" x="80.5415" y="-505.5" font-family="Helvetica,sans-Serif" font-size="10.00">IComponentItem</text>
<polyline fill="none" stroke="black" points="25.0195,-499.5 136.063,-499.5 "/>
<text text-anchor="middle" x="80.5415" y="-487.5" font-family="Helvetica,sans-Serif" font-size="10.00"> </text>
<polyline fill="none" stroke="black" points="25.0195,-481.5 136.063,-481.5 "/>
<text text-anchor="start" x="33.0195" y="-469.5" font-family="Helvetica,sans-Serif" font-size="10.00">+ ~IComponentItem()</text>
<text text-anchor="start" x="33.0195" y="-459.5" font-family="Helvetica,sans-Serif" font-size="10.00">+ modelComponent()</text>
<text text-anchor="start" x="33.0195" y="-449.5" font-family="Helvetica,sans-Serif" font-size="10.00">+ dimensions()</text>
</a>
</g>
</g>
<!-- Node4&#45;&gt;Node3 -->
<g id="edge3" class="edge"><title>Node4&#45;&gt;Node3</title>
<path fill="none" stroke="midnightblue" d="M80.5415,-433.328C80.5415,-424.341 80.5415,-415.159 80.5415,-406.688"/>
<polygon fill="none" stroke="midnightblue" points="77.0416,-433.343 80.5415,-443.343 84.0416,-433.343 77.0416,-433.343"/>
</g>
<!-- Node5 -->
<g id="node5" class="node"><title>Node5</title>
<g id="a_node5"><a xlink:href="class_hydro_couple_1_1_i_identity.html" target="_top" xlink:title="IIdentity interface class defines a method to get the Id of an HydroCouple entity. &#160;IIdentity extends the IDescription interface class, and therefore has, next to the id, a caption and a description. ">
<polygon fill="white" stroke="black" points="23.0713,-564.5 23.0713,-628.5 138.012,-628.5 138.012,-564.5 23.0713,-564.5"/>
<text text-anchor="middle" x="80.5415" y="-616.5" font-family="Helvetica,sans-Serif" font-size="10.00">HydroCouple::IIdentity</text>
<polyline fill="none" stroke="black" points="23.0713,-610.5 138.012,-610.5 "/>
<text text-anchor="middle" x="80.5415" y="-598.5" font-family="Helvetica,sans-Serif" font-size="10.00"> </text>
<polyline fill="none" stroke="black" points="23.0713,-592.5 138.012,-592.5 "/>
<text text-anchor="start" x="31.0713" y="-580.5" font-family="Helvetica,sans-Serif" font-size="10.00">+ ~IIdentity()</text>
<text text-anchor="start" x="31.0713" y="-570.5" font-family="Helvetica,sans-Serif" font-size="10.00">+ id()</text>
</a>
</g>
</g>
<!-- Node5&#45;&gt;Node4 -->
<g id="edge4" class="edge"><title>Node5&#45;&gt;Node4</title>
<path fill="none" stroke="midnightblue" d="M80.5415,-554.263C80.5415,-545.503 80.5415,-536.255 80.5415,-527.503"/>
<polygon fill="none" stroke="midnightblue" points="77.0416,-554.265 80.5415,-564.265 84.0416,-554.265 77.0416,-554.265"/>
</g>
<!-- Node6 -->
<g id="node6" class="node"><title>Node6</title>
<g id="a_node6"><a xlink:href="class_hydro_couple_1_1_i_description.html" target="_top" xlink:title="IDescription interface class provides descriptive information on a HydroCouple object. ">
<polygon fill="white" stroke="black" points="14.1821,-665.5 14.1821,-759.5 146.901,-759.5 146.901,-665.5 14.1821,-665.5"/>
<text text-anchor="middle" x="80.5415" y="-747.5" font-family="Helvetica,sans-Serif" font-size="10.00">HydroCouple::IDescription</text>
<polyline fill="none" stroke="black" points="14.1821,-741.5 146.901,-741.5 "/>
<text text-anchor="middle" x="80.5415" y="-729.5" font-family="Helvetica,sans-Serif" font-size="10.00"> </text>
<polyline fill="none" stroke="black" points="14.1821,-723.5 146.901,-723.5 "/>
<text text-anchor="start" x="22.1821" y="-711.5" font-family="Helvetica,sans-Serif" font-size="10.00">+ ~IDescription()</text>
<text text-anchor="start" x="22.1821" y="-701.5" font-family="Helvetica,sans-Serif" font-size="10.00">+ getCaption()</text>
<text text-anchor="start" x="22.1821" y="-691.5" font-family="Helvetica,sans-Serif" font-size="10.00">+ setCaption()</text>
<text text-anchor="start" x="22.1821" y="-681.5" font-family="Helvetica,sans-Serif" font-size="10.00">+ getDescription()</text>
<text text-anchor="start" x="22.1821" y="-671.5" font-family="Helvetica,sans-Serif" font-size="10.00">+ setDescription()</text>
</a>
</g>
</g>
<!-- Node6&#45;&gt;Node5 -->
<g id="edge5" class="edge"><title>Node6&#45;&gt;Node5</title>
<path fill="none" stroke="midnightblue" d="M80.5415,-655.212C80.5415,-646.081 80.5415,-636.926 80.5415,-628.684"/>
<polygon fill="none" stroke="midnightblue" points="77.0416,-655.46 80.5415,-665.46 84.0416,-655.46 77.0416,-655.46"/>
</g>
<!-- Node7 -->
<g id="node7" class="node"><title>Node7</title>
<g id="a_node7"><a xlink:href="class_hydro_couple_1_1_i_property_changed.html" target="_top" xlink:title="IPropertyChanged interface is used to emit signal/event when a property of an object changes...">
<polygon fill="white" stroke="black" points="0,-796.5 0,-850.5 161.083,-850.5 161.083,-796.5 0,-796.5"/>
<text text-anchor="middle" x="80.5415" y="-838.5" font-family="Helvetica,sans-Serif" font-size="10.00">HydroCouple::IPropertyChanged</text>
<polyline fill="none" stroke="black" points="0,-832.5 161.083,-832.5 "/>
<text text-anchor="middle" x="80.5415" y="-820.5" font-family="Helvetica,sans-Serif" font-size="10.00"> </text>
<polyline fill="none" stroke="black" points="0,-814.5 161.083,-814.5 "/>
<text text-anchor="start" x="8" y="-802.5" font-family="Helvetica,sans-Serif" font-size="10.00">+ ~IPropertyChanged()</text>
</a>
</g>
</g>
<!-- Node7&#45;&gt;Node6 -->
<g id="edge6" class="edge"><title>Node7&#45;&gt;Node6</title>
<path fill="none" stroke="midnightblue" d="M80.5415,-786.141C80.5415,-777.716 80.5415,-768.639 80.5415,-759.851"/>
<polygon fill="none" stroke="midnightblue" points="77.0416,-786.392 80.5415,-796.392 84.0416,-786.392 77.0416,-786.392"/>
</g>
</g>
</svg>
