<?xml version="1.0" encoding="UTF-8" standalone="no"?>
<!DOCTYPE svg PUBLIC "-//W3C//DTD SVG 1.1//EN"
 "http://www.w3.org/Graphics/SVG/1.1/DTD/svg11.dtd">
<!-- Generated by graphviz version 2.38.0 (20140413.2041)
 -->
<!-- Title: HydroCouple::Spatial::I3DRegularGridComponentItem Pages: 1 -->
<svg width="216pt" height="805pt"
 viewBox="0.00 0.00 216.03 804.72" xmlns="http://www.w3.org/2000/svg" xmlns:xlink="http://www.w3.org/1999/xlink">
<g id="graph0" class="graph" transform="scale(1 1) rotate(0) translate(4 800.724)">
<title>HydroCouple::Spatial::I3DRegularGridComponentItem</title>
<polygon fill="white" stroke="none" points="-4,4 -4,-800.724 212.031,-800.724 212.031,4 -4,4"/>
<!-- Node1 -->
<g id="node1" class="node"><title>Node1</title>
<polygon fill="#bfbfbf" stroke="black" points="0,-0.5 0,-117.845 208.031,-117.845 208.031,-0.5 0,-0.5"/>
<text text-anchor="start" x="8" y="-105.845" font-family="Monaco" font-size="10.00">HydroCouple::Spatial</text>
<text text-anchor="middle" x="104.016" y="-92.5098" font-family="Monaco" font-size="10.00">::I3DRegularGridComponentItem</text>
<polyline fill="none" stroke="black" points="0,-83.1748 208.031,-83.1748 "/>
<text text-anchor="middle" x="104.016" y="-71.1748" font-family="Monaco" font-size="10.00"> </text>
<polyline fill="none" stroke="black" points="0,-61.8398 208.031,-61.8398 "/>
<text text-anchor="start" x="8" y="-49.8398" font-family="Monaco" font-size="10.00">+ ~I2DRegularGridComponentItem()</text>
<text text-anchor="start" x="8" y="-36.5049" font-family="Monaco" font-size="10.00">+ numZNodesDimension()</text>
<text text-anchor="start" x="8" y="-23.1699" font-family="Monaco" font-size="10.00">+ numZCellsDimension()</text>
<text text-anchor="start" x="8" y="-9.83496" font-family="Monaco" font-size="10.00">+ grid()</text>
</g>
<!-- Node2 -->
<g id="node2" class="node"><title>Node2</title>
<g id="a_node2"><a xlink:href="class_hydro_couple_1_1_spatial_1_1_i2_d_regular_grid_component_item.html" target="_top" xlink:title="An I2DRegularGridComponentItem represents an I2DRegularGrid IComponentItem. ">
<polygon fill="white" stroke="black" points="0,-154.845 0,-298.859 208.031,-298.859 208.031,-154.845 0,-154.845"/>
<text text-anchor="start" x="8" y="-286.859" font-family="Monaco" font-size="10.00">HydroCouple::Spatial</text>
<text text-anchor="middle" x="104.016" y="-273.524" font-family="Monaco" font-size="10.00">::I2DRegularGridComponentItem</text>
<polyline fill="none" stroke="black" points="0,-264.189 208.031,-264.189 "/>
<text text-anchor="middle" x="104.016" y="-252.189" font-family="Monaco" font-size="10.00"> </text>
<polyline fill="none" stroke="black" points="0,-242.854 208.031,-242.854 "/>
<text text-anchor="start" x="8" y="-230.854" font-family="Monaco" font-size="10.00">+ ~I2DRegularGridComponentItem()</text>
<text text-anchor="start" x="8" y="-217.52" font-family="Monaco" font-size="10.00">+ numXNodesDimension()</text>
<text text-anchor="start" x="8" y="-204.185" font-family="Monaco" font-size="10.00">+ numYNodesDimension()</text>
<text text-anchor="start" x="8" y="-190.85" font-family="Monaco" font-size="10.00">+ numXCellsDimension()</text>
<text text-anchor="start" x="8" y="-177.515" font-family="Monaco" font-size="10.00">+ numYCellsDimension()</text>
<text text-anchor="start" x="8" y="-164.18" font-family="Monaco" font-size="10.00">+ grid()</text>
</a>
</g>
</g>
<!-- Node2&#45;&gt;Node1 -->
<g id="edge1" class="edge"><title>Node2&#45;&gt;Node1</title>
<path fill="none" stroke="midnightblue" d="M104.016,-144.5C104.016,-135.501 104.016,-126.478 104.016,-117.857"/>
<polygon fill="none" stroke="midnightblue" points="100.516,-144.627 104.016,-154.627 107.516,-144.627 100.516,-144.627"/>
</g>
<!-- Node3 -->
<g id="node3" class="node"><title>Node3</title>
<g id="a_node3"><a xlink:href="class_hydro_couple_1_1_i_component_item.html" target="_top" xlink:title="IComponentItem is a fundamental unit of data for a component. ">
<polygon fill="white" stroke="black" points="15.0024,-335.859 15.0024,-426.534 193.029,-426.534 193.029,-335.859 15.0024,-335.859"/>
<text text-anchor="middle" x="104.016" y="-414.534" font-family="Monaco" font-size="10.00">HydroCouple::IComponentItem</text>
<polyline fill="none" stroke="black" points="15.0024,-405.199 193.029,-405.199 "/>
<text text-anchor="middle" x="104.016" y="-393.199" font-family="Monaco" font-size="10.00"> </text>
<polyline fill="none" stroke="black" points="15.0024,-383.864 193.029,-383.864 "/>
<text text-anchor="start" x="23.0024" y="-371.864" font-family="Monaco" font-size="10.00">+ ~IComponentItem()</text>
<text text-anchor="start" x="23.0024" y="-358.529" font-family="Monaco" font-size="10.00">+ modelComponent()</text>
<text text-anchor="start" x="23.0024" y="-345.194" font-family="Monaco" font-size="10.00">+ dimensions()</text>
</a>
</g>
</g>
<!-- Node3&#45;&gt;Node2 -->
<g id="edge2" class="edge"><title>Node3&#45;&gt;Node2</title>
<path fill="none" stroke="midnightblue" d="M104.016,-325.484C104.016,-316.902 104.016,-307.925 104.016,-299.039"/>
<polygon fill="none" stroke="midnightblue" points="100.516,-325.723 104.016,-335.723 107.516,-325.723 100.516,-325.723"/>
</g>
<!-- Node4 -->
<g id="node4" class="node"><title>Node4</title>
<g id="a_node4"><a xlink:href="class_hydro_couple_1_1_i_identity.html" target="_top" xlink:title="IIdentity interface class defines a method to get the Id of an HydroCouple entity. ">
<polygon fill="white" stroke="black" points="30.0049,-463.534 30.0049,-540.874 178.026,-540.874 178.026,-463.534 30.0049,-463.534"/>
<text text-anchor="middle" x="104.016" y="-528.874" font-family="Monaco" font-size="10.00">HydroCouple::IIdentity</text>
<polyline fill="none" stroke="black" points="30.0049,-519.539 178.026,-519.539 "/>
<text text-anchor="middle" x="104.016" y="-507.539" font-family="Monaco" font-size="10.00"> </text>
<polyline fill="none" stroke="black" points="30.0049,-498.204 178.026,-498.204 "/>
<text text-anchor="start" x="38.0049" y="-486.204" font-family="Monaco" font-size="10.00">+ ~IIdentity()</text>
<text text-anchor="start" x="38.0049" y="-472.869" font-family="Monaco" font-size="10.00">+ id()</text>
</a>
</g>
</g>
<!-- Node4&#45;&gt;Node3 -->
<g id="edge3" class="edge"><title>Node4&#45;&gt;Node3</title>
<path fill="none" stroke="midnightblue" d="M104.016,-453.214C104.016,-444.516 104.016,-435.476 104.016,-426.877"/>
<polygon fill="none" stroke="midnightblue" points="100.516,-453.222 104.016,-463.222 107.516,-453.222 100.516,-453.222"/>
</g>
<!-- Node5 -->
<g id="node5" class="node"><title>Node5</title>
<g id="a_node5"><a xlink:href="class_hydro_couple_1_1_i_description.html" target="_top" xlink:title="IDescription interface class provides descriptive information on a HydroCouple object. ">
<polygon fill="white" stroke="black" points="21.0034,-577.874 21.0034,-695.219 187.028,-695.219 187.028,-577.874 21.0034,-577.874"/>
<text text-anchor="middle" x="104.016" y="-683.219" font-family="Monaco" font-size="10.00">HydroCouple::IDescription</text>
<polyline fill="none" stroke="black" points="21.0034,-673.884 187.028,-673.884 "/>
<text text-anchor="middle" x="104.016" y="-661.884" font-family="Monaco" font-size="10.00"> </text>
<polyline fill="none" stroke="black" points="21.0034,-652.549 187.028,-652.549 "/>
<text text-anchor="start" x="29.0034" y="-640.549" font-family="Monaco" font-size="10.00">+ ~IDescription()</text>
<text text-anchor="start" x="29.0034" y="-627.214" font-family="Monaco" font-size="10.00">+ getCaption()</text>
<text text-anchor="start" x="29.0034" y="-613.879" font-family="Monaco" font-size="10.00">+ setCaption()</text>
<text text-anchor="start" x="29.0034" y="-600.544" font-family="Monaco" font-size="10.00">+ getDescription()</text>
<text text-anchor="start" x="29.0034" y="-587.209" font-family="Monaco" font-size="10.00">+ setDescription()</text>
</a>
</g>
</g>
<!-- Node5&#45;&gt;Node4 -->
<g id="edge4" class="edge"><title>Node5&#45;&gt;Node4</title>
<path fill="none" stroke="midnightblue" d="M104.016,-567.308C104.016,-558.269 104.016,-549.282 104.016,-541.022"/>
<polygon fill="none" stroke="midnightblue" points="100.516,-567.499 104.016,-577.499 107.516,-567.499 100.516,-567.499"/>
</g>
<!-- Node6 -->
<g id="node6" class="node"><title>Node6</title>
<g id="a_node6"><a xlink:href="class_hydro_couple_1_1_i_property_changed.html" target="_top" xlink:title="IPropertyChanged interface is used to emit signal/event when a property of an object changes...">
<polygon fill="white" stroke="black" points="9.00146,-732.219 9.00146,-796.224 199.03,-796.224 199.03,-732.219 9.00146,-732.219"/>
<text text-anchor="middle" x="104.016" y="-784.224" font-family="Monaco" font-size="10.00">HydroCouple::IPropertyChanged</text>
<polyline fill="none" stroke="black" points="9.00146,-774.889 199.03,-774.889 "/>
<text text-anchor="middle" x="104.016" y="-762.889" font-family="Monaco" font-size="10.00"> </text>
<polyline fill="none" stroke="black" points="9.00146,-753.554 199.03,-753.554 "/>
<text text-anchor="start" x="17.0015" y="-741.554" font-family="Monaco" font-size="10.00">+ ~IPropertyChanged()</text>
</a>
</g>
</g>
<!-- Node6&#45;&gt;Node5 -->
<g id="edge5" class="edge"><title>Node6&#45;&gt;Node5</title>
<path fill="none" stroke="midnightblue" d="M104.016,-721.898C104.016,-713.513 104.016,-704.547 104.016,-695.705"/>
<polygon fill="none" stroke="midnightblue" points="100.516,-722.155 104.016,-732.156 107.516,-722.156 100.516,-722.155"/>
</g>
</g>
</svg>
