<?xml version="1.0" encoding="UTF-8" standalone="no"?>
<!DOCTYPE svg PUBLIC "-//W3C//DTD SVG 1.1//EN"
 "http://www.w3.org/Graphics/SVG/1.1/DTD/svg11.dtd">
<!-- Generated by graphviz version 2.38.0 (20140413.2041)
 -->
<!-- Title: HydroCouple::SpatioTemporal::ITimePolyhedralSurfaceComponentDataItem Pages: 1 -->
<svg width="430pt" height="965pt"
 viewBox="0.00 0.00 430.03 964.74" xmlns="http://www.w3.org/2000/svg" xmlns:xlink="http://www.w3.org/1999/xlink">
<g id="graph0" class="graph" transform="scale(1 1) rotate(0) translate(4 960.743)">
<title>HydroCouple::SpatioTemporal::ITimePolyhedralSurfaceComponentDataItem</title>
<!-- Node1 -->
<g id="node1" class="node"><title>Node1</title>
<polygon fill="#bfbfbf" stroke="black" points="88.9966,-0.5 88.9966,-184.52 309.03,-184.52 309.03,-0.5 88.9966,-0.5"/>
<text text-anchor="start" x="96.9966" y="-172.52" font-family="Monaco" font-size="10.00">HydroCouple::SpatioTemporal</text>
<text text-anchor="start" x="96.9966" y="-159.185" font-family="Monaco" font-size="10.00">::ITimePolyhedralSurfaceComponent</text>
<text text-anchor="middle" x="199.013" y="-145.85" font-family="Monaco" font-size="10.00">DataItem</text>
<polyline fill="none" stroke="black" points="88.9966,-136.515 309.03,-136.515 "/>
<text text-anchor="middle" x="199.013" y="-124.515" font-family="Monaco" font-size="10.00"> </text>
<polyline fill="none" stroke="black" points="88.9966,-115.18 309.03,-115.18 "/>
<text text-anchor="start" x="96.9966" y="-103.18" font-family="Monaco" font-size="10.00">+ ~ITimePolyhedralSurfaceComponent</text>
<text text-anchor="start" x="96.9966" y="-89.8447" font-family="Monaco" font-size="10.00">DataItem()</text>
<text text-anchor="start" x="96.9966" y="-76.5098" font-family="Monaco" font-size="10.00">+ getValue()</text>
<text text-anchor="start" x="96.9966" y="-63.1748" font-family="Monaco" font-size="10.00">+ getValues()</text>
<text text-anchor="start" x="96.9966" y="-49.8398" font-family="Monaco" font-size="10.00">+ getValues()</text>
<text text-anchor="start" x="96.9966" y="-36.5049" font-family="Monaco" font-size="10.00">+ setValue()</text>
<text text-anchor="start" x="96.9966" y="-23.1699" font-family="Monaco" font-size="10.00">+ setValues()</text>
<text text-anchor="start" x="96.9966" y="-9.83496" font-family="Monaco" font-size="10.00">+ setValues()</text>
</g>
<!-- Node2 -->
<g id="node2" class="node"><title>Node2</title>
<g id="a_node2"><a xlink:href="class_hydro_couple_1_1_temporal_1_1_i_time_component_data_item.html" target="_top" xlink:title="ITimeComponentItem is an IComponentItem with a temporal attribute. This class cannot be directly inst...">
<polygon fill="none" stroke="black" points="0,-234.854 0,-352.199 178.026,-352.199 178.026,-234.854 0,-234.854"/>
<text text-anchor="start" x="8" y="-340.199" font-family="Monaco" font-size="10.00">HydroCouple::Temporal</text>
<text text-anchor="middle" x="89.0132" y="-326.864" font-family="Monaco" font-size="10.00">::ITimeComponentDataItem</text>
<polyline fill="none" stroke="black" points="0,-317.529 178.026,-317.529 "/>
<text text-anchor="middle" x="89.0132" y="-305.529" font-family="Monaco" font-size="10.00"> </text>
<polyline fill="none" stroke="black" points="0,-296.194 178.026,-296.194 "/>
<text text-anchor="start" x="8" y="-284.194" font-family="Monaco" font-size="10.00">+ ~ITimeComponentDataItem()</text>
<text text-anchor="start" x="8" y="-270.859" font-family="Monaco" font-size="10.00">+ times()</text>
<text text-anchor="start" x="8" y="-257.524" font-family="Monaco" font-size="10.00">+ timeSpan()</text>
<text text-anchor="start" x="8" y="-244.189" font-family="Monaco" font-size="10.00">+ timeDimension()</text>
</a>
</g>
</g>
<!-- Node2&#45;&gt;Node1 -->
<g id="edge1" class="edge"><title>Node2&#45;&gt;Node1</title>
<path fill="none" stroke="midnightblue" d="M125.92,-225.753C133.179,-212.619 140.912,-198.629 148.528,-184.85"/>
<polygon fill="none" stroke="midnightblue" points="122.752,-224.25 120.978,-234.696 128.878,-227.637 122.752,-224.25"/>
</g>
<!-- Node3 -->
<g id="node3" class="node"><title>Node3</title>
<g id="a_node3"><a xlink:href="class_hydro_couple_1_1_i_component_data_item.html" target="_top" xlink:title="IComponentItem is a fundamental unit of data for a component. ">
<polygon fill="none" stroke="black" points="97.998,-402.534 97.998,-586.554 300.028,-586.554 300.028,-402.534 97.998,-402.534"/>
<text text-anchor="middle" x="199.013" y="-574.554" font-family="Monaco" font-size="10.00">HydroCouple::IComponentDataItem</text>
<polyline fill="none" stroke="black" points="97.998,-565.219 300.028,-565.219 "/>
<text text-anchor="middle" x="199.013" y="-553.219" font-family="Monaco" font-size="10.00"> </text>
<polyline fill="none" stroke="black" points="97.998,-543.884 300.028,-543.884 "/>
<text text-anchor="start" x="105.998" y="-531.884" font-family="Monaco" font-size="10.00">+ ~IComponentDataItem()</text>
<text text-anchor="start" x="105.998" y="-518.549" font-family="Monaco" font-size="10.00">+ modelComponent()</text>
<text text-anchor="start" x="105.998" y="-505.214" font-family="Monaco" font-size="10.00">+ dimensions()</text>
<text text-anchor="start" x="105.998" y="-491.879" font-family="Monaco" font-size="10.00">+ valueDefinition()</text>
<text text-anchor="start" x="105.998" y="-478.544" font-family="Monaco" font-size="10.00">+ getValue()</text>
<text text-anchor="start" x="105.998" y="-465.209" font-family="Monaco" font-size="10.00">+ getValues()</text>
<text text-anchor="start" x="105.998" y="-451.874" font-family="Monaco" font-size="10.00">+ getValues()</text>
<text text-anchor="start" x="105.998" y="-438.539" font-family="Monaco" font-size="10.00">+ setValue()</text>
<text text-anchor="start" x="105.998" y="-425.204" font-family="Monaco" font-size="10.00">+ setValues()</text>
<text text-anchor="start" x="105.998" y="-411.869" font-family="Monaco" font-size="10.00">+ setValues()</text>
</a>
</g>
</g>
<!-- Node3&#45;&gt;Node2 -->
<g id="edge2" class="edge"><title>Node3&#45;&gt;Node2</title>
<path fill="none" stroke="midnightblue" d="M143.799,-393.648C135.95,-379.448 128.107,-365.258 120.91,-352.235"/>
<polygon fill="none" stroke="midnightblue" points="140.78,-395.422 148.681,-402.481 146.907,-392.035 140.78,-395.422"/>
</g>
<!-- Node7 -->
<g id="node7" class="node"><title>Node7</title>
<g id="a_node7"><a xlink:href="class_hydro_couple_1_1_spatial_1_1_i_polyhedral_surface_component_data_item.html" target="_top" xlink:title="IPolyhedralSurfaceComponentItem represents IPolyhedralSurface IComponentItem. ">
<polygon fill="none" stroke="black" points="195.996,-221.52 195.996,-365.534 422.03,-365.534 422.03,-221.52 195.996,-221.52"/>
<text text-anchor="start" x="203.996" y="-353.534" font-family="Monaco" font-size="10.00">HydroCouple::Spatial</text>
<text text-anchor="start" x="203.996" y="-340.199" font-family="Monaco" font-size="10.00">::IPolyhedralSurfaceComponent</text>
<text text-anchor="middle" x="309.013" y="-326.864" font-family="Monaco" font-size="10.00">DataItem</text>
<polyline fill="none" stroke="black" points="195.996,-317.529 422.03,-317.529 "/>
<text text-anchor="middle" x="309.013" y="-305.529" font-family="Monaco" font-size="10.00"> </text>
<polyline fill="none" stroke="black" points="195.996,-296.194 422.03,-296.194 "/>
<text text-anchor="start" x="203.996" y="-284.194" font-family="Monaco" font-size="10.00">+ ~IPolyhedralSurfaceComponent</text>
<text text-anchor="start" x="203.996" y="-270.859" font-family="Monaco" font-size="10.00">DataItem()</text>
<text text-anchor="start" x="203.996" y="-257.524" font-family="Monaco" font-size="10.00">+ polyhedralSurface()</text>
<text text-anchor="start" x="203.996" y="-244.189" font-family="Monaco" font-size="10.00">+ polygon()</text>
<text text-anchor="start" x="203.996" y="-230.854" font-family="Monaco" font-size="10.00">+ polyhedralSurfacePatchDimension()</text>
</a>
</g>
</g>
<!-- Node3&#45;&gt;Node7 -->
<g id="edge7" class="edge"><title>Node3&#45;&gt;Node7</title>
<path fill="none" stroke="midnightblue" d="M254.33,-393.463C259.534,-384.048 264.734,-374.639 269.744,-365.575"/>
<polygon fill="none" stroke="midnightblue" points="251.12,-392.035 249.345,-402.481 257.246,-395.422 251.12,-392.035"/>
</g>
<!-- Node4 -->
<g id="node4" class="node"><title>Node4</title>
<g id="a_node4"><a xlink:href="class_hydro_couple_1_1_i_identity.html" target="_top" xlink:title="IIdentity interface class defines a method to get the Id of an HydroCouple entity. ">
<polygon fill="none" stroke="black" points="125.002,-623.554 125.002,-700.894 273.024,-700.894 273.024,-623.554 125.002,-623.554"/>
<text text-anchor="middle" x="199.013" y="-688.894" font-family="Monaco" font-size="10.00">HydroCouple::IIdentity</text>
<polyline fill="none" stroke="black" points="125.002,-679.559 273.024,-679.559 "/>
<text text-anchor="middle" x="199.013" y="-667.559" font-family="Monaco" font-size="10.00"> </text>
<polyline fill="none" stroke="black" points="125.002,-658.224 273.024,-658.224 "/>
<text text-anchor="start" x="133.002" y="-646.224" font-family="Monaco" font-size="10.00">+ ~IIdentity()</text>
<text text-anchor="start" x="133.002" y="-632.889" font-family="Monaco" font-size="10.00">+ id()</text>
</a>
</g>
</g>
<!-- Node4&#45;&gt;Node3 -->
<g id="edge3" class="edge"><title>Node4&#45;&gt;Node3</title>
<path fill="none" stroke="midnightblue" d="M199.013,-612.971C199.013,-604.618 199.013,-595.693 199.013,-586.635"/>
<polygon fill="none" stroke="midnightblue" points="195.513,-613.213 199.013,-623.213 202.513,-613.213 195.513,-613.213"/>
</g>
<!-- Node5 -->
<g id="node5" class="node"><title>Node5</title>
<g id="a_node5"><a xlink:href="class_hydro_couple_1_1_i_description.html" target="_top" xlink:title="IDescription interface class provides descriptive information on a HydroCouple object. ">
<polygon fill="none" stroke="black" points="116.001,-737.894 116.001,-855.238 282.025,-855.238 282.025,-737.894 116.001,-737.894"/>
<text text-anchor="middle" x="199.013" y="-843.238" font-family="Monaco" font-size="10.00">HydroCouple::IDescription</text>
<polyline fill="none" stroke="black" points="116.001,-833.903 282.025,-833.903 "/>
<text text-anchor="middle" x="199.013" y="-821.903" font-family="Monaco" font-size="10.00"> </text>
<polyline fill="none" stroke="black" points="116.001,-812.568 282.025,-812.568 "/>
<text text-anchor="start" x="124.001" y="-800.568" font-family="Monaco" font-size="10.00">+ ~IDescription()</text>
<text text-anchor="start" x="124.001" y="-787.233" font-family="Monaco" font-size="10.00">+ caption()</text>
<text text-anchor="start" x="124.001" y="-773.898" font-family="Monaco" font-size="10.00">+ setCaption()</text>
<text text-anchor="start" x="124.001" y="-760.563" font-family="Monaco" font-size="10.00">+ description()</text>
<text text-anchor="start" x="124.001" y="-747.229" font-family="Monaco" font-size="10.00">+ setDescription()</text>
</a>
</g>
</g>
<!-- Node5&#45;&gt;Node4 -->
<g id="edge4" class="edge"><title>Node5&#45;&gt;Node4</title>
<path fill="none" stroke="midnightblue" d="M199.013,-727.328C199.013,-718.289 199.013,-709.301 199.013,-701.041"/>
<polygon fill="none" stroke="midnightblue" points="195.513,-727.519 199.013,-737.519 202.513,-727.519 195.513,-727.519"/>
</g>
<!-- Node6 -->
<g id="node6" class="node"><title>Node6</title>
<g id="a_node6"><a xlink:href="class_hydro_couple_1_1_i_property_changed.html" target="_top" xlink:title="IPropertyChanged interface is used to emit signal/event when a property of an object changes...">
<polygon fill="none" stroke="black" points="103.999,-892.238 103.999,-956.243 294.027,-956.243 294.027,-892.238 103.999,-892.238"/>
<text text-anchor="middle" x="199.013" y="-944.243" font-family="Monaco" font-size="10.00">HydroCouple::IPropertyChanged</text>
<polyline fill="none" stroke="black" points="103.999,-934.908 294.027,-934.908 "/>
<text text-anchor="middle" x="199.013" y="-922.908" font-family="Monaco" font-size="10.00"> </text>
<polyline fill="none" stroke="black" points="103.999,-913.573 294.027,-913.573 "/>
<text text-anchor="start" x="111.999" y="-901.573" font-family="Monaco" font-size="10.00">+ ~IPropertyChanged()</text>
</a>
</g>
</g>
<!-- Node6&#45;&gt;Node5 -->
<g id="edge5" class="edge"><title>Node6&#45;&gt;Node5</title>
<path fill="none" stroke="midnightblue" d="M199.013,-881.918C199.013,-873.533 199.013,-864.566 199.013,-855.724"/>
<polygon fill="none" stroke="midnightblue" points="195.513,-882.175 199.013,-892.175 202.513,-882.175 195.513,-882.175"/>
</g>
<!-- Node7&#45;&gt;Node1 -->
<g id="edge6" class="edge"><title>Node7&#45;&gt;Node1</title>
<path fill="none" stroke="midnightblue" d="M264.657,-212.275C259.655,-203.226 254.531,-193.956 249.46,-184.78"/>
<polygon fill="none" stroke="midnightblue" points="261.711,-214.18 269.611,-221.239 267.837,-210.794 261.711,-214.18"/>
</g>
</g>
</svg>
