<?xml version="1.0" encoding="UTF-8" standalone="no"?>
<!DOCTYPE svg PUBLIC "-//W3C//DTD SVG 1.1//EN"
 "http://www.w3.org/Graphics/SVG/1.1/DTD/svg11.dtd">
<!-- Generated by graphviz version 2.38.0 (20140413.2041)
 -->
<!-- Title: HydroCouple::Spatial::IGeometryArgument Pages: 1 -->
<svg width="394pt" height="911pt"
 viewBox="0.00 0.00 394.03 911.40" xmlns="http://www.w3.org/2000/svg" xmlns:xlink="http://www.w3.org/1999/xlink">
<g id="graph0" class="graph" transform="scale(1 1) rotate(0) translate(4 907.403)">
<title>HydroCouple::Spatial::IGeometryArgument</title>
<!-- Node1 -->
<g id="node1" class="node"><title>Node1</title>
<polygon fill="#bfbfbf" stroke="black" points="110.001,-0.5 110.001,-77.8398 258.023,-77.8398 258.023,-0.5 110.001,-0.5"/>
<text text-anchor="start" x="118.001" y="-65.8398" font-family="Monaco" font-size="10.00">HydroCouple::Spatial</text>
<text text-anchor="middle" x="184.012" y="-52.5049" font-family="Monaco" font-size="10.00">::IGeometryArgument</text>
<polyline fill="none" stroke="black" points="110.001,-43.1699 258.023,-43.1699 "/>
<text text-anchor="middle" x="184.012" y="-31.1699" font-family="Monaco" font-size="10.00"> </text>
<polyline fill="none" stroke="black" points="110.001,-21.835 258.023,-21.835 "/>
<text text-anchor="start" x="118.001" y="-9.83496" font-family="Monaco" font-size="10.00">+ ~IGeometryArgument()</text>
</g>
<!-- Node2 -->
<g id="node2" class="node"><title>Node2</title>
<g id="a_node2"><a xlink:href="class_hydro_couple_1_1_i_argument.html" target="_top" xlink:title="IArgument interface class used to set the arguments for components. They can be complex or simple mul...">
<polygon fill="none" stroke="black" points="0,-121.507 0,-305.527 166.024,-305.527 166.024,-121.507 0,-121.507"/>
<text text-anchor="middle" x="83.0122" y="-293.527" font-family="Monaco" font-size="10.00">HydroCouple::IArgument</text>
<polyline fill="none" stroke="black" points="0,-284.192 166.024,-284.192 "/>
<text text-anchor="middle" x="83.0122" y="-272.192" font-family="Monaco" font-size="10.00"> </text>
<polyline fill="none" stroke="black" points="0,-262.857 166.024,-262.857 "/>
<text text-anchor="start" x="8" y="-250.857" font-family="Monaco" font-size="10.00">+ ~IArgument()</text>
<text text-anchor="start" x="8" y="-237.522" font-family="Monaco" font-size="10.00">+ isOptional()</text>
<text text-anchor="start" x="8" y="-224.187" font-family="Monaco" font-size="10.00">+ isReadOnly()</text>
<text text-anchor="start" x="8" y="-210.852" font-family="Monaco" font-size="10.00">+ toString()</text>
<text text-anchor="start" x="8" y="-197.517" font-family="Monaco" font-size="10.00">+ inputFileTypeFilters()</text>
<text text-anchor="start" x="8" y="-184.182" font-family="Monaco" font-size="10.00">+ canReadFromFile()</text>
<text text-anchor="start" x="8" y="-170.847" font-family="Monaco" font-size="10.00">+ canReadFromString()</text>
<text text-anchor="start" x="8" y="-157.512" font-family="Monaco" font-size="10.00">+ currentArgumentIOType()</text>
<text text-anchor="start" x="8" y="-144.177" font-family="Monaco" font-size="10.00">+ readValues()</text>
<text text-anchor="start" x="8" y="-130.842" font-family="Monaco" font-size="10.00">+ readValues()</text>
</a>
</g>
</g>
<!-- Node2&#45;&gt;Node1 -->
<g id="edge1" class="edge"><title>Node2&#45;&gt;Node1</title>
<path fill="none" stroke="midnightblue" d="M141.715,-112.347C148.874,-100.129 155.808,-88.2973 161.92,-77.8691"/>
<polygon fill="none" stroke="midnightblue" points="138.506,-110.9 136.47,-121.297 144.545,-114.439 138.506,-110.9"/>
</g>
<!-- Node3 -->
<g id="node3" class="node"><title>Node3</title>
<g id="a_node3"><a xlink:href="class_hydro_couple_1_1_i_component_data_item.html" target="_top" xlink:title="IComponentItem is a fundamental unit of data for a component. ">
<polygon fill="none" stroke="black" points="82.9971,-349.194 82.9971,-533.214 285.027,-533.214 285.027,-349.194 82.9971,-349.194"/>
<text text-anchor="middle" x="184.012" y="-521.214" font-family="Monaco" font-size="10.00">HydroCouple::IComponentDataItem</text>
<polyline fill="none" stroke="black" points="82.9971,-511.879 285.027,-511.879 "/>
<text text-anchor="middle" x="184.012" y="-499.879" font-family="Monaco" font-size="10.00"> </text>
<polyline fill="none" stroke="black" points="82.9971,-490.544 285.027,-490.544 "/>
<text text-anchor="start" x="90.9971" y="-478.544" font-family="Monaco" font-size="10.00">+ ~IComponentDataItem()</text>
<text text-anchor="start" x="90.9971" y="-465.209" font-family="Monaco" font-size="10.00">+ modelComponent()</text>
<text text-anchor="start" x="90.9971" y="-451.874" font-family="Monaco" font-size="10.00">+ dimensions()</text>
<text text-anchor="start" x="90.9971" y="-438.539" font-family="Monaco" font-size="10.00">+ valueDefinition()</text>
<text text-anchor="start" x="90.9971" y="-425.204" font-family="Monaco" font-size="10.00">+ getValue()</text>
<text text-anchor="start" x="90.9971" y="-411.869" font-family="Monaco" font-size="10.00">+ getValues()</text>
<text text-anchor="start" x="90.9971" y="-398.534" font-family="Monaco" font-size="10.00">+ getValues()</text>
<text text-anchor="start" x="90.9971" y="-385.199" font-family="Monaco" font-size="10.00">+ setValue()</text>
<text text-anchor="start" x="90.9971" y="-371.864" font-family="Monaco" font-size="10.00">+ setValues()</text>
<text text-anchor="start" x="90.9971" y="-358.529" font-family="Monaco" font-size="10.00">+ setValues()</text>
</a>
</g>
</g>
<!-- Node3&#45;&gt;Node2 -->
<g id="edge2" class="edge"><title>Node3&#45;&gt;Node2</title>
<path fill="none" stroke="midnightblue" d="M138.993,-339.607C133.93,-328.295 128.794,-316.817 123.79,-305.635"/>
<polygon fill="none" stroke="midnightblue" points="135.943,-341.361 143.223,-349.059 142.333,-338.502 135.943,-341.361"/>
</g>
<!-- Node7 -->
<g id="node7" class="node"><title>Node7</title>
<g id="a_node7"><a xlink:href="class_hydro_couple_1_1_spatial_1_1_i_geometry_component_data_item.html" target="_top" xlink:title="IGeometryComponentItem represents IGeometryCollection IComponentItem. This class must be implemented ...">
<polygon fill="none" stroke="black" points="183.997,-114.84 183.997,-312.194 386.027,-312.194 386.027,-114.84 183.997,-114.84"/>
<text text-anchor="start" x="191.997" y="-300.194" font-family="Monaco" font-size="10.00">HydroCouple::Spatial</text>
<text text-anchor="middle" x="285.012" y="-286.859" font-family="Monaco" font-size="10.00">::IGeometryComponentDataItem</text>
<polyline fill="none" stroke="black" points="183.997,-277.524 386.027,-277.524 "/>
<text text-anchor="middle" x="285.012" y="-265.524" font-family="Monaco" font-size="10.00"> </text>
<polyline fill="none" stroke="black" points="183.997,-256.189 386.027,-256.189 "/>
<text text-anchor="start" x="191.997" y="-244.189" font-family="Monaco" font-size="10.00">+ ~IGeometryComponentDataItem()</text>
<text text-anchor="start" x="191.997" y="-230.854" font-family="Monaco" font-size="10.00">+ geometryCollection()</text>
<text text-anchor="start" x="191.997" y="-217.52" font-family="Monaco" font-size="10.00">+ geometry()</text>
<text text-anchor="start" x="191.997" y="-204.185" font-family="Monaco" font-size="10.00">+ geometryDimension()</text>
<text text-anchor="start" x="191.997" y="-190.85" font-family="Monaco" font-size="10.00">+ getValue()</text>
<text text-anchor="start" x="191.997" y="-177.515" font-family="Monaco" font-size="10.00">+ getValues()</text>
<text text-anchor="start" x="191.997" y="-164.18" font-family="Monaco" font-size="10.00">+ getValues()</text>
<text text-anchor="start" x="191.997" y="-150.845" font-family="Monaco" font-size="10.00">+ setValue()</text>
<text text-anchor="start" x="191.997" y="-137.51" font-family="Monaco" font-size="10.00">+ setValues()</text>
<text text-anchor="start" x="191.997" y="-124.175" font-family="Monaco" font-size="10.00">+ setValues()</text>
</a>
</g>
</g>
<!-- Node3&#45;&gt;Node7 -->
<g id="edge7" class="edge"><title>Node3&#45;&gt;Node7</title>
<path fill="none" stroke="midnightblue" d="M228.892,-339.92C233.003,-330.734 237.164,-321.435 241.265,-312.272"/>
<polygon fill="none" stroke="midnightblue" points="225.692,-338.502 224.802,-349.059 232.081,-341.361 225.692,-338.502"/>
</g>
<!-- Node4 -->
<g id="node4" class="node"><title>Node4</title>
<g id="a_node4"><a xlink:href="class_hydro_couple_1_1_i_identity.html" target="_top" xlink:title="IIdentity interface class defines a method to get the Id of an HydroCouple entity. ">
<polygon fill="none" stroke="black" points="110.001,-570.214 110.001,-647.554 258.023,-647.554 258.023,-570.214 110.001,-570.214"/>
<text text-anchor="middle" x="184.012" y="-635.554" font-family="Monaco" font-size="10.00">HydroCouple::IIdentity</text>
<polyline fill="none" stroke="black" points="110.001,-626.219 258.023,-626.219 "/>
<text text-anchor="middle" x="184.012" y="-614.219" font-family="Monaco" font-size="10.00"> </text>
<polyline fill="none" stroke="black" points="110.001,-604.884 258.023,-604.884 "/>
<text text-anchor="start" x="118.001" y="-592.884" font-family="Monaco" font-size="10.00">+ ~IIdentity()</text>
<text text-anchor="start" x="118.001" y="-579.549" font-family="Monaco" font-size="10.00">+ id()</text>
</a>
</g>
</g>
<!-- Node4&#45;&gt;Node3 -->
<g id="edge3" class="edge"><title>Node4&#45;&gt;Node3</title>
<path fill="none" stroke="midnightblue" d="M184.012,-559.632C184.012,-551.278 184.012,-542.353 184.012,-533.295"/>
<polygon fill="none" stroke="midnightblue" points="180.512,-559.873 184.012,-569.874 187.512,-559.874 180.512,-559.873"/>
</g>
<!-- Node5 -->
<g id="node5" class="node"><title>Node5</title>
<g id="a_node5"><a xlink:href="class_hydro_couple_1_1_i_description.html" target="_top" xlink:title="IDescription interface class provides descriptive information on a HydroCouple object. ">
<polygon fill="none" stroke="black" points="101,-684.554 101,-801.898 267.024,-801.898 267.024,-684.554 101,-684.554"/>
<text text-anchor="middle" x="184.012" y="-789.898" font-family="Monaco" font-size="10.00">HydroCouple::IDescription</text>
<polyline fill="none" stroke="black" points="101,-780.563 267.024,-780.563 "/>
<text text-anchor="middle" x="184.012" y="-768.563" font-family="Monaco" font-size="10.00"> </text>
<polyline fill="none" stroke="black" points="101,-759.229 267.024,-759.229 "/>
<text text-anchor="start" x="109" y="-747.229" font-family="Monaco" font-size="10.00">+ ~IDescription()</text>
<text text-anchor="start" x="109" y="-733.894" font-family="Monaco" font-size="10.00">+ caption()</text>
<text text-anchor="start" x="109" y="-720.559" font-family="Monaco" font-size="10.00">+ setCaption()</text>
<text text-anchor="start" x="109" y="-707.224" font-family="Monaco" font-size="10.00">+ description()</text>
<text text-anchor="start" x="109" y="-693.889" font-family="Monaco" font-size="10.00">+ setDescription()</text>
</a>
</g>
</g>
<!-- Node5&#45;&gt;Node4 -->
<g id="edge4" class="edge"><title>Node5&#45;&gt;Node4</title>
<path fill="none" stroke="midnightblue" d="M184.012,-673.988C184.012,-664.949 184.012,-655.962 184.012,-647.701"/>
<polygon fill="none" stroke="midnightblue" points="180.512,-674.179 184.012,-684.179 187.512,-674.179 180.512,-674.179"/>
</g>
<!-- Node6 -->
<g id="node6" class="node"><title>Node6</title>
<g id="a_node6"><a xlink:href="class_hydro_couple_1_1_i_property_changed.html" target="_top" xlink:title="IPropertyChanged interface is used to emit signal/event when a property of an object changes...">
<polygon fill="none" stroke="black" points="88.998,-838.898 88.998,-902.903 279.026,-902.903 279.026,-838.898 88.998,-838.898"/>
<text text-anchor="middle" x="184.012" y="-890.903" font-family="Monaco" font-size="10.00">HydroCouple::IPropertyChanged</text>
<polyline fill="none" stroke="black" points="88.998,-881.568 279.026,-881.568 "/>
<text text-anchor="middle" x="184.012" y="-869.568" font-family="Monaco" font-size="10.00"> </text>
<polyline fill="none" stroke="black" points="88.998,-860.233 279.026,-860.233 "/>
<text text-anchor="start" x="96.998" y="-848.233" font-family="Monaco" font-size="10.00">+ ~IPropertyChanged()</text>
</a>
</g>
</g>
<!-- Node6&#45;&gt;Node5 -->
<g id="edge5" class="edge"><title>Node6&#45;&gt;Node5</title>
<path fill="none" stroke="midnightblue" d="M184.012,-828.578C184.012,-820.193 184.012,-811.227 184.012,-802.384"/>
<polygon fill="none" stroke="midnightblue" points="180.512,-828.835 184.012,-838.835 187.512,-828.835 180.512,-828.835"/>
</g>
<!-- Node7&#45;&gt;Node1 -->
<g id="edge6" class="edge"><title>Node7&#45;&gt;Node1</title>
<path fill="none" stroke="midnightblue" d="M222.561,-105.95C216.741,-96.0183 211.146,-86.4704 206.109,-77.8757"/>
<polygon fill="none" stroke="midnightblue" points="219.649,-107.903 227.725,-114.762 225.688,-104.364 219.649,-107.903"/>
</g>
</g>
</svg>
