<?xml version="1.0" encoding="UTF-8" standalone="no"?>
<!DOCTYPE svg PUBLIC "-//W3C//DTD SVG 1.1//EN"
 "http://www.w3.org/Graphics/SVG/1.1/DTD/svg11.dtd">
<!-- Generated by graphviz version 2.38.0 (20140413.2041)
 -->
<!-- Title: HydroCouple::IAdaptedOutput Pages: 1 -->
<svg width="210pt" height="1026pt"
 viewBox="0.00 0.00 210.03 1025.74" xmlns="http://www.w3.org/2000/svg" xmlns:xlink="http://www.w3.org/1999/xlink">
<g id="graph0" class="graph" transform="scale(1 1) rotate(0) translate(4 1021.74)">
<title>HydroCouple::IAdaptedOutput</title>
<!-- Node1 -->
<g id="node1" class="node"><title>Node1</title>
<polygon fill="#bfbfbf" stroke="black" points="12.002,-0.5 12.002,-131.18 190.028,-131.18 190.028,-0.5 12.002,-0.5"/>
<text text-anchor="middle" x="101.015" y="-119.18" font-family="Monaco" font-size="10.00">HydroCouple::IAdaptedOutput</text>
<polyline fill="none" stroke="black" points="12.002,-109.845 190.028,-109.845 "/>
<text text-anchor="middle" x="101.015" y="-97.8447" font-family="Monaco" font-size="10.00"> </text>
<polyline fill="none" stroke="black" points="12.002,-88.5098 190.028,-88.5098 "/>
<text text-anchor="start" x="20.002" y="-76.5098" font-family="Monaco" font-size="10.00">+ ~IAdaptedOutput()</text>
<text text-anchor="start" x="20.002" y="-63.1748" font-family="Monaco" font-size="10.00">+ adaptedOutputFactory()</text>
<text text-anchor="start" x="20.002" y="-49.8398" font-family="Monaco" font-size="10.00">+ arguments()</text>
<text text-anchor="start" x="20.002" y="-36.5049" font-family="Monaco" font-size="10.00">+ initialize()</text>
<text text-anchor="start" x="20.002" y="-23.1699" font-family="Monaco" font-size="10.00">+ adaptee()</text>
<text text-anchor="start" x="20.002" y="-9.83496" font-family="Monaco" font-size="10.00">+ refresh()</text>
</g>
<!-- Node2 -->
<g id="node2" class="node"><title>Node2</title>
<g id="a_node2"><a xlink:href="class_hydro_couple_1_1_i_output.html" target="_top" xlink:title="An output exchange item that can deliver values from an IModelComponent. ">
<polygon fill="none" stroke="black" points="24.0039,-168.18 24.0039,-325.529 178.026,-325.529 178.026,-168.18 24.0039,-168.18"/>
<text text-anchor="middle" x="101.015" y="-313.529" font-family="Monaco" font-size="10.00">HydroCouple::IOutput</text>
<polyline fill="none" stroke="black" points="24.0039,-304.194 178.026,-304.194 "/>
<text text-anchor="middle" x="101.015" y="-292.194" font-family="Monaco" font-size="10.00"> </text>
<polyline fill="none" stroke="black" points="24.0039,-282.859 178.026,-282.859 "/>
<text text-anchor="start" x="32.0039" y="-270.859" font-family="Monaco" font-size="10.00">+ ~IOutput()</text>
<text text-anchor="start" x="32.0039" y="-257.524" font-family="Monaco" font-size="10.00">+ consumers()</text>
<text text-anchor="start" x="32.0039" y="-244.189" font-family="Monaco" font-size="10.00">+ addConsumer()</text>
<text text-anchor="start" x="32.0039" y="-230.854" font-family="Monaco" font-size="10.00">+ removeConsumer()</text>
<text text-anchor="start" x="32.0039" y="-217.52" font-family="Monaco" font-size="10.00">+ adaptedOutputs()</text>
<text text-anchor="start" x="32.0039" y="-204.185" font-family="Monaco" font-size="10.00">+ addAdaptedOutput()</text>
<text text-anchor="start" x="32.0039" y="-190.85" font-family="Monaco" font-size="10.00">+ removeAdaptedOutput()</text>
<text text-anchor="start" x="32.0039" y="-177.515" font-family="Monaco" font-size="10.00">+ update()</text>
</a>
</g>
</g>
<!-- Node2&#45;&gt;Node1 -->
<g id="edge1" class="edge"><title>Node2&#45;&gt;Node1</title>
<path fill="none" stroke="midnightblue" d="M101.015,-158.007C101.015,-149.026 101.015,-140.024 101.015,-131.361"/>
<polygon fill="none" stroke="midnightblue" points="97.5152,-158.117 101.015,-168.117 104.515,-158.117 97.5152,-158.117"/>
</g>
<!-- Node3 -->
<g id="node3" class="node"><title>Node3</title>
<g id="a_node3"><a xlink:href="class_hydro_couple_1_1_i_exchange_item.html" target="_top" xlink:title="IExchangeItem the base data item the can be exchanged between components at runtime. ">
<polygon fill="none" stroke="black" points="15.0024,-362.529 15.0024,-426.534 187.028,-426.534 187.028,-362.529 15.0024,-362.529"/>
<text text-anchor="middle" x="101.015" y="-414.534" font-family="Monaco" font-size="10.00">HydroCouple::IExchangeItem</text>
<polyline fill="none" stroke="black" points="15.0024,-405.199 187.028,-405.199 "/>
<text text-anchor="middle" x="101.015" y="-393.199" font-family="Monaco" font-size="10.00"> </text>
<polyline fill="none" stroke="black" points="15.0024,-383.864 187.028,-383.864 "/>
<text text-anchor="start" x="23.0024" y="-371.864" font-family="Monaco" font-size="10.00">+ ~IExchangeItem()</text>
</a>
</g>
</g>
<!-- Node3&#45;&gt;Node2 -->
<g id="edge2" class="edge"><title>Node3&#45;&gt;Node2</title>
<path fill="none" stroke="midnightblue" d="M101.015,-352.152C101.015,-343.837 101.015,-334.844 101.015,-325.746"/>
<polygon fill="none" stroke="midnightblue" points="97.5152,-352.28 101.015,-362.28 104.515,-352.28 97.5152,-352.28"/>
</g>
<!-- Node4 -->
<g id="node4" class="node"><title>Node4</title>
<g id="a_node4"><a xlink:href="class_hydro_couple_1_1_i_component_data_item.html" target="_top" xlink:title="IComponentItem is a fundamental unit of data for a component. ">
<polygon fill="none" stroke="black" points="0,-463.534 0,-647.554 202.03,-647.554 202.03,-463.534 0,-463.534"/>
<text text-anchor="middle" x="101.015" y="-635.554" font-family="Monaco" font-size="10.00">HydroCouple::IComponentDataItem</text>
<polyline fill="none" stroke="black" points="0,-626.219 202.03,-626.219 "/>
<text text-anchor="middle" x="101.015" y="-614.219" font-family="Monaco" font-size="10.00"> </text>
<polyline fill="none" stroke="black" points="0,-604.884 202.03,-604.884 "/>
<text text-anchor="start" x="8" y="-592.884" font-family="Monaco" font-size="10.00">+ ~IComponentDataItem()</text>
<text text-anchor="start" x="8" y="-579.549" font-family="Monaco" font-size="10.00">+ modelComponent()</text>
<text text-anchor="start" x="8" y="-566.214" font-family="Monaco" font-size="10.00">+ dimensions()</text>
<text text-anchor="start" x="8" y="-552.879" font-family="Monaco" font-size="10.00">+ valueDefinition()</text>
<text text-anchor="start" x="8" y="-539.544" font-family="Monaco" font-size="10.00">+ getValue()</text>
<text text-anchor="start" x="8" y="-526.209" font-family="Monaco" font-size="10.00">+ getValues()</text>
<text text-anchor="start" x="8" y="-512.874" font-family="Monaco" font-size="10.00">+ getValues()</text>
<text text-anchor="start" x="8" y="-499.539" font-family="Monaco" font-size="10.00">+ setValue()</text>
<text text-anchor="start" x="8" y="-486.204" font-family="Monaco" font-size="10.00">+ setValues()</text>
<text text-anchor="start" x="8" y="-472.869" font-family="Monaco" font-size="10.00">+ setValues()</text>
</a>
</g>
</g>
<!-- Node4&#45;&gt;Node3 -->
<g id="edge3" class="edge"><title>Node4&#45;&gt;Node3</title>
<path fill="none" stroke="midnightblue" d="M101.015,-453.343C101.015,-443.798 101.015,-434.705 101.015,-426.673"/>
<polygon fill="none" stroke="midnightblue" points="97.5152,-453.428 101.015,-463.428 104.515,-453.428 97.5152,-453.428"/>
</g>
<!-- Node5 -->
<g id="node5" class="node"><title>Node5</title>
<g id="a_node5"><a xlink:href="class_hydro_couple_1_1_i_identity.html" target="_top" xlink:title="IIdentity interface class defines a method to get the Id of an HydroCouple entity. ">
<polygon fill="none" stroke="black" points="27.0044,-684.554 27.0044,-761.894 175.026,-761.894 175.026,-684.554 27.0044,-684.554"/>
<text text-anchor="middle" x="101.015" y="-749.894" font-family="Monaco" font-size="10.00">HydroCouple::IIdentity</text>
<polyline fill="none" stroke="black" points="27.0044,-740.559 175.026,-740.559 "/>
<text text-anchor="middle" x="101.015" y="-728.559" font-family="Monaco" font-size="10.00"> </text>
<polyline fill="none" stroke="black" points="27.0044,-719.224 175.026,-719.224 "/>
<text text-anchor="start" x="35.0044" y="-707.224" font-family="Monaco" font-size="10.00">+ ~IIdentity()</text>
<text text-anchor="start" x="35.0044" y="-693.889" font-family="Monaco" font-size="10.00">+ id()</text>
</a>
</g>
</g>
<!-- Node5&#45;&gt;Node4 -->
<g id="edge4" class="edge"><title>Node5&#45;&gt;Node4</title>
<path fill="none" stroke="midnightblue" d="M101.015,-673.971C101.015,-665.618 101.015,-656.693 101.015,-647.635"/>
<polygon fill="none" stroke="midnightblue" points="97.5152,-674.213 101.015,-684.213 104.515,-674.213 97.5152,-674.213"/>
</g>
<!-- Node6 -->
<g id="node6" class="node"><title>Node6</title>
<g id="a_node6"><a xlink:href="class_hydro_couple_1_1_i_description.html" target="_top" xlink:title="IDescription interface class provides descriptive information on a HydroCouple object. ">
<polygon fill="none" stroke="black" points="18.0029,-798.894 18.0029,-916.238 184.027,-916.238 184.027,-798.894 18.0029,-798.894"/>
<text text-anchor="middle" x="101.015" y="-904.238" font-family="Monaco" font-size="10.00">HydroCouple::IDescription</text>
<polyline fill="none" stroke="black" points="18.0029,-894.903 184.027,-894.903 "/>
<text text-anchor="middle" x="101.015" y="-882.903" font-family="Monaco" font-size="10.00"> </text>
<polyline fill="none" stroke="black" points="18.0029,-873.568 184.027,-873.568 "/>
<text text-anchor="start" x="26.0029" y="-861.568" font-family="Monaco" font-size="10.00">+ ~IDescription()</text>
<text text-anchor="start" x="26.0029" y="-848.233" font-family="Monaco" font-size="10.00">+ caption()</text>
<text text-anchor="start" x="26.0029" y="-834.898" font-family="Monaco" font-size="10.00">+ setCaption()</text>
<text text-anchor="start" x="26.0029" y="-821.563" font-family="Monaco" font-size="10.00">+ description()</text>
<text text-anchor="start" x="26.0029" y="-808.229" font-family="Monaco" font-size="10.00">+ setDescription()</text>
</a>
</g>
</g>
<!-- Node6&#45;&gt;Node5 -->
<g id="edge5" class="edge"><title>Node6&#45;&gt;Node5</title>
<path fill="none" stroke="midnightblue" d="M101.015,-788.328C101.015,-779.289 101.015,-770.301 101.015,-762.041"/>
<polygon fill="none" stroke="midnightblue" points="97.5152,-788.519 101.015,-798.519 104.515,-788.519 97.5152,-788.519"/>
</g>
<!-- Node7 -->
<g id="node7" class="node"><title>Node7</title>
<g id="a_node7"><a xlink:href="class_hydro_couple_1_1_i_property_changed.html" target="_top" xlink:title="IPropertyChanged interface is used to emit signal/event when a property of an object changes...">
<polygon fill="none" stroke="black" points="6.00098,-953.238 6.00098,-1017.24 196.029,-1017.24 196.029,-953.238 6.00098,-953.238"/>
<text text-anchor="middle" x="101.015" y="-1005.24" font-family="Monaco" font-size="10.00">HydroCouple::IPropertyChanged</text>
<polyline fill="none" stroke="black" points="6.00098,-995.908 196.029,-995.908 "/>
<text text-anchor="middle" x="101.015" y="-983.908" font-family="Monaco" font-size="10.00"> </text>
<polyline fill="none" stroke="black" points="6.00098,-974.573 196.029,-974.573 "/>
<text text-anchor="start" x="14.001" y="-962.573" font-family="Monaco" font-size="10.00">+ ~IPropertyChanged()</text>
</a>
</g>
</g>
<!-- Node7&#45;&gt;Node6 -->
<g id="edge6" class="edge"><title>Node7&#45;&gt;Node6</title>
<path fill="none" stroke="midnightblue" d="M101.015,-942.918C101.015,-934.533 101.015,-925.566 101.015,-916.724"/>
<polygon fill="none" stroke="midnightblue" points="97.5152,-943.175 101.015,-953.175 104.515,-943.175 97.5152,-943.175"/>
</g>
</g>
</svg>
