<?xml version="1.0" encoding="UTF-8" standalone="no"?>
<!DOCTYPE svg PUBLIC "-//W3C//DTD SVG 1.1//EN"
 "http://www.w3.org/Graphics/SVG/1.1/DTD/svg11.dtd">
<!-- Generated by graphviz version 2.38.0 (20140413.2041)
 -->
<!-- Title: HydroCouple::Data::IExchangeItem Pages: 1 -->
<svg width="264pt" height="859pt"
 viewBox="0.00 0.00 264.25 859.00" xmlns="http://www.w3.org/2000/svg" xmlns:xlink="http://www.w3.org/1999/xlink">
<g id="graph0" class="graph" transform="scale(1 1) rotate(0) translate(4 855)">
<title>HydroCouple::Data::IExchangeItem</title>
<polygon fill="white" stroke="none" points="-4,4 -4,-855 260.25,-855 260.25,4 -4,4"/>
<!-- Node1 -->
<g id="node1" class="node"><title>Node1</title>
<polygon fill="#bfbfbf" stroke="black" points="68,-332.5 68,-406.5 174.601,-406.5 174.601,-332.5 68,-332.5"/>
<text text-anchor="start" x="76" y="-394.5" font-family="Helvetica,sans-Serif" font-size="10.00">HydroCouple::Data::</text>
<text text-anchor="middle" x="121.3" y="-384.5" font-family="Helvetica,sans-Serif" font-size="10.00">IExchangeItem</text>
<polyline fill="none" stroke="black" points="68,-378.5 174.601,-378.5 "/>
<text text-anchor="middle" x="121.3" y="-366.5" font-family="Helvetica,sans-Serif" font-size="10.00"> </text>
<polyline fill="none" stroke="black" points="68,-360.5 174.601,-360.5 "/>
<text text-anchor="start" x="76" y="-348.5" font-family="Helvetica,sans-Serif" font-size="10.00">+ ~IExchangeItem()</text>
<text text-anchor="start" x="76" y="-338.5" font-family="Helvetica,sans-Serif" font-size="10.00">+ itemChanged()</text>
</g>
<!-- Node6 -->
<g id="node6" class="node"><title>Node6</title>
<g id="a_node6"><a xlink:href="class_hydro_couple_1_1_data_1_1_i_input.html" target="_top" xlink:title="An IInput item that can accept values for an IModelComponent. ">
<polygon fill="white" stroke="black" points="0,-181.5 0,-275.5 106.601,-275.5 106.601,-181.5 0,-181.5"/>
<text text-anchor="start" x="8" y="-263.5" font-family="Helvetica,sans-Serif" font-size="10.00">HydroCouple::Data::</text>
<text text-anchor="middle" x="53.3003" y="-253.5" font-family="Helvetica,sans-Serif" font-size="10.00">IInput</text>
<polyline fill="none" stroke="black" points="0,-247.5 106.601,-247.5 "/>
<text text-anchor="middle" x="53.3003" y="-235.5" font-family="Helvetica,sans-Serif" font-size="10.00"> </text>
<polyline fill="none" stroke="black" points="0,-229.5 106.601,-229.5 "/>
<text text-anchor="start" x="8" y="-217.5" font-family="Helvetica,sans-Serif" font-size="10.00">+ ~IInput()</text>
<text text-anchor="start" x="8" y="-207.5" font-family="Helvetica,sans-Serif" font-size="10.00">+ getProvider()</text>
<text text-anchor="start" x="8" y="-197.5" font-family="Helvetica,sans-Serif" font-size="10.00">+ setProvider()</text>
<text text-anchor="start" x="8" y="-187.5" font-family="Helvetica,sans-Serif" font-size="10.00">+ canConsume()</text>
</a>
</g>
</g>
<!-- Node1&#45;&gt;Node6 -->
<g id="edge5" class="edge"><title>Node1&#45;&gt;Node6</title>
<path fill="none" stroke="midnightblue" d="M99.1077,-323.136C91.6713,-307.935 83.3745,-290.975 75.9068,-275.71"/>
<polygon fill="none" stroke="midnightblue" points="96.0732,-324.898 103.612,-332.342 102.361,-321.821 96.0732,-324.898"/>
</g>
<!-- Node7 -->
<g id="node7" class="node"><title>Node7</title>
<g id="a_node7"><a xlink:href="class_hydro_couple_1_1_data_1_1_i_output.html" target="_top" xlink:title="An output exchange item that can deliver values from an IModelComponent. ">
<polygon fill="white" stroke="black" points="124.351,-161.5 124.351,-295.5 256.25,-295.5 256.25,-161.5 124.351,-161.5"/>
<text text-anchor="start" x="132.351" y="-283.5" font-family="Helvetica,sans-Serif" font-size="10.00">HydroCouple::Data::</text>
<text text-anchor="middle" x="190.3" y="-273.5" font-family="Helvetica,sans-Serif" font-size="10.00">IOutput</text>
<polyline fill="none" stroke="black" points="124.351,-267.5 256.25,-267.5 "/>
<text text-anchor="middle" x="190.3" y="-255.5" font-family="Helvetica,sans-Serif" font-size="10.00"> </text>
<polyline fill="none" stroke="black" points="124.351,-249.5 256.25,-249.5 "/>
<text text-anchor="start" x="132.351" y="-237.5" font-family="Helvetica,sans-Serif" font-size="10.00">+ ~IOutput()</text>
<text text-anchor="start" x="132.351" y="-227.5" font-family="Helvetica,sans-Serif" font-size="10.00">+ consumers()</text>
<text text-anchor="start" x="132.351" y="-217.5" font-family="Helvetica,sans-Serif" font-size="10.00">+ addConsumer()</text>
<text text-anchor="start" x="132.351" y="-207.5" font-family="Helvetica,sans-Serif" font-size="10.00">+ removeConsumer()</text>
<text text-anchor="start" x="132.351" y="-197.5" font-family="Helvetica,sans-Serif" font-size="10.00">+ adaptedOutputs()</text>
<text text-anchor="start" x="132.351" y="-187.5" font-family="Helvetica,sans-Serif" font-size="10.00">+ addAdaptedOutput()</text>
<text text-anchor="start" x="132.351" y="-177.5" font-family="Helvetica,sans-Serif" font-size="10.00">+ removeAdaptedOutput()</text>
<text text-anchor="start" x="132.351" y="-167.5" font-family="Helvetica,sans-Serif" font-size="10.00">+ updateValues()</text>
</a>
</g>
</g>
<!-- Node1&#45;&gt;Node7 -->
<g id="edge6" class="edge"><title>Node1&#45;&gt;Node7</title>
<path fill="none" stroke="midnightblue" d="M143.71,-323.356C148.109,-314.495 152.808,-305.029 157.466,-295.645"/>
<polygon fill="none" stroke="midnightblue" points="140.561,-321.829 139.249,-332.342 146.831,-324.941 140.561,-321.829"/>
</g>
<!-- Node2 -->
<g id="node2" class="node"><title>Node2</title>
<g id="a_node2"><a xlink:href="class_hydro_couple_1_1_data_1_1_i_component_item.html" target="_top" xlink:title="IComponentItem is a fundamental unit of data for a component. ">
<polygon fill="white" stroke="black" points="65.7783,-443.5 65.7783,-527.5 176.822,-527.5 176.822,-443.5 65.7783,-443.5"/>
<text text-anchor="start" x="73.7783" y="-515.5" font-family="Helvetica,sans-Serif" font-size="10.00">HydroCouple::Data::</text>
<text text-anchor="middle" x="121.3" y="-505.5" font-family="Helvetica,sans-Serif" font-size="10.00">IComponentItem</text>
<polyline fill="none" stroke="black" points="65.7783,-499.5 176.822,-499.5 "/>
<text text-anchor="middle" x="121.3" y="-487.5" font-family="Helvetica,sans-Serif" font-size="10.00"> </text>
<polyline fill="none" stroke="black" points="65.7783,-481.5 176.822,-481.5 "/>
<text text-anchor="start" x="73.7783" y="-469.5" font-family="Helvetica,sans-Serif" font-size="10.00">+ ~IComponentItem()</text>
<text text-anchor="start" x="73.7783" y="-459.5" font-family="Helvetica,sans-Serif" font-size="10.00">+ modelComponent()</text>
<text text-anchor="start" x="73.7783" y="-449.5" font-family="Helvetica,sans-Serif" font-size="10.00">+ dimensions()</text>
</a>
</g>
</g>
<!-- Node2&#45;&gt;Node1 -->
<g id="edge1" class="edge"><title>Node2&#45;&gt;Node1</title>
<path fill="none" stroke="midnightblue" d="M121.3,-433.328C121.3,-424.341 121.3,-415.159 121.3,-406.688"/>
<polygon fill="none" stroke="midnightblue" points="117.8,-433.343 121.3,-443.343 124.8,-433.343 117.8,-433.343"/>
</g>
<!-- Node3 -->
<g id="node3" class="node"><title>Node3</title>
<g id="a_node3"><a xlink:href="class_hydro_couple_1_1_i_identity.html" target="_top" xlink:title="IIdentity interface class defines a method to get the Id of an HydroCouple entity. &#160;IIdentity extends the IDescription interface class, and therefore has, next to the id, a caption and a description. ">
<polygon fill="white" stroke="black" points="63.8301,-564.5 63.8301,-628.5 178.771,-628.5 178.771,-564.5 63.8301,-564.5"/>
<text text-anchor="middle" x="121.3" y="-616.5" font-family="Helvetica,sans-Serif" font-size="10.00">HydroCouple::IIdentity</text>
<polyline fill="none" stroke="black" points="63.8301,-610.5 178.771,-610.5 "/>
<text text-anchor="middle" x="121.3" y="-598.5" font-family="Helvetica,sans-Serif" font-size="10.00"> </text>
<polyline fill="none" stroke="black" points="63.8301,-592.5 178.771,-592.5 "/>
<text text-anchor="start" x="71.8301" y="-580.5" font-family="Helvetica,sans-Serif" font-size="10.00">+ ~IIdentity()</text>
<text text-anchor="start" x="71.8301" y="-570.5" font-family="Helvetica,sans-Serif" font-size="10.00">+ id()</text>
</a>
</g>
</g>
<!-- Node3&#45;&gt;Node2 -->
<g id="edge2" class="edge"><title>Node3&#45;&gt;Node2</title>
<path fill="none" stroke="midnightblue" d="M121.3,-554.263C121.3,-545.503 121.3,-536.255 121.3,-527.503"/>
<polygon fill="none" stroke="midnightblue" points="117.8,-554.265 121.3,-564.265 124.8,-554.265 117.8,-554.265"/>
</g>
<!-- Node4 -->
<g id="node4" class="node"><title>Node4</title>
<g id="a_node4"><a xlink:href="class_hydro_couple_1_1_i_description.html" target="_top" xlink:title="IDescription interface class provides descriptive information on a HydroCouple object. ">
<polygon fill="white" stroke="black" points="54.9409,-665.5 54.9409,-759.5 187.66,-759.5 187.66,-665.5 54.9409,-665.5"/>
<text text-anchor="middle" x="121.3" y="-747.5" font-family="Helvetica,sans-Serif" font-size="10.00">HydroCouple::IDescription</text>
<polyline fill="none" stroke="black" points="54.9409,-741.5 187.66,-741.5 "/>
<text text-anchor="middle" x="121.3" y="-729.5" font-family="Helvetica,sans-Serif" font-size="10.00"> </text>
<polyline fill="none" stroke="black" points="54.9409,-723.5 187.66,-723.5 "/>
<text text-anchor="start" x="62.9409" y="-711.5" font-family="Helvetica,sans-Serif" font-size="10.00">+ ~IDescription()</text>
<text text-anchor="start" x="62.9409" y="-701.5" font-family="Helvetica,sans-Serif" font-size="10.00">+ getCaption()</text>
<text text-anchor="start" x="62.9409" y="-691.5" font-family="Helvetica,sans-Serif" font-size="10.00">+ setCaption()</text>
<text text-anchor="start" x="62.9409" y="-681.5" font-family="Helvetica,sans-Serif" font-size="10.00">+ getDescription()</text>
<text text-anchor="start" x="62.9409" y="-671.5" font-family="Helvetica,sans-Serif" font-size="10.00">+ setDescription()</text>
</a>
</g>
</g>
<!-- Node4&#45;&gt;Node3 -->
<g id="edge3" class="edge"><title>Node4&#45;&gt;Node3</title>
<path fill="none" stroke="midnightblue" d="M121.3,-655.212C121.3,-646.081 121.3,-636.926 121.3,-628.684"/>
<polygon fill="none" stroke="midnightblue" points="117.8,-655.46 121.3,-665.46 124.8,-655.46 117.8,-655.46"/>
</g>
<!-- Node5 -->
<g id="node5" class="node"><title>Node5</title>
<g id="a_node5"><a xlink:href="class_hydro_couple_1_1_i_property_changed.html" target="_top" xlink:title="IPropertyChanged interface is used to emit signal/event when a property of an object changes...">
<polygon fill="white" stroke="black" points="40.7588,-796.5 40.7588,-850.5 201.842,-850.5 201.842,-796.5 40.7588,-796.5"/>
<text text-anchor="middle" x="121.3" y="-838.5" font-family="Helvetica,sans-Serif" font-size="10.00">HydroCouple::IPropertyChanged</text>
<polyline fill="none" stroke="black" points="40.7588,-832.5 201.842,-832.5 "/>
<text text-anchor="middle" x="121.3" y="-820.5" font-family="Helvetica,sans-Serif" font-size="10.00"> </text>
<polyline fill="none" stroke="black" points="40.7588,-814.5 201.842,-814.5 "/>
<text text-anchor="start" x="48.7588" y="-802.5" font-family="Helvetica,sans-Serif" font-size="10.00">+ ~IPropertyChanged()</text>
</a>
</g>
</g>
<!-- Node5&#45;&gt;Node4 -->
<g id="edge4" class="edge"><title>Node5&#45;&gt;Node4</title>
<path fill="none" stroke="midnightblue" d="M121.3,-786.141C121.3,-777.716 121.3,-768.639 121.3,-759.851"/>
<polygon fill="none" stroke="midnightblue" points="117.8,-786.392 121.3,-796.392 124.8,-786.392 117.8,-786.392"/>
</g>
<!-- Node8 -->
<g id="node8" class="node"><title>Node8</title>
<g id="a_node8"><a xlink:href="class_hydro_couple_1_1_data_1_1_i_adapted_output.html" target="_top" xlink:title="An IAdaptedOutput adds one or more data operations on top of an IOutput. ">
<polygon fill="white" stroke="black" points="124.908,-0.5 124.908,-124.5 255.693,-124.5 255.693,-0.5 124.908,-0.5"/>
<text text-anchor="start" x="132.908" y="-112.5" font-family="Helvetica,sans-Serif" font-size="10.00">HydroCouple::Data::</text>
<text text-anchor="middle" x="190.3" y="-102.5" font-family="Helvetica,sans-Serif" font-size="10.00">IAdaptedOutput</text>
<polyline fill="none" stroke="black" points="124.908,-96.5 255.693,-96.5 "/>
<text text-anchor="middle" x="190.3" y="-84.5" font-family="Helvetica,sans-Serif" font-size="10.00"> </text>
<polyline fill="none" stroke="black" points="124.908,-78.5 255.693,-78.5 "/>
<text text-anchor="start" x="132.908" y="-66.5" font-family="Helvetica,sans-Serif" font-size="10.00">+ ~IAdaptedOutput()</text>
<text text-anchor="start" x="132.908" y="-56.5" font-family="Helvetica,sans-Serif" font-size="10.00">+ adaptedOutputFactory()</text>
<text text-anchor="start" x="132.908" y="-46.5" font-family="Helvetica,sans-Serif" font-size="10.00">+ arguments()</text>
<text text-anchor="start" x="132.908" y="-36.5" font-family="Helvetica,sans-Serif" font-size="10.00">+ setArgument()</text>
<text text-anchor="start" x="132.908" y="-26.5" font-family="Helvetica,sans-Serif" font-size="10.00">+ initialize()</text>
<text text-anchor="start" x="132.908" y="-16.5" font-family="Helvetica,sans-Serif" font-size="10.00">+ adaptee()</text>
<text text-anchor="start" x="132.908" y="-6.5" font-family="Helvetica,sans-Serif" font-size="10.00">+ refresh()</text>
</a>
</g>
</g>
<!-- Node7&#45;&gt;Node8 -->
<g id="edge7" class="edge"><title>Node7&#45;&gt;Node8</title>
<path fill="none" stroke="midnightblue" d="M190.3,-151.266C190.3,-142.353 190.3,-133.348 190.3,-124.677"/>
<polygon fill="none" stroke="midnightblue" points="186.8,-151.268 190.3,-161.268 193.8,-151.268 186.8,-151.268"/>
</g>
</g>
</svg>
