<?xml version="1.0" encoding="UTF-8" standalone="no"?>
<!DOCTYPE svg PUBLIC "-//W3C//DTD SVG 1.1//EN"
 "http://www.w3.org/Graphics/SVG/1.1/DTD/svg11.dtd">
<!-- Generated by graphviz version 2.38.0 (20140413.2041)
 -->
<!-- Title: HydroCouple::Temporal::ITimeSeriesComponentDataItem Pages: 1 -->
<!--zoomable 911 -->
<svg id="main" version="1.1" xmlns="http://www.w3.org/2000/svg" xmlns:xlink="http://www.w3.org/1999/xlink" xml:space="preserve" onload="init(evt)">
<style type="text/css"><![CDATA[
.edge:hover path { stroke: red; }
.edge:hover polygon { stroke: red; fill: red; }
]]></style>
<script type="text/javascript"><![CDATA[
var edges = document.getElementsByTagName('g');
if (edges && edges.length) {
  for (var i=0;i<edges.length;i++) {
    if (edges[i].id.substr(0,4)=='edge') {
      edges[i].setAttribute('class','edge');
    }
  }
}
]]></script>
        <defs>
                <circle id="rim" cx="0" cy="0" r="7"/>
                <circle id="rim2" cx="0" cy="0" r="3.5"/>
                <g id="zoomPlus">
                        <use xlink:href="#rim" fill="#404040">
                                <set attributeName="fill" to="#808080" begin="zoomplus.mouseover" end="zoomplus.mouseout"/>
                        </use>
                        <path d="M-4,0h8M0,-4v8" fill="none" stroke="white" stroke-width="1.5" pointer-events="none"/>
                </g>
                <g id="zoomMin">
                        <use xlink:href="#rim" fill="#404040">
                                <set attributeName="fill" to="#808080" begin="zoomminus.mouseover" end="zoomminus.mouseout"/>
                        </use>
                        <path d="M-4,0h8" fill="none" stroke="white" stroke-width="1.5" pointer-events="none"/>
                </g>
                <g id="dirArrow">
                        <path fill="none" stroke="white" stroke-width="1.5" d="M0,-3.0v7 M-2.5,-0.5L0,-3.0L2.5,-0.5"/>
                </g>
               <g id="resetDef">
                       <use xlink:href="#rim2" fill="#404040">
                               <set attributeName="fill" to="#808080" begin="reset.mouseover" end="reset.mouseout"/>
                       </use>
               </g>
        </defs>

<script type="text/javascript">
var viewWidth = 222;
var viewHeight = 911;
var sectionId = 'dynsection-1';
</script>
<script xlink:href="svgpan.js"/>
<svg id="graph" class="graph">
<g id="viewport">
<title>HydroCouple::Temporal::ITimeSeriesComponentDataItem</title>
<!-- Node1 -->
<g id="node1" class="node"><title>Node1</title>
<polygon fill="#bfbfbf" stroke="black" points="0,-0.5 0,-157.85 214.032,-157.85 214.032,-0.5 0,-0.5"/>
<text text-anchor="start" x="8" y="-145.85" font-family="Monaco" font-size="10.00">HydroCouple::Temporal</text>
<text text-anchor="middle" x="107.016" y="-132.515" font-family="Monaco" font-size="10.00">::ITimeSeriesComponentDataItem</text>
<polyline fill="none" stroke="black" points="0,-123.18 214.032,-123.18 "/>
<text text-anchor="middle" x="107.016" y="-111.18" font-family="Monaco" font-size="10.00"> </text>
<polyline fill="none" stroke="black" points="0,-101.845 214.032,-101.845 "/>
<text text-anchor="start" x="8" y="-89.8447" font-family="Monaco" font-size="10.00">+ ~ITimeSeriesComponentDataItem()</text>
<text text-anchor="start" x="8" y="-76.5098" font-family="Monaco" font-size="10.00">+ getValue()</text>
<text text-anchor="start" x="8" y="-63.1748" font-family="Monaco" font-size="10.00">+ getValues()</text>
<text text-anchor="start" x="8" y="-49.8398" font-family="Monaco" font-size="10.00">+ getValues()</text>
<text text-anchor="start" x="8" y="-36.5049" font-family="Monaco" font-size="10.00">+ setValue()</text>
<text text-anchor="start" x="8" y="-23.1699" font-family="Monaco" font-size="10.00">+ setValues()</text>
<text text-anchor="start" x="8" y="-9.83496" font-family="Monaco" font-size="10.00">+ setValues()</text>
</g>
<!-- Node2 -->
<g id="node2" class="node"><title>Node2</title>
<g id="a_node2"><a xlink:href="class_hydro_couple_1_1_temporal_1_1_i_time_component_data_item.html" target="_top" xlink:title="ITimeComponentItem is an IComponentItem with a temporal attribute. This class cannot be directly inst...">
<polygon fill="none" stroke="black" points="18.0029,-194.85 18.0029,-312.194 196.029,-312.194 196.029,-194.85 18.0029,-194.85"/>
<text text-anchor="start" x="26.0029" y="-300.194" font-family="Monaco" font-size="10.00">HydroCouple::Temporal</text>
<text text-anchor="middle" x="107.016" y="-286.859" font-family="Monaco" font-size="10.00">::ITimeComponentDataItem</text>
<polyline fill="none" stroke="black" points="18.0029,-277.524 196.029,-277.524 "/>
<text text-anchor="middle" x="107.016" y="-265.524" font-family="Monaco" font-size="10.00"> </text>
<polyline fill="none" stroke="black" points="18.0029,-256.189 196.029,-256.189 "/>
<text text-anchor="start" x="26.0029" y="-244.189" font-family="Monaco" font-size="10.00">+ ~ITimeComponentDataItem()</text>
<text text-anchor="start" x="26.0029" y="-230.854" font-family="Monaco" font-size="10.00">+ times()</text>
<text text-anchor="start" x="26.0029" y="-217.52" font-family="Monaco" font-size="10.00">+ timeSpan()</text>
<text text-anchor="start" x="26.0029" y="-204.185" font-family="Monaco" font-size="10.00">+ timeDimension()</text>
</a>
</g>
</g>
<!-- Node2&#45;&gt;Node1 -->
<g id="edge1" class="edge"><title>Node2&#45;&gt;Node1</title>
<path fill="none" stroke="midnightblue" d="M107.016,-184.588C107.016,-175.892 107.016,-166.938 107.016,-158.099"/>
<polygon fill="none" stroke="midnightblue" points="103.516,-184.653 107.016,-194.653 110.516,-184.653 103.516,-184.653"/>
</g>
<!-- Node3 -->
<g id="node3" class="node"><title>Node3</title>
<g id="a_node3"><a xlink:href="class_hydro_couple_1_1_i_component_data_item.html" target="_top" xlink:title="IComponentItem is a fundamental unit of data for a component. ">
<polygon fill="none" stroke="black" points="6.00098,-349.194 6.00098,-533.214 208.031,-533.214 208.031,-349.194 6.00098,-349.194"/>
<text text-anchor="middle" x="107.016" y="-521.214" font-family="Monaco" font-size="10.00">HydroCouple::IComponentDataItem</text>
<polyline fill="none" stroke="black" points="6.00098,-511.879 208.031,-511.879 "/>
<text text-anchor="middle" x="107.016" y="-499.879" font-family="Monaco" font-size="10.00"> </text>
<polyline fill="none" stroke="black" points="6.00098,-490.544 208.031,-490.544 "/>
<text text-anchor="start" x="14.001" y="-478.544" font-family="Monaco" font-size="10.00">+ ~IComponentDataItem()</text>
<text text-anchor="start" x="14.001" y="-465.209" font-family="Monaco" font-size="10.00">+ modelComponent()</text>
<text text-anchor="start" x="14.001" y="-451.874" font-family="Monaco" font-size="10.00">+ dimensions()</text>
<text text-anchor="start" x="14.001" y="-438.539" font-family="Monaco" font-size="10.00">+ valueDefinition()</text>
<text text-anchor="start" x="14.001" y="-425.204" font-family="Monaco" font-size="10.00">+ getValue()</text>
<text text-anchor="start" x="14.001" y="-411.869" font-family="Monaco" font-size="10.00">+ getValues()</text>
<text text-anchor="start" x="14.001" y="-398.534" font-family="Monaco" font-size="10.00">+ getValues()</text>
<text text-anchor="start" x="14.001" y="-385.199" font-family="Monaco" font-size="10.00">+ setValue()</text>
<text text-anchor="start" x="14.001" y="-371.864" font-family="Monaco" font-size="10.00">+ setValues()</text>
<text text-anchor="start" x="14.001" y="-358.529" font-family="Monaco" font-size="10.00">+ setValues()</text>
</a>
</g>
</g>
<!-- Node3&#45;&gt;Node2 -->
<g id="edge2" class="edge"><title>Node3&#45;&gt;Node2</title>
<path fill="none" stroke="midnightblue" d="M107.016,-338.773C107.016,-329.743 107.016,-320.823 107.016,-312.358"/>
<polygon fill="none" stroke="midnightblue" points="103.516,-338.995 107.016,-348.995 110.516,-338.995 103.516,-338.995"/>
</g>
<!-- Node4 -->
<g id="node4" class="node"><title>Node4</title>
<g id="a_node4"><a xlink:href="class_hydro_couple_1_1_i_identity.html" target="_top" xlink:title="IIdentity interface class defines a method to get the Id of an HydroCouple entity. ">
<polygon fill="none" stroke="black" points="33.0054,-570.214 33.0054,-647.554 181.027,-647.554 181.027,-570.214 33.0054,-570.214"/>
<text text-anchor="middle" x="107.016" y="-635.554" font-family="Monaco" font-size="10.00">HydroCouple::IIdentity</text>
<polyline fill="none" stroke="black" points="33.0054,-626.219 181.027,-626.219 "/>
<text text-anchor="middle" x="107.016" y="-614.219" font-family="Monaco" font-size="10.00"> </text>
<polyline fill="none" stroke="black" points="33.0054,-604.884 181.027,-604.884 "/>
<text text-anchor="start" x="41.0054" y="-592.884" font-family="Monaco" font-size="10.00">+ ~IIdentity()</text>
<text text-anchor="start" x="41.0054" y="-579.549" font-family="Monaco" font-size="10.00">+ id()</text>
</a>
</g>
</g>
<!-- Node4&#45;&gt;Node3 -->
<g id="edge3" class="edge"><title>Node4&#45;&gt;Node3</title>
<path fill="none" stroke="midnightblue" d="M107.016,-559.632C107.016,-551.278 107.016,-542.353 107.016,-533.295"/>
<polygon fill="none" stroke="midnightblue" points="103.516,-559.873 107.016,-569.874 110.516,-559.874 103.516,-559.873"/>
</g>
<!-- Node5 -->
<g id="node5" class="node"><title>Node5</title>
<g id="a_node5"><a xlink:href="class_hydro_couple_1_1_i_description.html" target="_top" xlink:title="IDescription interface class provides descriptive information on a HydroCouple object. ">
<polygon fill="none" stroke="black" points="24.0039,-684.554 24.0039,-801.898 190.028,-801.898 190.028,-684.554 24.0039,-684.554"/>
<text text-anchor="middle" x="107.016" y="-789.898" font-family="Monaco" font-size="10.00">HydroCouple::IDescription</text>
<polyline fill="none" stroke="black" points="24.0039,-780.563 190.028,-780.563 "/>
<text text-anchor="middle" x="107.016" y="-768.563" font-family="Monaco" font-size="10.00"> </text>
<polyline fill="none" stroke="black" points="24.0039,-759.229 190.028,-759.229 "/>
<text text-anchor="start" x="32.0039" y="-747.229" font-family="Monaco" font-size="10.00">+ ~IDescription()</text>
<text text-anchor="start" x="32.0039" y="-733.894" font-family="Monaco" font-size="10.00">+ caption()</text>
<text text-anchor="start" x="32.0039" y="-720.559" font-family="Monaco" font-size="10.00">+ setCaption()</text>
<text text-anchor="start" x="32.0039" y="-707.224" font-family="Monaco" font-size="10.00">+ description()</text>
<text text-anchor="start" x="32.0039" y="-693.889" font-family="Monaco" font-size="10.00">+ setDescription()</text>
</a>
</g>
</g>
<!-- Node5&#45;&gt;Node4 -->
<g id="edge4" class="edge"><title>Node5&#45;&gt;Node4</title>
<path fill="none" stroke="midnightblue" d="M107.016,-673.988C107.016,-664.949 107.016,-655.962 107.016,-647.701"/>
<polygon fill="none" stroke="midnightblue" points="103.516,-674.179 107.016,-684.179 110.516,-674.179 103.516,-674.179"/>
</g>
<!-- Node6 -->
<g id="node6" class="node"><title>Node6</title>
<g id="a_node6"><a xlink:href="class_hydro_couple_1_1_i_property_changed.html" target="_top" xlink:title="IPropertyChanged interface is used to emit signal/event when a property of an object changes...">
<polygon fill="none" stroke="black" points="12.002,-838.898 12.002,-902.903 202.03,-902.903 202.03,-838.898 12.002,-838.898"/>
<text text-anchor="middle" x="107.016" y="-890.903" font-family="Monaco" font-size="10.00">HydroCouple::IPropertyChanged</text>
<polyline fill="none" stroke="black" points="12.002,-881.568 202.03,-881.568 "/>
<text text-anchor="middle" x="107.016" y="-869.568" font-family="Monaco" font-size="10.00"> </text>
<polyline fill="none" stroke="black" points="12.002,-860.233 202.03,-860.233 "/>
<text text-anchor="start" x="20.002" y="-848.233" font-family="Monaco" font-size="10.00">+ ~IPropertyChanged()</text>
</a>
</g>
</g>
<!-- Node6&#45;&gt;Node5 -->
<g id="edge5" class="edge"><title>Node6&#45;&gt;Node5</title>
<path fill="none" stroke="midnightblue" d="M107.016,-828.578C107.016,-820.193 107.016,-811.227 107.016,-802.384"/>
<polygon fill="none" stroke="midnightblue" points="103.516,-828.835 107.016,-838.835 110.516,-828.835 103.516,-828.835"/>
</g>
</g>
</svg>
        <g id="navigator" transform="translate(0 0)" fill="#404254">
                <rect fill="#f2f5e9" fill-opacity="0.5" stroke="#606060" stroke-width=".5" x="0" y="0" width="60" height="60"/>
                <use id="zoomplus" xlink:href="#zoomPlus" x="17" y="9" onmousedown="handleZoom(evt,'in')"/>
                <use id="zoomminus" xlink:href="#zoomMin" x="42" y="9" onmousedown="handleZoom(evt,'out')"/>
                <use id="reset" xlink:href="#resetDef" x="30" y="36" onmousedown="handleReset()"/>
                <g id="arrowUp" xlink:href="#dirArrow" transform="translate(30 24)" onmousedown="handlePan(0,-1)">
                  <use xlink:href="#rim" fill="#404040">
                        <set attributeName="fill" to="#808080" begin="arrowUp.mouseover" end="arrowUp.mouseout"/>
                  </use>
                  <path fill="none" stroke="white" stroke-width="1.5" d="M0,-3.0v7 M-2.5,-0.5L0,-3.0L2.5,-0.5"/>
                </g>
                <g id="arrowRight" xlink:href="#dirArrow" transform="rotate(90) translate(36 -43)" onmousedown="handlePan(1,0)">
                  <use xlink:href="#rim" fill="#404040">
                        <set attributeName="fill" to="#808080" begin="arrowRight.mouseover" end="arrowRight.mouseout"/>
                  </use>
                  <path fill="none" stroke="white" stroke-width="1.5" d="M0,-3.0v7 M-2.5,-0.5L0,-3.0L2.5,-0.5"/>
                </g>
                <g id="arrowDown" xlink:href="#dirArrow" transform="rotate(180) translate(-30 -48)" onmousedown="handlePan(0,1)">
                  <use xlink:href="#rim" fill="#404040">
                        <set attributeName="fill" to="#808080" begin="arrowDown.mouseover" end="arrowDown.mouseout"/>
                  </use>
                  <path fill="none" stroke="white" stroke-width="1.5" d="M0,-3.0v7 M-2.5,-0.5L0,-3.0L2.5,-0.5"/>
                </g>
                <g id="arrowLeft" xlink:href="#dirArrow" transform="rotate(270) translate(-36 17)" onmousedown="handlePan(-1,0)">
                  <use xlink:href="#rim" fill="#404040">
                        <set attributeName="fill" to="#808080" begin="arrowLeft.mouseover" end="arrowLeft.mouseout"/>
                  </use>
                  <path fill="none" stroke="white" stroke-width="1.5" d="M0,-3.0v7 M-2.5,-0.5L0,-3.0L2.5,-0.5"/>
                </g>
        </g>
        <svg viewBox="0 0 15 15" width="100%" height="30px" preserveAspectRatio="xMaxYMin meet">
         <g id="arrow_out" transform="scale(0.3 0.3)">
          <a xlink:href="class_hydro_couple_1_1_temporal_1_1_i_time_series_component_data_item__coll__graph_org.svg" target="_base">
           <rect id="button" ry="5" rx="5" y="6" x="6" height="38" width="38"
                fill="#f2f5e9" fill-opacity="0.5" stroke="#606060" stroke-width="1.0"/>
           <path id="arrow"
             d="M 11.500037,31.436501 C 11.940474,20.09759 22.043105,11.32322 32.158766,21.979434 L 37.068811,17.246167 C 37.068811,17.246167 37.088388,32 37.088388,32 L 22.160133,31.978069 C 22.160133,31.978069 26.997745,27.140456 26.997745,27.140456 C 18.528582,18.264221 13.291696,25.230495 11.500037,31.436501 z"
             style="fill:#404040;"/>
          </a>
         </g>
        </svg>
</svg>
