<?xml version="1.0" encoding="UTF-8" standalone="no"?>
<!DOCTYPE svg PUBLIC "-//W3C//DTD SVG 1.1//EN"
 "http://www.w3.org/Graphics/SVG/1.1/DTD/svg11.dtd">
<!-- Generated by graphviz version 2.38.0 (20140413.2041)
 -->
<!-- Title: /Users/calebbuahin/Documents/Projects/HydroCouple/HydroCoupleSDK/include/componentinfo.h Pages: 1 -->
<svg width="330pt" height="304pt"
 viewBox="0.00 0.00 330.01 303.68" xmlns="http://www.w3.org/2000/svg" xmlns:xlink="http://www.w3.org/1999/xlink">
<g id="graph0" class="graph" transform="scale(1 1) rotate(0) translate(4 299.68)">
<title>/Users/calebbuahin/Documents/Projects/HydroCouple/HydroCoupleSDK/include/componentinfo.h</title>
<polygon fill="white" stroke="none" points="-4,4 -4,-299.68 326.012,-299.68 326.012,4 -4,4"/>
<!-- Node1 -->
<g id="node1" class="node"><title>Node1</title>
<polygon fill="#bfbfbf" stroke="black" points="31.9946,-233.84 31.9946,-295.18 210.021,-295.18 210.021,-233.84 31.9946,-233.84"/>
<text text-anchor="start" x="39.9946" y="-283.18" font-family="Monaco" font-size="10.00">/Users/calebbuahin</text>
<text text-anchor="start" x="39.9946" y="-269.845" font-family="Monaco" font-size="10.00">/Documents/Projects</text>
<text text-anchor="start" x="39.9946" y="-256.51" font-family="Monaco" font-size="10.00">/HydroCouple/HydroCoupleSDK</text>
<text text-anchor="middle" x="121.008" y="-243.175" font-family="Monaco" font-size="10.00">/include/componentinfo.h</text>
</g>
<!-- Node2 -->
<g id="node2" class="node"><title>Node2</title>
<g id="a_node2"><a xlink:href="identity_8h.html" target="_top" xlink:title="identity.h">
<polygon fill="white" stroke="black" points="83.0029,-175.505 83.0029,-196.84 159.013,-196.84 159.013,-175.505 83.0029,-175.505"/>
<text text-anchor="middle" x="121.008" y="-184.84" font-family="Monaco" font-size="10.00">identity.h</text>
</a>
</g>
</g>
<!-- Node1&#45;&gt;Node2 -->
<g id="edge1" class="edge"><title>Node1&#45;&gt;Node2</title>
<path fill="none" stroke="midnightblue" d="M121.008,-233.777C121.008,-224.797 121.008,-215.162 121.008,-206.996"/>
<polygon fill="midnightblue" stroke="midnightblue" points="124.508,-206.971 121.008,-196.972 117.508,-206.972 124.508,-206.971"/>
</g>
<!-- Node3 -->
<g id="node3" class="node"><title>Node3</title>
<g id="a_node3"><a xlink:href="hydrocouplesdk_8h.html" target="_top" xlink:title="hydrocouplesdk.h">
<polygon fill="white" stroke="black" points="0,-58.835 0,-80.1699 112.016,-80.1699 112.016,-58.835 0,-58.835"/>
<text text-anchor="middle" x="56.0078" y="-68.1699" font-family="Monaco" font-size="10.00">hydrocouplesdk.h</text>
</a>
</g>
</g>
<!-- Node2&#45;&gt;Node3 -->
<g id="edge2" class="edge"><title>Node2&#45;&gt;Node3</title>
<path fill="none" stroke="midnightblue" d="M115.466,-175.396C104.625,-156.27 80.4546,-113.63 66.4984,-89.0095"/>
<polygon fill="midnightblue" stroke="midnightblue" points="69.5118,-87.228 61.5356,-80.2544 63.4221,-90.6799 69.5118,-87.228"/>
</g>
<!-- Node5 -->
<g id="node5" class="node"><title>Node5</title>
<g id="a_node5"><a xlink:href="description_8h.html" target="_top" xlink:title="description.h">
<polygon fill="white" stroke="black" points="112.001,-117.17 112.001,-138.505 206.014,-138.505 206.014,-117.17 112.001,-117.17"/>
<text text-anchor="middle" x="159.008" y="-126.505" font-family="Monaco" font-size="10.00">description.h</text>
</a>
</g>
</g>
<!-- Node2&#45;&gt;Node5 -->
<g id="edge4" class="edge"><title>Node2&#45;&gt;Node5</title>
<path fill="none" stroke="midnightblue" d="M127.627,-175.36C132.912,-167.524 140.462,-156.332 146.832,-146.889"/>
<polygon fill="midnightblue" stroke="midnightblue" points="149.774,-148.785 152.465,-138.538 143.971,-144.871 149.774,-148.785"/>
</g>
<!-- Node4 -->
<g id="node4" class="node"><title>Node4</title>
<polygon fill="white" stroke="#bfbfbf" points="83,-0.5 83,-21.835 195.016,-21.835 195.016,-0.5 83,-0.5"/>
<text text-anchor="middle" x="139.008" y="-9.83496" font-family="Monaco" font-size="10.00">QtCore/qglobal.h</text>
</g>
<!-- Node3&#45;&gt;Node4 -->
<g id="edge3" class="edge"><title>Node3&#45;&gt;Node4</title>
<path fill="none" stroke="midnightblue" d="M70.4653,-58.6896C83.081,-50.1269 101.602,-37.5559 116.212,-27.6396"/>
<polygon fill="midnightblue" stroke="midnightblue" points="118.407,-30.3798 124.716,-21.8678 114.476,-24.5879 118.407,-30.3798"/>
</g>
<!-- Node5&#45;&gt;Node3 -->
<g id="edge7" class="edge"><title>Node5&#45;&gt;Node3</title>
<path fill="none" stroke="midnightblue" d="M141.067,-117.025C124.968,-108.22 101.12,-95.1761 82.7687,-85.1391"/>
<polygon fill="midnightblue" stroke="midnightblue" points="84.1964,-81.9307 73.7434,-80.2028 80.8374,-88.0721 84.1964,-81.9307"/>
</g>
<!-- Node6 -->
<g id="node6" class="node"><title>Node6</title>
<polygon fill="white" stroke="#bfbfbf" points="130.004,-58.835 130.004,-80.1699 188.011,-80.1699 188.011,-58.835 130.004,-58.835"/>
<text text-anchor="middle" x="159.008" y="-68.1699" font-family="Monaco" font-size="10.00">QObject</text>
</g>
<!-- Node5&#45;&gt;Node6 -->
<g id="edge5" class="edge"><title>Node5&#45;&gt;Node6</title>
<path fill="none" stroke="midnightblue" d="M159.008,-117.025C159.008,-109.674 159.008,-99.3684 159.008,-90.3249"/>
<polygon fill="midnightblue" stroke="midnightblue" points="162.508,-90.2028 159.008,-80.2028 155.508,-90.2028 162.508,-90.2028"/>
</g>
<!-- Node7 -->
<g id="node7" class="node"><title>Node7</title>
<polygon fill="white" stroke="#bfbfbf" points="258.004,-0.5 258.004,-21.835 322.012,-21.835 322.012,-0.5 258.004,-0.5"/>
<text text-anchor="middle" x="290.008" y="-9.83496" font-family="Monaco" font-size="10.00">QVariant</text>
</g>
<!-- Node5&#45;&gt;Node7 -->
<g id="edge6" class="edge"><title>Node5&#45;&gt;Node7</title>
<path fill="none" stroke="midnightblue" d="M206.275,-126.217C240.842,-122.968 285.618,-112.342 309.008,-80.6699 319.834,-66.0108 311.85,-45.4727 303.154,-30.7141"/>
<polygon fill="midnightblue" stroke="midnightblue" points="305.882,-28.4851 297.527,-21.9701 299.995,-32.2734 305.882,-28.4851"/>
</g>
<!-- Node8 -->
<g id="node8" class="node"><title>Node8</title>
<g id="a_node8"><a xlink:href="hydrocouple_8h.html" target="_top" xlink:title="hydrocouple.h">
<polygon fill="white" stroke="black" points="206.001,-58.835 206.001,-80.1699 300.014,-80.1699 300.014,-58.835 206.001,-58.835"/>
<text text-anchor="middle" x="253.008" y="-68.1699" font-family="Monaco" font-size="10.00">hydrocouple.h</text>
</a>
</g>
</g>
<!-- Node5&#45;&gt;Node8 -->
<g id="edge8" class="edge"><title>Node5&#45;&gt;Node8</title>
<path fill="none" stroke="midnightblue" d="M175.381,-117.025C189.939,-108.3 211.439,-95.4151 228.123,-85.4161"/>
<polygon fill="midnightblue" stroke="midnightblue" points="230.044,-88.3456 236.822,-80.2028 226.445,-82.3413 230.044,-88.3456"/>
</g>
<!-- Node8&#45;&gt;Node4 -->
<g id="edge9" class="edge"><title>Node8&#45;&gt;Node4</title>
<path fill="none" stroke="midnightblue" d="M233.411,-58.8181C215.385,-49.9103 188.423,-36.587 167.923,-26.4566"/>
<polygon fill="midnightblue" stroke="midnightblue" points="169.247,-23.2065 158.731,-21.914 166.145,-29.482 169.247,-23.2065"/>
</g>
<!-- Node8&#45;&gt;Node7 -->
<g id="edge10" class="edge"><title>Node8&#45;&gt;Node7</title>
<path fill="none" stroke="midnightblue" d="M259.453,-58.6896C264.546,-50.9347 271.799,-39.8921 277.96,-30.5114"/>
<polygon fill="midnightblue" stroke="midnightblue" points="281.072,-32.1477 283.637,-21.8678 275.222,-28.3049 281.072,-32.1477"/>
</g>
</g>
</svg>
