<?xml version="1.0" encoding="UTF-8" standalone="no"?>
<!DOCTYPE svg PUBLIC "-//W3C//DTD SVG 1.1//EN"
 "http://www.w3.org/Graphics/SVG/1.1/DTD/svg11.dtd">
<!-- Generated by graphviz version 2.38.0 (20140413.2041)
 -->
<!-- Title: /Users/calebbuahin/Documents/Projects/HydroCouple/HydroCoupleSDK/src/componentinfo.cpp Pages: 1 -->
<svg width="350pt" height="362pt"
 viewBox="0.00 0.00 350.02 362.01" xmlns="http://www.w3.org/2000/svg" xmlns:xlink="http://www.w3.org/1999/xlink">
<g id="graph0" class="graph" transform="scale(1 1) rotate(0) translate(4 358.015)">
<title>/Users/calebbuahin/Documents/Projects/HydroCouple/HydroCoupleSDK/src/componentinfo.cpp</title>
<polygon fill="white" stroke="none" points="-4,4 -4,-358.015 346.017,-358.015 346.017,4 -4,4"/>
<!-- Node1 -->
<g id="node1" class="node"><title>Node1</title>
<polygon fill="#bfbfbf" stroke="black" points="0,-292.175 0,-353.515 178.026,-353.515 178.026,-292.175 0,-292.175"/>
<text text-anchor="start" x="8" y="-341.515" font-family="Monaco" font-size="10.00">/Users/calebbuahin</text>
<text text-anchor="start" x="8" y="-328.18" font-family="Monaco" font-size="10.00">/Documents/Projects</text>
<text text-anchor="start" x="8" y="-314.845" font-family="Monaco" font-size="10.00">/HydroCouple/HydroCoupleSDK</text>
<text text-anchor="middle" x="89.0132" y="-301.51" font-family="Monaco" font-size="10.00">/src/componentinfo.cpp</text>
</g>
<!-- Node2 -->
<g id="node2" class="node"><title>Node2</title>
<polygon fill="white" stroke="#bfbfbf" points="6.00928,-233.84 6.00928,-255.175 70.0171,-255.175 70.0171,-233.84 6.00928,-233.84"/>
<text text-anchor="middle" x="38.0132" y="-243.175" font-family="Monaco" font-size="10.00">stdafx.h</text>
</g>
<!-- Node1&#45;&gt;Node2 -->
<g id="edge1" class="edge"><title>Node1&#45;&gt;Node2</title>
<path fill="none" stroke="midnightblue" d="M69.1492,-292.112C62.7409,-282.52 55.8327,-272.18 50.1554,-263.682"/>
<polygon fill="midnightblue" stroke="midnightblue" points="53.0254,-261.677 44.5599,-255.306 47.2048,-265.566 53.0254,-261.677"/>
</g>
<!-- Node3 -->
<g id="node3" class="node"><title>Node3</title>
<g id="a_node3"><a xlink:href="componentinfo_8h.html" target="_top" xlink:title="componentinfo.h">
<polygon fill="white" stroke="black" points="88.0059,-233.84 88.0059,-255.175 194.021,-255.175 194.021,-233.84 88.0059,-233.84"/>
<text text-anchor="middle" x="141.013" y="-243.175" font-family="Monaco" font-size="10.00">componentinfo.h</text>
</a>
</g>
</g>
<!-- Node1&#45;&gt;Node3 -->
<g id="edge2" class="edge"><title>Node1&#45;&gt;Node3</title>
<path fill="none" stroke="midnightblue" d="M109.267,-292.112C115.801,-282.52 122.844,-272.18 128.633,-263.682"/>
<polygon fill="midnightblue" stroke="midnightblue" points="131.601,-265.542 134.338,-255.306 125.816,-261.601 131.601,-265.542"/>
</g>
<!-- Node4 -->
<g id="node4" class="node"><title>Node4</title>
<g id="a_node4"><a xlink:href="identity_8h.html" target="_top" xlink:title="identity.h">
<polygon fill="white" stroke="black" points="103.008,-175.505 103.008,-196.84 179.018,-196.84 179.018,-175.505 103.008,-175.505"/>
<text text-anchor="middle" x="141.013" y="-184.84" font-family="Monaco" font-size="10.00">identity.h</text>
</a>
</g>
</g>
<!-- Node3&#45;&gt;Node4 -->
<g id="edge3" class="edge"><title>Node3&#45;&gt;Node4</title>
<path fill="none" stroke="midnightblue" d="M141.013,-233.695C141.013,-226.343 141.013,-216.038 141.013,-206.995"/>
<polygon fill="midnightblue" stroke="midnightblue" points="144.513,-206.873 141.013,-196.873 137.513,-206.873 144.513,-206.873"/>
</g>
<!-- Node5 -->
<g id="node5" class="node"><title>Node5</title>
<g id="a_node5"><a xlink:href="hydrocouplesdk_8h.html" target="_top" xlink:title="hydrocouplesdk.h">
<polygon fill="white" stroke="black" points="20.0054,-58.835 20.0054,-80.1699 132.021,-80.1699 132.021,-58.835 20.0054,-58.835"/>
<text text-anchor="middle" x="76.0132" y="-68.1699" font-family="Monaco" font-size="10.00">hydrocouplesdk.h</text>
</a>
</g>
</g>
<!-- Node4&#45;&gt;Node5 -->
<g id="edge4" class="edge"><title>Node4&#45;&gt;Node5</title>
<path fill="none" stroke="midnightblue" d="M135.471,-175.396C124.63,-156.27 100.46,-113.63 86.5038,-89.0095"/>
<polygon fill="midnightblue" stroke="midnightblue" points="89.5172,-87.228 81.541,-80.2544 83.4275,-90.6799 89.5172,-87.228"/>
</g>
<!-- Node7 -->
<g id="node7" class="node"><title>Node7</title>
<g id="a_node7"><a xlink:href="description_8h.html" target="_top" xlink:title="description.h">
<polygon fill="white" stroke="black" points="132.007,-117.17 132.007,-138.505 226.02,-138.505 226.02,-117.17 132.007,-117.17"/>
<text text-anchor="middle" x="179.013" y="-126.505" font-family="Monaco" font-size="10.00">description.h</text>
</a>
</g>
</g>
<!-- Node4&#45;&gt;Node7 -->
<g id="edge6" class="edge"><title>Node4&#45;&gt;Node7</title>
<path fill="none" stroke="midnightblue" d="M147.632,-175.36C152.918,-167.524 160.467,-156.332 166.837,-146.889"/>
<polygon fill="midnightblue" stroke="midnightblue" points="169.779,-148.785 172.47,-138.538 163.976,-144.871 169.779,-148.785"/>
</g>
<!-- Node6 -->
<g id="node6" class="node"><title>Node6</title>
<polygon fill="white" stroke="#bfbfbf" points="103.005,-0.5 103.005,-21.835 215.021,-21.835 215.021,-0.5 103.005,-0.5"/>
<text text-anchor="middle" x="159.013" y="-9.83496" font-family="Monaco" font-size="10.00">QtCore/qglobal.h</text>
</g>
<!-- Node5&#45;&gt;Node6 -->
<g id="edge5" class="edge"><title>Node5&#45;&gt;Node6</title>
<path fill="none" stroke="midnightblue" d="M90.4707,-58.6896C103.086,-50.1269 121.608,-37.5559 136.218,-27.6396"/>
<polygon fill="midnightblue" stroke="midnightblue" points="138.413,-30.3798 144.721,-21.8678 134.482,-24.5879 138.413,-30.3798"/>
</g>
<!-- Node7&#45;&gt;Node5 -->
<g id="edge9" class="edge"><title>Node7&#45;&gt;Node5</title>
<path fill="none" stroke="midnightblue" d="M161.072,-117.025C144.973,-108.22 121.125,-95.1761 102.774,-85.1391"/>
<polygon fill="midnightblue" stroke="midnightblue" points="104.202,-81.9307 93.7488,-80.2028 100.843,-88.0721 104.202,-81.9307"/>
</g>
<!-- Node8 -->
<g id="node8" class="node"><title>Node8</title>
<polygon fill="white" stroke="#bfbfbf" points="150.01,-58.835 150.01,-80.1699 208.017,-80.1699 208.017,-58.835 150.01,-58.835"/>
<text text-anchor="middle" x="179.013" y="-68.1699" font-family="Monaco" font-size="10.00">QObject</text>
</g>
<!-- Node7&#45;&gt;Node8 -->
<g id="edge7" class="edge"><title>Node7&#45;&gt;Node8</title>
<path fill="none" stroke="midnightblue" d="M179.013,-117.025C179.013,-109.674 179.013,-99.3684 179.013,-90.3249"/>
<polygon fill="midnightblue" stroke="midnightblue" points="182.513,-90.2028 179.013,-80.2028 175.513,-90.2028 182.513,-90.2028"/>
</g>
<!-- Node9 -->
<g id="node9" class="node"><title>Node9</title>
<polygon fill="white" stroke="#bfbfbf" points="278.009,-0.5 278.009,-21.835 342.017,-21.835 342.017,-0.5 278.009,-0.5"/>
<text text-anchor="middle" x="310.013" y="-9.83496" font-family="Monaco" font-size="10.00">QVariant</text>
</g>
<!-- Node7&#45;&gt;Node9 -->
<g id="edge8" class="edge"><title>Node7&#45;&gt;Node9</title>
<path fill="none" stroke="midnightblue" d="M226.28,-126.217C260.847,-122.968 305.623,-112.342 329.013,-80.6699 339.839,-66.0108 331.856,-45.4727 323.159,-30.7141"/>
<polygon fill="midnightblue" stroke="midnightblue" points="325.887,-28.4851 317.532,-21.9701 320.001,-32.2734 325.887,-28.4851"/>
</g>
<!-- Node10 -->
<g id="node10" class="node"><title>Node10</title>
<g id="a_node10"><a xlink:href="hydrocouple_8h.html" target="_top" xlink:title="hydrocouple.h">
<polygon fill="white" stroke="black" points="226.007,-58.835 226.007,-80.1699 320.02,-80.1699 320.02,-58.835 226.007,-58.835"/>
<text text-anchor="middle" x="273.013" y="-68.1699" font-family="Monaco" font-size="10.00">hydrocouple.h</text>
</a>
</g>
</g>
<!-- Node7&#45;&gt;Node10 -->
<g id="edge10" class="edge"><title>Node7&#45;&gt;Node10</title>
<path fill="none" stroke="midnightblue" d="M195.387,-117.025C209.944,-108.3 231.444,-95.4151 248.128,-85.4161"/>
<polygon fill="midnightblue" stroke="midnightblue" points="250.049,-88.3456 256.827,-80.2028 246.45,-82.3413 250.049,-88.3456"/>
</g>
<!-- Node10&#45;&gt;Node6 -->
<g id="edge11" class="edge"><title>Node10&#45;&gt;Node6</title>
<path fill="none" stroke="midnightblue" d="M253.416,-58.8181C235.39,-49.9103 208.429,-36.587 187.929,-26.4566"/>
<polygon fill="midnightblue" stroke="midnightblue" points="189.252,-23.2065 178.736,-21.914 186.151,-29.482 189.252,-23.2065"/>
</g>
<!-- Node10&#45;&gt;Node9 -->
<g id="edge12" class="edge"><title>Node10&#45;&gt;Node9</title>
<path fill="none" stroke="midnightblue" d="M279.458,-58.6896C284.551,-50.9347 291.804,-39.8921 297.965,-30.5114"/>
<polygon fill="midnightblue" stroke="midnightblue" points="301.078,-32.1477 303.642,-21.8678 295.227,-28.3049 301.078,-32.1477"/>
</g>
</g>
</svg>
