<?xml version="1.0" encoding="UTF-8" standalone="no"?>
<!DOCTYPE svg PUBLIC "-//W3C//DTD SVG 1.1//EN"
 "http://www.w3.org/Graphics/SVG/1.1/DTD/svg11.dtd">
<!-- Generated by graphviz version 2.38.0 (20140413.2041)
 -->
<!-- Title: /Users/calebbuahin/Documents/Projects/HydroCouple/HydroCoupleSDK/src/description.cpp Pages: 1 -->
<svg width="360pt" height="245pt"
 viewBox="0.00 0.00 360.02 245.34" xmlns="http://www.w3.org/2000/svg" xmlns:xlink="http://www.w3.org/1999/xlink">
<g id="graph0" class="graph" transform="scale(1 1) rotate(0) translate(4 241.345)">
<title>/Users/calebbuahin/Documents/Projects/HydroCouple/HydroCoupleSDK/src/description.cpp</title>
<polygon fill="white" stroke="none" points="-4,4 -4,-241.345 356.021,-241.345 356.021,4 -4,4"/>
<!-- Node1 -->
<g id="node1" class="node"><title>Node1</title>
<polygon fill="#bfbfbf" stroke="black" points="0,-175.505 0,-236.845 178.026,-236.845 178.026,-175.505 0,-175.505"/>
<text text-anchor="start" x="8" y="-224.845" font-family="Monaco" font-size="10.00">/Users/calebbuahin</text>
<text text-anchor="start" x="8" y="-211.51" font-family="Monaco" font-size="10.00">/Documents/Projects</text>
<text text-anchor="start" x="8" y="-198.175" font-family="Monaco" font-size="10.00">/HydroCouple/HydroCoupleSDK</text>
<text text-anchor="middle" x="89.0132" y="-184.84" font-family="Monaco" font-size="10.00">/src/description.cpp</text>
</g>
<!-- Node2 -->
<g id="node2" class="node"><title>Node2</title>
<polygon fill="white" stroke="#bfbfbf" points="9.00928,-117.17 9.00928,-138.505 73.0171,-138.505 73.0171,-117.17 9.00928,-117.17"/>
<text text-anchor="middle" x="41.0132" y="-126.505" font-family="Monaco" font-size="10.00">stdafx.h</text>
</g>
<!-- Node1&#45;&gt;Node2 -->
<g id="edge1" class="edge"><title>Node1&#45;&gt;Node2</title>
<path fill="none" stroke="midnightblue" d="M70.3177,-175.442C64.3505,-165.952 57.9228,-155.73 52.6121,-147.284"/>
<polygon fill="midnightblue" stroke="midnightblue" points="55.4608,-145.239 47.1748,-138.637 49.5349,-148.965 55.4608,-145.239"/>
</g>
<!-- Node3 -->
<g id="node3" class="node"><title>Node3</title>
<g id="a_node3"><a xlink:href="description_8h.html" target="_top" xlink:title="description.h">
<polygon fill="white" stroke="black" points="91.0068,-117.17 91.0068,-138.505 185.02,-138.505 185.02,-117.17 91.0068,-117.17"/>
<text text-anchor="middle" x="138.013" y="-126.505" font-family="Monaco" font-size="10.00">description.h</text>
</a>
</g>
</g>
<!-- Node1&#45;&gt;Node3 -->
<g id="edge2" class="edge"><title>Node1&#45;&gt;Node3</title>
<path fill="none" stroke="midnightblue" d="M108.098,-175.442C114.19,-165.952 120.751,-155.73 126.173,-147.284"/>
<polygon fill="midnightblue" stroke="midnightblue" points="129.267,-148.943 131.723,-138.637 123.376,-145.161 129.267,-148.943"/>
</g>
<!-- Node4 -->
<g id="node4" class="node"><title>Node4</title>
<polygon fill="white" stroke="#bfbfbf" points="14.0098,-58.835 14.0098,-80.1699 72.0166,-80.1699 72.0166,-58.835 14.0098,-58.835"/>
<text text-anchor="middle" x="43.0132" y="-68.1699" font-family="Monaco" font-size="10.00">QObject</text>
</g>
<!-- Node3&#45;&gt;Node4 -->
<g id="edge3" class="edge"><title>Node3&#45;&gt;Node4</title>
<path fill="none" stroke="midnightblue" d="M121.465,-117.025C106.753,-108.3 85.0244,-95.4151 68.1627,-85.4161"/>
<polygon fill="midnightblue" stroke="midnightblue" points="69.7579,-82.293 59.3713,-80.2028 66.1875,-88.3139 69.7579,-82.293"/>
</g>
<!-- Node5 -->
<g id="node5" class="node"><title>Node5</title>
<polygon fill="white" stroke="#bfbfbf" points="90.0093,-0.5 90.0093,-21.835 154.017,-21.835 154.017,-0.5 90.0093,-0.5"/>
<text text-anchor="middle" x="122.013" y="-9.83496" font-family="Monaco" font-size="10.00">QVariant</text>
</g>
<!-- Node3&#45;&gt;Node5 -->
<g id="edge4" class="edge"><title>Node3&#45;&gt;Node5</title>
<path fill="none" stroke="midnightblue" d="M132.601,-116.927C127.952,-107.811 121.602,-93.7642 119.013,-80.6699 115.838,-64.6126 116.939,-46.0423 118.639,-32.2908"/>
<polygon fill="midnightblue" stroke="midnightblue" points="122.155,-32.4329 120.127,-22.034 115.227,-31.428 122.155,-32.4329"/>
</g>
<!-- Node6 -->
<g id="node6" class="node"><title>Node6</title>
<g id="a_node6"><a xlink:href="hydrocouplesdk_8h.html" target="_top" xlink:title="hydrocouplesdk.h">
<polygon fill="white" stroke="black" points="240.005,-58.835 240.005,-80.1699 352.021,-80.1699 352.021,-58.835 240.005,-58.835"/>
<text text-anchor="middle" x="296.013" y="-68.1699" font-family="Monaco" font-size="10.00">hydrocouplesdk.h</text>
</a>
</g>
</g>
<!-- Node3&#45;&gt;Node6 -->
<g id="edge5" class="edge"><title>Node3&#45;&gt;Node6</title>
<path fill="none" stroke="midnightblue" d="M165.174,-117.153C191.062,-107.923 230.246,-93.9516 258.986,-83.7043"/>
<polygon fill="midnightblue" stroke="midnightblue" points="260.434,-86.9041 268.678,-80.2489 258.083,-80.3107 260.434,-86.9041"/>
</g>
<!-- Node8 -->
<g id="node8" class="node"><title>Node8</title>
<g id="a_node8"><a xlink:href="hydrocouple_8h.html" target="_top" xlink:title="hydrocouple.h">
<polygon fill="white" stroke="black" points="128.007,-58.835 128.007,-80.1699 222.02,-80.1699 222.02,-58.835 128.007,-58.835"/>
<text text-anchor="middle" x="175.013" y="-68.1699" font-family="Monaco" font-size="10.00">hydrocouple.h</text>
</a>
</g>
</g>
<!-- Node3&#45;&gt;Node8 -->
<g id="edge7" class="edge"><title>Node3&#45;&gt;Node8</title>
<path fill="none" stroke="midnightblue" d="M144.458,-117.025C149.551,-109.27 156.804,-98.2271 162.965,-88.8463"/>
<polygon fill="midnightblue" stroke="midnightblue" points="166.078,-90.4826 168.642,-80.2028 160.227,-86.6398 166.078,-90.4826"/>
</g>
<!-- Node7 -->
<g id="node7" class="node"><title>Node7</title>
<polygon fill="white" stroke="#bfbfbf" points="217.005,-0.5 217.005,-21.835 329.021,-21.835 329.021,-0.5 217.005,-0.5"/>
<text text-anchor="middle" x="273.013" y="-9.83496" font-family="Monaco" font-size="10.00">QtCore/qglobal.h</text>
</g>
<!-- Node6&#45;&gt;Node7 -->
<g id="edge6" class="edge"><title>Node6&#45;&gt;Node7</title>
<path fill="none" stroke="midnightblue" d="M292.007,-58.6896C288.94,-51.1771 284.613,-40.5791 280.863,-31.3955"/>
<polygon fill="midnightblue" stroke="midnightblue" points="283.994,-29.803 276.974,-21.8678 277.513,-32.4489 283.994,-29.803"/>
</g>
<!-- Node8&#45;&gt;Node5 -->
<g id="edge9" class="edge"><title>Node8&#45;&gt;Node5</title>
<path fill="none" stroke="midnightblue" d="M165.781,-58.6896C158.181,-50.6116 147.225,-38.9662 138.176,-29.3478"/>
<polygon fill="midnightblue" stroke="midnightblue" points="140.541,-26.7529 131.139,-21.8678 135.442,-31.5495 140.541,-26.7529"/>
</g>
<!-- Node8&#45;&gt;Node7 -->
<g id="edge8" class="edge"><title>Node8&#45;&gt;Node7</title>
<path fill="none" stroke="midnightblue" d="M192.083,-58.6896C207.26,-49.9653 229.675,-37.0801 247.069,-27.0811"/>
<polygon fill="midnightblue" stroke="midnightblue" points="249.213,-29.886 256.139,-21.8678 245.725,-23.8172 249.213,-29.886"/>
</g>
</g>
</svg>
