<?xml version="1.0" encoding="UTF-8" standalone="no"?>
<!DOCTYPE svg PUBLIC "-//W3C//DTD SVG 1.1//EN"
 "http://www.w3.org/Graphics/SVG/1.1/DTD/svg11.dtd">
<!-- Generated by graphviz version 2.38.0 (20140413.2041)
 -->
<!-- Title: /Users/calebbuahin/Documents/Projects/HydroCouple/HydroCoupleSDK/include Pages: 1 -->
<svg width="124pt" height="153pt"
 viewBox="0.00 0.00 124.00 153.33" xmlns="http://www.w3.org/2000/svg" xmlns:xlink="http://www.w3.org/1999/xlink">
<g id="graph0" class="graph" transform="scale(1 1) rotate(0) translate(4 149.335)">
<title>/Users/calebbuahin/Documents/Projects/HydroCouple/HydroCoupleSDK/include</title>
<polygon fill="white" stroke="none" points="-4,4 -4,-149.335 120,-149.335 120,4 -4,4"/>
<g id="clust1" class="cluster"><title>clusterdir_0fbcf7618e8585f69147d4a02b148155</title>
<g id="a_clust1"><a xlink:href="dir_0fbcf7618e8585f69147d4a02b148155.html" target="_top" xlink:title="HydroCoupleSDK">
<polygon fill="#ddddee" stroke="black" points="8,-64 8,-137.335 108,-137.335 108,-64 8,-64"/>
<text text-anchor="middle" x="58" y="-125.335" font-family="Monaco" font-size="10.00">HydroCoupleSDK</text>
</a>
</g>
</g>
<!-- dir_ad4773a29333109d21bf36b89272f72e -->
<g id="node1" class="node"><title>dir_ad4773a29333109d21bf36b89272f72e</title>
<g id="a_node1"><a xlink:href="dir_ad4773a29333109d21bf36b89272f72e.html" target="_top" xlink:title="include">
<polygon fill="#eeeeff" stroke="black" points="87.0068,-108 28.9932,-108 28.9932,-72 87.0068,-72 87.0068,-108"/>
<text text-anchor="middle" x="58" y="-88.6675" font-family="Monaco" font-size="10.00">include</text>
</a>
</g>
</g>
<!-- dir_a578e37db13c2c11be2c1455ba454f63 -->
<g id="node2" class="node"><title>dir_a578e37db13c2c11be2c1455ba454f63</title>
<g id="a_node2"><a xlink:href="dir_a578e37db13c2c11be2c1455ba454f63.html" target="_top" xlink:title="include">
<polygon fill="none" stroke="black" points="87.0068,-36 28.9932,-36 28.9932,-0 87.0068,-0 87.0068,-36"/>
<text text-anchor="middle" x="58" y="-16.6675" font-family="Monaco" font-size="10.00">include</text>
</a>
</g>
</g>
<!-- dir_ad4773a29333109d21bf36b89272f72e&#45;&gt;dir_a578e37db13c2c11be2c1455ba454f63 -->
<g id="edge1" class="edge"><title>dir_ad4773a29333109d21bf36b89272f72e&#45;&gt;dir_a578e37db13c2c11be2c1455ba454f63</title>
<path fill="none" stroke="black" d="M58,-71.6966C58,-63.9827 58,-54.7125 58,-46.1124"/>
<polygon fill="black" stroke="black" points="61.5001,-46.1043 58,-36.1043 54.5001,-46.1044 61.5001,-46.1043"/>
<g id="a_edge1&#45;headlabel"><a xlink:href="dir_000002_000000.html" target="_top" xlink:title="2">
<text text-anchor="middle" x="64.3393" y="-48.3664" font-family="Monaco" font-size="10.00">2</text>
</a>
</g>
</g>
</g>
</svg>
