<?xml version="1.0" encoding="UTF-8" standalone="no"?>
<!DOCTYPE svg PUBLIC "-//W3C//DTD SVG 1.1//EN"
 "http://www.w3.org/Graphics/SVG/1.1/DTD/svg11.dtd">
<!-- Generated by graphviz version 2.38.0 (20140413.2041)
 -->
<!-- Title: /Users/calebbuahin/Documents/Projects/HydroCouple/HydroCoupleSDK Pages: 1 -->
<svg width="212pt" height="204pt"
 viewBox="0.00 0.00 212.00 204.00" xmlns="http://www.w3.org/2000/svg" xmlns:xlink="http://www.w3.org/1999/xlink">
<g id="graph0" class="graph" transform="scale(1 1) rotate(0) translate(4 200)">
<title>/Users/calebbuahin/Documents/Projects/HydroCouple/HydroCoupleSDK</title>
<polygon fill="white" stroke="none" points="-4,4 -4,-200 208,-200 208,4 -4,4"/>
<g id="clust1" class="cluster"><title>clusterdir_0fbcf7618e8585f69147d4a02b148155</title>
<g id="a_clust1"><a xlink:href="dir_0fbcf7618e8585f69147d4a02b148155.html" target="_top">
<polygon fill="#eeeeff" stroke="black" points="8,-64 8,-188 196,-188 196,-64 8,-64"/>
</a>
</g>
</g>
<!-- dir_0fbcf7618e8585f69147d4a02b148155 -->
<g id="node1" class="node"><title>dir_0fbcf7618e8585f69147d4a02b148155</title>
<text text-anchor="middle" x="138" y="-160.667" font-family="Monaco" font-size="10.00">HydroCoupleSDK</text>
</g>
<!-- dir_ad4773a29333109d21bf36b89272f72e -->
<g id="node2" class="node"><title>dir_ad4773a29333109d21bf36b89272f72e</title>
<g id="a_node2"><a xlink:href="dir_ad4773a29333109d21bf36b89272f72e.html" target="_top" xlink:title="include">
<polygon fill="white" stroke="black" points="74.0068,-108 15.9932,-108 15.9932,-72 74.0068,-72 74.0068,-108"/>
<text text-anchor="middle" x="45" y="-88.6675" font-family="Monaco" font-size="10.00">include</text>
</a>
</g>
</g>
<!-- dir_a578e37db13c2c11be2c1455ba454f63 -->
<g id="node4" class="node"><title>dir_a578e37db13c2c11be2c1455ba454f63</title>
<g id="a_node4"><a xlink:href="dir_a578e37db13c2c11be2c1455ba454f63.html" target="_top" xlink:title="include">
<polygon fill="none" stroke="black" points="74.0068,-36 15.9932,-36 15.9932,-0 74.0068,-0 74.0068,-36"/>
<text text-anchor="middle" x="45" y="-16.6675" font-family="Monaco" font-size="10.00">include</text>
</a>
</g>
</g>
<!-- dir_ad4773a29333109d21bf36b89272f72e&#45;&gt;dir_a578e37db13c2c11be2c1455ba454f63 -->
<g id="edge1" class="edge"><title>dir_ad4773a29333109d21bf36b89272f72e&#45;&gt;dir_a578e37db13c2c11be2c1455ba454f63</title>
<path fill="none" stroke="black" d="M45,-71.6966C45,-63.9827 45,-54.7125 45,-46.1124"/>
<polygon fill="black" stroke="black" points="48.5001,-46.1043 45,-36.1043 41.5001,-46.1044 48.5001,-46.1043"/>
<g id="a_edge1&#45;headlabel"><a xlink:href="dir_000002_000000.html" target="_top" xlink:title="2">
<text text-anchor="middle" x="51.3393" y="-48.3664" font-family="Monaco" font-size="10.00">2</text>
</a>
</g>
</g>
<!-- dir_60c5dfeafc61445fe157e2bb155f23bf -->
<g id="node3" class="node"><title>dir_60c5dfeafc61445fe157e2bb155f23bf</title>
<g id="a_node3"><a xlink:href="dir_60c5dfeafc61445fe157e2bb155f23bf.html" target="_top" xlink:title="src">
<polygon fill="white" stroke="black" points="70,-180 16,-180 16,-144 70,-144 70,-180"/>
<text text-anchor="middle" x="43" y="-160.667" font-family="Monaco" font-size="10.00">src</text>
</a>
</g>
</g>
<!-- dir_60c5dfeafc61445fe157e2bb155f23bf&#45;&gt;dir_ad4773a29333109d21bf36b89272f72e -->
<g id="edge2" class="edge"><title>dir_60c5dfeafc61445fe157e2bb155f23bf&#45;&gt;dir_ad4773a29333109d21bf36b89272f72e</title>
<path fill="none" stroke="black" d="M43.4944,-143.697C43.7148,-135.983 43.9796,-126.712 44.2254,-118.112"/>
<polygon fill="black" stroke="black" points="47.7242,-118.2 44.5113,-108.104 40.727,-118 47.7242,-118.2"/>
<g id="a_edge2&#45;headlabel"><a xlink:href="dir_000004_000002.html" target="_top" xlink:title="7">
<text text-anchor="middle" x="50.4597" y="-120.542" font-family="Monaco" font-size="10.00">7</text>
</a>
</g>
</g>
</g>
</svg>
