<?xml version="1.0" encoding="UTF-8" standalone="no"?>
<!DOCTYPE svg PUBLIC "-//W3C//DTD SVG 1.1//EN"
 "http://www.w3.org/Graphics/SVG/1.1/DTD/svg11.dtd">
<!-- Generated by graphviz version 2.38.0 (20140413.2041)
 -->
<!-- Title: Graph Legend Pages: 1 -->
<svg width="566pt" height="171pt"
 viewBox="0.00 0.00 566.01 170.67" xmlns="http://www.w3.org/2000/svg" xmlns:xlink="http://www.w3.org/1999/xlink">
<g id="graph0" class="graph" transform="scale(1 1) rotate(0) translate(4 166.675)">
<title>Graph Legend</title>
<!-- Node9 -->
<g id="node1" class="node"><title>Node9</title>
<polygon fill="#bfbfbf" stroke="black" points="333.014,-21.5051 262.996,-21.5051 262.996,0.170152 333.014,0.170152 333.014,-21.5051"/>
<text text-anchor="middle" x="298.005" y="-9.33496" font-family="Monaco" font-size="10.00">Inherited</text>
</g>
<!-- Node10 -->
<g id="node2" class="node"><title>Node10</title>
<g id="a_node2"><a xlink:href="$classPublicBase.html" xlink:title="PublicBase">
<polygon fill="none" stroke="black" points="76.0146,-92.175 -0.00488344,-92.175 -0.00488344,-70.4998 76.0146,-70.4998 76.0146,-92.175"/>
<text text-anchor="middle" x="38.0049" y="-80.0049" font-family="Monaco" font-size="10.00">PublicBase</text>
</a>
</g>
</g>
<!-- Node10&#45;&gt;Node9 -->
<g id="edge1" class="edge"><title>Node10&#45;&gt;Node9</title>
<path fill="none" stroke="midnightblue" d="M84.5113,-68.0543C135.629,-54.5535 216.602,-33.1673 262.74,-20.9814"/>
<polygon fill="midnightblue" stroke="midnightblue" points="83.4798,-64.7067 74.7051,-70.6443 85.2673,-71.4746 83.4798,-64.7067"/>
</g>
<!-- Node11 -->
<g id="node3" class="node"><title>Node11</title>
<g id="a_node3"><a xlink:href="$classTruncated.html" xlink:title="Truncated">
<polygon fill="none" stroke="red" points="73.0137,-162.845 2.99609,-162.845 2.99609,-141.17 73.0137,-141.17 73.0137,-162.845"/>
<text text-anchor="middle" x="38.0049" y="-150.675" font-family="Monaco" font-size="10.00">Truncated</text>
</a>
</g>
</g>
<!-- Node11&#45;&gt;Node10 -->
<g id="edge2" class="edge"><title>Node11&#45;&gt;Node10</title>
<path fill="none" stroke="midnightblue" d="M38.0049,-131.007C38.0049,-118.239 38.0049,-102.247 38.0049,-92.1579"/>
<polygon fill="midnightblue" stroke="midnightblue" points="34.505,-131.169 38.0049,-141.169 41.505,-131.169 34.505,-131.169"/>
</g>
<!-- Node13 -->
<g id="node4" class="node"><title>Node13</title>
<g id="a_node4"><a xlink:href="$classProtectedBase.html" xlink:title="ProtectedBase">
<polygon fill="none" stroke="black" points="188.018,-92.175 93.9922,-92.175 93.9922,-70.4998 188.018,-70.4998 188.018,-92.175"/>
<text text-anchor="middle" x="141.005" y="-80.0049" font-family="Monaco" font-size="10.00">ProtectedBase</text>
</a>
</g>
</g>
<!-- Node13&#45;&gt;Node9 -->
<g id="edge3" class="edge"><title>Node13&#45;&gt;Node9</title>
<path fill="none" stroke="darkgreen" d="M172.522,-66.5524C203.096,-53.1795 248.714,-33.2267 275.703,-21.4222"/>
<polygon fill="darkgreen" stroke="darkgreen" points="170.926,-63.4303 163.166,-70.6443 173.731,-69.8436 170.926,-63.4303"/>
</g>
<!-- Node14 -->
<g id="node5" class="node"><title>Node14</title>
<g id="a_node5"><a xlink:href="$classPrivateBase.html" xlink:title="PrivateBase">
<polygon fill="none" stroke="black" points="288.016,-92.175 205.994,-92.175 205.994,-70.4998 288.016,-70.4998 288.016,-92.175"/>
<text text-anchor="middle" x="247.005" y="-80.0049" font-family="Monaco" font-size="10.00">PrivateBase</text>
</a>
</g>
</g>
<!-- Node14&#45;&gt;Node9 -->
<g id="edge4" class="edge"><title>Node14&#45;&gt;Node9</title>
<path fill="none" stroke="#8b1a1a" d="M260.441,-62.2461C270.13,-49.1995 282.84,-32.087 290.711,-21.488"/>
<polygon fill="#8b1a1a" stroke="#8b1a1a" points="257.464,-60.3837 254.312,-70.4987 263.084,-64.5574 257.464,-60.3837"/>
</g>
<!-- Node15 -->
<g id="node6" class="node"><title>Node15</title>
<polygon fill="none" stroke="#bfbfbf" points="394.017,-92.175 305.993,-92.175 305.993,-70.4998 394.017,-70.4998 394.017,-92.175"/>
<text text-anchor="middle" x="350.005" y="-80.0049" font-family="Monaco" font-size="10.00">Undocumented</text>
</g>
<!-- Node15&#45;&gt;Node9 -->
<g id="edge5" class="edge"><title>Node15&#45;&gt;Node9</title>
<path fill="none" stroke="midnightblue" d="M336.305,-62.2461C326.426,-49.1995 313.467,-32.087 305.441,-21.488"/>
<polygon fill="midnightblue" stroke="midnightblue" points="333.727,-64.6394 342.555,-70.4987 339.308,-60.4135 333.727,-64.6394"/>
</g>
<!-- Node16 -->
<g id="node7" class="node"><title>Node16</title>
<g id="a_node7"><a xlink:href="$classTempl.html" xlink:title="Templ&lt; int &gt;">
<polygon fill="none" stroke="black" points="500.017,-92.175 411.993,-92.175 411.993,-70.4998 500.017,-70.4998 500.017,-92.175"/>
<text text-anchor="middle" x="456.005" y="-80.0049" font-family="Monaco" font-size="10.00">Templ&lt; int &gt;</text>
</a>
</g>
</g>
<!-- Node16&#45;&gt;Node9 -->
<g id="edge6" class="edge"><title>Node16&#45;&gt;Node9</title>
<path fill="none" stroke="midnightblue" d="M424.287,-66.5524C393.518,-53.1795 347.61,-33.2267 320.449,-21.4222"/>
<polygon fill="midnightblue" stroke="midnightblue" points="423.136,-69.8682 433.702,-70.6443 425.926,-63.4483 423.136,-69.8682"/>
</g>
<!-- Node17 -->
<g id="node8" class="node"><title>Node17</title>
<g id="a_node8"><a xlink:href="$classTempl.html" xlink:title="Templ&lt; T &gt;">
<polygon fill="none" stroke="black" points="494.015,-162.845 417.995,-162.845 417.995,-141.17 494.015,-141.17 494.015,-162.845"/>
<text text-anchor="middle" x="456.005" y="-150.675" font-family="Monaco" font-size="10.00">Templ&lt; T &gt;</text>
</a>
</g>
</g>
<!-- Node17&#45;&gt;Node16 -->
<g id="edge7" class="edge"><title>Node17&#45;&gt;Node16</title>
<path fill="none" stroke="orange" stroke-dasharray="5,2" d="M456.005,-131.007C456.005,-118.239 456.005,-102.247 456.005,-92.1579"/>
<polygon fill="orange" stroke="orange" points="452.505,-131.169 456.005,-141.169 459.505,-131.169 452.505,-131.169"/>
<text text-anchor="middle" x="477.008" y="-115.34" font-family="Monaco" font-size="10.00">&lt; int &gt;</text>
</g>
<!-- Node18 -->
<g id="node9" class="node"><title>Node18</title>
<g id="a_node9"><a xlink:href="$classUsed.html" xlink:title="Used">
<polygon fill="none" stroke="black" points="558.009,-92.175 518.001,-92.175 518.001,-70.4998 558.009,-70.4998 558.009,-92.175"/>
<text text-anchor="middle" x="538.005" y="-80.0049" font-family="Monaco" font-size="10.00">Used</text>
</a>
</g>
</g>
<!-- Node18&#45;&gt;Node9 -->
<g id="edge8" class="edge"><title>Node18&#45;&gt;Node9</title>
<path fill="none" stroke="#9a32cd" stroke-dasharray="5,2" d="M507.879,-70.4242C440.832,-50.017 373.304,-31.6352 333.253,-20.9561"/>
<polygon fill="#9a32cd" stroke="#9a32cd" points="507.178,-73.8698 517.764,-73.4491 509.226,-67.1761 507.178,-73.8698"/>
<text text-anchor="middle" x="478.01" y="-44.6699" font-family="Monaco" font-size="10.00">m_usedClass</text>
</g>
</g>
</svg>
