<?xml version="1.0" encoding="UTF-8" standalone="no"?>
<!DOCTYPE svg PUBLIC "-//W3C//DTD SVG 1.1//EN"
 "http://www.w3.org/Graphics/SVG/1.1/DTD/svg11.dtd">
<!-- Generated by graphviz version 2.38.0 (20140413.2041)
 -->
<!-- Title: /Users/calebbuahin/Documents/Projects/HydroCouple/HydroCouple/include/hydrocouple.h Pages: 1 -->
<svg width="412pt" height="267pt"
 viewBox="0.00 0.00 412.03 267.02" xmlns="http://www.w3.org/2000/svg" xmlns:xlink="http://www.w3.org/1999/xlink">
<g id="graph0" class="graph" transform="scale(1 1) rotate(0) translate(4 263.02)">
<title>/Users/calebbuahin/Documents/Projects/HydroCouple/HydroCouple/include/hydrocouple.h</title>
<!-- Node1 -->
<g id="node1" class="node"><title>Node1</title>
<polygon fill="#bfbfbf" stroke="black" points="120.002,-197.18 120.002,-258.52 280.026,-258.52 280.026,-197.18 120.002,-197.18"/>
<text text-anchor="start" x="128.002" y="-246.52" font-family="Monaco" font-size="10.00">/Users/calebbuahin</text>
<text text-anchor="start" x="128.002" y="-233.185" font-family="Monaco" font-size="10.00">/Documents/Projects</text>
<text text-anchor="start" x="128.002" y="-219.85" font-family="Monaco" font-size="10.00">/HydroCouple/HydroCouple</text>
<text text-anchor="middle" x="200.014" y="-206.515" font-family="Monaco" font-size="10.00">/include/hydrocouple.h</text>
</g>
<!-- Node2 -->
<g id="node2" class="node"><title>Node2</title>
<g id="a_node2"><a xlink:href="hydrocouplespatial_8h.html" target="_top" xlink:title="/Users/calebbuahin\l/Documents/Projects\l/HydroCouple/HydroCouple\l/include/hydrocouplespatial.h">
<polygon fill="none" stroke="black" points="0,-98.8398 0,-160.18 190.028,-160.18 190.028,-98.8398 0,-98.8398"/>
<text text-anchor="start" x="8" y="-148.18" font-family="Monaco" font-size="10.00">/Users/calebbuahin</text>
<text text-anchor="start" x="8" y="-134.845" font-family="Monaco" font-size="10.00">/Documents/Projects</text>
<text text-anchor="start" x="8" y="-121.51" font-family="Monaco" font-size="10.00">/HydroCouple/HydroCouple</text>
<text text-anchor="middle" x="95.0142" y="-108.175" font-family="Monaco" font-size="10.00">/include/hydrocouplespatial.h</text>
</a>
</g>
</g>
<!-- Node1&#45;&gt;Node2 -->
<g id="edge1" class="edge"><title>Node1&#45;&gt;Node2</title>
<path fill="none" stroke="midnightblue" d="M159.982,-190.119C149.228,-180.252 137.734,-169.706 127.448,-160.269"/>
<polygon fill="midnightblue" stroke="midnightblue" points="157.919,-192.977 167.654,-197.158 162.652,-187.819 157.919,-192.977"/>
</g>
<!-- Node4 -->
<g id="node4" class="node"><title>Node4</title>
<g id="a_node4"><a xlink:href="hydrocoupletemporal_8h.html" target="_top" xlink:title="/Users/calebbuahin\l/Documents/Projects\l/HydroCouple/HydroCouple\l/include/hydrocoupletemporal.h">
<polygon fill="none" stroke="black" points="208,-98.8398 208,-160.18 404.029,-160.18 404.029,-98.8398 208,-98.8398"/>
<text text-anchor="start" x="216" y="-148.18" font-family="Monaco" font-size="10.00">/Users/calebbuahin</text>
<text text-anchor="start" x="216" y="-134.845" font-family="Monaco" font-size="10.00">/Documents/Projects</text>
<text text-anchor="start" x="216" y="-121.51" font-family="Monaco" font-size="10.00">/HydroCouple/HydroCouple</text>
<text text-anchor="middle" x="306.014" y="-108.175" font-family="Monaco" font-size="10.00">/include/hydrocoupletemporal.h</text>
</a>
</g>
</g>
<!-- Node1&#45;&gt;Node4 -->
<g id="edge3" class="edge"><title>Node1&#45;&gt;Node4</title>
<path fill="none" stroke="midnightblue" d="M240.111,-190.407C251.058,-180.457 262.787,-169.797 273.271,-160.269"/>
<polygon fill="midnightblue" stroke="midnightblue" points="237.729,-187.842 232.683,-197.158 242.437,-193.023 237.729,-187.842"/>
</g>
<!-- Node3 -->
<g id="node3" class="node"><title>Node3</title>
<g id="a_node3"><a xlink:href="hydrocouplespatiotemporal_8h.html" target="_top" xlink:title="/Users/calebbuahin\l/Documents/Projects\l/HydroCouple/HydroCouple\l/include/hydrocouplespatiotemporal.h">
<polygon fill="none" stroke="black" points="83.9966,-0.5 83.9966,-61.8398 316.032,-61.8398 316.032,-0.5 83.9966,-0.5"/>
<text text-anchor="start" x="91.9966" y="-49.8398" font-family="Monaco" font-size="10.00">/Users/calebbuahin</text>
<text text-anchor="start" x="91.9966" y="-36.5049" font-family="Monaco" font-size="10.00">/Documents/Projects</text>
<text text-anchor="start" x="91.9966" y="-23.1699" font-family="Monaco" font-size="10.00">/HydroCouple/HydroCouple</text>
<text text-anchor="middle" x="200.014" y="-9.83496" font-family="Monaco" font-size="10.00">/include/hydrocouplespatiotemporal.h</text>
</a>
</g>
</g>
<!-- Node2&#45;&gt;Node3 -->
<g id="edge2" class="edge"><title>Node2&#45;&gt;Node3</title>
<path fill="none" stroke="midnightblue" d="M135.046,-91.7796C145.8,-81.9126 157.295,-71.3659 167.58,-61.929"/>
<polygon fill="midnightblue" stroke="midnightblue" points="132.377,-89.4789 127.374,-98.8185 137.109,-94.6368 132.377,-89.4789"/>
</g>
<!-- Node4&#45;&gt;Node3 -->
<g id="edge4" class="edge"><title>Node4&#45;&gt;Node3</title>
<path fill="none" stroke="midnightblue" d="M265.917,-92.0667C254.97,-82.1175 243.241,-71.4575 232.757,-61.929"/>
<polygon fill="midnightblue" stroke="midnightblue" points="263.591,-94.6828 273.346,-98.8185 268.3,-89.5026 263.591,-94.6828"/>
</g>
</g>
</svg>
