<?xml version="1.0" encoding="UTF-8" standalone="no"?>
<!DOCTYPE svg PUBLIC "-//W3C//DTD SVG 1.1//EN"
 "http://www.w3.org/Graphics/SVG/1.1/DTD/svg11.dtd">
<!-- Generated by graphviz version 2.38.0 (20140413.2041)
 -->
<!-- Title: /Users/calebbuahin/Documents/Projects/HydroCouple/HydroCouple/include/hydrocouple.h Pages: 1 -->
<svg width="932pt" height="562pt"
 viewBox="0.00 0.00 932.03 562.04" xmlns="http://www.w3.org/2000/svg" xmlns:xlink="http://www.w3.org/1999/xlink">
<g id="graph0" class="graph" transform="scale(1 1) rotate(0) translate(4 558.039)">
<title>/Users/calebbuahin/Documents/Projects/HydroCouple/HydroCouple/include/hydrocouple.h</title>
<polygon fill="white" stroke="none" points="-4,4 -4,-558.039 928.034,-558.039 928.034,4 -4,4"/>
<!-- Node1 -->
<g id="node1" class="node"><title>Node1</title>
<polygon fill="#bfbfbf" stroke="black" points="460.002,-492.199 460.002,-553.539 620.026,-553.539 620.026,-492.199 460.002,-492.199"/>
<text text-anchor="start" x="468.002" y="-541.539" font-family="Monaco" font-size="10.00">/Users/calebbuahin</text>
<text text-anchor="start" x="468.002" y="-528.204" font-family="Monaco" font-size="10.00">/Documents/Projects</text>
<text text-anchor="start" x="468.002" y="-514.869" font-family="Monaco" font-size="10.00">/HydroCouple/HydroCouple</text>
<text text-anchor="middle" x="540.014" y="-501.534" font-family="Monaco" font-size="10.00">/include/hydrocouple.h</text>
</g>
<!-- Node2 -->
<g id="node2" class="node"><title>Node2</title>
<g id="a_node2"><a xlink:href="hydrocouplespatial_8h.html" target="_top" xlink:title="/Users/calebbuahin\l/Documents/Projects\l/HydroCouple/HydroCouple\l/include/hydrocouplespatial.h">
<polygon fill="white" stroke="black" points="132,-393.859 132,-455.199 322.028,-455.199 322.028,-393.859 132,-393.859"/>
<text text-anchor="start" x="140" y="-443.199" font-family="Monaco" font-size="10.00">/Users/calebbuahin</text>
<text text-anchor="start" x="140" y="-429.864" font-family="Monaco" font-size="10.00">/Documents/Projects</text>
<text text-anchor="start" x="140" y="-416.529" font-family="Monaco" font-size="10.00">/HydroCouple/HydroCouple</text>
<text text-anchor="middle" x="227.014" y="-403.194" font-family="Monaco" font-size="10.00">/include/hydrocouplespatial.h</text>
</a>
</g>
</g>
<!-- Node1&#45;&gt;Node2 -->
<g id="edge1" class="edge"><title>Node1&#45;&gt;Node2</title>
<path fill="none" stroke="midnightblue" d="M450.051,-494.179C409.956,-481.838 362.702,-467.293 322.033,-454.776"/>
<polygon fill="midnightblue" stroke="midnightblue" points="449.228,-497.588 459.815,-497.184 451.287,-490.897 449.228,-497.588"/>
</g>
<!-- Node4 -->
<g id="node4" class="node"><title>Node4</title>
<g id="a_node4"><a xlink:href="hydrocoupletemporal_8h.html" target="_top" xlink:title="/Users/calebbuahin\l/Documents/Projects\l/HydroCouple/HydroCouple\l/include/hydrocoupletemporal.h">
<polygon fill="white" stroke="black" points="340,-393.859 340,-455.199 536.029,-455.199 536.029,-393.859 340,-393.859"/>
<text text-anchor="start" x="348" y="-443.199" font-family="Monaco" font-size="10.00">/Users/calebbuahin</text>
<text text-anchor="start" x="348" y="-429.864" font-family="Monaco" font-size="10.00">/Documents/Projects</text>
<text text-anchor="start" x="348" y="-416.529" font-family="Monaco" font-size="10.00">/HydroCouple/HydroCouple</text>
<text text-anchor="middle" x="438.014" y="-403.194" font-family="Monaco" font-size="10.00">/include/hydrocoupletemporal.h</text>
</a>
</g>
</g>
<!-- Node1&#45;&gt;Node4 -->
<g id="edge3" class="edge"><title>Node1&#45;&gt;Node4</title>
<path fill="none" stroke="midnightblue" d="M501.126,-485.139C490.679,-475.272 479.513,-464.725 469.522,-455.288"/>
<polygon fill="midnightblue" stroke="midnightblue" points="498.905,-487.856 508.579,-492.178 503.712,-482.767 498.905,-487.856"/>
</g>
<!-- Node5 -->
<g id="node5" class="node"><title>Node5</title>
<g id="a_node5"><a xlink:href="description_8h.html" target="_top" xlink:title="/Users/calebbuahin\l/Documents/Projects\l/HydroCouple/HydroCoupleSDK\l/include/description.h">
<polygon fill="white" stroke="black" points="554.001,-393.859 554.001,-455.199 732.027,-455.199 732.027,-393.859 554.001,-393.859"/>
<text text-anchor="start" x="562.001" y="-443.199" font-family="Monaco" font-size="10.00">/Users/calebbuahin</text>
<text text-anchor="start" x="562.001" y="-429.864" font-family="Monaco" font-size="10.00">/Documents/Projects</text>
<text text-anchor="start" x="562.001" y="-416.529" font-family="Monaco" font-size="10.00">/HydroCouple/HydroCoupleSDK</text>
<text text-anchor="middle" x="643.014" y="-403.194" font-family="Monaco" font-size="10.00">/include/description.h</text>
</a>
</g>
</g>
<!-- Node1&#45;&gt;Node5 -->
<g id="edge5" class="edge"><title>Node1&#45;&gt;Node5</title>
<path fill="none" stroke="midnightblue" d="M579.284,-485.139C589.833,-475.272 601.108,-464.725 611.198,-455.288"/>
<polygon fill="midnightblue" stroke="midnightblue" points="576.67,-482.791 571.758,-492.178 581.452,-487.903 576.67,-482.791"/>
</g>
<!-- Node8 -->
<g id="node8" class="node"><title>Node8</title>
<g id="a_node8"><a xlink:href="componentstatuschangeeventargs_8h.html" target="_top" xlink:title="/Users/calebbuahin\l/Documents/Projects\l/HydroCouple/HydroCoupleSDK\l/include/componentstatuschangeeventargs.h">
<polygon fill="white" stroke="black" points="661.994,-98.8398 661.994,-160.18 924.034,-160.18 924.034,-98.8398 661.994,-98.8398"/>
<text text-anchor="start" x="669.994" y="-148.18" font-family="Monaco" font-size="10.00">/Users/calebbuahin</text>
<text text-anchor="start" x="669.994" y="-134.845" font-family="Monaco" font-size="10.00">/Documents/Projects</text>
<text text-anchor="start" x="669.994" y="-121.51" font-family="Monaco" font-size="10.00">/HydroCouple/HydroCoupleSDK</text>
<text text-anchor="middle" x="793.014" y="-108.175" font-family="Monaco" font-size="10.00">/include/componentstatuschangeeventargs.h</text>
</a>
</g>
</g>
<!-- Node1&#45;&gt;Node8 -->
<g id="edge18" class="edge"><title>Node1&#45;&gt;Node8</title>
<path fill="none" stroke="midnightblue" d="M630.121,-513.183C669.745,-504.678 713.448,-488.053 741.014,-455.699 814.246,-369.748 805.433,-222.868 797.581,-160.227"/>
<polygon fill="midnightblue" stroke="midnightblue" points="629.268,-509.784 620.147,-515.175 630.639,-516.648 629.268,-509.784"/>
</g>
<!-- Node3 -->
<g id="node3" class="node"><title>Node3</title>
<g id="a_node3"><a xlink:href="hydrocouplespatiotemporal_8h.html" target="_top" xlink:title="/Users/calebbuahin\l/Documents/Projects\l/HydroCouple/HydroCouple\l/include/hydrocouplespatiotemporal.h">
<polygon fill="white" stroke="black" points="110.997,-295.52 110.997,-356.859 343.032,-356.859 343.032,-295.52 110.997,-295.52"/>
<text text-anchor="start" x="118.997" y="-344.859" font-family="Monaco" font-size="10.00">/Users/calebbuahin</text>
<text text-anchor="start" x="118.997" y="-331.524" font-family="Monaco" font-size="10.00">/Documents/Projects</text>
<text text-anchor="start" x="118.997" y="-318.189" font-family="Monaco" font-size="10.00">/HydroCouple/HydroCouple</text>
<text text-anchor="middle" x="227.014" y="-304.854" font-family="Monaco" font-size="10.00">/include/hydrocouplespatiotemporal.h</text>
</a>
</g>
</g>
<!-- Node2&#45;&gt;Node3 -->
<g id="edge2" class="edge"><title>Node2&#45;&gt;Node3</title>
<path fill="none" stroke="midnightblue" d="M227.014,-383.617C227.014,-374.692 227.014,-365.378 227.014,-356.948"/>
<polygon fill="midnightblue" stroke="midnightblue" points="223.514,-383.838 227.014,-393.838 230.514,-383.838 223.514,-383.838"/>
</g>
<!-- Node4&#45;&gt;Node3 -->
<g id="edge4" class="edge"><title>Node4&#45;&gt;Node3</title>
<path fill="none" stroke="midnightblue" d="M363.818,-389.652C340.467,-378.99 314.866,-367.302 292.191,-356.948"/>
<polygon fill="midnightblue" stroke="midnightblue" points="362.435,-392.868 372.986,-393.838 365.343,-386.501 362.435,-392.868"/>
</g>
<!-- Node6 -->
<g id="node6" class="node"><title>Node6</title>
<g id="a_node6"><a xlink:href="identity_8h.html" target="_top" xlink:title="/Users/calebbuahin\l/Documents/Projects\l/HydroCouple/HydroCoupleSDK\l/include/identity.h">
<polygon fill="white" stroke="black" points="361.001,-295.52 361.001,-356.859 539.027,-356.859 539.027,-295.52 361.001,-295.52"/>
<text text-anchor="start" x="369.001" y="-344.859" font-family="Monaco" font-size="10.00">/Users/calebbuahin</text>
<text text-anchor="start" x="369.001" y="-331.524" font-family="Monaco" font-size="10.00">/Documents/Projects</text>
<text text-anchor="start" x="369.001" y="-318.189" font-family="Monaco" font-size="10.00">/HydroCouple/HydroCoupleSDK</text>
<text text-anchor="middle" x="450.014" y="-304.854" font-family="Monaco" font-size="10.00">/include/identity.h</text>
</a>
</g>
</g>
<!-- Node5&#45;&gt;Node6 -->
<g id="edge6" class="edge"><title>Node5&#45;&gt;Node6</title>
<path fill="none" stroke="midnightblue" d="M574.58,-389.369C553.374,-378.784 530.188,-367.21 509.631,-356.948"/>
<polygon fill="midnightblue" stroke="midnightblue" points="573.023,-392.503 583.533,-393.838 576.149,-386.24 573.023,-392.503"/>
</g>
<!-- Node16 -->
<g id="node16" class="node"><title>Node16</title>
<g id="a_node16"><a xlink:href="description_8cpp.html" target="_top" xlink:title="/Users/calebbuahin\l/Documents/Projects\l/HydroCouple/HydroCoupleSDK\l/src/description.cpp">
<polygon fill="white" stroke="black" points="557.001,-295.52 557.001,-356.859 735.027,-356.859 735.027,-295.52 557.001,-295.52"/>
<text text-anchor="start" x="565.001" y="-344.859" font-family="Monaco" font-size="10.00">/Users/calebbuahin</text>
<text text-anchor="start" x="565.001" y="-331.524" font-family="Monaco" font-size="10.00">/Documents/Projects</text>
<text text-anchor="start" x="565.001" y="-318.189" font-family="Monaco" font-size="10.00">/HydroCouple/HydroCoupleSDK</text>
<text text-anchor="middle" x="646.014" y="-304.854" font-family="Monaco" font-size="10.00">/src/description.cpp</text>
</a>
</g>
</g>
<!-- Node5&#45;&gt;Node16 -->
<g id="edge17" class="edge"><title>Node5&#45;&gt;Node16</title>
<path fill="none" stroke="midnightblue" d="M644.257,-383.617C644.535,-374.692 644.825,-365.378 645.087,-356.948"/>
<polygon fill="midnightblue" stroke="midnightblue" points="640.752,-383.734 643.939,-393.838 647.748,-383.952 640.752,-383.734"/>
</g>
<!-- Node7 -->
<g id="node7" class="node"><title>Node7</title>
<g id="a_node7"><a xlink:href="abstractmodelcomponent_8h.html" target="_top" xlink:title="/Users/calebbuahin\l/Documents/Projects\l/HydroCouple/HydroCoupleSDK\l/include/abstractmodelcomponent.h">
<polygon fill="white" stroke="black" points="532.998,-197.18 532.998,-258.52 747.03,-258.52 747.03,-197.18 532.998,-197.18"/>
<text text-anchor="start" x="540.998" y="-246.52" font-family="Monaco" font-size="10.00">/Users/calebbuahin</text>
<text text-anchor="start" x="540.998" y="-233.185" font-family="Monaco" font-size="10.00">/Documents/Projects</text>
<text text-anchor="start" x="540.998" y="-219.85" font-family="Monaco" font-size="10.00">/HydroCouple/HydroCoupleSDK</text>
<text text-anchor="middle" x="640.014" y="-206.515" font-family="Monaco" font-size="10.00">/include/abstractmodelcomponent.h</text>
</a>
</g>
</g>
<!-- Node6&#45;&gt;Node7 -->
<g id="edge7" class="edge"><title>Node6&#45;&gt;Node7</title>
<path fill="none" stroke="midnightblue" d="M517.665,-290.887C538.465,-280.341 561.177,-268.824 581.324,-258.609"/>
<polygon fill="midnightblue" stroke="midnightblue" points="515.907,-287.854 508.571,-295.498 519.073,-294.097 515.907,-287.854"/>
</g>
<!-- Node12 -->
<g id="node12" class="node"><title>Node12</title>
<g id="a_node12"><a xlink:href="componentinfo_8h.html" target="_top" xlink:title="/Users/calebbuahin\l/Documents/Projects\l/HydroCouple/HydroCoupleSDK\l/include/componentinfo.h">
<polygon fill="white" stroke="black" points="141.001,-197.18 141.001,-258.52 319.027,-258.52 319.027,-197.18 141.001,-197.18"/>
<text text-anchor="start" x="149.001" y="-246.52" font-family="Monaco" font-size="10.00">/Users/calebbuahin</text>
<text text-anchor="start" x="149.001" y="-233.185" font-family="Monaco" font-size="10.00">/Documents/Projects</text>
<text text-anchor="start" x="149.001" y="-219.85" font-family="Monaco" font-size="10.00">/HydroCouple/HydroCoupleSDK</text>
<text text-anchor="middle" x="230.014" y="-206.515" font-family="Monaco" font-size="10.00">/include/componentinfo.h</text>
</a>
</g>
</g>
<!-- Node6&#45;&gt;Node12 -->
<g id="edge12" class="edge"><title>Node6&#45;&gt;Node12</title>
<path fill="none" stroke="midnightblue" d="M372.976,-291.454C348.542,-280.754 321.718,-269.008 297.971,-258.609"/>
<polygon fill="midnightblue" stroke="midnightblue" points="371.648,-294.693 382.212,-295.498 374.456,-288.281 371.648,-294.693"/>
</g>
<!-- Node15 -->
<g id="node15" class="node"><title>Node15</title>
<g id="a_node15"><a xlink:href="identity_8cpp.html" target="_top" xlink:title="/Users/calebbuahin\l/Documents/Projects\l/HydroCouple/HydroCoupleSDK\l/src/identity.cpp">
<polygon fill="white" stroke="black" points="337.001,-197.18 337.001,-258.52 515.027,-258.52 515.027,-197.18 337.001,-197.18"/>
<text text-anchor="start" x="345.001" y="-246.52" font-family="Monaco" font-size="10.00">/Users/calebbuahin</text>
<text text-anchor="start" x="345.001" y="-233.185" font-family="Monaco" font-size="10.00">/Documents/Projects</text>
<text text-anchor="start" x="345.001" y="-219.85" font-family="Monaco" font-size="10.00">/HydroCouple/HydroCoupleSDK</text>
<text text-anchor="middle" x="426.014" y="-206.515" font-family="Monaco" font-size="10.00">/src/identity.cpp</text>
</a>
</g>
</g>
<!-- Node6&#45;&gt;Node15 -->
<g id="edge16" class="edge"><title>Node6&#45;&gt;Node15</title>
<path fill="none" stroke="midnightblue" d="M440.144,-285.568C437.898,-276.555 435.55,-267.129 433.428,-258.609"/>
<polygon fill="midnightblue" stroke="midnightblue" points="436.804,-286.641 442.618,-295.498 443.596,-284.949 436.804,-286.641"/>
</g>
<!-- Node7&#45;&gt;Node8 -->
<g id="edge8" class="edge"><title>Node7&#45;&gt;Node8</title>
<path fill="none" stroke="midnightblue" d="M696.072,-191.551C712.386,-181.279 730.038,-170.164 745.753,-160.269"/>
<polygon fill="midnightblue" stroke="midnightblue" points="693.765,-188.868 687.168,-197.158 697.495,-194.792 693.765,-188.868"/>
</g>
<!-- Node10 -->
<g id="node10" class="node"><title>Node10</title>
<g id="a_node10"><a xlink:href="abstractmodelcomponent_8cpp.html" target="_top" xlink:title="/Users/calebbuahin\l/Documents/Projects\l/HydroCouple/HydroCoupleSDK\l/src/abstractmodelcomponent.cpp">
<polygon fill="white" stroke="black" points="403.999,-98.8398 403.999,-160.18 606.029,-160.18 606.029,-98.8398 403.999,-98.8398"/>
<text text-anchor="start" x="411.999" y="-148.18" font-family="Monaco" font-size="10.00">/Users/calebbuahin</text>
<text text-anchor="start" x="411.999" y="-134.845" font-family="Monaco" font-size="10.00">/Documents/Projects</text>
<text text-anchor="start" x="411.999" y="-121.51" font-family="Monaco" font-size="10.00">/HydroCouple/HydroCoupleSDK</text>
<text text-anchor="middle" x="505.014" y="-108.175" font-family="Monaco" font-size="10.00">/src/abstractmodelcomponent.cpp</text>
</a>
</g>
</g>
<!-- Node7&#45;&gt;Node10 -->
<g id="edge10" class="edge"><title>Node7&#45;&gt;Node10</title>
<path fill="none" stroke="midnightblue" d="M590.151,-191.266C575.868,-181.073 560.453,-170.072 546.715,-160.269"/>
<polygon fill="midnightblue" stroke="midnightblue" points="588.235,-194.198 598.408,-197.158 592.301,-188.501 588.235,-194.198"/>
</g>
<!-- Node11 -->
<g id="node11" class="node"><title>Node11</title>
<g id="a_node11"><a xlink:href="modelcomponentinfo_8cpp.html" target="_top" xlink:title="/Users/calebbuahin\l/Documents/Projects\l/HydroCouple/HydroCoupleSDK\l/src/modelcomponentinfo.cpp">
<polygon fill="white" stroke="black" points="239.001,-0.5 239.001,-61.8398 417.027,-61.8398 417.027,-0.5 239.001,-0.5"/>
<text text-anchor="start" x="247.001" y="-49.8398" font-family="Monaco" font-size="10.00">/Users/calebbuahin</text>
<text text-anchor="start" x="247.001" y="-36.5049" font-family="Monaco" font-size="10.00">/Documents/Projects</text>
<text text-anchor="start" x="247.001" y="-23.1699" font-family="Monaco" font-size="10.00">/HydroCouple/HydroCoupleSDK</text>
<text text-anchor="middle" x="328.014" y="-9.83496" font-family="Monaco" font-size="10.00">/src/modelcomponentinfo.cpp</text>
</a>
</g>
</g>
<!-- Node7&#45;&gt;Node11 -->
<g id="edge11" class="edge"><title>Node7&#45;&gt;Node11</title>
<path fill="none" stroke="midnightblue" d="M642.898,-186.936C642.683,-158.581 637.448,-121.561 615.014,-98.3398 587.879,-70.2534 490.946,-52.1259 417.17,-42.0723"/>
<polygon fill="midnightblue" stroke="midnightblue" points="639.398,-186.906 642.773,-196.949 646.398,-186.994 639.398,-186.906"/>
</g>
<!-- Node9 -->
<g id="node9" class="node"><title>Node9</title>
<g id="a_node9"><a xlink:href="componentstatuschangeeventargs_8cpp.html" target="_top" xlink:title="/Users/calebbuahin\l/Documents/Projects\l/HydroCouple/HydroCoupleSDK\l/src/componentstatuschangeeventargs.cpp">
<polygon fill="white" stroke="black" points="667.995,-0.5 667.995,-61.8398 918.033,-61.8398 918.033,-0.5 667.995,-0.5"/>
<text text-anchor="start" x="675.995" y="-49.8398" font-family="Monaco" font-size="10.00">/Users/calebbuahin</text>
<text text-anchor="start" x="675.995" y="-36.5049" font-family="Monaco" font-size="10.00">/Documents/Projects</text>
<text text-anchor="start" x="675.995" y="-23.1699" font-family="Monaco" font-size="10.00">/HydroCouple/HydroCoupleSDK</text>
<text text-anchor="middle" x="793.014" y="-9.83496" font-family="Monaco" font-size="10.00">/src/componentstatuschangeeventargs.cpp</text>
</a>
</g>
</g>
<!-- Node8&#45;&gt;Node9 -->
<g id="edge9" class="edge"><title>Node8&#45;&gt;Node9</title>
<path fill="none" stroke="midnightblue" d="M793.014,-88.5972C793.014,-79.6725 793.014,-70.3581 793.014,-61.929"/>
<polygon fill="midnightblue" stroke="midnightblue" points="789.514,-88.8185 793.014,-98.8185 796.514,-88.8186 789.514,-88.8185"/>
</g>
<!-- Node13 -->
<g id="node13" class="node"><title>Node13</title>
<g id="a_node13"><a xlink:href="modelcomponentinfo_8h.html" target="_top" xlink:title="/Users/calebbuahin\l/Documents/Projects\l/HydroCouple/HydroCoupleSDK\l/include/modelcomponentinfo.h">
<polygon fill="white" stroke="black" points="0,-98.8398 0,-160.18 190.028,-160.18 190.028,-98.8398 0,-98.8398"/>
<text text-anchor="start" x="8" y="-148.18" font-family="Monaco" font-size="10.00">/Users/calebbuahin</text>
<text text-anchor="start" x="8" y="-134.845" font-family="Monaco" font-size="10.00">/Documents/Projects</text>
<text text-anchor="start" x="8" y="-121.51" font-family="Monaco" font-size="10.00">/HydroCouple/HydroCoupleSDK</text>
<text text-anchor="middle" x="95.0142" y="-108.175" font-family="Monaco" font-size="10.00">/include/modelcomponentinfo.h</text>
</a>
</g>
</g>
<!-- Node12&#45;&gt;Node13 -->
<g id="edge13" class="edge"><title>Node12&#45;&gt;Node13</title>
<path fill="none" stroke="midnightblue" d="M180.151,-191.266C165.868,-181.073 150.453,-170.072 136.715,-160.269"/>
<polygon fill="midnightblue" stroke="midnightblue" points="178.235,-194.198 188.408,-197.158 182.301,-188.501 178.235,-194.198"/>
</g>
<!-- Node14 -->
<g id="node14" class="node"><title>Node14</title>
<g id="a_node14"><a xlink:href="componentinfo_8cpp.html" target="_top" xlink:title="/Users/calebbuahin\l/Documents/Projects\l/HydroCouple/HydroCoupleSDK\l/src/componentinfo.cpp">
<polygon fill="white" stroke="black" points="208.001,-98.8398 208.001,-160.18 386.027,-160.18 386.027,-98.8398 208.001,-98.8398"/>
<text text-anchor="start" x="216.001" y="-148.18" font-family="Monaco" font-size="10.00">/Users/calebbuahin</text>
<text text-anchor="start" x="216.001" y="-134.845" font-family="Monaco" font-size="10.00">/Documents/Projects</text>
<text text-anchor="start" x="216.001" y="-121.51" font-family="Monaco" font-size="10.00">/HydroCouple/HydroCoupleSDK</text>
<text text-anchor="middle" x="297.014" y="-108.175" font-family="Monaco" font-size="10.00">/src/componentinfo.cpp</text>
</a>
</g>
</g>
<!-- Node12&#45;&gt;Node14 -->
<g id="edge15" class="edge"><title>Node12&#45;&gt;Node14</title>
<path fill="none" stroke="midnightblue" d="M256.561,-188.678C263.131,-179.231 270.074,-169.248 276.318,-160.269"/>
<polygon fill="midnightblue" stroke="midnightblue" points="253.499,-186.95 250.663,-197.158 259.246,-190.947 253.499,-186.95"/>
</g>
<!-- Node13&#45;&gt;Node11 -->
<g id="edge14" class="edge"><title>Node13&#45;&gt;Node11</title>
<path fill="none" stroke="midnightblue" d="M176.263,-94.9154C202.232,-84.1779 230.78,-72.3737 256.041,-61.929"/>
<polygon fill="midnightblue" stroke="midnightblue" points="174.727,-91.763 166.823,-98.8185 177.402,-98.2319 174.727,-91.763"/>
</g>
</g>
</svg>
