<?xml version="1.0" encoding="UTF-8" standalone="no"?>
<!DOCTYPE svg PUBLIC "-//W3C//DTD SVG 1.1//EN"
 "http://www.w3.org/Graphics/SVG/1.1/DTD/svg11.dtd">
<!-- Generated by graphviz version 2.38.0 (20140413.2041)
 -->
<!-- Title: /Users/calebbuahin/Documents/Projects/HydroCouple/HydroCoupleSDK/include/hydrocouplesdk.h Pages: 1 -->
<!--zoomable 562 -->
<svg id="main" version="1.1" xmlns="http://www.w3.org/2000/svg" xmlns:xlink="http://www.w3.org/1999/xlink" xml:space="preserve" onload="init(evt)">
<style type="text/css"><![CDATA[
.edge:hover path { stroke: red; }
.edge:hover polygon { stroke: red; fill: red; }
]]></style>
<script type="text/javascript"><![CDATA[
var edges = document.getElementsByTagName('g');
if (edges && edges.length) {
  for (var i=0;i<edges.length;i++) {
    if (edges[i].id.substr(0,4)=='edge') {
      edges[i].setAttribute('class','edge');
    }
  }
}
]]></script>
        <defs>
                <circle id="rim" cx="0" cy="0" r="7"/>
                <circle id="rim2" cx="0" cy="0" r="3.5"/>
                <g id="zoomPlus">
                        <use xlink:href="#rim" fill="#404040">
                                <set attributeName="fill" to="#808080" begin="zoomplus.mouseover" end="zoomplus.mouseout"/>
                        </use>
                        <path d="M-4,0h8M0,-4v8" fill="none" stroke="white" stroke-width="1.5" pointer-events="none"/>
                </g>
                <g id="zoomMin">
                        <use xlink:href="#rim" fill="#404040">
                                <set attributeName="fill" to="#808080" begin="zoomminus.mouseover" end="zoomminus.mouseout"/>
                        </use>
                        <path d="M-4,0h8" fill="none" stroke="white" stroke-width="1.5" pointer-events="none"/>
                </g>
                <g id="dirArrow">
                        <path fill="none" stroke="white" stroke-width="1.5" d="M0,-3.0v7 M-2.5,-0.5L0,-3.0L2.5,-0.5"/>
                </g>
               <g id="resetDef">
                       <use xlink:href="#rim2" fill="#404040">
                               <set attributeName="fill" to="#808080" begin="reset.mouseover" end="reset.mouseout"/>
                       </use>
               </g>
        </defs>

<script type="text/javascript">
var viewWidth = 932;
var viewHeight = 562;
var sectionId = 'dynsection-1';
</script>
<script xlink:href="svgpan.js"/>
<svg id="graph" class="graph">
<g id="viewport">
<title>/Users/calebbuahin/Documents/Projects/HydroCouple/HydroCoupleSDK/include/hydrocouplesdk.h</title>
<polygon fill="white" stroke="none" points="-4,4 -4,-558.039 928.033,-558.039 928.033,4 -4,4"/>
<!-- Node1 -->
<g id="node1" class="node"><title>Node1</title>
<polygon fill="#bfbfbf" stroke="black" points="234.007,-492.199 234.007,-553.539 412.033,-553.539 412.033,-492.199 234.007,-492.199"/>
<text text-anchor="start" x="242.007" y="-541.539" font-family="Monaco" font-size="10.00">/Users/calebbuahin</text>
<text text-anchor="start" x="242.007" y="-528.204" font-family="Monaco" font-size="10.00">/Documents/Projects</text>
<text text-anchor="start" x="242.007" y="-514.869" font-family="Monaco" font-size="10.00">/HydroCouple/HydroCoupleSDK</text>
<text text-anchor="middle" x="323.02" y="-501.534" font-family="Monaco" font-size="10.00">/include/hydrocouplesdk.h</text>
</g>
<!-- Node2 -->
<g id="node2" class="node"><title>Node2</title>
<g id="a_node2"><a xlink:href="identity_8h.html" target="_top" xlink:title="/Users/calebbuahin\l/Documents/Projects\l/HydroCouple/HydroCoupleSDK\l/include/identity.h">
<polygon fill="white" stroke="black" points="334.007,-295.52 334.007,-356.859 512.033,-356.859 512.033,-295.52 334.007,-295.52"/>
<text text-anchor="start" x="342.007" y="-344.859" font-family="Monaco" font-size="10.00">/Users/calebbuahin</text>
<text text-anchor="start" x="342.007" y="-331.524" font-family="Monaco" font-size="10.00">/Documents/Projects</text>
<text text-anchor="start" x="342.007" y="-318.189" font-family="Monaco" font-size="10.00">/HydroCouple/HydroCoupleSDK</text>
<text text-anchor="middle" x="423.02" y="-304.854" font-family="Monaco" font-size="10.00">/include/identity.h</text>
</a>
</g>
</g>
<!-- Node1&#45;&gt;Node2 -->
<g id="edge1" class="edge"><title>Node1&#45;&gt;Node2</title>
<path fill="none" stroke="midnightblue" d="M321.627,-481.96C322.38,-455.286 326.736,-420.284 342.02,-393.359 349.998,-379.305 362.219,-367.025 374.768,-356.985"/>
<polygon fill="midnightblue" stroke="midnightblue" points="318.126,-482.061 321.501,-492.104 325.125,-482.148 318.126,-482.061"/>
</g>
<!-- Node4 -->
<g id="node4" class="node"><title>Node4</title>
<g id="a_node4"><a xlink:href="componentstatuschangeeventargs_8h.html" target="_top" xlink:title="/Users/calebbuahin\l/Documents/Projects\l/HydroCouple/HydroCoupleSDK\l/include/componentstatuschangeeventargs.h">
<polygon fill="white" stroke="black" points="0,-98.8398 0,-160.18 262.04,-160.18 262.04,-98.8398 0,-98.8398"/>
<text text-anchor="start" x="8" y="-148.18" font-family="Monaco" font-size="10.00">/Users/calebbuahin</text>
<text text-anchor="start" x="8" y="-134.845" font-family="Monaco" font-size="10.00">/Documents/Projects</text>
<text text-anchor="start" x="8" y="-121.51" font-family="Monaco" font-size="10.00">/HydroCouple/HydroCoupleSDK</text>
<text text-anchor="middle" x="131.02" y="-108.175" font-family="Monaco" font-size="10.00">/include/componentstatuschangeeventargs.h</text>
</a>
</g>
</g>
<!-- Node1&#45;&gt;Node4 -->
<g id="edge15" class="edge"><title>Node1&#45;&gt;Node4</title>
<path fill="none" stroke="midnightblue" d="M303.998,-483.097C265.666,-404.963 179.874,-230.091 145.587,-160.201"/>
<polygon fill="midnightblue" stroke="midnightblue" points="300.884,-484.696 308.431,-492.132 307.169,-481.613 300.884,-484.696"/>
</g>
<!-- Node12 -->
<g id="node12" class="node"><title>Node12</title>
<g id="a_node12"><a xlink:href="description_8h.html" target="_top" xlink:title="/Users/calebbuahin\l/Documents/Projects\l/HydroCouple/HydroCoupleSDK\l/include/description.h">
<polygon fill="white" stroke="black" points="351.007,-393.859 351.007,-455.199 529.033,-455.199 529.033,-393.859 351.007,-393.859"/>
<text text-anchor="start" x="359.007" y="-443.199" font-family="Monaco" font-size="10.00">/Users/calebbuahin</text>
<text text-anchor="start" x="359.007" y="-429.864" font-family="Monaco" font-size="10.00">/Documents/Projects</text>
<text text-anchor="start" x="359.007" y="-416.529" font-family="Monaco" font-size="10.00">/HydroCouple/HydroCoupleSDK</text>
<text text-anchor="middle" x="440.02" y="-403.194" font-family="Monaco" font-size="10.00">/include/description.h</text>
</a>
</g>
</g>
<!-- Node1&#45;&gt;Node12 -->
<g id="edge12" class="edge"><title>Node1&#45;&gt;Node12</title>
<path fill="none" stroke="midnightblue" d="M366.93,-485.713C379.112,-475.682 392.196,-464.909 403.879,-455.288"/>
<polygon fill="midnightblue" stroke="midnightblue" points="364.574,-483.119 359.079,-492.178 369.023,-488.523 364.574,-483.119"/>
</g>
<!-- Node3 -->
<g id="node3" class="node"><title>Node3</title>
<g id="a_node3"><a xlink:href="abstractmodelcomponent_8h.html" target="_top" xlink:title="/Users/calebbuahin\l/Documents/Projects\l/HydroCouple/HydroCoupleSDK\l/include/abstractmodelcomponent.h">
<polygon fill="white" stroke="black" points="283.004,-197.18 283.004,-258.52 497.036,-258.52 497.036,-197.18 283.004,-197.18"/>
<text text-anchor="start" x="291.004" y="-246.52" font-family="Monaco" font-size="10.00">/Users/calebbuahin</text>
<text text-anchor="start" x="291.004" y="-233.185" font-family="Monaco" font-size="10.00">/Documents/Projects</text>
<text text-anchor="start" x="291.004" y="-219.85" font-family="Monaco" font-size="10.00">/HydroCouple/HydroCoupleSDK</text>
<text text-anchor="middle" x="390.02" y="-206.515" font-family="Monaco" font-size="10.00">/include/abstractmodelcomponent.h</text>
</a>
</g>
</g>
<!-- Node2&#45;&gt;Node3 -->
<g id="edge2" class="edge"><title>Node2&#45;&gt;Node3</title>
<path fill="none" stroke="midnightblue" d="M409.548,-285.858C406.43,-276.758 403.164,-267.221 400.214,-258.609"/>
<polygon fill="midnightblue" stroke="midnightblue" points="406.298,-287.172 412.85,-295.498 412.92,-284.904 406.298,-287.172"/>
</g>
<!-- Node8 -->
<g id="node8" class="node"><title>Node8</title>
<g id="a_node8"><a xlink:href="componentinfo_8h.html" target="_top" xlink:title="/Users/calebbuahin\l/Documents/Projects\l/HydroCouple/HydroCoupleSDK\l/include/componentinfo.h">
<polygon fill="white" stroke="black" points="534.007,-197.18 534.007,-258.52 712.033,-258.52 712.033,-197.18 534.007,-197.18"/>
<text text-anchor="start" x="542.007" y="-246.52" font-family="Monaco" font-size="10.00">/Users/calebbuahin</text>
<text text-anchor="start" x="542.007" y="-233.185" font-family="Monaco" font-size="10.00">/Documents/Projects</text>
<text text-anchor="start" x="542.007" y="-219.85" font-family="Monaco" font-size="10.00">/HydroCouple/HydroCoupleSDK</text>
<text text-anchor="middle" x="623.02" y="-206.515" font-family="Monaco" font-size="10.00">/include/componentinfo.h</text>
</a>
</g>
</g>
<!-- Node2&#45;&gt;Node8 -->
<g id="edge7" class="edge"><title>Node2&#45;&gt;Node8</title>
<path fill="none" stroke="midnightblue" d="M493.937,-291.029C515.911,-280.444 539.938,-268.87 561.241,-258.609"/>
<polygon fill="midnightblue" stroke="midnightblue" points="492.149,-288.005 484.659,-295.498 495.187,-294.312 492.149,-288.005"/>
</g>
<!-- Node11 -->
<g id="node11" class="node"><title>Node11</title>
<g id="a_node11"><a xlink:href="identity_8cpp.html" target="_top" xlink:title="/Users/calebbuahin\l/Documents/Projects\l/HydroCouple/HydroCoupleSDK\l/src/identity.cpp">
<polygon fill="white" stroke="black" points="730.007,-197.18 730.007,-258.52 908.033,-258.52 908.033,-197.18 730.007,-197.18"/>
<text text-anchor="start" x="738.007" y="-246.52" font-family="Monaco" font-size="10.00">/Users/calebbuahin</text>
<text text-anchor="start" x="738.007" y="-233.185" font-family="Monaco" font-size="10.00">/Documents/Projects</text>
<text text-anchor="start" x="738.007" y="-219.85" font-family="Monaco" font-size="10.00">/HydroCouple/HydroCoupleSDK</text>
<text text-anchor="middle" x="819.02" y="-206.515" font-family="Monaco" font-size="10.00">/src/identity.cpp</text>
</a>
</g>
</g>
<!-- Node2&#45;&gt;Node11 -->
<g id="edge11" class="edge"><title>Node2&#45;&gt;Node11</title>
<path fill="none" stroke="midnightblue" d="M522.028,-294.893C610.583,-274.127 636.342,-279.596 721.02,-259.02 723.961,-258.305 726.943,-257.552 729.949,-256.77"/>
<polygon fill="midnightblue" stroke="midnightblue" points="521.003,-291.539 512.091,-297.269 522.631,-298.347 521.003,-291.539"/>
</g>
<!-- Node3&#45;&gt;Node4 -->
<g id="edge3" class="edge"><title>Node3&#45;&gt;Node4</title>
<path fill="none" stroke="midnightblue" d="M300.464,-193.538C271.395,-182.725 239.35,-170.805 211.024,-160.269"/>
<polygon fill="midnightblue" stroke="midnightblue" points="299.605,-196.952 310.198,-197.158 302.046,-190.392 299.605,-196.952"/>
</g>
<!-- Node6 -->
<g id="node6" class="node"><title>Node6</title>
<g id="a_node6"><a xlink:href="abstractmodelcomponent_8cpp.html" target="_top" xlink:title="/Users/calebbuahin\l/Documents/Projects\l/HydroCouple/HydroCoupleSDK\l/src/abstractmodelcomponent.cpp">
<polygon fill="white" stroke="black" points="280.005,-98.8398 280.005,-160.18 482.035,-160.18 482.035,-98.8398 280.005,-98.8398"/>
<text text-anchor="start" x="288.005" y="-148.18" font-family="Monaco" font-size="10.00">/Users/calebbuahin</text>
<text text-anchor="start" x="288.005" y="-134.845" font-family="Monaco" font-size="10.00">/Documents/Projects</text>
<text text-anchor="start" x="288.005" y="-121.51" font-family="Monaco" font-size="10.00">/HydroCouple/HydroCoupleSDK</text>
<text text-anchor="middle" x="381.02" y="-108.175" font-family="Monaco" font-size="10.00">/src/abstractmodelcomponent.cpp</text>
</a>
</g>
</g>
<!-- Node3&#45;&gt;Node6 -->
<g id="edge5" class="edge"><title>Node3&#45;&gt;Node6</title>
<path fill="none" stroke="midnightblue" d="M386.291,-186.937C385.458,-178.012 384.588,-168.698 383.8,-160.269"/>
<polygon fill="midnightblue" stroke="midnightblue" points="382.831,-187.527 387.246,-197.158 389.801,-186.876 382.831,-187.527"/>
</g>
<!-- Node7 -->
<g id="node7" class="node"><title>Node7</title>
<g id="a_node7"><a xlink:href="modelcomponentinfo_8cpp.html" target="_top" xlink:title="/Users/calebbuahin\l/Documents/Projects\l/HydroCouple/HydroCoupleSDK\l/src/modelcomponentinfo.cpp">
<polygon fill="white" stroke="black" points="482.007,-0.5 482.007,-61.8398 660.033,-61.8398 660.033,-0.5 482.007,-0.5"/>
<text text-anchor="start" x="490.007" y="-49.8398" font-family="Monaco" font-size="10.00">/Users/calebbuahin</text>
<text text-anchor="start" x="490.007" y="-36.5049" font-family="Monaco" font-size="10.00">/Documents/Projects</text>
<text text-anchor="start" x="490.007" y="-23.1699" font-family="Monaco" font-size="10.00">/HydroCouple/HydroCoupleSDK</text>
<text text-anchor="middle" x="571.02" y="-9.83496" font-family="Monaco" font-size="10.00">/src/modelcomponentinfo.cpp</text>
</a>
</g>
</g>
<!-- Node3&#45;&gt;Node7 -->
<g id="edge6" class="edge"><title>Node3&#45;&gt;Node7</title>
<path fill="none" stroke="midnightblue" d="M453.663,-191.353C466.868,-182.35 480.077,-171.985 491.02,-160.68 513.588,-137.365 511.88,-125.892 529.02,-98.3398 536.423,-86.4397 544.668,-73.4039 551.879,-62.0726"/>
<polygon fill="midnightblue" stroke="midnightblue" points="451.425,-188.637 445.01,-197.069 455.283,-194.477 451.425,-188.637"/>
</g>
<!-- Node5 -->
<g id="node5" class="node"><title>Node5</title>
<g id="a_node5"><a xlink:href="componentstatuschangeeventargs_8cpp.html" target="_top" xlink:title="/Users/calebbuahin\l/Documents/Projects\l/HydroCouple/HydroCoupleSDK\l/src/componentstatuschangeeventargs.cpp">
<polygon fill="white" stroke="black" points="6.00098,-0.5 6.00098,-61.8398 256.039,-61.8398 256.039,-0.5 6.00098,-0.5"/>
<text text-anchor="start" x="14.001" y="-49.8398" font-family="Monaco" font-size="10.00">/Users/calebbuahin</text>
<text text-anchor="start" x="14.001" y="-36.5049" font-family="Monaco" font-size="10.00">/Documents/Projects</text>
<text text-anchor="start" x="14.001" y="-23.1699" font-family="Monaco" font-size="10.00">/HydroCouple/HydroCoupleSDK</text>
<text text-anchor="middle" x="131.02" y="-9.83496" font-family="Monaco" font-size="10.00">/src/componentstatuschangeeventargs.cpp</text>
</a>
</g>
</g>
<!-- Node4&#45;&gt;Node5 -->
<g id="edge4" class="edge"><title>Node4&#45;&gt;Node5</title>
<path fill="none" stroke="midnightblue" d="M131.02,-88.5972C131.02,-79.6725 131.02,-70.3581 131.02,-61.929"/>
<polygon fill="midnightblue" stroke="midnightblue" points="127.52,-88.8185 131.02,-98.8185 134.52,-88.8186 127.52,-88.8185"/>
</g>
<!-- Node9 -->
<g id="node9" class="node"><title>Node9</title>
<g id="a_node9"><a xlink:href="modelcomponentinfo_8h.html" target="_top" xlink:title="/Users/calebbuahin\l/Documents/Projects\l/HydroCouple/HydroCoupleSDK\l/include/modelcomponentinfo.h">
<polygon fill="white" stroke="black" points="538.006,-98.8398 538.006,-160.18 728.034,-160.18 728.034,-98.8398 538.006,-98.8398"/>
<text text-anchor="start" x="546.006" y="-148.18" font-family="Monaco" font-size="10.00">/Users/calebbuahin</text>
<text text-anchor="start" x="546.006" y="-134.845" font-family="Monaco" font-size="10.00">/Documents/Projects</text>
<text text-anchor="start" x="546.006" y="-121.51" font-family="Monaco" font-size="10.00">/HydroCouple/HydroCoupleSDK</text>
<text text-anchor="middle" x="633.02" y="-108.175" font-family="Monaco" font-size="10.00">/include/modelcomponentinfo.h</text>
</a>
</g>
</g>
<!-- Node8&#45;&gt;Node9 -->
<g id="edge8" class="edge"><title>Node8&#45;&gt;Node9</title>
<path fill="none" stroke="midnightblue" d="M627.163,-186.937C628.089,-178.012 629.056,-168.698 629.931,-160.269"/>
<polygon fill="midnightblue" stroke="midnightblue" points="623.653,-186.85 626.102,-197.158 630.616,-187.573 623.653,-186.85"/>
</g>
<!-- Node10 -->
<g id="node10" class="node"><title>Node10</title>
<g id="a_node10"><a xlink:href="componentinfo_8cpp.html" target="_top" xlink:title="/Users/calebbuahin\l/Documents/Projects\l/HydroCouple/HydroCoupleSDK\l/src/componentinfo.cpp">
<polygon fill="white" stroke="black" points="746.007,-98.8398 746.007,-160.18 924.033,-160.18 924.033,-98.8398 746.007,-98.8398"/>
<text text-anchor="start" x="754.007" y="-148.18" font-family="Monaco" font-size="10.00">/Users/calebbuahin</text>
<text text-anchor="start" x="754.007" y="-134.845" font-family="Monaco" font-size="10.00">/Documents/Projects</text>
<text text-anchor="start" x="754.007" y="-121.51" font-family="Monaco" font-size="10.00">/HydroCouple/HydroCoupleSDK</text>
<text text-anchor="middle" x="835.02" y="-108.175" font-family="Monaco" font-size="10.00">/src/componentinfo.cpp</text>
</a>
</g>
</g>
<!-- Node8&#45;&gt;Node10 -->
<g id="edge10" class="edge"><title>Node8&#45;&gt;Node10</title>
<path fill="none" stroke="midnightblue" d="M697.568,-192.972C721.03,-182.311 746.751,-170.622 769.534,-160.269"/>
<polygon fill="midnightblue" stroke="midnightblue" points="696.013,-189.835 688.357,-197.158 698.909,-196.208 696.013,-189.835"/>
</g>
<!-- Node9&#45;&gt;Node7 -->
<g id="edge9" class="edge"><title>Node9&#45;&gt;Node7</title>
<path fill="none" stroke="midnightblue" d="M608.454,-90.338C602.375,-80.8912 595.95,-70.9078 590.172,-61.929"/>
<polygon fill="midnightblue" stroke="midnightblue" points="605.557,-92.3035 613.912,-98.8185 611.443,-88.5153 605.557,-92.3035"/>
</g>
<!-- Node12&#45;&gt;Node2 -->
<g id="edge13" class="edge"><title>Node12&#45;&gt;Node2</title>
<path fill="none" stroke="midnightblue" d="M433.028,-383.908C431.438,-374.895 429.775,-365.469 428.271,-356.948"/>
<polygon fill="midnightblue" stroke="midnightblue" points="429.596,-384.598 434.781,-393.838 436.49,-383.382 429.596,-384.598"/>
</g>
<!-- Node13 -->
<g id="node13" class="node"><title>Node13</title>
<g id="a_node13"><a xlink:href="description_8cpp.html" target="_top" xlink:title="/Users/calebbuahin\l/Documents/Projects\l/HydroCouple/HydroCoupleSDK\l/src/description.cpp">
<polygon fill="white" stroke="black" points="530.007,-295.52 530.007,-356.859 708.033,-356.859 708.033,-295.52 530.007,-295.52"/>
<text text-anchor="start" x="538.007" y="-344.859" font-family="Monaco" font-size="10.00">/Users/calebbuahin</text>
<text text-anchor="start" x="538.007" y="-331.524" font-family="Monaco" font-size="10.00">/Documents/Projects</text>
<text text-anchor="start" x="538.007" y="-318.189" font-family="Monaco" font-size="10.00">/HydroCouple/HydroCoupleSDK</text>
<text text-anchor="middle" x="619.02" y="-304.854" font-family="Monaco" font-size="10.00">/src/description.cpp</text>
</a>
</g>
</g>
<!-- Node12&#45;&gt;Node13 -->
<g id="edge14" class="edge"><title>Node12&#45;&gt;Node13</title>
<path fill="none" stroke="midnightblue" d="M504.018,-389.085C523.541,-378.577 544.832,-367.118 563.728,-356.948"/>
<polygon fill="midnightblue" stroke="midnightblue" points="502.333,-386.017 495.187,-393.838 505.651,-392.181 502.333,-386.017"/>
</g>
</g>
</svg>
        <g id="navigator" transform="translate(0 0)" fill="#404254">
                <rect fill="#f2f5e9" fill-opacity="0.5" stroke="#606060" stroke-width=".5" x="0" y="0" width="60" height="60"/>
                <use id="zoomplus" xlink:href="#zoomPlus" x="17" y="9" onmousedown="handleZoom(evt,'in')"/>
                <use id="zoomminus" xlink:href="#zoomMin" x="42" y="9" onmousedown="handleZoom(evt,'out')"/>
                <use id="reset" xlink:href="#resetDef" x="30" y="36" onmousedown="handleReset()"/>
                <g id="arrowUp" xlink:href="#dirArrow" transform="translate(30 24)" onmousedown="handlePan(0,-1)">
                  <use xlink:href="#rim" fill="#404040">
                        <set attributeName="fill" to="#808080" begin="arrowUp.mouseover" end="arrowUp.mouseout"/>
                  </use>
                  <path fill="none" stroke="white" stroke-width="1.5" d="M0,-3.0v7 M-2.5,-0.5L0,-3.0L2.5,-0.5"/>
                </g>
                <g id="arrowRight" xlink:href="#dirArrow" transform="rotate(90) translate(36 -43)" onmousedown="handlePan(1,0)">
                  <use xlink:href="#rim" fill="#404040">
                        <set attributeName="fill" to="#808080" begin="arrowRight.mouseover" end="arrowRight.mouseout"/>
                  </use>
                  <path fill="none" stroke="white" stroke-width="1.5" d="M0,-3.0v7 M-2.5,-0.5L0,-3.0L2.5,-0.5"/>
                </g>
                <g id="arrowDown" xlink:href="#dirArrow" transform="rotate(180) translate(-30 -48)" onmousedown="handlePan(0,1)">
                  <use xlink:href="#rim" fill="#404040">
                        <set attributeName="fill" to="#808080" begin="arrowDown.mouseover" end="arrowDown.mouseout"/>
                  </use>
                  <path fill="none" stroke="white" stroke-width="1.5" d="M0,-3.0v7 M-2.5,-0.5L0,-3.0L2.5,-0.5"/>
                </g>
                <g id="arrowLeft" xlink:href="#dirArrow" transform="rotate(270) translate(-36 17)" onmousedown="handlePan(-1,0)">
                  <use xlink:href="#rim" fill="#404040">
                        <set attributeName="fill" to="#808080" begin="arrowLeft.mouseover" end="arrowLeft.mouseout"/>
                  </use>
                  <path fill="none" stroke="white" stroke-width="1.5" d="M0,-3.0v7 M-2.5,-0.5L0,-3.0L2.5,-0.5"/>
                </g>
        </g>
        <svg viewBox="0 0 15 15" width="100%" height="30px" preserveAspectRatio="xMaxYMin meet">
         <g id="arrow_out" transform="scale(0.3 0.3)">
          <a xlink:href="hydrocouplesdk_8h__dep__incl_org.svg" target="_base">
           <rect id="button" ry="5" rx="5" y="6" x="6" height="38" width="38"
                fill="#f2f5e9" fill-opacity="0.5" stroke="#606060" stroke-width="1.0"/>
           <path id="arrow"
             d="M 11.500037,31.436501 C 11.940474,20.09759 22.043105,11.32322 32.158766,21.979434 L 37.068811,17.246167 C 37.068811,17.246167 37.088388,32 37.088388,32 L 22.160133,31.978069 C 22.160133,31.978069 26.997745,27.140456 26.997745,27.140456 C 18.528582,18.264221 13.291696,25.230495 11.500037,31.436501 z"
             style="fill:#404040;"/>
          </a>
         </g>
        </svg>
</svg>
