<?xml version="1.0" encoding="UTF-8" standalone="no"?>
<!DOCTYPE svg PUBLIC "-//W3C//DTD SVG 1.1//EN"
 "http://www.w3.org/Graphics/SVG/1.1/DTD/svg11.dtd">
<!-- Generated by graphviz version 2.38.0 (20140413.2041)
 -->
<!-- Title: /Users/calebbuahin/Documents/Projects/HydroCouple/HydroCouple/include/hydrocouplespatiotemporal.h Pages: 1 -->
<svg width="320pt" height="245pt"
 viewBox="0.00 0.00 320.01 245.34" xmlns="http://www.w3.org/2000/svg" xmlns:xlink="http://www.w3.org/1999/xlink">
<g id="graph0" class="graph" transform="scale(1 1) rotate(0) translate(4 241.345)">
<title>/Users/calebbuahin/Documents/Projects/HydroCouple/HydroCouple/include/hydrocouplespatiotemporal.h</title>
<!-- Node1 -->
<g id="node1" class="node"><title>Node1</title>
<polygon fill="#bfbfbf" stroke="black" points="45.9902,-175.505 45.9902,-236.845 278.025,-236.845 278.025,-175.505 45.9902,-175.505"/>
<text text-anchor="start" x="53.9902" y="-224.845" font-family="Monaco" font-size="10.00">/Users/calebbuahin</text>
<text text-anchor="start" x="53.9902" y="-211.51" font-family="Monaco" font-size="10.00">/Documents/Projects</text>
<text text-anchor="start" x="53.9902" y="-198.175" font-family="Monaco" font-size="10.00">/HydroCouple/HydroCouple</text>
<text text-anchor="middle" x="162.008" y="-184.84" font-family="Monaco" font-size="10.00">/include/hydrocouplespatiotemporal.h</text>
</g>
<!-- Node2 -->
<g id="node2" class="node"><title>Node2</title>
<g id="a_node2"><a xlink:href="hydrocoupletemporal_8h.html" target="_top" xlink:title="hydrocoupletemporal.h">
<polygon fill="none" stroke="black" points="12.9976,-117.17 12.9976,-138.505 155.018,-138.505 155.018,-117.17 12.9976,-117.17"/>
<text text-anchor="middle" x="84.0078" y="-126.505" font-family="Monaco" font-size="10.00">hydrocoupletemporal.h</text>
</a>
</g>
</g>
<!-- Node1&#45;&gt;Node2 -->
<g id="edge1" class="edge"><title>Node1&#45;&gt;Node2</title>
<path fill="none" stroke="midnightblue" d="M131.628,-175.442C121.305,-165.34 110.135,-154.408 101.209,-145.672"/>
<polygon fill="midnightblue" stroke="midnightblue" points="103.615,-143.13 94.0204,-138.637 98.7192,-148.132 103.615,-143.13"/>
</g>
<!-- Node7 -->
<g id="node7" class="node"><title>Node7</title>
<g id="a_node7"><a xlink:href="hydrocouplespatial_8h.html" target="_top" xlink:title="hydrocouplespatial.h">
<polygon fill="none" stroke="black" points="172.998,-117.17 172.998,-138.505 309.018,-138.505 309.018,-117.17 172.998,-117.17"/>
<text text-anchor="middle" x="241.008" y="-126.505" font-family="Monaco" font-size="10.00">hydrocouplespatial.h</text>
</a>
</g>
</g>
<!-- Node1&#45;&gt;Node7 -->
<g id="edge6" class="edge"><title>Node1&#45;&gt;Node7</title>
<path fill="none" stroke="midnightblue" d="M192.777,-175.442C203.232,-165.34 214.546,-154.408 223.586,-145.672"/>
<polygon fill="midnightblue" stroke="midnightblue" points="226.108,-148.102 230.867,-138.637 221.244,-143.069 226.108,-148.102"/>
</g>
<!-- Node3 -->
<g id="node3" class="node"><title>Node3</title>
<g id="a_node3"><a xlink:href="hydrocouple_8h.html" target="_top" xlink:title="hydrocouple.h">
<polygon fill="none" stroke="black" points="115.001,-58.835 115.001,-80.1699 209.014,-80.1699 209.014,-58.835 115.001,-58.835"/>
<text text-anchor="middle" x="162.008" y="-68.1699" font-family="Monaco" font-size="10.00">hydrocouple.h</text>
</a>
</g>
</g>
<!-- Node2&#45;&gt;Node3 -->
<g id="edge2" class="edge"><title>Node2&#45;&gt;Node3</title>
<path fill="none" stroke="midnightblue" d="M97.5944,-117.025C109.338,-108.543 126.528,-96.1277 140.196,-86.2559"/>
<polygon fill="midnightblue" stroke="midnightblue" points="142.519,-88.8952 148.577,-80.2028 138.421,-83.2205 142.519,-88.8952"/>
</g>
<!-- Node4 -->
<g id="node4" class="node"><title>Node4</title>
<polygon fill="none" stroke="#bfbfbf" points="0,-0.5 0,-21.835 112.016,-21.835 112.016,-0.5 0,-0.5"/>
<text text-anchor="middle" x="56.0078" y="-9.83496" font-family="Monaco" font-size="10.00">QtCore/qglobal.h</text>
</g>
<!-- Node3&#45;&gt;Node4 -->
<g id="edge3" class="edge"><title>Node3&#45;&gt;Node4</title>
<path fill="none" stroke="midnightblue" d="M143.544,-58.6896C126.9,-49.8442 102.209,-36.7214 83.2886,-26.6662"/>
<polygon fill="midnightblue" stroke="midnightblue" points="84.733,-23.4703 74.26,-21.8678 81.4478,-29.6515 84.733,-23.4703"/>
</g>
<!-- Node5 -->
<g id="node5" class="node"><title>Node5</title>
<polygon fill="none" stroke="#bfbfbf" points="130.004,-0.5 130.004,-21.835 194.012,-21.835 194.012,-0.5 130.004,-0.5"/>
<text text-anchor="middle" x="162.008" y="-9.83496" font-family="Monaco" font-size="10.00">QVariant</text>
</g>
<!-- Node3&#45;&gt;Node5 -->
<g id="edge4" class="edge"><title>Node3&#45;&gt;Node5</title>
<path fill="none" stroke="midnightblue" d="M162.008,-58.6896C162.008,-51.3386 162.008,-41.0335 162.008,-31.9899"/>
<polygon fill="midnightblue" stroke="midnightblue" points="165.508,-31.8678 162.008,-21.8678 158.508,-31.8679 165.508,-31.8678"/>
</g>
<!-- Node6 -->
<g id="node6" class="node"><title>Node6</title>
<polygon fill="none" stroke="#bfbfbf" points="212.001,-0.5 212.001,-21.835 312.015,-21.835 312.015,-0.5 212.001,-0.5"/>
<text text-anchor="middle" x="262.008" y="-9.83496" font-family="Monaco" font-size="10.00">QSharedPointer</text>
</g>
<!-- Node3&#45;&gt;Node6 -->
<g id="edge5" class="edge"><title>Node3&#45;&gt;Node6</title>
<path fill="none" stroke="midnightblue" d="M179.426,-58.6896C195.056,-49.8846 218.21,-36.8411 236.026,-26.8041"/>
<polygon fill="midnightblue" stroke="midnightblue" points="237.794,-29.8255 244.789,-21.8678 234.358,-23.7267 237.794,-29.8255"/>
</g>
<!-- Node7&#45;&gt;Node3 -->
<g id="edge7" class="edge"><title>Node7&#45;&gt;Node3</title>
<path fill="none" stroke="midnightblue" d="M227.247,-117.025C215.353,-108.543 197.943,-96.1277 184.099,-86.2559"/>
<polygon fill="midnightblue" stroke="midnightblue" points="185.785,-83.1592 175.611,-80.2028 181.721,-88.8585 185.785,-83.1592"/>
</g>
</g>
</svg>
