<?xml version="1.0" encoding="UTF-8" standalone="no"?>
<!DOCTYPE svg PUBLIC "-//W3C//DTD SVG 1.1//EN"
 "http://www.w3.org/Graphics/SVG/1.1/DTD/svg11.dtd">
<!-- Generated by graphviz version 2.38.0 (20140413.2041)
 -->
<!-- Title: /Users/calebbuahin/Documents/Projects/HydroCouple/HydroCouple/include/hydrocoupletemporal.h Pages: 1 -->
<svg width="320pt" height="187pt"
 viewBox="0.00 0.00 320.01 187.01" xmlns="http://www.w3.org/2000/svg" xmlns:xlink="http://www.w3.org/1999/xlink">
<g id="graph0" class="graph" transform="scale(1 1) rotate(0) translate(4 183.01)">
<title>/Users/calebbuahin/Documents/Projects/HydroCouple/HydroCouple/include/hydrocoupletemporal.h</title>
<!-- Node1 -->
<g id="node1" class="node"><title>Node1</title>
<polygon fill="#bfbfbf" stroke="black" points="63.9932,-117.17 63.9932,-178.51 260.022,-178.51 260.022,-117.17 63.9932,-117.17"/>
<text text-anchor="start" x="71.9932" y="-166.51" font-family="Monaco" font-size="10.00">/Users/calebbuahin</text>
<text text-anchor="start" x="71.9932" y="-153.175" font-family="Monaco" font-size="10.00">/Documents/Projects</text>
<text text-anchor="start" x="71.9932" y="-139.84" font-family="Monaco" font-size="10.00">/HydroCouple/HydroCouple</text>
<text text-anchor="middle" x="162.008" y="-126.505" font-family="Monaco" font-size="10.00">/include/hydrocoupletemporal.h</text>
</g>
<!-- Node2 -->
<g id="node2" class="node"><title>Node2</title>
<g id="a_node2"><a xlink:href="hydrocouple_8h.html" target="_top" xlink:title="hydrocouple.h">
<polygon fill="none" stroke="black" points="115.001,-58.835 115.001,-80.1699 209.014,-80.1699 209.014,-58.835 115.001,-58.835"/>
<text text-anchor="middle" x="162.008" y="-68.1699" font-family="Monaco" font-size="10.00">hydrocouple.h</text>
</a>
</g>
</g>
<!-- Node1&#45;&gt;Node2 -->
<g id="edge1" class="edge"><title>Node1&#45;&gt;Node2</title>
<path fill="none" stroke="midnightblue" d="M162.008,-117.107C162.008,-108.127 162.008,-98.4919 162.008,-90.3261"/>
<polygon fill="midnightblue" stroke="midnightblue" points="165.508,-90.3016 162.008,-80.3016 158.508,-90.3016 165.508,-90.3016"/>
</g>
<!-- Node3 -->
<g id="node3" class="node"><title>Node3</title>
<polygon fill="none" stroke="#bfbfbf" points="0,-0.5 0,-21.835 112.016,-21.835 112.016,-0.5 0,-0.5"/>
<text text-anchor="middle" x="56.0078" y="-9.83496" font-family="Monaco" font-size="10.00">QtCore/qglobal.h</text>
</g>
<!-- Node2&#45;&gt;Node3 -->
<g id="edge2" class="edge"><title>Node2&#45;&gt;Node3</title>
<path fill="none" stroke="midnightblue" d="M143.544,-58.6896C126.9,-49.8442 102.209,-36.7214 83.2886,-26.6662"/>
<polygon fill="midnightblue" stroke="midnightblue" points="84.733,-23.4703 74.26,-21.8678 81.4478,-29.6515 84.733,-23.4703"/>
</g>
<!-- Node4 -->
<g id="node4" class="node"><title>Node4</title>
<polygon fill="none" stroke="#bfbfbf" points="130.004,-0.5 130.004,-21.835 194.012,-21.835 194.012,-0.5 130.004,-0.5"/>
<text text-anchor="middle" x="162.008" y="-9.83496" font-family="Monaco" font-size="10.00">QVariant</text>
</g>
<!-- Node2&#45;&gt;Node4 -->
<g id="edge3" class="edge"><title>Node2&#45;&gt;Node4</title>
<path fill="none" stroke="midnightblue" d="M162.008,-58.6896C162.008,-51.3386 162.008,-41.0335 162.008,-31.9899"/>
<polygon fill="midnightblue" stroke="midnightblue" points="165.508,-31.8678 162.008,-21.8678 158.508,-31.8679 165.508,-31.8678"/>
</g>
<!-- Node5 -->
<g id="node5" class="node"><title>Node5</title>
<polygon fill="none" stroke="#bfbfbf" points="212.001,-0.5 212.001,-21.835 312.015,-21.835 312.015,-0.5 212.001,-0.5"/>
<text text-anchor="middle" x="262.008" y="-9.83496" font-family="Monaco" font-size="10.00">QSharedPointer</text>
</g>
<!-- Node2&#45;&gt;Node5 -->
<g id="edge4" class="edge"><title>Node2&#45;&gt;Node5</title>
<path fill="none" stroke="midnightblue" d="M179.426,-58.6896C195.056,-49.8846 218.21,-36.8411 236.026,-26.8041"/>
<polygon fill="midnightblue" stroke="midnightblue" points="237.794,-29.8255 244.789,-21.8678 234.358,-23.7267 237.794,-29.8255"/>
</g>
</g>
</svg>
