<?xml version="1.0" encoding="UTF-8" standalone="no"?>
<!DOCTYPE svg PUBLIC "-//W3C//DTD SVG 1.1//EN"
 "http://www.w3.org/Graphics/SVG/1.1/DTD/svg11.dtd">
<!-- Generated by graphviz version 2.38.0 (20140413.2041)
 -->
<!-- Title: /Users/calebbuahin/Documents/Projects/HydroCouple/HydroCoupleSDK/include/identity.h Pages: 1 -->
<svg width="932pt" height="365pt"
 viewBox="0.00 0.00 932.03 365.36" xmlns="http://www.w3.org/2000/svg" xmlns:xlink="http://www.w3.org/1999/xlink">
<g id="graph0" class="graph" transform="scale(1 1) rotate(0) translate(4 361.359)">
<title>/Users/calebbuahin/Documents/Projects/HydroCouple/HydroCoupleSDK/include/identity.h</title>
<polygon fill="white" stroke="none" points="-4,4 -4,-361.359 928.033,-361.359 928.033,4 -4,4"/>
<!-- Node1 -->
<g id="node1" class="node"><title>Node1</title>
<polygon fill="#bfbfbf" stroke="black" points="544.007,-295.52 544.007,-356.859 722.033,-356.859 722.033,-295.52 544.007,-295.52"/>
<text text-anchor="start" x="552.007" y="-344.859" font-family="Monaco" font-size="10.00">/Users/calebbuahin</text>
<text text-anchor="start" x="552.007" y="-331.524" font-family="Monaco" font-size="10.00">/Documents/Projects</text>
<text text-anchor="start" x="552.007" y="-318.189" font-family="Monaco" font-size="10.00">/HydroCouple/HydroCoupleSDK</text>
<text text-anchor="middle" x="633.02" y="-304.854" font-family="Monaco" font-size="10.00">/include/identity.h</text>
</g>
<!-- Node2 -->
<g id="node2" class="node"><title>Node2</title>
<g id="a_node2"><a xlink:href="abstractmodelcomponent_8h.html" target="_top" xlink:title="/Users/calebbuahin\l/Documents/Projects\l/HydroCouple/HydroCoupleSDK\l/include/abstractmodelcomponent.h">
<polygon fill="white" stroke="black" points="293.004,-197.18 293.004,-258.52 507.036,-258.52 507.036,-197.18 293.004,-197.18"/>
<text text-anchor="start" x="301.004" y="-246.52" font-family="Monaco" font-size="10.00">/Users/calebbuahin</text>
<text text-anchor="start" x="301.004" y="-233.185" font-family="Monaco" font-size="10.00">/Documents/Projects</text>
<text text-anchor="start" x="301.004" y="-219.85" font-family="Monaco" font-size="10.00">/HydroCouple/HydroCoupleSDK</text>
<text text-anchor="middle" x="400.02" y="-206.515" font-family="Monaco" font-size="10.00">/include/abstractmodelcomponent.h</text>
</a>
</g>
</g>
<!-- Node1&#45;&gt;Node2 -->
<g id="edge1" class="edge"><title>Node1&#45;&gt;Node2</title>
<path fill="none" stroke="midnightblue" d="M551.771,-291.595C525.802,-280.858 497.254,-269.053 471.993,-258.609"/>
<polygon fill="midnightblue" stroke="midnightblue" points="550.633,-294.912 561.211,-295.498 553.307,-288.443 550.633,-294.912"/>
</g>
<!-- Node7 -->
<g id="node7" class="node"><title>Node7</title>
<g id="a_node7"><a xlink:href="componentinfo_8h.html" target="_top" xlink:title="/Users/calebbuahin\l/Documents/Projects\l/HydroCouple/HydroCoupleSDK\l/include/componentinfo.h">
<polygon fill="white" stroke="black" points="544.007,-197.18 544.007,-258.52 722.033,-258.52 722.033,-197.18 544.007,-197.18"/>
<text text-anchor="start" x="552.007" y="-246.52" font-family="Monaco" font-size="10.00">/Users/calebbuahin</text>
<text text-anchor="start" x="552.007" y="-233.185" font-family="Monaco" font-size="10.00">/Documents/Projects</text>
<text text-anchor="start" x="552.007" y="-219.85" font-family="Monaco" font-size="10.00">/HydroCouple/HydroCoupleSDK</text>
<text text-anchor="middle" x="633.02" y="-206.515" font-family="Monaco" font-size="10.00">/include/componentinfo.h</text>
</a>
</g>
</g>
<!-- Node1&#45;&gt;Node7 -->
<g id="edge6" class="edge"><title>Node1&#45;&gt;Node7</title>
<path fill="none" stroke="midnightblue" d="M633.02,-285.277C633.02,-276.352 633.02,-267.038 633.02,-258.609"/>
<polygon fill="midnightblue" stroke="midnightblue" points="629.52,-285.498 633.02,-295.498 636.52,-285.498 629.52,-285.498"/>
</g>
<!-- Node10 -->
<g id="node10" class="node"><title>Node10</title>
<g id="a_node10"><a xlink:href="identity_8cpp.html" target="_top" xlink:title="/Users/calebbuahin\l/Documents/Projects\l/HydroCouple/HydroCoupleSDK\l/src/identity.cpp">
<polygon fill="white" stroke="black" points="740.007,-197.18 740.007,-258.52 918.033,-258.52 918.033,-197.18 740.007,-197.18"/>
<text text-anchor="start" x="748.007" y="-246.52" font-family="Monaco" font-size="10.00">/Users/calebbuahin</text>
<text text-anchor="start" x="748.007" y="-233.185" font-family="Monaco" font-size="10.00">/Documents/Projects</text>
<text text-anchor="start" x="748.007" y="-219.85" font-family="Monaco" font-size="10.00">/HydroCouple/HydroCoupleSDK</text>
<text text-anchor="middle" x="829.02" y="-206.515" font-family="Monaco" font-size="10.00">/src/identity.cpp</text>
</a>
</g>
</g>
<!-- Node1&#45;&gt;Node10 -->
<g id="edge10" class="edge"><title>Node1&#45;&gt;Node10</title>
<path fill="none" stroke="midnightblue" d="M702.518,-291.029C724.053,-280.444 747.6,-268.87 768.476,-258.609"/>
<polygon fill="midnightblue" stroke="midnightblue" points="700.856,-287.946 693.426,-295.498 703.944,-294.228 700.856,-287.946"/>
</g>
<!-- Node3 -->
<g id="node3" class="node"><title>Node3</title>
<g id="a_node3"><a xlink:href="componentstatuschangeeventargs_8h.html" target="_top" xlink:title="/Users/calebbuahin\l/Documents/Projects\l/HydroCouple/HydroCoupleSDK\l/include/componentstatuschangeeventargs.h">
<polygon fill="white" stroke="black" points="0,-98.8398 0,-160.18 262.04,-160.18 262.04,-98.8398 0,-98.8398"/>
<text text-anchor="start" x="8" y="-148.18" font-family="Monaco" font-size="10.00">/Users/calebbuahin</text>
<text text-anchor="start" x="8" y="-134.845" font-family="Monaco" font-size="10.00">/Documents/Projects</text>
<text text-anchor="start" x="8" y="-121.51" font-family="Monaco" font-size="10.00">/HydroCouple/HydroCoupleSDK</text>
<text text-anchor="middle" x="131.02" y="-108.175" font-family="Monaco" font-size="10.00">/include/componentstatuschangeeventargs.h</text>
</a>
</g>
</g>
<!-- Node2&#45;&gt;Node3 -->
<g id="edge2" class="edge"><title>Node2&#45;&gt;Node3</title>
<path fill="none" stroke="midnightblue" d="M307.4,-193.679C277.105,-182.829 243.661,-170.851 214.113,-160.269"/>
<polygon fill="midnightblue" stroke="midnightblue" points="306.522,-197.082 317.116,-197.158 308.882,-190.492 306.522,-197.082"/>
</g>
<!-- Node5 -->
<g id="node5" class="node"><title>Node5</title>
<g id="a_node5"><a xlink:href="abstractmodelcomponent_8cpp.html" target="_top" xlink:title="/Users/calebbuahin\l/Documents/Projects\l/HydroCouple/HydroCoupleSDK\l/src/abstractmodelcomponent.cpp">
<polygon fill="white" stroke="black" points="280.005,-98.8398 280.005,-160.18 482.035,-160.18 482.035,-98.8398 280.005,-98.8398"/>
<text text-anchor="start" x="288.005" y="-148.18" font-family="Monaco" font-size="10.00">/Users/calebbuahin</text>
<text text-anchor="start" x="288.005" y="-134.845" font-family="Monaco" font-size="10.00">/Documents/Projects</text>
<text text-anchor="start" x="288.005" y="-121.51" font-family="Monaco" font-size="10.00">/HydroCouple/HydroCoupleSDK</text>
<text text-anchor="middle" x="381.02" y="-108.175" font-family="Monaco" font-size="10.00">/src/abstractmodelcomponent.cpp</text>
</a>
</g>
</g>
<!-- Node2&#45;&gt;Node5 -->
<g id="edge4" class="edge"><title>Node2&#45;&gt;Node5</title>
<path fill="none" stroke="midnightblue" d="M392.206,-187.228C390.428,-178.215 388.569,-168.79 386.889,-160.269"/>
<polygon fill="midnightblue" stroke="midnightblue" points="388.796,-188.025 394.164,-197.158 395.663,-186.67 388.796,-188.025"/>
</g>
<!-- Node6 -->
<g id="node6" class="node"><title>Node6</title>
<g id="a_node6"><a xlink:href="modelcomponentinfo_8cpp.html" target="_top" xlink:title="/Users/calebbuahin\l/Documents/Projects\l/HydroCouple/HydroCoupleSDK\l/src/modelcomponentinfo.cpp">
<polygon fill="white" stroke="black" points="482.007,-0.5 482.007,-61.8398 660.033,-61.8398 660.033,-0.5 482.007,-0.5"/>
<text text-anchor="start" x="490.007" y="-49.8398" font-family="Monaco" font-size="10.00">/Users/calebbuahin</text>
<text text-anchor="start" x="490.007" y="-36.5049" font-family="Monaco" font-size="10.00">/Documents/Projects</text>
<text text-anchor="start" x="490.007" y="-23.1699" font-family="Monaco" font-size="10.00">/HydroCouple/HydroCoupleSDK</text>
<text text-anchor="middle" x="571.02" y="-9.83496" font-family="Monaco" font-size="10.00">/src/modelcomponentinfo.cpp</text>
</a>
</g>
</g>
<!-- Node2&#45;&gt;Node6 -->
<g id="edge5" class="edge"><title>Node2&#45;&gt;Node6</title>
<path fill="none" stroke="midnightblue" d="M456.619,-191.035C468.73,-181.963 480.908,-171.649 491.02,-160.68 513.013,-136.822 511.88,-125.892 529.02,-98.3398 536.423,-86.4397 544.668,-73.4039 551.879,-62.0726"/>
<polygon fill="midnightblue" stroke="midnightblue" points="454.297,-188.397 448.271,-197.111 458.416,-194.056 454.297,-188.397"/>
</g>
<!-- Node4 -->
<g id="node4" class="node"><title>Node4</title>
<g id="a_node4"><a xlink:href="componentstatuschangeeventargs_8cpp.html" target="_top" xlink:title="/Users/calebbuahin\l/Documents/Projects\l/HydroCouple/HydroCoupleSDK\l/src/componentstatuschangeeventargs.cpp">
<polygon fill="white" stroke="black" points="6.00098,-0.5 6.00098,-61.8398 256.039,-61.8398 256.039,-0.5 6.00098,-0.5"/>
<text text-anchor="start" x="14.001" y="-49.8398" font-family="Monaco" font-size="10.00">/Users/calebbuahin</text>
<text text-anchor="start" x="14.001" y="-36.5049" font-family="Monaco" font-size="10.00">/Documents/Projects</text>
<text text-anchor="start" x="14.001" y="-23.1699" font-family="Monaco" font-size="10.00">/HydroCouple/HydroCoupleSDK</text>
<text text-anchor="middle" x="131.02" y="-9.83496" font-family="Monaco" font-size="10.00">/src/componentstatuschangeeventargs.cpp</text>
</a>
</g>
</g>
<!-- Node3&#45;&gt;Node4 -->
<g id="edge3" class="edge"><title>Node3&#45;&gt;Node4</title>
<path fill="none" stroke="midnightblue" d="M131.02,-88.5972C131.02,-79.6725 131.02,-70.3581 131.02,-61.929"/>
<polygon fill="midnightblue" stroke="midnightblue" points="127.52,-88.8185 131.02,-98.8185 134.52,-88.8186 127.52,-88.8185"/>
</g>
<!-- Node8 -->
<g id="node8" class="node"><title>Node8</title>
<g id="a_node8"><a xlink:href="modelcomponentinfo_8h.html" target="_top" xlink:title="/Users/calebbuahin\l/Documents/Projects\l/HydroCouple/HydroCoupleSDK\l/include/modelcomponentinfo.h">
<polygon fill="white" stroke="black" points="538.006,-98.8398 538.006,-160.18 728.034,-160.18 728.034,-98.8398 538.006,-98.8398"/>
<text text-anchor="start" x="546.006" y="-148.18" font-family="Monaco" font-size="10.00">/Users/calebbuahin</text>
<text text-anchor="start" x="546.006" y="-134.845" font-family="Monaco" font-size="10.00">/Documents/Projects</text>
<text text-anchor="start" x="546.006" y="-121.51" font-family="Monaco" font-size="10.00">/HydroCouple/HydroCoupleSDK</text>
<text text-anchor="middle" x="633.02" y="-108.175" font-family="Monaco" font-size="10.00">/include/modelcomponentinfo.h</text>
</a>
</g>
</g>
<!-- Node7&#45;&gt;Node8 -->
<g id="edge7" class="edge"><title>Node7&#45;&gt;Node8</title>
<path fill="none" stroke="midnightblue" d="M633.02,-186.937C633.02,-178.012 633.02,-168.698 633.02,-160.269"/>
<polygon fill="midnightblue" stroke="midnightblue" points="629.52,-187.158 633.02,-197.158 636.52,-187.158 629.52,-187.158"/>
</g>
<!-- Node9 -->
<g id="node9" class="node"><title>Node9</title>
<g id="a_node9"><a xlink:href="componentinfo_8cpp.html" target="_top" xlink:title="/Users/calebbuahin\l/Documents/Projects\l/HydroCouple/HydroCoupleSDK\l/src/componentinfo.cpp">
<polygon fill="white" stroke="black" points="746.007,-98.8398 746.007,-160.18 924.033,-160.18 924.033,-98.8398 746.007,-98.8398"/>
<text text-anchor="start" x="754.007" y="-148.18" font-family="Monaco" font-size="10.00">/Users/calebbuahin</text>
<text text-anchor="start" x="754.007" y="-134.845" font-family="Monaco" font-size="10.00">/Documents/Projects</text>
<text text-anchor="start" x="754.007" y="-121.51" font-family="Monaco" font-size="10.00">/HydroCouple/HydroCoupleSDK</text>
<text text-anchor="middle" x="835.02" y="-108.175" font-family="Monaco" font-size="10.00">/src/componentinfo.cpp</text>
</a>
</g>
</g>
<!-- Node7&#45;&gt;Node9 -->
<g id="edge9" class="edge"><title>Node7&#45;&gt;Node9</title>
<path fill="none" stroke="midnightblue" d="M704.349,-192.831C726.623,-182.207 751.011,-170.576 772.623,-160.269"/>
<polygon fill="midnightblue" stroke="midnightblue" points="702.794,-189.694 695.275,-197.158 705.808,-196.013 702.794,-189.694"/>
</g>
<!-- Node8&#45;&gt;Node6 -->
<g id="edge8" class="edge"><title>Node8&#45;&gt;Node6</title>
<path fill="none" stroke="midnightblue" d="M608.454,-90.338C602.375,-80.8912 595.95,-70.9078 590.172,-61.929"/>
<polygon fill="midnightblue" stroke="midnightblue" points="605.557,-92.3035 613.912,-98.8185 611.443,-88.5153 605.557,-92.3035"/>
</g>
</g>
</svg>
