<?xml version="1.0" encoding="UTF-8" standalone="no"?>
<!DOCTYPE svg PUBLIC "-//W3C//DTD SVG 1.1//EN"
 "http://www.w3.org/Graphics/SVG/1.1/DTD/svg11.dtd">
<!-- Generated by graphviz version 2.38.0 (20140413.2041)
 -->
<!-- Title: /Users/calebbuahin/Documents/Projects/HydroCouple/HydroCoupleSDK/src/identity.cpp Pages: 1 -->
<svg width="348pt" height="304pt"
 viewBox="0.00 0.00 348.02 303.68" xmlns="http://www.w3.org/2000/svg" xmlns:xlink="http://www.w3.org/1999/xlink">
<g id="graph0" class="graph" transform="scale(1 1) rotate(0) translate(4 299.68)">
<title>/Users/calebbuahin/Documents/Projects/HydroCouple/HydroCoupleSDK/src/identity.cpp</title>
<polygon fill="white" stroke="none" points="-4,4 -4,-299.68 344.017,-299.68 344.017,4 -4,4"/>
<!-- Node1 -->
<g id="node1" class="node"><title>Node1</title>
<polygon fill="#bfbfbf" stroke="black" points="0,-233.84 0,-295.18 178.026,-295.18 178.026,-233.84 0,-233.84"/>
<text text-anchor="start" x="8" y="-283.18" font-family="Monaco" font-size="10.00">/Users/calebbuahin</text>
<text text-anchor="start" x="8" y="-269.845" font-family="Monaco" font-size="10.00">/Documents/Projects</text>
<text text-anchor="start" x="8" y="-256.51" font-family="Monaco" font-size="10.00">/HydroCouple/HydroCoupleSDK</text>
<text text-anchor="middle" x="89.0132" y="-243.175" font-family="Monaco" font-size="10.00">/src/identity.cpp</text>
</g>
<!-- Node2 -->
<g id="node2" class="node"><title>Node2</title>
<polygon fill="white" stroke="#bfbfbf" points="13.0093,-175.505 13.0093,-196.84 77.0171,-196.84 77.0171,-175.505 13.0093,-175.505"/>
<text text-anchor="middle" x="45.0132" y="-184.84" font-family="Monaco" font-size="10.00">stdafx.h</text>
</g>
<!-- Node1&#45;&gt;Node2 -->
<g id="edge1" class="edge"><title>Node1&#45;&gt;Node2</title>
<path fill="none" stroke="midnightblue" d="M71.8756,-233.777C66.4645,-224.389 60.6403,-214.284 55.8029,-205.892"/>
<polygon fill="midnightblue" stroke="midnightblue" points="58.6875,-203.888 50.6613,-196.972 52.6228,-207.383 58.6875,-203.888"/>
</g>
<!-- Node3 -->
<g id="node3" class="node"><title>Node3</title>
<g id="a_node3"><a xlink:href="identity_8h.html" target="_top" xlink:title="identity.h">
<polygon fill="white" stroke="black" points="95.0083,-175.505 95.0083,-196.84 171.018,-196.84 171.018,-175.505 95.0083,-175.505"/>
<text text-anchor="middle" x="133.013" y="-184.84" font-family="Monaco" font-size="10.00">identity.h</text>
</a>
</g>
</g>
<!-- Node1&#45;&gt;Node3 -->
<g id="edge2" class="edge"><title>Node1&#45;&gt;Node3</title>
<path fill="none" stroke="midnightblue" d="M106.151,-233.777C111.562,-224.389 117.386,-214.284 122.223,-205.892"/>
<polygon fill="midnightblue" stroke="midnightblue" points="125.404,-207.383 127.365,-196.972 119.339,-203.888 125.404,-207.383"/>
</g>
<!-- Node4 -->
<g id="node4" class="node"><title>Node4</title>
<g id="a_node4"><a xlink:href="hydrocouplesdk_8h.html" target="_top" xlink:title="hydrocouplesdk.h">
<polygon fill="white" stroke="black" points="18.0054,-58.835 18.0054,-80.1699 130.021,-80.1699 130.021,-58.835 18.0054,-58.835"/>
<text text-anchor="middle" x="74.0132" y="-68.1699" font-family="Monaco" font-size="10.00">hydrocouplesdk.h</text>
</a>
</g>
</g>
<!-- Node3&#45;&gt;Node4 -->
<g id="edge3" class="edge"><title>Node3&#45;&gt;Node4</title>
<path fill="none" stroke="midnightblue" d="M127.983,-175.396C118.186,-156.355 96.3973,-114.007 83.7041,-89.3374"/>
<polygon fill="midnightblue" stroke="midnightblue" points="86.7182,-87.5451 79.0308,-80.2544 80.4937,-90.7477 86.7182,-87.5451"/>
</g>
<!-- Node6 -->
<g id="node6" class="node"><title>Node6</title>
<g id="a_node6"><a xlink:href="description_8h.html" target="_top" xlink:title="description.h">
<polygon fill="white" stroke="black" points="130.007,-117.17 130.007,-138.505 224.02,-138.505 224.02,-117.17 130.007,-117.17"/>
<text text-anchor="middle" x="177.013" y="-126.505" font-family="Monaco" font-size="10.00">description.h</text>
</a>
</g>
</g>
<!-- Node3&#45;&gt;Node6 -->
<g id="edge5" class="edge"><title>Node3&#45;&gt;Node6</title>
<path fill="none" stroke="midnightblue" d="M140.677,-175.36C146.861,-167.443 155.72,-156.101 163.142,-146.597"/>
<polygon fill="midnightblue" stroke="midnightblue" points="166.04,-148.573 169.437,-138.538 160.523,-144.264 166.04,-148.573"/>
</g>
<!-- Node5 -->
<g id="node5" class="node"><title>Node5</title>
<polygon fill="white" stroke="#bfbfbf" points="101.005,-0.5 101.005,-21.835 213.021,-21.835 213.021,-0.5 101.005,-0.5"/>
<text text-anchor="middle" x="157.013" y="-9.83496" font-family="Monaco" font-size="10.00">QtCore/qglobal.h</text>
</g>
<!-- Node4&#45;&gt;Node5 -->
<g id="edge4" class="edge"><title>Node4&#45;&gt;Node5</title>
<path fill="none" stroke="midnightblue" d="M88.4707,-58.6896C101.086,-50.1269 119.608,-37.5559 134.218,-27.6396"/>
<polygon fill="midnightblue" stroke="midnightblue" points="136.413,-30.3798 142.721,-21.8678 132.482,-24.5879 136.413,-30.3798"/>
</g>
<!-- Node6&#45;&gt;Node4 -->
<g id="edge8" class="edge"><title>Node6&#45;&gt;Node4</title>
<path fill="none" stroke="midnightblue" d="M159.072,-117.025C142.973,-108.22 119.125,-95.1761 100.774,-85.1391"/>
<polygon fill="midnightblue" stroke="midnightblue" points="102.202,-81.9307 91.7488,-80.2028 98.8428,-88.0721 102.202,-81.9307"/>
</g>
<!-- Node7 -->
<g id="node7" class="node"><title>Node7</title>
<polygon fill="white" stroke="#bfbfbf" points="148.01,-58.835 148.01,-80.1699 206.017,-80.1699 206.017,-58.835 148.01,-58.835"/>
<text text-anchor="middle" x="177.013" y="-68.1699" font-family="Monaco" font-size="10.00">QObject</text>
</g>
<!-- Node6&#45;&gt;Node7 -->
<g id="edge6" class="edge"><title>Node6&#45;&gt;Node7</title>
<path fill="none" stroke="midnightblue" d="M177.013,-117.025C177.013,-109.674 177.013,-99.3684 177.013,-90.3249"/>
<polygon fill="midnightblue" stroke="midnightblue" points="180.513,-90.2028 177.013,-80.2028 173.513,-90.2028 180.513,-90.2028"/>
</g>
<!-- Node8 -->
<g id="node8" class="node"><title>Node8</title>
<polygon fill="white" stroke="#bfbfbf" points="276.009,-0.5 276.009,-21.835 340.017,-21.835 340.017,-0.5 276.009,-0.5"/>
<text text-anchor="middle" x="308.013" y="-9.83496" font-family="Monaco" font-size="10.00">QVariant</text>
</g>
<!-- Node6&#45;&gt;Node8 -->
<g id="edge7" class="edge"><title>Node6&#45;&gt;Node8</title>
<path fill="none" stroke="midnightblue" d="M224.28,-126.217C258.847,-122.968 303.623,-112.342 327.013,-80.6699 337.839,-66.0108 329.856,-45.4727 321.159,-30.7141"/>
<polygon fill="midnightblue" stroke="midnightblue" points="323.887,-28.4851 315.532,-21.9701 318.001,-32.2734 323.887,-28.4851"/>
</g>
<!-- Node9 -->
<g id="node9" class="node"><title>Node9</title>
<g id="a_node9"><a xlink:href="hydrocouple_8h.html" target="_top" xlink:title="hydrocouple.h">
<polygon fill="white" stroke="black" points="224.007,-58.835 224.007,-80.1699 318.02,-80.1699 318.02,-58.835 224.007,-58.835"/>
<text text-anchor="middle" x="271.013" y="-68.1699" font-family="Monaco" font-size="10.00">hydrocouple.h</text>
</a>
</g>
</g>
<!-- Node6&#45;&gt;Node9 -->
<g id="edge9" class="edge"><title>Node6&#45;&gt;Node9</title>
<path fill="none" stroke="midnightblue" d="M193.387,-117.025C207.944,-108.3 229.444,-95.4151 246.128,-85.4161"/>
<polygon fill="midnightblue" stroke="midnightblue" points="248.049,-88.3456 254.827,-80.2028 244.45,-82.3413 248.049,-88.3456"/>
</g>
<!-- Node9&#45;&gt;Node5 -->
<g id="edge10" class="edge"><title>Node9&#45;&gt;Node5</title>
<path fill="none" stroke="midnightblue" d="M251.416,-58.8181C233.39,-49.9103 206.429,-36.587 185.929,-26.4566"/>
<polygon fill="midnightblue" stroke="midnightblue" points="187.252,-23.2065 176.736,-21.914 184.151,-29.482 187.252,-23.2065"/>
</g>
<!-- Node9&#45;&gt;Node8 -->
<g id="edge11" class="edge"><title>Node9&#45;&gt;Node8</title>
<path fill="none" stroke="midnightblue" d="M277.458,-58.6896C282.551,-50.9347 289.804,-39.8921 295.965,-30.5114"/>
<polygon fill="midnightblue" stroke="midnightblue" points="299.078,-32.1477 301.642,-21.8678 293.227,-28.3049 299.078,-32.1477"/>
</g>
</g>
</svg>
