<?xml version="1.0" encoding="UTF-8" standalone="no"?>
<!DOCTYPE svg PUBLIC "-//W3C//DTD SVG 1.1//EN"
 "http://www.w3.org/Graphics/SVG/1.1/DTD/svg11.dtd">
<!-- Generated by graphviz version 2.38.0 (20140413.2041)
 -->
<!-- Title: Graphical Class Hierarchy Pages: 1 -->
<svg width="838pt" height="422pt"
 viewBox="0.00 0.00 838.10 421.67" xmlns="http://www.w3.org/2000/svg" xmlns:xlink="http://www.w3.org/1999/xlink">
<g id="graph0" class="graph" transform="scale(1 1) rotate(0) translate(4 417.67)">
<title>Graphical Class Hierarchy</title>
<!-- Node1 -->
<g id="node1" class="node"><title>Node1</title>
<g id="a_node1"><a xlink:href="d3/d92/class_hydro_couple_1_1_spatial_1_1_i_geometry.html" target="_top" xlink:title="IGeometry is the root class of the geometry hierarchy. ">
<polygon fill="none" stroke="black" points="0,-161.5 0,-196.17 136.02,-196.17 136.02,-161.5 0,-161.5"/>
<text text-anchor="start" x="8" y="-184.17" font-family="Monaco" font-size="10.00">HydroCouple::Spatial</text>
<text text-anchor="middle" x="68.0098" y="-170.835" font-family="Monaco" font-size="10.00">::IGeometry</text>
</a>
</g>
</g>
<!-- Node2 -->
<g id="node2" class="node"><title>Node2</title>
<g id="a_node2"><a xlink:href="df/d7f/class_hydro_couple_1_1_spatial_1_1_i_curve.html" target="_top" xlink:title="A Curve is a 1&#45;dimensional geometric object usually stored as a sequence of IPoints, with the subtype of ICurve specifying the form of the interpolation between IPoints. ">
<polygon fill="none" stroke="black" points="175.02,-296.5 175.02,-331.17 311.04,-331.17 311.04,-296.5 175.02,-296.5"/>
<text text-anchor="start" x="183.02" y="-319.17" font-family="Monaco" font-size="10.00">HydroCouple::Spatial</text>
<text text-anchor="middle" x="243.03" y="-305.835" font-family="Monaco" font-size="10.00">::ICurve</text>
</a>
</g>
</g>
<!-- Node1&#45;&gt;Node2 -->
<g id="edge1" class="edge"><title>Node1&#45;&gt;Node2</title>
<path fill="none" stroke="midnightblue" d="M99.5399,-202.656C133.907,-229.472 188.933,-272.406 219.576,-296.315"/>
<polygon fill="midnightblue" stroke="midnightblue" points="101.312,-199.6 91.2749,-196.207 97.0059,-205.119 101.312,-199.6"/>
</g>
<!-- Node6 -->
<g id="node6" class="node"><title>Node6</title>
<g id="a_node6"><a xlink:href="d7/d83/class_hydro_couple_1_1_spatial_1_1_i_geometry_collection.html" target="_top" xlink:title="An IGeometryCollection is a geometric object that is a collection of some number of IGeometry objects...">
<polygon fill="none" stroke="black" points="172.02,-202.5 172.02,-237.17 314.04,-237.17 314.04,-202.5 172.02,-202.5"/>
<text text-anchor="start" x="180.02" y="-225.17" font-family="Monaco" font-size="10.00">HydroCouple::Spatial</text>
<text text-anchor="middle" x="243.03" y="-211.835" font-family="Monaco" font-size="10.00">::IGeometryCollection</text>
</a>
</g>
</g>
<!-- Node1&#45;&gt;Node6 -->
<g id="edge5" class="edge"><title>Node1&#45;&gt;Node6</title>
<path fill="none" stroke="midnightblue" d="M146.342,-197.16C154.877,-199.183 163.532,-201.233 171.97,-203.233"/>
<polygon fill="midnightblue" stroke="midnightblue" points="146.937,-193.704 136.399,-194.804 145.323,-200.516 146.937,-193.704"/>
</g>
<!-- Node13 -->
<g id="node13" class="node"><title>Node13</title>
<g id="a_node13"><a xlink:href="db/d7e/class_hydro_couple_1_1_spatial_1_1_i_point.html" target="_top" xlink:title="An IPoint is a 0&#45;dimensional geometric object and represents a single location in coordinate space...">
<polygon fill="none" stroke="black" points="175.02,-121.5 175.02,-156.17 311.04,-156.17 311.04,-121.5 175.02,-121.5"/>
<text text-anchor="start" x="183.02" y="-144.17" font-family="Monaco" font-size="10.00">HydroCouple::Spatial</text>
<text text-anchor="middle" x="243.03" y="-130.835" font-family="Monaco" font-size="10.00">::IPoint</text>
</a>
</g>
</g>
<!-- Node1&#45;&gt;Node13 -->
<g id="edge12" class="edge"><title>Node1&#45;&gt;Node13</title>
<path fill="none" stroke="midnightblue" d="M146.254,-160.977C155.782,-158.774 165.462,-156.536 174.824,-154.372"/>
<polygon fill="midnightblue" stroke="midnightblue" points="145.354,-157.593 136.399,-163.255 146.931,-164.413 145.354,-157.593"/>
</g>
<!-- Node15 -->
<g id="node15" class="node"><title>Node15</title>
<g id="a_node15"><a xlink:href="de/de8/class_hydro_couple_1_1_spatial_1_1_i_surface.html" target="_top" xlink:title="A ISurface is a 2&#45;dimensional IGeometry object. ">
<polygon fill="none" stroke="black" points="175.02,-54.5 175.02,-89.1699 311.04,-89.1699 311.04,-54.5 175.02,-54.5"/>
<text text-anchor="start" x="183.02" y="-77.1699" font-family="Monaco" font-size="10.00">HydroCouple::Spatial</text>
<text text-anchor="middle" x="243.03" y="-63.835" font-family="Monaco" font-size="10.00">::ISurface</text>
</a>
</g>
</g>
<!-- Node1&#45;&gt;Node15 -->
<g id="edge14" class="edge"><title>Node1&#45;&gt;Node15</title>
<path fill="none" stroke="midnightblue" d="M103.416,-155.749C123.287,-142.594 148.859,-125.967 172.02,-111.835 184.567,-104.179 198.599,-96.074 210.787,-89.1766"/>
<polygon fill="midnightblue" stroke="midnightblue" points="101.389,-152.893 94.9949,-161.341 105.262,-158.724 101.389,-152.893"/>
</g>
<!-- Node3 -->
<g id="node3" class="node"><title>Node3</title>
<g id="a_node3"><a xlink:href="d1/dc4/class_hydro_couple_1_1_spatial_1_1_i_line_string.html" target="_top" xlink:title="An ILineString is a Curve with linear interpolation between Points. Each consecutive pair of Points d...">
<polygon fill="none" stroke="black" points="350.04,-324.5 350.04,-359.17 486.06,-359.17 486.06,-324.5 350.04,-324.5"/>
<text text-anchor="start" x="358.04" y="-347.17" font-family="Monaco" font-size="10.00">HydroCouple::Spatial</text>
<text text-anchor="middle" x="418.05" y="-333.835" font-family="Monaco" font-size="10.00">::ILineString</text>
</a>
</g>
</g>
<!-- Node2&#45;&gt;Node3 -->
<g id="edge2" class="edge"><title>Node2&#45;&gt;Node3</title>
<path fill="none" stroke="midnightblue" d="M321.575,-326.384C331.006,-327.91 340.581,-329.46 349.844,-330.959"/>
<polygon fill="midnightblue" stroke="midnightblue" points="321.85,-322.883 311.419,-324.741 320.732,-329.793 321.85,-322.883"/>
</g>
<!-- Node4 -->
<g id="node4" class="node"><title>Node4</title>
<g id="a_node4"><a xlink:href="d7/ded/class_hydro_couple_1_1_spatial_1_1_i_line.html" target="_top" xlink:title="The ILine class is an ILineString with exactly 2 IPoints. ">
<polygon fill="none" stroke="black" points="522.06,-378.5 522.06,-413.17 658.079,-413.17 658.079,-378.5 522.06,-378.5"/>
<text text-anchor="start" x="530.06" y="-401.17" font-family="Monaco" font-size="10.00">HydroCouple::Spatial</text>
<text text-anchor="middle" x="590.069" y="-387.835" font-family="Monaco" font-size="10.00">::ILine</text>
</a>
</g>
</g>
<!-- Node3&#45;&gt;Node4 -->
<g id="edge3" class="edge"><title>Node3&#45;&gt;Node4</title>
<path fill="none" stroke="midnightblue" d="M483.511,-362.309C500.296,-367.64 518.218,-373.332 534.441,-378.484"/>
<polygon fill="midnightblue" stroke="midnightblue" points="484.371,-358.91 473.781,-359.218 482.252,-365.581 484.371,-358.91"/>
</g>
<!-- Node5 -->
<g id="node5" class="node"><title>Node5</title>
<g id="a_node5"><a xlink:href="da/d82/class_hydro_couple_1_1_spatial_1_1_i_linear_ring.html" target="_top" xlink:title="An ILinearRing is an ILineString that is both isClosed() and isSimple(). ">
<polygon fill="none" stroke="black" points="522.06,-324.5 522.06,-359.17 658.079,-359.17 658.079,-324.5 522.06,-324.5"/>
<text text-anchor="start" x="530.06" y="-347.17" font-family="Monaco" font-size="10.00">HydroCouple::Spatial</text>
<text text-anchor="middle" x="590.069" y="-333.835" font-family="Monaco" font-size="10.00">::ILinearRing</text>
</a>
</g>
</g>
<!-- Node3&#45;&gt;Node5 -->
<g id="edge4" class="edge"><title>Node3&#45;&gt;Node5</title>
<path fill="none" stroke="midnightblue" d="M496.483,-341.835C504.936,-341.835 513.489,-341.835 521.804,-341.835"/>
<polygon fill="midnightblue" stroke="midnightblue" points="496.246,-338.335 486.246,-341.835 496.246,-345.335 496.246,-338.335"/>
</g>
<!-- Node7 -->
<g id="node7" class="node"><title>Node7</title>
<g id="a_node7"><a xlink:href="dc/dcf/class_hydro_couple_1_1_spatial_1_1_i_multi_curve.html" target="_top" xlink:title="An IMultiCurve is a 1&#45;dimensional IGeometryCollection whose elements are ICurves. ...">
<polygon fill="none" stroke="black" points="350.04,-270.5 350.04,-305.17 486.06,-305.17 486.06,-270.5 350.04,-270.5"/>
<text text-anchor="start" x="358.04" y="-293.17" font-family="Monaco" font-size="10.00">HydroCouple::Spatial</text>
<text text-anchor="middle" x="418.05" y="-279.835" font-family="Monaco" font-size="10.00">::IMultiCurve</text>
</a>
</g>
</g>
<!-- Node6&#45;&gt;Node7 -->
<g id="edge6" class="edge"><title>Node6&#45;&gt;Node7</title>
<path fill="none" stroke="midnightblue" d="M297.511,-240.854C321.637,-250.336 349.796,-261.403 372.722,-270.413"/>
<polygon fill="midnightblue" stroke="midnightblue" points="298.725,-237.571 288.138,-237.17 296.164,-244.086 298.725,-237.571"/>
</g>
<!-- Node10 -->
<g id="node10" class="node"><title>Node10</title>
<g id="a_node10"><a xlink:href="d3/d56/class_hydro_couple_1_1_spatial_1_1_i_multi_point.html" target="_top" xlink:title="An IMultiPoint is a 0&#45;dimensional IGeometryCollection. ">
<polygon fill="none" stroke="black" points="350.04,-216.5 350.04,-251.17 486.06,-251.17 486.06,-216.5 350.04,-216.5"/>
<text text-anchor="start" x="358.04" y="-239.17" font-family="Monaco" font-size="10.00">HydroCouple::Spatial</text>
<text text-anchor="middle" x="418.05" y="-225.835" font-family="Monaco" font-size="10.00">::IMultiPoint</text>
</a>
</g>
</g>
<!-- Node6&#45;&gt;Node10 -->
<g id="edge9" class="edge"><title>Node6&#45;&gt;Node10</title>
<path fill="none" stroke="midnightblue" d="M324.626,-226.356C333.054,-227.038 341.558,-227.727 349.815,-228.395"/>
<polygon fill="midnightblue" stroke="midnightblue" points="324.653,-222.847 314.404,-225.529 324.089,-229.825 324.653,-222.847"/>
</g>
<!-- Node11 -->
<g id="node11" class="node"><title>Node11</title>
<g id="a_node11"><a xlink:href="d9/d96/class_hydro_couple_1_1_spatial_1_1_i_multi_surface.html" target="_top" xlink:title="A MultiSurface is a 2&#45;dimensional GeometryCollection whose elements are Surfaces, all using coordinat...">
<polygon fill="none" stroke="black" points="350.04,-162.5 350.04,-197.17 486.06,-197.17 486.06,-162.5 350.04,-162.5"/>
<text text-anchor="start" x="358.04" y="-185.17" font-family="Monaco" font-size="10.00">HydroCouple::Spatial</text>
<text text-anchor="middle" x="418.05" y="-171.835" font-family="Monaco" font-size="10.00">::IMultiSurface</text>
</a>
</g>
</g>
<!-- Node6&#45;&gt;Node11 -->
<g id="edge10" class="edge"><title>Node6&#45;&gt;Node11</title>
<path fill="none" stroke="midnightblue" d="M324.348,-201.266C332.867,-199.297 341.467,-197.309 349.815,-195.379"/>
<polygon fill="midnightblue" stroke="midnightblue" points="323.358,-197.903 314.404,-203.565 324.935,-204.723 323.358,-197.903"/>
</g>
<!-- Node8 -->
<g id="node8" class="node"><title>Node8</title>
<g id="a_node8"><a xlink:href="d3/d70/class_hydro_couple_1_1_spatial_1_1_i_multi_line_string.html" target="_top" xlink:title="An IMultiLineString is an IMultiCurve whose elements are ILineStrings. ">
<polygon fill="none" stroke="black" points="522.06,-270.5 522.06,-305.17 658.079,-305.17 658.079,-270.5 522.06,-270.5"/>
<text text-anchor="start" x="530.06" y="-293.17" font-family="Monaco" font-size="10.00">HydroCouple::Spatial</text>
<text text-anchor="middle" x="590.069" y="-279.835" font-family="Monaco" font-size="10.00">::IMultiLineString</text>
</a>
</g>
</g>
<!-- Node7&#45;&gt;Node8 -->
<g id="edge7" class="edge"><title>Node7&#45;&gt;Node8</title>
<path fill="none" stroke="midnightblue" d="M496.483,-287.835C504.936,-287.835 513.489,-287.835 521.804,-287.835"/>
<polygon fill="midnightblue" stroke="midnightblue" points="496.246,-284.335 486.246,-287.835 496.246,-291.335 496.246,-284.335"/>
</g>
<!-- Node9 -->
<g id="node9" class="node"><title>Node9</title>
<g id="a_node9"><a xlink:href="de/d84/class_hydro_couple_1_1_spatial_1_1_i_network.html" target="_top" xlink:title="The INetwork class. ">
<polygon fill="none" stroke="black" points="694.079,-270.5 694.079,-305.17 830.099,-305.17 830.099,-270.5 694.079,-270.5"/>
<text text-anchor="start" x="702.079" y="-293.17" font-family="Monaco" font-size="10.00">HydroCouple::Spatial</text>
<text text-anchor="middle" x="762.089" y="-279.835" font-family="Monaco" font-size="10.00">::INetwork</text>
</a>
</g>
</g>
<!-- Node8&#45;&gt;Node9 -->
<g id="edge8" class="edge"><title>Node8&#45;&gt;Node9</title>
<path fill="none" stroke="midnightblue" d="M668.503,-287.835C676.955,-287.835 685.508,-287.835 693.824,-287.835"/>
<polygon fill="midnightblue" stroke="midnightblue" points="668.266,-284.335 658.266,-287.835 668.266,-291.335 668.266,-284.335"/>
</g>
<!-- Node12 -->
<g id="node12" class="node"><title>Node12</title>
<g id="a_node12"><a xlink:href="d8/d52/class_hydro_couple_1_1_spatial_1_1_i_multi_polygon.html" target="_top" xlink:title="An IMultiPolygon is an IMultiSurface whose elements are IPolygons. ">
<polygon fill="none" stroke="black" points="522.06,-162.5 522.06,-197.17 658.079,-197.17 658.079,-162.5 522.06,-162.5"/>
<text text-anchor="start" x="530.06" y="-185.17" font-family="Monaco" font-size="10.00">HydroCouple::Spatial</text>
<text text-anchor="middle" x="590.069" y="-171.835" font-family="Monaco" font-size="10.00">::IMultiPolygon</text>
</a>
</g>
</g>
<!-- Node11&#45;&gt;Node12 -->
<g id="edge11" class="edge"><title>Node11&#45;&gt;Node12</title>
<path fill="none" stroke="midnightblue" d="M496.483,-179.835C504.936,-179.835 513.489,-179.835 521.804,-179.835"/>
<polygon fill="midnightblue" stroke="midnightblue" points="496.246,-176.335 486.246,-179.835 496.246,-183.335 496.246,-176.335"/>
</g>
<!-- Node14 -->
<g id="node14" class="node"><title>Node14</title>
<g id="a_node14"><a xlink:href="d1/d5a/class_hydro_couple_1_1_spatial_1_1_i_vertex.html" target="_top" xlink:title="The IVertex class is an IPoint of a topologically aware IGeometry. ">
<polygon fill="none" stroke="black" points="350.04,-108.5 350.04,-143.17 486.06,-143.17 486.06,-108.5 350.04,-108.5"/>
<text text-anchor="start" x="358.04" y="-131.17" font-family="Monaco" font-size="10.00">HydroCouple::Spatial</text>
<text text-anchor="middle" x="418.05" y="-117.835" font-family="Monaco" font-size="10.00">::IVertex</text>
</a>
</g>
</g>
<!-- Node13&#45;&gt;Node14 -->
<g id="edge13" class="edge"><title>Node13&#45;&gt;Node14</title>
<path fill="none" stroke="midnightblue" d="M321.575,-133.009C331.006,-132.3 340.581,-131.581 349.844,-130.885"/>
<polygon fill="midnightblue" stroke="midnightblue" points="321.129,-129.532 311.419,-133.772 321.653,-136.512 321.129,-129.532"/>
</g>
<!-- Node16 -->
<g id="node16" class="node"><title>Node16</title>
<g id="a_node16"><a xlink:href="d4/d85/class_hydro_couple_1_1_spatial_1_1_i_polygon.html" target="_top" xlink:title="A IPolygon is a planar ISurface defined by 1 exterior boundary and 0 or more interior boundaries...">
<polygon fill="none" stroke="black" points="350.04,-54.5 350.04,-89.1699 486.06,-89.1699 486.06,-54.5 350.04,-54.5"/>
<text text-anchor="start" x="358.04" y="-77.1699" font-family="Monaco" font-size="10.00">HydroCouple::Spatial</text>
<text text-anchor="middle" x="418.05" y="-63.835" font-family="Monaco" font-size="10.00">::IPolygon</text>
</a>
</g>
</g>
<!-- Node15&#45;&gt;Node16 -->
<g id="edge15" class="edge"><title>Node15&#45;&gt;Node16</title>
<path fill="none" stroke="midnightblue" d="M321.575,-71.835C331.006,-71.835 340.581,-71.835 349.844,-71.835"/>
<polygon fill="midnightblue" stroke="midnightblue" points="321.419,-68.3351 311.419,-71.835 321.419,-75.3351 321.419,-68.3351"/>
</g>
<!-- Node18 -->
<g id="node18" class="node"><title>Node18</title>
<g id="a_node18"><a xlink:href="d3/d0f/class_hydro_couple_1_1_spatial_1_1_i_polyhedral_surface.html" target="_top" xlink:title="An IPolyhedralSurface is a contiguous collection of polygons, which share common boundary segments...">
<polygon fill="none" stroke="black" points="350.04,-0.5 350.04,-35.1699 486.06,-35.1699 486.06,-0.5 350.04,-0.5"/>
<text text-anchor="start" x="358.04" y="-23.1699" font-family="Monaco" font-size="10.00">HydroCouple::Spatial</text>
<text text-anchor="middle" x="418.05" y="-9.83496" font-family="Monaco" font-size="10.00">::IPolyhedralSurface</text>
</a>
</g>
</g>
<!-- Node15&#45;&gt;Node18 -->
<g id="edge17" class="edge"><title>Node15&#45;&gt;Node18</title>
<path fill="none" stroke="midnightblue" d="M309.629,-51.3614C326.71,-46.0303 344.948,-40.338 361.457,-35.1856"/>
<polygon fill="midnightblue" stroke="midnightblue" points="308.23,-48.1314 299.727,-54.4518 310.315,-54.8135 308.23,-48.1314"/>
</g>
<!-- Node17 -->
<g id="node17" class="node"><title>Node17</title>
<g id="a_node17"><a xlink:href="d5/dd6/class_hydro_couple_1_1_spatial_1_1_i_triangle.html" target="_top" xlink:title="An ITriangle is a IPolygon with 3 distinct, non&#45;collinear vertices and no interior boundary...">
<polygon fill="none" stroke="black" points="522.06,-54.5 522.06,-89.1699 658.079,-89.1699 658.079,-54.5 522.06,-54.5"/>
<text text-anchor="start" x="530.06" y="-77.1699" font-family="Monaco" font-size="10.00">HydroCouple::Spatial</text>
<text text-anchor="middle" x="590.069" y="-63.835" font-family="Monaco" font-size="10.00">::ITriangle</text>
</a>
</g>
</g>
<!-- Node16&#45;&gt;Node17 -->
<g id="edge16" class="edge"><title>Node16&#45;&gt;Node17</title>
<path fill="none" stroke="midnightblue" d="M496.483,-71.835C504.936,-71.835 513.489,-71.835 521.804,-71.835"/>
<polygon fill="midnightblue" stroke="midnightblue" points="496.246,-68.3351 486.246,-71.835 496.246,-75.3351 496.246,-68.3351"/>
</g>
<!-- Node19 -->
<g id="node19" class="node"><title>Node19</title>
<g id="a_node19"><a xlink:href="d9/d8c/class_hydro_couple_1_1_spatial_1_1_i_t_i_n.html" target="_top" xlink:title="An ITIN is a triangulated irregular network IPolyhedralSurface consisting only of ITriangle patches...">
<polygon fill="none" stroke="black" points="522.06,-0.5 522.06,-35.1699 658.079,-35.1699 658.079,-0.5 522.06,-0.5"/>
<text text-anchor="start" x="530.06" y="-23.1699" font-family="Monaco" font-size="10.00">HydroCouple::Spatial</text>
<text text-anchor="middle" x="590.069" y="-9.83496" font-family="Monaco" font-size="10.00">::ITIN</text>
</a>
</g>
</g>
<!-- Node18&#45;&gt;Node19 -->
<g id="edge18" class="edge"><title>Node18&#45;&gt;Node19</title>
<path fill="none" stroke="midnightblue" d="M496.483,-17.835C504.936,-17.835 513.489,-17.835 521.804,-17.835"/>
<polygon fill="midnightblue" stroke="midnightblue" points="496.246,-14.3351 486.246,-17.835 496.246,-21.3351 496.246,-14.3351"/>
</g>
</g>
</svg>
