<?xml version="1.0" encoding="UTF-8" standalone="no"?>
<!DOCTYPE svg PUBLIC "-//W3C//DTD SVG 1.1//EN"
 "http://www.w3.org/Graphics/SVG/1.1/DTD/svg11.dtd">
<!-- Generated by graphviz version 2.38.0 (20140413.2041)
 -->
<!-- Title: Graphical Class Hierarchy Pages: 1 -->
<svg width="1602pt" height="1143pt"
 viewBox="0.00 0.00 1602.21 1142.67" xmlns="http://www.w3.org/2000/svg" xmlns:xlink="http://www.w3.org/1999/xlink">
<g id="graph0" class="graph" transform="scale(1 1) rotate(0) translate(4 1138.67)">
<title>Graphical Class Hierarchy</title>
<!-- Node1 -->
<g id="node1" class="node"><title>Node1</title>
<g id="a_node1"><a xlink:href="dd/dbf/class_hydro_couple_1_1_i_property_changed.html" target="_top" xlink:title="IPropertyChanged interface is used to emit signal/event when a property of an object changes...">
<polygon fill="none" stroke="black" points="0,-60.1675 0,-81.5024 190.028,-81.5024 190.028,-60.1675 0,-60.1675"/>
<text text-anchor="middle" x="95.0142" y="-69.5024" font-family="Monaco" font-size="10.00">HydroCouple::IPropertyChanged</text>
</a>
</g>
</g>
<!-- Node2 -->
<g id="node2" class="node"><title>Node2</title>
<g id="a_node2"><a xlink:href="db/d64/class_hydro_couple_1_1_i_description.html" target="_top" xlink:title="IDescription interface class provides descriptive information on a HydroCouple object. ">
<polygon fill="none" stroke="black" points="226.028,-94.1675 226.028,-115.502 392.053,-115.502 392.053,-94.1675 226.028,-94.1675"/>
<text text-anchor="middle" x="309.041" y="-103.502" font-family="Monaco" font-size="10.00">HydroCouple::IDescription</text>
</a>
</g>
</g>
<!-- Node1&#45;&gt;Node2 -->
<g id="edge1" class="edge"><title>Node1&#45;&gt;Node2</title>
<path fill="none" stroke="midnightblue" d="M172.936,-83.17C195.297,-86.7558 219.53,-90.6417 241.217,-94.1193"/>
<polygon fill="midnightblue" stroke="midnightblue" points="173.238,-79.6737 162.81,-81.5461 172.129,-86.5854 173.238,-79.6737"/>
</g>
<!-- Node47 -->
<g id="node47" class="node"><title>Node47</title>
<g id="a_node47"><a xlink:href="d6/dd7/class_hydro_couple_1_1_temporal_1_1_i_date_time.html" target="_top" xlink:title="IDateTime interface based on a Modified Julian Date5 (number and fraction of days since 00:00 Novembe...">
<polygon fill="none" stroke="black" points="238.03,-20.5 238.03,-55.1699 380.051,-55.1699 380.051,-20.5 238.03,-20.5"/>
<text text-anchor="start" x="246.03" y="-43.1699" font-family="Monaco" font-size="10.00">HydroCouple::Temporal</text>
<text text-anchor="middle" x="309.041" y="-29.835" font-family="Monaco" font-size="10.00">::IDateTime</text>
</a>
</g>
</g>
<!-- Node1&#45;&gt;Node47 -->
<g id="edge48" class="edge"><title>Node1&#45;&gt;Node47</title>
<path fill="none" stroke="midnightblue" d="M174.614,-58.6016C195.371,-55.3709 217.634,-51.9059 237.912,-48.7499"/>
<polygon fill="midnightblue" stroke="midnightblue" points="173.903,-55.17 164.56,-60.1664 174.98,-62.0868 173.903,-55.17"/>
</g>
<!-- Node3 -->
<g id="node3" class="node"><title>Node3</title>
<g id="a_node3"><a xlink:href="d2/d2a/class_hydro_couple_1_1_i_identity.html" target="_top" xlink:title="IIdentity interface class defines a method to get the Id of an HydroCouple entity. ">
<polygon fill="none" stroke="black" points="449.056,-310.167 449.056,-331.502 597.078,-331.502 597.078,-310.167 449.056,-310.167"/>
<text text-anchor="middle" x="523.067" y="-319.502" font-family="Monaco" font-size="10.00">HydroCouple::IIdentity</text>
</a>
</g>
</g>
<!-- Node2&#45;&gt;Node3 -->
<g id="edge2" class="edge"><title>Node2&#45;&gt;Node3</title>
<path fill="none" stroke="midnightblue" d="M327.717,-122.843C370.273,-166.196 477.415,-275.347 511.489,-310.059"/>
<polygon fill="midnightblue" stroke="midnightblue" points="330.058,-120.231 320.555,-115.546 325.062,-125.135 330.058,-120.231"/>
</g>
<!-- Node42 -->
<g id="node42" class="node"><title>Node42</title>
<g id="a_node42"><a xlink:href="d9/dcc/class_hydro_couple_1_1_i_unit.html" target="_top" xlink:title="IUnit interface, describing the physical unit of a IQuantity. ">
<polygon fill="none" stroke="black" points="461.058,-134.167 461.058,-155.502 585.076,-155.502 585.076,-134.167 461.058,-134.167"/>
<text text-anchor="middle" x="523.067" y="-143.502" font-family="Monaco" font-size="10.00">HydroCouple::IUnit</text>
</a>
</g>
</g>
<!-- Node2&#45;&gt;Node42 -->
<g id="edge43" class="edge"><title>Node2&#45;&gt;Node42</title>
<path fill="none" stroke="midnightblue" d="M376.741,-117.418C405.245,-122.796 438.165,-129.006 465.459,-134.156"/>
<polygon fill="midnightblue" stroke="midnightblue" points="377.335,-113.969 366.86,-115.554 376.037,-120.847 377.335,-113.969"/>
</g>
<!-- Node43 -->
<g id="node43" class="node"><title>Node43</title>
<g id="a_node43"><a xlink:href="dc/df4/class_hydro_couple_1_1_i_unit_dimensions.html" target="_top" xlink:title="Defines the order of dimension in each FundamentalDimension for a unit. ">
<polygon fill="none" stroke="black" points="431.053,-94.1675 431.053,-115.502 615.081,-115.502 615.081,-94.1675 431.053,-94.1675"/>
<text text-anchor="middle" x="523.067" y="-103.502" font-family="Monaco" font-size="10.00">HydroCouple::IUnitDimensions</text>
</a>
</g>
</g>
<!-- Node2&#45;&gt;Node43 -->
<g id="edge44" class="edge"><title>Node2&#45;&gt;Node43</title>
<path fill="none" stroke="midnightblue" d="M402.516,-104.835C411.98,-104.835 421.591,-104.835 431.039,-104.835"/>
<polygon fill="midnightblue" stroke="midnightblue" points="402.319,-101.335 392.319,-104.835 402.319,-108.335 402.319,-101.335"/>
</g>
<!-- Node44 -->
<g id="node44" class="node"><title>Node44</title>
<g id="a_node44"><a xlink:href="d9/d22/class_hydro_couple_1_1_i_value_definition.html" target="_top" xlink:title="IValueDefinition describes a value returned by the getValues() function of IValueSet. ">
<polygon fill="none" stroke="black" points="428.053,-54.1675 428.053,-75.5024 618.081,-75.5024 618.081,-54.1675 428.053,-54.1675"/>
<text text-anchor="middle" x="523.067" y="-63.5024" font-family="Monaco" font-size="10.00">HydroCouple::IValueDefinition</text>
</a>
</g>
</g>
<!-- Node2&#45;&gt;Node44 -->
<g id="edge45" class="edge"><title>Node2&#45;&gt;Node44</title>
<path fill="none" stroke="midnightblue" d="M376.741,-92.2515C405.245,-86.8742 438.165,-80.6635 465.459,-75.5144"/>
<polygon fill="midnightblue" stroke="midnightblue" points="376.037,-88.8224 366.86,-94.1157 377.335,-95.7011 376.037,-88.8224"/>
</g>
<!-- Node4 -->
<g id="node4" class="node"><title>Node4</title>
<g id="a_node4"><a xlink:href="da/d70/class_hydro_couple_1_1_i_adapted_output_factory.html" target="_top" xlink:title="IAdaptedOutputFactory is used to create instances of IAdaptedProducerExchangeItems. ">
<polygon fill="none" stroke="black" points="666.083,-949.5 666.083,-984.17 844.109,-984.17 844.109,-949.5 666.083,-949.5"/>
<text text-anchor="start" x="674.083" y="-972.17" font-family="Monaco" font-size="10.00">HydroCouple::IAdaptedOutput</text>
<text text-anchor="middle" x="755.096" y="-958.835" font-family="Monaco" font-size="10.00">Factory</text>
</a>
</g>
</g>
<!-- Node3&#45;&gt;Node4 -->
<g id="edge3" class="edge"><title>Node3&#45;&gt;Node4</title>
<path fill="none" stroke="midnightblue" d="M527.984,-341.852C540.887,-408.955 585.208,-623.408 654.081,-789.835 679.59,-851.474 721.947,-918.575 742.372,-949.476"/>
<polygon fill="midnightblue" stroke="midnightblue" points="531.365,-340.895 526.061,-331.723 524.487,-342.201 531.365,-340.895"/>
</g>
<!-- Node6 -->
<g id="node6" class="node"><title>Node6</title>
<g id="a_node6"><a xlink:href="d8/d52/class_hydro_couple_1_1_i_component_data_item.html" target="_top" xlink:title="IComponentItem is a fundamental unit of data for a component. ">
<polygon fill="none" stroke="black" points="654.081,-759.167 654.081,-780.502 856.111,-780.502 856.111,-759.167 654.081,-759.167"/>
<text text-anchor="middle" x="755.096" y="-768.502" font-family="Monaco" font-size="10.00">HydroCouple::IComponentDataItem</text>
</a>
</g>
</g>
<!-- Node3&#45;&gt;Node6 -->
<g id="edge5" class="edge"><title>Node3&#45;&gt;Node6</title>
<path fill="none" stroke="midnightblue" d="M534.522,-341.243C574.731,-419.728 718.65,-700.647 748.609,-759.124"/>
<polygon fill="midnightblue" stroke="midnightblue" points="537.428,-339.238 529.753,-331.934 531.198,-342.43 537.428,-339.238"/>
</g>
<!-- Node30 -->
<g id="node30" class="node"><title>Node30</title>
<g id="a_node30"><a xlink:href="d3/dd7/class_hydro_couple_1_1_i_component_info.html" target="_top" xlink:title="IComponentInfo interface class provides detailed metadata about a component. ">
<polygon fill="none" stroke="black" points="666.083,-444.167 666.083,-465.502 844.109,-465.502 844.109,-444.167 666.083,-444.167"/>
<text text-anchor="middle" x="755.096" y="-453.502" font-family="Monaco" font-size="10.00">HydroCouple::IComponentInfo</text>
</a>
</g>
</g>
<!-- Node3&#45;&gt;Node30 -->
<g id="edge31" class="edge"><title>Node3&#45;&gt;Node30</title>
<path fill="none" stroke="midnightblue" d="M539.618,-339.594C562.081,-365.361 606.197,-411.193 654.081,-434.835 661.702,-438.598 669.982,-441.653 678.405,-444.133"/>
<polygon fill="midnightblue" stroke="midnightblue" points="542.016,-337.012 532.857,-331.686 536.695,-341.561 542.016,-337.012"/>
</g>
<!-- Node34 -->
<g id="node34" class="node"><title>Node34</title>
<g id="a_node34"><a xlink:href="d1/d5e/class_hydro_couple_1_1_i_data_exchange_workflow_component.html" target="_top" xlink:title="The IDataExchangeWorkflowComponent class. ">
<polygon fill="none" stroke="black" points="669.083,-390.5 669.083,-425.17 841.109,-425.17 841.109,-390.5 669.083,-390.5"/>
<text text-anchor="start" x="677.083" y="-413.17" font-family="Monaco" font-size="10.00">HydroCouple::IDataExchange</text>
<text text-anchor="middle" x="755.096" y="-399.835" font-family="Monaco" font-size="10.00">WorkflowComponent</text>
</a>
</g>
</g>
<!-- Node3&#45;&gt;Node34 -->
<g id="edge35" class="edge"><title>Node3&#45;&gt;Node34</title>
<path fill="none" stroke="midnightblue" d="M553.723,-336.27C579.691,-349.359 618.699,-367.999 654.081,-380.835 663.549,-384.27 673.661,-387.494 683.681,-390.435"/>
<polygon fill="midnightblue" stroke="midnightblue" points="555.276,-333.133 544.776,-331.72 552.103,-339.373 555.276,-333.133"/>
</g>
<!-- Node35 -->
<g id="node35" class="node"><title>Node35</title>
<g id="a_node35"><a xlink:href="dd/dca/class_hydro_couple_1_1_i_dimension.html" target="_top" xlink:title="IDimension provides the properties of the dimensions of a vairable. ">
<polygon fill="none" stroke="black" points="678.085,-350.167 678.085,-371.502 832.107,-371.502 832.107,-350.167 678.085,-350.167"/>
<text text-anchor="middle" x="755.096" y="-359.502" font-family="Monaco" font-size="10.00">HydroCouple::IDimension</text>
</a>
</g>
</g>
<!-- Node3&#45;&gt;Node35 -->
<g id="edge36" class="edge"><title>Node3&#45;&gt;Node35</title>
<path fill="none" stroke="midnightblue" d="M595.622,-333.278C626.73,-338.687 662.812,-344.961 692.682,-350.156"/>
<polygon fill="midnightblue" stroke="midnightblue" points="596.162,-329.819 585.711,-331.554 594.963,-336.716 596.162,-329.819"/>
</g>
<!-- Node36 -->
<g id="node36" class="node"><title>Node36</title>
<g id="a_node36"><a xlink:href="d3/dae/class_hydro_couple_1_1_i_model_component.html" target="_top" xlink:title="IModelComponent interface is the core interface in the HydroCouple standard defining a model componen...">
<polygon fill="none" stroke="black" points="663.083,-310.167 663.083,-331.502 847.11,-331.502 847.11,-310.167 663.083,-310.167"/>
<text text-anchor="middle" x="755.096" y="-319.502" font-family="Monaco" font-size="10.00">HydroCouple::IModelComponent</text>
</a>
</g>
</g>
<!-- Node3&#45;&gt;Node36 -->
<g id="edge37" class="edge"><title>Node3&#45;&gt;Node36</title>
<path fill="none" stroke="midnightblue" d="M607.367,-320.835C625.438,-320.835 644.643,-320.835 662.997,-320.835"/>
<polygon fill="midnightblue" stroke="midnightblue" points="607.166,-317.335 597.166,-320.835 607.166,-324.335 607.166,-317.335"/>
</g>
<!-- Node38 -->
<g id="node38" class="node"><title>Node38</title>
<g id="a_node38"><a xlink:href="d8/d5b/class_hydro_couple_1_1_spatial_1_1_i_raster.html" target="_top" xlink:title="A Raster spatial feature. ">
<polygon fill="none" stroke="black" points="687.086,-256.5 687.086,-291.17 823.106,-291.17 823.106,-256.5 687.086,-256.5"/>
<text text-anchor="start" x="695.086" y="-279.17" font-family="Monaco" font-size="10.00">HydroCouple::Spatial</text>
<text text-anchor="middle" x="755.096" y="-265.835" font-family="Monaco" font-size="10.00">::IRaster</text>
</a>
</g>
</g>
<!-- Node3&#45;&gt;Node38 -->
<g id="edge39" class="edge"><title>Node3&#45;&gt;Node38</title>
<path fill="none" stroke="midnightblue" d="M586.409,-308.097C617.53,-301.738 655.212,-294.039 686.966,-287.551"/>
<polygon fill="midnightblue" stroke="midnightblue" points="585.649,-304.68 576.552,-310.111 587.05,-311.538 585.649,-304.68"/>
</g>
<!-- Node39 -->
<g id="node39" class="node"><title>Node39</title>
<g id="a_node39"><a xlink:href="d1/da8/class_hydro_couple_1_1_spatial_1_1_i_raster_band.html" target="_top" xlink:title="IRasterBand is a single raster band for an IRaster. ">
<polygon fill="none" stroke="black" points="687.086,-202.5 687.086,-237.17 823.106,-237.17 823.106,-202.5 687.086,-202.5"/>
<text text-anchor="start" x="695.086" y="-225.17" font-family="Monaco" font-size="10.00">HydroCouple::Spatial</text>
<text text-anchor="middle" x="755.096" y="-211.835" font-family="Monaco" font-size="10.00">::IRasterBand</text>
</a>
</g>
</g>
<!-- Node3&#45;&gt;Node39 -->
<g id="edge40" class="edge"><title>Node3&#45;&gt;Node39</title>
<path fill="none" stroke="midnightblue" d="M548.421,-304.466C573.855,-287.982 615.366,-262.774 654.081,-246.835 664.475,-242.556 675.756,-238.756 686.87,-235.458"/>
<polygon fill="midnightblue" stroke="midnightblue" points="546.256,-301.7 539.813,-310.11 550.095,-307.554 546.256,-301.7"/>
</g>
<!-- Node40 -->
<g id="node40" class="node"><title>Node40</title>
<g id="a_node40"><a xlink:href="d0/d66/class_hydro_couple_1_1_spatial_1_1_i_regular_grid2_d.html" target="_top" xlink:title="The IRegularGrid2D class. ">
<polygon fill="none" stroke="black" points="687.086,-148.5 687.086,-183.17 823.106,-183.17 823.106,-148.5 687.086,-148.5"/>
<text text-anchor="start" x="695.086" y="-171.17" font-family="Monaco" font-size="10.00">HydroCouple::Spatial</text>
<text text-anchor="middle" x="755.096" y="-157.835" font-family="Monaco" font-size="10.00">::IRegularGrid2D</text>
</a>
</g>
</g>
<!-- Node3&#45;&gt;Node40 -->
<g id="edge41" class="edge"><title>Node3&#45;&gt;Node40</title>
<path fill="none" stroke="midnightblue" d="M538.066,-301.829C559.764,-273.745 604.243,-221.412 654.081,-192.835 664.223,-187.02 675.662,-182.417 687.086,-178.786"/>
<polygon fill="midnightblue" stroke="midnightblue" points="535.097,-299.952 531.844,-310.034 540.675,-304.181 535.097,-299.952"/>
</g>
<!-- Node41 -->
<g id="node41" class="node"><title>Node41</title>
<g id="a_node41"><a xlink:href="dd/d91/class_hydro_couple_1_1_spatial_1_1_i_regular_grid3_d.html" target="_top" xlink:title="The IRegularGrid3D class. ">
<polygon fill="none" stroke="black" points="687.086,-94.5 687.086,-129.17 823.106,-129.17 823.106,-94.5 687.086,-94.5"/>
<text text-anchor="start" x="695.086" y="-117.17" font-family="Monaco" font-size="10.00">HydroCouple::Spatial</text>
<text text-anchor="middle" x="755.096" y="-103.835" font-family="Monaco" font-size="10.00">::IRegularGrid3D</text>
</a>
</g>
</g>
<!-- Node3&#45;&gt;Node41 -->
<g id="edge42" class="edge"><title>Node3&#45;&gt;Node41</title>
<path fill="none" stroke="midnightblue" d="M532.913,-300.345C550.352,-262.437 592.862,-181.357 654.081,-138.835 663.904,-132.012 675.373,-126.912 686.969,-123.1"/>
<polygon fill="midnightblue" stroke="midnightblue" points="529.561,-299.267 528.664,-309.824 535.948,-302.13 529.561,-299.267"/>
</g>
<!-- Node5 -->
<g id="node5" class="node"><title>Node5</title>
<g id="a_node5"><a xlink:href="d1/df0/class_hydro_couple_1_1_i_adapted_output_factory_component.html" target="_top" xlink:title="IAdaptedOutputFactoryComponent is an IAdaptedOutputFactory generated from an IAdaptedOutputFactoryCom...">
<polygon fill="none" stroke="black" points="910.114,-1099.5 910.114,-1134.17 1088.14,-1134.17 1088.14,-1099.5 910.114,-1099.5"/>
<text text-anchor="start" x="918.114" y="-1122.17" font-family="Monaco" font-size="10.00">HydroCouple::IAdaptedOutput</text>
<text text-anchor="middle" x="999.127" y="-1108.83" font-family="Monaco" font-size="10.00">FactoryComponent</text>
</a>
</g>
</g>
<!-- Node4&#45;&gt;Node5 -->
<g id="edge4" class="edge"><title>Node4&#45;&gt;Node5</title>
<path fill="none" stroke="midnightblue" d="M777.191,-992.208C801.882,-1020.26 845.38,-1064.77 892.111,-1089.83 898.974,-1093.52 906.357,-1096.71 913.919,-1099.48"/>
<polygon fill="midnightblue" stroke="midnightblue" points="779.636,-989.686 770.443,-984.418 774.345,-994.269 779.636,-989.686"/>
</g>
<!-- Node7 -->
<g id="node7" class="node"><title>Node7</title>
<g id="a_node7"><a xlink:href="dd/d96/class_hydro_couple_1_1_i_argument.html" target="_top" xlink:title="IArgument interface class used to set the arguments for components. They can be complex or simple mul...">
<polygon fill="none" stroke="black" points="925.117,-1059.17 925.117,-1080.5 1073.14,-1080.5 1073.14,-1059.17 925.117,-1059.17"/>
<text text-anchor="middle" x="999.127" y="-1068.5" font-family="Monaco" font-size="10.00">HydroCouple::IArgument</text>
</a>
</g>
</g>
<!-- Node6&#45;&gt;Node7 -->
<g id="edge6" class="edge"><title>Node6&#45;&gt;Node7</title>
<path fill="none" stroke="midnightblue" d="M769.239,-789.001C789.875,-819.732 830.192,-882.418 856.111,-939.835 877.276,-986.72 853.455,-1015.9 892.111,-1049.83 901.401,-1057.99 912.948,-1063.27 924.969,-1066.62"/>
<polygon fill="midnightblue" stroke="midnightblue" points="772.009,-786.849 763.504,-780.531 766.212,-790.774 772.009,-786.849"/>
</g>
<!-- Node8 -->
<g id="node8" class="node"><title>Node8</title>
<g id="a_node8"><a xlink:href="d1/dd3/class_hydro_couple_1_1_i_exchange_item.html" target="_top" xlink:title="IExchangeItem the base data item the can be exchanged between components at runtime. ">
<polygon fill="none" stroke="black" points="913.115,-1019.17 913.115,-1040.5 1085.14,-1040.5 1085.14,-1019.17 913.115,-1019.17"/>
<text text-anchor="middle" x="999.127" y="-1028.5" font-family="Monaco" font-size="10.00">HydroCouple::IExchangeItem</text>
</a>
</g>
</g>
<!-- Node6&#45;&gt;Node8 -->
<g id="edge7" class="edge"><title>Node6&#45;&gt;Node8</title>
<path fill="none" stroke="midnightblue" d="M768.177,-789.532C787.359,-820.99 825.722,-884.654 856.111,-939.835 872.988,-970.479 864.074,-988.911 892.111,-1009.83 898.416,-1014.54 905.505,-1018.24 912.952,-1021.14"/>
<polygon fill="midnightblue" stroke="midnightblue" points="771.071,-787.555 762.87,-780.848 765.098,-791.206 771.071,-787.555"/>
</g>
<!-- Node13 -->
<g id="node13" class="node"><title>Node13</title>
<g id="a_node13"><a xlink:href="dd/d21/class_hydro_couple_1_1_i_id_based_component_data_item.html" target="_top" xlink:title="The IIdBasedComponentItem class is an idbased IComponentItem. ">
<polygon fill="none" stroke="black" points="901.113,-965.5 901.113,-1000.17 1097.14,-1000.17 1097.14,-965.5 901.113,-965.5"/>
<text text-anchor="start" x="909.113" y="-988.17" font-family="Monaco" font-size="10.00">HydroCouple::IIdBasedComponent</text>
<text text-anchor="middle" x="999.127" y="-974.835" font-family="Monaco" font-size="10.00">DataItem</text>
</a>
</g>
</g>
<!-- Node6&#45;&gt;Node13 -->
<g id="edge12" class="edge"><title>Node6&#45;&gt;Node13</title>
<path fill="none" stroke="midnightblue" d="M764.938,-789.816C782.999,-828.236 827.915,-912.443 892.111,-955.835 897.54,-959.504 903.431,-962.675 909.561,-965.415"/>
<polygon fill="midnightblue" stroke="midnightblue" points="768.095,-788.304 760.744,-780.674 761.733,-791.223 768.095,-788.304"/>
</g>
<!-- Node14 -->
<g id="node14" class="node"><title>Node14</title>
<g id="a_node14"><a xlink:href="d7/d8d/class_hydro_couple_1_1_spatial_1_1_i_geometry_component_data_item.html" target="_top" xlink:title="IGeometryComponentItem represents IGeometryCollection IComponentItem. This class must be implemented ...">
<polygon fill="none" stroke="black" points="907.114,-911.5 907.114,-946.17 1091.14,-946.17 1091.14,-911.5 907.114,-911.5"/>
<text text-anchor="start" x="915.114" y="-934.17" font-family="Monaco" font-size="10.00">HydroCouple::Spatial</text>
<text text-anchor="middle" x="999.127" y="-920.835" font-family="Monaco" font-size="10.00">::IGeometryComponentDataItem</text>
</a>
</g>
</g>
<!-- Node6&#45;&gt;Node14 -->
<g id="edge13" class="edge"><title>Node6&#45;&gt;Node14</title>
<path fill="none" stroke="midnightblue" d="M770.059,-788.918C792.448,-818.087 839.267,-873.46 892.111,-902.835 897.992,-906.104 904.28,-908.966 910.749,-911.471"/>
<polygon fill="midnightblue" stroke="midnightblue" points="772.729,-786.645 763.915,-780.765 767.138,-790.858 772.729,-786.645"/>
</g>
<!-- Node15 -->
<g id="node15" class="node"><title>Node15</title>
<g id="a_node15"><a xlink:href="d0/da8/class_hydro_couple_1_1_spatial_1_1_i_polyhedral_surface_component_data_item.html" target="_top" xlink:title="IPolyhedralSurfaceComponentItem represents IPolyhedralSurface IComponentItem. ">
<polygon fill="none" stroke="black" points="904.113,-844.833 904.113,-892.837 1094.14,-892.837 1094.14,-844.833 904.113,-844.833"/>
<text text-anchor="start" x="912.113" y="-880.837" font-family="Monaco" font-size="10.00">HydroCouple::Spatial</text>
<text text-anchor="start" x="912.113" y="-867.502" font-family="Monaco" font-size="10.00">::IPolyhedralSurfaceComponent</text>
<text text-anchor="middle" x="999.127" y="-854.167" font-family="Monaco" font-size="10.00">DataItem</text>
</a>
</g>
</g>
<!-- Node6&#45;&gt;Node15 -->
<g id="edge14" class="edge"><title>Node6&#45;&gt;Node15</title>
<path fill="none" stroke="midnightblue" d="M788.618,-784.871C816.02,-797.374 856.363,-815.392 892.111,-829.835 904.567,-834.867 917.947,-839.999 930.866,-844.816"/>
<polygon fill="midnightblue" stroke="midnightblue" points="790.043,-781.674 779.494,-780.694 787.129,-788.039 790.043,-781.674"/>
</g>
<!-- Node16 -->
<g id="node16" class="node"><title>Node16</title>
<g id="a_node16"><a xlink:href="d3/d6c/class_hydro_couple_1_1_spatial_1_1_i_t_i_n_component_data_item.html" target="_top" xlink:title="ITINComponentDataItem represents ITIN IComponentDataItem. ">
<polygon fill="none" stroke="black" points="1184.15,-835.5 1184.15,-870.17 1338.17,-870.17 1338.17,-835.5 1184.15,-835.5"/>
<text text-anchor="start" x="1192.15" y="-858.17" font-family="Monaco" font-size="10.00">HydroCouple::Spatial</text>
<text text-anchor="middle" x="1261.16" y="-844.835" font-family="Monaco" font-size="10.00">::ITINComponentDataItem</text>
</a>
</g>
</g>
<!-- Node6&#45;&gt;Node16 -->
<g id="edge19" class="edge"><title>Node6&#45;&gt;Node16</title>
<path fill="none" stroke="midnightblue" d="M816.84,-782.5C840.313,-787.234 867.42,-792.508 892.111,-796.835 992.699,-814.462 1109.32,-831.662 1183.87,-842.248"/>
<polygon fill="midnightblue" stroke="midnightblue" points="817.516,-779.066 807.02,-780.508 816.124,-785.926 817.516,-779.066"/>
</g>
<!-- Node17 -->
<g id="node17" class="node"><title>Node17</title>
<g id="a_node17"><a xlink:href="db/dc6/class_hydro_couple_1_1_spatial_1_1_i_raster_component_data_item.html" target="_top" xlink:title="An IRasterComponentDataItem represents an IRaster IComponentItem. ">
<polygon fill="none" stroke="black" points="913.115,-752.5 913.115,-787.17 1085.14,-787.17 1085.14,-752.5 913.115,-752.5"/>
<text text-anchor="start" x="921.115" y="-775.17" font-family="Monaco" font-size="10.00">HydroCouple::Spatial</text>
<text text-anchor="middle" x="999.127" y="-761.835" font-family="Monaco" font-size="10.00">::IRasterComponentDataItem</text>
</a>
</g>
</g>
<!-- Node6&#45;&gt;Node17 -->
<g id="edge16" class="edge"><title>Node6&#45;&gt;Node17</title>
<path fill="none" stroke="midnightblue" d="M866.508,-769.835C882.131,-769.835 897.992,-769.835 913.038,-769.835"/>
<polygon fill="midnightblue" stroke="midnightblue" points="866.287,-766.335 856.287,-769.835 866.287,-773.335 866.287,-766.335"/>
</g>
<!-- Node18 -->
<g id="node18" class="node"><title>Node18</title>
<g id="a_node18"><a xlink:href="d4/d5c/class_hydro_couple_1_1_spatial_1_1_i_regular_grid2_d_component_data_item.html" target="_top" xlink:title="An IRegularGrid2DComponentDataItem represents an IRegularGrid2D IComponentItem. ">
<polygon fill="none" stroke="black" points="892.111,-698.5 892.111,-733.17 1106.14,-733.17 1106.14,-698.5 892.111,-698.5"/>
<text text-anchor="start" x="900.111" y="-721.17" font-family="Monaco" font-size="10.00">HydroCouple::Spatial</text>
<text text-anchor="middle" x="999.127" y="-707.835" font-family="Monaco" font-size="10.00">::IRegularGrid2DComponentDataItem</text>
</a>
</g>
</g>
<!-- Node6&#45;&gt;Node18 -->
<g id="edge17" class="edge"><title>Node6&#45;&gt;Node18</title>
<path fill="none" stroke="midnightblue" d="M813.96,-756.925C845.836,-749.813 885.832,-740.889 920.4,-733.177"/>
<polygon fill="midnightblue" stroke="midnightblue" points="812.912,-753.573 803.914,-759.166 814.436,-760.405 812.912,-753.573"/>
</g>
<!-- Node19 -->
<g id="node19" class="node"><title>Node19</title>
<g id="a_node19"><a xlink:href="d6/d4f/class_hydro_couple_1_1_spatial_1_1_i_regular_grid3_d_component_data_item.html" target="_top" xlink:title="An IRegularGrid3DComponentItem represents an IRegularGrid3D IComponentItem. ">
<polygon fill="none" stroke="black" points="892.111,-644.5 892.111,-679.17 1106.14,-679.17 1106.14,-644.5 892.111,-644.5"/>
<text text-anchor="start" x="900.111" y="-667.17" font-family="Monaco" font-size="10.00">HydroCouple::Spatial</text>
<text text-anchor="middle" x="999.127" y="-653.835" font-family="Monaco" font-size="10.00">::IRegularGrid3DComponentDataItem</text>
</a>
</g>
</g>
<!-- Node6&#45;&gt;Node19 -->
<g id="edge18" class="edge"><title>Node6&#45;&gt;Node19</title>
<path fill="none" stroke="midnightblue" d="M779.326,-753.155C805.566,-735.008 850.1,-706.263 892.111,-688.835 900.708,-685.269 909.897,-682.079 919.138,-679.251"/>
<polygon fill="midnightblue" stroke="midnightblue" points="777.026,-750.492 770.842,-759.095 781.041,-756.226 777.026,-750.492"/>
</g>
<!-- Node20 -->
<g id="node20" class="node"><title>Node20</title>
<g id="a_node20"><a xlink:href="d9/d51/class_hydro_couple_1_1_spatial_1_1_i_vector_component_data_item.html" target="_top" xlink:title="HydroCouple::Spatial\l::IVectorComponentDataItem">
<polygon fill="none" stroke="black" points="913.115,-590.5 913.115,-625.17 1085.14,-625.17 1085.14,-590.5 913.115,-590.5"/>
<text text-anchor="start" x="921.115" y="-613.17" font-family="Monaco" font-size="10.00">HydroCouple::Spatial</text>
<text text-anchor="middle" x="999.127" y="-599.835" font-family="Monaco" font-size="10.00">::IVectorComponentDataItem</text>
</a>
</g>
</g>
<!-- Node6&#45;&gt;Node20 -->
<g id="edge20" class="edge"><title>Node6&#45;&gt;Node20</title>
<path fill="none" stroke="midnightblue" d="M769.693,-750.952C791.902,-721.533 838.859,-665.009 892.111,-634.835 898.639,-631.136 905.676,-627.937 912.91,-625.169"/>
<polygon fill="midnightblue" stroke="midnightblue" points="766.758,-749.035 763.616,-759.153 772.382,-753.203 766.758,-749.035"/>
</g>
<!-- Node21 -->
<g id="node21" class="node"><title>Node21</title>
<g id="a_node21"><a xlink:href="d9/d05/class_hydro_couple_1_1_temporal_1_1_i_time_component_data_item.html" target="_top" xlink:title="ITimeComponentItem is an IComponentItem with a temporal attribute. This class cannot be directly inst...">
<polygon fill="none" stroke="black" points="919.116,-536.5 919.116,-571.17 1079.14,-571.17 1079.14,-536.5 919.116,-536.5"/>
<text text-anchor="start" x="927.116" y="-559.17" font-family="Monaco" font-size="10.00">HydroCouple::Temporal</text>
<text text-anchor="middle" x="999.127" y="-545.835" font-family="Monaco" font-size="10.00">::ITimeComponentDataItem</text>
</a>
</g>
</g>
<!-- Node6&#45;&gt;Node21 -->
<g id="edge21" class="edge"><title>Node6&#45;&gt;Node21</title>
<path fill="none" stroke="midnightblue" d="M764.847,-749.533C782.751,-710.494 827.406,-624.93 892.111,-580.835 900.273,-575.273 909.493,-570.857 919.005,-567.35"/>
<polygon fill="midnightblue" stroke="midnightblue" points="761.581,-748.263 760.693,-758.821 767.971,-751.121 761.581,-748.263"/>
</g>
<!-- Node28 -->
<g id="node28" class="node"><title>Node28</title>
<g id="a_node28"><a xlink:href="d0/dd4/class_hydro_couple_1_1_temporal_1_1_i_time_id_based_component_data_item.html" target="_top" xlink:title="The ITimeIdBasedComponentDataItem class. ">
<polygon fill="none" stroke="black" points="1160.15,-401.5 1160.15,-436.17 1362.18,-436.17 1362.18,-401.5 1160.15,-401.5"/>
<text text-anchor="start" x="1168.15" y="-424.17" font-family="Monaco" font-size="10.00">HydroCouple::Temporal</text>
<text text-anchor="middle" x="1261.16" y="-410.835" font-family="Monaco" font-size="10.00">::ITimeIdBasedComponentDataItem</text>
</a>
</g>
</g>
<!-- Node6&#45;&gt;Node28 -->
<g id="edge30" class="edge"><title>Node6&#45;&gt;Node28</title>
<path fill="none" stroke="midnightblue" d="M761.116,-749.36C773.932,-701.751 812.607,-583.368 892.111,-526.835 970.848,-470.848 1022.53,-537.237 1106.14,-488.835 1127.71,-476.348 1120.89,-458.849 1142.14,-445.835 1148.15,-442.159 1154.6,-438.982 1161.29,-436.237"/>
<polygon fill="midnightblue" stroke="midnightblue" points="757.704,-748.577 758.585,-759.135 764.48,-750.331 757.704,-748.577"/>
</g>
<!-- Node9 -->
<g id="node9" class="node"><title>Node9</title>
<g id="a_node9"><a xlink:href="dd/dc3/class_hydro_couple_1_1_i_input.html" target="_top" xlink:title="An IInput item that can accept values for an IModelComponent. ">
<polygon fill="none" stroke="black" points="1196.15,-1039.17 1196.15,-1060.5 1326.17,-1060.5 1326.17,-1039.17 1196.15,-1039.17"/>
<text text-anchor="middle" x="1261.16" y="-1048.5" font-family="Monaco" font-size="10.00">HydroCouple::IInput</text>
</a>
</g>
</g>
<!-- Node8&#45;&gt;Node9 -->
<g id="edge8" class="edge"><title>Node8&#45;&gt;Node9</title>
<path fill="none" stroke="midnightblue" d="M1095.52,-1037.17C1128.93,-1039.74 1165.62,-1042.56 1195.87,-1044.89"/>
<polygon fill="midnightblue" stroke="midnightblue" points="1095.51,-1033.66 1085.27,-1036.38 1094.97,-1040.64 1095.51,-1033.66"/>
</g>
<!-- Node11 -->
<g id="node11" class="node"><title>Node11</title>
<g id="a_node11"><a xlink:href="da/dbd/class_hydro_couple_1_1_i_output.html" target="_top" xlink:title="An output exchange item that can deliver values from an IModelComponent. ">
<polygon fill="none" stroke="black" points="1193.15,-999.167 1193.15,-1020.5 1329.17,-1020.5 1329.17,-999.167 1193.15,-999.167"/>
<text text-anchor="middle" x="1261.16" y="-1008.5" font-family="Monaco" font-size="10.00">HydroCouple::IOutput</text>
</a>
</g>
</g>
<!-- Node8&#45;&gt;Node11 -->
<g id="edge10" class="edge"><title>Node8&#45;&gt;Node11</title>
<path fill="none" stroke="midnightblue" d="M1095.64,-1022.49C1127.95,-1020 1163.32,-1017.28 1192.96,-1015"/>
<polygon fill="midnightblue" stroke="midnightblue" points="1094.97,-1019.03 1085.27,-1023.29 1095.51,-1026.01 1094.97,-1019.03"/>
</g>
<!-- Node10 -->
<g id="node10" class="node"><title>Node10</title>
<g id="a_node10"><a xlink:href="d8/dfd/class_hydro_couple_1_1_i_multi_input.html" target="_top" xlink:title="The IMultiInput class is an IInput class that has multiple outputs supplying data to it...">
<polygon fill="none" stroke="black" points="1425.18,-1039.17 1425.18,-1060.5 1585.2,-1060.5 1585.2,-1039.17 1425.18,-1039.17"/>
<text text-anchor="middle" x="1505.19" y="-1048.5" font-family="Monaco" font-size="10.00">HydroCouple::IMultiInput</text>
</a>
</g>
</g>
<!-- Node9&#45;&gt;Node10 -->
<g id="edge9" class="edge"><title>Node9&#45;&gt;Node10</title>
<path fill="none" stroke="midnightblue" d="M1336.52,-1049.83C1364.54,-1049.83 1396.5,-1049.83 1424.95,-1049.83"/>
<polygon fill="midnightblue" stroke="midnightblue" points="1336.39,-1046.34 1326.39,-1049.83 1336.39,-1053.34 1336.39,-1046.34"/>
</g>
<!-- Node12 -->
<g id="node12" class="node"><title>Node12</title>
<g id="a_node12"><a xlink:href="d6/d04/class_hydro_couple_1_1_i_adapted_output.html" target="_top" xlink:title="An IAdaptedOutput adds one or more data operations on top of an IOutput. ">
<polygon fill="none" stroke="black" points="1416.18,-999.167 1416.18,-1020.5 1594.21,-1020.5 1594.21,-999.167 1416.18,-999.167"/>
<text text-anchor="middle" x="1505.19" y="-1008.5" font-family="Monaco" font-size="10.00">HydroCouple::IAdaptedOutput</text>
</a>
</g>
</g>
<!-- Node11&#45;&gt;Node12 -->
<g id="edge11" class="edge"><title>Node11&#45;&gt;Node12</title>
<path fill="none" stroke="midnightblue" d="M1339.53,-1009.83C1363.91,-1009.83 1391.02,-1009.83 1416.09,-1009.83"/>
<polygon fill="midnightblue" stroke="midnightblue" points="1339.26,-1006.34 1329.26,-1009.83 1339.26,-1013.34 1339.26,-1006.34"/>
</g>
<!-- Node15&#45;&gt;Node16 -->
<g id="edge15" class="edge"><title>Node15&#45;&gt;Node16</title>
<path fill="none" stroke="midnightblue" d="M1104.49,-862.413C1131.11,-860.775 1159.23,-859.045 1184.13,-857.513"/>
<polygon fill="midnightblue" stroke="midnightblue" points="1104.14,-858.928 1094.37,-863.036 1104.57,-865.915 1104.14,-858.928"/>
</g>
<!-- Node22 -->
<g id="node22" class="node"><title>Node22</title>
<g id="a_node22"><a xlink:href="db/dac/class_hydro_couple_1_1_spatio_temporal_1_1_i_time_geometry_component_data_item.html" target="_top" xlink:title="ITimeGeometryComponentItem represents an IComponentItem with both temporal and geometric components...">
<polygon fill="none" stroke="black" points="1157.15,-737.5 1157.15,-772.17 1365.18,-772.17 1365.18,-737.5 1157.15,-737.5"/>
<text text-anchor="start" x="1165.15" y="-760.17" font-family="Monaco" font-size="10.00">HydroCouple::SpatioTemporal</text>
<text text-anchor="middle" x="1261.16" y="-746.835" font-family="Monaco" font-size="10.00">::ITimeGeometryComponentDataItem</text>
</a>
</g>
</g>
<!-- Node21&#45;&gt;Node22 -->
<g id="edge22" class="edge"><title>Node21&#45;&gt;Node22</title>
<path fill="none" stroke="midnightblue" d="M1088.36,-567.837C1094.9,-571.315 1100.95,-575.59 1106.14,-580.835 1153.75,-628.96 1093.76,-681.491 1142.14,-728.835 1146.64,-733.237 1151.71,-736.964 1157.14,-740.115"/>
<polygon fill="midnightblue" stroke="midnightblue" points="1089.72,-564.611 1079.18,-563.571 1086.77,-570.959 1089.72,-564.611"/>
</g>
<!-- Node23 -->
<g id="node23" class="node"><title>Node23</title>
<g id="a_node23"><a xlink:href="d2/d80/class_hydro_couple_1_1_spatio_temporal_1_1_i_time_polyhedral_surface_component_data_item.html" target="_top" xlink:title="The ITimePolyhedralSurfaceComponentItem class. ">
<polygon fill="none" stroke="black" points="1154.15,-670.833 1154.15,-718.837 1368.18,-718.837 1368.18,-670.833 1154.15,-670.833"/>
<text text-anchor="start" x="1162.15" y="-706.837" font-family="Monaco" font-size="10.00">HydroCouple::SpatioTemporal</text>
<text text-anchor="start" x="1162.15" y="-693.502" font-family="Monaco" font-size="10.00">::ITimePolyhedralSurfaceComponent</text>
<text text-anchor="middle" x="1261.16" y="-680.167" font-family="Monaco" font-size="10.00">DataItem</text>
</a>
</g>
</g>
<!-- Node21&#45;&gt;Node23 -->
<g id="edge23" class="edge"><title>Node21&#45;&gt;Node23</title>
<path fill="none" stroke="midnightblue" d="M1088.72,-569.54C1094.97,-572.664 1100.88,-576.391 1106.14,-580.835 1136.25,-606.244 1112.33,-636.078 1142.14,-661.835 1145.93,-665.104 1150.01,-668.051 1154.31,-670.707"/>
<polygon fill="midnightblue" stroke="midnightblue" points="1089.9,-566.235 1079.34,-565.382 1087.07,-572.635 1089.9,-566.235"/>
</g>
<!-- Node25 -->
<g id="node25" class="node"><title>Node25</title>
<g id="a_node25"><a xlink:href="d6/d72/class_hydro_couple_1_1_spatio_temporal_1_1_i_time_raster_component_data_item.html" target="_top" xlink:title="The ITimeRasterComponentDataItem class. ">
<polygon fill="none" stroke="black" points="1163.15,-617.5 1163.15,-652.17 1359.18,-652.17 1359.18,-617.5 1163.15,-617.5"/>
<text text-anchor="start" x="1171.15" y="-640.17" font-family="Monaco" font-size="10.00">HydroCouple::SpatioTemporal</text>
<text text-anchor="middle" x="1261.16" y="-626.835" font-family="Monaco" font-size="10.00">::ITimeRasterComponentDataItem</text>
</a>
</g>
</g>
<!-- Node21&#45;&gt;Node25 -->
<g id="edge25" class="edge"><title>Node21&#45;&gt;Node25</title>
<path fill="none" stroke="midnightblue" d="M1088.73,-573.549C1094.72,-575.749 1100.58,-578.171 1106.14,-580.835 1124.18,-589.47 1124,-599.421 1142.14,-607.835 1150.06,-611.505 1158.51,-614.694 1167.11,-617.462"/>
<polygon fill="midnightblue" stroke="midnightblue" points="1089.83,-570.225 1079.23,-570.273 1087.54,-576.843 1089.83,-570.225"/>
</g>
<!-- Node26 -->
<g id="node26" class="node"><title>Node26</title>
<g id="a_node26"><a xlink:href="d6/da3/class_hydro_couple_1_1_spatio_temporal_1_1_i_time_regular_grid2_d_component_data_item.html" target="_top" xlink:title="The ITimeRegularGrid2DComponentItem class. ">
<polygon fill="none" stroke="black" points="1142.14,-563.5 1142.14,-598.17 1380.18,-598.17 1380.18,-563.5 1142.14,-563.5"/>
<text text-anchor="start" x="1150.14" y="-586.17" font-family="Monaco" font-size="10.00">HydroCouple::SpatioTemporal</text>
<text text-anchor="middle" x="1261.16" y="-572.835" font-family="Monaco" font-size="10.00">::ITimeRegularGrid2DComponentDataItem</text>
</a>
</g>
</g>
<!-- Node21&#45;&gt;Node26 -->
<g id="edge26" class="edge"><title>Node21&#45;&gt;Node26</title>
<path fill="none" stroke="midnightblue" d="M1089.53,-563.118C1106.34,-564.863 1124.15,-566.712 1141.68,-568.533"/>
<polygon fill="midnightblue" stroke="midnightblue" points="1089.51,-559.597 1079.21,-562.046 1088.79,-566.56 1089.51,-559.597"/>
</g>
<!-- Node27 -->
<g id="node27" class="node"><title>Node27</title>
<g id="a_node27"><a xlink:href="db/d99/class_hydro_couple_1_1_spatio_temporal_1_1_i_time_regular_grid3_d_component_data_item.html" target="_top" xlink:title="The ITimeRegularGrid3DComponentItem class. ">
<polygon fill="none" stroke="black" points="1142.14,-509.5 1142.14,-544.17 1380.18,-544.17 1380.18,-509.5 1142.14,-509.5"/>
<text text-anchor="start" x="1150.14" y="-532.17" font-family="Monaco" font-size="10.00">HydroCouple::SpatioTemporal</text>
<text text-anchor="middle" x="1261.16" y="-518.835" font-family="Monaco" font-size="10.00">::ITimeRegularGrid3DComponentDataItem</text>
</a>
</g>
</g>
<!-- Node21&#45;&gt;Node27 -->
<g id="edge27" class="edge"><title>Node21&#45;&gt;Node27</title>
<path fill="none" stroke="midnightblue" d="M1089.53,-544.552C1106.34,-542.807 1124.15,-540.958 1141.68,-539.137"/>
<polygon fill="midnightblue" stroke="midnightblue" points="1088.79,-541.11 1079.21,-545.624 1089.51,-548.073 1088.79,-541.11"/>
</g>
<!-- Node21&#45;&gt;Node28 -->
<g id="edge28" class="edge"><title>Node21&#45;&gt;Node28</title>
<path fill="none" stroke="midnightblue" d="M1088.68,-533.638C1094.94,-530.29 1100.86,-526.386 1106.14,-521.835 1134.47,-497.45 1113,-469.239 1142.14,-445.835 1147.63,-441.426 1153.71,-437.708 1160.12,-434.577"/>
<polygon fill="midnightblue" stroke="midnightblue" points="1086.78,-530.667 1079.29,-538.158 1089.81,-536.975 1086.78,-530.667"/>
</g>
<!-- Node29 -->
<g id="node29" class="node"><title>Node29</title>
<g id="a_node29"><a xlink:href="de/d0b/class_hydro_couple_1_1_temporal_1_1_i_time_series_component_data_item.html" target="_top" xlink:title="The ITimeSeriesComponentDataItem class. ">
<polygon fill="none" stroke="black" points="1163.15,-455.5 1163.15,-490.17 1359.18,-490.17 1359.18,-455.5 1163.15,-455.5"/>
<text text-anchor="start" x="1171.15" y="-478.17" font-family="Monaco" font-size="10.00">HydroCouple::Temporal</text>
<text text-anchor="middle" x="1261.16" y="-464.835" font-family="Monaco" font-size="10.00">::ITimeSeriesComponentDataItem</text>
</a>
</g>
</g>
<!-- Node21&#45;&gt;Node29 -->
<g id="edge29" class="edge"><title>Node21&#45;&gt;Node29</title>
<path fill="none" stroke="midnightblue" d="M1076.82,-533.244C1086.83,-529.815 1096.83,-526.001 1106.14,-521.835 1123.26,-514.174 1124.78,-506.907 1142.14,-499.835 1151.1,-496.188 1160.65,-492.98 1170.28,-490.171"/>
<polygon fill="midnightblue" stroke="midnightblue" points="1075.64,-529.948 1067.25,-536.411 1077.84,-536.594 1075.64,-529.948"/>
</g>
<!-- Node24 -->
<g id="node24" class="node"><title>Node24</title>
<g id="a_node24"><a xlink:href="d6/db3/class_hydro_couple_1_1_spatio_temporal_1_1_i_time_t_i_n_component_data_item.html" target="_top" xlink:title="The ITINComponentItem class. ">
<polygon fill="none" stroke="black" points="1416.18,-677.5 1416.18,-712.17 1594.21,-712.17 1594.21,-677.5 1416.18,-677.5"/>
<text text-anchor="start" x="1424.18" y="-700.17" font-family="Monaco" font-size="10.00">HydroCouple::SpatioTemporal</text>
<text text-anchor="middle" x="1505.19" y="-686.835" font-family="Monaco" font-size="10.00">::ITimeTINComponentDataItem</text>
</a>
</g>
</g>
<!-- Node23&#45;&gt;Node24 -->
<g id="edge24" class="edge"><title>Node23&#45;&gt;Node24</title>
<path fill="none" stroke="midnightblue" d="M1378.4,-694.835C1391.01,-694.835 1403.68,-694.835 1415.87,-694.835"/>
<polygon fill="midnightblue" stroke="midnightblue" points="1378.32,-691.335 1368.32,-694.835 1378.32,-698.335 1378.32,-691.335"/>
</g>
<!-- Node31 -->
<g id="node31" class="node"><title>Node31</title>
<g id="a_node31"><a xlink:href="dc/d06/class_hydro_couple_1_1_i_adapted_output_factory_component_info.html" target="_top" xlink:title="IAdaptedOutputFactoryComponentInfo interface class provides information about an IAdaptedOutputFactor...">
<polygon fill="none" stroke="black" points="910.114,-444.5 910.114,-479.17 1088.14,-479.17 1088.14,-444.5 910.114,-444.5"/>
<text text-anchor="start" x="918.114" y="-467.17" font-family="Monaco" font-size="10.00">HydroCouple::IAdaptedOutput</text>
<text text-anchor="middle" x="999.127" y="-453.835" font-family="Monaco" font-size="10.00">FactoryComponentInfo</text>
</a>
</g>
</g>
<!-- Node30&#45;&gt;Node31 -->
<g id="edge32" class="edge"><title>Node30&#45;&gt;Node31</title>
<path fill="none" stroke="midnightblue" d="M854.267,-457.674C872.616,-458.205 891.692,-458.757 909.724,-459.278"/>
<polygon fill="midnightblue" stroke="midnightblue" points="854.257,-454.173 844.16,-457.382 854.054,-461.17 854.257,-454.173"/>
</g>
<!-- Node32 -->
<g id="node32" class="node"><title>Node32</title>
<g id="a_node32"><a xlink:href="d6/d1e/class_hydro_couple_1_1_i_data_exchange_workflow_component_info.html" target="_top" xlink:title="The IDataExchangeWorkflowComponentInfo class. ">
<polygon fill="none" stroke="black" points="913.115,-390.5 913.115,-425.17 1085.14,-425.17 1085.14,-390.5 913.115,-390.5"/>
<text text-anchor="start" x="921.115" y="-413.17" font-family="Monaco" font-size="10.00">HydroCouple::IDataExchange</text>
<text text-anchor="middle" x="999.127" y="-399.835" font-family="Monaco" font-size="10.00">WorkflowComponentInfo</text>
</a>
</g>
</g>
<!-- Node30&#45;&gt;Node32 -->
<g id="edge33" class="edge"><title>Node30&#45;&gt;Node32</title>
<path fill="none" stroke="midnightblue" d="M821.425,-442.149C849.524,-436.692 882.746,-430.241 912.757,-424.413"/>
<polygon fill="midnightblue" stroke="midnightblue" points="820.469,-438.769 811.32,-444.111 821.804,-445.641 820.469,-438.769"/>
</g>
<!-- Node33 -->
<g id="node33" class="node"><title>Node33</title>
<g id="a_node33"><a xlink:href="dd/d4e/class_hydro_couple_1_1_i_model_component_info.html" target="_top" xlink:title="IModelComponentInfo interface inherits from the IComponentInfo interface which provides detailed meta...">
<polygon fill="none" stroke="black" points="895.112,-350.167 895.112,-371.502 1103.14,-371.502 1103.14,-350.167 895.112,-350.167"/>
<text text-anchor="middle" x="999.127" y="-359.502" font-family="Monaco" font-size="10.00">HydroCouple::IModelComponentInfo</text>
</a>
</g>
</g>
<!-- Node30&#45;&gt;Node33 -->
<g id="edge34" class="edge"><title>Node30&#45;&gt;Node33</title>
<path fill="none" stroke="midnightblue" d="M847.472,-439.901C850.462,-438.366 853.353,-436.682 856.111,-434.835 880.078,-418.785 868.057,-396.754 892.111,-380.835 897.734,-377.114 903.872,-374.043 910.269,-371.515"/>
<polygon fill="midnightblue" stroke="midnightblue" points="845.915,-436.764 838.244,-444.072 848.798,-443.143 845.915,-436.764"/>
</g>
<!-- Node37 -->
<g id="node37" class="node"><title>Node37</title>
<g id="a_node37"><a xlink:href="dd/d89/class_hydro_couple_1_1_i_cloneable_model_component.html" target="_top" xlink:title="The ICloneableModelComponent class. ">
<polygon fill="none" stroke="black" points="907.114,-296.5 907.114,-331.17 1091.14,-331.17 1091.14,-296.5 907.114,-296.5"/>
<text text-anchor="start" x="915.114" y="-319.17" font-family="Monaco" font-size="10.00">HydroCouple::ICloneableModel</text>
<text text-anchor="middle" x="999.127" y="-305.835" font-family="Monaco" font-size="10.00">Component</text>
</a>
</g>
</g>
<!-- Node36&#45;&gt;Node37 -->
<g id="edge38" class="edge"><title>Node36&#45;&gt;Node37</title>
<path fill="none" stroke="midnightblue" d="M857.428,-317.904C873.891,-317.428 890.854,-316.938 907.053,-316.469"/>
<polygon fill="midnightblue" stroke="midnightblue" points="857.148,-314.411 847.253,-318.199 857.35,-321.408 857.148,-314.411"/>
</g>
<!-- Node45 -->
<g id="node45" class="node"><title>Node45</title>
<g id="a_node45"><a xlink:href="d1/ddd/class_hydro_couple_1_1_i_quality.html" target="_top" xlink:title="Qualitative data described items in terms of some quality or categorization that may be &#39;informal&#39; or...">
<polygon fill="none" stroke="black" points="684.086,-54.1675 684.086,-75.5024 826.106,-75.5024 826.106,-54.1675 684.086,-54.1675"/>
<text text-anchor="middle" x="755.096" y="-63.5024" font-family="Monaco" font-size="10.00">HydroCouple::IQuality</text>
</a>
</g>
</g>
<!-- Node44&#45;&gt;Node45 -->
<g id="edge46" class="edge"><title>Node44&#45;&gt;Node45</title>
<path fill="none" stroke="midnightblue" d="M628.39,-64.835C647.21,-64.835 666.415,-64.835 683.966,-64.835"/>
<polygon fill="midnightblue" stroke="midnightblue" points="628.292,-61.3351 618.292,-64.835 628.292,-68.3351 628.292,-61.3351"/>
</g>
<!-- Node46 -->
<g id="node46" class="node"><title>Node46</title>
<g id="a_node46"><a xlink:href="dc/d3b/class_hydro_couple_1_1_i_quantity.html" target="_top" xlink:title="IQuantity specifies values as an amount of some unit, usually as a floating point number...">
<polygon fill="none" stroke="black" points="681.085,-14.1675 681.085,-35.5024 829.107,-35.5024 829.107,-14.1675 681.085,-14.1675"/>
<text text-anchor="middle" x="755.096" y="-23.5024" font-family="Monaco" font-size="10.00">HydroCouple::IQuantity</text>
</a>
</g>
</g>
<!-- Node44&#45;&gt;Node46 -->
<g id="edge47" class="edge"><title>Node44&#45;&gt;Node46</title>
<path fill="none" stroke="midnightblue" d="M595.622,-52.3922C626.73,-46.9827 662.812,-40.7084 692.682,-35.5144"/>
<polygon fill="midnightblue" stroke="midnightblue" points="594.963,-48.9542 585.711,-54.1157 596.162,-55.8507 594.963,-48.9542"/>
</g>
<!-- Node48 -->
<g id="node48" class="node"><title>Node48</title>
<g id="a_node48"><a xlink:href="d6/d12/class_hydro_couple_1_1_temporal_1_1_i_time_span.html" target="_top" xlink:title="ITimeSpan specifies a time duration. ">
<polygon fill="none" stroke="black" points="452.057,-0.5 452.057,-35.1699 594.077,-35.1699 594.077,-0.5 452.057,-0.5"/>
<text text-anchor="start" x="460.057" y="-23.1699" font-family="Monaco" font-size="10.00">HydroCouple::Temporal</text>
<text text-anchor="middle" x="523.067" y="-9.83496" font-family="Monaco" font-size="10.00">::ITimeSpan</text>
</a>
</g>
</g>
<!-- Node47&#45;&gt;Node48 -->
<g id="edge49" class="edge"><title>Node47&#45;&gt;Node48</title>
<path fill="none" stroke="midnightblue" d="M390.189,-30.2747C410.443,-28.3642 432.038,-26.3272 451.765,-24.4663"/>
<polygon fill="midnightblue" stroke="midnightblue" points="389.681,-26.8071 380.054,-31.2308 390.338,-33.7761 389.681,-26.8071"/>
</g>
</g>
</svg>
