<?xml version="1.0" encoding="UTF-8" standalone="no"?>
<!DOCTYPE svg PUBLIC "-//W3C//DTD SVG 1.1//EN"
 "http://www.w3.org/Graphics/SVG/1.1/DTD/svg11.dtd">
<!-- Generated by graphviz version 2.38.0 (20140413.2041)
 -->
<!-- Title: Graphical Class Hierarchy Pages: 1 -->
<svg width="1286pt" height="403pt"
 viewBox="0.00 0.00 1285.91 403.00" xmlns="http://www.w3.org/2000/svg" xmlns:xlink="http://www.w3.org/1999/xlink">
<g id="graph0" class="graph" transform="scale(1 1) rotate(0) translate(4 399)">
<title>Graphical Class Hierarchy</title>
<polygon fill="white" stroke="none" points="-4,4 -4,-399 1281.91,-399 1281.91,4 -4,4"/>
<!-- Node1 -->
<g id="node1" class="node"><title>Node1</title>
<g id="a_node1"><a xlink:href="class_hydro_couple_core_1_1_i_property_changed.html" target="_top" xlink:title="IPropertyChanged interface is used to emit signal/event when a property of an object changes...">
<polygon fill="white" stroke="black" points="0,-225.5 0,-253.5 142.167,-253.5 142.167,-225.5 0,-225.5"/>
<text text-anchor="start" x="8" y="-241.5" font-family="Helvetica,sans-Serif" font-size="10.00">HydroCoupleCore::IProperty</text>
<text text-anchor="middle" x="71.0835" y="-231.5" font-family="Helvetica,sans-Serif" font-size="10.00">Changed</text>
</a>
</g>
</g>
<!-- Node2 -->
<g id="node2" class="node"><title>Node2</title>
<g id="a_node2"><a xlink:href="class_hydro_couple_core_1_1_i_description.html" target="_top" xlink:title="IDescription interface class provides descriptive information on a HydroCouple object. ">
<polygon fill="white" stroke="black" points="178.167,-230.5 178.167,-248.5 332.561,-248.5 332.561,-230.5 178.167,-230.5"/>
<text text-anchor="middle" x="255.364" y="-236.5" font-family="Helvetica,sans-Serif" font-size="10.00">HydroCoupleCore::IDescription</text>
</a>
</g>
</g>
<!-- Node1&#45;&gt;Node2 -->
<g id="edge1" class="edge"><title>Node1&#45;&gt;Node2</title>
<path fill="none" stroke="midnightblue" d="M152.575,-239.5C161.069,-239.5 169.687,-239.5 178.131,-239.5"/>
<polygon fill="midnightblue" stroke="midnightblue" points="152.297,-236 142.297,-239.5 152.297,-243 152.297,-236"/>
</g>
<!-- Node3 -->
<g id="node3" class="node"><title>Node3</title>
<g id="a_node3"><a xlink:href="class_hydro_couple_core_1_1_data_1_1_i_category.html" target="_top" xlink:title="The ICategory describes one item of a possible categorization. It is used by the IQuality interface f...">
<polygon fill="white" stroke="black" points="375.509,-366.5 375.509,-394.5 498.228,-394.5 498.228,-366.5 375.509,-366.5"/>
<text text-anchor="start" x="383.509" y="-382.5" font-family="Helvetica,sans-Serif" font-size="10.00">HydroCoupleCore::Data</text>
<text text-anchor="middle" x="436.868" y="-372.5" font-family="Helvetica,sans-Serif" font-size="10.00">::ICategory</text>
</a>
</g>
</g>
<!-- Node2&#45;&gt;Node3 -->
<g id="edge2" class="edge"><title>Node2&#45;&gt;Node3</title>
<path fill="none" stroke="midnightblue" d="M268.582,-256.927C287.319,-282.443 325.531,-329.923 368.561,-357.5 373.863,-360.898 379.724,-363.855 385.711,-366.412"/>
<polygon fill="midnightblue" stroke="midnightblue" points="271.269,-254.669 262.587,-248.597 265.588,-258.758 271.269,-254.669"/>
</g>
<!-- Node4 -->
<g id="node4" class="node"><title>Node4</title>
<g id="a_node4"><a xlink:href="class_hydro_couple_core_1_1_data_1_1_i_dimension.html" target="_top" xlink:title="IDimension provides the properties of the dimensions of a vairable. ">
<polygon fill="white" stroke="black" points="375.509,-319.5 375.509,-347.5 498.228,-347.5 498.228,-319.5 375.509,-319.5"/>
<text text-anchor="start" x="383.509" y="-335.5" font-family="Helvetica,sans-Serif" font-size="10.00">HydroCoupleCore::Data</text>
<text text-anchor="middle" x="436.868" y="-325.5" font-family="Helvetica,sans-Serif" font-size="10.00">::IDimension</text>
</a>
</g>
</g>
<!-- Node2&#45;&gt;Node4 -->
<g id="edge3" class="edge"><title>Node2&#45;&gt;Node4</title>
<path fill="none" stroke="midnightblue" d="M276.772,-254.491C298.633,-270.042 334.758,-294.307 368.561,-310.5 375.354,-313.754 382.732,-316.764 390.029,-319.46"/>
<polygon fill="midnightblue" stroke="midnightblue" points="278.753,-251.604 268.592,-248.603 274.664,-257.286 278.753,-251.604"/>
</g>
<!-- Node5 -->
<g id="node5" class="node"><title>Node5</title>
<g id="a_node5"><a xlink:href="class_hydro_couple_core_1_1_data_1_1_i_unit.html" target="_top" xlink:title="IUnit interface, describing the physical unit of a IQuantity. ">
<polygon fill="white" stroke="black" points="375.509,-272.5 375.509,-300.5 498.228,-300.5 498.228,-272.5 375.509,-272.5"/>
<text text-anchor="start" x="383.509" y="-288.5" font-family="Helvetica,sans-Serif" font-size="10.00">HydroCoupleCore::Data</text>
<text text-anchor="middle" x="436.868" y="-278.5" font-family="Helvetica,sans-Serif" font-size="10.00">::IUnit</text>
</a>
</g>
</g>
<!-- Node2&#45;&gt;Node5 -->
<g id="edge4" class="edge"><title>Node2&#45;&gt;Node5</title>
<path fill="none" stroke="midnightblue" d="M300.785,-251.131C325.444,-257.587 356.294,-265.665 382.284,-272.47"/>
<polygon fill="midnightblue" stroke="midnightblue" points="301.534,-247.709 290.974,-248.562 299.761,-254.481 301.534,-247.709"/>
</g>
<!-- Node6 -->
<g id="node6" class="node"><title>Node6</title>
<g id="a_node6"><a xlink:href="class_hydro_couple_core_1_1_data_1_1_i_unit_dimensions.html" target="_top" xlink:title="Defines the order of dimension in each FundamentalDimension for a unit. ">
<polygon fill="white" stroke="black" points="375.509,-225.5 375.509,-253.5 498.228,-253.5 498.228,-225.5 375.509,-225.5"/>
<text text-anchor="start" x="383.509" y="-241.5" font-family="Helvetica,sans-Serif" font-size="10.00">HydroCoupleCore::Data</text>
<text text-anchor="middle" x="436.868" y="-231.5" font-family="Helvetica,sans-Serif" font-size="10.00">::IUnitDimensions</text>
</a>
</g>
</g>
<!-- Node2&#45;&gt;Node6 -->
<g id="edge5" class="edge"><title>Node2&#45;&gt;Node6</title>
<path fill="none" stroke="midnightblue" d="M342.804,-239.5C353.792,-239.5 364.846,-239.5 375.307,-239.5"/>
<polygon fill="midnightblue" stroke="midnightblue" points="342.75,-236 332.75,-239.5 342.75,-243 342.75,-236"/>
</g>
<!-- Node7 -->
<g id="node7" class="node"><title>Node7</title>
<g id="a_node7"><a xlink:href="class_hydro_couple_core_1_1_data_1_1_i_value_definition.html" target="_top" xlink:title="IValueDefinition describes a value returned by the getValues function of IValueSet. ">
<polygon fill="white" stroke="black" points="375.509,-178.5 375.509,-206.5 498.228,-206.5 498.228,-178.5 375.509,-178.5"/>
<text text-anchor="start" x="383.509" y="-194.5" font-family="Helvetica,sans-Serif" font-size="10.00">HydroCoupleCore::Data</text>
<text text-anchor="middle" x="436.868" y="-184.5" font-family="Helvetica,sans-Serif" font-size="10.00">::IValueDefinition</text>
</a>
</g>
</g>
<!-- Node2&#45;&gt;Node7 -->
<g id="edge6" class="edge"><title>Node2&#45;&gt;Node7</title>
<path fill="none" stroke="midnightblue" d="M300.785,-227.869C325.444,-221.413 356.294,-213.335 382.284,-206.53"/>
<polygon fill="midnightblue" stroke="midnightblue" points="299.761,-224.519 290.974,-230.438 301.534,-231.291 299.761,-224.519"/>
</g>
<!-- Node10 -->
<g id="node10" class="node"><title>Node10</title>
<g id="a_node10"><a xlink:href="class_hydro_couple_core_1_1_data_1_1_i_value_set.html" target="_top" xlink:title="IValueSet provides a multi&#45;dimensional data with its context. ">
<polygon fill="white" stroke="black" points="375.509,-131.5 375.509,-159.5 498.228,-159.5 498.228,-131.5 375.509,-131.5"/>
<text text-anchor="start" x="383.509" y="-147.5" font-family="Helvetica,sans-Serif" font-size="10.00">HydroCoupleCore::Data</text>
<text text-anchor="middle" x="436.868" y="-137.5" font-family="Helvetica,sans-Serif" font-size="10.00">::IValueSet</text>
</a>
</g>
</g>
<!-- Node2&#45;&gt;Node10 -->
<g id="edge9" class="edge"><title>Node2&#45;&gt;Node10</title>
<path fill="none" stroke="midnightblue" d="M277.205,-224.584C299.164,-209.334 335.131,-185.655 368.561,-169.5 376.044,-165.883 384.221,-162.516 392.216,-159.515"/>
<polygon fill="midnightblue" stroke="midnightblue" points="275.144,-221.755 268.97,-230.365 279.166,-227.484 275.144,-221.755"/>
</g>
<!-- Node11 -->
<g id="node11" class="node"><title>Node11</title>
<g id="a_node11"><a xlink:href="class_hydro_couple_core_1_1_i_identity.html" target="_top" xlink:title="IIdentity interface class defines a method to get the Id of an HydroCouple entity. &#160;IIdentity extends the IDescription interface class, and therefore has, next to the id, a caption and a description. ">
<polygon fill="white" stroke="black" points="368.561,-89.5 368.561,-107.5 505.176,-107.5 505.176,-89.5 368.561,-89.5"/>
<text text-anchor="middle" x="436.868" y="-95.5" font-family="Helvetica,sans-Serif" font-size="10.00">HydroCoupleCore::IIdentity</text>
</a>
</g>
</g>
<!-- Node2&#45;&gt;Node11 -->
<g id="edge10" class="edge"><title>Node2&#45;&gt;Node11</title>
<path fill="none" stroke="midnightblue" d="M268.943,-221.926C287.882,-196.637 326.056,-150.011 368.561,-122.5 378.35,-116.164 390.026,-111.245 400.882,-107.556"/>
<polygon fill="midnightblue" stroke="midnightblue" points="265.963,-220.07 262.864,-230.202 271.605,-224.215 265.963,-220.07"/>
</g>
<!-- Node8 -->
<g id="node8" class="node"><title>Node8</title>
<g id="a_node8"><a xlink:href="class_hydro_couple_core_1_1_data_1_1_i_quality.html" target="_top" xlink:title="Qualitative data described items in terms of some quality or categorization that may be &#39;informal&#39; or...">
<polygon fill="white" stroke="black" points="571.471,-225.5 571.471,-253.5 694.19,-253.5 694.19,-225.5 571.471,-225.5"/>
<text text-anchor="start" x="579.471" y="-241.5" font-family="Helvetica,sans-Serif" font-size="10.00">HydroCoupleCore::Data</text>
<text text-anchor="middle" x="632.831" y="-231.5" font-family="Helvetica,sans-Serif" font-size="10.00">::IQuality</text>
</a>
</g>
</g>
<!-- Node7&#45;&gt;Node8 -->
<g id="edge7" class="edge"><title>Node7&#45;&gt;Node8</title>
<path fill="none" stroke="midnightblue" d="M505.525,-208.894C527.807,-214.294 552.368,-220.245 573.862,-225.453"/>
<polygon fill="midnightblue" stroke="midnightblue" points="506.344,-205.491 495.801,-206.538 504.695,-212.295 506.344,-205.491"/>
</g>
<!-- Node9 -->
<g id="node9" class="node"><title>Node9</title>
<g id="a_node9"><a xlink:href="class_hydro_couple_core_1_1_data_1_1_i_quantity.html" target="_top" xlink:title="IQuantity specifies values as an amount of some unit, usually as a floating point number...">
<polygon fill="white" stroke="black" points="571.471,-178.5 571.471,-206.5 694.19,-206.5 694.19,-178.5 571.471,-178.5"/>
<text text-anchor="start" x="579.471" y="-194.5" font-family="Helvetica,sans-Serif" font-size="10.00">HydroCoupleCore::Data</text>
<text text-anchor="middle" x="632.831" y="-184.5" font-family="Helvetica,sans-Serif" font-size="10.00">::IQuantity</text>
</a>
</g>
</g>
<!-- Node7&#45;&gt;Node9 -->
<g id="edge8" class="edge"><title>Node7&#45;&gt;Node9</title>
<path fill="none" stroke="midnightblue" d="M508.699,-192.5C529.262,-192.5 551.52,-192.5 571.383,-192.5"/>
<polygon fill="midnightblue" stroke="midnightblue" points="508.441,-189 498.441,-192.5 508.441,-196 508.441,-189"/>
</g>
<!-- Node12 -->
<g id="node12" class="node"><title>Node12</title>
<g id="a_node12"><a xlink:href="class_hydro_couple_core_1_1_data_1_1_i_adapted_output_factory.html" target="_top" xlink:title="IAdaptedOutputFactory is used to create instances of IAdaptedProducerExchangeItems ...">
<polygon fill="white" stroke="black" points="570.355,-131.5 570.355,-159.5 695.306,-159.5 695.306,-131.5 570.355,-131.5"/>
<text text-anchor="start" x="578.355" y="-147.5" font-family="Helvetica,sans-Serif" font-size="10.00">HydroCoupleCore::Data</text>
<text text-anchor="middle" x="632.831" y="-137.5" font-family="Helvetica,sans-Serif" font-size="10.00">::IAdaptedOutputFactory</text>
</a>
</g>
</g>
<!-- Node11&#45;&gt;Node12 -->
<g id="edge11" class="edge"><title>Node11&#45;&gt;Node12</title>
<path fill="none" stroke="midnightblue" d="M485.158,-109.959C511.92,-116.444 545.598,-124.604 573.931,-131.47"/>
<polygon fill="midnightblue" stroke="midnightblue" points="485.809,-106.516 475.266,-107.562 484.161,-113.319 485.809,-106.516"/>
</g>
<!-- Node14 -->
<g id="node14" class="node"><title>Node14</title>
<g id="a_node14"><a xlink:href="class_hydro_couple_core_1_1_data_1_1_i_component_item.html" target="_top" xlink:title="IComponentItem is a fundamental unit of data for a component. ">
<polygon fill="white" stroke="black" points="571.471,-84.5 571.471,-112.5 694.19,-112.5 694.19,-84.5 571.471,-84.5"/>
<text text-anchor="start" x="579.471" y="-100.5" font-family="Helvetica,sans-Serif" font-size="10.00">HydroCoupleCore::Data</text>
<text text-anchor="middle" x="632.831" y="-90.5" font-family="Helvetica,sans-Serif" font-size="10.00">::IComponentItem</text>
</a>
</g>
</g>
<!-- Node11&#45;&gt;Node14 -->
<g id="edge13" class="edge"><title>Node11&#45;&gt;Node14</title>
<path fill="none" stroke="midnightblue" d="M515.616,-98.5C534.157,-98.5 553.674,-98.5 571.309,-98.5"/>
<polygon fill="midnightblue" stroke="midnightblue" points="515.435,-95.0001 505.435,-98.5 515.434,-102 515.435,-95.0001"/>
</g>
<!-- Node20 -->
<g id="node20" class="node"><title>Node20</title>
<g id="a_node20"><a xlink:href="class_hydro_couple_core_1_1_i_component_info.html" target="_top" xlink:title="IComponentInfo interface class provides detailed metadata about a component. ">
<polygon fill="white" stroke="black" points="546.454,-45.5 546.454,-63.5 719.207,-63.5 719.207,-45.5 546.454,-45.5"/>
<text text-anchor="middle" x="632.831" y="-51.5" font-family="Helvetica,sans-Serif" font-size="10.00">HydroCoupleCore::IComponentInfo</text>
</a>
</g>
</g>
<!-- Node11&#45;&gt;Node20 -->
<g id="edge19" class="edge"><title>Node11&#45;&gt;Node20</title>
<path fill="none" stroke="midnightblue" d="M487.738,-87.1872C520.081,-79.8502 561.658,-70.4185 591.832,-63.5737"/>
<polygon fill="midnightblue" stroke="midnightblue" points="486.565,-83.8641 477.587,-89.4898 488.114,-90.6907 486.565,-83.8641"/>
</g>
<!-- Node23 -->
<g id="node23" class="node"><title>Node23</title>
<g id="a_node23"><a xlink:href="class_hydro_couple_core_1_1_i_model_component.html" target="_top" xlink:title="IModelComponent interface is the core interface in the HydroCouple standard defining a model componen...">
<polygon fill="white" stroke="black" points="541.176,-8.5 541.176,-26.5 724.485,-26.5 724.485,-8.5 541.176,-8.5"/>
<text text-anchor="middle" x="632.831" y="-14.5" font-family="Helvetica,sans-Serif" font-size="10.00">HydroCoupleCore::IModelComponent</text>
</a>
</g>
</g>
<!-- Node11&#45;&gt;Node23 -->
<g id="edge22" class="edge"><title>Node11&#45;&gt;Node23</title>
<path fill="none" stroke="midnightblue" d="M457.836,-83.3631C477.865,-68.9169 510.116,-47.6116 541.176,-35.5 550.594,-31.8274 560.867,-28.8723 571.003,-26.5039"/>
<polygon fill="midnightblue" stroke="midnightblue" points="455.526,-80.7174 449.541,-89.4603 459.672,-86.3575 455.526,-80.7174"/>
</g>
<!-- Node13 -->
<g id="node13" class="node"><title>Node13</title>
<g id="a_node13"><a xlink:href="class_hydro_couple_core_1_1_data_1_1_i_adapted_output_factory_component.html" target="_top" xlink:title="IAdaptedOutputFactoryComponent is an IAdaptedOutputFactory generated from an IAdaptedOutputFactoryCom...">
<polygon fill="white" stroke="black" points="772.155,-178.5 772.155,-206.5 948.805,-206.5 948.805,-178.5 772.155,-178.5"/>
<text text-anchor="start" x="780.155" y="-194.5" font-family="Helvetica,sans-Serif" font-size="10.00">HydroCoupleCore::Data</text>
<text text-anchor="middle" x="860.48" y="-184.5" font-family="Helvetica,sans-Serif" font-size="10.00">::IAdaptedOutputFactoryComponent</text>
</a>
</g>
</g>
<!-- Node12&#45;&gt;Node13 -->
<g id="edge12" class="edge"><title>Node12&#45;&gt;Node13</title>
<path fill="none" stroke="midnightblue" d="M705.498,-160.428C733.174,-166.192 764.679,-172.754 791.95,-178.434"/>
<polygon fill="midnightblue" stroke="midnightblue" points="705.994,-156.956 695.49,-158.343 704.566,-163.809 705.994,-156.956"/>
</g>
<!-- Node15 -->
<g id="node15" class="node"><title>Node15</title>
<g id="a_node15"><a xlink:href="class_hydro_couple_core_1_1_data_1_1_i_argument.html" target="_top" xlink:title="IArgument interface class used to set the arguments for components. They can be complex or simple mul...">
<polygon fill="white" stroke="black" points="799.121,-131.5 799.121,-159.5 921.839,-159.5 921.839,-131.5 799.121,-131.5"/>
<text text-anchor="start" x="807.121" y="-147.5" font-family="Helvetica,sans-Serif" font-size="10.00">HydroCoupleCore::Data</text>
<text text-anchor="middle" x="860.48" y="-137.5" font-family="Helvetica,sans-Serif" font-size="10.00">::IArgument</text>
</a>
</g>
</g>
<!-- Node14&#45;&gt;Node15 -->
<g id="edge14" class="edge"><title>Node14&#45;&gt;Node15</title>
<path fill="none" stroke="midnightblue" d="M704.378,-113.194C734.678,-119.505 769.733,-126.807 798.843,-132.87"/>
<polygon fill="midnightblue" stroke="midnightblue" points="704.804,-109.708 694.3,-111.095 703.377,-116.561 704.804,-109.708"/>
</g>
<!-- Node16 -->
<g id="node16" class="node"><title>Node16</title>
<g id="a_node16"><a xlink:href="class_hydro_couple_core_1_1_data_1_1_i_exchange_item.html" target="_top" xlink:title="IExchangeItem the base data item the can be exchanged between components at runtime. ">
<polygon fill="white" stroke="black" points="799.121,-84.5 799.121,-112.5 921.839,-112.5 921.839,-84.5 799.121,-84.5"/>
<text text-anchor="start" x="807.121" y="-100.5" font-family="Helvetica,sans-Serif" font-size="10.00">HydroCoupleCore::Data</text>
<text text-anchor="middle" x="860.48" y="-90.5" font-family="Helvetica,sans-Serif" font-size="10.00">::IExchangeItem</text>
</a>
</g>
</g>
<!-- Node14&#45;&gt;Node16 -->
<g id="edge15" class="edge"><title>Node14&#45;&gt;Node16</title>
<path fill="none" stroke="midnightblue" d="M704.378,-98.5C734.678,-98.5 769.733,-98.5 798.843,-98.5"/>
<polygon fill="midnightblue" stroke="midnightblue" points="704.301,-95.0001 694.3,-98.5 704.3,-102 704.301,-95.0001"/>
</g>
<!-- Node17 -->
<g id="node17" class="node"><title>Node17</title>
<g id="a_node17"><a xlink:href="class_hydro_couple_core_1_1_data_1_1_i_input.html" target="_top" xlink:title="An IInput item that can accept values for an IModelComponent. ">
<polygon fill="white" stroke="black" points="996.475,-107.5 996.475,-135.5 1119.19,-135.5 1119.19,-107.5 996.475,-107.5"/>
<text text-anchor="start" x="1004.47" y="-123.5" font-family="Helvetica,sans-Serif" font-size="10.00">HydroCoupleCore::Data</text>
<text text-anchor="middle" x="1057.83" y="-113.5" font-family="Helvetica,sans-Serif" font-size="10.00">::IInput</text>
</a>
</g>
</g>
<!-- Node16&#45;&gt;Node17 -->
<g id="edge16" class="edge"><title>Node16&#45;&gt;Node17</title>
<path fill="none" stroke="midnightblue" d="M932.112,-106.816C953.142,-109.292 975.987,-111.981 996.31,-114.374"/>
<polygon fill="midnightblue" stroke="midnightblue" points="932.294,-103.313 921.953,-105.62 931.475,-110.265 932.294,-103.313"/>
</g>
<!-- Node18 -->
<g id="node18" class="node"><title>Node18</title>
<g id="a_node18"><a xlink:href="class_hydro_couple_core_1_1_data_1_1_i_output.html" target="_top" xlink:title="An output exchange item that can deliver values from an IModelComponent. ">
<polygon fill="white" stroke="black" points="996.475,-60.5 996.475,-88.5 1119.19,-88.5 1119.19,-60.5 996.475,-60.5"/>
<text text-anchor="start" x="1004.47" y="-76.5" font-family="Helvetica,sans-Serif" font-size="10.00">HydroCoupleCore::Data</text>
<text text-anchor="middle" x="1057.83" y="-66.5" font-family="Helvetica,sans-Serif" font-size="10.00">::IOutput</text>
</a>
</g>
</g>
<!-- Node16&#45;&gt;Node18 -->
<g id="edge17" class="edge"><title>Node16&#45;&gt;Node18</title>
<path fill="none" stroke="midnightblue" d="M932.112,-89.8226C953.142,-87.239 975.987,-84.4324 996.31,-81.9356"/>
<polygon fill="midnightblue" stroke="midnightblue" points="931.452,-86.3773 921.953,-91.0706 932.306,-93.325 931.452,-86.3773"/>
</g>
<!-- Node19 -->
<g id="node19" class="node"><title>Node19</title>
<g id="a_node19"><a xlink:href="class_hydro_couple_core_1_1_data_1_1_i_adapted_output.html" target="_top" xlink:title="An IAdaptedOutput adds one or more data operations on top of an IOutput. ">
<polygon fill="white" stroke="black" points="1155.19,-60.5 1155.19,-88.5 1277.91,-88.5 1277.91,-60.5 1155.19,-60.5"/>
<text text-anchor="start" x="1163.19" y="-76.5" font-family="Helvetica,sans-Serif" font-size="10.00">HydroCoupleCore::Data</text>
<text text-anchor="middle" x="1216.55" y="-66.5" font-family="Helvetica,sans-Serif" font-size="10.00">::IAdaptedOutput</text>
</a>
</g>
</g>
<!-- Node18&#45;&gt;Node19 -->
<g id="edge18" class="edge"><title>Node18&#45;&gt;Node19</title>
<path fill="none" stroke="midnightblue" d="M1129.7,-74.5C1138.19,-74.5 1146.8,-74.5 1155.12,-74.5"/>
<polygon fill="midnightblue" stroke="midnightblue" points="1129.43,-71.0001 1119.43,-74.5 1129.43,-78.0001 1129.43,-71.0001"/>
</g>
<!-- Node21 -->
<g id="node21" class="node"><title>Node21</title>
<g id="a_node21"><a xlink:href="class_hydro_couple_core_1_1_data_1_1_i_adapted_output_factory_component_info.html" target="_top" xlink:title="IAdaptedOutputFactoryComponentInfo interface class provides information about an IAdaptedOutputFactor...">
<polygon fill="white" stroke="black" points="763.815,-37.5 763.815,-65.5 957.145,-65.5 957.145,-37.5 763.815,-37.5"/>
<text text-anchor="start" x="771.815" y="-53.5" font-family="Helvetica,sans-Serif" font-size="10.00">HydroCoupleCore::Data</text>
<text text-anchor="middle" x="860.48" y="-43.5" font-family="Helvetica,sans-Serif" font-size="10.00">::IAdaptedOutputFactoryComponentInfo</text>
</a>
</g>
</g>
<!-- Node20&#45;&gt;Node21 -->
<g id="edge20" class="edge"><title>Node20&#45;&gt;Node21</title>
<path fill="none" stroke="midnightblue" d="M729.721,-53.2251C740.978,-53.0755 752.465,-52.9228 763.72,-52.7731"/>
<polygon fill="midnightblue" stroke="midnightblue" points="729.413,-49.7288 719.461,-53.3616 729.506,-56.7282 729.413,-49.7288"/>
</g>
<!-- Node22 -->
<g id="node22" class="node"><title>Node22</title>
<g id="a_node22"><a xlink:href="class_hydro_couple_core_1_1_i_model_component_info.html" target="_top" xlink:title="IModelComponentInfo interface inherits from the IComponentInfo interface which provides detailed meta...">
<polygon fill="white" stroke="black" points="760.485,-0.5 760.485,-18.5 960.475,-18.5 960.475,-0.5 760.485,-0.5"/>
<text text-anchor="middle" x="860.48" y="-6.5" font-family="Helvetica,sans-Serif" font-size="10.00">HydroCoupleCore::IModelComponentInfo</text>
</a>
</g>
</g>
<!-- Node20&#45;&gt;Node22 -->
<g id="edge21" class="edge"><title>Node20&#45;&gt;Node22</title>
<path fill="none" stroke="midnightblue" d="M687.647,-43.3326C699.77,-40.7858 712.574,-38.0717 724.485,-35.5 740.507,-32.0411 744.419,-30.7445 760.485,-27.5 775.81,-24.4052 792.519,-21.2743 807.772,-18.5107"/>
<polygon fill="midnightblue" stroke="midnightblue" points="686.727,-39.9492 677.658,-45.4258 688.163,-46.8004 686.727,-39.9492"/>
</g>
</g>
</svg>
