<?xml version="1.0" encoding="UTF-8" standalone="no"?>
<!DOCTYPE svg PUBLIC "-//W3C//DTD SVG 1.1//EN"
 "http://www.w3.org/Graphics/SVG/1.1/DTD/svg11.dtd">
<!-- Generated by graphviz version 2.38.0 (20140413.2041)
 -->
<!-- Title: Graphical Class Hierarchy Pages: 1 -->
<svg width="1602pt" height="1082pt"
 viewBox="0.00 0.00 1602.21 1081.67" xmlns="http://www.w3.org/2000/svg" xmlns:xlink="http://www.w3.org/1999/xlink">
<g id="graph0" class="graph" transform="scale(1 1) rotate(0) translate(4 1077.67)">
<title>Graphical Class Hierarchy</title>
<!-- Node1 -->
<g id="node1" class="node"><title>Node1</title>
<g id="a_node1"><a xlink:href="dd/dbf/class_hydro_couple_1_1_i_property_changed.html" target="_top" xlink:title="IPropertyChanged interface is used to emit signal/event when a property of an object changes...">
<polygon fill="none" stroke="black" points="0,-60.1675 0,-81.5024 190.028,-81.5024 190.028,-60.1675 0,-60.1675"/>
<text text-anchor="middle" x="95.0142" y="-69.5024" font-family="Monaco" font-size="10.00">HydroCouple::IPropertyChanged</text>
</a>
</g>
</g>
<!-- Node2 -->
<g id="node2" class="node"><title>Node2</title>
<g id="a_node2"><a xlink:href="db/d64/class_hydro_couple_1_1_i_description.html" target="_top" xlink:title="IDescription interface class provides descriptive information on a HydroCouple object. ">
<polygon fill="none" stroke="black" points="226.028,-94.1675 226.028,-115.502 392.053,-115.502 392.053,-94.1675 226.028,-94.1675"/>
<text text-anchor="middle" x="309.041" y="-103.502" font-family="Monaco" font-size="10.00">HydroCouple::IDescription</text>
</a>
</g>
</g>
<!-- Node1&#45;&gt;Node2 -->
<g id="edge1" class="edge"><title>Node1&#45;&gt;Node2</title>
<path fill="none" stroke="midnightblue" d="M172.936,-83.17C195.297,-86.7558 219.53,-90.6417 241.217,-94.1193"/>
<polygon fill="midnightblue" stroke="midnightblue" points="173.238,-79.6737 162.81,-81.5461 172.129,-86.5854 173.238,-79.6737"/>
</g>
<!-- Node45 -->
<g id="node45" class="node"><title>Node45</title>
<g id="a_node45"><a xlink:href="d6/dd7/class_hydro_couple_1_1_temporal_1_1_i_date_time.html" target="_top" xlink:title="IDateTime interface based on a Modified Julian Date5 (number and fraction of days since 00:00 Novembe...">
<polygon fill="none" stroke="black" points="238.03,-20.5 238.03,-55.1699 380.051,-55.1699 380.051,-20.5 238.03,-20.5"/>
<text text-anchor="start" x="246.03" y="-43.1699" font-family="Monaco" font-size="10.00">HydroCouple::Temporal</text>
<text text-anchor="middle" x="309.041" y="-29.835" font-family="Monaco" font-size="10.00">::IDateTime</text>
</a>
</g>
</g>
<!-- Node1&#45;&gt;Node45 -->
<g id="edge46" class="edge"><title>Node1&#45;&gt;Node45</title>
<path fill="none" stroke="midnightblue" d="M174.614,-58.6016C195.371,-55.3709 217.634,-51.9059 237.912,-48.7499"/>
<polygon fill="midnightblue" stroke="midnightblue" points="173.903,-55.17 164.56,-60.1664 174.98,-62.0868 173.903,-55.17"/>
</g>
<!-- Node3 -->
<g id="node3" class="node"><title>Node3</title>
<g id="a_node3"><a xlink:href="d2/d2a/class_hydro_couple_1_1_i_identity.html" target="_top" xlink:title="IIdentity interface class defines a method to get the Id of an HydroCouple entity. ">
<polygon fill="none" stroke="black" points="449.056,-286.167 449.056,-307.502 597.078,-307.502 597.078,-286.167 449.056,-286.167"/>
<text text-anchor="middle" x="523.067" y="-295.502" font-family="Monaco" font-size="10.00">HydroCouple::IIdentity</text>
</a>
</g>
</g>
<!-- Node2&#45;&gt;Node3 -->
<g id="edge2" class="edge"><title>Node2&#45;&gt;Node3</title>
<path fill="none" stroke="midnightblue" d="M329.632,-122.576C372.853,-161.714 475.302,-254.487 510.192,-286.081"/>
<polygon fill="midnightblue" stroke="midnightblue" points="331.809,-119.826 322.047,-115.708 327.111,-125.015 331.809,-119.826"/>
</g>
<!-- Node40 -->
<g id="node40" class="node"><title>Node40</title>
<g id="a_node40"><a xlink:href="d9/dcc/class_hydro_couple_1_1_i_unit.html" target="_top" xlink:title="IUnit interface, describing the physical unit of a IQuantity. ">
<polygon fill="none" stroke="black" points="461.058,-134.167 461.058,-155.502 585.076,-155.502 585.076,-134.167 461.058,-134.167"/>
<text text-anchor="middle" x="523.067" y="-143.502" font-family="Monaco" font-size="10.00">HydroCouple::IUnit</text>
</a>
</g>
</g>
<!-- Node2&#45;&gt;Node40 -->
<g id="edge41" class="edge"><title>Node2&#45;&gt;Node40</title>
<path fill="none" stroke="midnightblue" d="M376.741,-117.418C405.245,-122.796 438.165,-129.006 465.459,-134.156"/>
<polygon fill="midnightblue" stroke="midnightblue" points="377.335,-113.969 366.86,-115.554 376.037,-120.847 377.335,-113.969"/>
</g>
<!-- Node41 -->
<g id="node41" class="node"><title>Node41</title>
<g id="a_node41"><a xlink:href="dc/df4/class_hydro_couple_1_1_i_unit_dimensions.html" target="_top" xlink:title="Defines the order of dimension in each FundamentalDimension for a unit. ">
<polygon fill="none" stroke="black" points="431.053,-94.1675 431.053,-115.502 615.081,-115.502 615.081,-94.1675 431.053,-94.1675"/>
<text text-anchor="middle" x="523.067" y="-103.502" font-family="Monaco" font-size="10.00">HydroCouple::IUnitDimensions</text>
</a>
</g>
</g>
<!-- Node2&#45;&gt;Node41 -->
<g id="edge42" class="edge"><title>Node2&#45;&gt;Node41</title>
<path fill="none" stroke="midnightblue" d="M402.516,-104.835C411.98,-104.835 421.591,-104.835 431.039,-104.835"/>
<polygon fill="midnightblue" stroke="midnightblue" points="402.319,-101.335 392.319,-104.835 402.319,-108.335 402.319,-101.335"/>
</g>
<!-- Node42 -->
<g id="node42" class="node"><title>Node42</title>
<g id="a_node42"><a xlink:href="d9/d22/class_hydro_couple_1_1_i_value_definition.html" target="_top" xlink:title="IValueDefinition describes a value returned by the getValues() function of IValueSet. ">
<polygon fill="none" stroke="black" points="428.053,-54.1675 428.053,-75.5024 618.081,-75.5024 618.081,-54.1675 428.053,-54.1675"/>
<text text-anchor="middle" x="523.067" y="-63.5024" font-family="Monaco" font-size="10.00">HydroCouple::IValueDefinition</text>
</a>
</g>
</g>
<!-- Node2&#45;&gt;Node42 -->
<g id="edge43" class="edge"><title>Node2&#45;&gt;Node42</title>
<path fill="none" stroke="midnightblue" d="M376.741,-92.2515C405.245,-86.8742 438.165,-80.6635 465.459,-75.5144"/>
<polygon fill="midnightblue" stroke="midnightblue" points="376.037,-88.8224 366.86,-94.1157 377.335,-95.7011 376.037,-88.8224"/>
</g>
<!-- Node4 -->
<g id="node4" class="node"><title>Node4</title>
<g id="a_node4"><a xlink:href="da/d70/class_hydro_couple_1_1_i_adapted_output_factory.html" target="_top" xlink:title="IAdaptedOutputFactory is used to create instances of IAdaptedProducerExchangeItems. ">
<polygon fill="none" stroke="black" points="666.083,-888.5 666.083,-923.17 844.109,-923.17 844.109,-888.5 666.083,-888.5"/>
<text text-anchor="start" x="674.083" y="-911.17" font-family="Monaco" font-size="10.00">HydroCouple::IAdaptedOutput</text>
<text text-anchor="middle" x="755.096" y="-897.835" font-family="Monaco" font-size="10.00">Factory</text>
</a>
</g>
</g>
<!-- Node3&#45;&gt;Node4 -->
<g id="edge3" class="edge"><title>Node3&#45;&gt;Node4</title>
<path fill="none" stroke="midnightblue" d="M528.631,-317.815C542.817,-381.346 589.122,-576.609 654.081,-728.835 680.263,-790.191 722.3,-857.426 742.51,-888.417"/>
<polygon fill="midnightblue" stroke="midnightblue" points="532.001,-316.843 526.426,-307.833 525.165,-318.353 532.001,-316.843"/>
</g>
<!-- Node6 -->
<g id="node6" class="node"><title>Node6</title>
<g id="a_node6"><a xlink:href="d8/d52/class_hydro_couple_1_1_i_component_data_item.html" target="_top" xlink:title="IComponentItem is a fundamental unit of data for a component. ">
<polygon fill="none" stroke="black" points="654.081,-698.167 654.081,-719.502 856.111,-719.502 856.111,-698.167 654.081,-698.167"/>
<text text-anchor="middle" x="755.096" y="-707.502" font-family="Monaco" font-size="10.00">HydroCouple::IComponentDataItem</text>
</a>
</g>
</g>
<!-- Node3&#45;&gt;Node6 -->
<g id="edge5" class="edge"><title>Node3&#45;&gt;Node6</title>
<path fill="none" stroke="midnightblue" d="M535.325,-316.999C576.35,-390.478 717.053,-642.488 748.031,-697.972"/>
<polygon fill="midnightblue" stroke="midnightblue" points="538.151,-314.88 530.22,-307.855 532.039,-318.292 538.151,-314.88"/>
</g>
<!-- Node30 -->
<g id="node30" class="node"><title>Node30</title>
<g id="a_node30"><a xlink:href="d3/dd7/class_hydro_couple_1_1_i_component_info.html" target="_top" xlink:title="IComponentInfo interface class provides detailed metadata about a component. ">
<polygon fill="none" stroke="black" points="666.083,-390.167 666.083,-411.502 844.109,-411.502 844.109,-390.167 666.083,-390.167"/>
<text text-anchor="middle" x="755.096" y="-399.502" font-family="Monaco" font-size="10.00">HydroCouple::IComponentInfo</text>
</a>
</g>
</g>
<!-- Node3&#45;&gt;Node30 -->
<g id="edge31" class="edge"><title>Node3&#45;&gt;Node30</title>
<path fill="none" stroke="midnightblue" d="M545.082,-314.019C569.697,-333.254 612.427,-363.932 654.081,-380.835 663.27,-384.564 673.224,-387.618 683.169,-390.115"/>
<polygon fill="midnightblue" stroke="midnightblue" points="547.171,-311.209 537.162,-307.734 542.82,-316.692 547.171,-311.209"/>
</g>
<!-- Node33 -->
<g id="node33" class="node"><title>Node33</title>
<g id="a_node33"><a xlink:href="dd/dca/class_hydro_couple_1_1_i_dimension.html" target="_top" xlink:title="IDimension provides the properties of the dimensions of a vairable. ">
<polygon fill="none" stroke="black" points="678.085,-350.167 678.085,-371.502 832.107,-371.502 832.107,-350.167 678.085,-350.167"/>
<text text-anchor="middle" x="755.096" y="-359.502" font-family="Monaco" font-size="10.00">HydroCouple::IDimension</text>
</a>
</g>
</g>
<!-- Node3&#45;&gt;Node33 -->
<g id="edge34" class="edge"><title>Node3&#45;&gt;Node33</title>
<path fill="none" stroke="midnightblue" d="M561.88,-311.074C587.614,-320.406 622.585,-332.394 654.081,-340.835 666.909,-344.273 680.805,-347.413 694.042,-350.135"/>
<polygon fill="midnightblue" stroke="midnightblue" points="562.744,-307.663 552.151,-307.512 560.338,-314.237 562.744,-307.663"/>
</g>
<!-- Node34 -->
<g id="node34" class="node"><title>Node34</title>
<g id="a_node34"><a xlink:href="d3/dae/class_hydro_couple_1_1_i_model_component.html" target="_top" xlink:title="IModelComponent interface is the core interface in the HydroCouple standard defining a model componen...">
<polygon fill="none" stroke="black" points="663.083,-310.167 663.083,-331.502 847.11,-331.502 847.11,-310.167 663.083,-310.167"/>
<text text-anchor="middle" x="755.096" y="-319.502" font-family="Monaco" font-size="10.00">HydroCouple::IModelComponent</text>
</a>
</g>
</g>
<!-- Node3&#45;&gt;Node34 -->
<g id="edge35" class="edge"><title>Node3&#45;&gt;Node34</title>
<path fill="none" stroke="midnightblue" d="M607.115,-305.5C625.26,-307.393 644.558,-309.406 662.997,-311.33"/>
<polygon fill="midnightblue" stroke="midnightblue" points="607.475,-302.018 597.166,-304.462 606.748,-308.981 607.475,-302.018"/>
</g>
<!-- Node36 -->
<g id="node36" class="node"><title>Node36</title>
<g id="a_node36"><a xlink:href="d8/d5b/class_hydro_couple_1_1_spatial_1_1_i_raster.html" target="_top" xlink:title="A Raster spatial feature. ">
<polygon fill="none" stroke="black" points="687.086,-256.5 687.086,-291.17 823.106,-291.17 823.106,-256.5 687.086,-256.5"/>
<text text-anchor="start" x="695.086" y="-279.17" font-family="Monaco" font-size="10.00">HydroCouple::Spatial</text>
<text text-anchor="middle" x="755.096" y="-265.835" font-family="Monaco" font-size="10.00">::IRaster</text>
</a>
</g>
</g>
<!-- Node3&#45;&gt;Node36 -->
<g id="edge37" class="edge"><title>Node3&#45;&gt;Node36</title>
<path fill="none" stroke="midnightblue" d="M607.448,-288.498C633.617,-285.881 662.155,-283.028 687.044,-280.539"/>
<polygon fill="midnightblue" stroke="midnightblue" points="606.768,-285.048 597.166,-289.526 607.464,-292.014 606.768,-285.048"/>
</g>
<!-- Node37 -->
<g id="node37" class="node"><title>Node37</title>
<g id="a_node37"><a xlink:href="d1/da8/class_hydro_couple_1_1_spatial_1_1_i_raster_band.html" target="_top" xlink:title="IRasterBand is a single raster band for an IRaster. ">
<polygon fill="none" stroke="black" points="687.086,-202.5 687.086,-237.17 823.106,-237.17 823.106,-202.5 687.086,-202.5"/>
<text text-anchor="start" x="695.086" y="-225.17" font-family="Monaco" font-size="10.00">HydroCouple::Spatial</text>
<text text-anchor="middle" x="755.096" y="-211.835" font-family="Monaco" font-size="10.00">::IRasterBand</text>
</a>
</g>
</g>
<!-- Node3&#45;&gt;Node37 -->
<g id="edge38" class="edge"><title>Node3&#45;&gt;Node37</title>
<path fill="none" stroke="midnightblue" d="M559.098,-282.23C585.067,-271.681 621.463,-257.478 654.081,-246.835 664.596,-243.404 675.832,-240.063 686.834,-236.967"/>
<polygon fill="midnightblue" stroke="midnightblue" points="557.617,-279.054 549.686,-286.078 560.266,-285.533 557.617,-279.054"/>
</g>
<!-- Node38 -->
<g id="node38" class="node"><title>Node38</title>
<g id="a_node38"><a xlink:href="d0/d66/class_hydro_couple_1_1_spatial_1_1_i_regular_grid2_d.html" target="_top" xlink:title="The IRegularGrid2D class. ">
<polygon fill="none" stroke="black" points="687.086,-148.5 687.086,-183.17 823.106,-183.17 823.106,-148.5 687.086,-148.5"/>
<text text-anchor="start" x="695.086" y="-171.17" font-family="Monaco" font-size="10.00">HydroCouple::Spatial</text>
<text text-anchor="middle" x="755.096" y="-157.835" font-family="Monaco" font-size="10.00">::IRegularGrid2D</text>
</a>
</g>
</g>
<!-- Node3&#45;&gt;Node38 -->
<g id="edge39" class="edge"><title>Node3&#45;&gt;Node38</title>
<path fill="none" stroke="midnightblue" d="M541.612,-278.778C565.13,-255.585 609.145,-215.615 654.081,-192.835 664.348,-187.63 675.732,-183.341 687.034,-179.833"/>
<polygon fill="midnightblue" stroke="midnightblue" points="539.038,-276.401 534.45,-285.951 543.992,-281.347 539.038,-276.401"/>
</g>
<!-- Node39 -->
<g id="node39" class="node"><title>Node39</title>
<g id="a_node39"><a xlink:href="dd/d91/class_hydro_couple_1_1_spatial_1_1_i_regular_grid3_d.html" target="_top" xlink:title="The IRegularGrid3D class. ">
<polygon fill="none" stroke="black" points="687.086,-94.5 687.086,-129.17 823.106,-129.17 823.106,-94.5 687.086,-94.5"/>
<text text-anchor="start" x="695.086" y="-117.17" font-family="Monaco" font-size="10.00">HydroCouple::Spatial</text>
<text text-anchor="middle" x="755.096" y="-103.835" font-family="Monaco" font-size="10.00">::IRegularGrid3D</text>
</a>
</g>
</g>
<!-- Node3&#45;&gt;Node39 -->
<g id="edge40" class="edge"><title>Node3&#45;&gt;Node39</title>
<path fill="none" stroke="midnightblue" d="M534.711,-277.193C553.963,-243.572 597.842,-175.118 654.081,-138.835 664.056,-132.4 675.535,-127.488 687.08,-123.742"/>
<polygon fill="midnightblue" stroke="midnightblue" points="531.574,-275.632 529.742,-286.067 537.682,-279.052 531.574,-275.632"/>
</g>
<!-- Node5 -->
<g id="node5" class="node"><title>Node5</title>
<g id="a_node5"><a xlink:href="d1/df0/class_hydro_couple_1_1_i_adapted_output_factory_component.html" target="_top" xlink:title="IAdaptedOutputFactoryComponent is an IAdaptedOutputFactory generated from an IAdaptedOutputFactoryCom...">
<polygon fill="none" stroke="black" points="910.114,-1038.5 910.114,-1073.17 1088.14,-1073.17 1088.14,-1038.5 910.114,-1038.5"/>
<text text-anchor="start" x="918.114" y="-1061.17" font-family="Monaco" font-size="10.00">HydroCouple::IAdaptedOutput</text>
<text text-anchor="middle" x="999.127" y="-1047.83" font-family="Monaco" font-size="10.00">FactoryComponent</text>
</a>
</g>
</g>
<!-- Node4&#45;&gt;Node5 -->
<g id="edge4" class="edge"><title>Node4&#45;&gt;Node5</title>
<path fill="none" stroke="midnightblue" d="M777.191,-931.208C801.882,-959.255 845.38,-1003.77 892.111,-1028.83 898.974,-1032.52 906.357,-1035.71 913.919,-1038.48"/>
<polygon fill="midnightblue" stroke="midnightblue" points="779.636,-928.686 770.443,-923.418 774.345,-933.269 779.636,-928.686"/>
</g>
<!-- Node7 -->
<g id="node7" class="node"><title>Node7</title>
<g id="a_node7"><a xlink:href="dd/d96/class_hydro_couple_1_1_i_argument.html" target="_top" xlink:title="IArgument interface class used to set the arguments for components. They can be complex or simple mul...">
<polygon fill="none" stroke="black" points="925.117,-998.167 925.117,-1019.5 1073.14,-1019.5 1073.14,-998.167 925.117,-998.167"/>
<text text-anchor="middle" x="999.127" y="-1007.5" font-family="Monaco" font-size="10.00">HydroCouple::IArgument</text>
</a>
</g>
</g>
<!-- Node6&#45;&gt;Node7 -->
<g id="edge6" class="edge"><title>Node6&#45;&gt;Node7</title>
<path fill="none" stroke="midnightblue" d="M769.239,-728.001C789.875,-758.732 830.192,-821.418 856.111,-878.835 877.276,-925.72 853.455,-954.897 892.111,-988.835 901.401,-996.991 912.948,-1002.27 924.969,-1005.62"/>
<polygon fill="midnightblue" stroke="midnightblue" points="772.009,-725.849 763.504,-719.531 766.212,-729.774 772.009,-725.849"/>
</g>
<!-- Node8 -->
<g id="node8" class="node"><title>Node8</title>
<g id="a_node8"><a xlink:href="d1/dd3/class_hydro_couple_1_1_i_exchange_item.html" target="_top" xlink:title="IExchangeItem the base data item the can be exchanged between components at runtime. ">
<polygon fill="none" stroke="black" points="913.115,-958.167 913.115,-979.502 1085.14,-979.502 1085.14,-958.167 913.115,-958.167"/>
<text text-anchor="middle" x="999.127" y="-967.502" font-family="Monaco" font-size="10.00">HydroCouple::IExchangeItem</text>
</a>
</g>
</g>
<!-- Node6&#45;&gt;Node8 -->
<g id="edge7" class="edge"><title>Node6&#45;&gt;Node8</title>
<path fill="none" stroke="midnightblue" d="M768.177,-728.532C787.359,-759.99 825.722,-823.654 856.111,-878.835 872.988,-909.479 864.074,-927.911 892.111,-948.835 898.416,-953.54 905.505,-957.24 912.952,-960.137"/>
<polygon fill="midnightblue" stroke="midnightblue" points="771.071,-726.555 762.87,-719.848 765.098,-730.206 771.071,-726.555"/>
</g>
<!-- Node13 -->
<g id="node13" class="node"><title>Node13</title>
<g id="a_node13"><a xlink:href="dd/d21/class_hydro_couple_1_1_i_id_based_component_data_item.html" target="_top" xlink:title="The IIdBasedComponentItem class is an idbased IComponentItem. ">
<polygon fill="none" stroke="black" points="901.113,-904.5 901.113,-939.17 1097.14,-939.17 1097.14,-904.5 901.113,-904.5"/>
<text text-anchor="start" x="909.113" y="-927.17" font-family="Monaco" font-size="10.00">HydroCouple::IIdBasedComponent</text>
<text text-anchor="middle" x="999.127" y="-913.835" font-family="Monaco" font-size="10.00">DataItem</text>
</a>
</g>
</g>
<!-- Node6&#45;&gt;Node13 -->
<g id="edge12" class="edge"><title>Node6&#45;&gt;Node13</title>
<path fill="none" stroke="midnightblue" d="M764.938,-728.816C782.999,-767.236 827.915,-851.443 892.111,-894.835 897.54,-898.504 903.431,-901.675 909.561,-904.415"/>
<polygon fill="midnightblue" stroke="midnightblue" points="768.095,-727.304 760.744,-719.674 761.733,-730.223 768.095,-727.304"/>
</g>
<!-- Node14 -->
<g id="node14" class="node"><title>Node14</title>
<g id="a_node14"><a xlink:href="d7/d8d/class_hydro_couple_1_1_spatial_1_1_i_geometry_component_data_item.html" target="_top" xlink:title="IGeometryComponentItem represents IGeometryCollection IComponentItem. This class must be implemented ...">
<polygon fill="none" stroke="black" points="907.114,-850.5 907.114,-885.17 1091.14,-885.17 1091.14,-850.5 907.114,-850.5"/>
<text text-anchor="start" x="915.114" y="-873.17" font-family="Monaco" font-size="10.00">HydroCouple::Spatial</text>
<text text-anchor="middle" x="999.127" y="-859.835" font-family="Monaco" font-size="10.00">::IGeometryComponentDataItem</text>
</a>
</g>
</g>
<!-- Node6&#45;&gt;Node14 -->
<g id="edge13" class="edge"><title>Node6&#45;&gt;Node14</title>
<path fill="none" stroke="midnightblue" d="M770.059,-727.918C792.448,-757.087 839.267,-812.46 892.111,-841.835 897.992,-845.104 904.28,-847.966 910.749,-850.471"/>
<polygon fill="midnightblue" stroke="midnightblue" points="772.729,-725.645 763.915,-719.765 767.138,-729.858 772.729,-725.645"/>
</g>
<!-- Node15 -->
<g id="node15" class="node"><title>Node15</title>
<g id="a_node15"><a xlink:href="d0/da8/class_hydro_couple_1_1_spatial_1_1_i_polyhedral_surface_component_data_item.html" target="_top" xlink:title="IPolyhedralSurfaceComponentItem represents IPolyhedralSurface IComponentItem. ">
<polygon fill="none" stroke="black" points="904.113,-783.833 904.113,-831.837 1094.14,-831.837 1094.14,-783.833 904.113,-783.833"/>
<text text-anchor="start" x="912.113" y="-819.837" font-family="Monaco" font-size="10.00">HydroCouple::Spatial</text>
<text text-anchor="start" x="912.113" y="-806.502" font-family="Monaco" font-size="10.00">::IPolyhedralSurfaceComponent</text>
<text text-anchor="middle" x="999.127" y="-793.167" font-family="Monaco" font-size="10.00">DataItem</text>
</a>
</g>
</g>
<!-- Node6&#45;&gt;Node15 -->
<g id="edge14" class="edge"><title>Node6&#45;&gt;Node15</title>
<path fill="none" stroke="midnightblue" d="M788.618,-723.871C816.02,-736.374 856.363,-754.392 892.111,-768.835 904.567,-773.867 917.947,-778.999 930.866,-783.816"/>
<polygon fill="midnightblue" stroke="midnightblue" points="790.043,-720.674 779.494,-719.694 787.129,-727.039 790.043,-720.674"/>
</g>
<!-- Node16 -->
<g id="node16" class="node"><title>Node16</title>
<g id="a_node16"><a xlink:href="d3/d6c/class_hydro_couple_1_1_spatial_1_1_i_t_i_n_component_data_item.html" target="_top" xlink:title="ITINComponentDataItem represents ITIN IComponentDataItem. ">
<polygon fill="none" stroke="black" points="1184.15,-774.5 1184.15,-809.17 1338.17,-809.17 1338.17,-774.5 1184.15,-774.5"/>
<text text-anchor="start" x="1192.15" y="-797.17" font-family="Monaco" font-size="10.00">HydroCouple::Spatial</text>
<text text-anchor="middle" x="1261.16" y="-783.835" font-family="Monaco" font-size="10.00">::ITINComponentDataItem</text>
</a>
</g>
</g>
<!-- Node6&#45;&gt;Node16 -->
<g id="edge19" class="edge"><title>Node6&#45;&gt;Node16</title>
<path fill="none" stroke="midnightblue" d="M816.84,-721.5C840.313,-726.234 867.42,-731.508 892.111,-735.835 992.699,-753.462 1109.32,-770.662 1183.87,-781.248"/>
<polygon fill="midnightblue" stroke="midnightblue" points="817.516,-718.066 807.02,-719.508 816.124,-724.926 817.516,-718.066"/>
</g>
<!-- Node17 -->
<g id="node17" class="node"><title>Node17</title>
<g id="a_node17"><a xlink:href="db/dc6/class_hydro_couple_1_1_spatial_1_1_i_raster_component_data_item.html" target="_top" xlink:title="An IRasterComponentDataItem represents an IRaster IComponentItem. ">
<polygon fill="none" stroke="black" points="913.115,-691.5 913.115,-726.17 1085.14,-726.17 1085.14,-691.5 913.115,-691.5"/>
<text text-anchor="start" x="921.115" y="-714.17" font-family="Monaco" font-size="10.00">HydroCouple::Spatial</text>
<text text-anchor="middle" x="999.127" y="-700.835" font-family="Monaco" font-size="10.00">::IRasterComponentDataItem</text>
</a>
</g>
</g>
<!-- Node6&#45;&gt;Node17 -->
<g id="edge16" class="edge"><title>Node6&#45;&gt;Node17</title>
<path fill="none" stroke="midnightblue" d="M866.508,-708.835C882.131,-708.835 897.992,-708.835 913.038,-708.835"/>
<polygon fill="midnightblue" stroke="midnightblue" points="866.287,-705.335 856.287,-708.835 866.287,-712.335 866.287,-705.335"/>
</g>
<!-- Node18 -->
<g id="node18" class="node"><title>Node18</title>
<g id="a_node18"><a xlink:href="d4/d5c/class_hydro_couple_1_1_spatial_1_1_i_regular_grid2_d_component_data_item.html" target="_top" xlink:title="An IRegularGrid2DComponentDataItem represents an IRegularGrid2D IComponentItem. ">
<polygon fill="none" stroke="black" points="892.111,-637.5 892.111,-672.17 1106.14,-672.17 1106.14,-637.5 892.111,-637.5"/>
<text text-anchor="start" x="900.111" y="-660.17" font-family="Monaco" font-size="10.00">HydroCouple::Spatial</text>
<text text-anchor="middle" x="999.127" y="-646.835" font-family="Monaco" font-size="10.00">::IRegularGrid2DComponentDataItem</text>
</a>
</g>
</g>
<!-- Node6&#45;&gt;Node18 -->
<g id="edge17" class="edge"><title>Node6&#45;&gt;Node18</title>
<path fill="none" stroke="midnightblue" d="M813.96,-695.925C845.836,-688.813 885.832,-679.889 920.4,-672.177"/>
<polygon fill="midnightblue" stroke="midnightblue" points="812.912,-692.573 803.914,-698.166 814.436,-699.405 812.912,-692.573"/>
</g>
<!-- Node19 -->
<g id="node19" class="node"><title>Node19</title>
<g id="a_node19"><a xlink:href="d6/d4f/class_hydro_couple_1_1_spatial_1_1_i_regular_grid3_d_component_data_item.html" target="_top" xlink:title="An IRegularGrid3DComponentItem represents an IRegularGrid3D IComponentItem. ">
<polygon fill="none" stroke="black" points="892.111,-583.5 892.111,-618.17 1106.14,-618.17 1106.14,-583.5 892.111,-583.5"/>
<text text-anchor="start" x="900.111" y="-606.17" font-family="Monaco" font-size="10.00">HydroCouple::Spatial</text>
<text text-anchor="middle" x="999.127" y="-592.835" font-family="Monaco" font-size="10.00">::IRegularGrid3DComponentDataItem</text>
</a>
</g>
</g>
<!-- Node6&#45;&gt;Node19 -->
<g id="edge18" class="edge"><title>Node6&#45;&gt;Node19</title>
<path fill="none" stroke="midnightblue" d="M779.326,-692.155C805.566,-674.008 850.1,-645.263 892.111,-627.835 900.708,-624.269 909.897,-621.079 919.138,-618.251"/>
<polygon fill="midnightblue" stroke="midnightblue" points="777.026,-689.492 770.842,-698.095 781.041,-695.226 777.026,-689.492"/>
</g>
<!-- Node20 -->
<g id="node20" class="node"><title>Node20</title>
<g id="a_node20"><a xlink:href="d9/d51/class_hydro_couple_1_1_spatial_1_1_i_vector_component_data_item.html" target="_top" xlink:title="HydroCouple::Spatial\l::IVectorComponentDataItem">
<polygon fill="none" stroke="black" points="913.115,-529.5 913.115,-564.17 1085.14,-564.17 1085.14,-529.5 913.115,-529.5"/>
<text text-anchor="start" x="921.115" y="-552.17" font-family="Monaco" font-size="10.00">HydroCouple::Spatial</text>
<text text-anchor="middle" x="999.127" y="-538.835" font-family="Monaco" font-size="10.00">::IVectorComponentDataItem</text>
</a>
</g>
</g>
<!-- Node6&#45;&gt;Node20 -->
<g id="edge20" class="edge"><title>Node6&#45;&gt;Node20</title>
<path fill="none" stroke="midnightblue" d="M769.693,-689.952C791.902,-660.533 838.859,-604.009 892.111,-573.835 898.639,-570.136 905.676,-566.937 912.91,-564.169"/>
<polygon fill="midnightblue" stroke="midnightblue" points="766.758,-688.035 763.616,-698.153 772.382,-692.203 766.758,-688.035"/>
</g>
<!-- Node21 -->
<g id="node21" class="node"><title>Node21</title>
<g id="a_node21"><a xlink:href="d9/d05/class_hydro_couple_1_1_temporal_1_1_i_time_component_data_item.html" target="_top" xlink:title="ITimeComponentItem is an IComponentItem with a temporal attribute. This class cannot be directly inst...">
<polygon fill="none" stroke="black" points="919.116,-475.5 919.116,-510.17 1079.14,-510.17 1079.14,-475.5 919.116,-475.5"/>
<text text-anchor="start" x="927.116" y="-498.17" font-family="Monaco" font-size="10.00">HydroCouple::Temporal</text>
<text text-anchor="middle" x="999.127" y="-484.835" font-family="Monaco" font-size="10.00">::ITimeComponentDataItem</text>
</a>
</g>
</g>
<!-- Node6&#45;&gt;Node21 -->
<g id="edge21" class="edge"><title>Node6&#45;&gt;Node21</title>
<path fill="none" stroke="midnightblue" d="M764.847,-688.533C782.751,-649.494 827.406,-563.93 892.111,-519.835 900.273,-514.273 909.493,-509.857 919.005,-506.35"/>
<polygon fill="midnightblue" stroke="midnightblue" points="761.581,-687.263 760.693,-697.821 767.971,-690.121 761.581,-687.263"/>
</g>
<!-- Node28 -->
<g id="node28" class="node"><title>Node28</title>
<g id="a_node28"><a xlink:href="d0/dd4/class_hydro_couple_1_1_temporal_1_1_i_time_id_based_component_data_item.html" target="_top" xlink:title="The ITimeIdBasedComponentDataItem class. ">
<polygon fill="none" stroke="black" points="1160.15,-340.5 1160.15,-375.17 1362.18,-375.17 1362.18,-340.5 1160.15,-340.5"/>
<text text-anchor="start" x="1168.15" y="-363.17" font-family="Monaco" font-size="10.00">HydroCouple::Temporal</text>
<text text-anchor="middle" x="1261.16" y="-349.835" font-family="Monaco" font-size="10.00">::ITimeIdBasedComponentDataItem</text>
</a>
</g>
</g>
<!-- Node6&#45;&gt;Node28 -->
<g id="edge30" class="edge"><title>Node6&#45;&gt;Node28</title>
<path fill="none" stroke="midnightblue" d="M761.116,-688.36C773.932,-640.751 812.607,-522.368 892.111,-465.835 970.848,-409.848 1022.53,-476.237 1106.14,-427.835 1127.71,-415.348 1120.89,-397.849 1142.14,-384.835 1148.15,-381.159 1154.6,-377.982 1161.29,-375.237"/>
<polygon fill="midnightblue" stroke="midnightblue" points="757.704,-687.577 758.585,-698.135 764.48,-689.331 757.704,-687.577"/>
</g>
<!-- Node9 -->
<g id="node9" class="node"><title>Node9</title>
<g id="a_node9"><a xlink:href="dd/dc3/class_hydro_couple_1_1_i_input.html" target="_top" xlink:title="An IInput item that can accept values for an IModelComponent. ">
<polygon fill="none" stroke="black" points="1196.15,-978.167 1196.15,-999.502 1326.17,-999.502 1326.17,-978.167 1196.15,-978.167"/>
<text text-anchor="middle" x="1261.16" y="-987.502" font-family="Monaco" font-size="10.00">HydroCouple::IInput</text>
</a>
</g>
</g>
<!-- Node8&#45;&gt;Node9 -->
<g id="edge8" class="edge"><title>Node8&#45;&gt;Node9</title>
<path fill="none" stroke="midnightblue" d="M1095.52,-976.172C1128.93,-978.741 1165.62,-981.563 1195.87,-983.89"/>
<polygon fill="midnightblue" stroke="midnightblue" points="1095.51,-972.661 1085.27,-975.384 1094.97,-979.64 1095.51,-972.661"/>
</g>
<!-- Node11 -->
<g id="node11" class="node"><title>Node11</title>
<g id="a_node11"><a xlink:href="da/dbd/class_hydro_couple_1_1_i_output.html" target="_top" xlink:title="An output exchange item that can deliver values from an IModelComponent. ">
<polygon fill="none" stroke="black" points="1193.15,-938.167 1193.15,-959.502 1329.17,-959.502 1329.17,-938.167 1193.15,-938.167"/>
<text text-anchor="middle" x="1261.16" y="-947.502" font-family="Monaco" font-size="10.00">HydroCouple::IOutput</text>
</a>
</g>
</g>
<!-- Node8&#45;&gt;Node11 -->
<g id="edge10" class="edge"><title>Node8&#45;&gt;Node11</title>
<path fill="none" stroke="midnightblue" d="M1095.64,-961.489C1127.95,-959.004 1163.32,-956.283 1192.96,-954.003"/>
<polygon fill="midnightblue" stroke="midnightblue" points="1094.97,-958.03 1085.27,-962.286 1095.51,-965.009 1094.97,-958.03"/>
</g>
<!-- Node10 -->
<g id="node10" class="node"><title>Node10</title>
<g id="a_node10"><a xlink:href="d8/dfd/class_hydro_couple_1_1_i_multi_input.html" target="_top" xlink:title="The IMultiInput class is an IInput class that has multiple outputs supplying data to it...">
<polygon fill="none" stroke="black" points="1425.18,-978.167 1425.18,-999.502 1585.2,-999.502 1585.2,-978.167 1425.18,-978.167"/>
<text text-anchor="middle" x="1505.19" y="-987.502" font-family="Monaco" font-size="10.00">HydroCouple::IMultiInput</text>
</a>
</g>
</g>
<!-- Node9&#45;&gt;Node10 -->
<g id="edge9" class="edge"><title>Node9&#45;&gt;Node10</title>
<path fill="none" stroke="midnightblue" d="M1336.52,-988.835C1364.54,-988.835 1396.5,-988.835 1424.95,-988.835"/>
<polygon fill="midnightblue" stroke="midnightblue" points="1336.39,-985.335 1326.39,-988.835 1336.39,-992.335 1336.39,-985.335"/>
</g>
<!-- Node12 -->
<g id="node12" class="node"><title>Node12</title>
<g id="a_node12"><a xlink:href="d6/d04/class_hydro_couple_1_1_i_adapted_output.html" target="_top" xlink:title="An IAdaptedOutput adds one or more data operations on top of an IOutput. ">
<polygon fill="none" stroke="black" points="1416.18,-938.167 1416.18,-959.502 1594.21,-959.502 1594.21,-938.167 1416.18,-938.167"/>
<text text-anchor="middle" x="1505.19" y="-947.502" font-family="Monaco" font-size="10.00">HydroCouple::IAdaptedOutput</text>
</a>
</g>
</g>
<!-- Node11&#45;&gt;Node12 -->
<g id="edge11" class="edge"><title>Node11&#45;&gt;Node12</title>
<path fill="none" stroke="midnightblue" d="M1339.53,-948.835C1363.91,-948.835 1391.02,-948.835 1416.09,-948.835"/>
<polygon fill="midnightblue" stroke="midnightblue" points="1339.26,-945.335 1329.26,-948.835 1339.26,-952.335 1339.26,-945.335"/>
</g>
<!-- Node15&#45;&gt;Node16 -->
<g id="edge15" class="edge"><title>Node15&#45;&gt;Node16</title>
<path fill="none" stroke="midnightblue" d="M1104.49,-801.413C1131.11,-799.775 1159.23,-798.045 1184.13,-796.513"/>
<polygon fill="midnightblue" stroke="midnightblue" points="1104.14,-797.928 1094.37,-802.036 1104.57,-804.915 1104.14,-797.928"/>
</g>
<!-- Node22 -->
<g id="node22" class="node"><title>Node22</title>
<g id="a_node22"><a xlink:href="db/dac/class_hydro_couple_1_1_spatio_temporal_1_1_i_time_geometry_component_data_item.html" target="_top" xlink:title="ITimeGeometryComponentItem represents an IComponentItem with both temporal and geometric components...">
<polygon fill="none" stroke="black" points="1157.15,-676.5 1157.15,-711.17 1365.18,-711.17 1365.18,-676.5 1157.15,-676.5"/>
<text text-anchor="start" x="1165.15" y="-699.17" font-family="Monaco" font-size="10.00">HydroCouple::SpatioTemporal</text>
<text text-anchor="middle" x="1261.16" y="-685.835" font-family="Monaco" font-size="10.00">::ITimeGeometryComponentDataItem</text>
</a>
</g>
</g>
<!-- Node21&#45;&gt;Node22 -->
<g id="edge22" class="edge"><title>Node21&#45;&gt;Node22</title>
<path fill="none" stroke="midnightblue" d="M1088.36,-506.837C1094.9,-510.315 1100.95,-514.59 1106.14,-519.835 1153.75,-567.96 1093.76,-620.491 1142.14,-667.835 1146.64,-672.237 1151.71,-675.964 1157.14,-679.115"/>
<polygon fill="midnightblue" stroke="midnightblue" points="1089.72,-503.611 1079.18,-502.571 1086.77,-509.959 1089.72,-503.611"/>
</g>
<!-- Node23 -->
<g id="node23" class="node"><title>Node23</title>
<g id="a_node23"><a xlink:href="d2/d80/class_hydro_couple_1_1_spatio_temporal_1_1_i_time_polyhedral_surface_component_data_item.html" target="_top" xlink:title="The ITimePolyhedralSurfaceComponentItem class. ">
<polygon fill="none" stroke="black" points="1154.15,-609.833 1154.15,-657.837 1368.18,-657.837 1368.18,-609.833 1154.15,-609.833"/>
<text text-anchor="start" x="1162.15" y="-645.837" font-family="Monaco" font-size="10.00">HydroCouple::SpatioTemporal</text>
<text text-anchor="start" x="1162.15" y="-632.502" font-family="Monaco" font-size="10.00">::ITimePolyhedralSurfaceComponent</text>
<text text-anchor="middle" x="1261.16" y="-619.167" font-family="Monaco" font-size="10.00">DataItem</text>
</a>
</g>
</g>
<!-- Node21&#45;&gt;Node23 -->
<g id="edge23" class="edge"><title>Node21&#45;&gt;Node23</title>
<path fill="none" stroke="midnightblue" d="M1088.72,-508.54C1094.97,-511.664 1100.88,-515.391 1106.14,-519.835 1136.25,-545.244 1112.33,-575.078 1142.14,-600.835 1145.93,-604.104 1150.01,-607.051 1154.31,-609.707"/>
<polygon fill="midnightblue" stroke="midnightblue" points="1089.9,-505.235 1079.34,-504.382 1087.07,-511.635 1089.9,-505.235"/>
</g>
<!-- Node25 -->
<g id="node25" class="node"><title>Node25</title>
<g id="a_node25"><a xlink:href="d6/d72/class_hydro_couple_1_1_spatio_temporal_1_1_i_time_raster_component_data_item.html" target="_top" xlink:title="The ITimeRasterComponentDataItem class. ">
<polygon fill="none" stroke="black" points="1163.15,-556.5 1163.15,-591.17 1359.18,-591.17 1359.18,-556.5 1163.15,-556.5"/>
<text text-anchor="start" x="1171.15" y="-579.17" font-family="Monaco" font-size="10.00">HydroCouple::SpatioTemporal</text>
<text text-anchor="middle" x="1261.16" y="-565.835" font-family="Monaco" font-size="10.00">::ITimeRasterComponentDataItem</text>
</a>
</g>
</g>
<!-- Node21&#45;&gt;Node25 -->
<g id="edge25" class="edge"><title>Node21&#45;&gt;Node25</title>
<path fill="none" stroke="midnightblue" d="M1088.73,-512.549C1094.72,-514.749 1100.58,-517.171 1106.14,-519.835 1124.18,-528.47 1124,-538.421 1142.14,-546.835 1150.06,-550.505 1158.51,-553.694 1167.11,-556.462"/>
<polygon fill="midnightblue" stroke="midnightblue" points="1089.83,-509.225 1079.23,-509.273 1087.54,-515.843 1089.83,-509.225"/>
</g>
<!-- Node26 -->
<g id="node26" class="node"><title>Node26</title>
<g id="a_node26"><a xlink:href="d6/da3/class_hydro_couple_1_1_spatio_temporal_1_1_i_time_regular_grid2_d_component_data_item.html" target="_top" xlink:title="The ITimeRegularGrid2DComponentItem class. ">
<polygon fill="none" stroke="black" points="1142.14,-502.5 1142.14,-537.17 1380.18,-537.17 1380.18,-502.5 1142.14,-502.5"/>
<text text-anchor="start" x="1150.14" y="-525.17" font-family="Monaco" font-size="10.00">HydroCouple::SpatioTemporal</text>
<text text-anchor="middle" x="1261.16" y="-511.835" font-family="Monaco" font-size="10.00">::ITimeRegularGrid2DComponentDataItem</text>
</a>
</g>
</g>
<!-- Node21&#45;&gt;Node26 -->
<g id="edge26" class="edge"><title>Node21&#45;&gt;Node26</title>
<path fill="none" stroke="midnightblue" d="M1089.53,-502.118C1106.34,-503.863 1124.15,-505.712 1141.68,-507.533"/>
<polygon fill="midnightblue" stroke="midnightblue" points="1089.51,-498.597 1079.21,-501.046 1088.79,-505.56 1089.51,-498.597"/>
</g>
<!-- Node27 -->
<g id="node27" class="node"><title>Node27</title>
<g id="a_node27"><a xlink:href="db/d99/class_hydro_couple_1_1_spatio_temporal_1_1_i_time_regular_grid3_d_component_data_item.html" target="_top" xlink:title="The ITimeRegularGrid3DComponentItem class. ">
<polygon fill="none" stroke="black" points="1142.14,-448.5 1142.14,-483.17 1380.18,-483.17 1380.18,-448.5 1142.14,-448.5"/>
<text text-anchor="start" x="1150.14" y="-471.17" font-family="Monaco" font-size="10.00">HydroCouple::SpatioTemporal</text>
<text text-anchor="middle" x="1261.16" y="-457.835" font-family="Monaco" font-size="10.00">::ITimeRegularGrid3DComponentDataItem</text>
</a>
</g>
</g>
<!-- Node21&#45;&gt;Node27 -->
<g id="edge27" class="edge"><title>Node21&#45;&gt;Node27</title>
<path fill="none" stroke="midnightblue" d="M1089.53,-483.552C1106.34,-481.807 1124.15,-479.958 1141.68,-478.137"/>
<polygon fill="midnightblue" stroke="midnightblue" points="1088.79,-480.11 1079.21,-484.624 1089.51,-487.073 1088.79,-480.11"/>
</g>
<!-- Node21&#45;&gt;Node28 -->
<g id="edge28" class="edge"><title>Node21&#45;&gt;Node28</title>
<path fill="none" stroke="midnightblue" d="M1088.68,-472.638C1094.94,-469.29 1100.86,-465.386 1106.14,-460.835 1134.47,-436.45 1113,-408.239 1142.14,-384.835 1147.63,-380.426 1153.71,-376.708 1160.12,-373.577"/>
<polygon fill="midnightblue" stroke="midnightblue" points="1086.78,-469.667 1079.29,-477.158 1089.81,-475.975 1086.78,-469.667"/>
</g>
<!-- Node29 -->
<g id="node29" class="node"><title>Node29</title>
<g id="a_node29"><a xlink:href="de/d0b/class_hydro_couple_1_1_temporal_1_1_i_time_series_component_data_item.html" target="_top" xlink:title="The ITimeSeriesComponentDataItem class. ">
<polygon fill="none" stroke="black" points="1163.15,-394.5 1163.15,-429.17 1359.18,-429.17 1359.18,-394.5 1163.15,-394.5"/>
<text text-anchor="start" x="1171.15" y="-417.17" font-family="Monaco" font-size="10.00">HydroCouple::Temporal</text>
<text text-anchor="middle" x="1261.16" y="-403.835" font-family="Monaco" font-size="10.00">::ITimeSeriesComponentDataItem</text>
</a>
</g>
</g>
<!-- Node21&#45;&gt;Node29 -->
<g id="edge29" class="edge"><title>Node21&#45;&gt;Node29</title>
<path fill="none" stroke="midnightblue" d="M1076.82,-472.244C1086.83,-468.815 1096.83,-465.001 1106.14,-460.835 1123.26,-453.174 1124.78,-445.907 1142.14,-438.835 1151.1,-435.188 1160.65,-431.98 1170.28,-429.171"/>
<polygon fill="midnightblue" stroke="midnightblue" points="1075.64,-468.948 1067.25,-475.411 1077.84,-475.594 1075.64,-468.948"/>
</g>
<!-- Node24 -->
<g id="node24" class="node"><title>Node24</title>
<g id="a_node24"><a xlink:href="d6/db3/class_hydro_couple_1_1_spatio_temporal_1_1_i_time_t_i_n_component_data_item.html" target="_top" xlink:title="The ITINComponentItem class. ">
<polygon fill="none" stroke="black" points="1416.18,-616.5 1416.18,-651.17 1594.21,-651.17 1594.21,-616.5 1416.18,-616.5"/>
<text text-anchor="start" x="1424.18" y="-639.17" font-family="Monaco" font-size="10.00">HydroCouple::SpatioTemporal</text>
<text text-anchor="middle" x="1505.19" y="-625.835" font-family="Monaco" font-size="10.00">::ITimeTINComponentDataItem</text>
</a>
</g>
</g>
<!-- Node23&#45;&gt;Node24 -->
<g id="edge24" class="edge"><title>Node23&#45;&gt;Node24</title>
<path fill="none" stroke="midnightblue" d="M1378.4,-633.835C1391.01,-633.835 1403.68,-633.835 1415.87,-633.835"/>
<polygon fill="midnightblue" stroke="midnightblue" points="1378.32,-630.335 1368.32,-633.835 1378.32,-637.335 1378.32,-630.335"/>
</g>
<!-- Node31 -->
<g id="node31" class="node"><title>Node31</title>
<g id="a_node31"><a xlink:href="dc/d06/class_hydro_couple_1_1_i_adapted_output_factory_component_info.html" target="_top" xlink:title="IAdaptedOutputFactoryComponentInfo interface class provides information about an IAdaptedOutputFactor...">
<polygon fill="none" stroke="black" points="910.114,-383.5 910.114,-418.17 1088.14,-418.17 1088.14,-383.5 910.114,-383.5"/>
<text text-anchor="start" x="918.114" y="-406.17" font-family="Monaco" font-size="10.00">HydroCouple::IAdaptedOutput</text>
<text text-anchor="middle" x="999.127" y="-392.835" font-family="Monaco" font-size="10.00">FactoryComponentInfo</text>
</a>
</g>
</g>
<!-- Node30&#45;&gt;Node31 -->
<g id="edge32" class="edge"><title>Node30&#45;&gt;Node31</title>
<path fill="none" stroke="midnightblue" d="M854.267,-400.835C872.616,-400.835 891.692,-400.835 909.724,-400.835"/>
<polygon fill="midnightblue" stroke="midnightblue" points="854.16,-397.335 844.16,-400.835 854.16,-404.335 854.16,-397.335"/>
</g>
<!-- Node32 -->
<g id="node32" class="node"><title>Node32</title>
<g id="a_node32"><a xlink:href="dd/d4e/class_hydro_couple_1_1_i_model_component_info.html" target="_top" xlink:title="IModelComponentInfo interface inherits from the IComponentInfo interface which provides detailed meta...">
<polygon fill="none" stroke="black" points="895.112,-343.167 895.112,-364.502 1103.14,-364.502 1103.14,-343.167 895.112,-343.167"/>
<text text-anchor="middle" x="999.127" y="-352.502" font-family="Monaco" font-size="10.00">HydroCouple::IModelComponentInfo</text>
</a>
</g>
</g>
<!-- Node30&#45;&gt;Node32 -->
<g id="edge33" class="edge"><title>Node30&#45;&gt;Node32</title>
<path fill="none" stroke="midnightblue" d="M819.314,-388.156C842.234,-383.594 868.331,-378.438 892.111,-373.835 907.926,-370.774 925.079,-367.512 940.887,-364.53"/>
<polygon fill="midnightblue" stroke="midnightblue" points="818.488,-384.752 809.366,-390.139 819.857,-391.617 818.488,-384.752"/>
</g>
<!-- Node35 -->
<g id="node35" class="node"><title>Node35</title>
<g id="a_node35"><a xlink:href="dd/d89/class_hydro_couple_1_1_i_cloneable_model_component.html" target="_top" xlink:title="The ICloneableModelComponent class. ">
<polygon fill="none" stroke="black" points="907.114,-289.5 907.114,-324.17 1091.14,-324.17 1091.14,-289.5 907.114,-289.5"/>
<text text-anchor="start" x="915.114" y="-312.17" font-family="Monaco" font-size="10.00">HydroCouple::ICloneableModel</text>
<text text-anchor="middle" x="999.127" y="-298.835" font-family="Monaco" font-size="10.00">Component</text>
</a>
</g>
</g>
<!-- Node34&#45;&gt;Node35 -->
<g id="edge36" class="edge"><title>Node34&#45;&gt;Node35</title>
<path fill="none" stroke="midnightblue" d="M857.428,-314.974C873.891,-314.021 890.854,-313.04 907.053,-312.103"/>
<polygon fill="midnightblue" stroke="midnightblue" points="857.034,-311.49 847.253,-315.562 857.438,-318.479 857.034,-311.49"/>
</g>
<!-- Node43 -->
<g id="node43" class="node"><title>Node43</title>
<g id="a_node43"><a xlink:href="d1/ddd/class_hydro_couple_1_1_i_quality.html" target="_top" xlink:title="Qualitative data described items in terms of some quality or categorization that may be &#39;informal&#39; or...">
<polygon fill="none" stroke="black" points="684.086,-54.1675 684.086,-75.5024 826.106,-75.5024 826.106,-54.1675 684.086,-54.1675"/>
<text text-anchor="middle" x="755.096" y="-63.5024" font-family="Monaco" font-size="10.00">HydroCouple::IQuality</text>
</a>
</g>
</g>
<!-- Node42&#45;&gt;Node43 -->
<g id="edge44" class="edge"><title>Node42&#45;&gt;Node43</title>
<path fill="none" stroke="midnightblue" d="M628.39,-64.835C647.21,-64.835 666.415,-64.835 683.966,-64.835"/>
<polygon fill="midnightblue" stroke="midnightblue" points="628.292,-61.3351 618.292,-64.835 628.292,-68.3351 628.292,-61.3351"/>
</g>
<!-- Node44 -->
<g id="node44" class="node"><title>Node44</title>
<g id="a_node44"><a xlink:href="dc/d3b/class_hydro_couple_1_1_i_quantity.html" target="_top" xlink:title="IQuantity specifies values as an amount of some unit, usually as a floating point number...">
<polygon fill="none" stroke="black" points="681.085,-14.1675 681.085,-35.5024 829.107,-35.5024 829.107,-14.1675 681.085,-14.1675"/>
<text text-anchor="middle" x="755.096" y="-23.5024" font-family="Monaco" font-size="10.00">HydroCouple::IQuantity</text>
</a>
</g>
</g>
<!-- Node42&#45;&gt;Node44 -->
<g id="edge45" class="edge"><title>Node42&#45;&gt;Node44</title>
<path fill="none" stroke="midnightblue" d="M595.622,-52.3922C626.73,-46.9827 662.812,-40.7084 692.682,-35.5144"/>
<polygon fill="midnightblue" stroke="midnightblue" points="594.963,-48.9542 585.711,-54.1157 596.162,-55.8507 594.963,-48.9542"/>
</g>
<!-- Node46 -->
<g id="node46" class="node"><title>Node46</title>
<g id="a_node46"><a xlink:href="d6/d12/class_hydro_couple_1_1_temporal_1_1_i_time_span.html" target="_top" xlink:title="ITimeSpan specifies a time duration. ">
<polygon fill="none" stroke="black" points="452.057,-0.5 452.057,-35.1699 594.077,-35.1699 594.077,-0.5 452.057,-0.5"/>
<text text-anchor="start" x="460.057" y="-23.1699" font-family="Monaco" font-size="10.00">HydroCouple::Temporal</text>
<text text-anchor="middle" x="523.067" y="-9.83496" font-family="Monaco" font-size="10.00">::ITimeSpan</text>
</a>
</g>
</g>
<!-- Node45&#45;&gt;Node46 -->
<g id="edge47" class="edge"><title>Node45&#45;&gt;Node46</title>
<path fill="none" stroke="midnightblue" d="M390.189,-30.2747C410.443,-28.3642 432.038,-26.3272 451.765,-24.4663"/>
<polygon fill="midnightblue" stroke="midnightblue" points="389.681,-26.8071 380.054,-31.2308 390.338,-33.7761 389.681,-26.8071"/>
</g>
</g>
</svg>
