<?xml version="1.0" encoding="UTF-8" standalone="no"?>
<!DOCTYPE svg PUBLIC "-//W3C//DTD SVG 1.1//EN"
 "http://www.w3.org/Graphics/SVG/1.1/DTD/svg11.dtd">
<!-- Generated by graphviz version 2.38.0 (20140413.2041)
 -->
<!-- Title: /Users/calebbuahin/Documents/Projects/HydroCouple/HydroCouple/include/stdafx.h.cpp Pages: 1 -->
<svg width="168pt" height="129pt"
 viewBox="0.00 0.00 168.02 128.67" xmlns="http://www.w3.org/2000/svg" xmlns:xlink="http://www.w3.org/1999/xlink">
<g id="graph0" class="graph" transform="scale(1 1) rotate(0) translate(4 124.675)">
<title>/Users/calebbuahin/Documents/Projects/HydroCouple/HydroCouple/include/stdafx.h.cpp</title>
<polygon fill="white" stroke="none" points="-4,4 -4,-124.675 164.023,-124.675 164.023,4 -4,4"/>
<!-- Node1 -->
<g id="node1" class="node"><title>Node1</title>
<polygon fill="#bfbfbf" stroke="black" points="0,-58.835 0,-120.175 160.023,-120.175 160.023,-58.835 0,-58.835"/>
<text text-anchor="start" x="8" y="-108.175" font-family="Monaco" font-size="10.00">/Users/calebbuahin</text>
<text text-anchor="start" x="8" y="-94.8398" font-family="Monaco" font-size="10.00">/Documents/Projects</text>
<text text-anchor="start" x="8" y="-81.5049" font-family="Monaco" font-size="10.00">/HydroCouple/HydroCouple</text>
<text text-anchor="middle" x="80.0117" y="-68.1699" font-family="Monaco" font-size="10.00">/include/stdafx.h.cpp</text>
</g>
<!-- Node2 -->
<g id="node2" class="node"><title>Node2</title>
<g id="a_node2"><a xlink:href="stdafx_8h.html" target="_top" xlink:title="stdafx.h">
<polygon fill="white" stroke="black" points="48.0078,-0.5 48.0078,-21.835 112.016,-21.835 112.016,-0.5 48.0078,-0.5"/>
<text text-anchor="middle" x="80.0117" y="-9.83496" font-family="Monaco" font-size="10.00">stdafx.h</text>
</a>
</g>
</g>
<!-- Node1&#45;&gt;Node2 -->
<g id="edge1" class="edge"><title>Node1&#45;&gt;Node2</title>
<path fill="none" stroke="midnightblue" d="M80.0117,-58.7723C80.0117,-49.7925 80.0117,-40.1569 80.0117,-31.9912"/>
<polygon fill="midnightblue" stroke="midnightblue" points="83.5118,-31.9666 80.0117,-21.9667 76.5118,-31.9667 83.5118,-31.9666"/>
</g>
</g>
</svg>
