<?xml version="1.0" encoding="UTF-8" standalone="no"?>
<!DOCTYPE svg PUBLIC "-//W3C//DTD SVG 1.1//EN"
 "http://www.w3.org/Graphics/SVG/1.1/DTD/svg11.dtd">
<!-- Generated by graphviz version 2.38.0 (20140413.2041)
 -->
<!-- Title: WKBPolygon Pages: 1 -->
<svg width="97pt" height="342pt"
 viewBox="0.00 0.00 97.01 341.69" xmlns="http://www.w3.org/2000/svg" xmlns:xlink="http://www.w3.org/1999/xlink">
<g id="graph0" class="graph" transform="scale(1 1) rotate(0) translate(4 337.689)">
<title>WKBPolygon</title>
<!-- Node1 -->
<g id="node1" class="node"><title>Node1</title>
<polygon fill="#bfbfbf" stroke="black" points="0,-0.5 0,-91.1748 82.0107,-91.1748 82.0107,-0.5 0,-0.5"/>
<text text-anchor="middle" x="41.0054" y="-79.1748" font-family="Monaco" font-size="10.00">WKBPolygon</text>
<polyline fill="none" stroke="black" points="0,-69.8398 82.0107,-69.8398 "/>
<text text-anchor="start" x="8" y="-57.8398" font-family="Monaco" font-size="10.00">+ byteOrder</text>
<text text-anchor="start" x="8" y="-44.5049" font-family="Monaco" font-size="10.00">+ numRings</text>
<text text-anchor="start" x="8" y="-31.1699" font-family="Monaco" font-size="10.00">+ wkbType</text>
<polyline fill="none" stroke="black" points="0,-21.835 82.0107,-21.835 "/>
<text text-anchor="middle" x="41.0054" y="-9.83496" font-family="Monaco" font-size="10.00"> </text>
</g>
<!-- Node2 -->
<g id="node2" class="node"><title>Node2</title>
<g id="a_node2"><a xlink:href="../../d6/db5/struct_linear_ring.html" target="_top" xlink:title="The LinearRing struct. ">
<polygon fill="none" stroke="black" points="0,-141.51 0,-205.515 82.0107,-205.515 82.0107,-141.51 0,-141.51"/>
<text text-anchor="middle" x="41.0054" y="-193.515" font-family="Monaco" font-size="10.00">LinearRing</text>
<polyline fill="none" stroke="black" points="0,-184.18 82.0107,-184.18 "/>
<text text-anchor="start" x="8" y="-172.18" font-family="Monaco" font-size="10.00">+ numPoints</text>
<polyline fill="none" stroke="black" points="0,-162.845 82.0107,-162.845 "/>
<text text-anchor="middle" x="41.0054" y="-150.845" font-family="Monaco" font-size="10.00"> </text>
</a>
</g>
</g>
<!-- Node2&#45;&gt;Node1 -->
<g id="edge1" class="edge"><title>Node2&#45;&gt;Node1</title>
<path fill="none" stroke="#404040" d="M41.0054,-141.447C41.0054,-129.989 41.0054,-116.619 41.0054,-103.601"/>
<polygon fill="none" stroke="#404040" points="41.0055,-103.3 37.0054,-97.3004 41.0054,-91.3004 45.0054,-97.3003 41.0055,-103.3"/>
<text text-anchor="middle" x="62.0088" y="-115.01" font-family="Monaco" font-size="10.00"> +rings</text>
</g>
<!-- Node3 -->
<g id="node3" class="node"><title>Node3</title>
<g id="a_node3"><a xlink:href="../../d8/dc8/struct_point.html" target="_top" xlink:title="The Point struct. ">
<polygon fill="none" stroke="black" points="18.0029,-255.85 18.0029,-333.189 64.0078,-333.189 64.0078,-255.85 18.0029,-255.85"/>
<text text-anchor="middle" x="41.0054" y="-321.189" font-family="Monaco" font-size="10.00">Point</text>
<polyline fill="none" stroke="black" points="18.0029,-311.854 64.0078,-311.854 "/>
<text text-anchor="start" x="26.0029" y="-299.854" font-family="Monaco" font-size="10.00">+ x</text>
<text text-anchor="start" x="26.0029" y="-286.52" font-family="Monaco" font-size="10.00">+ y</text>
<polyline fill="none" stroke="black" points="18.0029,-277.185 64.0078,-277.185 "/>
<text text-anchor="middle" x="41.0054" y="-265.185" font-family="Monaco" font-size="10.00"> </text>
</a>
</g>
</g>
<!-- Node3&#45;&gt;Node2 -->
<g id="edge2" class="edge"><title>Node3&#45;&gt;Node2</title>
<path fill="none" stroke="#404040" d="M41.0054,-255.538C41.0054,-243.623 41.0054,-230.377 41.0054,-218.106"/>
<polygon fill="none" stroke="#404040" points="41.0055,-217.768 37.0054,-211.768 41.0054,-205.768 45.0054,-211.768 41.0055,-217.768"/>
<text text-anchor="middle" x="65.0093" y="-229.35" font-family="Monaco" font-size="10.00"> +points</text>
</g>
</g>
</svg>
