<?xml version="1.0" encoding="UTF-8" standalone="no"?>
<!DOCTYPE svg PUBLIC "-//W3C//DTD SVG 1.1//EN"
 "http://www.w3.org/Graphics/SVG/1.1/DTD/svg11.dtd">
<!-- Generated by graphviz version 2.38.0 (20140413.2041)
 -->
<!-- Title: WKBMultiPointZ Pages: 1 -->
<svg width="108pt" height="368pt"
 viewBox="0.00 0.00 108.01 368.36" xmlns="http://www.w3.org/2000/svg" xmlns:xlink="http://www.w3.org/1999/xlink">
<g id="graph0" class="graph" transform="scale(1 1) rotate(0) translate(4 364.359)">
<title>WKBMultiPointZ</title>
<!-- Node1 -->
<g id="node1" class="node"><title>Node1</title>
<polygon fill="#bfbfbf" stroke="black" points="0,-0.5 0,-91.1748 100.014,-91.1748 100.014,-0.5 0,-0.5"/>
<text text-anchor="middle" x="50.0068" y="-79.1748" font-family="Monaco" font-size="10.00">WKBMultiPointZ</text>
<polyline fill="none" stroke="black" points="0,-69.8398 100.014,-69.8398 "/>
<text text-anchor="start" x="8" y="-57.8398" font-family="Monaco" font-size="10.00">+ byteOrder</text>
<text text-anchor="start" x="8" y="-44.5049" font-family="Monaco" font-size="10.00">+ numPoints</text>
<text text-anchor="start" x="8" y="-31.1699" font-family="Monaco" font-size="10.00">+ wkbType</text>
<polyline fill="none" stroke="black" points="0,-21.835 100.014,-21.835 "/>
<text text-anchor="middle" x="50.0068" y="-9.83496" font-family="Monaco" font-size="10.00"> </text>
</g>
<!-- Node2 -->
<g id="node2" class="node"><title>Node2</title>
<g id="a_node2"><a xlink:href="../../d1/d27/struct_w_k_b_point_z.html" target="_top" xlink:title="The WKBPointZ struct. ">
<polygon fill="none" stroke="black" points="9.00146,-141.51 9.00146,-218.85 91.0122,-218.85 91.0122,-141.51 9.00146,-141.51"/>
<text text-anchor="middle" x="50.0068" y="-206.85" font-family="Monaco" font-size="10.00">WKBPointZ</text>
<polyline fill="none" stroke="black" points="9.00146,-197.515 91.0122,-197.515 "/>
<text text-anchor="start" x="17.0015" y="-185.515" font-family="Monaco" font-size="10.00">+ byteOrder</text>
<text text-anchor="start" x="17.0015" y="-172.18" font-family="Monaco" font-size="10.00">+ wkbType</text>
<polyline fill="none" stroke="black" points="9.00146,-162.845 91.0122,-162.845 "/>
<text text-anchor="middle" x="50.0068" y="-150.845" font-family="Monaco" font-size="10.00"> </text>
</a>
</g>
</g>
<!-- Node2&#45;&gt;Node1 -->
<g id="edge1" class="edge"><title>Node2&#45;&gt;Node1</title>
<path fill="none" stroke="#404040" d="M50.0068,-141.256C50.0068,-129.448 50.0068,-116.162 50.0068,-103.368"/>
<polygon fill="none" stroke="#404040" points="50.0069,-103.317 46.0069,-97.3168 50.0068,-91.3168 54.0069,-97.3168 50.0069,-103.317"/>
<text text-anchor="middle" x="74.0107" y="-115.01" font-family="Monaco" font-size="10.00"> +points</text>
</g>
<!-- Node3 -->
<g id="node3" class="node"><title>Node3</title>
<g id="a_node3"><a xlink:href="../../d6/d0c/struct_point_z.html" target="_top" xlink:title="The PointZ struct. ">
<polygon fill="none" stroke="black" points="24.0039,-269.185 24.0039,-359.859 76.0098,-359.859 76.0098,-269.185 24.0039,-269.185"/>
<text text-anchor="middle" x="50.0068" y="-347.859" font-family="Monaco" font-size="10.00">PointZ</text>
<polyline fill="none" stroke="black" points="24.0039,-338.524 76.0098,-338.524 "/>
<text text-anchor="start" x="32.0039" y="-326.524" font-family="Monaco" font-size="10.00">+ x</text>
<text text-anchor="start" x="32.0039" y="-313.189" font-family="Monaco" font-size="10.00">+ y</text>
<text text-anchor="start" x="32.0039" y="-299.854" font-family="Monaco" font-size="10.00">+ z</text>
<polyline fill="none" stroke="black" points="24.0039,-290.52 76.0098,-290.52 "/>
<text text-anchor="middle" x="50.0068" y="-278.52" font-family="Monaco" font-size="10.00"> </text>
</a>
</g>
</g>
<!-- Node3&#45;&gt;Node2 -->
<g id="edge2" class="edge"><title>Node3&#45;&gt;Node2</title>
<path fill="none" stroke="#404040" d="M50.0068,-269.086C50.0068,-256.921 50.0068,-243.654 50.0068,-231.199"/>
<polygon fill="none" stroke="#404040" points="50.0069,-231.087 46.0069,-225.087 50.0068,-219.087 54.0069,-225.087 50.0069,-231.087"/>
<text text-anchor="middle" x="71.0103" y="-242.685" font-family="Monaco" font-size="10.00"> +point</text>
</g>
</g>
</svg>
