<?xml version="1.0" encoding="UTF-8" standalone="no"?>
<!DOCTYPE svg PUBLIC "-//W3C//DTD SVG 1.1//EN"
 "http://www.w3.org/Graphics/SVG/1.1/DTD/svg11.dtd">
<!-- Generated by graphviz version 2.38.0 (20140413.2041)
 -->
<!-- Title: HydroCouple::SpatioTemporal::ITimeGeometryComponentDataItem::setValues Pages: 1 -->
<svg width="466pt" height="191pt"
 viewBox="0.00 0.00 466.06 191.00" xmlns="http://www.w3.org/2000/svg" xmlns:xlink="http://www.w3.org/1999/xlink">
<g id="graph0" class="graph" transform="scale(1 1) rotate(0) translate(4 187.005)">
<title>HydroCouple::SpatioTemporal::ITimeGeometryComponentDataItem::setValues</title>
<!-- Node1 -->
<g id="node1" class="node"><title>Node1</title>
<polygon fill="#bfbfbf" stroke="black" points="0,-67.5 0,-115.505 208.031,-115.505 208.031,-67.5 0,-67.5"/>
<text text-anchor="start" x="8" y="-103.505" font-family="Monaco" font-size="10.00">HydroCouple::SpatioTemporal</text>
<text text-anchor="start" x="8" y="-90.1699" font-family="Monaco" font-size="10.00">::ITimeGeometryComponentDataItem</text>
<text text-anchor="middle" x="104.016" y="-76.835" font-family="Monaco" font-size="10.00">::setValues</text>
</g>
<!-- Node2 -->
<g id="node2" class="node"><title>Node2</title>
<g id="a_node2"><a xlink:href="../../db/dac/class_hydro_couple_1_1_spatio_temporal_1_1_i_time_geometry_component_data_item.html#a57c46ea91026f9f9bae578261bb89c38" target="_top" xlink:title="~ITimeGeometryComponentItem. ">
<polygon fill="none" stroke="black" points="244.031,-134.5 244.031,-182.505 458.063,-182.505 458.063,-134.5 244.031,-134.5"/>
<text text-anchor="start" x="252.031" y="-170.505" font-family="Monaco" font-size="10.00">HydroCouple::SpatioTemporal</text>
<text text-anchor="start" x="252.031" y="-157.17" font-family="Monaco" font-size="10.00">::ITimeGeometryComponentDataItem</text>
<text text-anchor="middle" x="351.047" y="-143.835" font-family="Monaco" font-size="10.00">::~ITimeGeometryComponentDataItem</text>
</a>
</g>
</g>
<!-- Node1&#45;&gt;Node2 -->
<g id="edge1" class="edge"><title>Node1&#45;&gt;Node2</title>
<path fill="none" stroke="midnightblue" d="M202.923,-118.274C222.407,-123.601 242.757,-129.166 261.89,-134.397"/>
<polygon fill="midnightblue" stroke="midnightblue" points="203.701,-114.858 193.132,-115.596 201.854,-121.61 203.701,-114.858"/>
</g>
<!-- Node3 -->
<g id="node3" class="node"><title>Node3</title>
<g id="a_node3"><a xlink:href="../../d6/d72/class_hydro_couple_1_1_spatio_temporal_1_1_i_time_raster_component_data_item.html#a40bb56e657f691f554827b973cb06dab" target="_top" xlink:title="HydroCouple::SpatioTemporal\l::ITimeRasterComponentDataItem\l::~ITimeRasterComponentDataItem">
<polygon fill="none" stroke="black" points="250.032,-67.5 250.032,-115.505 452.062,-115.505 452.062,-67.5 250.032,-67.5"/>
<text text-anchor="start" x="258.032" y="-103.505" font-family="Monaco" font-size="10.00">HydroCouple::SpatioTemporal</text>
<text text-anchor="start" x="258.032" y="-90.1699" font-family="Monaco" font-size="10.00">::ITimeRasterComponentDataItem</text>
<text text-anchor="middle" x="351.047" y="-76.835" font-family="Monaco" font-size="10.00">::~ITimeRasterComponentDataItem</text>
</a>
</g>
</g>
<!-- Node1&#45;&gt;Node3 -->
<g id="edge2" class="edge"><title>Node1&#45;&gt;Node3</title>
<path fill="none" stroke="midnightblue" d="M218.247,-91.5024C228.745,-91.5024 239.333,-91.5024 249.703,-91.5024"/>
<polygon fill="midnightblue" stroke="midnightblue" points="218.221,-88.0025 208.221,-91.5024 218.221,-95.0025 218.221,-88.0025"/>
</g>
<!-- Node4 -->
<g id="node4" class="node"><title>Node4</title>
<g id="a_node4"><a xlink:href="../../df/d86/class_hydro_couple_1_1_spatio_temporal_1_1_i_time_vector_component_data_item.html#aab50d4a6b6c796a585840ed4774b33d6" target="_top" xlink:title="HydroCouple::SpatioTemporal\l::ITimeVectorComponentDataItem\l::~ITimeVectorComponentDataItem">
<polygon fill="none" stroke="black" points="250.032,-0.5 250.032,-48.5049 452.062,-48.5049 452.062,-0.5 250.032,-0.5"/>
<text text-anchor="start" x="258.032" y="-36.5049" font-family="Monaco" font-size="10.00">HydroCouple::SpatioTemporal</text>
<text text-anchor="start" x="258.032" y="-23.1699" font-family="Monaco" font-size="10.00">::ITimeVectorComponentDataItem</text>
<text text-anchor="middle" x="351.047" y="-9.83496" font-family="Monaco" font-size="10.00">::~ITimeVectorComponentDataItem</text>
</a>
</g>
</g>
<!-- Node1&#45;&gt;Node4 -->
<g id="edge3" class="edge"><title>Node1&#45;&gt;Node4</title>
<path fill="none" stroke="midnightblue" d="M202.923,-64.7313C222.407,-59.4037 242.757,-53.8394 261.89,-48.6076"/>
<polygon fill="midnightblue" stroke="midnightblue" points="201.854,-61.3949 193.132,-67.4086 203.701,-68.147 201.854,-61.3949"/>
</g>
</g>
</svg>
