<?xml version="1.0" encoding="UTF-8" standalone="no"?>
<!DOCTYPE svg PUBLIC "-//W3C//DTD SVG 1.1//EN"
 "http://www.w3.org/Graphics/SVG/1.1/DTD/svg11.dtd">
<!-- Generated by graphviz version 2.38.0 (20140413.2041)
 -->
<!-- Title: HydroCouple::SpatioTemporal::ITimeGeometryComponentDataItem::~ITimeGeometryComponentDataItem Pages: 1 -->
<!--zoomable 593 -->
<svg id="main" version="1.1" xmlns="http://www.w3.org/2000/svg" xmlns:xlink="http://www.w3.org/1999/xlink" xml:space="preserve" onload="init(evt)">
<style type="text/css"><![CDATA[
.edge:hover path { stroke: red; }
.edge:hover polygon { stroke: red; fill: red; }
]]></style>
<script type="text/javascript"><![CDATA[
var edges = document.getElementsByTagName('g');
if (edges && edges.length) {
  for (var i=0;i<edges.length;i++) {
    if (edges[i].id.substr(0,4)=='edge') {
      edges[i].setAttribute('class','edge');
    }
  }
}
]]></script>
        <defs>
                <circle id="rim" cx="0" cy="0" r="7"/>
                <circle id="rim2" cx="0" cy="0" r="3.5"/>
                <g id="zoomPlus">
                        <use xlink:href="#rim" fill="#404040">
                                <set attributeName="fill" to="#808080" begin="zoomplus.mouseover" end="zoomplus.mouseout"/>
                        </use>
                        <path d="M-4,0h8M0,-4v8" fill="none" stroke="white" stroke-width="1.5" pointer-events="none"/>
                </g>
                <g id="zoomMin">
                        <use xlink:href="#rim" fill="#404040">
                                <set attributeName="fill" to="#808080" begin="zoomminus.mouseover" end="zoomminus.mouseout"/>
                        </use>
                        <path d="M-4,0h8" fill="none" stroke="white" stroke-width="1.5" pointer-events="none"/>
                </g>
                <g id="dirArrow">
                        <path fill="none" stroke="white" stroke-width="1.5" d="M0,-3.0v7 M-2.5,-0.5L0,-3.0L2.5,-0.5"/>
                </g>
               <g id="resetDef">
                       <use xlink:href="#rim2" fill="#404040">
                               <set attributeName="fill" to="#808080" begin="reset.mouseover" end="reset.mouseout"/>
                       </use>
               </g>
        </defs>

<script type="text/javascript">
var viewWidth = 466;
var viewHeight = 593;
var sectionId = 'dynsection-2';
</script>
<script xlink:href="../../svgpan.js"/>
<svg id="graph" class="graph">
<g id="viewport">
<title>HydroCouple::SpatioTemporal::ITimeGeometryComponentDataItem::~ITimeGeometryComponentDataItem</title>
<!-- Node1 -->
<g id="node1" class="node"><title>Node1</title>
<polygon fill="#bfbfbf" stroke="black" points="0,-268.5 0,-316.505 214.032,-316.505 214.032,-268.5 0,-268.5"/>
<text text-anchor="start" x="8" y="-304.505" font-family="Monaco" font-size="10.00">HydroCouple::SpatioTemporal</text>
<text text-anchor="start" x="8" y="-291.17" font-family="Monaco" font-size="10.00">::ITimeGeometryComponentDataItem</text>
<text text-anchor="middle" x="107.016" y="-277.835" font-family="Monaco" font-size="10.00">::~ITimeGeometryComponentDataItem</text>
</g>
<!-- Node2 -->
<g id="node2" class="node"><title>Node2</title>
<g id="a_node2"><a xlink:href="../../db/dac/class_hydro_couple_1_1_spatio_temporal_1_1_i_time_geometry_component_data_item.html#a8087f3a590e82f45f19af660f8a9aeec" target="_top" xlink:title="geometryType ">
<polygon fill="none" stroke="black" points="250.032,-536.5 250.032,-584.505 458.063,-584.505 458.063,-536.5 250.032,-536.5"/>
<text text-anchor="start" x="258.032" y="-572.505" font-family="Monaco" font-size="10.00">HydroCouple::SpatioTemporal</text>
<text text-anchor="start" x="258.032" y="-559.17" font-family="Monaco" font-size="10.00">::ITimeGeometryComponentDataItem</text>
<text text-anchor="middle" x="354.048" y="-545.835" font-family="Monaco" font-size="10.00">::geometryType</text>
</a>
</g>
</g>
<!-- Node1&#45;&gt;Node2 -->
<g id="edge1" class="edge"><title>Node1&#45;&gt;Node2</title>
<path fill="none" stroke="midnightblue" d="M116.07,-316.722C133.098,-364.235 177.278,-470.027 250.032,-527.502 251.607,-528.747 253.23,-529.944 254.894,-531.098"/>
<polygon fill="midnightblue" stroke="midnightblue" points="253.195,-534.163 263.529,-536.499 256.907,-528.228 253.195,-534.163"/>
</g>
<!-- Node3 -->
<g id="node3" class="node"><title>Node3</title>
<g id="a_node3"><a xlink:href="../../db/dac/class_hydro_couple_1_1_spatio_temporal_1_1_i_time_geometry_component_data_item.html#ab31e86af0eb1b01a686254bd07e1ef7a" target="_top" xlink:title="geometryCount ">
<polygon fill="none" stroke="black" points="250.032,-469.5 250.032,-517.505 458.063,-517.505 458.063,-469.5 250.032,-469.5"/>
<text text-anchor="start" x="258.032" y="-505.505" font-family="Monaco" font-size="10.00">HydroCouple::SpatioTemporal</text>
<text text-anchor="start" x="258.032" y="-492.17" font-family="Monaco" font-size="10.00">::ITimeGeometryComponentDataItem</text>
<text text-anchor="middle" x="354.048" y="-478.835" font-family="Monaco" font-size="10.00">::geometryCount</text>
</a>
</g>
</g>
<!-- Node1&#45;&gt;Node3 -->
<g id="edge2" class="edge"><title>Node1&#45;&gt;Node3</title>
<path fill="none" stroke="midnightblue" d="M122.087,-316.513C144.59,-352.872 192.097,-421.752 250.032,-460.502 252.183,-461.941 254.402,-463.321 256.673,-464.643"/>
<polygon fill="midnightblue" stroke="midnightblue" points="255.205,-467.827 265.672,-469.466 258.511,-461.658 255.205,-467.827"/>
</g>
<!-- Node4 -->
<g id="node4" class="node"><title>Node4</title>
<g id="a_node4"><a xlink:href="../../db/dac/class_hydro_couple_1_1_spatio_temporal_1_1_i_time_geometry_component_data_item.html#ab729930974fc9d1e67cb17e415d9c04a" target="_top" xlink:title="geometry ">
<polygon fill="none" stroke="black" points="250.032,-402.5 250.032,-450.505 458.063,-450.505 458.063,-402.5 250.032,-402.5"/>
<text text-anchor="start" x="258.032" y="-438.505" font-family="Monaco" font-size="10.00">HydroCouple::SpatioTemporal</text>
<text text-anchor="start" x="258.032" y="-425.17" font-family="Monaco" font-size="10.00">::ITimeGeometryComponentDataItem</text>
<text text-anchor="middle" x="354.048" y="-411.835" font-family="Monaco" font-size="10.00">::geometry</text>
</a>
</g>
</g>
<!-- Node1&#45;&gt;Node4 -->
<g id="edge3" class="edge"><title>Node1&#45;&gt;Node4</title>
<path fill="none" stroke="midnightblue" d="M136.248,-316.595C163.766,-339.07 207.556,-372.24 250.032,-393.502 253.522,-395.249 257.124,-396.93 260.797,-398.544"/>
<polygon fill="midnightblue" stroke="midnightblue" points="259.475,-401.785 270.051,-402.417 262.178,-395.327 259.475,-401.785"/>
</g>
<!-- Node5 -->
<g id="node5" class="node"><title>Node5</title>
<g id="a_node5"><a xlink:href="../../db/dac/class_hydro_couple_1_1_spatio_temporal_1_1_i_time_geometry_component_data_item.html#a0b762601a658c0453d5eeb32ce223e1d" target="_top" xlink:title="HydroCouple::SpatioTemporal\l::ITimeGeometryComponentDataItem\l::geometryDimension">
<polygon fill="none" stroke="black" points="250.032,-335.5 250.032,-383.505 458.063,-383.505 458.063,-335.5 250.032,-335.5"/>
<text text-anchor="start" x="258.032" y="-371.505" font-family="Monaco" font-size="10.00">HydroCouple::SpatioTemporal</text>
<text text-anchor="start" x="258.032" y="-358.17" font-family="Monaco" font-size="10.00">::ITimeGeometryComponentDataItem</text>
<text text-anchor="middle" x="354.048" y="-344.835" font-family="Monaco" font-size="10.00">::geometryDimension</text>
</a>
</g>
</g>
<!-- Node1&#45;&gt;Node5 -->
<g id="edge4" class="edge"><title>Node1&#45;&gt;Node5</title>
<path fill="none" stroke="midnightblue" d="M196.132,-316.596C215.264,-321.828 235.614,-327.392 255.099,-332.72"/>
<polygon fill="midnightblue" stroke="midnightblue" points="254.322,-336.136 264.891,-335.397 256.168,-329.384 254.322,-336.136"/>
</g>
<!-- Node6 -->
<g id="node6" class="node"><title>Node6</title>
<g id="a_node6"><a xlink:href="../../db/dac/class_hydro_couple_1_1_spatio_temporal_1_1_i_time_geometry_component_data_item.html#a34b15c58707fc1141db5090e1261f97c" target="_top" xlink:title="envelope ">
<polygon fill="none" stroke="black" points="250.032,-268.5 250.032,-316.505 458.063,-316.505 458.063,-268.5 250.032,-268.5"/>
<text text-anchor="start" x="258.032" y="-304.505" font-family="Monaco" font-size="10.00">HydroCouple::SpatioTemporal</text>
<text text-anchor="start" x="258.032" y="-291.17" font-family="Monaco" font-size="10.00">::ITimeGeometryComponentDataItem</text>
<text text-anchor="middle" x="354.048" y="-277.835" font-family="Monaco" font-size="10.00">::envelope</text>
</a>
</g>
</g>
<!-- Node1&#45;&gt;Node6 -->
<g id="edge5" class="edge"><title>Node1&#45;&gt;Node6</title>
<path fill="none" stroke="midnightblue" d="M214.065,-292.502C222.618,-292.502 231.28,-292.502 239.88,-292.502"/>
<polygon fill="midnightblue" stroke="midnightblue" points="239.937,-296.003 249.937,-292.502 239.937,-289.003 239.937,-296.003"/>
</g>
<!-- Node7 -->
<g id="node7" class="node"><title>Node7</title>
<g id="a_node7"><a xlink:href="../../db/dac/class_hydro_couple_1_1_spatio_temporal_1_1_i_time_geometry_component_data_item.html#a5e4d4bbd584b680eb27120f8f12190ca" target="_top" xlink:title="getValue ">
<polygon fill="none" stroke="black" points="250.032,-201.5 250.032,-249.505 458.063,-249.505 458.063,-201.5 250.032,-201.5"/>
<text text-anchor="start" x="258.032" y="-237.505" font-family="Monaco" font-size="10.00">HydroCouple::SpatioTemporal</text>
<text text-anchor="start" x="258.032" y="-224.17" font-family="Monaco" font-size="10.00">::ITimeGeometryComponentDataItem</text>
<text text-anchor="middle" x="354.048" y="-210.835" font-family="Monaco" font-size="10.00">::getValue</text>
</a>
</g>
</g>
<!-- Node1&#45;&gt;Node7 -->
<g id="edge6" class="edge"><title>Node1&#45;&gt;Node7</title>
<path fill="none" stroke="midnightblue" d="M196.132,-268.409C215.264,-263.177 235.614,-257.613 255.099,-252.285"/>
<polygon fill="midnightblue" stroke="midnightblue" points="256.168,-255.621 264.891,-249.608 254.322,-248.869 256.168,-255.621"/>
</g>
<!-- Node8 -->
<g id="node8" class="node"><title>Node8</title>
<g id="a_node8"><a xlink:href="../../db/dac/class_hydro_couple_1_1_spatio_temporal_1_1_i_time_geometry_component_data_item.html#ab9de6112325dff5df9295eb44c12370f" target="_top" xlink:title="Gets a multi&#45;dimensional array of values for given time dimension index and size for a hyperslab...">
<polygon fill="none" stroke="black" points="250.032,-134.5 250.032,-182.505 458.063,-182.505 458.063,-134.5 250.032,-134.5"/>
<text text-anchor="start" x="258.032" y="-170.505" font-family="Monaco" font-size="10.00">HydroCouple::SpatioTemporal</text>
<text text-anchor="start" x="258.032" y="-157.17" font-family="Monaco" font-size="10.00">::ITimeGeometryComponentDataItem</text>
<text text-anchor="middle" x="354.048" y="-143.835" font-family="Monaco" font-size="10.00">::getValues</text>
</a>
</g>
</g>
<!-- Node1&#45;&gt;Node8 -->
<g id="edge7" class="edge"><title>Node1&#45;&gt;Node8</title>
<path fill="none" stroke="midnightblue" d="M136.248,-268.41C163.766,-245.935 207.556,-212.765 250.032,-191.502 253.522,-189.756 257.124,-188.075 260.797,-186.461"/>
<polygon fill="midnightblue" stroke="midnightblue" points="262.178,-189.678 270.051,-182.588 259.475,-183.22 262.178,-189.678"/>
</g>
<!-- Node9 -->
<g id="node9" class="node"><title>Node9</title>
<g id="a_node9"><a xlink:href="../../db/dac/class_hydro_couple_1_1_spatio_temporal_1_1_i_time_geometry_component_data_item.html#a4e35c9b61d8f0885cb4f6a5d7ea7a1fc" target="_top" xlink:title="setValues ">
<polygon fill="none" stroke="black" points="250.032,-67.5 250.032,-115.505 458.063,-115.505 458.063,-67.5 250.032,-67.5"/>
<text text-anchor="start" x="258.032" y="-103.505" font-family="Monaco" font-size="10.00">HydroCouple::SpatioTemporal</text>
<text text-anchor="start" x="258.032" y="-90.1699" font-family="Monaco" font-size="10.00">::ITimeGeometryComponentDataItem</text>
<text text-anchor="middle" x="354.048" y="-76.835" font-family="Monaco" font-size="10.00">::setValue</text>
</a>
</g>
</g>
<!-- Node1&#45;&gt;Node9 -->
<g id="edge8" class="edge"><title>Node1&#45;&gt;Node9</title>
<path fill="none" stroke="midnightblue" d="M122.087,-268.492C144.59,-232.133 192.097,-163.252 250.032,-124.502 252.183,-123.064 254.402,-121.684 256.673,-120.361"/>
<polygon fill="midnightblue" stroke="midnightblue" points="258.511,-123.347 265.672,-115.539 255.205,-117.178 258.511,-123.347"/>
</g>
<!-- Node10 -->
<g id="node10" class="node"><title>Node10</title>
<g id="a_node10"><a xlink:href="../../db/dac/class_hydro_couple_1_1_spatio_temporal_1_1_i_time_geometry_component_data_item.html#aa96ca66ad840f35d87e041f2d317b125" target="_top" xlink:title="Sets a multi&#45;dimensional array of values for given time dimension index and size for a hyperslab...">
<polygon fill="none" stroke="black" points="250.032,-0.5 250.032,-48.5049 458.063,-48.5049 458.063,-0.5 250.032,-0.5"/>
<text text-anchor="start" x="258.032" y="-36.5049" font-family="Monaco" font-size="10.00">HydroCouple::SpatioTemporal</text>
<text text-anchor="start" x="258.032" y="-23.1699" font-family="Monaco" font-size="10.00">::ITimeGeometryComponentDataItem</text>
<text text-anchor="middle" x="354.048" y="-9.83496" font-family="Monaco" font-size="10.00">::setValues</text>
</a>
</g>
</g>
<!-- Node1&#45;&gt;Node10 -->
<g id="edge9" class="edge"><title>Node1&#45;&gt;Node10</title>
<path fill="none" stroke="midnightblue" d="M116.07,-268.283C133.098,-220.77 177.278,-114.978 250.032,-57.5024 251.607,-56.2583 253.23,-55.0604 254.894,-53.9073"/>
<polygon fill="midnightblue" stroke="midnightblue" points="256.907,-56.7767 263.529,-48.5058 253.195,-50.8423 256.907,-56.7767"/>
</g>
</g>
</svg>
        <g id="navigator" transform="translate(0 0)" fill="#404254">
                <rect fill="#f2f5e9" fill-opacity="0.5" stroke="#606060" stroke-width=".5" x="0" y="0" width="60" height="60"/>
                <use id="zoomplus" xlink:href="#zoomPlus" x="17" y="9" onmousedown="handleZoom(evt,'in')"/>
                <use id="zoomminus" xlink:href="#zoomMin" x="42" y="9" onmousedown="handleZoom(evt,'out')"/>
                <use id="reset" xlink:href="#resetDef" x="30" y="36" onmousedown="handleReset()"/>
                <g id="arrowUp" xlink:href="#dirArrow" transform="translate(30 24)" onmousedown="handlePan(0,-1)">
                  <use xlink:href="#rim" fill="#404040">
                        <set attributeName="fill" to="#808080" begin="arrowUp.mouseover" end="arrowUp.mouseout"/>
                  </use>
                  <path fill="none" stroke="white" stroke-width="1.5" d="M0,-3.0v7 M-2.5,-0.5L0,-3.0L2.5,-0.5"/>
                </g>
                <g id="arrowRight" xlink:href="#dirArrow" transform="rotate(90) translate(36 -43)" onmousedown="handlePan(1,0)">
                  <use xlink:href="#rim" fill="#404040">
                        <set attributeName="fill" to="#808080" begin="arrowRight.mouseover" end="arrowRight.mouseout"/>
                  </use>
                  <path fill="none" stroke="white" stroke-width="1.5" d="M0,-3.0v7 M-2.5,-0.5L0,-3.0L2.5,-0.5"/>
                </g>
                <g id="arrowDown" xlink:href="#dirArrow" transform="rotate(180) translate(-30 -48)" onmousedown="handlePan(0,1)">
                  <use xlink:href="#rim" fill="#404040">
                        <set attributeName="fill" to="#808080" begin="arrowDown.mouseover" end="arrowDown.mouseout"/>
                  </use>
                  <path fill="none" stroke="white" stroke-width="1.5" d="M0,-3.0v7 M-2.5,-0.5L0,-3.0L2.5,-0.5"/>
                </g>
                <g id="arrowLeft" xlink:href="#dirArrow" transform="rotate(270) translate(-36 17)" onmousedown="handlePan(-1,0)">
                  <use xlink:href="#rim" fill="#404040">
                        <set attributeName="fill" to="#808080" begin="arrowLeft.mouseover" end="arrowLeft.mouseout"/>
                  </use>
                  <path fill="none" stroke="white" stroke-width="1.5" d="M0,-3.0v7 M-2.5,-0.5L0,-3.0L2.5,-0.5"/>
                </g>
        </g>
        <svg viewBox="0 0 15 15" width="100%" height="30px" preserveAspectRatio="xMaxYMin meet">
         <g id="arrow_out" transform="scale(0.3 0.3)">
          <a xlink:href="class_hydro_couple_1_1_spatio_temporal_1_1_i_time_geometry_component_data_item_a57c46ea91026f9f9bae578261bb89c38_cgraph_org.svg" target="_base">
           <rect id="button" ry="5" rx="5" y="6" x="6" height="38" width="38"
                fill="#f2f5e9" fill-opacity="0.5" stroke="#606060" stroke-width="1.0"/>
           <path id="arrow"
             d="M 11.500037,31.436501 C 11.940474,20.09759 22.043105,11.32322 32.158766,21.979434 L 37.068811,17.246167 C 37.068811,17.246167 37.088388,32 37.088388,32 L 22.160133,31.978069 C 22.160133,31.978069 26.997745,27.140456 26.997745,27.140456 C 18.528582,18.264221 13.291696,25.230495 11.500037,31.436501 z"
             style="fill:#404040;"/>
          </a>
         </g>
        </svg>
</svg>
