<?xml version="1.0" encoding="UTF-8" standalone="no"?>
<!DOCTYPE svg PUBLIC "-//W3C//DTD SVG 1.1//EN"
 "http://www.w3.org/Graphics/SVG/1.1/DTD/svg11.dtd">
<!-- Generated by graphviz version 2.38.0 (20140413.2041)
 -->
<!-- Title: WKBGeometryCollectionZ Pages: 1 -->
<svg width="1256pt" height="689pt"
 viewBox="0.00 0.00 1256.02 688.71" xmlns="http://www.w3.org/2000/svg" xmlns:xlink="http://www.w3.org/1999/xlink">
<g id="graph0" class="graph" transform="scale(1 1) rotate(0) translate(4 684.714)">
<title>WKBGeometryCollectionZ</title>
<!-- Node1 -->
<g id="node1" class="node"><title>Node1</title>
<polygon fill="#bfbfbf" stroke="black" points="0,-114.84 0,-205.515 148.021,-205.515 148.021,-114.84 0,-114.84"/>
<text text-anchor="middle" x="74.0107" y="-193.515" font-family="Monaco" font-size="10.00">WKBGeometryCollectionZ</text>
<polyline fill="none" stroke="black" points="0,-184.18 148.021,-184.18 "/>
<text text-anchor="start" x="8" y="-172.18" font-family="Monaco" font-size="10.00">+ byte_order</text>
<text text-anchor="start" x="8" y="-158.845" font-family="Monaco" font-size="10.00">+ numGeometries</text>
<text text-anchor="start" x="8" y="-145.51" font-family="Monaco" font-size="10.00">+ wkbType</text>
<polyline fill="none" stroke="black" points="0,-136.175 148.021,-136.175 "/>
<text text-anchor="middle" x="74.0107" y="-124.175" font-family="Monaco" font-size="10.00"> </text>
</g>
<!-- Node2 -->
<g id="node2" class="node"><title>Node2</title>
<g id="a_node2"><a xlink:href="../../d5/d5f/union_w_k_b_geometry_z.html" target="_top" xlink:title="The WKBGeometryZ union. ">
<polygon fill="none" stroke="black" points="557.005,-0.5 557.005,-64.5049 645.017,-64.5049 645.017,-0.5 557.005,-0.5"/>
<text text-anchor="middle" x="601.011" y="-52.5049" font-family="Monaco" font-size="10.00">WKBGeometryZ</text>
<polyline fill="none" stroke="black" points="557.005,-43.1699 645.017,-43.1699 "/>
<text text-anchor="middle" x="601.011" y="-31.1699" font-family="Monaco" font-size="10.00"> </text>
<polyline fill="none" stroke="black" points="557.005,-21.835 645.017,-21.835 "/>
<text text-anchor="middle" x="601.011" y="-9.83496" font-family="Monaco" font-size="10.00"> </text>
</a>
</g>
</g>
<!-- Node1&#45;&gt;Node2 -->
<g id="edge12" class="edge"><title>Node1&#45;&gt;Node2</title>
<path fill="none" stroke="#404040" d="M35.8463,-114.497C30.7232,-103.382 29.6988,-92.0659 37.998,-83.0049 71.7792,-46.1233 408.868,-36.5895 544.713,-34.2363"/>
<polygon fill="none" stroke="#404040" points="544.833,-34.2344 550.766,-30.1359 556.832,-34.0363 550.898,-38.1348 544.833,-34.2344"/>
<text text-anchor="middle" x="77.0171" y="-88.3398" font-family="Monaco" font-size="10.00"> +collectionz</text>
</g>
<!-- Node2&#45;&gt;Node1 -->
<g id="edge1" class="edge"><title>Node2&#45;&gt;Node1</title>
<path fill="none" stroke="#404040" d="M556.651,-34.0249C455.087,-35.8863 208.899,-44.3705 136.999,-83.0049 126.678,-88.551 117.381,-96.5575 109.297,-105.317"/>
<polygon fill="none" stroke="#404040" points="109.118,-105.527 108.259,-112.687 101.319,-114.647 102.178,-107.488 109.118,-105.527"/>
<text text-anchor="middle" x="173.017" y="-88.3398" font-family="Monaco" font-size="10.00"> +geometries</text>
</g>
<!-- Node3 -->
<g id="node3" class="node"><title>Node3</title>
<g id="a_node3"><a xlink:href="../../d4/d74/struct_w_k_b_multi_line_string_z.html" target="_top" xlink:title="The WKBMultiLineStringZ struct. ">
<polygon fill="none" stroke="black" points="319.001,-114.84 319.001,-205.515 449.02,-205.515 449.02,-114.84 319.001,-114.84"/>
<text text-anchor="middle" x="384.011" y="-193.515" font-family="Monaco" font-size="10.00">WKBMultiLineStringZ</text>
<polyline fill="none" stroke="black" points="319.001,-184.18 449.02,-184.18 "/>
<text text-anchor="start" x="327.001" y="-172.18" font-family="Monaco" font-size="10.00">+ byteOrder</text>
<text text-anchor="start" x="327.001" y="-158.845" font-family="Monaco" font-size="10.00">+ numLineStrings</text>
<text text-anchor="start" x="327.001" y="-145.51" font-family="Monaco" font-size="10.00">+ wkbType</text>
<polyline fill="none" stroke="black" points="319.001,-136.175 449.02,-136.175 "/>
<text text-anchor="middle" x="384.011" y="-124.175" font-family="Monaco" font-size="10.00"> </text>
</a>
</g>
</g>
<!-- Node3&#45;&gt;Node2 -->
<g id="edge2" class="edge"><title>Node3&#45;&gt;Node2</title>
<path fill="none" stroke="#404040" d="M376.612,-114.618C377.022,-103.247 379.74,-91.7733 386.997,-83.0049 406.818,-59.0548 488.195,-45.5327 544.684,-38.8701"/>
<polygon fill="none" stroke="#404040" points="544.758,-38.8618 550.271,-34.2127 556.682,-37.5129 551.17,-42.162 544.758,-38.8618"/>
<text text-anchor="middle" x="429.018" y="-88.3398" font-family="Monaco" font-size="10.00"> +mlinestringz</text>
</g>
<!-- Node4 -->
<g id="node4" class="node"><title>Node4</title>
<g id="a_node4"><a xlink:href="../../d9/dd3/struct_w_k_b_line_string_z.html" target="_top" xlink:title="The WKBLineStringZ struct. ">
<polygon fill="none" stroke="black" points="334.004,-334.189 334.004,-424.864 434.018,-424.864 434.018,-334.189 334.004,-334.189"/>
<text text-anchor="middle" x="384.011" y="-412.864" font-family="Monaco" font-size="10.00">WKBLineStringZ</text>
<polyline fill="none" stroke="black" points="334.004,-403.529 434.018,-403.529 "/>
<text text-anchor="start" x="342.004" y="-391.529" font-family="Monaco" font-size="10.00">+ byteOrder</text>
<text text-anchor="start" x="342.004" y="-378.194" font-family="Monaco" font-size="10.00">+ numPoints</text>
<text text-anchor="start" x="342.004" y="-364.859" font-family="Monaco" font-size="10.00">+ wkbType</text>
<polyline fill="none" stroke="black" points="334.004,-355.524 434.018,-355.524 "/>
<text text-anchor="middle" x="384.011" y="-343.524" font-family="Monaco" font-size="10.00"> </text>
</a>
</g>
</g>
<!-- Node4&#45;&gt;Node2 -->
<g id="edge8" class="edge"><title>Node4&#45;&gt;Node2</title>
<path fill="none" stroke="#404040" d="M333.829,-340.333C269.507,-286.782 172.949,-187.724 231.998,-114.34 270.608,-66.356 451.189,-45.2684 544.642,-37.4394"/>
<polygon fill="none" stroke="#404040" points="544.721,-37.4331 550.378,-32.9615 556.682,-36.4638 551.024,-40.9354 544.721,-37.4331"/>
<text text-anchor="middle" x="271.017" y="-158.845" font-family="Monaco" font-size="10.00"> +linestringz</text>
</g>
<!-- Node4&#45;&gt;Node3 -->
<g id="edge3" class="edge"><title>Node4&#45;&gt;Node3</title>
<path fill="none" stroke="#404040" d="M384.011,-334.018C384.011,-300.467 384.011,-254.203 384.011,-217.982"/>
<polygon fill="none" stroke="#404040" points="384.011,-217.626 380.011,-211.626 384.011,-205.626 388.011,-211.626 384.011,-217.626"/>
<text text-anchor="middle" x="423.017" y="-268.52" font-family="Monaco" font-size="10.00"> +lineStrings</text>
</g>
<!-- Node5 -->
<g id="node5" class="node"><title>Node5</title>
<g id="a_node5"><a xlink:href="../../d6/d0c/struct_point_z.html" target="_top" xlink:title="The PointZ struct. ">
<polygon fill="none" stroke="black" points="494.008,-589.539 494.008,-680.214 546.014,-680.214 546.014,-589.539 494.008,-589.539"/>
<text text-anchor="middle" x="520.011" y="-668.214" font-family="Monaco" font-size="10.00">PointZ</text>
<polyline fill="none" stroke="black" points="494.008,-658.879 546.014,-658.879 "/>
<text text-anchor="start" x="502.008" y="-646.879" font-family="Monaco" font-size="10.00">+ x</text>
<text text-anchor="start" x="502.008" y="-633.544" font-family="Monaco" font-size="10.00">+ y</text>
<text text-anchor="start" x="502.008" y="-620.209" font-family="Monaco" font-size="10.00">+ z</text>
<polyline fill="none" stroke="black" points="494.008,-610.874 546.014,-610.874 "/>
<text text-anchor="middle" x="520.011" y="-598.874" font-family="Monaco" font-size="10.00"> </text>
</a>
</g>
</g>
<!-- Node5&#45;&gt;Node4 -->
<g id="edge4" class="edge"><title>Node5&#45;&gt;Node4</title>
<path fill="none" stroke="#404040" d="M495.232,-589.421C486.555,-573.744 476.787,-555.974 468.003,-539.704 449.428,-505.299 428.944,-466.497 412.855,-435.816"/>
<polygon fill="none" stroke="#404040" points="412.707,-435.534 406.379,-432.075 407.138,-424.904 413.466,-428.362 412.707,-435.534"/>
<text text-anchor="middle" x="492.015" y="-505.869" font-family="Monaco" font-size="10.00"> +points</text>
</g>
<!-- Node7 -->
<g id="node7" class="node"><title>Node7</title>
<g id="a_node7"><a xlink:href="../../d1/d27/struct_w_k_b_point_z.html" target="_top" xlink:title="The WKBPointZ struct. ">
<polygon fill="none" stroke="black" points="479.005,-340.857 479.005,-418.197 561.016,-418.197 561.016,-340.857 479.005,-340.857"/>
<text text-anchor="middle" x="520.011" y="-406.197" font-family="Monaco" font-size="10.00">WKBPointZ</text>
<polyline fill="none" stroke="black" points="479.005,-396.862 561.016,-396.862 "/>
<text text-anchor="start" x="487.005" y="-384.862" font-family="Monaco" font-size="10.00">+ byteOrder</text>
<text text-anchor="start" x="487.005" y="-371.527" font-family="Monaco" font-size="10.00">+ wkbType</text>
<polyline fill="none" stroke="black" points="479.005,-362.192 561.016,-362.192 "/>
<text text-anchor="middle" x="520.011" y="-350.192" font-family="Monaco" font-size="10.00"> </text>
</a>
</g>
</g>
<!-- Node5&#45;&gt;Node7 -->
<g id="edge7" class="edge"><title>Node5&#45;&gt;Node7</title>
<path fill="none" stroke="#404040" d="M520.011,-589.456C520.011,-544.998 520.011,-476.725 520.011,-430.425"/>
<polygon fill="none" stroke="#404040" points="520.011,-430.279 516.011,-424.279 520.011,-418.279 524.011,-424.279 520.011,-430.279"/>
<text text-anchor="middle" x="541.014" y="-505.869" font-family="Monaco" font-size="10.00"> +point</text>
</g>
<!-- Node9 -->
<g id="node9" class="node"><title>Node9</title>
<g id="a_node9"><a xlink:href="../../d2/d2c/struct_linear_ring_z.html" target="_top" xlink:title="The LinearRingZ struct. ">
<polygon fill="none" stroke="black" points="831.005,-475.199 831.005,-539.204 913.016,-539.204 913.016,-475.199 831.005,-475.199"/>
<text text-anchor="middle" x="872.011" y="-527.204" font-family="Monaco" font-size="10.00">LinearRingZ</text>
<polyline fill="none" stroke="black" points="831.005,-517.869 913.016,-517.869 "/>
<text text-anchor="start" x="839.005" y="-505.869" font-family="Monaco" font-size="10.00">+ numPoints</text>
<polyline fill="none" stroke="black" points="831.005,-496.534 913.016,-496.534 "/>
<text text-anchor="middle" x="872.011" y="-484.534" font-family="Monaco" font-size="10.00"> </text>
</a>
</g>
</g>
<!-- Node5&#45;&gt;Node9 -->
<g id="edge11" class="edge"><title>Node5&#45;&gt;Node9</title>
<path fill="none" stroke="#404040" d="M546.18,-624.533C603.802,-603.96 742.589,-554.409 819.129,-527.082"/>
<polygon fill="none" stroke="#404040" points="819.556,-526.93 823.862,-521.145 830.857,-522.895 826.552,-528.679 819.556,-526.93"/>
<text text-anchor="middle" x="751.015" y="-563.039" font-family="Monaco" font-size="10.00"> +points</text>
</g>
<!-- Node6 -->
<g id="node6" class="node"><title>Node6</title>
<g id="a_node6"><a xlink:href="../../d5/d23/struct_w_k_b_multi_point_z.html" target="_top" xlink:title="The WKBMultiPointZ struct. ">
<polygon fill="none" stroke="black" points="551.004,-114.84 551.004,-205.515 651.018,-205.515 651.018,-114.84 551.004,-114.84"/>
<text text-anchor="middle" x="601.011" y="-193.515" font-family="Monaco" font-size="10.00">WKBMultiPointZ</text>
<polyline fill="none" stroke="black" points="551.004,-184.18 651.018,-184.18 "/>
<text text-anchor="start" x="559.004" y="-172.18" font-family="Monaco" font-size="10.00">+ byteOrder</text>
<text text-anchor="start" x="559.004" y="-158.845" font-family="Monaco" font-size="10.00">+ numPoints</text>
<text text-anchor="start" x="559.004" y="-145.51" font-family="Monaco" font-size="10.00">+ wkbType</text>
<polyline fill="none" stroke="black" points="551.004,-136.175 651.018,-136.175 "/>
<text text-anchor="middle" x="601.011" y="-124.175" font-family="Monaco" font-size="10.00"> </text>
</a>
</g>
</g>
<!-- Node6&#45;&gt;Node2 -->
<g id="edge5" class="edge"><title>Node6&#45;&gt;Node2</title>
<path fill="none" stroke="#404040" d="M601.011,-114.515C601.011,-102.262 601.011,-89.0006 601.011,-76.8243"/>
<polygon fill="none" stroke="#404040" points="601.011,-76.616 597.011,-70.6161 601.011,-64.616 605.011,-70.616 601.011,-76.616"/>
<text text-anchor="middle" x="628.015" y="-88.3398" font-family="Monaco" font-size="10.00"> +mpointz</text>
</g>
<!-- Node7&#45;&gt;Node2 -->
<g id="edge13" class="edge"><title>Node7&#45;&gt;Node2</title>
<path fill="none" stroke="#404040" d="M504.223,-340.798C484.449,-287.372 457.34,-187.985 494.003,-114.34 505.276,-91.6952 526.254,-73.7114 546.669,-60.511"/>
<polygon fill="none" stroke="#404040" points="546.686,-60.5002 549.712,-53.9547 556.918,-54.2305 553.892,-60.776 546.686,-60.5002"/>
<text text-anchor="middle" x="518.015" y="-158.845" font-family="Monaco" font-size="10.00"> +pointz</text>
</g>
<!-- Node7&#45;&gt;Node6 -->
<g id="edge6" class="edge"><title>Node7&#45;&gt;Node6</title>
<path fill="none" stroke="#404040" d="M534.12,-340.667C546.813,-306.609 565.631,-256.113 580.077,-217.349"/>
<polygon fill="none" stroke="#404040" points="580.218,-216.971 578.565,-209.952 584.408,-205.727 586.061,-212.746 580.218,-216.971"/>
<text text-anchor="middle" x="602.015" y="-268.52" font-family="Monaco" font-size="10.00"> +points</text>
</g>
<!-- Node8 -->
<g id="node8" class="node"><title>Node8</title>
<g id="a_node8"><a xlink:href="../../db/dad/struct_w_k_b_polygon_z.html" target="_top" xlink:title="The WKBPolygonZ struct. ">
<polygon fill="none" stroke="black" points="831.005,-334.189 831.005,-424.864 913.016,-424.864 913.016,-334.189 831.005,-334.189"/>
<text text-anchor="middle" x="872.011" y="-412.864" font-family="Monaco" font-size="10.00">WKBPolygonZ</text>
<polyline fill="none" stroke="black" points="831.005,-403.529 913.016,-403.529 "/>
<text text-anchor="start" x="839.005" y="-391.529" font-family="Monaco" font-size="10.00">+ byteOrder</text>
<text text-anchor="start" x="839.005" y="-378.194" font-family="Monaco" font-size="10.00">+ numRings</text>
<text text-anchor="start" x="839.005" y="-364.859" font-family="Monaco" font-size="10.00">+ wkbType</text>
<polyline fill="none" stroke="black" points="831.005,-355.524 913.016,-355.524 "/>
<text text-anchor="middle" x="872.011" y="-343.524" font-family="Monaco" font-size="10.00"> </text>
</a>
</g>
</g>
<!-- Node8&#45;&gt;Node2 -->
<g id="edge9" class="edge"><title>Node8&#45;&gt;Node2</title>
<path fill="none" stroke="#404040" d="M830.887,-348.364C790.945,-317.012 731.309,-264.417 696.001,-206.015 666.465,-157.16 690.211,-130.814 659.011,-83.0049 656.876,-79.7344 654.464,-76.5603 651.865,-73.5038"/>
<polygon fill="none" stroke="#404040" points="651.82,-73.4557 644.797,-71.8204 643.605,-64.7084 650.629,-66.3437 651.82,-73.4557"/>
<text text-anchor="middle" x="726.016" y="-158.845" font-family="Monaco" font-size="10.00"> +polygonz</text>
</g>
<!-- Node10 -->
<g id="node10" class="node"><title>Node10</title>
<g id="a_node10"><a xlink:href="../../d9/df0/struct_w_k_b_t_i_n_z.html" target="_top" xlink:title="The WKBTINZ struct. ">
<polygon fill="none" stroke="black" points="765.004,-114.84 765.004,-205.515 859.017,-205.515 859.017,-114.84 765.004,-114.84"/>
<text text-anchor="middle" x="812.011" y="-193.515" font-family="Monaco" font-size="10.00">WKBTINZ</text>
<polyline fill="none" stroke="black" points="765.004,-184.18 859.017,-184.18 "/>
<text text-anchor="start" x="773.004" y="-172.18" font-family="Monaco" font-size="10.00">+ byteOrder</text>
<text text-anchor="start" x="773.004" y="-158.845" font-family="Monaco" font-size="10.00">+ numPolygons</text>
<text text-anchor="start" x="773.004" y="-145.51" font-family="Monaco" font-size="10.00">+ wkbType</text>
<polyline fill="none" stroke="black" points="765.004,-136.175 859.017,-136.175 "/>
<text text-anchor="middle" x="812.011" y="-124.175" font-family="Monaco" font-size="10.00"> </text>
</a>
</g>
</g>
<!-- Node8&#45;&gt;Node10 -->
<g id="edge15" class="edge"><title>Node8&#45;&gt;Node10</title>
<path fill="none" stroke="#404040" d="M848.133,-333.846C845.471,-327.846 843.003,-321.69 841.001,-315.689 830.46,-284.086 823.38,-247.493 818.857,-217.853"/>
<polygon fill="none" stroke="#404040" points="818.804,-217.485 813.98,-212.125 817.073,-205.61 821.897,-210.971 818.804,-217.485"/>
<text text-anchor="middle" x="870.016" y="-268.52" font-family="Monaco" font-size="10.00"> +polygons</text>
</g>
<!-- Node11 -->
<g id="node11" class="node"><title>Node11</title>
<g id="a_node11"><a xlink:href="../../de/dad/struct_w_k_b_multi_polygon_z.html" target="_top" xlink:title="The WKBMultiPolygonZ struct. ">
<polygon fill="none" stroke="black" points="877.003,-114.84 877.003,-205.515 989.019,-205.515 989.019,-114.84 877.003,-114.84"/>
<text text-anchor="middle" x="933.011" y="-193.515" font-family="Monaco" font-size="10.00">WKBMultiPolygonZ</text>
<polyline fill="none" stroke="black" points="877.003,-184.18 989.019,-184.18 "/>
<text text-anchor="start" x="885.003" y="-172.18" font-family="Monaco" font-size="10.00">+ byteOrder</text>
<text text-anchor="start" x="885.003" y="-158.845" font-family="Monaco" font-size="10.00">+ numPolygons</text>
<text text-anchor="start" x="885.003" y="-145.51" font-family="Monaco" font-size="10.00">+ wkbType</text>
<polyline fill="none" stroke="black" points="877.003,-136.175 989.019,-136.175 "/>
<text text-anchor="middle" x="933.011" y="-124.175" font-family="Monaco" font-size="10.00"> </text>
</a>
</g>
</g>
<!-- Node8&#45;&gt;Node11 -->
<g id="edge17" class="edge"><title>Node8&#45;&gt;Node11</title>
<path fill="none" stroke="#404040" d="M894.037,-334.063C896.607,-327.975 899.018,-321.738 901.011,-315.689 911.438,-284.045 919.18,-247.593 924.435,-218.044"/>
<polygon fill="none" stroke="#404040" points="924.501,-217.663 921.576,-211.071 926.536,-205.837 929.46,-212.428 924.501,-217.663"/>
<text text-anchor="middle" x="953.016" y="-268.52" font-family="Monaco" font-size="10.00"> +polygons</text>
</g>
<!-- Node12 -->
<g id="node12" class="node"><title>Node12</title>
<g id="a_node12"><a xlink:href="../../d7/d2f/struct_w_k_b_polyhedral_surface_z.html" target="_top" xlink:title="The WKBPolyhedralSurfaceZ struct. ">
<polygon fill="none" stroke="black" points="1007,-114.84 1007,-205.515 1149.02,-205.515 1149.02,-114.84 1007,-114.84"/>
<text text-anchor="middle" x="1078.01" y="-193.515" font-family="Monaco" font-size="10.00">WKBPolyhedralSurfaceZ</text>
<polyline fill="none" stroke="black" points="1007,-184.18 1149.02,-184.18 "/>
<text text-anchor="start" x="1015" y="-172.18" font-family="Monaco" font-size="10.00">+ byteOrder</text>
<text text-anchor="start" x="1015" y="-158.845" font-family="Monaco" font-size="10.00">+ numPolygons</text>
<text text-anchor="start" x="1015" y="-145.51" font-family="Monaco" font-size="10.00">+ wkbType</text>
<polyline fill="none" stroke="black" points="1007,-136.175 1149.02,-136.175 "/>
<text text-anchor="middle" x="1078.01" y="-124.175" font-family="Monaco" font-size="10.00"> </text>
</a>
</g>
</g>
<!-- Node8&#45;&gt;Node12 -->
<g id="edge19" class="edge"><title>Node8&#45;&gt;Node12</title>
<path fill="none" stroke="#404040" d="M913.27,-362.55C936.89,-351.902 965.927,-336.106 987.011,-315.689 1015.92,-287.696 1038.83,-248.58 1054.44,-216.709"/>
<polygon fill="none" stroke="#404040" points="1054.49,-216.602 1053.46,-209.465 1059.65,-205.769 1060.68,-212.906 1054.49,-216.602"/>
<text text-anchor="middle" x="1080.02" y="-268.52" font-family="Monaco" font-size="10.00"> +polygons</text>
</g>
<!-- Node9&#45;&gt;Node8 -->
<g id="edge10" class="edge"><title>Node9&#45;&gt;Node8</title>
<path fill="none" stroke="#404040" d="M872.011,-475.136C872.011,-463.679 872.011,-450.309 872.011,-437.29"/>
<polygon fill="none" stroke="#404040" points="872.011,-436.99 868.011,-430.99 872.011,-424.99 876.011,-430.99 872.011,-436.99"/>
<text text-anchor="middle" x="893.014" y="-448.699" font-family="Monaco" font-size="10.00"> +rings</text>
</g>
<!-- Node13 -->
<g id="node13" class="node"><title>Node13</title>
<g id="a_node13"><a xlink:href="../../d4/d22/struct_w_k_b_triangle_z.html" target="_top" xlink:title="The WKBTriangleZ struct. ">
<polygon fill="none" stroke="black" points="1130,-224.515 1130,-315.189 1218.02,-315.189 1218.02,-224.515 1130,-224.515"/>
<text text-anchor="middle" x="1174.01" y="-303.189" font-family="Monaco" font-size="10.00">WKBTriangleZ</text>
<polyline fill="none" stroke="black" points="1130,-293.854 1218.02,-293.854 "/>
<text text-anchor="start" x="1138" y="-281.854" font-family="Monaco" font-size="10.00">+ byteOrder</text>
<text text-anchor="start" x="1138" y="-268.52" font-family="Monaco" font-size="10.00">+ numRings</text>
<text text-anchor="start" x="1138" y="-255.185" font-family="Monaco" font-size="10.00">+ wkbType</text>
<polyline fill="none" stroke="black" points="1130,-245.85 1218.02,-245.85 "/>
<text text-anchor="middle" x="1174.01" y="-233.85" font-family="Monaco" font-size="10.00"> </text>
</a>
</g>
</g>
<!-- Node9&#45;&gt;Node13 -->
<g id="edge21" class="edge"><title>Node9&#45;&gt;Node13</title>
<path fill="none" stroke="#404040" d="M911.803,-475.192C965.209,-433.572 1060.26,-359.497 1120.07,-312.891"/>
<polygon fill="none" stroke="#404040" points="1120.25,-312.75 1122.52,-305.906 1129.71,-305.373 1127.44,-312.217 1120.25,-312.75"/>
<text text-anchor="middle" x="969.014" y="-448.699" font-family="Monaco" font-size="10.00"> +rings</text>
</g>
<!-- Node10&#45;&gt;Node2 -->
<g id="edge14" class="edge"><title>Node10&#45;&gt;Node2</title>
<path fill="none" stroke="#404040" d="M764.969,-124.069C760.286,-120.734 755.577,-117.442 751.011,-114.34 729.319,-99.6003 723.902,-95.8016 701.011,-83.0049 686.728,-75.0205 670.983,-66.9157 656.297,-59.6393"/>
<polygon fill="none" stroke="#404040" points="656.087,-59.5367 648.939,-60.4856 645.314,-54.2521 652.462,-53.3031 656.087,-59.5367"/>
<text text-anchor="middle" x="741.014" y="-88.3398" font-family="Monaco" font-size="10.00"> +tinz</text>
</g>
<!-- Node11&#45;&gt;Node2 -->
<g id="edge16" class="edge"><title>Node11&#45;&gt;Node2</title>
<path fill="none" stroke="#404040" d="M876.921,-118.966C873.955,-117.322 870.975,-115.768 868.011,-114.34 798.644,-80.9243 712.464,-57.8365 657.104,-45.1359"/>
<polygon fill="none" stroke="#404040" points="656.8,-45.0676 650.068,-47.6524 645.093,-42.4326 651.825,-39.8477 656.8,-45.0676"/>
<text text-anchor="middle" x="859.016" y="-88.3398" font-family="Monaco" font-size="10.00"> +mpolygonz</text>
</g>
<!-- Node12&#45;&gt;Node2 -->
<g id="edge18" class="edge"><title>Node12&#45;&gt;Node2</title>
<path fill="none" stroke="#404040" d="M1006.86,-118.313C1003.9,-116.924 1000.94,-115.593 998.011,-114.34 882.924,-65.0774 735.974,-45.2401 657.091,-37.7242"/>
<polygon fill="none" stroke="#404040" points="656.98,-37.7142 650.641,-41.151 645.03,-36.6211 651.37,-33.1843 656.98,-37.7142"/>
<text text-anchor="middle" x="1006.02" y="-88.3398" font-family="Monaco" font-size="10.00"> +Polyhedralsurfacez</text>
</g>
<!-- Node13&#45;&gt;Node2 -->
<g id="edge20" class="edge"><title>Node13&#45;&gt;Node2</title>
<path fill="none" stroke="#404040" d="M1181.22,-224.239C1184.09,-190.575 1182.17,-145.089 1158.01,-114.34 1132.36,-81.6941 1110.49,-92.2116 1070.01,-83.0049 923.568,-49.7005 746.203,-38.7081 657.409,-35.1521"/>
<polygon fill="none" stroke="#404040" points="657.214,-35.1448 651.067,-38.914 645.223,-34.6889 651.371,-30.9198 657.214,-35.1448"/>
<text text-anchor="middle" x="1215.02" y="-158.845" font-family="Monaco" font-size="10.00"> +trianglez</text>
</g>
</g>
</svg>
