<?xml version="1.0" encoding="UTF-8" standalone="no"?>
<!DOCTYPE svg PUBLIC "-//W3C//DTD SVG 1.1//EN"
 "http://www.w3.org/Graphics/SVG/1.1/DTD/svg11.dtd">
<!-- Generated by graphviz version 2.38.0 (20140413.2041)
 -->
<!-- Title: WKBMultiLineStringZ Pages: 1 -->
<svg width="151pt" height="382pt"
 viewBox="0.00 0.00 151.02 381.69" xmlns="http://www.w3.org/2000/svg" xmlns:xlink="http://www.w3.org/1999/xlink">
<g id="graph0" class="graph" transform="scale(1 1) rotate(0) translate(4 377.694)">
<title>WKBMultiLineStringZ</title>
<!-- Node1 -->
<g id="node1" class="node"><title>Node1</title>
<polygon fill="#bfbfbf" stroke="black" points="0,-0.5 0,-91.1748 130.019,-91.1748 130.019,-0.5 0,-0.5"/>
<text text-anchor="middle" x="65.0093" y="-79.1748" font-family="Monaco" font-size="10.00">WKBMultiLineStringZ</text>
<polyline fill="none" stroke="black" points="0,-69.8398 130.019,-69.8398 "/>
<text text-anchor="start" x="8" y="-57.8398" font-family="Monaco" font-size="10.00">+ byteOrder</text>
<text text-anchor="start" x="8" y="-44.5049" font-family="Monaco" font-size="10.00">+ numLineStrings</text>
<text text-anchor="start" x="8" y="-31.1699" font-family="Monaco" font-size="10.00">+ wkbType</text>
<polyline fill="none" stroke="black" points="0,-21.835 130.019,-21.835 "/>
<text text-anchor="middle" x="65.0093" y="-9.83496" font-family="Monaco" font-size="10.00"> </text>
</g>
<!-- Node2 -->
<g id="node2" class="node"><title>Node2</title>
<g id="a_node2"><a xlink:href="../../d9/dd3/struct_w_k_b_line_string_z.html" target="_top" xlink:title="The WKBLineStringZ struct. ">
<polygon fill="none" stroke="black" points="15.0024,-141.51 15.0024,-232.185 115.016,-232.185 115.016,-141.51 15.0024,-141.51"/>
<text text-anchor="middle" x="65.0093" y="-220.185" font-family="Monaco" font-size="10.00">WKBLineStringZ</text>
<polyline fill="none" stroke="black" points="15.0024,-210.85 115.016,-210.85 "/>
<text text-anchor="start" x="23.0024" y="-198.85" font-family="Monaco" font-size="10.00">+ byteOrder</text>
<text text-anchor="start" x="23.0024" y="-185.515" font-family="Monaco" font-size="10.00">+ numPoints</text>
<text text-anchor="start" x="23.0024" y="-172.18" font-family="Monaco" font-size="10.00">+ wkbType</text>
<polyline fill="none" stroke="black" points="15.0024,-162.845 115.016,-162.845 "/>
<text text-anchor="middle" x="65.0093" y="-150.845" font-family="Monaco" font-size="10.00"> </text>
</a>
</g>
</g>
<!-- Node2&#45;&gt;Node1 -->
<g id="edge1" class="edge"><title>Node2&#45;&gt;Node1</title>
<path fill="none" stroke="#404040" d="M65.0093,-141.481C65.0093,-129.444 65.0093,-116.243 65.0093,-103.622"/>
<polygon fill="none" stroke="#404040" points="65.0094,-103.258 61.0093,-97.2585 65.0093,-91.2585 69.0093,-97.2584 65.0094,-103.258"/>
<text text-anchor="middle" x="104.016" y="-115.01" font-family="Monaco" font-size="10.00"> +lineStrings</text>
</g>
<!-- Node3 -->
<g id="node3" class="node"><title>Node3</title>
<g id="a_node3"><a xlink:href="../../d6/d0c/struct_point_z.html" target="_top" xlink:title="The PointZ struct. ">
<polygon fill="none" stroke="black" points="39.0063,-282.52 39.0063,-373.194 91.0122,-373.194 91.0122,-282.52 39.0063,-282.52"/>
<text text-anchor="middle" x="65.0093" y="-361.194" font-family="Monaco" font-size="10.00">PointZ</text>
<polyline fill="none" stroke="black" points="39.0063,-351.859 91.0122,-351.859 "/>
<text text-anchor="start" x="47.0063" y="-339.859" font-family="Monaco" font-size="10.00">+ x</text>
<text text-anchor="start" x="47.0063" y="-326.524" font-family="Monaco" font-size="10.00">+ y</text>
<text text-anchor="start" x="47.0063" y="-313.189" font-family="Monaco" font-size="10.00">+ z</text>
<polyline fill="none" stroke="black" points="39.0063,-303.854 91.0122,-303.854 "/>
<text text-anchor="middle" x="65.0093" y="-291.854" font-family="Monaco" font-size="10.00"> </text>
</a>
</g>
</g>
<!-- Node3&#45;&gt;Node2 -->
<g id="edge2" class="edge"><title>Node3&#45;&gt;Node2</title>
<path fill="none" stroke="#404040" d="M65.0093,-282.491C65.0093,-270.453 65.0093,-257.253 65.0093,-244.632"/>
<polygon fill="none" stroke="#404040" points="65.0094,-244.268 61.0093,-238.268 65.0093,-232.268 69.0093,-238.268 65.0094,-244.268"/>
<text text-anchor="middle" x="89.0132" y="-256.02" font-family="Monaco" font-size="10.00"> +points</text>
</g>
</g>
</svg>
