<?xml version="1.0" encoding="UTF-8" standalone="no"?>
<!DOCTYPE svg PUBLIC "-//W3C//DTD SVG 1.1//EN"
 "http://www.w3.org/Graphics/SVG/1.1/DTD/svg11.dtd">
<!-- Generated by graphviz version 2.38.0 (20140413.2041)
 -->
<!-- Title: HydroCouple::IDataExchangeWorkflowComponent Pages: 1 -->
<svg width="234pt" height="549pt"
 viewBox="0.00 0.00 234.03 549.37" xmlns="http://www.w3.org/2000/svg" xmlns:xlink="http://www.w3.org/1999/xlink">
<g id="graph0" class="graph" transform="scale(1 1) rotate(0) translate(4 545.374)">
<title>HydroCouple::IDataExchangeWorkflowComponent</title>
<!-- Node1 -->
<g id="node1" class="node"><title>Node1</title>
<polygon fill="#bfbfbf" stroke="black" points="0,-0.5 0,-171.185 226.034,-171.185 226.034,-0.5 0,-0.5"/>
<text text-anchor="start" x="8" y="-159.185" font-family="Monaco" font-size="10.00">HydroCouple::IDataExchange</text>
<text text-anchor="middle" x="113.017" y="-145.85" font-family="Monaco" font-size="10.00">WorkflowComponent</text>
<polyline fill="none" stroke="black" points="0,-136.515 226.034,-136.515 "/>
<text text-anchor="middle" x="113.017" y="-124.515" font-family="Monaco" font-size="10.00"> </text>
<polyline fill="none" stroke="black" points="0,-115.18 226.034,-115.18 "/>
<text text-anchor="start" x="8" y="-103.18" font-family="Monaco" font-size="10.00">+ ~IDataExchangeWorkflowComponent()</text>
<text text-anchor="start" x="8" y="-89.8447" font-family="Monaco" font-size="10.00">+ initialize()</text>
<text text-anchor="start" x="8" y="-76.5098" font-family="Monaco" font-size="10.00">+ update()</text>
<text text-anchor="start" x="8" y="-63.1748" font-family="Monaco" font-size="10.00">+ finish()</text>
<text text-anchor="start" x="8" y="-49.8398" font-family="Monaco" font-size="10.00">+ status()</text>
<text text-anchor="start" x="8" y="-36.5049" font-family="Monaco" font-size="10.00">+ modelComponents()</text>
<text text-anchor="start" x="8" y="-23.1699" font-family="Monaco" font-size="10.00">+ addModelComponent()</text>
<text text-anchor="start" x="8" y="-9.83496" font-family="Monaco" font-size="10.00">+ removeModelComponent()</text>
</g>
<!-- Node2 -->
<g id="node2" class="node"><title>Node2</title>
<g id="a_node2"><a xlink:href="../../d2/d2a/class_hydro_couple_1_1_i_identity.html" target="_top" xlink:title="IIdentity interface class defines a method to get the Id of an HydroCouple entity. ">
<polygon fill="none" stroke="black" points="39.0063,-208.185 39.0063,-285.524 187.028,-285.524 187.028,-208.185 39.0063,-208.185"/>
<text text-anchor="middle" x="113.017" y="-273.524" font-family="Monaco" font-size="10.00">HydroCouple::IIdentity</text>
<polyline fill="none" stroke="black" points="39.0063,-264.189 187.028,-264.189 "/>
<text text-anchor="middle" x="113.017" y="-252.189" font-family="Monaco" font-size="10.00"> </text>
<polyline fill="none" stroke="black" points="39.0063,-242.854 187.028,-242.854 "/>
<text text-anchor="start" x="47.0063" y="-230.854" font-family="Monaco" font-size="10.00">+ ~IIdentity()</text>
<text text-anchor="start" x="47.0063" y="-217.52" font-family="Monaco" font-size="10.00">+ id()</text>
</a>
</g>
</g>
<!-- Node2&#45;&gt;Node1 -->
<g id="edge1" class="edge"><title>Node2&#45;&gt;Node1</title>
<path fill="none" stroke="midnightblue" d="M113.017,-198.099C113.017,-189.579 113.017,-180.476 113.017,-171.284"/>
<polygon fill="none" stroke="midnightblue" points="109.517,-198.171 113.017,-208.171 116.517,-198.171 109.517,-198.171"/>
</g>
<!-- Node3 -->
<g id="node3" class="node"><title>Node3</title>
<g id="a_node3"><a xlink:href="../../db/d64/class_hydro_couple_1_1_i_description.html" target="_top" xlink:title="IDescription interface class provides descriptive information on a HydroCouple object. ">
<polygon fill="none" stroke="black" points="30.0049,-322.524 30.0049,-439.869 196.029,-439.869 196.029,-322.524 30.0049,-322.524"/>
<text text-anchor="middle" x="113.017" y="-427.869" font-family="Monaco" font-size="10.00">HydroCouple::IDescription</text>
<polyline fill="none" stroke="black" points="30.0049,-418.534 196.029,-418.534 "/>
<text text-anchor="middle" x="113.017" y="-406.534" font-family="Monaco" font-size="10.00"> </text>
<polyline fill="none" stroke="black" points="30.0049,-397.199 196.029,-397.199 "/>
<text text-anchor="start" x="38.0049" y="-385.199" font-family="Monaco" font-size="10.00">+ ~IDescription()</text>
<text text-anchor="start" x="38.0049" y="-371.864" font-family="Monaco" font-size="10.00">+ caption()</text>
<text text-anchor="start" x="38.0049" y="-358.529" font-family="Monaco" font-size="10.00">+ setCaption()</text>
<text text-anchor="start" x="38.0049" y="-345.194" font-family="Monaco" font-size="10.00">+ description()</text>
<text text-anchor="start" x="38.0049" y="-331.859" font-family="Monaco" font-size="10.00">+ setDescription()</text>
</a>
</g>
</g>
<!-- Node3&#45;&gt;Node2 -->
<g id="edge2" class="edge"><title>Node3&#45;&gt;Node2</title>
<path fill="none" stroke="midnightblue" d="M113.017,-311.959C113.017,-302.92 113.017,-293.932 113.017,-285.672"/>
<polygon fill="none" stroke="midnightblue" points="109.517,-312.149 113.017,-322.15 116.517,-312.15 109.517,-312.149"/>
</g>
<!-- Node4 -->
<g id="node4" class="node"><title>Node4</title>
<g id="a_node4"><a xlink:href="../../dd/dbf/class_hydro_couple_1_1_i_property_changed.html" target="_top" xlink:title="IPropertyChanged interface is used to emit signal/event when a property of an object changes...">
<polygon fill="none" stroke="black" points="18.0029,-476.869 18.0029,-540.874 208.031,-540.874 208.031,-476.869 18.0029,-476.869"/>
<text text-anchor="middle" x="113.017" y="-528.874" font-family="Monaco" font-size="10.00">HydroCouple::IPropertyChanged</text>
<polyline fill="none" stroke="black" points="18.0029,-519.539 208.031,-519.539 "/>
<text text-anchor="middle" x="113.017" y="-507.539" font-family="Monaco" font-size="10.00"> </text>
<polyline fill="none" stroke="black" points="18.0029,-498.204 208.031,-498.204 "/>
<text text-anchor="start" x="26.0029" y="-486.204" font-family="Monaco" font-size="10.00">+ ~IPropertyChanged()</text>
</a>
</g>
</g>
<!-- Node4&#45;&gt;Node3 -->
<g id="edge3" class="edge"><title>Node4&#45;&gt;Node3</title>
<path fill="none" stroke="midnightblue" d="M113.017,-466.549C113.017,-458.164 113.017,-449.197 113.017,-440.355"/>
<polygon fill="none" stroke="midnightblue" points="109.517,-466.806 113.017,-476.806 116.517,-466.806 109.517,-466.806"/>
</g>
</g>
</svg>
