<?xml version="1.0" encoding="UTF-8" standalone="no"?>
<!DOCTYPE svg PUBLIC "-//W3C//DTD SVG 1.1//EN"
 "http://www.w3.org/Graphics/SVG/1.1/DTD/svg11.dtd">
<!-- Generated by graphviz version 2.38.0 (20140413.2041)
 -->
<!-- Title: WKBPointZM Pages: 1 -->
<svg width="91pt" height="241pt"
 viewBox="0.00 0.00 91.01 240.68" xmlns="http://www.w3.org/2000/svg" xmlns:xlink="http://www.w3.org/1999/xlink">
<g id="graph0" class="graph" transform="scale(1 1) rotate(0) translate(4 236.685)">
<title>WKBPointZM</title>
<!-- Node1 -->
<g id="node1" class="node"><title>Node1</title>
<polygon fill="#bfbfbf" stroke="black" points="0,-0.5 0,-77.8398 82.0107,-77.8398 82.0107,-0.5 0,-0.5"/>
<text text-anchor="middle" x="41.0054" y="-65.8398" font-family="Monaco" font-size="10.00">WKBPointZM</text>
<polyline fill="none" stroke="black" points="0,-56.5049 82.0107,-56.5049 "/>
<text text-anchor="start" x="8" y="-44.5049" font-family="Monaco" font-size="10.00">+ byteOrder</text>
<text text-anchor="start" x="8" y="-31.1699" font-family="Monaco" font-size="10.00">+ wkbType</text>
<polyline fill="none" stroke="black" points="0,-21.835 82.0107,-21.835 "/>
<text text-anchor="middle" x="41.0054" y="-9.83496" font-family="Monaco" font-size="10.00"> </text>
</g>
<!-- Node2 -->
<g id="node2" class="node"><title>Node2</title>
<g id="a_node2"><a xlink:href="../../d7/ded/struct_point_z_m.html" target="_top" xlink:title="The PointZM struct. ">
<polygon fill="none" stroke="black" points="12.002,-128.175 12.002,-232.185 70.0088,-232.185 70.0088,-128.175 12.002,-128.175"/>
<text text-anchor="middle" x="41.0054" y="-220.185" font-family="Monaco" font-size="10.00">PointZM</text>
<polyline fill="none" stroke="black" points="12.002,-210.85 70.0088,-210.85 "/>
<text text-anchor="start" x="20.002" y="-198.85" font-family="Monaco" font-size="10.00">+ x</text>
<text text-anchor="start" x="20.002" y="-185.515" font-family="Monaco" font-size="10.00">+ y</text>
<text text-anchor="start" x="20.002" y="-172.18" font-family="Monaco" font-size="10.00">+ z</text>
<text text-anchor="start" x="20.002" y="-158.845" font-family="Monaco" font-size="10.00">+ m</text>
<polyline fill="none" stroke="black" points="12.002,-149.51 70.0088,-149.51 "/>
<text text-anchor="middle" x="41.0054" y="-137.51" font-family="Monaco" font-size="10.00"> </text>
</a>
</g>
</g>
<!-- Node2&#45;&gt;Node1 -->
<g id="edge1" class="edge"><title>Node2&#45;&gt;Node1</title>
<path fill="none" stroke="#404040" d="M41.0054,-127.813C41.0054,-115.529 41.0054,-102.432 41.0054,-90.2089"/>
<polygon fill="none" stroke="#404040" points="41.0055,-89.8581 37.0054,-83.8582 41.0054,-77.8581 45.0054,-83.8581 41.0055,-89.8581"/>
<text text-anchor="middle" x="62.0088" y="-101.675" font-family="Monaco" font-size="10.00"> +point</text>
</g>
</g>
</svg>
