<?xml version="1.0" encoding="UTF-8" standalone="no"?>
<!DOCTYPE svg PUBLIC "-//W3C//DTD SVG 1.1//EN"
 "http://www.w3.org/Graphics/SVG/1.1/DTD/svg11.dtd">
<!-- Generated by graphviz version 2.38.0 (20140413.2041)
 -->
<!-- Title: HydroCouple::Spatial::IRegularGrid3DComponentDataItem Pages: 1 -->
<svg width="222pt" height="797pt"
 viewBox="0.00 0.00 222.03 797.06" xmlns="http://www.w3.org/2000/svg" xmlns:xlink="http://www.w3.org/1999/xlink">
<g id="graph0" class="graph" transform="scale(1 1) rotate(0) translate(4 793.063)">
<title>HydroCouple::Spatial::IRegularGrid3DComponentDataItem</title>
<!-- Node1 -->
<g id="node1" class="node"><title>Node1</title>
<polygon fill="#bfbfbf" stroke="black" points="0,-0.5 0,-237.859 214.032,-237.859 214.032,-0.5 0,-0.5"/>
<text text-anchor="start" x="8" y="-225.859" font-family="Monaco" font-size="10.00">HydroCouple::Spatial</text>
<text text-anchor="middle" x="107.016" y="-212.524" font-family="Monaco" font-size="10.00">::IRegularGrid3DComponentDataItem</text>
<polyline fill="none" stroke="black" points="0,-203.189 214.032,-203.189 "/>
<text text-anchor="middle" x="107.016" y="-191.189" font-family="Monaco" font-size="10.00"> </text>
<polyline fill="none" stroke="black" points="0,-181.854 214.032,-181.854 "/>
<text text-anchor="start" x="8" y="-169.854" font-family="Monaco" font-size="10.00">+ ~IRegularGrid3DComponent</text>
<text text-anchor="start" x="8" y="-156.52" font-family="Monaco" font-size="10.00">DataItem()</text>
<text text-anchor="start" x="8" y="-143.185" font-family="Monaco" font-size="10.00">+ grid()</text>
<text text-anchor="start" x="8" y="-129.85" font-family="Monaco" font-size="10.00">+ meshDataType()</text>
<text text-anchor="start" x="8" y="-116.515" font-family="Monaco" font-size="10.00">+ xCellDimension()</text>
<text text-anchor="start" x="8" y="-103.18" font-family="Monaco" font-size="10.00">+ yCellDimension()</text>
<text text-anchor="start" x="8" y="-89.8447" font-family="Monaco" font-size="10.00">+ zCellDimension()</text>
<text text-anchor="start" x="8" y="-76.5098" font-family="Monaco" font-size="10.00">+ cellFaceDimension()</text>
<text text-anchor="start" x="8" y="-63.1748" font-family="Monaco" font-size="10.00">+ cellNodeDimension()</text>
<text text-anchor="start" x="8" y="-49.8398" font-family="Monaco" font-size="10.00">+ getValue()</text>
<text text-anchor="start" x="8" y="-36.5049" font-family="Monaco" font-size="10.00">+ getValues()</text>
<text text-anchor="start" x="8" y="-23.1699" font-family="Monaco" font-size="10.00">+ setValue()</text>
<text text-anchor="start" x="8" y="-9.83496" font-family="Monaco" font-size="10.00">+ setValues()</text>
</g>
<!-- Node2 -->
<g id="node2" class="node"><title>Node2</title>
<g id="a_node2"><a xlink:href="../../d8/d52/class_hydro_couple_1_1_i_component_data_item.html" target="_top" xlink:title="IComponentItem is a fundamental unit of data for a component. ">
<polygon fill="none" stroke="black" points="6.00098,-274.859 6.00098,-418.874 208.031,-418.874 208.031,-274.859 6.00098,-274.859"/>
<text text-anchor="middle" x="107.016" y="-406.874" font-family="Monaco" font-size="10.00">HydroCouple::IComponentDataItem</text>
<polyline fill="none" stroke="black" points="6.00098,-397.539 208.031,-397.539 "/>
<text text-anchor="middle" x="107.016" y="-385.539" font-family="Monaco" font-size="10.00"> </text>
<polyline fill="none" stroke="black" points="6.00098,-376.204 208.031,-376.204 "/>
<text text-anchor="start" x="14.001" y="-364.204" font-family="Monaco" font-size="10.00">+ ~IComponentDataItem()</text>
<text text-anchor="start" x="14.001" y="-350.869" font-family="Monaco" font-size="10.00">+ modelComponent()</text>
<text text-anchor="start" x="14.001" y="-337.534" font-family="Monaco" font-size="10.00">+ dimensions()</text>
<text text-anchor="start" x="14.001" y="-324.199" font-family="Monaco" font-size="10.00">+ dimensionLength()</text>
<text text-anchor="start" x="14.001" y="-310.864" font-family="Monaco" font-size="10.00">+ valueDefinition()</text>
<text text-anchor="start" x="14.001" y="-297.529" font-family="Monaco" font-size="10.00">+ getValue()</text>
<text text-anchor="start" x="14.001" y="-284.194" font-family="Monaco" font-size="10.00">+ setValue()</text>
</a>
</g>
</g>
<!-- Node2&#45;&gt;Node1 -->
<g id="edge1" class="edge"><title>Node2&#45;&gt;Node1</title>
<path fill="none" stroke="midnightblue" d="M107.016,-264.694C107.016,-255.994 107.016,-247.02 107.016,-238.005"/>
<polygon fill="none" stroke="midnightblue" points="103.516,-264.768 107.016,-274.768 110.516,-264.768 103.516,-264.768"/>
</g>
<!-- Node3 -->
<g id="node3" class="node"><title>Node3</title>
<g id="a_node3"><a xlink:href="../../d2/d2a/class_hydro_couple_1_1_i_identity.html" target="_top" xlink:title="IIdentity interface class defines a method to get the Id of an HydroCouple entity. ">
<polygon fill="none" stroke="black" points="33.0054,-455.874 33.0054,-533.214 181.027,-533.214 181.027,-455.874 33.0054,-455.874"/>
<text text-anchor="middle" x="107.016" y="-521.214" font-family="Monaco" font-size="10.00">HydroCouple::IIdentity</text>
<polyline fill="none" stroke="black" points="33.0054,-511.879 181.027,-511.879 "/>
<text text-anchor="middle" x="107.016" y="-499.879" font-family="Monaco" font-size="10.00"> </text>
<polyline fill="none" stroke="black" points="33.0054,-490.544 181.027,-490.544 "/>
<text text-anchor="start" x="41.0054" y="-478.544" font-family="Monaco" font-size="10.00">+ ~IIdentity()</text>
<text text-anchor="start" x="41.0054" y="-465.209" font-family="Monaco" font-size="10.00">+ id()</text>
</a>
</g>
</g>
<!-- Node3&#45;&gt;Node2 -->
<g id="edge2" class="edge"><title>Node3&#45;&gt;Node2</title>
<path fill="none" stroke="midnightblue" d="M107.016,-445.522C107.016,-436.978 107.016,-427.917 107.016,-418.893"/>
<polygon fill="none" stroke="midnightblue" points="103.516,-445.649 107.016,-455.649 110.516,-445.649 103.516,-445.649"/>
</g>
<!-- Node4 -->
<g id="node4" class="node"><title>Node4</title>
<g id="a_node4"><a xlink:href="../../db/d64/class_hydro_couple_1_1_i_description.html" target="_top" xlink:title="IDescription interface class provides descriptive information on a HydroCouple object. ">
<polygon fill="none" stroke="black" points="24.0039,-570.214 24.0039,-687.559 190.028,-687.559 190.028,-570.214 24.0039,-570.214"/>
<text text-anchor="middle" x="107.016" y="-675.559" font-family="Monaco" font-size="10.00">HydroCouple::IDescription</text>
<polyline fill="none" stroke="black" points="24.0039,-666.224 190.028,-666.224 "/>
<text text-anchor="middle" x="107.016" y="-654.224" font-family="Monaco" font-size="10.00"> </text>
<polyline fill="none" stroke="black" points="24.0039,-644.889 190.028,-644.889 "/>
<text text-anchor="start" x="32.0039" y="-632.889" font-family="Monaco" font-size="10.00">+ ~IDescription()</text>
<text text-anchor="start" x="32.0039" y="-619.554" font-family="Monaco" font-size="10.00">+ caption()</text>
<text text-anchor="start" x="32.0039" y="-606.219" font-family="Monaco" font-size="10.00">+ setCaption()</text>
<text text-anchor="start" x="32.0039" y="-592.884" font-family="Monaco" font-size="10.00">+ description()</text>
<text text-anchor="start" x="32.0039" y="-579.549" font-family="Monaco" font-size="10.00">+ setDescription()</text>
</a>
</g>
</g>
<!-- Node4&#45;&gt;Node3 -->
<g id="edge3" class="edge"><title>Node4&#45;&gt;Node3</title>
<path fill="none" stroke="midnightblue" d="M107.016,-559.648C107.016,-550.609 107.016,-541.622 107.016,-533.361"/>
<polygon fill="none" stroke="midnightblue" points="103.516,-559.839 107.016,-569.839 110.516,-559.839 103.516,-559.839"/>
</g>
<!-- Node5 -->
<g id="node5" class="node"><title>Node5</title>
<g id="a_node5"><a xlink:href="../../dd/dbf/class_hydro_couple_1_1_i_property_changed.html" target="_top" xlink:title="IPropertyChanged interface is used to emit signal/event when a property of an object changes...">
<polygon fill="none" stroke="black" points="12.002,-724.559 12.002,-788.563 202.03,-788.563 202.03,-724.559 12.002,-724.559"/>
<text text-anchor="middle" x="107.016" y="-776.563" font-family="Monaco" font-size="10.00">HydroCouple::IPropertyChanged</text>
<polyline fill="none" stroke="black" points="12.002,-767.229 202.03,-767.229 "/>
<text text-anchor="middle" x="107.016" y="-755.229" font-family="Monaco" font-size="10.00"> </text>
<polyline fill="none" stroke="black" points="12.002,-745.894 202.03,-745.894 "/>
<text text-anchor="start" x="20.002" y="-733.894" font-family="Monaco" font-size="10.00">+ ~IPropertyChanged()</text>
</a>
</g>
</g>
<!-- Node5&#45;&gt;Node4 -->
<g id="edge4" class="edge"><title>Node5&#45;&gt;Node4</title>
<path fill="none" stroke="midnightblue" d="M107.016,-714.238C107.016,-705.853 107.016,-696.887 107.016,-688.045"/>
<polygon fill="none" stroke="midnightblue" points="103.516,-714.495 107.016,-724.495 110.516,-714.495 103.516,-714.495"/>
</g>
</g>
</svg>
