<?xml version="1.0" encoding="UTF-8" standalone="no"?>
<!DOCTYPE svg PUBLIC "-//W3C//DTD SVG 1.1//EN"
 "http://www.w3.org/Graphics/SVG/1.1/DTD/svg11.dtd">
<!-- Generated by graphviz version 2.38.0 (20140413.2041)
 -->
<!-- Title: HydroCouple::IDimension Pages: 1 -->
<svg width="198pt" height="443pt"
 viewBox="0.00 0.00 198.03 442.69" xmlns="http://www.w3.org/2000/svg" xmlns:xlink="http://www.w3.org/1999/xlink">
<g id="graph0" class="graph" transform="scale(1 1) rotate(0) translate(4 438.694)">
<title>HydroCouple::IDimension</title>
<!-- Node1 -->
<g id="node1" class="node"><title>Node1</title>
<polygon fill="#bfbfbf" stroke="black" points="18.0029,-0.5 18.0029,-64.5049 172.025,-64.5049 172.025,-0.5 18.0029,-0.5"/>
<text text-anchor="middle" x="95.0142" y="-52.5049" font-family="Monaco" font-size="10.00">HydroCouple::IDimension</text>
<polyline fill="none" stroke="black" points="18.0029,-43.1699 172.025,-43.1699 "/>
<text text-anchor="middle" x="95.0142" y="-31.1699" font-family="Monaco" font-size="10.00"> </text>
<polyline fill="none" stroke="black" points="18.0029,-21.835 172.025,-21.835 "/>
<text text-anchor="start" x="26.0029" y="-9.83496" font-family="Monaco" font-size="10.00">+ ~IDimension()</text>
</g>
<!-- Node2 -->
<g id="node2" class="node"><title>Node2</title>
<g id="a_node2"><a xlink:href="../../d2/d2a/class_hydro_couple_1_1_i_identity.html" target="_top" xlink:title="IIdentity interface class defines a method to get the Id of an HydroCouple entity. ">
<polygon fill="none" stroke="black" points="21.0034,-101.505 21.0034,-178.845 169.025,-178.845 169.025,-101.505 21.0034,-101.505"/>
<text text-anchor="middle" x="95.0142" y="-166.845" font-family="Monaco" font-size="10.00">HydroCouple::IIdentity</text>
<polyline fill="none" stroke="black" points="21.0034,-157.51 169.025,-157.51 "/>
<text text-anchor="middle" x="95.0142" y="-145.51" font-family="Monaco" font-size="10.00"> </text>
<polyline fill="none" stroke="black" points="21.0034,-136.175 169.025,-136.175 "/>
<text text-anchor="start" x="29.0034" y="-124.175" font-family="Monaco" font-size="10.00">+ ~IIdentity()</text>
<text text-anchor="start" x="29.0034" y="-110.84" font-family="Monaco" font-size="10.00">+ id()</text>
</a>
</g>
</g>
<!-- Node2&#45;&gt;Node1 -->
<g id="edge1" class="edge"><title>Node2&#45;&gt;Node1</title>
<path fill="none" stroke="midnightblue" d="M95.0142,-91.3154C95.0142,-82.3288 95.0142,-73.1485 95.0142,-64.8267"/>
<polygon fill="none" stroke="midnightblue" points="91.5143,-91.3231 95.0142,-101.323 98.5143,-91.3232 91.5143,-91.3231"/>
</g>
<!-- Node3 -->
<g id="node3" class="node"><title>Node3</title>
<g id="a_node3"><a xlink:href="../../db/d64/class_hydro_couple_1_1_i_description.html" target="_top" xlink:title="IDescription interface class provides descriptive information on a HydroCouple object. ">
<polygon fill="none" stroke="black" points="12.002,-215.845 12.002,-333.189 178.026,-333.189 178.026,-215.845 12.002,-215.845"/>
<text text-anchor="middle" x="95.0142" y="-321.189" font-family="Monaco" font-size="10.00">HydroCouple::IDescription</text>
<polyline fill="none" stroke="black" points="12.002,-311.854 178.026,-311.854 "/>
<text text-anchor="middle" x="95.0142" y="-299.854" font-family="Monaco" font-size="10.00"> </text>
<polyline fill="none" stroke="black" points="12.002,-290.52 178.026,-290.52 "/>
<text text-anchor="start" x="20.002" y="-278.52" font-family="Monaco" font-size="10.00">+ ~IDescription()</text>
<text text-anchor="start" x="20.002" y="-265.185" font-family="Monaco" font-size="10.00">+ caption()</text>
<text text-anchor="start" x="20.002" y="-251.85" font-family="Monaco" font-size="10.00">+ setCaption()</text>
<text text-anchor="start" x="20.002" y="-238.515" font-family="Monaco" font-size="10.00">+ description()</text>
<text text-anchor="start" x="20.002" y="-225.18" font-family="Monaco" font-size="10.00">+ setDescription()</text>
</a>
</g>
</g>
<!-- Node3&#45;&gt;Node2 -->
<g id="edge2" class="edge"><title>Node3&#45;&gt;Node2</title>
<path fill="none" stroke="midnightblue" d="M95.0142,-205.279C95.0142,-196.24 95.0142,-187.253 95.0142,-178.992"/>
<polygon fill="none" stroke="midnightblue" points="91.5143,-205.47 95.0142,-215.47 98.5143,-205.47 91.5143,-205.47"/>
</g>
<!-- Node4 -->
<g id="node4" class="node"><title>Node4</title>
<g id="a_node4"><a xlink:href="../../dd/dbf/class_hydro_couple_1_1_i_property_changed.html" target="_top" xlink:title="IPropertyChanged interface is used to emit signal/event when a property of an object changes...">
<polygon fill="none" stroke="black" points="0,-370.189 0,-434.194 190.028,-434.194 190.028,-370.189 0,-370.189"/>
<text text-anchor="middle" x="95.0142" y="-422.194" font-family="Monaco" font-size="10.00">HydroCouple::IPropertyChanged</text>
<polyline fill="none" stroke="black" points="0,-412.859 190.028,-412.859 "/>
<text text-anchor="middle" x="95.0142" y="-400.859" font-family="Monaco" font-size="10.00"> </text>
<polyline fill="none" stroke="black" points="0,-391.524 190.028,-391.524 "/>
<text text-anchor="start" x="8" y="-379.524" font-family="Monaco" font-size="10.00">+ ~IPropertyChanged()</text>
</a>
</g>
</g>
<!-- Node4&#45;&gt;Node3 -->
<g id="edge3" class="edge"><title>Node4&#45;&gt;Node3</title>
<path fill="none" stroke="midnightblue" d="M95.0142,-359.869C95.0142,-351.484 95.0142,-342.518 95.0142,-333.675"/>
<polygon fill="none" stroke="midnightblue" points="91.5143,-360.126 95.0142,-370.126 98.5143,-360.126 91.5143,-360.126"/>
</g>
</g>
</svg>
