<?xml version="1.0" encoding="UTF-8" standalone="no"?>
<!DOCTYPE svg PUBLIC "-//W3C//DTD SVG 1.1//EN"
 "http://www.w3.org/Graphics/SVG/1.1/DTD/svg11.dtd">
<!-- Generated by graphviz version 2.38.0 (20140413.2041)
 -->
<!-- Title: WKBLineStringZ Pages: 1 -->
<svg width="108pt" height="241pt"
 viewBox="0.00 0.00 108.01 240.68" xmlns="http://www.w3.org/2000/svg" xmlns:xlink="http://www.w3.org/1999/xlink">
<g id="graph0" class="graph" transform="scale(1 1) rotate(0) translate(4 236.685)">
<title>WKBLineStringZ</title>
<!-- Node1 -->
<g id="node1" class="node"><title>Node1</title>
<polygon fill="#bfbfbf" stroke="black" points="0,-0.5 0,-91.1748 100.014,-91.1748 100.014,-0.5 0,-0.5"/>
<text text-anchor="middle" x="50.0068" y="-79.1748" font-family="Monaco" font-size="10.00">WKBLineStringZ</text>
<polyline fill="none" stroke="black" points="0,-69.8398 100.014,-69.8398 "/>
<text text-anchor="start" x="8" y="-57.8398" font-family="Monaco" font-size="10.00">+ byteOrder</text>
<text text-anchor="start" x="8" y="-44.5049" font-family="Monaco" font-size="10.00">+ numPoints</text>
<text text-anchor="start" x="8" y="-31.1699" font-family="Monaco" font-size="10.00">+ wkbType</text>
<polyline fill="none" stroke="black" points="0,-21.835 100.014,-21.835 "/>
<text text-anchor="middle" x="50.0068" y="-9.83496" font-family="Monaco" font-size="10.00"> </text>
</g>
<!-- Node2 -->
<g id="node2" class="node"><title>Node2</title>
<g id="a_node2"><a xlink:href="../../d6/d0c/struct_point_z.html" target="_top" xlink:title="The PointZ struct. ">
<polygon fill="none" stroke="black" points="24.0039,-141.51 24.0039,-232.185 76.0098,-232.185 76.0098,-141.51 24.0039,-141.51"/>
<text text-anchor="middle" x="50.0068" y="-220.185" font-family="Monaco" font-size="10.00">PointZ</text>
<polyline fill="none" stroke="black" points="24.0039,-210.85 76.0098,-210.85 "/>
<text text-anchor="start" x="32.0039" y="-198.85" font-family="Monaco" font-size="10.00">+ x</text>
<text text-anchor="start" x="32.0039" y="-185.515" font-family="Monaco" font-size="10.00">+ y</text>
<text text-anchor="start" x="32.0039" y="-172.18" font-family="Monaco" font-size="10.00">+ z</text>
<polyline fill="none" stroke="black" points="24.0039,-162.845 76.0098,-162.845 "/>
<text text-anchor="middle" x="50.0068" y="-150.845" font-family="Monaco" font-size="10.00"> </text>
</a>
</g>
</g>
<!-- Node2&#45;&gt;Node1 -->
<g id="edge1" class="edge"><title>Node2&#45;&gt;Node1</title>
<path fill="none" stroke="#404040" d="M50.0068,-141.481C50.0068,-129.444 50.0068,-116.243 50.0068,-103.622"/>
<polygon fill="none" stroke="#404040" points="50.0069,-103.258 46.0069,-97.2585 50.0068,-91.2585 54.0069,-97.2584 50.0069,-103.258"/>
<text text-anchor="middle" x="74.0107" y="-115.01" font-family="Monaco" font-size="10.00"> +points</text>
</g>
</g>
</svg>
