<?xml version="1.0" encoding="UTF-8" standalone="no"?>
<!DOCTYPE svg PUBLIC "-//W3C//DTD SVG 1.1//EN"
 "http://www.w3.org/Graphics/SVG/1.1/DTD/svg11.dtd">
<!-- Generated by graphviz version 2.38.0 (20140413.2041)
 -->
<!-- Title: HydroCouple::IComponentInfo Pages: 1 -->
<svg width="728pt" height="757pt"
 viewBox="0.00 0.00 728.04 757.06" xmlns="http://www.w3.org/2000/svg" xmlns:xlink="http://www.w3.org/1999/xlink">
<g id="graph0" class="graph" transform="scale(1 1) rotate(0) translate(4 753.059)">
<title>HydroCouple::IComponentInfo</title>
<!-- Node1 -->
<g id="node1" class="node"><title>Node1</title>
<polygon fill="#bfbfbf" stroke="black" points="283.006,-128.175 283.006,-378.869 461.032,-378.869 461.032,-128.175 283.006,-128.175"/>
<text text-anchor="middle" x="372.019" y="-366.869" font-family="Monaco" font-size="10.00">HydroCouple::IComponentInfo</text>
<polyline fill="none" stroke="black" points="283.006,-357.534 461.032,-357.534 "/>
<text text-anchor="middle" x="372.019" y="-345.534" font-family="Monaco" font-size="10.00"> </text>
<polyline fill="none" stroke="black" points="283.006,-336.199 461.032,-336.199 "/>
<text text-anchor="start" x="291.006" y="-324.199" font-family="Monaco" font-size="10.00">+ ~IComponentInfo()</text>
<text text-anchor="start" x="291.006" y="-310.864" font-family="Monaco" font-size="10.00">+ libraryFilePath()</text>
<text text-anchor="start" x="291.006" y="-297.529" font-family="Monaco" font-size="10.00">+ setLibraryFilePath()</text>
<text text-anchor="start" x="291.006" y="-284.194" font-family="Monaco" font-size="10.00">+ iconFilePath()</text>
<text text-anchor="start" x="291.006" y="-270.859" font-family="Monaco" font-size="10.00">+ vendor()</text>
<text text-anchor="start" x="291.006" y="-257.524" font-family="Monaco" font-size="10.00">+ documentation()</text>
<text text-anchor="start" x="291.006" y="-244.189" font-family="Monaco" font-size="10.00">+ license()</text>
<text text-anchor="start" x="291.006" y="-230.854" font-family="Monaco" font-size="10.00">+ copyright()</text>
<text text-anchor="start" x="291.006" y="-217.52" font-family="Monaco" font-size="10.00">+ url()</text>
<text text-anchor="start" x="291.006" y="-204.185" font-family="Monaco" font-size="10.00">+ email()</text>
<text text-anchor="start" x="291.006" y="-190.85" font-family="Monaco" font-size="10.00">+ version()</text>
<text text-anchor="start" x="291.006" y="-177.515" font-family="Monaco" font-size="10.00">+ category()</text>
<text text-anchor="start" x="291.006" y="-164.18" font-family="Monaco" font-size="10.00">+ hasValidLicense()</text>
<text text-anchor="start" x="291.006" y="-150.845" font-family="Monaco" font-size="10.00">+ validateLicense()</text>
<text text-anchor="start" x="291.006" y="-137.51" font-family="Monaco" font-size="10.00">+ validateLicense()</text>
</g>
<!-- Node5 -->
<g id="node5" class="node"><title>Node5</title>
<g id="a_node5"><a xlink:href="../../dc/d06/class_hydro_couple_1_1_i_adapted_output_factory_component_info.html" target="_top" xlink:title="IAdaptedOutputFactoryComponentInfo interface class provides information about an IAdaptedOutputFactor...">
<polygon fill="none" stroke="black" points="0,-0.5 0,-91.1748 250.038,-91.1748 250.038,-0.5 0,-0.5"/>
<text text-anchor="start" x="8" y="-79.1748" font-family="Monaco" font-size="10.00">HydroCouple::IAdaptedOutput</text>
<text text-anchor="middle" x="125.019" y="-65.8398" font-family="Monaco" font-size="10.00">FactoryComponentInfo</text>
<polyline fill="none" stroke="black" points="0,-56.5049 250.038,-56.5049 "/>
<text text-anchor="middle" x="125.019" y="-44.5049" font-family="Monaco" font-size="10.00"> </text>
<polyline fill="none" stroke="black" points="0,-35.1699 250.038,-35.1699 "/>
<text text-anchor="start" x="8" y="-23.1699" font-family="Monaco" font-size="10.00">+ ~IAdaptedOutputFactoryComponentInfo()</text>
<text text-anchor="start" x="8" y="-9.83496" font-family="Monaco" font-size="10.00">+ createComponentInstance()</text>
</a>
</g>
</g>
<!-- Node1&#45;&gt;Node5 -->
<g id="edge4" class="edge"><title>Node1&#45;&gt;Node5</title>
<path fill="none" stroke="midnightblue" d="M275.001,-171.732C242.151,-144.377 206.678,-114.837 178.481,-91.357"/>
<polygon fill="none" stroke="midnightblue" points="272.922,-174.556 282.846,-178.265 277.402,-169.176 272.922,-174.556"/>
</g>
<!-- Node6 -->
<g id="node6" class="node"><title>Node6</title>
<g id="a_node6"><a xlink:href="../../dd/d4e/class_hydro_couple_1_1_i_model_component_info.html" target="_top" xlink:title="IModelComponentInfo interface inherits from the IComponentInfo interface which provides detailed meta...">
<polygon fill="none" stroke="black" points="268.003,-0.5 268.003,-91.1748 476.035,-91.1748 476.035,-0.5 268.003,-0.5"/>
<text text-anchor="middle" x="372.019" y="-79.1748" font-family="Monaco" font-size="10.00">HydroCouple::IModelComponentInfo</text>
<polyline fill="none" stroke="black" points="268.003,-69.8398 476.035,-69.8398 "/>
<text text-anchor="middle" x="372.019" y="-57.8398" font-family="Monaco" font-size="10.00"> </text>
<polyline fill="none" stroke="black" points="268.003,-48.5049 476.035,-48.5049 "/>
<text text-anchor="start" x="276.003" y="-36.5049" font-family="Monaco" font-size="10.00">+ ~IModelComponentInfo()</text>
<text text-anchor="start" x="276.003" y="-23.1699" font-family="Monaco" font-size="10.00">+ createComponentInstance()</text>
<text text-anchor="start" x="276.003" y="-9.83496" font-family="Monaco" font-size="10.00">+ adaptedOutputFactories()</text>
</a>
</g>
</g>
<!-- Node1&#45;&gt;Node6 -->
<g id="edge5" class="edge"><title>Node1&#45;&gt;Node6</title>
<path fill="none" stroke="midnightblue" d="M372.019,-117.866C372.019,-108.533 372.019,-99.587 372.019,-91.3808"/>
<polygon fill="none" stroke="midnightblue" points="368.519,-118.129 372.019,-128.129 375.519,-118.129 368.519,-118.129"/>
</g>
<!-- Node7 -->
<g id="node7" class="node"><title>Node7</title>
<g id="a_node7"><a xlink:href="../../df/d58/class_hydro_couple_1_1_i_workflow_component_info.html" target="_top" xlink:title="The IDataExchangeWorkflowComponentInfo class. ">
<polygon fill="none" stroke="black" points="494.002,-7.16748 494.002,-84.5073 720.036,-84.5073 720.036,-7.16748 494.002,-7.16748"/>
<text text-anchor="middle" x="607.019" y="-72.5073" font-family="Monaco" font-size="10.00">HydroCouple::IWorkflowComponentInfo</text>
<polyline fill="none" stroke="black" points="494.002,-63.1724 720.036,-63.1724 "/>
<text text-anchor="middle" x="607.019" y="-51.1724" font-family="Monaco" font-size="10.00"> </text>
<polyline fill="none" stroke="black" points="494.002,-41.8374 720.036,-41.8374 "/>
<text text-anchor="start" x="502.002" y="-29.8374" font-family="Monaco" font-size="10.00">+ ~IWorkflowComponentInfo()</text>
<text text-anchor="start" x="502.002" y="-16.5024" font-family="Monaco" font-size="10.00">+ createComponentInstance()</text>
</a>
</g>
</g>
<!-- Node1&#45;&gt;Node7 -->
<g id="edge6" class="edge"><title>Node1&#45;&gt;Node7</title>
<path fill="none" stroke="midnightblue" d="M469.086,-167.564C502.088,-138.679 537.308,-107.853 563.898,-84.5795"/>
<polygon fill="none" stroke="midnightblue" points="466.417,-165.248 461.198,-174.468 471.028,-170.516 466.417,-165.248"/>
</g>
<!-- Node2 -->
<g id="node2" class="node"><title>Node2</title>
<g id="a_node2"><a xlink:href="../../d2/d2a/class_hydro_couple_1_1_i_identity.html" target="_top" xlink:title="IIdentity interface class defines a method to get the Id of an HydroCouple entity. ">
<polygon fill="none" stroke="black" points="298.008,-415.869 298.008,-493.209 446.03,-493.209 446.03,-415.869 298.008,-415.869"/>
<text text-anchor="middle" x="372.019" y="-481.209" font-family="Monaco" font-size="10.00">HydroCouple::IIdentity</text>
<polyline fill="none" stroke="black" points="298.008,-471.874 446.03,-471.874 "/>
<text text-anchor="middle" x="372.019" y="-459.874" font-family="Monaco" font-size="10.00"> </text>
<polyline fill="none" stroke="black" points="298.008,-450.539 446.03,-450.539 "/>
<text text-anchor="start" x="306.008" y="-438.539" font-family="Monaco" font-size="10.00">+ ~IIdentity()</text>
<text text-anchor="start" x="306.008" y="-425.204" font-family="Monaco" font-size="10.00">+ id()</text>
</a>
</g>
</g>
<!-- Node2&#45;&gt;Node1 -->
<g id="edge1" class="edge"><title>Node2&#45;&gt;Node1</title>
<path fill="none" stroke="midnightblue" d="M372.019,-405.487C372.019,-397.175 372.019,-388.201 372.019,-378.918"/>
<polygon fill="none" stroke="midnightblue" points="368.519,-405.637 372.019,-415.637 375.519,-405.637 368.519,-405.637"/>
</g>
<!-- Node3 -->
<g id="node3" class="node"><title>Node3</title>
<g id="a_node3"><a xlink:href="../../db/d64/class_hydro_couple_1_1_i_description.html" target="_top" xlink:title="IDescription interface class provides descriptive information on a HydroCouple object. ">
<polygon fill="none" stroke="black" points="289.007,-530.209 289.007,-647.554 455.031,-647.554 455.031,-530.209 289.007,-530.209"/>
<text text-anchor="middle" x="372.019" y="-635.554" font-family="Monaco" font-size="10.00">HydroCouple::IDescription</text>
<polyline fill="none" stroke="black" points="289.007,-626.219 455.031,-626.219 "/>
<text text-anchor="middle" x="372.019" y="-614.219" font-family="Monaco" font-size="10.00"> </text>
<polyline fill="none" stroke="black" points="289.007,-604.884 455.031,-604.884 "/>
<text text-anchor="start" x="297.007" y="-592.884" font-family="Monaco" font-size="10.00">+ ~IDescription()</text>
<text text-anchor="start" x="297.007" y="-579.549" font-family="Monaco" font-size="10.00">+ caption()</text>
<text text-anchor="start" x="297.007" y="-566.214" font-family="Monaco" font-size="10.00">+ setCaption()</text>
<text text-anchor="start" x="297.007" y="-552.879" font-family="Monaco" font-size="10.00">+ description()</text>
<text text-anchor="start" x="297.007" y="-539.544" font-family="Monaco" font-size="10.00">+ setDescription()</text>
</a>
</g>
</g>
<!-- Node3&#45;&gt;Node2 -->
<g id="edge2" class="edge"><title>Node3&#45;&gt;Node2</title>
<path fill="none" stroke="midnightblue" d="M372.019,-519.643C372.019,-510.604 372.019,-501.617 372.019,-493.356"/>
<polygon fill="none" stroke="midnightblue" points="368.519,-519.834 372.019,-529.834 375.519,-519.834 368.519,-519.834"/>
</g>
<!-- Node4 -->
<g id="node4" class="node"><title>Node4</title>
<g id="a_node4"><a xlink:href="../../dd/dbf/class_hydro_couple_1_1_i_property_changed.html" target="_top" xlink:title="IPropertyChanged interface is used to emit signal/event when a property of an object changes...">
<polygon fill="none" stroke="black" points="277.005,-684.554 277.005,-748.559 467.033,-748.559 467.033,-684.554 277.005,-684.554"/>
<text text-anchor="middle" x="372.019" y="-736.559" font-family="Monaco" font-size="10.00">HydroCouple::IPropertyChanged</text>
<polyline fill="none" stroke="black" points="277.005,-727.224 467.033,-727.224 "/>
<text text-anchor="middle" x="372.019" y="-715.224" font-family="Monaco" font-size="10.00"> </text>
<polyline fill="none" stroke="black" points="277.005,-705.889 467.033,-705.889 "/>
<text text-anchor="start" x="285.005" y="-693.889" font-family="Monaco" font-size="10.00">+ ~IPropertyChanged()</text>
</a>
</g>
</g>
<!-- Node4&#45;&gt;Node3 -->
<g id="edge3" class="edge"><title>Node4&#45;&gt;Node3</title>
<path fill="none" stroke="midnightblue" d="M372.019,-674.233C372.019,-665.848 372.019,-656.882 372.019,-648.04"/>
<polygon fill="none" stroke="midnightblue" points="368.519,-674.49 372.019,-684.49 375.519,-674.49 368.519,-674.49"/>
</g>
</g>
</svg>
