<?xml version="1.0" encoding="UTF-8" standalone="no"?>
<!DOCTYPE svg PUBLIC "-//W3C//DTD SVG 1.1//EN"
 "http://www.w3.org/Graphics/SVG/1.1/DTD/svg11.dtd">
<!-- Generated by graphviz version 2.38.0 (20140413.2041)
 -->
<!-- Title: HydroCouple::IComponentInfo Pages: 1 -->
<svg width="484pt" height="744pt"
 viewBox="0.00 0.00 484.03 743.72" xmlns="http://www.w3.org/2000/svg" xmlns:xlink="http://www.w3.org/1999/xlink">
<g id="graph0" class="graph" transform="scale(1 1) rotate(0) translate(4 739.724)">
<title>HydroCouple::IComponentInfo</title>
<!-- Node1 -->
<g id="node1" class="node"><title>Node1</title>
<polygon fill="#bfbfbf" stroke="black" points="159.006,-128.175 159.006,-365.534 337.032,-365.534 337.032,-128.175 159.006,-128.175"/>
<text text-anchor="middle" x="248.019" y="-353.534" font-family="Monaco" font-size="10.00">HydroCouple::IComponentInfo</text>
<polyline fill="none" stroke="black" points="159.006,-344.199 337.032,-344.199 "/>
<text text-anchor="middle" x="248.019" y="-332.199" font-family="Monaco" font-size="10.00"> </text>
<polyline fill="none" stroke="black" points="159.006,-322.864 337.032,-322.864 "/>
<text text-anchor="start" x="167.006" y="-310.864" font-family="Monaco" font-size="10.00">+ ~IComponentInfo()</text>
<text text-anchor="start" x="167.006" y="-297.529" font-family="Monaco" font-size="10.00">+ libraryFilePath()</text>
<text text-anchor="start" x="167.006" y="-284.194" font-family="Monaco" font-size="10.00">+ setLibraryFilePath()</text>
<text text-anchor="start" x="167.006" y="-270.859" font-family="Monaco" font-size="10.00">+ iconFilePath()</text>
<text text-anchor="start" x="167.006" y="-257.524" font-family="Monaco" font-size="10.00">+ vendor()</text>
<text text-anchor="start" x="167.006" y="-244.189" font-family="Monaco" font-size="10.00">+ publications()</text>
<text text-anchor="start" x="167.006" y="-230.854" font-family="Monaco" font-size="10.00">+ license()</text>
<text text-anchor="start" x="167.006" y="-217.52" font-family="Monaco" font-size="10.00">+ copyright()</text>
<text text-anchor="start" x="167.006" y="-204.185" font-family="Monaco" font-size="10.00">+ url()</text>
<text text-anchor="start" x="167.006" y="-190.85" font-family="Monaco" font-size="10.00">+ email()</text>
<text text-anchor="start" x="167.006" y="-177.515" font-family="Monaco" font-size="10.00">+ version()</text>
<text text-anchor="start" x="167.006" y="-164.18" font-family="Monaco" font-size="10.00">+ category()</text>
<text text-anchor="start" x="167.006" y="-150.845" font-family="Monaco" font-size="10.00">+ hasValidLicense()</text>
<text text-anchor="start" x="167.006" y="-137.51" font-family="Monaco" font-size="10.00">+ validateLicense()</text>
</g>
<!-- Node5 -->
<g id="node5" class="node"><title>Node5</title>
<g id="a_node5"><a xlink:href="../../dc/d06/class_hydro_couple_1_1_i_adapted_output_factory_component_info.html" target="_top" xlink:title="IAdaptedOutputFactoryComponentInfo interface class provides information about an IAdaptedOutputFactor...">
<polygon fill="none" stroke="black" points="0,-0.5 0,-91.1748 250.038,-91.1748 250.038,-0.5 0,-0.5"/>
<text text-anchor="start" x="8" y="-79.1748" font-family="Monaco" font-size="10.00">HydroCouple::IAdaptedOutput</text>
<text text-anchor="middle" x="125.019" y="-65.8398" font-family="Monaco" font-size="10.00">FactoryComponentInfo</text>
<polyline fill="none" stroke="black" points="0,-56.5049 250.038,-56.5049 "/>
<text text-anchor="middle" x="125.019" y="-44.5049" font-family="Monaco" font-size="10.00"> </text>
<polyline fill="none" stroke="black" points="0,-35.1699 250.038,-35.1699 "/>
<text text-anchor="start" x="8" y="-23.1699" font-family="Monaco" font-size="10.00">+ ~IAdaptedOutputFactoryComponentInfo()</text>
<text text-anchor="start" x="8" y="-9.83496" font-family="Monaco" font-size="10.00">+ createComponentInstance()</text>
</a>
</g>
</g>
<!-- Node1&#45;&gt;Node5 -->
<g id="edge4" class="edge"><title>Node1&#45;&gt;Node5</title>
<path fill="none" stroke="midnightblue" d="M169.843,-119.364C163.779,-109.552 157.95,-100.12 152.615,-91.4881"/>
<polygon fill="none" stroke="midnightblue" points="166.991,-121.406 175.225,-128.072 172.945,-117.726 166.991,-121.406"/>
</g>
<!-- Node6 -->
<g id="node6" class="node"><title>Node6</title>
<g id="a_node6"><a xlink:href="../../dd/d4e/class_hydro_couple_1_1_i_model_component_info.html" target="_top" xlink:title="IModelComponentInfo interface inherits from the IComponentInfo interface which provides detailed meta...">
<polygon fill="none" stroke="black" points="268.003,-7.16748 268.003,-84.5073 476.035,-84.5073 476.035,-7.16748 268.003,-7.16748"/>
<text text-anchor="middle" x="372.019" y="-72.5073" font-family="Monaco" font-size="10.00">HydroCouple::IModelComponentInfo</text>
<polyline fill="none" stroke="black" points="268.003,-63.1724 476.035,-63.1724 "/>
<text text-anchor="middle" x="372.019" y="-51.1724" font-family="Monaco" font-size="10.00"> </text>
<polyline fill="none" stroke="black" points="268.003,-41.8374 476.035,-41.8374 "/>
<text text-anchor="start" x="276.003" y="-29.8374" font-family="Monaco" font-size="10.00">+ ~IModelComponentInfo()</text>
<text text-anchor="start" x="276.003" y="-16.5024" font-family="Monaco" font-size="10.00">+ createComponentInstance()</text>
</a>
</g>
</g>
<!-- Node1&#45;&gt;Node6 -->
<g id="edge5" class="edge"><title>Node1&#45;&gt;Node6</title>
<path fill="none" stroke="midnightblue" d="M326.828,-119.367C334.585,-106.919 341.961,-95.0798 348.42,-84.7129"/>
<polygon fill="none" stroke="midnightblue" points="323.722,-117.734 321.405,-128.072 329.663,-121.436 323.722,-117.734"/>
</g>
<!-- Node2 -->
<g id="node2" class="node"><title>Node2</title>
<g id="a_node2"><a xlink:href="../../d2/d2a/class_hydro_couple_1_1_i_identity.html" target="_top" xlink:title="IIdentity interface class defines a method to get the Id of an HydroCouple entity. ">
<polygon fill="none" stroke="black" points="174.008,-402.534 174.008,-479.874 322.03,-479.874 322.03,-402.534 174.008,-402.534"/>
<text text-anchor="middle" x="248.019" y="-467.874" font-family="Monaco" font-size="10.00">HydroCouple::IIdentity</text>
<polyline fill="none" stroke="black" points="174.008,-458.539 322.03,-458.539 "/>
<text text-anchor="middle" x="248.019" y="-446.539" font-family="Monaco" font-size="10.00"> </text>
<polyline fill="none" stroke="black" points="174.008,-437.204 322.03,-437.204 "/>
<text text-anchor="start" x="182.008" y="-425.204" font-family="Monaco" font-size="10.00">+ ~IIdentity()</text>
<text text-anchor="start" x="182.008" y="-411.869" font-family="Monaco" font-size="10.00">+ id()</text>
</a>
</g>
</g>
<!-- Node2&#45;&gt;Node1 -->
<g id="edge1" class="edge"><title>Node2&#45;&gt;Node1</title>
<path fill="none" stroke="midnightblue" d="M248.019,-392.052C248.019,-383.746 248.019,-374.798 248.019,-365.57"/>
<polygon fill="none" stroke="midnightblue" points="244.519,-392.202 248.019,-402.202 251.519,-392.202 244.519,-392.202"/>
</g>
<!-- Node3 -->
<g id="node3" class="node"><title>Node3</title>
<g id="a_node3"><a xlink:href="../../db/d64/class_hydro_couple_1_1_i_description.html" target="_top" xlink:title="IDescription interface class provides descriptive information on a HydroCouple object. ">
<polygon fill="none" stroke="black" points="165.007,-516.874 165.007,-634.219 331.031,-634.219 331.031,-516.874 165.007,-516.874"/>
<text text-anchor="middle" x="248.019" y="-622.219" font-family="Monaco" font-size="10.00">HydroCouple::IDescription</text>
<polyline fill="none" stroke="black" points="165.007,-612.884 331.031,-612.884 "/>
<text text-anchor="middle" x="248.019" y="-600.884" font-family="Monaco" font-size="10.00"> </text>
<polyline fill="none" stroke="black" points="165.007,-591.549 331.031,-591.549 "/>
<text text-anchor="start" x="173.007" y="-579.549" font-family="Monaco" font-size="10.00">+ ~IDescription()</text>
<text text-anchor="start" x="173.007" y="-566.214" font-family="Monaco" font-size="10.00">+ caption()</text>
<text text-anchor="start" x="173.007" y="-552.879" font-family="Monaco" font-size="10.00">+ setCaption()</text>
<text text-anchor="start" x="173.007" y="-539.544" font-family="Monaco" font-size="10.00">+ description()</text>
<text text-anchor="start" x="173.007" y="-526.209" font-family="Monaco" font-size="10.00">+ setDescription()</text>
</a>
</g>
</g>
<!-- Node3&#45;&gt;Node2 -->
<g id="edge2" class="edge"><title>Node3&#45;&gt;Node2</title>
<path fill="none" stroke="midnightblue" d="M248.019,-506.308C248.019,-497.269 248.019,-488.282 248.019,-480.022"/>
<polygon fill="none" stroke="midnightblue" points="244.519,-506.499 248.019,-516.499 251.519,-506.499 244.519,-506.499"/>
</g>
<!-- Node4 -->
<g id="node4" class="node"><title>Node4</title>
<g id="a_node4"><a xlink:href="../../dd/dbf/class_hydro_couple_1_1_i_property_changed.html" target="_top" xlink:title="IPropertyChanged interface is used to emit signal/event when a property of an object changes...">
<polygon fill="none" stroke="black" points="153.005,-671.219 153.005,-735.224 343.033,-735.224 343.033,-671.219 153.005,-671.219"/>
<text text-anchor="middle" x="248.019" y="-723.224" font-family="Monaco" font-size="10.00">HydroCouple::IPropertyChanged</text>
<polyline fill="none" stroke="black" points="153.005,-713.889 343.033,-713.889 "/>
<text text-anchor="middle" x="248.019" y="-701.889" font-family="Monaco" font-size="10.00"> </text>
<polyline fill="none" stroke="black" points="153.005,-692.554 343.033,-692.554 "/>
<text text-anchor="start" x="161.005" y="-680.554" font-family="Monaco" font-size="10.00">+ ~IPropertyChanged()</text>
</a>
</g>
</g>
<!-- Node4&#45;&gt;Node3 -->
<g id="edge3" class="edge"><title>Node4&#45;&gt;Node3</title>
<path fill="none" stroke="midnightblue" d="M248.019,-660.898C248.019,-652.513 248.019,-643.547 248.019,-634.705"/>
<polygon fill="none" stroke="midnightblue" points="244.519,-661.155 248.019,-671.156 251.519,-661.156 244.519,-661.155"/>
</g>
</g>
</svg>
