<?xml version="1.0" encoding="UTF-8" standalone="no"?>
<!DOCTYPE svg PUBLIC "-//W3C//DTD SVG 1.1//EN"
 "http://www.w3.org/Graphics/SVG/1.1/DTD/svg11.dtd">
<!-- Generated by graphviz version 2.38.0 (20140413.2041)
 -->
<!-- Title: WKBGeometryZ Pages: 1 -->
<!--zoomable 830 -->
<svg id="main" version="1.1" xmlns="http://www.w3.org/2000/svg" xmlns:xlink="http://www.w3.org/1999/xlink" xml:space="preserve" onload="init(evt)">
<style type="text/css"><![CDATA[
.edge:hover path { stroke: red; }
.edge:hover polygon { stroke: red; fill: red; }
]]></style>
<script type="text/javascript"><![CDATA[
var edges = document.getElementsByTagName('g');
if (edges && edges.length) {
  for (var i=0;i<edges.length;i++) {
    if (edges[i].id.substr(0,4)=='edge') {
      edges[i].setAttribute('class','edge');
    }
  }
}
]]></script>
        <defs>
                <circle id="rim" cx="0" cy="0" r="7"/>
                <circle id="rim2" cx="0" cy="0" r="3.5"/>
                <g id="zoomPlus">
                        <use xlink:href="#rim" fill="#404040">
                                <set attributeName="fill" to="#808080" begin="zoomplus.mouseover" end="zoomplus.mouseout"/>
                        </use>
                        <path d="M-4,0h8M0,-4v8" fill="none" stroke="white" stroke-width="1.5" pointer-events="none"/>
                </g>
                <g id="zoomMin">
                        <use xlink:href="#rim" fill="#404040">
                                <set attributeName="fill" to="#808080" begin="zoomminus.mouseover" end="zoomminus.mouseout"/>
                        </use>
                        <path d="M-4,0h8" fill="none" stroke="white" stroke-width="1.5" pointer-events="none"/>
                </g>
                <g id="dirArrow">
                        <path fill="none" stroke="white" stroke-width="1.5" d="M0,-3.0v7 M-2.5,-0.5L0,-3.0L2.5,-0.5"/>
                </g>
               <g id="resetDef">
                       <use xlink:href="#rim2" fill="#404040">
                               <set attributeName="fill" to="#808080" begin="reset.mouseover" end="reset.mouseout"/>
                       </use>
               </g>
        </defs>

<script type="text/javascript">
var viewWidth = 1043;
var viewHeight = 830;
var sectionId = 'dynsection-0';
</script>
<script xlink:href="../../svgpan.js"/>
<svg id="graph" class="graph">
<g id="viewport">
<title>WKBGeometryZ</title>
<!-- Node1 -->
<g id="node1" class="node"><title>Node1</title>
<polygon fill="#bfbfbf" stroke="black" points="429.953,-141.51 429.953,-205.515 517.965,-205.515 517.965,-141.51 429.953,-141.51"/>
<text text-anchor="middle" x="473.959" y="-193.515" font-family="Monaco" font-size="10.00">WKBGeometryZ</text>
<polyline fill="none" stroke="black" points="429.953,-184.18 517.965,-184.18 "/>
<text text-anchor="middle" x="473.959" y="-172.18" font-family="Monaco" font-size="10.00"> </text>
<polyline fill="none" stroke="black" points="429.953,-162.845 517.965,-162.845 "/>
<text text-anchor="middle" x="473.959" y="-150.845" font-family="Monaco" font-size="10.00"> </text>
</g>
<!-- Node9 -->
<g id="node9" class="node"><title>Node9</title>
<g id="a_node9"><a xlink:href="../../d8/dc4/struct_w_k_b_geometry_collection_z.html" target="_top" xlink:title="The WKBGeometryCollectionZ struct. ">
<polygon fill="none" stroke="black" points="399.948,-0.5 399.948,-91.1748 547.97,-91.1748 547.97,-0.5 399.948,-0.5"/>
<text text-anchor="middle" x="473.959" y="-79.1748" font-family="Monaco" font-size="10.00">WKBGeometryCollectionZ</text>
<polyline fill="none" stroke="black" points="399.948,-69.8398 547.97,-69.8398 "/>
<text text-anchor="start" x="407.948" y="-57.8398" font-family="Monaco" font-size="10.00">+ byte_order</text>
<text text-anchor="start" x="407.948" y="-44.5049" font-family="Monaco" font-size="10.00">+ numGeometries</text>
<text text-anchor="start" x="407.948" y="-31.1699" font-family="Monaco" font-size="10.00">+ wkbType</text>
<polyline fill="none" stroke="black" points="399.948,-21.835 547.97,-21.835 "/>
<text text-anchor="middle" x="473.959" y="-9.83496" font-family="Monaco" font-size="10.00"> </text>
</a>
</g>
</g>
<!-- Node1&#45;&gt;Node9 -->
<g id="edge12" class="edge"><title>Node1&#45;&gt;Node9</title>
<path fill="none" stroke="#404040" d="M432.119,-141.486C424.441,-132.052 419.946,-121.126 423.947,-109.675 424.844,-107.108 425.894,-104.568 427.069,-102.065"/>
<polygon fill="none" stroke="#404040" points="427.167,-101.887 426.543,-94.7026 432.934,-91.3632 433.558,-98.5473 427.167,-101.887"/>
<text text-anchor="middle" x="459.965" y="-115.01" font-family="Monaco" font-size="10.00"> +geometries</text>
</g>
<!-- Node2 -->
<g id="node2" class="node"><title>Node2</title>
<g id="a_node2"><a xlink:href="../../d4/d74/struct_w_k_b_multi_line_string_z.html" target="_top" xlink:title="The WKBMultiLineStringZ struct. ">
<polygon fill="none" stroke="black" points="105.95,-255.85 105.95,-346.524 235.968,-346.524 235.968,-255.85 105.95,-255.85"/>
<text text-anchor="middle" x="170.959" y="-334.524" font-family="Monaco" font-size="10.00">WKBMultiLineStringZ</text>
<polyline fill="none" stroke="black" points="105.95,-325.189 235.968,-325.189 "/>
<text text-anchor="start" x="113.95" y="-313.189" font-family="Monaco" font-size="10.00">+ byteOrder</text>
<text text-anchor="start" x="113.95" y="-299.854" font-family="Monaco" font-size="10.00">+ numLineStrings</text>
<text text-anchor="start" x="113.95" y="-286.52" font-family="Monaco" font-size="10.00">+ wkbType</text>
<polyline fill="none" stroke="black" points="105.95,-277.185 235.968,-277.185 "/>
<text text-anchor="middle" x="170.959" y="-265.185" font-family="Monaco" font-size="10.00"> </text>
</a>
</g>
</g>
<!-- Node2&#45;&gt;Node1 -->
<g id="edge1" class="edge"><title>Node2&#45;&gt;Node1</title>
<path fill="none" stroke="#404040" d="M163.182,-255.713C163.539,-244.209 166.325,-232.646 173.945,-224.015 205.219,-188.588 339.484,-178.502 417.39,-175.639"/>
<polygon fill="none" stroke="#404040" points="417.857,-175.623 423.72,-171.426 429.85,-175.225 423.986,-179.422 417.857,-175.623"/>
<text text-anchor="middle" x="215.966" y="-229.35" font-family="Monaco" font-size="10.00"> +mlinestringz</text>
</g>
<!-- Node3 -->
<g id="node3" class="node"><title>Node3</title>
<g id="a_node3"><a xlink:href="../../d9/dd3/struct_w_k_b_line_string_z.html" target="_top" xlink:title="The WKBLineStringZ struct. ">
<polygon fill="none" stroke="black" points="120.952,-475.199 120.952,-565.874 220.966,-565.874 220.966,-475.199 120.952,-475.199"/>
<text text-anchor="middle" x="170.959" y="-553.874" font-family="Monaco" font-size="10.00">WKBLineStringZ</text>
<polyline fill="none" stroke="black" points="120.952,-544.539 220.966,-544.539 "/>
<text text-anchor="start" x="128.952" y="-532.539" font-family="Monaco" font-size="10.00">+ byteOrder</text>
<text text-anchor="start" x="128.952" y="-519.204" font-family="Monaco" font-size="10.00">+ numPoints</text>
<text text-anchor="start" x="128.952" y="-505.869" font-family="Monaco" font-size="10.00">+ wkbType</text>
<polyline fill="none" stroke="black" points="120.952,-496.534 220.966,-496.534 "/>
<text text-anchor="middle" x="170.959" y="-484.534" font-family="Monaco" font-size="10.00"> </text>
</a>
</g>
</g>
<!-- Node3&#45;&gt;Node1 -->
<g id="edge7" class="edge"><title>Node3&#45;&gt;Node1</title>
<path fill="none" stroke="#404040" d="M120.763,-481.331C56.4237,-427.767 -40.1544,-328.692 18.9461,-255.35 68.0863,-194.368 306.896,-179.384 417.512,-175.706"/>
<polygon fill="none" stroke="#404040" points="417.718,-175.7 423.591,-171.517 429.712,-175.329 423.838,-179.513 417.718,-175.7"/>
<text text-anchor="middle" x="57.9652" y="-299.854" font-family="Monaco" font-size="10.00"> +linestringz</text>
</g>
<!-- Node3&#45;&gt;Node2 -->
<g id="edge2" class="edge"><title>Node3&#45;&gt;Node2</title>
<path fill="none" stroke="#404040" d="M170.959,-475.028C170.959,-441.477 170.959,-395.213 170.959,-358.992"/>
<polygon fill="none" stroke="#404040" points="170.959,-358.636 166.959,-352.636 170.959,-346.636 174.959,-352.636 170.959,-358.636"/>
<text text-anchor="middle" x="209.965" y="-409.529" font-family="Monaco" font-size="10.00"> +lineStrings</text>
</g>
<!-- Node4 -->
<g id="node4" class="node"><title>Node4</title>
<g id="a_node4"><a xlink:href="../../d6/d0c/struct_point_z.html" target="_top" xlink:title="The PointZ struct. ">
<polygon fill="none" stroke="black" points="280.956,-730.549 280.956,-821.224 332.962,-821.224 332.962,-730.549 280.956,-730.549"/>
<text text-anchor="middle" x="306.959" y="-809.224" font-family="Monaco" font-size="10.00">PointZ</text>
<polyline fill="none" stroke="black" points="280.956,-799.889 332.962,-799.889 "/>
<text text-anchor="start" x="288.956" y="-787.889" font-family="Monaco" font-size="10.00">+ x</text>
<text text-anchor="start" x="288.956" y="-774.554" font-family="Monaco" font-size="10.00">+ y</text>
<text text-anchor="start" x="288.956" y="-761.219" font-family="Monaco" font-size="10.00">+ z</text>
<polyline fill="none" stroke="black" points="280.956,-751.884 332.962,-751.884 "/>
<text text-anchor="middle" x="306.959" y="-739.884" font-family="Monaco" font-size="10.00"> </text>
</a>
</g>
</g>
<!-- Node4&#45;&gt;Node3 -->
<g id="edge3" class="edge"><title>Node4&#45;&gt;Node3</title>
<path fill="none" stroke="#404040" d="M282.181,-730.43C273.503,-714.754 263.735,-696.984 254.951,-680.714 236.376,-646.309 215.892,-607.507 199.803,-576.826"/>
<polygon fill="none" stroke="#404040" points="199.655,-576.543 193.327,-573.085 194.086,-565.914 200.414,-569.372 199.655,-576.543"/>
<text text-anchor="middle" x="278.963" y="-646.879" font-family="Monaco" font-size="10.00"> +points</text>
</g>
<!-- Node6 -->
<g id="node6" class="node"><title>Node6</title>
<g id="a_node6"><a xlink:href="../../d1/d27/struct_w_k_b_point_z.html" target="_top" xlink:title="The WKBPointZ struct. ">
<polygon fill="none" stroke="black" points="265.953,-481.867 265.953,-559.207 347.964,-559.207 347.964,-481.867 265.953,-481.867"/>
<text text-anchor="middle" x="306.959" y="-547.207" font-family="Monaco" font-size="10.00">WKBPointZ</text>
<polyline fill="none" stroke="black" points="265.953,-537.872 347.964,-537.872 "/>
<text text-anchor="start" x="273.953" y="-525.872" font-family="Monaco" font-size="10.00">+ byteOrder</text>
<text text-anchor="start" x="273.953" y="-512.537" font-family="Monaco" font-size="10.00">+ wkbType</text>
<polyline fill="none" stroke="black" points="265.953,-503.202 347.964,-503.202 "/>
<text text-anchor="middle" x="306.959" y="-491.202" font-family="Monaco" font-size="10.00"> </text>
</a>
</g>
</g>
<!-- Node4&#45;&gt;Node6 -->
<g id="edge6" class="edge"><title>Node4&#45;&gt;Node6</title>
<path fill="none" stroke="#404040" d="M306.959,-730.466C306.959,-686.008 306.959,-617.735 306.959,-571.435"/>
<polygon fill="none" stroke="#404040" points="306.959,-571.289 302.959,-565.289 306.959,-559.289 310.959,-565.289 306.959,-571.289"/>
<text text-anchor="middle" x="327.962" y="-646.879" font-family="Monaco" font-size="10.00"> +point</text>
</g>
<!-- Node8 -->
<g id="node8" class="node"><title>Node8</title>
<g id="a_node8"><a xlink:href="../../d2/d2c/struct_linear_ring_z.html" target="_top" xlink:title="The LinearRingZ struct. ">
<polygon fill="none" stroke="black" points="617.953,-616.209 617.953,-680.214 699.964,-680.214 699.964,-616.209 617.953,-616.209"/>
<text text-anchor="middle" x="658.959" y="-668.214" font-family="Monaco" font-size="10.00">LinearRingZ</text>
<polyline fill="none" stroke="black" points="617.953,-658.879 699.964,-658.879 "/>
<text text-anchor="start" x="625.953" y="-646.879" font-family="Monaco" font-size="10.00">+ numPoints</text>
<polyline fill="none" stroke="black" points="617.953,-637.544 699.964,-637.544 "/>
<text text-anchor="middle" x="658.959" y="-625.544" font-family="Monaco" font-size="10.00"> </text>
</a>
</g>
</g>
<!-- Node4&#45;&gt;Node8 -->
<g id="edge10" class="edge"><title>Node4&#45;&gt;Node8</title>
<path fill="none" stroke="#404040" d="M333.128,-765.543C390.75,-744.97 529.537,-695.419 606.077,-668.092"/>
<polygon fill="none" stroke="#404040" points="606.504,-667.939 610.81,-662.155 617.805,-663.905 613.5,-669.689 606.504,-667.939"/>
<text text-anchor="middle" x="537.963" y="-704.049" font-family="Monaco" font-size="10.00"> +points</text>
</g>
<!-- Node5 -->
<g id="node5" class="node"><title>Node5</title>
<g id="a_node5"><a xlink:href="../../d5/d23/struct_w_k_b_multi_point_z.html" target="_top" xlink:title="The WKBMultiPointZ struct. ">
<polygon fill="none" stroke="black" points="337.952,-255.85 337.952,-346.524 437.966,-346.524 437.966,-255.85 337.952,-255.85"/>
<text text-anchor="middle" x="387.959" y="-334.524" font-family="Monaco" font-size="10.00">WKBMultiPointZ</text>
<polyline fill="none" stroke="black" points="337.952,-325.189 437.966,-325.189 "/>
<text text-anchor="start" x="345.952" y="-313.189" font-family="Monaco" font-size="10.00">+ byteOrder</text>
<text text-anchor="start" x="345.952" y="-299.854" font-family="Monaco" font-size="10.00">+ numPoints</text>
<text text-anchor="start" x="345.952" y="-286.52" font-family="Monaco" font-size="10.00">+ wkbType</text>
<polyline fill="none" stroke="black" points="337.952,-277.185 437.966,-277.185 "/>
<text text-anchor="middle" x="387.959" y="-265.185" font-family="Monaco" font-size="10.00"> </text>
</a>
</g>
</g>
<!-- Node5&#45;&gt;Node1 -->
<g id="edge4" class="edge"><title>Node5&#45;&gt;Node1</title>
<path fill="none" stroke="#404040" d="M392.948,-255.711C395.619,-244.715 399.706,-233.406 405.95,-224.015 409.939,-218.016 414.915,-212.491 420.351,-207.48"/>
<polygon fill="none" stroke="#404040" points="420.636,-207.241 422.67,-200.323 429.839,-199.539 427.805,-206.457 420.636,-207.241"/>
<text text-anchor="middle" x="432.963" y="-229.35" font-family="Monaco" font-size="10.00"> +mpointz</text>
</g>
<!-- Node6&#45;&gt;Node1 -->
<g id="edge13" class="edge"><title>Node6&#45;&gt;Node1</title>
<path fill="none" stroke="#404040" d="M289.293,-481.771C266.524,-426.968 234.998,-324.417 280.951,-255.35 311.182,-209.912 372.397,-189.965 417.821,-181.238"/>
<polygon fill="none" stroke="#404040" points="418.064,-181.196 423.277,-176.214 429.881,-179.11 424.667,-184.092 418.064,-181.196"/>
<text text-anchor="middle" x="304.963" y="-299.854" font-family="Monaco" font-size="10.00"> +pointz</text>
</g>
<!-- Node6&#45;&gt;Node5 -->
<g id="edge5" class="edge"><title>Node6&#45;&gt;Node5</title>
<path fill="none" stroke="#404040" d="M321.068,-481.677C333.761,-447.618 352.579,-397.123 367.025,-358.359"/>
<polygon fill="none" stroke="#404040" points="367.166,-357.981 365.513,-350.962 371.356,-346.736 373.009,-353.756 367.166,-357.981"/>
<text text-anchor="middle" x="388.963" y="-409.529" font-family="Monaco" font-size="10.00"> +points</text>
</g>
<!-- Node7 -->
<g id="node7" class="node"><title>Node7</title>
<g id="a_node7"><a xlink:href="../../db/dad/struct_w_k_b_polygon_z.html" target="_top" xlink:title="The WKBPolygonZ struct. ">
<polygon fill="none" stroke="black" points="617.953,-475.199 617.953,-565.874 699.964,-565.874 699.964,-475.199 617.953,-475.199"/>
<text text-anchor="middle" x="658.959" y="-553.874" font-family="Monaco" font-size="10.00">WKBPolygonZ</text>
<polyline fill="none" stroke="black" points="617.953,-544.539 699.964,-544.539 "/>
<text text-anchor="start" x="625.953" y="-532.539" font-family="Monaco" font-size="10.00">+ byteOrder</text>
<text text-anchor="start" x="625.953" y="-519.204" font-family="Monaco" font-size="10.00">+ numRings</text>
<text text-anchor="start" x="625.953" y="-505.869" font-family="Monaco" font-size="10.00">+ wkbType</text>
<polyline fill="none" stroke="black" points="617.953,-496.534 699.964,-496.534 "/>
<text text-anchor="middle" x="658.959" y="-484.534" font-family="Monaco" font-size="10.00"> </text>
</a>
</g>
</g>
<!-- Node7&#45;&gt;Node1 -->
<g id="edge8" class="edge"><title>Node7&#45;&gt;Node1</title>
<path fill="none" stroke="#404040" d="M617.893,-493.221C575.531,-463.476 511.714,-410.794 482.949,-347.024 464.472,-306.063 464.544,-253.953 467.782,-217.778"/>
<polygon fill="none" stroke="#404040" points="467.797,-217.627 464.437,-211.247 469.034,-205.691 472.394,-212.071 467.797,-217.627"/>
<text text-anchor="middle" x="511.964" y="-299.854" font-family="Monaco" font-size="10.00"> +polygonz</text>
</g>
<!-- Node10 -->
<g id="node10" class="node"><title>Node10</title>
<g id="a_node10"><a xlink:href="../../d9/df0/struct_w_k_b_t_i_n_z.html" target="_top" xlink:title="The WKBTINZ struct. ">
<polygon fill="none" stroke="black" points="551.952,-255.85 551.952,-346.524 645.965,-346.524 645.965,-255.85 551.952,-255.85"/>
<text text-anchor="middle" x="598.959" y="-334.524" font-family="Monaco" font-size="10.00">WKBTINZ</text>
<polyline fill="none" stroke="black" points="551.952,-325.189 645.965,-325.189 "/>
<text text-anchor="start" x="559.952" y="-313.189" font-family="Monaco" font-size="10.00">+ byteOrder</text>
<text text-anchor="start" x="559.952" y="-299.854" font-family="Monaco" font-size="10.00">+ numPolygons</text>
<text text-anchor="start" x="559.952" y="-286.52" font-family="Monaco" font-size="10.00">+ wkbType</text>
<polyline fill="none" stroke="black" points="551.952,-277.185 645.965,-277.185 "/>
<text text-anchor="middle" x="598.959" y="-265.185" font-family="Monaco" font-size="10.00"> </text>
</a>
</g>
</g>
<!-- Node7&#45;&gt;Node10 -->
<g id="edge15" class="edge"><title>Node7&#45;&gt;Node10</title>
<path fill="none" stroke="#404040" d="M635.081,-474.856C632.419,-468.856 629.951,-462.7 627.949,-456.699 617.408,-425.096 610.328,-388.503 605.805,-358.863"/>
<polygon fill="none" stroke="#404040" points="605.752,-358.495 600.928,-353.134 604.021,-346.62 608.845,-351.98 605.752,-358.495"/>
<text text-anchor="middle" x="656.964" y="-409.529" font-family="Monaco" font-size="10.00"> +polygons</text>
</g>
<!-- Node11 -->
<g id="node11" class="node"><title>Node11</title>
<g id="a_node11"><a xlink:href="../../de/dad/struct_w_k_b_multi_polygon_z.html" target="_top" xlink:title="The WKBMultiPolygonZ struct. ">
<polygon fill="none" stroke="black" points="663.951,-255.85 663.951,-346.524 775.967,-346.524 775.967,-255.85 663.951,-255.85"/>
<text text-anchor="middle" x="719.959" y="-334.524" font-family="Monaco" font-size="10.00">WKBMultiPolygonZ</text>
<polyline fill="none" stroke="black" points="663.951,-325.189 775.967,-325.189 "/>
<text text-anchor="start" x="671.951" y="-313.189" font-family="Monaco" font-size="10.00">+ byteOrder</text>
<text text-anchor="start" x="671.951" y="-299.854" font-family="Monaco" font-size="10.00">+ numPolygons</text>
<text text-anchor="start" x="671.951" y="-286.52" font-family="Monaco" font-size="10.00">+ wkbType</text>
<polyline fill="none" stroke="black" points="663.951,-277.185 775.967,-277.185 "/>
<text text-anchor="middle" x="719.959" y="-265.185" font-family="Monaco" font-size="10.00"> </text>
</a>
</g>
</g>
<!-- Node7&#45;&gt;Node11 -->
<g id="edge17" class="edge"><title>Node7&#45;&gt;Node11</title>
<path fill="none" stroke="#404040" d="M680.985,-475.073C683.555,-468.984 685.966,-462.747 687.959,-456.699 698.386,-425.055 706.128,-388.602 711.383,-359.053"/>
<polygon fill="none" stroke="#404040" points="711.449,-358.673 708.524,-352.081 713.484,-346.846 716.408,-353.438 711.449,-358.673"/>
<text text-anchor="middle" x="739.964" y="-409.529" font-family="Monaco" font-size="10.00"> +polygons</text>
</g>
<!-- Node12 -->
<g id="node12" class="node"><title>Node12</title>
<g id="a_node12"><a xlink:href="../../d7/d2f/struct_w_k_b_polyhedral_surface_z.html" target="_top" xlink:title="The WKBPolyhedralSurfaceZ struct. ">
<polygon fill="none" stroke="black" points="793.949,-255.85 793.949,-346.524 935.969,-346.524 935.969,-255.85 793.949,-255.85"/>
<text text-anchor="middle" x="864.959" y="-334.524" font-family="Monaco" font-size="10.00">WKBPolyhedralSurfaceZ</text>
<polyline fill="none" stroke="black" points="793.949,-325.189 935.969,-325.189 "/>
<text text-anchor="start" x="801.949" y="-313.189" font-family="Monaco" font-size="10.00">+ byteOrder</text>
<text text-anchor="start" x="801.949" y="-299.854" font-family="Monaco" font-size="10.00">+ numPolygons</text>
<text text-anchor="start" x="801.949" y="-286.52" font-family="Monaco" font-size="10.00">+ wkbType</text>
<polyline fill="none" stroke="black" points="793.949,-277.185 935.969,-277.185 "/>
<text text-anchor="middle" x="864.959" y="-265.185" font-family="Monaco" font-size="10.00"> </text>
</a>
</g>
</g>
<!-- Node7&#45;&gt;Node12 -->
<g id="edge19" class="edge"><title>Node7&#45;&gt;Node12</title>
<path fill="none" stroke="#404040" d="M700.218,-503.56C723.838,-492.912 752.875,-477.116 773.959,-456.699 802.867,-428.706 825.783,-389.589 841.387,-357.719"/>
<polygon fill="none" stroke="#404040" points="841.438,-357.612 840.408,-350.475 846.6,-346.778 847.63,-353.915 841.438,-357.612"/>
<text text-anchor="middle" x="866.964" y="-409.529" font-family="Monaco" font-size="10.00"> +polygons</text>
</g>
<!-- Node8&#45;&gt;Node7 -->
<g id="edge9" class="edge"><title>Node8&#45;&gt;Node7</title>
<path fill="none" stroke="#404040" d="M658.959,-616.146C658.959,-604.688 658.959,-591.319 658.959,-578.3"/>
<polygon fill="none" stroke="#404040" points="658.959,-578 654.959,-572 658.959,-566 662.959,-572 658.959,-578"/>
<text text-anchor="middle" x="679.962" y="-589.709" font-family="Monaco" font-size="10.00"> +rings</text>
</g>
<!-- Node13 -->
<g id="node13" class="node"><title>Node13</title>
<g id="a_node13"><a xlink:href="../../d4/d22/struct_w_k_b_triangle_z.html" target="_top" xlink:title="The WKBTriangleZ struct. ">
<polygon fill="none" stroke="black" points="916.953,-365.524 916.953,-456.199 1004.96,-456.199 1004.96,-365.524 916.953,-365.524"/>
<text text-anchor="middle" x="960.959" y="-444.199" font-family="Monaco" font-size="10.00">WKBTriangleZ</text>
<polyline fill="none" stroke="black" points="916.953,-434.864 1004.96,-434.864 "/>
<text text-anchor="start" x="924.953" y="-422.864" font-family="Monaco" font-size="10.00">+ byteOrder</text>
<text text-anchor="start" x="924.953" y="-409.529" font-family="Monaco" font-size="10.00">+ numRings</text>
<text text-anchor="start" x="924.953" y="-396.194" font-family="Monaco" font-size="10.00">+ wkbType</text>
<polyline fill="none" stroke="black" points="916.953,-386.859 1004.96,-386.859 "/>
<text text-anchor="middle" x="960.959" y="-374.859" font-family="Monaco" font-size="10.00"> </text>
</a>
</g>
</g>
<!-- Node8&#45;&gt;Node13 -->
<g id="edge21" class="edge"><title>Node8&#45;&gt;Node13</title>
<path fill="none" stroke="#404040" d="M698.751,-616.202C752.157,-574.582 847.21,-500.507 907.014,-453.901"/>
<polygon fill="none" stroke="#404040" points="907.196,-453.759 909.47,-446.916 916.661,-446.383 914.387,-453.226 907.196,-453.759"/>
<text text-anchor="middle" x="755.962" y="-589.709" font-family="Monaco" font-size="10.00"> +rings</text>
</g>
<!-- Node9&#45;&gt;Node1 -->
<g id="edge11" class="edge"><title>Node9&#45;&gt;Node1</title>
<path fill="none" stroke="#404040" d="M498.217,-91.5629C501.243,-101.797 502.502,-112.699 499.959,-123.01 499.36,-125.44 498.617,-127.882 497.767,-130.31"/>
<polygon fill="none" stroke="#404040" points="497.737,-130.383 499.127,-137.459 493.13,-141.464 491.74,-134.388 497.737,-130.383"/>
<text text-anchor="middle" x="539.965" y="-115.01" font-family="Monaco" font-size="10.00"> +collectionz</text>
</g>
<!-- Node10&#45;&gt;Node1 -->
<g id="edge14" class="edge"><title>Node10&#45;&gt;Node1</title>
<path fill="none" stroke="#404040" d="M554.537,-255.525C541.195,-242.111 526.651,-227.489 513.637,-214.404"/>
<polygon fill="none" stroke="#404040" points="513.368,-214.134 506.301,-212.701 504.905,-205.626 511.973,-207.059 513.368,-214.134"/>
<text text-anchor="middle" x="553.962" y="-229.35" font-family="Monaco" font-size="10.00"> +tinz</text>
</g>
<!-- Node11&#45;&gt;Node1 -->
<g id="edge16" class="edge"><title>Node11&#45;&gt;Node1</title>
<path fill="none" stroke="#404040" d="M663.633,-260.429C660.729,-258.665 657.827,-256.961 654.959,-255.35 614.349,-232.531 566.085,-211.244 529.612,-196.248"/>
<polygon fill="none" stroke="#404040" points="529.323,-196.13 522.258,-197.573 518.209,-191.606 525.274,-190.163 529.323,-196.13"/>
<text text-anchor="middle" x="648.964" y="-229.35" font-family="Monaco" font-size="10.00"> +mpolygonz</text>
</g>
<!-- Node12&#45;&gt;Node1 -->
<g id="edge18" class="edge"><title>Node12&#45;&gt;Node1</title>
<path fill="none" stroke="#404040" d="M793.797,-259.354C790.835,-257.956 787.881,-256.615 784.959,-255.35 699.771,-218.457 593.924,-195.37 530.271,-183.729"/>
<polygon fill="none" stroke="#404040" points="529.933,-183.669 523.322,-186.548 518.121,-181.553 524.732,-178.674 529.933,-183.669"/>
<text text-anchor="middle" x="795.969" y="-229.35" font-family="Monaco" font-size="10.00"> +Polyhedralsurfacez</text>
</g>
<!-- Node13&#45;&gt;Node1 -->
<g id="edge20" class="edge"><title>Node13&#45;&gt;Node1</title>
<path fill="none" stroke="#404040" d="M968.073,-365.324C970.894,-331.701 968.947,-286.232 944.959,-255.35 894.984,-191.01 644.499,-177.812 530.553,-175.155"/>
<polygon fill="none" stroke="#404040" points="530.329,-175.15 524.247,-179.023 518.332,-174.898 524.415,-171.025 530.329,-175.15"/>
<text text-anchor="middle" x="1001.96" y="-299.854" font-family="Monaco" font-size="10.00"> +trianglez</text>
</g>
</g>
</svg>
        <g id="navigator" transform="translate(0 0)" fill="#404254">
                <rect fill="#f2f5e9" fill-opacity="0.5" stroke="#606060" stroke-width=".5" x="0" y="0" width="60" height="60"/>
                <use id="zoomplus" xlink:href="#zoomPlus" x="17" y="9" onmousedown="handleZoom(evt,'in')"/>
                <use id="zoomminus" xlink:href="#zoomMin" x="42" y="9" onmousedown="handleZoom(evt,'out')"/>
                <use id="reset" xlink:href="#resetDef" x="30" y="36" onmousedown="handleReset()"/>
                <g id="arrowUp" xlink:href="#dirArrow" transform="translate(30 24)" onmousedown="handlePan(0,-1)">
                  <use xlink:href="#rim" fill="#404040">
                        <set attributeName="fill" to="#808080" begin="arrowUp.mouseover" end="arrowUp.mouseout"/>
                  </use>
                  <path fill="none" stroke="white" stroke-width="1.5" d="M0,-3.0v7 M-2.5,-0.5L0,-3.0L2.5,-0.5"/>
                </g>
                <g id="arrowRight" xlink:href="#dirArrow" transform="rotate(90) translate(36 -43)" onmousedown="handlePan(1,0)">
                  <use xlink:href="#rim" fill="#404040">
                        <set attributeName="fill" to="#808080" begin="arrowRight.mouseover" end="arrowRight.mouseout"/>
                  </use>
                  <path fill="none" stroke="white" stroke-width="1.5" d="M0,-3.0v7 M-2.5,-0.5L0,-3.0L2.5,-0.5"/>
                </g>
                <g id="arrowDown" xlink:href="#dirArrow" transform="rotate(180) translate(-30 -48)" onmousedown="handlePan(0,1)">
                  <use xlink:href="#rim" fill="#404040">
                        <set attributeName="fill" to="#808080" begin="arrowDown.mouseover" end="arrowDown.mouseout"/>
                  </use>
                  <path fill="none" stroke="white" stroke-width="1.5" d="M0,-3.0v7 M-2.5,-0.5L0,-3.0L2.5,-0.5"/>
                </g>
                <g id="arrowLeft" xlink:href="#dirArrow" transform="rotate(270) translate(-36 17)" onmousedown="handlePan(-1,0)">
                  <use xlink:href="#rim" fill="#404040">
                        <set attributeName="fill" to="#808080" begin="arrowLeft.mouseover" end="arrowLeft.mouseout"/>
                  </use>
                  <path fill="none" stroke="white" stroke-width="1.5" d="M0,-3.0v7 M-2.5,-0.5L0,-3.0L2.5,-0.5"/>
                </g>
        </g>
        <svg viewBox="0 0 15 15" width="100%" height="30px" preserveAspectRatio="xMaxYMin meet">
         <g id="arrow_out" transform="scale(0.3 0.3)">
          <a xlink:href="union_w_k_b_geometry_z__coll__graph_org.svg" target="_base">
           <rect id="button" ry="5" rx="5" y="6" x="6" height="38" width="38"
                fill="#f2f5e9" fill-opacity="0.5" stroke="#606060" stroke-width="1.0"/>
           <path id="arrow"
             d="M 11.500037,31.436501 C 11.940474,20.09759 22.043105,11.32322 32.158766,21.979434 L 37.068811,17.246167 C 37.068811,17.246167 37.088388,32 37.088388,32 L 22.160133,31.978069 C 22.160133,31.978069 26.997745,27.140456 26.997745,27.140456 C 18.528582,18.264221 13.291696,25.230495 11.500037,31.436501 z"
             style="fill:#404040;"/>
          </a>
         </g>
        </svg>
</svg>
