<?xml version="1.0" encoding="UTF-8" standalone="no"?>
<!DOCTYPE svg PUBLIC "-//W3C//DTD SVG 1.1//EN"
 "http://www.w3.org/Graphics/SVG/1.1/DTD/svg11.dtd">
<!-- Generated by graphviz version 2.38.0 (20140413.2041)
 -->
<!-- Title: WKBPolyhedralSurface Pages: 1 -->
<svg width="144pt" height="483pt"
 viewBox="0.00 0.00 144.02 482.70" xmlns="http://www.w3.org/2000/svg" xmlns:xlink="http://www.w3.org/1999/xlink">
<g id="graph0" class="graph" transform="scale(1 1) rotate(0) translate(4 478.699)">
<title>WKBPolyhedralSurface</title>
<!-- Node1 -->
<g id="node1" class="node"><title>Node1</title>
<polygon fill="#bfbfbf" stroke="black" points="0,-0.5 0,-91.1748 136.02,-91.1748 136.02,-0.5 0,-0.5"/>
<text text-anchor="middle" x="68.0098" y="-79.1748" font-family="Monaco" font-size="10.00">WKBPolyhedralSurface</text>
<polyline fill="none" stroke="black" points="0,-69.8398 136.02,-69.8398 "/>
<text text-anchor="start" x="8" y="-57.8398" font-family="Monaco" font-size="10.00">+ byteOrder</text>
<text text-anchor="start" x="8" y="-44.5049" font-family="Monaco" font-size="10.00">+ numPolygons</text>
<text text-anchor="start" x="8" y="-31.1699" font-family="Monaco" font-size="10.00">+ wkbType</text>
<polyline fill="none" stroke="black" points="0,-21.835 136.02,-21.835 "/>
<text text-anchor="middle" x="68.0098" y="-9.83496" font-family="Monaco" font-size="10.00"> </text>
</g>
<!-- Node2 -->
<g id="node2" class="node"><title>Node2</title>
<g id="a_node2"><a xlink:href="../../df/df9/struct_w_k_b_polygon.html" target="_top" xlink:title="The WKBPolygon struct. ">
<polygon fill="none" stroke="black" points="27.0044,-141.51 27.0044,-232.185 109.015,-232.185 109.015,-141.51 27.0044,-141.51"/>
<text text-anchor="middle" x="68.0098" y="-220.185" font-family="Monaco" font-size="10.00">WKBPolygon</text>
<polyline fill="none" stroke="black" points="27.0044,-210.85 109.015,-210.85 "/>
<text text-anchor="start" x="35.0044" y="-198.85" font-family="Monaco" font-size="10.00">+ byteOrder</text>
<text text-anchor="start" x="35.0044" y="-185.515" font-family="Monaco" font-size="10.00">+ numRings</text>
<text text-anchor="start" x="35.0044" y="-172.18" font-family="Monaco" font-size="10.00">+ wkbType</text>
<polyline fill="none" stroke="black" points="27.0044,-162.845 109.015,-162.845 "/>
<text text-anchor="middle" x="68.0098" y="-150.845" font-family="Monaco" font-size="10.00"> </text>
</a>
</g>
</g>
<!-- Node2&#45;&gt;Node1 -->
<g id="edge1" class="edge"><title>Node2&#45;&gt;Node1</title>
<path fill="none" stroke="#404040" d="M68.0098,-141.481C68.0098,-129.444 68.0098,-116.243 68.0098,-103.622"/>
<polygon fill="none" stroke="#404040" points="68.0099,-103.258 64.0098,-97.2585 68.0098,-91.2585 72.0098,-97.2584 68.0099,-103.258"/>
<text text-anchor="middle" x="98.0146" y="-115.01" font-family="Monaco" font-size="10.00"> +polygons</text>
</g>
<!-- Node3 -->
<g id="node3" class="node"><title>Node3</title>
<g id="a_node3"><a xlink:href="../../d6/db5/struct_linear_ring.html" target="_top" xlink:title="The LinearRing struct. ">
<polygon fill="none" stroke="black" points="27.0044,-282.52 27.0044,-346.524 109.015,-346.524 109.015,-282.52 27.0044,-282.52"/>
<text text-anchor="middle" x="68.0098" y="-334.524" font-family="Monaco" font-size="10.00">LinearRing</text>
<polyline fill="none" stroke="black" points="27.0044,-325.189 109.015,-325.189 "/>
<text text-anchor="start" x="35.0044" y="-313.189" font-family="Monaco" font-size="10.00">+ numPoints</text>
<polyline fill="none" stroke="black" points="27.0044,-303.854 109.015,-303.854 "/>
<text text-anchor="middle" x="68.0098" y="-291.854" font-family="Monaco" font-size="10.00"> </text>
</a>
</g>
</g>
<!-- Node3&#45;&gt;Node2 -->
<g id="edge2" class="edge"><title>Node3&#45;&gt;Node2</title>
<path fill="none" stroke="#404040" d="M68.0098,-282.456C68.0098,-270.999 68.0098,-257.629 68.0098,-244.611"/>
<polygon fill="none" stroke="#404040" points="68.0099,-244.31 64.0098,-238.31 68.0098,-232.31 72.0098,-238.31 68.0099,-244.31"/>
<text text-anchor="middle" x="89.0132" y="-256.02" font-family="Monaco" font-size="10.00"> +rings</text>
</g>
<!-- Node4 -->
<g id="node4" class="node"><title>Node4</title>
<g id="a_node4"><a xlink:href="../../d8/dc8/struct_point.html" target="_top" xlink:title="The Point struct. ">
<polygon fill="none" stroke="black" points="45.0073,-396.859 45.0073,-474.199 91.0122,-474.199 91.0122,-396.859 45.0073,-396.859"/>
<text text-anchor="middle" x="68.0098" y="-462.199" font-family="Monaco" font-size="10.00">Point</text>
<polyline fill="none" stroke="black" points="45.0073,-452.864 91.0122,-452.864 "/>
<text text-anchor="start" x="53.0073" y="-440.864" font-family="Monaco" font-size="10.00">+ x</text>
<text text-anchor="start" x="53.0073" y="-427.529" font-family="Monaco" font-size="10.00">+ y</text>
<polyline fill="none" stroke="black" points="45.0073,-418.194 91.0122,-418.194 "/>
<text text-anchor="middle" x="68.0098" y="-406.194" font-family="Monaco" font-size="10.00"> </text>
</a>
</g>
</g>
<!-- Node4&#45;&gt;Node3 -->
<g id="edge3" class="edge"><title>Node4&#45;&gt;Node3</title>
<path fill="none" stroke="#404040" d="M68.0098,-396.547C68.0098,-384.633 68.0098,-371.387 68.0098,-359.116"/>
<polygon fill="none" stroke="#404040" points="68.0099,-358.778 64.0098,-352.778 68.0098,-346.778 72.0098,-352.778 68.0099,-358.778"/>
<text text-anchor="middle" x="92.0137" y="-370.359" font-family="Monaco" font-size="10.00"> +points</text>
</g>
</g>
</svg>
