<?xml version="1.0" encoding="UTF-8" standalone="no"?>
<!DOCTYPE svg PUBLIC "-//W3C//DTD SVG 1.1//EN"
 "http://www.w3.org/Graphics/SVG/1.1/DTD/svg11.dtd">
<!-- Generated by graphviz version 2.38.0 (20140413.2041)
 -->
<!-- Title: LinearRing Pages: 1 -->
<svg width="97pt" height="201pt"
 viewBox="0.00 0.00 97.01 200.68" xmlns="http://www.w3.org/2000/svg" xmlns:xlink="http://www.w3.org/1999/xlink">
<g id="graph0" class="graph" transform="scale(1 1) rotate(0) translate(4 196.68)">
<title>LinearRing</title>
<!-- Node1 -->
<g id="node1" class="node"><title>Node1</title>
<polygon fill="#bfbfbf" stroke="black" points="0,-0.5 0,-64.5049 82.0107,-64.5049 82.0107,-0.5 0,-0.5"/>
<text text-anchor="middle" x="41.0054" y="-52.5049" font-family="Monaco" font-size="10.00">LinearRing</text>
<polyline fill="none" stroke="black" points="0,-43.1699 82.0107,-43.1699 "/>
<text text-anchor="start" x="8" y="-31.1699" font-family="Monaco" font-size="10.00">+ numPoints</text>
<polyline fill="none" stroke="black" points="0,-21.835 82.0107,-21.835 "/>
<text text-anchor="middle" x="41.0054" y="-9.83496" font-family="Monaco" font-size="10.00"> </text>
</g>
<!-- Node2 -->
<g id="node2" class="node"><title>Node2</title>
<g id="a_node2"><a xlink:href="../../d8/dc8/struct_point.html" target="_top" xlink:title="The Point struct. ">
<polygon fill="none" stroke="black" points="18.0029,-114.84 18.0029,-192.18 64.0078,-192.18 64.0078,-114.84 18.0029,-114.84"/>
<text text-anchor="middle" x="41.0054" y="-180.18" font-family="Monaco" font-size="10.00">Point</text>
<polyline fill="none" stroke="black" points="18.0029,-170.845 64.0078,-170.845 "/>
<text text-anchor="start" x="26.0029" y="-158.845" font-family="Monaco" font-size="10.00">+ x</text>
<text text-anchor="start" x="26.0029" y="-145.51" font-family="Monaco" font-size="10.00">+ y</text>
<polyline fill="none" stroke="black" points="18.0029,-136.175 64.0078,-136.175 "/>
<text text-anchor="middle" x="41.0054" y="-124.175" font-family="Monaco" font-size="10.00"> </text>
</a>
</g>
</g>
<!-- Node2&#45;&gt;Node1 -->
<g id="edge1" class="edge"><title>Node2&#45;&gt;Node1</title>
<path fill="none" stroke="#404040" d="M41.0054,-114.528C41.0054,-102.613 41.0054,-89.3677 41.0054,-77.0966"/>
<polygon fill="none" stroke="#404040" points="41.0055,-76.7581 37.0054,-70.7581 41.0054,-64.7581 45.0054,-70.758 41.0055,-76.7581"/>
<text text-anchor="middle" x="65.0093" y="-88.3398" font-family="Monaco" font-size="10.00"> +points</text>
</g>
</g>
</svg>
