<?xml version="1.0" encoding="UTF-8" standalone="no"?>
<!DOCTYPE svg PUBLIC "-//W3C//DTD SVG 1.1//EN"
 "http://www.w3.org/Graphics/SVG/1.1/DTD/svg11.dtd">
<!-- Generated by graphviz version 2.38.0 (20140413.2041)
 -->
<!-- Title: HydroCouple::IModelComponentInfo Pages: 1 -->
<svg width="216pt" height="730pt"
 viewBox="0.00 0.00 216.03 730.39" xmlns="http://www.w3.org/2000/svg" xmlns:xlink="http://www.w3.org/1999/xlink">
<g id="graph0" class="graph" transform="scale(1 1) rotate(0) translate(4 726.389)">
<title>HydroCouple::IModelComponentInfo</title>
<!-- Node1 -->
<g id="node1" class="node"><title>Node1</title>
<polygon fill="#bfbfbf" stroke="black" points="0,-0.5 0,-77.8398 208.031,-77.8398 208.031,-0.5 0,-0.5"/>
<text text-anchor="middle" x="104.016" y="-65.8398" font-family="Monaco" font-size="10.00">HydroCouple::IModelComponentInfo</text>
<polyline fill="none" stroke="black" points="0,-56.5049 208.031,-56.5049 "/>
<text text-anchor="middle" x="104.016" y="-44.5049" font-family="Monaco" font-size="10.00"> </text>
<polyline fill="none" stroke="black" points="0,-35.1699 208.031,-35.1699 "/>
<text text-anchor="start" x="8" y="-23.1699" font-family="Monaco" font-size="10.00">+ ~IModelComponentInfo()</text>
<text text-anchor="start" x="8" y="-9.83496" font-family="Monaco" font-size="10.00">+ createComponentInstance()</text>
</g>
<!-- Node2 -->
<g id="node2" class="node"><title>Node2</title>
<g id="a_node2"><a xlink:href="../../d3/dd7/class_hydro_couple_1_1_i_component_info.html" target="_top" xlink:title="IComponentInfo interface class provides detailed metadata about a component. ">
<polygon fill="none" stroke="black" points="15.0024,-114.84 15.0024,-352.199 193.029,-352.199 193.029,-114.84 15.0024,-114.84"/>
<text text-anchor="middle" x="104.016" y="-340.199" font-family="Monaco" font-size="10.00">HydroCouple::IComponentInfo</text>
<polyline fill="none" stroke="black" points="15.0024,-330.864 193.029,-330.864 "/>
<text text-anchor="middle" x="104.016" y="-318.864" font-family="Monaco" font-size="10.00"> </text>
<polyline fill="none" stroke="black" points="15.0024,-309.529 193.029,-309.529 "/>
<text text-anchor="start" x="23.0024" y="-297.529" font-family="Monaco" font-size="10.00">+ ~IComponentInfo()</text>
<text text-anchor="start" x="23.0024" y="-284.194" font-family="Monaco" font-size="10.00">+ libraryFilePath()</text>
<text text-anchor="start" x="23.0024" y="-270.859" font-family="Monaco" font-size="10.00">+ setLibraryFilePath()</text>
<text text-anchor="start" x="23.0024" y="-257.524" font-family="Monaco" font-size="10.00">+ iconFilePath()</text>
<text text-anchor="start" x="23.0024" y="-244.189" font-family="Monaco" font-size="10.00">+ vendor()</text>
<text text-anchor="start" x="23.0024" y="-230.854" font-family="Monaco" font-size="10.00">+ publications()</text>
<text text-anchor="start" x="23.0024" y="-217.52" font-family="Monaco" font-size="10.00">+ license()</text>
<text text-anchor="start" x="23.0024" y="-204.185" font-family="Monaco" font-size="10.00">+ copyright()</text>
<text text-anchor="start" x="23.0024" y="-190.85" font-family="Monaco" font-size="10.00">+ url()</text>
<text text-anchor="start" x="23.0024" y="-177.515" font-family="Monaco" font-size="10.00">+ email()</text>
<text text-anchor="start" x="23.0024" y="-164.18" font-family="Monaco" font-size="10.00">+ version()</text>
<text text-anchor="start" x="23.0024" y="-150.845" font-family="Monaco" font-size="10.00">+ category()</text>
<text text-anchor="start" x="23.0024" y="-137.51" font-family="Monaco" font-size="10.00">+ hasValidLicense()</text>
<text text-anchor="start" x="23.0024" y="-124.175" font-family="Monaco" font-size="10.00">+ validateLicense()</text>
</a>
</g>
</g>
<!-- Node2&#45;&gt;Node1 -->
<g id="edge1" class="edge"><title>Node2&#45;&gt;Node1</title>
<path fill="none" stroke="midnightblue" d="M104.016,-104.691C104.016,-95.1245 104.016,-86.028 104.016,-77.8431"/>
<polygon fill="none" stroke="midnightblue" points="100.516,-104.813 104.016,-114.813 107.516,-104.813 100.516,-104.813"/>
</g>
<!-- Node3 -->
<g id="node3" class="node"><title>Node3</title>
<g id="a_node3"><a xlink:href="../../d2/d2a/class_hydro_couple_1_1_i_identity.html" target="_top" xlink:title="IIdentity interface class defines a method to get the Id of an HydroCouple entity. ">
<polygon fill="none" stroke="black" points="30.0049,-389.199 30.0049,-466.539 178.026,-466.539 178.026,-389.199 30.0049,-389.199"/>
<text text-anchor="middle" x="104.016" y="-454.539" font-family="Monaco" font-size="10.00">HydroCouple::IIdentity</text>
<polyline fill="none" stroke="black" points="30.0049,-445.204 178.026,-445.204 "/>
<text text-anchor="middle" x="104.016" y="-433.204" font-family="Monaco" font-size="10.00"> </text>
<polyline fill="none" stroke="black" points="30.0049,-423.869 178.026,-423.869 "/>
<text text-anchor="start" x="38.0049" y="-411.869" font-family="Monaco" font-size="10.00">+ ~IIdentity()</text>
<text text-anchor="start" x="38.0049" y="-398.534" font-family="Monaco" font-size="10.00">+ id()</text>
</a>
</g>
</g>
<!-- Node3&#45;&gt;Node2 -->
<g id="edge2" class="edge"><title>Node3&#45;&gt;Node2</title>
<path fill="none" stroke="midnightblue" d="M104.016,-378.717C104.016,-370.411 104.016,-361.463 104.016,-352.235"/>
<polygon fill="none" stroke="midnightblue" points="100.516,-378.867 104.016,-388.867 107.516,-378.867 100.516,-378.867"/>
</g>
<!-- Node4 -->
<g id="node4" class="node"><title>Node4</title>
<g id="a_node4"><a xlink:href="../../db/d64/class_hydro_couple_1_1_i_description.html" target="_top" xlink:title="IDescription interface class provides descriptive information on a HydroCouple object. ">
<polygon fill="none" stroke="black" points="21.0034,-503.539 21.0034,-620.884 187.028,-620.884 187.028,-503.539 21.0034,-503.539"/>
<text text-anchor="middle" x="104.016" y="-608.884" font-family="Monaco" font-size="10.00">HydroCouple::IDescription</text>
<polyline fill="none" stroke="black" points="21.0034,-599.549 187.028,-599.549 "/>
<text text-anchor="middle" x="104.016" y="-587.549" font-family="Monaco" font-size="10.00"> </text>
<polyline fill="none" stroke="black" points="21.0034,-578.214 187.028,-578.214 "/>
<text text-anchor="start" x="29.0034" y="-566.214" font-family="Monaco" font-size="10.00">+ ~IDescription()</text>
<text text-anchor="start" x="29.0034" y="-552.879" font-family="Monaco" font-size="10.00">+ caption()</text>
<text text-anchor="start" x="29.0034" y="-539.544" font-family="Monaco" font-size="10.00">+ setCaption()</text>
<text text-anchor="start" x="29.0034" y="-526.209" font-family="Monaco" font-size="10.00">+ description()</text>
<text text-anchor="start" x="29.0034" y="-512.874" font-family="Monaco" font-size="10.00">+ setDescription()</text>
</a>
</g>
</g>
<!-- Node4&#45;&gt;Node3 -->
<g id="edge3" class="edge"><title>Node4&#45;&gt;Node3</title>
<path fill="none" stroke="midnightblue" d="M104.016,-492.973C104.016,-483.934 104.016,-474.947 104.016,-466.687"/>
<polygon fill="none" stroke="midnightblue" points="100.516,-493.164 104.016,-503.164 107.516,-493.164 100.516,-493.164"/>
</g>
<!-- Node5 -->
<g id="node5" class="node"><title>Node5</title>
<g id="a_node5"><a xlink:href="../../dd/dbf/class_hydro_couple_1_1_i_property_changed.html" target="_top" xlink:title="IPropertyChanged interface is used to emit signal/event when a property of an object changes...">
<polygon fill="none" stroke="black" points="9.00146,-657.884 9.00146,-721.889 199.03,-721.889 199.03,-657.884 9.00146,-657.884"/>
<text text-anchor="middle" x="104.016" y="-709.889" font-family="Monaco" font-size="10.00">HydroCouple::IPropertyChanged</text>
<polyline fill="none" stroke="black" points="9.00146,-700.554 199.03,-700.554 "/>
<text text-anchor="middle" x="104.016" y="-688.554" font-family="Monaco" font-size="10.00"> </text>
<polyline fill="none" stroke="black" points="9.00146,-679.219 199.03,-679.219 "/>
<text text-anchor="start" x="17.0015" y="-667.219" font-family="Monaco" font-size="10.00">+ ~IPropertyChanged()</text>
</a>
</g>
</g>
<!-- Node5&#45;&gt;Node4 -->
<g id="edge4" class="edge"><title>Node5&#45;&gt;Node4</title>
<path fill="none" stroke="midnightblue" d="M104.016,-647.563C104.016,-639.178 104.016,-630.212 104.016,-621.37"/>
<polygon fill="none" stroke="midnightblue" points="100.516,-647.821 104.016,-657.821 107.516,-647.821 100.516,-647.821"/>
</g>
</g>
</svg>
