<?xml version="1.0" encoding="UTF-8" standalone="no"?>
<!DOCTYPE svg PUBLIC "-//W3C//DTD SVG 1.1//EN"
 "http://www.w3.org/Graphics/SVG/1.1/DTD/svg11.dtd">
<!-- Generated by graphviz version 2.38.0 (20140413.2041)
 -->
<!-- Title: HydroCouple::IExchangeItem Pages: 1 -->
<svg width="364pt" height="986pt"
 viewBox="0.00 0.00 364.02 985.74" xmlns="http://www.w3.org/2000/svg" xmlns:xlink="http://www.w3.org/1999/xlink">
<g id="graph0" class="graph" transform="scale(1 1) rotate(0) translate(4 981.738)">
<title>HydroCouple::IExchangeItem</title>
<!-- Node1 -->
<g id="node1" class="node"><title>Node1</title>
<polygon fill="#bfbfbf" stroke="black" points="80.999,-362.529 80.999,-426.534 253.024,-426.534 253.024,-362.529 80.999,-362.529"/>
<text text-anchor="middle" x="167.012" y="-414.534" font-family="Monaco" font-size="10.00">HydroCouple::IExchangeItem</text>
<polyline fill="none" stroke="black" points="80.999,-405.199 253.024,-405.199 "/>
<text text-anchor="middle" x="167.012" y="-393.199" font-family="Monaco" font-size="10.00"> </text>
<polyline fill="none" stroke="black" points="80.999,-383.864 253.024,-383.864 "/>
<text text-anchor="start" x="88.999" y="-371.864" font-family="Monaco" font-size="10.00">+ ~IExchangeItem()</text>
</g>
<!-- Node6 -->
<g id="node6" class="node"><title>Node6</title>
<g id="a_node6"><a xlink:href="../../dd/dc3/class_hydro_couple_1_1_i_input.html" target="_top" xlink:title="An IInput item that can accept values for an IModelComponent. ">
<polygon fill="none" stroke="black" points="22.0024,-194.85 22.0024,-298.859 152.021,-298.859 152.021,-194.85 22.0024,-194.85"/>
<text text-anchor="middle" x="87.0117" y="-286.859" font-family="Monaco" font-size="10.00">HydroCouple::IInput</text>
<polyline fill="none" stroke="black" points="22.0024,-277.524 152.021,-277.524 "/>
<text text-anchor="middle" x="87.0117" y="-265.524" font-family="Monaco" font-size="10.00"> </text>
<polyline fill="none" stroke="black" points="22.0024,-256.189 152.021,-256.189 "/>
<text text-anchor="start" x="30.0024" y="-244.189" font-family="Monaco" font-size="10.00">+ ~IInput()</text>
<text text-anchor="start" x="30.0024" y="-230.854" font-family="Monaco" font-size="10.00">+ provider()</text>
<text text-anchor="start" x="30.0024" y="-217.52" font-family="Monaco" font-size="10.00">+ setProvider()</text>
<text text-anchor="start" x="30.0024" y="-204.185" font-family="Monaco" font-size="10.00">+ canConsume()</text>
</a>
</g>
</g>
<!-- Node1&#45;&gt;Node6 -->
<g id="edge5" class="edge"><title>Node1&#45;&gt;Node6</title>
<path fill="none" stroke="midnightblue" d="M144.918,-353.299C135.715,-336.542 124.919,-316.883 115.159,-299.109"/>
<polygon fill="none" stroke="midnightblue" points="141.968,-355.2 149.85,-362.28 148.104,-351.83 141.968,-355.2"/>
</g>
<!-- Node8 -->
<g id="node8" class="node"><title>Node8</title>
<g id="a_node8"><a xlink:href="../../da/dbd/class_hydro_couple_1_1_i_output.html" target="_top" xlink:title="An output exchange item that can deliver values from an IModelComponent. ">
<polygon fill="none" stroke="black" points="183,-168.18 183,-325.529 337.023,-325.529 337.023,-168.18 183,-168.18"/>
<text text-anchor="middle" x="260.012" y="-313.529" font-family="Monaco" font-size="10.00">HydroCouple::IOutput</text>
<polyline fill="none" stroke="black" points="183,-304.194 337.023,-304.194 "/>
<text text-anchor="middle" x="260.012" y="-292.194" font-family="Monaco" font-size="10.00"> </text>
<polyline fill="none" stroke="black" points="183,-282.859 337.023,-282.859 "/>
<text text-anchor="start" x="191" y="-270.859" font-family="Monaco" font-size="10.00">+ ~IOutput()</text>
<text text-anchor="start" x="191" y="-257.524" font-family="Monaco" font-size="10.00">+ consumers()</text>
<text text-anchor="start" x="191" y="-244.189" font-family="Monaco" font-size="10.00">+ addConsumer()</text>
<text text-anchor="start" x="191" y="-230.854" font-family="Monaco" font-size="10.00">+ removeConsumer()</text>
<text text-anchor="start" x="191" y="-217.52" font-family="Monaco" font-size="10.00">+ adaptedOutputs()</text>
<text text-anchor="start" x="191" y="-204.185" font-family="Monaco" font-size="10.00">+ addAdaptedOutput()</text>
<text text-anchor="start" x="191" y="-190.85" font-family="Monaco" font-size="10.00">+ removeAdaptedOutput()</text>
<text text-anchor="start" x="191" y="-177.515" font-family="Monaco" font-size="10.00">+ updateValues()</text>
</a>
</g>
</g>
<!-- Node1&#45;&gt;Node8 -->
<g id="edge7" class="edge"><title>Node1&#45;&gt;Node8</title>
<path fill="none" stroke="midnightblue" d="M192.372,-353.806C197.972,-345.035 204.09,-335.451 210.286,-325.746"/>
<polygon fill="none" stroke="midnightblue" points="189.393,-351.968 186.963,-362.28 195.294,-355.735 189.393,-351.968"/>
</g>
<!-- Node2 -->
<g id="node2" class="node"><title>Node2</title>
<g id="a_node2"><a xlink:href="../../d8/d52/class_hydro_couple_1_1_i_component_data_item.html" target="_top" xlink:title="IComponentItem is a fundamental unit of data for a component. ">
<polygon fill="none" stroke="black" points="65.9966,-463.534 65.9966,-607.549 268.027,-607.549 268.027,-463.534 65.9966,-463.534"/>
<text text-anchor="middle" x="167.012" y="-595.549" font-family="Monaco" font-size="10.00">HydroCouple::IComponentDataItem</text>
<polyline fill="none" stroke="black" points="65.9966,-586.214 268.027,-586.214 "/>
<text text-anchor="middle" x="167.012" y="-574.214" font-family="Monaco" font-size="10.00"> </text>
<polyline fill="none" stroke="black" points="65.9966,-564.879 268.027,-564.879 "/>
<text text-anchor="start" x="73.9966" y="-552.879" font-family="Monaco" font-size="10.00">+ ~IComponentDataItem()</text>
<text text-anchor="start" x="73.9966" y="-539.544" font-family="Monaco" font-size="10.00">+ modelComponent()</text>
<text text-anchor="start" x="73.9966" y="-526.209" font-family="Monaco" font-size="10.00">+ dimensions()</text>
<text text-anchor="start" x="73.9966" y="-512.874" font-family="Monaco" font-size="10.00">+ dimensionLength()</text>
<text text-anchor="start" x="73.9966" y="-499.539" font-family="Monaco" font-size="10.00">+ valueDefinition()</text>
<text text-anchor="start" x="73.9966" y="-486.204" font-family="Monaco" font-size="10.00">+ getValue()</text>
<text text-anchor="start" x="73.9966" y="-472.869" font-family="Monaco" font-size="10.00">+ setValue()</text>
</a>
</g>
</g>
<!-- Node2&#45;&gt;Node1 -->
<g id="edge1" class="edge"><title>Node2&#45;&gt;Node1</title>
<path fill="none" stroke="midnightblue" d="M167.012,-453.131C167.012,-443.737 167.012,-434.642 167.012,-426.561"/>
<polygon fill="none" stroke="midnightblue" points="163.512,-453.408 167.012,-463.408 170.512,-453.408 163.512,-453.408"/>
</g>
<!-- Node3 -->
<g id="node3" class="node"><title>Node3</title>
<g id="a_node3"><a xlink:href="../../d2/d2a/class_hydro_couple_1_1_i_identity.html" target="_top" xlink:title="IIdentity interface class defines a method to get the Id of an HydroCouple entity. ">
<polygon fill="none" stroke="black" points="93.001,-644.549 93.001,-721.889 241.022,-721.889 241.022,-644.549 93.001,-644.549"/>
<text text-anchor="middle" x="167.012" y="-709.889" font-family="Monaco" font-size="10.00">HydroCouple::IIdentity</text>
<polyline fill="none" stroke="black" points="93.001,-700.554 241.022,-700.554 "/>
<text text-anchor="middle" x="167.012" y="-688.554" font-family="Monaco" font-size="10.00"> </text>
<polyline fill="none" stroke="black" points="93.001,-679.219 241.022,-679.219 "/>
<text text-anchor="start" x="101.001" y="-667.219" font-family="Monaco" font-size="10.00">+ ~IIdentity()</text>
<text text-anchor="start" x="101.001" y="-653.884" font-family="Monaco" font-size="10.00">+ id()</text>
</a>
</g>
</g>
<!-- Node3&#45;&gt;Node2 -->
<g id="edge2" class="edge"><title>Node3&#45;&gt;Node2</title>
<path fill="none" stroke="midnightblue" d="M167.012,-634.197C167.012,-625.653 167.012,-616.592 167.012,-607.568"/>
<polygon fill="none" stroke="midnightblue" points="163.512,-634.324 167.012,-644.324 170.512,-634.324 163.512,-634.324"/>
</g>
<!-- Node4 -->
<g id="node4" class="node"><title>Node4</title>
<g id="a_node4"><a xlink:href="../../db/d64/class_hydro_couple_1_1_i_description.html" target="_top" xlink:title="IDescription interface class provides descriptive information on a HydroCouple object. ">
<polygon fill="none" stroke="black" points="83.9995,-758.889 83.9995,-876.233 250.024,-876.233 250.024,-758.889 83.9995,-758.889"/>
<text text-anchor="middle" x="167.012" y="-864.233" font-family="Monaco" font-size="10.00">HydroCouple::IDescription</text>
<polyline fill="none" stroke="black" points="83.9995,-854.898 250.024,-854.898 "/>
<text text-anchor="middle" x="167.012" y="-842.898" font-family="Monaco" font-size="10.00"> </text>
<polyline fill="none" stroke="black" points="83.9995,-833.563 250.024,-833.563 "/>
<text text-anchor="start" x="91.9995" y="-821.563" font-family="Monaco" font-size="10.00">+ ~IDescription()</text>
<text text-anchor="start" x="91.9995" y="-808.229" font-family="Monaco" font-size="10.00">+ caption()</text>
<text text-anchor="start" x="91.9995" y="-794.894" font-family="Monaco" font-size="10.00">+ setCaption()</text>
<text text-anchor="start" x="91.9995" y="-781.559" font-family="Monaco" font-size="10.00">+ description()</text>
<text text-anchor="start" x="91.9995" y="-768.224" font-family="Monaco" font-size="10.00">+ setDescription()</text>
</a>
</g>
</g>
<!-- Node4&#45;&gt;Node3 -->
<g id="edge3" class="edge"><title>Node4&#45;&gt;Node3</title>
<path fill="none" stroke="midnightblue" d="M167.012,-748.323C167.012,-739.284 167.012,-730.297 167.012,-722.036"/>
<polygon fill="none" stroke="midnightblue" points="163.512,-748.514 167.012,-758.514 170.512,-748.514 163.512,-748.514"/>
</g>
<!-- Node5 -->
<g id="node5" class="node"><title>Node5</title>
<g id="a_node5"><a xlink:href="../../dd/dbf/class_hydro_couple_1_1_i_property_changed.html" target="_top" xlink:title="IPropertyChanged interface is used to emit signal/event when a property of an object changes...">
<polygon fill="none" stroke="black" points="71.9976,-913.233 71.9976,-977.238 262.026,-977.238 262.026,-913.233 71.9976,-913.233"/>
<text text-anchor="middle" x="167.012" y="-965.238" font-family="Monaco" font-size="10.00">HydroCouple::IPropertyChanged</text>
<polyline fill="none" stroke="black" points="71.9976,-955.903 262.026,-955.903 "/>
<text text-anchor="middle" x="167.012" y="-943.903" font-family="Monaco" font-size="10.00"> </text>
<polyline fill="none" stroke="black" points="71.9976,-934.568 262.026,-934.568 "/>
<text text-anchor="start" x="79.9976" y="-922.568" font-family="Monaco" font-size="10.00">+ ~IPropertyChanged()</text>
</a>
</g>
</g>
<!-- Node5&#45;&gt;Node4 -->
<g id="edge4" class="edge"><title>Node5&#45;&gt;Node4</title>
<path fill="none" stroke="midnightblue" d="M167.012,-902.913C167.012,-894.528 167.012,-885.562 167.012,-876.719"/>
<polygon fill="none" stroke="midnightblue" points="163.512,-903.17 167.012,-913.17 170.512,-903.17 163.512,-903.17"/>
</g>
<!-- Node7 -->
<g id="node7" class="node"><title>Node7</title>
<g id="a_node7"><a xlink:href="../../d8/dfd/class_hydro_couple_1_1_i_multi_input.html" target="_top" xlink:title="The IMultiInput class is an IInput class that has multiple outputs supplying data to it...">
<polygon fill="none" stroke="black" points="0,-13.835 0,-117.845 160.023,-117.845 160.023,-13.835 0,-13.835"/>
<text text-anchor="middle" x="80.0117" y="-105.845" font-family="Monaco" font-size="10.00">HydroCouple::IMultiInput</text>
<polyline fill="none" stroke="black" points="0,-96.5098 160.023,-96.5098 "/>
<text text-anchor="middle" x="80.0117" y="-84.5098" font-family="Monaco" font-size="10.00"> </text>
<polyline fill="none" stroke="black" points="0,-75.1748 160.023,-75.1748 "/>
<text text-anchor="start" x="8" y="-63.1748" font-family="Monaco" font-size="10.00">+ ~IMultiInput()</text>
<text text-anchor="start" x="8" y="-49.8398" font-family="Monaco" font-size="10.00">+ providers()</text>
<text text-anchor="start" x="8" y="-36.5049" font-family="Monaco" font-size="10.00">+ addProvider()</text>
<text text-anchor="start" x="8" y="-23.1699" font-family="Monaco" font-size="10.00">+ removeProvider()</text>
</a>
</g>
</g>
<!-- Node6&#45;&gt;Node7 -->
<g id="edge6" class="edge"><title>Node6&#45;&gt;Node7</title>
<path fill="none" stroke="midnightblue" d="M84.6124,-184.495C83.7674,-162.886 82.8271,-138.839 82.0179,-118.146"/>
<polygon fill="none" stroke="midnightblue" points="81.1176,-184.701 85.0058,-194.556 88.1123,-184.427 81.1176,-184.701"/>
</g>
<!-- Node9 -->
<g id="node9" class="node"><title>Node9</title>
<g id="a_node9"><a xlink:href="../../d6/d04/class_hydro_couple_1_1_i_adapted_output.html" target="_top" xlink:title="An IAdaptedOutput adds one or more data operations on top of an IOutput. ">
<polygon fill="none" stroke="black" points="177.999,-0.5 177.999,-131.18 356.025,-131.18 356.025,-0.5 177.999,-0.5"/>
<text text-anchor="middle" x="267.012" y="-119.18" font-family="Monaco" font-size="10.00">HydroCouple::IAdaptedOutput</text>
<polyline fill="none" stroke="black" points="177.999,-109.845 356.025,-109.845 "/>
<text text-anchor="middle" x="267.012" y="-97.8447" font-family="Monaco" font-size="10.00"> </text>
<polyline fill="none" stroke="black" points="177.999,-88.5098 356.025,-88.5098 "/>
<text text-anchor="start" x="185.999" y="-76.5098" font-family="Monaco" font-size="10.00">+ ~IAdaptedOutput()</text>
<text text-anchor="start" x="185.999" y="-63.1748" font-family="Monaco" font-size="10.00">+ adaptedOutputFactory()</text>
<text text-anchor="start" x="185.999" y="-49.8398" font-family="Monaco" font-size="10.00">+ arguments()</text>
<text text-anchor="start" x="185.999" y="-36.5049" font-family="Monaco" font-size="10.00">+ initialize()</text>
<text text-anchor="start" x="185.999" y="-23.1699" font-family="Monaco" font-size="10.00">+ adaptee()</text>
<text text-anchor="start" x="185.999" y="-9.83496" font-family="Monaco" font-size="10.00">+ refresh()</text>
</a>
</g>
</g>
<!-- Node8&#45;&gt;Node9 -->
<g id="edge8" class="edge"><title>Node8&#45;&gt;Node9</title>
<path fill="none" stroke="midnightblue" d="M263.447,-158.007C263.798,-149.026 264.15,-140.024 264.489,-131.361"/>
<polygon fill="none" stroke="midnightblue" points="259.945,-157.988 263.051,-168.117 266.94,-158.261 259.945,-157.988"/>
</g>
</g>
</svg>
