<?xml version="1.0" encoding="UTF-8" standalone="no"?>
<!DOCTYPE svg PUBLIC "-//W3C//DTD SVG 1.1//EN"
 "http://www.w3.org/Graphics/SVG/1.1/DTD/svg11.dtd">
<!-- Generated by graphviz version 2.38.0 (20140413.2041)
 -->
<!-- Title: HydroCouple::Temporal::ITimeSeriesComponentDataItem Pages: 1 -->
<svg width="222pt" height="845pt"
 viewBox="0.00 0.00 222.03 844.73" xmlns="http://www.w3.org/2000/svg" xmlns:xlink="http://www.w3.org/1999/xlink">
<g id="graph0" class="graph" transform="scale(1 1) rotate(0) translate(4 840.729)">
<title>HydroCouple::Temporal::ITimeSeriesComponentDataItem</title>
<!-- Node1 -->
<g id="node1" class="node"><title>Node1</title>
<polygon fill="#bfbfbf" stroke="black" points="0,-0.5 0,-131.18 214.032,-131.18 214.032,-0.5 0,-0.5"/>
<text text-anchor="start" x="8" y="-119.18" font-family="Monaco" font-size="10.00">HydroCouple::Temporal</text>
<text text-anchor="middle" x="107.016" y="-105.845" font-family="Monaco" font-size="10.00">::ITimeSeriesComponentDataItem</text>
<polyline fill="none" stroke="black" points="0,-96.5098 214.032,-96.5098 "/>
<text text-anchor="middle" x="107.016" y="-84.5098" font-family="Monaco" font-size="10.00"> </text>
<polyline fill="none" stroke="black" points="0,-75.1748 214.032,-75.1748 "/>
<text text-anchor="start" x="8" y="-63.1748" font-family="Monaco" font-size="10.00">+ ~ITimeSeriesComponentDataItem()</text>
<text text-anchor="start" x="8" y="-49.8398" font-family="Monaco" font-size="10.00">+ getValue()</text>
<text text-anchor="start" x="8" y="-36.5049" font-family="Monaco" font-size="10.00">+ getValues()</text>
<text text-anchor="start" x="8" y="-23.1699" font-family="Monaco" font-size="10.00">+ setValue()</text>
<text text-anchor="start" x="8" y="-9.83496" font-family="Monaco" font-size="10.00">+ setValues()</text>
</g>
<!-- Node2 -->
<g id="node2" class="node"><title>Node2</title>
<g id="a_node2"><a xlink:href="../../d9/d05/class_hydro_couple_1_1_temporal_1_1_i_time_component_data_item.html" target="_top" xlink:title="ITimeComponentItem is an IComponentItem with a temporal attribute. This class cannot be directly inst...">
<polygon fill="none" stroke="black" points="18.0029,-168.18 18.0029,-285.524 196.029,-285.524 196.029,-168.18 18.0029,-168.18"/>
<text text-anchor="start" x="26.0029" y="-273.524" font-family="Monaco" font-size="10.00">HydroCouple::Temporal</text>
<text text-anchor="middle" x="107.016" y="-260.189" font-family="Monaco" font-size="10.00">::ITimeComponentDataItem</text>
<polyline fill="none" stroke="black" points="18.0029,-250.854 196.029,-250.854 "/>
<text text-anchor="middle" x="107.016" y="-238.854" font-family="Monaco" font-size="10.00"> </text>
<polyline fill="none" stroke="black" points="18.0029,-229.52 196.029,-229.52 "/>
<text text-anchor="start" x="26.0029" y="-217.52" font-family="Monaco" font-size="10.00">+ ~ITimeComponentDataItem()</text>
<text text-anchor="start" x="26.0029" y="-204.185" font-family="Monaco" font-size="10.00">+ times()</text>
<text text-anchor="start" x="26.0029" y="-190.85" font-family="Monaco" font-size="10.00">+ timeSpan()</text>
<text text-anchor="start" x="26.0029" y="-177.515" font-family="Monaco" font-size="10.00">+ timeDimension()</text>
</a>
</g>
</g>
<!-- Node2&#45;&gt;Node1 -->
<g id="edge1" class="edge"><title>Node2&#45;&gt;Node1</title>
<path fill="none" stroke="midnightblue" d="M107.016,-157.815C107.016,-149.047 107.016,-140.088 107.016,-131.378"/>
<polygon fill="none" stroke="midnightblue" points="103.516,-157.995 107.016,-167.995 110.516,-157.995 103.516,-157.995"/>
</g>
<!-- Node3 -->
<g id="node3" class="node"><title>Node3</title>
<g id="a_node3"><a xlink:href="../../d8/d52/class_hydro_couple_1_1_i_component_data_item.html" target="_top" xlink:title="IComponentItem is a fundamental unit of data for a component. ">
<polygon fill="none" stroke="black" points="6.00098,-322.524 6.00098,-466.539 208.031,-466.539 208.031,-322.524 6.00098,-322.524"/>
<text text-anchor="middle" x="107.016" y="-454.539" font-family="Monaco" font-size="10.00">HydroCouple::IComponentDataItem</text>
<polyline fill="none" stroke="black" points="6.00098,-445.204 208.031,-445.204 "/>
<text text-anchor="middle" x="107.016" y="-433.204" font-family="Monaco" font-size="10.00"> </text>
<polyline fill="none" stroke="black" points="6.00098,-423.869 208.031,-423.869 "/>
<text text-anchor="start" x="14.001" y="-411.869" font-family="Monaco" font-size="10.00">+ ~IComponentDataItem()</text>
<text text-anchor="start" x="14.001" y="-398.534" font-family="Monaco" font-size="10.00">+ modelComponent()</text>
<text text-anchor="start" x="14.001" y="-385.199" font-family="Monaco" font-size="10.00">+ dimensions()</text>
<text text-anchor="start" x="14.001" y="-371.864" font-family="Monaco" font-size="10.00">+ dimensionLength()</text>
<text text-anchor="start" x="14.001" y="-358.529" font-family="Monaco" font-size="10.00">+ valueDefinition()</text>
<text text-anchor="start" x="14.001" y="-345.194" font-family="Monaco" font-size="10.00">+ getValue()</text>
<text text-anchor="start" x="14.001" y="-331.859" font-family="Monaco" font-size="10.00">+ setValue()</text>
</a>
</g>
</g>
<!-- Node3&#45;&gt;Node2 -->
<g id="edge2" class="edge"><title>Node3&#45;&gt;Node2</title>
<path fill="none" stroke="midnightblue" d="M107.016,-312.18C107.016,-303.18 107.016,-294.158 107.016,-285.537"/>
<polygon fill="none" stroke="midnightblue" points="103.516,-312.307 107.016,-322.307 110.516,-312.307 103.516,-312.307"/>
</g>
<!-- Node4 -->
<g id="node4" class="node"><title>Node4</title>
<g id="a_node4"><a xlink:href="../../d2/d2a/class_hydro_couple_1_1_i_identity.html" target="_top" xlink:title="IIdentity interface class defines a method to get the Id of an HydroCouple entity. ">
<polygon fill="none" stroke="black" points="33.0054,-503.539 33.0054,-580.879 181.027,-580.879 181.027,-503.539 33.0054,-503.539"/>
<text text-anchor="middle" x="107.016" y="-568.879" font-family="Monaco" font-size="10.00">HydroCouple::IIdentity</text>
<polyline fill="none" stroke="black" points="33.0054,-559.544 181.027,-559.544 "/>
<text text-anchor="middle" x="107.016" y="-547.544" font-family="Monaco" font-size="10.00"> </text>
<polyline fill="none" stroke="black" points="33.0054,-538.209 181.027,-538.209 "/>
<text text-anchor="start" x="41.0054" y="-526.209" font-family="Monaco" font-size="10.00">+ ~IIdentity()</text>
<text text-anchor="start" x="41.0054" y="-512.874" font-family="Monaco" font-size="10.00">+ id()</text>
</a>
</g>
</g>
<!-- Node4&#45;&gt;Node3 -->
<g id="edge3" class="edge"><title>Node4&#45;&gt;Node3</title>
<path fill="none" stroke="midnightblue" d="M107.016,-493.187C107.016,-484.643 107.016,-475.582 107.016,-466.558"/>
<polygon fill="none" stroke="midnightblue" points="103.516,-493.314 107.016,-503.314 110.516,-493.314 103.516,-493.314"/>
</g>
<!-- Node5 -->
<g id="node5" class="node"><title>Node5</title>
<g id="a_node5"><a xlink:href="../../db/d64/class_hydro_couple_1_1_i_description.html" target="_top" xlink:title="IDescription interface class provides descriptive information on a HydroCouple object. ">
<polygon fill="none" stroke="black" points="24.0039,-617.879 24.0039,-735.224 190.028,-735.224 190.028,-617.879 24.0039,-617.879"/>
<text text-anchor="middle" x="107.016" y="-723.224" font-family="Monaco" font-size="10.00">HydroCouple::IDescription</text>
<polyline fill="none" stroke="black" points="24.0039,-713.889 190.028,-713.889 "/>
<text text-anchor="middle" x="107.016" y="-701.889" font-family="Monaco" font-size="10.00"> </text>
<polyline fill="none" stroke="black" points="24.0039,-692.554 190.028,-692.554 "/>
<text text-anchor="start" x="32.0039" y="-680.554" font-family="Monaco" font-size="10.00">+ ~IDescription()</text>
<text text-anchor="start" x="32.0039" y="-667.219" font-family="Monaco" font-size="10.00">+ caption()</text>
<text text-anchor="start" x="32.0039" y="-653.884" font-family="Monaco" font-size="10.00">+ setCaption()</text>
<text text-anchor="start" x="32.0039" y="-640.549" font-family="Monaco" font-size="10.00">+ description()</text>
<text text-anchor="start" x="32.0039" y="-627.214" font-family="Monaco" font-size="10.00">+ setDescription()</text>
</a>
</g>
</g>
<!-- Node5&#45;&gt;Node4 -->
<g id="edge4" class="edge"><title>Node5&#45;&gt;Node4</title>
<path fill="none" stroke="midnightblue" d="M107.016,-607.313C107.016,-598.274 107.016,-589.287 107.016,-581.026"/>
<polygon fill="none" stroke="midnightblue" points="103.516,-607.504 107.016,-617.504 110.516,-607.504 103.516,-607.504"/>
</g>
<!-- Node6 -->
<g id="node6" class="node"><title>Node6</title>
<g id="a_node6"><a xlink:href="../../dd/dbf/class_hydro_couple_1_1_i_property_changed.html" target="_top" xlink:title="IPropertyChanged interface is used to emit signal/event when a property of an object changes...">
<polygon fill="none" stroke="black" points="12.002,-772.224 12.002,-836.229 202.03,-836.229 202.03,-772.224 12.002,-772.224"/>
<text text-anchor="middle" x="107.016" y="-824.229" font-family="Monaco" font-size="10.00">HydroCouple::IPropertyChanged</text>
<polyline fill="none" stroke="black" points="12.002,-814.894 202.03,-814.894 "/>
<text text-anchor="middle" x="107.016" y="-802.894" font-family="Monaco" font-size="10.00"> </text>
<polyline fill="none" stroke="black" points="12.002,-793.559 202.03,-793.559 "/>
<text text-anchor="start" x="20.002" y="-781.559" font-family="Monaco" font-size="10.00">+ ~IPropertyChanged()</text>
</a>
</g>
</g>
<!-- Node6&#45;&gt;Node5 -->
<g id="edge5" class="edge"><title>Node6&#45;&gt;Node5</title>
<path fill="none" stroke="midnightblue" d="M107.016,-761.903C107.016,-753.518 107.016,-744.552 107.016,-735.71"/>
<polygon fill="none" stroke="midnightblue" points="103.516,-762.16 107.016,-772.16 110.516,-762.16 103.516,-762.16"/>
</g>
</g>
</svg>
