<?xml version="1.0" encoding="UTF-8" standalone="no"?>
<!DOCTYPE svg PUBLIC "-//W3C//DTD SVG 1.1//EN"
 "http://www.w3.org/Graphics/SVG/1.1/DTD/svg11.dtd">
<!-- Generated by graphviz version 2.38.0 (20140413.2041)
 -->
<!-- Title: HydroCouple::Temporal::ITimeSpan Pages: 1 -->
<svg width="198pt" height="328pt"
 viewBox="0.00 0.00 198.03 328.35" xmlns="http://www.w3.org/2000/svg" xmlns:xlink="http://www.w3.org/1999/xlink">
<g id="graph0" class="graph" transform="scale(1 1) rotate(0) translate(4 324.354)">
<title>HydroCouple::Temporal::ITimeSpan</title>
<!-- Node1 -->
<g id="node1" class="node"><title>Node1</title>
<polygon fill="#bfbfbf" stroke="black" points="24.0039,-0.5 24.0039,-91.1748 166.024,-91.1748 166.024,-0.5 24.0039,-0.5"/>
<text text-anchor="start" x="32.0039" y="-79.1748" font-family="Monaco" font-size="10.00">HydroCouple::Temporal</text>
<text text-anchor="middle" x="95.0142" y="-65.8398" font-family="Monaco" font-size="10.00">::ITimeSpan</text>
<polyline fill="none" stroke="black" points="24.0039,-56.5049 166.024,-56.5049 "/>
<text text-anchor="middle" x="95.0142" y="-44.5049" font-family="Monaco" font-size="10.00"> </text>
<polyline fill="none" stroke="black" points="24.0039,-35.1699 166.024,-35.1699 "/>
<text text-anchor="start" x="32.0039" y="-23.1699" font-family="Monaco" font-size="10.00">+ ~ITimeSpan()</text>
<text text-anchor="start" x="32.0039" y="-9.83496" font-family="Monaco" font-size="10.00">+ duration()</text>
</g>
<!-- Node2 -->
<g id="node2" class="node"><title>Node2</title>
<g id="a_node2"><a xlink:href="../../d6/dd7/class_hydro_couple_1_1_temporal_1_1_i_date_time.html" target="_top" xlink:title="IDateTime interface based on a Modified Julian Date5 (number and fraction of days since 00:00 Novembe...">
<polygon fill="none" stroke="black" points="24.0039,-128.175 24.0039,-218.85 166.024,-218.85 166.024,-128.175 24.0039,-128.175"/>
<text text-anchor="start" x="32.0039" y="-206.85" font-family="Monaco" font-size="10.00">HydroCouple::Temporal</text>
<text text-anchor="middle" x="95.0142" y="-193.515" font-family="Monaco" font-size="10.00">::IDateTime</text>
<polyline fill="none" stroke="black" points="24.0039,-184.18 166.024,-184.18 "/>
<text text-anchor="middle" x="95.0142" y="-172.18" font-family="Monaco" font-size="10.00"> </text>
<polyline fill="none" stroke="black" points="24.0039,-162.845 166.024,-162.845 "/>
<text text-anchor="start" x="32.0039" y="-150.845" font-family="Monaco" font-size="10.00">+ ~IDateTime()</text>
<text text-anchor="start" x="32.0039" y="-137.51" font-family="Monaco" font-size="10.00">+ modifiedJulianDay()</text>
</a>
</g>
</g>
<!-- Node2&#45;&gt;Node1 -->
<g id="edge1" class="edge"><title>Node2&#45;&gt;Node1</title>
<path fill="none" stroke="midnightblue" d="M95.0142,-117.668C95.0142,-108.875 95.0142,-99.8693 95.0142,-91.3557"/>
<polygon fill="none" stroke="midnightblue" points="91.5143,-117.85 95.0142,-127.85 98.5143,-117.85 91.5143,-117.85"/>
</g>
<!-- Node3 -->
<g id="node3" class="node"><title>Node3</title>
<g id="a_node3"><a xlink:href="../../dd/dbf/class_hydro_couple_1_1_i_property_changed.html" target="_top" xlink:title="IPropertyChanged interface is used to emit signal/event when a property of an object changes...">
<polygon fill="none" stroke="black" points="0,-255.85 0,-319.854 190.028,-319.854 190.028,-255.85 0,-255.85"/>
<text text-anchor="middle" x="95.0142" y="-307.854" font-family="Monaco" font-size="10.00">HydroCouple::IPropertyChanged</text>
<polyline fill="none" stroke="black" points="0,-298.52 190.028,-298.52 "/>
<text text-anchor="middle" x="95.0142" y="-286.52" font-family="Monaco" font-size="10.00"> </text>
<polyline fill="none" stroke="black" points="0,-277.185 190.028,-277.185 "/>
<text text-anchor="start" x="8" y="-265.185" font-family="Monaco" font-size="10.00">+ ~IPropertyChanged()</text>
</a>
</g>
</g>
<!-- Node3&#45;&gt;Node2 -->
<g id="edge2" class="edge"><title>Node3&#45;&gt;Node2</title>
<path fill="none" stroke="midnightblue" d="M95.0142,-245.4C95.0142,-236.823 95.0142,-227.753 95.0142,-219.071"/>
<polygon fill="none" stroke="midnightblue" points="91.5143,-245.559 95.0142,-255.559 98.5143,-245.559 91.5143,-245.559"/>
</g>
</g>
</svg>
